<svg xmlns="http://www.w3.org/2000/svg" width="53" height="54" viewBox="0 0 53 54">
    <g fill="none" fill-rule="evenodd">
        <path fill="#D6E4FC" fill-rule="nonzero" d="M26.295 1.885l22.097 12.758a8.805 8.805 0 0 1 3.223 12.027L38.857 48.767A8.805 8.805 0 0 1 26.83 51.99L4.733 39.232A8.805 8.805 0 0 1 1.51 27.205L14.268 5.108a8.805 8.805 0 0 1 12.027-3.223z"/>
        <path d="M2.667 3h46.875v46.875H2.667z"/>
        <g transform="translate(1 8.375)">
            <rect width="47" height="31" x="4.5" y=".5" fill="#FFF" stroke="#0565FF" rx="2"/>
            <path fill="#0162FF" d="M8 4a1 1 0 1 1 0-2 1 1 0 0 1 0 2zm3 0a1 1 0 1 1 0-2 1 1 0 0 1 0 2zm3 0a1 1 0 1 1 0-2 1 1 0 0 1 0 2z"/>
            <rect width="47" height="31" x=".5" y="5.5" fill="#FFF" stroke="#0565FF" rx="2"/>
            <path fill="#CCDCF4" d="M35 6h11a1 1 0 0 1 1 1v9L35 6z"/>
            <path fill="#0162FF" d="M4 10a1 1 0 1 1 0-2 1 1 0 0 1 0 2zm3 0a1 1 0 1 1 0-2 1 1 0 0 1 0 2zm3 0a1 1 0 1 1 0-2 1 1 0 0 1 0 2z"/>
            <g transform="translate(14 12)">
                <path fill="#0162FF" fill-rule="nonzero" d="M1.764 10.304a7.735 7.735 0 0 0 5.729 6.62 14.023 14.023 0 0 1-2.296-6.62H1.764zm0-1.717h3.431c.192-2.373.987-4.65 2.297-6.62a7.735 7.735 0 0 0-5.728 6.62zm15.362 0a7.735 7.735 0 0 0-5.728-6.62 14.023 14.023 0 0 1 2.295 6.62h3.433zm0 1.717h-3.43a13.997 13.997 0 0 1-2.298 6.62 7.735 7.735 0 0 0 5.728-6.62zM6.916 8.587h5.056A12.28 12.28 0 0 0 9.445 2.19a12.269 12.269 0 0 0-2.529 6.397zm5.058 1.717H6.92A12.28 12.28 0 0 0 9.445 16.7a12.269 12.269 0 0 0 2.53-6.396zM9.445 18.89A9.445 9.445 0 1 1 9.445 0a9.445 9.445 0 0 1 0 18.89z"/>
                <rect width="19.34" height="7.646" y="6.747" fill="#FFF" rx=".421"/>
                <path fill="#0565FF" fill-rule="nonzero" d="M6.183 7.646l-1.142 5.397H3.9l-.81-3.506-.805 3.506h-1.14L0 7.646h1.118l.677 3.752.82-3.752h.953l.824 3.752.674-3.752h1.117zm6.579 0l-1.143 5.397h-1.14L9.67 9.537l-.806 3.506h-1.14L6.579 7.646h1.118l.677 3.752.82-3.752h.954l.824 3.752.673-3.752h1.118zm6.578 0l-1.142 5.397h-1.14l-.81-3.506-.805 3.506h-1.14l-1.146-5.397h1.118l.677 3.752.82-3.752h.953l.824 3.752.674-3.752h1.117z"/>
            </g>
        </g>
    </g>
</svg>
