<?xml version="1.0" encoding="UTF-8"?>
<svg width="48px" height="49px" viewBox="0 0 48 49" version="1.1" xmlns="http://www.w3.org/2000/svg" xmlns:xlink="http://www.w3.org/1999/xlink">
    <!-- Generator: Sketch 59.1 (86144) - https://sketch.com -->
    <title>Report sample</title>
    <desc>Created with Sketch.</desc>
    <defs>
        <linearGradient x1="110.5129%" y1="5.76034328%" x2="6.8877551%" y2="116.866721%" id="linearGradient-1">
            <stop stop-color="#FDD230" offset="0%"></stop>
            <stop stop-color="#E8500A" offset="52.4070946%"></stop>
            <stop stop-color="#E96C01" offset="100%"></stop>
        </linearGradient>
    </defs>
    <g id="Design" stroke="none" stroke-width="1" fill="none" fill-rule="evenodd">
        <g id="Report-sample" transform="translate(-3.000000, -2.000000)" fill-rule="nonzero">
            <path d="M15.9545455,7.12849475 L38.7053651,7.12849475 C43.1788716,7.12849475 46.8053651,10.7549883 46.8053651,15.2284947 L46.8053651,37.9793144 C46.8053651,42.4528209 43.1788716,46.0793144 38.7053651,46.0793144 L15.9545455,46.0793144 C11.481039,46.0793144 7.85454545,42.4528209 7.85454545,37.9793144 L7.85454545,15.2284947 C7.85454545,10.7549883 11.481039,7.12849475 15.9545455,7.12849475 Z" id="Rectangle-Copy-2" fill="#FEEFD2" transform="translate(27.329955, 26.603905) rotate(-330.000000) translate(-27.329955, -26.603905) "></path>
            <g id="Group-38-Copy-2" transform="translate(11.526051, 5.890909)">
                <path d="M3.6,0.45 C1.86030304,0.45 0.45,1.86030304 0.45,3.6 L0.45,36.6545455 C0.45,38.3942424 1.86030304,39.8045455 3.6,39.8045455 L27.5309485,39.8045455 C29.2706455,39.8045455 30.6809485,38.3942424 30.6809485,36.6545455 L30.6809485,11.0910608 C30.6809485,10.167077 30.2752691,9.2896863 29.5713188,8.69118816 L25.6804588,5.38317952 L20.7904449,1.20510917 C20.2200577,0.717765409 19.4944597,0.45 18.7442294,0.45 L3.6,0.45 Z" id="Rectangle" stroke="#E96105" stroke-width="0.9" fill="#FFFFFF"></path>
                <path d="M20.1941905,1.23965071 C21.3939877,2.24300763 23.1651175,3.63735327 25.50758,5.42268762 C27.8500425,7.20802197 29.4928122,8.92501938 30.4358889,10.5736799 C25.0027564,11.4439023 21.5083645,11.2159035 19.9527131,9.88968345 C18.3970617,8.56346341 18.4775542,5.68011916 20.1941905,1.23965071 Z" id="Rectangle" fill="#FEE1CD"></path>
                <path d="M30.0883569,10.6880092 L21.9272727,10.6880092 C19.9390476,10.6880092 18.3272727,9.07623428 18.3272727,7.08800918 L18.3272727,4.37549407 L18.3272727,4.37549407" id="Path-6" stroke="#E96105" stroke-width="0.9" stroke-linecap="round" stroke-linejoin="round"></path>
            </g>
            <path d="M32.6351416,38.2909091 C32.9062632,38.2909091 33.1260507,38.5106966 33.1260507,38.7818182 C33.1260507,39.0529398 32.9062632,39.2727273 32.6351416,39.2727273 L20.8533234,39.2727273 C20.5822018,39.2727273 20.3624143,39.0529398 20.3624143,38.7818182 C20.3624143,38.5106966 20.5822018,38.2909091 20.8533234,38.2909091 L32.6351416,38.2909091 Z M32.6351416,35.3454545 C32.9062632,35.3454545 33.1260507,35.565242 33.1260507,35.8363636 C33.1260507,36.1074852 32.9062632,36.3272727 32.6351416,36.3272727 L20.8533234,36.3272727 C20.5822018,36.3272727 20.3624143,36.1074852 20.3624143,35.8363636 C20.3624143,35.565242 20.5822018,35.3454545 20.8533234,35.3454545 L32.6351416,35.3454545 Z M32.0697199,25.7532577 C32.0804109,25.7700175 32.0903553,25.7879523 32.0991253,25.8065279 C32.1033857,25.8155833 32.1069419,25.8237739 32.1102558,25.8320361 C32.1320373,25.8858318 32.1442325,25.9456024 32.1442325,26.0081633 L32.1442325,28.8935065 C32.1442325,29.159095 31.924445,29.374397 31.6533234,29.374397 C31.3822018,29.374397 31.1624143,29.159095 31.1624143,28.8935065 L31.1624143,27.1682727 L27.3368122,30.9166643 C27.1451003,31.1044638 26.8342738,31.1044638 26.6425619,30.9166643 L24.5351416,28.8522526 L21.2004486,32.1188907 C21.0087367,32.3066901 20.6979102,32.3066901 20.5061983,32.1188907 C20.3144864,31.9310912 20.3144864,31.6266082 20.5061983,31.4388088 L24.1880165,27.8321297 C24.3797284,27.6443303 24.6905548,27.6443303 24.8822668,27.8321297 L26.9896871,29.8965415 L30.4674143,26.4882727 L28.7078689,26.4890538 C28.4367473,26.4890538 28.2169598,26.2737518 28.2169598,26.0081633 C28.2169598,25.7425748 28.4367473,25.5272727 28.7078689,25.5272727 L31.6533234,25.5272727 C31.6845369,25.5272727 31.71507,25.5301264 31.7446656,25.5355819 C31.7525722,25.5370898 31.7600095,25.5386449 31.7674139,25.5403705 C31.7894019,25.5454431 31.8110291,25.5520894 31.8319575,25.5601021 C31.8407072,25.5634578 31.8491439,25.5669553 31.8574955,25.5706943 C31.8770495,25.5794918 31.8957228,25.5893785 31.9136213,25.6003647 C31.9239713,25.6066417 31.9348025,25.6138656 31.9453892,25.6215605 C31.958877,25.6314187 31.9714607,25.6415639 31.9834981,25.6522871 C31.9891429,25.6573074 31.9948466,25.6626347 32.0004486,25.6681223 L32.0156569,25.6836992 L32.0244143,25.6942727 L32.0144143,25.6832727 L32.0496636,25.7243536 L32.0496636,25.7243536 L32.0324143,25.7032727 C32.04945,25.7234297 32.060055,25.7381377 32.0697199,25.7532577 Z" id="Combined-Shape" fill="url(#linearGradient-1)"></path>
        </g>
    </g>
</svg>