<svg width="147" height="47" viewBox="0 0 147 47" fill="none" xmlns="http://www.w3.org/2000/svg">
<path d="M8.98291 0H17.9658C20.4451 0 22.4573 1.97445 22.4573 4.40726V8.81452C22.4573 11.2473 20.4451 13.2218 17.9658 13.2218H0V8.81452C0 3.94387 4.01921 0 8.98291 0Z" fill="#FF4800"/>
<path d="M8.98291 0H17.9658C20.4451 0 22.4573 1.97445 22.4573 4.40726V8.81452C22.4573 11.2473 20.4451 13.2218 17.9658 13.2218H0V8.81452C0 3.94387 4.01921 0 8.98291 0Z" fill="#FF4800"/>
<path d="M0 17.629H17.9658C20.4451 17.629 22.4573 19.6035 22.4573 22.0363V30.8508C22.4573 33.2836 20.4451 35.2581 17.9658 35.2581H8.98291C4.02434 35.2581 0 31.3092 0 26.4435V17.629Z" fill="#FF4800"/>
<path d="M31.4402 17.629H35.9316V26.4435C35.9316 31.3092 31.9073 35.2581 26.9487 35.2581V22.0363C26.9487 19.5984 28.9558 17.629 31.4402 17.629Z" fill="#FF4800"/>
<path d="M26.9487 0C31.9073 0 35.9316 3.94891 35.9316 8.81452V13.2218H31.4402C28.9609 13.2218 26.9487 11.2473 26.9487 8.81452V0Z" fill="#FF4800"/>
<path d="M51.7007 27.6675V6.87024H59.9085C63.861 6.87024 66.3146 9.12676 66.3146 12.5015C66.3146 14.5061 65.2572 16.0525 63.6967 16.7072C65.8013 17.2714 67.3925 19.0846 67.3925 21.593C67.3925 25.1289 64.7593 27.6675 60.8838 27.6675H51.7007ZM59.5287 10.8242H56.5617V15.1307H59.5287C60.7709 15.1307 61.6486 14.3601 61.6486 12.9749C61.6486 11.5948 60.7657 10.8242 59.5287 10.8242ZM60.1498 18.9335H56.5617V23.7186H60.1498C61.4844 23.7186 62.4186 22.7666 62.4186 21.3261C62.4186 19.8704 61.4792 18.9335 60.1498 18.9335Z" fill="white"/>
<path d="M78.2285 11.9222C83.2384 11.9222 87.0112 15.4581 87.0112 19.9762C87.0112 24.4943 83.2436 28.0301 78.2285 28.0301C73.2135 28.0301 69.4458 24.4943 69.4458 19.9762C69.4458 15.4581 73.2186 11.9222 78.2285 11.9222ZM78.2285 23.8344C80.482 23.8344 82.181 22.1723 82.181 19.9712C82.181 17.7852 80.4871 16.1079 78.2285 16.1079C75.97 16.1079 74.276 17.7852 74.276 19.9712C74.276 22.1723 75.9751 23.8344 78.2285 23.8344Z" fill="white"/>
<path d="M89.8447 6.87024H94.7058V27.6675H89.8447V6.87024Z" fill="white"/>
<path d="M104.941 11.9222C106.999 11.9222 108.698 12.6929 109.92 13.9722V6.87024H114.704V27.6675H109.92V25.9751C108.693 27.2544 106.999 28.0251 104.941 28.0251C100.624 28.0251 97.5698 24.4892 97.5698 19.9711C97.5698 15.4531 100.624 11.9222 104.941 11.9222ZM106.137 23.8344C108.257 23.8344 109.92 22.1722 109.92 19.9711C109.92 17.7851 108.257 16.1079 106.137 16.1079C104.032 16.1079 102.4 17.7851 102.4 19.9711C102.395 22.1722 104.032 23.8344 106.137 23.8344Z" fill="white"/>
<path d="M122.034 27.6675V6.87024H130.242C134.194 6.87024 136.648 9.12676 136.648 12.5015C136.648 14.5061 135.591 16.0525 134.03 16.7072C136.135 17.2714 137.726 19.0846 137.726 21.593C137.726 25.1289 135.093 27.6675 131.217 27.6675H122.034ZM129.862 10.8242H126.895V15.1307H129.862C131.104 15.1307 131.982 14.3601 131.982 12.9749C131.982 11.5948 131.104 10.8242 129.862 10.8242ZM130.483 18.9335H126.895V23.7186H130.483C131.818 23.7186 132.752 22.7666 132.752 21.3261C132.752 19.8704 131.818 18.9335 130.483 18.9335Z" fill="white"/>
<path d="M146.17 6.87024V27.6675H141.16V6.87024H146.17Z" fill="white"/>
<path d="M55.301 44.0748H52.0068V35.8797H54.943C56.4409 35.8797 57.3241 36.7343 57.3241 38.0514C57.3241 38.9236 56.8467 39.4914 56.1962 39.7255C57.0615 39.9128 57.8015 40.6387 57.8015 41.7392C57.8015 43.1206 56.8288 44.0748 55.301 44.0748ZM56.1843 38.1041C56.1843 37.2962 55.6412 36.8338 54.8654 36.8338H53.1288V39.3684H54.8654C55.6412 39.3684 56.1843 38.9119 56.1843 38.1041ZM56.6617 41.7041C56.6617 40.8377 56.0649 40.2875 55.2055 40.2875H53.1288V43.1206H55.2055C56.0649 43.1206 56.6617 42.5645 56.6617 41.7041ZM59.7351 46.7909L60.8331 44.0514L58.4162 38.0104H59.5501L61.3881 42.6992L63.2262 38.0104H64.3601L60.8689 46.7909H59.7351ZM68.806 42.7811L69.3968 42.1489C69.9399 42.7519 70.7276 43.2436 71.581 43.2436C72.6672 43.2436 73.431 42.7109 73.431 41.8914C73.431 41.1597 72.9118 40.5977 71.4438 40.2992C69.7251 39.948 68.8597 39.1226 68.8597 37.9577C68.8597 36.6465 69.9459 35.7392 71.5094 35.7392C72.9297 35.7392 74.3799 36.465 74.3799 38.0689H73.2401C73.2401 37.185 72.506 36.7109 71.5631 36.7109C70.6441 36.7109 69.9996 37.1909 69.9996 37.8816C69.9996 38.625 70.6202 39.105 71.9152 39.3919C73.8189 39.8133 74.5709 40.6445 74.5709 41.8855C74.5709 43.2436 73.4489 44.2153 71.6347 44.2153C70.471 44.2153 69.4804 43.6123 68.806 42.7811ZM76.4447 46.7909L77.5428 44.0514L75.1259 38.0104H76.2597L78.0978 42.6992L79.9359 38.0104H81.0697L77.5786 46.7909H76.4447ZM83.1883 40.6972V44.0748H82.1022V38.0104H83.1883V38.9411C83.5881 38.3323 84.3222 37.8699 85.1934 37.8699C86.7152 37.8699 87.682 38.8241 87.682 40.346V44.0748H86.5959V40.4045C86.5959 39.4387 85.9991 38.8241 84.9905 38.8241C84.0476 38.8241 83.1883 39.6377 83.1883 40.6972ZM88.8755 41.0426C88.8755 39.2221 90.266 37.8699 92.0444 37.8699C93.5304 37.8699 94.7001 38.6719 95.0283 40.0299H93.8765C93.6438 39.2689 92.9634 38.8241 92.122 38.8241C91.0717 38.8241 89.9796 39.6436 89.9796 41.0426C89.9796 42.4475 91.1254 43.2611 92.2473 43.2611C93.0291 43.2611 93.7631 42.8748 94.2167 42.1782L94.9507 42.5938C94.3659 43.6592 93.3812 44.2153 92.1638 44.2153C90.451 44.2153 88.8755 42.8689 88.8755 41.0426ZM99.5936 35.5753V36.4943C99.4444 36.4767 99.2236 36.465 99.0505 36.465C98.1673 36.465 97.8331 36.8689 97.8331 37.6533V38.0104H99.5936V38.947H97.8331V44.0748H96.747V38.947H95.4997V38.0104H96.747V37.6416C96.747 36.2133 97.4512 35.5284 98.961 35.5284C99.1878 35.5284 99.4325 35.5519 99.5936 35.5753ZM105.108 41.3821V38.0045H106.194V44.0689H105.108V43.1382C104.708 43.747 103.974 44.2094 103.103 44.2094C101.581 44.2094 100.614 43.2553 100.614 41.7333V38.0045H101.7V41.6748C101.7 42.6406 102.297 43.2553 103.306 43.2553C104.248 43.2553 105.108 42.4416 105.108 41.3821ZM107.602 43.0914L108.116 42.4884C108.515 42.9626 109.13 43.2962 109.834 43.2962C110.616 43.2962 111.099 42.9392 111.099 42.4006C111.099 41.8914 110.694 41.5577 109.727 41.3762C108.366 41.1187 107.716 40.4923 107.716 39.5499C107.716 38.5958 108.492 37.8699 109.787 37.8699C110.98 37.8699 111.822 38.467 111.971 39.6319H110.879C110.855 39.146 110.485 38.7889 109.864 38.7889C109.226 38.7889 108.802 39.1109 108.802 39.5675C108.802 40.0006 109.22 40.3577 110.079 40.5275C111.499 40.8026 112.186 41.4114 112.186 42.4182C112.186 43.4426 111.344 44.2153 109.906 44.2153C108.891 44.2153 108.151 43.7821 107.602 43.0914ZM113.642 44.0748V38.0104H114.728V44.0748H113.642ZM113.469 36.3187C113.469 35.9206 113.779 35.6162 114.185 35.6162C114.591 35.6162 114.901 35.9206 114.901 36.3187C114.901 36.7109 114.591 37.0153 114.185 37.0153C113.779 37.0153 113.469 36.7109 113.469 36.3187ZM119.526 43.2611C120.791 43.2611 121.764 42.266 121.764 41.0426C121.764 39.8192 120.791 38.8241 119.526 38.8241C118.261 38.8241 117.288 39.8192 117.288 41.0426C117.288 42.266 118.261 43.2611 119.526 43.2611ZM119.526 37.8699C121.453 37.8699 122.868 39.2923 122.868 41.0426C122.868 42.7928 121.453 44.2153 119.526 44.2153C117.598 44.2153 116.184 42.7928 116.184 41.0426C116.184 39.2923 117.598 37.8699 119.526 37.8699ZM125.267 40.6972V44.0748H124.181V38.0104H125.267V38.9411C125.667 38.3323 126.401 37.8699 127.272 37.8699C128.794 37.8699 129.761 38.8241 129.761 40.346V44.0748H128.674V40.4045C128.674 39.4387 128.078 38.8241 127.069 38.8241C126.126 38.8241 125.267 39.6377 125.267 40.6972Z" fill="black"/>
<path d="M55.301 44.0748H52.0068V35.8797H54.943C56.4409 35.8797 57.3241 36.7343 57.3241 38.0514C57.3241 38.9236 56.8467 39.4914 56.1962 39.7255C57.0615 39.9128 57.8015 40.6387 57.8015 41.7392C57.8015 43.1206 56.8288 44.0748 55.301 44.0748ZM56.1843 38.1041C56.1843 37.2962 55.6412 36.8338 54.8654 36.8338H53.1288V39.3684H54.8654C55.6412 39.3684 56.1843 38.9119 56.1843 38.1041ZM56.6617 41.7041C56.6617 40.8377 56.0649 40.2875 55.2055 40.2875H53.1288V43.1206H55.2055C56.0649 43.1206 56.6617 42.5645 56.6617 41.7041ZM59.7351 46.7909L60.8331 44.0514L58.4162 38.0104H59.5501L61.3881 42.6992L63.2262 38.0104H64.3601L60.8689 46.7909H59.7351ZM68.806 42.7811L69.3968 42.1489C69.9399 42.7519 70.7276 43.2436 71.581 43.2436C72.6672 43.2436 73.431 42.7109 73.431 41.8914C73.431 41.1597 72.9118 40.5977 71.4438 40.2992C69.7251 39.948 68.8597 39.1226 68.8597 37.9577C68.8597 36.6465 69.9459 35.7392 71.5094 35.7392C72.9297 35.7392 74.3799 36.465 74.3799 38.0689H73.2401C73.2401 37.185 72.506 36.7109 71.5631 36.7109C70.6441 36.7109 69.9996 37.1909 69.9996 37.8816C69.9996 38.625 70.6202 39.105 71.9152 39.3919C73.8189 39.8133 74.5709 40.6445 74.5709 41.8855C74.5709 43.2436 73.4489 44.2153 71.6347 44.2153C70.471 44.2153 69.4804 43.6123 68.806 42.7811ZM76.4447 46.7909L77.5428 44.0514L75.1259 38.0104H76.2597L78.0978 42.6992L79.9359 38.0104H81.0697L77.5786 46.7909H76.4447ZM83.1883 40.6972V44.0748H82.1022V38.0104H83.1883V38.9411C83.5881 38.3323 84.3222 37.8699 85.1934 37.8699C86.7152 37.8699 87.682 38.8241 87.682 40.346V44.0748H86.5959V40.4045C86.5959 39.4387 85.9991 38.8241 84.9905 38.8241C84.0476 38.8241 83.1883 39.6377 83.1883 40.6972ZM88.8755 41.0426C88.8755 39.2221 90.266 37.8699 92.0444 37.8699C93.5304 37.8699 94.7001 38.6719 95.0283 40.0299H93.8765C93.6438 39.2689 92.9634 38.8241 92.122 38.8241C91.0717 38.8241 89.9796 39.6436 89.9796 41.0426C89.9796 42.4475 91.1254 43.2611 92.2473 43.2611C93.0291 43.2611 93.7631 42.8748 94.2167 42.1782L94.9507 42.5938C94.3659 43.6592 93.3812 44.2153 92.1638 44.2153C90.451 44.2153 88.8755 42.8689 88.8755 41.0426ZM99.5936 35.5753V36.4943C99.4444 36.4767 99.2236 36.465 99.0505 36.465C98.1673 36.465 97.8331 36.8689 97.8331 37.6533V38.0104H99.5936V38.947H97.8331V44.0748H96.747V38.947H95.4997V38.0104H96.747V37.6416C96.747 36.2133 97.4512 35.5284 98.961 35.5284C99.1878 35.5284 99.4325 35.5519 99.5936 35.5753ZM105.108 41.3821V38.0045H106.194V44.0689H105.108V43.1382C104.708 43.747 103.974 44.2094 103.103 44.2094C101.581 44.2094 100.614 43.2553 100.614 41.7333V38.0045H101.7V41.6748C101.7 42.6406 102.297 43.2553 103.306 43.2553C104.248 43.2553 105.108 42.4416 105.108 41.3821ZM107.602 43.0914L108.116 42.4884C108.515 42.9626 109.13 43.2962 109.834 43.2962C110.616 43.2962 111.099 42.9392 111.099 42.4006C111.099 41.8914 110.694 41.5577 109.727 41.3762C108.366 41.1187 107.716 40.4923 107.716 39.5499C107.716 38.5958 108.492 37.8699 109.787 37.8699C110.98 37.8699 111.822 38.467 111.971 39.6319H110.879C110.855 39.146 110.485 38.7889 109.864 38.7889C109.226 38.7889 108.802 39.1109 108.802 39.5675C108.802 40.0006 109.22 40.3577 110.079 40.5275C111.499 40.8026 112.186 41.4114 112.186 42.4182C112.186 43.4426 111.344 44.2153 109.906 44.2153C108.891 44.2153 108.151 43.7821 107.602 43.0914ZM113.642 44.0748V38.0104H114.728V44.0748H113.642ZM113.469 36.3187C113.469 35.9206 113.779 35.6162 114.185 35.6162C114.591 35.6162 114.901 35.9206 114.901 36.3187C114.901 36.7109 114.591 37.0153 114.185 37.0153C113.779 37.0153 113.469 36.7109 113.469 36.3187ZM119.526 43.2611C120.791 43.2611 121.764 42.266 121.764 41.0426C121.764 39.8192 120.791 38.8241 119.526 38.8241C118.261 38.8241 117.288 39.8192 117.288 41.0426C117.288 42.266 118.261 43.2611 119.526 43.2611ZM119.526 37.8699C121.453 37.8699 122.868 39.2923 122.868 41.0426C122.868 42.7928 121.453 44.2153 119.526 44.2153C117.598 44.2153 116.184 42.7928 116.184 41.0426C116.184 39.2923 117.598 37.8699 119.526 37.8699ZM125.267 40.6972V44.0748H124.181V38.0104H125.267V38.9411C125.667 38.3323 126.401 37.8699 127.272 37.8699C128.794 37.8699 129.761 38.8241 129.761 40.346V44.0748H128.674V40.4045C128.674 39.4387 128.078 38.8241 127.069 38.8241C126.126 38.8241 125.267 39.6377 125.267 40.6972Z" fill="white"/>
</svg>
