<?xml version="1.0" encoding="UTF-8"?>
<svg width="51px" height="51px" viewBox="0 0 51 51" version="1.1" xmlns="http://www.w3.org/2000/svg" xmlns:xlink="http://www.w3.org/1999/xlink">
    <!-- Generator: Sketch 51.2 (57519) - http://www.bohemiancoding.com/sketch -->
    <title>Dataset_empty state</title>
    <desc>Created with Sketch.</desc>
    <defs>
        <linearGradient x1="95.6436247%" y1="0%" x2="0%" y2="103.996182%" id="linearGradient-1">
            <stop stop-color="#0569FF" offset="0%"></stop>
            <stop stop-color="#0653C7" offset="100%"></stop>
        </linearGradient>
        <linearGradient x1="50%" y1="0%" x2="50%" y2="142.045041%" id="linearGradient-2">
            <stop stop-color="#0666F6" stop-opacity="0.240234375" offset="0%"></stop>
            <stop stop-color="#D8D8D8" stop-opacity="0" offset="100%"></stop>
        </linearGradient>
        <linearGradient x1="50%" y1="100%" x2="50%" y2="3.061617e-15%" id="linearGradient-3">
            <stop stop-color="#0569FF" stop-opacity="0.0628396739" offset="0%"></stop>
            <stop stop-color="#0653C7" offset="100%"></stop>
        </linearGradient>
    </defs>
    <g id="Page-1" stroke="none" stroke-width="1" fill="none" fill-rule="evenodd">
        <g id="Artboard" transform="translate(-100.000000, -76.000000)" fill-rule="nonzero">
            <g id="Dataset_empty-state" transform="translate(100.000000, 77.000000)">
                <rect id="Rectangle" stroke="url(#linearGradient-1)" stroke-width="4" fill="#FFFFFF" x="2" y="2" width="46" height="46" rx="4"></rect>
                <polygon id="Path-2" fill="url(#linearGradient-2)" points="3.94779683 34.0859609 20.7281289 20.1096768 30.7223387 25.0543897 46.2095898 3.86953106 46.2095898 46.2392483 3.94779683 46.2392483"></polygon>
                <path d="M9.5,18.5 C9.5,17.9477153 9.94771525,17.5 10.5,17.5 C11.0522847,17.5 11.5,17.9477153 11.5,18.5 L11.5,40.5 C11.5,41.0522847 11.0522847,41.5 10.5,41.5 C9.94771525,41.5 9.5,41.0522847 9.5,40.5 L9.5,18.5 Z" id="Line" fill="url(#linearGradient-3)"></path>
                <path d="M19.25,11.5 C19.25,10.9477153 19.6977153,10.5 20.25,10.5 C20.8022847,10.5 21.25,10.9477153 21.25,11.5 L21.25,40.5 C21.25,41.0522847 20.8022847,41.5 20.25,41.5 C19.6977153,41.5 19.25,41.0522847 19.25,40.5 L19.25,11.5 Z" id="Line-Copy" fill="url(#linearGradient-3)"></path>
                <path d="M29.2083333,26.5 C29.2083333,25.9477153 29.6560486,25.5 30.2083333,25.5 C30.7606181,25.5 31.2083333,25.9477153 31.2083333,26.5 L31.2083333,40.5 C31.2083333,41.0522847 30.7606181,41.5 30.2083333,41.5 C29.6560486,41.5 29.2083333,41.0522847 29.2083333,40.5 L29.2083333,26.5 Z" id="Line-Copy-2" fill="url(#linearGradient-3)"></path>
                <path d="M39.2083333,15.5 C39.2083333,14.9477153 39.6560486,14.5 40.2083333,14.5 C40.7606181,14.5 41.2083333,14.9477153 41.2083333,15.5 L41.2083333,40.5 C41.2083333,41.0522847 40.7606181,41.5 40.2083333,41.5 C39.6560486,41.5 39.2083333,41.0522847 39.2083333,40.5 L39.2083333,15.5 Z" id="Line-Copy-3" fill="url(#linearGradient-3)"></path>
                <polyline id="Path-3" stroke="#083C8A" stroke-width="3" stroke-linecap="round" stroke-linejoin="round" points="4.25388967 34.093925 20.4075719 19.7827486 30.5542952 25.5185282 47.2021624 2.67044873"></polyline>
                <circle id="Oval" stroke="#083C8A" stroke-width="2" fill="#FFFFFF" stroke-linecap="round" stroke-linejoin="round" cx="4" cy="34" r="3"></circle>
                <circle id="Oval-Copy" stroke="#083C8A" stroke-width="2" fill="#FFFFFF" stroke-linecap="round" stroke-linejoin="round" cx="47" cy="3" r="3"></circle>
            </g>
        </g>
    </g>
</svg>