<svg width="16" height="16" viewBox="0 0 16 16" fill="none" xmlns="http://www.w3.org/2000/svg">
<rect width="16" height="16" fill="white"/>
<g clip-path="url(#clip0_2287_24746)">
<path d="M4.30435 4.30435H7.34783C7.58783 4.30435 7.78261 4.4987 7.78261 4.73913C7.78261 4.97957 7.58783 5.17391 7.34783 5.17391H4.30435C4.06435 5.17391 3.86957 5.36826 3.86957 5.6087V11.6957C3.86957 11.9361 4.06435 12.1304 4.30435 12.1304H10.3913C10.6313 12.1304 10.8261 11.9361 10.8261 11.6957V9.08696C10.8261 8.84652 11.0209 8.65217 11.2609 8.65217C11.5009 8.65217 11.6957 8.84652 11.6957 9.08696V11.6957C11.6957 12.4161 11.1117 13 10.3913 13H4.30435C3.58391 13 3 12.4161 3 11.6957V5.6087C3 4.88826 3.58391 4.30435 4.30435 4.30435ZM9.08704 3H12.1305C12.61 3 13 3.39 13 3.86957V6.91304C13 7.15348 12.8052 7.34783 12.5652 7.34783C12.3252 7.34783 12.1305 7.15348 12.1305 6.91304V4.48435L8.52488 8.09C8.44009 8.17478 8.32879 8.21739 8.21749 8.21739C8.10619 8.21739 7.99489 8.17478 7.9101 8.09C7.74011 7.92 7.74011 7.64522 7.9101 7.47522L11.5157 3.86957H9.08704C8.84704 3.86957 8.65226 3.67522 8.65226 3.43478C8.65226 3.19435 8.84704 3 9.08704 3Z" fill="#4290D6"/>
</g>
<defs>
<clipPath id="clip0_2287_24746">
<rect width="10" height="10" fill="white" transform="translate(3 3)"/>
</clipPath>
</defs>
</svg>
