<?xml version="1.0" encoding="UTF-8"?>
<svg width="32px" height="32px" viewBox="0 0 32 32" version="1.1" xmlns="http://www.w3.org/2000/svg" xmlns:xlink="http://www.w3.org/1999/xlink">
    <!-- Generator: Sketch 49.2 (51160) - http://www.bohemiancoding.com/sketch -->
    <title>warning</title>
    <desc>Created with Sketch.</desc>
    <defs>
        <linearGradient x1="77.890625%" y1="17.4934896%" x2="16.1979167%" y2="84.3294271%" id="linearGradient-1">
            <stop stop-color="#FFCA2D" offset="0%"></stop>
            <stop stop-color="#F9AF2F" offset="26.3492506%"></stop>
            <stop stop-color="#FEA930" offset="52.8858418%"></stop>
            <stop stop-color="#FB9732" offset="76.5545281%"></stop>
            <stop stop-color="#FD8B32" offset="100%"></stop>
        </linearGradient>
        <filter x="-125.9%" y="-105.8%" width="364.3%" height="399.2%" filterUnits="objectBoundingBox" id="filter-2">
            <feOffset dx="1" dy="7" in="SourceAlpha" result="shadowOffsetOuter1"></feOffset>
            <feGaussianBlur stdDeviation="7" in="shadowOffsetOuter1" result="shadowBlurOuter1"></feGaussianBlur>
            <feColorMatrix values="0 0 0 0 0   0 0 0 0 0   0 0 0 0 0  0 0 0 0.2 0" type="matrix" in="shadowBlurOuter1" result="shadowMatrixOuter1"></feColorMatrix>
            <feMerge>
                <feMergeNode in="shadowMatrixOuter1"></feMergeNode>
                <feMergeNode in="SourceGraphic"></feMergeNode>
            </feMerge>
        </filter>
        <linearGradient x1="66.7382812%" y1="14.3229167%" x2="26.3020833%" y2="100%" id="linearGradient-3">
            <stop stop-color="#FCFEFA" offset="0%"></stop>
            <stop stop-color="#FEE6CF" offset="100%"></stop>
        </linearGradient>
    </defs>
    <g id="warning" stroke="none" stroke-width="1" fill="none" fill-rule="evenodd">
        <g id="Components-/-Z-Symbols-/-Icons-/-Large-/-Warning">
            <circle id="BG" fill="url(#linearGradient-1)" cx="16" cy="16" r="16"></circle>
            <g id="warning" filter="url(#filter-2)" stroke-width="1" transform="translate(6.933333, 6.400000)" fill="url(#linearGradient-3)">
                <path d="M18.5013691,14.6944872 L10.3919185,0.611990963 C9.92186085,-0.203996988 8.74480582,-0.203996988 8.27474812,0.611990963 L0.165297517,14.6944872 C-0.304760176,15.5104752 0.283767342,16.5333333 1.22388273,16.5333333 L17.4427839,16.5333333 C18.3828993,16.5333333 18.9714268,15.5104752 18.5013691,14.6944872 Z M9.34479816,4.75705652 C9.86453674,4.75705652 10.2849135,5.18995153 10.2696271,5.71095793 L10.1167628,11.0589353 C10.105298,11.4803375 9.76135335,11.8136284 9.34097655,11.8136284 C8.92059975,11.8136284 8.5766551,11.4765066 8.56519027,11.0589353 L8.41614759,5.71095793 C8.40468277,5.18995153 8.82123796,4.75705652 9.34479816,4.75705652 Z M9.33333333,14.9281739 C8.80212992,14.9281739 8.3702883,14.4952789 8.3702883,13.9627797 C8.3702883,13.4302806 8.80212992,12.9973855 9.33333333,12.9973855 C9.86453674,12.9973855 10.2963784,13.4302806 10.2963784,13.9627797 C10.2963784,14.4952789 9.86453674,14.9281739 9.33333333,14.9281739 Z" id="Shape" fill-rule="nonzero"></path>
            </g>
        </g>
    </g>
</svg>