<svg width="210" height="90" viewBox="0 0 210 90" fill="none" xmlns="http://www.w3.org/2000/svg">
<path d="M50.5737 12L19 28.4045V61.2134L50.5737 77.6426L82.0485 61.2381V28.4292L50.5737 12Z" fill="#E6002D"/>
<path d="M48.4241 33.5928V64.2276L40.6913 60.2253V37.6198L30.8091 42.7585V34.5563L50.5488 24.3035L58.4052 28.4046L48.4241 33.5928Z" fill="white"/>
<path d="M64.1616 58.2489L56.3794 62.3006V37.6445L64.1616 33.5928V58.2489Z" fill="white"/>
<path d="M102.431 60.7686V34.4325H93.8579V28.1079H118.02V34.4325H109.521V60.7686H102.431Z" fill="white"/>
<path d="M128.52 28.1079H121.627V34.4325H128.52V28.1079Z" fill="white"/>
<path d="M128.52 36.1619H121.627V60.7686H128.52V36.1619Z" fill="white"/>
<path d="M135.61 60.7686V28.1079H146.703C149.495 28.1079 151.817 28.4044 153.645 28.9973C155.498 29.5902 156.931 30.6032 157.969 31.9867C158.982 33.3455 159.698 34.9761 160.069 36.8043C160.439 38.6325 160.637 41.0289 160.637 43.9195C160.637 46.81 160.464 49.2559 160.118 51.1582C159.772 53.0852 159.105 54.8393 158.117 56.3463C157.129 57.8781 155.671 59.0145 153.794 59.7063C151.941 60.3981 149.569 60.7439 146.703 60.7439H135.61V60.7686ZM146.703 54.5428C148.976 54.5428 150.631 53.9746 151.62 52.8382C152.484 51.9241 153.028 50.1947 153.25 47.7241C153.3 46.7359 153.349 45.3277 153.349 43.5736C153.349 41.8195 153.275 40.3866 153.151 39.3489C153.028 38.3113 152.731 37.3725 152.287 36.5325C151.842 35.7172 151.2 35.149 150.335 34.8525C149.445 34.5314 148.21 34.3831 146.678 34.3831H142.676V54.5675H146.703V54.5428Z" fill="white"/>
<path d="M167.208 60.7686V28.1079H180.08C183.465 28.1079 186.059 28.7997 187.764 30.1832C189.493 31.5667 190.382 33.8396 190.382 36.9031C190.382 38.7313 190.111 40.2136 189.542 41.3007C189.048 42.2642 188.233 43.1536 187.146 43.9195C188.381 44.5371 189.32 45.3524 189.938 46.4147C190.629 47.5759 191 49.2312 191 51.2817C191 54.4687 190.036 56.8899 188.159 58.4463C186.281 60.0028 183.638 60.7686 180.278 60.7686H167.208ZM179.957 54.617C181.291 54.617 182.279 54.3452 182.921 53.8264C183.514 53.3323 183.835 52.344 183.835 50.9358C183.835 48.5147 182.575 47.3535 179.981 47.3535H174.324V54.617H179.957ZM179.808 41.3254C182.081 41.3254 183.193 40.1642 183.193 37.7925C183.193 35.4208 182.057 34.2596 179.759 34.2596H174.299V41.3254H179.808Z" fill="white"/>
</svg>
