<svg width="200" height="40" viewBox="0 0 200 40" fill="none" xmlns="http://www.w3.org/2000/svg">
<path d="M32.8203 1H42.3045C44.9222 1 47.0467 3.128 47.0467 5.75V10.5C47.0467 13.122 44.9222 15.25 42.3045 15.25H23.336V10.5C23.336 5.256 27.5795 1 32.8203 1Z" fill="#FF4800"/>
<path d="M32.8203 1H42.3045C44.9222 1 47.0467 3.128 47.0467 5.75V10.5C47.0467 13.122 44.9222 15.25 42.3045 15.25H23.336V10.5C23.336 5.256 27.5795 1 32.8203 1Z" fill="#FF4800"/>
<path d="M23.336 20H42.3045C44.9222 20 47.0467 22.128 47.0467 24.75V34.25C47.0467 36.872 44.9222 39 42.3045 39H32.8203C27.5849 39 23.336 34.744 23.336 29.5V20Z" fill="#FF4800"/>
<path d="M56.531 20H61.2731V29.5C61.2731 34.744 57.0241 39 51.7888 39V24.75C51.7888 22.128 53.9079 20 56.531 20Z" fill="#FF4800"/>
<path d="M51.7888 1C57.0241 1 61.2731 5.256 61.2731 10.5V15.25H56.531C53.9133 15.25 51.7888 13.122 51.7888 10.5V1Z" fill="#FF4800"/>
<path d="M77.922 30.8247V8.41016H86.5879C90.761 8.41016 93.3515 10.8422 93.3515 14.4793C93.3515 16.6399 92.2351 18.3064 90.5876 19.0122C92.8096 19.6202 94.4897 21.5744 94.4897 24.2779C94.4897 28.0887 91.7094 30.8247 87.6176 30.8247H77.922ZM86.1869 12.6662H83.0543V17.3076H86.1869C87.4984 17.3076 88.4251 16.477 88.4251 14.9842C88.4251 13.5022 87.493 12.6662 86.1869 12.6662ZM86.8426 21.4116H83.0543V26.5687H86.8426C88.2517 26.5687 89.2381 25.5427 89.2381 23.9902C89.2381 22.4159 88.2463 21.4116 86.8426 21.4116Z" fill="white"/>
<path d="M105.93 13.8496C111.22 13.8496 115.203 17.6605 115.203 22.5299C115.203 27.3993 111.225 31.2102 105.93 31.2102C100.635 31.2102 96.6575 27.3993 96.6575 22.5299C96.6575 17.6605 100.641 13.8496 105.93 13.8496ZM105.93 26.6936C108.31 26.6936 110.103 24.9022 110.103 22.5299C110.103 20.1739 108.315 18.3662 105.93 18.3662C103.546 18.3662 101.757 20.1739 101.757 22.5299C101.757 24.9022 103.551 26.6936 105.93 26.6936Z" fill="white"/>
<path d="M118.195 8.41016H123.327V30.8247H118.195V8.41016Z" fill="white"/>
<path d="M134.134 13.8496C136.307 13.8496 138.101 14.6802 139.391 16.0591V8.40479H144.442V30.8194H139.391V28.9954C138.096 30.3742 136.307 31.2048 134.134 31.2048C129.576 31.2048 126.351 27.3939 126.351 22.5245C126.351 17.6551 129.576 13.8496 134.134 13.8496ZM135.397 26.6936C137.635 26.6936 139.391 24.9022 139.391 22.5299C139.391 20.1739 137.635 18.3662 135.397 18.3662C133.175 18.3662 131.451 20.1739 131.451 22.5299C131.446 24.9022 133.175 26.6936 135.397 26.6936Z" fill="white"/>
<path d="M152.181 30.8247V8.41016H160.847C165.02 8.41016 167.611 10.8422 167.611 14.4793C167.611 16.6399 166.494 18.3064 164.847 19.0122C167.069 19.6202 168.749 21.5744 168.749 24.2779C168.749 28.0887 165.968 30.8247 161.877 30.8247H152.181ZM160.446 12.6662H157.313V17.3076H160.446C161.757 17.3076 162.684 16.477 162.684 14.9842C162.684 13.5022 161.757 12.6662 160.446 12.6662ZM161.102 21.4116H157.313V26.5687H161.102C162.511 26.5687 163.497 25.5427 163.497 23.9902C163.497 22.4159 162.511 21.4116 161.102 21.4116Z" fill="white"/>
<path d="M177.664 8.41016V30.8247H172.374V8.41016H177.664Z" fill="white"/>
</svg>
