<svg width="147" height="33" viewBox="0 0 147 33" fill="none" xmlns="http://www.w3.org/2000/svg">
<path fill-rule="evenodd" clip-rule="evenodd" d="M41.9471 15.5186H33.502C32.5917 15.5186 31.9268 15.6875 31.5026 16.023C31.0784 16.3608 30.8674 16.8949 30.8674 17.6253C30.8674 18.2142 31.0463 18.6547 31.4086 18.9469C31.7708 19.2367 32.3097 19.3828 33.0251 19.3828H37.5514C39.4156 19.3828 40.7456 19.7366 41.5321 20.4373C42.3231 21.1403 42.7152 22.3135 42.7152 23.9477C42.7152 25.6116 42.2612 26.8305 41.3509 27.6111C40.4406 28.3917 39.0075 28.782 37.0539 28.782H27.953V25.9152H36.5104C37.4849 25.9152 38.1728 25.7737 38.5695 25.4907C38.9685 25.2076 39.168 24.742 39.168 24.0869C39.168 23.4113 38.9846 22.932 38.62 22.6467C38.2554 22.3614 37.6294 22.2176 36.7443 22.2176H32.7041C30.8399 22.2176 29.4756 21.8456 28.6134 21.1015C27.749 20.3597 27.3179 19.1911 27.3179 17.5888C27.3179 15.877 27.7719 14.6285 28.6776 13.8387C29.5856 13.049 31.0279 12.6541 33.0022 12.6541H41.9471V15.5186ZM49.3122 26.1024H51.7866V16.8722H54.8841V28.3826C54.8841 29.9529 54.5229 31.1124 53.8004 31.8679C53.0757 32.6211 51.9694 33 50.4794 33H44.4356V30.6011H49.9511C50.5403 30.6011 50.9941 30.4551 51.3125 30.1629C51.6285 29.8708 51.7866 29.4531 51.7866 28.8984V28.7021H49.0638C47.3141 28.7021 46.0679 28.3529 45.3228 27.6568C44.5778 26.9606 44.2053 25.7966 44.2053 24.1692V16.8722H47.2712V23.9295C47.2712 24.822 47.4022 25.4063 47.6663 25.6847C47.9282 25.9609 48.4768 26.1024 49.3122 26.1024ZM57.6159 16.8722H63.4133C65.1665 16.8722 66.4178 17.2007 67.1672 17.8599C67.9189 18.5214 68.2947 19.6149 68.2947 21.1404V28.5338H65.207V21.5184C65.207 20.6476 65.0697 20.0829 64.7996 19.8242C64.5295 19.5632 63.9894 19.4349 63.177 19.4349H60.7059V28.5338H57.6159V16.8722ZM77.149 26.0381H80.4636V28.5338H76.23C75.1562 28.5338 74.2735 28.4236 73.5865 28.2053C72.8927 27.9847 72.2944 27.6292 71.7848 27.1408C71.2343 26.6097 70.8066 25.9594 70.4972 25.1897C70.1855 24.4201 70.0331 23.6099 70.0331 22.7503C70.0331 21.8501 70.1855 21.0107 70.4926 20.2276C70.7975 19.4467 71.2274 18.7918 71.7848 18.2652C72.3012 17.7768 72.9086 17.4213 73.607 17.2007C74.3054 16.9802 75.1767 16.8722 76.23 16.8722H80.4636V19.4016H77.149C75.6817 19.4016 74.6717 19.6514 74.1189 20.151C73.5638 20.6506 73.2862 21.5193 73.2862 22.757C73.2862 23.4704 73.4 24.0623 73.6252 24.5258C73.8527 24.9917 74.203 25.3697 74.6762 25.6601C74.9082 25.7973 75.1812 25.8941 75.4906 25.9526C75.8 26.0066 76.3528 26.0381 77.149 26.0381ZM83.1952 19.3176H80.9603V16.9526H83.1952V15.7176C83.1952 14.5146 83.4191 13.7019 83.867 13.2819C84.3103 12.8642 85.1673 12.6541 86.4355 12.6541H89.404V14.9186H87.9186C87.3816 14.9186 87 15.0031 86.776 15.1698C86.5475 15.3364 86.4355 15.6103 86.4355 15.9961V16.9526H89.404V19.3176H86.4355V28.782H83.1952V19.3176ZM101.076 28.5338H95.2411C93.5339 28.5338 92.2965 28.1963 91.5355 27.5213C90.7745 26.8441 90.3974 25.7619 90.3974 24.2701V16.8722H93.4617V24.0249C93.4617 24.8034 93.5972 25.3209 93.8704 25.5819C94.1414 25.8406 94.6833 25.9711 95.4917 25.9711H97.978V16.8722H101.076V28.5338ZM103.509 26.1016H110.051C110.634 26.1016 111.056 26.0139 111.321 25.8339C111.591 25.6561 111.723 25.3704 111.723 24.9744C111.723 24.5806 111.589 24.2904 111.317 24.1104C111.049 23.9281 110.627 23.8359 110.051 23.8359H107.363C105.777 23.8359 104.704 23.5951 104.148 23.1114C103.588 22.6276 103.311 21.7681 103.311 20.5329C103.311 19.2774 103.649 18.3549 104.321 17.7609C104.994 17.1692 106.038 16.8722 107.451 16.8722H114.141V19.3044H108.642C107.744 19.3044 107.161 19.3832 106.893 19.5407C106.623 19.6959 106.487 19.9749 106.487 20.3777C106.487 20.7399 106.607 21.0099 106.845 21.1809C107.079 21.3541 107.453 21.4396 107.966 21.4396H110.781C112.065 21.4396 113.045 21.7366 113.721 22.3261C114.399 22.9201 114.735 23.7751 114.735 24.8956C114.735 25.9711 114.433 26.8486 113.837 27.5213C113.238 28.1963 112.469 28.5338 111.525 28.5338H103.509V26.1016ZM116.722 28.5338V16.8628H119.95V28.5338H116.722ZM116.722 15.5477V12.6541H119.95V15.5477H116.722ZM133.858 22.7144C133.858 24.5569 133.3 26.0318 132.183 27.1323C131.069 28.2328 129.559 28.782 127.666 28.782C125.773 28.782 124.261 28.2328 123.13 27.1278C122.002 26.025 121.44 24.5546 121.44 22.7144C121.44 20.8718 122.002 19.3946 123.13 18.285C124.261 17.1777 125.773 16.6241 127.666 16.6241C129.546 16.6241 131.048 17.1777 132.174 18.285C133.296 19.3946 133.858 20.8718 133.858 22.7144ZM124.669 22.7144C124.669 23.833 124.931 24.7044 125.455 25.3261C125.976 25.9546 126.705 26.2632 127.643 26.2632C128.573 26.2632 129.306 25.9546 129.837 25.3261C130.365 24.7044 130.633 23.833 130.633 22.7144C130.633 21.598 130.369 20.7289 129.841 20.1094C129.315 19.4854 128.58 19.1745 127.643 19.1745C126.714 19.1745 125.985 19.4877 125.461 20.1117C124.931 20.738 124.669 21.6048 124.669 22.7144ZM135.596 16.8722H141.395C143.146 16.8722 144.4 17.2007 145.149 17.8599C145.899 18.5214 146.275 19.6149 146.275 21.1404V28.5338H143.186V21.5184C143.186 20.6476 143.051 20.0829 142.781 19.8242C142.509 19.5632 141.971 19.4349 141.158 19.4349H138.684V28.5338H135.596V16.8722ZM0 11.4135V3.96992H7.45033V11.4135H0ZM24.7623 10.4211L19.1225 5.6347L23.9132 0L29.553 4.7886L24.7623 10.4211ZM8.69205 11.4135V3.96992H16.1424V11.4135H8.69205ZM0 20.0977V12.6541H7.45033V20.0977H0ZM8.69205 20.0977V12.6541H16.1424V20.0977H8.69205ZM17.3841 20.0977V12.6541H24.8344V20.0977H17.3841ZM0 28.5338V21.3383H7.45033V28.5338H0ZM8.69205 28.5338V21.3383H16.1424V28.5338H8.69205ZM17.3841 28.5338V21.3383H24.8344V28.5338H17.3841Z" fill="white"/>
</svg>
