<svg width="40" height="64" viewBox="13 2 40 64" fill="none" xmlns="http://www.w3.org/2000/svg">
<path d="M18.9326 52.4658H16.9399L16.9292 51.4829H18.6694C18.9631 51.4829 19.2119 51.4399 19.416 51.354C19.6237 51.2645 19.7812 51.1374 19.8887 50.9727C19.9961 50.8044 20.0498 50.6021 20.0498 50.3657C20.0498 50.1043 19.9997 49.8913 19.8994 49.7266C19.7992 49.5618 19.6452 49.4419 19.4375 49.3667C19.2334 49.2915 18.972 49.2539 18.6533 49.2539H17.3481V56H16V48.1797H18.6533C19.083 48.1797 19.4661 48.2209 19.8027 48.3032C20.1429 48.3856 20.4312 48.5145 20.6675 48.6899C20.9074 48.8618 21.0882 49.0802 21.21 49.3452C21.3353 49.6102 21.3979 49.9253 21.3979 50.2905C21.3979 50.6128 21.321 50.9082 21.167 51.1768C21.013 51.4417 20.7856 51.6584 20.4849 51.8267C20.1841 51.995 19.8099 52.0952 19.3623 52.1274L18.9326 52.4658ZM18.8735 56H16.5156L17.1226 54.9312H18.8735C19.1779 54.9312 19.4321 54.881 19.6362 54.7808C19.8403 54.6769 19.9925 54.5355 20.0928 54.3564C20.1966 54.1738 20.2485 53.9608 20.2485 53.7173C20.2485 53.4631 20.2038 53.2428 20.1143 53.0566C20.0247 52.8669 19.8833 52.7218 19.6899 52.6216C19.4966 52.5177 19.2441 52.4658 18.9326 52.4658H17.418L17.4287 51.4829H19.3999L19.7061 51.8535C20.1357 51.8678 20.4884 51.9627 20.7642 52.1382C21.0435 52.3136 21.2511 52.541 21.3872 52.8203C21.5233 53.0996 21.5913 53.4004 21.5913 53.7227C21.5913 54.2204 21.4821 54.6375 21.2637 54.9741C21.0488 55.3107 20.7391 55.5667 20.3345 55.7422C19.9299 55.9141 19.4429 56 18.8735 56Z" fill="white"/>
<path d="M22.3742 53.1587V53.0352C22.3742 52.6162 22.4351 52.2277 22.5568 51.8696C22.6786 51.508 22.854 51.1947 23.0832 50.9297C23.316 50.6611 23.5988 50.4535 23.9318 50.3066C24.2684 50.1562 24.648 50.0811 25.0705 50.0811C25.4966 50.0811 25.8762 50.1562 26.2092 50.3066C26.5458 50.4535 26.8304 50.6611 27.0632 50.9297C27.2959 51.1947 27.4732 51.508 27.5949 51.8696C27.7167 52.2277 27.7775 52.6162 27.7775 53.0352V53.1587C27.7775 53.5776 27.7167 53.9661 27.5949 54.3242C27.4732 54.6823 27.2959 54.9956 27.0632 55.2642C26.8304 55.5291 26.5476 55.7368 26.2146 55.8872C25.8815 56.034 25.5038 56.1074 25.0813 56.1074C24.6551 56.1074 24.2738 56.034 23.9372 55.8872C23.6042 55.7368 23.3213 55.5291 23.0886 55.2642C22.8558 54.9956 22.6786 54.6823 22.5568 54.3242C22.4351 53.9661 22.3742 53.5776 22.3742 53.1587ZM23.6687 53.0352V53.1587C23.6687 53.4201 23.6955 53.6672 23.7492 53.8999C23.8029 54.1326 23.8871 54.3368 24.0017 54.5122C24.1162 54.6877 24.2631 54.8255 24.4421 54.9258C24.6211 55.026 24.8342 55.0762 25.0813 55.0762C25.3212 55.0762 25.5288 55.026 25.7043 54.9258C25.8833 54.8255 26.0301 54.6877 26.1447 54.5122C26.2593 54.3368 26.3435 54.1326 26.3972 53.8999C26.4545 53.6672 26.4831 53.4201 26.4831 53.1587V53.0352C26.4831 52.7773 26.4545 52.5339 26.3972 52.3047C26.3435 52.0719 26.2575 51.866 26.1394 51.687C26.0248 51.508 25.878 51.3683 25.6989 51.2681C25.5235 51.1642 25.314 51.1123 25.0705 51.1123C24.827 51.1123 24.6158 51.1642 24.4367 51.2681C24.2613 51.3683 24.1162 51.508 24.0017 51.687C23.8871 51.866 23.8029 52.0719 23.7492 52.3047C23.6955 52.5339 23.6687 52.7773 23.6687 53.0352Z" fill="white"/>
<path d="M30.0482 47.75V56H28.7484V47.75H30.0482Z" fill="white"/>
<path d="M34.8111 54.7969V47.75H36.1109V56H34.9347L34.8111 54.7969ZM31.0299 53.1587V53.0459C31.0299 52.6055 31.0818 52.2044 31.1856 51.8428C31.2895 51.4775 31.4399 51.1642 31.6368 50.9028C31.8338 50.6379 32.0737 50.4355 32.3565 50.2959C32.6394 50.1527 32.9581 50.0811 33.3126 50.0811C33.6635 50.0811 33.9715 50.1491 34.2364 50.2852C34.5014 50.4212 34.727 50.6164 34.9132 50.8706C35.0994 51.1213 35.248 51.422 35.359 51.7729C35.47 52.1203 35.5488 52.507 35.5953 52.9331V53.293C35.5488 53.7083 35.47 54.0879 35.359 54.4316C35.248 54.7754 35.0994 55.0726 34.9132 55.3232C34.727 55.5739 34.4996 55.7673 34.2311 55.9033C33.9661 56.0394 33.6563 56.1074 33.3019 56.1074C32.9509 56.1074 32.634 56.034 32.3512 55.8872C32.0719 55.7404 31.8338 55.5345 31.6368 55.2695C31.4399 55.0046 31.2895 54.693 31.1856 54.335C31.0818 53.9733 31.0299 53.5812 31.0299 53.1587ZM32.3243 53.0459V53.1587C32.3243 53.4237 32.3476 53.6707 32.3941 53.8999C32.4443 54.1291 32.5213 54.3314 32.6251 54.5068C32.7289 54.6787 32.8632 54.8148 33.0279 54.915C33.1962 55.0117 33.3967 55.0601 33.6295 55.0601C33.9231 55.0601 34.1648 54.9956 34.3546 54.8667C34.5444 54.7378 34.693 54.5641 34.8004 54.3457C34.9114 54.1237 34.9866 53.8766 35.026 53.6045V52.6323C35.0045 52.4211 34.9597 52.2241 34.8917 52.0415C34.8272 51.8589 34.7395 51.6995 34.6285 51.5635C34.5175 51.4238 34.3797 51.3164 34.2149 51.2412C34.0538 51.1624 33.8622 51.123 33.6402 51.123C33.4039 51.123 33.2034 51.1732 33.0387 51.2734C32.874 51.3737 32.7379 51.5116 32.6305 51.687C32.5266 51.8625 32.4496 52.0666 32.3995 52.2993C32.3494 52.5321 32.3243 52.7809 32.3243 53.0459Z" fill="white"/>
<path d="M42.8652 52.4658H40.8726L40.8618 51.4829H42.6021C42.8957 51.4829 43.1445 51.4399 43.3486 51.354C43.5563 51.2645 43.7139 51.1374 43.8213 50.9727C43.9287 50.8044 43.9824 50.6021 43.9824 50.3657C43.9824 50.1043 43.9323 49.8913 43.832 49.7266C43.7318 49.5618 43.5778 49.4419 43.3701 49.3667C43.166 49.2915 42.9046 49.2539 42.5859 49.2539H41.2808V56H39.9326V48.1797H42.5859C43.0156 48.1797 43.3988 48.2209 43.7354 48.3032C44.0755 48.3856 44.3638 48.5145 44.6001 48.6899C44.84 48.8618 45.0208 49.0802 45.1426 49.3452C45.2679 49.6102 45.3306 49.9253 45.3306 50.2905C45.3306 50.6128 45.2536 50.9082 45.0996 51.1768C44.9456 51.4417 44.7183 51.6584 44.4175 51.8267C44.1167 51.995 43.7425 52.0952 43.2949 52.1274L42.8652 52.4658ZM42.8062 56H40.4482L41.0552 54.9312H42.8062C43.1105 54.9312 43.3647 54.881 43.5688 54.7808C43.7729 54.6769 43.9251 54.5355 44.0254 54.3564C44.1292 54.1738 44.1812 53.9608 44.1812 53.7173C44.1812 53.4631 44.1364 53.2428 44.0469 53.0566C43.9574 52.8669 43.8159 52.7218 43.6226 52.6216C43.4292 52.5177 43.1768 52.4658 42.8652 52.4658H41.3506L41.3613 51.4829H43.3325L43.6387 51.8535C44.0684 51.8678 44.4211 51.9627 44.6968 52.1382C44.9761 52.3136 45.1838 52.541 45.3198 52.8203C45.4559 53.0996 45.5239 53.4004 45.5239 53.7227C45.5239 54.2204 45.4147 54.6375 45.1963 54.9741C44.9814 55.3107 44.6717 55.5667 44.2671 55.7422C43.8625 55.9141 43.3755 56 42.8062 56Z" fill="white"/>
<path d="M48.1223 48.1797V56H46.7741V48.1797H48.1223Z" fill="white"/>
<path fill-rule="evenodd" clip-rule="evenodd" d="M24.0006 8H32.0004C34.2093 8 36.0008 9.79059 36.0008 11.9995V15.9998C36.0008 18.2087 34.2093 20.0001 32.0004 20.0001H16V15.9998C16 11.5812 19.582 8 24.0006 8Z" fill="white"/>
<path fill-rule="evenodd" clip-rule="evenodd" d="M16 23.9995H32.0004C34.2093 23.9995 36.0008 25.791 36.0008 27.9998V35.9996C36.0008 38.2094 34.2093 39.9999 32.0004 39.9999H24.0006C19.582 39.9999 16 36.4179 16 32.0002V23.9995Z" fill="white"/>
<path fill-rule="evenodd" clip-rule="evenodd" d="M44.0007 23.9995H48.001V32.0002C48.001 36.4179 44.419 39.9999 40.0004 39.9999V27.9998C40.0004 25.791 41.7918 23.9995 44.0007 23.9995Z" fill="white"/>
<path fill-rule="evenodd" clip-rule="evenodd" d="M40.0004 8C44.419 8 48.001 11.5812 48.001 15.9998V20.0001H44.0007C41.7918 20.0001 40.0004 18.2087 40.0004 15.9998V8Z" fill="white"/>
</svg>
