<?xml version="1.0" encoding="UTF-8"?>
<svg width="604px" height="133px" viewBox="0 0 604 133" version="1.1" xmlns="http://www.w3.org/2000/svg" xmlns:xlink="http://www.w3.org/1999/xlink">
    <!-- Generator: Sketch 52.3 (67297) - http://www.bohemiancoding.com/sketch -->
    <title>syncfusion_logo_colored</title>
    <desc>Created with Sketch.</desc>
    <defs>
        <polygon id="path-1" points="0 133 605 133 605 0 0 0"></polygon>
    </defs>
    <g id="Page-1" stroke="none" stroke-width="1" fill="none" fill-rule="evenodd">
        <g id="syncfusion_logo_colored">
            <path d="M168.906925,62.5447212 L134.901564,62.5447212 C131.236039,62.5447212 128.558451,63.2254458 126.850335,64.577696 C125.142219,65.9391452 124.292777,68.0917068 124.292777,71.0353807 C124.292777,73.4087178 125.012956,75.1841211 126.47178,76.3615907 C127.930603,77.5298613 130.100372,78.1185961 132.981087,78.1185961 L151.207148,78.1185961 C158.713626,78.1185961 164.068801,79.5444382 167.235741,82.3685253 C170.421147,85.2018115 172,89.9300877 172,96.5165582 C172,103.222615 170.171854,108.134871 166.506329,111.280923 C162.840804,114.426974 157.070141,116 149.203574,116 L112.557558,116 L112.557558,104.44608 L147.015339,104.44608 C150.939389,104.44608 153.709308,103.875743 155.306627,102.735069 C156.913179,101.594396 157.716456,99.7178036 157.716456,97.077696 C157.716456,94.3547976 156.977811,92.4230116 155.509754,91.273139 C154.041698,90.1232663 151.521072,89.5437305 147.957111,89.5437305 L131.688459,89.5437305 C124.181981,89.5437305 118.68831,88.0442966 115.216679,85.0454288 C111.735815,82.05576 110,77.3458817 110,70.888197 C110,63.9889612 111.828146,58.9571186 115.475205,55.7742712 C119.131497,52.5914237 124.939092,51 132.888757,51 L168.906925,51 L168.906925,62.5447212 Z" id="Fill-1" fill="#2B357B"></path>
            <path d="M198.563636,105.200679 L208.527273,105.200679 L208.527273,68 L221,68 L221,114.390461 C221,120.71936 219.545455,125.392443 216.636364,128.437305 C213.718182,131.472969 209.263636,133 203.263636,133 L178.927273,133 L178.927273,123.331871 L201.136364,123.331871 C203.509091,123.331871 205.336364,122.743136 206.618182,121.565667 C207.890909,120.388197 208.527273,118.704783 208.527273,116.469431 L208.527273,115.678319 L197.563636,115.678319 C190.518182,115.678319 185.5,114.270875 182.5,111.465185 C179.5,108.659496 178,103.968016 178,97.4091424 L178,68 L190.345455,68 L190.345455,96.4432494 C190.345455,100.040051 190.872727,102.39499 191.936364,103.517266 C192.990909,104.630342 195.2,105.200679 198.563636,105.200679" id="Fill-3" fill="#2B357B"></path>
            <path d="M232,68 L255.344152,68 C262.403583,68 267.44215,69.3239437 270.459852,71.9808991 C273.486617,74.6469226 275,79.0540228 275,85.2021995 L275,115 L262.566702,115 L262.566702,86.7256415 C262.566702,83.216284 262.013909,80.9401891 260.926449,79.8973567 C259.838988,78.8454563 257.664067,78.3285742 254.392624,78.3285742 L244.44236,78.3285742 L244.44236,115 L232,115 L232,68 Z" id="Fill-5" fill="#2B357B"></path>
            <path d="M310.653435,104.941528 L324,104.941528 L324,115 L306.952672,115 C302.629008,115 299.074809,114.555577 296.308397,113.675801 C293.514504,112.786955 291.105344,111.353917 289.053435,109.385758 C286.836641,107.245272 285.114504,104.624083 283.868702,101.522192 C282.61374,98.420301 282,95.1551525 282,91.690467 C282,88.0625241 282.61374,84.6794674 283.850382,81.5231571 C285.077863,78.3759166 286.80916,75.7365882 289.053435,73.6142416 C291.132824,71.6460826 293.578626,70.2130452 296.39084,69.3241992 C299.203053,68.4353531 302.71145,68 306.952672,68 L324,68 L324,78.1945195 L310.653435,78.1945195 C304.745038,78.1945195 300.677863,79.2012736 298.451908,81.2147819 C296.216794,83.2282902 295.099237,86.7292551 295.099237,91.7176766 C295.099237,94.5928213 295.557252,96.9781937 296.464122,98.8465843 C297.380153,100.724045 298.79084,102.247781 300.696183,103.417792 C301.630534,103.971054 302.729771,104.361058 303.975573,104.596874 C305.221374,104.81455 307.447328,104.941528 310.653435,104.941528" id="Fill-7" fill="#2B357B"></path>
            <path d="M334.999188,77.8556263 L326,77.8556263 L326,68.3241331 L334.999188,68.3241331 L334.999188,63.3467799 C334.999188,58.4982307 335.900947,55.2229299 337.704465,53.5300778 C339.489581,51.846426 342.940189,51 348.047091,51 L360,51 L360,60.1266808 L354.018945,60.1266808 C351.856563,60.1266808 350.319892,60.4670913 349.418133,61.138712 C348.49797,61.8103326 348.047091,62.9143666 348.047091,64.4692144 L348.047091,68.3241331 L360,68.3241331 L360,77.8556263 L348.047091,77.8556263 L348.047091,116 L334.999188,116 L334.999188,77.8556263 Z" id="Fill-9" fill="#2B357B"></path>
            <path d="M407,115 L383.504123,115 C376.629943,115 371.647071,113.639784 368.582787,110.919352 C365.518503,108.189851 364,103.828092 364,97.8159367 L364,68 L376.338972,68 L376.338972,96.827513 C376.338972,99.9650781 376.884542,102.050743 377.984775,103.102643 C379.075915,104.145476 381.258194,104.671426 384.513428,104.671426 L394.524635,104.671426 L394.524635,68 L407,68 L407,115 Z" id="Fill-11" fill="#2B357B"></path>
            <path d="M416.794678,105.197376 L443.137808,105.197376 C445.485306,105.197376 447.184273,104.84372 448.252979,104.118271 C449.339952,103.401891 449.869738,102.250241 449.869738,100.654254 C449.869738,99.0673355 449.330818,97.8975497 448.23471,97.1721011 C447.156871,96.4375844 445.457903,96.065792 443.137808,96.065792 L432.313741,96.065792 C425.928912,96.065792 421.608419,95.0955045 419.370532,93.1458615 C417.114376,91.1962184 416,87.7322014 416,82.7538105 C416,77.6938067 417.361001,73.9758827 420.064734,71.5819024 C422.777601,69.1969902 426.979349,68 432.669976,68 L459.606831,68 L459.606831,77.802624 L437.465449,77.802624 C433.848292,77.802624 431.500794,78.1200077 430.422955,78.7547752 C429.335981,79.3804746 428.787927,80.5049199 428.787927,82.1281111 C428.787927,83.5880764 429.272041,84.6762493 430.231136,85.3654254 C431.171962,86.0636697 432.67911,86.4082578 434.743447,86.4082578 L446.079031,86.4082578 C451.249007,86.4082578 455.194996,87.6052479 457.916998,89.981092 C460.648133,92.3750724 462,95.8209531 462,100.336871 C462,104.671426 460.785147,108.207988 458.382844,110.919352 C455.971406,113.639784 452.874901,115 449.07506,115 L416.794678,115 L416.794678,105.197376 Z" id="Fill-13" fill="#2B357B"></path>
            <mask id="mask-2" fill="white">
                <use xlink:href="#path-1"></use>
            </mask>
            <g id="Clip-16"></g>
            <path d="M470,115 L483,115 L483,67.9619966 L470,67.9619966 L470,115 Z M470,62.6619399 L483,62.6619399 L483,51 L470,51 L470,62.6619399 Z" id="Fill-15" fill="#2B357B" mask="url(#mask-2)"></path>
            <path d="M502.001999,91.545726 C502.001999,96.0543113 503.055969,99.5660694 505.163911,102.071855 C507.262766,104.605077 510.197529,105.848824 513.977285,105.848824 C517.720698,105.848824 520.673633,104.605077 522.808832,102.071855 C524.934945,99.5660694 526.016173,96.0543113 526.016173,91.545726 C526.016173,87.0462859 524.953116,83.543673 522.827003,81.0470325 C520.709976,78.5321015 517.747956,77.2792087 513.977285,77.2792087 C510.233872,77.2792087 507.29911,78.5412467 505.191168,81.0561777 C503.055969,83.5802538 502.001999,87.0737215 502.001999,91.545726 M539,91.545726 C539,98.9716312 536.75577,104.916013 532.258223,109.351437 C527.769762,113.786861 521.691259,116 514.068145,116 C506.44503,116 500.357441,113.786861 495.805379,109.333147 C491.262402,104.888578 489,98.962486 489,91.545726 C489,84.1198208 491.262402,78.1662934 495.805379,73.6942889 C500.357441,69.2314296 506.44503,67 514.068145,67 C521.636744,67 527.687988,69.2314296 532.221879,73.6942889 C536.737598,78.1662934 539,84.1198208 539,91.545726" id="Fill-17" fill="#2B357B" mask="url(#mask-2)"></path>
            <path d="M546,68 L569.349073,68 C576.400927,68 581.449621,69.3239437 584.46796,71.9808991 C587.486298,74.6469226 589,79.0540228 589,85.2021995 L589,115 L576.564081,115 L576.564081,86.7256415 C576.564081,83.216284 576.020236,80.9401891 574.932546,79.8973567 C573.835793,78.8454563 571.669477,78.3285742 568.397344,78.3285742 L558.435919,78.3285742 L558.435919,115 L546,115 L546,68 Z" id="Fill-18" fill="#2B357B" mask="url(#mask-2)"></path>
            <polygon id="Fill-19" fill="#2B357B" mask="url(#mask-2)" points="0 46 30 46 30 16 0 16"></polygon>
            <polygon id="Fill-20" fill="#F6921E" mask="url(#mask-2)" points="99.709566 42 119 19.2995033 96.290434 0 77 22.709566"></polygon>
            <polygon id="Fill-21" fill="#2B357B" mask="url(#mask-2)" points="35 46 65 46 65 16 35 16"></polygon>
            <polygon id="Fill-22" fill="#2B357B" mask="url(#mask-2)" points="0 81 30 81 30 51 0 51"></polygon>
            <polygon id="Fill-23" fill="#2B357B" mask="url(#mask-2)" points="35 81 65 81 65 51 35 51"></polygon>
            <polygon id="Fill-24" fill="#F6921E" mask="url(#mask-2)" points="70 81 100 81 100 51 70 51"></polygon>
            <polygon id="Fill-25" fill="#2B357B" mask="url(#mask-2)" points="0 115 30 115 30 86 0 86"></polygon>
            <polygon id="Fill-26" fill="#2B357B" mask="url(#mask-2)" points="35 115 65 115 65 86 35 86"></polygon>
            <polygon id="Fill-27" fill="#2B357B" mask="url(#mask-2)" points="70 115 100 115 100 86 70 86"></polygon>
            <path d="M596.227516,64.9416319 C597.183443,64.9416319 597.68374,64.4949375 597.68374,63.6819535 C597.68374,62.8064324 597.20131,62.4222752 596.12031,62.4222752 L595.834425,62.4222752 L595.834425,64.9416319 L596.227516,64.9416319 Z M599.604527,69.9267421 L598.085765,69.9267421 L595.834425,66.6390709 L595.834425,69.9267421 L594.592615,69.9267421 L594.592615,61.2162001 L596.07564,61.2162001 C597.951757,61.2162001 598.952353,62.0827874 598.952353,63.6998213 C598.952353,65.0041691 598.21084,65.8618225 596.942228,66.0762359 L599.604527,69.9267421 Z M591.840977,61.305539 C590.81358,62.4401429 590.223943,63.9410363 590.223943,65.4329958 C590.223943,68.970816 593.011316,71.7760572 596.504467,71.7760572 C599.952948,71.7760572 602.776057,68.9440143 602.776057,65.4776653 C602.776057,62.0827874 599.952948,59.206075 596.60274,59.206075 C594.681954,59.206075 593.082787,59.9118523 591.840977,61.305539 Z M604,65.4776653 C604,69.6408577 600.649792,73 596.504467,73 C592.323407,73 589,69.6408577 589,65.4329958 C589,61.305539 592.394878,58 596.620608,58 C600.649792,58 604,61.4127457 604,65.4776653 Z" id="Fill-28" fill="#2B357B" mask="url(#mask-2)"></path>
        </g>
    </g>
</svg>