<?xml version="1.0" encoding="UTF-8"?>
<svg width="159px" height="122px" viewBox="0 0 159 122" version="1.1" xmlns="http://www.w3.org/2000/svg" xmlns:xlink="http://www.w3.org/1999/xlink">
    <!-- Generator: Sketch 49 (51002) - http://www.bohemiancoding.com/sketch -->
    <title>Tagline</title>
    <desc>Created with Sketch.</desc>
    <defs>
        <path d="M6,44.232 L6,38.832 C6.648,38.886 7.404,38.886 8.052,38.886 C9.942,38.886 11.454,38.184 11.454,35.268 L11.454,6.432 L17.394,6.432 L17.394,34.836 C17.394,42.396 13.344,44.34 8.862,44.34 C7.782,44.34 6.972,44.34 6,44.232 Z M28.4837143,15.126 L28.4837143,35.538 C28.4837143,38.238 29.6717143,39.264 31.5617143,39.264 C33.4517143,39.264 34.6397143,38.238 34.6397143,35.538 L34.6397143,15.126 C34.6397143,12.426 33.4517143,11.4 31.5617143,11.4 C29.6717143,11.4 28.4837143,12.426 28.4837143,15.126 Z M22.5437143,35.16 L22.5437143,15.504 C22.5437143,9.456 25.7297143,6 31.5617143,6 C37.3937143,6 40.5797143,9.456 40.5797143,15.504 L40.5797143,35.16 C40.5797143,41.208 37.3937143,44.664 31.5617143,44.664 C25.7297143,44.664 22.5437143,41.208 22.5437143,35.16 Z M45.9994287,44.232 L45.9994287,6.432 L51.9394287,6.432 L51.9394287,44.232 L45.9994287,44.232 Z M70.535143,44.232 L63.137143,16.854 L63.137143,44.232 L57.791143,44.232 L57.791143,6.432 L65.243143,6.432 L71.345143,29.058 L71.345143,6.432 L76.637143,6.432 L76.637143,44.232 L70.535143,44.232 Z M90.7165717,11.832 L90.7165717,6.432 L109.076572,6.432 L109.076572,11.832 L102.866572,11.832 L102.866572,44.232 L96.9265717,44.232 L96.9265717,11.832 L90.7165717,11.832 Z M119.194286,28.032 L119.194286,44.232 L113.254286,44.232 L113.254286,6.432 L119.194286,6.432 L119.194286,22.632 L125.944286,22.632 L125.944286,6.432 L131.992286,6.432 L131.992286,44.232 L125.944286,44.232 L125.944286,28.032 L119.194286,28.032 Z M143.838,11.832 L143.838,22.362 L151.992,22.362 L151.992,27.762 L143.838,27.762 L143.838,38.832 L154.098,38.832 L154.098,44.232 L137.898,44.232 L137.898,6.432 L154.098,6.432 L154.098,11.832 L143.838,11.832 Z M21.94,57.232 C31.06,57.232 34.98,61.472 34.98,70.112 L34.98,72.112 C34.98,77.872 33.22,81.552 29.3,83.392 C34.02,85.232 35.86,89.472 35.86,95.392 L35.86,99.952 C35.86,108.592 31.3,113.232 22.5,113.232 L8.66,113.232 L8.66,57.232 L21.94,57.232 Z M21.38,88.032 L17.46,88.032 L17.46,105.232 L22.5,105.232 C25.46,105.232 27.06,103.872 27.06,99.712 L27.06,94.832 C27.06,89.632 25.38,88.032 21.38,88.032 Z M21.7,65.232 L17.46,65.232 L17.46,80.032 L20.9,80.032 C24.18,80.032 26.18,78.592 26.18,74.112 L26.18,70.992 C26.18,66.992 24.82,65.232 21.7,65.232 Z M62.2457143,57.232 L71.2057143,113.232 L62.3257143,113.232 L60.8057143,103.072 L50.0057143,103.072 L48.4857143,113.232 L40.4057143,113.232 L49.3657143,57.232 L62.2457143,57.232 Z M55.3657143,67.152 L51.1257143,95.472 L59.6057143,95.472 L55.3657143,67.152 Z M95.6714287,113.232 L84.7114287,72.672 L84.7114287,113.232 L76.7914287,113.232 L76.7914287,57.232 L87.8314287,57.232 L96.8714287,90.752 L96.8714287,57.232 L104.711429,57.232 L104.711429,113.232 L95.6714287,113.232 Z M112.617143,113.232 L112.617143,57.232 L126.537143,57.232 C135.337143,57.232 139.657143,62.112 139.657143,71.072 L139.657143,99.392 C139.657143,108.352 135.337143,113.232 126.537143,113.232 L112.617143,113.232 Z M126.377143,65.232 L121.417143,65.232 L121.417143,105.232 L126.377143,105.232 C129.177143,105.232 130.857143,103.792 130.857143,99.792 L130.857143,70.672 C130.857143,66.672 129.177143,65.232 126.377143,65.232 Z M154.522857,100.832 L147.962857,100.832 L146.842857,80.592 L146.842857,57.232 L155.642857,57.232 L155.642857,80.592 L154.522857,100.832 Z M147.002857,104.752 L155.482857,104.752 L155.482857,113.232 L147.002857,113.232 L147.002857,104.752 Z" id="path-1"></path>
        <filter x="-6.0%" y="-2.8%" width="108.0%" height="110.3%" filterUnits="objectBoundingBox" id="filter-2">
            <feOffset dx="-4" dy="3" in="SourceAlpha" result="shadowOffsetOuter1"></feOffset>
            <feGaussianBlur stdDeviation="1" in="shadowOffsetOuter1" result="shadowBlurOuter1"></feGaussianBlur>
            <feColorMatrix values="0 0 0 0 0.745098039   0 0 0 0 0.215686275   0 0 0 0 0.203921569  0 0 0 0.7 0" type="matrix" in="shadowBlurOuter1"></feColorMatrix>
        </filter>
    </defs>
    <g id="Tagline" stroke="none" stroke-width="1" fill="none" fill-rule="evenodd">
        <g id="JOIN-THE-BAND!">
            <use fill="black" fill-opacity="1" filter="url(#filter-2)" xlink:href="#path-1"></use>
            <use fill="#FFFFFF" fill-rule="evenodd" xlink:href="#path-1"></use>
        </g>
    </g>
</svg>