<?xml version="1.0" encoding="UTF-8"?>
<svg width="194px" height="50px" viewBox="0 0 194 50" version="1.1" xmlns="http://www.w3.org/2000/svg" xmlns:xlink="http://www.w3.org/1999/xlink">
    <!-- Generator: Sketch 59.1 (86144) - https://sketch.com -->
    <title>BoldReport_by sync</title>
    <desc>Created with Sketch.</desc>
    <g id="BoldReport_by-sync" stroke="none" stroke-width="1" fill="none" fill-rule="evenodd">
        <g id="BR_by-sync" transform="translate(1.000000, 5.000000)" fill-rule="nonzero">
            <path d="M20.4518519,0.666666667 L13.2,0.874074074 C12.362963,0.896296296 11.5703704,1.20740741 10.9481481,1.75555556 C8.61481481,3.8 2.71111111,9.3037037 0.533333333,16.4296296 C-0.903703704,21.1333333 2.81481481,25.8444444 7.8,25.8444444 L25.0444444,25.8444444 C25.4592593,25.8444444 25.6444444,25.3407407 25.3333333,25.0740741 C23.3407407,23.3777778 20.9777778,20.3481481 27.8148148,13.4814815 C35.7925926,5.47407407 28.8444444,0.503703704 20.4518519,0.666666667 Z M17.5037037,17.2666667 C17.4666667,17.3777778 17.3555556,17.4444444 17.237037,17.4444444 L7.93333333,17.4444444 C7.31851852,17.4444444 6.88888889,16.8444444 7.0962963,16.2740741 C7.34074074,15.6148148 7.72592593,14.7851852 8.28148148,13.9851852 L19.2444444,13.9851852 C18.4,15.0222222 17.8888889,16.2222222 17.5037037,17.2666667 Z M23.437037,8.52592593 C23.1259259,9.08888889 22.6814815,9.67407407 22.2222222,10.2148148 L10.6962963,10.2148148 C11.3851852,9.12592593 12.4296296,7.91851852 13.3185185,7.1037037 C13.562963,6.88148148 13.8740741,6.75555556 14.2074074,6.75555556 L21.1555556,6.75555556 C23.3037037,6.75555556 23.8740741,7.72592593 23.437037,8.52592593 Z" id="Shape" fill="#FF4800"></path>
            <path d="M42.8740741,37.0666667 L39.9555556,37.0666667 L39.9555556,30.2074074 L42.5333333,30.2074074 C43.8074074,30.2074074 44.562963,30.9333333 44.562963,32.0666667 C44.562963,32.7407407 44.2222222,33.2148148 43.7333333,33.4296296 C44.4,33.6074074 44.9259259,34.2148148 44.9259259,35.0666667 C44.9333333,36.2444444 44.1259259,37.0666667 42.8740741,37.0666667 Z M43.2148148,32.1777778 C43.2148148,31.6444444 42.8888889,31.362963 42.4296296,31.362963 L41.3259259,31.362963 L41.3259259,32.9851852 L42.4296296,32.9851852 C42.8888889,32.9851852 43.2148148,32.7037037 43.2148148,32.1777778 Z M43.5407407,35.0074074 C43.5407407,34.4444444 43.2,34.0888889 42.7111111,34.0888889 L41.3259259,34.0888889 L41.3259259,35.9185185 L42.7111111,35.9185185 C43.2,35.9185185 43.5407407,35.5555556 43.5407407,35.0074074 Z M48.2518519,39.3407407 L46.8444444,39.3407407 L47.7333333,37.0666667 L45.8740741,31.9925926 L47.2740741,31.9925926 L48.4,35.362963 L49.5481481,31.9925926 L50.9481481,31.9925926 L48.2518519,39.3407407 Z M55.6518519,35.7777778 L56.2518519,35.1407407 C56.7703704,35.6814815 57.2962963,35.9925926 58.0222222,35.9925926 C58.6814815,35.9925926 59.162963,35.6666667 59.162963,35.1555556 C59.162963,34.7037037 58.8740741,34.3259259 57.7703704,34.0962963 C56.4,33.8074074 55.6666667,33.0962963 55.6666667,32.0740741 C55.6666667,30.9111111 56.6148148,30.0962963 57.9481481,30.0962963 C59.2444444,30.0962963 60.237037,30.7703704 60.4148148,32.1703704 L59.0148148,32.1703704 C58.9111111,31.5851852 58.5481481,31.2740741 58.0074074,31.2740741 C57.4740741,31.2740741 57.0740741,31.5555556 57.0740741,31.9703704 C57.0740741,32.437037 57.4148148,32.7555556 58.3851852,32.9777778 C59.9185185,33.3333333 60.5703704,34.0444444 60.5703704,35.1259259 C60.5703704,36.3259259 59.6148148,37.1925926 58.0518519,37.1925926 C57.2074074,37.1851852 56.3407407,36.7407407 55.6518519,35.7777778 Z M63.837037,39.3407407 L62.4296296,39.3407407 L63.3185185,37.0666667 L61.4592593,31.9925926 L62.8592593,31.9925926 L63.9851852,35.362963 L65.1333333,31.9925926 L66.5333333,31.9925926 L63.837037,39.3407407 Z M70.6148148,31.8740741 C71.8074074,31.8740741 72.6296296,32.6962963 72.6296296,33.9259259 L72.6296296,37.0666667 L71.2814815,37.0666667 L71.2814815,34.0666667 C71.2814815,33.5037037 70.8444444,33.0592593 70.3185185,33.0592593 C69.6962963,33.0592593 69.1703704,33.5333333 69.1703704,34.2962963 L69.1703704,37.0592593 L67.8222222,37.0592593 L67.8222222,31.9851852 L69.1703704,31.9851852 L69.1703704,32.5555556 C69.5259259,32.1333333 70.0296296,31.8740741 70.6148148,31.8740741 Z M78.3407407,35.2148148 L79.0592593,35.7703704 C78.5481481,36.7111111 77.7851852,37.1851852 76.8074074,37.1851852 C75.2,37.1851852 74.037037,36.0148148 74.037037,34.5333333 C74.037037,33.0518519 75.1925926,31.8814815 76.7037037,31.8814815 C78,31.8814815 78.8888889,32.5851852 79.1925926,33.7037037 L77.7259259,33.7037037 C77.562963,33.3185185 77.2148148,33.0740741 76.7037037,33.0740741 C75.9703704,33.0740741 75.3851852,33.7185185 75.3851852,34.5407407 C75.3851852,35.3703704 75.9703704,36.0074074 76.8518519,36.0074074 C77.4666667,35.9925926 77.9703704,35.6962963 78.3407407,35.2148148 Z M83.5481481,29.962963 L83.5481481,31.037037 C83.4148148,31.0222222 83.237037,31.0148148 83.0962963,31.0148148 C82.5407407,31.0148148 82.3259259,31.2444444 82.3259259,31.7185185 L82.3259259,31.9925926 L83.5555556,31.9925926 L83.5555556,33.162963 L82.3259259,33.162963 L82.3259259,37.0666667 L80.9777778,37.0666667 L80.9777778,33.162963 L80.1185185,33.162963 L80.1185185,31.9925926 L80.9777778,31.9925926 L80.9777778,31.7037037 C80.9777778,30.5037037 81.6518519,29.9185185 82.9703704,29.9185185 C83.1703704,29.9185185 83.3925926,29.9407407 83.5481481,29.962963 Z M86.8592593,37.1851852 C85.6666667,37.1851852 84.8444444,36.362963 84.8444444,35.1333333 L84.8444444,31.9925926 L86.1925926,31.9925926 L86.1925926,34.9925926 C86.1925926,35.5555556 86.6296296,36 87.1555556,36 C87.7925926,36 88.3037037,35.5037037 88.3037037,34.7037037 L88.3037037,32 L89.6518519,32 L89.6518519,37.0740741 L88.3037037,37.0740741 L88.3037037,36.5111111 C87.9481481,36.9333333 87.437037,37.1851852 86.8592593,37.1851852 Z M91.2740741,36.1259259 L91.8296296,35.5037037 C92.2296296,35.8888889 92.6148148,36.1037037 93.1185185,36.1037037 C93.5851852,36.1037037 93.8592593,35.9111111 93.8592593,35.6 C93.8592593,35.2962963 93.6444444,35.1111111 92.9851852,34.9777778 C91.8814815,34.7555556 91.3333333,34.1925926 91.3333333,33.3555556 C91.3333333,32.5037037 92.0666667,31.8740741 93.162963,31.8740741 C94.3111111,31.8740741 94.9777778,32.5037037 95.1407407,33.4740741 L93.8740741,33.4740741 C93.8074074,33.1481481 93.5851852,32.9481481 93.2296296,32.9481481 C92.9111111,32.9481481 92.6444444,33.1111111 92.6444444,33.3703704 C92.6444444,33.637037 92.8814815,33.8592593 93.4518519,33.9777778 C94.6296296,34.2148148 95.162963,34.7555556 95.162963,35.6148148 C95.162963,36.5111111 94.4148148,37.1851852 93.1555556,37.1851852 C92.4074074,37.1851852 91.7925926,36.8148148 91.2740741,36.1259259 Z M96.7037037,37.0666667 L96.7037037,31.9925926 L98.0518519,31.9925926 L98.0518519,37.0666667 L96.7037037,37.0666667 Z M96.5777778,30.6444444 C96.5777778,30.2074074 96.9259259,29.8666667 97.3777778,29.8666667 C97.8296296,29.8666667 98.1777778,30.2074074 98.1777778,30.6444444 C98.1777778,31.0814815 97.8296296,31.4222222 97.3777778,31.4222222 C96.9259259,31.4222222 96.5777778,31.0814815 96.5777778,30.6444444 Z M99.5925926,34.5333333 C99.5925926,33.0518519 100.8,31.8814815 102.407407,31.8814815 C104.022222,31.8814815 105.222222,33.0518519 105.222222,34.5333333 C105.222222,36.0148148 104.022222,37.1851852 102.407407,37.1851852 C100.792593,37.1851852 99.5925926,36.0148148 99.5925926,34.5333333 Z M100.940741,34.5333333 C100.940741,35.362963 101.577778,36 102.407407,36 C103.237037,36 103.874074,35.362963 103.874074,34.5333333 C103.874074,33.7111111 103.237037,33.0666667 102.407407,33.0666667 C101.577778,33.0666667 100.940741,33.7111111 100.940741,34.5333333 Z M109.525926,31.8740741 C110.718519,31.8740741 111.540741,32.6962963 111.540741,33.9259259 L111.540741,37.0666667 L110.192593,37.0666667 L110.192593,34.0666667 C110.192593,33.5037037 109.755556,33.0592593 109.22963,33.0592593 C108.607407,33.0592593 108.081481,33.5333333 108.081481,34.2962963 L108.081481,37.0592593 L106.733333,37.0592593 L106.733333,31.9851852 L108.081481,31.9851852 L108.081481,32.5555556 C108.437037,32.1333333 108.940741,31.8740741 109.525926,31.8740741 Z" id="BySyncfusion_3_" fill="#283A5E"></path>
            <g id="Group" transform="translate(39.259259, 5.185185)" fill="#283A5E">
                <path d="M0.696296296,18.1703704 L0.696296296,0.925925926 L7.37037037,0.925925926 C10.5851852,0.925925926 12.5851852,2.8 12.5851852,5.59259259 C12.5851852,7.25925926 11.7259259,8.54074074 10.4518519,9.08148148 C12.162963,9.54814815 13.4592593,11.0518519 13.4592593,13.1333333 C13.4592593,16.0666667 11.3185185,18.1703704 8.16296296,18.1703704 L0.696296296,18.1703704 Z M7.06666667,4.2 L4.65185185,4.2 L4.65185185,7.77037037 L7.06666667,7.77037037 C8.07407407,7.77037037 8.79259259,7.13333333 8.79259259,5.98518519 C8.79259259,4.84444444 8.08148148,4.2 7.06666667,4.2 Z M7.57037037,10.9259259 L4.65185185,10.9259259 L4.65185185,14.8962963 L7.57037037,14.8962963 C8.65185185,14.8962963 9.41481481,14.1111111 9.41481481,12.9111111 C9.42222222,11.7037037 8.65925926,10.9259259 7.57037037,10.9259259 Z" id="Shape"></path>
                <path d="M22.2740741,5.11111111 C26.3555556,5.11111111 29.4222222,8.04444444 29.4222222,11.7851852 C29.4222222,15.5333333 26.3555556,18.4592593 22.2740741,18.4592593 C18.1925926,18.4592593 15.1259259,15.5259259 15.1259259,11.7851852 C15.1333333,8.04444444 18.2,5.11111111 22.2740741,5.11111111 Z M22.2740741,14.9925926 C24.1111111,14.9925926 25.4888889,13.6148148 25.4888889,11.7925926 C25.4888889,9.97777778 24.1111111,8.59259259 22.2740741,8.59259259 C20.437037,8.59259259 19.0592593,9.98518519 19.0592593,11.7925926 C19.0592593,13.6148148 20.4444444,14.9925926 22.2740741,14.9925926 Z" id="Shape"></path>
                <polygon id="Path" points="31.7185185 0.185185185 35.6740741 0.185185185 35.6740741 18.1703704 31.7185185 18.1703704"></polygon>
                <path d="M44,5.11111111 C45.6740741,5.11111111 47.0518519,5.74814815 48.0518519,6.81481481 L48.0518519,0.185185185 L51.9481481,0.185185185 L51.9481481,18.1703704 L48.0518519,18.1703704 L48.0518519,16.762963 C47.0518519,17.8222222 45.6740741,18.4666667 44,18.4666667 C40.4888889,18.4666667 38,15.5333333 38,11.7925926 C38,8.04444444 40.4888889,5.11111111 44,5.11111111 Z M44.9777778,14.9925926 C46.7037037,14.9925926 48.0592593,13.6148148 48.0592593,11.7925926 C48.0592593,9.97777778 46.7037037,8.59259259 44.9777778,8.59259259 C43.2666667,8.59259259 41.9333333,9.98518519 41.9333333,11.7925926 C41.9333333,13.6148148 43.2592593,14.9925926 44.9777778,14.9925926 Z" id="Shape"></path>
                <path d="M66.1703704,0.925925926 C69.7777778,0.925925926 72.2592593,3.19259259 72.2592593,6.54074074 C72.2592593,8.97777778 70.962963,10.8296296 68.837037,11.6148148 L72.7185185,18.1703704 L68.2962963,18.1703704 L64.8592593,12.1555556 L63.837037,12.1555556 L63.837037,18.1703704 L59.7925926,18.1703704 L59.7925926,0.925925926 L66.1703704,0.925925926 Z M63.8296296,4.17777778 L63.8296296,9.0962963 L65.7481481,9.0962963 C67.3037037,9.0962963 68.2148148,8.0962963 68.2148148,6.64444444 C68.2148148,5.16296296 67.3037037,4.17777778 65.7481481,4.17777778 L63.8296296,4.17777778 Z" id="Shape"></path>
                <path d="M81.2592593,15.4888889 C82.9481481,15.4888889 84.2074074,14.9851852 85.3851852,13.9333333 L87.0592593,15.8074074 C85.6666667,17.362963 83.8296296,18.4666667 81.2074074,18.4666667 C76.8,18.4666667 73.8518519,15.5333333 73.8518519,11.7925926 C73.8518519,8.04444444 76.8666667,5.11851852 80.8518519,5.11851852 C84.7555556,5.11851852 87.6,8 87.6,11.5851852 C87.6,12.0148148 87.5259259,12.5185185 87.4148148,12.8888889 L77.8148148,12.8888889 C78.1037037,14.5037037 79.362963,15.4888889 81.2592593,15.4888889 Z M77.8814815,10.3851852 L83.5703704,10.3851852 C83.2592593,8.97777778 82.2666667,8.0962963 80.8,8.0962963 C79.362963,8.0962963 78.2666667,8.95555556 77.8814815,10.3851852 Z" id="Shape"></path>
                <path d="M97.837037,18.4666667 C96.162963,18.4666667 94.7703704,17.8296296 93.7851852,16.762963 L93.7851852,23.8814815 L89.8888889,23.8814815 L89.8888889,5.40740741 L93.7851852,5.40740741 L93.7851852,6.81481481 C94.7703704,5.75555556 96.162963,5.11111111 97.837037,5.11111111 C101.333333,5.11111111 103.837037,8.04444444 103.837037,11.7851852 C103.837037,15.5333333 101.333333,18.4666667 97.837037,18.4666667 Z M96.8518519,8.58518519 C95.1407407,8.58518519 93.7851852,9.97777778 93.7851852,11.7851852 C93.7851852,13.6074074 95.1407407,14.9851852 96.8518519,14.9851852 C98.562963,14.9851852 99.9037037,13.6074074 99.9037037,11.7851852 C99.9037037,9.97777778 98.562963,8.58518519 96.8518519,8.58518519 Z" id="Shape"></path>
                <path d="M112.481481,5.11111111 C116.562963,5.11111111 119.62963,8.04444444 119.62963,11.7851852 C119.62963,15.5333333 116.562963,18.4592593 112.481481,18.4592593 C108.4,18.4592593 105.333333,15.5259259 105.333333,11.7851852 C105.333333,8.04444444 108.4,5.11111111 112.481481,5.11111111 Z M112.481481,14.9925926 C114.318519,14.9925926 115.696296,13.6148148 115.696296,11.7925926 C115.696296,9.97777778 114.318519,8.59259259 112.481481,8.59259259 C110.644444,8.59259259 109.266608,9.98518519 109.266608,11.7925926 C109.259259,13.6148148 110.644444,14.9925926 112.481481,14.9925926 Z" id="Shape"></path>
                <path d="M125.866667,11.4 L125.866667,18.1777778 L121.911111,18.1777778 L121.911111,5.40740741 L125.866667,5.40740741 L125.866667,6.85185185 C126.681481,5.79259259 127.8,5.11111111 129.244444,5.11111111 C129.6,5.11111111 129.948148,5.2 130.192593,5.31111111 L129.911111,8.87407407 C129.414815,8.7037037 128.851852,8.59259259 128.355556,8.59259259 C127.022222,8.58518519 125.866667,9.61481481 125.866667,11.4 Z" id="Path"></path>
                <path d="M137.037037,13.5555556 C137.037037,14.5777778 137.503704,15.0444444 138.674074,15.0444444 C139.096296,15.0444444 139.607407,15.0222222 139.97037,14.9703704 L139.97037,17.8888889 C139.333333,18.2740741 138.42963,18.4666667 137.466667,18.4666667 C134.740741,18.4666667 133.066667,16.8148148 133.066667,13.9555556 L133.066667,8.82962963 L130.97037,8.82962963 L130.97037,5.40740741 L133.066667,5.40740741 L133.066667,2.3037037 L137.037037,1.71111111 L137.037037,5.40740741 L139.822222,5.40740741 L139.822222,8.82962963 L137.037037,8.82962963 L137.037037,13.5555556 Z" id="Path"></path>
                <path d="M142.940741,14.0444444 C143.948148,14.9777778 145.037037,15.4592593 146.251852,15.4592593 C147.237037,15.4592593 147.807407,15.0666667 147.807407,14.437037 C147.807407,13.8074074 147.311111,13.4148148 145.851852,13.1037037 C143.162963,12.5333333 141.725926,11.0740741 141.725926,8.94074074 C141.725926,6.72592593 143.659259,5.11111111 146.459259,5.11111111 C149.488889,5.11111111 151.177778,6.85185185 151.525926,9.27407407 L148.103704,9.27407407 C147.955556,8.54814815 147.451852,8.11851852 146.688889,8.11851852 C145.985185,8.11851852 145.466667,8.45185185 145.466667,8.99259259 C145.466667,9.56296296 145.948148,10 147.340741,10.2962963 C150.259259,10.9111111 151.637037,12.3259259 151.637037,14.4592593 C151.637037,16.7481481 149.62963,18.4666667 146.496296,18.4666667 C144.6,18.4666667 142.896296,17.5407407 141.503704,15.7703704 L142.940741,14.0444444 Z" id="Path"></path>
            </g>
        </g>
    </g>
</svg>