<?xml version="1.0" encoding="UTF-8"?>
<svg width="50px" height="50px" viewBox="0 0 50 50" version="1.1" xmlns="http://www.w3.org/2000/svg" xmlns:xlink="http://www.w3.org/1999/xlink">
    <!-- Generator: Sketch 60 (88103) - https://sketch.com -->
    <title>BoldID_header</title>
    <desc>Created with Sketch.</desc>
    <g id="BoldID_header" stroke="none" stroke-width="1" fill="none" fill-rule="evenodd">
        <path d="M31.6974432,2 C40.2897727,2 45.9090909,7.12571429 45.9090909,14.4857143 C45.9090909,18.79 43.5894886,22.47 40.0284091,23.9157143 C44.765625,25.1971429 48,29.1728571 48,34.5614286 C48,42.2109266 42.1818013,47.8459926 33.9640576,47.9968948 L33.625,48 L11.2,48 C6.1189803,48 2,43.8810197 2,38.8 L2,11.2 C2,6.1189803 6.1189803,2 11.2,2 L31.6974432,2 Z M23.2568051,25 L22.1431949,25 C20.4696846,25 19.0375097,26.2010322 18.745955,27.8489499 L18.745955,27.8489499 L17.1889081,36.64965 C17.1772061,36.7157916 17.1713214,36.7828312 17.1713214,36.85 C17.1713214,37.4851275 17.6861939,38 18.3213214,38 L18.3213214,38 L27.0786786,38 C27.1458474,38 27.2128871,37.9941153 27.2790287,37.9824133 C27.9044433,37.871763 28.3217422,37.2750645 28.2110919,36.64965 L28.2110919,36.64965 L26.654045,27.8489499 C26.3624903,26.2010322 24.9303154,25 23.2568051,25 L23.2568051,25 Z M22.7,11.2 C19.5243627,11.2 16.95,13.7743627 16.95,16.95 C16.95,20.1256373 19.5243627,22.7 22.7,22.7 C25.8756373,22.7 28.45,20.1256373 28.45,16.95 C28.45,13.7743627 25.8756373,11.2 22.7,11.2 Z" fill="#FF4800"></path>
    </g>
</svg>