<svg width="300" height="221" viewBox="0 0 300 221" fill="none" xmlns="http://www.w3.org/2000/svg">
<g clip-path="url(#clip0_586_35980)">
<path opacity="0.4" d="M285.5 212.211C287.985 212.211 290 211.763 290 211.211C290 210.659 287.985 210.211 285.5 210.211C283.015 210.211 281 210.659 281 211.211C281 211.763 283.015 212.211 285.5 212.211Z" fill="#DBEEFE"/>
<path opacity="0.4" d="M295.5 212.211C297.985 212.211 300 211.763 300 211.211C300 210.659 297.985 210.211 295.5 210.211C293.015 210.211 291 210.659 291 211.211C291 211.763 293.015 212.211 295.5 212.211Z" fill="#DBEEFE"/>
<path d="M286 197.711C286 197.435 285.776 197.211 285.5 197.211C285.224 197.211 285 197.435 285 197.711V210.711C285 210.987 285.224 211.211 285.5 211.211C285.776 211.211 286 210.987 286 210.711V197.711Z" fill="#7F889E"/>
<path d="M288.974 182.231V180.121C288.974 178.514 287.664 177.211 286.048 177.211H283.927C283.544 177.21 283.164 177.284 282.809 177.43C282.455 177.575 282.132 177.789 281.861 178.06C281.589 178.33 281.373 178.651 281.225 179.005C281.078 179.358 281.001 179.738 281 180.121V182.231C281 182.654 281.092 183.071 281.271 183.454C281.45 183.837 281.711 184.177 282.035 184.448C281.711 184.719 281.45 185.059 281.271 185.442C281.092 185.825 281 186.243 281 186.666V188.776C281.011 189.628 281.4 190.432 282.06 190.974C281.736 191.245 281.475 191.585 281.297 191.968C281.118 192.351 281.026 192.768 281.026 193.191V195.301C281.026 196.908 282.336 198.211 283.952 198.211H286.073C286.456 198.212 286.836 198.138 287.191 197.992C287.545 197.847 287.868 197.633 288.139 197.362C288.411 197.092 288.627 196.771 288.775 196.417C288.922 196.064 288.999 195.684 289 195.301V193.191C288.997 192.766 288.9 192.347 288.717 191.964C288.534 191.581 288.269 191.243 287.94 190.974C288.264 190.702 288.525 190.363 288.703 189.98C288.882 189.597 288.974 189.179 288.974 188.756V186.646C288.974 186.223 288.882 185.806 288.703 185.423C288.524 185.039 288.263 184.7 287.939 184.429C288.261 184.16 288.52 183.824 288.699 183.444C288.877 183.064 288.971 182.65 288.974 182.231V182.231Z" fill="#02AD46"/>
<path opacity="0.1" d="M281 187.211V189.221C281.011 190.033 281.4 190.799 282.06 191.316C281.74 191.567 281.48 191.888 281.301 192.254C281.122 192.619 281.028 193.021 281.026 193.428V195.438C281.026 196.97 282.336 198.211 283.952 198.211H286.073C287.69 198.211 289 196.97 289 195.438V193.428C288.994 193.019 288.896 192.616 288.713 192.25C288.529 191.884 288.265 191.565 287.94 191.316L281 187.211Z" fill="black"/>
<path d="M285 189.211L281 186.211M290 183.211L286 180.211M289 196.211L285 193.211" stroke="white" stroke-width="0.8" stroke-linecap="round" stroke-linejoin="round"/>
<path d="M296 202.711C296 202.435 295.776 202.211 295.5 202.211C295.224 202.211 295 202.435 295 202.711V210.711C295 210.987 295.224 211.211 295.5 211.211C295.776 211.211 296 210.987 296 210.711V202.711Z" fill="#7F889E"/>
<path d="M293.038 190.829C292.715 191.087 292.455 191.414 292.275 191.786C292.095 192.158 292.001 192.566 292 192.979V195.041C292 195.871 292.379 196.661 293.038 197.197C292.715 197.455 292.455 197.782 292.275 198.154C292.095 198.526 292.001 198.933 292 199.346V201.391C292 202.948 293.314 204.211 294.936 204.211H297.064C298.686 204.211 300 202.948 300 201.391V199.352C300 198.524 299.62 197.737 298.962 197.203C299.285 196.944 299.545 196.616 299.725 196.243C299.905 195.87 299.999 195.462 300 195.048V193.003C300 192.175 299.62 191.388 298.962 190.853C297.583 190.01 294.602 189.992 293.038 190.829V190.829Z" fill="#02AD46"/>
<path opacity="0.1" d="M292 193.211V195.231C292 196.044 292.379 196.817 293.038 197.342C292.717 197.591 292.457 197.91 292.277 198.275C292.097 198.64 292.003 199.04 292 199.447V201.449C292 202.974 293.314 204.211 294.936 204.211H297.064C298.686 204.211 300 202.974 300 201.449V199.453C300 198.641 299.62 197.871 298.962 197.348L292 193.211Z" fill="black"/>
<path d="M295 195.211L291 192.211M300 202.211L296 199.211" stroke="white" stroke-width="0.8" stroke-linecap="round" stroke-linejoin="round"/>
<path opacity="0.4" d="M142 220.211C152.493 220.211 161 218.644 161 216.711C161 214.778 152.493 213.211 142 213.211C131.507 213.211 123 214.778 123 216.711C123 218.644 131.507 220.211 142 220.211Z" fill="#DBEEFE"/>
<path opacity="0.4" d="M62 217.211C77.464 217.211 90 216.539 90 215.711C90 214.883 77.464 214.211 62 214.211C46.536 214.211 34 214.883 34 215.711C34 216.539 46.536 217.211 62 217.211Z" fill="#DBEEFE"/>
<path opacity="0.4" d="M231 220.211C241.493 220.211 250 218.644 250 216.711C250 214.778 241.493 213.211 231 213.211C220.507 213.211 212 214.778 212 216.711C212 218.644 220.507 220.211 231 220.211Z" fill="#DBEEFE"/>
<g opacity="0.6">
<path d="M110.266 13.23V165.726M130.513 13.23V165.726M150.759 13.23V165.726M171.005 13.23V165.726M191.251 13.23V165.726M211.498 13.23V165.726M231.744 13.23V165.726M251.996 13.23V165.726M272.242 13.23V165.726M88.0498 150.251H294.46M88.0498 129.995H294.46M88.0498 109.738H294.46M88.0498 89.481H294.46M88.0498 69.224H294.46M88.0498 48.967H294.46M88.0498 28.704H294.46" stroke="#666C78" stroke-width="1.02"/>
</g>
<path d="M71 0.210938H6C2.68629 0.210938 0 2.89723 0 6.21094V178.211C0 181.525 2.68629 184.211 6 184.211H71C74.3137 184.211 77 181.525 77 178.211V6.21094C77 2.89723 74.3137 0.210938 71 0.210938Z" fill="#E6EAEE"/>
<path d="M150 49H233V130H150V49Z" fill="#181E2B"/>
<path d="M233 128.211V130.211H231" stroke="#7F889E" stroke-width="1.02"/>
<path d="M227 129.711H156" stroke="#7F889E" stroke-width="1.02" stroke-dasharray="5.89 5.89"/>
<path d="M153 130.211H151V128.211" stroke="#7F889E" stroke-width="1.02"/>
<path d="M150.5 124.211V53.2109" stroke="#7F889E" stroke-width="1.02" stroke-dasharray="5.89 5.89"/>
<path d="M151 51.2109V49.2109H153" stroke="#7F889E" stroke-width="1.02"/>
<path d="M158 48.7109H229" stroke="#7F889E" stroke-width="1.02" stroke-dasharray="5.89 5.89"/>
<path d="M231 49.2109H233V51.2109" stroke="#7F889E" stroke-width="1.02"/>
<path d="M232.5 55.2109V126.211" stroke="#7F889E" stroke-width="1.02" stroke-dasharray="5.89 5.89"/>
<path d="M18 20.2109H56V58.2109H18V20.2109Z" fill="white"/>
<path d="M56 56.2109V58.2109H54" stroke="#7F889E" stroke-width="1.02"/>
<path d="M51 57.7109H22" stroke="#7F889E" stroke-width="1.02" stroke-dasharray="6.13 6.13"/>
<path d="M20 58.2109H18V56.2109" stroke="#7F889E" stroke-width="1.02"/>
<path d="M17.5 52.2109V23.2109" stroke="#7F889E" stroke-width="1.02" stroke-dasharray="6.13 6.13"/>
<path d="M18 22.2109V20.2109H20" stroke="#7F889E" stroke-width="1.02"/>
<path d="M23 19.7109H52" stroke="#7F889E" stroke-width="1.02" stroke-dasharray="6.13 6.13"/>
<path d="M54 20.2109H56V22.2109" stroke="#7F889E" stroke-width="1.02"/>
<path d="M56.5 25.2109V54.2109" stroke="#7F889E" stroke-width="1.02" stroke-dasharray="6.13 6.13"/>
<path d="M31 31.2109H69V69.2109H31V31.2109ZM18 126.211H56V164.211H18V126.211ZM18 73.2109H56V111.211H18V73.2109Z" fill="#F6F7F8"/>
<path d="M39 45.2109H43V61.2109H39V45.2109ZM47 39.2109H51V61.2109H47V39.2109ZM55 47.2109H59V61.2109H55V47.2109ZM37.48 135.211C31.684 135.221 26.993 139.927 27 145.724C27.007 151.52 31.71 156.214 37.506 156.211C43.303 156.207 48 151.508 48 145.711C48 144.33 47.7278 142.963 47.1988 141.688C46.6699 140.413 45.8947 139.255 44.9176 138.279C43.9404 137.304 42.7806 136.531 41.5043 136.004C40.2281 135.478 38.8606 135.208 37.48 135.211V135.211ZM37.48 152.393C36.1593 152.389 34.8694 151.994 33.7732 151.257C32.6769 150.52 31.8236 149.476 31.3209 148.254C30.8182 147.033 30.6888 145.69 30.9488 144.395C31.2089 143.1 31.8469 141.912 32.7822 140.979C33.7175 140.047 34.9081 139.412 36.2038 139.156C37.4994 138.9 38.8419 139.033 40.0617 139.54C41.2815 140.046 42.3239 140.902 43.0573 142.001C43.7906 143.099 44.182 144.39 44.182 145.711C44.1811 146.589 44.0069 147.459 43.6695 148.27C43.3321 149.081 42.8381 149.818 42.2157 150.438C41.5933 151.058 40.8548 151.549 40.0423 151.883C39.2299 152.218 38.3595 152.388 37.481 152.386V152.393H37.48Z" fill="#A9B0BE"/>
<path d="M37 133.211V146.211H50" stroke="#F6F7F8" stroke-width="3.07"/>
<path d="M36.314 103.211H35.698C29.79 103.211 25 98.2859 25 92.2109C24.998 89.2929 26.125 86.4939 28.132 84.4309C30.138 82.3679 32.86 81.2089 35.698 81.2109H36.93V90.9129H47V92.1789C47.008 95.0999 45.886 97.9039 43.882 99.9739C41.877 102.043 39.155 103.208 36.314 103.211Z" fill="#A9B0BE"/>
<path d="M39 79.2109C41.6522 79.2109 44.1957 80.2645 46.0711 82.1399C47.9464 84.0152 49 86.5588 49 89.2109H39V79.2109Z" fill="#A9B0BE"/>
<path d="M44 112.211L44.044 108.211H78.956L79 112.211H44ZM44 131.211L44.05 127.211H78.957L79 131.211H44ZM43 151.211L43.044 147.211H78.956L79 151.211H43ZM43 172.211L43.043 168.211H78.951L79 172.211H43Z" fill="#FF4702"/>
<path d="M44.0731 215.211H41.4961C41.4293 215.211 41.3634 215.196 41.3026 215.169C41.2418 215.141 41.1874 215.101 41.1431 215.051C41.0485 214.944 40.9975 214.806 41.0001 214.664L42.7671 96.739C42.7741 96.445 42.9941 96.211 43.2631 96.211H45.5101C45.6401 96.211 45.7661 96.268 45.8581 96.37C45.9517 96.4749 46.0024 96.6113 46.0001 96.752L44.5631 214.682C44.5601 214.976 44.3421 215.211 44.0731 215.211ZM81.5041 215.211H78.9271C78.6581 215.211 78.4401 214.976 78.4371 214.683L77.0001 96.751C76.9978 96.6094 77.0493 96.4721 77.1441 96.367C77.1883 96.3174 77.2426 96.2778 77.3033 96.2507C77.3639 96.2237 77.4297 96.2098 77.4961 96.21H79.7361C80.0061 96.21 80.2241 96.446 80.2261 96.738L82.0001 214.664C82.0025 214.806 81.9514 214.944 81.8571 215.05C81.8129 215.1 81.7586 215.14 81.6977 215.168C81.6369 215.196 81.5709 215.21 81.5041 215.211" fill="#FF4702"/>
<path d="M43 192.211L43.044 188.211H79.956L80 192.211H43Z" fill="#FF4702"/>
<path d="M89 93.2109H125V129.211H89V93.2109Z" fill="#E6EAEE"/>
<path d="M106.507 102.211C104.43 102.21 102.399 102.824 100.671 103.978C98.9431 105.131 97.5962 106.771 96.8006 108.69C96.005 110.608 95.7965 112.72 96.2014 114.758C96.6063 116.795 97.6065 118.667 99.0754 120.136C100.544 121.604 102.416 122.605 104.453 123.01C106.491 123.414 108.603 123.206 110.521 122.41C112.44 121.615 114.08 120.268 115.233 118.54C116.387 116.812 117.001 114.781 117 112.704C117 109.921 115.894 107.252 113.927 105.284C111.959 103.316 109.29 102.211 106.507 102.211V102.211ZM106.507 119.393C105.185 119.393 103.893 119.001 102.794 118.267C101.695 117.533 100.839 116.49 100.333 115.269C99.827 114.048 99.6946 112.704 99.9523 111.408C100.21 110.112 100.846 108.921 101.781 107.986C102.715 107.052 103.906 106.415 105.202 106.157C106.498 105.899 107.842 106.032 109.063 106.537C110.284 107.043 111.328 107.9 112.062 108.999C112.796 110.097 113.188 111.389 113.188 112.711C113.189 113.589 113.017 114.458 112.681 115.269C112.346 116.08 111.854 116.817 111.233 117.438C110.613 118.058 109.876 118.55 109.065 118.886C108.254 119.221 107.385 119.394 106.507 119.393V119.393Z" fill="#A9B0BE"/>
<path d="M107 99.2109V112.211H120" stroke="#E6EAEE" stroke-width="3.07"/>
<path d="M194 75.0699C199.493 75.6459 204.234 79.1499 206.371 84.2109L215 81.8749C211.742 72.9789 203.505 66.8349 194 66.2109V75.0699Z" fill="#3C4D6F"/>
<path d="M200.172 103.617C197.545 104.976 194.581 105.543 191.638 105.249C188.695 104.955 185.901 103.812 183.596 101.96C181.296 100.114 179.587 97.6351 178.679 94.8293C177.771 92.0235 177.704 89.0134 178.486 86.1699C180.086 80.3639 184.986 76.0519 190.971 75.1879V66.2109C181.156 67.0979 172.867 73.8329 170.026 83.2299C167.186 92.6269 170.364 102.8 178.056 108.933C181.822 111.932 186.396 113.742 191.195 114.132C195.994 114.521 200.8 113.472 205 111.119L200.172 103.617Z" fill="#FF4702"/>
<path d="M207.921 87.6169C208.023 88.3639 208.075 89.1169 208.076 89.8709C208.082 94.2989 206.234 98.5169 203 101.459L207.84 109.211C213.629 104.541 217.005 97.4129 217 89.8709C216.998 88.3076 216.853 86.7478 216.566 85.2109L207.921 87.6169Z" fill="#FFE3D7"/>
<path d="M61.915 96.2241C61.777 95.8891 49.082 102.054 47 104.853L54.549 125.211L56.298 124.775C55.671 118.383 54.875 112.407 53.678 108.156L67 105.307L61.915 96.2241Z" fill="#283A5E"/>
<path d="M62.4432 96.3389C60.6212 102.147 64.7662 131.552 68.5232 145.211H70.2072L73.3372 108.67L77.0002 102.73C76.8562 100.762 75.9922 98.0799 74.9592 95.2109L62.4432 96.3389V96.3389Z" fill="#3C4D6F"/>
<path d="M61.2302 67.3979C61.2302 67.3979 61.3922 71.2309 61.0192 72.0679C60.6452 72.9039 66.0002 69.8099 66.0002 69.8099L65.5402 66.2109L61.2302 67.3979Z" fill="#F0939E"/>
<path d="M59.3812 59.9237C59.3812 59.9237 57.2972 70.6777 62.8752 69.0417C68.4532 67.4047 66.7582 63.0657 66.7582 63.0657C66.7582 63.0657 66.4542 59.5897 64.0782 59.2627C62.4821 59.0989 60.8702 59.3254 59.3812 59.9227V59.9237Z" fill="#FFC9D5"/>
<path d="M73 68.2109L82.36 82.4919L93 91.7539L92.223 93.2109L79.42 85.9609L74.712 79.9389L73 68.2109Z" fill="#202E4B"/>
<path d="M58 73.3079L66.1 69.3779L73.065 69.2109C73.065 69.2109 76.415 79.1729 74.299 96.1409L61.991 97.2109C61.991 97.2109 63.127 89.3569 58 73.3079Z" fill="#202E4B"/>
<path d="M59.837 73.1409L46.937 70.1969L33.873 64.2109L33 65.8689C37.0579 68.8326 41.3608 71.4453 45.862 73.6789C50.72 76.0609 56.726 77.4259 60 79.2109L59.837 73.1409Z" fill="#202E4B"/>
<path d="M33 65.7599C33 65.7599 35.28 65.0539 45 69.2109C45 69.2109 34.938 64.6179 33.84 64.2109L33 65.7599Z" fill="#00B3CC"/>
<path opacity="0.3" d="M33 65.2109C33 65.2109 41.665 71.1979 46.572 73.2109C51.385 75.1919 58.68 77.4169 60 78.2109L59.334 74.7799C59.334 74.7799 52.039 75.0299 46.478 72.6169C40.918 70.2049 33 65.2109 33 65.2109ZM75.224 80.2809L75 77.2109L80.41 84.6519L92 93.2109L79.629 86.0229L75.224 80.2809Z" fill="#00B3CC"/>
<path d="M62 87.2109C62 87.2109 64.155 96.8239 72 96.4249L62.598 97.2109C62.8155 93.8657 62.6146 90.5064 62 87.2109V87.2109Z" fill="#00B3CC"/>
<path d="M56.494 125.211L54.872 125.667L50 128.211H57L56.494 125.211ZM70 145.211H68.27L63 147.211H70V145.211Z" fill="#001F3A"/>
<path d="M34 63.5309L33.287 61.6249L32.574 60.8849L32.809 62.2079L30 60.2109L30.118 62.8049L31.705 64.3999L33.138 65.2109L34 63.5309ZM92.884 92.2109L94.814 93.7119L95 94.9979L94.145 96.2109L93.411 94.5159L92 93.5069L92.884 92.2109Z" fill="#FFC9D5"/>
<path d="M59 61.1249C59 61.1249 63.268 60.2289 63.159 62.7349C63.05 65.2399 62.992 67.2879 65.187 67.2089C67.381 67.1289 64.438 59.9299 64.438 59.9299L59.717 59.2109L59 61.1249Z" fill="#E86578"/>
<path d="M59.3438 61.7338C59.3438 61.7338 62.7758 60.1138 63.6478 62.2138C64.5198 64.3158 62.2958 67.9168 66.6248 68.1978C67.3468 68.5788 71.7248 60.4018 66.3878 58.7758C63.8968 57.6388 59.0378 58.5698 59.0378 58.5698C59.0378 58.5698 58.8398 60.6898 59.3438 61.7338V61.7338Z" fill="#131D2F"/>
<path d="M66 69.2109C66 69.2109 64.428 73.5089 60 71.8159L66 69.2109Z" fill="#00B3CC"/>
<path d="M131.237 142.199C131.237 142.199 131.396 145.392 131.019 146.091C130.642 146.79 136 144.208 136 144.208L135.544 141.211L131.237 142.199V142.199Z" fill="#F0939E"/>
<path d="M129.14 134.851C129.14 134.851 128.518 139.228 129.893 142.605C130.173 143.3 131.193 143.337 132.293 143.018C137.319 141.555 135.777 137.665 135.777 137.665C135.777 137.665 135.509 134.538 133.364 134.256C131.928 134.111 130.479 134.315 129.14 134.851V134.851Z" fill="#FFC9D5"/>
<path d="M142 143.047L136.413 130.522L127.623 121.211L126 121.811L133.684 132.047L136.17 143.211L142 143.047ZM128 147.041L135.618 143.371L142.171 143.211C142.171 143.211 145.321 152.461 143.353 168.214L131.781 169.211C131.781 169.211 132.821 161.943 128 147.041V147.041Z" fill="#F4FCF8"/>
<path d="M128.155 146.711L115.869 144.023L114.023 131.211L112.402 131.834C112.255 137.436 111.437 142.504 112.67 147.098C112.67 147.098 125.875 151.624 130 153.211C129.527 151.169 128.895 148.997 128.155 146.711Z" fill="#F4FCF8"/>
<path opacity="0.3" d="M136.303 143.211H139L135.188 131.771L126 122.211L133.784 132.255L136.303 143.211Z" fill="#00B3CC"/>
<path d="M131 160.211C131 160.211 133.154 168.891 141 168.495L131.605 169.211C131.82 166.197 131.616 163.169 131 160.211V160.211Z" fill="#00B3CC"/>
<path d="M139 215.211H137.52L133 217.211H139V215.211ZM152.497 214.211L150.875 214.561L147 218.211L153 216.513L152.497 214.211Z" fill="#009BB0"/>
<path d="M114.23 131.661L114.463 130.577L114.679 130.253L115 129.946H114.087L113.19 127.211L112 128.995L112.266 130.902L112.825 132.211L114.23 131.661ZM127 121.697L125.784 119.984L124.802 119.211V120.562L124.796 120.935L124 120.752L125.544 122.211L127 121.697Z" fill="#FFC9D5"/>
<path d="M135 143.211C135 143.211 133.435 147.507 129 145.817L135 143.211Z" fill="#00B3CC"/>
<path d="M143.743 176.211L152 213.891L150.39 214.211C150.39 214.211 143.158 200.979 140 190.347L140.693 180.569L143.743 176.211V176.211Z" fill="#21443D"/>
<path d="M131.415 169.205C129.711 174.663 133.581 202.339 137.096 215.211H138.67L140.936 180.851C142.758 179.379 144.16 177.453 145 175.267C144.863 173.412 144.057 170.865 143.09 168.211L131.415 169.205V169.205Z" fill="#518178"/>
<path d="M129 136.211C129 136.211 129.252 138.919 130.705 140.349C132.158 141.78 132.695 141.857 133 143.211V139.714L129 136.211Z" fill="#E86578"/>
<path d="M128.66 135.945C128.66 135.945 128.697 136.818 129.814 138.689C130.486 139.809 132.325 140.051 132.444 142.702C132.494 143.835 136.117 142.925 136.469 141.463C136.808 139.859 140.361 134.694 135.319 133.183C133.945 132.564 132.112 132.564 130.568 132.725C129.686 132.725 128.814 132.55 128 132.211C128 132.211 128.182 134.973 128.66 135.945Z" fill="#353535"/>
<path opacity="0.3" d="M112.437 132.211C112.437 132.211 112.857 145.463 113.559 146.221L129.363 150.765L130 153.211L112.68 147.206C112.68 147.206 111.328 143.408 112.437 132.211Z" fill="#00B3CC"/>
<path d="M112 131.834L113.518 131.211L115 142.211C113.918 135.885 113.625 132.04 112 131.834Z" fill="#00B3CC"/>
<path d="M229 214.218L228.78 217.211H222L226.964 214.211L229 214.218ZM238.75 211.211L240 213.677L234 217.211L236.838 211.978L238.75 211.211Z" fill="#FB043D"/>
<path d="M234.032 148.211L222.002 148.706L221 153.656C221 156.968 222.282 161.671 222.652 170.211H232.768C233.364 164.301 234.445 158.449 236 152.716L234.032 148.211Z" fill="#FCF4F4"/>
<path d="M235.629 175.211L234.452 180.423L233.748 182.142L232.278 194.235C232.278 194.235 238.162 201.95 239 211.483L237.203 212.211L227 195.414L230.665 181.182L235.63 175.211H235.629Z" fill="#4E74AC"/>
<path d="M222.666 170.382C223.056 168.034 218.826 190.185 227.756 214.211H229.957L231.961 180.823L234.464 179.365L236 174.687L233.292 170.389L222.666 170.382Z" fill="#1D498C"/>
<path d="M222.041 137.033C222.041 137.033 221.133 145.701 227.844 145.189C227.844 145.189 231.087 144.361 230.998 141.681C230.91 139.001 227.333 131.887 222.041 137.033Z" fill="#FFC9D5"/>
<path d="M224 148.199C224 148.199 221.287 146.911 216.595 141.661C216.595 141.661 210.683 134.006 209.724 132.211L208 133.066C208 133.066 211.375 139.17 214.167 143.7L220.844 153.211L224 148.199V148.199Z" fill="#FCF4F4"/>
<path d="M207.927 132.211L207 129.143L208.6 127.211L209.232 129.705H210L209.474 130.377L209.604 131.355L207.927 132.211Z" fill="#FFC9D5"/>
<path d="M231 150.245C232.238 146.071 233.086 141.791 233.534 137.461C233.534 137.461 233.534 130.601 233.195 128.558L235.228 128.211C236.087 131.3 236.654 134.464 236.922 137.659L237 146.221L233.612 151.211L231 150.245V150.245Z" fill="#FCF4F4"/>
<path d="M235 128.849L233.84 125.812L231 125.211L232.063 127.589L231.021 126.859L232.007 128.5L232.818 129.211L235 128.849Z" fill="#FFC9D5"/>
<path d="M222 162.211C222 162.211 224.222 169.04 229 170.211H222.694C222.694 170.211 222.525 166.808 222 162.211Z" fill="#EA003D"/>
<path d="M223.442 142.93C224.522 143.427 221.875 149.305 222.734 153.984C225.046 165.038 238.999 162.127 242 161.046C240.701 158.59 240.366 155.777 233.389 146.093C230.791 142.488 231.419 138.017 230.163 136.175C228.906 134.332 223.813 133.105 221.466 135.683C221.466 135.683 219.026 137.01 220.441 139.331C221.856 141.653 222.118 142.328 223.441 142.93H223.442Z" fill="#353535"/>
<path d="M209.677 131.211C209.677 131.211 210.037 136.312 214 143.211C211.797 139.302 209.766 135.56 208 132.104L209.677 131.211Z" fill="#EA003D"/>
<path opacity="0.3" d="M214 143.211L221 151.638L220.586 153.211L214 143.211ZM232.42 129.211L234 138.092L233.03 145.211L232 143.203C232.326 141.494 232.584 139.772 232.773 138.043C232.746 134.696 232.719 131.791 232.42 129.211Z" fill="#EA003D"/>
</g>
<defs>
<clipPath id="clip0_586_35980">
<rect width="300" height="220" fill="white" transform="translate(0 0.210938)"/>
</clipPath>
</defs>
</svg>
