<svg width="349" height="225" viewBox="0 0 349 225" fill="none" xmlns="http://www.w3.org/2000/svg">
<g clip-path="url(#clip0_586_37793)">
<g opacity="0.1">
<path d="M338.78 188.814C339.333 188.814 339.78 188.366 339.78 187.814C339.78 187.262 339.333 186.814 338.78 186.814C338.228 186.814 337.78 187.262 337.78 187.814C337.78 188.366 338.228 188.814 338.78 188.814Z" fill="#FB043D"/>
<path d="M329.135 188.814C329.688 188.814 330.135 188.366 330.135 187.814C330.135 187.262 329.688 186.814 329.135 186.814C328.583 186.814 328.135 187.262 328.135 187.814C328.135 188.366 328.583 188.814 329.135 188.814Z" fill="#FB043D"/>
<path d="M319.484 188.814C320.036 188.814 320.484 188.366 320.484 187.814C320.484 187.262 320.036 186.814 319.484 186.814C318.932 186.814 318.484 187.262 318.484 187.814C318.484 188.366 318.932 188.814 319.484 188.814Z" fill="#FB043D"/>
<path d="M309.839 188.814C310.391 188.814 310.839 188.366 310.839 187.814C310.839 187.262 310.391 186.814 309.839 186.814C309.287 186.814 308.839 187.262 308.839 187.814C308.839 188.366 309.287 188.814 309.839 188.814Z" fill="#FB043D"/>
<path d="M300.194 188.814C300.746 188.814 301.194 188.366 301.194 187.814C301.194 187.262 300.746 186.814 300.194 186.814C299.642 186.814 299.194 187.262 299.194 187.814C299.194 188.366 299.642 188.814 300.194 188.814Z" fill="#FB043D"/>
<path d="M290.542 188.814C291.094 188.814 291.542 188.366 291.542 187.814C291.542 187.262 291.094 186.814 290.542 186.814C289.99 186.814 289.542 187.262 289.542 187.814C289.542 188.366 289.99 188.814 290.542 188.814Z" fill="#FB043D"/>
<path d="M280.897 188.814C281.449 188.814 281.897 188.366 281.897 187.814C281.897 187.262 281.449 186.814 280.897 186.814C280.345 186.814 279.897 187.262 279.897 187.814C279.897 188.366 280.345 188.814 280.897 188.814Z" fill="#FB043D"/>
<path d="M271.252 188.814C271.804 188.814 272.252 188.366 272.252 187.814C272.252 187.262 271.804 186.814 271.252 186.814C270.7 186.814 270.252 187.262 270.252 187.814C270.252 188.366 270.7 188.814 271.252 188.814Z" fill="#FB043D"/>
<path d="M261.601 188.814C262.153 188.814 262.601 188.366 262.601 187.814C262.601 187.262 262.153 186.814 261.601 186.814C261.049 186.814 260.601 187.262 260.601 187.814C260.601 188.366 261.049 188.814 261.601 188.814Z" fill="#FB043D"/>
<path d="M251.956 188.814C252.508 188.814 252.956 188.366 252.956 187.814C252.956 187.262 252.508 186.814 251.956 186.814C251.404 186.814 250.956 187.262 250.956 187.814C250.956 188.366 251.404 188.814 251.956 188.814Z" fill="#FB043D"/>
<path d="M338.78 181.306C339.333 181.306 339.78 180.858 339.78 180.306C339.78 179.754 339.333 179.306 338.78 179.306C338.228 179.306 337.78 179.754 337.78 180.306C337.78 180.858 338.228 181.306 338.78 181.306Z" fill="#FB043D"/>
<path d="M329.135 181.306C329.688 181.306 330.135 180.858 330.135 180.306C330.135 179.754 329.688 179.306 329.135 179.306C328.583 179.306 328.135 179.754 328.135 180.306C328.135 180.858 328.583 181.306 329.135 181.306Z" fill="#FB043D"/>
<path d="M319.484 181.306C320.036 181.306 320.484 180.858 320.484 180.306C320.484 179.754 320.036 179.306 319.484 179.306C318.932 179.306 318.484 179.754 318.484 180.306C318.484 180.858 318.932 181.306 319.484 181.306Z" fill="#FB043D"/>
<path d="M309.839 181.306C310.391 181.306 310.839 180.858 310.839 180.306C310.839 179.754 310.391 179.306 309.839 179.306C309.287 179.306 308.839 179.754 308.839 180.306C308.839 180.858 309.287 181.306 309.839 181.306Z" fill="#FB043D"/>
<path d="M300.194 181.306C300.746 181.306 301.194 180.858 301.194 180.306C301.194 179.754 300.746 179.306 300.194 179.306C299.642 179.306 299.194 179.754 299.194 180.306C299.194 180.858 299.642 181.306 300.194 181.306Z" fill="#FB043D"/>
<path d="M290.542 181.306C291.094 181.306 291.542 180.858 291.542 180.306C291.542 179.754 291.094 179.306 290.542 179.306C289.99 179.306 289.542 179.754 289.542 180.306C289.542 180.858 289.99 181.306 290.542 181.306Z" fill="#FB043D"/>
<path d="M280.897 181.306C281.449 181.306 281.897 180.858 281.897 180.306C281.897 179.754 281.449 179.306 280.897 179.306C280.345 179.306 279.897 179.754 279.897 180.306C279.897 180.858 280.345 181.306 280.897 181.306Z" fill="#FB043D"/>
<path d="M271.252 181.306C271.804 181.306 272.252 180.858 272.252 180.306C272.252 179.754 271.804 179.306 271.252 179.306C270.7 179.306 270.252 179.754 270.252 180.306C270.252 180.858 270.7 181.306 271.252 181.306Z" fill="#FB043D"/>
<path d="M261.601 181.306C262.153 181.306 262.601 180.858 262.601 180.306C262.601 179.754 262.153 179.306 261.601 179.306C261.049 179.306 260.601 179.754 260.601 180.306C260.601 180.858 261.049 181.306 261.601 181.306Z" fill="#FB043D"/>
<path d="M251.956 181.306C252.508 181.306 252.956 180.858 252.956 180.306C252.956 179.754 252.508 179.306 251.956 179.306C251.404 179.306 250.956 179.754 250.956 180.306C250.956 180.858 251.404 181.306 251.956 181.306Z" fill="#FB043D"/>
<path d="M338.78 173.798C339.333 173.798 339.78 173.35 339.78 172.798C339.78 172.246 339.333 171.798 338.78 171.798C338.228 171.798 337.78 172.246 337.78 172.798C337.78 173.35 338.228 173.798 338.78 173.798Z" fill="#FB043D"/>
<path d="M329.135 173.798C329.688 173.798 330.135 173.35 330.135 172.798C330.135 172.246 329.688 171.798 329.135 171.798C328.583 171.798 328.135 172.246 328.135 172.798C328.135 173.35 328.583 173.798 329.135 173.798Z" fill="#FB043D"/>
<path d="M319.484 173.798C320.036 173.798 320.484 173.35 320.484 172.798C320.484 172.246 320.036 171.798 319.484 171.798C318.932 171.798 318.484 172.246 318.484 172.798C318.484 173.35 318.932 173.798 319.484 173.798Z" fill="#FB043D"/>
<path d="M309.839 173.798C310.391 173.798 310.839 173.35 310.839 172.798C310.839 172.246 310.391 171.798 309.839 171.798C309.287 171.798 308.839 172.246 308.839 172.798C308.839 173.35 309.287 173.798 309.839 173.798Z" fill="#FB043D"/>
<path d="M300.194 173.798C300.746 173.798 301.194 173.35 301.194 172.798C301.194 172.246 300.746 171.798 300.194 171.798C299.642 171.798 299.194 172.246 299.194 172.798C299.194 173.35 299.642 173.798 300.194 173.798Z" fill="#FB043D"/>
<path d="M290.542 173.798C291.094 173.798 291.542 173.35 291.542 172.798C291.542 172.246 291.094 171.798 290.542 171.798C289.99 171.798 289.542 172.246 289.542 172.798C289.542 173.35 289.99 173.798 290.542 173.798Z" fill="#FB043D"/>
<path d="M280.897 173.798C281.449 173.798 281.897 173.35 281.897 172.798C281.897 172.246 281.449 171.798 280.897 171.798C280.345 171.798 279.897 172.246 279.897 172.798C279.897 173.35 280.345 173.798 280.897 173.798Z" fill="#FB043D"/>
<path d="M271.252 173.798C271.804 173.798 272.252 173.35 272.252 172.798C272.252 172.246 271.804 171.798 271.252 171.798C270.7 171.798 270.252 172.246 270.252 172.798C270.252 173.35 270.7 173.798 271.252 173.798Z" fill="#FB043D"/>
<path d="M261.601 173.798C262.153 173.798 262.601 173.35 262.601 172.798C262.601 172.246 262.153 171.798 261.601 171.798C261.049 171.798 260.601 172.246 260.601 172.798C260.601 173.35 261.049 173.798 261.601 173.798Z" fill="#FB043D"/>
<path d="M251.956 173.798C252.508 173.798 252.956 173.35 252.956 172.798C252.956 172.246 252.508 171.798 251.956 171.798C251.404 171.798 250.956 172.246 250.956 172.798C250.956 173.35 251.404 173.798 251.956 173.798Z" fill="#FB043D"/>
<path d="M338.78 166.29C339.333 166.29 339.78 165.842 339.78 165.29C339.78 164.738 339.333 164.29 338.78 164.29C338.228 164.29 337.78 164.738 337.78 165.29C337.78 165.842 338.228 166.29 338.78 166.29Z" fill="#FB043D"/>
<path d="M329.135 166.29C329.688 166.29 330.135 165.842 330.135 165.29C330.135 164.738 329.688 164.29 329.135 164.29C328.583 164.29 328.135 164.738 328.135 165.29C328.135 165.842 328.583 166.29 329.135 166.29Z" fill="#FB043D"/>
<path d="M319.484 166.29C320.036 166.29 320.484 165.842 320.484 165.29C320.484 164.738 320.036 164.29 319.484 164.29C318.932 164.29 318.484 164.738 318.484 165.29C318.484 165.842 318.932 166.29 319.484 166.29Z" fill="#FB043D"/>
<path d="M309.839 166.29C310.391 166.29 310.839 165.842 310.839 165.29C310.839 164.738 310.391 164.29 309.839 164.29C309.287 164.29 308.839 164.738 308.839 165.29C308.839 165.842 309.287 166.29 309.839 166.29Z" fill="#FB043D"/>
<path d="M300.194 166.29C300.746 166.29 301.194 165.842 301.194 165.29C301.194 164.738 300.746 164.29 300.194 164.29C299.642 164.29 299.194 164.738 299.194 165.29C299.194 165.842 299.642 166.29 300.194 166.29Z" fill="#FB043D"/>
<path d="M290.542 166.29C291.094 166.29 291.542 165.842 291.542 165.29C291.542 164.738 291.094 164.29 290.542 164.29C289.99 164.29 289.542 164.738 289.542 165.29C289.542 165.842 289.99 166.29 290.542 166.29Z" fill="#FB043D"/>
<path d="M280.897 166.29C281.449 166.29 281.897 165.842 281.897 165.29C281.897 164.738 281.449 164.29 280.897 164.29C280.345 164.29 279.897 164.738 279.897 165.29C279.897 165.842 280.345 166.29 280.897 166.29Z" fill="#FB043D"/>
<path d="M271.252 166.29C271.804 166.29 272.252 165.842 272.252 165.29C272.252 164.738 271.804 164.29 271.252 164.29C270.7 164.29 270.252 164.738 270.252 165.29C270.252 165.842 270.7 166.29 271.252 166.29Z" fill="#FB043D"/>
<path d="M261.601 166.29C262.153 166.29 262.601 165.842 262.601 165.29C262.601 164.738 262.153 164.29 261.601 164.29C261.049 164.29 260.601 164.738 260.601 165.29C260.601 165.842 261.049 166.29 261.601 166.29Z" fill="#FB043D"/>
<path d="M251.956 166.29C252.508 166.29 252.956 165.842 252.956 165.29C252.956 164.738 252.508 164.29 251.956 164.29C251.404 164.29 250.956 164.738 250.956 165.29C250.956 165.842 251.404 166.29 251.956 166.29Z" fill="#FB043D"/>
<path d="M338.78 158.781C339.333 158.781 339.78 158.334 339.78 157.781C339.78 157.229 339.333 156.781 338.78 156.781C338.228 156.781 337.78 157.229 337.78 157.781C337.78 158.334 338.228 158.781 338.78 158.781Z" fill="#FB043D"/>
<path d="M329.135 158.781C329.688 158.781 330.135 158.334 330.135 157.781C330.135 157.229 329.688 156.781 329.135 156.781C328.583 156.781 328.135 157.229 328.135 157.781C328.135 158.334 328.583 158.781 329.135 158.781Z" fill="#FB043D"/>
<path d="M319.484 158.781C320.036 158.781 320.484 158.334 320.484 157.781C320.484 157.229 320.036 156.781 319.484 156.781C318.932 156.781 318.484 157.229 318.484 157.781C318.484 158.334 318.932 158.781 319.484 158.781Z" fill="#FB043D"/>
<path d="M309.839 158.781C310.391 158.781 310.839 158.334 310.839 157.781C310.839 157.229 310.391 156.781 309.839 156.781C309.287 156.781 308.839 157.229 308.839 157.781C308.839 158.334 309.287 158.781 309.839 158.781Z" fill="#FB043D"/>
<path d="M300.194 158.781C300.746 158.781 301.194 158.334 301.194 157.781C301.194 157.229 300.746 156.781 300.194 156.781C299.642 156.781 299.194 157.229 299.194 157.781C299.194 158.334 299.642 158.781 300.194 158.781Z" fill="#FB043D"/>
<path d="M290.542 158.781C291.094 158.781 291.542 158.334 291.542 157.781C291.542 157.229 291.094 156.781 290.542 156.781C289.99 156.781 289.542 157.229 289.542 157.781C289.542 158.334 289.99 158.781 290.542 158.781Z" fill="#FB043D"/>
<path d="M280.897 158.781C281.449 158.781 281.897 158.334 281.897 157.781C281.897 157.229 281.449 156.781 280.897 156.781C280.345 156.781 279.897 157.229 279.897 157.781C279.897 158.334 280.345 158.781 280.897 158.781Z" fill="#FB043D"/>
<path d="M271.252 158.781C271.804 158.781 272.252 158.334 272.252 157.781C272.252 157.229 271.804 156.781 271.252 156.781C270.7 156.781 270.252 157.229 270.252 157.781C270.252 158.334 270.7 158.781 271.252 158.781Z" fill="#FB043D"/>
<path d="M261.601 158.781C262.153 158.781 262.601 158.334 262.601 157.781C262.601 157.229 262.153 156.781 261.601 156.781C261.049 156.781 260.601 157.229 260.601 157.781C260.601 158.334 261.049 158.781 261.601 158.781Z" fill="#FB043D"/>
<path d="M251.956 158.781C252.508 158.781 252.956 158.334 252.956 157.781C252.956 157.229 252.508 156.781 251.956 156.781C251.404 156.781 250.956 157.229 250.956 157.781C250.956 158.334 251.404 158.781 251.956 158.781Z" fill="#FB043D"/>
<path d="M338.78 151.273C339.333 151.273 339.78 150.825 339.78 150.273C339.78 149.721 339.333 149.273 338.78 149.273C338.228 149.273 337.78 149.721 337.78 150.273C337.78 150.825 338.228 151.273 338.78 151.273Z" fill="#FB043D"/>
<path d="M329.135 151.273C329.688 151.273 330.135 150.825 330.135 150.273C330.135 149.721 329.688 149.273 329.135 149.273C328.583 149.273 328.135 149.721 328.135 150.273C328.135 150.825 328.583 151.273 329.135 151.273Z" fill="#FB043D"/>
<path d="M319.484 151.273C320.036 151.273 320.484 150.825 320.484 150.273C320.484 149.721 320.036 149.273 319.484 149.273C318.932 149.273 318.484 149.721 318.484 150.273C318.484 150.825 318.932 151.273 319.484 151.273Z" fill="#FB043D"/>
<path d="M309.839 151.273C310.391 151.273 310.839 150.825 310.839 150.273C310.839 149.721 310.391 149.273 309.839 149.273C309.287 149.273 308.839 149.721 308.839 150.273C308.839 150.825 309.287 151.273 309.839 151.273Z" fill="#FB043D"/>
<path d="M300.194 151.273C300.746 151.273 301.194 150.825 301.194 150.273C301.194 149.721 300.746 149.273 300.194 149.273C299.642 149.273 299.194 149.721 299.194 150.273C299.194 150.825 299.642 151.273 300.194 151.273Z" fill="#FB043D"/>
<path d="M290.542 151.273C291.094 151.273 291.542 150.825 291.542 150.273C291.542 149.721 291.094 149.273 290.542 149.273C289.99 149.273 289.542 149.721 289.542 150.273C289.542 150.825 289.99 151.273 290.542 151.273Z" fill="#FB043D"/>
<path d="M280.897 151.273C281.449 151.273 281.897 150.825 281.897 150.273C281.897 149.721 281.449 149.273 280.897 149.273C280.345 149.273 279.897 149.721 279.897 150.273C279.897 150.825 280.345 151.273 280.897 151.273Z" fill="#FB043D"/>
<path d="M271.252 151.273C271.804 151.273 272.252 150.825 272.252 150.273C272.252 149.721 271.804 149.273 271.252 149.273C270.7 149.273 270.252 149.721 270.252 150.273C270.252 150.825 270.7 151.273 271.252 151.273Z" fill="#FB043D"/>
<path d="M261.601 151.273C262.153 151.273 262.601 150.825 262.601 150.273C262.601 149.721 262.153 149.273 261.601 149.273C261.049 149.273 260.601 149.721 260.601 150.273C260.601 150.825 261.049 151.273 261.601 151.273Z" fill="#FB043D"/>
<path d="M251.956 151.273C252.508 151.273 252.956 150.825 252.956 150.273C252.956 149.721 252.508 149.273 251.956 149.273C251.404 149.273 250.956 149.721 250.956 150.273C250.956 150.825 251.404 151.273 251.956 151.273Z" fill="#FB043D"/>
<path d="M338.78 143.765C339.333 143.765 339.78 143.317 339.78 142.765C339.78 142.213 339.333 141.765 338.78 141.765C338.228 141.765 337.78 142.213 337.78 142.765C337.78 143.317 338.228 143.765 338.78 143.765Z" fill="#FB043D"/>
<path d="M329.135 143.765C329.688 143.765 330.135 143.317 330.135 142.765C330.135 142.213 329.688 141.765 329.135 141.765C328.583 141.765 328.135 142.213 328.135 142.765C328.135 143.317 328.583 143.765 329.135 143.765Z" fill="#FB043D"/>
<path d="M319.484 143.765C320.036 143.765 320.484 143.317 320.484 142.765C320.484 142.213 320.036 141.765 319.484 141.765C318.932 141.765 318.484 142.213 318.484 142.765C318.484 143.317 318.932 143.765 319.484 143.765Z" fill="#FB043D"/>
<path d="M309.839 143.765C310.391 143.765 310.839 143.317 310.839 142.765C310.839 142.213 310.391 141.765 309.839 141.765C309.287 141.765 308.839 142.213 308.839 142.765C308.839 143.317 309.287 143.765 309.839 143.765Z" fill="#FB043D"/>
<path d="M300.194 143.765C300.746 143.765 301.194 143.317 301.194 142.765C301.194 142.213 300.746 141.765 300.194 141.765C299.642 141.765 299.194 142.213 299.194 142.765C299.194 143.317 299.642 143.765 300.194 143.765Z" fill="#FB043D"/>
<path d="M290.542 143.765C291.094 143.765 291.542 143.317 291.542 142.765C291.542 142.213 291.094 141.765 290.542 141.765C289.99 141.765 289.542 142.213 289.542 142.765C289.542 143.317 289.99 143.765 290.542 143.765Z" fill="#FB043D"/>
<path d="M280.897 143.765C281.449 143.765 281.897 143.317 281.897 142.765C281.897 142.213 281.449 141.765 280.897 141.765C280.345 141.765 279.897 142.213 279.897 142.765C279.897 143.317 280.345 143.765 280.897 143.765Z" fill="#FB043D"/>
<path d="M271.252 143.765C271.804 143.765 272.252 143.317 272.252 142.765C272.252 142.213 271.804 141.765 271.252 141.765C270.7 141.765 270.252 142.213 270.252 142.765C270.252 143.317 270.7 143.765 271.252 143.765Z" fill="#FB043D"/>
<path d="M261.601 143.765C262.153 143.765 262.601 143.317 262.601 142.765C262.601 142.213 262.153 141.765 261.601 141.765C261.049 141.765 260.601 142.213 260.601 142.765C260.601 143.317 261.049 143.765 261.601 143.765Z" fill="#FB043D"/>
<path d="M251.956 143.765C252.508 143.765 252.956 143.317 252.956 142.765C252.956 142.213 252.508 141.765 251.956 141.765C251.404 141.765 250.956 142.213 250.956 142.765C250.956 143.317 251.404 143.765 251.956 143.765Z" fill="#FB043D"/>
<path d="M338.78 136.257C339.333 136.257 339.78 135.809 339.78 135.257C339.78 134.705 339.333 134.257 338.78 134.257C338.228 134.257 337.78 134.705 337.78 135.257C337.78 135.809 338.228 136.257 338.78 136.257Z" fill="#FB043D"/>
<path d="M329.135 136.257C329.688 136.257 330.135 135.809 330.135 135.257C330.135 134.705 329.688 134.257 329.135 134.257C328.583 134.257 328.135 134.705 328.135 135.257C328.135 135.809 328.583 136.257 329.135 136.257Z" fill="#FB043D"/>
<path d="M319.484 136.257C320.036 136.257 320.484 135.809 320.484 135.257C320.484 134.705 320.036 134.257 319.484 134.257C318.932 134.257 318.484 134.705 318.484 135.257C318.484 135.809 318.932 136.257 319.484 136.257Z" fill="#FB043D"/>
<path d="M309.839 136.257C310.391 136.257 310.839 135.809 310.839 135.257C310.839 134.705 310.391 134.257 309.839 134.257C309.287 134.257 308.839 134.705 308.839 135.257C308.839 135.809 309.287 136.257 309.839 136.257Z" fill="#FB043D"/>
<path d="M300.194 136.257C300.746 136.257 301.194 135.809 301.194 135.257C301.194 134.705 300.746 134.257 300.194 134.257C299.642 134.257 299.194 134.705 299.194 135.257C299.194 135.809 299.642 136.257 300.194 136.257Z" fill="#FB043D"/>
<path d="M290.542 136.257C291.094 136.257 291.542 135.809 291.542 135.257C291.542 134.705 291.094 134.257 290.542 134.257C289.99 134.257 289.542 134.705 289.542 135.257C289.542 135.809 289.99 136.257 290.542 136.257Z" fill="#FB043D"/>
<path d="M280.897 136.257C281.449 136.257 281.897 135.809 281.897 135.257C281.897 134.705 281.449 134.257 280.897 134.257C280.345 134.257 279.897 134.705 279.897 135.257C279.897 135.809 280.345 136.257 280.897 136.257Z" fill="#FB043D"/>
<path d="M271.252 136.257C271.804 136.257 272.252 135.809 272.252 135.257C272.252 134.705 271.804 134.257 271.252 134.257C270.7 134.257 270.252 134.705 270.252 135.257C270.252 135.809 270.7 136.257 271.252 136.257Z" fill="#FB043D"/>
<path d="M261.601 136.257C262.153 136.257 262.601 135.809 262.601 135.257C262.601 134.705 262.153 134.257 261.601 134.257C261.049 134.257 260.601 134.705 260.601 135.257C260.601 135.809 261.049 136.257 261.601 136.257Z" fill="#FB043D"/>
<path d="M251.956 136.257C252.508 136.257 252.956 135.809 252.956 135.257C252.956 134.705 252.508 134.257 251.956 134.257C251.404 134.257 250.956 134.705 250.956 135.257C250.956 135.809 251.404 136.257 251.956 136.257Z" fill="#FB043D"/>
<path d="M338.78 128.749C339.333 128.749 339.78 128.301 339.78 127.749C339.78 127.197 339.333 126.749 338.78 126.749C338.228 126.749 337.78 127.197 337.78 127.749C337.78 128.301 338.228 128.749 338.78 128.749Z" fill="#FB043D"/>
<path d="M329.135 128.749C329.688 128.749 330.135 128.301 330.135 127.749C330.135 127.197 329.688 126.749 329.135 126.749C328.583 126.749 328.135 127.197 328.135 127.749C328.135 128.301 328.583 128.749 329.135 128.749Z" fill="#FB043D"/>
<path d="M319.484 128.749C320.036 128.749 320.484 128.301 320.484 127.749C320.484 127.197 320.036 126.749 319.484 126.749C318.932 126.749 318.484 127.197 318.484 127.749C318.484 128.301 318.932 128.749 319.484 128.749Z" fill="#FB043D"/>
<path d="M309.839 128.749C310.391 128.749 310.839 128.301 310.839 127.749C310.839 127.197 310.391 126.749 309.839 126.749C309.287 126.749 308.839 127.197 308.839 127.749C308.839 128.301 309.287 128.749 309.839 128.749Z" fill="#FB043D"/>
<path d="M300.194 128.749C300.746 128.749 301.194 128.301 301.194 127.749C301.194 127.197 300.746 126.749 300.194 126.749C299.642 126.749 299.194 127.197 299.194 127.749C299.194 128.301 299.642 128.749 300.194 128.749Z" fill="#FB043D"/>
<path d="M290.542 128.749C291.094 128.749 291.542 128.301 291.542 127.749C291.542 127.197 291.094 126.749 290.542 126.749C289.99 126.749 289.542 127.197 289.542 127.749C289.542 128.301 289.99 128.749 290.542 128.749Z" fill="#FB043D"/>
<path d="M280.897 128.749C281.449 128.749 281.897 128.301 281.897 127.749C281.897 127.197 281.449 126.749 280.897 126.749C280.345 126.749 279.897 127.197 279.897 127.749C279.897 128.301 280.345 128.749 280.897 128.749Z" fill="#FB043D"/>
<path d="M271.252 128.749C271.804 128.749 272.252 128.301 272.252 127.749C272.252 127.197 271.804 126.749 271.252 126.749C270.7 126.749 270.252 127.197 270.252 127.749C270.252 128.301 270.7 128.749 271.252 128.749Z" fill="#FB043D"/>
<path d="M261.601 128.749C262.153 128.749 262.601 128.301 262.601 127.749C262.601 127.197 262.153 126.749 261.601 126.749C261.049 126.749 260.601 127.197 260.601 127.749C260.601 128.301 261.049 128.749 261.601 128.749Z" fill="#FB043D"/>
<path d="M251.956 128.749C252.508 128.749 252.956 128.301 252.956 127.749C252.956 127.197 252.508 126.749 251.956 126.749C251.404 126.749 250.956 127.197 250.956 127.749C250.956 128.301 251.404 128.749 251.956 128.749Z" fill="#FB043D"/>
<path d="M338.78 121.241C339.333 121.241 339.78 120.793 339.78 120.241C339.78 119.689 339.333 119.241 338.78 119.241C338.228 119.241 337.78 119.689 337.78 120.241C337.78 120.793 338.228 121.241 338.78 121.241Z" fill="#FB043D"/>
<path d="M329.135 121.241C329.688 121.241 330.135 120.793 330.135 120.241C330.135 119.689 329.688 119.241 329.135 119.241C328.583 119.241 328.135 119.689 328.135 120.241C328.135 120.793 328.583 121.241 329.135 121.241Z" fill="#FB043D"/>
<path d="M319.484 121.241C320.036 121.241 320.484 120.793 320.484 120.241C320.484 119.689 320.036 119.241 319.484 119.241C318.932 119.241 318.484 119.689 318.484 120.241C318.484 120.793 318.932 121.241 319.484 121.241Z" fill="#FB043D"/>
<path d="M309.839 121.241C310.391 121.241 310.839 120.793 310.839 120.241C310.839 119.689 310.391 119.241 309.839 119.241C309.287 119.241 308.839 119.689 308.839 120.241C308.839 120.793 309.287 121.241 309.839 121.241Z" fill="#FB043D"/>
<path d="M300.194 121.241C300.746 121.241 301.194 120.793 301.194 120.241C301.194 119.689 300.746 119.241 300.194 119.241C299.642 119.241 299.194 119.689 299.194 120.241C299.194 120.793 299.642 121.241 300.194 121.241Z" fill="#FB043D"/>
<path d="M290.542 121.241C291.094 121.241 291.542 120.793 291.542 120.241C291.542 119.689 291.094 119.241 290.542 119.241C289.99 119.241 289.542 119.689 289.542 120.241C289.542 120.793 289.99 121.241 290.542 121.241Z" fill="#FB043D"/>
<path d="M280.897 121.241C281.449 121.241 281.897 120.793 281.897 120.241C281.897 119.689 281.449 119.241 280.897 119.241C280.345 119.241 279.897 119.689 279.897 120.241C279.897 120.793 280.345 121.241 280.897 121.241Z" fill="#FB043D"/>
<path d="M271.252 121.241C271.804 121.241 272.252 120.793 272.252 120.241C272.252 119.689 271.804 119.241 271.252 119.241C270.7 119.241 270.252 119.689 270.252 120.241C270.252 120.793 270.7 121.241 271.252 121.241Z" fill="#FB043D"/>
<path d="M261.601 121.241C262.153 121.241 262.601 120.793 262.601 120.241C262.601 119.689 262.153 119.241 261.601 119.241C261.049 119.241 260.601 119.689 260.601 120.241C260.601 120.793 261.049 121.241 261.601 121.241Z" fill="#FB043D"/>
<path d="M251.956 121.241C252.508 121.241 252.956 120.793 252.956 120.241C252.956 119.689 252.508 119.241 251.956 119.241C251.404 119.241 250.956 119.689 250.956 120.241C250.956 120.793 251.404 121.241 251.956 121.241Z" fill="#FB043D"/>
<path d="M338.78 113.732C339.333 113.732 339.78 113.284 339.78 112.732C339.78 112.18 339.333 111.732 338.78 111.732C338.228 111.732 337.78 112.18 337.78 112.732C337.78 113.284 338.228 113.732 338.78 113.732Z" fill="#FB043D"/>
<path d="M329.135 113.732C329.688 113.732 330.135 113.284 330.135 112.732C330.135 112.18 329.688 111.732 329.135 111.732C328.583 111.732 328.135 112.18 328.135 112.732C328.135 113.284 328.583 113.732 329.135 113.732Z" fill="#FB043D"/>
<path d="M319.484 113.732C320.036 113.732 320.484 113.284 320.484 112.732C320.484 112.18 320.036 111.732 319.484 111.732C318.932 111.732 318.484 112.18 318.484 112.732C318.484 113.284 318.932 113.732 319.484 113.732Z" fill="#FB043D"/>
<path d="M309.839 113.732C310.391 113.732 310.839 113.284 310.839 112.732C310.839 112.18 310.391 111.732 309.839 111.732C309.287 111.732 308.839 112.18 308.839 112.732C308.839 113.284 309.287 113.732 309.839 113.732Z" fill="#FB043D"/>
<path d="M300.194 113.732C300.746 113.732 301.194 113.284 301.194 112.732C301.194 112.18 300.746 111.732 300.194 111.732C299.642 111.732 299.194 112.18 299.194 112.732C299.194 113.284 299.642 113.732 300.194 113.732Z" fill="#FB043D"/>
<path d="M290.542 113.732C291.094 113.732 291.542 113.284 291.542 112.732C291.542 112.18 291.094 111.732 290.542 111.732C289.99 111.732 289.542 112.18 289.542 112.732C289.542 113.284 289.99 113.732 290.542 113.732Z" fill="#FB043D"/>
<path d="M280.897 113.732C281.449 113.732 281.897 113.284 281.897 112.732C281.897 112.18 281.449 111.732 280.897 111.732C280.345 111.732 279.897 112.18 279.897 112.732C279.897 113.284 280.345 113.732 280.897 113.732Z" fill="#FB043D"/>
<path d="M271.252 113.732C271.804 113.732 272.252 113.284 272.252 112.732C272.252 112.18 271.804 111.732 271.252 111.732C270.7 111.732 270.252 112.18 270.252 112.732C270.252 113.284 270.7 113.732 271.252 113.732Z" fill="#FB043D"/>
<path d="M261.601 113.732C262.153 113.732 262.601 113.284 262.601 112.732C262.601 112.18 262.153 111.732 261.601 111.732C261.049 111.732 260.601 112.18 260.601 112.732C260.601 113.284 261.049 113.732 261.601 113.732Z" fill="#FB043D"/>
<path d="M251.956 113.732C252.508 113.732 252.956 113.284 252.956 112.732C252.956 112.18 252.508 111.732 251.956 111.732C251.404 111.732 250.956 112.18 250.956 112.732C250.956 113.284 251.404 113.732 251.956 113.732Z" fill="#FB043D"/>
<path d="M338.78 106.788C339.333 106.788 339.78 106.34 339.78 105.788C339.78 105.236 339.333 104.788 338.78 104.788C338.228 104.788 337.78 105.236 337.78 105.788C337.78 106.34 338.228 106.788 338.78 106.788Z" fill="#FB043D"/>
<path d="M329.135 106.788C329.688 106.788 330.135 106.34 330.135 105.788C330.135 105.236 329.688 104.788 329.135 104.788C328.583 104.788 328.135 105.236 328.135 105.788C328.135 106.34 328.583 106.788 329.135 106.788Z" fill="#FB043D"/>
<path d="M319.484 106.788C320.036 106.788 320.484 106.34 320.484 105.788C320.484 105.236 320.036 104.788 319.484 104.788C318.932 104.788 318.484 105.236 318.484 105.788C318.484 106.34 318.932 106.788 319.484 106.788Z" fill="#FB043D"/>
<path d="M309.839 106.788C310.391 106.788 310.839 106.34 310.839 105.788C310.839 105.236 310.391 104.788 309.839 104.788C309.287 104.788 308.839 105.236 308.839 105.788C308.839 106.34 309.287 106.788 309.839 106.788Z" fill="#FB043D"/>
<path d="M300.194 106.788C300.746 106.788 301.194 106.34 301.194 105.788C301.194 105.236 300.746 104.788 300.194 104.788C299.642 104.788 299.194 105.236 299.194 105.788C299.194 106.34 299.642 106.788 300.194 106.788Z" fill="#FB043D"/>
<path d="M290.542 106.788C291.094 106.788 291.542 106.34 291.542 105.788C291.542 105.236 291.094 104.788 290.542 104.788C289.99 104.788 289.542 105.236 289.542 105.788C289.542 106.34 289.99 106.788 290.542 106.788Z" fill="#FB043D"/>
<path d="M280.897 106.788C281.449 106.788 281.897 106.34 281.897 105.788C281.897 105.236 281.449 104.788 280.897 104.788C280.345 104.788 279.897 105.236 279.897 105.788C279.897 106.34 280.345 106.788 280.897 106.788Z" fill="#FB043D"/>
<path d="M271.252 106.788C271.804 106.788 272.252 106.34 272.252 105.788C272.252 105.236 271.804 104.788 271.252 104.788C270.7 104.788 270.252 105.236 270.252 105.788C270.252 106.34 270.7 106.788 271.252 106.788Z" fill="#FB043D"/>
<path d="M261.601 106.788C262.153 106.788 262.601 106.34 262.601 105.788C262.601 105.236 262.153 104.788 261.601 104.788C261.049 104.788 260.601 105.236 260.601 105.788C260.601 106.34 261.049 106.788 261.601 106.788Z" fill="#FB043D"/>
<path d="M251.956 106.788C252.508 106.788 252.956 106.34 252.956 105.788C252.956 105.236 252.508 104.788 251.956 104.788C251.404 104.788 250.956 105.236 250.956 105.788C250.956 106.34 251.404 106.788 251.956 106.788Z" fill="#FB043D"/>
<path d="M338.78 99.2803C339.333 99.2803 339.78 98.8326 339.78 98.2803C339.78 97.728 339.333 97.2803 338.78 97.2803C338.228 97.2803 337.78 97.728 337.78 98.2803C337.78 98.8326 338.228 99.2803 338.78 99.2803Z" fill="#FB043D"/>
<path d="M329.135 99.2803C329.688 99.2803 330.135 98.8326 330.135 98.2803C330.135 97.728 329.688 97.2803 329.135 97.2803C328.583 97.2803 328.135 97.728 328.135 98.2803C328.135 98.8326 328.583 99.2803 329.135 99.2803Z" fill="#FB043D"/>
<path d="M319.484 99.2803C320.036 99.2803 320.484 98.8326 320.484 98.2803C320.484 97.728 320.036 97.2803 319.484 97.2803C318.932 97.2803 318.484 97.728 318.484 98.2803C318.484 98.8326 318.932 99.2803 319.484 99.2803Z" fill="#FB043D"/>
<path d="M309.839 99.2803C310.391 99.2803 310.839 98.8326 310.839 98.2803C310.839 97.728 310.391 97.2803 309.839 97.2803C309.287 97.2803 308.839 97.728 308.839 98.2803C308.839 98.8326 309.287 99.2803 309.839 99.2803Z" fill="#FB043D"/>
<path d="M300.194 99.2803C300.746 99.2803 301.194 98.8326 301.194 98.2803C301.194 97.728 300.746 97.2803 300.194 97.2803C299.642 97.2803 299.194 97.728 299.194 98.2803C299.194 98.8326 299.642 99.2803 300.194 99.2803Z" fill="#FB043D"/>
<path d="M290.542 99.2803C291.094 99.2803 291.542 98.8326 291.542 98.2803C291.542 97.728 291.094 97.2803 290.542 97.2803C289.99 97.2803 289.542 97.728 289.542 98.2803C289.542 98.8326 289.99 99.2803 290.542 99.2803Z" fill="#FB043D"/>
<path d="M280.897 99.2803C281.449 99.2803 281.897 98.8326 281.897 98.2803C281.897 97.728 281.449 97.2803 280.897 97.2803C280.345 97.2803 279.897 97.728 279.897 98.2803C279.897 98.8326 280.345 99.2803 280.897 99.2803Z" fill="#FB043D"/>
<path d="M271.252 99.2803C271.804 99.2803 272.252 98.8326 272.252 98.2803C272.252 97.728 271.804 97.2803 271.252 97.2803C270.7 97.2803 270.252 97.728 270.252 98.2803C270.252 98.8326 270.7 99.2803 271.252 99.2803Z" fill="#FB043D"/>
<path d="M261.601 99.2803C262.153 99.2803 262.601 98.8326 262.601 98.2803C262.601 97.728 262.153 97.2803 261.601 97.2803C261.049 97.2803 260.601 97.728 260.601 98.2803C260.601 98.8326 261.049 99.2803 261.601 99.2803Z" fill="#FB043D"/>
<path d="M251.956 99.2803C252.508 99.2803 252.956 98.8326 252.956 98.2803C252.956 97.728 252.508 97.2803 251.956 97.2803C251.404 97.2803 250.956 97.728 250.956 98.2803C250.956 98.8326 251.404 99.2803 251.956 99.2803Z" fill="#FB043D"/>
<path d="M338.78 91.772C339.333 91.772 339.78 91.3243 339.78 90.772C339.78 90.2197 339.333 89.772 338.78 89.772C338.228 89.772 337.78 90.2197 337.78 90.772C337.78 91.3243 338.228 91.772 338.78 91.772Z" fill="#FB043D"/>
<path d="M329.135 91.772C329.688 91.772 330.135 91.3243 330.135 90.772C330.135 90.2197 329.688 89.772 329.135 89.772C328.583 89.772 328.135 90.2197 328.135 90.772C328.135 91.3243 328.583 91.772 329.135 91.772Z" fill="#FB043D"/>
<path d="M319.484 91.772C320.036 91.772 320.484 91.3243 320.484 90.772C320.484 90.2197 320.036 89.772 319.484 89.772C318.932 89.772 318.484 90.2197 318.484 90.772C318.484 91.3243 318.932 91.772 319.484 91.772Z" fill="#FB043D"/>
<path d="M309.839 91.772C310.391 91.772 310.839 91.3243 310.839 90.772C310.839 90.2197 310.391 89.772 309.839 89.772C309.287 89.772 308.839 90.2197 308.839 90.772C308.839 91.3243 309.287 91.772 309.839 91.772Z" fill="#FB043D"/>
<path d="M300.194 91.772C300.746 91.772 301.194 91.3243 301.194 90.772C301.194 90.2197 300.746 89.772 300.194 89.772C299.642 89.772 299.194 90.2197 299.194 90.772C299.194 91.3243 299.642 91.772 300.194 91.772Z" fill="#FB043D"/>
<path d="M290.542 91.772C291.094 91.772 291.542 91.3243 291.542 90.772C291.542 90.2197 291.094 89.772 290.542 89.772C289.99 89.772 289.542 90.2197 289.542 90.772C289.542 91.3243 289.99 91.772 290.542 91.772Z" fill="#FB043D"/>
<path d="M280.897 91.772C281.449 91.772 281.897 91.3243 281.897 90.772C281.897 90.2197 281.449 89.772 280.897 89.772C280.345 89.772 279.897 90.2197 279.897 90.772C279.897 91.3243 280.345 91.772 280.897 91.772Z" fill="#FB043D"/>
<path d="M271.252 91.772C271.804 91.772 272.252 91.3243 272.252 90.772C272.252 90.2197 271.804 89.772 271.252 89.772C270.7 89.772 270.252 90.2197 270.252 90.772C270.252 91.3243 270.7 91.772 271.252 91.772Z" fill="#FB043D"/>
<path d="M261.601 91.772C262.153 91.772 262.601 91.3243 262.601 90.772C262.601 90.2197 262.153 89.772 261.601 89.772C261.049 89.772 260.601 90.2197 260.601 90.772C260.601 91.3243 261.049 91.772 261.601 91.772Z" fill="#FB043D"/>
<path d="M251.956 91.772C252.508 91.772 252.956 91.3243 252.956 90.772C252.956 90.2197 252.508 89.772 251.956 89.772C251.404 89.772 250.956 90.2197 250.956 90.772C250.956 91.3243 251.404 91.772 251.956 91.772Z" fill="#FB043D"/>
<path d="M338.78 84.2632C339.333 84.2632 339.78 83.8155 339.78 83.2632C339.78 82.7109 339.333 82.2632 338.78 82.2632C338.228 82.2632 337.78 82.7109 337.78 83.2632C337.78 83.8155 338.228 84.2632 338.78 84.2632Z" fill="#FB043D"/>
<path d="M329.135 84.2632C329.688 84.2632 330.135 83.8155 330.135 83.2632C330.135 82.7109 329.688 82.2632 329.135 82.2632C328.583 82.2632 328.135 82.7109 328.135 83.2632C328.135 83.8155 328.583 84.2632 329.135 84.2632Z" fill="#FB043D"/>
<path d="M319.484 84.2632C320.036 84.2632 320.484 83.8155 320.484 83.2632C320.484 82.7109 320.036 82.2632 319.484 82.2632C318.932 82.2632 318.484 82.7109 318.484 83.2632C318.484 83.8155 318.932 84.2632 319.484 84.2632Z" fill="#FB043D"/>
<path d="M309.839 84.2632C310.391 84.2632 310.839 83.8155 310.839 83.2632C310.839 82.7109 310.391 82.2632 309.839 82.2632C309.287 82.2632 308.839 82.7109 308.839 83.2632C308.839 83.8155 309.287 84.2632 309.839 84.2632Z" fill="#FB043D"/>
<path d="M300.194 84.2632C300.746 84.2632 301.194 83.8155 301.194 83.2632C301.194 82.7109 300.746 82.2632 300.194 82.2632C299.642 82.2632 299.194 82.7109 299.194 83.2632C299.194 83.8155 299.642 84.2632 300.194 84.2632Z" fill="#FB043D"/>
<path d="M290.542 84.2632C291.094 84.2632 291.542 83.8155 291.542 83.2632C291.542 82.7109 291.094 82.2632 290.542 82.2632C289.99 82.2632 289.542 82.7109 289.542 83.2632C289.542 83.8155 289.99 84.2632 290.542 84.2632Z" fill="#FB043D"/>
<path d="M280.897 84.2632C281.449 84.2632 281.897 83.8155 281.897 83.2632C281.897 82.7109 281.449 82.2632 280.897 82.2632C280.345 82.2632 279.897 82.7109 279.897 83.2632C279.897 83.8155 280.345 84.2632 280.897 84.2632Z" fill="#FB043D"/>
<path d="M271.252 84.2632C271.804 84.2632 272.252 83.8155 272.252 83.2632C272.252 82.7109 271.804 82.2632 271.252 82.2632C270.7 82.2632 270.252 82.7109 270.252 83.2632C270.252 83.8155 270.7 84.2632 271.252 84.2632Z" fill="#FB043D"/>
<path d="M261.601 84.2632C262.153 84.2632 262.601 83.8155 262.601 83.2632C262.601 82.7109 262.153 82.2632 261.601 82.2632C261.049 82.2632 260.601 82.7109 260.601 83.2632C260.601 83.8155 261.049 84.2632 261.601 84.2632Z" fill="#FB043D"/>
<path d="M251.956 84.2632C252.508 84.2632 252.956 83.8155 252.956 83.2632C252.956 82.7109 252.508 82.2632 251.956 82.2632C251.404 82.2632 250.956 82.7109 250.956 83.2632C250.956 83.8155 251.404 84.2632 251.956 84.2632Z" fill="#FB043D"/>
<path d="M338.78 76.7549C339.333 76.7549 339.78 76.3072 339.78 75.7549C339.78 75.2026 339.333 74.7549 338.78 74.7549C338.228 74.7549 337.78 75.2026 337.78 75.7549C337.78 76.3072 338.228 76.7549 338.78 76.7549Z" fill="#FB043D"/>
<path d="M329.135 76.7549C329.688 76.7549 330.135 76.3072 330.135 75.7549C330.135 75.2026 329.688 74.7549 329.135 74.7549C328.583 74.7549 328.135 75.2026 328.135 75.7549C328.135 76.3072 328.583 76.7549 329.135 76.7549Z" fill="#FB043D"/>
<path d="M319.484 76.7549C320.036 76.7549 320.484 76.3072 320.484 75.7549C320.484 75.2026 320.036 74.7549 319.484 74.7549C318.932 74.7549 318.484 75.2026 318.484 75.7549C318.484 76.3072 318.932 76.7549 319.484 76.7549Z" fill="#FB043D"/>
<path d="M309.839 76.7549C310.391 76.7549 310.839 76.3072 310.839 75.7549C310.839 75.2026 310.391 74.7549 309.839 74.7549C309.287 74.7549 308.839 75.2026 308.839 75.7549C308.839 76.3072 309.287 76.7549 309.839 76.7549Z" fill="#FB043D"/>
<path d="M300.194 76.7549C300.746 76.7549 301.194 76.3072 301.194 75.7549C301.194 75.2026 300.746 74.7549 300.194 74.7549C299.642 74.7549 299.194 75.2026 299.194 75.7549C299.194 76.3072 299.642 76.7549 300.194 76.7549Z" fill="#FB043D"/>
<path d="M290.542 76.7549C291.094 76.7549 291.542 76.3072 291.542 75.7549C291.542 75.2026 291.094 74.7549 290.542 74.7549C289.99 74.7549 289.542 75.2026 289.542 75.7549C289.542 76.3072 289.99 76.7549 290.542 76.7549Z" fill="#FB043D"/>
<path d="M280.897 76.7549C281.449 76.7549 281.897 76.3072 281.897 75.7549C281.897 75.2026 281.449 74.7549 280.897 74.7549C280.345 74.7549 279.897 75.2026 279.897 75.7549C279.897 76.3072 280.345 76.7549 280.897 76.7549Z" fill="#FB043D"/>
<path d="M271.252 76.7549C271.804 76.7549 272.252 76.3072 272.252 75.7549C272.252 75.2026 271.804 74.7549 271.252 74.7549C270.7 74.7549 270.252 75.2026 270.252 75.7549C270.252 76.3072 270.7 76.7549 271.252 76.7549Z" fill="#FB043D"/>
<path d="M261.601 76.7549C262.153 76.7549 262.601 76.3072 262.601 75.7549C262.601 75.2026 262.153 74.7549 261.601 74.7549C261.049 74.7549 260.601 75.2026 260.601 75.7549C260.601 76.3072 261.049 76.7549 261.601 76.7549Z" fill="#FB043D"/>
<path d="M251.956 76.7549C252.508 76.7549 252.956 76.3072 252.956 75.7549C252.956 75.2026 252.508 74.7549 251.956 74.7549C251.404 74.7549 250.956 75.2026 250.956 75.7549C250.956 76.3072 251.404 76.7549 251.956 76.7549Z" fill="#FB043D"/>
<path d="M338.78 69.2471C339.333 69.2471 339.78 68.7994 339.78 68.2471C339.78 67.6948 339.333 67.2471 338.78 67.2471C338.228 67.2471 337.78 67.6948 337.78 68.2471C337.78 68.7994 338.228 69.2471 338.78 69.2471Z" fill="#FB043D"/>
<path d="M329.135 69.2471C329.688 69.2471 330.135 68.7994 330.135 68.2471C330.135 67.6948 329.688 67.2471 329.135 67.2471C328.583 67.2471 328.135 67.6948 328.135 68.2471C328.135 68.7994 328.583 69.2471 329.135 69.2471Z" fill="#FB043D"/>
<path d="M319.484 69.2471C320.036 69.2471 320.484 68.7994 320.484 68.2471C320.484 67.6948 320.036 67.2471 319.484 67.2471C318.932 67.2471 318.484 67.6948 318.484 68.2471C318.484 68.7994 318.932 69.2471 319.484 69.2471Z" fill="#FB043D"/>
<path d="M309.839 69.2471C310.391 69.2471 310.839 68.7994 310.839 68.2471C310.839 67.6948 310.391 67.2471 309.839 67.2471C309.287 67.2471 308.839 67.6948 308.839 68.2471C308.839 68.7994 309.287 69.2471 309.839 69.2471Z" fill="#FB043D"/>
<path d="M300.194 69.2471C300.746 69.2471 301.194 68.7994 301.194 68.2471C301.194 67.6948 300.746 67.2471 300.194 67.2471C299.642 67.2471 299.194 67.6948 299.194 68.2471C299.194 68.7994 299.642 69.2471 300.194 69.2471Z" fill="#FB043D"/>
<path d="M290.542 69.2471C291.094 69.2471 291.542 68.7994 291.542 68.2471C291.542 67.6948 291.094 67.2471 290.542 67.2471C289.99 67.2471 289.542 67.6948 289.542 68.2471C289.542 68.7994 289.99 69.2471 290.542 69.2471Z" fill="#FB043D"/>
<path d="M280.897 69.2471C281.449 69.2471 281.897 68.7994 281.897 68.2471C281.897 67.6948 281.449 67.2471 280.897 67.2471C280.345 67.2471 279.897 67.6948 279.897 68.2471C279.897 68.7994 280.345 69.2471 280.897 69.2471Z" fill="#FB043D"/>
<path d="M271.252 69.2471C271.804 69.2471 272.252 68.7994 272.252 68.2471C272.252 67.6948 271.804 67.2471 271.252 67.2471C270.7 67.2471 270.252 67.6948 270.252 68.2471C270.252 68.7994 270.7 69.2471 271.252 69.2471Z" fill="#FB043D"/>
<path d="M261.601 69.2471C262.153 69.2471 262.601 68.7994 262.601 68.2471C262.601 67.6948 262.153 67.2471 261.601 67.2471C261.049 67.2471 260.601 67.6948 260.601 68.2471C260.601 68.7994 261.049 69.2471 261.601 69.2471Z" fill="#FB043D"/>
<path d="M251.956 69.2471C252.508 69.2471 252.956 68.7994 252.956 68.2471C252.956 67.6948 252.508 67.2471 251.956 67.2471C251.404 67.2471 250.956 67.6948 250.956 68.2471C250.956 68.7994 251.404 69.2471 251.956 69.2471Z" fill="#FB043D"/>
<path d="M338.78 61.7393C339.333 61.7393 339.78 61.2915 339.78 60.7393C339.78 60.187 339.333 59.7393 338.78 59.7393C338.228 59.7393 337.78 60.187 337.78 60.7393C337.78 61.2915 338.228 61.7393 338.78 61.7393Z" fill="#FB043D"/>
<path d="M329.135 61.7393C329.688 61.7393 330.135 61.2915 330.135 60.7393C330.135 60.187 329.688 59.7393 329.135 59.7393C328.583 59.7393 328.135 60.187 328.135 60.7393C328.135 61.2915 328.583 61.7393 329.135 61.7393Z" fill="#FB043D"/>
<path d="M319.484 61.7393C320.036 61.7393 320.484 61.2915 320.484 60.7393C320.484 60.187 320.036 59.7393 319.484 59.7393C318.932 59.7393 318.484 60.187 318.484 60.7393C318.484 61.2915 318.932 61.7393 319.484 61.7393Z" fill="#FB043D"/>
<path d="M309.839 61.7393C310.391 61.7393 310.839 61.2915 310.839 60.7393C310.839 60.187 310.391 59.7393 309.839 59.7393C309.287 59.7393 308.839 60.187 308.839 60.7393C308.839 61.2915 309.287 61.7393 309.839 61.7393Z" fill="#FB043D"/>
<path d="M300.194 61.7393C300.746 61.7393 301.194 61.2915 301.194 60.7393C301.194 60.187 300.746 59.7393 300.194 59.7393C299.642 59.7393 299.194 60.187 299.194 60.7393C299.194 61.2915 299.642 61.7393 300.194 61.7393Z" fill="#FB043D"/>
<path d="M290.542 61.7393C291.094 61.7393 291.542 61.2915 291.542 60.7393C291.542 60.187 291.094 59.7393 290.542 59.7393C289.99 59.7393 289.542 60.187 289.542 60.7393C289.542 61.2915 289.99 61.7393 290.542 61.7393Z" fill="#FB043D"/>
<path d="M280.897 61.7393C281.449 61.7393 281.897 61.2915 281.897 60.7393C281.897 60.187 281.449 59.7393 280.897 59.7393C280.345 59.7393 279.897 60.187 279.897 60.7393C279.897 61.2915 280.345 61.7393 280.897 61.7393Z" fill="#FB043D"/>
<path d="M271.252 61.7393C271.804 61.7393 272.252 61.2915 272.252 60.7393C272.252 60.187 271.804 59.7393 271.252 59.7393C270.7 59.7393 270.252 60.187 270.252 60.7393C270.252 61.2915 270.7 61.7393 271.252 61.7393Z" fill="#FB043D"/>
<path d="M261.601 61.7393C262.153 61.7393 262.601 61.2915 262.601 60.7393C262.601 60.187 262.153 59.7393 261.601 59.7393C261.049 59.7393 260.601 60.187 260.601 60.7393C260.601 61.2915 261.049 61.7393 261.601 61.7393Z" fill="#FB043D"/>
<path d="M251.956 61.7393C252.508 61.7393 252.956 61.2915 252.956 60.7393C252.956 60.187 252.508 59.7393 251.956 59.7393C251.404 59.7393 250.956 60.187 250.956 60.7393C250.956 61.2915 251.404 61.7393 251.956 61.7393Z" fill="#FB043D"/>
<path d="M338.78 54.231C339.333 54.231 339.78 53.7832 339.78 53.231C339.78 52.6787 339.333 52.231 338.78 52.231C338.228 52.231 337.78 52.6787 337.78 53.231C337.78 53.7832 338.228 54.231 338.78 54.231Z" fill="#FB043D"/>
<path d="M329.135 54.231C329.688 54.231 330.135 53.7832 330.135 53.231C330.135 52.6787 329.688 52.231 329.135 52.231C328.583 52.231 328.135 52.6787 328.135 53.231C328.135 53.7832 328.583 54.231 329.135 54.231Z" fill="#FB043D"/>
<path d="M319.484 54.231C320.036 54.231 320.484 53.7832 320.484 53.231C320.484 52.6787 320.036 52.231 319.484 52.231C318.932 52.231 318.484 52.6787 318.484 53.231C318.484 53.7832 318.932 54.231 319.484 54.231Z" fill="#FB043D"/>
<path d="M309.839 54.231C310.391 54.231 310.839 53.7832 310.839 53.231C310.839 52.6787 310.391 52.231 309.839 52.231C309.287 52.231 308.839 52.6787 308.839 53.231C308.839 53.7832 309.287 54.231 309.839 54.231Z" fill="#FB043D"/>
<path d="M300.194 54.231C300.746 54.231 301.194 53.7832 301.194 53.231C301.194 52.6787 300.746 52.231 300.194 52.231C299.642 52.231 299.194 52.6787 299.194 53.231C299.194 53.7832 299.642 54.231 300.194 54.231Z" fill="#FB043D"/>
<path d="M290.542 54.231C291.094 54.231 291.542 53.7832 291.542 53.231C291.542 52.6787 291.094 52.231 290.542 52.231C289.99 52.231 289.542 52.6787 289.542 53.231C289.542 53.7832 289.99 54.231 290.542 54.231Z" fill="#FB043D"/>
<path d="M280.897 54.231C281.449 54.231 281.897 53.7832 281.897 53.231C281.897 52.6787 281.449 52.231 280.897 52.231C280.345 52.231 279.897 52.6787 279.897 53.231C279.897 53.7832 280.345 54.231 280.897 54.231Z" fill="#FB043D"/>
<path d="M271.252 54.231C271.804 54.231 272.252 53.7832 272.252 53.231C272.252 52.6787 271.804 52.231 271.252 52.231C270.7 52.231 270.252 52.6787 270.252 53.231C270.252 53.7832 270.7 54.231 271.252 54.231Z" fill="#FB043D"/>
<path d="M261.601 54.231C262.153 54.231 262.601 53.7832 262.601 53.231C262.601 52.6787 262.153 52.231 261.601 52.231C261.049 52.231 260.601 52.6787 260.601 53.231C260.601 53.7832 261.049 54.231 261.601 54.231Z" fill="#FB043D"/>
<path d="M251.956 54.231C252.508 54.231 252.956 53.7832 252.956 53.231C252.956 52.6787 252.508 52.231 251.956 52.231C251.404 52.231 250.956 52.6787 250.956 53.231C250.956 53.7832 251.404 54.231 251.956 54.231Z" fill="#FB043D"/>
<path d="M338.78 46.7222C339.333 46.7222 339.78 46.2745 339.78 45.7222C339.78 45.1699 339.333 44.7222 338.78 44.7222C338.228 44.7222 337.78 45.1699 337.78 45.7222C337.78 46.2745 338.228 46.7222 338.78 46.7222Z" fill="#FB043D"/>
<path d="M329.135 46.7222C329.688 46.7222 330.135 46.2745 330.135 45.7222C330.135 45.1699 329.688 44.7222 329.135 44.7222C328.583 44.7222 328.135 45.1699 328.135 45.7222C328.135 46.2745 328.583 46.7222 329.135 46.7222Z" fill="#FB043D"/>
<path d="M319.484 46.7222C320.036 46.7222 320.484 46.2745 320.484 45.7222C320.484 45.1699 320.036 44.7222 319.484 44.7222C318.932 44.7222 318.484 45.1699 318.484 45.7222C318.484 46.2745 318.932 46.7222 319.484 46.7222Z" fill="#FB043D"/>
<path d="M309.839 46.7222C310.391 46.7222 310.839 46.2745 310.839 45.7222C310.839 45.1699 310.391 44.7222 309.839 44.7222C309.287 44.7222 308.839 45.1699 308.839 45.7222C308.839 46.2745 309.287 46.7222 309.839 46.7222Z" fill="#FB043D"/>
<path d="M300.194 46.7222C300.746 46.7222 301.194 46.2745 301.194 45.7222C301.194 45.1699 300.746 44.7222 300.194 44.7222C299.642 44.7222 299.194 45.1699 299.194 45.7222C299.194 46.2745 299.642 46.7222 300.194 46.7222Z" fill="#FB043D"/>
<path d="M290.542 46.7222C291.094 46.7222 291.542 46.2745 291.542 45.7222C291.542 45.1699 291.094 44.7222 290.542 44.7222C289.99 44.7222 289.542 45.1699 289.542 45.7222C289.542 46.2745 289.99 46.7222 290.542 46.7222Z" fill="#FB043D"/>
<path d="M280.897 46.7222C281.449 46.7222 281.897 46.2745 281.897 45.7222C281.897 45.1699 281.449 44.7222 280.897 44.7222C280.345 44.7222 279.897 45.1699 279.897 45.7222C279.897 46.2745 280.345 46.7222 280.897 46.7222Z" fill="#FB043D"/>
<path d="M271.252 46.7222C271.804 46.7222 272.252 46.2745 272.252 45.7222C272.252 45.1699 271.804 44.7222 271.252 44.7222C270.7 44.7222 270.252 45.1699 270.252 45.7222C270.252 46.2745 270.7 46.7222 271.252 46.7222Z" fill="#FB043D"/>
<path d="M261.601 46.7222C262.153 46.7222 262.601 46.2745 262.601 45.7222C262.601 45.1699 262.153 44.7222 261.601 44.7222C261.049 44.7222 260.601 45.1699 260.601 45.7222C260.601 46.2745 261.049 46.7222 261.601 46.7222Z" fill="#FB043D"/>
<path d="M251.956 46.7222C252.508 46.7222 252.956 46.2745 252.956 45.7222C252.956 45.1699 252.508 44.7222 251.956 44.7222C251.404 44.7222 250.956 45.1699 250.956 45.7222C250.956 46.2745 251.404 46.7222 251.956 46.7222Z" fill="#FB043D"/>
<path d="M338.78 39.2139C339.333 39.2139 339.78 38.7662 339.78 38.2139C339.78 37.6616 339.333 37.2139 338.78 37.2139C338.228 37.2139 337.78 37.6616 337.78 38.2139C337.78 38.7662 338.228 39.2139 338.78 39.2139Z" fill="#FB043D"/>
<path d="M329.135 39.2139C329.688 39.2139 330.135 38.7662 330.135 38.2139C330.135 37.6616 329.688 37.2139 329.135 37.2139C328.583 37.2139 328.135 37.6616 328.135 38.2139C328.135 38.7662 328.583 39.2139 329.135 39.2139Z" fill="#FB043D"/>
<path d="M319.484 39.2139C320.036 39.2139 320.484 38.7662 320.484 38.2139C320.484 37.6616 320.036 37.2139 319.484 37.2139C318.932 37.2139 318.484 37.6616 318.484 38.2139C318.484 38.7662 318.932 39.2139 319.484 39.2139Z" fill="#FB043D"/>
<path d="M309.839 39.2139C310.391 39.2139 310.839 38.7662 310.839 38.2139C310.839 37.6616 310.391 37.2139 309.839 37.2139C309.287 37.2139 308.839 37.6616 308.839 38.2139C308.839 38.7662 309.287 39.2139 309.839 39.2139Z" fill="#FB043D"/>
<path d="M300.194 39.2139C300.746 39.2139 301.194 38.7662 301.194 38.2139C301.194 37.6616 300.746 37.2139 300.194 37.2139C299.642 37.2139 299.194 37.6616 299.194 38.2139C299.194 38.7662 299.642 39.2139 300.194 39.2139Z" fill="#FB043D"/>
<path d="M290.542 39.2139C291.094 39.2139 291.542 38.7662 291.542 38.2139C291.542 37.6616 291.094 37.2139 290.542 37.2139C289.99 37.2139 289.542 37.6616 289.542 38.2139C289.542 38.7662 289.99 39.2139 290.542 39.2139Z" fill="#FB043D"/>
<path d="M280.897 39.2139C281.449 39.2139 281.897 38.7662 281.897 38.2139C281.897 37.6616 281.449 37.2139 280.897 37.2139C280.345 37.2139 279.897 37.6616 279.897 38.2139C279.897 38.7662 280.345 39.2139 280.897 39.2139Z" fill="#FB043D"/>
<path d="M271.252 39.2139C271.804 39.2139 272.252 38.7662 272.252 38.2139C272.252 37.6616 271.804 37.2139 271.252 37.2139C270.7 37.2139 270.252 37.6616 270.252 38.2139C270.252 38.7662 270.7 39.2139 271.252 39.2139Z" fill="#FB043D"/>
<path d="M261.601 39.2139C262.153 39.2139 262.601 38.7662 262.601 38.2139C262.601 37.6616 262.153 37.2139 261.601 37.2139C261.049 37.2139 260.601 37.6616 260.601 38.2139C260.601 38.7662 261.049 39.2139 261.601 39.2139Z" fill="#FB043D"/>
<path d="M251.956 39.2139C252.508 39.2139 252.956 38.7662 252.956 38.2139C252.956 37.6616 252.508 37.2139 251.956 37.2139C251.404 37.2139 250.956 37.6616 250.956 38.2139C250.956 38.7662 251.404 39.2139 251.956 39.2139Z" fill="#FB043D"/>
<path d="M338.78 31.7061C339.333 31.7061 339.78 31.2583 339.78 30.7061C339.78 30.1538 339.333 29.7061 338.78 29.7061C338.228 29.7061 337.78 30.1538 337.78 30.7061C337.78 31.2583 338.228 31.7061 338.78 31.7061Z" fill="#FB043D"/>
<path d="M329.135 31.7061C329.688 31.7061 330.135 31.2583 330.135 30.7061C330.135 30.1538 329.688 29.7061 329.135 29.7061C328.583 29.7061 328.135 30.1538 328.135 30.7061C328.135 31.2583 328.583 31.7061 329.135 31.7061Z" fill="#FB043D"/>
<path d="M319.484 31.7061C320.036 31.7061 320.484 31.2583 320.484 30.7061C320.484 30.1538 320.036 29.7061 319.484 29.7061C318.932 29.7061 318.484 30.1538 318.484 30.7061C318.484 31.2583 318.932 31.7061 319.484 31.7061Z" fill="#FB043D"/>
<path d="M309.839 31.7061C310.391 31.7061 310.839 31.2583 310.839 30.7061C310.839 30.1538 310.391 29.7061 309.839 29.7061C309.287 29.7061 308.839 30.1538 308.839 30.7061C308.839 31.2583 309.287 31.7061 309.839 31.7061Z" fill="#FB043D"/>
<path d="M300.194 31.7061C300.746 31.7061 301.194 31.2583 301.194 30.7061C301.194 30.1538 300.746 29.7061 300.194 29.7061C299.642 29.7061 299.194 30.1538 299.194 30.7061C299.194 31.2583 299.642 31.7061 300.194 31.7061Z" fill="#FB043D"/>
<path d="M290.542 31.7061C291.094 31.7061 291.542 31.2583 291.542 30.7061C291.542 30.1538 291.094 29.7061 290.542 29.7061C289.99 29.7061 289.542 30.1538 289.542 30.7061C289.542 31.2583 289.99 31.7061 290.542 31.7061Z" fill="#FB043D"/>
<path d="M280.897 31.7061C281.449 31.7061 281.897 31.2583 281.897 30.7061C281.897 30.1538 281.449 29.7061 280.897 29.7061C280.345 29.7061 279.897 30.1538 279.897 30.7061C279.897 31.2583 280.345 31.7061 280.897 31.7061Z" fill="#FB043D"/>
<path d="M271.252 31.7061C271.804 31.7061 272.252 31.2583 272.252 30.7061C272.252 30.1538 271.804 29.7061 271.252 29.7061C270.7 29.7061 270.252 30.1538 270.252 30.7061C270.252 31.2583 270.7 31.7061 271.252 31.7061Z" fill="#FB043D"/>
<path d="M261.601 31.7061C262.153 31.7061 262.601 31.2583 262.601 30.7061C262.601 30.1538 262.153 29.7061 261.601 29.7061C261.049 29.7061 260.601 30.1538 260.601 30.7061C260.601 31.2583 261.049 31.7061 261.601 31.7061Z" fill="#FB043D"/>
<path d="M251.956 31.7061C252.508 31.7061 252.956 31.2583 252.956 30.7061C252.956 30.1538 252.508 29.7061 251.956 29.7061C251.404 29.7061 250.956 30.1538 250.956 30.7061C250.956 31.2583 251.404 31.7061 251.956 31.7061Z" fill="#FB043D"/>
</g>
<path opacity="0.4" d="M289.004 101.211H229.001C212.456 101.179 199.047 87.7989 199.001 71.2739V41.3569C198.956 24.7609 212.383 11.2689 229 11.2109H349V41.3569C348.971 74.4269 322.116 101.218 289.004 101.211ZM125 101.711V133.211H62.503C27.971 133.193 -0.00999732 104.989 2.67956e-06 70.2109H93.748C97.8616 70.2064 101.935 71.0183 105.733 72.5996C109.53 74.1809 112.976 76.5001 115.871 79.4229C121.743 85.3518 125.026 93.3664 125 101.711Z" fill="#DBEEFE"/>
<g opacity="0.7">
<path d="M21.355 28.4067C21.9073 28.4067 22.355 27.959 22.355 27.4067C22.355 26.8545 21.9073 26.4067 21.355 26.4067C20.8027 26.4067 20.355 26.8545 20.355 27.4067C20.355 27.959 20.8027 28.4067 21.355 28.4067Z" fill="#969DA6"/>
<path d="M30.9351 28.4067C31.4873 28.4067 31.9351 27.959 31.9351 27.4067C31.9351 26.8545 31.4873 26.4067 30.9351 26.4067C30.3828 26.4067 29.9351 26.8545 29.9351 27.4067C29.9351 27.959 30.3828 28.4067 30.9351 28.4067Z" fill="#969DA6"/>
<path d="M40.5088 28.4067C41.0611 28.4067 41.5088 27.959 41.5088 27.4067C41.5088 26.8545 41.0611 26.4067 40.5088 26.4067C39.9565 26.4067 39.5088 26.8545 39.5088 27.4067C39.5088 27.959 39.9565 28.4067 40.5088 28.4067Z" fill="#969DA6"/>
<path d="M50.083 28.4067C50.6353 28.4067 51.083 27.959 51.083 27.4067C51.083 26.8545 50.6353 26.4067 50.083 26.4067C49.5307 26.4067 49.083 26.8545 49.083 27.4067C49.083 27.959 49.5307 28.4067 50.083 28.4067Z" fill="#969DA6"/>
<path d="M59.6641 28.4067C60.2163 28.4067 60.6641 27.959 60.6641 27.4067C60.6641 26.8545 60.2163 26.4067 59.6641 26.4067C59.1118 26.4067 58.6641 26.8545 58.6641 27.4067C58.6641 27.959 59.1118 28.4067 59.6641 28.4067Z" fill="#969DA6"/>
<path d="M69.2378 28.4067C69.7901 28.4067 70.2378 27.959 70.2378 27.4067C70.2378 26.8545 69.7901 26.4067 69.2378 26.4067C68.6855 26.4067 68.2378 26.8545 68.2378 27.4067C68.2378 27.959 68.6855 28.4067 69.2378 28.4067Z" fill="#969DA6"/>
<path d="M78.812 28.4067C79.3643 28.4067 79.812 27.959 79.812 27.4067C79.812 26.8545 79.3643 26.4067 78.812 26.4067C78.2597 26.4067 77.812 26.8545 77.812 27.4067C77.812 27.959 78.2597 28.4067 78.812 28.4067Z" fill="#969DA6"/>
<path d="M88.3931 28.4067C88.9454 28.4067 89.3931 27.959 89.3931 27.4067C89.3931 26.8545 88.9454 26.4067 88.3931 26.4067C87.8408 26.4067 87.3931 26.8545 87.3931 27.4067C87.3931 27.959 87.8408 28.4067 88.3931 28.4067Z" fill="#969DA6"/>
<path d="M97.9668 28.4067C98.5191 28.4067 98.9668 27.959 98.9668 27.4067C98.9668 26.8545 98.5191 26.4067 97.9668 26.4067C97.4145 26.4067 96.9668 26.8545 96.9668 27.4067C96.9668 27.959 97.4145 28.4067 97.9668 28.4067Z" fill="#969DA6"/>
<path d="M107.541 28.4067C108.093 28.4067 108.541 27.959 108.541 27.4067C108.541 26.8545 108.093 26.4067 107.541 26.4067C106.989 26.4067 106.541 26.8545 106.541 27.4067C106.541 27.959 106.989 28.4067 107.541 28.4067Z" fill="#969DA6"/>
<path d="M21.355 35.9756C21.9073 35.9756 22.355 35.5279 22.355 34.9756C22.355 34.4233 21.9073 33.9756 21.355 33.9756C20.8027 33.9756 20.355 34.4233 20.355 34.9756C20.355 35.5279 20.8027 35.9756 21.355 35.9756Z" fill="#969DA6"/>
<path d="M30.9351 35.9756C31.4873 35.9756 31.9351 35.5279 31.9351 34.9756C31.9351 34.4233 31.4873 33.9756 30.9351 33.9756C30.3828 33.9756 29.9351 34.4233 29.9351 34.9756C29.9351 35.5279 30.3828 35.9756 30.9351 35.9756Z" fill="#969DA6"/>
<path d="M40.5088 35.9756C41.0611 35.9756 41.5088 35.5279 41.5088 34.9756C41.5088 34.4233 41.0611 33.9756 40.5088 33.9756C39.9565 33.9756 39.5088 34.4233 39.5088 34.9756C39.5088 35.5279 39.9565 35.9756 40.5088 35.9756Z" fill="#969DA6"/>
<path d="M50.083 35.9756C50.6353 35.9756 51.083 35.5279 51.083 34.9756C51.083 34.4233 50.6353 33.9756 50.083 33.9756C49.5307 33.9756 49.083 34.4233 49.083 34.9756C49.083 35.5279 49.5307 35.9756 50.083 35.9756Z" fill="#969DA6"/>
<path d="M59.6641 35.9756C60.2163 35.9756 60.6641 35.5279 60.6641 34.9756C60.6641 34.4233 60.2163 33.9756 59.6641 33.9756C59.1118 33.9756 58.6641 34.4233 58.6641 34.9756C58.6641 35.5279 59.1118 35.9756 59.6641 35.9756Z" fill="#969DA6"/>
<path d="M69.2378 35.9756C69.7901 35.9756 70.2378 35.5279 70.2378 34.9756C70.2378 34.4233 69.7901 33.9756 69.2378 33.9756C68.6855 33.9756 68.2378 34.4233 68.2378 34.9756C68.2378 35.5279 68.6855 35.9756 69.2378 35.9756Z" fill="#969DA6"/>
<path d="M78.812 35.9756C79.3643 35.9756 79.812 35.5279 79.812 34.9756C79.812 34.4233 79.3643 33.9756 78.812 33.9756C78.2597 33.9756 77.812 34.4233 77.812 34.9756C77.812 35.5279 78.2597 35.9756 78.812 35.9756Z" fill="#969DA6"/>
<path d="M88.3931 35.9756C88.9454 35.9756 89.3931 35.5279 89.3931 34.9756C89.3931 34.4233 88.9454 33.9756 88.3931 33.9756C87.8408 33.9756 87.3931 34.4233 87.3931 34.9756C87.3931 35.5279 87.8408 35.9756 88.3931 35.9756Z" fill="#969DA6"/>
<path d="M97.9668 35.9756C98.5191 35.9756 98.9668 35.5279 98.9668 34.9756C98.9668 34.4233 98.5191 33.9756 97.9668 33.9756C97.4145 33.9756 96.9668 34.4233 96.9668 34.9756C96.9668 35.5279 97.4145 35.9756 97.9668 35.9756Z" fill="#969DA6"/>
<path d="M107.541 35.9756C108.093 35.9756 108.541 35.5279 108.541 34.9756C108.541 34.4233 108.093 33.9756 107.541 33.9756C106.989 33.9756 106.541 34.4233 106.541 34.9756C106.541 35.5279 106.989 35.9756 107.541 35.9756Z" fill="#969DA6"/>
<path d="M21.355 43.5449C21.9073 43.5449 22.355 43.0972 22.355 42.5449C22.355 41.9926 21.9073 41.5449 21.355 41.5449C20.8027 41.5449 20.355 41.9926 20.355 42.5449C20.355 43.0972 20.8027 43.5449 21.355 43.5449Z" fill="#969DA6"/>
<path d="M30.9351 43.5449C31.4873 43.5449 31.9351 43.0972 31.9351 42.5449C31.9351 41.9926 31.4873 41.5449 30.9351 41.5449C30.3828 41.5449 29.9351 41.9926 29.9351 42.5449C29.9351 43.0972 30.3828 43.5449 30.9351 43.5449Z" fill="#969DA6"/>
<path d="M40.5088 43.5449C41.0611 43.5449 41.5088 43.0972 41.5088 42.5449C41.5088 41.9926 41.0611 41.5449 40.5088 41.5449C39.9565 41.5449 39.5088 41.9926 39.5088 42.5449C39.5088 43.0972 39.9565 43.5449 40.5088 43.5449Z" fill="#969DA6"/>
<path d="M50.083 43.5449C50.6353 43.5449 51.083 43.0972 51.083 42.5449C51.083 41.9926 50.6353 41.5449 50.083 41.5449C49.5307 41.5449 49.083 41.9926 49.083 42.5449C49.083 43.0972 49.5307 43.5449 50.083 43.5449Z" fill="#969DA6"/>
<path d="M59.6641 43.5449C60.2163 43.5449 60.6641 43.0972 60.6641 42.5449C60.6641 41.9926 60.2163 41.5449 59.6641 41.5449C59.1118 41.5449 58.6641 41.9926 58.6641 42.5449C58.6641 43.0972 59.1118 43.5449 59.6641 43.5449Z" fill="#969DA6"/>
<path d="M69.2378 43.5449C69.7901 43.5449 70.2378 43.0972 70.2378 42.5449C70.2378 41.9926 69.7901 41.5449 69.2378 41.5449C68.6855 41.5449 68.2378 41.9926 68.2378 42.5449C68.2378 43.0972 68.6855 43.5449 69.2378 43.5449Z" fill="#969DA6"/>
<path d="M78.812 43.5449C79.3643 43.5449 79.812 43.0972 79.812 42.5449C79.812 41.9926 79.3643 41.5449 78.812 41.5449C78.2597 41.5449 77.812 41.9926 77.812 42.5449C77.812 43.0972 78.2597 43.5449 78.812 43.5449Z" fill="#969DA6"/>
<path d="M88.3931 43.5449C88.9454 43.5449 89.3931 43.0972 89.3931 42.5449C89.3931 41.9926 88.9454 41.5449 88.3931 41.5449C87.8408 41.5449 87.3931 41.9926 87.3931 42.5449C87.3931 43.0972 87.8408 43.5449 88.3931 43.5449Z" fill="#969DA6"/>
<path d="M97.9668 43.5449C98.5191 43.5449 98.9668 43.0972 98.9668 42.5449C98.9668 41.9926 98.5191 41.5449 97.9668 41.5449C97.4145 41.5449 96.9668 41.9926 96.9668 42.5449C96.9668 43.0972 97.4145 43.5449 97.9668 43.5449Z" fill="#969DA6"/>
<path d="M107.541 43.5449C108.093 43.5449 108.541 43.0972 108.541 42.5449C108.541 41.9926 108.093 41.5449 107.541 41.5449C106.989 41.5449 106.541 41.9926 106.541 42.5449C106.541 43.0972 106.989 43.5449 107.541 43.5449Z" fill="#969DA6"/>
<path d="M21.355 51.1128C21.9073 51.1128 22.355 50.6651 22.355 50.1128C22.355 49.5605 21.9073 49.1128 21.355 49.1128C20.8027 49.1128 20.355 49.5605 20.355 50.1128C20.355 50.6651 20.8027 51.1128 21.355 51.1128Z" fill="#969DA6"/>
<path d="M30.9351 51.1128C31.4873 51.1128 31.9351 50.6651 31.9351 50.1128C31.9351 49.5605 31.4873 49.1128 30.9351 49.1128C30.3828 49.1128 29.9351 49.5605 29.9351 50.1128C29.9351 50.6651 30.3828 51.1128 30.9351 51.1128Z" fill="#969DA6"/>
<path d="M40.5088 51.1128C41.0611 51.1128 41.5088 50.6651 41.5088 50.1128C41.5088 49.5605 41.0611 49.1128 40.5088 49.1128C39.9565 49.1128 39.5088 49.5605 39.5088 50.1128C39.5088 50.6651 39.9565 51.1128 40.5088 51.1128Z" fill="#969DA6"/>
<path d="M50.083 51.1128C50.6353 51.1128 51.083 50.6651 51.083 50.1128C51.083 49.5605 50.6353 49.1128 50.083 49.1128C49.5307 49.1128 49.083 49.5605 49.083 50.1128C49.083 50.6651 49.5307 51.1128 50.083 51.1128Z" fill="#969DA6"/>
<path d="M59.6641 51.1128C60.2163 51.1128 60.6641 50.6651 60.6641 50.1128C60.6641 49.5605 60.2163 49.1128 59.6641 49.1128C59.1118 49.1128 58.6641 49.5605 58.6641 50.1128C58.6641 50.6651 59.1118 51.1128 59.6641 51.1128Z" fill="#969DA6"/>
<path d="M69.2378 51.1128C69.7901 51.1128 70.2378 50.6651 70.2378 50.1128C70.2378 49.5605 69.7901 49.1128 69.2378 49.1128C68.6855 49.1128 68.2378 49.5605 68.2378 50.1128C68.2378 50.6651 68.6855 51.1128 69.2378 51.1128Z" fill="#969DA6"/>
<path d="M78.812 51.1128C79.3643 51.1128 79.812 50.6651 79.812 50.1128C79.812 49.5605 79.3643 49.1128 78.812 49.1128C78.2597 49.1128 77.812 49.5605 77.812 50.1128C77.812 50.6651 78.2597 51.1128 78.812 51.1128Z" fill="#969DA6"/>
<path d="M88.3931 51.1128C88.9454 51.1128 89.3931 50.6651 89.3931 50.1128C89.3931 49.5605 88.9454 49.1128 88.3931 49.1128C87.8408 49.1128 87.3931 49.5605 87.3931 50.1128C87.3931 50.6651 87.8408 51.1128 88.3931 51.1128Z" fill="#969DA6"/>
<path d="M97.9668 51.1128C98.5191 51.1128 98.9668 50.6651 98.9668 50.1128C98.9668 49.5605 98.5191 49.1128 97.9668 49.1128C97.4145 49.1128 96.9668 49.5605 96.9668 50.1128C96.9668 50.6651 97.4145 51.1128 97.9668 51.1128Z" fill="#969DA6"/>
<path d="M107.541 51.1128C108.093 51.1128 108.541 50.6651 108.541 50.1128C108.541 49.5605 108.093 49.1128 107.541 49.1128C106.989 49.1128 106.541 49.5605 106.541 50.1128C106.541 50.6651 106.989 51.1128 107.541 51.1128Z" fill="#969DA6"/>
<path d="M21.355 58.6816C21.9073 58.6816 22.355 58.2339 22.355 57.6816C22.355 57.1294 21.9073 56.6816 21.355 56.6816C20.8027 56.6816 20.355 57.1294 20.355 57.6816C20.355 58.2339 20.8027 58.6816 21.355 58.6816Z" fill="#969DA6"/>
<path d="M30.9351 58.6816C31.4873 58.6816 31.9351 58.2339 31.9351 57.6816C31.9351 57.1294 31.4873 56.6816 30.9351 56.6816C30.3828 56.6816 29.9351 57.1294 29.9351 57.6816C29.9351 58.2339 30.3828 58.6816 30.9351 58.6816Z" fill="#969DA6"/>
<path d="M40.5088 58.6816C41.0611 58.6816 41.5088 58.2339 41.5088 57.6816C41.5088 57.1294 41.0611 56.6816 40.5088 56.6816C39.9565 56.6816 39.5088 57.1294 39.5088 57.6816C39.5088 58.2339 39.9565 58.6816 40.5088 58.6816Z" fill="#969DA6"/>
<path d="M50.083 58.6816C50.6353 58.6816 51.083 58.2339 51.083 57.6816C51.083 57.1294 50.6353 56.6816 50.083 56.6816C49.5307 56.6816 49.083 57.1294 49.083 57.6816C49.083 58.2339 49.5307 58.6816 50.083 58.6816Z" fill="#969DA6"/>
<path d="M59.6641 58.6816C60.2163 58.6816 60.6641 58.2339 60.6641 57.6816C60.6641 57.1294 60.2163 56.6816 59.6641 56.6816C59.1118 56.6816 58.6641 57.1294 58.6641 57.6816C58.6641 58.2339 59.1118 58.6816 59.6641 58.6816Z" fill="#969DA6"/>
<path d="M69.2378 58.6816C69.7901 58.6816 70.2378 58.2339 70.2378 57.6816C70.2378 57.1294 69.7901 56.6816 69.2378 56.6816C68.6855 56.6816 68.2378 57.1294 68.2378 57.6816C68.2378 58.2339 68.6855 58.6816 69.2378 58.6816Z" fill="#969DA6"/>
<path d="M78.812 58.6816C79.3643 58.6816 79.812 58.2339 79.812 57.6816C79.812 57.1294 79.3643 56.6816 78.812 56.6816C78.2597 56.6816 77.812 57.1294 77.812 57.6816C77.812 58.2339 78.2597 58.6816 78.812 58.6816Z" fill="#969DA6"/>
<path d="M88.3931 58.6816C88.9454 58.6816 89.3931 58.2339 89.3931 57.6816C89.3931 57.1294 88.9454 56.6816 88.3931 56.6816C87.8408 56.6816 87.3931 57.1294 87.3931 57.6816C87.3931 58.2339 87.8408 58.6816 88.3931 58.6816Z" fill="#969DA6"/>
<path d="M97.9668 58.6816C98.5191 58.6816 98.9668 58.2339 98.9668 57.6816C98.9668 57.1294 98.5191 56.6816 97.9668 56.6816C97.4145 56.6816 96.9668 57.1294 96.9668 57.6816C96.9668 58.2339 97.4145 58.6816 97.9668 58.6816Z" fill="#969DA6"/>
<path d="M107.541 58.6816C108.093 58.6816 108.541 58.2339 108.541 57.6816C108.541 57.1294 108.093 56.6816 107.541 56.6816C106.989 56.6816 106.541 57.1294 106.541 57.6816C106.541 58.2339 106.989 58.6816 107.541 58.6816Z" fill="#969DA6"/>
<path d="M21.355 66.251C21.9073 66.251 22.355 65.8033 22.355 65.251C22.355 64.6987 21.9073 64.251 21.355 64.251C20.8027 64.251 20.355 64.6987 20.355 65.251C20.355 65.8033 20.8027 66.251 21.355 66.251Z" fill="#969DA6"/>
<path d="M30.9351 66.251C31.4873 66.251 31.9351 65.8033 31.9351 65.251C31.9351 64.6987 31.4873 64.251 30.9351 64.251C30.3828 64.251 29.9351 64.6987 29.9351 65.251C29.9351 65.8033 30.3828 66.251 30.9351 66.251Z" fill="#969DA6"/>
<path d="M40.5088 66.251C41.0611 66.251 41.5088 65.8033 41.5088 65.251C41.5088 64.6987 41.0611 64.251 40.5088 64.251C39.9565 64.251 39.5088 64.6987 39.5088 65.251C39.5088 65.8033 39.9565 66.251 40.5088 66.251Z" fill="#969DA6"/>
<path d="M50.083 66.251C50.6353 66.251 51.083 65.8033 51.083 65.251C51.083 64.6987 50.6353 64.251 50.083 64.251C49.5307 64.251 49.083 64.6987 49.083 65.251C49.083 65.8033 49.5307 66.251 50.083 66.251Z" fill="#969DA6"/>
<path d="M59.6641 66.251C60.2163 66.251 60.6641 65.8033 60.6641 65.251C60.6641 64.6987 60.2163 64.251 59.6641 64.251C59.1118 64.251 58.6641 64.6987 58.6641 65.251C58.6641 65.8033 59.1118 66.251 59.6641 66.251Z" fill="#969DA6"/>
<path d="M69.2378 66.251C69.7901 66.251 70.2378 65.8033 70.2378 65.251C70.2378 64.6987 69.7901 64.251 69.2378 64.251C68.6855 64.251 68.2378 64.6987 68.2378 65.251C68.2378 65.8033 68.6855 66.251 69.2378 66.251Z" fill="#969DA6"/>
<path d="M78.812 66.251C79.3643 66.251 79.812 65.8033 79.812 65.251C79.812 64.6987 79.3643 64.251 78.812 64.251C78.2597 64.251 77.812 64.6987 77.812 65.251C77.812 65.8033 78.2597 66.251 78.812 66.251Z" fill="#969DA6"/>
<path d="M88.3931 66.251C88.9454 66.251 89.3931 65.8033 89.3931 65.251C89.3931 64.6987 88.9454 64.251 88.3931 64.251C87.8408 64.251 87.3931 64.6987 87.3931 65.251C87.3931 65.8033 87.8408 66.251 88.3931 66.251Z" fill="#969DA6"/>
<path d="M97.9668 66.251C98.5191 66.251 98.9668 65.8033 98.9668 65.251C98.9668 64.6987 98.5191 64.251 97.9668 64.251C97.4145 64.251 96.9668 64.6987 96.9668 65.251C96.9668 65.8033 97.4145 66.251 97.9668 66.251Z" fill="#969DA6"/>
<path d="M107.541 66.251C108.093 66.251 108.541 65.8033 108.541 65.251C108.541 64.6987 108.093 64.251 107.541 64.251C106.989 64.251 106.541 64.6987 106.541 65.251C106.541 65.8033 106.989 66.251 107.541 66.251Z" fill="#969DA6"/>
<path d="M21.355 73.8188C21.9073 73.8188 22.355 73.3711 22.355 72.8188C22.355 72.2666 21.9073 71.8188 21.355 71.8188C20.8027 71.8188 20.355 72.2666 20.355 72.8188C20.355 73.3711 20.8027 73.8188 21.355 73.8188Z" fill="#969DA6"/>
<path d="M30.9351 73.8188C31.4873 73.8188 31.9351 73.3711 31.9351 72.8188C31.9351 72.2666 31.4873 71.8188 30.9351 71.8188C30.3828 71.8188 29.9351 72.2666 29.9351 72.8188C29.9351 73.3711 30.3828 73.8188 30.9351 73.8188Z" fill="#969DA6"/>
<path d="M40.5088 73.8188C41.0611 73.8188 41.5088 73.3711 41.5088 72.8188C41.5088 72.2666 41.0611 71.8188 40.5088 71.8188C39.9565 71.8188 39.5088 72.2666 39.5088 72.8188C39.5088 73.3711 39.9565 73.8188 40.5088 73.8188Z" fill="#969DA6"/>
<path d="M50.083 73.8188C50.6353 73.8188 51.083 73.3711 51.083 72.8188C51.083 72.2666 50.6353 71.8188 50.083 71.8188C49.5307 71.8188 49.083 72.2666 49.083 72.8188C49.083 73.3711 49.5307 73.8188 50.083 73.8188Z" fill="#969DA6"/>
<path d="M59.6641 73.8188C60.2163 73.8188 60.6641 73.3711 60.6641 72.8188C60.6641 72.2666 60.2163 71.8188 59.6641 71.8188C59.1118 71.8188 58.6641 72.2666 58.6641 72.8188C58.6641 73.3711 59.1118 73.8188 59.6641 73.8188Z" fill="#969DA6"/>
<path d="M69.2378 73.8188C69.7901 73.8188 70.2378 73.3711 70.2378 72.8188C70.2378 72.2666 69.7901 71.8188 69.2378 71.8188C68.6855 71.8188 68.2378 72.2666 68.2378 72.8188C68.2378 73.3711 68.6855 73.8188 69.2378 73.8188Z" fill="#969DA6"/>
<path d="M78.812 73.8188C79.3643 73.8188 79.812 73.3711 79.812 72.8188C79.812 72.2666 79.3643 71.8188 78.812 71.8188C78.2597 71.8188 77.812 72.2666 77.812 72.8188C77.812 73.3711 78.2597 73.8188 78.812 73.8188Z" fill="#969DA6"/>
<path d="M88.3931 73.8188C88.9454 73.8188 89.3931 73.3711 89.3931 72.8188C89.3931 72.2666 88.9454 71.8188 88.3931 71.8188C87.8408 71.8188 87.3931 72.2666 87.3931 72.8188C87.3931 73.3711 87.8408 73.8188 88.3931 73.8188Z" fill="#969DA6"/>
<path d="M97.9668 73.8188C98.5191 73.8188 98.9668 73.3711 98.9668 72.8188C98.9668 72.2666 98.5191 71.8188 97.9668 71.8188C97.4145 71.8188 96.9668 72.2666 96.9668 72.8188C96.9668 73.3711 97.4145 73.8188 97.9668 73.8188Z" fill="#969DA6"/>
<path d="M107.541 73.8188C108.093 73.8188 108.541 73.3711 108.541 72.8188C108.541 72.2666 108.093 71.8188 107.541 71.8188C106.989 71.8188 106.541 72.2666 106.541 72.8188C106.541 73.3711 106.989 73.8188 107.541 73.8188Z" fill="#969DA6"/>
<path d="M21.355 81.3877C21.9073 81.3877 22.355 80.94 22.355 80.3877C22.355 79.8354 21.9073 79.3877 21.355 79.3877C20.8027 79.3877 20.355 79.8354 20.355 80.3877C20.355 80.94 20.8027 81.3877 21.355 81.3877Z" fill="#969DA6"/>
<path d="M30.9351 81.3877C31.4873 81.3877 31.9351 80.94 31.9351 80.3877C31.9351 79.8354 31.4873 79.3877 30.9351 79.3877C30.3828 79.3877 29.9351 79.8354 29.9351 80.3877C29.9351 80.94 30.3828 81.3877 30.9351 81.3877Z" fill="#969DA6"/>
<path d="M40.5088 81.3877C41.0611 81.3877 41.5088 80.94 41.5088 80.3877C41.5088 79.8354 41.0611 79.3877 40.5088 79.3877C39.9565 79.3877 39.5088 79.8354 39.5088 80.3877C39.5088 80.94 39.9565 81.3877 40.5088 81.3877Z" fill="#969DA6"/>
<path d="M50.083 81.3877C50.6353 81.3877 51.083 80.94 51.083 80.3877C51.083 79.8354 50.6353 79.3877 50.083 79.3877C49.5307 79.3877 49.083 79.8354 49.083 80.3877C49.083 80.94 49.5307 81.3877 50.083 81.3877Z" fill="#969DA6"/>
<path d="M59.6641 81.3877C60.2163 81.3877 60.6641 80.94 60.6641 80.3877C60.6641 79.8354 60.2163 79.3877 59.6641 79.3877C59.1118 79.3877 58.6641 79.8354 58.6641 80.3877C58.6641 80.94 59.1118 81.3877 59.6641 81.3877Z" fill="#969DA6"/>
<path d="M69.2378 81.3877C69.7901 81.3877 70.2378 80.94 70.2378 80.3877C70.2378 79.8354 69.7901 79.3877 69.2378 79.3877C68.6855 79.3877 68.2378 79.8354 68.2378 80.3877C68.2378 80.94 68.6855 81.3877 69.2378 81.3877Z" fill="#969DA6"/>
<path d="M78.812 81.3877C79.3643 81.3877 79.812 80.94 79.812 80.3877C79.812 79.8354 79.3643 79.3877 78.812 79.3877C78.2597 79.3877 77.812 79.8354 77.812 80.3877C77.812 80.94 78.2597 81.3877 78.812 81.3877Z" fill="#969DA6"/>
<path d="M88.3931 81.3877C88.9454 81.3877 89.3931 80.94 89.3931 80.3877C89.3931 79.8354 88.9454 79.3877 88.3931 79.3877C87.8408 79.3877 87.3931 79.8354 87.3931 80.3877C87.3931 80.94 87.8408 81.3877 88.3931 81.3877Z" fill="#969DA6"/>
<path d="M97.9668 81.3877C98.5191 81.3877 98.9668 80.94 98.9668 80.3877C98.9668 79.8354 98.5191 79.3877 97.9668 79.3877C97.4145 79.3877 96.9668 79.8354 96.9668 80.3877C96.9668 80.94 97.4145 81.3877 97.9668 81.3877Z" fill="#969DA6"/>
<path d="M107.541 81.3877C108.093 81.3877 108.541 80.94 108.541 80.3877C108.541 79.8354 108.093 79.3877 107.541 79.3877C106.989 79.3877 106.541 79.8354 106.541 80.3877C106.541 80.94 106.989 81.3877 107.541 81.3877Z" fill="#969DA6"/>
<path d="M21.355 88.9565C21.9073 88.9565 22.355 88.5088 22.355 87.9565C22.355 87.4043 21.9073 86.9565 21.355 86.9565C20.8027 86.9565 20.355 87.4043 20.355 87.9565C20.355 88.5088 20.8027 88.9565 21.355 88.9565Z" fill="#969DA6"/>
<path d="M30.9351 88.9565C31.4873 88.9565 31.9351 88.5088 31.9351 87.9565C31.9351 87.4043 31.4873 86.9565 30.9351 86.9565C30.3828 86.9565 29.9351 87.4043 29.9351 87.9565C29.9351 88.5088 30.3828 88.9565 30.9351 88.9565Z" fill="#969DA6"/>
<path d="M40.5088 88.9565C41.0611 88.9565 41.5088 88.5088 41.5088 87.9565C41.5088 87.4043 41.0611 86.9565 40.5088 86.9565C39.9565 86.9565 39.5088 87.4043 39.5088 87.9565C39.5088 88.5088 39.9565 88.9565 40.5088 88.9565Z" fill="#969DA6"/>
<path d="M50.083 88.9565C50.6353 88.9565 51.083 88.5088 51.083 87.9565C51.083 87.4043 50.6353 86.9565 50.083 86.9565C49.5307 86.9565 49.083 87.4043 49.083 87.9565C49.083 88.5088 49.5307 88.9565 50.083 88.9565Z" fill="#969DA6"/>
<path d="M59.6641 88.9565C60.2163 88.9565 60.6641 88.5088 60.6641 87.9565C60.6641 87.4043 60.2163 86.9565 59.6641 86.9565C59.1118 86.9565 58.6641 87.4043 58.6641 87.9565C58.6641 88.5088 59.1118 88.9565 59.6641 88.9565Z" fill="#969DA6"/>
<path d="M69.2378 88.9565C69.7901 88.9565 70.2378 88.5088 70.2378 87.9565C70.2378 87.4043 69.7901 86.9565 69.2378 86.9565C68.6855 86.9565 68.2378 87.4043 68.2378 87.9565C68.2378 88.5088 68.6855 88.9565 69.2378 88.9565Z" fill="#969DA6"/>
<path d="M78.812 88.9565C79.3643 88.9565 79.812 88.5088 79.812 87.9565C79.812 87.4043 79.3643 86.9565 78.812 86.9565C78.2597 86.9565 77.812 87.4043 77.812 87.9565C77.812 88.5088 78.2597 88.9565 78.812 88.9565Z" fill="#969DA6"/>
<path d="M88.3931 88.9565C88.9454 88.9565 89.3931 88.5088 89.3931 87.9565C89.3931 87.4043 88.9454 86.9565 88.3931 86.9565C87.8408 86.9565 87.3931 87.4043 87.3931 87.9565C87.3931 88.5088 87.8408 88.9565 88.3931 88.9565Z" fill="#969DA6"/>
<path d="M97.9668 88.9565C98.5191 88.9565 98.9668 88.5088 98.9668 87.9565C98.9668 87.4043 98.5191 86.9565 97.9668 86.9565C97.4145 86.9565 96.9668 87.4043 96.9668 87.9565C96.9668 88.5088 97.4145 88.9565 97.9668 88.9565Z" fill="#969DA6"/>
<path d="M107.541 88.9565C108.093 88.9565 108.541 88.5088 108.541 87.9565C108.541 87.4043 108.093 86.9565 107.541 86.9565C106.989 86.9565 106.541 87.4043 106.541 87.9565C106.541 88.5088 106.989 88.9565 107.541 88.9565Z" fill="#969DA6"/>
<path d="M21.355 96.5249C21.9073 96.5249 22.355 96.0772 22.355 95.5249C22.355 94.9726 21.9073 94.5249 21.355 94.5249C20.8027 94.5249 20.355 94.9726 20.355 95.5249C20.355 96.0772 20.8027 96.5249 21.355 96.5249Z" fill="#969DA6"/>
<path d="M30.9351 96.5249C31.4873 96.5249 31.9351 96.0772 31.9351 95.5249C31.9351 94.9726 31.4873 94.5249 30.9351 94.5249C30.3828 94.5249 29.9351 94.9726 29.9351 95.5249C29.9351 96.0772 30.3828 96.5249 30.9351 96.5249Z" fill="#969DA6"/>
<path d="M40.5088 96.5249C41.0611 96.5249 41.5088 96.0772 41.5088 95.5249C41.5088 94.9726 41.0611 94.5249 40.5088 94.5249C39.9565 94.5249 39.5088 94.9726 39.5088 95.5249C39.5088 96.0772 39.9565 96.5249 40.5088 96.5249Z" fill="#969DA6"/>
<path d="M50.083 96.5249C50.6353 96.5249 51.083 96.0772 51.083 95.5249C51.083 94.9726 50.6353 94.5249 50.083 94.5249C49.5307 94.5249 49.083 94.9726 49.083 95.5249C49.083 96.0772 49.5307 96.5249 50.083 96.5249Z" fill="#969DA6"/>
<path d="M59.6641 96.5249C60.2163 96.5249 60.6641 96.0772 60.6641 95.5249C60.6641 94.9726 60.2163 94.5249 59.6641 94.5249C59.1118 94.5249 58.6641 94.9726 58.6641 95.5249C58.6641 96.0772 59.1118 96.5249 59.6641 96.5249Z" fill="#969DA6"/>
<path d="M69.2378 96.5249C69.7901 96.5249 70.2378 96.0772 70.2378 95.5249C70.2378 94.9726 69.7901 94.5249 69.2378 94.5249C68.6855 94.5249 68.2378 94.9726 68.2378 95.5249C68.2378 96.0772 68.6855 96.5249 69.2378 96.5249Z" fill="#969DA6"/>
<path d="M78.812 96.5249C79.3643 96.5249 79.812 96.0772 79.812 95.5249C79.812 94.9726 79.3643 94.5249 78.812 94.5249C78.2597 94.5249 77.812 94.9726 77.812 95.5249C77.812 96.0772 78.2597 96.5249 78.812 96.5249Z" fill="#969DA6"/>
<path d="M88.3931 96.5249C88.9454 96.5249 89.3931 96.0772 89.3931 95.5249C89.3931 94.9726 88.9454 94.5249 88.3931 94.5249C87.8408 94.5249 87.3931 94.9726 87.3931 95.5249C87.3931 96.0772 87.8408 96.5249 88.3931 96.5249Z" fill="#969DA6"/>
<path d="M97.9668 96.5249C98.5191 96.5249 98.9668 96.0772 98.9668 95.5249C98.9668 94.9726 98.5191 94.5249 97.9668 94.5249C97.4145 94.5249 96.9668 94.9726 96.9668 95.5249C96.9668 96.0772 97.4145 96.5249 97.9668 96.5249Z" fill="#969DA6"/>
<path d="M107.541 96.5249C108.093 96.5249 108.541 96.0772 108.541 95.5249C108.541 94.9726 108.093 94.5249 107.541 94.5249C106.989 94.5249 106.541 94.9726 106.541 95.5249C106.541 96.0772 106.989 96.5249 107.541 96.5249Z" fill="#969DA6"/>
<path d="M21.355 104.094C21.9073 104.094 22.355 103.646 22.355 103.094C22.355 102.541 21.9073 102.094 21.355 102.094C20.8027 102.094 20.355 102.541 20.355 103.094C20.355 103.646 20.8027 104.094 21.355 104.094Z" fill="#969DA6"/>
<path d="M30.9351 104.094C31.4873 104.094 31.9351 103.646 31.9351 103.094C31.9351 102.541 31.4873 102.094 30.9351 102.094C30.3828 102.094 29.9351 102.541 29.9351 103.094C29.9351 103.646 30.3828 104.094 30.9351 104.094Z" fill="#969DA6"/>
<path d="M40.5088 104.094C41.0611 104.094 41.5088 103.646 41.5088 103.094C41.5088 102.541 41.0611 102.094 40.5088 102.094C39.9565 102.094 39.5088 102.541 39.5088 103.094C39.5088 103.646 39.9565 104.094 40.5088 104.094Z" fill="#969DA6"/>
<path d="M50.083 104.094C50.6353 104.094 51.083 103.646 51.083 103.094C51.083 102.541 50.6353 102.094 50.083 102.094C49.5307 102.094 49.083 102.541 49.083 103.094C49.083 103.646 49.5307 104.094 50.083 104.094Z" fill="#969DA6"/>
<path d="M59.6641 104.094C60.2163 104.094 60.6641 103.646 60.6641 103.094C60.6641 102.541 60.2163 102.094 59.6641 102.094C59.1118 102.094 58.6641 102.541 58.6641 103.094C58.6641 103.646 59.1118 104.094 59.6641 104.094Z" fill="#969DA6"/>
<path d="M69.2378 104.094C69.7901 104.094 70.2378 103.646 70.2378 103.094C70.2378 102.541 69.7901 102.094 69.2378 102.094C68.6855 102.094 68.2378 102.541 68.2378 103.094C68.2378 103.646 68.6855 104.094 69.2378 104.094Z" fill="#969DA6"/>
<path d="M78.812 104.094C79.3643 104.094 79.812 103.646 79.812 103.094C79.812 102.541 79.3643 102.094 78.812 102.094C78.2597 102.094 77.812 102.541 77.812 103.094C77.812 103.646 78.2597 104.094 78.812 104.094Z" fill="#969DA6"/>
<path d="M88.3931 104.094C88.9454 104.094 89.3931 103.646 89.3931 103.094C89.3931 102.541 88.9454 102.094 88.3931 102.094C87.8408 102.094 87.3931 102.541 87.3931 103.094C87.3931 103.646 87.8408 104.094 88.3931 104.094Z" fill="#969DA6"/>
<path d="M97.9668 104.094C98.5191 104.094 98.9668 103.646 98.9668 103.094C98.9668 102.541 98.5191 102.094 97.9668 102.094C97.4145 102.094 96.9668 102.541 96.9668 103.094C96.9668 103.646 97.4145 104.094 97.9668 104.094Z" fill="#969DA6"/>
<path d="M107.541 104.094C108.093 104.094 108.541 103.646 108.541 103.094C108.541 102.541 108.093 102.094 107.541 102.094C106.989 102.094 106.541 102.541 106.541 103.094C106.541 103.646 106.989 104.094 107.541 104.094Z" fill="#969DA6"/>
</g>
<path opacity="0.4" d="M328.5 224.211C335.956 224.211 342 222.868 342 221.211C342 219.554 335.956 218.211 328.5 218.211C321.044 218.211 315 219.554 315 221.211C315 222.868 321.044 224.211 328.5 224.211Z" fill="#DBEEFE"/>
<path d="M335.532 199.211H338C338.001 201.6 337.052 203.892 335.363 205.582C334.528 206.418 333.536 207.08 332.444 207.531C331.352 207.982 330.181 208.213 329 208.211V205.737C329 204.003 329.689 202.34 330.914 201.115C331.52 200.509 332.24 200.029 333.033 199.702C333.825 199.375 334.675 199.208 335.532 199.211V199.211Z" fill="#43B963"/>
<path d="M330 208.211H326.368C324.944 208.211 323.579 207.645 322.572 206.639C321.566 205.632 321 204.267 321 202.843V199.211H323.474C324.331 199.211 325.18 199.38 325.971 199.708C326.763 200.036 327.483 200.516 328.089 201.122C328.695 201.728 329.175 202.448 329.503 203.24C329.831 204.031 330 204.88 330 205.737V208.211Z" fill="#02AD46"/>
<path d="M331.523 221.211H325.49C323.416 221.212 321.649 219.681 321.318 217.596L320.025 209.503C319.98 209.219 319.996 208.929 320.073 208.651C320.15 208.374 320.286 208.117 320.471 207.897C320.654 207.679 320.883 207.505 321.141 207.387C321.4 207.268 321.681 207.208 321.965 207.211H335.035C335.319 207.208 335.601 207.268 335.859 207.387C336.117 207.505 336.346 207.679 336.529 207.897C336.715 208.117 336.851 208.374 336.927 208.651C337.004 208.929 337.021 209.219 336.975 209.503L335.682 217.596C335.352 219.676 333.592 221.206 331.523 221.211V221.211Z" fill="#3B4D6F"/>
<path opacity="0.4" d="M41.5 222.211C55.031 222.211 66 220.196 66 217.711C66 215.226 55.031 213.211 41.5 213.211C27.969 213.211 17 215.226 17 217.711C17 220.196 27.969 222.211 41.5 222.211Z" fill="#DBEEFE"/>
<path d="M299.731 56.2109H73.269C69.2544 56.2109 66 59.4654 66 63.4799V210.942C66 214.956 69.2544 218.211 73.269 218.211H299.731C303.746 218.211 307 214.956 307 210.942V63.4799C307 59.4654 303.746 56.2109 299.731 56.2109Z" fill="#F7F8FA" stroke="#E9EBEE" stroke-width="0.727"/>
<path d="M72.585 55.2109H300.415C304.052 55.2109 307 58.1959 307 61.8779V69.2109H66V61.8779C66 58.1959 68.948 55.2109 72.585 55.2109Z" fill="#BEC3CE"/>
<path opacity="0.7" d="M66 70.2109H86V218.211H72.452C68.888 218.211 66 215.279 66 211.662V70.2109Z" fill="#E9EBEE"/>
<path d="M112 70.2109H114V73.2109H112V70.2109Z" fill="#F6F7F7"/>
<path opacity="0.7" d="M139.007 93.0109C149.907 93.6039 158.613 102.31 159.207 113.211H169C168.387 96.9029 155.308 83.8239 139 83.2109L139.007 93.0109Z" fill="#E9EBEE"/>
<path d="M159.244 115.211C159.112 118.737 158.107 122.176 156.319 125.218C154.531 128.261 152.016 130.812 149 132.644L153.693 141.211C158.239 138.534 162.03 134.743 164.708 130.197C167.386 125.651 168.863 120.498 169 115.224L159.244 115.211Z" fill="#E9EBEE"/>
<path opacity="0.1" d="M147.208 133.135C139.281 136.96 129.814 135.655 123.235 129.829C116.655 124.003 114.264 114.808 117.177 106.543C120.091 98.2779 127.735 92.5769 136.534 92.1049V82.2109C123.574 82.6879 112.211 90.9629 107.849 103.101C103.486 115.24 107.003 128.795 116.727 137.324C126.451 145.854 140.422 147.638 152 141.828L147.208 133.135V133.135Z" fill="#181E2B"/>
<path d="M188.5 106.211C189.881 106.211 191 105.092 191 103.711C191 102.33 189.881 101.211 188.5 101.211C187.119 101.211 186 102.33 186 103.711C186 105.092 187.119 106.211 188.5 106.211Z" fill="#D3D7DE"/>
<path d="M188.5 116.211C189.881 116.211 191 115.092 191 113.711C191 112.33 189.881 111.211 188.5 111.211C187.119 111.211 186 112.33 186 113.711C186 115.092 187.119 116.211 188.5 116.211Z" fill="#E9EBEE"/>
<path d="M196 103.211H216V105.211H196V103.211ZM196 113.211H216V115.211H196V113.211Z" fill="#E9EBEE"/>
<path opacity="0.7" d="M188.5 127.211C189.881 127.211 191 126.092 191 124.711C191 123.33 189.881 122.211 188.5 122.211C187.119 122.211 186 123.33 186 124.711C186 126.092 187.119 127.211 188.5 127.211Z" fill="#E9EBEE"/>
<path d="M196 123.211H216V125.211H196V123.211Z" fill="#E9EBEE"/>
<path d="M242 90.2109H247V124.211H242V90.2109Z" fill="#D3D7DE"/>
<path d="M254 101.211H259V123.211H254V101.211Z" fill="#E9EBEE"/>
<path d="M267 87.2109H272V123.211H267V87.2109Z" fill="#D3D7DE"/>
<path d="M280 105.211H285V123.211H280V105.211Z" fill="#E9EBEE"/>
<path d="M243 138.211C244.105 138.211 245 137.316 245 136.211C245 135.106 244.105 134.211 243 134.211C241.895 134.211 241 135.106 241 136.211C241 137.316 241.895 138.211 243 138.211Z" fill="#D3D7DE"/>
<path d="M247 135.211H259V137.211H247V135.211Z" fill="#E9EBEE"/>
<path d="M267 138.211C268.105 138.211 269 137.316 269 136.211C269 135.106 268.105 134.211 267 134.211C265.895 134.211 265 135.106 265 136.211C265 137.316 265.895 138.211 267 138.211Z" fill="#E9EBEE"/>
<path d="M271 135.211H285V137.211H271V135.211ZM157.885 190.081C158.969 188.411 160.45 187.037 162.197 186.083C167.794 182.945 176.543 183.818 181.982 187.081C184.735 188.562 187.859 189.21 190.974 188.945C192.636 188.716 194.261 188.275 195.811 187.632C196.965 187.145 198.035 186.48 198.983 185.662C201.604 183.444 208.341 178.238 212.962 178.238C216.628 177.907 220.311 178.645 223.565 180.365C224.663 180.942 225.891 181.228 227.131 181.198C229.241 181.107 232.216 180.102 234.884 176.018C235.414 175.188 235.864 174.308 236.227 173.393C237.78 169.517 239.666 165.783 241.863 162.233C244.019 158.779 246.91 154.177 251.818 152.614C260.482 149.85 263.792 162.061 265.751 165.836C265.751 165.836 283.525 200.146 290 203.211H145C145 203.211 153.782 196.581 157.885 190.081V190.081Z" fill="#E9EBEE"/>
<path d="M120 198.347C120 198.347 128.818 192.277 132.806 183.819C132.806 183.819 141.232 165.81 148 185.207C148 185.207 145.346 195.212 141.604 196.339C141.604 196.339 137.556 199.414 134.803 199.2C134.803 199.2 120.869 197.38 120 198.347V198.347ZM162 195.537C164.786 193.867 167.478 192.044 170.062 190.076C175.209 186.113 182.97 184.793 189.148 188.042C190.168 188.592 191.139 189.23 192.049 189.95C193.822 191.324 197.991 194.44 200 195.009C200 195.009 192.653 202.702 184.368 200.952C184.368 200.952 170.075 197.392 169.078 199.202C169.078 199.222 162.913 197.65 162 195.537V195.537ZM215 193.618C215 193.618 224.362 190.143 233 194.115C233.007 194.115 226.018 201.401 215 193.618Z" fill="white"/>
<path opacity="0.1" d="M105 203.211H290C290 203.211 275.322 189.13 270.272 169.07C270.211 168.828 270.121 168.594 270.002 168.375C269.272 166.997 266.365 162.78 263.077 172.007C262.857 172.652 262.597 173.283 262.301 173.898C261.164 176.238 258.171 181.884 254.871 184.042C254.376 184.336 253.827 184.528 253.257 184.608C252.687 184.688 252.106 184.655 251.549 184.509C248.636 183.789 244.973 183.132 241.994 183.957C241.255 184.144 240.567 184.494 239.979 184.979C239.391 185.464 238.918 186.074 238.594 186.764C237.45 189.364 233.952 195.511 226.179 196.096C226.179 196.096 221.233 197.596 215.295 193.1C210.955 189.812 203.458 192.535 199.71 194.237C198.611 194.734 197.573 195.358 196.619 196.096C192.612 199.166 187.565 200.551 182.552 199.956C182.008 199.894 181.471 199.781 180.948 199.618C179.08 199.046 173.99 197.629 170.485 197.98C168.523 198.157 166.552 197.762 164.81 196.843C161.683 195.26 159.235 192.598 157.918 189.351C157.918 189.351 150.994 172.124 146.048 187.856C146.048 187.856 144.45 195.101 136.967 197.668C135.445 198.156 133.839 198.338 132.245 198.201L124.321 197.597C124.321 197.597 111.43 196.096 105 203.211Z" fill="#181E2B"/>
<path d="M79.819 77.2109H73.181C71.9765 77.2109 71 78.1874 71 79.3919V86.0299C71 87.2345 71.9765 88.2109 73.181 88.2109H79.819C81.0235 88.2109 82 87.2345 82 86.0299V79.3919C82 78.1874 81.0235 77.2109 79.819 77.2109Z" fill="white"/>
<path d="M79.819 100.211H73.181C71.9765 100.211 71 101.187 71 102.392V109.03C71 110.234 71.9765 111.211 73.181 111.211H79.819C81.0235 111.211 82 110.234 82 109.03V102.392C82 101.187 81.0235 100.211 79.819 100.211Z" fill="white"/>
<path d="M79.819 123.211H73.181C71.9765 123.211 71 124.187 71 125.392V132.03C71 133.234 71.9765 134.211 73.181 134.211H79.819C81.0235 134.211 82 133.234 82 132.03V125.392C82 124.187 81.0235 123.211 79.819 123.211Z" fill="white"/>
<path d="M79.819 146.211H73.181C71.9765 146.211 71 147.187 71 148.392V155.03C71 156.234 71.9765 157.211 73.181 157.211H79.819C81.0235 157.211 82 156.234 82 155.03V148.392C82 147.187 81.0235 146.211 79.819 146.211Z" fill="white"/>
<path d="M312.731 113.211H56.269C52.2544 113.211 49 116.465 49 120.48V157.942C49 161.956 52.2544 165.211 56.269 165.211H312.731C316.746 165.211 320 161.956 320 157.942V120.48C320 116.465 316.746 113.211 312.731 113.211Z" fill="#F7F8FA" stroke="#FF4702" stroke-width="1.454"/>
<path d="M288 128.211C288.552 128.211 289 127.763 289 127.211C289 126.659 288.552 126.211 288 126.211C287.448 126.211 287 126.659 287 127.211C287 127.763 287.448 128.211 288 128.211Z" stroke="#FF4702" stroke-width="0.727"/>
<path fill-rule="evenodd" clip-rule="evenodd" d="M298 146.191H277C278.112 144.368 278.701 142.275 278.702 140.14V135.594C278.702 130.964 282.514 127.211 287.216 127.211C289.474 127.211 291.639 128.094 293.235 129.667C294.023 130.44 294.649 131.362 295.076 132.38C295.504 133.398 295.724 134.49 295.725 135.594V139.841C295.728 142.163 296.532 144.412 298 146.211V146.191Z" fill="#FF4702"/>
<path d="M299 147.211H277C276.448 147.211 276 147.659 276 148.211C276 148.763 276.448 149.211 277 149.211H299C299.552 149.211 300 148.763 300 148.211C300 147.659 299.552 147.211 299 147.211Z" fill="#FF4702"/>
<path fill-rule="evenodd" clip-rule="evenodd" d="M291 149.211C290.918 150.889 289.375 152.211 287.5 152.211C285.625 152.211 284.082 150.889 284 149.211H291Z" fill="#FF4702"/>
<path d="M89.911 127.211H68.089C65.2784 127.211 63 129.489 63 132.3V146.122C63 148.933 65.2784 151.211 68.089 151.211H89.911C92.7216 151.211 95 148.933 95 146.122V132.3C95 129.489 92.7216 127.211 89.911 127.211Z" fill="#FF4702"/>
<path d="M60 129.211L79.33 139.211L98 129.211" stroke="white" stroke-width="1.454"/>
<path opacity="0.5" d="M240.5 144.211H110.5C109.119 144.211 108 145.33 108 146.711C108 148.092 109.119 149.211 110.5 149.211H240.5C241.881 149.211 243 148.092 243 146.711C243 145.33 241.881 144.211 240.5 144.211Z" fill="#3C4D6F"/>
<path opacity="0.5" d="M197.5 129.211H111.5C109.567 129.211 108 130.778 108 132.711C108 134.644 109.567 136.211 111.5 136.211H197.5C199.433 136.211 201 134.644 201 132.711C201 130.778 199.433 129.211 197.5 129.211Z" fill="#3C4D6F"/>
<path d="M33.301 104.211L24.525 105.399C24.525 105.399 15.89 115.155 25.65 147.211L44.58 144.317L46 111.332L40.424 107.35L33.3 104.211H33.301Z" fill="#F4FCF8"/>
<path d="M34.831 100.211C34.831 100.211 34.532 102.822 33 104.326C33 104.326 35.946 109.211 38.306 109.211C39.226 108.391 39.826 107.261 40 106.026L34.831 100.211Z" fill="#F0939E"/>
<path d="M45.907 111.211L53.835 127.211L69.791 125.451L71 127.224L53.389 132.211C50.513 129.754 47.782 127.132 45.21 124.358L45 117.404L45.907 111.211V111.211Z" fill="#F4FCF8"/>
<path d="M25.417 147.068L24 156.001C24 156.001 24.386 198.082 28.237 214.211H30.737C30.737 214.211 35.394 176.055 36.059 167.371L37.322 159.016L47 151.866C47 151.866 45.005 144.932 44.226 144.211L25.416 147.068H25.417Z" fill="#518178"/>
<path d="M38.111 159.321L37 166.823C37 166.823 40.962 193.153 46.606 214.211L49 213.266L47.356 152.211L38.111 159.321V159.321Z" fill="#21443D"/>
<path d="M29 214.211V218.211H38L31.388 214.211H29ZM46 214.231L46.311 218.211H56L48.495 213.211L46 214.231Z" fill="#001F3A"/>
<path opacity="0.3" d="M45 124.681V118.211C45 118.211 47.758 127.902 53.255 130.253L71 127.306L53.095 132.211C50.2588 129.853 47.5562 127.339 45 124.681V124.681Z" fill="#00B3CC"/>
<path d="M70 125.68L73.281 125.211L74.581 125.238L75.565 125.745L76 127.211L71.239 127.114L70 125.68Z" fill="#FFC9D5"/>
<path d="M40.214 107.46C39.9273 108.27 39.4311 108.99 38.776 109.547C38.776 109.547 36.52 109.839 33 104.211C33 104.211 33.44 110.471 38.681 111.167C42.763 111.682 40.214 107.46 40.214 107.46V107.46Z" fill="#00B3CC"/>
<path d="M46.9998 91.0459C46.9998 91.0459 44.9308 106.211 41.5688 106.211C38.2058 106.211 35.2728 101.988 35.0158 99.4029C34.7598 96.8169 37.5908 88.2109 38.4618 88.2109C39.3328 88.2109 46.9998 91.0459 46.9998 91.0459Z" fill="#FFC9D5"/>
<path d="M47 91.2129L46.42 94.5759C46.42 94.5759 41.212 90.9019 38.38 92.8949C38.38 92.8949 38.646 94.6319 35 97.2109C35 97.2109 36.4 89.6189 38.256 88.2109C41.269 88.8982 44.2002 89.9045 47 91.2129V91.2129Z" fill="#283A5E"/>
<path d="M27.807 113.211L41.703 131.058L61 135.868V138.211L39.949 136.271C39.949 136.271 29.607 128.668 26 124.224C26.22 120.499 26.826 116.807 27.807 113.21V113.211Z" fill="#F4FCF8"/>
<path d="M61 135.581L63.02 134.211V135.581L67 137.617L64.175 139.211L61 137.964V135.581Z" fill="#FFC9D5"/>
<path opacity="0.3" d="M24.0682 105.211C26.6902 114.986 34.5952 124.415 41.5292 130.507L61.0002 135.211L40.5842 131.763L26.7362 118.86C26.7362 118.86 23.4962 107.174 24.0682 105.211V105.211Z" fill="#00B3CC"/>
<path d="M61 138.211L39.71 136.373C39.71 136.373 30.86 130.244 30 129.211L39.91 135.948C39.91 135.948 54.31 135.948 61 135.993V138.211Z" fill="#00B3CC"/>
<path d="M47 94.3879C47 94.3879 40.357 91.7979 39.166 93.0199C38.603 95.0199 37.032 96.5999 35 97.2109L37.1 93.2799L39.714 91.2109L45.364 92.1119L47 94.3879Z" fill="#E86578"/>
<path d="M35.3278 97.2109C35.3278 97.2109 34.3128 90.4519 35.8548 88.4429C37.3978 86.4349 49.8288 86.6699 48.9558 90.7329C48.0828 94.7969 47.1958 94.4429 47.1958 94.4429C47.1958 94.4429 41.1058 91.1129 38.8398 92.6769C38.8398 92.6769 38.9608 94.6659 35.3278 97.2109Z" fill="#283A5E"/>
<path d="M22 128.211C22.7643 134.664 24.1535 141.027 26.148 147.211L39 145.211C39 145.211 25.675 146.311 22 128.211Z" fill="#00B3CC"/>
<path d="M270.93 17.2109L276.824 17.4879C276.824 17.4879 278.854 21.0979 283.282 17.6789L289 18.4049L288.705 51.2109H267C267 51.2109 271.585 48.8289 271.827 33.8449C271.827 32.9469 271.113 32.0169 271.1 31.0409C271.06 28.9029 271.67 24.3829 271.44 21.8629C271.301 20.309 271.131 18.758 270.93 17.2109V17.2109Z" fill="#202E4B"/>
<path d="M270.202 17.2109L258 28.6639L259.216 31.0109L260.736 31.2109L271 24.8639C271 24.3469 271 23.0089 270.202 17.2109Z" fill="#202E4B"/>
<path d="M259.763 31.1689L278.583 34.2109L279 32.1159L263.1 27.2109L259 29.7309L259.763 31.1689Z" fill="#202E4B"/>
<path d="M279 34.4379C279.588 35.1039 282.837 35.2109 282.837 35.2109L284 32.1579L282.373 31.7379L283.425 30.2109L281.24 31.1909L279.384 32.2639L279 34.4379Z" fill="#FFC9D5"/>
<path d="M264 51.2109H286C286 51.2109 278.44 58.8299 276.151 59.2109C276.151 59.2109 264.639 51.8519 264 51.2109ZM287.9 56.4439L292.957 51.2109L297.337 51.9889C297.337 51.9889 298.443 56.7359 297.798 57.7929C297.154 58.8509 288.401 81.2109 288.401 81.2109L286 80.9779C286 80.9779 288.805 68.3049 287.9 56.4439Z" fill="#283A5E"/>
<path d="M286.562 81.2109L286 83.7169L287.824 84.2109L289 81.4099L286.562 81.2109Z" fill="#F0939E"/>
<path d="M286.17 83.2109L282 88.2109L284.208 89.0859L287.45 89.2109L288 83.7829L286.17 83.2109Z" fill="#EA003D"/>
<path d="M257.477 50.2109C257.477 50.2109 251.43 51.4059 250.361 51.8269L250 56.5779C250 56.5779 254.434 59.9139 279.344 60.2109L280 58.5609L257.477 50.2109Z" fill="#3C4D6F"/>
<path d="M280.612 58.2109L282 58.7909L281.75 60.2109L280 59.6009L280.612 58.2109Z" fill="#F0939E"/>
<path d="M282.265 59.2639L286.278 58.2109L288 58.4809L286.848 63.2109C286.848 63.2109 282.874 62.1389 282 60.8169L282.265 59.2639V59.2639Z" fill="#EA003D"/>
<path d="M276 15.1779L276.5 17.6209C276.5 17.6209 278.683 21.0779 283 17.7979L281.425 13.2109L276 15.1779Z" fill="#F0939E"/>
<path d="M276.637 2.21094C276.637 2.21094 268.203 10.6229 277.023 14.5759L278.72 15.0999C279.02 15.1947 279.335 15.2293 279.648 15.2016C279.961 15.174 280.266 15.0847 280.544 14.9389L281.25 14.5439C282.044 14.0774 282.699 13.4073 283.147 12.6029C284.245 10.7069 284.764 7.51694 281.649 4.29494C280.544 3.15494 278.919 3.59494 276.637 2.21094V2.21094Z" fill="#FFC9D5"/>
<path opacity="0.3" d="M279 32.2109C279 32.2109 269.233 30.0689 264 28.7509C266.957 27.099 269.556 24.8759 271.646 22.2109L271.613 25.4369L266.581 28.4269L279 32.2109Z" fill="#EA003D"/>
<path d="M283 17.5009C283 17.5009 279.063 20.8659 276.387 17.3189L274 17.2109C274 17.2109 278.876 23.7629 283 17.5009Z" fill="#EA003D"/>
<path d="M264.037 50.6449L258 50.2109L269 54.2109L264.037 50.6449Z" fill="#283A5E"/>
<path d="M288.37 51.2109C288.37 51.2109 288.928 39.3009 290 34.8169C290.005 29.2563 289.573 23.704 288.709 18.2109C288.709 18.2109 287.373 45.4049 288.369 51.2109H288.37Z" fill="#202E4B"/>
<path d="M274 51.2029C274 51.2029 287.873 51.9699 290 38.2109C290 38.2109 289.284 44.9119 289.048 51.2029H274V51.2029Z" fill="#EA003D"/>
<path d="M293 50.7259L288.31 50.2109H285.61L278 57.4869L287.902 58.2109L287.795 56.2059L293 50.7259Z" fill="#3C4D6F"/>
<path d="M289 18.2109C289 18.2109 298.033 38.1929 291.817 52.2109C291.397 51.9735 290.923 51.8488 290.44 51.8488C289.957 51.8488 289.483 51.9735 289.063 52.2109C289.063 52.2109 291.428 39.8359 289 18.2109Z" fill="#202E4B"/>
<path opacity="0.3" d="M289.73 29.2109C290.362 43.9669 289 52.2109 289 52.2109C289.302 52.0428 289.634 51.9366 289.978 51.8987C290.321 51.8607 290.669 51.8918 291 51.9899C291 51.9899 290.87 48.2229 289.73 29.2179V29.2109Z" fill="#FB043D"/>
<path d="M288.837 52.5547L288.716 53.6527L288 58.2107L290.862 56.3407L292 52.5107C292 52.5107 290.826 51.8077 288.837 52.5547V52.5547Z" fill="#FFC9D5"/>
<path d="M279 31.9059L278.59 34.2109L262 31.2109C262 31.2109 271.228 33.0909 276.108 33.0049C277.782 32.9979 278.82 32.4659 279 31.9059V31.9059Z" fill="#EA003D"/>
<path d="M275.204 14.1089C275.686 12.7109 275.904 11.2259 275.845 9.73894C275.818 8.13684 276.023 6.53928 276.454 4.99594C277.376 6.24794 278.665 7.13894 280.12 7.52994C282.4 8.05194 282.042 14.2109 282.042 14.2109C282.042 14.2109 283.285 8.84494 282.939 8.20794C282.593 7.57094 279.966 5.33494 279.966 5.33494L276.499 2.21094L273 8.78394L275.204 14.1089Z" fill="#E86578"/>
<path d="M276.366 3.86794C277.13 5.64794 278.729 6.90394 280.605 7.19694C283.968 7.91294 281.415 18.2109 281.415 18.2109C281.415 18.2109 286.022 15.5909 286.871 10.4719C287.721 5.35294 284.37 -1.57506 277.024 0.632939C277.024 0.632939 270.178 -1.27806 270 9.20294C270 9.20294 269.888 14.5639 273.66 18.1909C274.1 17.3879 274.46 16.5419 274.733 15.6649C275.293 13.9899 275.538 12.2209 275.457 10.4519C275.2 6.16994 276.366 3.86794 276.366 3.86794V3.86794Z" fill="#283A5E"/>
<path d="M288 34.6642C288 34.6642 284.602 27.9212 282.054 33.2802C279.505 38.6402 279.276 59.4462 281.663 73.7002C284.05 87.9532 288.973 99.8782 287.405 127.211" stroke="#FF8E62" stroke-width="0.727" stroke-linecap="round"/>
<path d="M279 34.4379C279.588 35.1039 282.837 35.2109 282.837 35.2109L284 32.1579L282.373 31.7379L283.425 30.2109L281.24 31.1909L279.384 32.2639L279 34.4379Z" fill="#FFC9D5"/>
<path d="M273 18.2109L276 15.9709L275.83 15.0629C275.354 14.8152 274.898 14.5303 274.466 14.2109L273 18.2109Z" fill="#283A5E"/>
</g>
<defs>
<clipPath id="clip0_586_37793">
<rect width="349" height="224" fill="white" transform="translate(0 0.210938)"/>
</clipPath>
</defs>
</svg>
