<svg width="362" height="205" viewBox="0 0 362 205" fill="none" xmlns="http://www.w3.org/2000/svg">
<g clip-path="url(#clip0_586_38662)">
<path opacity="0.4" d="M179.5 200.211C195.24 200.211 208 196.629 208 192.211C208 187.793 195.24 184.211 179.5 184.211C163.76 184.211 151 187.793 151 192.211C151 196.629 163.76 200.211 179.5 200.211Z" fill="#DBEEFE"/>
<path d="M180.5 144.211V195.211M180 168.211L198 190.211M180 168.211L161 190.211" stroke="#E9EBEE" stroke-width="3.86" stroke-linecap="round" stroke-linejoin="round"/>
<path opacity="0.4" d="M300.801 92.8776H239.603C222.724 92.8474 209.044 79.0713 209 62.0579V31.2462C208.952 14.1593 222.651 0.266336 239.603 0.210938H362V31.2462C361.982 65.2972 334.584 92.8897 300.801 92.8776ZM128 106.979V139.211H64C28.64 139.189 -0.0109968 110.33 3.16637e-06 74.7472H96.003C100.209 74.7405 104.374 75.5698 108.261 77.1876C112.148 78.8054 115.68 81.1799 118.654 84.175C121.626 87.1685 123.982 90.7242 125.586 94.6377C127.19 98.5511 128.01 102.745 128 106.979Z" fill="#DBEEFE"/>
<g opacity="0.4">
<path d="M249.439 9.50977C249.991 9.50977 250.439 9.06205 250.439 8.50977C250.439 7.95748 249.991 7.50977 249.439 7.50977C248.887 7.50977 248.439 7.95748 248.439 8.50977C248.439 9.06205 248.887 9.50977 249.439 9.50977Z" fill="#969DA6"/>
<path d="M258.815 9.50977C259.367 9.50977 259.815 9.06205 259.815 8.50977C259.815 7.95748 259.367 7.50977 258.815 7.50977C258.263 7.50977 257.815 7.95748 257.815 8.50977C257.815 9.06205 258.263 9.50977 258.815 9.50977Z" fill="#969DA6"/>
<path d="M268.191 9.50977C268.743 9.50977 269.191 9.06205 269.191 8.50977C269.191 7.95748 268.743 7.50977 268.191 7.50977C267.639 7.50977 267.191 7.95748 267.191 8.50977C267.191 9.06205 267.639 9.50977 268.191 9.50977Z" fill="#969DA6"/>
<path d="M277.56 9.50977C278.112 9.50977 278.56 9.06205 278.56 8.50977C278.56 7.95748 278.112 7.50977 277.56 7.50977C277.008 7.50977 276.56 7.95748 276.56 8.50977C276.56 9.06205 277.008 9.50977 277.56 9.50977Z" fill="#969DA6"/>
<path d="M286.936 9.50977C287.488 9.50977 287.936 9.06205 287.936 8.50977C287.936 7.95748 287.488 7.50977 286.936 7.50977C286.384 7.50977 285.936 7.95748 285.936 8.50977C285.936 9.06205 286.384 9.50977 286.936 9.50977Z" fill="#969DA6"/>
<path d="M296.312 9.50977C296.864 9.50977 297.312 9.06205 297.312 8.50977C297.312 7.95748 296.864 7.50977 296.312 7.50977C295.76 7.50977 295.312 7.95748 295.312 8.50977C295.312 9.06205 295.76 9.50977 296.312 9.50977Z" fill="#969DA6"/>
<path d="M305.688 9.50977C306.24 9.50977 306.688 9.06205 306.688 8.50977C306.688 7.95748 306.24 7.50977 305.688 7.50977C305.136 7.50977 304.688 7.95748 304.688 8.50977C304.688 9.06205 305.136 9.50977 305.688 9.50977Z" fill="#969DA6"/>
<path d="M315.064 9.50977C315.616 9.50977 316.064 9.06205 316.064 8.50977C316.064 7.95748 315.616 7.50977 315.064 7.50977C314.512 7.50977 314.064 7.95748 314.064 8.50977C314.064 9.06205 314.512 9.50977 315.064 9.50977Z" fill="#969DA6"/>
<path d="M324.44 9.50977C324.992 9.50977 325.44 9.06205 325.44 8.50977C325.44 7.95748 324.992 7.50977 324.44 7.50977C323.888 7.50977 323.44 7.95748 323.44 8.50977C323.44 9.06205 323.888 9.50977 324.44 9.50977Z" fill="#969DA6"/>
<path d="M333.815 9.50977C334.367 9.50977 334.815 9.06205 334.815 8.50977C334.815 7.95748 334.367 7.50977 333.815 7.50977C333.263 7.50977 332.815 7.95748 332.815 8.50977C332.815 9.06205 333.263 9.50977 333.815 9.50977Z" fill="#969DA6"/>
<path d="M249.439 16.8477C249.991 16.8477 250.439 16.3999 250.439 15.8477C250.439 15.2954 249.991 14.8477 249.439 14.8477C248.887 14.8477 248.439 15.2954 248.439 15.8477C248.439 16.3999 248.887 16.8477 249.439 16.8477Z" fill="#969DA6"/>
<path d="M258.815 16.8477C259.367 16.8477 259.815 16.3999 259.815 15.8477C259.815 15.2954 259.367 14.8477 258.815 14.8477C258.263 14.8477 257.815 15.2954 257.815 15.8477C257.815 16.3999 258.263 16.8477 258.815 16.8477Z" fill="#969DA6"/>
<path d="M268.191 16.8477C268.743 16.8477 269.191 16.3999 269.191 15.8477C269.191 15.2954 268.743 14.8477 268.191 14.8477C267.639 14.8477 267.191 15.2954 267.191 15.8477C267.191 16.3999 267.639 16.8477 268.191 16.8477Z" fill="#969DA6"/>
<path d="M277.56 16.8477C278.112 16.8477 278.56 16.3999 278.56 15.8477C278.56 15.2954 278.112 14.8477 277.56 14.8477C277.008 14.8477 276.56 15.2954 276.56 15.8477C276.56 16.3999 277.008 16.8477 277.56 16.8477Z" fill="#969DA6"/>
<path d="M286.936 16.8477C287.488 16.8477 287.936 16.3999 287.936 15.8477C287.936 15.2954 287.488 14.8477 286.936 14.8477C286.384 14.8477 285.936 15.2954 285.936 15.8477C285.936 16.3999 286.384 16.8477 286.936 16.8477Z" fill="#969DA6"/>
<path d="M296.312 16.8477C296.864 16.8477 297.312 16.3999 297.312 15.8477C297.312 15.2954 296.864 14.8477 296.312 14.8477C295.76 14.8477 295.312 15.2954 295.312 15.8477C295.312 16.3999 295.76 16.8477 296.312 16.8477Z" fill="#969DA6"/>
<path d="M305.688 16.8477C306.24 16.8477 306.688 16.3999 306.688 15.8477C306.688 15.2954 306.24 14.8477 305.688 14.8477C305.136 14.8477 304.688 15.2954 304.688 15.8477C304.688 16.3999 305.136 16.8477 305.688 16.8477Z" fill="#969DA6"/>
<path d="M315.064 16.8477C315.616 16.8477 316.064 16.3999 316.064 15.8477C316.064 15.2954 315.616 14.8477 315.064 14.8477C314.512 14.8477 314.064 15.2954 314.064 15.8477C314.064 16.3999 314.512 16.8477 315.064 16.8477Z" fill="#969DA6"/>
<path d="M324.44 16.8477C324.992 16.8477 325.44 16.3999 325.44 15.8477C325.44 15.2954 324.992 14.8477 324.44 14.8477C323.888 14.8477 323.44 15.2954 323.44 15.8477C323.44 16.3999 323.888 16.8477 324.44 16.8477Z" fill="#969DA6"/>
<path d="M333.815 16.8477C334.367 16.8477 334.815 16.3999 334.815 15.8477C334.815 15.2954 334.367 14.8477 333.815 14.8477C333.263 14.8477 332.815 15.2954 332.815 15.8477C332.815 16.3999 333.263 16.8477 333.815 16.8477Z" fill="#969DA6"/>
<path d="M249.439 24.1855C249.991 24.1855 250.439 23.7378 250.439 23.1855C250.439 22.6333 249.991 22.1855 249.439 22.1855C248.887 22.1855 248.439 22.6333 248.439 23.1855C248.439 23.7378 248.887 24.1855 249.439 24.1855Z" fill="#969DA6"/>
<path d="M258.815 24.1855C259.367 24.1855 259.815 23.7378 259.815 23.1855C259.815 22.6333 259.367 22.1855 258.815 22.1855C258.263 22.1855 257.815 22.6333 257.815 23.1855C257.815 23.7378 258.263 24.1855 258.815 24.1855Z" fill="#969DA6"/>
<path d="M268.191 24.1855C268.743 24.1855 269.191 23.7378 269.191 23.1855C269.191 22.6333 268.743 22.1855 268.191 22.1855C267.639 22.1855 267.191 22.6333 267.191 23.1855C267.191 23.7378 267.639 24.1855 268.191 24.1855Z" fill="#969DA6"/>
<path d="M277.56 24.1855C278.112 24.1855 278.56 23.7378 278.56 23.1855C278.56 22.6333 278.112 22.1855 277.56 22.1855C277.008 22.1855 276.56 22.6333 276.56 23.1855C276.56 23.7378 277.008 24.1855 277.56 24.1855Z" fill="#969DA6"/>
<path d="M286.936 24.1855C287.488 24.1855 287.936 23.7378 287.936 23.1855C287.936 22.6333 287.488 22.1855 286.936 22.1855C286.384 22.1855 285.936 22.6333 285.936 23.1855C285.936 23.7378 286.384 24.1855 286.936 24.1855Z" fill="#969DA6"/>
<path d="M296.312 24.1855C296.864 24.1855 297.312 23.7378 297.312 23.1855C297.312 22.6333 296.864 22.1855 296.312 22.1855C295.76 22.1855 295.312 22.6333 295.312 23.1855C295.312 23.7378 295.76 24.1855 296.312 24.1855Z" fill="#969DA6"/>
<path d="M305.688 24.1855C306.24 24.1855 306.688 23.7378 306.688 23.1855C306.688 22.6333 306.24 22.1855 305.688 22.1855C305.136 22.1855 304.688 22.6333 304.688 23.1855C304.688 23.7378 305.136 24.1855 305.688 24.1855Z" fill="#969DA6"/>
<path d="M315.064 24.1855C315.616 24.1855 316.064 23.7378 316.064 23.1855C316.064 22.6333 315.616 22.1855 315.064 22.1855C314.512 22.1855 314.064 22.6333 314.064 23.1855C314.064 23.7378 314.512 24.1855 315.064 24.1855Z" fill="#969DA6"/>
<path d="M324.44 24.1855C324.992 24.1855 325.44 23.7378 325.44 23.1855C325.44 22.6333 324.992 22.1855 324.44 22.1855C323.888 22.1855 323.44 22.6333 323.44 23.1855C323.44 23.7378 323.888 24.1855 324.44 24.1855Z" fill="#969DA6"/>
<path d="M333.815 24.1855C334.367 24.1855 334.815 23.7378 334.815 23.1855C334.815 22.6333 334.367 22.1855 333.815 22.1855C333.263 22.1855 332.815 22.6333 332.815 23.1855C332.815 23.7378 333.263 24.1855 333.815 24.1855Z" fill="#969DA6"/>
<path d="M249.439 31.5239C249.991 31.5239 250.439 31.0762 250.439 30.5239C250.439 29.9716 249.991 29.5239 249.439 29.5239C248.887 29.5239 248.439 29.9716 248.439 30.5239C248.439 31.0762 248.887 31.5239 249.439 31.5239Z" fill="#969DA6"/>
<path d="M258.815 31.5239C259.367 31.5239 259.815 31.0762 259.815 30.5239C259.815 29.9716 259.367 29.5239 258.815 29.5239C258.263 29.5239 257.815 29.9716 257.815 30.5239C257.815 31.0762 258.263 31.5239 258.815 31.5239Z" fill="#969DA6"/>
<path d="M268.191 31.5239C268.743 31.5239 269.191 31.0762 269.191 30.5239C269.191 29.9716 268.743 29.5239 268.191 29.5239C267.639 29.5239 267.191 29.9716 267.191 30.5239C267.191 31.0762 267.639 31.5239 268.191 31.5239Z" fill="#969DA6"/>
<path d="M277.56 31.5239C278.112 31.5239 278.56 31.0762 278.56 30.5239C278.56 29.9716 278.112 29.5239 277.56 29.5239C277.008 29.5239 276.56 29.9716 276.56 30.5239C276.56 31.0762 277.008 31.5239 277.56 31.5239Z" fill="#969DA6"/>
<path d="M286.936 31.5239C287.488 31.5239 287.936 31.0762 287.936 30.5239C287.936 29.9716 287.488 29.5239 286.936 29.5239C286.384 29.5239 285.936 29.9716 285.936 30.5239C285.936 31.0762 286.384 31.5239 286.936 31.5239Z" fill="#969DA6"/>
<path d="M296.312 31.5239C296.864 31.5239 297.312 31.0762 297.312 30.5239C297.312 29.9716 296.864 29.5239 296.312 29.5239C295.76 29.5239 295.312 29.9716 295.312 30.5239C295.312 31.0762 295.76 31.5239 296.312 31.5239Z" fill="#969DA6"/>
<path d="M305.688 31.5239C306.24 31.5239 306.688 31.0762 306.688 30.5239C306.688 29.9716 306.24 29.5239 305.688 29.5239C305.136 29.5239 304.688 29.9716 304.688 30.5239C304.688 31.0762 305.136 31.5239 305.688 31.5239Z" fill="#969DA6"/>
<path d="M315.064 31.5239C315.616 31.5239 316.064 31.0762 316.064 30.5239C316.064 29.9716 315.616 29.5239 315.064 29.5239C314.512 29.5239 314.064 29.9716 314.064 30.5239C314.064 31.0762 314.512 31.5239 315.064 31.5239Z" fill="#969DA6"/>
<path d="M324.44 31.5239C324.992 31.5239 325.44 31.0762 325.44 30.5239C325.44 29.9716 324.992 29.5239 324.44 29.5239C323.888 29.5239 323.44 29.9716 323.44 30.5239C323.44 31.0762 323.888 31.5239 324.44 31.5239Z" fill="#969DA6"/>
<path d="M333.815 31.5239C334.367 31.5239 334.815 31.0762 334.815 30.5239C334.815 29.9716 334.367 29.5239 333.815 29.5239C333.263 29.5239 332.815 29.9716 332.815 30.5239C332.815 31.0762 333.263 31.5239 333.815 31.5239Z" fill="#969DA6"/>
<path d="M249.439 38.8618C249.991 38.8618 250.439 38.4141 250.439 37.8618C250.439 37.3095 249.991 36.8618 249.439 36.8618C248.887 36.8618 248.439 37.3095 248.439 37.8618C248.439 38.4141 248.887 38.8618 249.439 38.8618Z" fill="#969DA6"/>
<path d="M258.815 38.8618C259.367 38.8618 259.815 38.4141 259.815 37.8618C259.815 37.3095 259.367 36.8618 258.815 36.8618C258.263 36.8618 257.815 37.3095 257.815 37.8618C257.815 38.4141 258.263 38.8618 258.815 38.8618Z" fill="#969DA6"/>
<path d="M268.191 38.8618C268.743 38.8618 269.191 38.4141 269.191 37.8618C269.191 37.3095 268.743 36.8618 268.191 36.8618C267.639 36.8618 267.191 37.3095 267.191 37.8618C267.191 38.4141 267.639 38.8618 268.191 38.8618Z" fill="#969DA6"/>
<path d="M277.56 38.8618C278.112 38.8618 278.56 38.4141 278.56 37.8618C278.56 37.3095 278.112 36.8618 277.56 36.8618C277.008 36.8618 276.56 37.3095 276.56 37.8618C276.56 38.4141 277.008 38.8618 277.56 38.8618Z" fill="#969DA6"/>
<path d="M286.936 38.8618C287.488 38.8618 287.936 38.4141 287.936 37.8618C287.936 37.3095 287.488 36.8618 286.936 36.8618C286.384 36.8618 285.936 37.3095 285.936 37.8618C285.936 38.4141 286.384 38.8618 286.936 38.8618Z" fill="#969DA6"/>
<path d="M296.312 38.8618C296.864 38.8618 297.312 38.4141 297.312 37.8618C297.312 37.3095 296.864 36.8618 296.312 36.8618C295.76 36.8618 295.312 37.3095 295.312 37.8618C295.312 38.4141 295.76 38.8618 296.312 38.8618Z" fill="#969DA6"/>
<path d="M305.688 38.8618C306.24 38.8618 306.688 38.4141 306.688 37.8618C306.688 37.3095 306.24 36.8618 305.688 36.8618C305.136 36.8618 304.688 37.3095 304.688 37.8618C304.688 38.4141 305.136 38.8618 305.688 38.8618Z" fill="#969DA6"/>
<path d="M315.064 38.8618C315.616 38.8618 316.064 38.4141 316.064 37.8618C316.064 37.3095 315.616 36.8618 315.064 36.8618C314.512 36.8618 314.064 37.3095 314.064 37.8618C314.064 38.4141 314.512 38.8618 315.064 38.8618Z" fill="#969DA6"/>
<path d="M324.44 38.8618C324.992 38.8618 325.44 38.4141 325.44 37.8618C325.44 37.3095 324.992 36.8618 324.44 36.8618C323.888 36.8618 323.44 37.3095 323.44 37.8618C323.44 38.4141 323.888 38.8618 324.44 38.8618Z" fill="#969DA6"/>
<path d="M333.815 38.8618C334.367 38.8618 334.815 38.4141 334.815 37.8618C334.815 37.3095 334.367 36.8618 333.815 36.8618C333.263 36.8618 332.815 37.3095 332.815 37.8618C332.815 38.4141 333.263 38.8618 333.815 38.8618Z" fill="#969DA6"/>
<path d="M249.439 46.1997C249.991 46.1997 250.439 45.752 250.439 45.1997C250.439 44.6474 249.991 44.1997 249.439 44.1997C248.887 44.1997 248.439 44.6474 248.439 45.1997C248.439 45.752 248.887 46.1997 249.439 46.1997Z" fill="#969DA6"/>
<path d="M258.815 46.1997C259.367 46.1997 259.815 45.752 259.815 45.1997C259.815 44.6474 259.367 44.1997 258.815 44.1997C258.263 44.1997 257.815 44.6474 257.815 45.1997C257.815 45.752 258.263 46.1997 258.815 46.1997Z" fill="#969DA6"/>
<path d="M268.191 46.1997C268.743 46.1997 269.191 45.752 269.191 45.1997C269.191 44.6474 268.743 44.1997 268.191 44.1997C267.639 44.1997 267.191 44.6474 267.191 45.1997C267.191 45.752 267.639 46.1997 268.191 46.1997Z" fill="#969DA6"/>
<path d="M277.56 46.1997C278.112 46.1997 278.56 45.752 278.56 45.1997C278.56 44.6474 278.112 44.1997 277.56 44.1997C277.008 44.1997 276.56 44.6474 276.56 45.1997C276.56 45.752 277.008 46.1997 277.56 46.1997Z" fill="#969DA6"/>
<path d="M286.936 46.1997C287.488 46.1997 287.936 45.752 287.936 45.1997C287.936 44.6474 287.488 44.1997 286.936 44.1997C286.384 44.1997 285.936 44.6474 285.936 45.1997C285.936 45.752 286.384 46.1997 286.936 46.1997Z" fill="#969DA6"/>
<path d="M296.312 46.1997C296.864 46.1997 297.312 45.752 297.312 45.1997C297.312 44.6474 296.864 44.1997 296.312 44.1997C295.76 44.1997 295.312 44.6474 295.312 45.1997C295.312 45.752 295.76 46.1997 296.312 46.1997Z" fill="#969DA6"/>
<path d="M305.688 46.1997C306.24 46.1997 306.688 45.752 306.688 45.1997C306.688 44.6474 306.24 44.1997 305.688 44.1997C305.136 44.1997 304.688 44.6474 304.688 45.1997C304.688 45.752 305.136 46.1997 305.688 46.1997Z" fill="#969DA6"/>
<path d="M315.064 46.1997C315.616 46.1997 316.064 45.752 316.064 45.1997C316.064 44.6474 315.616 44.1997 315.064 44.1997C314.512 44.1997 314.064 44.6474 314.064 45.1997C314.064 45.752 314.512 46.1997 315.064 46.1997Z" fill="#969DA6"/>
<path d="M324.44 46.1997C324.992 46.1997 325.44 45.752 325.44 45.1997C325.44 44.6474 324.992 44.1997 324.44 44.1997C323.888 44.1997 323.44 44.6474 323.44 45.1997C323.44 45.752 323.888 46.1997 324.44 46.1997Z" fill="#969DA6"/>
<path d="M333.815 46.1997C334.367 46.1997 334.815 45.752 334.815 45.1997C334.815 44.6474 334.367 44.1997 333.815 44.1997C333.263 44.1997 332.815 44.6474 332.815 45.1997C332.815 45.752 333.263 46.1997 333.815 46.1997Z" fill="#969DA6"/>
<path d="M249.439 53.5449C249.991 53.5449 250.439 53.0972 250.439 52.5449C250.439 51.9926 249.991 51.5449 249.439 51.5449C248.887 51.5449 248.439 51.9926 248.439 52.5449C248.439 53.0972 248.887 53.5449 249.439 53.5449Z" fill="#969DA6"/>
<path d="M258.815 53.5449C259.367 53.5449 259.815 53.0972 259.815 52.5449C259.815 51.9926 259.367 51.5449 258.815 51.5449C258.263 51.5449 257.815 51.9926 257.815 52.5449C257.815 53.0972 258.263 53.5449 258.815 53.5449Z" fill="#969DA6"/>
<path d="M268.191 53.5449C268.743 53.5449 269.191 53.0972 269.191 52.5449C269.191 51.9926 268.743 51.5449 268.191 51.5449C267.639 51.5449 267.191 51.9926 267.191 52.5449C267.191 53.0972 267.639 53.5449 268.191 53.5449Z" fill="#969DA6"/>
<path d="M277.56 53.5449C278.112 53.5449 278.56 53.0972 278.56 52.5449C278.56 51.9926 278.112 51.5449 277.56 51.5449C277.008 51.5449 276.56 51.9926 276.56 52.5449C276.56 53.0972 277.008 53.5449 277.56 53.5449Z" fill="#969DA6"/>
<path d="M286.936 53.5449C287.488 53.5449 287.936 53.0972 287.936 52.5449C287.936 51.9926 287.488 51.5449 286.936 51.5449C286.384 51.5449 285.936 51.9926 285.936 52.5449C285.936 53.0972 286.384 53.5449 286.936 53.5449Z" fill="#969DA6"/>
<path d="M296.312 53.5449C296.864 53.5449 297.312 53.0972 297.312 52.5449C297.312 51.9926 296.864 51.5449 296.312 51.5449C295.76 51.5449 295.312 51.9926 295.312 52.5449C295.312 53.0972 295.76 53.5449 296.312 53.5449Z" fill="#969DA6"/>
<path d="M305.688 53.5449C306.24 53.5449 306.688 53.0972 306.688 52.5449C306.688 51.9926 306.24 51.5449 305.688 51.5449C305.136 51.5449 304.688 51.9926 304.688 52.5449C304.688 53.0972 305.136 53.5449 305.688 53.5449Z" fill="#969DA6"/>
<path d="M315.064 53.5449C315.616 53.5449 316.064 53.0972 316.064 52.5449C316.064 51.9926 315.616 51.5449 315.064 51.5449C314.512 51.5449 314.064 51.9926 314.064 52.5449C314.064 53.0972 314.512 53.5449 315.064 53.5449Z" fill="#969DA6"/>
<path d="M324.44 53.5449C324.992 53.5449 325.44 53.0972 325.44 52.5449C325.44 51.9926 324.992 51.5449 324.44 51.5449C323.888 51.5449 323.44 51.9926 323.44 52.5449C323.44 53.0972 323.888 53.5449 324.44 53.5449Z" fill="#969DA6"/>
<path d="M333.815 53.5449C334.367 53.5449 334.815 53.0972 334.815 52.5449C334.815 51.9926 334.367 51.5449 333.815 51.5449C333.263 51.5449 332.815 51.9926 332.815 52.5449C332.815 53.0972 333.263 53.5449 333.815 53.5449Z" fill="#969DA6"/>
<path d="M249.439 60.8828C249.991 60.8828 250.439 60.4351 250.439 59.8828C250.439 59.3305 249.991 58.8828 249.439 58.8828C248.887 58.8828 248.439 59.3305 248.439 59.8828C248.439 60.4351 248.887 60.8828 249.439 60.8828Z" fill="#969DA6"/>
<path d="M258.815 60.8828C259.367 60.8828 259.815 60.4351 259.815 59.8828C259.815 59.3305 259.367 58.8828 258.815 58.8828C258.263 58.8828 257.815 59.3305 257.815 59.8828C257.815 60.4351 258.263 60.8828 258.815 60.8828Z" fill="#969DA6"/>
<path d="M268.191 60.8828C268.743 60.8828 269.191 60.4351 269.191 59.8828C269.191 59.3305 268.743 58.8828 268.191 58.8828C267.639 58.8828 267.191 59.3305 267.191 59.8828C267.191 60.4351 267.639 60.8828 268.191 60.8828Z" fill="#969DA6"/>
<path d="M277.56 60.8828C278.112 60.8828 278.56 60.4351 278.56 59.8828C278.56 59.3305 278.112 58.8828 277.56 58.8828C277.008 58.8828 276.56 59.3305 276.56 59.8828C276.56 60.4351 277.008 60.8828 277.56 60.8828Z" fill="#969DA6"/>
<path d="M286.936 60.8828C287.488 60.8828 287.936 60.4351 287.936 59.8828C287.936 59.3305 287.488 58.8828 286.936 58.8828C286.384 58.8828 285.936 59.3305 285.936 59.8828C285.936 60.4351 286.384 60.8828 286.936 60.8828Z" fill="#969DA6"/>
<path d="M296.312 60.8828C296.864 60.8828 297.312 60.4351 297.312 59.8828C297.312 59.3305 296.864 58.8828 296.312 58.8828C295.76 58.8828 295.312 59.3305 295.312 59.8828C295.312 60.4351 295.76 60.8828 296.312 60.8828Z" fill="#969DA6"/>
<path d="M305.688 60.8828C306.24 60.8828 306.688 60.4351 306.688 59.8828C306.688 59.3305 306.24 58.8828 305.688 58.8828C305.136 58.8828 304.688 59.3305 304.688 59.8828C304.688 60.4351 305.136 60.8828 305.688 60.8828Z" fill="#969DA6"/>
<path d="M315.064 60.8828C315.616 60.8828 316.064 60.4351 316.064 59.8828C316.064 59.3305 315.616 58.8828 315.064 58.8828C314.512 58.8828 314.064 59.3305 314.064 59.8828C314.064 60.4351 314.512 60.8828 315.064 60.8828Z" fill="#969DA6"/>
<path d="M324.44 60.8828C324.992 60.8828 325.44 60.4351 325.44 59.8828C325.44 59.3305 324.992 58.8828 324.44 58.8828C323.888 58.8828 323.44 59.3305 323.44 59.8828C323.44 60.4351 323.888 60.8828 324.44 60.8828Z" fill="#969DA6"/>
<path d="M333.815 60.8828C334.367 60.8828 334.815 60.4351 334.815 59.8828C334.815 59.3305 334.367 58.8828 333.815 58.8828C333.263 58.8828 332.815 59.3305 332.815 59.8828C332.815 60.4351 333.263 60.8828 333.815 60.8828Z" fill="#969DA6"/>
<path d="M249.439 68.2207C249.991 68.2207 250.439 67.773 250.439 67.2207C250.439 66.6684 249.991 66.2207 249.439 66.2207C248.887 66.2207 248.439 66.6684 248.439 67.2207C248.439 67.773 248.887 68.2207 249.439 68.2207Z" fill="#969DA6"/>
<path d="M258.815 68.2207C259.367 68.2207 259.815 67.773 259.815 67.2207C259.815 66.6684 259.367 66.2207 258.815 66.2207C258.263 66.2207 257.815 66.6684 257.815 67.2207C257.815 67.773 258.263 68.2207 258.815 68.2207Z" fill="#969DA6"/>
<path d="M268.191 68.2207C268.743 68.2207 269.191 67.773 269.191 67.2207C269.191 66.6684 268.743 66.2207 268.191 66.2207C267.639 66.2207 267.191 66.6684 267.191 67.2207C267.191 67.773 267.639 68.2207 268.191 68.2207Z" fill="#969DA6"/>
<path d="M277.56 68.2207C278.112 68.2207 278.56 67.773 278.56 67.2207C278.56 66.6684 278.112 66.2207 277.56 66.2207C277.008 66.2207 276.56 66.6684 276.56 67.2207C276.56 67.773 277.008 68.2207 277.56 68.2207Z" fill="#969DA6"/>
<path d="M286.936 68.2207C287.488 68.2207 287.936 67.773 287.936 67.2207C287.936 66.6684 287.488 66.2207 286.936 66.2207C286.384 66.2207 285.936 66.6684 285.936 67.2207C285.936 67.773 286.384 68.2207 286.936 68.2207Z" fill="#969DA6"/>
<path d="M296.312 68.2207C296.864 68.2207 297.312 67.773 297.312 67.2207C297.312 66.6684 296.864 66.2207 296.312 66.2207C295.76 66.2207 295.312 66.6684 295.312 67.2207C295.312 67.773 295.76 68.2207 296.312 68.2207Z" fill="#969DA6"/>
<path d="M305.688 68.2207C306.24 68.2207 306.688 67.773 306.688 67.2207C306.688 66.6684 306.24 66.2207 305.688 66.2207C305.136 66.2207 304.688 66.6684 304.688 67.2207C304.688 67.773 305.136 68.2207 305.688 68.2207Z" fill="#969DA6"/>
<path d="M315.064 68.2207C315.616 68.2207 316.064 67.773 316.064 67.2207C316.064 66.6684 315.616 66.2207 315.064 66.2207C314.512 66.2207 314.064 66.6684 314.064 67.2207C314.064 67.773 314.512 68.2207 315.064 68.2207Z" fill="#969DA6"/>
<path d="M324.44 68.2207C324.992 68.2207 325.44 67.773 325.44 67.2207C325.44 66.6684 324.992 66.2207 324.44 66.2207C323.888 66.2207 323.44 66.6684 323.44 67.2207C323.44 67.773 323.888 68.2207 324.44 68.2207Z" fill="#969DA6"/>
<path d="M333.815 68.2207C334.367 68.2207 334.815 67.773 334.815 67.2207C334.815 66.6684 334.367 66.2207 333.815 66.2207C333.263 66.2207 332.815 66.6684 332.815 67.2207C332.815 67.773 333.263 68.2207 333.815 68.2207Z" fill="#969DA6"/>
<path d="M249.439 75.5586C249.991 75.5586 250.439 75.1109 250.439 74.5586C250.439 74.0063 249.991 73.5586 249.439 73.5586C248.887 73.5586 248.439 74.0063 248.439 74.5586C248.439 75.1109 248.887 75.5586 249.439 75.5586Z" fill="#969DA6"/>
<path d="M258.815 75.5586C259.367 75.5586 259.815 75.1109 259.815 74.5586C259.815 74.0063 259.367 73.5586 258.815 73.5586C258.263 73.5586 257.815 74.0063 257.815 74.5586C257.815 75.1109 258.263 75.5586 258.815 75.5586Z" fill="#969DA6"/>
<path d="M268.191 75.5586C268.743 75.5586 269.191 75.1109 269.191 74.5586C269.191 74.0063 268.743 73.5586 268.191 73.5586C267.639 73.5586 267.191 74.0063 267.191 74.5586C267.191 75.1109 267.639 75.5586 268.191 75.5586Z" fill="#969DA6"/>
<path d="M277.56 75.5586C278.112 75.5586 278.56 75.1109 278.56 74.5586C278.56 74.0063 278.112 73.5586 277.56 73.5586C277.008 73.5586 276.56 74.0063 276.56 74.5586C276.56 75.1109 277.008 75.5586 277.56 75.5586Z" fill="#969DA6"/>
<path d="M286.936 75.5586C287.488 75.5586 287.936 75.1109 287.936 74.5586C287.936 74.0063 287.488 73.5586 286.936 73.5586C286.384 73.5586 285.936 74.0063 285.936 74.5586C285.936 75.1109 286.384 75.5586 286.936 75.5586Z" fill="#969DA6"/>
<path d="M296.312 75.5586C296.864 75.5586 297.312 75.1109 297.312 74.5586C297.312 74.0063 296.864 73.5586 296.312 73.5586C295.76 73.5586 295.312 74.0063 295.312 74.5586C295.312 75.1109 295.76 75.5586 296.312 75.5586Z" fill="#969DA6"/>
<path d="M305.688 75.5586C306.24 75.5586 306.688 75.1109 306.688 74.5586C306.688 74.0063 306.24 73.5586 305.688 73.5586C305.136 73.5586 304.688 74.0063 304.688 74.5586C304.688 75.1109 305.136 75.5586 305.688 75.5586Z" fill="#969DA6"/>
<path d="M315.064 75.5586C315.616 75.5586 316.064 75.1109 316.064 74.5586C316.064 74.0063 315.616 73.5586 315.064 73.5586C314.512 73.5586 314.064 74.0063 314.064 74.5586C314.064 75.1109 314.512 75.5586 315.064 75.5586Z" fill="#969DA6"/>
<path d="M324.44 75.5586C324.992 75.5586 325.44 75.1109 325.44 74.5586C325.44 74.0063 324.992 73.5586 324.44 73.5586C323.888 73.5586 323.44 74.0063 323.44 74.5586C323.44 75.1109 323.888 75.5586 324.44 75.5586Z" fill="#969DA6"/>
<path d="M333.815 75.5586C334.367 75.5586 334.815 75.1109 334.815 74.5586C334.815 74.0063 334.367 73.5586 333.815 73.5586C333.263 73.5586 332.815 74.0063 332.815 74.5586C332.815 75.1109 333.263 75.5586 333.815 75.5586Z" fill="#969DA6"/>
<path d="M249.439 82.897C249.991 82.897 250.439 82.4493 250.439 81.897C250.439 81.3447 249.991 80.897 249.439 80.897C248.887 80.897 248.439 81.3447 248.439 81.897C248.439 82.4493 248.887 82.897 249.439 82.897Z" fill="#969DA6"/>
<path d="M258.815 82.897C259.367 82.897 259.815 82.4493 259.815 81.897C259.815 81.3447 259.367 80.897 258.815 80.897C258.263 80.897 257.815 81.3447 257.815 81.897C257.815 82.4493 258.263 82.897 258.815 82.897Z" fill="#969DA6"/>
<path d="M268.191 82.897C268.743 82.897 269.191 82.4493 269.191 81.897C269.191 81.3447 268.743 80.897 268.191 80.897C267.639 80.897 267.191 81.3447 267.191 81.897C267.191 82.4493 267.639 82.897 268.191 82.897Z" fill="#969DA6"/>
<path d="M277.56 82.897C278.112 82.897 278.56 82.4493 278.56 81.897C278.56 81.3447 278.112 80.897 277.56 80.897C277.008 80.897 276.56 81.3447 276.56 81.897C276.56 82.4493 277.008 82.897 277.56 82.897Z" fill="#969DA6"/>
<path d="M286.936 82.897C287.488 82.897 287.936 82.4493 287.936 81.897C287.936 81.3447 287.488 80.897 286.936 80.897C286.384 80.897 285.936 81.3447 285.936 81.897C285.936 82.4493 286.384 82.897 286.936 82.897Z" fill="#969DA6"/>
<path d="M296.312 82.897C296.864 82.897 297.312 82.4493 297.312 81.897C297.312 81.3447 296.864 80.897 296.312 80.897C295.76 80.897 295.312 81.3447 295.312 81.897C295.312 82.4493 295.76 82.897 296.312 82.897Z" fill="#969DA6"/>
<path d="M305.688 82.897C306.24 82.897 306.688 82.4493 306.688 81.897C306.688 81.3447 306.24 80.897 305.688 80.897C305.136 80.897 304.688 81.3447 304.688 81.897C304.688 82.4493 305.136 82.897 305.688 82.897Z" fill="#969DA6"/>
<path d="M315.064 82.897C315.616 82.897 316.064 82.4493 316.064 81.897C316.064 81.3447 315.616 80.897 315.064 80.897C314.512 80.897 314.064 81.3447 314.064 81.897C314.064 82.4493 314.512 82.897 315.064 82.897Z" fill="#969DA6"/>
<path d="M324.44 82.897C324.992 82.897 325.44 82.4493 325.44 81.897C325.44 81.3447 324.992 80.897 324.44 80.897C323.888 80.897 323.44 81.3447 323.44 81.897C323.44 82.4493 323.888 82.897 324.44 82.897Z" fill="#969DA6"/>
<path d="M333.815 82.897C334.367 82.897 334.815 82.4493 334.815 81.897C334.815 81.3447 334.367 80.897 333.815 80.897C333.263 80.897 332.815 81.3447 332.815 81.897C332.815 82.4493 333.263 82.897 333.815 82.897Z" fill="#969DA6"/>
<path d="M249.439 89.6855C249.991 89.6855 250.439 89.2378 250.439 88.6855C250.439 88.1333 249.991 87.6855 249.439 87.6855C248.887 87.6855 248.439 88.1333 248.439 88.6855C248.439 89.2378 248.887 89.6855 249.439 89.6855Z" fill="#969DA6"/>
<path d="M258.815 89.6855C259.367 89.6855 259.815 89.2378 259.815 88.6855C259.815 88.1333 259.367 87.6855 258.815 87.6855C258.263 87.6855 257.815 88.1333 257.815 88.6855C257.815 89.2378 258.263 89.6855 258.815 89.6855Z" fill="#969DA6"/>
<path d="M268.191 89.6855C268.743 89.6855 269.191 89.2378 269.191 88.6855C269.191 88.1333 268.743 87.6855 268.191 87.6855C267.639 87.6855 267.191 88.1333 267.191 88.6855C267.191 89.2378 267.639 89.6855 268.191 89.6855Z" fill="#969DA6"/>
<path d="M277.56 89.6855C278.112 89.6855 278.56 89.2378 278.56 88.6855C278.56 88.1333 278.112 87.6855 277.56 87.6855C277.008 87.6855 276.56 88.1333 276.56 88.6855C276.56 89.2378 277.008 89.6855 277.56 89.6855Z" fill="#969DA6"/>
<path d="M286.936 89.6855C287.488 89.6855 287.936 89.2378 287.936 88.6855C287.936 88.1333 287.488 87.6855 286.936 87.6855C286.384 87.6855 285.936 88.1333 285.936 88.6855C285.936 89.2378 286.384 89.6855 286.936 89.6855Z" fill="#969DA6"/>
<path d="M296.312 89.6855C296.864 89.6855 297.312 89.2378 297.312 88.6855C297.312 88.1333 296.864 87.6855 296.312 87.6855C295.76 87.6855 295.312 88.1333 295.312 88.6855C295.312 89.2378 295.76 89.6855 296.312 89.6855Z" fill="#969DA6"/>
<path d="M305.688 89.6855C306.24 89.6855 306.688 89.2378 306.688 88.6855C306.688 88.1333 306.24 87.6855 305.688 87.6855C305.136 87.6855 304.688 88.1333 304.688 88.6855C304.688 89.2378 305.136 89.6855 305.688 89.6855Z" fill="#969DA6"/>
<path d="M315.064 89.6855C315.616 89.6855 316.064 89.2378 316.064 88.6855C316.064 88.1333 315.616 87.6855 315.064 87.6855C314.512 87.6855 314.064 88.1333 314.064 88.6855C314.064 89.2378 314.512 89.6855 315.064 89.6855Z" fill="#969DA6"/>
<path d="M324.44 89.6855C324.992 89.6855 325.44 89.2378 325.44 88.6855C325.44 88.1333 324.992 87.6855 324.44 87.6855C323.888 87.6855 323.44 88.1333 323.44 88.6855C323.44 89.2378 323.888 89.6855 324.44 89.6855Z" fill="#969DA6"/>
<path d="M333.815 89.6855C334.367 89.6855 334.815 89.2378 334.815 88.6855C334.815 88.1333 334.367 87.6855 333.815 87.6855C333.263 87.6855 332.815 88.1333 332.815 88.6855C332.815 89.2378 333.263 89.6855 333.815 89.6855Z" fill="#969DA6"/>
<path d="M249.439 97.0239C249.991 97.0239 250.439 96.5762 250.439 96.0239C250.439 95.4716 249.991 95.0239 249.439 95.0239C248.887 95.0239 248.439 95.4716 248.439 96.0239C248.439 96.5762 248.887 97.0239 249.439 97.0239Z" fill="#969DA6"/>
<path d="M258.815 97.0239C259.367 97.0239 259.815 96.5762 259.815 96.0239C259.815 95.4716 259.367 95.0239 258.815 95.0239C258.263 95.0239 257.815 95.4716 257.815 96.0239C257.815 96.5762 258.263 97.0239 258.815 97.0239Z" fill="#969DA6"/>
<path d="M268.191 97.0239C268.743 97.0239 269.191 96.5762 269.191 96.0239C269.191 95.4716 268.743 95.0239 268.191 95.0239C267.639 95.0239 267.191 95.4716 267.191 96.0239C267.191 96.5762 267.639 97.0239 268.191 97.0239Z" fill="#969DA6"/>
<path d="M277.56 97.0239C278.112 97.0239 278.56 96.5762 278.56 96.0239C278.56 95.4716 278.112 95.0239 277.56 95.0239C277.008 95.0239 276.56 95.4716 276.56 96.0239C276.56 96.5762 277.008 97.0239 277.56 97.0239Z" fill="#969DA6"/>
<path d="M286.936 97.0239C287.488 97.0239 287.936 96.5762 287.936 96.0239C287.936 95.4716 287.488 95.0239 286.936 95.0239C286.384 95.0239 285.936 95.4716 285.936 96.0239C285.936 96.5762 286.384 97.0239 286.936 97.0239Z" fill="#969DA6"/>
<path d="M296.312 97.0239C296.864 97.0239 297.312 96.5762 297.312 96.0239C297.312 95.4716 296.864 95.0239 296.312 95.0239C295.76 95.0239 295.312 95.4716 295.312 96.0239C295.312 96.5762 295.76 97.0239 296.312 97.0239Z" fill="#969DA6"/>
<path d="M305.688 97.0239C306.24 97.0239 306.688 96.5762 306.688 96.0239C306.688 95.4716 306.24 95.0239 305.688 95.0239C305.136 95.0239 304.688 95.4716 304.688 96.0239C304.688 96.5762 305.136 97.0239 305.688 97.0239Z" fill="#969DA6"/>
<path d="M315.064 97.0239C315.616 97.0239 316.064 96.5762 316.064 96.0239C316.064 95.4716 315.616 95.0239 315.064 95.0239C314.512 95.0239 314.064 95.4716 314.064 96.0239C314.064 96.5762 314.512 97.0239 315.064 97.0239Z" fill="#969DA6"/>
<path d="M324.44 97.0239C324.992 97.0239 325.44 96.5762 325.44 96.0239C325.44 95.4716 324.992 95.0239 324.44 95.0239C323.888 95.0239 323.44 95.4716 323.44 96.0239C323.44 96.5762 323.888 97.0239 324.44 97.0239Z" fill="#969DA6"/>
<path d="M333.815 97.0239C334.367 97.0239 334.815 96.5762 334.815 96.0239C334.815 95.4716 334.367 95.0239 333.815 95.0239C333.263 95.0239 332.815 95.4716 332.815 96.0239C332.815 96.5762 333.263 97.0239 333.815 97.0239Z" fill="#969DA6"/>
<path d="M249.439 104.369C249.991 104.369 250.439 103.921 250.439 103.369C250.439 102.816 249.991 102.369 249.439 102.369C248.887 102.369 248.439 102.816 248.439 103.369C248.439 103.921 248.887 104.369 249.439 104.369Z" fill="#969DA6"/>
<path d="M258.815 104.369C259.367 104.369 259.815 103.921 259.815 103.369C259.815 102.816 259.367 102.369 258.815 102.369C258.263 102.369 257.815 102.816 257.815 103.369C257.815 103.921 258.263 104.369 258.815 104.369Z" fill="#969DA6"/>
<path d="M268.191 104.369C268.743 104.369 269.191 103.921 269.191 103.369C269.191 102.816 268.743 102.369 268.191 102.369C267.639 102.369 267.191 102.816 267.191 103.369C267.191 103.921 267.639 104.369 268.191 104.369Z" fill="#969DA6"/>
<path d="M277.56 104.369C278.112 104.369 278.56 103.921 278.56 103.369C278.56 102.816 278.112 102.369 277.56 102.369C277.008 102.369 276.56 102.816 276.56 103.369C276.56 103.921 277.008 104.369 277.56 104.369Z" fill="#969DA6"/>
<path d="M286.936 104.369C287.488 104.369 287.936 103.921 287.936 103.369C287.936 102.816 287.488 102.369 286.936 102.369C286.384 102.369 285.936 102.816 285.936 103.369C285.936 103.921 286.384 104.369 286.936 104.369Z" fill="#969DA6"/>
<path d="M296.312 104.369C296.864 104.369 297.312 103.921 297.312 103.369C297.312 102.816 296.864 102.369 296.312 102.369C295.76 102.369 295.312 102.816 295.312 103.369C295.312 103.921 295.76 104.369 296.312 104.369Z" fill="#969DA6"/>
<path d="M305.688 104.369C306.24 104.369 306.688 103.921 306.688 103.369C306.688 102.816 306.24 102.369 305.688 102.369C305.136 102.369 304.688 102.816 304.688 103.369C304.688 103.921 305.136 104.369 305.688 104.369Z" fill="#969DA6"/>
<path d="M315.064 104.369C315.616 104.369 316.064 103.921 316.064 103.369C316.064 102.816 315.616 102.369 315.064 102.369C314.512 102.369 314.064 102.816 314.064 103.369C314.064 103.921 314.512 104.369 315.064 104.369Z" fill="#969DA6"/>
<path d="M324.44 104.369C324.992 104.369 325.44 103.921 325.44 103.369C325.44 102.816 324.992 102.369 324.44 102.369C323.888 102.369 323.44 102.816 323.44 103.369C323.44 103.921 323.888 104.369 324.44 104.369Z" fill="#969DA6"/>
<path d="M333.815 104.369C334.367 104.369 334.815 103.921 334.815 103.369C334.815 102.816 334.367 102.369 333.815 102.369C333.263 102.369 332.815 102.816 332.815 103.369C332.815 103.921 333.263 104.369 333.815 104.369Z" fill="#969DA6"/>
<path d="M249.439 111.707C249.991 111.707 250.439 111.259 250.439 110.707C250.439 110.154 249.991 109.707 249.439 109.707C248.887 109.707 248.439 110.154 248.439 110.707C248.439 111.259 248.887 111.707 249.439 111.707Z" fill="#969DA6"/>
<path d="M258.815 111.707C259.367 111.707 259.815 111.259 259.815 110.707C259.815 110.154 259.367 109.707 258.815 109.707C258.263 109.707 257.815 110.154 257.815 110.707C257.815 111.259 258.263 111.707 258.815 111.707Z" fill="#969DA6"/>
<path d="M268.191 111.707C268.743 111.707 269.191 111.259 269.191 110.707C269.191 110.154 268.743 109.707 268.191 109.707C267.639 109.707 267.191 110.154 267.191 110.707C267.191 111.259 267.639 111.707 268.191 111.707Z" fill="#969DA6"/>
<path d="M277.56 111.707C278.112 111.707 278.56 111.259 278.56 110.707C278.56 110.154 278.112 109.707 277.56 109.707C277.008 109.707 276.56 110.154 276.56 110.707C276.56 111.259 277.008 111.707 277.56 111.707Z" fill="#969DA6"/>
<path d="M286.936 111.707C287.488 111.707 287.936 111.259 287.936 110.707C287.936 110.154 287.488 109.707 286.936 109.707C286.384 109.707 285.936 110.154 285.936 110.707C285.936 111.259 286.384 111.707 286.936 111.707Z" fill="#969DA6"/>
<path d="M296.312 111.707C296.864 111.707 297.312 111.259 297.312 110.707C297.312 110.154 296.864 109.707 296.312 109.707C295.76 109.707 295.312 110.154 295.312 110.707C295.312 111.259 295.76 111.707 296.312 111.707Z" fill="#969DA6"/>
<path d="M305.688 111.707C306.24 111.707 306.688 111.259 306.688 110.707C306.688 110.154 306.24 109.707 305.688 109.707C305.136 109.707 304.688 110.154 304.688 110.707C304.688 111.259 305.136 111.707 305.688 111.707Z" fill="#969DA6"/>
<path d="M315.064 111.707C315.616 111.707 316.064 111.259 316.064 110.707C316.064 110.154 315.616 109.707 315.064 109.707C314.512 109.707 314.064 110.154 314.064 110.707C314.064 111.259 314.512 111.707 315.064 111.707Z" fill="#969DA6"/>
<path d="M324.44 111.707C324.992 111.707 325.44 111.259 325.44 110.707C325.44 110.154 324.992 109.707 324.44 109.707C323.888 109.707 323.44 110.154 323.44 110.707C323.44 111.259 323.888 111.707 324.44 111.707Z" fill="#969DA6"/>
<path d="M333.815 111.707C334.367 111.707 334.815 111.259 334.815 110.707C334.815 110.154 334.367 109.707 333.815 109.707C333.263 109.707 332.815 110.154 332.815 110.707C332.815 111.259 333.263 111.707 333.815 111.707Z" fill="#969DA6"/>
<path d="M249.439 119.045C249.991 119.045 250.439 118.597 250.439 118.045C250.439 117.493 249.991 117.045 249.439 117.045C248.887 117.045 248.439 117.493 248.439 118.045C248.439 118.597 248.887 119.045 249.439 119.045Z" fill="#969DA6"/>
<path d="M258.815 119.045C259.367 119.045 259.815 118.597 259.815 118.045C259.815 117.493 259.367 117.045 258.815 117.045C258.263 117.045 257.815 117.493 257.815 118.045C257.815 118.597 258.263 119.045 258.815 119.045Z" fill="#969DA6"/>
<path d="M268.191 119.045C268.743 119.045 269.191 118.597 269.191 118.045C269.191 117.493 268.743 117.045 268.191 117.045C267.639 117.045 267.191 117.493 267.191 118.045C267.191 118.597 267.639 119.045 268.191 119.045Z" fill="#969DA6"/>
<path d="M277.56 119.045C278.112 119.045 278.56 118.597 278.56 118.045C278.56 117.493 278.112 117.045 277.56 117.045C277.008 117.045 276.56 117.493 276.56 118.045C276.56 118.597 277.008 119.045 277.56 119.045Z" fill="#969DA6"/>
<path d="M286.936 119.045C287.488 119.045 287.936 118.597 287.936 118.045C287.936 117.493 287.488 117.045 286.936 117.045C286.384 117.045 285.936 117.493 285.936 118.045C285.936 118.597 286.384 119.045 286.936 119.045Z" fill="#969DA6"/>
<path d="M296.312 119.045C296.864 119.045 297.312 118.597 297.312 118.045C297.312 117.493 296.864 117.045 296.312 117.045C295.76 117.045 295.312 117.493 295.312 118.045C295.312 118.597 295.76 119.045 296.312 119.045Z" fill="#969DA6"/>
<path d="M305.688 119.045C306.24 119.045 306.688 118.597 306.688 118.045C306.688 117.493 306.24 117.045 305.688 117.045C305.136 117.045 304.688 117.493 304.688 118.045C304.688 118.597 305.136 119.045 305.688 119.045Z" fill="#969DA6"/>
<path d="M315.064 119.045C315.616 119.045 316.064 118.597 316.064 118.045C316.064 117.493 315.616 117.045 315.064 117.045C314.512 117.045 314.064 117.493 314.064 118.045C314.064 118.597 314.512 119.045 315.064 119.045Z" fill="#969DA6"/>
<path d="M324.44 119.045C324.992 119.045 325.44 118.597 325.44 118.045C325.44 117.493 324.992 117.045 324.44 117.045C323.888 117.045 323.44 117.493 323.44 118.045C323.44 118.597 323.888 119.045 324.44 119.045Z" fill="#969DA6"/>
<path d="M333.815 119.045C334.367 119.045 334.815 118.597 334.815 118.045C334.815 117.493 334.367 117.045 333.815 117.045C333.263 117.045 332.815 117.493 332.815 118.045C332.815 118.597 333.263 119.045 333.815 119.045Z" fill="#969DA6"/>
<path d="M249.439 126.383C249.991 126.383 250.439 125.935 250.439 125.383C250.439 124.831 249.991 124.383 249.439 124.383C248.887 124.383 248.439 124.831 248.439 125.383C248.439 125.935 248.887 126.383 249.439 126.383Z" fill="#969DA6"/>
<path d="M258.815 126.383C259.367 126.383 259.815 125.935 259.815 125.383C259.815 124.831 259.367 124.383 258.815 124.383C258.263 124.383 257.815 124.831 257.815 125.383C257.815 125.935 258.263 126.383 258.815 126.383Z" fill="#969DA6"/>
<path d="M268.191 126.383C268.743 126.383 269.191 125.935 269.191 125.383C269.191 124.831 268.743 124.383 268.191 124.383C267.639 124.383 267.191 124.831 267.191 125.383C267.191 125.935 267.639 126.383 268.191 126.383Z" fill="#969DA6"/>
<path d="M277.56 126.383C278.112 126.383 278.56 125.935 278.56 125.383C278.56 124.831 278.112 124.383 277.56 124.383C277.008 124.383 276.56 124.831 276.56 125.383C276.56 125.935 277.008 126.383 277.56 126.383Z" fill="#969DA6"/>
<path d="M286.936 126.383C287.488 126.383 287.936 125.935 287.936 125.383C287.936 124.831 287.488 124.383 286.936 124.383C286.384 124.383 285.936 124.831 285.936 125.383C285.936 125.935 286.384 126.383 286.936 126.383Z" fill="#969DA6"/>
<path d="M296.312 126.383C296.864 126.383 297.312 125.935 297.312 125.383C297.312 124.831 296.864 124.383 296.312 124.383C295.76 124.383 295.312 124.831 295.312 125.383C295.312 125.935 295.76 126.383 296.312 126.383Z" fill="#969DA6"/>
<path d="M305.688 126.383C306.24 126.383 306.688 125.935 306.688 125.383C306.688 124.831 306.24 124.383 305.688 124.383C305.136 124.383 304.688 124.831 304.688 125.383C304.688 125.935 305.136 126.383 305.688 126.383Z" fill="#969DA6"/>
<path d="M315.064 126.383C315.616 126.383 316.064 125.935 316.064 125.383C316.064 124.831 315.616 124.383 315.064 124.383C314.512 124.383 314.064 124.831 314.064 125.383C314.064 125.935 314.512 126.383 315.064 126.383Z" fill="#969DA6"/>
<path d="M324.44 126.383C324.992 126.383 325.44 125.935 325.44 125.383C325.44 124.831 324.992 124.383 324.44 124.383C323.888 124.383 323.44 124.831 323.44 125.383C323.44 125.935 323.888 126.383 324.44 126.383Z" fill="#969DA6"/>
<path d="M333.815 126.383C334.367 126.383 334.815 125.935 334.815 125.383C334.815 124.831 334.367 124.383 333.815 124.383C333.263 124.383 332.815 124.831 332.815 125.383C332.815 125.935 333.263 126.383 333.815 126.383Z" fill="#969DA6"/>
<path d="M249.439 133.721C249.991 133.721 250.439 133.273 250.439 132.721C250.439 132.168 249.991 131.721 249.439 131.721C248.887 131.721 248.439 132.168 248.439 132.721C248.439 133.273 248.887 133.721 249.439 133.721Z" fill="#969DA6"/>
<path d="M258.815 133.721C259.367 133.721 259.815 133.273 259.815 132.721C259.815 132.168 259.367 131.721 258.815 131.721C258.263 131.721 257.815 132.168 257.815 132.721C257.815 133.273 258.263 133.721 258.815 133.721Z" fill="#969DA6"/>
<path d="M268.191 133.721C268.743 133.721 269.191 133.273 269.191 132.721C269.191 132.168 268.743 131.721 268.191 131.721C267.639 131.721 267.191 132.168 267.191 132.721C267.191 133.273 267.639 133.721 268.191 133.721Z" fill="#969DA6"/>
<path d="M277.56 133.721C278.112 133.721 278.56 133.273 278.56 132.721C278.56 132.168 278.112 131.721 277.56 131.721C277.008 131.721 276.56 132.168 276.56 132.721C276.56 133.273 277.008 133.721 277.56 133.721Z" fill="#969DA6"/>
<path d="M286.936 133.721C287.488 133.721 287.936 133.273 287.936 132.721C287.936 132.168 287.488 131.721 286.936 131.721C286.384 131.721 285.936 132.168 285.936 132.721C285.936 133.273 286.384 133.721 286.936 133.721Z" fill="#969DA6"/>
<path d="M296.312 133.721C296.864 133.721 297.312 133.273 297.312 132.721C297.312 132.168 296.864 131.721 296.312 131.721C295.76 131.721 295.312 132.168 295.312 132.721C295.312 133.273 295.76 133.721 296.312 133.721Z" fill="#969DA6"/>
<path d="M305.688 133.721C306.24 133.721 306.688 133.273 306.688 132.721C306.688 132.168 306.24 131.721 305.688 131.721C305.136 131.721 304.688 132.168 304.688 132.721C304.688 133.273 305.136 133.721 305.688 133.721Z" fill="#969DA6"/>
<path d="M315.064 133.721C315.616 133.721 316.064 133.273 316.064 132.721C316.064 132.168 315.616 131.721 315.064 131.721C314.512 131.721 314.064 132.168 314.064 132.721C314.064 133.273 314.512 133.721 315.064 133.721Z" fill="#969DA6"/>
<path d="M324.44 133.721C324.992 133.721 325.44 133.273 325.44 132.721C325.44 132.168 324.992 131.721 324.44 131.721C323.888 131.721 323.44 132.168 323.44 132.721C323.44 133.273 323.888 133.721 324.44 133.721Z" fill="#969DA6"/>
<path d="M333.815 133.721C334.367 133.721 334.815 133.273 334.815 132.721C334.815 132.168 334.367 131.721 333.815 131.721C333.263 131.721 332.815 132.168 332.815 132.721C332.815 133.273 333.263 133.721 333.815 133.721Z" fill="#969DA6"/>
<path d="M249.439 141.059C249.991 141.059 250.439 140.611 250.439 140.059C250.439 139.506 249.991 139.059 249.439 139.059C248.887 139.059 248.439 139.506 248.439 140.059C248.439 140.611 248.887 141.059 249.439 141.059Z" fill="#969DA6"/>
<path d="M258.815 141.059C259.367 141.059 259.815 140.611 259.815 140.059C259.815 139.506 259.367 139.059 258.815 139.059C258.263 139.059 257.815 139.506 257.815 140.059C257.815 140.611 258.263 141.059 258.815 141.059Z" fill="#969DA6"/>
<path d="M268.191 141.059C268.743 141.059 269.191 140.611 269.191 140.059C269.191 139.506 268.743 139.059 268.191 139.059C267.639 139.059 267.191 139.506 267.191 140.059C267.191 140.611 267.639 141.059 268.191 141.059Z" fill="#969DA6"/>
<path d="M277.56 141.059C278.112 141.059 278.56 140.611 278.56 140.059C278.56 139.506 278.112 139.059 277.56 139.059C277.008 139.059 276.56 139.506 276.56 140.059C276.56 140.611 277.008 141.059 277.56 141.059Z" fill="#969DA6"/>
<path d="M286.936 141.059C287.488 141.059 287.936 140.611 287.936 140.059C287.936 139.506 287.488 139.059 286.936 139.059C286.384 139.059 285.936 139.506 285.936 140.059C285.936 140.611 286.384 141.059 286.936 141.059Z" fill="#969DA6"/>
<path d="M296.312 141.059C296.864 141.059 297.312 140.611 297.312 140.059C297.312 139.506 296.864 139.059 296.312 139.059C295.76 139.059 295.312 139.506 295.312 140.059C295.312 140.611 295.76 141.059 296.312 141.059Z" fill="#969DA6"/>
<path d="M305.688 141.059C306.24 141.059 306.688 140.611 306.688 140.059C306.688 139.506 306.24 139.059 305.688 139.059C305.136 139.059 304.688 139.506 304.688 140.059C304.688 140.611 305.136 141.059 305.688 141.059Z" fill="#969DA6"/>
<path d="M315.064 141.059C315.616 141.059 316.064 140.611 316.064 140.059C316.064 139.506 315.616 139.059 315.064 139.059C314.512 139.059 314.064 139.506 314.064 140.059C314.064 140.611 314.512 141.059 315.064 141.059Z" fill="#969DA6"/>
<path d="M324.44 141.059C324.992 141.059 325.44 140.611 325.44 140.059C325.44 139.506 324.992 139.059 324.44 139.059C323.888 139.059 323.44 139.506 323.44 140.059C323.44 140.611 323.888 141.059 324.44 141.059Z" fill="#969DA6"/>
<path d="M333.815 141.059C334.367 141.059 334.815 140.611 334.815 140.059C334.815 139.506 334.367 139.059 333.815 139.059C333.263 139.059 332.815 139.506 332.815 140.059C332.815 140.611 333.263 141.059 333.815 141.059Z" fill="#969DA6"/>
<path d="M249.439 148.397C249.991 148.397 250.439 147.949 250.439 147.397C250.439 146.845 249.991 146.397 249.439 146.397C248.887 146.397 248.439 146.845 248.439 147.397C248.439 147.949 248.887 148.397 249.439 148.397Z" fill="#969DA6"/>
<path d="M258.815 148.397C259.367 148.397 259.815 147.949 259.815 147.397C259.815 146.845 259.367 146.397 258.815 146.397C258.263 146.397 257.815 146.845 257.815 147.397C257.815 147.949 258.263 148.397 258.815 148.397Z" fill="#969DA6"/>
<path d="M268.191 148.397C268.743 148.397 269.191 147.949 269.191 147.397C269.191 146.845 268.743 146.397 268.191 146.397C267.639 146.397 267.191 146.845 267.191 147.397C267.191 147.949 267.639 148.397 268.191 148.397Z" fill="#969DA6"/>
<path d="M277.56 148.397C278.112 148.397 278.56 147.949 278.56 147.397C278.56 146.845 278.112 146.397 277.56 146.397C277.008 146.397 276.56 146.845 276.56 147.397C276.56 147.949 277.008 148.397 277.56 148.397Z" fill="#969DA6"/>
<path d="M286.936 148.397C287.488 148.397 287.936 147.949 287.936 147.397C287.936 146.845 287.488 146.397 286.936 146.397C286.384 146.397 285.936 146.845 285.936 147.397C285.936 147.949 286.384 148.397 286.936 148.397Z" fill="#969DA6"/>
<path d="M296.312 148.397C296.864 148.397 297.312 147.949 297.312 147.397C297.312 146.845 296.864 146.397 296.312 146.397C295.76 146.397 295.312 146.845 295.312 147.397C295.312 147.949 295.76 148.397 296.312 148.397Z" fill="#969DA6"/>
<path d="M305.688 148.397C306.24 148.397 306.688 147.949 306.688 147.397C306.688 146.845 306.24 146.397 305.688 146.397C305.136 146.397 304.688 146.845 304.688 147.397C304.688 147.949 305.136 148.397 305.688 148.397Z" fill="#969DA6"/>
<path d="M315.064 148.397C315.616 148.397 316.064 147.949 316.064 147.397C316.064 146.845 315.616 146.397 315.064 146.397C314.512 146.397 314.064 146.845 314.064 147.397C314.064 147.949 314.512 148.397 315.064 148.397Z" fill="#969DA6"/>
<path d="M324.44 148.397C324.992 148.397 325.44 147.949 325.44 147.397C325.44 146.845 324.992 146.397 324.44 146.397C323.888 146.397 323.44 146.845 323.44 147.397C323.44 147.949 323.888 148.397 324.44 148.397Z" fill="#969DA6"/>
<path d="M333.815 148.397C334.367 148.397 334.815 147.949 334.815 147.397C334.815 146.845 334.367 146.397 333.815 146.397C333.263 146.397 332.815 146.845 332.815 147.397C332.815 147.949 333.263 148.397 333.815 148.397Z" fill="#969DA6"/>
<path d="M249.439 155.741C249.991 155.741 250.439 155.293 250.439 154.741C250.439 154.188 249.991 153.741 249.439 153.741C248.887 153.741 248.439 154.188 248.439 154.741C248.439 155.293 248.887 155.741 249.439 155.741Z" fill="#969DA6"/>
<path d="M258.815 155.741C259.367 155.741 259.815 155.293 259.815 154.741C259.815 154.188 259.367 153.741 258.815 153.741C258.263 153.741 257.815 154.188 257.815 154.741C257.815 155.293 258.263 155.741 258.815 155.741Z" fill="#969DA6"/>
<path d="M268.191 155.741C268.743 155.741 269.191 155.293 269.191 154.741C269.191 154.188 268.743 153.741 268.191 153.741C267.639 153.741 267.191 154.188 267.191 154.741C267.191 155.293 267.639 155.741 268.191 155.741Z" fill="#969DA6"/>
<path d="M277.56 155.741C278.112 155.741 278.56 155.293 278.56 154.741C278.56 154.188 278.112 153.741 277.56 153.741C277.008 153.741 276.56 154.188 276.56 154.741C276.56 155.293 277.008 155.741 277.56 155.741Z" fill="#969DA6"/>
<path d="M286.936 155.741C287.488 155.741 287.936 155.293 287.936 154.741C287.936 154.188 287.488 153.741 286.936 153.741C286.384 153.741 285.936 154.188 285.936 154.741C285.936 155.293 286.384 155.741 286.936 155.741Z" fill="#969DA6"/>
<path d="M296.312 155.741C296.864 155.741 297.312 155.293 297.312 154.741C297.312 154.188 296.864 153.741 296.312 153.741C295.76 153.741 295.312 154.188 295.312 154.741C295.312 155.293 295.76 155.741 296.312 155.741Z" fill="#969DA6"/>
<path d="M305.688 155.741C306.24 155.741 306.688 155.293 306.688 154.741C306.688 154.188 306.24 153.741 305.688 153.741C305.136 153.741 304.688 154.188 304.688 154.741C304.688 155.293 305.136 155.741 305.688 155.741Z" fill="#969DA6"/>
<path d="M315.064 155.741C315.616 155.741 316.064 155.293 316.064 154.741C316.064 154.188 315.616 153.741 315.064 153.741C314.512 153.741 314.064 154.188 314.064 154.741C314.064 155.293 314.512 155.741 315.064 155.741Z" fill="#969DA6"/>
<path d="M324.44 155.741C324.992 155.741 325.44 155.293 325.44 154.741C325.44 154.188 324.992 153.741 324.44 153.741C323.888 153.741 323.44 154.188 323.44 154.741C323.44 155.293 323.888 155.741 324.44 155.741Z" fill="#969DA6"/>
<path d="M333.815 155.741C334.367 155.741 334.815 155.293 334.815 154.741C334.815 154.188 334.367 153.741 333.815 153.741C333.263 153.741 332.815 154.188 332.815 154.741C332.815 155.293 333.263 155.741 333.815 155.741Z" fill="#969DA6"/>
<path d="M249.439 163.079C249.991 163.079 250.439 162.631 250.439 162.079C250.439 161.526 249.991 161.079 249.439 161.079C248.887 161.079 248.439 161.526 248.439 162.079C248.439 162.631 248.887 163.079 249.439 163.079Z" fill="#969DA6"/>
<path d="M258.815 163.079C259.367 163.079 259.815 162.631 259.815 162.079C259.815 161.526 259.367 161.079 258.815 161.079C258.263 161.079 257.815 161.526 257.815 162.079C257.815 162.631 258.263 163.079 258.815 163.079Z" fill="#969DA6"/>
<path d="M268.191 163.079C268.743 163.079 269.191 162.631 269.191 162.079C269.191 161.526 268.743 161.079 268.191 161.079C267.639 161.079 267.191 161.526 267.191 162.079C267.191 162.631 267.639 163.079 268.191 163.079Z" fill="#969DA6"/>
<path d="M277.56 163.079C278.112 163.079 278.56 162.631 278.56 162.079C278.56 161.526 278.112 161.079 277.56 161.079C277.008 161.079 276.56 161.526 276.56 162.079C276.56 162.631 277.008 163.079 277.56 163.079Z" fill="#969DA6"/>
<path d="M286.936 163.079C287.488 163.079 287.936 162.631 287.936 162.079C287.936 161.526 287.488 161.079 286.936 161.079C286.384 161.079 285.936 161.526 285.936 162.079C285.936 162.631 286.384 163.079 286.936 163.079Z" fill="#969DA6"/>
<path d="M296.312 163.079C296.864 163.079 297.312 162.631 297.312 162.079C297.312 161.526 296.864 161.079 296.312 161.079C295.76 161.079 295.312 161.526 295.312 162.079C295.312 162.631 295.76 163.079 296.312 163.079Z" fill="#969DA6"/>
<path d="M305.688 163.079C306.24 163.079 306.688 162.631 306.688 162.079C306.688 161.526 306.24 161.079 305.688 161.079C305.136 161.079 304.688 161.526 304.688 162.079C304.688 162.631 305.136 163.079 305.688 163.079Z" fill="#969DA6"/>
<path d="M315.064 163.079C315.616 163.079 316.064 162.631 316.064 162.079C316.064 161.526 315.616 161.079 315.064 161.079C314.512 161.079 314.064 161.526 314.064 162.079C314.064 162.631 314.512 163.079 315.064 163.079Z" fill="#969DA6"/>
<path d="M324.44 163.079C324.992 163.079 325.44 162.631 325.44 162.079C325.44 161.526 324.992 161.079 324.44 161.079C323.888 161.079 323.44 161.526 323.44 162.079C323.44 162.631 323.888 163.079 324.44 163.079Z" fill="#969DA6"/>
<path d="M333.815 163.079C334.367 163.079 334.815 162.631 334.815 162.079C334.815 161.526 334.367 161.079 333.815 161.079C333.263 161.079 332.815 161.526 332.815 162.079C332.815 162.631 333.263 163.079 333.815 163.079Z" fill="#969DA6"/>
</g>
<g opacity="0.4">
<path d="M12.9731 43.3481C13.5254 43.3481 13.9731 42.9004 13.9731 42.3481C13.9731 41.7959 13.5254 41.3481 12.9731 41.3481C12.4209 41.3481 11.9731 41.7959 11.9731 42.3481C11.9731 42.9004 12.4209 43.3481 12.9731 43.3481Z" fill="#969DA6"/>
<path d="M22.313 43.3481C22.8653 43.3481 23.313 42.9004 23.313 42.3481C23.313 41.7959 22.8653 41.3481 22.313 41.3481C21.7607 41.3481 21.313 41.7959 21.313 42.3481C21.313 42.9004 21.7607 43.3481 22.313 43.3481Z" fill="#969DA6"/>
<path d="M31.6533 43.3481C32.2056 43.3481 32.6533 42.9004 32.6533 42.3481C32.6533 41.7959 32.2056 41.3481 31.6533 41.3481C31.101 41.3481 30.6533 41.7959 30.6533 42.3481C30.6533 42.9004 31.101 43.3481 31.6533 43.3481Z" fill="#969DA6"/>
<path d="M40.9932 43.3481C41.5454 43.3481 41.9932 42.9004 41.9932 42.3481C41.9932 41.7959 41.5454 41.3481 40.9932 41.3481C40.4409 41.3481 39.9932 41.7959 39.9932 42.3481C39.9932 42.9004 40.4409 43.3481 40.9932 43.3481Z" fill="#969DA6"/>
<path d="M50.333 43.3481C50.8853 43.3481 51.333 42.9004 51.333 42.3481C51.333 41.7959 50.8853 41.3481 50.333 41.3481C49.7807 41.3481 49.333 41.7959 49.333 42.3481C49.333 42.9004 49.7807 43.3481 50.333 43.3481Z" fill="#969DA6"/>
<path d="M59.667 43.3481C60.2193 43.3481 60.667 42.9004 60.667 42.3481C60.667 41.7959 60.2193 41.3481 59.667 41.3481C59.1147 41.3481 58.667 41.7959 58.667 42.3481C58.667 42.9004 59.1147 43.3481 59.667 43.3481Z" fill="#969DA6"/>
<path d="M69.0073 43.3481C69.5596 43.3481 70.0073 42.9004 70.0073 42.3481C70.0073 41.7959 69.5596 41.3481 69.0073 41.3481C68.455 41.3481 68.0073 41.7959 68.0073 42.3481C68.0073 42.9004 68.455 43.3481 69.0073 43.3481Z" fill="#969DA6"/>
<path d="M78.3472 43.3481C78.8995 43.3481 79.3472 42.9004 79.3472 42.3481C79.3472 41.7959 78.8995 41.3481 78.3472 41.3481C77.7949 41.3481 77.3472 41.7959 77.3472 42.3481C77.3472 42.9004 77.7949 43.3481 78.3472 43.3481Z" fill="#969DA6"/>
<path d="M87.687 43.3481C88.2393 43.3481 88.687 42.9004 88.687 42.3481C88.687 41.7959 88.2393 41.3481 87.687 41.3481C87.1347 41.3481 86.687 41.7959 86.687 42.3481C86.687 42.9004 87.1347 43.3481 87.687 43.3481Z" fill="#969DA6"/>
<path d="M97.0273 43.3481C97.5796 43.3481 98.0273 42.9004 98.0273 42.3481C98.0273 41.7959 97.5796 41.3481 97.0273 41.3481C96.4751 41.3481 96.0273 41.7959 96.0273 42.3481C96.0273 42.9004 96.4751 43.3481 97.0273 43.3481Z" fill="#969DA6"/>
<path d="M12.9731 50.7192C13.5254 50.7192 13.9731 50.2715 13.9731 49.7192C13.9731 49.167 13.5254 48.7192 12.9731 48.7192C12.4209 48.7192 11.9731 49.167 11.9731 49.7192C11.9731 50.2715 12.4209 50.7192 12.9731 50.7192Z" fill="#969DA6"/>
<path d="M22.313 50.7192C22.8653 50.7192 23.313 50.2715 23.313 49.7192C23.313 49.167 22.8653 48.7192 22.313 48.7192C21.7607 48.7192 21.313 49.167 21.313 49.7192C21.313 50.2715 21.7607 50.7192 22.313 50.7192Z" fill="#969DA6"/>
<path d="M31.6533 50.7192C32.2056 50.7192 32.6533 50.2715 32.6533 49.7192C32.6533 49.167 32.2056 48.7192 31.6533 48.7192C31.101 48.7192 30.6533 49.167 30.6533 49.7192C30.6533 50.2715 31.101 50.7192 31.6533 50.7192Z" fill="#969DA6"/>
<path d="M40.9932 50.7192C41.5454 50.7192 41.9932 50.2715 41.9932 49.7192C41.9932 49.167 41.5454 48.7192 40.9932 48.7192C40.4409 48.7192 39.9932 49.167 39.9932 49.7192C39.9932 50.2715 40.4409 50.7192 40.9932 50.7192Z" fill="#969DA6"/>
<path d="M50.333 50.7192C50.8853 50.7192 51.333 50.2715 51.333 49.7192C51.333 49.167 50.8853 48.7192 50.333 48.7192C49.7807 48.7192 49.333 49.167 49.333 49.7192C49.333 50.2715 49.7807 50.7192 50.333 50.7192Z" fill="#969DA6"/>
<path d="M59.667 50.7192C60.2193 50.7192 60.667 50.2715 60.667 49.7192C60.667 49.167 60.2193 48.7192 59.667 48.7192C59.1147 48.7192 58.667 49.167 58.667 49.7192C58.667 50.2715 59.1147 50.7192 59.667 50.7192Z" fill="#969DA6"/>
<path d="M69.0073 50.7192C69.5596 50.7192 70.0073 50.2715 70.0073 49.7192C70.0073 49.167 69.5596 48.7192 69.0073 48.7192C68.455 48.7192 68.0073 49.167 68.0073 49.7192C68.0073 50.2715 68.455 50.7192 69.0073 50.7192Z" fill="#969DA6"/>
<path d="M78.3472 50.7192C78.8995 50.7192 79.3472 50.2715 79.3472 49.7192C79.3472 49.167 78.8995 48.7192 78.3472 48.7192C77.7949 48.7192 77.3472 49.167 77.3472 49.7192C77.3472 50.2715 77.7949 50.7192 78.3472 50.7192Z" fill="#969DA6"/>
<path d="M87.687 50.7192C88.2393 50.7192 88.687 50.2715 88.687 49.7192C88.687 49.167 88.2393 48.7192 87.687 48.7192C87.1347 48.7192 86.687 49.167 86.687 49.7192C86.687 50.2715 87.1347 50.7192 87.687 50.7192Z" fill="#969DA6"/>
<path d="M97.0273 50.7192C97.5796 50.7192 98.0273 50.2715 98.0273 49.7192C98.0273 49.167 97.5796 48.7192 97.0273 48.7192C96.4751 48.7192 96.0273 49.167 96.0273 49.7192C96.0273 50.2715 96.4751 50.7192 97.0273 50.7192Z" fill="#969DA6"/>
<path d="M12.9731 58.0972C13.5254 58.0972 13.9731 57.6495 13.9731 57.0972C13.9731 56.5449 13.5254 56.0972 12.9731 56.0972C12.4209 56.0972 11.9731 56.5449 11.9731 57.0972C11.9731 57.6495 12.4209 58.0972 12.9731 58.0972Z" fill="#969DA6"/>
<path d="M22.313 58.0972C22.8653 58.0972 23.313 57.6495 23.313 57.0972C23.313 56.5449 22.8653 56.0972 22.313 56.0972C21.7607 56.0972 21.313 56.5449 21.313 57.0972C21.313 57.6495 21.7607 58.0972 22.313 58.0972Z" fill="#969DA6"/>
<path d="M31.6533 58.0972C32.2056 58.0972 32.6533 57.6495 32.6533 57.0972C32.6533 56.5449 32.2056 56.0972 31.6533 56.0972C31.101 56.0972 30.6533 56.5449 30.6533 57.0972C30.6533 57.6495 31.101 58.0972 31.6533 58.0972Z" fill="#969DA6"/>
<path d="M40.9932 58.0972C41.5454 58.0972 41.9932 57.6495 41.9932 57.0972C41.9932 56.5449 41.5454 56.0972 40.9932 56.0972C40.4409 56.0972 39.9932 56.5449 39.9932 57.0972C39.9932 57.6495 40.4409 58.0972 40.9932 58.0972Z" fill="#969DA6"/>
<path d="M50.333 58.0972C50.8853 58.0972 51.333 57.6495 51.333 57.0972C51.333 56.5449 50.8853 56.0972 50.333 56.0972C49.7807 56.0972 49.333 56.5449 49.333 57.0972C49.333 57.6495 49.7807 58.0972 50.333 58.0972Z" fill="#969DA6"/>
<path d="M59.667 58.0972C60.2193 58.0972 60.667 57.6495 60.667 57.0972C60.667 56.5449 60.2193 56.0972 59.667 56.0972C59.1147 56.0972 58.667 56.5449 58.667 57.0972C58.667 57.6495 59.1147 58.0972 59.667 58.0972Z" fill="#969DA6"/>
<path d="M69.0073 58.0972C69.5596 58.0972 70.0073 57.6495 70.0073 57.0972C70.0073 56.5449 69.5596 56.0972 69.0073 56.0972C68.455 56.0972 68.0073 56.5449 68.0073 57.0972C68.0073 57.6495 68.455 58.0972 69.0073 58.0972Z" fill="#969DA6"/>
<path d="M78.3472 58.0972C78.8995 58.0972 79.3472 57.6495 79.3472 57.0972C79.3472 56.5449 78.8995 56.0972 78.3472 56.0972C77.7949 56.0972 77.3472 56.5449 77.3472 57.0972C77.3472 57.6495 77.7949 58.0972 78.3472 58.0972Z" fill="#969DA6"/>
<path d="M87.687 58.0972C88.2393 58.0972 88.687 57.6495 88.687 57.0972C88.687 56.5449 88.2393 56.0972 87.687 56.0972C87.1347 56.0972 86.687 56.5449 86.687 57.0972C86.687 57.6495 87.1347 58.0972 87.687 58.0972Z" fill="#969DA6"/>
<path d="M97.0273 58.0972C97.5796 58.0972 98.0273 57.6495 98.0273 57.0972C98.0273 56.5449 97.5796 56.0972 97.0273 56.0972C96.4751 56.0972 96.0273 56.5449 96.0273 57.0972C96.0273 57.6495 96.4751 58.0972 97.0273 58.0972Z" fill="#969DA6"/>
<path d="M12.9731 65.4683C13.5254 65.4683 13.9731 65.0205 13.9731 64.4683C13.9731 63.916 13.5254 63.4683 12.9731 63.4683C12.4209 63.4683 11.9731 63.916 11.9731 64.4683C11.9731 65.0205 12.4209 65.4683 12.9731 65.4683Z" fill="#969DA6"/>
<path d="M22.313 65.4683C22.8653 65.4683 23.313 65.0205 23.313 64.4683C23.313 63.916 22.8653 63.4683 22.313 63.4683C21.7607 63.4683 21.313 63.916 21.313 64.4683C21.313 65.0205 21.7607 65.4683 22.313 65.4683Z" fill="#969DA6"/>
<path d="M31.6533 65.4683C32.2056 65.4683 32.6533 65.0205 32.6533 64.4683C32.6533 63.916 32.2056 63.4683 31.6533 63.4683C31.101 63.4683 30.6533 63.916 30.6533 64.4683C30.6533 65.0205 31.101 65.4683 31.6533 65.4683Z" fill="#969DA6"/>
<path d="M40.9932 65.4683C41.5454 65.4683 41.9932 65.0205 41.9932 64.4683C41.9932 63.916 41.5454 63.4683 40.9932 63.4683C40.4409 63.4683 39.9932 63.916 39.9932 64.4683C39.9932 65.0205 40.4409 65.4683 40.9932 65.4683Z" fill="#969DA6"/>
<path d="M50.333 65.4683C50.8853 65.4683 51.333 65.0205 51.333 64.4683C51.333 63.916 50.8853 63.4683 50.333 63.4683C49.7807 63.4683 49.333 63.916 49.333 64.4683C49.333 65.0205 49.7807 65.4683 50.333 65.4683Z" fill="#969DA6"/>
<path d="M59.667 65.4683C60.2193 65.4683 60.667 65.0205 60.667 64.4683C60.667 63.916 60.2193 63.4683 59.667 63.4683C59.1147 63.4683 58.667 63.916 58.667 64.4683C58.667 65.0205 59.1147 65.4683 59.667 65.4683Z" fill="#969DA6"/>
<path d="M69.0073 65.4683C69.5596 65.4683 70.0073 65.0205 70.0073 64.4683C70.0073 63.916 69.5596 63.4683 69.0073 63.4683C68.455 63.4683 68.0073 63.916 68.0073 64.4683C68.0073 65.0205 68.455 65.4683 69.0073 65.4683Z" fill="#969DA6"/>
<path d="M78.3472 65.4683C78.8995 65.4683 79.3472 65.0205 79.3472 64.4683C79.3472 63.916 78.8995 63.4683 78.3472 63.4683C77.7949 63.4683 77.3472 63.916 77.3472 64.4683C77.3472 65.0205 77.7949 65.4683 78.3472 65.4683Z" fill="#969DA6"/>
<path d="M87.687 65.4683C88.2393 65.4683 88.687 65.0205 88.687 64.4683C88.687 63.916 88.2393 63.4683 87.687 63.4683C87.1347 63.4683 86.687 63.916 86.687 64.4683C86.687 65.0205 87.1347 65.4683 87.687 65.4683Z" fill="#969DA6"/>
<path d="M97.0273 65.4683C97.5796 65.4683 98.0273 65.0205 98.0273 64.4683C98.0273 63.916 97.5796 63.4683 97.0273 63.4683C96.4751 63.4683 96.0273 63.916 96.0273 64.4683C96.0273 65.0205 96.4751 65.4683 97.0273 65.4683Z" fill="#969DA6"/>
<path d="M12.9731 72.8403C13.5254 72.8403 13.9731 72.3926 13.9731 71.8403C13.9731 71.288 13.5254 70.8403 12.9731 70.8403C12.4209 70.8403 11.9731 71.288 11.9731 71.8403C11.9731 72.3926 12.4209 72.8403 12.9731 72.8403Z" fill="#969DA6"/>
<path d="M22.313 72.8403C22.8653 72.8403 23.313 72.3926 23.313 71.8403C23.313 71.288 22.8653 70.8403 22.313 70.8403C21.7607 70.8403 21.313 71.288 21.313 71.8403C21.313 72.3926 21.7607 72.8403 22.313 72.8403Z" fill="#969DA6"/>
<path d="M31.6533 72.8403C32.2056 72.8403 32.6533 72.3926 32.6533 71.8403C32.6533 71.288 32.2056 70.8403 31.6533 70.8403C31.101 70.8403 30.6533 71.288 30.6533 71.8403C30.6533 72.3926 31.101 72.8403 31.6533 72.8403Z" fill="#969DA6"/>
<path d="M40.9932 72.8403C41.5454 72.8403 41.9932 72.3926 41.9932 71.8403C41.9932 71.288 41.5454 70.8403 40.9932 70.8403C40.4409 70.8403 39.9932 71.288 39.9932 71.8403C39.9932 72.3926 40.4409 72.8403 40.9932 72.8403Z" fill="#969DA6"/>
<path d="M50.333 72.8403C50.8853 72.8403 51.333 72.3926 51.333 71.8403C51.333 71.288 50.8853 70.8403 50.333 70.8403C49.7807 70.8403 49.333 71.288 49.333 71.8403C49.333 72.3926 49.7807 72.8403 50.333 72.8403Z" fill="#969DA6"/>
<path d="M59.667 72.8403C60.2193 72.8403 60.667 72.3926 60.667 71.8403C60.667 71.288 60.2193 70.8403 59.667 70.8403C59.1147 70.8403 58.667 71.288 58.667 71.8403C58.667 72.3926 59.1147 72.8403 59.667 72.8403Z" fill="#969DA6"/>
<path d="M69.0073 72.8403C69.5596 72.8403 70.0073 72.3926 70.0073 71.8403C70.0073 71.288 69.5596 70.8403 69.0073 70.8403C68.455 70.8403 68.0073 71.288 68.0073 71.8403C68.0073 72.3926 68.455 72.8403 69.0073 72.8403Z" fill="#969DA6"/>
<path d="M78.3472 72.8403C78.8995 72.8403 79.3472 72.3926 79.3472 71.8403C79.3472 71.288 78.8995 70.8403 78.3472 70.8403C77.7949 70.8403 77.3472 71.288 77.3472 71.8403C77.3472 72.3926 77.7949 72.8403 78.3472 72.8403Z" fill="#969DA6"/>
<path d="M87.687 72.8403C88.2393 72.8403 88.687 72.3926 88.687 71.8403C88.687 71.288 88.2393 70.8403 87.687 70.8403C87.1347 70.8403 86.687 71.288 86.687 71.8403C86.687 72.3926 87.1347 72.8403 87.687 72.8403Z" fill="#969DA6"/>
<path d="M97.0273 72.8403C97.5796 72.8403 98.0273 72.3926 98.0273 71.8403C98.0273 71.288 97.5796 70.8403 97.0273 70.8403C96.4751 70.8403 96.0273 71.288 96.0273 71.8403C96.0273 72.3926 96.4751 72.8403 97.0273 72.8403Z" fill="#969DA6"/>
<path d="M12.9731 80.2109C13.5254 80.2109 13.9731 79.7632 13.9731 79.2109C13.9731 78.6587 13.5254 78.2109 12.9731 78.2109C12.4209 78.2109 11.9731 78.6587 11.9731 79.2109C11.9731 79.7632 12.4209 80.2109 12.9731 80.2109Z" fill="#969DA6"/>
<path d="M22.313 80.2109C22.8653 80.2109 23.313 79.7632 23.313 79.2109C23.313 78.6587 22.8653 78.2109 22.313 78.2109C21.7607 78.2109 21.313 78.6587 21.313 79.2109C21.313 79.7632 21.7607 80.2109 22.313 80.2109Z" fill="#969DA6"/>
<path d="M31.6533 80.2109C32.2056 80.2109 32.6533 79.7632 32.6533 79.2109C32.6533 78.6587 32.2056 78.2109 31.6533 78.2109C31.101 78.2109 30.6533 78.6587 30.6533 79.2109C30.6533 79.7632 31.101 80.2109 31.6533 80.2109Z" fill="#969DA6"/>
<path d="M40.9932 80.2109C41.5454 80.2109 41.9932 79.7632 41.9932 79.2109C41.9932 78.6587 41.5454 78.2109 40.9932 78.2109C40.4409 78.2109 39.9932 78.6587 39.9932 79.2109C39.9932 79.7632 40.4409 80.2109 40.9932 80.2109Z" fill="#969DA6"/>
<path d="M50.333 80.2109C50.8853 80.2109 51.333 79.7632 51.333 79.2109C51.333 78.6587 50.8853 78.2109 50.333 78.2109C49.7807 78.2109 49.333 78.6587 49.333 79.2109C49.333 79.7632 49.7807 80.2109 50.333 80.2109Z" fill="#969DA6"/>
<path d="M59.667 80.2109C60.2193 80.2109 60.667 79.7632 60.667 79.2109C60.667 78.6587 60.2193 78.2109 59.667 78.2109C59.1147 78.2109 58.667 78.6587 58.667 79.2109C58.667 79.7632 59.1147 80.2109 59.667 80.2109Z" fill="#969DA6"/>
<path d="M69.0073 80.2109C69.5596 80.2109 70.0073 79.7632 70.0073 79.2109C70.0073 78.6587 69.5596 78.2109 69.0073 78.2109C68.455 78.2109 68.0073 78.6587 68.0073 79.2109C68.0073 79.7632 68.455 80.2109 69.0073 80.2109Z" fill="#969DA6"/>
<path d="M78.3472 80.2109C78.8995 80.2109 79.3472 79.7632 79.3472 79.2109C79.3472 78.6587 78.8995 78.2109 78.3472 78.2109C77.7949 78.2109 77.3472 78.6587 77.3472 79.2109C77.3472 79.7632 77.7949 80.2109 78.3472 80.2109Z" fill="#969DA6"/>
<path d="M87.687 80.2109C88.2393 80.2109 88.687 79.7632 88.687 79.2109C88.687 78.6587 88.2393 78.2109 87.687 78.2109C87.1347 78.2109 86.687 78.6587 86.687 79.2109C86.687 79.7632 87.1347 80.2109 87.687 80.2109Z" fill="#969DA6"/>
<path d="M97.0273 80.2109C97.5796 80.2109 98.0273 79.7632 98.0273 79.2109C98.0273 78.6587 97.5796 78.2109 97.0273 78.2109C96.4751 78.2109 96.0273 78.6587 96.0273 79.2109C96.0273 79.7632 96.4751 80.2109 97.0273 80.2109Z" fill="#969DA6"/>
<path d="M12.9731 87.582C13.5254 87.582 13.9731 87.1343 13.9731 86.582C13.9731 86.0297 13.5254 85.582 12.9731 85.582C12.4209 85.582 11.9731 86.0297 11.9731 86.582C11.9731 87.1343 12.4209 87.582 12.9731 87.582Z" fill="#969DA6"/>
<path d="M22.313 87.582C22.8653 87.582 23.313 87.1343 23.313 86.582C23.313 86.0297 22.8653 85.582 22.313 85.582C21.7607 85.582 21.313 86.0297 21.313 86.582C21.313 87.1343 21.7607 87.582 22.313 87.582Z" fill="#969DA6"/>
<path d="M31.6533 87.582C32.2056 87.582 32.6533 87.1343 32.6533 86.582C32.6533 86.0297 32.2056 85.582 31.6533 85.582C31.101 85.582 30.6533 86.0297 30.6533 86.582C30.6533 87.1343 31.101 87.582 31.6533 87.582Z" fill="#969DA6"/>
<path d="M40.9932 87.582C41.5454 87.582 41.9932 87.1343 41.9932 86.582C41.9932 86.0297 41.5454 85.582 40.9932 85.582C40.4409 85.582 39.9932 86.0297 39.9932 86.582C39.9932 87.1343 40.4409 87.582 40.9932 87.582Z" fill="#969DA6"/>
<path d="M50.333 87.582C50.8853 87.582 51.333 87.1343 51.333 86.582C51.333 86.0297 50.8853 85.582 50.333 85.582C49.7807 85.582 49.333 86.0297 49.333 86.582C49.333 87.1343 49.7807 87.582 50.333 87.582Z" fill="#969DA6"/>
<path d="M59.667 87.582C60.2193 87.582 60.667 87.1343 60.667 86.582C60.667 86.0297 60.2193 85.582 59.667 85.582C59.1147 85.582 58.667 86.0297 58.667 86.582C58.667 87.1343 59.1147 87.582 59.667 87.582Z" fill="#969DA6"/>
<path d="M69.0073 87.582C69.5596 87.582 70.0073 87.1343 70.0073 86.582C70.0073 86.0297 69.5596 85.582 69.0073 85.582C68.455 85.582 68.0073 86.0297 68.0073 86.582C68.0073 87.1343 68.455 87.582 69.0073 87.582Z" fill="#969DA6"/>
<path d="M78.3472 87.582C78.8995 87.582 79.3472 87.1343 79.3472 86.582C79.3472 86.0297 78.8995 85.582 78.3472 85.582C77.7949 85.582 77.3472 86.0297 77.3472 86.582C77.3472 87.1343 77.7949 87.582 78.3472 87.582Z" fill="#969DA6"/>
<path d="M87.687 87.582C88.2393 87.582 88.687 87.1343 88.687 86.582C88.687 86.0297 88.2393 85.582 87.687 85.582C87.1347 85.582 86.687 86.0297 86.687 86.582C86.687 87.1343 87.1347 87.582 87.687 87.582Z" fill="#969DA6"/>
<path d="M97.0273 87.582C97.5796 87.582 98.0273 87.1343 98.0273 86.582C98.0273 86.0297 97.5796 85.582 97.0273 85.582C96.4751 85.582 96.0273 86.0297 96.0273 86.582C96.0273 87.1343 96.4751 87.582 97.0273 87.582Z" fill="#969DA6"/>
<path d="M12.9731 94.9541C13.5254 94.9541 13.9731 94.5064 13.9731 93.9541C13.9731 93.4018 13.5254 92.9541 12.9731 92.9541C12.4209 92.9541 11.9731 93.4018 11.9731 93.9541C11.9731 94.5064 12.4209 94.9541 12.9731 94.9541Z" fill="#969DA6"/>
<path d="M22.313 94.9541C22.8653 94.9541 23.313 94.5064 23.313 93.9541C23.313 93.4018 22.8653 92.9541 22.313 92.9541C21.7607 92.9541 21.313 93.4018 21.313 93.9541C21.313 94.5064 21.7607 94.9541 22.313 94.9541Z" fill="#969DA6"/>
<path d="M31.6533 94.9541C32.2056 94.9541 32.6533 94.5064 32.6533 93.9541C32.6533 93.4018 32.2056 92.9541 31.6533 92.9541C31.101 92.9541 30.6533 93.4018 30.6533 93.9541C30.6533 94.5064 31.101 94.9541 31.6533 94.9541Z" fill="#969DA6"/>
<path d="M40.9932 94.9541C41.5454 94.9541 41.9932 94.5064 41.9932 93.9541C41.9932 93.4018 41.5454 92.9541 40.9932 92.9541C40.4409 92.9541 39.9932 93.4018 39.9932 93.9541C39.9932 94.5064 40.4409 94.9541 40.9932 94.9541Z" fill="#969DA6"/>
<path d="M50.333 94.9541C50.8853 94.9541 51.333 94.5064 51.333 93.9541C51.333 93.4018 50.8853 92.9541 50.333 92.9541C49.7807 92.9541 49.333 93.4018 49.333 93.9541C49.333 94.5064 49.7807 94.9541 50.333 94.9541Z" fill="#969DA6"/>
<path d="M59.667 94.9541C60.2193 94.9541 60.667 94.5064 60.667 93.9541C60.667 93.4018 60.2193 92.9541 59.667 92.9541C59.1147 92.9541 58.667 93.4018 58.667 93.9541C58.667 94.5064 59.1147 94.9541 59.667 94.9541Z" fill="#969DA6"/>
<path d="M69.0073 94.9541C69.5596 94.9541 70.0073 94.5064 70.0073 93.9541C70.0073 93.4018 69.5596 92.9541 69.0073 92.9541C68.455 92.9541 68.0073 93.4018 68.0073 93.9541C68.0073 94.5064 68.455 94.9541 69.0073 94.9541Z" fill="#969DA6"/>
<path d="M78.3472 94.9541C78.8995 94.9541 79.3472 94.5064 79.3472 93.9541C79.3472 93.4018 78.8995 92.9541 78.3472 92.9541C77.7949 92.9541 77.3472 93.4018 77.3472 93.9541C77.3472 94.5064 77.7949 94.9541 78.3472 94.9541Z" fill="#969DA6"/>
<path d="M87.687 94.9541C88.2393 94.9541 88.687 94.5064 88.687 93.9541C88.687 93.4018 88.2393 92.9541 87.687 92.9541C87.1347 92.9541 86.687 93.4018 86.687 93.9541C86.687 94.5064 87.1347 94.9541 87.687 94.9541Z" fill="#969DA6"/>
<path d="M97.0273 94.9541C97.5796 94.9541 98.0273 94.5064 98.0273 93.9541C98.0273 93.4018 97.5796 92.9541 97.0273 92.9541C96.4751 92.9541 96.0273 93.4018 96.0273 93.9541C96.0273 94.5064 96.4751 94.9541 97.0273 94.9541Z" fill="#969DA6"/>
<path d="M12.9731 102.325C13.5254 102.325 13.9731 101.877 13.9731 101.325C13.9731 100.773 13.5254 100.325 12.9731 100.325C12.4209 100.325 11.9731 100.773 11.9731 101.325C11.9731 101.877 12.4209 102.325 12.9731 102.325Z" fill="#969DA6"/>
<path d="M22.313 102.325C22.8653 102.325 23.313 101.877 23.313 101.325C23.313 100.773 22.8653 100.325 22.313 100.325C21.7607 100.325 21.313 100.773 21.313 101.325C21.313 101.877 21.7607 102.325 22.313 102.325Z" fill="#969DA6"/>
<path d="M31.6533 102.325C32.2056 102.325 32.6533 101.877 32.6533 101.325C32.6533 100.773 32.2056 100.325 31.6533 100.325C31.101 100.325 30.6533 100.773 30.6533 101.325C30.6533 101.877 31.101 102.325 31.6533 102.325Z" fill="#969DA6"/>
<path d="M40.9932 102.325C41.5454 102.325 41.9932 101.877 41.9932 101.325C41.9932 100.773 41.5454 100.325 40.9932 100.325C40.4409 100.325 39.9932 100.773 39.9932 101.325C39.9932 101.877 40.4409 102.325 40.9932 102.325Z" fill="#969DA6"/>
<path d="M50.333 102.325C50.8853 102.325 51.333 101.877 51.333 101.325C51.333 100.773 50.8853 100.325 50.333 100.325C49.7807 100.325 49.333 100.773 49.333 101.325C49.333 101.877 49.7807 102.325 50.333 102.325Z" fill="#969DA6"/>
<path d="M59.667 102.325C60.2193 102.325 60.667 101.877 60.667 101.325C60.667 100.773 60.2193 100.325 59.667 100.325C59.1147 100.325 58.667 100.773 58.667 101.325C58.667 101.877 59.1147 102.325 59.667 102.325Z" fill="#969DA6"/>
<path d="M69.0073 102.325C69.5596 102.325 70.0073 101.877 70.0073 101.325C70.0073 100.773 69.5596 100.325 69.0073 100.325C68.455 100.325 68.0073 100.773 68.0073 101.325C68.0073 101.877 68.455 102.325 69.0073 102.325Z" fill="#969DA6"/>
<path d="M78.3472 102.325C78.8995 102.325 79.3472 101.877 79.3472 101.325C79.3472 100.773 78.8995 100.325 78.3472 100.325C77.7949 100.325 77.3472 100.773 77.3472 101.325C77.3472 101.877 77.7949 102.325 78.3472 102.325Z" fill="#969DA6"/>
<path d="M87.687 102.325C88.2393 102.325 88.687 101.877 88.687 101.325C88.687 100.773 88.2393 100.325 87.687 100.325C87.1347 100.325 86.687 100.773 86.687 101.325C86.687 101.877 87.1347 102.325 87.687 102.325Z" fill="#969DA6"/>
<path d="M97.0273 102.325C97.5796 102.325 98.0273 101.877 98.0273 101.325C98.0273 100.773 97.5796 100.325 97.0273 100.325C96.4751 100.325 96.0273 100.773 96.0273 101.325C96.0273 101.877 96.4751 102.325 97.0273 102.325Z" fill="#969DA6"/>
<path d="M12.9731 109.703C13.5254 109.703 13.9731 109.255 13.9731 108.703C13.9731 108.151 13.5254 107.703 12.9731 107.703C12.4209 107.703 11.9731 108.151 11.9731 108.703C11.9731 109.255 12.4209 109.703 12.9731 109.703Z" fill="#969DA6"/>
<path d="M22.313 109.703C22.8653 109.703 23.313 109.255 23.313 108.703C23.313 108.151 22.8653 107.703 22.313 107.703C21.7607 107.703 21.313 108.151 21.313 108.703C21.313 109.255 21.7607 109.703 22.313 109.703Z" fill="#969DA6"/>
<path d="M31.6533 109.703C32.2056 109.703 32.6533 109.255 32.6533 108.703C32.6533 108.151 32.2056 107.703 31.6533 107.703C31.101 107.703 30.6533 108.151 30.6533 108.703C30.6533 109.255 31.101 109.703 31.6533 109.703Z" fill="#969DA6"/>
<path d="M40.9932 109.703C41.5454 109.703 41.9932 109.255 41.9932 108.703C41.9932 108.151 41.5454 107.703 40.9932 107.703C40.4409 107.703 39.9932 108.151 39.9932 108.703C39.9932 109.255 40.4409 109.703 40.9932 109.703Z" fill="#969DA6"/>
<path d="M50.333 109.703C50.8853 109.703 51.333 109.255 51.333 108.703C51.333 108.151 50.8853 107.703 50.333 107.703C49.7807 107.703 49.333 108.151 49.333 108.703C49.333 109.255 49.7807 109.703 50.333 109.703Z" fill="#969DA6"/>
<path d="M59.667 109.703C60.2193 109.703 60.667 109.255 60.667 108.703C60.667 108.151 60.2193 107.703 59.667 107.703C59.1147 107.703 58.667 108.151 58.667 108.703C58.667 109.255 59.1147 109.703 59.667 109.703Z" fill="#969DA6"/>
<path d="M69.0073 109.703C69.5596 109.703 70.0073 109.255 70.0073 108.703C70.0073 108.151 69.5596 107.703 69.0073 107.703C68.455 107.703 68.0073 108.151 68.0073 108.703C68.0073 109.255 68.455 109.703 69.0073 109.703Z" fill="#969DA6"/>
<path d="M78.3472 109.703C78.8995 109.703 79.3472 109.255 79.3472 108.703C79.3472 108.151 78.8995 107.703 78.3472 107.703C77.7949 107.703 77.3472 108.151 77.3472 108.703C77.3472 109.255 77.7949 109.703 78.3472 109.703Z" fill="#969DA6"/>
<path d="M87.687 109.703C88.2393 109.703 88.687 109.255 88.687 108.703C88.687 108.151 88.2393 107.703 87.687 107.703C87.1347 107.703 86.687 108.151 86.687 108.703C86.687 109.255 87.1347 109.703 87.687 109.703Z" fill="#969DA6"/>
<path d="M97.0273 109.703C97.5796 109.703 98.0273 109.255 98.0273 108.703C98.0273 108.151 97.5796 107.703 97.0273 107.703C96.4751 107.703 96.0273 108.151 96.0273 108.703C96.0273 109.255 96.4751 109.703 97.0273 109.703Z" fill="#969DA6"/>
<path d="M12.9731 117.074C13.5254 117.074 13.9731 116.627 13.9731 116.074C13.9731 115.522 13.5254 115.074 12.9731 115.074C12.4209 115.074 11.9731 115.522 11.9731 116.074C11.9731 116.627 12.4209 117.074 12.9731 117.074Z" fill="#969DA6"/>
<path d="M22.313 117.074C22.8653 117.074 23.313 116.627 23.313 116.074C23.313 115.522 22.8653 115.074 22.313 115.074C21.7607 115.074 21.313 115.522 21.313 116.074C21.313 116.627 21.7607 117.074 22.313 117.074Z" fill="#969DA6"/>
<path d="M31.6533 117.074C32.2056 117.074 32.6533 116.627 32.6533 116.074C32.6533 115.522 32.2056 115.074 31.6533 115.074C31.101 115.074 30.6533 115.522 30.6533 116.074C30.6533 116.627 31.101 117.074 31.6533 117.074Z" fill="#969DA6"/>
<path d="M40.9932 117.074C41.5454 117.074 41.9932 116.627 41.9932 116.074C41.9932 115.522 41.5454 115.074 40.9932 115.074C40.4409 115.074 39.9932 115.522 39.9932 116.074C39.9932 116.627 40.4409 117.074 40.9932 117.074Z" fill="#969DA6"/>
<path d="M50.333 117.074C50.8853 117.074 51.333 116.627 51.333 116.074C51.333 115.522 50.8853 115.074 50.333 115.074C49.7807 115.074 49.333 115.522 49.333 116.074C49.333 116.627 49.7807 117.074 50.333 117.074Z" fill="#969DA6"/>
<path d="M59.667 117.074C60.2193 117.074 60.667 116.627 60.667 116.074C60.667 115.522 60.2193 115.074 59.667 115.074C59.1147 115.074 58.667 115.522 58.667 116.074C58.667 116.627 59.1147 117.074 59.667 117.074Z" fill="#969DA6"/>
<path d="M69.0073 117.074C69.5596 117.074 70.0073 116.627 70.0073 116.074C70.0073 115.522 69.5596 115.074 69.0073 115.074C68.455 115.074 68.0073 115.522 68.0073 116.074C68.0073 116.627 68.455 117.074 69.0073 117.074Z" fill="#969DA6"/>
<path d="M78.3472 117.074C78.8995 117.074 79.3472 116.627 79.3472 116.074C79.3472 115.522 78.8995 115.074 78.3472 115.074C77.7949 115.074 77.3472 115.522 77.3472 116.074C77.3472 116.627 77.7949 117.074 78.3472 117.074Z" fill="#969DA6"/>
<path d="M87.687 117.074C88.2393 117.074 88.687 116.627 88.687 116.074C88.687 115.522 88.2393 115.074 87.687 115.074C87.1347 115.074 86.687 115.522 86.687 116.074C86.687 116.627 87.1347 117.074 87.687 117.074Z" fill="#969DA6"/>
<path d="M97.0273 117.074C97.5796 117.074 98.0273 116.627 98.0273 116.074C98.0273 115.522 97.5796 115.074 97.0273 115.074C96.4751 115.074 96.0273 115.522 96.0273 116.074C96.0273 116.627 96.4751 117.074 97.0273 117.074Z" fill="#969DA6"/>
</g>
<path d="M80 19.2109H278V149.211H80V19.2109Z" fill="#F7F8FA" stroke="#E9EBEE" stroke-width="0.643"/>
<g opacity="0.5">
<path d="M94.314 38.958H192.505M94.314 47.624H192.505M94.314 56.284H192.505M94.314 64.951H192.505M192.505 73.618H99.733" stroke="#E9EBEE" stroke-width="0.643"/>
</g>
<path d="M216.906 102.211H213.094C212.49 102.211 212 102.701 212 103.305V127.117C212 127.721 212.49 128.211 213.094 128.211H216.906C217.51 128.211 218 127.721 218 127.117V103.305C218 102.701 217.51 102.211 216.906 102.211Z" fill="#FF4702"/>
<path d="M240.906 110.211H237.094C236.49 110.211 236 110.701 236 111.305V127.117C236 127.721 236.49 128.211 237.094 128.211H240.906C241.51 128.211 242 127.721 242 127.117V111.305C242 110.701 241.51 110.211 240.906 110.211Z" fill="#FF4702"/>
<path d="M228.906 93.2109H225.094C224.49 93.2109 224 93.7007 224 94.3049V127.117C224 127.721 224.49 128.211 225.094 128.211H228.906C229.51 128.211 230 127.721 230 127.117V94.3049C230 93.7007 229.51 93.2109 228.906 93.2109Z" fill="#3C4D6F"/>
<path d="M252.906 98.2109H249.094C248.49 98.2109 248 98.7007 248 99.3049V127.117C248 127.721 248.49 128.211 249.094 128.211H252.906C253.51 128.211 254 127.721 254 127.117V99.3049C254 98.7007 253.51 98.2109 252.906 98.2109Z" fill="#3C4D6F"/>
<g opacity="0.5">
<path d="M94.314 93.1377H192.505M94.314 101.804H192.505M94.314 110.471H192.505M94.314 119.131H192.505M192.505 127.798H94.315" stroke="#E9EBEE" stroke-width="0.643"/>
</g>
<path d="M96 127.211C96 127.211 103.318 100.064 121.807 118.46C126.655 123.285 133.617 127.258 139.807 122.42C144.037 119.11 146.42 114.027 148.118 109.039C150.314 102.616 152.818 94.2229 160.304 92.4359C166.299 91.0079 170.744 96.6529 173.382 101.235C176.142 106.054 179.84 118.311 187.138 118.033C190.932 117.885 193.382 113.6 194.684 110.487C194.792 110.223 194.899 109.959 195 109.688" stroke="#FF4702" stroke-width="0.643"/>
<path d="M108 114.211C109.105 114.211 110 113.316 110 112.211C110 111.106 109.105 110.211 108 110.211C106.895 110.211 106 111.106 106 112.211C106 113.316 106.895 114.211 108 114.211Z" fill="#FF4702" stroke="white" stroke-width="0.643"/>
<path d="M133 127.211C134.105 127.211 135 126.316 135 125.211C135 124.106 134.105 123.211 133 123.211C131.895 123.211 131 124.106 131 125.211C131 126.316 131.895 127.211 133 127.211Z" fill="#FF4702" stroke="white" stroke-width="0.643"/>
<path d="M162 94.2109C163.105 94.2109 164 93.3155 164 92.2109C164 91.1064 163.105 90.2109 162 90.2109C160.895 90.2109 160 91.1064 160 92.2109C160 93.3155 160.895 94.2109 162 94.2109Z" fill="#FF4702" stroke="white" stroke-width="0.643"/>
<path d="M187 120.211C188.105 120.211 189 119.316 189 118.211C189 117.106 188.105 116.211 187 116.211C185.895 116.211 185 117.106 185 118.211C185 119.316 185.895 120.211 187 120.211Z" fill="#FF4702" stroke="white" stroke-width="0.643"/>
<path d="M186 126.649C186 126.649 176.173 106.924 165.206 118.758C154.239 130.591 150.898 125.086 137.999 110.304C124.725 95.084 112 127.211 112 127.211" stroke="#3C4D6F" stroke-width="0.643"/>
<path d="M172 116.211C173.105 116.211 174 115.316 174 114.211C174 113.106 173.105 112.211 172 112.211C170.895 112.211 170 113.106 170 114.211C170 115.316 170.895 116.211 172 116.211Z" fill="#3C4D6F" stroke="white" stroke-width="0.643"/>
<path d="M144 119.211C145.105 119.211 146 118.316 146 117.211C146 116.106 145.105 115.211 144 115.211C142.895 115.211 142 116.106 142 117.211C142 118.316 142.895 119.211 144 119.211Z" fill="#3C4D6F" stroke="white" stroke-width="0.643"/>
<path d="M130 108.211C131.105 108.211 132 107.316 132 106.211C132 105.106 131.105 104.211 130 104.211C128.895 104.211 128 105.106 128 106.211C128 107.316 128.895 108.211 130 108.211Z" fill="#3C4D6F" stroke="white" stroke-width="0.643"/>
<path d="M224 54.2109C228.418 54.2109 232 50.6292 232 46.2109C232 41.7927 228.418 38.2109 224 38.2109C219.582 38.2109 216 41.7927 216 46.2109C216 50.6292 219.582 54.2109 224 54.2109Z" stroke="#E9EBEE" stroke-width="1.93"/>
<path d="M224 74.2109C228.418 74.2109 232 70.6292 232 66.2109C232 61.7927 228.418 58.2109 224 58.2109C219.582 58.2109 216 61.7927 216 66.2109C216 70.6292 219.582 74.2109 224 74.2109Z" stroke="#E9EBEE" stroke-width="1.93"/>
<path d="M232 45.2109C232 46.7932 231.531 48.3399 230.652 49.6555C229.773 50.9711 228.523 51.9965 227.061 52.602C225.6 53.2075 223.991 53.3659 222.439 53.0572C220.887 52.7485 219.462 51.9866 218.343 50.8678C217.224 49.749 216.462 48.3235 216.154 46.7717C215.845 45.2198 216.003 43.6113 216.609 42.1495C217.214 40.6877 218.24 39.4382 219.555 38.5592C220.871 37.6801 222.418 37.2109 224 37.2109" stroke="#FF4702" stroke-width="1.93"/>
<path d="M224 75.2109C222.418 75.2109 220.871 74.7417 219.555 73.8627C218.24 72.9836 217.214 71.7342 216.609 70.2724C216.003 68.8106 215.845 67.2021 216.154 65.6502C216.462 64.0984 217.224 62.6729 218.343 61.5541C219.462 60.4353 220.887 59.6733 222.439 59.3647C223.991 59.056 225.6 59.2144 227.061 59.8199C228.523 60.4254 229.773 61.4508 230.652 62.7664C231.531 64.082 232 65.6287 232 67.2109" stroke="#3C4D6F" stroke-width="1.93"/>
<path d="M240 39.2109H264V41.2109H240V39.2109ZM240 43.2109H259V45.2109H240V43.2109ZM239 48.2109H262V50.2109H239V48.2109ZM240 61.2109H264V63.2109H240V61.2109ZM240 66.2109H259V68.2109H240V66.2109ZM239 70.2109H262V72.2109H239V70.2109Z" fill="#E9EBEE"/>
<path d="M97 73.2039C97 73.2039 109.419 44.3769 123.151 56.2539C136.489 67.7939 143.671 74.6429 152.816 64.4739C167.616 48.0189 166.724 15.1389 188 73.2109L97 73.2039Z" fill="#FF4702"/>
<path d="M108 73.2108C108 73.2108 113.93 58.2848 121.295 63.8368C132.476 72.2298 137.05 56.9298 145.685 60.8738C152.957 64.1988 155.343 73.2108 161.439 68.7688C167.535 64.3278 175 73.2108 175 73.2108H108Z" fill="#3C4D6F"/>
<path opacity="0.4" d="M45.5 204.211C57.3741 204.211 67 202.868 67 201.211C67 199.554 57.3741 198.211 45.5 198.211C33.6259 198.211 24 199.554 24 201.211C24 202.868 33.6259 204.211 45.5 204.211Z" fill="#DBEEFE"/>
<path opacity="0.4" d="M305 204.211C317.15 204.211 327 202.868 327 201.211C327 199.554 317.15 198.211 305 198.211C292.85 198.211 283 199.554 283 201.211C283 202.868 292.85 204.211 305 204.211Z" fill="#DBEEFE"/>
<path d="M299.114 81.4789L284.023 85.7689L279.881 65.5349L278 65.2109L278.46 90.9759C284.639 91.7049 294.58 90.5309 299.438 90.2609L300 86.7339L299.114 81.4789Z" fill="#FCF4F4"/>
<path d="M278.083 64.8829L280 65.2109L279.98 63.0249L278.082 60.2109L277.999 61.1739L278.227 63.4349L278.083 64.8829Z" fill="#FAC7D4"/>
<path d="M75 146.211H286V151.211H75V146.211ZM77 17.2109H281V25.2109H77V17.2109Z" fill="#BEC3CE"/>
<path d="M75 16.2109H81V27.2109H75V16.2109ZM279 16.2109H285V27.2109H279V16.2109Z" fill="#BEC3CE"/>
<path d="M278 104.211C285.18 104.211 291 98.3906 291 91.2109C291 84.0312 285.18 78.2109 278 78.2109C270.82 78.2109 265 84.0312 265 91.2109C265 98.3906 270.82 104.211 278 104.211Z" fill="#68758E"/>
<path d="M276.033 88.2109L281 91.1979L276 94.2109L276.033 88.2109Z" fill="white"/>
<path d="M49.796 84.2109L61.171 95.7379L78.661 89.0149L80 90.9749L60.696 101.211C54.99 98.8839 50.874 95.7509 49 94.7549L49.114 89.0429L49.796 84.2109Z" fill="#F4FCF8"/>
<path opacity="0.3" d="M49.293 94.1529L49 90.2109C49 90.2109 55.893 96.2759 60.977 98.1719L80 90.5339L60.804 100.211C60.804 100.211 53.305 96.9269 49.293 94.1529V94.1529Z" fill="#00B3CC"/>
<path d="M79 88.3139L82.31 86.6019L83.7 86.2109L84.954 86.5809L86 88.4339L80.669 90.2109L79 88.3139Z" fill="#FFC9D5"/>
<path d="M36.2872 76.2109L26.8072 77.5049C26.8072 77.5049 17.4802 88.1679 28.0232 123.211L48.4682 120.05L50.0002 83.9609L43.9532 79.5869L36.2872 76.2109Z" fill="#F4FCF8"/>
<path d="M39.09 71.2109C39.09 71.2109 38.745 74.1029 37 75.8009C37 75.8009 40.365 81.2109 43.056 81.2109C44.1111 80.2967 44.8013 79.0328 45 77.6509L39.09 71.2109Z" fill="#F0939E"/>
<path d="M28.545 122.353L27 132.179C27 132.179 27.423 178.467 31.608 196.211H34.335C34.335 196.211 39.372 154.244 40.105 144.692L41.475 135.475L52 127.631C52 127.631 49.83 120.008 48.984 119.211L28.544 122.353H28.545Z" fill="#518178"/>
<path d="M41.273 135.991L40 144.223C40 144.223 44.625 173.11 51.206 196.211L54 195.168L52.059 128.211L41.273 135.991V135.991Z" fill="#21443D"/>
<path d="M32 196.211V200.211H42L34.656 196.211H32ZM51 196.231L51.345 200.211H62L53.74 195.211L51 196.231Z" fill="#009BB0"/>
<path d="M44.217 79.4649C43.9285 80.2808 43.4309 81.0067 42.774 81.5699C42.774 81.5699 40.517 81.8609 37 76.2109C37 76.2109 37.441 82.5179 42.673 83.1679C46.763 83.6809 44.217 79.4649 44.217 79.4649V79.4649Z" fill="#00B3CC"/>
<path d="M51.9999 61.3689C51.9999 61.3689 49.7559 78.2109 46.1109 78.2109C42.4669 78.2109 39.2879 73.5259 39.0169 70.6519C38.7459 67.7779 41.8159 58.2109 42.7499 58.2109C43.6839 58.2109 51.9999 61.3689 51.9999 61.3689Z" fill="#FFC9D5"/>
<path d="M52 61.5529L51.346 65.2799C51.346 65.2799 45.713 61.2059 42.651 63.4169C42.651 63.4169 42.945 65.3449 39 68.2109C39 68.2109 40.511 59.7789 42.54 58.2109C45.806 58.976 48.9782 60.0967 52 61.5529V61.5529Z" fill="#283A5E"/>
<path d="M51 64.6409C51 64.6409 43.917 61.8249 42.65 63.1549C42.65 63.1549 41.592 68.6579 38 70.2109L40.447 63.4589L43.233 61.2109L49.258 62.1829L51 64.6409Z" fill="#E86578"/>
<path d="M38.613 70.2108C38.613 70.2108 36 67.0448 36 64.1968C36 61.5468 38.025 57.4018 39.847 56.6398C42.329 55.5938 53.857 56.2828 52.949 60.7068C52.041 65.1308 51.12 64.7468 51.12 64.7468C51.12 64.7468 44.791 61.1238 42.44 62.8268C42.3626 64.2587 41.9813 65.6577 41.3215 66.9308C40.6616 68.204 39.7383 69.3221 38.613 70.2108V70.2108Z" fill="#283A5E"/>
<path d="M24 102.211C24.8074 109.333 26.2795 116.363 28.397 123.211L42 121.027C42 121.027 27.891 122.246 24 102.211Z" fill="#00B3CC"/>
<path d="M80.5 105.211C87.9558 105.211 94 99.1668 94 91.7109C94 84.2551 87.9558 78.2109 80.5 78.2109C73.0442 78.2109 67 84.2551 67 91.7109C67 99.1668 73.0442 105.211 80.5 105.211Z" fill="#C8CED6"/>
<path d="M81.969 95.2109L77 91.7249L82 88.2109L81.969 95.2109Z" fill="white"/>
<path d="M30.963 86.2109L48.712 101.721L67 100.235V102.709L46.803 107.211C46.803 107.211 32.918 102.48 29 97.8329C29.24 93.9029 29.897 90.0069 30.963 86.2109Z" fill="#F4FCF8"/>
<path d="M67 100.579L68.474 98.2109L69.06 99.6229L74 99.8369L71.792 102.819L67 103.211V100.579Z" fill="#FFC9D5"/>
<path opacity="0.3" d="M27.0521 77.2109C29.8881 87.9689 41.1371 95.0819 48.6141 101.819L67.0001 100.293L47.6051 103.211L31.4861 91.2699C31.4861 91.2699 26.4361 79.3759 27.0521 77.2109Z" fill="#00B3CC"/>
<path d="M67 102.693L46.962 107.211C46.962 107.211 34.898 102.319 34 101.163L47.2 106.732C47.2 106.732 59.199 102.693 67 100.211V102.693Z" fill="#00B3CC"/>
<path d="M314.715 65.0419C314.715 65.0419 314.636 69.7439 323.562 74.3519C324.707 74.9439 325.761 75.5019 326.736 76.0479C335.361 80.8489 332.861 94.2949 323.065 95.1729C322.478 95.242 321.884 95.2173 321.305 95.0999C318.255 94.4009 321.37 88.1499 319.197 84.2139C314.76 76.1739 307.157 71.5789 313.307 64.2109" fill="#171C2E"/>
<path d="M313.08 75.2109L321.277 77.2659C321.277 77.2659 324.754 78.5859 321.83 96.6079C321.147 100.711 320.532 106.24 321.625 115.211L303.297 112.1L299.492 95.3529L299.307 90.2199L299 81.6319L301.87 80.9189L305.148 78.6189L313.08 75.2109Z" fill="#FCF4F4"/>
<path d="M321.337 114.419C323.461 118.693 324.06 120.122 325 123.357C325 123.357 322.495 178.2 318.192 196.211H315.4C315.4 196.211 310.226 153.607 309.47 143.911L308.054 131.161L300 119.753C300 119.753 302.233 112.016 303.098 111.211L321.338 114.419H321.337Z" fill="#4E74AC"/>
<path d="M302 102.211L304.034 111.828L317 114.211C317 114.211 307.251 111.963 302 102.211Z" fill="#ED1941"/>
<path d="M308.74 131.573L310 143.301C310 143.301 305.342 172.673 298.782 196.211L296 195.15L300.685 120.211L308.741 131.573H308.74Z" fill="#1D498C"/>
<path d="M318 196.211V200.211H308L315.346 196.211H318ZM299 196.224L298.66 200.211H288L296.257 195.211L299 196.224Z" fill="#ED1941"/>
<path d="M320.005 80.2109L308.587 98.1869L288 102.911V105.211L309.688 102.964C309.688 102.964 318.023 96.8099 322 92.0719C321.757 88.0583 321.086 84.0821 319.998 80.2109" fill="#FCF4F4"/>
<path d="M288.007 105.211L309.86 102.838C309.86 102.838 319.045 95.4419 320 94.2109L309.631 102.324C309.631 102.059 293.998 104.766 288 103.715L288.007 105.211ZM304.88 78.4649C305.221 78.2409 305.61 78.0849 306.02 78.0099C306.552 77.9719 306.86 79.1699 306.503 80.5729C306.503 80.5729 309.049 80.8609 313 75.2109C313 75.2109 312.503 81.5139 306.608 82.1679C302.021 82.6799 304.881 78.4649 304.881 78.4649" fill="#ED1941"/>
<path d="M310.91 70.2109C310.91 70.2109 311.255 73.1189 313 74.7649C313 74.7649 309.641 80.2109 306.953 80.2109C307.067 79.8479 307.107 79.4655 307.07 79.0868C307.033 78.708 306.92 78.3406 306.738 78.0065C306.555 77.6725 306.307 77.3786 306.009 77.1426C305.71 76.9066 305.367 76.7332 305 76.6329L310.91 70.2109Z" fill="#F2939E"/>
<path d="M306.468 57.4219C301.325 58.9419 297.966 63.5569 299.289 68.8879C300.337 73.1209 301.812 77.2109 303.629 77.2109C307.403 77.2109 310.689 72.3099 310.979 69.3039C311.269 66.2979 308.391 57.2109 307.423 57.2109C307.098 57.2472 306.778 57.3179 306.468 57.4219" fill="#FAC7D4"/>
<path d="M299.066 67.1167C299.066 67.1167 300.869 62.8587 305.456 63.1477C305.456 63.1477 306.612 66.2007 311.152 70.2107C311.152 70.2107 314.427 67.8267 314.932 64.4917C315.436 61.1567 313.169 56.8717 307.668 56.2787C297.674 55.2107 299.066 67.1167 299.066 67.1167Z" fill="#171C2E"/>
<path d="M299 67.156C299 67.156 301.798 63.645 304.683 64.046C304.683 64.046 306.018 67.686 311 70.211C311 70.211 307.08 66.938 305.344 63.237C305.344 63.237 301.23 62.645 299 67.156Z" fill="#E86577"/>
<path d="M288 102.856L287.307 100.211L285.698 101.729L281 102.073L283.208 104.449L288 105.211V102.856Z" fill="#FFC9D5"/>
<path opacity="0.3" d="M288 103.211L308.854 98.3989L317 87.2109L309.537 99.6809L288 103.211Z" fill="#ED1941"/>
</g>
<defs>
<clipPath id="clip0_586_38662">
<rect width="362" height="204" fill="white" transform="translate(0 0.210938)"/>
</clipPath>
</defs>
</svg>
