<svg width="186" height="145" viewBox="0 0 186 145" fill="none" xmlns="http://www.w3.org/2000/svg">
<g clip-path="url(#clip0_586_43395)">
<path d="M160.997 34.8505L162.877 32.9588C163.465 32.3669 164.419 32.3669 165.007 32.9588C165.595 33.5508 165.595 34.5105 165.007 35.1025L163.127 36.9942L165.007 38.8859C165.595 39.4778 165.595 40.4375 165.007 41.0295C164.419 41.6215 163.465 41.6215 162.877 41.0295L160.997 39.1378L159.118 41.0295C158.53 41.6215 157.576 41.6215 156.988 41.0295C156.4 40.4375 156.4 39.4778 156.988 38.8859L158.868 36.9942L156.988 35.1025C156.4 34.5105 156.4 33.5508 156.988 32.9588C157.576 32.3669 158.53 32.3669 159.118 32.9588L160.997 34.8505Z" fill="#F9AF97"/>
<path d="M4.45059 64.9579L6.33015 63.0662C6.91831 62.4742 7.8719 62.4742 8.46006 63.0662C9.04822 63.6581 9.04822 64.6179 8.46006 65.2098L6.5805 67.1015L8.46006 68.9932C9.04822 69.5852 9.04822 70.5449 8.46006 71.1369C7.8719 71.7288 6.91831 71.7288 6.33015 71.1369L4.45059 69.2452L2.57103 71.1369C1.98287 71.7288 1.02928 71.7288 0.441119 71.1369C-0.14704 70.5449 -0.14704 69.5852 0.441119 68.9932L2.32068 67.1015L0.441119 65.2098C-0.14704 64.6179 -0.14704 63.6581 0.441119 63.0662C1.02928 62.4742 1.98287 62.4742 2.57103 63.0662L4.45059 64.9579Z" fill="#F9AF97"/>
<path d="M114.838 10.3275C117.541 10.3275 119.733 8.1219 119.733 5.40117C119.733 2.68044 117.541 0.474854 114.838 0.474854C112.135 0.474854 109.943 2.68044 109.943 5.40117C109.943 8.1219 112.135 10.3275 114.838 10.3275Z" fill="#FFD571"/>
<path d="M24.4738 93.6959C27.1771 93.6959 29.3686 91.4903 29.3686 88.7696C29.3686 86.0489 27.1771 83.8433 24.4738 83.8433C21.7706 83.8433 19.5791 86.0489 19.5791 88.7696C19.5791 91.4903 21.7706 93.6959 24.4738 93.6959Z" fill="#FFD571"/>
<path d="M157.008 105.822C159.711 105.822 161.903 103.617 161.903 100.896C161.903 98.1752 159.711 95.9696 157.008 95.9696C154.305 95.9696 152.113 98.1752 152.113 100.896C152.113 103.617 154.305 105.822 157.008 105.822Z" fill="#FFD571"/>
<path d="M124.616 140.685H120.875C119.828 140.685 118.98 141.534 118.98 142.58C118.98 143.627 119.828 144.475 120.875 144.475H124.616C125.662 144.475 126.51 143.627 126.51 142.58C126.51 141.534 125.662 140.685 124.616 140.685Z" fill="#E6EAEE"/>
<path d="M171.303 140.685H134.429C133.382 140.685 132.534 141.534 132.534 142.58C132.534 143.627 133.382 144.475 134.429 144.475H171.303C172.35 144.475 173.198 143.627 173.198 142.58C173.198 141.534 172.35 140.685 171.303 140.685Z" fill="#E6EAEE"/>
<path d="M26.1472 39.3315C25.589 39.7433 24.7891 39.6422 24.3606 39.1057C23.9322 38.5691 24.0374 37.8003 24.5956 37.3885L29.4292 33.8222L33.7422 36.8346L37.1134 34.3752C37.6739 33.9662 38.4732 34.0715 38.8986 34.6103C39.324 35.1491 39.2145 35.9173 38.654 36.3262L33.7753 39.8854L29.471 36.8791L26.1472 39.3315Z" fill="#E6EAEE"/>
<path d="M169.224 122.7C168.666 123.112 167.866 123.011 167.438 122.474C167.009 121.938 167.115 121.169 167.673 120.757L172.506 117.191L176.819 120.203L180.191 117.744C180.751 117.335 181.55 117.44 181.976 117.979C182.401 118.517 182.292 119.286 181.731 119.695L176.852 123.254L172.548 120.248L169.224 122.7Z" fill="#E6EAEE"/>
<path d="M180.729 75.8854C178.025 75.8854 175.834 73.6798 175.834 70.9591C175.834 68.2383 178.025 66.0327 180.729 66.0327C183.432 66.0327 185.623 68.2383 185.623 70.9591C185.623 73.6798 183.432 75.8854 180.729 75.8854ZM180.729 73.6117C182.184 73.6117 183.364 72.4241 183.364 70.9591C183.364 69.4941 182.184 68.3064 180.729 68.3064C179.273 68.3064 178.093 69.4941 178.093 70.9591C178.093 72.4241 179.273 73.6117 180.729 73.6117Z" fill="#E6EAEE"/>
<path d="M6.77755 121.359C4.07426 121.359 1.88281 119.153 1.88281 116.433C1.88281 113.712 4.07426 111.506 6.77755 111.506C9.48084 111.506 11.6723 113.712 11.6723 116.433C11.6723 119.153 9.48084 121.359 6.77755 121.359ZM6.77755 119.085C8.23317 119.085 9.41318 117.898 9.41318 116.433C9.41318 114.968 8.23317 113.78 6.77755 113.78C5.32193 113.78 4.14192 114.968 4.14192 116.433C4.14192 117.898 5.32193 119.085 6.77755 119.085Z" fill="#E6EAEE"/>
<path d="M128.016 84.9728C128.016 84.349 127.511 83.8433 126.887 83.8433C126.263 83.8433 125.757 84.349 125.757 84.9728V101.661C125.757 102.285 126.263 102.791 126.887 102.791C127.511 102.791 128.016 102.285 128.016 101.661V84.9728Z" fill="white"/>
<path d="M128.016 111.499C128.016 110.875 127.511 110.37 126.887 110.37C126.263 110.37 125.757 110.875 125.757 111.499V115.303C125.757 115.927 126.263 116.433 126.887 116.433C127.511 116.433 128.016 115.927 128.016 115.303V111.499Z" fill="white"/>
<path d="M119.85 130.377C134.43 130.377 146.25 118.432 146.25 103.697C146.25 88.9619 134.43 77.0168 119.85 77.0168C105.269 77.0168 93.4497 88.9619 93.4497 103.697C93.4497 118.432 105.269 130.377 119.85 130.377Z" fill="url(#paint0_linear_586_43395)"/>
<path d="M117.375 127.876C131.955 127.876 143.775 115.931 143.775 101.196C143.775 86.4606 131.955 74.5155 117.375 74.5155C102.795 74.5155 90.9751 86.4606 90.9751 101.196C90.9751 115.931 102.795 127.876 117.375 127.876Z" stroke="#E6EAEE" stroke-width="4"/>
<path d="M118.222 102.842H127.682C128.371 102.842 128.93 103.406 128.93 104.102C128.93 104.799 128.371 105.363 127.682 105.363H117.025C117.008 105.364 116.991 105.364 116.973 105.364C116.893 105.364 116.814 105.357 116.737 105.342C116.158 105.233 115.719 104.719 115.719 104.102C115.719 104.062 115.721 104.023 115.725 103.983V93.2852C115.725 92.5888 116.284 92.0243 116.973 92.0243C117.663 92.0243 118.222 92.5888 118.222 93.2852V102.842Z" fill="#102D5C"/>
<path d="M84.0619 112.111L72.8016 103.922L57.1499 112.111V38.7406L72.8016 46.0434L84.0619 38.7406L97.2865 46.0434L112.425 38.7406V63.4989" stroke="#E6EAEE" stroke-width="4"/>
<path d="M109.125 73.5083C97.322 76.2532 88.4997 87.2338 88.4997 100.362C88.4997 100.919 88.5156 101.473 88.547 102.023L84.1483 104.531L74.2326 97.8906L60.4497 104.531V82.0719V67.7929V45.3342L74.2326 51.9743L84.1483 45.3342L95.7939 51.9743L109.125 45.3342V67.8455V73.5083Z" fill="url(#paint1_linear_586_43395)"/>
<path d="M83.2026 86.7211V84.1915C81.95 84.0322 80.9317 83.7488 80.1477 83.3412C79.3636 82.9337 78.6863 82.2755 78.1157 81.3667C77.5451 80.4579 77.2134 79.3477 77.1206 78.0361L79.6397 77.5582C79.8345 78.9167 80.1778 79.9145 80.6696 80.5516C81.3747 81.4511 82.2191 81.9523 83.2026 82.0553V74.0027C82.1727 73.806 81.1196 73.4031 80.0433 72.7941C79.2453 72.3444 78.6307 71.7214 78.1992 70.925C77.7678 70.1286 77.552 69.2245 77.552 68.2127C77.552 66.4138 78.183 64.957 79.4448 63.8421C80.2892 63.0925 81.5417 62.6335 83.2026 62.4648V61.2562H84.6778V62.4648C86.1345 62.6054 87.2897 63.0363 88.1433 63.7577C89.2381 64.6759 89.8969 65.936 90.1196 67.5381L87.5309 67.9316C87.3825 66.9385 87.074 66.1773 86.6054 65.6479C86.1368 65.1186 85.4943 64.7696 84.6778 64.6009V71.8947C85.9397 72.2132 86.7747 72.4615 87.183 72.6395C87.9624 72.9862 88.5979 73.4078 89.0897 73.9043C89.5814 74.4009 89.9595 74.9911 90.224 75.6751C90.4884 76.359 90.6206 77.0992 90.6206 77.8955C90.6206 79.6475 90.0685 81.1091 88.9644 82.2802C87.8603 83.4513 86.4314 84.079 84.6778 84.1634V86.7211H83.2026ZM83.2026 64.5728C82.2283 64.7227 81.4606 65.1162 80.8992 65.7533C80.3379 66.3904 80.0572 67.1446 80.0572 68.0159C80.0572 68.8779 80.2961 69.5993 80.774 70.1802C81.2518 70.7611 82.0613 71.2248 83.2026 71.5715V64.5728ZM84.6778 82.0553C85.6521 81.9336 86.4569 81.5073 87.0925 80.7765C87.7281 80.0457 88.0459 79.1416 88.0459 78.0642C88.0459 77.146 87.8209 76.4082 87.3709 75.8507C86.9209 75.2933 86.0232 74.7944 84.6778 74.354V82.0553Z" fill="#102D5C"/>
<path d="M58.1835 61.4219L71.5681 88.475C72.3085 89.9716 71.7073 91.791 70.2251 92.5387C69.8087 92.7488 69.3497 92.8581 68.8843 92.8581H42.1152C40.4584 92.8581 39.1152 91.5018 39.1152 89.8288C39.1152 89.3588 39.2235 88.8954 39.4315 88.475L52.8161 61.4219C53.5565 59.9252 55.3583 59.318 56.8405 60.0658C57.4218 60.359 57.8931 60.8349 58.1835 61.4219Z" fill="#F8E203" stroke="#E6EAEE" stroke-width="4" stroke-linecap="round" stroke-linejoin="round"/>
<path d="M54.1144 80.4464L53.7724 75.2737C53.7083 74.2658 53.6763 73.5422 53.6763 73.1031C53.6763 72.5055 53.8312 72.0394 54.1411 71.7046C54.451 71.3698 54.8588 71.2025 55.3646 71.2025C55.9772 71.2025 56.3869 71.4166 56.5935 71.845C56.8 72.2734 56.9033 72.8907 56.9033 73.697C56.9033 74.1722 56.8784 74.6545 56.8285 75.1441L56.3691 80.468C56.3192 81.1016 56.2123 81.5875 56.0485 81.9259C55.8846 82.2642 55.6139 82.4334 55.2364 82.4334C54.8517 82.4334 54.5845 82.2696 54.4349 81.9421C54.2853 81.6145 54.1785 81.116 54.1144 80.4464ZM55.3005 87.5522C54.8659 87.5522 54.4866 87.41 54.1625 87.1256C53.8383 86.8412 53.6763 86.4435 53.6763 85.9323C53.6763 85.486 53.8312 85.1062 54.1411 84.793C54.451 84.4798 54.8303 84.3233 55.2791 84.3233C55.7279 84.3233 56.1108 84.4798 56.4278 84.793C56.7448 85.1062 56.9033 85.486 56.9033 85.9323C56.9033 86.4363 56.7431 86.8322 56.4225 87.1202C56.1019 87.4082 55.7279 87.5522 55.3005 87.5522Z" fill="#102D5C"/>
<path d="M130.76 85.9779C130.162 85.4695 129.779 84.5453 130.329 83.9796C130.968 83.3233 132.077 83.6013 132.675 84.1097C138.073 88.695 140.671 94.293 140.463 100.844C140.442 101.514 139.957 102.198 139.039 102.182C138.12 102.167 137.717 101.514 137.738 100.844C137.927 94.8784 135.609 90.097 130.76 85.9779Z" fill="white"/>
</g>
<defs>
<linearGradient id="paint0_linear_586_43395" x1="100.059" y1="130.332" x2="132.448" y2="81.0343" gradientUnits="userSpaceOnUse">
<stop stop-color="#FFA59B"/>
<stop offset="1" stop-color="#FF6C62"/>
</linearGradient>
<linearGradient id="paint1_linear_586_43395" x1="66.543" y1="95.337" x2="102.061" y2="64.3146" gradientUnits="userSpaceOnUse">
<stop stop-color="#FFA59B"/>
<stop offset="1" stop-color="#FF6C62"/>
</linearGradient>
<clipPath id="clip0_586_43395">
<rect width="186" height="144" fill="white" transform="translate(0 0.474854)"/>
</clipPath>
</defs>
</svg>
