<svg width="207" height="164" viewBox="0 0 207 164" fill="none" xmlns="http://www.w3.org/2000/svg">
<circle cx="81.7467" cy="81.7467" r="81.5895" fill="#F4F8FA" stroke="#F4F8FA" stroke-width="0.31441"/>
<rect x="41.998" y="27.3535" width="147.458" height="92.4367" rx="12.5764" fill="#A0AEC0"/>
<path fill-rule="evenodd" clip-rule="evenodd" d="M124.451 58.6617C126.079 55.9668 127.79 53.1367 129.935 50.4382C131.509 48.4597 133.972 47.4756 136.5 47.4756H193.613C201.599 47.4756 207.563 54.8232 205.92 62.6389L203.92 72.1568H203.891L192.331 140.439C191.307 146.489 186.067 150.917 179.931 150.917H51.1891C45.0625 150.917 39.8273 146.502 38.7932 140.463L29.424 85.7557C28.1083 78.0733 34.0257 71.0563 41.8199 71.0563H112.871C118.279 68.8757 121.203 64.0379 124.451 58.6617Z" fill="#E1E7EF"/>
<circle cx="186.5" cy="131.5" r="19.5" fill="#A0AEC0"/>
<path d="M189.21 122.36C189.21 121.924 189.037 121.507 188.73 121.199C188.422 120.891 188.004 120.718 187.569 120.718C187.133 120.718 186.716 120.891 186.408 121.199C186.1 121.507 185.927 121.924 185.927 122.36V129.474H178.813C178.377 129.474 177.96 129.647 177.652 129.955C177.344 130.262 177.171 130.68 177.171 131.116C177.171 131.551 177.344 131.969 177.652 132.276C177.96 132.584 178.377 132.757 178.813 132.757H185.927V139.871C185.927 140.307 186.1 140.724 186.408 141.032C186.716 141.34 187.133 141.513 187.569 141.513C188.004 141.513 188.422 141.34 188.73 141.032C189.037 140.724 189.21 140.307 189.21 139.871V132.757H196.325C196.76 132.757 197.178 132.584 197.486 132.276C197.793 131.969 197.966 131.551 197.966 131.116C197.966 130.68 197.793 130.262 197.486 129.955C197.178 129.647 196.76 129.474 196.325 129.474H189.21V122.36Z" fill="white"/>
</svg>
