<svg width="55" height="55" viewBox="0 0 55 55" fill="none" xmlns="http://www.w3.org/2000/svg">
<mask id="mask0_4_16364" style="mask-type:luminance" maskUnits="userSpaceOnUse" x="11" y="0" width="33" height="32">
<path d="M43.5 0H11.5V32H43.5V0Z" fill="white"/>
</mask>
<g mask="url(#mask0_4_16364)">
<path fill-rule="evenodd" clip-rule="evenodd" d="M17.9 0C14.3654 0 11.5 2.86538 11.5 6.4V25.6C11.5 29.1346 14.3654 32 17.9 32H37.1C40.6346 32 43.5 29.1346 43.5 25.6V6.4C43.5 2.86538 40.6346 0 37.1 0H17.9ZM21.4623 6.18867C21.4623 7.85046 20.3881 9.26138 18.8962 9.76493V22.261C19.0952 22.3282 19.2867 22.4114 19.4692 22.5093L31.3833 10.5952C30.8368 9.7633 30.5189 8.76784 30.5189 7.69811C30.5189 4.78038 32.8842 2.4151 35.8019 2.4151C38.7196 2.4151 41.0849 4.78038 41.0849 7.69811C41.0849 10.6158 38.7196 12.9811 35.8019 12.9811C34.829 12.9811 33.9174 12.7181 33.1346 12.2594L21.1229 24.271C21.1761 24.3876 21.2236 24.5072 21.2649 24.6297H33.7351C34.2386 23.1378 35.6495 22.0637 37.3113 22.0637C39.3954 22.0637 41.0849 23.7532 41.0849 25.8372C41.0849 27.9213 39.3954 29.6108 37.3113 29.6108C35.6495 29.6108 34.2386 28.5367 33.7351 27.0448H21.2649C20.7614 28.5367 19.3505 29.6108 17.6887 29.6108C15.6046 29.6108 13.9151 27.9213 13.9151 25.8372C13.9151 24.1755 14.9892 22.7646 16.4811 22.261V9.76493C14.9892 9.26138 13.9151 7.85046 13.9151 6.18867C13.9151 4.10458 15.6046 2.4151 17.6887 2.4151C19.7728 2.4151 21.4623 4.10458 21.4623 6.18867Z" fill="white"/>
</g>
<path d="M4.31818 52H1.3608V43.2727H4.37784C5.24432 43.2727 5.98864 43.4474 6.6108 43.7969C7.2358 44.1435 7.71591 44.642 8.05114 45.2926C8.38636 45.9432 8.55398 46.7216 8.55398 47.6278C8.55398 48.5369 8.38494 49.3182 8.04688 49.9716C7.71165 50.625 7.22727 51.1264 6.59375 51.4759C5.96307 51.8253 5.20455 52 4.31818 52ZM2.94176 50.6321H4.24148C4.84943 50.6321 5.35653 50.5213 5.76278 50.2997C6.16903 50.0753 6.47443 49.7415 6.67898 49.2983C6.88352 48.8523 6.9858 48.2955 6.9858 47.6278C6.9858 46.9602 6.88352 46.4062 6.67898 45.9659C6.47443 45.5227 6.17188 45.1918 5.77131 44.973C5.37358 44.7514 4.87926 44.6406 4.28835 44.6406H2.94176V50.6321ZM11.8714 52.1321C11.4567 52.1321 11.0831 52.0582 10.7507 51.9105C10.4212 51.7599 10.1598 51.5384 9.96662 51.2457C9.77628 50.9531 9.68111 50.5923 9.68111 50.1634C9.68111 49.794 9.74929 49.4886 9.88565 49.2472C10.022 49.0057 10.2081 48.8125 10.4439 48.6676C10.6797 48.5227 10.9453 48.4134 11.2408 48.3395C11.5391 48.2628 11.8473 48.2074 12.1655 48.1733C12.549 48.1335 12.8601 48.098 13.0987 48.0668C13.3374 48.0327 13.5107 47.9815 13.6186 47.9134C13.7294 47.8423 13.7848 47.733 13.7848 47.5852V47.5597C13.7848 47.2386 13.6896 46.9901 13.4993 46.8139C13.3089 46.6378 13.0348 46.5497 12.6768 46.5497C12.299 46.5497 11.9993 46.6321 11.7777 46.7969C11.5589 46.9616 11.4112 47.1562 11.3345 47.3807L9.89418 47.1761C10.0078 46.7784 10.1953 46.446 10.4567 46.179C10.718 45.9091 11.0376 45.7074 11.4155 45.5739C11.7933 45.4375 12.2109 45.3693 12.6683 45.3693C12.9837 45.3693 13.2976 45.4062 13.6101 45.4801C13.9226 45.554 14.2081 45.6761 14.4666 45.8466C14.7251 46.0142 14.9325 46.2429 15.0888 46.5327C15.2479 46.8224 15.3274 47.1847 15.3274 47.6193V52H13.8445V51.1009H13.7933C13.6996 51.2827 13.5675 51.4531 13.397 51.6122C13.2294 51.7685 13.0178 51.8949 12.7621 51.9915C12.5092 52.0852 12.2124 52.1321 11.8714 52.1321ZM12.272 50.9986C12.5817 50.9986 12.8501 50.9375 13.0774 50.8153C13.3047 50.6903 13.4794 50.5256 13.6016 50.321C13.7266 50.1165 13.7891 49.8935 13.7891 49.652V48.8807C13.7408 48.9205 13.6584 48.9574 13.5419 48.9915C13.4283 49.0256 13.3004 49.0554 13.1584 49.081C13.0163 49.1065 12.8757 49.1293 12.7365 49.1491C12.5973 49.169 12.4766 49.1861 12.3743 49.2003C12.1442 49.2315 11.9382 49.2827 11.7564 49.3537C11.5746 49.4247 11.4311 49.5241 11.326 49.652C11.2209 49.777 11.1683 49.9389 11.1683 50.1378C11.1683 50.4219 11.272 50.6364 11.4794 50.7812C11.6868 50.9261 11.951 50.9986 12.272 50.9986ZM20.147 45.4545V46.6477H16.3842V45.4545H20.147ZM17.3132 43.8864H18.8558V50.0312C18.8558 50.2386 18.8871 50.3977 18.9496 50.5085C19.0149 50.6165 19.1001 50.6903 19.2053 50.7301C19.3104 50.7699 19.4268 50.7898 19.5547 50.7898C19.6513 50.7898 19.7393 50.7827 19.8189 50.7685C19.9013 50.7543 19.9638 50.7415 20.0064 50.7301L20.2663 51.9361C20.1839 51.9645 20.0661 51.9957 19.9126 52.0298C19.7621 52.0639 19.5774 52.0838 19.3587 52.0895C18.9723 52.1009 18.6243 52.0426 18.3146 51.9148C18.005 51.7841 17.7592 51.5824 17.5774 51.3097C17.3984 51.0369 17.3104 50.696 17.3132 50.2869V43.8864ZM23.3207 52.1321C22.9059 52.1321 22.5323 52.0582 22.1999 51.9105C21.8704 51.7599 21.609 51.5384 21.4158 51.2457C21.2255 50.9531 21.1303 50.5923 21.1303 50.1634C21.1303 49.794 21.1985 49.4886 21.3349 49.2472C21.4712 49.0057 21.6573 48.8125 21.8931 48.6676C22.1289 48.5227 22.3945 48.4134 22.69 48.3395C22.9883 48.2628 23.2965 48.2074 23.6147 48.1733C23.9982 48.1335 24.3093 48.098 24.5479 48.0668C24.7866 48.0327 24.9599 47.9815 25.0678 47.9134C25.1786 47.8423 25.234 47.733 25.234 47.5852V47.5597C25.234 47.2386 25.1388 46.9901 24.9485 46.8139C24.7582 46.6378 24.484 46.5497 24.1261 46.5497C23.7482 46.5497 23.4485 46.6321 23.2269 46.7969C23.0082 46.9616 22.8604 47.1562 22.7837 47.3807L21.3434 47.1761C21.457 46.7784 21.6445 46.446 21.9059 46.179C22.1673 45.9091 22.4869 45.7074 22.8647 45.5739C23.2425 45.4375 23.6602 45.3693 24.1175 45.3693C24.4329 45.3693 24.7468 45.4062 25.0593 45.4801C25.3718 45.554 25.6573 45.6761 25.9158 45.8466C26.1744 46.0142 26.3817 46.2429 26.538 46.5327C26.6971 46.8224 26.7766 47.1847 26.7766 47.6193V52H25.2937V51.1009H25.2425C25.1488 51.2827 25.0167 51.4531 24.8462 51.6122C24.6786 51.7685 24.467 51.8949 24.2113 51.9915C23.9585 52.0852 23.6616 52.1321 23.3207 52.1321ZM23.7212 50.9986C24.0309 50.9986 24.2994 50.9375 24.5266 50.8153C24.7539 50.6903 24.9286 50.5256 25.0508 50.321C25.1758 50.1165 25.2383 49.8935 25.2383 49.652V48.8807C25.19 48.9205 25.1076 48.9574 24.9911 48.9915C24.8775 49.0256 24.7496 49.0554 24.6076 49.081C24.4656 49.1065 24.3249 49.1293 24.1857 49.1491C24.0465 49.169 23.9258 49.1861 23.8235 49.2003C23.5934 49.2315 23.3874 49.2827 23.2056 49.3537C23.0238 49.4247 22.8803 49.5241 22.7752 49.652C22.6701 49.777 22.6175 49.9389 22.6175 50.1378C22.6175 50.4219 22.7212 50.6364 22.9286 50.7812C23.136 50.9261 23.4002 50.9986 23.7212 50.9986ZM31.3725 52V43.2727H32.9535V46.9673H36.9975V43.2727H38.5827V52H36.9975V48.2926H32.9535V52H31.3725ZM44.4059 49.2472V45.4545H45.9485V52H44.4528V50.8366H44.3846C44.2369 51.2031 43.994 51.5028 43.6559 51.7358C43.3207 51.9687 42.9073 52.0852 42.4158 52.0852C41.9869 52.0852 41.6076 51.9901 41.2781 51.7997C40.9513 51.6065 40.6957 51.3267 40.511 50.9602C40.3263 50.5909 40.234 50.1449 40.234 49.6222V45.4545H41.7766V49.3835C41.7766 49.7983 41.8903 50.1278 42.1175 50.3722C42.3448 50.6165 42.6431 50.7386 43.0124 50.7386C43.2397 50.7386 43.4599 50.6832 43.6729 50.5724C43.886 50.4616 44.0607 50.2969 44.1971 50.0781C44.3363 49.8565 44.4059 49.5795 44.4059 49.2472ZM47.603 52V43.2727H49.1456V46.5369H49.2095C49.2891 46.3778 49.4013 46.2088 49.5462 46.0298C49.6911 45.848 49.8871 45.6932 50.1342 45.5653C50.3814 45.4347 50.6967 45.3693 51.0803 45.3693C51.5859 45.3693 52.0419 45.4986 52.4482 45.7571C52.8572 46.0128 53.1811 46.392 53.4197 46.8949C53.6612 47.3949 53.782 48.0085 53.782 48.7358C53.782 49.4545 53.6641 50.0653 53.4283 50.5682C53.1925 51.071 52.8714 51.4545 52.4652 51.7188C52.0589 51.983 51.5987 52.1151 51.0845 52.1151C50.7095 52.1151 50.3984 52.0526 50.1513 51.9276C49.9041 51.8026 49.7053 51.652 49.5547 51.4759C49.407 51.2969 49.2919 51.1278 49.2095 50.9688H49.12V52H47.603ZM49.1158 48.7273C49.1158 49.1506 49.1754 49.5213 49.2947 49.8395C49.4169 50.1577 49.5916 50.4062 49.8189 50.5852C50.049 50.7614 50.3274 50.8494 50.6541 50.8494C50.995 50.8494 51.2805 50.7585 51.5107 50.5767C51.7408 50.392 51.9141 50.1406 52.0305 49.8224C52.1499 49.5014 52.2095 49.1364 52.2095 48.7273C52.2095 48.321 52.1513 47.9602 52.0348 47.6449C51.9183 47.3295 51.745 47.0824 51.5149 46.9034C51.2848 46.7244 50.9979 46.6349 50.6541 46.6349C50.3246 46.6349 50.0447 46.7216 49.8146 46.8949C49.5845 47.0682 49.4098 47.3111 49.2905 47.6236C49.174 47.9361 49.1158 48.304 49.1158 48.7273Z" fill="white"/>
</svg>
