<svg width="20" height="22" viewBox="0 0 20 22" fill="none" xmlns="http://www.w3.org/2000/svg">
<path d="M19 9.00024H1M14 1.00024V5.00024M6 1.00024V5.00024M7 15.0002L9 17.0002L13.5 12.5002M5.8 21.0002H14.2C15.8802 21.0002 16.7202 21.0002 17.362 20.6733C17.9265 20.3856 18.3854 19.9267 18.673 19.3622C19 18.7205 19 17.8804 19 16.2002V7.80024C19 6.12009 19 5.28001 18.673 4.63827C18.3854 4.07379 17.9265 3.61484 17.362 3.32722C16.7202 3.00024 15.8802 3.00024 14.2 3.00024H5.8C4.11984 3.00024 3.27976 3.00024 2.63803 3.32722C2.07354 3.61484 1.6146 4.07379 1.32698 4.63827C1 5.28001 1 6.12009 1 7.80024V16.2002C1 17.8804 1 18.7205 1.32698 19.3622C1.6146 19.9267 2.07354 20.3856 2.63803 20.6733C3.27976 21.0002 4.11984 21.0002 5.8 21.0002Z" stroke="#FFFFFF" stroke-width="2" stroke-linecap="round" stroke-linejoin="round"/>
</svg>
