<!-- Generated by IcoMoon.io -->
<svg version="1.1" xmlns="http://www.w3.org/2000/svg" width="20px" height="20px" viewBox="0 0 32 32">
<path d="M16 10.2c-3.203 0-5.8 2.597-5.8 5.8s2.597 5.8 5.8 5.8c3.203 0 5.8-2.597 5.8-5.8s-2.597-5.8-5.8-5.8zM19.56 18.053c-0.107 0.109-0.255 0.177-0.42 0.177s-0.313-0.068-0.42-0.177l-2.96-2.333c-0.002-0.018-0.003-0.039-0.003-0.060s0.001-0.042 0.004-0.063c-0.002-0.013-0.003-0.032-0.003-0.051s0.001-0.037 0.002-0.056l-0-2.664c0-0.328 0.266-0.593 0.593-0.593s0.593 0.266 0.593 0.593v0 2.040l2.76 2.213c0.109 0.107 0.177 0.255 0.177 0.42s-0.068 0.313-0.177 0.42zM29.333 4.76h-26.667c-1.109 0.022-2 0.927-2 2.040 0 0 0 0 0 0v18.4c0 0 0 0 0 0 0 1.113 0.891 2.017 1.998 2.040l26.669 0c1.109-0.022 2-0.927 2-2.040 0-0 0-0 0-0v-18.4c0-0 0-0 0-0 0-1.113-0.891-2.017-1.998-2.040zM16 24.173c-4.514 0-8.173-3.659-8.173-8.173s3.659-8.173 8.173-8.173c4.514 0 8.173 3.659 8.173 8.173s-3.659 8.173-8.173 8.173z"></path>
</svg>
