<!-- Generated by IcoMoon.io -->
<svg version="1.1" xmlns="http://www.w3.org/2000/svg" width="20px" height="20px" viewBox="0 0 32 32">
<path d="M29.333 4.76h-26.667c-1.109 0.022-2 0.927-2 2.040 0 0 0 0 0 0v18.4c0 0 0 0 0 0 0 1.113 0.891 2.017 1.998 2.040l26.669 0c1.109-0.022 2-0.927 2-2.040 0-0 0-0 0-0v-18.4c0-0 0-0 0-0 0-1.113-0.891-2.017-1.998-2.040zM8.56 21.44h-2.040v-8c-0.771 0.711-1.704 1.26-2.735 1.586l-0.052-1.866c0.691-0.255 1.287-0.602 1.81-1.035 0.586-0.436 1.046-1.033 1.314-1.725l1.716-0.027zM19.227 19.4v2.040h-7.32c0.098-0.766 0.353-1.456 0.732-2.061 0.66-0.989 1.417-1.864 2.269-2.635 0.64-0.564 1.208-1.152 1.724-1.784 0.287-0.397 0.447-0.86 0.448-1.36 0.002-0.026 0.002-0.055 0.002-0.085 0-0.384-0.148-0.734-0.39-0.996-0.275-0.225-0.631-0.362-1.019-0.362s-0.744 0.137-1.023 0.366c-0.28 0.345-0.451 0.793-0.451 1.281 0 0.018 0 0.035 0.001 0.053l-2.040-0.203c0.030-0.995 0.476-1.879 1.17-2.49 0.654-0.48 1.47-0.765 2.352-0.765 0.046 0 0.092 0.001 0.138 0.002 0.055-0.004 0.126-0.006 0.198-0.006 0.904 0 1.73 0.336 2.359 0.889 0.579 0.526 0.943 1.286 0.943 2.132 0 0.018-0 0.036-0 0.054 0 0.002 0 0.007 0 0.012 0 0.504-0.098 0.984-0.276 1.424-0.218 0.515-0.5 0.981-0.839 1.399-0.412 0.504-0.848 0.965-1.315 1.394q-1.010 0.929-1.343 1.209c-0.152 0.173-0.293 0.365-0.416 0.569zM27.227 20.52c-0.702 0.623-1.631 1.003-2.65 1.003-0.93 0-1.786-0.318-2.466-0.85-0.632-0.553-1.057-1.343-1.137-2.234l2.039-0.253c0.037 0.464 0.233 0.876 0.534 1.187 0.257 0.255 0.612 0.413 1.004 0.413 0.012 0 0.025-0 0.037-0 0.008 0 0.020 0 0.032 0 0.428 0 0.813-0.191 1.072-0.492 0.285-0.334 0.457-0.769 0.457-1.244 0-0.032-0.001-0.064-0.002-0.096 0.005-0.047 0.008-0.106 0.008-0.166 0-0.446-0.165-0.854-0.437-1.165-0.244-0.284-0.607-0.465-1.012-0.465-0.009 0-0.019 0-0.028 0-0.345 0.012-0.674 0.069-0.985 0.167l0.213-1.66c0.060 0.007 0.129 0.011 0.199 0.011 0.429 0 0.823-0.144 1.138-0.387 0.274-0.242 0.45-0.6 0.45-0.999 0-0.013-0-0.027-0.001-0.040 0.001-0.015 0.001-0.034 0.001-0.053 0-0.61-0.477-1.109-1.078-1.145l-0.123-0c-0.358 0.001-0.682 0.144-0.92 0.374-0.27 0.291-0.444 0.677-0.466 1.102l-2.080-0.329c0.104-0.604 0.319-1.142 0.624-1.617 0.28-0.389 0.667-0.708 1.119-0.909 0.486-0.226 1.034-0.354 1.613-0.354 0.016 0 0.032 0 0.047 0 0.043-0.002 0.095-0.004 0.148-0.004 0.919 0 1.749 0.379 2.342 0.989 0.45 0.456 0.728 1.081 0.728 1.772 0 1.038-0.628 1.93-1.525 2.316 0.595 0.124 1.116 0.445 1.487 0.895 0.409 0.47 0.657 1.082 0.657 1.753 0 0.004 0 0.008-0 0.012 0.002 0.037 0.002 0.081 0.002 0.125 0 0.962-0.411 1.828-1.067 2.432z"></path>
</svg>
