<!-- Generated by IcoMoon.io -->
<svg version="1.1" xmlns="http://www.w3.org/2000/svg" width="20px" height="20px" viewBox="0 0 32 32">
<path d="M29.333 4.76h-26.667c-1.109 0.022-2 0.927-2 2.040 0 0 0 0 0 0v18.4c0 0 0 0 0 0 0 1.113 0.891 2.017 1.998 2.040l26.669 0c1.109-0.022 2-0.927 2-2.040 0-0 0-0 0-0v-18.4c0-0 0-0 0-0 0-1.113-0.891-2.017-1.998-2.040zM18.427 21.867c-0.088-0.357-0.193-0.664-0.321-0.958l-0.065-0.335c-0.476 0.475-1.037 0.865-1.658 1.146-0.596 0.259-1.25 0.401-1.937 0.401-0.016 0-0.032-0-0.048-0-0.056 0.003-0.125 0.005-0.193 0.005-1.023 0-1.958-0.375-2.676-0.996-0.628-0.593-1.023-1.438-1.023-2.374 0-0.031 0-0.062 0.001-0.092-0.001-0.017-0.001-0.042-0.001-0.067 0-0.628 0.174-1.216 0.476-1.717 0.313-0.501 0.767-0.908 1.306-1.164 0.735-0.327 1.569-0.578 2.439-0.72 1.207-0.188 2.227-0.452 3.204-0.805l-0.117-0.23c0.008-0.060 0.012-0.129 0.012-0.199 0-0.442-0.178-0.843-0.466-1.134-0.399-0.251-0.885-0.401-1.406-0.401-0.097 0-0.192 0.005-0.286 0.015-0.034-0.004-0.087-0.006-0.141-0.006-0.437 0-0.845 0.126-1.189 0.344-0.35 0.285-0.616 0.676-0.747 1.125l-2.777-0.504c0.24-1.039 0.821-1.915 1.616-2.526 0.88-0.528 1.928-0.835 3.048-0.835 0.146 0 0.291 0.005 0.435 0.016 0.101-0.008 0.241-0.012 0.382-0.012 0.969 0 1.894 0.185 2.742 0.522 0.553 0.248 1.041 0.681 1.369 1.222 0.281 0.699 0.439 1.492 0.439 2.323 0 0.168-0.006 0.334-0.019 0.499l0.001 3.591c-0.003 0.103-0.005 0.224-0.005 0.345 0 0.688 0.055 1.363 0.161 2.021 0.119 0.523 0.307 1.048 0.555 1.539zM14.067 16.813c-0.242 0.15-0.4 0.414-0.4 0.716 0 0.002 0 0.003 0 0.005s-0 0.004-0 0.006c0 0.288 0.123 0.546 0.319 0.727 0.199 0.191 0.469 0.308 0.766 0.308 0.017 0 0.033-0 0.050-0.001 0.391-0.005 0.752-0.14 1.042-0.363 0.219-0.162 0.386-0.39 0.473-0.654 0.056-0.254 0.086-0.535 0.086-0.824 0-0.061-0.001-0.121-0.004-0.181l0-0.391c-0.314 0.102-0.726 0.208-1.146 0.293-0.494 0.076-0.867 0.197-1.209 0.37z"></path>
</svg>
