<!-- Generated by IcoMoon.io -->
<svg version="1.1" xmlns="http://www.w3.org/2000/svg" width="20" height="20" viewBox="0 0 32 32">
<path d="M29.333 2.667h-26.667c-0.022-0.001-0.048-0.001-0.073-0.001-1.068 0-1.933 0.866-1.933 1.933 0 0.057 0.002 0.113 0.007 0.169l-0 22.473c-0.004 0.048-0.007 0.105-0.007 0.161 0 1.068 0.866 1.933 1.933 1.933 0.026 0 0.052-0 0.077-0.002l26.663 0c0.033 0.002 0.071 0.003 0.11 0.003 1.068 0 1.933-0.866 1.933-1.933 0-0.039-0.001-0.077-0.003-0.115l0-22.528c0.004-0.049 0.007-0.106 0.007-0.163 0-1.068-0.866-1.933-1.933-1.933-0.040 0-0.080 0.001-0.119 0.004zM9.867 26.227h-6.133v-6.133h6.133zM9.867 17.027h-6.133v-6.133h6.133zM19.067 26.227h-6.133v-6.133h6.133zM19.067 17.027h-6.133v-6.133h6.133zM28.267 26.227h-6.133v-6.133h6.133v6.133zM28.267 17.027h-6.133v-6.133h6.133v6.133z"></path>
</svg>
