<!-- Generated by IcoMoon.io -->
<svg version="1.1" xmlns="http://www.w3.org/2000/svg" width="20px" height="20px" viewBox="0 0 32 32">
<path d="M29.333 4.76h-26.667c-1.109 0.022-2 0.927-2 2.040 0 0 0 0 0 0v18.4c0 0 0 0 0 0 0 1.113 0.891 2.017 1.998 2.040l26.669 0c1.109-0.022 2-0.927 2-2.040 0-0 0-0 0-0v-18.4c0-0 0-0 0-0 0-1.113-0.891-2.017-1.998-2.040zM11.64 21.68c-0.814 0.622-1.845 0.997-2.965 0.997-0.111 0-0.221-0.004-0.33-0.011-0.078 0.006-0.186 0.010-0.295 0.010-1.046 0-2.022-0.301-2.846-0.822-0.721-0.507-1.258-1.278-1.467-2.176l2.555-0.412c0.083 0.454 0.318 0.842 0.65 1.117 0.357 0.245 0.795 0.39 1.267 0.39 0.024 0 0.049-0 0.073-0.001 0.068 0.007 0.151 0.011 0.235 0.011 0.478 0 0.925-0.133 1.306-0.364 0.192-0.143 0.322-0.382 0.322-0.651 0-0.008-0-0.016-0-0.024 0-0.006 0-0.015 0-0.024 0-0.182-0.071-0.347-0.187-0.469-0.242-0.167-0.53-0.284-0.842-0.332-1.479-0.243-2.796-0.68-4.011-1.291-0.615-0.414-1.069-1.186-1.069-2.063 0-0.026 0-0.052 0.001-0.078 0.010-0.818 0.39-1.55 0.982-2.032 0.753-0.546 1.69-0.872 2.703-0.872 0.13 0 0.258 0.005 0.385 0.016 0.062-0.005 0.154-0.008 0.247-0.008 0.999 0 1.935 0.275 2.734 0.753 0.626 0.435 1.102 1.098 1.304 1.87l-2.408 0.476c-0.093-0.389-0.329-0.712-0.647-0.916-0.323-0.198-0.706-0.313-1.117-0.313-0.041 0-0.081 0.001-0.121 0.003-0.056-0.005-0.128-0.008-0.201-0.008-0.449 0-0.873 0.106-1.249 0.295-0.151 0.102-0.261 0.288-0.264 0.499 0.005 0.204 0.115 0.381 0.277 0.479 0.693 0.321 1.494 0.572 2.333 0.714 1.127 0.167 2.086 0.544 2.923 1.091 0.467 0.416 0.777 1.047 0.777 1.752 0 0.049-0.001 0.097-0.004 0.145 0-0.004 0-0.001 0 0.001 0 0.901-0.408 1.706-1.049 2.242zM18.053 22.64c-0.019 0-0.041 0.001-0.064 0.001-0.428 0-0.837-0.083-1.211-0.235-0.308-0.113-0.583-0.315-0.789-0.575-0.194-0.288-0.327-0.626-0.375-0.992-0.022-0.281-0.034-0.595-0.034-0.912s0.012-0.631 0.035-0.941l-0.002-4.172h-1.213v-2.040h1.16v-1.92l2.48-1.52v3.44h1.733v2.040h-1.733v3.853c-0.014 0.199-0.023 0.432-0.023 0.667s0.008 0.467 0.024 0.698c0.030 0.108 0.112 0.225 0.223 0.301 0.114 0.077 0.252 0.122 0.401 0.122 0.010 0 0.020-0 0.029-0.001 0.375-0.027 0.724-0.113 1.047-0.248l0.258 2.115c-0.537 0.212-1.159 0.334-1.81 0.334-0.034 0-0.068-0-0.102-0.001zM27.453 15.253c-0.334-0.242-0.748-0.393-1.195-0.413-0.019-0.001-0.036-0.001-0.053-0.001-0.319 0-0.613 0.105-0.849 0.283-0.288 0.277-0.495 0.642-0.581 1.051-0.139 0.781-0.217 1.664-0.217 2.566 0 0.237 0.005 0.473 0.016 0.707l-0.001 2.953h-2.56v-9.627h2.373v1.333c0.279-0.53 0.651-0.974 1.098-1.327 0.314-0.199 0.686-0.313 1.085-0.313 0.011 0 0.021 0 0.032 0 0.622 0.008 1.201 0.191 1.692 0.501z"></path>
</svg>
