<!-- Generated by IcoMoon.io -->
<svg version="1.1" xmlns="http://www.w3.org/2000/svg" width="20px" height="20px" viewBox="0 0 32 32">
<path d="M8.64 12.44c-0.172-0.145-0.395-0.235-0.639-0.24-0.006-0-0.011-0-0.016-0-0.254 0-0.486 0.091-0.666 0.241-0.226 0.223-0.387 0.515-0.45 0.842-0.135 0.679-0.211 1.449-0.211 2.236 0 0.169 0.004 0.337 0.011 0.505-0.008 0.131-0.012 0.313-0.012 0.496 0 0.759 0.072 1.501 0.21 2.22 0.060 0.299 0.235 0.621 0.482 0.874 0.181 0.145 0.413 0.234 0.666 0.234s0.486-0.088 0.669-0.236c0.228-0.25 0.38-0.577 0.411-0.939 0.155-0.719 0.244-1.539 0.244-2.379 0-0.103-0.001-0.206-0.004-0.308 0.007-0.138 0.011-0.318 0.011-0.499 0-0.761-0.072-1.506-0.21-2.227-0.075-0.279-0.253-0.582-0.495-0.819zM24.693 12.44c-0.177-0.15-0.408-0.241-0.66-0.241-0.012 0-0.023 0-0.035 0.001-0.003-0-0.008-0-0.014-0-0.254 0-0.486 0.091-0.666 0.241-0.226 0.223-0.387 0.515-0.45 0.842-0.135 0.679-0.211 1.449-0.211 2.236 0 0.169 0.004 0.337 0.011 0.505-0.008 0.131-0.012 0.313-0.012 0.496 0 0.759 0.072 1.501 0.21 2.22 0.060 0.299 0.235 0.621 0.482 0.874 0.181 0.145 0.413 0.234 0.666 0.234s0.486-0.088 0.669-0.236c0.227-0.223 0.388-0.515 0.45-0.842 0.137-0.677 0.214-1.444 0.214-2.228 0-0.191-0.005-0.38-0.014-0.568 0.008-0.127 0.012-0.306 0.012-0.487 0-0.761-0.072-1.506-0.21-2.227-0.060-0.274-0.219-0.577-0.443-0.821zM29.333 4.76h-26.667c-1.109 0.022-2 0.927-2 2.040 0 0 0 0 0 0v18.4c0 0 0 0 0 0 0 1.113 0.891 2.017 1.998 2.040l26.669 0c1.109-0.022 2-0.927 2-2.040 0-0 0-0 0-0v-18.4c0-0 0-0 0-0 0-1.113-0.891-2.017-1.998-2.040zM10.413 20.413c-0.545 0.678-1.374 1.109-2.303 1.109-0.039 0-0.077-0.001-0.116-0.002-0.020 0.001-0.050 0.001-0.081 0.001-0.993 0-1.876-0.467-2.442-1.194-0.65-1.062-1.032-2.339-1.032-3.705 0-0.219 0.010-0.435 0.029-0.649-0.018-0.154-0.028-0.365-0.028-0.579 0-1.406 0.407-2.718 1.11-3.823 0.527-0.643 1.353-1.069 2.278-1.069 0.060 0 0.12 0.002 0.18 0.005 0.033-0.002 0.082-0.004 0.13-0.004 0.936 0 1.77 0.437 2.31 1.117 0.667 1.068 1.060 2.358 1.060 3.74 0 0.225-0.010 0.448-0.031 0.668 0.019 0.155 0.028 0.368 0.028 0.583 0 1.409-0.407 2.723-1.11 3.831zM18.413 21.333h-2.080v-7.813c-0.738 0.692-1.629 1.23-2.616 1.559l-0.050-1.865c0.675-0.248 1.258-0.586 1.77-1.008 0.584-0.423 1.044-1.006 1.314-1.686l1.689-0.026zM26.587 20.413c-0.545 0.679-1.374 1.11-2.305 1.11-0.052 0-0.104-0.001-0.156-0.004-0.018 0.001-0.049 0.002-0.079 0.002-0.993 0-1.876-0.467-2.442-1.194-0.694-1.089-1.103-2.407-1.103-3.821 0-0.178 0.006-0.355 0.019-0.53-0.018-0.158-0.027-0.369-0.027-0.583 0-1.406 0.407-2.718 1.11-3.823 0.527-0.642 1.352-1.067 2.276-1.067 0.042 0 0.085 0.001 0.126 0.003 0.035-0.002 0.084-0.003 0.133-0.003 0.936 0 1.77 0.437 2.31 1.117 0.696 1.086 1.107 2.403 1.107 3.816 0 0.198-0.008 0.395-0.024 0.589 0.018 0.158 0.028 0.371 0.028 0.586 0 1.409-0.407 2.723-1.11 3.831z"></path>
</svg>
