<svg width="24" height="24" viewBox="0 0 24 24" fill="none" xmlns="http://www.w3.org/2000/svg">
<path d="M19.4355 3.875V3M21.6855 5.1875L22.4355 4.75M17.1855 5.1875L16.4355 4.75M19.4355 10V9.125M16.4355 8.25L17.1855 7.8125M22.4355 8.25L21.6855 7.8125M21.6006 6.5C21.6006 7.70812 20.6313 8.6875 19.4355 8.6875C18.2398 8.6875 17.2705 7.70812 17.2705 6.5C17.2705 5.29188 18.2398 4.3125 19.4355 4.3125C20.6313 4.3125 21.6006 5.29188 21.6006 6.5Z" stroke="#475467" stroke-width="1.5" stroke-linecap="round"/>
<path d="M20.2621 13.2292C20.2621 14.6741 20.2621 18.7995 19.9799 19.3514C19.7316 19.8369 19.3355 20.2316 18.8483 20.4789C18.2944 20.7602 17.5693 20.7602 16.1192 20.7602H7.1429C5.69275 20.7602 4.96767 20.7602 4.41379 20.4789C3.92658 20.2316 3.53046 19.8369 3.28222 19.3514C3 18.7995 3 18.0771 3 16.6321V11.128C3 9.68309 3 8.96062 3.28222 8.40872C3.53046 7.92326 3.92658 7.52856 4.41379 7.28121C4.96767 7 5.69275 7 7.1429 7H14.165M5.71308 11.4796L10.0472 14.4954C10.6178 14.8934 10.9032 15.0924 11.2135 15.1695C11.4877 15.2376 11.7744 15.2376 12.0486 15.1695C12.3589 15.0924 15.66 11.8776 16.2307 11.4796" stroke="#475467" stroke-width="2" stroke-linecap="round" stroke-linejoin="round"/>
</svg>
