<svg width="65" height="22" viewBox="0 0 65 22" fill="none" xmlns="http://www.w3.org/2000/svg">
<g style="mix-blend-mode:multiply">
<rect width="65" height="22" rx="11" fill="#ECFDF3"/>
<path d="M14.0254 8.56534C13.9799 8.16193 13.7924 7.84943 13.4629 7.62784C13.1333 7.40341 12.7186 7.29119 12.2186 7.29119C11.8606 7.29119 11.551 7.34801 11.2896 7.46165C11.0282 7.57244 10.8251 7.72585 10.6802 7.92188C10.5382 8.11506 10.4672 8.33523 10.4672 8.58239C10.4672 8.78977 10.5154 8.96875 10.612 9.11932C10.7115 9.26989 10.8407 9.39631 10.9998 9.49858C11.1618 9.59801 11.335 9.68182 11.5197 9.75C11.7044 9.81534 11.8819 9.86932 12.0524 9.91193L12.9047 10.1335C13.1831 10.2017 13.4686 10.294 13.7612 10.4105C14.0538 10.527 14.3251 10.6804 14.5751 10.8707C14.8251 11.0611 15.0268 11.2969 15.1802 11.5781C15.3365 11.8594 15.4146 12.196 15.4146 12.5881C15.4146 13.0824 15.2868 13.5213 15.0311 13.9048C14.7782 14.2884 14.4103 14.5909 13.9274 14.8125C13.4473 15.0341 12.8663 15.1449 12.1845 15.1449C11.5311 15.1449 10.9657 15.0412 10.4885 14.8338C10.0112 14.6264 9.63761 14.3324 9.36772 13.9517C9.09783 13.5682 8.94869 13.1136 8.92028 12.5881H10.2413C10.2669 12.9034 10.3691 13.1662 10.5481 13.3764C10.7299 13.5838 10.9615 13.7386 11.2427 13.8409C11.5268 13.9403 11.8379 13.9901 12.176 13.9901C12.5481 13.9901 12.8791 13.9318 13.1689 13.8153C13.4615 13.696 13.6916 13.5312 13.8592 13.321C14.0268 13.108 14.1106 12.8594 14.1106 12.5753C14.1106 12.3168 14.0368 12.1051 13.889 11.9403C13.7441 11.7756 13.5467 11.6392 13.2967 11.5312C13.0495 11.4233 12.7697 11.3281 12.4572 11.2457L11.426 10.9645C10.7271 10.7741 10.1731 10.4943 9.76403 10.125C9.35778 9.75568 9.15465 9.26705 9.15465 8.65909C9.15465 8.15625 9.29102 7.71733 9.56374 7.34233C9.83647 6.96733 10.2058 6.67614 10.6717 6.46875C11.1376 6.25852 11.6632 6.15341 12.2484 6.15341C12.8393 6.15341 13.3606 6.2571 13.8123 6.46449C14.2669 6.67188 14.6248 6.95739 14.8862 7.32102C15.1476 7.68182 15.2839 8.09659 15.2953 8.56534H14.0254ZM21.0321 12.2855V8.45455H22.3105V15H21.0577V13.8665H20.9895C20.839 14.2159 20.5975 14.5071 20.2651 14.7401C19.9355 14.9702 19.525 15.0852 19.0336 15.0852C18.6131 15.0852 18.2409 14.9929 17.9171 14.8082C17.5961 14.6207 17.3432 14.3438 17.1586 13.9773C16.9767 13.6108 16.8858 13.1577 16.8858 12.6179V8.45455H18.16V12.4645C18.16 12.9105 18.2836 13.2656 18.5307 13.5298C18.7779 13.794 19.0989 13.9261 19.4938 13.9261C19.7324 13.9261 19.9696 13.8665 20.2054 13.7472C20.4441 13.6278 20.6415 13.4474 20.7978 13.206C20.9569 12.9645 21.035 12.6577 21.0321 12.2855ZM26.7797 15.1321C26.1461 15.1321 25.6007 14.9886 25.1433 14.7017C24.6887 14.4119 24.3393 14.0128 24.095 13.5043C23.8507 12.9957 23.7285 12.4134 23.7285 11.7571C23.7285 11.0923 23.8535 10.5057 24.1035 9.99716C24.3535 9.4858 24.7058 9.08665 25.1603 8.79972C25.6149 8.51278 26.1504 8.36932 26.7669 8.36932C27.264 8.36932 27.7072 8.46165 28.0964 8.64631C28.4856 8.82812 28.7995 9.08381 29.0382 9.41335C29.2797 9.7429 29.4231 10.1278 29.4686 10.5682H28.2285C28.1603 10.2614 28.0041 9.99716 27.7598 9.77557C27.5183 9.55398 27.1944 9.44318 26.7882 9.44318C26.4331 9.44318 26.122 9.53693 25.8549 9.72443C25.5907 9.90909 25.3848 10.1733 25.237 10.517C25.0893 10.858 25.0154 11.2614 25.0154 11.7273C25.0154 12.2045 25.0879 12.6165 25.2328 12.9631C25.3777 13.3097 25.5822 13.5781 25.8464 13.7685C26.1135 13.9588 26.4274 14.054 26.7882 14.054C27.0297 14.054 27.2484 14.0099 27.4444 13.9219C27.6433 13.831 27.8095 13.7017 27.943 13.5341C28.0794 13.3665 28.1745 13.1648 28.2285 12.929H29.4686C29.4231 13.3523 29.2853 13.7301 29.0552 14.0625C28.8251 14.3949 28.5169 14.6562 28.1305 14.8466C27.747 15.0369 27.2967 15.1321 26.7797 15.1321ZM33.5882 15.1321C32.9547 15.1321 32.4093 14.9886 31.9519 14.7017C31.4973 14.4119 31.1479 14.0128 30.9036 13.5043C30.6593 12.9957 30.5371 12.4134 30.5371 11.7571C30.5371 11.0923 30.6621 10.5057 30.9121 9.99716C31.1621 9.4858 31.5144 9.08665 31.9689 8.79972C32.4235 8.51278 32.959 8.36932 33.5755 8.36932C34.0726 8.36932 34.5158 8.46165 34.905 8.64631C35.2942 8.82812 35.6081 9.08381 35.8468 9.41335C36.0882 9.7429 36.2317 10.1278 36.2772 10.5682H35.0371C34.9689 10.2614 34.8127 9.99716 34.5684 9.77557C34.3269 9.55398 34.003 9.44318 33.5968 9.44318C33.2417 9.44318 32.9306 9.53693 32.6635 9.72443C32.3993 9.90909 32.1934 10.1733 32.0456 10.517C31.8979 10.858 31.824 11.2614 31.824 11.7273C31.824 12.2045 31.8965 12.6165 32.0414 12.9631C32.1863 13.3097 32.3908 13.5781 32.655 13.7685C32.9221 13.9588 33.236 14.054 33.5968 14.054C33.8382 14.054 34.057 14.0099 34.253 13.9219C34.4519 13.831 34.6181 13.7017 34.7516 13.5341C34.888 13.3665 34.9831 13.1648 35.0371 12.929H36.2772C36.2317 13.3523 36.0939 13.7301 35.8638 14.0625C35.6337 14.3949 35.3255 14.6562 34.9391 14.8466C34.5556 15.0369 34.1053 15.1321 33.5882 15.1321ZM40.4608 15.1321C39.8159 15.1321 39.2605 14.9943 38.7946 14.7188C38.3315 14.4403 37.9735 14.0497 37.7207 13.5469C37.4707 13.0412 37.3457 12.4489 37.3457 11.7699C37.3457 11.0994 37.4707 10.5085 37.7207 9.99716C37.9735 9.4858 38.3258 9.08665 38.7775 8.79972C39.2321 8.51278 39.7633 8.36932 40.3713 8.36932C40.7406 8.36932 41.0985 8.4304 41.4451 8.55256C41.7917 8.67472 42.1028 8.86648 42.3784 9.12784C42.6539 9.3892 42.8713 9.72869 43.0304 10.1463C43.1895 10.5611 43.269 11.0653 43.269 11.6591V12.1108H38.0659V11.1562H42.0204C42.0204 10.821 41.9522 10.5241 41.8159 10.2656C41.6795 10.0043 41.4877 9.7983 41.2406 9.64773C40.9963 9.49716 40.7093 9.42188 40.3798 9.42188C40.0218 9.42188 39.7093 9.50994 39.4423 9.68608C39.1781 9.85937 38.9735 10.0866 38.8287 10.3679C38.6866 10.6463 38.6156 10.9489 38.6156 11.2756V12.0213C38.6156 12.4588 38.6923 12.831 38.8457 13.1378C39.002 13.4446 39.2193 13.679 39.4977 13.8409C39.7761 14 40.1014 14.0795 40.4735 14.0795C40.715 14.0795 40.9352 14.0455 41.1341 13.9773C41.3329 13.9062 41.5048 13.8011 41.6497 13.6619C41.7946 13.5227 41.9054 13.3509 41.9821 13.1463L43.188 13.3636C43.0914 13.7187 42.9181 14.0298 42.6681 14.2969C42.421 14.5611 42.1099 14.767 41.7349 14.9148C41.3627 15.0597 40.938 15.1321 40.4608 15.1321ZM49.5875 10.0526L48.4327 10.2571C48.3844 10.1094 48.3077 9.96875 48.2026 9.83523C48.1003 9.7017 47.9611 9.59233 47.785 9.5071C47.6088 9.42187 47.3887 9.37926 47.1245 9.37926C46.7637 9.37926 46.4625 9.46023 46.2211 9.62216C45.9796 9.78125 45.8588 9.98722 45.8588 10.2401C45.8588 10.4588 45.9398 10.6349 46.1017 10.7685C46.2637 10.902 46.525 11.0114 46.8858 11.0966L47.9256 11.3352C48.5279 11.4744 48.9767 11.6889 49.2722 11.9787C49.5676 12.2685 49.7154 12.6449 49.7154 13.108C49.7154 13.5 49.6017 13.8494 49.3745 14.1562C49.15 14.4602 48.8361 14.6989 48.4327 14.8722C48.0321 15.0455 47.5676 15.1321 47.0392 15.1321C46.3063 15.1321 45.7083 14.9759 45.2452 14.6634C44.7821 14.348 44.498 13.9006 44.3929 13.321L45.6245 13.1335C45.7012 13.4545 45.8588 13.6974 46.0975 13.8622C46.3361 14.0241 46.6472 14.1051 47.0307 14.1051C47.4483 14.1051 47.7821 14.0185 48.0321 13.8452C48.2821 13.669 48.4071 13.4545 48.4071 13.2017C48.4071 12.9972 48.3304 12.8253 48.177 12.6861C48.0265 12.5469 47.7949 12.4418 47.4824 12.3707L46.3745 12.1278C45.7637 11.9886 45.312 11.767 45.0194 11.4631C44.7296 11.1591 44.5847 10.7741 44.5847 10.3082C44.5847 9.92187 44.6926 9.58381 44.9086 9.29403C45.1245 9.00426 45.4228 8.77841 45.8034 8.61648C46.1841 8.4517 46.6202 8.36932 47.1117 8.36932C47.8191 8.36932 48.3759 8.52273 48.7821 8.82955C49.1884 9.13352 49.4569 9.54119 49.5875 10.0526ZM56.0211 10.0526L54.8663 10.2571C54.818 10.1094 54.7413 9.96875 54.6362 9.83523C54.5339 9.7017 54.3947 9.59233 54.2186 9.5071C54.0424 9.42187 53.8223 9.37926 53.5581 9.37926C53.1973 9.37926 52.8961 9.46023 52.6547 9.62216C52.4132 9.78125 52.2924 9.98722 52.2924 10.2401C52.2924 10.4588 52.3734 10.6349 52.5353 10.7685C52.6973 10.902 52.9586 11.0114 53.3194 11.0966L54.3592 11.3352C54.9615 11.4744 55.4103 11.6889 55.7058 11.9787C56.0012 12.2685 56.149 12.6449 56.149 13.108C56.149 13.5 56.0353 13.8494 55.8081 14.1562C55.5836 14.4602 55.2697 14.6989 54.8663 14.8722C54.4657 15.0455 54.0012 15.1321 53.4728 15.1321C52.7399 15.1321 52.1419 14.9759 51.6788 14.6634C51.2157 14.348 50.9316 13.9006 50.8265 13.321L52.0581 13.1335C52.1348 13.4545 52.2924 13.6974 52.5311 13.8622C52.7697 14.0241 53.0808 14.1051 53.4643 14.1051C53.8819 14.1051 54.2157 14.0185 54.4657 13.8452C54.7157 13.669 54.8407 13.4545 54.8407 13.2017C54.8407 12.9972 54.764 12.8253 54.6106 12.6861C54.46 12.5469 54.2285 12.4418 53.916 12.3707L52.8081 12.1278C52.1973 11.9886 51.7456 11.767 51.4529 11.4631C51.1632 11.1591 51.0183 10.7741 51.0183 10.3082C51.0183 9.92187 51.1262 9.58381 51.3422 9.29403C51.5581 9.00426 51.8564 8.77841 52.237 8.61648C52.6177 8.4517 53.0538 8.36932 53.5453 8.36932C54.2527 8.36932 54.8095 8.52273 55.2157 8.82955C55.622 9.13352 55.8904 9.54119 56.0211 10.0526Z" fill="#027A48"/>
</g>
</svg>
