<svg width="65" height="22" viewBox="0 0 65 22" fill="none" xmlns="http://www.w3.org/2000/svg">
<g style="mix-blend-mode:multiply">
<rect width="65" height="22" rx="11" fill="#FEF3F2"/>
<path d="M9.27326 15V6.27273H14.6852V7.40625H10.59V10.0653H14.2974V11.1946H10.59V15H9.27326ZM18.0836 15.1449C17.6689 15.1449 17.2939 15.0682 16.9586 14.9148C16.6234 14.7585 16.3578 14.5327 16.1618 14.2372C15.9686 13.9418 15.872 13.5795 15.872 13.1506C15.872 12.7812 15.943 12.4773 16.085 12.2386C16.2271 12 16.4189 11.8111 16.6603 11.6719C16.9018 11.5327 17.1717 11.4276 17.47 11.3565C17.7683 11.2855 18.0723 11.2315 18.3819 11.1946C18.774 11.1491 19.0922 11.1122 19.3365 11.0838C19.5808 11.0526 19.7583 11.0028 19.8691 10.9347C19.9799 10.8665 20.0353 10.7557 20.0353 10.6023V10.5724C20.0353 10.2003 19.9302 9.91193 19.72 9.70739C19.5126 9.50284 19.2029 9.40057 18.791 9.40057C18.362 9.40057 18.024 9.49574 17.7768 9.68608C17.5325 9.87358 17.3635 10.0824 17.2697 10.3125L16.0723 10.0398C16.2143 9.64205 16.4217 9.32102 16.6944 9.0767C16.97 8.82955 17.2868 8.65057 17.6447 8.53977C18.0027 8.42614 18.3791 8.36932 18.774 8.36932C19.0353 8.36932 19.3123 8.40057 19.6049 8.46307C19.9004 8.52273 20.176 8.63352 20.4316 8.79545C20.6902 8.95739 20.9018 9.18892 21.0666 9.49006C21.2314 9.78835 21.3137 10.1761 21.3137 10.6534V15H20.0694V14.1051H20.0183C19.9359 14.2699 19.8123 14.4318 19.6475 14.5909C19.4828 14.75 19.2711 14.8821 19.0126 14.9872C18.7541 15.0923 18.4444 15.1449 18.0836 15.1449ZM18.3606 14.1222C18.7129 14.1222 19.014 14.0526 19.264 13.9134C19.5169 13.7741 19.7086 13.5923 19.8393 13.3679C19.9728 13.1406 20.0396 12.8977 20.0396 12.6392V11.7955C19.9941 11.8409 19.9061 11.8835 19.7754 11.9233C19.6475 11.9602 19.5012 11.9929 19.3365 12.0213C19.1717 12.0469 19.0112 12.071 18.8549 12.0938C18.6987 12.1136 18.568 12.1307 18.4629 12.1449C18.2157 12.1761 17.9899 12.2287 17.7853 12.3026C17.5836 12.3764 17.4217 12.483 17.2995 12.6222C17.1802 12.7585 17.1206 12.9403 17.1206 13.1676C17.1206 13.483 17.237 13.7216 17.47 13.8835C17.7029 14.0426 17.9998 14.1222 18.3606 14.1222ZM23.0108 15V8.45455H24.285V15H23.0108ZM23.6543 7.4446C23.4327 7.4446 23.2424 7.37074 23.0833 7.22301C22.927 7.07244 22.8489 6.89347 22.8489 6.68608C22.8489 6.47585 22.927 6.29687 23.0833 6.14915C23.2424 5.99858 23.4327 5.9233 23.6543 5.9233C23.8759 5.9233 24.0648 5.99858 24.2211 6.14915C24.3801 6.29687 24.4597 6.47585 24.4597 6.68608C24.4597 6.89347 24.3801 7.07244 24.2211 7.22301C24.0648 7.37074 23.8759 7.4446 23.6543 7.4446ZM27.2733 6.27273V15H25.9991V6.27273H27.2733ZM31.8084 15.1321C31.1635 15.1321 30.6081 14.9943 30.1422 14.7188C29.6792 14.4403 29.3212 14.0497 29.0684 13.5469C28.8184 13.0412 28.6934 12.4489 28.6934 11.7699C28.6934 11.0994 28.8184 10.5085 29.0684 9.99716C29.3212 9.4858 29.6735 9.08665 30.1252 8.79972C30.5797 8.51278 31.111 8.36932 31.7189 8.36932C32.0882 8.36932 32.4462 8.4304 32.7928 8.55256C33.1394 8.67472 33.4505 8.86648 33.726 9.12784C34.0016 9.3892 34.2189 9.72869 34.378 10.1463C34.5371 10.5611 34.6167 11.0653 34.6167 11.6591V12.1108H29.4135V11.1562H33.3681C33.3681 10.821 33.2999 10.5241 33.1635 10.2656C33.0272 10.0043 32.8354 9.7983 32.5882 9.64773C32.3439 9.49716 32.057 9.42188 31.7275 9.42188C31.3695 9.42188 31.057 9.50994 30.79 9.68608C30.5257 9.85937 30.3212 10.0866 30.1763 10.3679C30.0343 10.6463 29.9632 10.9489 29.9632 11.2756V12.0213C29.9632 12.4588 30.04 12.831 30.1934 13.1378C30.3496 13.4446 30.5669 13.679 30.8453 13.8409C31.1238 14 31.449 14.0795 31.8212 14.0795C32.0627 14.0795 32.2828 14.0455 32.4817 13.9773C32.6806 13.9062 32.8525 13.8011 32.9973 13.6619C33.1422 13.5227 33.253 13.3509 33.3297 13.1463L34.5357 13.3636C34.4391 13.7187 34.2658 14.0298 34.0158 14.2969C33.7686 14.5611 33.4576 14.767 33.0826 14.9148C32.7104 15.0597 32.2857 15.1321 31.8084 15.1321ZM38.4806 15.1278C37.9522 15.1278 37.4806 14.9929 37.0659 14.723C36.6539 14.4503 36.3301 14.0625 36.0943 13.5597C35.8613 13.054 35.7449 12.4474 35.7449 11.7401C35.7449 11.0327 35.8627 10.4276 36.0985 9.92472C36.3372 9.42187 36.6639 9.03693 37.0787 8.76989C37.4934 8.50284 37.9636 8.36932 38.4892 8.36932C38.8954 8.36932 39.2221 8.4375 39.4693 8.57386C39.7193 8.70739 39.9125 8.86364 40.0488 9.04261C40.188 9.22159 40.296 9.37926 40.3727 9.51562H40.4494V6.27273H41.7235V15H40.4792V13.9815H40.3727C40.296 14.1207 40.1852 14.2798 40.0403 14.4588C39.8983 14.6378 39.7022 14.794 39.4522 14.9276C39.2022 15.0611 38.8784 15.1278 38.4806 15.1278ZM38.7619 14.0412C39.1284 14.0412 39.438 13.9446 39.6909 13.7514C39.9466 13.5554 40.1397 13.2841 40.2704 12.9375C40.4039 12.5909 40.4707 12.1875 40.4707 11.7273C40.4707 11.2727 40.4054 10.875 40.2747 10.5341C40.144 10.1932 39.9522 9.92756 39.6994 9.73722C39.4466 9.54687 39.1341 9.4517 38.7619 9.4517C38.3784 9.4517 38.0588 9.55114 37.8031 9.75C37.5474 9.94886 37.3542 10.2202 37.2235 10.5639C37.0957 10.9077 37.0318 11.2955 37.0318 11.7273C37.0318 12.1648 37.0971 12.5582 37.2278 12.9077C37.3585 13.2571 37.5517 13.5341 37.8074 13.7386C38.0659 13.9403 38.3841 14.0412 38.7619 14.0412Z" fill="#B42318"/>
<g clip-path="url(#clip0_215_19085)">
<path d="M53 13V11M53 9H53.005M58 11C58 13.7614 55.7614 16 53 16C50.2386 16 48 13.7614 48 11C48 8.23858 50.2386 6 53 6C55.7614 6 58 8.23858 58 11Z" stroke="#F04438" stroke-width="1.5" stroke-linecap="round" stroke-linejoin="round"/>
</g>
</g>
<defs>
<clipPath id="clip0_215_19085">
<rect width="12" height="12" fill="white" transform="translate(47 5)"/>
</clipPath>
</defs>
</svg>
