<svg width="4" height="14" viewBox="0 0 4 14" fill="none" xmlns="http://www.w3.org/2000/svg">
<path d="M1.99992 7.66602C2.36811 7.66602 2.66659 7.36754 2.66659 6.99935C2.66659 6.63116 2.36811 6.33268 1.99992 6.33268C1.63173 6.33268 1.33325 6.63116 1.33325 6.99935C1.33325 7.36754 1.63173 7.66602 1.99992 7.66602Z" stroke="#667085" stroke-width="2" stroke-linecap="round" stroke-linejoin="round"/>
<path d="M1.99992 2.99935C2.36811 2.99935 2.66659 2.70087 2.66659 2.33268C2.66659 1.96449 2.36811 1.66602 1.99992 1.66602C1.63173 1.66602 1.33325 1.96449 1.33325 2.33268C1.33325 2.70087 1.63173 2.99935 1.99992 2.99935Z" stroke="#667085" stroke-width="2" stroke-linecap="round" stroke-linejoin="round"/>
<path d="M1.99992 12.3327C2.36811 12.3327 2.66659 12.0342 2.66659 11.666C2.66659 11.2978 2.36811 10.9993 1.99992 10.9993C1.63173 10.9993 1.33325 11.2978 1.33325 11.666C1.33325 12.0342 1.63173 12.3327 1.99992 12.3327Z" stroke="#667085" stroke-width="2" stroke-linecap="round" stroke-linejoin="round"/>
</svg>
