<svg width="14" height="14" viewBox="0 0 12 16" fill="none" xmlns="http://www.w3.org/2000/svg">
<path d="M0.166504 2.1576C0.166504 1.3483 0.166504 0.943647 0.335246 0.720587C0.482249 0.526263 0.706939 0.406013 0.950169 0.39149C1.22937 0.37482 1.56606 0.59928 2.23944 1.0482L11.0024 6.89018C11.5588 7.26111 11.837 7.44658 11.934 7.68035C12.0187 7.88473 12.0187 8.11443 11.934 8.3188C11.837 8.55257 11.5588 8.73804 11.0024 9.10898L2.23944 14.951C1.56606 15.3999 1.22937 15.6243 0.950169 15.6077C0.706939 15.5931 0.482249 15.4729 0.335246 15.2786C0.166504 15.0555 0.166504 14.6509 0.166504 13.8416V2.1576Z" fill="#7F56D9"/>
</svg>
