<svg width="22" height="22" viewBox="0 0 22 22" fill="none" xmlns="http://www.w3.org/2000/svg">
<path d="M1 11.0003L10.6422 15.8214C10.7734 15.887 10.839 15.9198 10.9078 15.9327C10.9687 15.9442 11.0313 15.9442 11.0922 15.9327C11.161 15.9198 11.2266 15.887 11.3578 15.8214L21 11.0003M1 16.0003L10.6422 20.8214C10.7734 20.887 10.839 20.9198 10.9078 20.9327C10.9687 20.9442 11.0313 20.9442 11.0922 20.9327C11.161 20.9198 11.2266 20.887 11.3578 20.8214L21 16.0003M1 6.00031L10.6422 1.17919C10.7734 1.1136 10.839 1.08081 10.9078 1.0679C10.9687 1.05647 11.0313 1.05647 11.0922 1.0679C11.161 1.08081 11.2266 1.1136 11.3578 1.17919L21 6.00031L11.3578 10.8214C11.2266 10.887 11.161 10.9198 11.0922 10.9327C11.0313 10.9442 10.9687 10.9442 10.9078 10.9327C10.839 10.9198 10.7734 10.887 10.6422 10.8214L1 6.00031Z" stroke="#FFFFFF" stroke-width="2" stroke-linecap="round" stroke-linejoin="round"/>
</svg>
