<svg width="19" height="18" viewBox="0 0 19 18" fill="none" xmlns="http://www.w3.org/2000/svg">
<rect width="19" height="18" fill="#DCDCDC"/>
<path d="M-1435 -15016C-1435 -15017.1 -1434.1 -15018 -1433 -15018H10043C10044.1 -15018 10045 -15017.1 10045 -15016V1057C10045 1058.1 10044.1 1059 10043 1059H-1433C-1434.1 1059 -1435 1058.1 -1435 1057V-15016Z" fill="#BFBFBF"/>
<path d="M-1433 -15017H10043V-15019H-1433V-15017ZM10044 -15016V1057H10046V-15016H10044ZM10043 1058H-1433V1060H10043V1058ZM-1434 1057V-15016H-1436V1057H-1434ZM-1433 1058C-1433.55 1058 -1434 1057.55 -1434 1057H-1436C-1436 1058.66 -1434.66 1060 -1433 1060V1058ZM10044 1057C10044 1057.55 10043.6 1058 10043 1058V1060C10044.7 1060 10046 1058.66 10046 1057H10044ZM10043 -15017C10043.6 -15017 10044 -15016.6 10044 -15016H10046C10046 -15017.7 10044.7 -15019 10043 -15019V-15017ZM-1433 -15019C-1434.66 -15019 -1436 -15017.7 -1436 -15016H-1434C-1434 -15016.6 -1433.55 -15017 -1433 -15017V-15019Z" fill="black" fill-opacity="0.1"/>
<g clip-path="url(#clip0_0_1)">
<rect width="1440" height="1024" transform="translate(-1335 -65)" fill="#FBFBFB"/>
<g clip-path="url(#clip1_0_1)">
<path d="M17.5 7.33333C17.5 7.33333 15.8291 5.05685 14.4718 3.69854C13.1144 2.34022 11.2386 1.5 9.16663 1.5C5.02449 1.5 1.66663 4.85786 1.66663 9C1.66663 13.1421 5.02449 16.5 9.16663 16.5C12.5859 16.5 15.4707 14.2119 16.3735 11.0833M17.5 7.33333V2.33333M17.5 7.33333H12.5" stroke="#6941C6" stroke-width="1.66667" stroke-linecap="round" stroke-linejoin="round"/>
</g>
</g>
<defs>
<clipPath id="clip0_0_1">
<rect width="1440" height="1024" fill="white" transform="translate(-1335 -65)"/>
</clipPath>
<clipPath id="clip1_0_1">
<rect width="81" height="20" fill="white" transform="translate(0 -1)"/>
</clipPath>
</defs>
</svg>
