<?xml version="1.0" standalone="no"?>
<!DOCTYPE svg PUBLIC "-//W3C//DTD SVG 20010904//EN"
 "http://www.w3.org/TR/2001/REC-SVG-20010904/DTD/svg10.dtd">
<svg version="1.0" xmlns="http://www.w3.org/2000/svg"
 width="16" height="16" viewBox="0 0 128.000000 128.000000"
 preserveAspectRatio="xMidYMid meet">

<g transform="translate(0.000000,128.000000) scale(0.100000,-0.100000)"
fill="#000000" stroke="none">
<path d="M20 1055 l0 -95 95 0 95 0 0 95 0 95 -95 0 -95 0 0 -95z"/>
<path d="M356 1032 c-5 -9 250 -212 269 -213 29 -2 1 26 -116 116 -144 109
-145 110 -153 97z"/>
<path d="M899 906 c-63 -13 -109 -39 -109 -61 0 -44 176 -81 305 -65 87 11
165 41 165 64 0 57 -213 94 -361 62z"/>
<path d="M790 745 l0 -56 48 -21 c58 -26 228 -36 314 -19 84 18 108 41 108
102 l0 50 -27 -15 c-43 -21 -127 -36 -208 -36 -81 0 -165 15 -207 36 l-28 15
0 -56z"/>
<path d="M20 640 l0 -100 95 0 95 0 0 100 0 100 -95 0 -95 0 0 -100z"/>
<path d="M790 605 c0 -50 2 -54 33 -68 82 -39 237 -49 342 -22 79 21 95 37 95
95 l0 47 -57 -21 c-84 -29 -285 -29 -360 1 l-53 21 0 -53z"/>
<path d="M360 625 c0 -13 22 -15 135 -15 113 0 135 2 135 15 0 13 -22 15 -135
15 -113 0 -135 -2 -135 -15z"/>
<path d="M790 471 c0 -44 4 -53 26 -68 84 -54 334 -54 418 0 22 15 26 24 26
68 0 45 -2 50 -17 44 -74 -31 -116 -38 -223 -38 -108 0 -135 5 -212 38 -16 6
-18 1 -18 -44z"/>
<path d="M488 311 c-81 -63 -133 -110 -128 -115 8 -8 81 44 263 186 14 11 19
20 12 26 -6 6 -59 -29 -147 -97z"/>
<path d="M20 225 l0 -95 95 0 95 0 0 95 0 95 -95 0 -95 0 0 -95z"/>
</g>
</svg>
