<svg width="16" height="16" viewBox="0 0 32 32" fill="none" xmlns="http://www.w3.org/2000/svg">
<path fill-rule="evenodd" clip-rule="evenodd" d="M1.07692 5.5H1.42308C1.71154 5.5 2 5.26923 2 4.92308V4.57692C2 4.23077 1.76923 4 1.42308 4H1.07692C0.730769 4 0.5 4.23077 0.5 4.57692V4.92308C0.5 5.26923 0.730769 5.5 1.07692 5.5ZM16.35 4H4.5V5.5H16.35V4ZM23.4 7.5H7.5V9H23.4V7.5ZM4.5 11.5H19V13H4.5V11.5ZM21.5 15.25H4.5V16.75H21.5V15.25ZM4.5 19H10V20.5H4.5V19ZM8.5 23H4.5V24.5H8.5V23ZM4.5 26.75H18.5V28.25H4.5V26.75ZM1.42308 9H1.07692C0.730769 9 0.5 8.76923 0.5 8.42308V8.07692C0.5 7.73077 0.730769 7.5 1.07692 7.5H1.42308C1.76923 7.5 2 7.73077 2 8.07692V8.42308C2 8.76923 1.71154 9 1.42308 9ZM1.07692 13H1.42308C1.71154 13 2 12.7115 2 12.4231V12.0769C2 11.7308 1.76923 11.5 1.42308 11.5H1.07692C0.730769 11.5 0.5 11.7308 0.5 12.0769V12.4231C0.5 12.7692 0.730769 13 1.07692 13ZM1.42308 16.75H1.07692C0.730769 16.75 0.5 16.5192 0.5 16.1731V15.8269C0.5 15.4808 0.730769 15.25 1.07692 15.25H1.42308C1.76923 15.25 2 15.4808 2 15.8269V16.1731C2 16.4615 1.71154 16.75 1.42308 16.75ZM1.07692 20.5H1.42308C1.71154 20.5 2 20.2692 2 19.9231V19.5769C2 19.2308 1.76923 19 1.42308 19H1.07692C0.730769 19 0.5 19.2308 0.5 19.5769V19.9231C0.5 20.2692 0.730769 20.5 1.07692 20.5ZM1.42308 24.5H1.07692C0.730769 24.5 0.5 24.2692 0.5 23.9231V23.5769C0.5 23.2308 0.730769 23 1.07692 23H1.42308C1.76923 23 2 23.2308 2 23.5769V23.9231C2 24.2692 1.71154 24.5 1.42308 24.5ZM1.07692 28.25H1.42308C1.71154 28.25 2 28.0192 2 27.6731V27.3269C2 26.9808 1.76923 26.75 1.42308 26.75H1.07692C0.730769 26.75 0.5 26.9808 0.5 27.3269V27.6731C0.5 28.0192 0.730769 28.25 1.07692 28.25Z" fill="#232F3E"/>
<path fill-rule="evenodd" clip-rule="evenodd" d="M17.7 18.94C17.7 18.5258 17.3642 18.19 16.95 18.19H13.5L13.4278 18.1935C13.0474 18.2298 12.75 18.5502 12.75 18.94V21.4713L12.7534 21.5435C12.7898 21.9238 13.1102 22.2213 13.5 22.2213L16.2 22.221V23.015L13 23.0153L12.9278 23.0188C12.5474 23.0551 12.25 23.3755 12.25 23.7653C12.25 24.1795 12.5858 24.5153 13 24.5153H16.95L17.0222 24.5119C17.4026 24.4755 17.7 24.1552 17.7 23.7653V21.4713L17.6966 21.3991C17.6602 21.0187 17.3398 20.7213 16.95 20.7213L14.25 20.721V19.6895L16.95 19.69L17.0222 19.6866C17.4026 19.6503 17.7 19.3299 17.7 18.94ZM24.0229 18.19H20.0337C19.6195 18.19 19.2837 18.5258 19.2837 18.94V23.7653C19.2837 24.1795 19.6195 24.5153 20.0337 24.5153H24.0229C24.1004 24.5153 24.1752 24.5036 24.2455 24.4817L24.834 24.8741L24.896 24.9113C25.2326 25.092 25.6578 24.9904 25.874 24.6661C26.1038 24.3214 26.0107 23.8558 25.666 23.626L24.7729 23.0306V18.94C24.7729 18.5258 24.4371 18.19 24.0229 18.19ZM22.666 21.626L23.2725 22.0303V19.69H20.7835V23.015H22.0454L21.834 22.8741C21.4893 22.6443 21.3962 22.1787 21.626 21.834C21.8422 21.5096 22.2674 21.4081 22.604 21.5888L22.666 21.626ZM28.0794 18.9125C28.043 18.5321 27.7226 18.2347 27.3328 18.2347C26.9186 18.2347 26.5828 18.5705 26.5828 18.9847V25.0154H30.7613L30.8335 25.0119C31.2138 24.9756 31.5113 24.6552 31.5113 24.2654L31.5078 24.1931C31.4715 23.8128 31.1511 23.5154 30.7613 23.5154L28.0825 23.5151L28.0828 18.9847L28.0794 18.9125Z" fill="#527FFF"/>
</svg>
