<?xml version="1.0" standalone="no"?>
<!DOCTYPE svg PUBLIC "-//W3C//DTD SVG 20010904//EN"
 "http://www.w3.org/TR/2001/REC-SVG-20010904/DTD/svg10.dtd">
<svg version="1.0" xmlns="http://www.w3.org/2000/svg"
 width="26" height="26" viewBox="0 0 128.000000 128.000000"
 preserveAspectRatio="xMidYMid meet">

<g transform="translate(0.000000,128.000000) scale(0.100000,-0.100000)"
fill="#000000" stroke="none">
<path d="M92 1188 c-17 -17 -17 -359 0 -376 17 -17 279 -17 296 0 17 17 17
359 0 376 -17 17 -279 17 -296 0z m222 -50 c20 -33 -4 -53 -68 -56 -60 -3 -86
8 -86 37 0 32 22 42 84 39 43 -2 62 -8 70 -20z m0 -120 c20 -33 -4 -53 -68
-56 -60 -3 -86 8 -86 37 0 32 22 42 84 39 43 -2 62 -8 70 -20z m0 -120 c20
-33 -4 -53 -68 -56 -60 -3 -86 8 -86 37 0 32 22 42 84 39 43 -2 62 -8 70 -20z"/>
<path d="M452 1148 c-7 -7 -12 -19 -12 -28 0 -29 23 -40 81 -40 69 0 96 -21
61 -46 -12 -8 -22 -23 -22 -33 0 -21 60 -81 81 -81 20 0 79 62 79 83 0 9 -9
22 -20 29 -11 7 -20 17 -20 21 0 27 -36 77 -65 91 -39 19 -146 21 -163 4z"/>
<path d="M572 868 c-7 -7 -12 -18 -12 -26 0 -24 -32 -40 -66 -35 -29 5 -34 1
-58 -39 -29 -50 -33 -86 -11 -94 8 -4 15 -18 15 -34 0 -16 -7 -30 -15 -34 -22
-8 -18 -42 12 -93 24 -41 29 -45 57 -40 34 5 66 -11 66 -35 0 -27 24 -38 80
-38 56 0 80 11 80 38 0 24 32 40 66 35 28 -5 33 -1 57 40 30 51 34 85 12 93
-8 4 -15 18 -15 34 0 16 7 30 15 34 22 8 18 42 -12 93 -24 41 -29 45 -57 40
-34 -5 -66 11 -66 35 0 27 -24 38 -80 38 -31 0 -61 -5 -68 -12z m123 -173 c50
-49 15 -135 -55 -135 -19 0 -40 9 -55 25 -50 49 -15 135 55 135 19 0 40 -9 55
-25z"/>
<path d="M932 391 c-123 -32 -5 -82 159 -68 99 8 135 32 87 58 -28 15 -200 21
-246 10z"/>
<path d="M612 348 c-17 -17 -15 -124 4 -163 14 -29 64 -65 91 -65 4 0 14 -9
21 -20 7 -11 20 -20 30 -20 22 0 82 60 82 81 0 20 -62 79 -82 79 -9 0 -24 -10
-32 -22 -25 -35 -46 -8 -46 61 0 58 -11 81 -40 81 -9 0 -21 -5 -28 -12z"/>
<path d="M880 266 c0 -52 23 -61 160 -61 137 0 160 9 160 61 l0 35 -37 -8
c-21 -4 -76 -8 -123 -8 -47 0 -102 4 -122 8 l-38 8 0 -35z"/>
<path d="M880 146 c0 -52 23 -61 160 -61 137 0 160 9 160 61 l0 35 -37 -8
c-21 -4 -76 -8 -123 -8 -47 0 -102 4 -122 8 l-38 8 0 -35z"/>
</g>
</svg>
