<svg width="16" height="16" viewBox="0 0 16 16" fill="none" xmlns="http://www.w3.org/2000/svg">
<g id="Group 40957">
<path id="Vector (Stroke)" fill-rule="evenodd" clip-rule="evenodd" d="M8 1.5C4.5285 1.5 1.5 4.5285 1.5 8C1.5 11.4715 4.5285 14.5 8 14.5C11.4715 14.5 14.5 11.4715 14.5 8C14.5 4.5285 11.4715 1.5 8 1.5ZM0 8C0 3.58172 3.58172 0 8 0C12.4183 0 16 3.58172 16 8C16 12.4183 12.4183 16 8 16C3.58172 16 0 12.4183 0 8Z" fill="#FF3B30"/>
<path id="Vector (Stroke)_2" fill-rule="evenodd" clip-rule="evenodd" d="M7.99782 3.42847C8.47003 3.42847 8.85282 3.81222 8.85282 4.28561V8.28561C8.85282 8.759 8.47003 9.14275 7.99782 9.14275C7.52562 9.14275 7.14282 8.759 7.14282 8.28561V4.28561C7.14282 3.81222 7.52562 3.42847 7.99782 3.42847Z" fill="#FF3B30"/>
<path id="Ellipse 2140" d="M9.14289 11.4285C9.14289 12.0597 8.63122 12.5714 8.00003 12.5714C7.36885 12.5714 6.85718 12.0597 6.85718 11.4285C6.85718 10.7973 7.36885 10.2856 8.00003 10.2856C8.63122 10.2856 9.14289 10.7973 9.14289 11.4285Z" fill="#FF3B30"/>
</g>
</svg>
