<?xml version="1.0" encoding="UTF-8"?>
<svg width="25px" height="25px" viewBox="0 0 25 25" version="1.1" xmlns="http://www.w3.org/2000/svg" xmlns:xlink="http://www.w3.org/1999/xlink">
    <!-- Generator: Sketch 52.3 (67297) - http://www.bohemiancoding.com/sketch -->
    <title>sync_shape_logo_white</title>
    <desc>Created with Sketch.</desc>
    <g id="Page-1" stroke="none" stroke-width="1" fill="none" fill-rule="evenodd">
        <path d="M0.5,8.8002287 L0.5,3.24554793 L6.04979188,3.24554793 L6.04979188,8.8002287 L0.5,8.8002287 Z M20.2821582,0.5 L24.5,4.08264912 L20.9166344,8.2966483 L16.6987925,4.71699846 L20.2821582,0.5 Z M8.00571854,8.79572976 L8.00571854,3.24704758 L13.5555104,3.24704758 L13.5555104,8.79572976 L8.00571854,8.79572976 Z M0.5,16.6478649 L0.5,11.1006823 L6.04979188,11.1006823 L6.04979188,16.6478649 L0.5,16.6478649 Z M8.00571854,16.6478649 L8.00571854,11.0991827 L13.5555104,11.0991827 L13.5555104,16.6478649 L8.00571854,16.6478649 Z M15.5309363,16.6478649 L15.5309363,11.0991827 L21.0807282,11.0991827 L21.0807282,16.6478649 L15.5309363,16.6478649 Z M0.507499719,24.5 L0.507499719,18.9513178 L6.0572916,18.9513178 L6.0572916,24.5 L0.507499719,24.5 Z M8.0147182,24.5 L8.0147182,18.9513178 L13.5645101,18.9513178 L13.5645101,24.5 L8.0147182,24.5 Z M15.565435,24.5 L15.565435,18.9513178 L21.1152269,18.9513178 L21.1152269,24.5 L15.565435,24.5 Z" id="sync_shape_logo_white" fill="#FFFFFF"></path>
    </g>
</svg>