<svg xmlns="http://www.w3.org/2000/svg" width="62" height="67" viewBox="0 0 62 67">
    <g fill="none" fill-rule="evenodd">
        <path d="M-37-8H93v80H-37z"/>
        <g fill-rule="nonzero">
            <path fill="#E9EBEE" stroke="#D3D8E0" stroke-width="1.2" d="M52.162 53.349h1.28a2.593 2.593 0 0 1 0 5.185H3.593a2.593 2.593 0 0 1 0-5.185h24.926-23.68a27.608 27.608 0 0 0 3.837-14.05V28.747c0-9.363 6.526-17.182 15.22-19.041a4.918 4.918 0 0 1-.163-1.256c0-2.679 2.143-4.85 4.786-4.85s4.786 2.171 4.786 4.85c0 .544-.089 1.068-.252 1.556a19.133 19.133 0 0 1 8.4 4.981 19.58 19.58 0 0 1 5.614 13.76v9.859a23.867 23.867 0 0 0 5.096 14.743zM26.122 9.366a18.938 18.938 0 0 1 4.728.154c.146-.326.228-.688.228-1.07 0-1.433-1.146-2.594-2.56-2.594-1.414 0-2.56 1.161-2.56 2.594 0 .323.058.632.164.916zM36.193 58.55C36.013 62.716 32.626 66 28.51 66c-4.115 0-7.501-3.284-7.682-7.45h15.365z"/>
            <path fill="#B4BAC4" d="M47.016 11.76c-.123 0-.249-.16-.377-.479-.128-.319-.193-.59-.193-.815 0-.067.012-.123.034-.168l6.047-8.416H47.4c-.156 0-.27-.06-.343-.177-.073-.117-.11-.31-.11-.58V.74c0-.257.037-.445.11-.563C47.13.06 47.245 0 47.4 0h7.655c.1 0 .215.165.343.496.129.33.193.602.193.814 0 .09-.011.146-.034.168l-6.03 8.4h5.612c.156 0 .268.06.335.177.067.117.1.305.1.563v.403c0 .257-.033.445-.1.563-.067.117-.179.176-.335.176h-8.124zM57.512 19.2c-.064 0-.13-.081-.197-.244a1.129 1.129 0 0 1-.1-.416c0-.034.005-.063.017-.086l3.164-4.294h-2.682c-.082 0-.142-.03-.18-.09-.038-.06-.057-.159-.057-.296v-.197c0-.131.02-.227.057-.287.038-.06.098-.09.18-.09h4.006c.052 0 .112.084.18.253.066.168.1.307.1.416 0 .045-.006.074-.018.085l-3.155 4.286h2.936c.082 0 .14.03.176.09.035.06.052.156.052.287v.206a.593.593 0 0 1-.052.287c-.035.06-.094.09-.176.09h-4.25z"/>
        </g>
    </g>
</svg>
