<?xml version="1.0" encoding="UTF-8"?>
<svg width="14px" height="14px" viewBox="0 0 14 14" version="1.1" xmlns="http://www.w3.org/2000/svg" xmlns:xlink="http://www.w3.org/1999/xlink">
    <!-- Generator: Sketch 50.2 (55047) - http://www.bohemiancoding.com/sketch -->
    <title>Grey_tick</title>
    <desc>Created with Sketch.</desc>
    <defs></defs>
    <g id="Grey_tick" stroke="none" stroke-width="1" fill="none" fill-rule="evenodd">
        <path d="M7,14 C3.13400675,14 0,10.8659932 0,7 C0,3.13400675 3.13400675,0 7,0 C10.8659932,0 14,3.13400675 14,7 C14,10.8659932 10.8659932,14 7,14 Z M9.6917114,4.0380298 L6.04351613,9.01705077 L4.35607142,7.44368573 C4.09371395,7.19906493 3.68272685,7.21344334 3.43810605,7.47580082 C3.19348524,7.73815829 3.20786366,8.14914539 3.47022113,8.39376619 L5.69239301,10.4657082 C5.9769341,10.7310129 6.42929421,10.68836 6.65923035,10.3745454 L10.7395358,4.80578475 C10.9515455,4.51643603 10.8888498,4.11000475 10.5995011,3.89799508 C10.3101524,3.6859854 9.90372108,3.74868108 9.6917114,4.0380298 Z" id="Combined-Shape" fill="#787878"></path>
    </g>
</svg>