<?xml version="1.0" encoding="UTF-8"?>
<svg width="50px" height="50px" viewBox="0 0 50 50" version="1.1" xmlns="http://www.w3.org/2000/svg" xmlns:xlink="http://www.w3.org/1999/xlink">
    <!-- Generator: Sketch 59.1 (86144) - https://sketch.com -->
    <title>BoldReport_Header logo</title>
    <desc>Created with Sketch.</desc>
    <g id="BoldReport_Header-logo" stroke="none" stroke-width="1" fill="none" fill-rule="evenodd">
        <g id="App-logo-brand" transform="translate(2.000000, 6.000000)" fill="#FF4800" fill-rule="nonzero">
            <path d="M29.9119966,0.00560780096 L19.1896446,0.304720801 C17.9520289,0.336768622 16.7801273,0.785438122 15.8601297,1.57595105 C12.4101391,4.52435063 3.68111502,12.4615277 0.461123699,22.7381958 C-1.66363248,29.5216513 3.83444793,36.3157895 11.2053804,36.3157895 L36.7024545,36.3157895 C37.3157861,36.3157895 37.589595,35.5893722 37.1295962,35.2047983 C34.1834136,32.7584813 30.6896136,28.389295 40.7986339,18.4865181 C52.5943163,6.93861983 42.3210108,-0.229409556 29.9119966,0.00560780096 Z M25.5529608,23.9453304 C25.498199,24.1055696 25.3339137,24.201713 25.1586761,24.201713 L11.4025227,24.201713 C10.4934776,24.201713 9.8582412,23.3364218 10.164907,22.5138611 C10.5263346,21.563109 11.0958569,20.366657 11.9172833,19.2129355 L28.1267633,19.2129355 C26.8781952,20.7085004 26.122483,22.4390828 25.5529608,23.9453304 Z M34.3257942,11.339854 C33.8657955,12.1517321 33.2086543,12.995658 32.5296086,13.7754884 L15.4877498,13.7754884 C16.5063185,12.2051451 18.0506001,10.4638802 19.3648822,9.28879341 C19.7263098,8.96831519 20.1863086,8.78671087 20.6791644,8.78671087 L30.95247,8.78671087 C34.1286519,8.78671087 34.971983,10.1861324 34.3257942,11.339854 Z" id="Shape"></path>
        </g>
    </g>
</svg>