<?xml version="1.0" encoding="UTF-8"?>
<svg width="200px" height="40px" viewBox="0 0 200 40" version="1.1" xmlns="http://www.w3.org/2000/svg" xmlns:xlink="http://www.w3.org/1999/xlink">
    <!-- Generator: Sketch 53.2 (72643) - https://sketchapp.com -->
    <title>Login</title>
    <desc>Created with Sketch.</desc>
    <g id="Login" stroke="none" stroke-width="1" fill="none" fill-rule="evenodd">
        <g id="BoldBI-Logo-horizontal" transform="translate(23.000000, 1.000000)" fill-rule="nonzero">
            <g id="Group" fill="#FF4800">
                <path d="M9.82027972,0 L19.3045455,0 C21.9222028,0 24.0466783,2.128 24.0466783,4.75 L24.0466783,9.5 C24.0466783,12.122 21.9222028,14.25 19.3045455,14.25 L0.336013986,14.25 L0.336013986,9.5 C0.336013986,4.256 4.57954545,0 9.82027972,0 Z" id="Path"></path>
                <path d="M9.82027972,0 L19.3045455,0 C21.9222028,0 24.0466783,2.128 24.0466783,4.75 L24.0466783,9.5 C24.0466783,12.122 21.9222028,14.25 19.3045455,14.25 L0.336013986,14.25 L0.336013986,9.5 C0.336013986,4.256 4.57954545,0 9.82027972,0 Z" id="Path"></path>
                <path d="M0.336013986,19 L19.3045455,19 C21.9222028,19 24.0466783,21.128 24.0466783,23.75 L24.0466783,33.25 C24.0466783,35.872 21.9222028,38 19.3045455,38 L9.82027972,38 C4.58496503,38 0.336013986,33.744 0.336013986,28.5 C0.336013986,28.5 0.336013986,19 0.336013986,19 Z" id="Path"></path>
                <path d="M33.5309441,19 L38.2730769,19 L38.2730769,28.5 C38.2730769,33.744 34.0241259,38 28.7888112,38 L28.7888112,38 L28.7888112,23.75 C28.7888112,21.128 30.9078671,19 33.5309441,19 Z" id="Path"></path>
                <path d="M28.7888112,0 L28.7888112,0 C34.0241259,0 38.2730769,4.256 38.2730769,9.5 L38.2730769,14.25 L33.5309441,14.25 C30.9132867,14.25 28.7888112,12.122 28.7888112,9.5 L28.7888112,0 Z" id="Path"></path>
            </g>
            <g id="Group" transform="translate(54.737762, 7.057143)" fill="#283A5E">
                <path d="M0.184265734,22.7674286 L0.184265734,0.352857143 L8.85017483,0.352857143 C13.0232517,0.352857143 15.6138112,2.78485714 15.6138112,6.422 C15.6138112,8.58257143 14.4973776,10.2491429 12.8498252,10.9548571 C15.0718531,11.5628571 16.7519231,13.5171429 16.7519231,16.2205714 C16.7519231,20.0314286 13.9716783,22.7674286 9.8798951,22.7674286 L0.184265734,22.7674286 Z M8.44912587,4.60885714 L5.31660839,4.60885714 L5.31660839,9.25028571 L8.44912587,9.25028571 C9.76066434,9.25028571 10.6874126,8.41971429 10.6874126,6.92685714 C10.6874126,5.44485714 9.75524476,4.60885714 8.44912587,4.60885714 Z M9.1048951,13.3542857 L5.31660839,13.3542857 L5.31660839,18.5114286 L9.1048951,18.5114286 C10.513986,18.5114286 11.5003497,17.4854286 11.5003497,15.9328571 C11.5003497,14.3585714 10.5085664,13.3542857 9.1048951,13.3542857 Z" id="Shape"></path>
                <path d="M28.1926573,5.79228571 C33.4821678,5.79228571 37.4655594,9.60314286 37.4655594,14.4725714 C37.4655594,19.342 33.4875874,23.1528571 28.1926573,23.1528571 C22.8977273,23.1528571 18.9197552,19.342 18.9197552,14.4725714 C18.9197552,9.60314286 22.9031469,5.79228571 28.1926573,5.79228571 Z M28.1926573,18.6362857 C30.5718531,18.6362857 32.3657343,16.8448571 32.3657343,14.4725714 C32.3657343,12.1165714 30.5772727,10.3088571 28.1926573,10.3088571 C25.808042,10.3088571 24.0195804,12.1165714 24.0195804,14.4725714 C24.0195804,16.8448571 25.8134615,18.6362857 28.1926573,18.6362857 Z" id="Shape"></path>
                <polygon id="Path" points="40.4571678 0.352857143 45.5895105 0.352857143 45.5895105 22.7674286 40.4571678 22.7674286"></polygon>
                <path d="M56.3961538,5.79228571 C58.5694056,5.79228571 60.3632867,6.62285714 61.6531469,8.00171429 L61.6531469,0.347428571 L66.7041958,0.347428571 L66.7041958,22.762 L61.6531469,22.762 L61.6531469,20.938 C60.3578671,22.3168571 58.5694056,23.1474286 56.3961538,23.1474286 C51.8382867,23.1474286 48.6136364,19.3365714 48.6136364,14.4671429 C48.6136364,9.59771429 51.8382867,5.79228571 56.3961538,5.79228571 Z M57.6589161,18.6362857 C59.8972028,18.6362857 61.6531469,16.8448571 61.6531469,14.4725714 C61.6531469,12.1165714 59.8972028,10.3088571 57.6589161,10.3088571 C55.4368881,10.3088571 53.7134615,12.1165714 53.7134615,14.4725714 C53.708042,16.8448571 55.4368881,18.6362857 57.6589161,18.6362857 Z" id="Shape"></path>
                <path d="M74.4433566,22.7674286 L74.4433566,0.352857143 L83.1092657,0.352857143 C87.2823427,0.352857143 89.8729021,2.78485714 89.8729021,6.422 C89.8729021,8.58257143 88.7564685,10.2491429 87.1089161,10.9548571 C89.3309441,11.5628571 91.011014,13.5171429 91.011014,16.2205714 C91.011014,20.0314286 88.2307692,22.7674286 84.138986,22.7674286 L74.4433566,22.7674286 Z M82.7082168,4.60885714 L79.5756993,4.60885714 L79.5756993,9.25028571 L82.7082168,9.25028571 C84.0197552,9.25028571 84.9465035,8.41971429 84.9465035,6.92685714 C84.9465035,5.44485714 84.0197552,4.60885714 82.7082168,4.60885714 Z M83.363986,13.3542857 L79.5756993,13.3542857 L79.5756993,18.5114286 L83.363986,18.5114286 C84.7730769,18.5114286 85.7594406,17.4854286 85.7594406,15.9328571 C85.7594406,14.3585714 84.7730769,13.3542857 83.363986,13.3542857 Z" id="Shape"></path>
                <polygon id="Path" points="99.9262238 0.352857143 99.9262238 22.7674286 94.6367133 22.7674286 94.6367133 0.352857143"></polygon>
            </g>
        </g>
    </g>
</svg>