<svg xmlns="http://www.w3.org/2000/svg" width="153" height="124" viewBox="0 0 153 124">
    <defs>
        <linearGradient id="a" x1="100%" x2="0%" y1="50%" y2="50%">
            <stop offset="0%" stop-color="#FEE140"/>
            <stop offset="100%" stop-color="#FA709A"/>
        </linearGradient>
    </defs>
    <g fill="none" fill-rule="nonzero">
        <path fill="#FFF" d="M17 104c0-33.137 26.863-60 60-60s60 26.863 60 60H17z"/>
        <path fill="#CDD3ED" d="M130.28 82a1.5 1.5 0 0 1 0 3H112a1.5 1.5 0 0 1 0-3h18.28zM133.28 90a1.5 1.5 0 0 1 0 3h-14.974a1.5 1.5 0 0 1 0-3h14.974z"/>
        <path fill="#00B9C7" d="M77 48c-29.583 0-53.808 22.939-55.86 52h111.72C130.807 70.939 106.582 48 77 48zm-60 56c0-33.137 26.863-60 60-60s60 26.863 60 60H17zM77 30c-5.035 0-9.28 3.383-10.586 8h21.172c-1.306-4.617-5.55-8-10.586-8zM63 41c0-7.732 6.268-14 14-14s14 6.268 14 14H63zM4 120h145v-3a3 3 0 0 0-3-3H7a3 3 0 0 0-3 3v3zm3-10h139a7 7 0 0 1 7 7v7H0v-7a7 7 0 0 1 7-7z"/>
        <path fill="#00B9C7" d="M12 110h129v-3a3 3 0 0 0-3-3H15a3 3 0 0 0-3 3v3zm3-10h123a7 7 0 0 1 7 7v7H8v-7a7 7 0 0 1 7-7z"/>
        <path fill="#CDD3ED" d="M29.408 89.87a1.5 1.5 0 0 1-2.816-1.034c3.62-9.862 9.085-18.039 16.389-24.508 7.338-6.5 16.739-10.649 28.168-12.455a1.5 1.5 0 0 1 .469 2.963c-10.888 1.72-19.76 5.636-26.648 11.738-6.924 6.133-12.11 13.89-15.562 23.296z"/>
        <path fill="#00B9C7" d="M75 38h4v8h-4z"/>
        <path fill="url(#a)" d="M56.458 33.994a1 1 0 1 1-.734 1.86l-20.09-7.924a1 1 0 0 1 .733-1.86l20.09 7.924z"/>
        <path fill="url(#a)" d="M119.458 33.994a1 1 0 1 1-.734 1.86l-20.09-7.924a1 1 0 0 1 .733-1.86l20.09 7.924z" transform="matrix(-1 0 0 1 218.09 0)"/>
        <path fill="url(#a)" d="M86.718 13.218a1 1 0 0 1-.684 1.88l-17.57-6.396a1 1 0 1 1 .684-1.88l17.57 6.396z" transform="rotate(70 77.591 10.96)"/>
        <path fill="url(#a)" d="M64.789 16.573a1 1 0 0 1-.717 1.867L46.56 11.712a1 1 0 1 1 .717-1.867l17.512 6.728z" transform="scale(1 -1) rotate(-68 34.707 0)"/>
        <path fill="url(#a)" d="M106.6 17.573a1 1 0 0 1-.717 1.867l-17.511-6.728a1 1 0 1 1 .717-1.867l17.512 6.728z" transform="rotate(105 97.486 15.143)"/>
    </g>
</svg>
