<?xml version="1.0" encoding="UTF-8" standalone="no"?><!DOCTYPE svg PUBLIC "-//W3C//DTD SVG 1.1//EN" "http://www.w3.org/Graphics/SVG/1.1/DTD/svg11.dtd"><svg width="100%" height="100%" viewBox="0 0 380 220" version="1.1" xmlns="http://www.w3.org/2000/svg" xmlns:xlink="http://www.w3.org/1999/xlink" xml:space="preserve" xmlns:serif="http://www.serif.com/" style="fill-rule:evenodd;clip-rule:evenodd;stroke-linecap:round;stroke-linejoin:round;stroke-miterlimit:1.5;"><rect id="Artboard1" x="0" y="0" width="380" height="220" style="fill:none;"/><g><g opacity="0.399994"><path d="M312.463,103.452l-45.803,0c-12.649,0 -22.901,-10.401 -22.901,-23.042l0,-23.042c0,-12.801 10.252,-23.201 22.901,-23.201l91.604,0l0,23.201c0,25.441 -20.506,46.084 -45.801,46.084" style="fill:#e9ebee;fill-rule:nonzero;"/></g></g><g><g opacity="0.399994"><path d="M138.412,153.237l0,29.953l-59.85,0c-33.043,0 -59.851,-26.821 -59.851,-59.905l89.777,0c16.625,0 29.924,13.408 29.924,29.952" style="fill:#e9ebee;fill-rule:nonzero;"/></g></g><g><g opacity="0.100006"><path d="M259.749,25.882c0,0.394 -0.32,0.714 -0.715,0.714c-0.394,0 -0.714,-0.32 -0.714,-0.714c0,-0.395 0.32,-0.715 0.714,-0.715c0.395,0 0.715,0.32 0.715,0.715" style="fill:#fb043d;fill-rule:nonzero;"/><path d="M267.484,25.882c0,0.394 -0.32,0.714 -0.714,0.714c-0.395,0 -0.715,-0.32 -0.715,-0.714c0,-0.395 0.32,-0.715 0.715,-0.715c0.394,0 0.714,0.32 0.714,0.715" style="fill:#fb043d;fill-rule:nonzero;"/><path d="M275.219,25.882c0,0.394 -0.319,0.714 -0.714,0.714c-0.395,0 -0.715,-0.32 -0.715,-0.714c0,-0.395 0.32,-0.715 0.715,-0.715c0.395,0 0.714,0.32 0.714,0.715" style="fill:#fb043d;fill-rule:nonzero;"/><path d="M282.955,25.882c0,0.394 -0.321,0.714 -0.715,0.714c-0.395,0 -0.714,-0.32 -0.714,-0.714c0,-0.395 0.319,-0.715 0.714,-0.715c0.394,0 0.715,0.32 0.715,0.715" style="fill:#fb043d;fill-rule:nonzero;"/><path d="M290.69,25.882c0,0.394 -0.32,0.714 -0.715,0.714c-0.394,0 -0.714,-0.32 -0.714,-0.714c0,-0.395 0.32,-0.715 0.714,-0.715c0.395,0 0.715,0.32 0.715,0.715" style="fill:#fb043d;fill-rule:nonzero;"/><path d="M298.425,25.882c0,0.394 -0.32,0.714 -0.714,0.714c-0.395,0 -0.715,-0.32 -0.715,-0.714c0,-0.395 0.32,-0.715 0.715,-0.715c0.394,0 0.714,0.32 0.714,0.715" style="fill:#fb043d;fill-rule:nonzero;"/><path d="M306.16,25.882c0,0.394 -0.32,0.714 -0.714,0.714c-0.395,0 -0.715,-0.32 -0.715,-0.714c0,-0.395 0.32,-0.715 0.715,-0.715c0.394,0 0.714,0.32 0.714,0.715" style="fill:#fb043d;fill-rule:nonzero;"/><path d="M313.895,25.882c0,0.394 -0.319,0.714 -0.714,0.714c-0.394,0 -0.715,-0.32 -0.715,-0.714c0,-0.395 0.321,-0.715 0.715,-0.715c0.395,0 0.714,0.32 0.714,0.715" style="fill:#fb043d;fill-rule:nonzero;"/><path d="M321.631,25.882c0,0.394 -0.32,0.714 -0.715,0.714c-0.395,0 -0.714,-0.32 -0.714,-0.714c0,-0.395 0.319,-0.715 0.714,-0.715c0.395,0 0.715,0.32 0.715,0.715" style="fill:#fb043d;fill-rule:nonzero;"/><path d="M329.366,25.882c0,0.394 -0.32,0.714 -0.715,0.714c-0.394,0 -0.714,-0.32 -0.714,-0.714c0,-0.395 0.32,-0.715 0.714,-0.715c0.395,0 0.715,0.32 0.715,0.715" style="fill:#fb043d;fill-rule:nonzero;"/><path d="M259.749,31.934c0,0.395 -0.32,0.715 -0.715,0.715c-0.394,0 -0.714,-0.32 -0.714,-0.715c0,-0.394 0.32,-0.714 0.714,-0.714c0.395,0 0.715,0.32 0.715,0.714" style="fill:#fb043d;fill-rule:nonzero;"/><path d="M267.484,31.934c0,0.395 -0.32,0.715 -0.714,0.715c-0.395,0 -0.715,-0.32 -0.715,-0.715c0,-0.394 0.32,-0.714 0.715,-0.714c0.394,0 0.714,0.32 0.714,0.714" style="fill:#fb043d;fill-rule:nonzero;"/><path d="M275.219,31.934c0,0.395 -0.319,0.715 -0.714,0.715c-0.395,0 -0.715,-0.32 -0.715,-0.715c0,-0.394 0.32,-0.714 0.715,-0.714c0.395,0 0.714,0.32 0.714,0.714" style="fill:#fb043d;fill-rule:nonzero;"/><path d="M282.955,31.934c0,0.395 -0.321,0.715 -0.715,0.715c-0.395,0 -0.714,-0.32 -0.714,-0.715c0,-0.394 0.319,-0.714 0.714,-0.714c0.394,0 0.715,0.32 0.715,0.714" style="fill:#fb043d;fill-rule:nonzero;"/><path d="M290.69,31.934c0,0.395 -0.32,0.715 -0.715,0.715c-0.394,0 -0.714,-0.32 -0.714,-0.715c0,-0.394 0.32,-0.714 0.714,-0.714c0.395,0 0.715,0.32 0.715,0.714" style="fill:#fb043d;fill-rule:nonzero;"/><path d="M298.425,31.934c0,0.395 -0.32,0.715 -0.714,0.715c-0.395,0 -0.715,-0.32 -0.715,-0.715c0,-0.394 0.32,-0.714 0.715,-0.714c0.394,0 0.714,0.32 0.714,0.714" style="fill:#fb043d;fill-rule:nonzero;"/><path d="M306.16,31.934c0,0.395 -0.32,0.715 -0.714,0.715c-0.395,0 -0.715,-0.32 -0.715,-0.715c0,-0.394 0.32,-0.714 0.715,-0.714c0.394,0 0.714,0.32 0.714,0.714" style="fill:#fb043d;fill-rule:nonzero;"/><path d="M313.895,31.934c0,0.395 -0.319,0.715 -0.714,0.715c-0.394,0 -0.715,-0.32 -0.715,-0.715c0,-0.394 0.321,-0.714 0.715,-0.714c0.395,0 0.714,0.32 0.714,0.714" style="fill:#fb043d;fill-rule:nonzero;"/><path d="M321.631,31.934c0,0.395 -0.32,0.715 -0.715,0.715c-0.395,0 -0.714,-0.32 -0.714,-0.715c0,-0.394 0.319,-0.714 0.714,-0.714c0.395,0 0.715,0.32 0.715,0.714" style="fill:#fb043d;fill-rule:nonzero;"/><path d="M329.366,31.934c0,0.395 -0.32,0.715 -0.715,0.715c-0.394,0 -0.714,-0.32 -0.714,-0.715c0,-0.394 0.32,-0.714 0.714,-0.714c0.395,0 0.715,0.32 0.715,0.714" style="fill:#fb043d;fill-rule:nonzero;"/><path d="M259.749,37.987c0,0.395 -0.32,0.715 -0.715,0.715c-0.394,0 -0.714,-0.32 -0.714,-0.715c0,-0.395 0.32,-0.714 0.714,-0.714c0.395,0 0.715,0.319 0.715,0.714" style="fill:#fb043d;fill-rule:nonzero;"/><path d="M267.484,37.987c0,0.395 -0.32,0.715 -0.714,0.715c-0.395,0 -0.715,-0.32 -0.715,-0.715c0,-0.395 0.32,-0.714 0.715,-0.714c0.394,0 0.714,0.319 0.714,0.714" style="fill:#fb043d;fill-rule:nonzero;"/><path d="M275.219,37.987c0,0.395 -0.319,0.715 -0.714,0.715c-0.395,0 -0.715,-0.32 -0.715,-0.715c0,-0.395 0.32,-0.714 0.715,-0.714c0.395,0 0.714,0.319 0.714,0.714" style="fill:#fb043d;fill-rule:nonzero;"/><path d="M282.955,37.987c0,0.395 -0.321,0.715 -0.715,0.715c-0.395,0 -0.714,-0.32 -0.714,-0.715c0,-0.395 0.319,-0.714 0.714,-0.714c0.394,0 0.715,0.319 0.715,0.714" style="fill:#fb043d;fill-rule:nonzero;"/><path d="M290.69,37.987c0,0.395 -0.32,0.715 -0.715,0.715c-0.394,0 -0.714,-0.32 -0.714,-0.715c0,-0.395 0.32,-0.714 0.714,-0.714c0.395,0 0.715,0.319 0.715,0.714" style="fill:#fb043d;fill-rule:nonzero;"/><path d="M298.425,37.987c0,0.395 -0.32,0.715 -0.714,0.715c-0.395,0 -0.715,-0.32 -0.715,-0.715c0,-0.395 0.32,-0.714 0.715,-0.714c0.394,0 0.714,0.319 0.714,0.714" style="fill:#fb043d;fill-rule:nonzero;"/><path d="M306.16,37.987c0,0.395 -0.32,0.715 -0.714,0.715c-0.395,0 -0.715,-0.32 -0.715,-0.715c0,-0.395 0.32,-0.714 0.715,-0.714c0.394,0 0.714,0.319 0.714,0.714" style="fill:#fb043d;fill-rule:nonzero;"/><path d="M313.895,37.987c0,0.395 -0.319,0.715 -0.714,0.715c-0.394,0 -0.715,-0.32 -0.715,-0.715c0,-0.395 0.321,-0.714 0.715,-0.714c0.395,0 0.714,0.319 0.714,0.714" style="fill:#fb043d;fill-rule:nonzero;"/><path d="M321.631,37.987c0,0.395 -0.32,0.715 -0.715,0.715c-0.395,0 -0.714,-0.32 -0.714,-0.715c0,-0.395 0.319,-0.714 0.714,-0.714c0.395,0 0.715,0.319 0.715,0.714" style="fill:#fb043d;fill-rule:nonzero;"/><path d="M329.366,37.987c0,0.395 -0.32,0.715 -0.715,0.715c-0.394,0 -0.714,-0.32 -0.714,-0.715c0,-0.395 0.32,-0.714 0.714,-0.714c0.395,0 0.715,0.319 0.715,0.714" style="fill:#fb043d;fill-rule:nonzero;"/><path d="M259.749,44.04c0,0.394 -0.32,0.714 -0.715,0.714c-0.394,0 -0.714,-0.32 -0.714,-0.714c0,-0.395 0.32,-0.715 0.714,-0.715c0.395,0 0.715,0.32 0.715,0.715" style="fill:#fb043d;fill-rule:nonzero;"/><path d="M267.484,44.04c0,0.394 -0.32,0.714 -0.714,0.714c-0.395,0 -0.715,-0.32 -0.715,-0.714c0,-0.395 0.32,-0.715 0.715,-0.715c0.394,0 0.714,0.32 0.714,0.715" style="fill:#fb043d;fill-rule:nonzero;"/><path d="M275.219,44.04c0,0.394 -0.319,0.714 -0.714,0.714c-0.395,0 -0.715,-0.32 -0.715,-0.714c0,-0.395 0.32,-0.715 0.715,-0.715c0.395,0 0.714,0.32 0.714,0.715" style="fill:#fb043d;fill-rule:nonzero;"/><path d="M282.955,44.04c0,0.394 -0.321,0.714 -0.715,0.714c-0.395,0 -0.714,-0.32 -0.714,-0.714c0,-0.395 0.319,-0.715 0.714,-0.715c0.394,0 0.715,0.32 0.715,0.715" style="fill:#fb043d;fill-rule:nonzero;"/><path d="M290.69,44.04c0,0.394 -0.32,0.714 -0.715,0.714c-0.394,0 -0.714,-0.32 -0.714,-0.714c0,-0.395 0.32,-0.715 0.714,-0.715c0.395,0 0.715,0.32 0.715,0.715" style="fill:#fb043d;fill-rule:nonzero;"/><path d="M298.425,44.04c0,0.394 -0.32,0.714 -0.714,0.714c-0.395,0 -0.715,-0.32 -0.715,-0.714c0,-0.395 0.32,-0.715 0.715,-0.715c0.394,0 0.714,0.32 0.714,0.715" style="fill:#fb043d;fill-rule:nonzero;"/><path d="M306.16,44.04c0,0.394 -0.32,0.714 -0.714,0.714c-0.395,0 -0.715,-0.32 -0.715,-0.714c0,-0.395 0.32,-0.715 0.715,-0.715c0.394,0 0.714,0.32 0.714,0.715" style="fill:#fb043d;fill-rule:nonzero;"/><path d="M313.895,44.04c0,0.394 -0.319,0.714 -0.714,0.714c-0.394,0 -0.715,-0.32 -0.715,-0.714c0,-0.395 0.321,-0.715 0.715,-0.715c0.395,0 0.714,0.32 0.714,0.715" style="fill:#fb043d;fill-rule:nonzero;"/><path d="M321.631,44.04c0,0.394 -0.32,0.714 -0.715,0.714c-0.395,0 -0.714,-0.32 -0.714,-0.714c0,-0.395 0.319,-0.715 0.714,-0.715c0.395,0 0.715,0.32 0.715,0.715" style="fill:#fb043d;fill-rule:nonzero;"/><path d="M329.366,44.04c0,0.394 -0.32,0.714 -0.715,0.714c-0.394,0 -0.714,-0.32 -0.714,-0.714c0,-0.395 0.32,-0.715 0.714,-0.715c0.395,0 0.715,0.32 0.715,0.715" style="fill:#fb043d;fill-rule:nonzero;"/><path d="M259.749,50.092c0,0.395 -0.32,0.715 -0.715,0.715c-0.394,0 -0.714,-0.32 -0.714,-0.715c0,-0.394 0.32,-0.714 0.714,-0.714c0.395,0 0.715,0.32 0.715,0.714" style="fill:#fb043d;fill-rule:nonzero;"/><path d="M267.484,50.092c0,0.395 -0.32,0.715 -0.714,0.715c-0.395,0 -0.715,-0.32 -0.715,-0.715c0,-0.394 0.32,-0.714 0.715,-0.714c0.394,0 0.714,0.32 0.714,0.714" style="fill:#fb043d;fill-rule:nonzero;"/><path d="M275.219,50.092c0,0.395 -0.319,0.715 -0.714,0.715c-0.395,0 -0.715,-0.32 -0.715,-0.715c0,-0.394 0.32,-0.714 0.715,-0.714c0.395,0 0.714,0.32 0.714,0.714" style="fill:#fb043d;fill-rule:nonzero;"/><path d="M282.955,50.092c0,0.395 -0.321,0.715 -0.715,0.715c-0.395,0 -0.714,-0.32 -0.714,-0.715c0,-0.394 0.319,-0.714 0.714,-0.714c0.394,0 0.715,0.32 0.715,0.714" style="fill:#fb043d;fill-rule:nonzero;"/><path d="M290.69,50.092c0,0.395 -0.32,0.715 -0.715,0.715c-0.394,0 -0.714,-0.32 -0.714,-0.715c0,-0.394 0.32,-0.714 0.714,-0.714c0.395,0 0.715,0.32 0.715,0.714" style="fill:#fb043d;fill-rule:nonzero;"/><path d="M298.425,50.092c0,0.395 -0.32,0.715 -0.714,0.715c-0.395,0 -0.715,-0.32 -0.715,-0.715c0,-0.394 0.32,-0.714 0.715,-0.714c0.394,0 0.714,0.32 0.714,0.714" style="fill:#fb043d;fill-rule:nonzero;"/><path d="M306.16,50.092c0,0.395 -0.32,0.715 -0.714,0.715c-0.395,0 -0.715,-0.32 -0.715,-0.715c0,-0.394 0.32,-0.714 0.715,-0.714c0.394,0 0.714,0.32 0.714,0.714" style="fill:#fb043d;fill-rule:nonzero;"/><path d="M313.895,50.092c0,0.395 -0.319,0.715 -0.714,0.715c-0.394,0 -0.715,-0.32 -0.715,-0.715c0,-0.394 0.321,-0.714 0.715,-0.714c0.395,0 0.714,0.32 0.714,0.714" style="fill:#fb043d;fill-rule:nonzero;"/><path d="M321.631,50.092c0,0.395 -0.32,0.715 -0.715,0.715c-0.395,0 -0.714,-0.32 -0.714,-0.715c0,-0.394 0.319,-0.714 0.714,-0.714c0.395,0 0.715,0.32 0.715,0.714" style="fill:#fb043d;fill-rule:nonzero;"/><path d="M329.366,50.092c0,0.395 -0.32,0.715 -0.715,0.715c-0.394,0 -0.714,-0.32 -0.714,-0.715c0,-0.394 0.32,-0.714 0.714,-0.714c0.395,0 0.715,0.32 0.715,0.714" style="fill:#fb043d;fill-rule:nonzero;"/><path d="M259.749,56.145c0,0.395 -0.32,0.715 -0.715,0.715c-0.394,0 -0.714,-0.32 -0.714,-0.715c0,-0.395 0.32,-0.714 0.714,-0.714c0.395,0 0.715,0.319 0.715,0.714" style="fill:#fb043d;fill-rule:nonzero;"/><path d="M267.484,56.145c0,0.395 -0.32,0.715 -0.714,0.715c-0.395,0 -0.715,-0.32 -0.715,-0.715c0,-0.395 0.32,-0.714 0.715,-0.714c0.394,0 0.714,0.319 0.714,0.714" style="fill:#fb043d;fill-rule:nonzero;"/><path d="M275.219,56.145c0,0.395 -0.319,0.715 -0.714,0.715c-0.395,0 -0.715,-0.32 -0.715,-0.715c0,-0.395 0.32,-0.714 0.715,-0.714c0.395,0 0.714,0.319 0.714,0.714" style="fill:#fb043d;fill-rule:nonzero;"/><path d="M282.955,56.145c0,0.395 -0.321,0.715 -0.715,0.715c-0.395,0 -0.714,-0.32 -0.714,-0.715c0,-0.395 0.319,-0.714 0.714,-0.714c0.394,0 0.715,0.319 0.715,0.714" style="fill:#fb043d;fill-rule:nonzero;"/><path d="M290.69,56.145c0,0.395 -0.32,0.715 -0.715,0.715c-0.394,0 -0.714,-0.32 -0.714,-0.715c0,-0.395 0.32,-0.714 0.714,-0.714c0.395,0 0.715,0.319 0.715,0.714" style="fill:#fb043d;fill-rule:nonzero;"/><path d="M298.425,56.145c0,0.395 -0.32,0.715 -0.714,0.715c-0.395,0 -0.715,-0.32 -0.715,-0.715c0,-0.395 0.32,-0.714 0.715,-0.714c0.394,0 0.714,0.319 0.714,0.714" style="fill:#fb043d;fill-rule:nonzero;"/><path d="M306.16,56.145c0,0.395 -0.32,0.715 -0.714,0.715c-0.395,0 -0.715,-0.32 -0.715,-0.715c0,-0.395 0.32,-0.714 0.715,-0.714c0.394,0 0.714,0.319 0.714,0.714" style="fill:#fb043d;fill-rule:nonzero;"/><path d="M313.895,56.145c0,0.395 -0.319,0.715 -0.714,0.715c-0.394,0 -0.715,-0.32 -0.715,-0.715c0,-0.395 0.321,-0.714 0.715,-0.714c0.395,0 0.714,0.319 0.714,0.714" style="fill:#fb043d;fill-rule:nonzero;"/><path d="M321.631,56.145c0,0.395 -0.32,0.715 -0.715,0.715c-0.395,0 -0.714,-0.32 -0.714,-0.715c0,-0.395 0.319,-0.714 0.714,-0.714c0.395,0 0.715,0.319 0.715,0.714" style="fill:#fb043d;fill-rule:nonzero;"/><path d="M329.366,56.145c0,0.395 -0.32,0.715 -0.715,0.715c-0.394,0 -0.714,-0.32 -0.714,-0.715c0,-0.395 0.32,-0.714 0.714,-0.714c0.395,0 0.715,0.319 0.715,0.714" style="fill:#fb043d;fill-rule:nonzero;"/><path d="M259.749,62.198c0,0.394 -0.32,0.714 -0.715,0.714c-0.394,0 -0.714,-0.32 -0.714,-0.714c0,-0.395 0.32,-0.715 0.714,-0.715c0.395,0 0.715,0.32 0.715,0.715" style="fill:#fb043d;fill-rule:nonzero;"/><path d="M267.484,62.198c0,0.394 -0.32,0.714 -0.714,0.714c-0.395,0 -0.715,-0.32 -0.715,-0.714c0,-0.395 0.32,-0.715 0.715,-0.715c0.394,0 0.714,0.32 0.714,0.715" style="fill:#fb043d;fill-rule:nonzero;"/><path d="M275.219,62.198c0,0.394 -0.319,0.714 -0.714,0.714c-0.395,0 -0.715,-0.32 -0.715,-0.714c0,-0.395 0.32,-0.715 0.715,-0.715c0.395,0 0.714,0.32 0.714,0.715" style="fill:#fb043d;fill-rule:nonzero;"/><path d="M282.955,62.198c0,0.394 -0.321,0.714 -0.715,0.714c-0.395,0 -0.714,-0.32 -0.714,-0.714c0,-0.395 0.319,-0.715 0.714,-0.715c0.394,0 0.715,0.32 0.715,0.715" style="fill:#fb043d;fill-rule:nonzero;"/><path d="M290.69,62.198c0,0.394 -0.32,0.714 -0.715,0.714c-0.394,0 -0.714,-0.32 -0.714,-0.714c0,-0.395 0.32,-0.715 0.714,-0.715c0.395,0 0.715,0.32 0.715,0.715" style="fill:#fb043d;fill-rule:nonzero;"/><path d="M298.425,62.198c0,0.394 -0.32,0.714 -0.714,0.714c-0.395,0 -0.715,-0.32 -0.715,-0.714c0,-0.395 0.32,-0.715 0.715,-0.715c0.394,0 0.714,0.32 0.714,0.715" style="fill:#fb043d;fill-rule:nonzero;"/><path d="M306.16,62.198c0,0.394 -0.32,0.714 -0.714,0.714c-0.395,0 -0.715,-0.32 -0.715,-0.714c0,-0.395 0.32,-0.715 0.715,-0.715c0.394,0 0.714,0.32 0.714,0.715" style="fill:#fb043d;fill-rule:nonzero;"/><path d="M313.895,62.198c0,0.394 -0.319,0.714 -0.714,0.714c-0.394,0 -0.715,-0.32 -0.715,-0.714c0,-0.395 0.321,-0.715 0.715,-0.715c0.395,0 0.714,0.32 0.714,0.715" style="fill:#fb043d;fill-rule:nonzero;"/><path d="M321.631,62.198c0,0.394 -0.32,0.714 -0.715,0.714c-0.395,0 -0.714,-0.32 -0.714,-0.714c0,-0.395 0.319,-0.715 0.714,-0.715c0.395,0 0.715,0.32 0.715,0.715" style="fill:#fb043d;fill-rule:nonzero;"/><path d="M329.366,62.198c0,0.394 -0.32,0.714 -0.715,0.714c-0.394,0 -0.714,-0.32 -0.714,-0.714c0,-0.395 0.32,-0.715 0.714,-0.715c0.395,0 0.715,0.32 0.715,0.715" style="fill:#fb043d;fill-rule:nonzero;"/><path d="M259.749,68.25c0,0.395 -0.32,0.715 -0.715,0.715c-0.394,0 -0.714,-0.32 -0.714,-0.715c0,-0.394 0.32,-0.714 0.714,-0.714c0.395,0 0.715,0.32 0.715,0.714" style="fill:#fb043d;fill-rule:nonzero;"/><path d="M267.484,68.25c0,0.395 -0.32,0.715 -0.714,0.715c-0.395,0 -0.715,-0.32 -0.715,-0.715c0,-0.394 0.32,-0.714 0.715,-0.714c0.394,0 0.714,0.32 0.714,0.714" style="fill:#fb043d;fill-rule:nonzero;"/><path d="M275.219,68.25c0,0.395 -0.319,0.715 -0.714,0.715c-0.395,0 -0.715,-0.32 -0.715,-0.715c0,-0.394 0.32,-0.714 0.715,-0.714c0.395,0 0.714,0.32 0.714,0.714" style="fill:#fb043d;fill-rule:nonzero;"/><path d="M282.955,68.25c0,0.395 -0.321,0.715 -0.715,0.715c-0.395,0 -0.714,-0.32 -0.714,-0.715c0,-0.394 0.319,-0.714 0.714,-0.714c0.394,0 0.715,0.32 0.715,0.714" style="fill:#fb043d;fill-rule:nonzero;"/><path d="M290.69,68.25c0,0.395 -0.32,0.715 -0.715,0.715c-0.394,0 -0.714,-0.32 -0.714,-0.715c0,-0.394 0.32,-0.714 0.714,-0.714c0.395,0 0.715,0.32 0.715,0.714" style="fill:#fb043d;fill-rule:nonzero;"/><path d="M298.425,68.25c0,0.395 -0.32,0.715 -0.714,0.715c-0.395,0 -0.715,-0.32 -0.715,-0.715c0,-0.394 0.32,-0.714 0.715,-0.714c0.394,0 0.714,0.32 0.714,0.714" style="fill:#fb043d;fill-rule:nonzero;"/><path d="M306.16,68.25c0,0.395 -0.32,0.715 -0.714,0.715c-0.395,0 -0.715,-0.32 -0.715,-0.715c0,-0.394 0.32,-0.714 0.715,-0.714c0.394,0 0.714,0.32 0.714,0.714" style="fill:#fb043d;fill-rule:nonzero;"/><path d="M313.895,68.25c0,0.395 -0.319,0.715 -0.714,0.715c-0.394,0 -0.715,-0.32 -0.715,-0.715c0,-0.394 0.321,-0.714 0.715,-0.714c0.395,0 0.714,0.32 0.714,0.714" style="fill:#fb043d;fill-rule:nonzero;"/><path d="M321.631,68.25c0,0.395 -0.32,0.715 -0.715,0.715c-0.395,0 -0.714,-0.32 -0.714,-0.715c0,-0.394 0.319,-0.714 0.714,-0.714c0.395,0 0.715,0.32 0.715,0.714" style="fill:#fb043d;fill-rule:nonzero;"/><path d="M329.366,68.25c0,0.395 -0.32,0.715 -0.715,0.715c-0.394,0 -0.714,-0.32 -0.714,-0.715c0,-0.394 0.32,-0.714 0.714,-0.714c0.395,0 0.715,0.32 0.715,0.714" style="fill:#fb043d;fill-rule:nonzero;"/><path d="M259.749,74.303c0,0.395 -0.32,0.715 -0.715,0.715c-0.394,0 -0.714,-0.32 -0.714,-0.715c0,-0.394 0.32,-0.714 0.714,-0.714c0.395,0 0.715,0.32 0.715,0.714" style="fill:#fb043d;fill-rule:nonzero;"/><path d="M267.484,74.303c0,0.395 -0.32,0.715 -0.714,0.715c-0.395,0 -0.715,-0.32 -0.715,-0.715c0,-0.394 0.32,-0.714 0.715,-0.714c0.394,0 0.714,0.32 0.714,0.714" style="fill:#fb043d;fill-rule:nonzero;"/><path d="M275.219,74.303c0,0.395 -0.319,0.715 -0.714,0.715c-0.395,0 -0.715,-0.32 -0.715,-0.715c0,-0.394 0.32,-0.714 0.715,-0.714c0.395,0 0.714,0.32 0.714,0.714" style="fill:#fb043d;fill-rule:nonzero;"/><path d="M282.955,74.303c0,0.395 -0.321,0.715 -0.715,0.715c-0.395,0 -0.714,-0.32 -0.714,-0.715c0,-0.394 0.319,-0.714 0.714,-0.714c0.394,0 0.715,0.32 0.715,0.714" style="fill:#fb043d;fill-rule:nonzero;"/><path d="M290.69,74.303c0,0.395 -0.32,0.715 -0.715,0.715c-0.394,0 -0.714,-0.32 -0.714,-0.715c0,-0.394 0.32,-0.714 0.714,-0.714c0.395,0 0.715,0.32 0.715,0.714" style="fill:#fb043d;fill-rule:nonzero;"/><path d="M298.425,74.303c0,0.395 -0.32,0.715 -0.714,0.715c-0.395,0 -0.715,-0.32 -0.715,-0.715c0,-0.394 0.32,-0.714 0.715,-0.714c0.394,0 0.714,0.32 0.714,0.714" style="fill:#fb043d;fill-rule:nonzero;"/><path d="M306.16,74.303c0,0.395 -0.32,0.715 -0.714,0.715c-0.395,0 -0.715,-0.32 -0.715,-0.715c0,-0.394 0.32,-0.714 0.715,-0.714c0.394,0 0.714,0.32 0.714,0.714" style="fill:#fb043d;fill-rule:nonzero;"/><path d="M313.895,74.303c0,0.395 -0.319,0.715 -0.714,0.715c-0.394,0 -0.715,-0.32 -0.715,-0.715c0,-0.394 0.321,-0.714 0.715,-0.714c0.395,0 0.714,0.32 0.714,0.714" style="fill:#fb043d;fill-rule:nonzero;"/><path d="M321.631,74.303c0,0.395 -0.32,0.715 -0.715,0.715c-0.395,0 -0.714,-0.32 -0.714,-0.715c0,-0.394 0.319,-0.714 0.714,-0.714c0.395,0 0.715,0.32 0.715,0.714" style="fill:#fb043d;fill-rule:nonzero;"/><path d="M329.366,74.303c0,0.395 -0.32,0.715 -0.715,0.715c-0.394,0 -0.714,-0.32 -0.714,-0.715c0,-0.394 0.32,-0.714 0.714,-0.714c0.395,0 0.715,0.32 0.715,0.714" style="fill:#fb043d;fill-rule:nonzero;"/><path d="M259.749,80.356c0,0.394 -0.32,0.715 -0.715,0.715c-0.394,0 -0.714,-0.321 -0.714,-0.715c0,-0.395 0.32,-0.714 0.714,-0.714c0.395,0 0.715,0.319 0.715,0.714" style="fill:#fb043d;fill-rule:nonzero;"/><path d="M267.484,80.356c0,0.394 -0.32,0.715 -0.714,0.715c-0.395,0 -0.715,-0.321 -0.715,-0.715c0,-0.395 0.32,-0.714 0.715,-0.714c0.394,0 0.714,0.319 0.714,0.714" style="fill:#fb043d;fill-rule:nonzero;"/><path d="M275.219,80.356c0,0.394 -0.319,0.715 -0.714,0.715c-0.395,0 -0.715,-0.321 -0.715,-0.715c0,-0.395 0.32,-0.714 0.715,-0.714c0.395,0 0.714,0.319 0.714,0.714" style="fill:#fb043d;fill-rule:nonzero;"/><path d="M282.955,80.356c0,0.394 -0.321,0.715 -0.715,0.715c-0.395,0 -0.714,-0.321 -0.714,-0.715c0,-0.395 0.319,-0.714 0.714,-0.714c0.394,0 0.715,0.319 0.715,0.714" style="fill:#fb043d;fill-rule:nonzero;"/><path d="M290.69,80.356c0,0.394 -0.32,0.715 -0.715,0.715c-0.394,0 -0.714,-0.321 -0.714,-0.715c0,-0.395 0.32,-0.714 0.714,-0.714c0.395,0 0.715,0.319 0.715,0.714" style="fill:#fb043d;fill-rule:nonzero;"/><path d="M298.425,80.356c0,0.394 -0.32,0.715 -0.714,0.715c-0.395,0 -0.715,-0.321 -0.715,-0.715c0,-0.395 0.32,-0.714 0.715,-0.714c0.394,0 0.714,0.319 0.714,0.714" style="fill:#fb043d;fill-rule:nonzero;"/><path d="M306.16,80.356c0,0.394 -0.32,0.715 -0.714,0.715c-0.395,0 -0.715,-0.321 -0.715,-0.715c0,-0.395 0.32,-0.714 0.715,-0.714c0.394,0 0.714,0.319 0.714,0.714" style="fill:#fb043d;fill-rule:nonzero;"/><path d="M313.895,80.356c0,0.394 -0.319,0.715 -0.714,0.715c-0.394,0 -0.715,-0.321 -0.715,-0.715c0,-0.395 0.321,-0.714 0.715,-0.714c0.395,0 0.714,0.319 0.714,0.714" style="fill:#fb043d;fill-rule:nonzero;"/><path d="M321.631,80.356c0,0.394 -0.32,0.715 -0.715,0.715c-0.395,0 -0.714,-0.321 -0.714,-0.715c0,-0.395 0.319,-0.714 0.714,-0.714c0.395,0 0.715,0.319 0.715,0.714" style="fill:#fb043d;fill-rule:nonzero;"/><path d="M329.366,80.356c0,0.394 -0.32,0.715 -0.715,0.715c-0.394,0 -0.714,-0.321 -0.714,-0.715c0,-0.395 0.32,-0.714 0.714,-0.714c0.395,0 0.715,0.319 0.715,0.714" style="fill:#fb043d;fill-rule:nonzero;"/><path d="M259.749,86.409c0,0.394 -0.32,0.714 -0.715,0.714c-0.394,0 -0.714,-0.32 -0.714,-0.714c0,-0.395 0.32,-0.715 0.714,-0.715c0.395,0 0.715,0.32 0.715,0.715" style="fill:#fb043d;fill-rule:nonzero;"/><path d="M267.484,86.409c0,0.394 -0.32,0.714 -0.714,0.714c-0.395,0 -0.715,-0.32 -0.715,-0.714c0,-0.395 0.32,-0.715 0.715,-0.715c0.394,0 0.714,0.32 0.714,0.715" style="fill:#fb043d;fill-rule:nonzero;"/><path d="M275.219,86.409c0,0.394 -0.319,0.714 -0.714,0.714c-0.395,0 -0.715,-0.32 -0.715,-0.714c0,-0.395 0.32,-0.715 0.715,-0.715c0.395,0 0.714,0.32 0.714,0.715" style="fill:#fb043d;fill-rule:nonzero;"/><path d="M282.955,86.409c0,0.394 -0.321,0.714 -0.715,0.714c-0.395,0 -0.714,-0.32 -0.714,-0.714c0,-0.395 0.319,-0.715 0.714,-0.715c0.394,0 0.715,0.32 0.715,0.715" style="fill:#fb043d;fill-rule:nonzero;"/><path d="M290.69,86.409c0,0.394 -0.32,0.714 -0.715,0.714c-0.394,0 -0.714,-0.32 -0.714,-0.714c0,-0.395 0.32,-0.715 0.714,-0.715c0.395,0 0.715,0.32 0.715,0.715" style="fill:#fb043d;fill-rule:nonzero;"/><path d="M298.425,86.409c0,0.394 -0.32,0.714 -0.714,0.714c-0.395,0 -0.715,-0.32 -0.715,-0.714c0,-0.395 0.32,-0.715 0.715,-0.715c0.394,0 0.714,0.32 0.714,0.715" style="fill:#fb043d;fill-rule:nonzero;"/><path d="M306.16,86.409c0,0.394 -0.32,0.714 -0.714,0.714c-0.395,0 -0.715,-0.32 -0.715,-0.714c0,-0.395 0.32,-0.715 0.715,-0.715c0.394,0 0.714,0.32 0.714,0.715" style="fill:#fb043d;fill-rule:nonzero;"/><path d="M313.895,86.409c0,0.394 -0.319,0.714 -0.714,0.714c-0.394,0 -0.715,-0.32 -0.715,-0.714c0,-0.395 0.321,-0.715 0.715,-0.715c0.395,0 0.714,0.32 0.714,0.715" style="fill:#fb043d;fill-rule:nonzero;"/><path d="M321.631,86.409c0,0.394 -0.32,0.714 -0.715,0.714c-0.395,0 -0.714,-0.32 -0.714,-0.714c0,-0.395 0.319,-0.715 0.714,-0.715c0.395,0 0.715,0.32 0.715,0.715" style="fill:#fb043d;fill-rule:nonzero;"/><path d="M329.366,86.409c0,0.394 -0.32,0.714 -0.715,0.714c-0.394,0 -0.714,-0.32 -0.714,-0.714c0,-0.395 0.32,-0.715 0.714,-0.715c0.395,0 0.715,0.32 0.715,0.715" style="fill:#fb043d;fill-rule:nonzero;"/><path d="M259.749,92.007c0,0.395 -0.32,0.715 -0.715,0.715c-0.394,0 -0.714,-0.32 -0.714,-0.715c0,-0.394 0.32,-0.714 0.714,-0.714c0.395,0 0.715,0.32 0.715,0.714" style="fill:#fb043d;fill-rule:nonzero;"/><path d="M267.484,92.007c0,0.395 -0.32,0.715 -0.714,0.715c-0.395,0 -0.715,-0.32 -0.715,-0.715c0,-0.394 0.32,-0.714 0.715,-0.714c0.394,0 0.714,0.32 0.714,0.714" style="fill:#fb043d;fill-rule:nonzero;"/><path d="M275.219,92.007c0,0.395 -0.319,0.715 -0.714,0.715c-0.395,0 -0.715,-0.32 -0.715,-0.715c0,-0.394 0.32,-0.714 0.715,-0.714c0.395,0 0.714,0.32 0.714,0.714" style="fill:#fb043d;fill-rule:nonzero;"/><path d="M282.955,92.007c0,0.395 -0.321,0.715 -0.715,0.715c-0.395,0 -0.714,-0.32 -0.714,-0.715c0,-0.394 0.319,-0.714 0.714,-0.714c0.394,0 0.715,0.32 0.715,0.714" style="fill:#fb043d;fill-rule:nonzero;"/><path d="M290.69,92.007c0,0.395 -0.32,0.715 -0.715,0.715c-0.394,0 -0.714,-0.32 -0.714,-0.715c0,-0.394 0.32,-0.714 0.714,-0.714c0.395,0 0.715,0.32 0.715,0.714" style="fill:#fb043d;fill-rule:nonzero;"/><path d="M298.425,92.007c0,0.395 -0.32,0.715 -0.714,0.715c-0.395,0 -0.715,-0.32 -0.715,-0.715c0,-0.394 0.32,-0.714 0.715,-0.714c0.394,0 0.714,0.32 0.714,0.714" style="fill:#fb043d;fill-rule:nonzero;"/><path d="M306.16,92.007c0,0.395 -0.32,0.715 -0.714,0.715c-0.395,0 -0.715,-0.32 -0.715,-0.715c0,-0.394 0.32,-0.714 0.715,-0.714c0.394,0 0.714,0.32 0.714,0.714" style="fill:#fb043d;fill-rule:nonzero;"/><path d="M313.895,92.007c0,0.395 -0.319,0.715 -0.714,0.715c-0.394,0 -0.715,-0.32 -0.715,-0.715c0,-0.394 0.321,-0.714 0.715,-0.714c0.395,0 0.714,0.32 0.714,0.714" style="fill:#fb043d;fill-rule:nonzero;"/><path d="M321.631,92.007c0,0.395 -0.32,0.715 -0.715,0.715c-0.395,0 -0.714,-0.32 -0.714,-0.715c0,-0.394 0.319,-0.714 0.714,-0.714c0.395,0 0.715,0.32 0.715,0.714" style="fill:#fb043d;fill-rule:nonzero;"/><path d="M329.366,92.007c0,0.395 -0.32,0.715 -0.715,0.715c-0.394,0 -0.714,-0.32 -0.714,-0.715c0,-0.394 0.32,-0.714 0.714,-0.714c0.395,0 0.715,0.32 0.715,0.714" style="fill:#fb043d;fill-rule:nonzero;"/><path d="M259.749,98.06c0,0.394 -0.32,0.715 -0.715,0.715c-0.394,0 -0.714,-0.321 -0.714,-0.715c0,-0.395 0.32,-0.714 0.714,-0.714c0.395,0 0.715,0.319 0.715,0.714" style="fill:#fb043d;fill-rule:nonzero;"/><path d="M267.484,98.06c0,0.394 -0.32,0.715 -0.714,0.715c-0.395,0 -0.715,-0.321 -0.715,-0.715c0,-0.395 0.32,-0.714 0.715,-0.714c0.394,0 0.714,0.319 0.714,0.714" style="fill:#fb043d;fill-rule:nonzero;"/><path d="M275.219,98.06c0,0.394 -0.319,0.715 -0.714,0.715c-0.395,0 -0.715,-0.321 -0.715,-0.715c0,-0.395 0.32,-0.714 0.715,-0.714c0.395,0 0.714,0.319 0.714,0.714" style="fill:#fb043d;fill-rule:nonzero;"/><path d="M282.955,98.06c0,0.394 -0.321,0.715 -0.715,0.715c-0.395,0 -0.714,-0.321 -0.714,-0.715c0,-0.395 0.319,-0.714 0.714,-0.714c0.394,0 0.715,0.319 0.715,0.714" style="fill:#fb043d;fill-rule:nonzero;"/><path d="M290.69,98.06c0,0.394 -0.32,0.715 -0.715,0.715c-0.394,0 -0.714,-0.321 -0.714,-0.715c0,-0.395 0.32,-0.714 0.714,-0.714c0.395,0 0.715,0.319 0.715,0.714" style="fill:#fb043d;fill-rule:nonzero;"/><path d="M298.425,98.06c0,0.394 -0.32,0.715 -0.714,0.715c-0.395,0 -0.715,-0.321 -0.715,-0.715c0,-0.395 0.32,-0.714 0.715,-0.714c0.394,0 0.714,0.319 0.714,0.714" style="fill:#fb043d;fill-rule:nonzero;"/><path d="M306.16,98.06c0,0.394 -0.32,0.715 -0.714,0.715c-0.395,0 -0.715,-0.321 -0.715,-0.715c0,-0.395 0.32,-0.714 0.715,-0.714c0.394,0 0.714,0.319 0.714,0.714" style="fill:#fb043d;fill-rule:nonzero;"/><path d="M313.895,98.06c0,0.394 -0.319,0.715 -0.714,0.715c-0.394,0 -0.715,-0.321 -0.715,-0.715c0,-0.395 0.321,-0.714 0.715,-0.714c0.395,0 0.714,0.319 0.714,0.714" style="fill:#fb043d;fill-rule:nonzero;"/><path d="M321.631,98.06c0,0.394 -0.32,0.715 -0.715,0.715c-0.395,0 -0.714,-0.321 -0.714,-0.715c0,-0.395 0.319,-0.714 0.714,-0.714c0.395,0 0.715,0.319 0.715,0.714" style="fill:#fb043d;fill-rule:nonzero;"/><path d="M329.366,98.06c0,0.394 -0.32,0.715 -0.715,0.715c-0.394,0 -0.714,-0.321 -0.714,-0.715c0,-0.395 0.32,-0.714 0.714,-0.714c0.395,0 0.715,0.319 0.715,0.714" style="fill:#fb043d;fill-rule:nonzero;"/><path d="M259.749,104.112c0,0.395 -0.32,0.715 -0.715,0.715c-0.394,0 -0.714,-0.32 -0.714,-0.715c0,-0.394 0.32,-0.714 0.714,-0.714c0.395,0 0.715,0.32 0.715,0.714" style="fill:#fb043d;fill-rule:nonzero;"/><path d="M267.484,104.112c0,0.395 -0.32,0.715 -0.714,0.715c-0.395,0 -0.715,-0.32 -0.715,-0.715c0,-0.394 0.32,-0.714 0.715,-0.714c0.394,0 0.714,0.32 0.714,0.714" style="fill:#fb043d;fill-rule:nonzero;"/><path d="M275.219,104.112c0,0.395 -0.319,0.715 -0.714,0.715c-0.395,0 -0.715,-0.32 -0.715,-0.715c0,-0.394 0.32,-0.714 0.715,-0.714c0.395,0 0.714,0.32 0.714,0.714" style="fill:#fb043d;fill-rule:nonzero;"/><path d="M282.955,104.112c0,0.395 -0.321,0.715 -0.715,0.715c-0.395,0 -0.714,-0.32 -0.714,-0.715c0,-0.394 0.319,-0.714 0.714,-0.714c0.394,0 0.715,0.32 0.715,0.714" style="fill:#fb043d;fill-rule:nonzero;"/><path d="M290.69,104.112c0,0.395 -0.32,0.715 -0.715,0.715c-0.394,0 -0.714,-0.32 -0.714,-0.715c0,-0.394 0.32,-0.714 0.714,-0.714c0.395,0 0.715,0.32 0.715,0.714" style="fill:#fb043d;fill-rule:nonzero;"/><path d="M298.425,104.112c0,0.395 -0.32,0.715 -0.714,0.715c-0.395,0 -0.715,-0.32 -0.715,-0.715c0,-0.394 0.32,-0.714 0.715,-0.714c0.394,0 0.714,0.32 0.714,0.714" style="fill:#fb043d;fill-rule:nonzero;"/><path d="M306.16,104.112c0,0.395 -0.32,0.715 -0.714,0.715c-0.395,0 -0.715,-0.32 -0.715,-0.715c0,-0.394 0.32,-0.714 0.715,-0.714c0.394,0 0.714,0.32 0.714,0.714" style="fill:#fb043d;fill-rule:nonzero;"/><path d="M313.895,104.112c0,0.395 -0.319,0.715 -0.714,0.715c-0.394,0 -0.715,-0.32 -0.715,-0.715c0,-0.394 0.321,-0.714 0.715,-0.714c0.395,0 0.714,0.32 0.714,0.714" style="fill:#fb043d;fill-rule:nonzero;"/><path d="M321.631,104.112c0,0.395 -0.32,0.715 -0.715,0.715c-0.395,0 -0.714,-0.32 -0.714,-0.715c0,-0.394 0.319,-0.714 0.714,-0.714c0.395,0 0.715,0.32 0.715,0.714" style="fill:#fb043d;fill-rule:nonzero;"/><path d="M329.366,104.112c0,0.395 -0.32,0.715 -0.715,0.715c-0.394,0 -0.714,-0.32 -0.714,-0.715c0,-0.394 0.32,-0.714 0.714,-0.714c0.395,0 0.715,0.32 0.715,0.714" style="fill:#fb043d;fill-rule:nonzero;"/><path d="M259.749,110.165c0,0.395 -0.32,0.715 -0.715,0.715c-0.394,0 -0.714,-0.32 -0.714,-0.715c0,-0.394 0.32,-0.714 0.714,-0.714c0.395,0 0.715,0.32 0.715,0.714" style="fill:#fb043d;fill-rule:nonzero;"/><path d="M267.484,110.165c0,0.395 -0.32,0.715 -0.714,0.715c-0.395,0 -0.715,-0.32 -0.715,-0.715c0,-0.394 0.32,-0.714 0.715,-0.714c0.394,0 0.714,0.32 0.714,0.714" style="fill:#fb043d;fill-rule:nonzero;"/><path d="M275.219,110.165c0,0.395 -0.319,0.715 -0.714,0.715c-0.395,0 -0.715,-0.32 -0.715,-0.715c0,-0.394 0.32,-0.714 0.715,-0.714c0.395,0 0.714,0.32 0.714,0.714" style="fill:#fb043d;fill-rule:nonzero;"/><path d="M282.955,110.165c0,0.395 -0.321,0.715 -0.715,0.715c-0.395,0 -0.714,-0.32 -0.714,-0.715c0,-0.394 0.319,-0.714 0.714,-0.714c0.394,0 0.715,0.32 0.715,0.714" style="fill:#fb043d;fill-rule:nonzero;"/><path d="M290.69,110.165c0,0.395 -0.32,0.715 -0.715,0.715c-0.394,0 -0.714,-0.32 -0.714,-0.715c0,-0.394 0.32,-0.714 0.714,-0.714c0.395,0 0.715,0.32 0.715,0.714" style="fill:#fb043d;fill-rule:nonzero;"/><path d="M298.425,110.165c0,0.395 -0.32,0.715 -0.714,0.715c-0.395,0 -0.715,-0.32 -0.715,-0.715c0,-0.394 0.32,-0.714 0.715,-0.714c0.394,0 0.714,0.32 0.714,0.714" style="fill:#fb043d;fill-rule:nonzero;"/><path d="M306.16,110.165c0,0.395 -0.32,0.715 -0.714,0.715c-0.395,0 -0.715,-0.32 -0.715,-0.715c0,-0.394 0.32,-0.714 0.715,-0.714c0.394,0 0.714,0.32 0.714,0.714" style="fill:#fb043d;fill-rule:nonzero;"/><path d="M313.895,110.165c0,0.395 -0.319,0.715 -0.714,0.715c-0.394,0 -0.715,-0.32 -0.715,-0.715c0,-0.394 0.321,-0.714 0.715,-0.714c0.395,0 0.714,0.32 0.714,0.714" style="fill:#fb043d;fill-rule:nonzero;"/><path d="M321.631,110.165c0,0.395 -0.32,0.715 -0.715,0.715c-0.395,0 -0.714,-0.32 -0.714,-0.715c0,-0.394 0.319,-0.714 0.714,-0.714c0.395,0 0.715,0.32 0.715,0.714" style="fill:#fb043d;fill-rule:nonzero;"/><path d="M329.366,110.165c0,0.395 -0.32,0.715 -0.715,0.715c-0.394,0 -0.714,-0.32 -0.714,-0.715c0,-0.394 0.32,-0.714 0.714,-0.714c0.395,0 0.715,0.32 0.715,0.714" style="fill:#fb043d;fill-rule:nonzero;"/><path d="M259.749,116.218c0,0.395 -0.32,0.715 -0.715,0.715c-0.394,0 -0.714,-0.32 -0.714,-0.715c0,-0.395 0.32,-0.714 0.714,-0.714c0.395,0 0.715,0.319 0.715,0.714" style="fill:#fb043d;fill-rule:nonzero;"/><path d="M267.484,116.218c0,0.395 -0.32,0.715 -0.714,0.715c-0.395,0 -0.715,-0.32 -0.715,-0.715c0,-0.395 0.32,-0.714 0.715,-0.714c0.394,0 0.714,0.319 0.714,0.714" style="fill:#fb043d;fill-rule:nonzero;"/><path d="M275.219,116.218c0,0.395 -0.319,0.715 -0.714,0.715c-0.395,0 -0.715,-0.32 -0.715,-0.715c0,-0.395 0.32,-0.714 0.715,-0.714c0.395,0 0.714,0.319 0.714,0.714" style="fill:#fb043d;fill-rule:nonzero;"/><path d="M282.955,116.218c0,0.395 -0.321,0.715 -0.715,0.715c-0.395,0 -0.714,-0.32 -0.714,-0.715c0,-0.395 0.319,-0.714 0.714,-0.714c0.394,0 0.715,0.319 0.715,0.714" style="fill:#fb043d;fill-rule:nonzero;"/><path d="M290.69,116.218c0,0.395 -0.32,0.715 -0.715,0.715c-0.394,0 -0.714,-0.32 -0.714,-0.715c0,-0.395 0.32,-0.714 0.714,-0.714c0.395,0 0.715,0.319 0.715,0.714" style="fill:#fb043d;fill-rule:nonzero;"/><path d="M298.425,116.218c0,0.395 -0.32,0.715 -0.714,0.715c-0.395,0 -0.715,-0.32 -0.715,-0.715c0,-0.395 0.32,-0.714 0.715,-0.714c0.394,0 0.714,0.319 0.714,0.714" style="fill:#fb043d;fill-rule:nonzero;"/><path d="M306.16,116.218c0,0.395 -0.32,0.715 -0.714,0.715c-0.395,0 -0.715,-0.32 -0.715,-0.715c0,-0.395 0.32,-0.714 0.715,-0.714c0.394,0 0.714,0.319 0.714,0.714" style="fill:#fb043d;fill-rule:nonzero;"/><path d="M313.895,116.218c0,0.395 -0.319,0.715 -0.714,0.715c-0.394,0 -0.715,-0.32 -0.715,-0.715c0,-0.395 0.321,-0.714 0.715,-0.714c0.395,0 0.714,0.319 0.714,0.714" style="fill:#fb043d;fill-rule:nonzero;"/><path d="M321.631,116.218c0,0.395 -0.32,0.715 -0.715,0.715c-0.395,0 -0.714,-0.32 -0.714,-0.715c0,-0.395 0.319,-0.714 0.714,-0.714c0.395,0 0.715,0.319 0.715,0.714" style="fill:#fb043d;fill-rule:nonzero;"/><path d="M329.366,116.218c0,0.395 -0.32,0.715 -0.715,0.715c-0.394,0 -0.714,-0.32 -0.714,-0.715c0,-0.395 0.32,-0.714 0.714,-0.714c0.395,0 0.715,0.319 0.715,0.714" style="fill:#fb043d;fill-rule:nonzero;"/><path d="M259.749,122.271c0,0.394 -0.32,0.714 -0.715,0.714c-0.394,0 -0.714,-0.32 -0.714,-0.714c0,-0.395 0.32,-0.715 0.714,-0.715c0.395,0 0.715,0.32 0.715,0.715" style="fill:#fb043d;fill-rule:nonzero;"/><path d="M267.484,122.271c0,0.394 -0.32,0.714 -0.714,0.714c-0.395,0 -0.715,-0.32 -0.715,-0.714c0,-0.395 0.32,-0.715 0.715,-0.715c0.394,0 0.714,0.32 0.714,0.715" style="fill:#fb043d;fill-rule:nonzero;"/><path d="M275.219,122.271c0,0.394 -0.319,0.714 -0.714,0.714c-0.395,0 -0.715,-0.32 -0.715,-0.714c0,-0.395 0.32,-0.715 0.715,-0.715c0.395,0 0.714,0.32 0.714,0.715" style="fill:#fb043d;fill-rule:nonzero;"/><path d="M282.955,122.271c0,0.394 -0.321,0.714 -0.715,0.714c-0.395,0 -0.714,-0.32 -0.714,-0.714c0,-0.395 0.319,-0.715 0.714,-0.715c0.394,0 0.715,0.32 0.715,0.715" style="fill:#fb043d;fill-rule:nonzero;"/><path d="M290.69,122.271c0,0.394 -0.32,0.714 -0.715,0.714c-0.394,0 -0.714,-0.32 -0.714,-0.714c0,-0.395 0.32,-0.715 0.714,-0.715c0.395,0 0.715,0.32 0.715,0.715" style="fill:#fb043d;fill-rule:nonzero;"/><path d="M298.425,122.271c0,0.394 -0.32,0.714 -0.714,0.714c-0.395,0 -0.715,-0.32 -0.715,-0.714c0,-0.395 0.32,-0.715 0.715,-0.715c0.394,0 0.714,0.32 0.714,0.715" style="fill:#fb043d;fill-rule:nonzero;"/><path d="M306.16,122.271c0,0.394 -0.32,0.714 -0.714,0.714c-0.395,0 -0.715,-0.32 -0.715,-0.714c0,-0.395 0.32,-0.715 0.715,-0.715c0.394,0 0.714,0.32 0.714,0.715" style="fill:#fb043d;fill-rule:nonzero;"/><path d="M313.895,122.271c0,0.394 -0.319,0.714 -0.714,0.714c-0.394,0 -0.715,-0.32 -0.715,-0.714c0,-0.395 0.321,-0.715 0.715,-0.715c0.395,0 0.714,0.32 0.714,0.715" style="fill:#fb043d;fill-rule:nonzero;"/><path d="M321.631,122.271c0,0.394 -0.32,0.714 -0.715,0.714c-0.395,0 -0.714,-0.32 -0.714,-0.714c0,-0.395 0.319,-0.715 0.714,-0.715c0.395,0 0.715,0.32 0.715,0.715" style="fill:#fb043d;fill-rule:nonzero;"/><path d="M329.366,122.271c0,0.394 -0.32,0.714 -0.715,0.714c-0.394,0 -0.714,-0.32 -0.714,-0.714c0,-0.395 0.32,-0.715 0.714,-0.715c0.395,0 0.715,0.32 0.715,0.715" style="fill:#fb043d;fill-rule:nonzero;"/><path d="M259.749,128.323c0,0.395 -0.32,0.715 -0.715,0.715c-0.394,0 -0.714,-0.32 -0.714,-0.715c0,-0.394 0.32,-0.714 0.714,-0.714c0.395,0 0.715,0.32 0.715,0.714" style="fill:#fb043d;fill-rule:nonzero;"/><path d="M267.484,128.323c0,0.395 -0.32,0.715 -0.714,0.715c-0.395,0 -0.715,-0.32 -0.715,-0.715c0,-0.394 0.32,-0.714 0.715,-0.714c0.394,0 0.714,0.32 0.714,0.714" style="fill:#fb043d;fill-rule:nonzero;"/><path d="M275.219,128.323c0,0.395 -0.319,0.715 -0.714,0.715c-0.395,0 -0.715,-0.32 -0.715,-0.715c0,-0.394 0.32,-0.714 0.715,-0.714c0.395,0 0.714,0.32 0.714,0.714" style="fill:#fb043d;fill-rule:nonzero;"/><path d="M282.955,128.323c0,0.395 -0.321,0.715 -0.715,0.715c-0.395,0 -0.714,-0.32 -0.714,-0.715c0,-0.394 0.319,-0.714 0.714,-0.714c0.394,0 0.715,0.32 0.715,0.714" style="fill:#fb043d;fill-rule:nonzero;"/><path d="M290.69,128.323c0,0.395 -0.32,0.715 -0.715,0.715c-0.394,0 -0.714,-0.32 -0.714,-0.715c0,-0.394 0.32,-0.714 0.714,-0.714c0.395,0 0.715,0.32 0.715,0.714" style="fill:#fb043d;fill-rule:nonzero;"/><path d="M298.425,128.323c0,0.395 -0.32,0.715 -0.714,0.715c-0.395,0 -0.715,-0.32 -0.715,-0.715c0,-0.394 0.32,-0.714 0.715,-0.714c0.394,0 0.714,0.32 0.714,0.714" style="fill:#fb043d;fill-rule:nonzero;"/><path d="M306.16,128.323c0,0.395 -0.32,0.715 -0.714,0.715c-0.395,0 -0.715,-0.32 -0.715,-0.715c0,-0.394 0.32,-0.714 0.715,-0.714c0.394,0 0.714,0.32 0.714,0.714" style="fill:#fb043d;fill-rule:nonzero;"/><path d="M313.895,128.323c0,0.395 -0.319,0.715 -0.714,0.715c-0.394,0 -0.715,-0.32 -0.715,-0.715c0,-0.394 0.321,-0.714 0.715,-0.714c0.395,0 0.714,0.32 0.714,0.714" style="fill:#fb043d;fill-rule:nonzero;"/><path d="M321.631,128.323c0,0.395 -0.32,0.715 -0.715,0.715c-0.395,0 -0.714,-0.32 -0.714,-0.715c0,-0.394 0.319,-0.714 0.714,-0.714c0.395,0 0.715,0.32 0.715,0.714" style="fill:#fb043d;fill-rule:nonzero;"/><path d="M329.366,128.323c0,0.395 -0.32,0.715 -0.715,0.715c-0.394,0 -0.714,-0.32 -0.714,-0.715c0,-0.394 0.32,-0.714 0.714,-0.714c0.395,0 0.715,0.32 0.715,0.714" style="fill:#fb043d;fill-rule:nonzero;"/><path d="M259.749,134.376c0,0.395 -0.32,0.715 -0.715,0.715c-0.394,0 -0.714,-0.32 -0.714,-0.715c0,-0.395 0.32,-0.714 0.714,-0.714c0.395,0 0.715,0.319 0.715,0.714" style="fill:#fb043d;fill-rule:nonzero;"/><path d="M267.484,134.376c0,0.395 -0.32,0.715 -0.714,0.715c-0.395,0 -0.715,-0.32 -0.715,-0.715c0,-0.395 0.32,-0.714 0.715,-0.714c0.394,0 0.714,0.319 0.714,0.714" style="fill:#fb043d;fill-rule:nonzero;"/><path d="M275.219,134.376c0,0.395 -0.319,0.715 -0.714,0.715c-0.395,0 -0.715,-0.32 -0.715,-0.715c0,-0.395 0.32,-0.714 0.715,-0.714c0.395,0 0.714,0.319 0.714,0.714" style="fill:#fb043d;fill-rule:nonzero;"/><path d="M282.955,134.376c0,0.395 -0.321,0.715 -0.715,0.715c-0.395,0 -0.714,-0.32 -0.714,-0.715c0,-0.395 0.319,-0.714 0.714,-0.714c0.394,0 0.715,0.319 0.715,0.714" style="fill:#fb043d;fill-rule:nonzero;"/><path d="M290.69,134.376c0,0.395 -0.32,0.715 -0.715,0.715c-0.394,0 -0.714,-0.32 -0.714,-0.715c0,-0.395 0.32,-0.714 0.714,-0.714c0.395,0 0.715,0.319 0.715,0.714" style="fill:#fb043d;fill-rule:nonzero;"/><path d="M298.425,134.376c0,0.395 -0.32,0.715 -0.714,0.715c-0.395,0 -0.715,-0.32 -0.715,-0.715c0,-0.395 0.32,-0.714 0.715,-0.714c0.394,0 0.714,0.319 0.714,0.714" style="fill:#fb043d;fill-rule:nonzero;"/><path d="M306.16,134.376c0,0.395 -0.32,0.715 -0.714,0.715c-0.395,0 -0.715,-0.32 -0.715,-0.715c0,-0.395 0.32,-0.714 0.715,-0.714c0.394,0 0.714,0.319 0.714,0.714" style="fill:#fb043d;fill-rule:nonzero;"/><path d="M313.895,134.376c0,0.395 -0.319,0.715 -0.714,0.715c-0.394,0 -0.715,-0.32 -0.715,-0.715c0,-0.395 0.321,-0.714 0.715,-0.714c0.395,0 0.714,0.319 0.714,0.714" style="fill:#fb043d;fill-rule:nonzero;"/><path d="M321.631,134.376c0,0.395 -0.32,0.715 -0.715,0.715c-0.395,0 -0.714,-0.32 -0.714,-0.715c0,-0.395 0.319,-0.714 0.714,-0.714c0.395,0 0.715,0.319 0.715,0.714" style="fill:#fb043d;fill-rule:nonzero;"/><path d="M329.366,134.376c0,0.395 -0.32,0.715 -0.715,0.715c-0.394,0 -0.714,-0.32 -0.714,-0.715c0,-0.395 0.32,-0.714 0.714,-0.714c0.395,0 0.715,0.319 0.715,0.714" style="fill:#fb043d;fill-rule:nonzero;"/><path d="M259.749,140.429c0,0.394 -0.32,0.715 -0.715,0.715c-0.394,0 -0.714,-0.321 -0.714,-0.715c0,-0.395 0.32,-0.714 0.714,-0.714c0.395,0 0.715,0.319 0.715,0.714" style="fill:#fb043d;fill-rule:nonzero;"/><path d="M267.484,140.429c0,0.394 -0.32,0.715 -0.714,0.715c-0.395,0 -0.715,-0.321 -0.715,-0.715c0,-0.395 0.32,-0.714 0.715,-0.714c0.394,0 0.714,0.319 0.714,0.714" style="fill:#fb043d;fill-rule:nonzero;"/><path d="M275.219,140.429c0,0.394 -0.319,0.715 -0.714,0.715c-0.395,0 -0.715,-0.321 -0.715,-0.715c0,-0.395 0.32,-0.714 0.715,-0.714c0.395,0 0.714,0.319 0.714,0.714" style="fill:#fb043d;fill-rule:nonzero;"/><path d="M282.955,140.429c0,0.394 -0.321,0.715 -0.715,0.715c-0.395,0 -0.714,-0.321 -0.714,-0.715c0,-0.395 0.319,-0.714 0.714,-0.714c0.394,0 0.715,0.319 0.715,0.714" style="fill:#fb043d;fill-rule:nonzero;"/><path d="M290.69,140.429c0,0.394 -0.32,0.715 -0.715,0.715c-0.394,0 -0.714,-0.321 -0.714,-0.715c0,-0.395 0.32,-0.714 0.714,-0.714c0.395,0 0.715,0.319 0.715,0.714" style="fill:#fb043d;fill-rule:nonzero;"/><path d="M298.425,140.429c0,0.394 -0.32,0.715 -0.714,0.715c-0.395,0 -0.715,-0.321 -0.715,-0.715c0,-0.395 0.32,-0.714 0.715,-0.714c0.394,0 0.714,0.319 0.714,0.714" style="fill:#fb043d;fill-rule:nonzero;"/><path d="M306.16,140.429c0,0.394 -0.32,0.715 -0.714,0.715c-0.395,0 -0.715,-0.321 -0.715,-0.715c0,-0.395 0.32,-0.714 0.715,-0.714c0.394,0 0.714,0.319 0.714,0.714" style="fill:#fb043d;fill-rule:nonzero;"/><path d="M313.895,140.429c0,0.394 -0.319,0.715 -0.714,0.715c-0.394,0 -0.715,-0.321 -0.715,-0.715c0,-0.395 0.321,-0.714 0.715,-0.714c0.395,0 0.714,0.319 0.714,0.714" style="fill:#fb043d;fill-rule:nonzero;"/><path d="M321.631,140.429c0,0.394 -0.32,0.715 -0.715,0.715c-0.395,0 -0.714,-0.321 -0.714,-0.715c0,-0.395 0.319,-0.714 0.714,-0.714c0.395,0 0.715,0.319 0.715,0.714" style="fill:#fb043d;fill-rule:nonzero;"/><path d="M329.366,140.429c0,0.394 -0.32,0.715 -0.715,0.715c-0.394,0 -0.714,-0.321 -0.714,-0.715c0,-0.395 0.32,-0.714 0.714,-0.714c0.395,0 0.715,0.319 0.715,0.714" style="fill:#fb043d;fill-rule:nonzero;"/><path d="M259.749,146.481c0,0.395 -0.32,0.715 -0.715,0.715c-0.394,0 -0.714,-0.32 -0.714,-0.715c0,-0.394 0.32,-0.714 0.714,-0.714c0.395,0 0.715,0.32 0.715,0.714" style="fill:#fb043d;fill-rule:nonzero;"/><path d="M267.484,146.481c0,0.395 -0.32,0.715 -0.714,0.715c-0.395,0 -0.715,-0.32 -0.715,-0.715c0,-0.394 0.32,-0.714 0.715,-0.714c0.394,0 0.714,0.32 0.714,0.714" style="fill:#fb043d;fill-rule:nonzero;"/><path d="M275.219,146.481c0,0.395 -0.319,0.715 -0.714,0.715c-0.395,0 -0.715,-0.32 -0.715,-0.715c0,-0.394 0.32,-0.714 0.715,-0.714c0.395,0 0.714,0.32 0.714,0.714" style="fill:#fb043d;fill-rule:nonzero;"/><path d="M282.955,146.481c0,0.395 -0.321,0.715 -0.715,0.715c-0.395,0 -0.714,-0.32 -0.714,-0.715c0,-0.394 0.319,-0.714 0.714,-0.714c0.394,0 0.715,0.32 0.715,0.714" style="fill:#fb043d;fill-rule:nonzero;"/><path d="M290.69,146.481c0,0.395 -0.32,0.715 -0.715,0.715c-0.394,0 -0.714,-0.32 -0.714,-0.715c0,-0.394 0.32,-0.714 0.714,-0.714c0.395,0 0.715,0.32 0.715,0.714" style="fill:#fb043d;fill-rule:nonzero;"/><path d="M298.425,146.481c0,0.395 -0.32,0.715 -0.714,0.715c-0.395,0 -0.715,-0.32 -0.715,-0.715c0,-0.394 0.32,-0.714 0.715,-0.714c0.394,0 0.714,0.32 0.714,0.714" style="fill:#fb043d;fill-rule:nonzero;"/><path d="M306.16,146.481c0,0.395 -0.32,0.715 -0.714,0.715c-0.395,0 -0.715,-0.32 -0.715,-0.715c0,-0.394 0.32,-0.714 0.715,-0.714c0.394,0 0.714,0.32 0.714,0.714" style="fill:#fb043d;fill-rule:nonzero;"/><path d="M313.895,146.481c0,0.395 -0.319,0.715 -0.714,0.715c-0.394,0 -0.715,-0.32 -0.715,-0.715c0,-0.394 0.321,-0.714 0.715,-0.714c0.395,0 0.714,0.32 0.714,0.714" style="fill:#fb043d;fill-rule:nonzero;"/><path d="M321.631,146.481c0,0.395 -0.32,0.715 -0.715,0.715c-0.395,0 -0.714,-0.32 -0.714,-0.715c0,-0.394 0.319,-0.714 0.714,-0.714c0.395,0 0.715,0.32 0.715,0.714" style="fill:#fb043d;fill-rule:nonzero;"/><path d="M329.366,146.481c0,0.395 -0.32,0.715 -0.715,0.715c-0.394,0 -0.714,-0.32 -0.714,-0.715c0,-0.394 0.32,-0.714 0.714,-0.714c0.395,0 0.715,0.32 0.715,0.714" style="fill:#fb043d;fill-rule:nonzero;"/><path d="M259.749,152.534c0,0.395 -0.32,0.715 -0.715,0.715c-0.394,0 -0.714,-0.32 -0.714,-0.715c0,-0.395 0.32,-0.714 0.714,-0.714c0.395,0 0.715,0.319 0.715,0.714" style="fill:#fb043d;fill-rule:nonzero;"/><path d="M267.484,152.534c0,0.395 -0.32,0.715 -0.714,0.715c-0.395,0 -0.715,-0.32 -0.715,-0.715c0,-0.395 0.32,-0.714 0.715,-0.714c0.394,0 0.714,0.319 0.714,0.714" style="fill:#fb043d;fill-rule:nonzero;"/><path d="M275.219,152.534c0,0.395 -0.319,0.715 -0.714,0.715c-0.395,0 -0.715,-0.32 -0.715,-0.715c0,-0.395 0.32,-0.714 0.715,-0.714c0.395,0 0.714,0.319 0.714,0.714" style="fill:#fb043d;fill-rule:nonzero;"/><path d="M282.955,152.534c0,0.395 -0.321,0.715 -0.715,0.715c-0.395,0 -0.714,-0.32 -0.714,-0.715c0,-0.395 0.319,-0.714 0.714,-0.714c0.394,0 0.715,0.319 0.715,0.714" style="fill:#fb043d;fill-rule:nonzero;"/><path d="M290.69,152.534c0,0.395 -0.32,0.715 -0.715,0.715c-0.394,0 -0.714,-0.32 -0.714,-0.715c0,-0.395 0.32,-0.714 0.714,-0.714c0.395,0 0.715,0.319 0.715,0.714" style="fill:#fb043d;fill-rule:nonzero;"/><path d="M298.425,152.534c0,0.395 -0.32,0.715 -0.714,0.715c-0.395,0 -0.715,-0.32 -0.715,-0.715c0,-0.395 0.32,-0.714 0.715,-0.714c0.394,0 0.714,0.319 0.714,0.714" style="fill:#fb043d;fill-rule:nonzero;"/><path d="M306.16,152.534c0,0.395 -0.32,0.715 -0.714,0.715c-0.395,0 -0.715,-0.32 -0.715,-0.715c0,-0.395 0.32,-0.714 0.715,-0.714c0.394,0 0.714,0.319 0.714,0.714" style="fill:#fb043d;fill-rule:nonzero;"/><path d="M313.895,152.534c0,0.395 -0.319,0.715 -0.714,0.715c-0.394,0 -0.715,-0.32 -0.715,-0.715c0,-0.395 0.321,-0.714 0.715,-0.714c0.395,0 0.714,0.319 0.714,0.714" style="fill:#fb043d;fill-rule:nonzero;"/><path d="M321.631,152.534c0,0.395 -0.32,0.715 -0.715,0.715c-0.395,0 -0.714,-0.32 -0.714,-0.715c0,-0.395 0.319,-0.714 0.714,-0.714c0.395,0 0.715,0.319 0.715,0.714" style="fill:#fb043d;fill-rule:nonzero;"/><path d="M329.366,152.534c0,0.395 -0.32,0.715 -0.715,0.715c-0.394,0 -0.714,-0.32 -0.714,-0.715c0,-0.395 0.32,-0.714 0.714,-0.714c0.395,0 0.715,0.319 0.715,0.714" style="fill:#fb043d;fill-rule:nonzero;"/></g></g><g><g opacity="0.300003"><path d="M48.178,94.639c0,0.42 -0.341,0.761 -0.761,0.761c-0.42,0 -0.761,-0.341 -0.761,-0.761c0,-0.42 0.341,-0.76 0.761,-0.76c0.42,0 0.761,0.34 0.761,0.76" style="fill:#ffc916;fill-rule:nonzero;"/><path d="M56.412,94.639c0,0.42 -0.34,0.761 -0.761,0.761c-0.42,0 -0.761,-0.341 -0.761,-0.761c0,-0.42 0.341,-0.76 0.761,-0.76c0.421,0 0.761,0.34 0.761,0.76" style="fill:#ffc916;fill-rule:nonzero;"/><path d="M64.646,94.639c0,0.42 -0.34,0.761 -0.761,0.761c-0.419,0 -0.76,-0.341 -0.76,-0.761c0,-0.42 0.341,-0.76 0.76,-0.76c0.421,0 0.761,0.34 0.761,0.76" style="fill:#ffc916;fill-rule:nonzero;"/><path d="M72.88,94.639c0,0.42 -0.34,0.761 -0.76,0.761c-0.42,0 -0.761,-0.341 -0.761,-0.761c0,-0.42 0.341,-0.76 0.761,-0.76c0.42,0 0.76,0.34 0.76,0.76" style="fill:#ffc916;fill-rule:nonzero;"/><path d="M81.115,94.639c0,0.42 -0.341,0.761 -0.761,0.761c-0.42,0 -0.76,-0.341 -0.76,-0.761c0,-0.42 0.34,-0.76 0.76,-0.76c0.42,0 0.761,0.34 0.761,0.76" style="fill:#ffc916;fill-rule:nonzero;"/><path d="M89.349,94.639c0,0.42 -0.34,0.761 -0.761,0.761c-0.419,0 -0.76,-0.341 -0.76,-0.761c0,-0.42 0.341,-0.76 0.76,-0.76c0.421,0 0.761,0.34 0.761,0.76" style="fill:#ffc916;fill-rule:nonzero;"/><path d="M97.583,94.639c0,0.42 -0.34,0.761 -0.76,0.761c-0.42,0 -0.761,-0.341 -0.761,-0.761c0,-0.42 0.341,-0.76 0.761,-0.76c0.42,0 0.76,0.34 0.76,0.76" style="fill:#ffc916;fill-rule:nonzero;"/><path d="M105.818,94.639c0,0.42 -0.341,0.761 -0.761,0.761c-0.42,0 -0.76,-0.341 -0.76,-0.761c0,-0.42 0.34,-0.76 0.76,-0.76c0.42,0 0.761,0.34 0.761,0.76" style="fill:#ffc916;fill-rule:nonzero;"/><path d="M114.052,94.639c0,0.42 -0.34,0.761 -0.761,0.761c-0.419,0 -0.76,-0.341 -0.76,-0.761c0,-0.42 0.341,-0.76 0.76,-0.76c0.421,0 0.761,0.34 0.761,0.76" style="fill:#ffc916;fill-rule:nonzero;"/><path d="M122.286,94.639c0,0.42 -0.34,0.761 -0.76,0.761c-0.42,0 -0.761,-0.341 -0.761,-0.761c0,-0.42 0.341,-0.76 0.761,-0.76c0.42,0 0.76,0.34 0.76,0.76" style="fill:#ffc916;fill-rule:nonzero;"/><path d="M48.178,101.083c0,0.419 -0.341,0.76 -0.761,0.76c-0.42,0 -0.761,-0.341 -0.761,-0.76c0,-0.42 0.341,-0.761 0.761,-0.761c0.42,0 0.761,0.341 0.761,0.761" style="fill:#ffc916;fill-rule:nonzero;"/><path d="M56.412,101.083c0,0.419 -0.34,0.76 -0.761,0.76c-0.42,0 -0.761,-0.341 -0.761,-0.76c0,-0.42 0.341,-0.761 0.761,-0.761c0.421,0 0.761,0.341 0.761,0.761" style="fill:#ffc916;fill-rule:nonzero;"/><path d="M64.646,101.083c0,0.419 -0.34,0.76 -0.761,0.76c-0.419,0 -0.76,-0.341 -0.76,-0.76c0,-0.42 0.341,-0.761 0.76,-0.761c0.421,0 0.761,0.341 0.761,0.761" style="fill:#ffc916;fill-rule:nonzero;"/><path d="M72.88,101.083c0,0.419 -0.34,0.76 -0.76,0.76c-0.42,0 -0.761,-0.341 -0.761,-0.76c0,-0.42 0.341,-0.761 0.761,-0.761c0.42,0 0.76,0.341 0.76,0.761" style="fill:#ffc916;fill-rule:nonzero;"/><path d="M81.115,101.083c0,0.419 -0.341,0.76 -0.761,0.76c-0.42,0 -0.76,-0.341 -0.76,-0.76c0,-0.42 0.34,-0.761 0.76,-0.761c0.42,0 0.761,0.341 0.761,0.761" style="fill:#ffc916;fill-rule:nonzero;"/><path d="M89.349,101.083c0,0.419 -0.34,0.76 -0.761,0.76c-0.419,0 -0.76,-0.341 -0.76,-0.76c0,-0.42 0.341,-0.761 0.76,-0.761c0.421,0 0.761,0.341 0.761,0.761" style="fill:#ffc916;fill-rule:nonzero;"/><path d="M97.583,101.083c0,0.419 -0.34,0.76 -0.76,0.76c-0.42,0 -0.761,-0.341 -0.761,-0.76c0,-0.42 0.341,-0.761 0.761,-0.761c0.42,0 0.76,0.341 0.76,0.761" style="fill:#ffc916;fill-rule:nonzero;"/><path d="M105.818,101.083c0,0.419 -0.341,0.76 -0.761,0.76c-0.42,0 -0.76,-0.341 -0.76,-0.76c0,-0.42 0.34,-0.761 0.76,-0.761c0.42,0 0.761,0.341 0.761,0.761" style="fill:#ffc916;fill-rule:nonzero;"/><path d="M114.052,101.083c0,0.419 -0.34,0.76 -0.761,0.76c-0.419,0 -0.76,-0.341 -0.76,-0.76c0,-0.42 0.341,-0.761 0.76,-0.761c0.421,0 0.761,0.341 0.761,0.761" style="fill:#ffc916;fill-rule:nonzero;"/><path d="M122.286,101.083c0,0.419 -0.34,0.76 -0.76,0.76c-0.42,0 -0.761,-0.341 -0.761,-0.76c0,-0.42 0.341,-0.761 0.761,-0.761c0.42,0 0.76,0.341 0.76,0.761" style="fill:#ffc916;fill-rule:nonzero;"/><path d="M48.178,107.526c0,0.42 -0.341,0.76 -0.761,0.76c-0.42,0 -0.761,-0.34 -0.761,-0.76c0,-0.42 0.341,-0.761 0.761,-0.761c0.42,0 0.761,0.341 0.761,0.761" style="fill:#ffc916;fill-rule:nonzero;"/><path d="M56.412,107.526c0,0.42 -0.34,0.76 -0.761,0.76c-0.42,0 -0.761,-0.34 -0.761,-0.76c0,-0.42 0.341,-0.761 0.761,-0.761c0.421,0 0.761,0.341 0.761,0.761" style="fill:#ffc916;fill-rule:nonzero;"/><path d="M64.646,107.526c0,0.42 -0.34,0.76 -0.761,0.76c-0.419,0 -0.76,-0.34 -0.76,-0.76c0,-0.42 0.341,-0.761 0.76,-0.761c0.421,0 0.761,0.341 0.761,0.761" style="fill:#ffc916;fill-rule:nonzero;"/><path d="M72.88,107.526c0,0.42 -0.34,0.76 -0.76,0.76c-0.42,0 -0.761,-0.34 -0.761,-0.76c0,-0.42 0.341,-0.761 0.761,-0.761c0.42,0 0.76,0.341 0.76,0.761" style="fill:#ffc916;fill-rule:nonzero;"/><path d="M81.115,107.526c0,0.42 -0.341,0.76 -0.761,0.76c-0.42,0 -0.76,-0.34 -0.76,-0.76c0,-0.42 0.34,-0.761 0.76,-0.761c0.42,0 0.761,0.341 0.761,0.761" style="fill:#ffc916;fill-rule:nonzero;"/><path d="M89.349,107.526c0,0.42 -0.34,0.76 -0.761,0.76c-0.419,0 -0.76,-0.34 -0.76,-0.76c0,-0.42 0.341,-0.761 0.76,-0.761c0.421,0 0.761,0.341 0.761,0.761" style="fill:#ffc916;fill-rule:nonzero;"/><path d="M97.583,107.526c0,0.42 -0.34,0.76 -0.76,0.76c-0.42,0 -0.761,-0.34 -0.761,-0.76c0,-0.42 0.341,-0.761 0.761,-0.761c0.42,0 0.76,0.341 0.76,0.761" style="fill:#ffc916;fill-rule:nonzero;"/><path d="M105.818,107.526c0,0.42 -0.341,0.76 -0.761,0.76c-0.42,0 -0.76,-0.34 -0.76,-0.76c0,-0.42 0.34,-0.761 0.76,-0.761c0.42,0 0.761,0.341 0.761,0.761" style="fill:#ffc916;fill-rule:nonzero;"/><path d="M114.052,107.526c0,0.42 -0.34,0.76 -0.761,0.76c-0.419,0 -0.76,-0.34 -0.76,-0.76c0,-0.42 0.341,-0.761 0.76,-0.761c0.421,0 0.761,0.341 0.761,0.761" style="fill:#ffc916;fill-rule:nonzero;"/><path d="M122.286,107.526c0,0.42 -0.34,0.76 -0.76,0.76c-0.42,0 -0.761,-0.34 -0.761,-0.76c0,-0.42 0.341,-0.761 0.761,-0.761c0.42,0 0.76,0.341 0.76,0.761" style="fill:#ffc916;fill-rule:nonzero;"/><path d="M48.178,113.969c0,0.42 -0.341,0.761 -0.761,0.761c-0.42,0 -0.761,-0.341 -0.761,-0.761c0,-0.42 0.341,-0.761 0.761,-0.761c0.42,0 0.761,0.341 0.761,0.761" style="fill:#ffc916;fill-rule:nonzero;"/><path d="M56.412,113.969c0,0.42 -0.34,0.761 -0.761,0.761c-0.42,0 -0.761,-0.341 -0.761,-0.761c0,-0.42 0.341,-0.761 0.761,-0.761c0.421,0 0.761,0.341 0.761,0.761" style="fill:#ffc916;fill-rule:nonzero;"/><path d="M64.646,113.969c0,0.42 -0.34,0.761 -0.761,0.761c-0.419,0 -0.76,-0.341 -0.76,-0.761c0,-0.42 0.341,-0.761 0.76,-0.761c0.421,0 0.761,0.341 0.761,0.761" style="fill:#ffc916;fill-rule:nonzero;"/><path d="M72.88,113.969c0,0.42 -0.34,0.761 -0.76,0.761c-0.42,0 -0.761,-0.341 -0.761,-0.761c0,-0.42 0.341,-0.761 0.761,-0.761c0.42,0 0.76,0.341 0.76,0.761" style="fill:#ffc916;fill-rule:nonzero;"/><path d="M81.115,113.969c0,0.42 -0.341,0.761 -0.761,0.761c-0.42,0 -0.76,-0.341 -0.76,-0.761c0,-0.42 0.34,-0.761 0.76,-0.761c0.42,0 0.761,0.341 0.761,0.761" style="fill:#ffc916;fill-rule:nonzero;"/><path d="M89.349,113.969c0,0.42 -0.34,0.761 -0.761,0.761c-0.419,0 -0.76,-0.341 -0.76,-0.761c0,-0.42 0.341,-0.761 0.76,-0.761c0.421,0 0.761,0.341 0.761,0.761" style="fill:#ffc916;fill-rule:nonzero;"/><path d="M97.583,113.969c0,0.42 -0.34,0.761 -0.76,0.761c-0.42,0 -0.761,-0.341 -0.761,-0.761c0,-0.42 0.341,-0.761 0.761,-0.761c0.42,0 0.76,0.341 0.76,0.761" style="fill:#ffc916;fill-rule:nonzero;"/><path d="M105.818,113.969c0,0.42 -0.341,0.761 -0.761,0.761c-0.42,0 -0.76,-0.341 -0.76,-0.761c0,-0.42 0.34,-0.761 0.76,-0.761c0.42,0 0.761,0.341 0.761,0.761" style="fill:#ffc916;fill-rule:nonzero;"/><path d="M114.052,113.969c0,0.42 -0.34,0.761 -0.761,0.761c-0.419,0 -0.76,-0.341 -0.76,-0.761c0,-0.42 0.341,-0.761 0.76,-0.761c0.421,0 0.761,0.341 0.761,0.761" style="fill:#ffc916;fill-rule:nonzero;"/><path d="M122.286,113.969c0,0.42 -0.34,0.761 -0.76,0.761c-0.42,0 -0.761,-0.341 -0.761,-0.761c0,-0.42 0.341,-0.761 0.761,-0.761c0.42,0 0.76,0.341 0.76,0.761" style="fill:#ffc916;fill-rule:nonzero;"/><path d="M48.178,120.413c0,0.419 -0.341,0.76 -0.761,0.76c-0.42,0 -0.761,-0.341 -0.761,-0.76c0,-0.421 0.341,-0.762 0.761,-0.762c0.42,0 0.761,0.341 0.761,0.762" style="fill:#ffc916;fill-rule:nonzero;"/><path d="M56.412,120.413c0,0.419 -0.34,0.76 -0.761,0.76c-0.42,0 -0.761,-0.341 -0.761,-0.76c0,-0.421 0.341,-0.762 0.761,-0.762c0.421,0 0.761,0.341 0.761,0.762" style="fill:#ffc916;fill-rule:nonzero;"/><path d="M64.646,120.413c0,0.419 -0.34,0.76 -0.761,0.76c-0.419,0 -0.76,-0.341 -0.76,-0.76c0,-0.421 0.341,-0.762 0.76,-0.762c0.421,0 0.761,0.341 0.761,0.762" style="fill:#ffc916;fill-rule:nonzero;"/><path d="M72.88,120.413c0,0.419 -0.34,0.76 -0.76,0.76c-0.42,0 -0.761,-0.341 -0.761,-0.76c0,-0.421 0.341,-0.762 0.761,-0.762c0.42,0 0.76,0.341 0.76,0.762" style="fill:#ffc916;fill-rule:nonzero;"/><path d="M81.115,120.413c0,0.419 -0.341,0.76 -0.761,0.76c-0.42,0 -0.76,-0.341 -0.76,-0.76c0,-0.421 0.34,-0.762 0.76,-0.762c0.42,0 0.761,0.341 0.761,0.762" style="fill:#ffc916;fill-rule:nonzero;"/><path d="M89.349,120.413c0,0.419 -0.34,0.76 -0.761,0.76c-0.419,0 -0.76,-0.341 -0.76,-0.76c0,-0.421 0.341,-0.762 0.76,-0.762c0.421,0 0.761,0.341 0.761,0.762" style="fill:#ffc916;fill-rule:nonzero;"/><path d="M97.583,120.413c0,0.419 -0.34,0.76 -0.76,0.76c-0.42,0 -0.761,-0.341 -0.761,-0.76c0,-0.421 0.341,-0.762 0.761,-0.762c0.42,0 0.76,0.341 0.76,0.762" style="fill:#ffc916;fill-rule:nonzero;"/><path d="M105.818,120.413c0,0.419 -0.341,0.76 -0.761,0.76c-0.42,0 -0.76,-0.341 -0.76,-0.76c0,-0.421 0.34,-0.762 0.76,-0.762c0.42,0 0.761,0.341 0.761,0.762" style="fill:#ffc916;fill-rule:nonzero;"/><path d="M114.052,120.413c0,0.419 -0.34,0.76 -0.761,0.76c-0.419,0 -0.76,-0.341 -0.76,-0.76c0,-0.421 0.341,-0.762 0.76,-0.762c0.421,0 0.761,0.341 0.761,0.762" style="fill:#ffc916;fill-rule:nonzero;"/><path d="M122.286,120.413c0,0.419 -0.34,0.76 -0.76,0.76c-0.42,0 -0.761,-0.341 -0.761,-0.76c0,-0.421 0.341,-0.762 0.761,-0.762c0.42,0 0.76,0.341 0.76,0.762" style="fill:#ffc916;fill-rule:nonzero;"/><path d="M48.178,126.856c0,0.42 -0.341,0.761 -0.761,0.761c-0.42,0 -0.761,-0.341 -0.761,-0.761c0,-0.421 0.341,-0.761 0.761,-0.761c0.42,0 0.761,0.34 0.761,0.761" style="fill:#ffc916;fill-rule:nonzero;"/><path d="M56.412,126.856c0,0.42 -0.34,0.761 -0.761,0.761c-0.42,0 -0.761,-0.341 -0.761,-0.761c0,-0.421 0.341,-0.761 0.761,-0.761c0.421,0 0.761,0.34 0.761,0.761" style="fill:#ffc916;fill-rule:nonzero;"/><path d="M64.646,126.856c0,0.42 -0.34,0.761 -0.761,0.761c-0.419,0 -0.76,-0.341 -0.76,-0.761c0,-0.421 0.341,-0.761 0.76,-0.761c0.421,0 0.761,0.34 0.761,0.761" style="fill:#ffc916;fill-rule:nonzero;"/><path d="M72.88,126.856c0,0.42 -0.34,0.761 -0.76,0.761c-0.42,0 -0.761,-0.341 -0.761,-0.761c0,-0.421 0.341,-0.761 0.761,-0.761c0.42,0 0.76,0.34 0.76,0.761" style="fill:#ffc916;fill-rule:nonzero;"/><path d="M81.115,126.856c0,0.42 -0.341,0.761 -0.761,0.761c-0.42,0 -0.76,-0.341 -0.76,-0.761c0,-0.421 0.34,-0.761 0.76,-0.761c0.42,0 0.761,0.34 0.761,0.761" style="fill:#ffc916;fill-rule:nonzero;"/><path d="M89.349,126.856c0,0.42 -0.34,0.761 -0.761,0.761c-0.419,0 -0.76,-0.341 -0.76,-0.761c0,-0.421 0.341,-0.761 0.76,-0.761c0.421,0 0.761,0.34 0.761,0.761" style="fill:#ffc916;fill-rule:nonzero;"/><path d="M97.583,126.856c0,0.42 -0.34,0.761 -0.76,0.761c-0.42,0 -0.761,-0.341 -0.761,-0.761c0,-0.421 0.341,-0.761 0.761,-0.761c0.42,0 0.76,0.34 0.76,0.761" style="fill:#ffc916;fill-rule:nonzero;"/><path d="M105.818,126.856c0,0.42 -0.341,0.761 -0.761,0.761c-0.42,0 -0.76,-0.341 -0.76,-0.761c0,-0.421 0.34,-0.761 0.76,-0.761c0.42,0 0.761,0.34 0.761,0.761" style="fill:#ffc916;fill-rule:nonzero;"/><path d="M114.052,126.856c0,0.42 -0.34,0.761 -0.761,0.761c-0.419,0 -0.76,-0.341 -0.76,-0.761c0,-0.421 0.341,-0.761 0.76,-0.761c0.421,0 0.761,0.34 0.761,0.761" style="fill:#ffc916;fill-rule:nonzero;"/><path d="M122.286,126.856c0,0.42 -0.34,0.761 -0.76,0.761c-0.42,0 -0.761,-0.341 -0.761,-0.761c0,-0.421 0.341,-0.761 0.761,-0.761c0.42,0 0.76,0.34 0.76,0.761" style="fill:#ffc916;fill-rule:nonzero;"/><path d="M48.178,133.299c0,0.42 -0.341,0.761 -0.761,0.761c-0.42,0 -0.761,-0.341 -0.761,-0.761c0,-0.42 0.341,-0.761 0.761,-0.761c0.42,0 0.761,0.341 0.761,0.761" style="fill:#ffc916;fill-rule:nonzero;"/><path d="M56.412,133.299c0,0.42 -0.34,0.761 -0.761,0.761c-0.42,0 -0.761,-0.341 -0.761,-0.761c0,-0.42 0.341,-0.761 0.761,-0.761c0.421,0 0.761,0.341 0.761,0.761" style="fill:#ffc916;fill-rule:nonzero;"/><path d="M64.646,133.299c0,0.42 -0.34,0.761 -0.761,0.761c-0.419,0 -0.76,-0.341 -0.76,-0.761c0,-0.42 0.341,-0.761 0.76,-0.761c0.421,0 0.761,0.341 0.761,0.761" style="fill:#ffc916;fill-rule:nonzero;"/><path d="M72.88,133.299c0,0.42 -0.34,0.761 -0.76,0.761c-0.42,0 -0.761,-0.341 -0.761,-0.761c0,-0.42 0.341,-0.761 0.761,-0.761c0.42,0 0.76,0.341 0.76,0.761" style="fill:#ffc916;fill-rule:nonzero;"/><path d="M81.115,133.299c0,0.42 -0.341,0.761 -0.761,0.761c-0.42,0 -0.76,-0.341 -0.76,-0.761c0,-0.42 0.34,-0.761 0.76,-0.761c0.42,0 0.761,0.341 0.761,0.761" style="fill:#ffc916;fill-rule:nonzero;"/><path d="M89.349,133.299c0,0.42 -0.34,0.761 -0.761,0.761c-0.419,0 -0.76,-0.341 -0.76,-0.761c0,-0.42 0.341,-0.761 0.76,-0.761c0.421,0 0.761,0.341 0.761,0.761" style="fill:#ffc916;fill-rule:nonzero;"/><path d="M97.583,133.299c0,0.42 -0.34,0.761 -0.76,0.761c-0.42,0 -0.761,-0.341 -0.761,-0.761c0,-0.42 0.341,-0.761 0.761,-0.761c0.42,0 0.76,0.341 0.76,0.761" style="fill:#ffc916;fill-rule:nonzero;"/><path d="M105.818,133.299c0,0.42 -0.341,0.761 -0.761,0.761c-0.42,0 -0.76,-0.341 -0.76,-0.761c0,-0.42 0.34,-0.761 0.76,-0.761c0.42,0 0.761,0.341 0.761,0.761" style="fill:#ffc916;fill-rule:nonzero;"/><path d="M114.052,133.299c0,0.42 -0.34,0.761 -0.761,0.761c-0.419,0 -0.76,-0.341 -0.76,-0.761c0,-0.42 0.341,-0.761 0.76,-0.761c0.421,0 0.761,0.341 0.761,0.761" style="fill:#ffc916;fill-rule:nonzero;"/><path d="M122.286,133.299c0,0.42 -0.34,0.761 -0.76,0.761c-0.42,0 -0.761,-0.341 -0.761,-0.761c0,-0.42 0.341,-0.761 0.761,-0.761c0.42,0 0.76,0.341 0.76,0.761" style="fill:#ffc916;fill-rule:nonzero;"/><path d="M48.178,139.742c0,0.42 -0.341,0.761 -0.761,0.761c-0.42,0 -0.761,-0.341 -0.761,-0.761c0,-0.42 0.341,-0.761 0.761,-0.761c0.42,0 0.761,0.341 0.761,0.761" style="fill:#ffc916;fill-rule:nonzero;"/><path d="M56.412,139.742c0,0.42 -0.34,0.761 -0.761,0.761c-0.42,0 -0.761,-0.341 -0.761,-0.761c0,-0.42 0.341,-0.761 0.761,-0.761c0.421,0 0.761,0.341 0.761,0.761" style="fill:#ffc916;fill-rule:nonzero;"/><path d="M64.646,139.742c0,0.42 -0.34,0.761 -0.761,0.761c-0.419,0 -0.76,-0.341 -0.76,-0.761c0,-0.42 0.341,-0.761 0.76,-0.761c0.421,0 0.761,0.341 0.761,0.761" style="fill:#ffc916;fill-rule:nonzero;"/><path d="M72.88,139.742c0,0.42 -0.34,0.761 -0.76,0.761c-0.42,0 -0.761,-0.341 -0.761,-0.761c0,-0.42 0.341,-0.761 0.761,-0.761c0.42,0 0.76,0.341 0.76,0.761" style="fill:#ffc916;fill-rule:nonzero;"/><path d="M81.115,139.742c0,0.42 -0.341,0.761 -0.761,0.761c-0.42,0 -0.76,-0.341 -0.76,-0.761c0,-0.42 0.34,-0.761 0.76,-0.761c0.42,0 0.761,0.341 0.761,0.761" style="fill:#ffc916;fill-rule:nonzero;"/><path d="M89.349,139.742c0,0.42 -0.34,0.761 -0.761,0.761c-0.419,0 -0.76,-0.341 -0.76,-0.761c0,-0.42 0.341,-0.761 0.76,-0.761c0.421,0 0.761,0.341 0.761,0.761" style="fill:#ffc916;fill-rule:nonzero;"/><path d="M97.583,139.742c0,0.42 -0.34,0.761 -0.76,0.761c-0.42,0 -0.761,-0.341 -0.761,-0.761c0,-0.42 0.341,-0.761 0.761,-0.761c0.42,0 0.76,0.341 0.76,0.761" style="fill:#ffc916;fill-rule:nonzero;"/><path d="M105.818,139.742c0,0.42 -0.341,0.761 -0.761,0.761c-0.42,0 -0.76,-0.341 -0.76,-0.761c0,-0.42 0.34,-0.761 0.76,-0.761c0.42,0 0.761,0.341 0.761,0.761" style="fill:#ffc916;fill-rule:nonzero;"/><path d="M114.052,139.742c0,0.42 -0.34,0.761 -0.761,0.761c-0.419,0 -0.76,-0.341 -0.76,-0.761c0,-0.42 0.341,-0.761 0.76,-0.761c0.421,0 0.761,0.341 0.761,0.761" style="fill:#ffc916;fill-rule:nonzero;"/><path d="M122.286,139.742c0,0.42 -0.34,0.761 -0.76,0.761c-0.42,0 -0.761,-0.341 -0.761,-0.761c0,-0.42 0.341,-0.761 0.761,-0.761c0.42,0 0.76,0.341 0.76,0.761" style="fill:#ffc916;fill-rule:nonzero;"/><path d="M48.178,146.185c0,0.421 -0.341,0.761 -0.761,0.761c-0.42,0 -0.761,-0.34 -0.761,-0.761c0,-0.42 0.341,-0.761 0.761,-0.761c0.42,0 0.761,0.341 0.761,0.761" style="fill:#ffc916;fill-rule:nonzero;"/><path d="M56.412,146.185c0,0.421 -0.34,0.761 -0.761,0.761c-0.42,0 -0.761,-0.34 -0.761,-0.761c0,-0.42 0.341,-0.761 0.761,-0.761c0.421,0 0.761,0.341 0.761,0.761" style="fill:#ffc916;fill-rule:nonzero;"/><path d="M64.646,146.185c0,0.421 -0.34,0.761 -0.761,0.761c-0.419,0 -0.76,-0.34 -0.76,-0.761c0,-0.42 0.341,-0.761 0.76,-0.761c0.421,0 0.761,0.341 0.761,0.761" style="fill:#ffc916;fill-rule:nonzero;"/><path d="M72.88,146.185c0,0.421 -0.34,0.761 -0.76,0.761c-0.42,0 -0.761,-0.34 -0.761,-0.761c0,-0.42 0.341,-0.761 0.761,-0.761c0.42,0 0.76,0.341 0.76,0.761" style="fill:#ffc916;fill-rule:nonzero;"/><path d="M81.115,146.185c0,0.421 -0.341,0.761 -0.761,0.761c-0.42,0 -0.76,-0.34 -0.76,-0.761c0,-0.42 0.34,-0.761 0.76,-0.761c0.42,0 0.761,0.341 0.761,0.761" style="fill:#ffc916;fill-rule:nonzero;"/><path d="M89.349,146.185c0,0.421 -0.34,0.761 -0.761,0.761c-0.419,0 -0.76,-0.34 -0.76,-0.761c0,-0.42 0.341,-0.761 0.76,-0.761c0.421,0 0.761,0.341 0.761,0.761" style="fill:#ffc916;fill-rule:nonzero;"/><path d="M97.583,146.185c0,0.421 -0.34,0.761 -0.76,0.761c-0.42,0 -0.761,-0.34 -0.761,-0.761c0,-0.42 0.341,-0.761 0.761,-0.761c0.42,0 0.76,0.341 0.76,0.761" style="fill:#ffc916;fill-rule:nonzero;"/><path d="M105.818,146.185c0,0.421 -0.341,0.761 -0.761,0.761c-0.42,0 -0.76,-0.34 -0.76,-0.761c0,-0.42 0.34,-0.761 0.76,-0.761c0.42,0 0.761,0.341 0.761,0.761" style="fill:#ffc916;fill-rule:nonzero;"/><path d="M114.052,146.185c0,0.421 -0.34,0.761 -0.761,0.761c-0.419,0 -0.76,-0.34 -0.76,-0.761c0,-0.42 0.341,-0.761 0.76,-0.761c0.421,0 0.761,0.341 0.761,0.761" style="fill:#ffc916;fill-rule:nonzero;"/><path d="M122.286,146.185c0,0.421 -0.34,0.761 -0.76,0.761c-0.42,0 -0.761,-0.34 -0.761,-0.761c0,-0.42 0.341,-0.761 0.761,-0.761c0.42,0 0.76,0.341 0.76,0.761" style="fill:#ffc916;fill-rule:nonzero;"/><path d="M48.178,152.628c0,0.421 -0.341,0.761 -0.761,0.761c-0.42,0 -0.761,-0.34 -0.761,-0.761c0,-0.419 0.341,-0.76 0.761,-0.76c0.42,0 0.761,0.341 0.761,0.76" style="fill:#ffc916;fill-rule:nonzero;"/><path d="M56.412,152.628c0,0.421 -0.34,0.761 -0.761,0.761c-0.42,0 -0.761,-0.34 -0.761,-0.761c0,-0.419 0.341,-0.76 0.761,-0.76c0.421,0 0.761,0.341 0.761,0.76" style="fill:#ffc916;fill-rule:nonzero;"/><path d="M64.646,152.628c0,0.421 -0.34,0.761 -0.761,0.761c-0.419,0 -0.76,-0.34 -0.76,-0.761c0,-0.419 0.341,-0.76 0.76,-0.76c0.421,0 0.761,0.341 0.761,0.76" style="fill:#ffc916;fill-rule:nonzero;"/><path d="M72.88,152.628c0,0.421 -0.34,0.761 -0.76,0.761c-0.42,0 -0.761,-0.34 -0.761,-0.761c0,-0.419 0.341,-0.76 0.761,-0.76c0.42,0 0.76,0.341 0.76,0.76" style="fill:#ffc916;fill-rule:nonzero;"/><path d="M81.115,152.628c0,0.421 -0.341,0.761 -0.761,0.761c-0.42,0 -0.76,-0.34 -0.76,-0.761c0,-0.419 0.34,-0.76 0.76,-0.76c0.42,0 0.761,0.341 0.761,0.76" style="fill:#ffc916;fill-rule:nonzero;"/><path d="M89.349,152.628c0,0.421 -0.34,0.761 -0.761,0.761c-0.419,0 -0.76,-0.34 -0.76,-0.761c0,-0.419 0.341,-0.76 0.76,-0.76c0.421,0 0.761,0.341 0.761,0.76" style="fill:#ffc916;fill-rule:nonzero;"/><path d="M97.583,152.628c0,0.421 -0.34,0.761 -0.76,0.761c-0.42,0 -0.761,-0.34 -0.761,-0.761c0,-0.419 0.341,-0.76 0.761,-0.76c0.42,0 0.76,0.341 0.76,0.76" style="fill:#ffc916;fill-rule:nonzero;"/><path d="M105.818,152.628c0,0.421 -0.341,0.761 -0.761,0.761c-0.42,0 -0.76,-0.34 -0.76,-0.761c0,-0.419 0.34,-0.76 0.76,-0.76c0.42,0 0.761,0.341 0.761,0.76" style="fill:#ffc916;fill-rule:nonzero;"/><path d="M114.052,152.628c0,0.421 -0.34,0.761 -0.761,0.761c-0.419,0 -0.76,-0.34 -0.76,-0.761c0,-0.419 0.341,-0.76 0.76,-0.76c0.421,0 0.761,0.341 0.761,0.76" style="fill:#ffc916;fill-rule:nonzero;"/><path d="M122.286,152.628c0,0.421 -0.34,0.761 -0.76,0.761c-0.42,0 -0.761,-0.34 -0.761,-0.761c0,-0.419 0.341,-0.76 0.761,-0.76c0.42,0 0.76,0.341 0.76,0.76" style="fill:#ffc916;fill-rule:nonzero;"/><path d="M48.178,159.072c0,0.42 -0.341,0.761 -0.761,0.761c-0.42,0 -0.761,-0.341 -0.761,-0.761c0,-0.42 0.341,-0.761 0.761,-0.761c0.42,0 0.761,0.341 0.761,0.761" style="fill:#ffc916;fill-rule:nonzero;"/><path d="M56.412,159.072c0,0.42 -0.34,0.761 -0.761,0.761c-0.42,0 -0.761,-0.341 -0.761,-0.761c0,-0.42 0.341,-0.761 0.761,-0.761c0.421,0 0.761,0.341 0.761,0.761" style="fill:#ffc916;fill-rule:nonzero;"/><path d="M64.646,159.072c0,0.42 -0.34,0.761 -0.761,0.761c-0.419,0 -0.76,-0.341 -0.76,-0.761c0,-0.42 0.341,-0.761 0.76,-0.761c0.421,0 0.761,0.341 0.761,0.761" style="fill:#ffc916;fill-rule:nonzero;"/><path d="M72.88,159.072c0,0.42 -0.34,0.761 -0.76,0.761c-0.42,0 -0.761,-0.341 -0.761,-0.761c0,-0.42 0.341,-0.761 0.761,-0.761c0.42,0 0.76,0.341 0.76,0.761" style="fill:#ffc916;fill-rule:nonzero;"/><path d="M81.115,159.072c0,0.42 -0.341,0.761 -0.761,0.761c-0.42,0 -0.76,-0.341 -0.76,-0.761c0,-0.42 0.34,-0.761 0.76,-0.761c0.42,0 0.761,0.341 0.761,0.761" style="fill:#ffc916;fill-rule:nonzero;"/><path d="M89.349,159.072c0,0.42 -0.34,0.761 -0.761,0.761c-0.419,0 -0.76,-0.341 -0.76,-0.761c0,-0.42 0.341,-0.761 0.76,-0.761c0.421,0 0.761,0.341 0.761,0.761" style="fill:#ffc916;fill-rule:nonzero;"/><path d="M97.583,159.072c0,0.42 -0.34,0.761 -0.76,0.761c-0.42,0 -0.761,-0.341 -0.761,-0.761c0,-0.42 0.341,-0.761 0.761,-0.761c0.42,0 0.76,0.341 0.76,0.761" style="fill:#ffc916;fill-rule:nonzero;"/><path d="M105.818,159.072c0,0.42 -0.341,0.761 -0.761,0.761c-0.42,0 -0.76,-0.341 -0.76,-0.761c0,-0.42 0.34,-0.761 0.76,-0.761c0.42,0 0.761,0.341 0.761,0.761" style="fill:#ffc916;fill-rule:nonzero;"/><path d="M114.052,159.072c0,0.42 -0.34,0.761 -0.761,0.761c-0.419,0 -0.76,-0.341 -0.76,-0.761c0,-0.42 0.341,-0.761 0.76,-0.761c0.421,0 0.761,0.341 0.761,0.761" style="fill:#ffc916;fill-rule:nonzero;"/><path d="M122.286,159.072c0,0.42 -0.34,0.761 -0.76,0.761c-0.42,0 -0.761,-0.341 -0.761,-0.761c0,-0.42 0.341,-0.761 0.761,-0.761c0.42,0 0.76,0.341 0.76,0.761" style="fill:#ffc916;fill-rule:nonzero;"/></g></g><path d="M263.079,83.623l-146.632,0c-4.285,0 -7.758,-3.59 -7.758,-8.019l0,-21.385c0,-4.43 3.473,-8.02 7.758,-8.02l146.632,0c4.285,0 7.758,3.59 7.758,8.02l0,21.385c0,4.429 -3.473,8.019 -7.758,8.019" style="fill:#283a5e;fill-rule:nonzero;"/><path d="M263.079,130.137l-146.632,0c-4.285,0 -7.758,-3.591 -7.758,-8.02l0,-21.385c0,-4.429 3.473,-8.02 7.758,-8.02l146.632,0c4.285,0 7.758,3.591 7.758,8.02l0,21.385c0,4.429 -3.473,8.02 -7.758,8.02" style="fill:#283a5e;fill-rule:nonzero;"/><path d="M263.079,176.917l-146.632,0c-4.285,0 -7.758,-3.59 -7.758,-8.019l0,-21.386c0,-4.429 3.473,-8.019 7.758,-8.019l146.632,0c4.285,0 7.758,3.59 7.758,8.019l0,21.386c0,4.429 -3.473,8.019 -7.758,8.019" style="fill:#283a5e;fill-rule:nonzero;"/><path d="M131.705,64.644c0,2.51 -1.968,4.544 -4.396,4.544c-2.429,0 -4.397,-2.034 -4.397,-4.544c0,-2.51 1.968,-4.545 4.397,-4.545c2.428,0 4.396,2.035 4.396,4.545" style="fill:#fff;fill-rule:nonzero;"/><path d="M151.618,64.644c0,2.51 -1.968,4.544 -4.396,4.544c-2.429,0 -4.397,-2.034 -4.397,-4.544c0,-2.51 1.968,-4.545 4.397,-4.545c2.428,0 4.396,2.035 4.396,4.545" style="fill:#fff;fill-rule:nonzero;"/><path d="M131.705,111.692c0,2.51 -1.968,4.544 -4.396,4.544c-2.429,0 -4.397,-2.034 -4.397,-4.544c0,-2.51 1.968,-4.545 4.397,-4.545c2.428,0 4.396,2.035 4.396,4.545" style="fill:#fff;fill-rule:nonzero;"/><path d="M151.618,111.692c0,2.51 -1.968,4.544 -4.396,4.544c-2.429,0 -4.397,-2.034 -4.397,-4.544c0,-2.51 1.968,-4.545 4.397,-4.545c2.428,0 4.396,2.035 4.396,4.545" style="fill:#fff;fill-rule:nonzero;"/><path d="M131.705,158.74c0,2.51 -1.968,4.544 -4.396,4.544c-2.429,0 -4.397,-2.034 -4.397,-4.544c0,-2.51 1.968,-4.545 4.397,-4.545c2.428,0 4.396,2.035 4.396,4.545" style="fill:#fff;fill-rule:nonzero;"/><path d="M151.618,158.74c0,2.51 -1.968,4.544 -4.396,4.544c-2.429,0 -4.397,-2.034 -4.397,-4.544c0,-2.51 1.968,-4.545 4.397,-4.545c2.428,0 4.396,2.035 4.396,4.545" style="fill:#fff;fill-rule:nonzero;"/><path d="M270.777,174.175c0,0 11.67,11.436 18.329,17.815c2.781,2.664 7.194,2.573 9.863,-0.203c0,-0.001 0,-0.001 0,-0.001c2.8,-2.913 2.709,-7.543 -0.201,-10.345c-6.704,-6.451 -18.192,-17.521 -18.192,-17.521m-27.372,-51.353c18.176,0 32.932,14.757 32.932,32.932c0,18.176 -14.756,32.932 -32.932,32.932c-18.176,0 -32.932,-14.756 -32.932,-32.932c0,-18.175 14.756,-32.932 32.932,-32.932Z" style="fill:#ff4702;stroke:#ff4702;stroke-width:2.5px;"/><circle cx="253.051" cy="145.46" r="25.546" style="fill:#fff;stroke:#ff4702;stroke-width:2.5px;"/><path d="M242.675,135.405l20.752,20.11" style="fill:none;stroke:#ff4702;stroke-width:5px;"/><path d="M263.427,135.405l-20.752,20.11" style="fill:none;stroke:#ff4702;stroke-width:5px;"/></svg>