<!-- Generated by IcoMoon.io -->
<svg version="1.1" xmlns="http://www.w3.org/2000/svg" width="24" height="24" viewBox="0 0 24 24">
<title>copy</title>
<path d="M11 10c-0.552 0-1 0.448-1 1v9c0 0.552 0.448 1 1 1h9c0.552 0 1-0.448 1-1v-9c0-0.552-0.448-1-1-1h-9zM11 8h9c1.657 0 3 1.343 3 3v9c0 1.657-1.343 3-3 3h-9c-1.657 0-3-1.343-3-3v-9c0-1.657 1.343-3 3-3zM5 14c0.552 0 1 0.448 1 1s-0.448 1-1 1h-1c-1.657 0-3-1.343-3-3v-9c0-1.657 1.343-3 3-3h9c1.657 0 3 1.343 3 3v1c0 0.552-0.448 1-1 1s-1-0.448-1-1v-1c0-0.552-0.448-1-1-1h-9c-0.552 0-1 0.448-1 1v9c0 0.552 0.448 1 1 1h1z"></path>
</svg>
