<?xml version="1.0" encoding="UTF-8"?>
<svg width="12px" height="10px" viewBox="0 0 12 10" version="1.1" xmlns="http://www.w3.org/2000/svg" xmlns:xlink="http://www.w3.org/1999/xlink">
    <!-- Generator: Sketch 63.1 (92452) - https://sketch.com -->
    <title>Glyphs / Folder</title>
    <desc>Created with Sketch.</desc>
    <defs>
        <path d="M4.23240812,1 L2,1 C1.72385763,1 1.5,1.22385763 1.5,1.5 L1.5,8.5 C1.5,8.77614237 1.72385763,9 2,9 L10,9 C10.2761424,9 10.5,8.77614237 10.5,8.5 L10.5,3 C10.5,2.72385763 10.2761424,2.5 10,2.5 L5.5,2.5 C5.33282341,2.5 5.17670774,2.41644943 5.08397485,2.2773501 L4.23240812,1 Z M5.76759188,1.5 L10,1.5 C10.8284271,1.5 11.5,2.17157288 11.5,3 L11.5,8.5 C11.5,9.32842712 10.8284271,10 10,10 L2,10 C1.17157288,10 0.5,9.32842712 0.5,8.5 L0.5,1.5 C0.5,0.671572875 1.17157288,0 2,0 L4.5,0 C4.66717659,0 4.82329226,0.0835505677 4.91602515,0.222649902 L5.76759188,1.5 Z" id="path-1"></path>
    </defs>
    <g id="Page-1" stroke="none" stroke-width="1" fill="none" fill-rule="evenodd">
        <g id="Offline-Installer" transform="translate(-1076.000000, -271.000000)">
            <g id="Group-7" transform="translate(760.000000, 260.000000)">
                <g id="Glyphs-/-Folder" transform="translate(316.000000, 11.000000)">
                    <mask id="mask-2" fill="white">
                        <use xlink:href="#path-1"></use>
                    </mask>
                    <use id="Mask" fill="#000000" fill-rule="nonzero" xlink:href="#path-1"></use>
                    <g id="Colors-/-Glyphs-/-Default" mask="url(#mask-2)" fill="#4D4D4D">
                        <g transform="translate(0.000000, -1.000000)" id="Base">
                            <rect x="0" y="0" width="12" height="12"></rect>
                        </g>
                    </g>
                </g>
            </g>
        </g>
    </g>
</svg>