<?xml version="1.0" encoding="UTF-8"?>
<svg width="119px" height="26px" viewBox="0 0 119 26" version="1.1" xmlns="http://www.w3.org/2000/svg" xmlns:xlink="http://www.w3.org/1999/xlink">
    <!-- Generator: Sketch 51.2 (57519) - http://www.bohemiancoding.com/sketch -->
    <title>Logo Copy</title>
    <desc>Created with Sketch.</desc>
    <defs>
        <polygon id="path-1" points="0 26 118.270677 26 118.270677 0 0 0"></polygon>
    </defs>
    <g id="Master-Pages" stroke="none" stroke-width="1" fill="none" fill-rule="evenodd">
        <g id="Logo-Copy">
            <g id="Syncfusion">
                <path d="M33.0193988,12.2267876 L26.3717342,12.2267876 C25.6551655,12.2267876 25.1317273,12.3598616 24.7978099,12.6242112 C24.4638924,12.8903592 24.2978362,13.3111607 24.2978362,13.8866158 C24.2978362,14.3505764 24.438623,14.6976477 24.7238065,14.9278298 C25.0089901,15.1562135 25.4331555,15.2713045 25.9963027,15.2713045 L29.5592921,15.2713045 C31.0267239,15.2713045 32.0736002,15.5500405 32.6927012,16.1021177 C33.3154121,16.6559932 33.6240602,17.5803179 33.6240602,18.8678986 C33.6240602,20.1788571 33.2666782,21.1391478 32.5501095,21.7541653 C31.8335407,22.3691829 30.7054412,22.6766917 29.167616,22.6766917 L22.0037331,22.6766917 L22.0037331,20.4180306 L28.7398407,20.4180306 C29.5069483,20.4180306 30.0484361,20.3065362 30.360694,20.0835474 C30.6747569,19.8605586 30.8317883,19.493706 30.8317883,18.9775947 C30.8317883,18.4452988 30.6873916,18.0676564 30.4004031,17.8428693 C30.1134146,17.6180821 29.6206607,17.5047894 28.9239465,17.5047894 L25.7436085,17.5047894 C24.2761767,17.5047894 23.202226,17.211667 22.5235613,16.6254222 C21.8430917,16.0409756 21.5037594,15.1202475 21.5037594,13.857843 C21.5037594,12.5091202 21.8611413,11.5254518 22.5741002,10.903241 C23.288864,10.2810302 24.4241833,9.96992481 25.9782532,9.96992481 L33.0193988,9.96992481 L33.0193988,12.2267876 Z" id="Fill-1" fill="#333333"></path>
                <path d="M38.8169515,20.5655463 L40.76473,20.5655463 L40.76473,13.2932331 L43.2030075,13.2932331 L43.2030075,22.3620451 C43.2030075,23.5992734 42.9186603,24.5128083 42.3499658,25.1080447 C41.7794942,25.7014827 40.9086808,26 39.7357485,26 L34.9782638,26 L34.9782638,24.1099898 L39.3198906,24.1099898 C39.7837321,24.1099898 40.1409433,23.9948988 40.3915243,23.7647168 C40.6403281,23.5345348 40.76473,23.2054464 40.76473,22.7684602 L40.76473,22.6138067 L38.6214627,22.6138067 C37.2441558,22.6138067 36.2631579,22.3386672 35.6766917,21.7901866 C35.0902256,21.241706 34.7969925,20.3245745 34.7969925,19.0423887 L34.7969925,13.2932331 L37.2103896,13.2932331 L37.2103896,18.8535675 C37.2103896,19.5567017 37.3134655,20.0170657 37.5213944,20.236458 C37.7275461,20.4540519 38.1593985,20.5655463 38.8169515,20.5655463" id="Fill-3" fill="#333333"></path>
                <path d="M45.3533835,13.2932331 L49.9169018,13.2932331 C51.296941,13.2932331 52.281924,13.5520491 52.8718509,14.071454 C53.4635493,14.5926315 53.7593985,15.4541699 53.7593985,16.6560691 L53.7593985,22.481203 L51.3288289,22.481203 L51.3288289,16.9538848 C51.3288289,16.267845 51.2207642,15.8228941 51.008178,15.6190321 C50.7955917,15.4133975 50.3704192,15.3123528 49.7308889,15.3123528 L47.7857246,15.3123528 L47.7857246,22.481203 L45.3533835,22.481203 L45.3533835,13.2932331 Z" id="Fill-5" fill="#333333"></path>
                <path d="M60.729243,20.5148852 L63.3383459,20.5148852 L63.3383459,22.481203 L60.0057855,22.481203 C59.1605579,22.481203 58.4657522,22.3943233 57.9249498,22.222337 C57.3787752,22.0485776 56.9078115,21.768435 56.5066866,21.3836821 C56.0733284,20.9652412 55.7366699,20.4528283 55.4931298,19.8464436 C55.2477989,19.2400589 55.1278195,18.6017591 55.1278195,17.9244522 C55.1278195,17.2152303 55.2477989,16.5538808 55.4895483,15.9368578 C55.729507,15.3216078 56.0679561,14.8056488 56.5066866,14.390754 C56.9131837,14.0060011 57.3913103,13.7258585 57.9410664,13.5520991 C58.4908225,13.3783397 59.1766745,13.2932331 60.0057855,13.2932331 L63.3383459,13.2932331 L63.3383459,15.2861467 L60.729243,15.2861467 C59.574218,15.2861467 58.779131,15.4829557 58.3439821,15.8765739 C57.9070424,16.2701921 57.6885726,16.9545912 57.6885726,17.9297714 C57.6885726,18.4918297 57.7781094,18.9581431 57.9553923,19.3233924 C58.1344659,19.6904148 58.4102393,19.988288 58.7827125,20.217012 C58.9653676,20.3251684 59.180256,20.4014097 59.4237961,20.4475092 C59.6673363,20.4900625 60.1024852,20.5148852 60.729243,20.5148852" id="Fill-7" fill="#333333"></path>
                <path d="M65.4885631,15.2198969 L63.7293233,15.2198969 L63.7293233,13.3565974 L65.4885631,13.3565974 L65.4885631,12.383581 C65.4885631,11.4357444 65.6648468,10.79546 66.0174143,10.4645265 C66.3663842,10.1353916 67.0409393,9.96992481 68.0392809,9.96992481 L70.3759398,9.96992481 L70.3759398,11.754088 L69.206711,11.754088 C68.7839897,11.754088 68.4835879,11.8206344 68.3073041,11.9519287 C68.1274228,12.0832229 68.0392809,12.2990491 68.0392809,12.6030043 L68.0392809,13.3565974 L70.3759398,13.3565974 L70.3759398,15.2198969 L68.0392809,15.2198969 L68.0392809,22.6766917 L65.4885631,22.6766917 L65.4885631,15.2198969 Z" id="Fill-9" fill="#333333"></path>
                <path d="M79.5639098,22.481203 L74.9707309,22.481203 C73.6269061,22.481203 72.6528109,22.2152961 72.0537779,21.6834823 C71.4547449,21.1498958 71.1578947,20.297221 71.1578947,19.1219124 L71.1578947,13.2932331 L73.5700247,13.2932331 L73.5700247,18.9286868 C73.5700247,19.5420454 73.6766774,19.9497693 73.8917605,20.1554039 C74.105066,20.3592659 74.531677,20.4620832 75.1680385,20.4620832 L77.1251167,20.4620832 L77.1251167,13.2932331 L79.5639098,13.2932331 L79.5639098,22.481203 Z" id="Fill-11" fill="#333333"></path>
                <path d="M81.4786589,20.5649006 L86.6284436,20.5649006 C87.087353,20.5649006 87.419482,20.4957648 87.6284018,20.3539478 C87.8408929,20.2139035 87.94446,19.988769 87.94446,19.6767715 C87.94446,19.3665468 87.8391073,19.1378669 87.6248305,18.9960498 C87.4141251,18.8524601 87.0819961,18.7797789 86.6284436,18.7797789 L84.5124607,18.7797789 C83.2642986,18.7797789 82.419691,18.5900986 81.9822093,18.2089654 C81.5411563,17.8278322 81.3233083,17.1506559 81.3233083,16.1774366 C81.3233083,15.188263 81.5893686,14.4614508 82.1179179,13.9934546 C82.6482529,13.5272312 83.4696471,13.2932331 84.5821006,13.2932331 L89.8479519,13.2932331 L89.8479519,15.2095355 L85.5195614,15.2095355 C84.8124481,15.2095355 84.3535387,15.2715805 84.1428333,15.3956703 C83.9303421,15.5179875 83.8232038,15.7378039 83.8232038,16.0551195 C83.8232038,16.3405262 83.9178427,16.5532517 84.1053348,16.6879779 C84.2892557,16.8244768 84.5838862,16.8918399 84.9874408,16.8918399 L87.2034196,16.8918399 C88.2140916,16.8918399 88.9854879,17.1258379 89.5176086,17.5902887 C90.0515148,18.0582848 90.3157895,18.7319156 90.3157895,19.6147266 C90.3157895,20.4620832 90.0782994,21.1534412 89.6086762,21.6834823 C89.1372673,22.2152961 88.5319355,22.481203 87.7891094,22.481203 L81.4786589,22.481203 L81.4786589,20.5649006 Z" id="Fill-13" fill="#333333"></path>
                <mask id="mask-2" fill="white">
                    <use xlink:href="#path-1"></use>
                </mask>
                <g id="Clip-16"></g>
                <path d="M91.8796992,22.481203 L94.4210526,22.481203 L94.4210526,13.2858038 L91.8796992,13.2858038 L91.8796992,22.481203 Z M91.8796992,12.2497025 L94.4210526,12.2497025 L94.4210526,9.96992481 L91.8796992,9.96992481 L91.8796992,12.2497025 Z" id="Fill-15" fill="#333333" mask="url(#mask-2)"></path>
                <path d="M98.1357291,17.896157 C98.1357291,18.7775345 98.3417685,19.4640436 98.7538472,19.9538965 C99.1641497,20.4491127 99.7378627,20.6922513 100.476763,20.6922513 C101.208557,20.6922513 101.785823,20.4491127 102.20323,19.9538965 C102.618861,19.4640436 102.830229,18.7775345 102.830229,17.896157 C102.830229,17.0165672 102.622414,16.3318459 102.206783,15.8437808 C101.792928,15.3521401 101.213886,15.1072137 100.476763,15.1072137 C99.7449675,15.1072137 99.1712545,15.3539279 98.7591758,15.8455686 C98.3417685,16.338997 98.1357291,17.0219305 98.1357291,17.896157 M105.368421,17.896157 C105.368421,19.3478377 104.929699,20.5098974 104.05048,21.3769727 C103.173036,22.244048 101.984757,22.6766917 100.494525,22.6766917 C99.0042916,22.6766917 97.8142367,22.244048 96.9243598,21.3733971 C96.0362591,20.504534 95.593985,19.3460499 95.593985,17.896157 C95.593985,16.4444763 96.0362591,15.2806288 96.9243598,14.4064023 C97.8142367,13.5339637 99.0042916,13.0977444 100.494525,13.0977444 C101.9741,13.0977444 103.15705,13.5339637 104.043375,14.4064023 C104.926147,15.2806288 105.368421,16.4444763 105.368421,17.896157" id="Fill-17" fill="#333333" mask="url(#mask-2)"></path>
                <path d="M106.736842,13.2932331 L111.301322,13.2932331 C112.679881,13.2932331 113.666843,13.5520491 114.256894,14.071454 C114.846946,14.5926315 115.142857,15.4541699 115.142857,16.6560691 L115.142857,22.481203 L112.711775,22.481203 L112.711775,16.9538848 C112.711775,16.267845 112.60546,15.8228941 112.392829,15.6190321 C112.178426,15.4133975 111.754935,15.3123528 111.11527,15.3123528 L109.167924,15.3123528 L109.167924,22.481203 L106.736842,22.481203 L106.736842,13.2932331 Z" id="Fill-18" fill="#333333" mask="url(#mask-2)"></path>
                <polygon id="Fill-19" fill="#333333" mask="url(#mask-2)" points="0 8.9924812 5.86466165 8.9924812 5.86466165 3.12781955 0 3.12781955"></polygon>
                <polygon id="Fill-20" fill="#333333" mask="url(#mask-2)" points="19.4920956 8.21052632 23.2631579 3.77283524 18.8236939 0 15.0526316 4.43946402"></polygon>
                <polygon id="Fill-21" fill="#333333" mask="url(#mask-2)" points="6.84210526 8.9924812 12.7067669 8.9924812 12.7067669 3.12781955 6.84210526 3.12781955"></polygon>
                <polygon id="Fill-22" fill="#333333" mask="url(#mask-2)" points="0 15.8345865 5.86466165 15.8345865 5.86466165 9.96992481 0 9.96992481"></polygon>
                <polygon id="Fill-23" fill="#333333" mask="url(#mask-2)" points="6.84210526 15.8345865 12.7067669 15.8345865 12.7067669 9.96992481 6.84210526 9.96992481"></polygon>
                <polygon id="Fill-24" fill="#333333" mask="url(#mask-2)" points="13.6842105 15.8345865 19.5488722 15.8345865 19.5488722 9.96992481 13.6842105 9.96992481"></polygon>
                <polygon id="Fill-25" fill="#333333" mask="url(#mask-2)" points="0 22.481203 5.86466165 22.481203 5.86466165 16.8120301 0 16.8120301"></polygon>
                <polygon id="Fill-26" fill="#333333" mask="url(#mask-2)" points="6.84210526 22.481203 12.7067669 22.481203 12.7067669 16.8120301 6.84210526 16.8120301"></polygon>
                <polygon id="Fill-27" fill="#333333" mask="url(#mask-2)" points="13.6842105 22.481203 19.5488722 22.481203 19.5488722 16.8120301 13.6842105 16.8120301"></polygon>
                <path d="M116.555755,12.6953566 C116.742628,12.6953566 116.84043,12.6080329 116.84043,12.4491037 C116.84043,12.2779492 116.746121,12.2028508 116.534797,12.2028508 L116.47891,12.2028508 L116.47891,12.6953566 L116.555755,12.6953566 Z M117.215922,13.6698894 L116.919022,13.6698894 L116.47891,13.0271868 L116.47891,13.6698894 L116.23615,13.6698894 L116.23615,11.9670767 L116.526065,11.9670767 C116.892825,11.9670767 117.08843,12.1364847 117.08843,12.4525966 C117.08843,12.7075819 116.943472,12.8752435 116.695473,12.9171589 L117.215922,13.6698894 Z M115.698236,11.9845415 C115.497391,12.2063437 115.382124,12.4997515 115.382124,12.7914127 C115.382124,13.4830167 115.927024,14.0314097 116.609896,14.0314097 C117.284035,14.0314097 117.835921,13.4777772 117.835921,12.8001451 C117.835921,12.1364847 117.284035,11.5741199 116.629107,11.5741199 C116.253615,11.5741199 115.940996,11.7120914 115.698236,11.9845415 Z M118.075188,12.8001451 C118.075188,13.6140022 117.42026,14.2706767 116.609896,14.2706767 C115.792546,14.2706767 115.142857,13.6140022 115.142857,12.7914127 C115.142857,11.9845415 115.806517,11.3383459 116.6326,11.3383459 C117.42026,11.3383459 118.075188,12.0054992 118.075188,12.8001451 Z" id="Fill-28" fill="#333333" mask="url(#mask-2)"></path>
            </g>
        </g>
    </g>
</svg>