<?xml version="1.0" encoding="UTF-8"?>
<svg width="40px" height="40px" viewBox="0 0 40 40" version="1.1" xmlns="http://www.w3.org/2000/svg" xmlns:xlink="http://www.w3.org/1999/xlink">
    <!-- Generator: Sketch 53.2 (72643) - https://sketchapp.com -->
    <title>Header</title>
    <desc>Created with Sketch.</desc>
    <g id="Header" stroke="none" stroke-width="1" fill="none" fill-rule="evenodd">
        <g id="Group" transform="translate(4.000000, 4.000000)" fill="#FF4800" fill-rule="nonzero">
            <path d="M8.16676056,0 L16.0540845,0 C18.2309859,0 19.9977465,1.792 19.9977465,4 L19.9977465,8 C19.9977465,10.208 18.2309859,12 16.0540845,12 L0.27943662,12 L0.27943662,8 C0.27943662,3.584 3.8084507,0 8.16676056,0 Z" id="Path"></path>
            <path d="M8.16676056,0 L16.0540845,0 C18.2309859,0 19.9977465,1.792 19.9977465,4 L19.9977465,8 C19.9977465,10.208 18.2309859,12 16.0540845,12 L0.27943662,12 L0.27943662,8 C0.27943662,3.584 3.8084507,0 8.16676056,0 Z" id="Path"></path>
            <path d="M0.27943662,16 L16.0540845,16 C18.2309859,16 19.9977465,17.792 19.9977465,20 L19.9977465,28 C19.9977465,30.208 18.2309859,32 16.0540845,32 L8.16676056,32 C3.81295775,32 0.27943662,28.416 0.27943662,24 C0.27943662,24 0.27943662,16 0.27943662,16 Z" id="Path"></path>
            <path d="M27.8850704,16 L31.8287324,16 L31.8287324,24 C31.8287324,28.416 28.2952113,32 23.9414085,32 L23.9414085,32 L23.9414085,20 C23.9414085,17.792 25.703662,16 27.8850704,16 Z" id="Path"></path>
            <path d="M23.9414085,0 L23.9414085,0 C28.2952113,0 31.8287324,3.584 31.8287324,8 L31.8287324,12 L27.8850704,12 C25.708169,12 23.9414085,10.208 23.9414085,8 L23.9414085,0 Z" id="Path"></path>
        </g>
    </g>
</svg>