<svg width="48" height="48" viewBox="0 0 48 48" fill="none" xmlns="http://www.w3.org/2000/svg">
<path d="M10.9639 22.9836C12.1469 22.9836 15.1043 27.3607 16.8788 27.3607C18.6533 27.3607 21.8199 16.3589 23.3852 16.3589C24.9506 16.3589 29.3002 20.8543 31.0747 20.8543C32.8491 20.8543 36.9896 11.9819 38.1726 11.3904C39.3556 10.7989 40.5385 12.81 42.313 18.0151C44.0875 23.2202 46.4535 35.766 46.4535 35.766V36.2331H1.5L6.82344 27.9522C6.82344 27.9522 9.7809 22.9836 10.9639 22.9836Z" fill="#FF8900"/>
<path d="M10.9639 28.6923C12.1469 28.6923 15.1043 31.1834 16.8788 31.1834C18.6533 31.1834 21.8199 24.9219 23.3852 24.9219C24.9506 24.9219 29.3002 27.4804 31.0747 27.4804C32.8491 27.4804 36.9896 22.4308 38.1726 22.0941C39.3556 21.7575 40.5385 22.9021 42.313 25.8645C44.0875 28.827 46.4535 35.9672 46.4535 35.9672V36.2331H1.5L6.82344 31.5201C6.82344 31.5201 9.7809 28.6923 10.9639 28.6923Z" fill="#005EB7"/>
</svg>
