<svg width="48" height="48" viewBox="0 0 48 48" fill="none" xmlns="http://www.w3.org/2000/svg">
<path d="M20.6318 40.9999L20.6318 9.83065C20.6318 9.37183 20.9227 8.99988 21.2815 8.99988H26.7191C27.0778 8.99988 27.3687 9.37183 27.3687 9.83065V40.9999H20.6318Z" fill="#F25858"/>
<path d="M8 40.9999L8 16.3816C8 15.93 8.25449 15.564 8.56842 15.564H13.3263C13.6402 15.564 13.8947 15.93 13.8947 16.3816L13.8947 40.9999H8Z" fill="#005EB7"/>
<path d="M33.2632 40.9999V19.6768C33.2632 19.218 33.554 18.846 33.9128 18.846H39.3504C39.7092 18.846 40 19.218 40 19.6768V40.9999H33.2632Z" fill="#00A198"/>
<line y1="-0.844129" x2="12.3746" y2="-0.844129" transform="matrix(0.748563 -0.663063 0.682194 0.731172 13.4736 28.2952)" stroke="white" stroke-width="1.68826"/>
<line y1="-0.844129" x2="11.6908" y2="-0.844129" transform="matrix(0.93639 0.350961 -0.367208 0.930139 25.2632 19.5846)" stroke="white" stroke-width="1.68826"/>
<ellipse cx="11.2003" cy="28.7252" rx="2.94737" ry="2.87179" fill="white"/>
<ellipse cx="36.8844" cy="22.9815" rx="2.94737" ry="2.87179" fill="white"/>
<ellipse cx="24.253" cy="18.6002" rx="2.94737" ry="2.87179" fill="white"/>
<line y1="-0.422064" x2="13.0101" y2="-0.422064" transform="matrix(0.763308 -0.646034 0.665449 0.746444 13.4736 27.6748)" stroke="#0787FF" stroke-width="0.844129"/>
<line y1="-0.422064" x2="12.4797" y2="-0.422064" transform="matrix(0.939255 0.34322 -0.359213 0.933256 25.2637 19.2699)" stroke="#0787FF" stroke-width="0.844129"/>
<ellipse cx="11.2001" cy="28.6615" rx="2.52632" ry="2.46154" fill="#0787FF"/>
<ellipse cx="11.2531" cy="28.6132" rx="1.68421" ry="1.64103" fill="white"/>
<ellipse cx="24.1689" cy="18.6134" rx="2.52632" ry="2.46154" fill="#0787FF"/>
<ellipse cx="24.2531" cy="18.6132" rx="1.68421" ry="1.64103" fill="white"/>
<ellipse cx="36.8847" cy="23.1262" rx="2.52632" ry="2.46154" fill="#0787FF"/>
<ellipse cx="36.8004" cy="23.1261" rx="1.68421" ry="1.64103" fill="white"/>
</svg>
