<svg width="48" height="48" viewBox="0 0 48 48" fill="none" xmlns="http://www.w3.org/2000/svg">
<path d="M7.21612 39.9076C6.85118 40.648 5.95843 40.9508 5.22209 40.5838C4.48576 40.2168 4.18469 39.319 4.54962 38.5786L14.4374 18.5156C14.8778 17.6219 16.048 17.4035 16.778 18.0787L26.4181 26.9954L40.4087 8.41196C40.9048 7.75306 41.838 7.62331 42.4933 8.12216C43.1485 8.62101 43.2775 9.55955 42.7814 10.2184L27.8024 30.1148C27.2725 30.8187 26.2549 30.9106 25.6087 30.3129L16.2231 21.6317L7.21612 39.9076Z" fill="#005EB7"/>
<path fill-rule="evenodd" clip-rule="evenodd" d="M7.88278 40.2399L16.4494 22.8576L25.1051 30.8637C26.0743 31.7602 27.6007 31.6224 28.3956 30.5665L43.3746 10.6701C44.1187 9.6818 43.9252 8.27399 42.9424 7.52571C41.9596 6.77744 40.5597 6.97206 39.8156 7.96041L26.3192 25.8874L17.2817 17.5281C16.1867 16.5153 14.4315 16.8429 13.7708 18.1834L3.88303 38.2464C3.33562 39.3571 3.78724 40.7038 4.89174 41.2543C5.99624 41.8048 7.33538 41.3506 7.88278 40.2399ZM26.1124 29.7623L15.9969 20.406L6.54956 39.5754C6.36709 39.9456 5.92072 40.097 5.55256 39.9135C5.18439 39.73 5.03386 39.2811 5.21632 38.9109L15.1041 18.8479C15.3243 18.4011 15.9094 18.2919 16.2744 18.6295L26.5172 28.1036L41.002 8.86367C41.25 8.53422 41.7166 8.46935 42.0442 8.71877C42.3718 8.96819 42.4363 9.43746 42.1883 9.7669L27.2093 29.6633C26.9443 30.0152 26.4355 30.0612 26.1124 29.7623Z" fill="#005EB7"/>
</svg>
