<svg width="48" height="48" viewBox="0 0 48 48" fill="none" xmlns="http://www.w3.org/2000/svg">
<path fill-rule="evenodd" clip-rule="evenodd" d="M35.957 12.1974C35.1891 12.3709 34.8705 12.5427 34.57 12.945C34.3826 13.1959 34.2516 13.2943 34.0312 13.3498C33.3923 13.5105 33.4049 13.4935 33.4587 14.1184L33.5067 14.6753L33.2473 14.4287C32.9727 14.1677 32.9575 14.1692 32.7739 14.4727C32.6747 14.6368 32.6055 14.6673 32.3199 14.6727C32.0339 14.6781 31.9423 14.7186 31.7122 14.9417C31.4551 15.1909 30.7948 15.5733 30.6215 15.5733C30.5773 15.5733 30.3718 15.6671 30.165 15.7819C29.9582 15.8966 29.5556 16.0643 29.2704 16.1544C28.8481 16.2881 28.7215 16.3028 28.5879 16.2345C28.4978 16.1883 28.3256 16.1547 28.2055 16.1598C27.8442 16.175 27.6242 16.0165 26.7061 15.0796C26.2645 14.629 26.2545 14.6304 25.5773 15.2434C24.9673 15.7955 23.1443 17.7897 23.0694 17.9869C22.9737 18.2383 23.098 18.4507 23.5023 18.7265C23.8023 18.9312 23.8636 19.015 23.9367 19.3201C24.0357 19.7324 24.2582 19.926 24.5493 19.8529C24.6862 19.8186 24.7791 19.7058 24.9052 19.4206C25.0936 18.9946 25.1594 18.9282 25.3285 18.9931C25.4961 19.0574 25.47 19.4268 25.2668 19.8631C25.0599 20.3075 24.9129 20.3665 24.401 20.2102C23.8181 20.0323 23.7505 20.0537 23.1901 20.5925C22.6331 21.1282 22.4521 21.2479 22.1967 21.2496C21.8221 21.2521 21.7965 21.3536 22.0529 21.82C22.1838 22.0583 22.272 22.2839 22.2488 22.3214C22.2256 22.359 22.0447 22.3884 21.8468 22.3869C21.4118 22.3835 21.3201 22.4511 21.2059 22.859C21.1027 23.2274 21.1544 23.5386 21.3543 23.7532C21.5455 23.9583 21.7033 23.9468 22.2108 23.6906C22.5491 23.5198 22.6705 23.411 22.7918 23.1698C23.1135 22.5298 23.327 22.4728 24.02 22.8422L24.4493 23.071L24.4028 23.381C24.3773 23.5515 24.3832 23.691 24.4159 23.691C24.4487 23.691 24.5944 23.6102 24.7398 23.5114C24.8851 23.4126 25.0251 23.3318 25.0509 23.3318C25.0766 23.3318 25.1883 23.4288 25.299 23.5473C25.5339 23.7988 25.6825 23.8192 25.8226 23.6191C25.9145 23.4878 25.9413 23.4841 26.132 23.5764C26.2468 23.632 26.4815 23.7001 26.6536 23.7277C26.9444 23.7745 27.2387 23.9679 27.2387 24.1123C27.2387 24.2323 26.9306 24.5645 26.7588 24.6298C26.6367 24.6762 26.5063 24.6628 26.3193 24.5847C26.1232 24.5028 25.9362 24.4862 25.6061 24.5215C24.9953 24.587 24.838 24.532 24.5855 24.165C24.4561 23.9769 24.2769 23.818 24.1407 23.7705C23.6569 23.6019 22.333 23.7358 21.7071 24.0168C21.4421 24.1358 20.9486 24.7187 20.4981 25.4451C20.2437 25.8551 20.2345 25.8933 20.2382 26.5227C20.2426 27.2732 20.4241 27.8441 20.7912 28.2623C21.1687 28.6923 21.2933 28.7247 22.3706 28.673C23.549 28.6165 23.6815 28.6607 23.6097 29.0857C23.5731 29.3021 23.5979 29.4382 23.7146 29.6619C23.9474 30.1087 24.5594 32.7359 24.6915 33.8562C24.7194 34.0932 24.7717 34.3438 24.8077 34.4129C24.8908 34.5729 25.2176 34.5763 25.7349 34.4228C26.4502 34.2106 26.6423 33.9808 26.9425 32.978C27.0696 32.5537 27.146 32.4226 27.3611 32.2596C28.0438 31.7422 28.0289 31.7745 28.0289 30.8151V29.954L28.4657 29.4311C28.706 29.1436 28.9993 28.7676 29.1175 28.5959C29.3609 28.2421 29.5703 27.6875 29.5149 27.5432C29.4909 27.4808 29.3045 27.4344 28.9863 27.4116C28.2782 27.361 28.0957 27.2408 27.7292 26.5846C27.3083 25.8311 27.2815 25.7582 27.4354 25.7878C27.5037 25.801 27.6822 26.0361 27.832 26.3104C28.1463 26.8852 28.2754 27.0426 28.5485 27.1838C28.7286 27.277 28.7944 27.2666 29.3292 27.0603C29.6504 26.9365 30.0112 26.7476 30.1309 26.6406C30.3205 26.4712 30.3424 26.4139 30.3013 26.1947C30.2437 25.888 30.031 25.6466 29.769 25.5906C29.399 25.5116 29.2501 25.42 29.2501 25.2711C29.2501 25.1325 29.2785 25.1383 29.735 25.37C30.0017 25.5053 30.3481 25.6382 30.5048 25.6654C30.8482 25.725 31.1131 25.8546 31.5691 26.1864C31.9518 26.4649 32.0225 26.5789 32.4493 27.6062C32.7095 28.2322 32.7699 28.3246 32.9194 28.3246C33.0603 28.3246 33.1487 28.2184 33.4155 27.728C33.594 27.3999 33.879 26.9635 34.0488 26.7582C34.2187 26.5529 34.3883 26.3365 34.4259 26.2772C34.481 26.1901 34.5976 26.2747 35.033 26.7171L35.5719 27.2648V27.7408C35.5719 28.2801 35.6488 28.3383 35.8688 27.9654C36.0452 27.6665 36.0969 27.6554 36.2054 27.8936C36.3058 28.1138 36.4182 28.1185 36.7711 27.9171C37.3208 27.6036 37.4158 27.3936 37.1883 26.9956C36.9739 26.6204 37.1076 26.2772 37.4683 26.2772C37.7193 26.2772 38.426 25.9505 38.643 25.7341C38.9246 25.4534 38.9459 25.1779 38.7328 24.5718C38.5414 24.0269 38.5503 23.9146 38.8099 23.5996C39.1358 23.2042 39.2411 23.2417 39.2184 23.7449L39.1998 24.158L39.5009 24.1447C40.024 24.1219 40.0978 24.0422 40.0978 23.5003V23.0273L40.6962 22.3985C41.3266 21.736 41.6032 21.268 41.6614 20.7651C41.6928 20.4939 41.6717 20.4381 41.4659 20.2458L41.2352 20.0303L41.3943 19.8068C41.4818 19.684 41.6833 19.4893 41.8421 19.3743C42.1931 19.1201 42.6464 19.0895 42.9094 19.3024C43.0671 19.4299 43.0804 19.4968 43.099 20.2543C43.1306 21.5532 43.1852 21.6439 43.5148 20.9459C43.6308 20.7005 43.8956 20.3081 44.1035 20.074C44.3641 19.7803 44.4946 19.5653 44.5242 19.3807C44.5477 19.2336 44.5877 19.0806 44.6132 19.0409C44.6387 19.0012 45.0357 18.7882 45.4956 18.5677C46.42 18.1243 46.6555 17.9092 46.6234 17.5376C46.6124 17.4097 46.6252 17.2834 46.6517 17.2569C46.6782 17.2303 46.867 17.2687 47.0713 17.3421L47.4428 17.4758L47.7214 17.1618C47.8746 16.9891 48 16.7898 48 16.7189C48 16.5142 47.6988 16.209 47.017 15.723C46.0426 15.0284 45.6561 14.8552 45.0747 14.853C44.7386 14.8517 44.4318 14.795 44.0848 14.6699C42.9571 14.2635 42.5169 14.1355 41.8797 14.0288C40.7096 13.8328 40.0769 13.696 39.5026 13.5149C38.9971 13.3554 38.8927 13.2882 38.4157 12.8158C38.1254 12.5284 37.7741 12.2392 37.635 12.1732C37.3091 12.0185 36.7103 12.0272 35.957 12.1974ZM14.7635 12.9332C14.8803 13.4004 15.025 14.4124 15.0145 14.6887C15.0048 14.9442 15.034 15.0264 15.1671 15.1197C15.3201 15.2269 15.3276 15.2653 15.2747 15.6735C15.1604 16.5575 15.201 16.8587 15.5378 17.6255C15.7778 18.1715 15.9396 18.4275 16.2274 18.7162C16.4342 18.9236 16.6477 19.0933 16.7018 19.0933C16.8182 19.0933 16.9539 18.7888 17.23 17.908L17.4327 17.2615L18.1859 16.7586C19.1306 16.1279 19.9231 15.3919 19.9268 15.1418C19.9282 15.0433 19.905 14.7195 19.8752 14.4223C19.8223 13.8955 19.8275 13.8689 20.0816 13.3644C20.2249 13.0798 20.3422 12.83 20.3422 12.8093C20.3422 12.7885 19.0779 12.7716 17.5327 12.7716H14.7232L14.7635 12.9332ZM0.856172 15.2364L0.299638 15.681L0.340443 15.9909C0.374782 16.2519 0.351219 16.34 0.190588 16.5505L0 16.8004L0.083117 17.462C0.239366 18.706 0.36027 18.8656 1.29352 19.0595C1.83404 19.1718 2.19675 19.1216 2.48547 18.8944C2.71909 18.7107 3.10084 18.6385 3.34617 18.7318C3.4828 18.7837 3.59552 18.9326 3.74164 19.2542C3.95335 19.72 4.23776 20.0336 4.69659 20.3075C4.84321 20.395 5.057 20.5859 5.17166 20.7318C5.56267 21.2295 5.63846 21.4555 5.6945 22.2902C5.75484 23.1899 5.91863 23.7383 6.27546 24.2351C6.40627 24.4172 6.7557 24.9254 7.05203 25.3646C7.59333 26.1667 7.77042 26.3415 7.77042 26.0735C7.77042 25.7151 7.8554 25.6952 8.05655 26.0066C8.35303 26.4654 8.70223 26.7582 9.06351 26.8507C9.24131 26.8962 9.50841 26.9649 9.65711 27.0034C9.80582 27.042 10.0321 27.1633 10.16 27.273C10.2879 27.3827 10.6188 27.5944 10.8954 27.7435C11.8348 28.2498 11.9437 28.4765 11.6497 29.3131C11.5707 29.5379 11.506 29.7717 11.506 29.8327C11.506 30.0769 12.2202 31.3502 12.5136 31.6292C13.0012 32.0927 13.0299 32.2193 12.8717 33.2054C12.7971 33.6697 12.7002 34.4264 12.6562 34.8868C12.6123 35.3472 12.5457 35.9597 12.5082 36.2477C12.4001 37.0772 12.4217 37.632 12.5732 37.9144C12.7865 38.312 13.1682 38.5768 13.5865 38.6169C13.7856 38.6361 13.9485 38.6221 13.9485 38.5859C13.9485 38.5497 13.8824 38.3921 13.8017 38.2355C13.645 37.932 13.6573 37.6233 13.8401 37.2699C13.9036 37.147 13.9223 36.9327 13.897 36.6176L13.8594 36.1482L14.482 35.5657C14.8245 35.2453 15.5097 34.5043 16.0048 33.919C16.4998 33.3337 17.0328 32.7453 17.1892 32.6114C17.5344 32.316 17.6718 32.0552 17.963 31.1434C18.2101 30.3696 18.2456 29.938 18.076 29.7684C17.9544 29.6468 17.2525 29.4134 16.7634 29.3318C16.4271 29.2758 15.8322 28.8333 15.3748 28.299C15.0785 27.9527 14.3963 27.6242 13.5534 27.4219C12.8273 27.2476 12.6011 27.2485 12.3322 27.4266C12.2136 27.5051 12.012 27.5696 11.8841 27.5698C11.6909 27.5702 11.621 27.5219 11.4714 27.285C11.3723 27.1281 11.1941 26.9495 11.0753 26.888C10.881 26.7875 10.8595 26.7421 10.8595 26.4327C10.8595 26.037 10.7097 25.7696 10.5511 25.8821C10.4955 25.9216 10.3099 26.0597 10.1388 26.1891C9.96767 26.3184 9.79533 26.4134 9.75582 26.4002C9.57098 26.3386 9.41207 25.3687 9.55101 25.1503C9.64339 25.0049 9.98793 24.9123 10.4357 24.9123C10.8904 24.9123 10.9113 24.925 11.3191 25.4451C11.5474 25.7364 11.7215 25.6603 11.7215 25.269C11.7215 24.9329 11.7899 24.7776 12.1161 24.3735C12.2437 24.2154 12.4467 23.8922 12.5674 23.6551C12.7566 23.283 12.8636 23.1733 13.3496 22.8533C14.2763 22.243 14.8579 21.9542 15.2625 21.9037C15.5773 21.8643 15.6351 21.8342 15.6263 21.7143C15.6051 21.4223 15.0319 20.0903 14.7798 19.7468C14.636 19.551 14.4291 19.1729 14.32 18.9066C14.125 18.4309 13.8934 18.171 13.8268 18.3534C13.7742 18.4973 13.5114 18.806 13.4414 18.806C13.4053 18.806 13.331 18.701 13.2763 18.5725C13.1355 18.2421 12.8878 18.0388 12.4993 17.9349C12.0633 17.8184 11.9901 17.8816 11.872 18.4755C11.7874 18.901 11.792 18.9737 11.9261 19.332C12.0539 19.6737 12.0597 19.7406 11.9712 19.8574C11.9154 19.9311 11.8682 20.1045 11.8664 20.2428C11.8621 20.559 11.7802 20.6918 11.626 20.6326C11.5399 20.5996 11.506 20.5001 11.506 20.2798C11.506 19.926 11.4332 19.8481 11.0471 19.7887C10.8935 19.765 10.6394 19.6567 10.4823 19.5479C10.3253 19.439 10.1277 19.3148 10.0432 19.2716C9.90682 19.202 9.89188 19.1414 9.90927 18.7302C9.92766 18.2957 9.94619 18.2507 10.2108 17.9987C10.4698 17.7521 10.5181 17.7334 10.8019 17.7709C11.1141 17.812 11.5872 17.6721 11.6882 17.5087C11.7149 17.4656 11.6627 17.3518 11.5723 17.2556C11.4125 17.0855 11.4113 17.074 11.5289 16.8274C11.6814 16.5077 11.683 16.1348 11.5332 15.8391C11.2515 15.2827 11.022 15.2327 10.3509 15.5819C9.93821 15.7967 9.91436 15.8009 9.78125 15.6804C9.65833 15.5692 9.60697 15.5653 9.33499 15.6461C8.59677 15.8655 7.16166 15.7561 6.41101 15.4231C6.17625 15.319 6.0103 15.291 5.83077 15.3253C5.69249 15.3517 5.37288 15.3693 5.12051 15.3644C4.86807 15.3595 4.56067 15.3921 4.43732 15.4367C4.19774 15.5233 3.5818 15.3821 2.39107 14.9676C1.61601 14.6978 1.50638 14.717 0.856172 15.2364ZM41.7 21.7693C41.6079 21.8915 41.2834 22.6556 41.1736 23.0085C41.0159 23.5157 40.8894 23.6915 40.5169 23.9207C40.2604 24.0785 40.1137 24.2312 40.0222 24.4357C39.9506 24.5955 39.9077 24.7518 39.927 24.7828C40.0147 24.9248 41.5097 23.981 41.6085 23.7214C41.6468 23.6205 41.6782 23.3971 41.6782 23.2249C41.6782 22.9958 41.7263 22.8546 41.8578 22.6983C42.0482 22.4721 42.0868 22.1779 41.9674 21.8638C41.8905 21.6616 41.8041 21.6311 41.7 21.7693ZM35.2127 28.4298C35.2127 28.5422 36.0004 29.8156 36.203 30.0308C36.391 30.2304 36.6027 30.2785 36.785 30.1631C36.8504 30.1216 37.0353 30.1713 37.3238 30.3078C37.8462 30.5549 37.9035 30.5599 38.0368 30.3696C38.1195 30.2515 38.1924 30.2309 38.418 30.2618C38.6068 30.2877 38.7782 30.2588 38.9483 30.1724C39.1987 30.0453 39.1997 30.043 39.1747 29.6158C39.1608 29.3798 39.1165 29.1463 39.0761 29.0969C38.945 28.9367 38.6678 29.0013 38.3831 29.2585C38.23 29.3968 38.0925 29.5099 38.0776 29.51C38.0626 29.51 38.0616 29.3485 38.0752 29.1512C38.106 28.7074 38.0199 28.6586 37.507 28.829C37.23 28.921 37.1021 29.0122 36.9943 29.1949C36.9154 29.3286 36.8136 29.4375 36.7681 29.4368C36.7226 29.4361 36.3828 29.1936 36.0129 28.898C35.3556 28.3727 35.2127 28.2891 35.2127 28.4298ZM40.2414 29.4551C40.2414 29.5883 40.4375 29.7661 40.6906 29.8624C40.8247 29.9134 40.8887 29.9898 40.8902 30.1008C40.8934 30.3275 41.2103 30.5377 41.6411 30.5989C41.8393 30.627 42.1508 30.672 42.3334 30.6989C42.6801 30.7499 42.8503 30.6532 42.6921 30.4951C42.6481 30.4511 42.6121 30.3246 42.6121 30.214C42.6121 30.1033 42.5853 30.0128 42.5526 30.0128C42.5199 30.0128 42.3382 29.9102 42.149 29.7849C41.8835 29.6091 41.6876 29.5439 41.2925 29.5002C41.0108 29.4689 40.659 29.4225 40.5108 29.3969C40.3017 29.3609 40.2414 29.3739 40.2414 29.4551ZM41.5345 30.9108C41.4669 31.0887 41.0787 31.3769 40.9059 31.3774C40.851 31.3777 40.8161 31.2792 40.8161 31.1241C40.8161 30.9594 40.7764 30.8551 40.703 30.827C40.5236 30.7581 40.0466 30.9337 39.8973 31.1236C39.8015 31.2453 39.6932 31.295 39.534 31.2905C39.2823 31.2833 39.0911 31.4257 38.8685 31.7857C38.755 31.9694 38.6335 32.0491 38.3347 32.136C38.1219 32.1978 37.8759 32.3068 37.7879 32.3779C37.6346 32.5021 37.6318 32.5246 37.72 32.919C37.7797 33.1855 37.7945 33.5062 37.7622 33.8284C37.7052 34.3957 37.7592 34.5112 38.1121 34.5774C38.2721 34.6074 38.4978 34.557 38.8771 34.4066C39.1731 34.2893 39.6054 34.1547 39.8377 34.1075L40.26 34.0217L40.8104 34.5688L41.3608 35.1159L41.8267 35.1595C42.2593 35.1998 42.309 35.1891 42.5221 35.0098C42.7062 34.8549 42.8026 34.6589 43.0097 34.0183C43.174 33.5101 43.2515 33.1551 43.223 33.0415C43.1984 32.9434 42.9826 32.6501 42.7434 32.3898C42.453 32.0737 42.2173 31.7197 42.034 31.3239C41.8829 30.9979 41.7241 30.7312 41.6811 30.7312C41.638 30.7312 41.5721 30.812 41.5345 30.9108Z" fill="#1D91FF"/>
</svg>
