<svg width="48" height="48" viewBox="0 0 48 48" fill="none" xmlns="http://www.w3.org/2000/svg">
<path d="M9.43495 36.9999H44V18.061C44 18.061 42.4625 23.5073 41.0474 25.5207C39.6323 27.5341 36.3125 27.852 34.4853 27.7633C32.6581 27.6745 27.4889 27.3291 26.0625 27.7633C24.6361 28.1974 23.5 30.5674 22.3331 30.642C21.1662 30.7166 16.4632 29.9497 14.7875 31.1105C13.1118 32.2713 12.7375 33.2828 11.3026 33.9984C9.86763 34.7139 8.125 34.369 6.87086 34.8427C5.61671 35.3164 3 36.9999 3 36.9999H9.43495Z" fill="url(#paint0_linear_301_13746)"/>
<path d="M12.2252 15.5742L12.7384 11.1247H17.7258V12.5737H14.1874L13.9673 14.4559C14.3874 14.2354 14.8327 14.1251 15.3057 14.1251C16.1535 14.1251 16.8176 14.3837 17.2981 14.9008C17.7786 15.418 18.0189 16.1412 18.0189 17.0718C18.0189 17.6375 17.8981 18.1428 17.6553 18.5903C17.4126 19.0379 17.0654 19.3844 16.6138 19.6299C16.161 19.8766 15.6277 20 15.0126 20C14.4742 20 13.9761 19.8924 13.5157 19.6784C13.0553 19.4645 12.6918 19.1626 12.4252 18.7741C12.1585 18.3856 12.0164 17.942 12 17.4458H13.7484C13.7849 17.8107 13.9145 18.0942 14.1371 18.2963C14.3597 18.4985 14.6491 18.5995 15.0075 18.5995C15.4063 18.5995 15.7145 18.4578 15.9308 18.1756C16.1472 17.8934 16.2553 17.4931 16.2553 16.9759C16.2553 16.4785 16.1308 16.0979 15.883 15.834C15.6352 15.5702 15.2818 15.4377 14.8252 15.4377C14.405 15.4377 14.0654 15.5453 13.805 15.7618L13.634 15.918L12.2289 15.5755L12.2252 15.5742ZM25.4214 16.2593C25.4214 17.4694 25.1673 18.3961 24.6579 19.0366C24.1484 19.6771 23.4025 19.9987 22.4214 19.9987C21.4516 19.9987 20.7107 19.6837 20.1962 19.055C19.6818 18.4263 19.4201 17.5233 19.4075 16.3499V14.7381C19.4075 13.5161 19.6654 12.5882 20.1811 11.9542C20.6969 11.3203 21.439 11.0039 22.4088 11.0039C23.3786 11.0039 24.1195 11.3176 24.634 11.945C25.1484 12.5724 25.4101 13.4728 25.4226 14.6475V16.2593H25.4214ZM23.6553 14.4913C23.6553 13.7655 23.5547 13.2379 23.3522 12.9071C23.1497 12.5763 22.8352 12.411 22.4075 12.411C21.9925 12.411 21.6855 12.5685 21.4881 12.8835C21.2906 13.1985 21.1849 13.6907 21.1736 14.3601V16.489C21.1736 17.203 21.273 17.732 21.4704 18.0798C21.6679 18.4276 21.9849 18.5995 22.4214 18.5995C22.8528 18.5995 23.1648 18.4328 23.356 18.1008C23.5472 17.7687 23.6478 17.2594 23.6553 16.5743V14.4939V14.4913ZM26.878 12.8087C26.878 12.2718 27.0553 11.8361 27.4101 11.5014C27.7648 11.1667 28.2289 11 28.8038 11C29.3862 11 29.8553 11.1654 30.2088 11.4961C30.5623 11.8269 30.7409 12.2745 30.7409 12.8402V13.2733C30.7409 13.8141 30.5635 14.2498 30.2088 14.5779C29.8541 14.9061 29.3899 15.0715 28.8151 15.0715C28.2365 15.0715 27.7686 14.9061 27.4126 14.5753C27.0566 14.2446 26.878 13.7983 26.878 13.2379V12.8113V12.8087ZM28.0516 13.2707C28.0516 13.5109 28.122 13.7051 28.2629 13.8508C28.4038 13.9965 28.5874 14.07 28.8164 14.07C29.044 14.07 29.2264 13.9965 29.3598 13.8482C29.4931 13.6999 29.561 13.5017 29.561 13.2536V12.8087C29.561 12.5685 29.4943 12.3742 29.3598 12.2259C29.2252 12.0776 29.0403 12.0041 28.8038 12.0041C28.5799 12.0041 28.3987 12.0776 28.2604 12.2233C28.122 12.369 28.0528 12.5724 28.0528 12.8336V13.272L28.0516 13.2707ZM31.1308 17.732C31.1308 17.1912 31.3107 16.7554 31.6692 16.4247C32.0277 16.0939 32.4918 15.9285 33.0629 15.9285C33.6415 15.9285 34.1094 16.0913 34.4654 16.4181C34.8214 16.7449 35 17.1951 35 17.7674V18.2005C35 18.7373 34.8252 19.1718 34.4742 19.5026C34.1233 19.8333 33.6579 19.9987 33.0742 19.9987C32.4881 19.9987 32.0164 19.832 31.6629 19.4999C31.3094 19.1679 31.1308 18.7268 31.1308 18.1769V17.732ZM32.3044 18.2018C32.3044 18.4223 32.3774 18.61 32.5245 18.7675C32.6717 18.925 32.8541 19.0025 33.0742 19.0025C33.5711 19.0025 33.8201 18.7321 33.8201 18.1913V17.7346C33.8201 17.4944 33.7509 17.3001 33.6126 17.1544C33.4742 17.0087 33.2906 16.9352 33.0629 16.9352C32.8352 16.9352 32.6516 17.0087 32.5132 17.1544C32.3748 17.3001 32.3057 17.4996 32.3057 17.753V18.2045L32.3044 18.2018ZM29.1635 19.223L28.3019 18.7662L32.6465 11.924L33.5082 12.3808L29.1635 19.223Z" fill="#F25858"/>
<defs>
<linearGradient id="paint0_linear_301_13746" x1="36.825" y1="26.2228" x2="37.9747" y2="37.6149" gradientUnits="userSpaceOnUse">
<stop offset="0.473958" stop-color="#3FA2FF"/>
<stop offset="1" stop-color="#0083FF"/>
</linearGradient>
</defs>
</svg>
