<svg width="48" height="48" viewBox="0 0 48 48" fill="none" xmlns="http://www.w3.org/2000/svg">
<path d="M24 9V23H23.5C23.22 23 23 23.21 23 23.5V38H17V9C17 8.45 17.45 8 18 8H23C23.55 8 24 8.45 24 9Z" fill="#88D2CE"/>
<path d="M8 38V17C8 16.44 8.45 16 9 16H14C14.55 16 15 16.45 15 17V38H8Z" fill="#FFD29E"/>
<path fill-rule="evenodd" clip-rule="evenodd" d="M24 15V23H23.5C23.22 23 23 23.21 23 23.5V38H17V15C17 14.45 17.45 14 18 14H23C23.55 14 24 14.45 24 15Z" fill="#00A89E"/>
<path d="M27.71 24H26V27.71H27.71V24Z" fill="url(#paint0_linear_301_13721)"/>
<path d="M27.71 29.1899H26V37.3399H27.71V29.1899Z" fill="url(#paint1_linear_301_13721)"/>
<path d="M33 12V23H26V12C26 11.45 26.45 11 27 11H32C32.55 11 33 11.45 33 12Z" fill="url(#paint2_linear_301_13721)"/>
<path d="M32.9999 24H29.1899V27.71H32.9999V24Z" fill="url(#paint3_linear_301_13721)"/>
<path d="M32.9999 30.5601V31.4001H32.1499L32.9999 30.5601Z" fill="url(#paint4_linear_301_13721)"/>
<path d="M33.0002 34.3499V35.8399C33.0002 35.8399 32.9302 35.8499 32.8902 35.8499H31.4102V37.9999H31.3302L28.4502 35.1199L31.4102 32.1499V34.3699H32.8902C32.8902 34.3699 32.9602 34.3699 33.0002 34.3499Z" fill="url(#paint5_linear_301_13721)"/>
<path d="M27.71 24H26V27.71H27.71V24Z" fill="#C2E0FF"/>
<path d="M27.71 29.1899H26V37.3399H27.71V29.1899Z" fill="#C2E0FF"/>
<path d="M33 12V23H26V12C26 11.45 26.45 11 27 11H32C32.55 11 33 11.45 33 12Z" fill="#FF8B8B"/>
<path d="M32.9999 24H29.1899V27.71H32.9999V24Z" fill="#C2E0FF"/>
<path d="M32.9999 30.5601V31.4001H32.1499L32.9999 30.5601Z" fill="#C2E0FF"/>
<path d="M33.0002 34.3499V35.8399C33.0002 35.8399 32.9302 35.8499 32.8902 35.8499H31.4102V37.9999H31.3302L28.4502 35.1199L31.4102 32.1499V34.3699H32.8902C32.8902 34.3699 32.9602 34.3699 33.0002 34.3499Z" fill="#C2E0FF"/>
<path d="M27.71 24H26V27.71H27.71V24Z" fill="#1D91FF"/>
<path d="M27.71 29.1899H26V37.3399H27.71V29.1899Z" fill="#1D91FF"/>
<path fill-rule="evenodd" clip-rule="evenodd" d="M33 19V23H26V19C26 18.45 26.45 18 27 18H32C32.55 18 33 18.45 33 19Z" fill="#F25858"/>
<path d="M32.9999 24H29.1899V27.71H32.9999V24Z" fill="#1D91FF"/>
<path fill-rule="evenodd" clip-rule="evenodd" d="M32.9999 30.5601V31.4001H32.1499L32.9999 30.5601Z" fill="#1D91FF"/>
<path fill-rule="evenodd" clip-rule="evenodd" d="M33.0002 34.3499V35.8399C33.0002 35.8399 32.9302 35.8499 32.8902 35.8499H31.4102V37.9999H31.3302L28.4502 35.1199L31.4102 32.1499V34.3699H32.8902C32.8902 34.3699 32.9602 34.3699 33.0002 34.3499Z" fill="#1D91FF"/>
<path d="M15 38V23C15 22.45 14.55 22 14 22H9C8.45 22 8 22.44 8 23V38H15Z" fill="#FF8900"/>
<path d="M35.86 24H29.19V27.71H37.34V25.47C37.34 24.66 36.67 24 35.86 24ZM35.12 28.45L33 30.56L32.15 31.4H34.37V32.89C34.37 33.66 33.77 34.31 33 34.35C32.96 34.37 32.93 34.37 32.89 34.37H31.41V32.15L28.45 35.12L31.33 38L31.41 38.08V35.85H32.89C32.89 35.85 32.96 35.85 33 35.84C34.59 35.8 35.86 34.49 35.86 32.89V31.4H38.08L35.12 28.45ZM35.12 28.45L33 30.56L32.15 31.4H34.37V32.89C34.37 33.66 33.77 34.31 33 34.35C32.96 34.37 32.93 34.37 32.89 34.37H31.41V32.15L28.45 35.12L31.33 38L31.41 38.08V35.85H32.89C32.89 35.85 32.96 35.85 33 35.84C34.59 35.8 35.86 34.49 35.86 32.89V31.4H38.08L35.12 28.45ZM35.86 24H29.19V27.71H37.34V25.47C37.34 24.66 36.67 24 35.86 24ZM24 29.19V35.85C24 36.66 24.67 37.34 25.48 37.34H27.71V29.19H24ZM24 29.19V35.85C24 36.66 24.67 37.34 25.48 37.34H27.71V29.19H24ZM35.86 24H29.19V27.71H37.34V25.47C37.34 24.66 36.67 24 35.86 24ZM35.12 28.45L33 30.56L32.15 31.4H34.37V32.89C34.37 33.66 33.77 34.31 33 34.35C32.96 34.37 32.93 34.37 32.89 34.37H31.41V32.15L28.45 35.12L31.33 38L31.41 38.08V35.85H32.89C32.89 35.85 32.96 35.85 33 35.84C34.59 35.8 35.86 34.49 35.86 32.89V31.4H38.08L35.12 28.45ZM35.12 28.45L33 30.56L32.15 31.4H34.37V32.89C34.37 33.66 33.77 34.31 33 34.35C32.96 34.37 32.93 34.37 32.89 34.37H31.41V32.15L28.45 35.12L31.33 38L31.41 38.08V35.85H32.89C32.89 35.85 32.96 35.85 33 35.84C34.59 35.8 35.86 34.49 35.86 32.89V31.4H38.08L35.12 28.45ZM35.86 24H29.19V27.71H37.34V25.47C37.34 24.66 36.67 24 35.86 24ZM24 29.19V35.85C24 36.66 24.67 37.34 25.48 37.34H27.71V29.19H24ZM25.48 24C24.67 24 24 24.66 24 25.47V27.71H27.71V24H25.48ZM24 29.19V35.85C24 36.66 24.67 37.34 25.48 37.34H27.71V29.19H24ZM35.86 24H29.19V27.71H37.34V25.47C37.34 24.66 36.67 24 35.86 24ZM35.12 28.45L33 30.56L32.15 31.4H34.37V32.89C34.37 33.66 33.77 34.31 33 34.35C32.96 34.37 32.93 34.37 32.89 34.37H31.41V32.15L28.45 35.12L31.33 38L31.41 38.08V35.85H32.89C32.89 35.85 32.96 35.85 33 35.84C34.59 35.8 35.86 34.49 35.86 32.89V31.4H38.08L35.12 28.45ZM35.12 28.45L33 30.56L32.15 31.4H34.37V32.89C34.37 33.66 33.77 34.31 33 34.35C32.96 34.37 32.93 34.37 32.89 34.37H31.41V32.15L28.45 35.12L31.33 38L31.41 38.08V35.85H32.89C32.89 35.85 32.96 35.85 33 35.84C34.59 35.8 35.86 34.49 35.86 32.89V31.4H38.08L35.12 28.45ZM37.34 27.71V25.47C37.34 24.66 36.67 24 35.86 24H29.19V27.71H37.34ZM24 29.19V35.85C24 36.66 24.67 37.34 25.48 37.34H27.71V29.19H24ZM25.48 24C24.67 24 24 24.66 24 25.47V27.71H27.71V24H25.48ZM38.5 22.5H23.5C22.95 22.5 22.5 22.95 22.5 23.5V38.5C22.5 39.04 22.95 39.5 23.5 39.5H38.5C39.05 39.5 39.5 39.04 39.5 38.5V23.5C39.5 22.95 39.05 22.5 38.5 22.5ZM39 38.5C39 38.78 38.78 39 38.5 39H23.5C23.22 39 23 38.78 23 38.5V23.5C23 23.21 23.22 23 23.5 23H38.5C38.78 23 39 23.21 39 23.5V38.5ZM33 30.56L32.15 31.4H34.37V32.89C34.37 33.66 33.77 34.31 33 34.35C32.96 34.37 32.93 34.37 32.89 34.37H31.41V32.15L28.45 35.12L31.33 38L31.41 38.08V35.85H32.89C32.89 35.85 32.96 35.85 33 35.84C34.59 35.8 35.86 34.49 35.86 32.89V31.4H38.08L35.12 28.45L33 30.56ZM37.34 27.71V25.47C37.34 24.66 36.67 24 35.86 24H29.19V27.71H37.34ZM24 29.19V35.85C24 36.66 24.67 37.34 25.48 37.34H27.71V29.19H24ZM25.48 24C24.67 24 24 24.66 24 25.47V27.71H27.71V24H25.48ZM25.48 24C24.67 24 24 24.66 24 25.47V27.71H27.71V24H25.48ZM24 29.19V35.85C24 36.66 24.67 37.34 25.48 37.34H27.71V29.19H24ZM35.86 24H29.19V27.71H37.34V25.47C37.34 24.66 36.67 24 35.86 24ZM35.12 28.45L33 30.56L32.15 31.4H34.37V32.89C34.37 33.66 33.77 34.31 33 34.35C32.96 34.37 32.93 34.37 32.89 34.37H31.41V32.15L28.45 35.12L31.33 38L31.41 38.08V35.85H32.89C32.89 35.85 32.96 35.85 33 35.84C34.59 35.8 35.86 34.49 35.86 32.89V31.4H38.08L35.12 28.45ZM35.12 28.45L33 30.56L32.15 31.4H34.37V32.89C34.37 33.66 33.77 34.31 33 34.35C32.96 34.37 32.93 34.37 32.89 34.37H31.41V32.15L28.45 35.12L31.33 38L31.41 38.08V35.85H32.89C32.89 35.85 32.96 35.85 33 35.84C34.59 35.8 35.86 34.49 35.86 32.89V31.4H38.08L35.12 28.45ZM35.86 24H29.19V27.71H37.34V25.47C37.34 24.66 36.67 24 35.86 24ZM24 29.19V35.85C24 36.66 24.67 37.34 25.48 37.34H27.71V29.19H24ZM25.48 24C24.67 24 24 24.66 24 25.47V27.71H27.71V24H25.48ZM24 29.19V35.85C24 36.66 24.67 37.34 25.48 37.34H27.71V29.19H24ZM35.86 24H29.19V27.71H37.34V25.47C37.34 24.66 36.67 24 35.86 24ZM35.12 28.45L33 30.56L32.15 31.4H34.37V32.89C34.37 33.66 33.77 34.31 33 34.35C32.96 34.37 32.93 34.37 32.89 34.37H31.41V32.15L28.45 35.12L31.33 38L31.41 38.08V35.85H32.89C32.89 35.85 32.96 35.85 33 35.84C34.59 35.8 35.86 34.49 35.86 32.89V31.4H38.08L35.12 28.45ZM35.12 28.45L33 30.56L32.15 31.4H34.37V32.89C34.37 33.66 33.77 34.31 33 34.35C32.96 34.37 32.93 34.37 32.89 34.37H31.41V32.15L28.45 35.12L31.33 38L31.41 38.08V35.85H32.89C32.89 35.85 32.96 35.85 33 35.84C34.59 35.8 35.86 34.49 35.86 32.89V31.4H38.08L35.12 28.45ZM35.86 24H29.19V27.71H37.34V25.47C37.34 24.66 36.67 24 35.86 24ZM24 29.19V35.85C24 36.66 24.67 37.34 25.48 37.34H26V29.19H24ZM31.33 38L31.41 38.08V38H31.33ZM35.86 24H33V27.71H37.34V25.47C37.34 24.66 36.67 24 35.86 24ZM35.12 28.45L33 30.56V31.4H34.37V32.89C34.37 33.66 33.77 34.31 33 34.35V35.84C34.59 35.8 35.86 34.49 35.86 32.89V31.4H38.08L35.12 28.45Z" fill="white"/>
<path d="M38.5 22H23.5C22.67 22 22 22.66 22 23.5V38.5C22 39.33 22.67 40 23.5 40H38.5C39.33 40 40 39.33 40 38.5V23.5C40 22.66 39.33 22 38.5 22ZM39 38.5C39 38.78 38.78 39 38.5 39H23.5C23.22 39 23 38.78 23 38.5V23.5C23 23.21 23.22 23 23.5 23H38.5C38.78 23 39 23.21 39 23.5V38.5Z" fill="#1D91FF"/>
<path d="M25.48 24C24.67 24 24 24.66 24 25.47V27.71H27.71V24H25.48ZM24 29.19V35.85C24 36.66 24.67 37.34 25.48 37.34H27.71V29.19H24ZM35.86 24H29.19V27.71H37.34V25.47C37.34 24.66 36.67 24 35.86 24Z" fill="#1D91FF"/>
<path d="M38.0802 31.4002H35.8602V32.8902C35.8602 34.4902 34.5902 35.8002 33.0002 35.8402C32.9602 35.8502 32.9302 35.8502 32.8902 35.8502H31.4102V38.0802L31.3302 38.0002L28.4502 35.1202L31.4102 32.1502V34.3702H32.8902C32.8902 34.3702 32.9602 34.3702 33.0002 34.3502C33.7702 34.3102 34.3702 33.6602 34.3702 32.8902V31.4002H32.1502L33.0002 30.5602L35.1202 28.4502L38.0802 31.4002Z" fill="#F25858"/>
<defs>
<linearGradient id="paint0_linear_301_13721" x1="24.79" y1="24.27" x2="28.31" y2="26.97" gradientUnits="userSpaceOnUse">
<stop stop-color="#763190"/>
<stop offset="0.49" stop-color="#EE2D92"/>
<stop offset="1" stop-color="#F79B73"/>
</linearGradient>
<linearGradient id="paint1_linear_301_13721" x1="23.24" y1="30.4999" x2="29.4" y2="35.2199" gradientUnits="userSpaceOnUse">
<stop stop-color="#763190"/>
<stop offset="0.49" stop-color="#EE2D92"/>
<stop offset="1" stop-color="#F79B73"/>
</linearGradient>
<linearGradient id="paint2_linear_301_13721" x1="22.42" y1="11.82" x2="34.56" y2="21.13" gradientUnits="userSpaceOnUse">
<stop stop-color="#763190"/>
<stop offset="0.49" stop-color="#EE2D92"/>
<stop offset="1" stop-color="#F79B73"/>
</linearGradient>
<linearGradient id="paint3_linear_301_13721" x1="28.0799" y1="23.54" x2="33.2199" y2="27.49" gradientUnits="userSpaceOnUse">
<stop stop-color="#763190"/>
<stop offset="0.49" stop-color="#EE2D92"/>
<stop offset="1" stop-color="#F79B73"/>
</linearGradient>
<linearGradient id="paint4_linear_301_13721" x1="32.3899" y1="30.8401" x2="33.0499" y2="31.3401" gradientUnits="userSpaceOnUse">
<stop stop-color="#763190"/>
<stop offset="0.49" stop-color="#EE2D92"/>
<stop offset="1" stop-color="#F79B73"/>
</linearGradient>
<linearGradient id="paint5_linear_301_13721" x1="28.8402" y1="33.1299" x2="32.8302" y2="36.1999" gradientUnits="userSpaceOnUse">
<stop stop-color="#763190"/>
<stop offset="0.49" stop-color="#EE2D92"/>
<stop offset="1" stop-color="#F79B73"/>
</linearGradient>
</defs>
</svg>
