<svg width="48" height="48" viewBox="0 0 48 48" fill="none" xmlns="http://www.w3.org/2000/svg">
<path d="M38.8578 26.7779L36.8077 26.0246C36.799 26.0214 36.7911 26.0164 36.7845 26.0098C36.778 26.0032 36.773 25.9952 36.7699 25.9864L36.0241 23.9155C35.9925 23.8277 35.9349 23.7518 35.8591 23.6982C35.7833 23.6446 35.693 23.6158 35.6005 23.6158C35.508 23.6158 35.4177 23.6446 35.3419 23.6982C35.2662 23.7518 35.2085 23.8277 35.1769 23.9155L34.4312 25.9864C34.4281 25.9952 34.423 26.0032 34.4165 26.0098C34.41 26.0164 34.4021 26.0214 34.3934 26.0246L32.3432 26.7779C32.2563 26.8098 32.1812 26.868 32.1281 26.9445C32.075 27.0211 32.0465 27.1123 32.0465 27.2057C32.0465 27.2992 32.075 27.3904 32.1281 27.4669C32.1812 27.5435 32.2563 27.6017 32.3432 27.6336L34.3934 28.3869C34.4021 28.39 34.41 28.3951 34.4165 28.4017C34.423 28.4083 34.4281 28.4163 34.4312 28.4251L35.1769 30.4959C35.2085 30.5838 35.2662 30.6596 35.3419 30.7132C35.4177 30.7669 35.508 30.7956 35.6005 30.7956C35.693 30.7956 35.7833 30.7669 35.8591 30.7132C35.9349 30.6596 35.9925 30.5838 36.0241 30.4959L36.7699 28.4251C36.773 28.4163 36.778 28.4083 36.7845 28.4017C36.7911 28.3951 36.799 28.39 36.8077 28.3869L38.8578 27.6336C38.9448 27.6017 39.0199 27.5435 39.0729 27.4669C39.126 27.3904 39.1545 27.2992 39.1545 27.2057C39.1545 27.1123 39.126 27.0211 39.0729 26.9445C39.0199 26.868 38.9448 26.8098 38.8578 26.7779ZM38.7253 27.2674L36.6752 28.0204C36.6133 28.0432 36.5571 28.0794 36.5105 28.1265C36.4638 28.1736 36.428 28.2304 36.4054 28.2929L35.66 30.3637C35.655 30.3755 35.6467 30.3856 35.6362 30.3926C35.6256 30.3997 35.6132 30.4034 35.6005 30.4034C35.5879 30.4034 35.5755 30.3997 35.5649 30.3926C35.5543 30.3856 35.546 30.3755 35.5411 30.3637L34.7956 28.2929C34.773 28.2304 34.7372 28.1736 34.6906 28.1265C34.644 28.0794 34.5878 28.0432 34.5259 28.0204L32.4757 27.2658C32.4641 27.2608 32.4541 27.2524 32.4471 27.2417C32.4401 27.231 32.4364 27.2185 32.4364 27.2057C32.4364 27.1929 32.4401 27.1804 32.4471 27.1697C32.4541 27.1591 32.4641 27.1507 32.4757 27.1457L34.5259 26.3927C34.5878 26.3699 34.644 26.3337 34.6906 26.2866C34.7372 26.2395 34.773 26.1827 34.7956 26.1202L35.5411 24.0493C35.546 24.0376 35.5543 24.0275 35.5649 24.0205C35.5755 24.0134 35.5879 24.0097 35.6005 24.0097C35.6132 24.0097 35.6256 24.0134 35.6362 24.0205C35.6467 24.0275 35.655 24.0376 35.66 24.0493L36.4054 26.1202C36.428 26.1827 36.4638 26.2395 36.5105 26.2866C36.5571 26.3337 36.6133 26.3699 36.6752 26.3927L38.7253 27.1457C38.737 27.1507 38.7469 27.1591 38.7539 27.1697C38.7609 27.1804 38.7646 27.1929 38.7646 27.2057C38.7646 27.2185 38.7609 27.231 38.7539 27.2417C38.7469 27.2524 38.737 27.2608 38.7253 27.2658V27.2674Z" fill="#F25858"/>
<path d="M38.7253 27.2674L36.6752 28.0204C36.6133 28.0432 36.5571 28.0794 36.5105 28.1265C36.4638 28.1736 36.428 28.2304 36.4054 28.2929L35.66 30.3637C35.655 30.3755 35.6467 30.3856 35.6362 30.3926C35.6256 30.3997 35.6132 30.4034 35.6005 30.4034C35.5879 30.4034 35.5755 30.3997 35.5649 30.3926C35.5543 30.3856 35.546 30.3755 35.5411 30.3637L34.7956 28.2929C34.773 28.2304 34.7372 28.1736 34.6906 28.1265C34.644 28.0794 34.5878 28.0432 34.5259 28.0204L32.4757 27.2658C32.4641 27.2608 32.4541 27.2524 32.4471 27.2417C32.4401 27.231 32.4364 27.2185 32.4364 27.2057C32.4364 27.1929 32.4401 27.1804 32.4471 27.1697C32.4541 27.1591 32.4641 27.1507 32.4757 27.1457L34.5259 26.3927C34.5878 26.3699 34.644 26.3337 34.6906 26.2866C34.7372 26.2395 34.773 26.1827 34.7956 26.1202L35.5411 24.0493C35.546 24.0376 35.5543 24.0275 35.5649 24.0205C35.5755 24.0134 35.5879 24.0097 35.6005 24.0097C35.6132 24.0097 35.6256 24.0134 35.6362 24.0205C35.6467 24.0275 35.655 24.0376 35.66 24.0493L36.4054 26.1202C36.428 26.1827 36.4638 26.2395 36.5105 26.2866C36.5571 26.3337 36.6133 26.3699 36.6752 26.3927L38.7253 27.1457C38.737 27.1507 38.7469 27.1591 38.7539 27.1697C38.7609 27.1804 38.7646 27.1929 38.7646 27.2057C38.7646 27.2185 38.7609 27.231 38.7539 27.2417C38.7469 27.2524 38.737 27.2608 38.7253 27.2658V27.2674Z" fill="#F25858"/>
<path d="M32.8924 30.5511L31.7209 30.1207C31.7159 30.1189 31.7114 30.116 31.7077 30.1122C31.7039 30.1084 31.7011 30.1039 31.6993 30.0989L31.2731 28.9155C31.2551 28.8653 31.2222 28.822 31.1788 28.7913C31.1355 28.7607 31.084 28.7443 31.0311 28.7443C30.9782 28.7443 30.9266 28.7607 30.8833 28.7913C30.84 28.822 30.8071 28.8653 30.789 28.9155L30.3629 30.0989C30.3611 30.1039 30.3582 30.1084 30.3545 30.1122C30.3508 30.116 30.3463 30.1189 30.3413 30.1207L29.1698 30.5511C29.1201 30.5694 29.0772 30.6026 29.0468 30.6464C29.0165 30.6901 29.0002 30.7422 29.0002 30.7956C29.0002 30.849 29.0165 30.9011 29.0468 30.9449C29.0772 30.9886 29.1201 31.0219 29.1698 31.0401L30.3413 31.4706C30.3463 31.4724 30.3508 31.4753 30.3545 31.479C30.3582 31.4828 30.3611 31.4874 30.3629 31.4924L30.789 32.6757C30.8071 32.7259 30.84 32.7693 30.8833 32.7999C30.9266 32.8305 30.9782 32.847 31.0311 32.847C31.084 32.847 31.1355 32.8305 31.1788 32.7999C31.2222 32.7693 31.2551 32.7259 31.2731 32.6757L31.6993 31.4924C31.7011 31.4874 31.7039 31.4828 31.7077 31.479C31.7114 31.4753 31.7159 31.4724 31.7209 31.4706L32.8924 31.0401C32.9421 31.0219 32.985 30.9886 33.0153 30.9449C33.0457 30.9011 33.0619 30.849 33.0619 30.7956C33.0619 30.7422 33.0457 30.6901 33.0153 30.6464C32.985 30.6026 32.9421 30.5694 32.8924 30.5511ZM32.8167 30.8309L31.6452 31.2611C31.6098 31.2742 31.5777 31.2949 31.551 31.3218C31.5244 31.3487 31.5039 31.3811 31.491 31.4169L31.0651 32.6002C31.0622 32.6069 31.0575 32.6127 31.0514 32.6167C31.0454 32.6207 31.0383 32.6229 31.0311 32.6229C31.0238 32.6229 31.0168 32.6207 31.0107 32.6167C31.0047 32.6127 31 32.6069 30.9971 32.6002L30.5712 31.4169C30.5582 31.3811 30.5378 31.3487 30.5111 31.3218C30.4845 31.2949 30.4524 31.2742 30.417 31.2611L29.2455 30.8299C29.2388 30.8271 29.2331 30.8223 29.2291 30.8162C29.2252 30.8101 29.223 30.8029 29.223 30.7956C29.223 30.7883 29.2252 30.7812 29.2291 30.7751C29.2331 30.7689 29.2388 30.7642 29.2455 30.7613L30.417 30.331C30.4524 30.318 30.4845 30.2973 30.5111 30.2704C30.5378 30.2435 30.5582 30.2111 30.5712 30.1753L30.9971 28.992C31 28.9852 31.0047 28.9795 31.0107 28.9755C31.0168 28.9714 31.0238 28.9693 31.0311 28.9693C31.0383 28.9693 31.0454 28.9714 31.0514 28.9755C31.0575 28.9795 31.0622 28.9852 31.0651 28.992L31.491 30.1753C31.5039 30.2111 31.5244 30.2435 31.551 30.2704C31.5777 30.2973 31.6098 30.318 31.6452 30.331L32.8167 30.7613C32.8234 30.7642 32.829 30.7689 32.833 30.7751C32.837 30.7812 32.8391 30.7883 32.8391 30.7956C32.8391 30.8029 32.837 30.8101 32.833 30.8162C32.829 30.8223 32.8234 30.828 32.8167 30.8309Z" fill="#F25858"/>
<path d="M32.8167 30.8309L31.6452 31.2611C31.6098 31.2742 31.5777 31.2949 31.551 31.3218C31.5244 31.3487 31.5039 31.3811 31.491 31.4169L31.0651 32.6002C31.0622 32.6069 31.0575 32.6127 31.0514 32.6167C31.0454 32.6207 31.0383 32.6229 31.0311 32.6229C31.0238 32.6229 31.0168 32.6207 31.0107 32.6167C31.0047 32.6127 31 32.6069 30.9971 32.6002L30.5712 31.4169C30.5582 31.3811 30.5378 31.3487 30.5111 31.3218C30.4845 31.2949 30.4524 31.2742 30.417 31.2611L29.2455 30.8299C29.2388 30.8271 29.2331 30.8223 29.2291 30.8162C29.2252 30.8101 29.223 30.8029 29.223 30.7956C29.223 30.7883 29.2252 30.7812 29.2291 30.7751C29.2331 30.7689 29.2388 30.7642 29.2455 30.7613L30.417 30.331C30.4524 30.318 30.4845 30.2973 30.5111 30.2704C30.5378 30.2435 30.5582 30.2111 30.5712 30.1753L30.9971 28.992C31 28.9852 31.0047 28.9795 31.0107 28.9755C31.0168 28.9714 31.0238 28.9693 31.0311 28.9693C31.0383 28.9693 31.0454 28.9714 31.0514 28.9755C31.0575 28.9795 31.0622 28.9852 31.0651 28.992L31.491 30.1753C31.5039 30.2111 31.5244 30.2435 31.551 30.2704C31.5777 30.2973 31.6098 30.318 31.6452 30.331L32.8167 30.7613C32.8234 30.7642 32.829 30.7689 32.833 30.7751C32.837 30.7812 32.8391 30.7883 32.8391 30.7956C32.8391 30.8029 32.837 30.8101 32.833 30.8162C32.829 30.8223 32.8234 30.828 32.8167 30.8309Z" fill="#F25858"/>
<path d="M6.31118 31.3963L7.23429 27.2423C6.4544 24.9633 3.58054 20.9908 5.84962 14.7803C8.1187 8.56975 15.9586 5.33884 22.4657 7.8569C25.6114 9.07418 28.2938 11.399 29.6573 14.4054C31.1143 17.6179 31.0652 21.6086 28.4659 25.8576C23.4341 34.083 13.5422 32.1656 10.0036 29.5501L6.31118 31.3963Z" fill="#0787FF"/>
<path d="M7.23429 27.2423L8.21048 27.4592L8.2715 27.1846L8.18043 26.9185L7.23429 27.2423ZM6.31118 31.3963L5.33499 31.1794L4.87923 33.2303L6.75839 32.2907L6.31118 31.3963ZM10.0036 29.5501L10.598 28.7459L10.1049 28.3814L9.55642 28.6556L10.0036 29.5501ZM28.4659 25.8576L27.6129 25.3358L27.6129 25.3358L28.4659 25.8576ZM22.4657 7.8569L22.1048 8.78951L22.4657 7.8569ZM40.0722 35.153L39.2699 34.5561L38.9968 34.9232L39.096 35.37L40.0722 35.153ZM40.9953 39.307L40.5481 40.2015L42.4273 41.141L41.9715 39.0901L40.9953 39.307ZM37.3029 37.4608L37.7501 36.5664L37.3088 36.3457L36.8651 36.5617L37.3029 37.4608ZM17.9175 31.9221L18.7424 31.3569L17.0645 32.444L17.9175 31.9221ZM29.6573 14.4054L28.7466 14.8184L29.6573 14.4054ZM6.25811 27.0254L5.33499 31.1794L7.28737 31.6132L8.21048 27.4592L6.25811 27.0254ZM6.75839 32.2907L10.4508 30.4445L9.55642 28.6556L5.86397 30.5019L6.75839 32.2907ZM9.40925 30.3543C11.3848 31.8145 14.9801 33.0024 18.7373 32.7672C22.5505 32.5285 26.6054 30.8153 29.319 26.3795L27.6129 25.3358C25.2946 29.1253 21.8877 30.5661 18.6123 30.7711C15.281 30.9797 12.161 29.9012 10.598 28.7459L9.40925 30.3543ZM22.8266 6.92429C15.8554 4.22664 7.39214 7.6444 4.91035 14.4371L6.7889 15.1234C8.84527 9.4951 16.0618 6.45105 22.1048 8.78951L22.8266 6.92429ZM4.91035 14.4371C2.48363 21.079 5.59837 25.5504 6.28816 27.5661L8.18043 26.9185C7.31044 24.3762 4.67746 20.9025 6.7889 15.1234L4.91035 14.4371ZM39.096 35.37L40.0192 39.524L41.9715 39.0901L41.0484 34.9361L39.096 35.37ZM41.4426 38.4126L37.7501 36.5664L36.8557 38.3552L40.5481 40.2015L41.4426 38.4126ZM36.8651 36.5617C33.6271 38.1382 30.274 38.7415 27.1813 38.0367C24.1115 37.337 21.168 35.3194 18.7705 31.4003L17.0645 32.444C19.6988 36.7502 23.064 39.1495 26.7369 39.9866C30.3869 40.8186 34.2106 40.0785 37.7406 38.3599L36.8651 36.5617ZM41.4313 22.0841C42.72 25.9502 42.4476 30.2851 39.2699 34.5561L40.8745 35.7499C44.4693 30.9183 44.8093 25.8936 43.3287 21.4516L41.4313 22.0841ZM29.7245 15.4031C36.4728 14.9485 40.1965 18.3795 41.4313 22.0841L43.3287 21.4516C41.7942 16.8482 37.2098 12.8943 29.5901 13.4076L29.7245 15.4031ZM29.319 26.3795C32.0764 21.8719 32.1733 17.5318 30.568 13.9923L28.7466 14.8184C30.0553 17.704 30.0541 21.3453 27.6129 25.3358L29.319 26.3795ZM30.568 13.9923C29.0819 10.7156 26.1818 8.22267 22.8266 6.92429L22.1048 8.78951C25.0409 9.9257 27.5057 12.0824 28.7466 14.8184L30.568 13.9923ZM36.8651 36.5617C33.6057 38.1486 30.444 38.7919 27.4617 38.1173C24.4935 37.4458 21.5332 35.43 18.7424 31.3569L17.0926 32.4873C20.0855 36.8555 23.4338 39.2566 27.0204 40.068C30.5929 40.8761 34.232 40.0682 37.7406 38.3599L36.8651 36.5617Z" fill="#0787FF"/>
<path d="M17.1199 12.5386C17.8304 12.5386 18.4558 12.654 18.9962 12.8849C19.5365 13.1158 19.9518 13.437 20.242 13.8485C20.5422 14.2601 20.6923 14.7319 20.6923 15.2639C20.6923 16.0469 20.3871 16.7345 19.7767 17.3267C19.1763 17.919 18.3757 18.3958 17.3751 18.7571L17.6603 20.3231H16.2193L15.814 18.4108C17.285 17.5074 18.0205 16.4534 18.0205 15.2488C18.0205 14.7269 17.8954 14.3404 17.6453 14.0895C17.3951 13.8285 17.0649 13.698 16.6546 13.698C16.3444 13.698 16.0592 13.7682 15.799 13.9088C15.5389 14.0393 15.3337 14.23 15.1836 14.4809C15.4638 14.5713 15.699 14.7269 15.8891 14.9477C16.0892 15.1585 16.1893 15.4145 16.1893 15.7156C16.1893 16.077 16.0542 16.3781 15.784 16.619C15.5238 16.86 15.2136 16.9804 14.8534 16.9804C14.6032 16.9804 14.3581 16.9152 14.1179 16.7847C13.8778 16.6542 13.6826 16.4634 13.5325 16.2125C13.3824 15.9615 13.3074 15.6654 13.3074 15.3241C13.3074 14.8323 13.4625 14.3755 13.7727 13.9539C14.0929 13.5223 14.5382 13.181 15.1086 12.9301C15.689 12.6691 16.3594 12.5386 17.1199 12.5386ZM18.5308 23.0484C18.5308 23.5001 18.3908 23.8615 18.1106 24.1325C17.8404 24.4035 17.4751 24.5391 17.0148 24.5391C16.5645 24.5391 16.1993 24.4035 15.9191 24.1325C15.6489 23.8514 15.5138 23.4901 15.5138 23.0484C15.5138 22.5967 15.6489 22.2353 15.9191 21.9643C16.1893 21.6933 16.5545 21.5578 17.0148 21.5578C17.4751 21.5578 17.8404 21.6933 18.1106 21.9643C18.3908 22.2353 18.5308 22.5967 18.5308 23.0484Z" fill="white"/>
</svg>
