<svg width="48" height="48" viewBox="0 0 48 48" fill="none" xmlns="http://www.w3.org/2000/svg">
<path fill-rule="evenodd" clip-rule="evenodd" d="M38 18.9998H10V35.9998H38V18.9998ZM8 16.9998V35.9998C8 37.1043 8.89543 37.9998 10 37.9998H38C39.1046 37.9998 40 37.1043 40 35.9998V18.9998C40 17.8952 39.1046 16.9998 38 16.9998H8Z" fill="#0787FF"/>
<path d="M17 18L9 18L9 13C9 11.8954 9.89543 11 11 11L17 11L17 18Z" fill="#EC7838"/>
<path fill-rule="evenodd" clip-rule="evenodd" d="M27 17L33 17L33 12L27 12L27 17ZM35 19L35 12C35 10.8954 34.1046 10 33 10L25 10L25 19L35 19Z" fill="#0787FF"/>
<path fill-rule="evenodd" clip-rule="evenodd" d="M18 17L25 17L25 12L18 12L18 17ZM27 19L27 10L16 10L16 19L27 19Z" fill="#0787FF"/>
<path fill-rule="evenodd" clip-rule="evenodd" d="M10 17L16 17L16 12L10 12L10 17ZM18 19L18 10L10 10C8.89543 10 8 10.8954 8 12L8 19L18 19Z" fill="#0787FF"/>
</svg>
