<svg width="48" height="48" viewBox="0 0 48 48" fill="none" xmlns="http://www.w3.org/2000/svg">
<path fill-rule="evenodd" clip-rule="evenodd" d="M36.4 36.4L36.4 22.6L11.6 22.6L11.6 36.4L36.4 36.4ZM36.5 38C37.3284 38 38 37.3284 38 36.5L38 22.5C38 21.6716 37.3284 21 36.5 21L11.5 21C10.6716 21 10 21.6716 10 22.5L10 36.5C10 37.3284 10.6716 38 11.5 38L36.5 38Z" fill="#0787FF"/>
<path d="M11 27C11 26.4477 11.4477 26 12 26H37C37.5523 26 38 26.4477 38 27V27C38 27.5523 37.5523 28 37 28H12C11.4477 28 11 27.5523 11 27V27Z" fill="#0787FF"/>
<path d="M11 32C11 31.4477 11.4477 31 12 31H37C37.5523 31 38 31.4477 38 32V32C38 32.5523 37.5523 33 37 33H12C11.4477 33 11 32.5523 11 32V32Z" fill="#0787FF"/>
<path fill-rule="evenodd" clip-rule="evenodd" d="M11.6 12.6L36.4 12.6L36.4 17.4L11.6 17.4L11.6 12.6ZM36.4 11C37.2837 11 38 11.7163 38 12.6L38 17.4C38 18.2837 37.2837 19 36.4 19L11.6 19C10.7163 19 10 18.2837 10 17.4L10 12.6C10 11.7163 10.7163 11 11.6 11L36.4 11Z" fill="#0787FF"/>
<path fill-rule="evenodd" clip-rule="evenodd" d="M36.4 11C37.2837 11 38 11.7163 38 12.6L38 17.4C38 18.2837 37.2837 19 36.4 19H30V11H36.4ZM35.1671 15.743C35.3767 15.4488 35.4999 15.0886 35.4999 14.7C35.4999 13.706 34.6941 12.9 33.6999 12.9C32.7059 12.9 31.8999 13.706 31.8999 14.7C31.8999 15.6942 32.7059 16.5 33.6999 16.5C34.0885 16.5 34.4486 16.3769 34.7429 16.1672L35.5877 17.0121C35.7049 17.1293 35.8948 17.1294 36.012 17.0121C36.1293 16.895 36.1291 16.705 36.012 16.5879L35.1671 15.743ZM34.6319 15.6064L34.6319 15.6064L34.6319 15.6064L34.6319 15.6064ZM34.5635 15.5333C34.7719 15.3173 34.8999 15.0236 34.8999 14.7C34.8999 14.0372 34.3626 13.5 33.6999 13.5C33.0371 13.5 32.4999 14.0372 32.4999 14.7C32.4999 15.3628 33.0371 15.9 33.6999 15.9C34.0236 15.9 34.3173 15.772 34.5333 15.5635C34.538 15.558 34.5425 15.5533 34.5455 15.5502L34.5477 15.5479C34.5527 15.5429 34.558 15.538 34.5635 15.5333Z" fill="#0787FF"/>
<path fill-rule="evenodd" clip-rule="evenodd" d="M34.5333 15.5635C34.4901 15.6052 34.4438 15.6437 34.3947 15.6786C34.3132 15.7365 34.2242 15.7846 34.1293 15.8209C33.996 15.872 33.8512 15.9 33.6999 15.9C33.0371 15.9 32.4999 15.3628 32.4999 14.7C32.4999 14.0372 33.0371 13.5 33.6999 13.5C34.3626 13.5 34.8999 14.0372 34.8999 14.7C34.8999 14.8513 34.8719 14.9961 34.8208 15.1294C34.7845 15.2243 34.7364 15.3133 34.6784 15.3948C34.6442 15.4429 34.6066 15.4884 34.5658 15.5309L34.5635 15.5333C34.558 15.538 34.5527 15.5429 34.5477 15.5479L34.5455 15.5502C34.5425 15.5533 34.538 15.558 34.5333 15.5635ZM33.9995 14.9652C34.0626 14.8941 34.0999 14.8022 34.0999 14.7C34.0999 14.4791 33.9208 14.3 33.6999 14.3C33.4789 14.3 33.2999 14.4791 33.2999 14.7C33.2999 14.9209 33.4789 15.1 33.6999 15.1C33.8024 15.1 33.8945 15.0625 33.9657 14.999L33.9665 14.9981L33.9755 14.9888L33.9821 14.9822C33.9879 14.9764 33.9937 14.9707 33.9995 14.9652ZM34.2609 16.4109C34.0843 16.4687 33.8957 16.5 33.6999 16.5C32.7059 16.5 31.8999 15.6942 31.8999 14.7C31.8999 13.706 32.7059 12.9 33.6999 12.9C34.6941 12.9 35.4999 13.706 35.4999 14.7C35.4999 14.8911 35.4701 15.0753 35.4149 15.2482C35.3791 15.3604 35.3325 15.4679 35.2764 15.5694C35.2432 15.6294 35.2067 15.6874 35.1671 15.743L36.012 16.5879C36.1291 16.705 36.1293 16.895 36.012 17.0121C35.8948 17.1294 35.7049 17.1293 35.5877 17.0121L34.7429 16.1672C34.6873 16.2068 34.6293 16.2434 34.5693 16.2765C34.4717 16.3305 34.3685 16.3756 34.2609 16.4109ZM36.1439 15.5884C36.2448 15.3108 36.2999 15.0114 36.2999 14.7C36.2999 13.2642 35.136 12.1 33.6999 12.1C32.264 12.1 31.0999 13.2642 31.0999 14.7C31.0999 16.1361 32.2641 17.3 33.6999 17.3C34.0113 17.3 34.3107 17.245 34.5883 17.144L36.4 17.4M36.5776 16.0222L36.1439 15.5884ZM37.2 12.6C37.2 12.1582 36.8418 11.8 36.4 11.8H30.8V18.2H36.4C36.8418 18.2 37.2 17.8418 37.2 17.4L37.2 12.6ZM30 19V11H36.4C37.2837 11 38 11.7163 38 12.6L38 17.4C38 18.2837 37.2837 19 36.4 19H30Z" fill="#0787FF"/>
</svg>
