<svg width="48" height="48" viewBox="0 0 48 48" fill="none" xmlns="http://www.w3.org/2000/svg">
<path d="M8 9.6C8 8.71634 8.71634 8 9.6 8H17.4769C18.3606 8 19.0769 8.71634 19.0769 9.6V15.0154C19.0769 15.899 18.3606 16.6154 17.4769 16.6154H9.6C8.71634 16.6154 8 15.899 8 15.0154V9.6Z" fill="#7FC1FF"/>
<path d="M20.3076 9.6C20.3076 8.71634 21.024 8 21.9076 8H27.323C28.2067 8 28.923 8.71634 28.923 9.6V27.3231C28.923 28.2067 28.2067 28.9231 27.323 28.9231H21.9076C21.024 28.9231 20.3076 28.2067 20.3076 27.3231V9.6Z" fill="#7FC1FF"/>
<path d="M30.1538 9.6C30.1538 8.71634 30.8702 8 31.7538 8H38.4C39.2836 8 40 8.71634 40 9.6V27.3231C40 28.2067 39.2836 28.9231 38.4 28.9231H31.7538C30.8702 28.9231 30.1538 28.2067 30.1538 27.3231V9.6Z" fill="#1D91FF"/>
<path d="M8 19.4461C8 18.5625 8.71634 17.8461 9.6 17.8461H17.4769C18.3606 17.8461 19.0769 18.5625 19.0769 19.4461V38.4C19.0769 39.2836 18.3606 40 17.4769 40H9.6C8.71634 40 8 39.2836 8 38.4V19.4461Z" fill="#1D91FF"/>
<path d="M20.3076 31.7538C20.3076 30.8701 21.024 30.1538 21.9076 30.1538H38.3999C39.2836 30.1538 39.9999 30.8701 39.9999 31.7538V38.3999C39.9999 39.2836 39.2836 39.9999 38.3999 39.9999H21.9076C21.024 39.9999 20.3076 39.2836 20.3076 38.3999V31.7538Z" fill="#7FC1FF"/>
</svg>
