<svg width="48" height="48" viewBox="0 0 48 48" fill="none" xmlns="http://www.w3.org/2000/svg">
<path transform="translate(3.6, 3.6) scale(0.85)" fill-rule="evenodd" clip-rule="evenodd" d="M24 44C38 28 38 22 38 18C38 10.268 31.732 4 24 4C16.268 4 10 10.268 10 18C10 22 10 28 24 44ZM24 26C27.3137 26 30 23.3137 30 20C30 16.6863 27.3137 14 24 14C20.6863 14 18 16.6863 18 20C18 23.3137 20.6863 26 24 26Z" fill="url(#paint0_linear_azure_map_icon)"/>
<defs>
<linearGradient id="paint0_linear_azure_map_icon"  x1="13" y1="20.911" x2="39.6934" y2="20.911" gradientUnits="userSpaceOnUse">
<stop offset="0.411458" stop-color="#1D91FF"/>
<stop offset="0.411458" stop-color="#387BDD"/>
</linearGradient>
</defs>
</svg>