<svg width="48" height="48" viewBox="0 0 48 48" fill="none" xmlns="http://www.w3.org/2000/svg">
<path d="M24.1431 10C24.1431 8.89543 23.2442 7.98712 22.1482 8.12484C20.0148 8.39292 17.9501 9.08927 16.081 10.1796C13.634 11.6071 11.6098 13.6586 10.2154 16.1246C8.82104 18.5906 8.10639 21.3827 8.14452 24.2153C8.18264 27.048 8.97218 29.8198 10.4324 32.2474C11.8927 34.6749 13.9713 36.6713 16.4559 38.0324C18.9404 39.3934 21.7418 40.0704 24.5737 39.9942C27.4056 39.918 30.1665 39.0912 32.5742 37.5984C34.4133 36.4581 35.996 34.9605 37.2325 33.2014C37.8678 32.2978 37.4866 31.078 36.5108 30.5604L34.4429 29.4635C33.4671 28.9459 32.2705 29.3354 31.5633 30.1839C30.9029 30.9763 30.117 31.6612 29.2329 32.2094C27.7794 33.1106 26.1127 33.6097 24.403 33.6557C22.6934 33.7017 21.0022 33.293 19.5023 32.4713C18.0024 31.6497 16.7475 30.4445 15.866 28.9789C14.9844 27.5134 14.5077 25.8401 14.4847 24.13C14.4617 22.4199 14.8931 20.7344 15.7349 19.2456C16.5767 17.7569 17.7987 16.5184 19.276 15.6566C20.1745 15.1325 21.1478 14.7592 22.1573 14.5471C23.2383 14.32 24.1431 13.4454 24.1431 12.3408L24.1431 10Z" fill="#F25858"/>
<path d="M37.25 28.9202C38.2841 29.3084 39.4504 28.7861 39.7066 27.7117C40.1106 26.0175 40.2364 24.2642 40.0746 22.521C39.8509 20.1121 39.084 17.7853 37.8313 15.7156C36.5787 13.6458 34.873 11.8871 32.8426 10.5717C31.3733 9.61985 29.7617 8.91806 28.0733 8.49022C27.0026 8.21889 25.9989 9.00987 25.8632 10.1061L25.5756 12.4291C25.4399 13.5253 26.2303 14.5045 27.2752 14.8627C28.0189 15.1176 28.731 15.4632 29.395 15.8933C30.6207 16.6874 31.6504 17.7492 32.4067 18.9987C33.1629 20.2482 33.6259 21.6529 33.7609 23.1071C33.8341 23.8949 33.8099 24.686 33.6908 25.4631C33.5235 26.5549 34.0244 27.7094 35.0585 28.0976L37.25 28.9202Z" fill="#0787FF"/>
</svg>
