<svg width="48" height="48" viewBox="0 0 48 48" fill="none" xmlns="http://www.w3.org/2000/svg">
<path d="M8 9.6C8 8.71635 8.71634 8 9.6 8H13.5111C14.3948 8 15.1111 8.71634 15.1111 9.6V13.4052C15.1111 14.2888 14.3948 15.0052 13.5111 15.0052H9.6C8.71635 15.0052 8 14.2888 8 13.4052V9.6Z" fill="#7FC1FF"/>
<path d="M16.2964 9.6C16.2964 8.71635 17.0127 8 17.8964 8H21.8075C22.6912 8 23.4075 8.71634 23.4075 9.6V13.4052C23.4075 14.2888 22.6912 15.0052 21.8075 15.0052H17.8964C17.0127 15.0052 16.2964 14.2888 16.2964 13.4052V9.6Z" fill="#1D91FF"/>
<path d="M24.5923 9.6C24.5923 8.71635 25.3086 8 26.1923 8H30.1034C30.9871 8 31.7034 8.71634 31.7034 9.6V13.4052C31.7034 14.2888 30.9871 15.0052 30.1034 15.0052H26.1923C25.3086 15.0052 24.5923 14.2888 24.5923 13.4052V9.6Z" fill="#1D91FF"/>
<path d="M32.8887 9.6C32.8887 8.71635 33.605 8 34.4887 8H38.3998C39.2834 8 39.9998 8.71634 39.9998 9.6V13.4052C39.9998 14.2888 39.2834 15.0052 38.3998 15.0052H34.4887C33.605 15.0052 32.8887 14.2888 32.8887 13.4052V9.6Z" fill="#7FC1FF"/>
<path d="M8 18.2491C8 17.3655 8.71634 16.6491 9.6 16.6491H13.5111C14.3948 16.6491 15.1111 17.3655 15.1111 18.2491V22.0543C15.1111 22.938 14.3948 23.6543 13.5111 23.6543H9.6C8.71635 23.6543 8 22.938 8 22.0543V18.2491Z" fill="#1D91FF"/>
<path d="M16.2964 18.2494C16.2964 17.3657 17.0127 16.6494 17.8964 16.6494H21.8075C22.6912 16.6494 23.4075 17.3657 23.4075 18.2494V22.0546C23.4075 22.9382 22.6912 23.6546 21.8075 23.6546H17.8964C17.0127 23.6546 16.2964 22.9382 16.2964 22.0546V18.2494Z" fill="#7FC1FF"/>
<path d="M24.5923 18.2494C24.5923 17.3657 25.3086 16.6494 26.1923 16.6494H30.1034C30.9871 16.6494 31.7034 17.3657 31.7034 18.2494V22.0546C31.7034 22.9382 30.9871 23.6546 30.1034 23.6546H26.1923C25.3086 23.6546 24.5923 22.9382 24.5923 22.0546V18.2494Z" fill="#7FC1FF"/>
<path d="M32.8887 18.2494C32.8887 17.3657 33.605 16.6494 34.4887 16.6494H38.3998C39.2834 16.6494 39.9998 17.3657 39.9998 18.2494V22.0546C39.9998 22.9382 39.2834 23.6546 38.3998 23.6546H34.4887C33.605 23.6546 32.8887 22.9382 32.8887 22.0546V18.2494Z" fill="#1D91FF"/>
<path d="M8 26.422C8 25.5383 8.71634 24.822 9.6 24.822H13.5111C14.3948 24.822 15.1111 25.5383 15.1111 26.422V30.2272C15.1111 31.1108 14.3948 31.8272 13.5111 31.8272H9.6C8.71635 31.8272 8 31.1108 8 30.2272V26.422Z" fill="#7FC1FF"/>
<path d="M16.2964 26.422C16.2964 25.5383 17.0127 24.822 17.8964 24.822H21.8075C22.6912 24.822 23.4075 25.5383 23.4075 26.422V30.2272C23.4075 31.1108 22.6912 31.8272 21.8075 31.8272H17.8964C17.0127 31.8272 16.2964 31.1108 16.2964 30.2272V26.422Z" fill="#1D91FF"/>
<path d="M24.5923 26.422C24.5923 25.5383 25.3086 24.822 26.1923 24.822H30.1034C30.9871 24.822 31.7034 25.5383 31.7034 26.422V30.2272C31.7034 31.1108 30.9871 31.8272 30.1034 31.8272H26.1923C25.3086 31.8272 24.5923 31.1108 24.5923 30.2272V26.422Z" fill="#7FC1FF"/>
<path d="M32.8887 26.422C32.8887 25.5383 33.605 24.822 34.4887 24.822H38.3998C39.2834 24.822 39.9998 25.5383 39.9998 26.422V30.2272C39.9998 31.1108 39.2834 31.8272 38.3998 31.8272H34.4887C33.605 31.8272 32.8887 31.1108 32.8887 30.2272V26.422Z" fill="#7FC1FF"/>
<path d="M8 34.5948C8 33.7111 8.71634 32.9948 9.6 32.9948H13.5111C14.3948 32.9948 15.1111 33.7111 15.1111 34.5948V38.4C15.1111 39.2836 14.3948 40 13.5111 40H9.6C8.71635 40 8 39.2836 8 38.4V34.5948Z" fill="#1D91FF"/>
<path d="M16.2964 34.5948C16.2964 33.7111 17.0127 32.9948 17.8964 32.9948H21.8075C22.6912 32.9948 23.4075 33.7111 23.4075 34.5948V38.4C23.4075 39.2836 22.6912 40 21.8075 40H17.8964C17.0127 40 16.2964 39.2836 16.2964 38.4V34.5948Z" fill="#7FC1FF"/>
<path d="M24.5923 34.5948C24.5923 33.7111 25.3086 32.9948 26.1923 32.9948H30.1034C30.9871 32.9948 31.7034 33.7111 31.7034 34.5948V38.4C31.7034 39.2836 30.9871 40 30.1034 40H26.1923C25.3086 40 24.5923 39.2836 24.5923 38.4V34.5948Z" fill="#1D91FF"/>
<path d="M32.8887 34.5948C32.8887 33.7111 33.605 32.9948 34.4887 32.9948H38.3998C39.2834 32.9948 39.9998 33.7111 39.9998 34.5948V38.4C39.9998 39.2836 39.2834 40 38.3998 40H34.4887C33.605 40 32.8887 39.2836 32.8887 38.4V34.5948Z" fill="#1D91FF"/>
</svg>
