<svg width="48" height="48" viewBox="0 0 48 48" fill="none" xmlns="http://www.w3.org/2000/svg">
<path d="M8 8.00006L39.2 8.00006C39.6418 8.00006 40 8.38578 40 8.86159V13.2923C40 13.7682 39.6418 14.1539 39.2 14.1539L8 14.1539L8 8.00006Z" fill="#FF8B8B"/>
<path d="M8 16.6154L39.2 16.6154C39.6418 16.6154 40 17.0011 40 17.4769V21.9077C40 22.3835 39.6418 22.7692 39.2 22.7692L8 22.7692L8 16.6154Z" fill="#C2E0FF"/>
<path d="M8 25.2307L39.0261 25.2307C39.564 25.2307 40 25.6165 40 26.0923V30.523C40 30.9988 39.564 31.3846 39.0261 31.3846L8 31.3846L8 25.2307Z" fill="#88D2CE"/>
<path d="M8 31.3846H18.5428C19.0339 31.3846 19.432 30.9989 19.432 30.5231V26.0923C19.432 25.6165 19.0339 25.2308 18.5428 25.2308H8V31.3846Z" fill="#00A89E"/>
<path d="M8 22.7693H18.5428C19.0339 22.7693 19.432 22.3836 19.432 21.9078V17.477C19.432 17.0012 19.0339 16.6155 18.5428 16.6155H8V22.7693Z" fill="#1D91FF"/>
<path d="M8 14.154L22.7556 14.154C23.4428 14.154 24 13.7684 24 13.2928V8.8638C24 8.38818 23.4428 8.00261 22.7556 8.00261L8 8.00261V14.154Z" fill="#F25858"/>
<path d="M8 33.8461L39.2 33.8461C39.6418 33.8461 40 34.2318 40 34.7076V39.1383C40 39.6142 39.6418 39.9999 39.2 39.9999L8 39.9999L8 33.8461Z" fill="#FFD29E"/>
<path d="M8 40H13.2677C13.5131 40 13.712 39.6142 13.712 39.1384V34.7077C13.712 34.2319 13.5131 33.8462 13.2677 33.8462H8V40Z" fill="#FF8900"/>
</svg>
