<svg width="50" height="42" viewBox="0 0 50 42" fill="none" xmlns="http://www.w3.org/2000/svg">
<path d="M35.686 30.4638L34.135 29.894C34.1284 29.8916 34.1224 29.8878 34.1175 29.8828C34.1126 29.8778 34.1088 29.8717 34.1064 29.8651L33.5422 28.2984C33.5183 28.232 33.4747 28.1746 33.4174 28.134C33.3601 28.0935 33.2918 28.0717 33.2218 28.0717C33.1518 28.0717 33.0835 28.0935 33.0261 28.134C32.9688 28.1746 32.9252 28.232 32.9013 28.2984L32.3371 29.8651C32.3348 29.8717 32.331 29.8778 32.326 29.8828C32.3211 29.8878 32.3151 29.8916 32.3085 29.894L30.7576 30.4638C30.6918 30.488 30.635 30.532 30.5948 30.5899C30.5546 30.6479 30.5331 30.7168 30.5331 30.7875C30.5331 30.8582 30.5546 30.9272 30.5948 30.9851C30.635 31.0431 30.6918 31.0871 30.7576 31.1112L32.3085 31.6811C32.3151 31.6835 32.3211 31.6873 32.326 31.6923C32.331 31.6973 32.3348 31.7034 32.3371 31.71L32.9013 33.2766C32.9252 33.3431 32.9688 33.4005 33.0261 33.4411C33.0835 33.4816 33.1518 33.5034 33.2218 33.5034C33.2918 33.5034 33.3601 33.4816 33.4174 33.4411C33.4747 33.4005 33.5183 33.3431 33.5422 33.2766L34.1064 31.71C34.1088 31.7034 34.1126 31.6973 34.1175 31.6923C34.1224 31.6873 34.1284 31.6835 34.135 31.6811L35.686 31.1112C35.7518 31.0871 35.8086 31.0431 35.8487 30.9851C35.8889 30.9272 35.9104 30.8582 35.9104 30.7875C35.9104 30.7168 35.8889 30.6479 35.8487 30.5899C35.8086 30.532 35.7518 30.488 35.686 30.4638ZM35.5858 30.8342L34.0348 31.4038C33.9879 31.4211 33.9454 31.4485 33.9102 31.4841C33.8749 31.5197 33.8478 31.5627 33.8307 31.61L33.2667 33.1767C33.263 33.1856 33.2567 33.1932 33.2487 33.1985C33.2407 33.2038 33.2314 33.2067 33.2218 33.2067C33.2122 33.2067 33.2028 33.2038 33.1948 33.1985C33.1868 33.1932 33.1805 33.1856 33.1768 33.1767L32.6129 31.61C32.5958 31.5627 32.5686 31.5197 32.5334 31.4841C32.4981 31.4485 32.4556 31.4211 32.4088 31.4038L30.8578 30.833C30.849 30.8292 30.8414 30.8229 30.8362 30.8148C30.8309 30.8067 30.8281 30.7972 30.8281 30.7875C30.8281 30.7779 30.8309 30.7684 30.8362 30.7603C30.8414 30.7522 30.849 30.7459 30.8578 30.7421L32.4088 30.1725C32.4556 30.1552 32.4981 30.1278 32.5334 30.0922C32.5686 30.0566 32.5958 30.0136 32.6129 29.9663L33.1768 28.3997C33.1805 28.3908 33.1868 28.3832 33.1948 28.3778C33.2028 28.3725 33.2122 28.3696 33.2218 28.3696C33.2314 28.3696 33.2407 28.3725 33.2487 28.3778C33.2567 28.3832 33.263 28.3908 33.2667 28.3997L33.8307 29.9663C33.8478 30.0136 33.8749 30.0566 33.9102 30.0922C33.9454 30.1278 33.9879 30.1552 34.0348 30.1725L35.5858 30.7421C35.5946 30.7459 35.6021 30.7522 35.6074 30.7603C35.6127 30.7684 35.6155 30.7779 35.6155 30.7875C35.6155 30.7972 35.6127 30.8067 35.6074 30.8148C35.6021 30.8229 35.5946 30.8292 35.5858 30.833V30.8342Z" fill="#F25858"/>
<path d="M35.5858 30.8342L34.0348 31.4038C33.9879 31.4211 33.9454 31.4485 33.9102 31.4841C33.8749 31.5197 33.8478 31.5627 33.8307 31.61L33.2667 33.1767C33.263 33.1856 33.2567 33.1932 33.2487 33.1985C33.2407 33.2038 33.2314 33.2067 33.2218 33.2067C33.2122 33.2067 33.2028 33.2038 33.1948 33.1985C33.1868 33.1932 33.1805 33.1856 33.1768 33.1767L32.6129 31.61C32.5958 31.5627 32.5686 31.5197 32.5334 31.4841C32.4981 31.4485 32.4556 31.4211 32.4088 31.4038L30.8578 30.833C30.849 30.8292 30.8414 30.8229 30.8362 30.8148C30.8309 30.8067 30.8281 30.7972 30.8281 30.7875C30.8281 30.7779 30.8309 30.7684 30.8362 30.7603C30.8414 30.7522 30.849 30.7459 30.8578 30.7421L32.4088 30.1725C32.4556 30.1552 32.4981 30.1278 32.5334 30.0922C32.5686 30.0566 32.5958 30.0136 32.6129 29.9663L33.1768 28.3997C33.1805 28.3908 33.1868 28.3832 33.1948 28.3778C33.2028 28.3725 33.2122 28.3696 33.2218 28.3696C33.2314 28.3696 33.2407 28.3725 33.2487 28.3778C33.2567 28.3832 33.263 28.3908 33.2667 28.3997L33.8307 29.9663C33.8478 30.0136 33.8749 30.0566 33.9102 30.0922C33.9454 30.1278 33.9879 30.1552 34.0348 30.1725L35.5858 30.7421C35.5946 30.7459 35.6021 30.7522 35.6074 30.7603C35.6127 30.7684 35.6155 30.7779 35.6155 30.7875C35.6155 30.7972 35.6127 30.8067 35.6074 30.8148C35.6021 30.8229 35.5946 30.8292 35.5858 30.833V30.8342Z" fill="#F25858"/>
<path d="M31.173 33.3184L30.2867 32.9928C30.283 32.9914 30.2796 32.9892 30.2767 32.9864C30.2739 32.9835 30.2717 32.9801 30.2704 32.9763L29.948 32.081C29.9343 32.0431 29.9094 32.0103 29.8767 31.9871C29.8439 31.9639 29.8049 31.9515 29.7649 31.9515C29.7249 31.9515 29.6859 31.9639 29.6531 31.9871C29.6203 32.0103 29.5954 32.0431 29.5818 32.081L29.2594 32.9763C29.258 32.9801 29.2559 32.9835 29.253 32.9864C29.2502 32.9892 29.2468 32.9914 29.243 32.9928L28.3568 33.3184C28.3192 33.3322 28.2867 33.3574 28.2638 33.3905C28.2408 33.4235 28.2285 33.463 28.2285 33.5034C28.2285 33.5438 28.2408 33.5832 28.2638 33.6163C28.2867 33.6494 28.3192 33.6745 28.3568 33.6883L29.243 34.014C29.2468 34.0153 29.2502 34.0175 29.253 34.0204C29.2559 34.0232 29.258 34.0267 29.2594 34.0305L29.5818 34.9257C29.5954 34.9637 29.6203 34.9965 29.6531 35.0197C29.6859 35.0428 29.7249 35.0553 29.7649 35.0553C29.8049 35.0553 29.8439 35.0428 29.8767 35.0197C29.9094 34.9965 29.9343 34.9637 29.948 34.9257L30.2704 34.0305C30.2717 34.0267 30.2739 34.0232 30.2767 34.0204C30.2796 34.0175 30.283 34.0153 30.2867 34.014L31.173 33.6883C31.2106 33.6745 31.2431 33.6494 31.266 33.6163C31.289 33.5832 31.3013 33.5438 31.3013 33.5034C31.3013 33.463 31.289 33.4235 31.266 33.3905C31.2431 33.3574 31.2106 33.3322 31.173 33.3184ZM31.1157 33.53L30.2295 33.8555C30.2027 33.8654 30.1784 33.8811 30.1583 33.9014C30.1381 33.9218 30.1226 33.9463 30.1128 33.9733L29.7906 34.8686C29.7884 34.8737 29.7849 34.878 29.7803 34.8811C29.7757 34.8841 29.7704 34.8857 29.7649 34.8857C29.7594 34.8857 29.7541 34.8841 29.7495 34.8811C29.7449 34.878 29.7413 34.8737 29.7392 34.8686L29.4169 33.9733C29.4072 33.9463 29.3917 33.9218 29.3715 33.9014C29.3514 33.8811 29.3271 33.8654 29.3003 33.8555L28.414 33.5293C28.409 33.5272 28.4047 33.5235 28.4017 33.5189C28.3987 33.5143 28.3971 33.5089 28.3971 33.5034C28.3971 33.4978 28.3987 33.4924 28.4017 33.4878C28.4047 33.4832 28.409 33.4796 28.414 33.4774L29.3003 33.1519C29.3271 33.142 29.3514 33.1264 29.3715 33.106C29.3917 33.0857 29.4072 33.0611 29.4169 33.0341L29.7392 32.1389C29.7413 32.1338 29.7449 32.1294 29.7495 32.1264C29.7541 32.1233 29.7594 32.1217 29.7649 32.1217C29.7704 32.1217 29.7757 32.1233 29.7803 32.1264C29.7849 32.1294 29.7884 32.1338 29.7906 32.1389L30.1128 33.0341C30.1226 33.0611 30.1381 33.0857 30.1583 33.106C30.1784 33.1264 30.2027 33.142 30.2295 33.1519L31.1157 33.4774C31.1208 33.4796 31.1251 33.4832 31.1281 33.4878C31.1311 33.4924 31.1327 33.4978 31.1327 33.5034C31.1327 33.5089 31.1311 33.5143 31.1281 33.5189C31.1251 33.5235 31.1208 33.5279 31.1157 33.53Z" fill="#F25858"/>
<path d="M31.1157 33.53L30.2295 33.8555C30.2027 33.8654 30.1784 33.8811 30.1583 33.9014C30.1381 33.9218 30.1226 33.9463 30.1128 33.9733L29.7906 34.8686C29.7884 34.8737 29.7849 34.878 29.7803 34.8811C29.7757 34.8841 29.7704 34.8857 29.7649 34.8857C29.7594 34.8857 29.7541 34.8841 29.7495 34.8811C29.7449 34.878 29.7413 34.8737 29.7392 34.8686L29.4169 33.9733C29.4072 33.9463 29.3917 33.9218 29.3715 33.9014C29.3514 33.8811 29.3271 33.8654 29.3003 33.8555L28.414 33.5293C28.409 33.5272 28.4047 33.5235 28.4017 33.5189C28.3987 33.5143 28.3971 33.5089 28.3971 33.5034C28.3971 33.4978 28.3987 33.4924 28.4017 33.4878C28.4047 33.4832 28.409 33.4796 28.414 33.4774L29.3003 33.1519C29.3271 33.142 29.3514 33.1264 29.3715 33.106C29.3917 33.0857 29.4072 33.0611 29.4169 33.0341L29.7392 32.1389C29.7413 32.1338 29.7449 32.1294 29.7495 32.1264C29.7541 32.1233 29.7594 32.1217 29.7649 32.1217C29.7704 32.1217 29.7757 32.1233 29.7803 32.1264C29.7849 32.1294 29.7884 32.1338 29.7906 32.1389L30.1128 33.0341C30.1226 33.0611 30.1381 33.0857 30.1583 33.106C30.1784 33.1264 30.2027 33.142 30.2295 33.1519L31.1157 33.4774C31.1208 33.4796 31.1251 33.4832 31.1281 33.4878C31.1311 33.4924 31.1327 33.4978 31.1327 33.5034C31.1327 33.5089 31.1311 33.5143 31.1281 33.5189C31.1251 33.5235 31.1208 33.5279 31.1157 33.53Z" fill="#F25858"/>
<path d="M11.0586 33.9578L11.7569 30.8152C11.1669 29.0911 8.99278 26.0858 10.7094 21.3874C12.426 16.689 18.357 14.2448 23.2798 16.1497C25.6596 17.0706 27.6889 18.8294 28.7204 21.1038C29.8227 23.5341 29.7856 26.5532 27.8191 29.7677C24.0124 35.9903 16.529 34.5398 13.852 32.5611L11.0586 33.9578Z" fill="#0787FF"/>
<path d="M11.7569 30.8152L12.5595 30.9936L12.6097 30.7678L12.5348 30.549L11.7569 30.8152ZM11.0586 33.9578L10.256 33.7795L9.88128 35.4657L11.4262 34.6932L11.0586 33.9578ZM13.852 32.5611L14.3407 31.8999L13.9352 31.6003L13.4843 31.8257L13.852 32.5611ZM27.8191 29.7677L27.1178 29.3386L27.1178 29.3386L27.8191 29.7677ZM23.2798 16.1497L22.9831 16.9165L22.9831 16.9165L23.2798 16.1497ZM36.5995 36.7998L35.9399 36.3091L35.7153 36.6109L35.7969 36.9782L36.5995 36.7998ZM37.2979 39.9424L36.9302 40.6778L38.4752 41.4503L38.1005 39.7641L37.2979 39.9424ZM34.5045 38.5457L34.8721 37.8104L34.5093 37.629L34.1446 37.8065L34.5045 38.5457ZM19.839 34.3556L20.5172 33.8909L19.1377 34.7846L19.839 34.3556ZM28.7204 21.1038L27.9717 21.4434L28.7204 21.1038ZM10.9543 30.6369L10.256 33.7795L11.8611 34.1362L12.5595 30.9936L10.9543 30.6369ZM11.4262 34.6932L14.2197 33.2965L13.4843 31.8257L10.6909 33.2224L11.4262 34.6932ZM13.3633 33.2223C14.8714 34.337 17.6069 35.2393 20.4633 35.0604C23.3657 34.8787 26.4546 33.5737 28.5204 30.1967L27.1178 29.3386C25.3769 32.1843 22.8208 33.2653 20.3606 33.4193C17.8543 33.5762 15.5096 32.7639 14.3407 31.8999L13.3633 33.2223ZM23.5765 15.383C18.2722 13.3304 11.8286 15.9282 9.93716 21.1053L11.4816 21.6696C13.0233 17.4498 18.4419 15.1592 22.9831 16.9165L23.5765 15.383ZM9.93716 21.1053C8.09094 26.1584 10.4631 29.5738 10.9791 31.0814L12.5348 30.549C11.8707 28.6084 9.89461 26.0132 11.4816 21.6696L9.93716 21.1053ZM35.7969 36.9782L36.4953 40.1208L38.1005 39.7641L37.4021 36.6215L35.7969 36.9782ZM37.6656 39.2071L34.8721 37.8104L34.1368 39.2811L36.9302 40.6778L37.6656 39.2071ZM34.1446 37.8065C31.7045 38.9945 29.1833 39.4465 26.8619 38.9174C24.5592 38.3926 22.3463 36.8787 20.5403 33.9266L19.1377 34.7846C21.1384 38.0551 23.6981 39.8828 26.4965 40.5206C29.2761 41.1541 32.1843 40.5898 34.8644 39.2849L34.1446 37.8065ZM37.5654 26.9337C38.5341 29.8395 38.3302 33.0964 35.9399 36.3091L37.2591 37.2906C39.9923 33.617 40.2518 29.793 39.1254 26.4137L37.5654 26.9337ZM28.7757 21.9241C33.8523 21.5821 36.6411 24.1605 37.5654 26.9337L39.1254 26.4137C37.9547 22.9016 34.4582 19.8932 28.6652 20.2835L28.7757 21.9241ZM28.5204 30.1967C30.6169 26.7697 30.6933 23.4634 29.4692 20.7642L27.9717 21.4434C28.952 23.6049 28.9542 26.3367 27.1178 29.3386L28.5204 30.1967ZM29.4692 20.7642C28.3369 18.2676 26.1286 16.3706 23.5765 15.383L22.9831 16.9165C25.1906 17.7707 27.041 19.3913 27.9717 21.4434L29.4692 20.7642ZM34.1446 37.8065C31.6869 39.0031 29.3106 39.4843 27.0739 38.9783C24.8487 38.4749 22.6219 36.9626 20.5172 33.8909L19.1608 34.8203C21.4316 38.1346 23.9775 39.9637 26.7111 40.5821C29.4331 41.1979 32.2018 40.5812 34.8644 39.2849L34.1446 37.8065Z" fill="#0787FF"/>
<path d="M19.9463 20.75C20.4838 20.75 20.9569 20.8373 21.3657 21.012C21.7745 21.1867 22.0887 21.4297 22.3082 21.741C22.5353 22.0524 22.6489 22.4093 22.6489 22.8118C22.6489 23.4041 22.418 23.9243 21.9562 24.3723C21.502 24.8204 20.8963 25.1811 20.1393 25.4545L20.3551 26.6391H19.265L18.9584 25.1925C20.0712 24.509 20.6276 23.7117 20.6276 22.8004C20.6276 22.4055 20.533 22.1131 20.3437 21.9233C20.1545 21.7258 19.9046 21.6271 19.5943 21.6271C19.3596 21.6271 19.1438 21.6803 18.947 21.7866C18.7502 21.8853 18.595 22.0296 18.4814 22.2194C18.6934 22.2878 18.8713 22.4055 19.0151 22.5726C19.1665 22.732 19.2422 22.9257 19.2422 23.1535C19.2422 23.4269 19.14 23.6547 18.9356 23.837C18.7388 24.0192 18.5041 24.1103 18.2316 24.1103C18.0424 24.1103 17.8569 24.061 17.6752 23.9623C17.4935 23.8635 17.3459 23.7193 17.2323 23.5294C17.1188 23.3396 17.062 23.1155 17.062 22.8573C17.062 22.4852 17.1794 22.1397 17.414 21.8208C17.6563 21.4942 17.9932 21.236 18.4247 21.0462C18.8637 20.8487 19.3709 20.75 19.9463 20.75ZM21.0137 28.7009C21.0137 29.0426 20.9077 29.316 20.6957 29.5211C20.4913 29.7261 20.215 29.8286 19.8668 29.8286C19.5261 29.8286 19.2498 29.7261 19.0378 29.5211C18.8335 29.3084 18.7313 29.0351 18.7313 28.7009C18.7313 28.3592 18.8335 28.0858 19.0378 27.8808C19.2422 27.6757 19.5186 27.5732 19.8668 27.5732C20.215 27.5732 20.4913 27.6757 20.6957 27.8808C20.9077 28.0858 21.0137 28.3592 21.0137 28.7009Z" fill="white"/>
<path d="M1 13.75H0.75V13.5V5.5C0.75 3.15279 2.65279 1.25 5 1.25H45C47.3472 1.25 49.25 3.15279 49.25 5.5V13.5V13.75H49H1Z" fill="#2D3748" stroke="white" stroke-width="0.5"/>
<path d="M8.32516 8.51953V7.53125H9.75484C9.97099 7.53125 10.1455 7.49609 10.2783 7.42578C10.4137 7.35547 10.5127 7.25911 10.5752 7.13672C10.6377 7.01432 10.6689 6.8737 10.6689 6.71484C10.6689 6.55599 10.6377 6.40755 10.5752 6.26953C10.5127 6.12891 10.4137 6.01693 10.2783 5.93359C10.1455 5.84766 9.97099 5.80469 9.75484 5.80469H8.74703V10.5H7.51656V4.8125H9.75484C10.2054 4.8125 10.5921 4.89453 10.915 5.05859C11.2379 5.22266 11.4853 5.44792 11.6572 5.73438C11.8291 6.01823 11.915 6.34245 11.915 6.70703C11.915 7.07682 11.8291 7.39714 11.6572 7.66797C11.4853 7.9388 11.2379 8.14844 10.915 8.29688C10.5921 8.44531 10.2054 8.51953 9.75484 8.51953H8.32516ZM15.1608 4.8125C15.6009 4.8125 15.9785 4.87891 16.2936 5.01172C16.6113 5.14193 16.8548 5.33464 17.0241 5.58984C17.1933 5.84245 17.278 6.15625 17.278 6.53125C17.278 6.84375 17.2259 7.10938 17.1217 7.32812C17.0202 7.54688 16.8769 7.72786 16.692 7.87109C16.5071 8.01432 16.2897 8.13021 16.0397 8.21875L15.6491 8.44141H13.8248L13.817 7.44922H15.1569C15.3548 7.44922 15.5202 7.41667 15.653 7.35156C15.7858 7.28385 15.8847 7.1888 15.9498 7.06641C16.0149 6.94401 16.0475 6.79948 16.0475 6.63281C16.0475 6.3776 15.9746 6.17578 15.8288 6.02734C15.6855 5.87891 15.4629 5.80469 15.1608 5.80469H14.2467V10.5H13.0202V4.8125H15.1608ZM14.8873 7.97266L16.1842 7.96484L17.485 10.4414V10.5H16.1686L14.8873 7.97266ZM22.3011 10.5H19.2972V9.51172H22.3011V10.5ZM19.6917 10.5H18.4613V4.8125H19.6917V10.5ZM21.9105 8.05469H19.2972V7.09766H21.9105V8.05469ZM22.2972 5.80469H19.2972V4.8125H22.2972V5.80469ZM26.7891 4.8125H28.1523L26.1875 10.5H25.2852L25.4766 9.23828L26.7891 4.8125ZM25.6016 9.23828L25.8008 10.5H24.8984L22.9375 4.8125H24.3008L25.6016 9.23828ZM30.2809 10.5H29.0544V4.8125H30.2809V10.5ZM35.4955 10.5H32.4916V9.51172H35.4955V10.5ZM32.8861 10.5H31.6556V4.8125H32.8861V10.5ZM35.1048 8.05469H32.4916V7.09766H35.1048V8.05469ZM35.4916 5.80469H32.4916V4.8125H35.4916V5.80469ZM38.9678 4.8125H39.6241L39.7998 5.48047L38.6045 10.5H37.8936L37.8467 9.74609L38.9678 4.8125ZM38.2608 9.75781L38.1475 10.5H37.3623L36.1123 4.8125H37.335L38.2608 9.75781ZM41.6358 4.8125H42.8545L41.6084 10.5H40.8194L40.7217 9.73828L41.6358 4.8125ZM41.1358 9.76953L41.0772 10.5H40.3663L39.1631 5.47656L39.3545 4.8125H40.003L41.1358 9.76953Z" fill="white"/>
</svg>
