<svg width="48" height="48" viewBox="0 0 48 48" fill="none" xmlns="http://www.w3.org/2000/svg">
<path fill-rule="evenodd" clip-rule="evenodd" d="M14.1814 15.7141C15.4327 15.7141 16.4472 14.6997 16.4472 13.4484C16.4472 12.1971 15.4327 11.1827 14.1814 11.1827C12.9301 11.1827 11.9157 12.1971 11.9157 13.4484C11.9157 14.6997 12.9301 15.7141 14.1814 15.7141ZM14.1814 16.7211C15.9889 16.7211 17.4541 15.2559 17.4541 13.4484C17.4541 11.6409 15.9889 10.1757 14.1814 10.1757C12.3739 10.1757 10.9087 11.6409 10.9087 13.4484C10.9087 15.2559 12.3739 16.7211 14.1814 16.7211Z" fill="#EC7838"/>
<path fill-rule="evenodd" clip-rule="evenodd" d="M37.1468 13.1747C38.3981 13.1747 39.4125 12.1603 39.4125 10.909C39.4125 9.65763 38.3981 8.64322 37.1468 8.64322C35.8954 8.64322 34.881 9.65763 34.881 10.909C34.881 12.1603 35.8954 13.1747 37.1468 13.1747ZM37.1468 14.1817C38.9542 14.1817 40.4195 12.7164 40.4195 10.909C40.4195 9.10148 38.9542 7.63623 37.1468 7.63623C35.3393 7.63623 33.874 9.10148 33.874 10.909C33.874 12.7164 35.3393 14.1817 37.1468 14.1817Z" fill="#EC7838"/>
<path fill-rule="evenodd" clip-rule="evenodd" d="M32.6536 36.0274C33.9049 36.0274 34.9193 35.0129 34.9193 33.7616C34.9193 32.5103 33.9049 31.4959 32.6536 31.4959C31.4023 31.4959 30.3879 32.5103 30.3879 33.7616C30.3879 35.0129 31.4023 36.0274 32.6536 36.0274ZM32.6536 37.0343C34.4611 37.0343 35.9263 35.5691 35.9263 33.7616C35.9263 31.9541 34.4611 30.4889 32.6536 30.4889C30.8461 30.4889 29.3809 31.9541 29.3809 33.7616C29.3809 35.5691 30.8461 37.0343 32.6536 37.0343Z" fill="#EC7838"/>
<path fill-rule="evenodd" clip-rule="evenodd" d="M24.6663 31.4569C25.9176 31.4569 26.932 30.4425 26.932 29.1912C26.932 27.9399 25.9176 26.9254 24.6663 26.9254C23.415 26.9254 22.4005 27.9399 22.4005 29.1912C22.4005 30.4425 23.415 31.4569 24.6663 31.4569ZM24.6663 32.4639C26.4738 32.4639 27.939 30.9987 27.939 29.1912C27.939 27.3837 26.4738 25.9185 24.6663 25.9185C22.8588 25.9185 21.3936 27.3837 21.3936 29.1912C21.3936 30.9987 22.8588 32.4639 24.6663 32.4639Z" fill="#EC7838"/>
<path d="M29.9351 19.0347C29.9351 20.8422 28.4699 22.3074 26.6624 22.3074C24.8549 22.3074 23.3896 20.8422 23.3896 19.0347C23.3896 17.2272 24.8549 15.762 26.6624 15.762C28.4699 15.762 29.9351 17.2272 29.9351 19.0347Z" fill="#1D91FF"/>
<path d="M19.9507 33.2541C19.9507 35.0615 18.4855 36.5268 16.678 36.5268C14.8705 36.5268 13.4053 35.0615 13.4053 33.2541C13.4053 31.4466 14.8705 29.9813 16.678 29.9813C18.4855 29.9813 19.9507 31.4466 19.9507 33.2541Z" fill="#1D91FF"/>
<path d="M39.4214 25.6366C39.4214 27.4441 37.9562 28.9093 36.1487 28.9093C34.3412 28.9093 32.876 27.4441 32.876 25.6366C32.876 23.8291 34.3412 22.3639 36.1487 22.3639C37.9562 22.3639 39.4214 23.8291 39.4214 25.6366Z" fill="#1D91FF"/>
<path fill-rule="evenodd" clip-rule="evenodd" d="M7.22781 6C7.90561 6 8.45508 6.54947 8.45508 7.22727L8.45508 40.7727C8.45508 41.4505 7.90561 42 7.2278 42C6.55 42 6.00053 41.4505 6.00053 40.7727L6.00053 7.22727C6.00053 6.54947 6.55 6 7.22781 6Z" fill="#1D91FF"/>
<path fill-rule="evenodd" clip-rule="evenodd" d="M6 40.7727C6 40.0949 6.54947 39.5454 7.22727 39.5454L40.7727 39.5454C41.4505 39.5454 42 40.0949 42 40.7727C42 41.4505 41.4505 42 40.7727 42L7.22727 42C6.54947 42 6 41.4505 6 40.7727Z" fill="#1D91FF"/>
</svg>
