<svg xmlns="http://www.w3.org/2000/svg" width="54" height="54" viewBox="0 0 54 54">
    <g fill="none" fill-rule="evenodd">
        <path fill="#D6E4FC" fill-rule="nonzero" d="M26.837 1.948l22.097 12.757a8.805 8.805 0 0 1 3.223 12.028L39.399 48.83a8.805 8.805 0 0 1-12.028 3.222L5.275 39.295a8.805 8.805 0 0 1-3.223-12.028L14.809 5.17a8.805 8.805 0 0 1 12.028-3.222z"/>
        <path d="M3.667 2.625h46.875V49.5H3.667z"/>
        <path fill="#FFF" fill-rule="nonzero" stroke="#0565FF" stroke-width=".822" d="M10.821 6.965A3.077 3.077 0 0 0 8.073 9.71L6.298 26.812 8.074 44.09c.15 1.453 1.3 2.6 2.753 2.747l17.618 1.783 16.743-1.768a3.077 3.077 0 0 0 2.741-2.773l1.64-17.446-1.632-16.909a3.077 3.077 0 0 0-2.745-2.765L28.21 5.187 10.82 6.965z"/>
        <path fill="#CCDCF4" d="M32.556 8.111H43.09a3.333 3.333 0 0 1 3.333 3.333v8.7L32.556 8.11z"/>
        <path fill="#0565FF" fill-rule="nonzero" d="M26.91 18.2v17.6h2.18V18.2h-2.18zM25.817 16h4.364c.602 0 1.09.492 1.09 1.1v19.8c0 .608-.488 1.1-1.09 1.1h-4.364c-.602 0-1.09-.492-1.09-1.1V17.1c0-.608.488-1.1 1.09-1.1zm8.727 5.5h4.364c.603 0 1.091.492 1.091 1.1v14.3c0 .608-.488 1.1-1.09 1.1h-4.365c-.602 0-1.09-.492-1.09-1.1V22.6c0-.608.488-1.1 1.09-1.1zm1.091 2.2v12.1h2.182V23.7h-2.182zM17.091 27h4.364c.602 0 1.09.492 1.09 1.1v8.8c0 .608-.488 1.1-1.09 1.1H17.09C16.488 38 16 37.508 16 36.9v-8.8c0-.608.488-1.1 1.09-1.1zm1.09 2.2v6.6h2.183v-6.6h-2.182z"/>
    </g>
</svg>
