<?xml version="1.0" encoding="UTF-8"?>
<svg width="135px" height="50px" viewBox="0 0 135 50" version="1.1" xmlns="http://www.w3.org/2000/svg" xmlns:xlink="http://www.w3.org/1999/xlink">
    <!-- Generator: Sketch 60 (88103) - https://sketch.com -->
    <title>BoldId_main logo</title>
    <desc>Created with Sketch.</desc>
    <g id="BoldId_main-logo" stroke="none" stroke-width="1" fill="none" fill-rule="evenodd">
        <g transform="translate(8.000000, 9.000000)">
            <path d="M20.6590909,0 C26.6363636,0 30.5454545,3.56571429 30.5454545,8.68571429 C30.5454545,11.68 28.9318182,14.24 26.4545455,15.2457143 C29.75,16.1371429 32,18.9028571 32,22.6514286 C32,27.9527094 27.9830897,31.8632173 22.3006035,31.9964865 L22,32 L6.4,32 C2.8653776,32 -1.22083006e-14,29.1346224 -1.42108547e-14,25.6 L-1.42108547e-14,6.4 C-1.46437211e-14,2.8653776 2.8653776,-2.38878819e-16 6.4,0 L20.6590909,0 Z M14.7890358,16 L14.0109642,16 C12.8475338,16 11.8516533,16.83445 11.6480142,17.97992 L11.6480142,17.97992 L10.5671159,24.0599733 C10.5588985,24.1061961 10.5547659,24.1530525 10.5547659,24.2 C10.5547659,24.6418278 10.9129381,25 11.3547659,25 L11.3547659,25 L17.4452341,25 C17.4921817,25 17.539038,24.9958674 17.5852608,24.98765 C18.0202679,24.9103154 18.3102187,24.4949804 18.2328841,24.0599733 L18.2328841,24.0599733 L17.1519858,17.97992 C16.9483467,16.83445 15.9524662,16 14.7890358,16 L14.7890358,16 Z M14.4,6.4 C12.190861,6.4 10.4,8.190861 10.4,10.4 C10.4,12.609139 12.190861,14.4 14.4,14.4 C16.609139,14.4 18.4,12.609139 18.4,10.4 C18.4,8.190861 16.609139,6.4 14.4,6.4 Z" id="Combined-Shape-Copy" fill="#FF4800"></path>
            <path d="M47.3920012,25 C50.4760017,25 52.6720021,22.4440025 52.6720021,19.6120021 C52.6720021,17.6440017 51.4840019,16.1920015 49.7440016,15.7240014 C51.0520018,15.1960013 51.904002,13.8520011 51.904002,12.2800009 C51.904002,9.59200042 49.8400016,7 46.6840011,7 L40,7 L40,25 L47.3920012,25 Z M46.360001,14.2720012 L44.3920007,14.2720012 L44.3920007,11.2840007 L46.360001,11.2840007 C47.2000012,11.2840007 47.8000013,11.8480008 47.8000013,12.7840007 C47.8000013,13.7080011 47.2000012,14.2720012 46.360001,14.2720012 Z M46.6480011,20.9560023 L44.3920007,20.9560023 L44.3920007,17.7040018 L46.6480011,17.7040018 C47.5600012,17.7040018 48.2080013,18.3640019 48.2080013,19.336002 C48.2080013,20.2960022 47.5600012,20.9560023 46.6480011,20.9560023 Z M60.660001,24.8080029 C64.6560016,24.8080029 67.6800021,21.9640025 67.6800021,18.3040019 C67.6800021,14.6440013 64.6560016,11.8000008 60.660001,11.8000008 C56.6760003,11.8000008 53.6399998,14.6440013 53.6399998,18.3040019 C53.6399998,21.9640025 56.6760003,24.8080029 60.660001,24.8080029 Z M60.660001,20.9560023 C59.1240007,20.9560023 57.9960005,19.8040021 57.9960005,18.3040019 C57.9960005,16.8040016 59.1240007,15.6520014 60.660001,15.6520014 C62.2080012,15.6520014 63.3360014,16.8040016 63.3360014,18.3040019 C63.3360014,19.8040021 62.2080012,20.9560023 60.660001,20.9560023 Z M73,25 L73,7 L69,7 L69,25 L73,25 Z M100,25 L100,7 L96,7 L96,25 L100,25 Z M81,11.9259259 C82.6740741,11.9259259 84.0518519,12.562963 85.0518519,13.6296296 L85.0518519,7 L88.9481481,7 L88.9481481,24.9851852 L85.0518519,24.9851852 L85.0518519,23.5777778 C84.0518519,24.637037 82.6740741,25.2814815 81,25.2814815 C77.4888889,25.2814815 75,22.3481481 75,18.6074074 C75,14.8592593 77.4888889,11.9259259 81,11.9259259 Z M81.9777778,21.8074074 C83.7037037,21.8074074 85.0592593,20.4296296 85.0592593,18.6074074 C85.0592593,16.7925926 83.7037037,15.4074074 81.9777778,15.4074074 C80.2666667,15.4074074 78.9333333,16.8 78.9333333,18.6074074 C78.9333333,20.4296296 80.2592593,21.8074074 81.9777778,21.8074074 Z M110.252001,25 C115.256002,25 118.676002,21.1120023 118.676002,16.1200015 C118.676002,11.1400007 115.256002,7 110.252001,7 L104,7 L104,25 L110.252001,25 Z M109.892001,20.5840022 L108,20.5840022 L108,11.6680008 L109.892001,11.6680008 C112.448001,11.6680008 114.092002,13.276001 114.092002,16.1200015 C114.092002,18.976002 112.448001,20.5840022 109.892001,20.5840022 Z" id="BoldID" fill="#283A5E" fill-rule="nonzero"></path>
        </g>
    </g>
</svg>