<?xml version="1.0" encoding="UTF-8"?>
<svg width="186px" height="144px" viewBox="0 0 186 144" version="1.1" xmlns="http://www.w3.org/2000/svg" xmlns:xlink="http://www.w3.org/1999/xlink">
    <!-- Generator: Sketch 49.1 (51147) - http://www.bohemiancoding.com/sketch -->
    <title>Suspended</title>
    <desc>Created with Sketch.</desc>
    <defs>
        <linearGradient x1="12.518222%" y1="99.9167014%" x2="72.9592789%" y2="6.94362509%" id="linearGradient-1">
            <stop stop-color="#FFA59B" offset="0%"></stop>
            <stop stop-color="#FF6C62" offset="100%"></stop>
        </linearGradient>
        <linearGradient x1="12.518222%" y1="84.4693588%" x2="72.9592789%" y2="20.2679545%" id="linearGradient-2">
            <stop stop-color="#FFA59B" offset="0%"></stop>
            <stop stop-color="#FF6C62" offset="100%"></stop>
        </linearGradient>
    </defs>
    <g id="Design" stroke="none" stroke-width="1" fill="none" fill-rule="evenodd">
        <g id="Product-launch-Copy-2" transform="translate(-590.000000, -231.000000)">
            <rect id="BG" fill="#FFFFFF" x="0" y="0" width="1366" height="768"></rect>
            <g id="Group-2" transform="translate(590.000000, 231.000000)">
                <g id="Group-4" fill-rule="nonzero">
                    <path d="M160.997385,34.3756587 L162.876947,32.4839709 C163.465104,31.8920183 164.418697,31.8920183 165.006855,32.4839709 C165.595013,33.0759236 165.595013,34.0356684 165.006855,34.627621 L163.127294,36.5193088 L165.006855,38.4109965 C165.595013,39.0029491 165.595013,39.9626939 165.006855,40.5546466 C164.418697,41.1465992 163.465104,41.1465992 162.876947,40.5546466 L160.997385,38.6629588 L159.117824,40.5546466 C158.529665,41.1465992 157.576073,41.1465992 156.987915,40.5546466 C156.399757,39.9626939 156.399757,39.0029491 156.987915,38.4109965 L158.867477,36.5193088 L156.987915,34.627621 C156.399757,34.0356684 156.399757,33.0759236 156.987915,32.4839709 C157.576073,31.8920183 158.529665,31.8920183 159.117824,32.4839709 L160.997385,34.3756587 Z" id="Combined-Shape-Copy" fill="#F9AF97"></path>
                    <path d="M4.45058877,64.4830206 L6.33015033,62.5913329 C6.91830838,61.9993803 7.87190096,61.9993803 8.46005902,62.5913329 C9.04821707,63.1832855 9.04821707,64.1430303 8.46005902,64.7349829 L6.58049746,66.6266707 L8.46005902,68.5183585 C9.04821707,69.1103111 9.04821707,70.0700558 8.46005902,70.6620085 C7.87190096,71.2539611 6.91830838,71.2539611 6.33015033,70.6620085 L4.45058877,68.7703207 L2.57102722,70.6620085 C1.98286918,71.2539611 1.02927657,71.2539611 0.441118532,70.6620085 C-0.147039511,70.0700558 -0.147039511,69.1103111 0.441118532,68.5183585 L2.32068009,66.6266707 L0.441118532,64.7349829 C-0.147039511,64.1430303 -0.147039511,63.1832855 0.441118532,62.5913329 C1.02927657,61.9993803 1.98286918,61.9993803 2.57102722,62.5913329 L4.45058877,64.4830206 Z" id="Combined-Shape-Copy-2" fill="#F9AF97"></path>
                    <ellipse id="Oval-2" fill="#FFD571" cx="114.838057" cy="4.92631579" rx="4.89473684" ry="4.92631579"></ellipse>
                    <ellipse id="Oval-2-Copy" fill="#FFD571" cx="24.4736842" cy="88.2947368" rx="4.89473684" ry="4.92631579"></ellipse>
                    <ellipse id="Oval-2-Copy-2" fill="#FFD571" cx="157.008097" cy="100.421053" rx="4.89473684" ry="4.92631579"></ellipse>
                    <rect id="Rectangle-7" fill="#102D5C" x="118.979757" y="140.210526" width="7.53036437" height="3.78947368" rx="1.89473684"></rect>
                    <rect id="Rectangle-7-Copy" fill="#102D5C" x="132.534413" y="140.210526" width="40.6639676" height="3.78947368" rx="1.89473684"></rect>
                    <path d="M26.1471482,38.8566071 C25.5889501,39.2684442 24.7891056,39.1673511 24.3606455,38.6308094 C23.9321855,38.0942678 24.037359,37.325455 24.5955571,36.913618 L29.429202,33.3473684 L33.7421937,36.3596988 L37.113411,33.9002908 C37.6739291,33.4913754 38.4731903,33.5966446 38.8986108,34.1354162 C39.3240313,34.6741878 39.2145131,35.44244 38.653995,35.8513554 L33.7752849,39.4105263 L29.4710012,36.4042778 L26.1471482,38.8566071 Z" id="Path-3" fill="#102D5C"></path>
                    <path d="M169.224071,122.225028 C168.665873,122.636865 167.866029,122.535772 167.437568,121.999231 C167.009109,121.462689 167.114282,120.693876 167.67248,120.282039 L172.506125,116.715789 L176.819117,119.72812 L180.190334,117.268712 C180.750852,116.859796 181.550113,116.965066 181.975534,117.503837 C182.400954,118.042609 182.291436,118.810861 181.730918,119.219777 L176.852208,122.778947 L172.547924,119.772699 L169.224071,122.225028 Z" id="Path-3-Copy" fill="#102D5C"></path>
                    <path d="M180.728745,75.4105263 C178.025456,75.4105263 175.834008,73.2049396 175.834008,70.4842105 C175.834008,67.7634814 178.025456,65.5578947 180.728745,65.5578947 C183.432034,65.5578947 185.623482,67.7634814 185.623482,70.4842105 C185.623482,73.2049396 183.432034,75.4105263 180.728745,75.4105263 Z M180.728745,73.1368421 C182.184362,73.1368421 183.364372,71.9492185 183.364372,70.4842105 C183.364372,69.0192026 182.184362,67.8315789 180.728745,67.8315789 C179.273128,67.8315789 178.093117,69.0192026 178.093117,70.4842105 C178.093117,71.9492185 179.273128,73.1368421 180.728745,73.1368421 Z" id="Oval-3" fill="#102D5C"></path>
                    <path d="M6.77732794,120.884211 C4.07403943,120.884211 1.88259109,118.678624 1.88259109,115.957895 C1.88259109,113.237166 4.07403943,111.031579 6.77732794,111.031579 C9.48061647,111.031579 11.6720648,113.237166 11.6720648,115.957895 C11.6720648,118.678624 9.48061647,120.884211 6.77732794,120.884211 Z M6.77732794,118.610526 C8.23294481,118.610526 9.41295547,117.422903 9.41295547,115.957895 C9.41295547,114.492886 8.23294481,113.305263 6.77732794,113.305263 C5.32171105,113.305263 4.1417004,114.492886 4.1417004,115.957895 C4.1417004,117.422903 5.32171105,118.610526 6.77732794,118.610526 Z" id="Oval-3-Copy" fill="#102D5C"></path>
                    <rect id="Rectangle-10" fill="#FFFFFF" x="125.757085" y="83.3684211" width="2.25910931" height="18.9473684" rx="1.12955466"></rect>
                    <rect id="Rectangle-10-Copy" fill="#FFFFFF" x="125.757085" y="109.894737" width="2.25910931" height="6.06315789" rx="1.12955466"></rect>
                </g>
                <g id="Group-3" transform="translate(39.000000, 38.265734)">
                    <g id="Group-5" transform="translate(18.150000, 0.000000)">
                        <ellipse id="Oval-5" fill="url(#linearGradient-1)" fill-rule="nonzero" cx="62.7" cy="64.956279" rx="26.4" ry="26.6800846"></ellipse>
                        <ellipse id="Oval-5-Copy" stroke="#102D5C" stroke-width="4" cx="60.225" cy="62.4550211" rx="26.4" ry="26.6800846"></ellipse>
                        <path d="M61.0722973,64.1010441 L70.531856,64.1010441 C71.2214656,64.1010441 71.7805046,64.6655433 71.7805046,65.3618884 C71.7805046,66.0582335 71.2214656,66.6227327 70.531856,66.6227327 L59.8751155,66.6227327 C59.8580459,66.6234315 59.8408881,66.6237843 59.8236487,66.6237843 C59.7428677,66.6237843 59.6638785,66.6160383 59.5873696,66.6012419 C59.0080091,66.4919275 58.5694954,65.9786183 58.5694954,65.3618884 C58.5694954,65.3216972 58.5713577,65.2819452 58.575,65.2427156 L58.575,54.5445863 C58.575,53.8482412 59.134039,53.283742 59.8236487,53.283742 C60.5132582,53.283742 61.0722973,53.8482412 61.0722973,54.5445863 L61.0722973,64.1010441 Z" id="Combined-Shape" fill="#102D5C" fill-rule="nonzero"></path>
                        <polyline id="Path-4" stroke="#102D5C" stroke-width="4" points="26.9119586 73.3702327 15.6517248 65.1814674 0 73.3702327 0 0 15.6517248 7.30284152 26.9119586 0 40.1366274 7.30284152 55.275 0 55.275 24.7583097"></polyline>
                        <path d="M51.975,34.7677151 C40.1722493,37.5126059 31.35,48.4931957 31.35,61.6212684 C31.35,62.1788712 31.3659157,62.7325999 31.3972997,63.2819878 L26.9985904,65.7900316 L17.0828622,59.1499736 L3.3,65.7900316 L3.3,43.3313442 L3.3,29.0522813 L3.3,6.59359384 L17.0828622,13.2336518 L26.9985904,6.59359384 L38.6441943,13.2336518 L51.975,6.59359384 L51.975,29.1049153 L51.975,34.7677151 Z" id="Combined-Shape" fill="url(#linearGradient-2)" fill-rule="nonzero"></path>
                        <path d="M26.0527593,47.9805054 L26.0527593,45.4508827 C24.8001758,45.2916094 23.7818869,45.0082007 22.9978624,44.6006484 C22.2138379,44.193096 21.536525,43.5349322 20.9659036,42.6261373 C20.3952822,41.7173424 20.0635845,40.6071302 19.9708006,39.2954674 L22.4898727,38.8176498 C22.6847191,40.1761576 23.0280145,41.1739433 23.5197696,41.8110367 C24.2249278,42.7104626 25.0692493,43.2116976 26.0527593,43.3147569 L26.0527593,35.2621245 C25.0228573,35.0653751 23.969775,34.6625133 22.893481,34.053527 C22.0955388,33.6038141 21.4808542,32.9807836 21.0494088,32.1844169 C20.6179633,31.3880502 20.4022438,30.4839533 20.4022438,29.4720992 C20.4022438,27.6732474 21.0331654,26.2163866 22.2950273,25.1014733 C23.1393615,24.3519517 24.3919263,23.8928766 26.0527593,23.7242342 L26.0527593,22.5156368 L27.528017,22.5156368 L27.528017,23.7242342 C28.9847254,23.8647696 30.1398685,24.295738 30.993481,25.0171525 C32.0883318,25.9353165 32.7470881,27.1954307 32.9697696,28.7975331 L30.3811098,29.19103 C30.2326555,28.1979139 29.9241534,27.4366925 29.4555943,26.9073428 C28.9870353,26.3779933 28.344516,26.0290024 27.528017,25.8603601 L27.528017,33.1541056 C28.789879,33.4726523 29.6249222,33.7209276 30.0331717,33.898939 C30.8125571,34.2455927 31.4481177,34.6671923 31.9398727,35.1637503 C32.4316277,35.6603084 32.8097167,36.2505478 33.0741511,36.9344862 C33.3385854,37.6184247 33.4708006,38.3585661 33.4708006,39.1549328 C33.4708006,40.9069395 32.9187442,42.3684847 31.8146149,43.5396122 C30.7104857,44.7107397 29.281634,45.3384546 27.528017,45.4227758 L27.528017,47.9805054 L26.0527593,47.9805054 Z M26.0527593,25.8322532 C25.0785276,25.9821575 24.3107518,26.3756505 23.7494088,27.0127438 C23.1880657,27.6498371 22.9073985,28.4040319 22.9073985,29.2753507 C22.9073985,30.1373006 23.1463136,30.8587043 23.6241511,31.4395835 C24.1019885,32.0204627 24.9115165,32.4842223 26.0527593,32.830876 L26.0527593,25.8322532 Z M27.528017,43.3147569 C28.5022487,43.1929596 29.3071375,42.7666756 29.9427078,42.035892 C30.578278,41.3051085 30.8960583,40.4010116 30.8960583,39.3235744 C30.8960583,38.4054104 30.6710605,37.6676111 30.2210583,37.1101545 C29.771056,36.5526978 28.8733846,36.0538049 27.528017,35.613461 L27.528017,43.3147569 Z" id="$" fill="#102D5C" fill-rule="nonzero"></path>
                    </g>
                    <g id="Group" transform="translate(0.000000, 20.767389)" fill-rule="nonzero">
                        <path d="M19.1837287,1.91386476 L32.5682777,28.9669632 C33.3087513,30.4636223 32.7074776,32.2830395 31.2252951,33.0307455 C30.8089617,33.2407702 30.3499463,33.3501058 29.884549,33.3501058 L3.11545103,33.3501058 C1.45859678,33.3501058 0.11545103,31.9938414 0.11545103,30.3208045 C0.11545103,29.8508616 0.223729072,29.387363 0.431722318,28.9669632 L13.8162713,1.91386476 C14.5567449,0.417205706 16.3585637,-0.189940771 17.8407461,0.557765148 C18.4220373,0.851004924 18.8933253,1.32689608 19.1837287,1.91386476 Z" id="Triangle" stroke="#102D5C" stroke-width="4" fill="#F8E203" stroke-linecap="round" stroke-linejoin="round"></path>
                        <path d="M15.1144274,20.9384361 L14.7724866,15.7657072 C14.7083724,14.7577939 14.6763158,14.034267 14.6763158,13.5951048 C14.6763158,12.9975563 14.8312561,12.5314034 15.1411415,12.1966322 C15.451027,11.861861 15.8588585,11.6944779 16.3646484,11.6944779 C16.9772954,11.6944779 17.3869079,11.9086563 17.5934981,12.3370194 C17.8000884,12.7653825 17.903382,13.3827201 17.903382,14.1890507 C17.903382,14.6642098 17.8784491,15.1465611 17.8285825,15.6361189 L17.3690995,20.9600342 C17.3192329,21.5935796 17.2123774,22.0795305 17.04853,22.4179014 C16.8846826,22.7562722 16.6139821,22.9254551 16.2364207,22.9254551 C15.8517353,22.9254551 15.5845967,22.7616717 15.4349969,22.4340999 C15.285397,22.106528 15.1785416,21.6079784 15.1144274,20.9384361 Z M16.3005346,28.044189 C15.8659826,28.044189 15.4866458,27.9020034 15.1625128,27.6176279 C14.8383799,27.3332523 14.6763158,26.9354925 14.6763158,26.4243365 C14.6763158,25.9779749 14.8312561,25.5982133 15.1411415,25.2850403 C15.451027,24.9718672 15.8303637,24.8152831 16.2791632,24.8152831 C16.7279628,24.8152831 17.1108614,24.9718672 17.4278706,25.2850403 C17.7448798,25.5982133 17.903382,25.9779749 17.903382,26.4243365 C17.903382,26.9282931 17.7430988,27.3242531 17.4225277,27.6122284 C17.1019567,27.9002035 16.7279626,28.044189 16.3005346,28.044189 Z" id="!" fill="#102D5C"></path>
                    </g>
                    <path d="M91.7604975,47.2372532 C91.1620485,46.7288884 90.7793205,45.8047354 91.3297372,45.2390302 C91.9683555,44.5826736 93.0767745,44.8607326 93.6752235,45.3690974 C99.0730065,49.9543577 101.671303,55.5524209 101.463453,62.1035692 C101.442199,62.7734598 100.957272,63.4569243 100.038906,63.4414211 C99.1205392,63.4259178 98.716788,62.7734598 98.7380415,62.1035692 C98.927319,56.1377815 96.609546,51.3563795 91.7604975,47.2372532 Z" id="Path-2" fill="#FFFFFF" fill-rule="nonzero"></path>
                </g>
            </g>
        </g>
    </g>
</svg>