<svg xmlns="http://www.w3.org/2000/svg" width="300" height="220" viewBox="0 0 300 220">
    <g fill="none" fill-rule="evenodd">
        <path fill-rule="nonzero" d="M-43-2h384v224H-43z"/>
        <g transform="translate(-18 -2)">
            <path d="M0 0h335v224H0z"/>
            <ellipse cx="303.5" cy="213" fill="#F6F7F8" fill-rule="nonzero" rx="4.5" ry="1"/>
            <ellipse cx="313.5" cy="213" fill="#F6F7F8" fill-rule="nonzero" rx="4.5" ry="1"/>
            <rect width="1" height="14" x="303" y="199" fill="#7F889E" fill-rule="nonzero" rx=".5"/>
            <path fill="#02AD46" fill-rule="nonzero" d="M306.974 184.02v-2.11c0-1.607-1.31-2.91-2.926-2.91h-2.121a2.918 2.918 0 0 0-2.927 2.91v2.11a2.89 2.89 0 0 0 1.035 2.217 2.89 2.89 0 0 0-1.035 2.218v2.11c.011.852.4 1.656 1.06 2.198a2.89 2.89 0 0 0-1.034 2.217v2.11c0 1.607 1.31 2.91 2.926 2.91h2.121a2.918 2.918 0 0 0 2.927-2.91v-2.11a2.891 2.891 0 0 0-1.06-2.217 2.89 2.89 0 0 0 1.034-2.218v-2.11a2.89 2.89 0 0 0-1.035-2.217 2.89 2.89 0 0 0 1.035-2.198z"/>
            <path fill="#000" fill-rule="nonzero" d="M299 189v2.01c.011.812.4 1.578 1.06 2.095a2.704 2.704 0 0 0-1.034 2.112v2.01c0 1.532 1.31 2.773 2.926 2.773h2.121c1.617 0 2.927-1.241 2.927-2.773v-2.01a2.707 2.707 0 0 0-1.06-2.112L299 189z" opacity=".1"/>
            <path stroke="#FFF" stroke-linecap="round" stroke-linejoin="round" stroke-width=".8" d="M303 191l-4-3M308 185l-4-3M307 198l-4-3"/>
            <rect width="1" height="9" x="313" y="204" fill="#7F889E" fill-rule="nonzero" rx=".5"/>
            <path fill="#02AD46" fill-rule="nonzero" d="M311.038 192.618a2.764 2.764 0 0 0-1.038 2.15v2.062c0 .83.379 1.62 1.038 2.156a2.764 2.764 0 0 0-1.038 2.149v2.045c0 1.557 1.314 2.82 2.936 2.82h2.128c1.622 0 2.936-1.263 2.936-2.82v-2.039c0-.828-.38-1.615-1.038-2.149a2.776 2.776 0 0 0 1.038-2.155v-2.045c0-.828-.38-1.615-1.038-2.15-1.379-.843-4.36-.861-5.924-.024z"/>
            <path fill="#000" fill-rule="nonzero" d="M310 195v2.02c0 .813.379 1.586 1.038 2.111a2.687 2.687 0 0 0-1.038 2.105v2.002c0 1.525 1.314 2.762 2.936 2.762h2.128c1.622 0 2.936-1.237 2.936-2.762v-1.996c0-.812-.38-1.582-1.038-2.105L310 195z" opacity=".1"/>
            <path stroke="#FFF" stroke-linecap="round" stroke-linejoin="round" stroke-width=".8" d="M313 197l-4-3M318 204l-4-3"/>
            <ellipse cx="160" cy="218.5" fill="#F6F7F8" fill-rule="nonzero" rx="19" ry="3.5"/>
            <ellipse cx="80" cy="217.5" fill="#F6F7F8" fill-rule="nonzero" rx="28" ry="1.5"/>
            <ellipse cx="249" cy="218.5" fill="#F6F7F8" fill-rule="nonzero" rx="19" ry="3.5"/>
            <g stroke="#E9EBEE" stroke-width="1.02" opacity=".6">
                <path d="M128.266 15.019v152.496M148.513 15.019v152.496M168.759 15.019v152.496M189.005 15.019v152.496M209.251 15.019v152.496M229.498 15.019v152.496M249.744 15.019v152.496M269.996 15.019v152.496M290.242 15.019v152.496M106.05 152.04h206.41M106.05 131.784h206.41M106.05 111.527h206.41M106.05 91.27h206.41M106.05 71.013h206.41M106.05 50.756h206.41M106.05 30.493h206.41"/>
            </g>
            <rect width="77" height="184" x="18" y="2" fill="#E9EBEE" fill-rule="nonzero" rx="6"/>
            <path fill="#FFF" fill-rule="nonzero" d="M170 51h81v81h-81z"/>
            <path stroke="#7F889E" stroke-width="1.02" d="M251 130v2h-2"/>
            <path stroke="#7F889E" stroke-dasharray="5.89" stroke-width="1.02" d="M245 131.5h-71"/>
            <path stroke="#7F889E" stroke-width="1.02" d="M172 132h-2v-2"/>
            <path stroke="#7F889E" stroke-dasharray="5.89" stroke-width="1.02" d="M170.5 126V55"/>
            <path stroke="#7F889E" stroke-width="1.02" d="M170 53v-2h2"/>
            <path stroke="#7F889E" stroke-dasharray="5.89" stroke-width="1.02" d="M176 50.5h71"/>
            <path stroke="#7F889E" stroke-width="1.02" d="M249 51h2v2"/>
            <path stroke="#7F889E" stroke-dasharray="5.89" stroke-width="1.02" d="M250.5 57v71"/>
            <path fill="#FFF" fill-rule="nonzero" d="M36 22h38v38H36z"/>
            <path stroke="#7F889E" stroke-width="1.02" d="M74 58v2h-2"/>
            <path stroke="#7F889E" stroke-dasharray="6.13" stroke-width="1.02" d="M69 59.5H40"/>
            <path stroke="#7F889E" stroke-width="1.02" d="M38 60h-2v-2"/>
            <path stroke="#7F889E" stroke-dasharray="6.13" stroke-width="1.02" d="M35.5 54V25"/>
            <path stroke="#7F889E" stroke-width="1.02" d="M36 24v-2h2"/>
            <path stroke="#7F889E" stroke-dasharray="6.13" stroke-width="1.02" d="M41 21.5h29"/>
            <path stroke="#7F889E" stroke-width="1.02" d="M72 22h2v2"/>
            <path stroke="#7F889E" stroke-dasharray="6.13" stroke-width="1.02" d="M74.5 27v29"/>
            <path fill="#F6F7F8" fill-rule="nonzero" d="M49 33h38v38H49zM36 128h38v38H36zM36 75h38v38H36z"/>
            <path fill="#A9B0BE" fill-rule="nonzero" d="M57 47h4v16h-4zM65 41h4v22h-4zM73 49h4v14h-4zM55.48 137c-5.796.01-10.487 4.716-10.48 10.513.007 5.796 4.71 10.49 10.506 10.487C61.303 157.996 66 153.297 66 147.5A10.5 10.5 0 0 0 55.48 137zm0 17.182a6.682 6.682 0 1 1 6.702-6.682 6.682 6.682 0 0 1-6.701 6.675v.007z"/>
            <path stroke="#F6F7F8" stroke-width="3.07" d="M55 135v13h13"/>
            <path fill="#A9B0BE" fill-rule="nonzero" d="M54.314 105h-.616C47.79 105 43 100.075 43 94c-.002-2.918 1.125-5.717 3.132-7.78 2.006-2.063 4.728-3.222 7.566-3.22h1.232v9.702H65v1.266c.008 2.921-1.114 5.725-3.118 7.795-2.005 2.069-4.727 3.234-7.568 3.237z"/>
            <path fill="#A9B0BE" fill-rule="nonzero" d="M57 81a10 10 0 0 1 10 10H57V81z"/>
            <path fill="#FF4702" fill-rule="nonzero" d="M62 114l.044-4h34.912l.044 4zM62 133l.05-4h34.907l.043 4zM61 153l.044-4h35.912l.044 4zM61 174l.043-4h35.908l.049 4z"/>
            <path fill="#FF4702" fill-rule="nonzero" d="M62.073 217h-2.577a.476.476 0 0 1-.353-.16.567.567 0 0 1-.143-.387l1.767-117.925c.007-.294.227-.528.496-.528h2.247c.13 0 .256.057.348.159a.56.56 0 0 1 .142.382l-1.437 117.93c-.003.294-.221.529-.49.529M99.504 217h-2.577c-.269 0-.487-.235-.49-.528L95 98.54a.56.56 0 0 1 .144-.384.47.47 0 0 1 .352-.157h2.24c.27 0 .488.236.49.528L100 216.453a.567.567 0 0 1-.143.386.476.476 0 0 1-.353.161"/>
            <path fill="#FF4702" fill-rule="nonzero" d="M61 194l.044-4h36.912l.044 4z"/>
            <path fill="#F6F7F8" fill-rule="nonzero" d="M107 95h36v36h-36z"/>
            <path fill="#A9B0BE" fill-rule="nonzero" d="M124.507 104A10.5 10.5 0 1 0 135 114.493 10.493 10.493 0 0 0 124.507 104zm0 17.182a6.682 6.682 0 1 1 6.681-6.682 6.675 6.675 0 0 1-6.681 6.682z"/>
            <path stroke="#F6F7F8" stroke-width="3.07" d="M125 101v13h13"/>
            <path fill="#3C4D6F" fill-rule="nonzero" d="M212 76.859c5.493.576 10.234 4.08 12.371 9.141L233 83.664c-3.258-8.896-11.495-15.04-21-15.664v8.859z"/>
            <path fill="#FF4702" fill-rule="nonzero" d="M218.172 105.406a15.264 15.264 0 0 1-16.576-1.657 15.11 15.11 0 0 1-5.11-15.79c1.6-5.806 6.5-10.118 12.485-10.982V68c-9.815.887-18.104 7.622-20.945 17.019-2.84 9.397.338 19.57 8.03 25.703A24.235 24.235 0 0 0 223 112.908l-4.828-7.502z"/>
            <path fill="#FFE3D7" fill-rule="nonzero" d="M225.921 89.406c.102.747.154 1.5.155 2.254.006 4.428-1.842 8.646-5.076 11.588l4.84 7.752c5.789-4.67 9.165-11.798 9.16-19.34a25.609 25.609 0 0 0-.434-4.66l-8.645 2.406z"/>
            <path fill="#283A5E" fill-rule="nonzero" d="M79.915 98.013c-.138-.335-12.833 5.83-14.915 8.629L72.549 127l1.749-.436c-.627-6.392-1.423-12.368-2.62-16.619L85 107.096l-5.085-9.083z"/>
            <path fill="#3C4D6F" fill-rule="nonzero" d="M80.443 98.128c-1.822 5.808 2.323 35.213 6.08 48.872h1.684l3.13-36.541 3.663-5.94c-.144-1.968-1.008-4.65-2.041-7.519l-12.516 1.128z"/>
            <path fill="#F0939E" fill-rule="nonzero" d="M79.23 69.187s.162 3.833-.211 4.67c-.374.836 4.981-2.258 4.981-2.258L83.54 68l-4.31 1.187z"/>
            <path fill="#FFC9D5" fill-rule="nonzero" d="M77.381 61.713s-2.084 10.754 3.494 9.118c5.578-1.637 3.883-5.976 3.883-5.976s-.304-3.476-2.68-3.803a9.9 9.9 0 0 0-4.697.66z"/>
            <path fill="#202E4B" fill-rule="nonzero" d="M91 70l9.36 14.281L111 93.543 110.223 95 97.42 87.75l-4.708-6.022z"/>
            <path fill="#202E4B" fill-rule="nonzero" d="M76 75.097l8.1-3.93L91.065 71s3.35 9.962 1.234 26.93L79.991 99S81.127 91.146 76 75.097z"/>
            <path fill="#202E4B" fill-rule="nonzero" d="M77.837 74.93l-12.9-2.944L51.873 66 51 67.658a88.533 88.533 0 0 0 12.862 7.81C68.72 77.85 74.726 79.215 78 81l-.163-6.07z"/>
            <path fill="#00B3CC" fill-rule="nonzero" d="M51 67.549s2.28-.706 12 3.451c0 0-10.062-4.593-11.16-5L51 67.549z"/>
            <path fill="#00B3CC" fill-rule="nonzero" d="M51 67s8.665 5.987 13.572 8C69.385 76.981 76.68 79.206 78 80l-.666-3.431s-7.295.25-12.856-2.163C58.918 71.994 51 67 51 67zM93.224 82.07L93 79l5.41 7.441L110 95l-12.371-7.188z" opacity=".3"/>
            <path fill="#00B3CC" fill-rule="nonzero" d="M80 89s2.155 9.613 10 9.214L80.598 99A40.284 40.284 0 0 0 80 89z"/>
            <path fill="#001F3A" fill-rule="nonzero" d="M74.494 127l-1.622.456L68 130h7zM88 147h-1.73L81 149h7z"/>
            <path fill="#FFC9D5" fill-rule="nonzero" d="M52 65.32l-.713-1.906-.713-.74.235 1.323L48 62l.118 2.594 1.587 1.595 1.433.811zM110.884 94l1.93 1.501.186 1.286-.855 1.213-.734-1.695L110 95.296z"/>
            <path fill="#E86578" fill-rule="nonzero" d="M77 62.914s4.268-.896 4.159 1.61c-.109 2.505-.167 4.553 2.028 4.474 2.194-.08-.749-7.279-.749-7.279L77.717 61 77 62.914z"/>
            <path fill="#131D2F" fill-rule="nonzero" d="M77.344 63.523s3.432-1.62 4.304.48c.872 2.102-1.352 5.703 2.977 5.984.722.381 5.1-7.796-.237-9.422-2.491-1.137-7.35-.206-7.35-.206s-.198 2.12.306 3.164z"/>
            <path fill="#00B3CC" fill-rule="nonzero" d="M84 71s-1.572 4.298-6 2.605L84 71z"/>
            <path fill="#F0939E" fill-rule="nonzero" d="M149.237 143.988s.159 3.193-.218 3.892c-.377.699 4.981-1.883 4.981-1.883l-.456-2.997-4.307.988z"/>
            <path fill="#FFC9D5" fill-rule="nonzero" d="M147.14 136.64s-.622 4.377.753 7.754c.28.695 1.3.732 2.4.413 5.026-1.463 3.484-5.353 3.484-5.353s-.268-3.127-2.413-3.409a8.949 8.949 0 0 0-4.224.595z"/>
            <path fill="#202E4B" fill-rule="nonzero" d="M160 144.836l-5.587-12.525-8.79-9.311-1.623.6 7.684 10.236L154.17 145zM146 148.83l7.618-3.67 6.553-.16s3.15 9.25 1.182 25.003l-11.572.997s1.04-7.268-3.781-22.17z"/>
            <path fill="#202E4B" fill-rule="nonzero" d="M146.155 148.5l-12.286-2.688L132.023 133l-1.621.623c-.147 5.602-.965 10.67.268 15.264 0 0 13.205 4.526 17.33 6.113-.473-2.042-1.105-4.214-1.845-6.5z"/>
            <path fill="#00B3CC" fill-rule="nonzero" d="M154.303 145H157l-3.812-11.44L144 124l7.784 10.044z" opacity=".3"/>
            <path fill="#00B3CC" fill-rule="nonzero" d="M149 162s2.154 8.68 10 8.284l-9.395.716a32.736 32.736 0 0 0-.605-9z"/>
            <path fill="#001F3A" fill-rule="nonzero" d="M157 217h-1.48l-4.52 2h6zM170.497 216l-1.622.35L165 220l6-1.698z"/>
            <path fill="#FFC9D5" fill-rule="nonzero" d="M132.23 133.45l.233-1.084.216-.324.321-.307h-.913L131.19 129l-1.19 1.784.266 1.907.559 1.309zM145 123.486l-1.216-1.713-.982-.773v1.351l-.006.373-.796-.183 1.544 1.459z"/>
            <path fill="#00B3CC" fill-rule="nonzero" d="M153 145s-1.565 4.296-6 2.606l6-2.606z"/>
            <path fill="#273A5E" fill-rule="nonzero" d="M161.743 178L170 215.68l-1.61.32s-7.232-13.232-10.39-23.864l.693-9.778 3.05-4.358z"/>
            <path fill="#3C4D6F" fill-rule="nonzero" d="M149.415 170.994c-1.704 5.458 2.166 33.134 5.681 46.006h1.574l2.266-34.36a13.326 13.326 0 0 0 4.064-5.584c-.137-1.855-.943-4.402-1.91-7.056l-11.675.994z"/>
            <path fill="#E86578" fill-rule="nonzero" d="M147 138s.252 2.708 1.705 4.138c1.453 1.431 1.99 1.508 2.295 2.862v-3.497L147 138z"/>
            <path fill="#131D2F" fill-rule="nonzero" d="M146.66 137.734s.037.873 1.154 2.744c.672 1.12 2.511 1.362 2.63 4.013.05 1.133 3.673.223 4.025-1.239.339-1.604 3.892-6.769-1.15-8.28-1.374-.619-3.207-.619-4.751-.458A6.676 6.676 0 0 1 146 134s.182 2.762.66 3.734z"/>
            <path fill="#00B3CC" fill-rule="nonzero" d="M130.437 134s.42 13.252 1.122 14.01l15.804 4.544L148 155l-17.32-6.005s-1.352-3.798-.243-14.995z" opacity=".3"/>
            <path fill="#00B3CC" fill-rule="nonzero" d="M130 133.623l1.518-.623L133 144c-1.082-6.326-1.375-10.171-3-10.377z"/>
            <path fill="#FB043D" fill-rule="nonzero" d="M247 216.007l-.22 2.993H240l4.964-3zM256.75 213l1.25 2.466-6 3.534 2.838-5.233z"/>
            <path fill="#202E4B" fill-rule="nonzero" d="M252.032 150l-12.03.495-1.002 4.95c0 3.312 1.282 8.015 1.652 16.555h10.116A108.417 108.417 0 0 1 254 154.505L252.032 150z"/>
            <path fill="#3C4D6F" fill-rule="nonzero" d="M253.629 177l-1.177 5.212-.704 1.719-1.47 12.093s5.884 7.715 6.722 17.248l-1.797.728L245 197.203l3.665-14.232L253.63 177z"/>
            <path fill="#283A5E" fill-rule="nonzero" d="M240.666 172.171c.39-2.348-3.84 19.803 5.09 43.829h2.201l2.004-33.388 2.503-1.458 1.536-4.678-2.708-4.298-10.626-.007z"/>
            <path fill="#FFC9D5" fill-rule="nonzero" d="M240.041 138.822s-.908 8.668 5.803 8.156c0 0 3.243-.828 3.154-3.508-.088-2.68-3.665-9.794-8.957-4.648z"/>
            <path fill="#202E4B" fill-rule="nonzero" d="M242 149.988s-2.713-1.288-7.405-6.538c0 0-5.912-7.655-6.871-9.45l-1.724.855s3.375 6.104 6.167 10.634l6.677 9.511 3.156-5.012z"/>
            <path fill="#FFC9D5" fill-rule="nonzero" d="M225.927 134l-.927-3.068 1.6-1.932.632 2.494H228l-.526.672.13.978z"/>
            <path fill="#202E4B" fill-rule="nonzero" d="M249 152.034a70.415 70.415 0 0 0 2.534-12.784s0-6.86-.339-8.903l2.033-.347a51.241 51.241 0 0 1 1.694 9.448l.078 8.562-3.388 4.99-2.612-.966z"/>
            <path fill="#FFC9D5" fill-rule="nonzero" d="M253 130.638l-1.16-3.037L249 127l1.063 2.378-1.042-.73.986 1.641.811.711z"/>
            <path fill="#EA003D" fill-rule="nonzero" d="M240 164s2.222 6.829 7 8h-6.306s-.169-3.403-.694-8z"/>
            <path fill="#141D2F" fill-rule="nonzero" d="M241.442 144.719c1.08.497-1.567 6.375-.708 11.054 2.312 11.054 16.265 8.143 19.266 7.062-1.299-2.456-1.634-5.269-8.611-14.953-2.598-3.605-1.97-8.076-3.226-9.918-1.257-1.843-6.35-3.07-8.697-.492 0 0-2.44 1.327-1.025 3.648 1.415 2.322 1.677 2.997 3 3.599z"/>
            <path fill="#EA003D" fill-rule="nonzero" d="M227.677 133s.36 5.101 4.323 12c-2.203-3.909-4.234-7.651-6-11.107l1.677-.893z"/>
            <path fill="#EA003D" fill-rule="nonzero" d="M232 145l7 8.427-.414 1.573zM250.42 131l1.58 8.881-.97 7.119-1.03-2.008a65.82 65.82 0 0 0 .773-5.16c-.027-3.347-.054-6.252-.353-8.832z" opacity=".3"/>
        </g>
    </g>
</svg>
