<svg xmlns="http://www.w3.org/2000/svg" width="316" height="218" viewBox="0 0 316 218">
    <defs>
        <linearGradient id="a" x1="8.061%" x2="20.666%" y1="-173.79%" y2="-180.918%">
            <stop offset="0%" stop-color="#909CA9"/>
            <stop offset="100%" stop-color="#EDEDEE"/>
        </linearGradient>
        <linearGradient id="b" x1="-32.745%" x2="-14.146%" y1="-761.326%" y2="-761.326%">
            <stop offset="0%" stop-color="#939FAB"/>
            <stop offset="100%" stop-color="#DCDEE1"/>
        </linearGradient>
        <radialGradient id="c" cx="-317.157%" cy="-113.135%" r="12.255%" fx="-317.157%" fy="-113.135%" gradientTransform="matrix(-.69662 -.1811 .12828 -.98346 -5.236 -2.818)">
            <stop offset="0%" stop-color="#EE352C"/>
            <stop offset="100%" stop-color="#A91D22"/>
        </radialGradient>
        <linearGradient id="d" x1="676.232%" x2="590.279%" y1="-1334.318%" y2="-1359.014%">
            <stop offset="0%" stop-color="#159857"/>
            <stop offset="100%" stop-color="#0D7A46"/>
        </linearGradient>
        <linearGradient id="e" x1="681.099%" x2="595.107%" y1="-1333.343%" y2="-1358.051%">
            <stop offset="0%" stop-color="#2CDD93"/>
            <stop offset="100%" stop-color="#13AB63"/>
        </linearGradient>
        <linearGradient id="f" x1="676.079%" x2="590.388%" y1="-1334.161%" y2="-1359.233%">
            <stop offset="0%" stop-color="#14874C"/>
            <stop offset="100%" stop-color="#0A6E3C"/>
        </linearGradient>
        <linearGradient id="g" x1="681.882%" x2="596.189%" y1="-1334.161%" y2="-1359.233%">
            <stop offset="0%" stop-color="#22D885"/>
            <stop offset="100%" stop-color="#1B9457"/>
        </linearGradient>
        <linearGradient id="h" x1="676.079%" x2="590.388%" y1="-1332.348%" y2="-1357.419%">
            <stop offset="0%" stop-color="#164A2C"/>
            <stop offset="100%" stop-color="#113E26"/>
        </linearGradient>
        <linearGradient id="i" x1="681.882%" x2="596.189%" y1="-1332.349%" y2="-1357.421%">
            <stop offset="0%" stop-color="#20C172"/>
            <stop offset="100%" stop-color="#1A7E4B"/>
        </linearGradient>
        <linearGradient id="j" x1="682.02%" x2="596%" y1="-1328.982%" y2="-1353.601%">
            <stop offset="0%" stop-color="#2D6E44"/>
            <stop offset="100%" stop-color="#194B2D"/>
        </linearGradient>
        <linearGradient id="k" x1="677.191%" x2="591.132%" y1="-1329.943%" y2="-1354.574%">
            <stop offset="0%" stop-color="#164E30"/>
            <stop offset="100%" stop-color="#173C27"/>
        </linearGradient>
        <linearGradient id="l" x1="542.681%" x2="441.577%" y1="-1871.729%" y2="-1902.838%">
            <stop offset="0%" stop-color="#0B7C3C"/>
            <stop offset="100%" stop-color="#0A5026"/>
        </linearGradient>
        <linearGradient id="m" x1="438.836%" x2="544.549%" y1="-1885.183%" y2="-1885.183%">
            <stop offset="0%" stop-color="#4C9B6A"/>
            <stop offset="50%" stop-color="#156C37"/>
            <stop offset="100%" stop-color="#29A95F"/>
        </linearGradient>
        <linearGradient id="n" x1="933.025%" x2="1038.867%" y1="-3649.44%" y2="-3649.44%">
            <stop offset="0%" stop-color="#C1CFCF"/>
            <stop offset="100%" stop-color="#FEFEFE"/>
        </linearGradient>
    </defs>
    <g fill="none" fill-rule="evenodd">
        <path fill-rule="nonzero" d="M-34-3h384v224H-34z"/>
        <g transform="translate(-10 -3)">
            <path d="M0 0h336v224H0z"/>
            <ellipse cx="82" cy="210.5" fill="#E9EBEE" fill-rule="nonzero" opacity=".4" rx="15" ry="2.5"/>
            <g fill="#FB043D" fill-rule="nonzero" opacity=".1" transform="translate(169 70)">
                <ellipse cx="83.129" cy="150.161" rx="1" ry="1"/>
                <ellipse cx="74.026" cy="150.161" rx="1" ry="1"/>
                <ellipse cx="64.916" cy="150.161" rx="1" ry="1"/>
                <ellipse cx="55.813" cy="150.161" rx="1" ry="1"/>
                <ellipse cx="46.71" cy="150.161" rx="1" ry="1"/>
                <ellipse cx="37.607" cy="150.161" rx="1" ry="1"/>
                <ellipse cx="28.498" cy="150.161" rx="1" ry="1"/>
                <ellipse cx="19.395" cy="150.161" rx="1" ry="1"/>
                <ellipse cx="10.292" cy="150.161" rx="1" ry="1"/>
                <ellipse cx="1.182" cy="150.161" rx="1" ry="1"/>
                <ellipse cx="83.129" cy="143.046" rx="1" ry="1"/>
                <ellipse cx="74.026" cy="143.046" rx="1" ry="1"/>
                <ellipse cx="64.916" cy="143.046" rx="1" ry="1"/>
                <ellipse cx="55.813" cy="143.046" rx="1" ry="1"/>
                <ellipse cx="46.71" cy="143.046" rx="1" ry="1"/>
                <ellipse cx="37.607" cy="143.046" rx="1" ry="1"/>
                <ellipse cx="28.498" cy="143.046" rx="1" ry="1"/>
                <ellipse cx="19.395" cy="143.046" rx="1" ry="1"/>
                <ellipse cx="10.292" cy="143.046" rx="1" ry="1"/>
                <ellipse cx="1.182" cy="143.046" rx="1" ry="1"/>
                <ellipse cx="83.129" cy="135.931" rx="1" ry="1"/>
                <ellipse cx="74.026" cy="135.931" rx="1" ry="1"/>
                <ellipse cx="64.916" cy="135.931" rx="1" ry="1"/>
                <ellipse cx="55.813" cy="135.931" rx="1" ry="1"/>
                <ellipse cx="46.71" cy="135.931" rx="1" ry="1"/>
                <ellipse cx="37.607" cy="135.931" rx="1" ry="1"/>
                <ellipse cx="28.498" cy="135.931" rx="1" ry="1"/>
                <ellipse cx="19.395" cy="135.931" rx="1" ry="1"/>
                <ellipse cx="10.292" cy="135.931" rx="1" ry="1"/>
                <ellipse cx="1.182" cy="135.931" rx="1" ry="1"/>
                <ellipse cx="83.129" cy="128.816" rx="1" ry="1"/>
                <ellipse cx="74.026" cy="128.816" rx="1" ry="1"/>
                <ellipse cx="64.916" cy="128.816" rx="1" ry="1"/>
                <ellipse cx="55.813" cy="128.816" rx="1" ry="1"/>
                <ellipse cx="46.71" cy="128.816" rx="1" ry="1"/>
                <ellipse cx="37.607" cy="128.816" rx="1" ry="1"/>
                <ellipse cx="28.498" cy="128.816" rx="1" ry="1"/>
                <ellipse cx="19.395" cy="128.816" rx="1" ry="1"/>
                <ellipse cx="10.292" cy="128.816" rx="1" ry="1"/>
                <ellipse cx="1.182" cy="128.816" rx="1" ry="1"/>
                <ellipse cx="83.129" cy="121.701" rx="1" ry="1"/>
                <ellipse cx="74.026" cy="121.701" rx="1" ry="1"/>
                <ellipse cx="64.916" cy="121.701" rx="1" ry="1"/>
                <ellipse cx="55.813" cy="121.701" rx="1" ry="1"/>
                <ellipse cx="46.71" cy="121.701" rx="1" ry="1"/>
                <ellipse cx="37.607" cy="121.701" rx="1" ry="1"/>
                <ellipse cx="28.498" cy="121.701" rx="1" ry="1"/>
                <ellipse cx="19.395" cy="121.701" rx="1" ry="1"/>
                <ellipse cx="10.292" cy="121.701" rx="1" ry="1"/>
                <ellipse cx="1.182" cy="121.701" rx="1" ry="1"/>
                <ellipse cx="83.129" cy="114.586" rx="1" ry="1"/>
                <ellipse cx="74.026" cy="114.586" rx="1" ry="1"/>
                <ellipse cx="64.916" cy="114.586" rx="1" ry="1"/>
                <ellipse cx="55.813" cy="114.586" rx="1" ry="1"/>
                <ellipse cx="46.71" cy="114.586" rx="1" ry="1"/>
                <ellipse cx="37.607" cy="114.586" rx="1" ry="1"/>
                <ellipse cx="28.498" cy="114.586" rx="1" ry="1"/>
                <ellipse cx="19.395" cy="114.586" rx="1" ry="1"/>
                <ellipse cx="10.292" cy="114.586" rx="1" ry="1"/>
                <ellipse cx="1.182" cy="114.586" rx="1" ry="1"/>
                <ellipse cx="83.129" cy="107.471" rx="1" ry="1"/>
                <ellipse cx="74.026" cy="107.471" rx="1" ry="1"/>
                <ellipse cx="64.916" cy="107.471" rx="1" ry="1"/>
                <ellipse cx="55.813" cy="107.471" rx="1" ry="1"/>
                <ellipse cx="46.71" cy="107.471" rx="1" ry="1"/>
                <ellipse cx="37.607" cy="107.471" rx="1" ry="1"/>
                <ellipse cx="28.498" cy="107.471" rx="1" ry="1"/>
                <ellipse cx="19.395" cy="107.471" rx="1" ry="1"/>
                <ellipse cx="10.292" cy="107.471" rx="1" ry="1"/>
                <ellipse cx="1.182" cy="107.471" rx="1" ry="1"/>
                <ellipse cx="83.129" cy="100.356" rx="1" ry="1"/>
                <ellipse cx="74.026" cy="100.356" rx="1" ry="1"/>
                <ellipse cx="64.916" cy="100.356" rx="1" ry="1"/>
                <ellipse cx="55.813" cy="100.356" rx="1" ry="1"/>
                <ellipse cx="46.71" cy="100.356" rx="1" ry="1"/>
                <ellipse cx="37.607" cy="100.356" rx="1" ry="1"/>
                <ellipse cx="28.498" cy="100.356" rx="1" ry="1"/>
                <ellipse cx="19.395" cy="100.356" rx="1" ry="1"/>
                <ellipse cx="10.292" cy="100.356" rx="1" ry="1"/>
                <ellipse cx="1.182" cy="100.356" rx="1" ry="1"/>
                <ellipse cx="83.129" cy="93.241" rx="1" ry="1"/>
                <ellipse cx="74.026" cy="93.241" rx="1" ry="1"/>
                <ellipse cx="64.916" cy="93.241" rx="1" ry="1"/>
                <ellipse cx="55.813" cy="93.241" rx="1" ry="1"/>
                <ellipse cx="46.71" cy="93.241" rx="1" ry="1"/>
                <ellipse cx="37.607" cy="93.241" rx="1" ry="1"/>
                <ellipse cx="28.498" cy="93.241" rx="1" ry="1"/>
                <ellipse cx="19.395" cy="93.241" rx="1" ry="1"/>
                <ellipse cx="10.292" cy="93.241" rx="1" ry="1"/>
                <ellipse cx="1.182" cy="93.241" rx="1" ry="1"/>
                <ellipse cx="83.129" cy="86.126" rx="1" ry="1"/>
                <ellipse cx="74.026" cy="86.126" rx="1" ry="1"/>
                <ellipse cx="64.916" cy="86.126" rx="1" ry="1"/>
                <ellipse cx="55.813" cy="86.126" rx="1" ry="1"/>
                <ellipse cx="46.71" cy="86.126" rx="1" ry="1"/>
                <ellipse cx="37.607" cy="86.126" rx="1" ry="1"/>
                <ellipse cx="28.498" cy="86.126" rx="1" ry="1"/>
                <ellipse cx="19.395" cy="86.126" rx="1" ry="1"/>
                <ellipse cx="10.292" cy="86.126" rx="1" ry="1"/>
                <ellipse cx="1.182" cy="86.126" rx="1" ry="1"/>
                <ellipse cx="83.129" cy="79.005" rx="1" ry="1"/>
                <ellipse cx="74.026" cy="79.005" rx="1" ry="1"/>
                <ellipse cx="64.916" cy="79.005" rx="1" ry="1"/>
                <ellipse cx="55.813" cy="79.005" rx="1" ry="1"/>
                <ellipse cx="46.71" cy="79.005" rx="1" ry="1"/>
                <ellipse cx="37.607" cy="79.005" rx="1" ry="1"/>
                <ellipse cx="28.498" cy="79.005" rx="1" ry="1"/>
                <ellipse cx="19.395" cy="79.005" rx="1" ry="1"/>
                <ellipse cx="10.292" cy="79.005" rx="1" ry="1"/>
                <ellipse cx="1.182" cy="79.005" rx="1" ry="1"/>
                <ellipse cx="83.129" cy="72.424" rx="1" ry="1"/>
                <ellipse cx="74.026" cy="72.424" rx="1" ry="1"/>
                <ellipse cx="64.916" cy="72.424" rx="1" ry="1"/>
                <ellipse cx="55.813" cy="72.424" rx="1" ry="1"/>
                <ellipse cx="46.71" cy="72.424" rx="1" ry="1"/>
                <ellipse cx="37.607" cy="72.424" rx="1" ry="1"/>
                <ellipse cx="28.498" cy="72.424" rx="1" ry="1"/>
                <ellipse cx="19.395" cy="72.424" rx="1" ry="1"/>
                <ellipse cx="10.292" cy="72.424" rx="1" ry="1"/>
                <ellipse cx="1.182" cy="72.424" rx="1" ry="1"/>
                <ellipse cx="83.129" cy="65.309" rx="1" ry="1"/>
                <ellipse cx="74.026" cy="65.309" rx="1" ry="1"/>
                <ellipse cx="64.916" cy="65.309" rx="1" ry="1"/>
                <ellipse cx="55.813" cy="65.309" rx="1" ry="1"/>
                <ellipse cx="46.71" cy="65.309" rx="1" ry="1"/>
                <ellipse cx="37.607" cy="65.309" rx="1" ry="1"/>
                <ellipse cx="28.498" cy="65.309" rx="1" ry="1"/>
                <ellipse cx="19.395" cy="65.309" rx="1" ry="1"/>
                <ellipse cx="10.292" cy="65.309" rx="1" ry="1"/>
                <ellipse cx="1.182" cy="65.309" rx="1" ry="1"/>
                <ellipse cx="83.129" cy="58.194" rx="1" ry="1"/>
                <ellipse cx="74.026" cy="58.194" rx="1" ry="1"/>
                <ellipse cx="64.916" cy="58.194" rx="1" ry="1"/>
                <ellipse cx="55.813" cy="58.194" rx="1" ry="1"/>
                <ellipse cx="46.71" cy="58.194" rx="1" ry="1"/>
                <ellipse cx="37.607" cy="58.194" rx="1" ry="1"/>
                <ellipse cx="28.498" cy="58.194" rx="1" ry="1"/>
                <ellipse cx="19.395" cy="58.194" rx="1" ry="1"/>
                <ellipse cx="10.292" cy="58.194" rx="1" ry="1"/>
                <ellipse cx="1.182" cy="58.194" rx="1" ry="1"/>
                <ellipse cx="83.129" cy="51.079" rx="1" ry="1"/>
                <ellipse cx="74.026" cy="51.079" rx="1" ry="1"/>
                <ellipse cx="64.916" cy="51.079" rx="1" ry="1"/>
                <ellipse cx="55.813" cy="51.079" rx="1" ry="1"/>
                <ellipse cx="46.71" cy="51.079" rx="1" ry="1"/>
                <ellipse cx="37.607" cy="51.079" rx="1" ry="1"/>
                <ellipse cx="28.498" cy="51.079" rx="1" ry="1"/>
                <ellipse cx="19.395" cy="51.079" rx="1" ry="1"/>
                <ellipse cx="10.292" cy="51.079" rx="1" ry="1"/>
                <ellipse cx="1.182" cy="51.079" rx="1" ry="1"/>
                <ellipse cx="83.129" cy="43.964" rx="1" ry="1"/>
                <ellipse cx="74.026" cy="43.964" rx="1" ry="1"/>
                <ellipse cx="64.916" cy="43.964" rx="1" ry="1"/>
                <ellipse cx="55.813" cy="43.964" rx="1" ry="1"/>
                <ellipse cx="46.71" cy="43.964" rx="1" ry="1"/>
                <ellipse cx="37.607" cy="43.964" rx="1" ry="1"/>
                <ellipse cx="28.498" cy="43.964" rx="1" ry="1"/>
                <ellipse cx="19.395" cy="43.964" rx="1" ry="1"/>
                <ellipse cx="10.292" cy="43.964" rx="1" ry="1"/>
                <ellipse cx="1.182" cy="43.964" rx="1" ry="1"/>
                <ellipse cx="83.129" cy="36.849" rx="1" ry="1"/>
                <ellipse cx="74.026" cy="36.849" rx="1" ry="1"/>
                <ellipse cx="64.916" cy="36.849" rx="1" ry="1"/>
                <ellipse cx="55.813" cy="36.849" rx="1" ry="1"/>
                <ellipse cx="46.71" cy="36.849" rx="1" ry="1"/>
                <ellipse cx="37.607" cy="36.849" rx="1" ry="1"/>
                <ellipse cx="28.498" cy="36.849" rx="1" ry="1"/>
                <ellipse cx="19.395" cy="36.849" rx="1" ry="1"/>
                <ellipse cx="10.292" cy="36.849" rx="1" ry="1"/>
                <ellipse cx="1.182" cy="36.849" rx="1" ry="1"/>
                <ellipse cx="83.129" cy="29.734" rx="1" ry="1"/>
                <ellipse cx="74.026" cy="29.734" rx="1" ry="1"/>
                <ellipse cx="64.916" cy="29.734" rx="1" ry="1"/>
                <ellipse cx="55.813" cy="29.734" rx="1" ry="1"/>
                <ellipse cx="46.71" cy="29.734" rx="1" ry="1"/>
                <ellipse cx="37.607" cy="29.734" rx="1" ry="1"/>
                <ellipse cx="28.498" cy="29.734" rx="1" ry="1"/>
                <ellipse cx="19.395" cy="29.734" rx="1" ry="1"/>
                <ellipse cx="10.292" cy="29.734" rx="1" ry="1"/>
                <ellipse cx="1.182" cy="29.734" rx="1" ry="1"/>
                <ellipse cx="83.129" cy="22.619" rx="1" ry="1"/>
                <ellipse cx="74.026" cy="22.619" rx="1" ry="1"/>
                <ellipse cx="64.916" cy="22.619" rx="1" ry="1"/>
                <ellipse cx="55.813" cy="22.619" rx="1" ry="1"/>
                <ellipse cx="46.71" cy="22.619" rx="1" ry="1"/>
                <ellipse cx="37.607" cy="22.619" rx="1" ry="1"/>
                <ellipse cx="28.498" cy="22.619" rx="1" ry="1"/>
                <ellipse cx="19.395" cy="22.619" rx="1" ry="1"/>
                <ellipse cx="10.292" cy="22.619" rx="1" ry="1"/>
                <ellipse cx="1.182" cy="22.619" rx="1" ry="1"/>
                <ellipse cx="83.129" cy="15.504" rx="1" ry="1"/>
                <ellipse cx="74.026" cy="15.504" rx="1" ry="1"/>
                <ellipse cx="64.916" cy="15.504" rx="1" ry="1"/>
                <ellipse cx="55.813" cy="15.504" rx="1" ry="1"/>
                <ellipse cx="46.71" cy="15.504" rx="1" ry="1"/>
                <ellipse cx="37.607" cy="15.504" rx="1" ry="1"/>
                <ellipse cx="28.498" cy="15.504" rx="1" ry="1"/>
                <ellipse cx="19.395" cy="15.504" rx="1" ry="1"/>
                <ellipse cx="10.292" cy="15.504" rx="1" ry="1"/>
                <ellipse cx="1.182" cy="15.504" rx="1" ry="1"/>
                <ellipse cx="83.129" cy="8.389" rx="1" ry="1"/>
                <ellipse cx="74.026" cy="8.389" rx="1" ry="1"/>
                <ellipse cx="64.916" cy="8.389" rx="1" ry="1"/>
                <ellipse cx="55.813" cy="8.389" rx="1" ry="1"/>
                <ellipse cx="46.71" cy="8.389" rx="1" ry="1"/>
                <ellipse cx="37.607" cy="8.389" rx="1" ry="1"/>
                <ellipse cx="28.498" cy="8.389" rx="1" ry="1"/>
                <ellipse cx="19.395" cy="8.389" rx="1" ry="1"/>
                <ellipse cx="10.292" cy="8.389" rx="1" ry="1"/>
                <ellipse cx="1.182" cy="8.389" rx="1" ry="1"/>
                <ellipse cx="83.129" cy="1.274" rx="1" ry="1"/>
                <ellipse cx="74.026" cy="1.274" rx="1" ry="1"/>
                <ellipse cx="64.916" cy="1.274" rx="1" ry="1"/>
                <ellipse cx="55.813" cy="1.274" rx="1" ry="1"/>
                <ellipse cx="46.71" cy="1.274" rx="1" ry="1"/>
                <ellipse cx="37.607" cy="1.274" rx="1" ry="1"/>
                <ellipse cx="28.498" cy="1.274" rx="1" ry="1"/>
                <ellipse cx="19.395" cy="1.274" rx="1" ry="1"/>
                <ellipse cx="10.292" cy="1.274" rx="1" ry="1"/>
                <ellipse cx="1.182" cy="1.274" rx="1" ry="1"/>
            </g>
            <g fill="#FFC916" fill-rule="nonzero" opacity=".3" transform="translate(22 46)">
                <ellipse cx="1.262" cy="1.262" rx="1" ry="1"/>
                <ellipse cx="10.406" cy="1.262" rx="1" ry="1"/>
                <ellipse cx="19.55" cy="1.262" rx="1" ry="1"/>
                <ellipse cx="28.7" cy="1.262" rx="1" ry="1"/>
                <ellipse cx="37.844" cy="1.262" rx="1" ry="1"/>
                <ellipse cx="46.987" cy="1.262" rx="1" ry="1"/>
                <ellipse cx="56.138" cy="1.262" rx="1" ry="1"/>
                <ellipse cx="65.281" cy="1.262" rx="1" ry="1"/>
                <ellipse cx="74.425" cy="1.262" rx="1" ry="1"/>
                <ellipse cx="83.575" cy="1.262" rx="1" ry="1"/>
                <ellipse cx="1.262" cy="8.346" rx="1" ry="1"/>
                <ellipse cx="10.406" cy="8.346" rx="1" ry="1"/>
                <ellipse cx="19.55" cy="8.346" rx="1" ry="1"/>
                <ellipse cx="28.7" cy="8.346" rx="1" ry="1"/>
                <ellipse cx="37.844" cy="8.346" rx="1" ry="1"/>
                <ellipse cx="46.987" cy="8.346" rx="1" ry="1"/>
                <ellipse cx="56.138" cy="8.346" rx="1" ry="1"/>
                <ellipse cx="65.281" cy="8.346" rx="1" ry="1"/>
                <ellipse cx="74.425" cy="8.346" rx="1" ry="1"/>
                <ellipse cx="83.575" cy="8.346" rx="1" ry="1"/>
                <ellipse cx="1.262" cy="15.429" rx="1" ry="1"/>
                <ellipse cx="10.406" cy="15.429" rx="1" ry="1"/>
                <ellipse cx="19.55" cy="15.429" rx="1" ry="1"/>
                <ellipse cx="28.7" cy="15.429" rx="1" ry="1"/>
                <ellipse cx="37.844" cy="15.429" rx="1" ry="1"/>
                <ellipse cx="46.987" cy="15.429" rx="1" ry="1"/>
                <ellipse cx="56.138" cy="15.429" rx="1" ry="1"/>
                <ellipse cx="65.281" cy="15.429" rx="1" ry="1"/>
                <ellipse cx="74.425" cy="15.429" rx="1" ry="1"/>
                <ellipse cx="83.575" cy="15.429" rx="1" ry="1"/>
                <ellipse cx="1.262" cy="22.512" rx="1" ry="1"/>
                <ellipse cx="10.406" cy="22.512" rx="1" ry="1"/>
                <ellipse cx="19.55" cy="22.512" rx="1" ry="1"/>
                <ellipse cx="28.7" cy="22.512" rx="1" ry="1"/>
                <ellipse cx="37.844" cy="22.512" rx="1" ry="1"/>
                <ellipse cx="46.987" cy="22.512" rx="1" ry="1"/>
                <ellipse cx="56.138" cy="22.512" rx="1" ry="1"/>
                <ellipse cx="65.281" cy="22.512" rx="1" ry="1"/>
                <ellipse cx="74.425" cy="22.512" rx="1" ry="1"/>
                <ellipse cx="83.575" cy="22.512" rx="1" ry="1"/>
                <ellipse cx="1.262" cy="29.596" rx="1" ry="1"/>
                <ellipse cx="10.406" cy="29.596" rx="1" ry="1"/>
                <ellipse cx="19.55" cy="29.596" rx="1" ry="1"/>
                <ellipse cx="28.7" cy="29.596" rx="1" ry="1"/>
                <ellipse cx="37.844" cy="29.596" rx="1" ry="1"/>
                <ellipse cx="46.987" cy="29.596" rx="1" ry="1"/>
                <ellipse cx="56.138" cy="29.596" rx="1" ry="1"/>
                <ellipse cx="65.281" cy="29.596" rx="1" ry="1"/>
                <ellipse cx="74.425" cy="29.596" rx="1" ry="1"/>
                <ellipse cx="83.575" cy="29.596" rx="1" ry="1"/>
                <ellipse cx="1.262" cy="36.679" rx="1" ry="1"/>
                <ellipse cx="10.406" cy="36.679" rx="1" ry="1"/>
                <ellipse cx="19.55" cy="36.679" rx="1" ry="1"/>
                <ellipse cx="28.7" cy="36.679" rx="1" ry="1"/>
                <ellipse cx="37.844" cy="36.679" rx="1" ry="1"/>
                <ellipse cx="46.987" cy="36.679" rx="1" ry="1"/>
                <ellipse cx="56.138" cy="36.679" rx="1" ry="1"/>
                <ellipse cx="65.281" cy="36.679" rx="1" ry="1"/>
                <ellipse cx="74.425" cy="36.679" rx="1" ry="1"/>
                <ellipse cx="83.575" cy="36.679" rx="1" ry="1"/>
                <ellipse cx="1.262" cy="43.763" rx="1" ry="1"/>
                <ellipse cx="10.406" cy="43.763" rx="1" ry="1"/>
                <ellipse cx="19.55" cy="43.763" rx="1" ry="1"/>
                <ellipse cx="28.7" cy="43.763" rx="1" ry="1"/>
                <ellipse cx="37.844" cy="43.763" rx="1" ry="1"/>
                <ellipse cx="46.987" cy="43.763" rx="1" ry="1"/>
                <ellipse cx="56.138" cy="43.763" rx="1" ry="1"/>
                <ellipse cx="65.281" cy="43.763" rx="1" ry="1"/>
                <ellipse cx="74.425" cy="43.763" rx="1" ry="1"/>
                <ellipse cx="83.575" cy="43.763" rx="1" ry="1"/>
                <ellipse cx="1.262" cy="50.846" rx="1" ry="1"/>
                <ellipse cx="10.406" cy="50.846" rx="1" ry="1"/>
                <ellipse cx="19.55" cy="50.846" rx="1" ry="1"/>
                <ellipse cx="28.7" cy="50.846" rx="1" ry="1"/>
                <ellipse cx="37.844" cy="50.846" rx="1" ry="1"/>
                <ellipse cx="46.987" cy="50.846" rx="1" ry="1"/>
                <ellipse cx="56.138" cy="50.846" rx="1" ry="1"/>
                <ellipse cx="65.281" cy="50.846" rx="1" ry="1"/>
                <ellipse cx="74.425" cy="50.846" rx="1" ry="1"/>
                <ellipse cx="83.575" cy="50.846" rx="1" ry="1"/>
                <ellipse cx="1.262" cy="57.93" rx="1" ry="1"/>
                <ellipse cx="10.406" cy="57.93" rx="1" ry="1"/>
                <ellipse cx="19.55" cy="57.93" rx="1" ry="1"/>
                <ellipse cx="28.7" cy="57.93" rx="1" ry="1"/>
                <ellipse cx="37.844" cy="57.93" rx="1" ry="1"/>
                <ellipse cx="46.987" cy="57.93" rx="1" ry="1"/>
                <ellipse cx="56.138" cy="57.93" rx="1" ry="1"/>
                <ellipse cx="65.281" cy="57.93" rx="1" ry="1"/>
                <ellipse cx="74.425" cy="57.93" rx="1" ry="1"/>
                <ellipse cx="83.575" cy="57.93" rx="1" ry="1"/>
                <ellipse cx="1.262" cy="65.013" rx="1" ry="1"/>
                <ellipse cx="10.406" cy="65.013" rx="1" ry="1"/>
                <ellipse cx="19.55" cy="65.013" rx="1" ry="1"/>
                <ellipse cx="28.7" cy="65.013" rx="1" ry="1"/>
                <ellipse cx="37.844" cy="65.013" rx="1" ry="1"/>
                <ellipse cx="46.987" cy="65.013" rx="1" ry="1"/>
                <ellipse cx="56.138" cy="65.013" rx="1" ry="1"/>
                <ellipse cx="65.281" cy="65.013" rx="1" ry="1"/>
                <ellipse cx="74.425" cy="65.013" rx="1" ry="1"/>
                <ellipse cx="83.575" cy="65.013" rx="1" ry="1"/>
                <ellipse cx="1.262" cy="72.097" rx="1" ry="1"/>
                <ellipse cx="10.406" cy="72.097" rx="1" ry="1"/>
                <ellipse cx="19.55" cy="72.097" rx="1" ry="1"/>
                <ellipse cx="28.7" cy="72.097" rx="1" ry="1"/>
                <ellipse cx="37.844" cy="72.097" rx="1" ry="1"/>
                <ellipse cx="46.987" cy="72.097" rx="1" ry="1"/>
                <ellipse cx="56.138" cy="72.097" rx="1" ry="1"/>
                <ellipse cx="65.281" cy="72.097" rx="1" ry="1"/>
                <ellipse cx="74.425" cy="72.097" rx="1" ry="1"/>
                <ellipse cx="83.575" cy="72.097" rx="1" ry="1"/>
            </g>
            <path stroke="#BEC3CE" stroke-dasharray="1.471" stroke-width=".732" d="M80 189.5h157"/>
            <path stroke="#BEC3CE" stroke-width=".732" d="M56.5 25v1"/>
            <path stroke="#BEC3CE" stroke-dasharray="1.464" stroke-width=".732" d="M57 28v22.82c0 5.179 4.192 9.378 9.365 9.381h34.27a9.36 9.36 0 0 1 6.624 2.748A9.38 9.38 0 0 1 110 69.582V130"/>
            <path stroke="#BEC3CE" stroke-width=".732" d="M109.5 131v1M110 91.5h-1"/>
            <path stroke="#BEC3CE" stroke-dasharray="1.457" stroke-width=".732" d="M108 92H76.343a9.52 9.52 0 0 0-6.712 2.764 9.4 9.4 0 0 0-2.777 6.672v41.58c0 4.41-3.597 7.984-8.034 7.984H54"/>
            <path stroke="#BEC3CE" stroke-width=".732" d="M53 150.5h-1M164.5 124v-1"/>
            <path stroke="#BEC3CE" stroke-dasharray="1.464" stroke-width=".732" d="M164 121V40.424c0-5.197 4.23-9.414 9.456-9.424H220"/>
            <path stroke="#BEC3CE" stroke-width=".732" d="M221 31.5h1M138.5 124v-1"/>
            <path stroke="#BEC3CE" stroke-dasharray="1.478" stroke-width=".732" d="M138.5 121V53"/>
            <path stroke="#BEC3CE" stroke-width=".732" d="M138.5 52v-1M164 74.5h1"/>
            <path stroke="#BEC3CE" stroke-dasharray="1.471" stroke-width=".732" d="M166 74h96.267a9.475 9.475 0 0 0 6.686-2.765 9.409 9.409 0 0 0 2.766-6.667V51.413c.007-5.198 4.236-9.41 9.453-9.413H288"/>
            <path stroke="#BEC3CE" stroke-width=".732" d="M289 42.5h1M252.5 74v1"/>
            <path stroke="#BEC3CE" stroke-dasharray="1.471" stroke-width=".732" d="M253 77v40.565a9.485 9.485 0 0 0 2.728 6.671A9.267 9.267 0 0 0 262.32 127H287"/>
            <path stroke="#BEC3CE" stroke-width=".732" d="M288 127.5h1M212.5 74v1"/>
            <path stroke="#BEC3CE" stroke-dasharray="1.492" stroke-width=".732" d="M212.5 77v49"/>
            <path stroke="#BEC3CE" stroke-width=".732" d="M212.5 127v1M234 162.5h1"/>
            <path stroke="#BEC3CE" stroke-dasharray="1.485" stroke-width=".732" d="M237 162h40.56a9.37 9.37 0 0 1 6.677 2.818A9.687 9.687 0 0 1 287 171.61V178"/>
            <path stroke="#BEC3CE" stroke-width=".732" d="M286.5 179v1"/>
            <rect width="36" height="36" x="120" y="25" fill="#F6F7F8" fill-rule="nonzero" rx="10.83"/>
            <rect width="36" height="36" x="39" y="3" fill="#F6F7F8" fill-rule="nonzero" rx="10.83"/>
            <rect width="36" height="36" x="211" y="13" fill="#F6F7F8" fill-rule="nonzero" rx="10.83"/>
            <rect width="36" height="36" x="290" y="25" fill="#F6F7F8" fill-rule="nonzero" rx="10.83"/>
            <rect width="36" height="36" x="283" y="109" fill="#F6F7F8" fill-rule="nonzero" rx="10.83"/>
            <rect width="36" height="36" x="269" y="179" fill="#F6F7F8" fill-rule="nonzero" rx="10.83"/>
            <rect width="42" height="42" x="10" y="126" fill="#F6F7F8" fill-rule="nonzero" rx="10.83"/>
            <path fill="#00A1E0" fill-rule="nonzero" d="M54.04 13.201a5.083 5.083 0 0 1 3.646-1.557 5.132 5.132 0 0 1 4.461 2.614 6.241 6.241 0 0 1 2.521-.531 6.305 6.305 0 0 1 5.679 3.462 6.163 6.163 0 0 1-.659 6.562 6.336 6.336 0 0 1-6.256 2.293c-1.189 2.074-3.806 2.877-5.975 1.831A5.206 5.206 0 0 1 52.555 31c-2.126-.047-4.01-1.369-4.756-3.337a4.375 4.375 0 0 1-.988.104c-2.191-.035-4.091-1.506-4.65-3.6a4.807 4.807 0 0 1 2.252-5.395c-1.138-2.578-.145-5.59 2.311-7.01s5.599-.802 7.316 1.44"/>
            <path fill="#FFF" fill-rule="nonzero" d="M46 21.59v.069c.053.042.109.08.167.111.266.16.565.24.867.23.62 0 .966-.355.966-.925 0-.527-.415-.694-.811-.854h-.05c-.29-.104-.55-.201-.55-.416 0-.188.148-.32.383-.32.263.005.522.078.756.215 0 0 .055.042.074 0l.124-.368a.069.069 0 0 0 0-.076 1.596 1.596 0 0 0-.849-.25h-.08a.771.771 0 0 0-.636.221.979.979 0 0 0-.287.675c0 .562.421.743.811.868h.062c.285.097.533.18.533.41 0 .201-.161.354-.415.354a1.295 1.295 0 0 1-.768-.243l-.099-.07h-.08L46 21.59zM55 21.59v.069a.86.86 0 0 0 .161.111c.267.16.567.24.87.23.621 0 .969-.355.969-.925 0-.527-.416-.694-.807-.854h-.056c-.292-.104-.547-.201-.547-.416 0-.188.15-.32.379-.32.264.005.524.078.758.215 0 0 .056.042.08 0 .025-.041.106-.333.118-.368a.068.068 0 0 0 0-.076 1.604 1.604 0 0 0-.85-.25h-.063a.775.775 0 0 0-.638.221.977.977 0 0 0-.287.675c0 .562.422.743.814.868h.062c.292.097.534.18.534.41 0 .201-.162.354-.416.354-.273.004-.54-.08-.77-.243l-.1-.07a.053.053 0 0 0-.04-.019.053.053 0 0 0-.04.02l-.112.367H55zM60.524 20.503a1.75 1.75 0 0 1-.128.745c-.09.174-.24.273-.399.26-.158.014-.31-.085-.399-.26a1.755 1.755 0 0 1-.122-.745 1.75 1.75 0 0 1 .128-.744c.088-.176.24-.274.399-.26.157-.013.309.085.399.26.094.227.139.485.127.744m.415-.594a1.432 1.432 0 0 0-.19-.471.94.94 0 0 0-.312-.322.858.858 0 0 0-.44-.116.83.83 0 0 0-.44.116.905.905 0 0 0-.317.322c-.083.14-.146.3-.184.471a2.878 2.878 0 0 0 0 1.182c.038.172.1.332.184.471.085.14.194.25.318.322a.83.83 0 0 0 .44.116c.15.002.3-.037.44-.116a.94.94 0 0 0 .312-.322c.087-.137.152-.298.189-.471a3.136 3.136 0 0 0 0-1.182M65.863 21.417c-.009-.028-.036-.043-.061-.034a.895.895 0 0 1-.227.075c-.09.007-.18.007-.27 0a.7.7 0 0 1-.562-.232 1.144 1.144 0 0 1-.215-.749 1.32 1.32 0 0 1 .19-.715.622.622 0 0 1 .545-.266c.176-.005.352.022.52.082 0 0 .037 0 .055-.04l.123-.375V19.1a1.79 1.79 0 0 0-.33-.095 2.752 2.752 0 0 0-.368 0 1.18 1.18 0 0 0-.545.123c-.15.072-.286.179-.398.313-.106.14-.187.302-.238.477-.052.19-.08.387-.08.585-.02.397.1.787.33 1.09.254.286.608.433.968.402.236.001.47-.045.692-.136a.06.06 0 0 0 0-.062l-.123-.374-.006-.007z"/>
            <path fill="#FFF" fill-rule="nonzero" d="M66.51 20.195c.014-.154.054-.303.117-.436.092-.177.25-.278.417-.267.162-.01.317.091.405.267.06.133.093.283.096.436H66.51zm1.441-.389a1.335 1.335 0 0 0-.181-.43.893.893 0 0 0-.278-.266.829.829 0 0 0-.416-.11.89.89 0 0 0-.475.117 1.08 1.08 0 0 0-.337.328c-.09.14-.157.303-.197.477-.09.388-.09.8 0 1.188.041.175.112.336.208.471.102.135.226.24.363.307.172.076.352.113.534.11a1.26 1.26 0 0 0 .731-.185v-.088l-.096-.342a.036.036 0 0 0-.053 0c-.188.1-.39.146-.593.137a.58.58 0 0 1-.496-.219 1.032 1.032 0 0 1-.171-.614h1.446s.043 0 .043-.048c.033-.267.018-.54-.043-.799l.011-.034zM53.509 20.196c.014-.154.055-.303.118-.437.09-.177.247-.278.412-.266.164-.013.32.09.407.266.06.134.093.284.097.437h-1.034zm1.446-.39a1.333 1.333 0 0 0-.187-.43.817.817 0 0 0-.69-.376.917.917 0 0 0-.483.117 1.009 1.009 0 0 0-.332.328 1.43 1.43 0 0 0-.199.478c-.085.389-.085.8 0 1.189.044.175.117.336.215.471.1.137.225.243.364.307.413.169.86.142 1.259-.075 0 0 .032 0 0-.089l-.092-.341a.044.044 0 0 0-.058 0c-.189.1-.391.146-.595.137a.527.527 0 0 1-.491-.212.895.895 0 0 1-.179-.622h1.457c.022 0 .04-.02.043-.048a2.64 2.64 0 0 0-.043-.799l.011-.034zM49.637 21.395a.484.484 0 0 1-.09-.109.561.561 0 0 1-.046-.231.426.426 0 0 1 .142-.354.6.6 0 0 1 .443-.136c.141.005.282.021.421.048v.836a3.368 3.368 0 0 1-.415.068.61.61 0 0 1-.455-.109m.614-1.298h-.238c-.129 0-.257.018-.381.054a.893.893 0 0 0-.546.483c-.059.132-.088.279-.086.428-.004.146.022.29.074.422a.733.733 0 0 0 .512.449c.134.036.272.054.41.054.158-.002.315-.018.471-.048l.387-.088h.108c.023-.007.038-.033.034-.061v-1.727a1.144 1.144 0 0 0-.244-.816.93.93 0 0 0-.683-.259 2.049 2.049 0 0 0-.409.048c-.168.037-.33.109-.478.21a.063.063 0 0 0 0 .069l.108.353a.032.032 0 0 0 .026.014c.01 0 .02-.005.026-.014.21-.12.438-.182.67-.183.135-.01.268.03.381.115a.555.555 0 0 1 .131.442v.075h-.256M63.968 19.126v-.063a1.958 1.958 0 0 0-.36-.057 1.175 1.175 0 0 0-.56.078.985.985 0 0 0-.368.24v-.233c0-.031-.028-.056-.064-.056h-.56a.06.06 0 0 0-.042.016.045.045 0 0 0-.013.04v2.853c0 .03.028.056.064.056h.567c.036 0 .064-.025.064-.056v-1.41c-.005-.168.02-.337.072-.5a.694.694 0 0 1 .192-.28.746.746 0 0 1 .272-.142c.094-.024.19-.036.288-.035.08-.007.16-.007.24 0 .038-.002.07-.024.08-.056 0-.085.144-.346.16-.402M58.977 18.05l-.17-.045a1.262 1.262 0 0 0-.233 0 .964.964 0 0 0-.723.264c-.191.216-.31.485-.34.772v.113h-.384a.057.057 0 0 0-.057.05l-.063.357c0 .032 0 .05.05.05h.334l-.384 2.134c-.02.143-.054.284-.1.42a.84.84 0 0 1-.12.239.314.314 0 0 1-.157.125.631.631 0 0 1-.201 0h-.227a.044.044 0 0 0-.063 0l-.126.352a.044.044 0 0 0 0 .062l.158.05c.083.01.168.01.251 0a1.18 1.18 0 0 0 .416-.062.837.837 0 0 0 .32-.22c.096-.113.17-.243.22-.383.066-.186.117-.376.152-.57l.384-2.171h.56a.05.05 0 0 0 .056-.05l.07-.352c0-.038 0-.057-.057-.057h-.522c.016-.13.046-.258.088-.382a.483.483 0 0 1 .12-.182.39.39 0 0 1 .144-.088c.06-.01.122-.01.182 0h.303l.132-.358a.044.044 0 0 0 0-.056M51.935 21.946c0 .028-.03.05-.07.054h-.72c-.044 0-.08-.024-.08-.054v-3.892c0-.03.036-.054.08-.054h.72c.04.003.07.026.07.054v3.892z"/>
            <path fill="url(#a)" fill-rule="nonzero" d="M141.866 42.037l-5.49 1.87-4.801 2.161-1.342.362c-.342.336-.702.673-1.092 1.009-.39.336-.824.716-1.123.966a8.495 8.495 0 0 0-1.098 1.109 5.009 5.009 0 0 0-.805 1.395c-.23.714-.11 1.498.323 2.106a7.337 7.337 0 0 0 3.014 2.318c.862.364 1.75.666 2.653.903 1.854.408 3.737.66 5.63.754.245.013.49.013.733 0 .2-.336.379-.683.537-1.04a26.957 26.957 0 0 0 1.958-5.29c.252-1.207.42-2.432.5-3.663.03-.412.043-1.795 0-2.262a17.275 17.275 0 0 0-.213-2 .713.713 0 0 1 0-.174 6.99 6.99 0 0 1 .75-.23l-.14-.331.006.037zm-1.257.754c.125.704.197 1.416.214 2.131.01.097.01.196 0 .293-.037 0-.708-.405-1.22-.717-.513-.311-1.22-.803-1.33-.903-.11-.1-.043-.037.299-.156.616-.218 1.988-.666 2.037-.666v.018zm-2.812.941c.13.049.251.118.36.206a26.579 26.579 0 0 0 2.531 1.433c.153.068.171.043-.183.286a18.084 18.084 0 0 1-2.867 1.576l-.378.162a.698.698 0 0 1 .049-.23 12.63 12.63 0 0 0 .445-2.997c0-.424 0-.424.043-.436zm-.61.23c.026.415.026.832 0 1.247a11.93 11.93 0 0 1-.384 1.869l-.098.299a7.456 7.456 0 0 1-.775-.773c-.3-.348-.557-.73-.768-1.14a3.5 3.5 0 0 1-.232-.58c.067-.05 2.263-.915 2.281-.897l-.024-.024zm-2.727 1.09c.026.05.046.103.061.157.18.443.413.862.695 1.246.292.387.621.744.983 1.065l.207.18-.647.281c-.787.311-1.647.623-2.629.94l-.707.231c-.037 0 0 0 .085-.18a24.404 24.404 0 0 0 1.647-3.39c.067-.187.14-.373.153-.417a.155.155 0 0 1 .091-.112h.073-.012zm-.836.356s-.201.467-.408.885a33.556 33.556 0 0 1-1.44 2.56l-.208.337s-.03 0-.097-.113a3.99 3.99 0 0 1-.317-.99 3.874 3.874 0 0 1 0-1.246c.055-.262.048-.256.177-.324.53-.274 2.257-1.103 2.275-1.084l.018-.025zm7.193.299v.18a23.653 23.653 0 0 1-.244 3.203c0 .162-.05.299-.05.305l-.262-.075a10.794 10.794 0 0 1-1.921-.84 9.19 9.19 0 0 1-.976-.624l.384-.211c.783-.414 1.545-.87 2.282-1.365.256-.174.61-.46.72-.536l.067-.05v.013zm-10.371 1.246v.187c0 .15-.037.318-.049.46-.036.594.09 1.185.366 1.708.055.105.104.213.147.324 0 0-2.788.853-3.66 1.096l-.5.144s-.037 0 0-.069a4.545 4.545 0 0 1 1.22-2.137c.397-.431.86-.793 1.372-1.071.427-.25 1.08-.623 1.128-.623.05 0 0 0 0 0l-.024-.019zm6.503 1.19c.08.033.155.075.226.125 1.005.56 2.08.98 3.196 1.246h.098l-.134.074c-.556.318-2.38 1.09-4.27 1.807l-.61.224h-.098l.17-.336a20.927 20.927 0 0 0 1.428-3.015l.055-.156-.061.031zm-.659.224s-.03.094-.073.193a26.397 26.397 0 0 1-1.446 2.978l-.287.505-.28-.168a8.63 8.63 0 0 1-2.184-1.87l-.073-.093.378-.106a26.64 26.64 0 0 0 3.66-1.295l.305-.144zm4.179 1.458c-.1.545-.229 1.083-.384 1.614-.147.53-.269.947-.5 1.688l-.19.623h-.055a17.364 17.364 0 0 1-3.391-.978 10.245 10.245 0 0 1-.733-.33c.177-.107.363-.196.556-.268 1.897-.847 3.867-1.813 4.544-2.224a.696.696 0 0 1 .153-.081v-.044zm-9.51.312s-.525.785-1.27 1.869l-.67.965-.379.567-.177.28-.183-.161a6.85 6.85 0 0 1-.774-.81c-.331-.4-.57-.87-.702-1.377-.043-.206-.043-.305 0-.318l2.215-.536 1.494-.355.445-.106v-.018zm.53.205l.134.156a7.777 7.777 0 0 0 1.959 1.632c.078.045.153.095.225.15-.03 0-2.58.947-3.757 1.364l-1.22.43-.086-.056-.073-.056.116-.175c.396-.579.884-1.246 1.958-2.535l.738-.91h.006zm3.33 2.436s.184.063.41.15c.507.192 1.024.354 1.55.486.77.194 1.552.333 2.342.417h.122c-.019 0-.64.23-1.092.374-.72.23-2.91.89-4.691 1.414l-.61.18a.348.348 0 0 1-.183-.043c.067-.1.14-.195.22-.286a24.934 24.934 0 0 0 1.695-2.324l.256-.393-.018.025zm-.737 0s-.287.492-.805 1.327l-.556.891-.28.467-.122.218h-.061a25.456 25.456 0 0 1-1.483-.542 8.619 8.619 0 0 1-.976-.454 4.052 4.052 0 0 1-.713-.461l1.262-.356c1.83-.504 2.843-.797 3.508-1.015.074-.026.15-.047.226-.062v-.013zm5.197 1.246c0 .044-.659 1.957-.903 2.56-.054.138-.073.175-.103.17-.03-.007-1.05-.144-1.647-.238-1.037-.162-2.782-.473-3.221-.573h-.098l.61-.15c1.336-.305 1.977-.467 2.63-.672a19.12 19.12 0 0 0 2.44-.966c.085-.047.175-.085.268-.112l.024-.019z"/>
            <path fill="url(#b)" fill-rule="nonzero" d="M136.199 29c-.095 0-1.624.504-2.612.872-1.05.369-2.054.84-2.997 1.406a2.13 2.13 0 0 0-.585.538.463.463 0 0 0 0 .135l.579.51 1.372.409 3.267.545 3.733.585.044-.299h-.038l-.49-.07-.101-.164a31.164 31.164 0 0 1-1.392-2.558 12.918 12.918 0 0 1-.63-1.616c-.075-.27-.08-.287-.125-.293h-.025zm-.07.205c.02.081.035.163.045.246.072.574.211 1.14.415 1.686.158.44.158.416 0 .363-.44-.111-2.404-.427-3.833-.585l-.422-.059s1.032-.527 1.492-.726c.585-.252 2.21-.884 2.329-.902l-.025-.023zm-4.148 1.791l.164.053c1.464.386 2.962.652 4.476.796h.264a1.99 1.99 0 0 1-.27.13c-.63.286-1.26.632-1.75.9-.088.058-.18.107-.278.147h-.377l-.428-.392c-.756-.685-1.354-1.212-1.58-1.417l-.22-.217zm-.176.13l.63.702c.327.386.667.767.736.849l.132.158s-.88-.14-1.334-.24a9.709 9.709 0 0 1-.95-.234l-.24-.07v-.053c0-.27.372-.674.988-1.078l.057-.035h-.019zm5.156.96s.037.035.094.14c.145.299.598 1.112.711 1.265.038.052.095.058-.51-.035-1.46-.223-1.932-.293-1.932-.3a.3.3 0 0 1 .1-.058c.466-.245.906-.53 1.316-.849l.208-.158.013-.006z"/>
            <path fill="url(#c)" fill-rule="nonzero" d="M130.247 32.02a.44.44 0 0 0 0 .384c.101.188.24.354.405.487 0 0 1.899 1.923 2.158 2.173a6.134 6.134 0 0 1 1.57 4.16 6.822 6.822 0 0 1-.684 3.154C132.797 44.365 130.9 46.564 128 49l.43-.147c.49-.341 1.002-.65 1.532-.924a55.09 55.09 0 0 1 7.146-3.205 87.604 87.604 0 0 1 14.5-3.936l.392-.064-.057-.096c-.283-.45-.591-.882-.924-1.295a10.32 10.32 0 0 0-3.07-2.564 22.587 22.587 0 0 0-6.67-2.269 69.863 69.863 0 0 0-2.608-.449 246.43 246.43 0 0 1-4.671-.775 40.78 40.78 0 0 1-1.766-.327c-.387-.083-.77-.185-1.145-.308-.317-.128-.766-.25-.861-.641l.019.02zm1.152 1.095l.164.052c.165.055.376.12.633.192l.57.154.48.128c0 .032.47 1.449.634 1.994.038.124.07.25.095.378a.77.77 0 0 1-.108-.173 9.201 9.201 0 0 0-2.234-2.564 1.637 1.637 0 0 1-.209-.173l-.025.012zm2.126.597l.234.038c.735.167 2.057.423 2.9.564.085.011.17.03.252.058 0 0-.05.045-.114.077-.063.032-.721.423-.91.551-.44.29-.848.623-1.222.994l-.235.23s0-.077-.05-.166a14.22 14.22 0 0 0-.772-2.148 1.349 1.349 0 0 1-.089-.205l.006.007zm3.747.724c.076.154.13.318.158.487.162.656.232 1.331.21 2.006a3.245 3.245 0 0 1-.032.379v.045l-.222-.077a78.936 78.936 0 0 0-1.86-.558 6.576 6.576 0 0 1-.634-.199c.24-.273.496-.532.766-.775a20.34 20.34 0 0 1 1.658-1.282l-.044-.026zm.298.045s1.79.295 2.6.455c.602.115 1.476.301 1.526.32.05.02-.063.065-.354.2-.986.434-1.933.955-2.83 1.557l-.41.27a1.636 1.636 0 0 1 0-.277 6.158 6.158 0 0 0-.47-2.384l-.062-.141zm4.588.916a3.554 3.554 0 0 1-.095.584 11.331 11.331 0 0 1-1.088 2.532 3.59 3.59 0 0 1-.184.295 1.343 1.343 0 0 1-.26-.141 14.543 14.543 0 0 0-1.696-.84l-.329-.141a23.635 23.635 0 0 1 2.102-1.41c.582-.36 1.531-.891 1.55-.879zm.33.058a25.917 25.917 0 0 1 4.183 1.43l.316.147-.221.051c-1.701.387-3.369.91-4.988 1.564l-.246.097a.794.794 0 0 1 .088-.225 8.88 8.88 0 0 0 .836-2.916c0-.084 0-.148.031-.148zm-7.861 1.82c.316.058.628.133.936.225.494.141 1.545.494 1.545.52l-.254.23c-.57.474-1.113.98-1.765 1.622l-.367.34v-.065c.096-.879.077-1.767-.057-2.64a1 1 0 0 1-.038-.231zm12.658 0s-.279.462-.456.725c-.26.378-.633.878-1.506 1.968l-1.133 1.455-.317.404a1.168 1.168 0 0 1-.12-.18A9.13 9.13 0 0 0 142 39.724c-.133-.109-.272-.23-.323-.262a.832.832 0 0 1-.088-.077s.74-.334 1.297-.558c.975-.404 2.31-.891 3.31-1.199a19.194 19.194 0 0 1 1.089-.32v-.032zm.335.09a.812.812 0 0 1 .247.122 14.574 14.574 0 0 1 2.892 2.199c.228.23.798.827.792.827l-.437.038c-2.166.195-4.314.56-6.424 1.09l-.298.064s.165-.173.374-.378c1.1-.99 1.994-2.193 2.626-3.539.102-.217.184-.397.197-.41l.031-.013zm-9.639 1c.063 0 .633.276 1.05.494.418.218.975.513 1 .538-.147.09-.3.17-.455.244a30.82 30.82 0 0 0-2.24 1.244l-.38.237.101-.237c.402-.759.698-1.57.88-2.41 0-.071 0-.11.044-.11zm-.563.103s-.133.551-.222.846a10.647 10.647 0 0 1-.766 1.776c-.07.128-.177.307-.227.404l-.114.18-.26-.225a3.104 3.104 0 0 0-.804-.603 1.262 1.262 0 0 1-.209-.122s.741-.711 1.31-1.205a32.771 32.771 0 0 1 1.266-1.038l.026-.013zm3.443 1.436l.209.134a16.3 16.3 0 0 1 1.493 1.122c.247.205.722.641.817.744l.057.058-.355.102a60.719 60.719 0 0 0-5.297 1.718l-.38.135s-.05 0 .399-.398a19.162 19.162 0 0 0 2.905-3.384l.152-.231zm-.905.224s-.583.853-.937 1.334a59.637 59.637 0 0 1-1.696 2.147c-.222.256-.405.474-.412.474-.006 0 0-.057 0-.16a3.692 3.692 0 0 0-.367-1.577c-.101-.199-.12-.25-.095-.27.026-.018 1.342-.8 2.14-1.236.531-.289 1.373-.718 1.386-.712h-.02zm-5.469 1.36c.077.031.151.07.222.115.264.144.514.313.747.506-.076.081-.16.152-.253.212-.412.294-1.032.775-1.393 1.07-.36.295-.399.314-.354.25a8.25 8.25 0 0 0 .582-1.013 8.59 8.59 0 0 0 .36-.916.697.697 0 0 1 .09-.225zm1.456 1.153s.05.038.165.212c.252.386.418.824.487 1.282v.09l-.589.23a50.28 50.28 0 0 0-2.702 1.135l-.722.352a4.722 4.722 0 0 1-.386.186l.298-.224c1.207-.87 2.3-1.89 3.253-3.039.095-.109.177-.211.183-.211l.013-.013zm-.67.167c-.25.328-.52.639-.811.93-.806.839-1.71 1.577-2.69 2.198l-.26.167c-.031 0 0 0 .463-.52.284-.314.5-.577.747-.904.116-.165.262-.306.43-.416.62-.442 2.089-1.455 2.101-1.442l.02-.013z"/>
            <rect width="23" height="14" x="218" y="24" fill="#ED1C24" fill-rule="nonzero" rx="7"/>
            <rect width="14" height="6" x="222" y="28" fill="#FFF" fill-rule="nonzero" rx="3"/>
            <path fill="#00546B" fill-rule="nonzero" d="M317.262 49.015a6.877 6.877 0 0 0-2.904.425c-.227.094-.614.094-.614.381.117.125.136.325.24.487.203.356.467.67.78.931.313.244.614.487.957.706.584.362 1.228.575 1.812.943.331.213.657.487.988.718.166.12.27.319.479.394v-.044c-.104-.137-.135-.337-.24-.487-.104-.15-.3-.294-.448-.443a7.366 7.366 0 0 0-1.56-1.543c-.478-.331-1.528-.794-1.718-1.356h-.03a5.9 5.9 0 0 0 1.03-.243c.51-.138.977-.107 1.499-.244.24-.062.479-.137.718-.212v-.138c-.27-.275-.46-.624-.75-.9a20.336 20.336 0 0 0-2.455-1.873c-.467-.306-1.068-.506-1.56-.762-.177-.094-.478-.138-.613-.288a6.064 6.064 0 0 1-.614-1.174 35.817 35.817 0 0 1-1.228-2.655 15.123 15.123 0 0 0-.762-1.736 15.26 15.26 0 0 0-5.759-5.734 7.278 7.278 0 0 0-1.921-.625c-.375 0-.75-.044-1.124-.063a5.794 5.794 0 0 1-.687-.53c-.854-.55-3.07-1.737-3.684-.17-.405.994.614 1.968.945 2.5.29.354.545.737.762 1.142.104.257.135.531.239.806.22.696.48 1.378.78 2.043.161.328.346.643.552.943.123.169.332.244.375.519-.164.363-.28.748-.344 1.143a6.802 6.802 0 0 0 .424 5.11c.24.38.81 1.249 1.571.899.762-.35.522-1.143.719-1.874.049-.181 0-.306.104-.425.209.425.424.837.614 1.25a8.628 8.628 0 0 0 1.94 2.023c.356.275.614.75 1.093.918v-.05a1.79 1.79 0 0 0-.344-.306 7.175 7.175 0 0 1-.786-.893 19.841 19.841 0 0 1-1.706-2.792c-.24-.475-.449-.993-.614-1.462-.092-.187-.092-.462-.246-.55a5.798 5.798 0 0 0-.718 1.037 8.786 8.786 0 0 0-.418 2.3h-.061c-.48-.126-.645-.625-.823-1.05a6.743 6.743 0 0 1-.135-4.073c.104-.318.553-1.324.375-1.63-.179-.306-.387-.456-.553-.687a6.026 6.026 0 0 1-.54-.975c-.363-.856-.54-1.799-.927-2.655-.219-.409-.47-.8-.75-1.168a7.55 7.55 0 0 1-.865-1.143c-.074-.168-.178-.443-.055-.624a.241.241 0 0 1 .208-.2c.197-.163.75.05.946.137.518.2 1.014.455 1.48.762.208.156.435.444.706.519h.313c.479.106 1.019.03 1.467.168.76.26 1.487.614 2.161 1.056a13.43 13.43 0 0 1 4.685 5.24c.178.35.251.675.417 1.038.32.75.706 1.511 1.02 2.242.275.72.632 1.406 1.062 2.043.227.318 1.123.487 1.528.624.353.123.7.265 1.038.425.51.319 1.02.687 1.498 1.037.24.181.989.562 1.031.868z"/>
            <path fill="#00546B" fill-rule="nonzero" d="M302.511 36a2.138 2.138 0 0 0-.511.053h.026c.121.153.254.298.398.436.102.17.19.34.286.511h.026a.57.57 0 0 0 .26-.533c-.071-.074-.086-.148-.148-.222-.061-.074-.235-.162-.337-.245z"/>
            <path fill="url(#d)" fill-rule="nonzero" d="M303 118h-8.02a.974.974 0 0 0-.98.968V123h9v-5z"/>
            <path fill="url(#e)" fill-rule="nonzero" d="M311 123v-4.032a.974.974 0 0 0-.974-.968H302v5h9z"/>
            <path fill="#2AEE9C" fill-rule="nonzero" d="M302.072 123.075H302h9v.85h-9 .072z"/>
            <path fill="#17AE62" fill-rule="nonzero" d="M294 123.075h9v.85h-9z"/>
            <path fill="url(#f)" fill-rule="nonzero" d="M303 123h-9v5h9z"/>
            <path fill="url(#g)" fill-rule="nonzero" d="M311 128v-5h-9v5h.007z"/>
            <path fill="#1EC375" fill-rule="nonzero" d="M302.072 127.07H302h9v.86h-9 .072z"/>
            <path fill="#168E50" fill-rule="nonzero" d="M294 127.07h9v.86h-9z"/>
            <path fill="url(#h)" fill-rule="nonzero" d="M303 127h-9v5h9z"/>
            <path fill="url(#i)" fill-rule="nonzero" d="M311 132v-5h-9v5h.007z"/>
            <path fill="url(#j)" fill-rule="nonzero" d="M302 137h8.026a.974.974 0 0 0 .974-.968V132h-9v5z"/>
            <path fill="url(#k)" fill-rule="nonzero" d="M294.98 137H303v-5h-9v4.032c0 .535.439.968.98.968z"/>
            <path fill="url(#l)" fill-rule="nonzero" d="M288.889 133h9.222a.889.889 0 0 0 .889-.882v-9.23a.889.889 0 0 0-.889-.888h-9.222a.889.889 0 0 0-.889.889v9.247a.889.889 0 0 0 .889.864z"/>
            <path fill="url(#m)" fill-rule="nonzero" d="M288.9 132.988h9.212a.888.888 0 0 0 .888-.882v-9.218a.888.888 0 0 0-.888-.888c.481 0 .872.388.876.87v9.255a.875.875 0 0 1-.876.875h-9.224a.881.881 0 0 1-.876-.875v-9.244a.875.875 0 0 1 .876-.869.888.888 0 0 0-.888.888v9.225c.013.485.414.87.9.863z"/>
            <path fill="url(#n)" fill-rule="nonzero" d="M291.147 125h1.362l1.015 2.247 1.155-2.247h1.256l-1.668 2.987L296 131h-1.297l-1.18-2.343-1.185 2.343H291l1.816-3.013z"/>
            <path fill="#008CDB" fill-rule="nonzero" d="M290.045 199.153a1.887 1.887 0 0 0-1.604 1.02h-9.97c-1.724 0-3.12-1.412-3.12-3.156 0-1.743 1.396-3.156 3.12-3.156h1.437c.044-.35.129-.692.254-1.02.08-.089.08-.258.167-.345a4.012 4.012 0 0 1 3.542-2.13 4.116 4.116 0 0 1 3.294 1.704c.43-.193.882-.336 1.344-.426a5.22 5.22 0 0 0-4.638-2.643 5.506 5.506 0 0 0-5.06 3.495h-.34c-2.492.027-4.491 2.089-4.47 4.609a4.523 4.523 0 0 0 1.301 3.205 4.42 4.42 0 0 0 3.17 1.317h10.037a1.722 1.722 0 0 0 1.956.966 1.744 1.744 0 0 0 1.339-1.737 1.694 1.694 0 0 0-.514-1.238 1.655 1.655 0 0 0-1.245-.465zm5.573-3.5a6.187 6.187 0 0 0-5.486-3.495c-2.901.012-5.398 2.075-5.989 4.947a4.882 4.882 0 0 0-3.455 2.048h7.338a2.541 2.541 0 0 1 2.106-1.027c.728.01 1.422.313 1.929.841.506.53.784 1.24.77 1.977a2.73 2.73 0 0 1-1.764 2.645 2.681 2.681 0 0 1-3.04-.854h-8.206c.328 2.401 2.329 4.208 4.725 4.265h10.967a5.462 5.462 0 0 0 3.909-1.658 5.588 5.588 0 0 0 1.577-3.978c.026-3.062-2.356-5.59-5.38-5.712z"/>
            <path fill="#326690" fill-rule="nonzero" d="M36 133.256a9.48 9.48 0 0 1 5.472.33 7.238 7.238 0 0 1 3.066 2.337c.332.527.492 1.149.457 1.776a16.414 16.414 0 0 1-.6 4.287 31.245 31.245 0 0 1-3.055 7.39 7.538 7.538 0 0 1-.427.624l-.048-.255c.2-.432.364-.88.493-1.34.33-1.334.054-2.705-.067-4.05-.12-1.347.295-2.493.283-3.74 0-.612-.144-1.216-.42-1.757a11.266 11.266 0 0 0-3.843-4.81c-.463-.287-.902-.493-1.311-.792z"/>
            <path fill="#326690" fill-rule="nonzero" d="M30.258 134.067a8.69 8.69 0 0 1 6.443 1.792A10.258 10.258 0 0 1 40 140.446c-1.057-.037-2.248-.08-3.102.655a2.837 2.837 0 0 0-.694 2.707c.4 2.238 1.708 4.135 2.678 6.138.271.46.582.897.928 1.304-.424.151-.79.43-1.05.798-.388.618-.253 1.397-.345 2.095-.227 1.966-.442 3.925-.761 5.878a3.174 3.174 0 0 1-1.413 2.361c-.902.496-1.933.7-2.955.588a2.614 2.614 0 0 1-1.843-1.941 12.722 12.722 0 0 1-.276-2.263 70.93 70.93 0 0 1-.05-5.482 1.969 1.969 0 0 0-.957-1.805 2.444 2.444 0 0 0-1.008-.223c.27-1.34 1.081-2.472 1.364-3.844.296-1.67.225-3.386-.209-5.026a2.287 2.287 0 0 0-1.621-1.736c-1.266-.322-2.543.179-3.686.71a10.074 10.074 0 0 1 1.763-5.254 5.227 5.227 0 0 1 3.495-2.04z"/>
            <path fill="#326690" fill-rule="nonzero" d="M20.972 134.128a12.27 12.27 0 0 1 6.028.636 9.382 9.382 0 0 0-1.913 3.37 13.957 13.957 0 0 0-.615 5.206 19.71 19.71 0 0 1-.129 3.713 5.13 5.13 0 0 0 1.568 4.336c-.787.947-1.617 1.85-2.38 2.823-.332.407-.787.89-1.36.77a2.943 2.943 0 0 1-1.463-1.4 22.724 22.724 0 0 1-2.171-5.41 48.164 48.164 0 0 1-1.452-6.733 9.021 9.021 0 0 1 .806-5.15 4.502 4.502 0 0 1 3.081-2.161zM38.496 141.404c.719-.524 1.665-.408 2.504-.354-.036 1.177-.395 2.33-.276 3.518.102 1.463.522 3.048-.155 4.432-.91-1.829-2.09-3.609-2.498-5.663-.12-.653-.15-1.476.425-1.933zm.264.274c-.24.202 0 .506.227.61.249.128.544.12.785-.022a.843.843 0 0 0 .413-.679 1.434 1.434 0 0 0-1.425.091z"/>
            <path fill="#326690" fill-rule="nonzero" d="M25.173 142.055A5.33 5.33 0 0 1 28.348 141c.59.043 1.088.47 1.24 1.062.521 2.136.676 4.504-.31 6.531A19.459 19.459 0 0 0 28.41 151c-1.663-.08-3.05-1.348-3.336-3.05-.199-.92.062-1.84.093-2.76.1-1.03.025-2.092.006-3.135zm2.642-.47c-.149.052-.298.155-.267.335.065.307.27.561.548.683a.9.9 0 0 0 .854-.071c.223-.13.459-.49.204-.702a1.493 1.493 0 0 0-1.34-.244zM40.306 152.291c.228-.299.576-.376.866-.192 1.186.802 2.568.417 3.828.216-.804.934-1.82 1.497-2.894 1.604a3.721 3.721 0 0 1-2.089-.16c-.061-.52.043-1.05.289-1.468zM28.405 153.74c.717-.403 1.002-1.29 1.674-1.74a.909.909 0 0 1 .832.54.977.977 0 0 1-.12 1.012c-1.174 1.461-3.172 1.87-4.791.98.77-.369 1.68-.342 2.405-.792z"/>
            <rect width="134" height="84" x="100" y="120" fill="#F6F7F8" fill-rule="nonzero" rx="6.017"/>
            <path fill="#293A5E" fill-rule="nonzero" d="M105.33 121h123.34c2.944 0 5.33 2.338 5.33 5.222V132H100v-5.778c0-2.884 2.386-5.222 5.33-5.222z"/>
            <rect width="6" height="28" x="117" y="157" fill="#3C4D6F" fill-rule="nonzero" rx="1.351"/>
            <rect width="6" height="19" x="142" y="165" fill="#3C4D6F" fill-rule="nonzero" rx="1.351"/>
            <rect width="6" height="38" x="129" y="147" fill="#FF4702" fill-rule="nonzero" rx="1.358"/>
            <rect width="6" height="32" x="155" y="153" fill="#FF4702" fill-rule="nonzero" rx="1.351"/>
            <circle cx="187.5" cy="156.5" r="7.5" stroke="#FFF" stroke-width="1.801"/>
            <path stroke="#3C4D6F" stroke-width="1.801" d="M195 156.5a7.5 7.5 0 1 1-7.5-7.5"/>
            <circle cx="187.5" cy="178.5" r="7.5" stroke="#FFF" stroke-width="1.801"/>
            <path stroke="#FF4702" stroke-width="1.801" d="M187.5 186a7.5 7.5 0 1 1 7.5-7.5"/>
            <path fill="#293A5E" fill-rule="nonzero" d="M201 151h22v2h-22zM202 155h17v2h-17zM202 159h20v2h-20zM201 175h22v2h-22zM202 179h17v2h-17zM202 183h20v2h-20z"/>
            <path fill="#202E4B" fill-rule="nonzero" d="M102.889 98l-14.936 1.244L78 106.243s1.935 15.123 1.382 21.152c-.553 6.028-1.382 8.709-1.382 8.709L94.484 141s9.652-18.215 8.405-43z"/>
            <path fill="#202E4B" fill-rule="nonzero" d="M102.837 98.006l14.638 17.284L129 123.792 126.26 126l-11.904-6.592-11.655-10.822-.701-5.544.8-5.042zM77.078 106.003c-.424.681-4.432 7.54-7.078 24.997 0 0 16.834-3.182 20-4.494v-2.433l-14.359.842 2.855-4.866c.732-2.54.947-5.197.633-7.818-.215-1.956-1.304-3.85-2.006-6.19a.03.03 0 0 0-.01-.034.032.032 0 0 0-.035-.004z"/>
            <path fill="#3C4D6F" fill-rule="nonzero" d="M94.217 140.928L77.67 136 73 145.117l8.98 6.537-3.62 24.112L77.67 208h2.805s4.46-17.426 4.053-28.314l10.325-25.722s.604-9.467-.636-13.036z"/>
            <path fill="#283A5E" fill-rule="nonzero" d="M73.006 145s-.687 32.485 12.384 62H88l-5.73-55.561L73.006 145z"/>
            <path fill="#141D2F" fill-rule="nonzero" d="M87 208v3h-6l3.586-3z"/>
            <path fill="#141D2F" fill-rule="nonzero" d="M80.108 208h-2.824L76 211h6z"/>
            <path fill="#53617E" fill-rule="nonzero" d="M91.533 120l.031 3.92L91 128h4.388L97 120z"/>
            <path fill="#FFC9D5" fill-rule="nonzero" d="M90 124.41l1.056-2.41h.822v1.881l4.572-.076.55-1.384v2.889L95.239 127 90 126.917z"/>
            <path fill="#00B3CC" fill-rule="nonzero" d="M78.445 120.359l-2.868 4.732L90 124.272 74 126s4.362-6.671 4.553-11l-.108 5.359zM102 109.19l.044-4.19 12.596 14.212L126 127l-12.13-6.747z" opacity=".4"/>
            <path fill="#00B3CC" fill-rule="nonzero" d="M92 99s-.465 7.036-8 2.445l3.195-2.072L92 99z"/>
            <path fill="#E86578" fill-rule="nonzero" d="M94.018 93.001s1.305-.092.906 1.408c-.4 1.499-1.09 1.591-1.755 1.591-.665 0 .849-2.999.849-2.999z"/>
            <path fill="#FFC9D5" fill-rule="nonzero" d="M83.976 93.001s-1.299-.092-.9 1.408c.4 1.499 1.09 1.591 1.756 1.591.665 0-.856-2.999-.856-2.999z"/>
            <path fill="#FFC9D5" fill-rule="nonzero" d="M84.054 87A30.382 30.382 0 0 0 84 88.803C84 95.536 86.24 101 89.003 101 91.767 101 94 95.536 94 88.803c0-.6 0-1.202-.054-1.803h-9.892z"/>
            <path fill="#E86578" fill-rule="nonzero" d="M93.941 87h-.727c0 .445.038.896.038 1.36 0 6.735-2.377 12.195-5.31 12.195a2.46 2.46 0 0 1-.942-.192 2.77 2.77 0 0 0 1.694.637c2.927 0 5.386-5.473 5.304-12.202A33.152 33.152 0 0 0 93.941 87z"/>
            <path fill="#283A5E" fill-rule="nonzero" d="M88.86 91L94 89.114v-.36c0-.61 0-1.22-.054-1.83-3.24-2.686-8.338-2.442-9.892 0-.036.61-.054 1.22-.054 1.83v1.044L88.86 91z"/>
            <path fill="#00B3CC" fill-rule="nonzero" d="M101 121s-5.612 20.154-18 16.782L94.186 141s3.82-6.22 6.814-20zM90 127.458A199.665 199.665 0 0 1 70 132s19.196-4.079 20-7v2.458z"/>
            <path fill="#283A5E" fill-rule="nonzero" d="M93 89.34l.487 3.66s.861-3.77.352-6L93 89.34zM84.471 94s-.704-2.251-.39-7c.09.281.304.52.597.664L85 90.022 84.471 94z"/>
            <path fill="#FFC9D5" fill-rule="nonzero" d="M126 126.149l.843 3.386 1.03.356 1.28 3.109 1.847-2.934-.257-1.98-1.924-4.086z"/>
        </g>
    </g>
</svg>
