<svg xmlns="http://www.w3.org/2000/svg" width="203" height="148" viewBox="0 0 203 148">
    <g fill="none" fill-rule="evenodd">
        <path d="M-76.5-2h354v152h-354z"/>
        <g transform="translate(-12.5 -2)">
            <path d="M0 0h227v152H0z"/>
            <ellipse cx="206" cy="144.5" fill="#F6F7F8" fill-rule="nonzero" rx="3" ry="1"/>
            <ellipse cx="212" cy="144.5" fill="#F6F7F8" fill-rule="nonzero" rx="3" ry="1"/>
            <rect width="1" height="10" x="205" y="135" fill="#7F889E" fill-rule="nonzero" rx=".5"/>
            <path fill="#02AD46" fill-rule="nonzero" d="M207.984 124.346v-1.406c0-1.071-.819-1.94-1.829-1.94h-1.326c-1.01 0-1.829.869-1.829 1.94v1.406c0 .57.236 1.111.647 1.479-.41.367-.648.908-.647 1.478v1.407c.007.568.25 1.104.663 1.465-.41.368-.648.909-.647 1.479v1.406c0 1.071.819 1.94 1.829 1.94h1.326c1.01 0 1.829-.869 1.829-1.94v-1.406a1.98 1.98 0 0 0-.663-1.479c.41-.367.648-.908.647-1.478v-1.407c0-.57-.236-1.11-.647-1.478.408-.364.644-.9.647-1.466z"/>
            <path fill="#000" fill-rule="nonzero" d="M203 129v1.279c.007.517.25 1.004.663 1.333-.41.334-.648.826-.647 1.345v1.279c0 .974.819 1.764 1.829 1.764h1.326c1.01 0 1.829-.79 1.829-1.764v-1.28a1.733 1.733 0 0 0-.663-1.344L203 129z" opacity=".1"/>
            <path stroke="#FFF" stroke-linecap="round" stroke-linejoin="round" stroke-width=".8" d="M206 130l-3-2M209 125l-3-2M208 134l-3-2"/>
            <rect width="1" height="6" x="212" y="138" fill="#7F889E" fill-rule="nonzero" rx=".5"/>
            <path fill="#02AD46" fill-rule="nonzero" d="M210.649 131.442c-.412.381-.65.943-.649 1.535v1.473a2.1 2.1 0 0 0 .649 1.54c-.412.381-.65.943-.649 1.535v1.46c0 1.113.822 2.015 1.835 2.015h1.33c1.013 0 1.835-.902 1.835-2.015v-1.456c0-.591-.237-1.153-.649-1.535a2.1 2.1 0 0 0 .649-1.54v-1.46c0-.591-.237-1.153-.649-1.535-.861-.602-2.724-.616-3.702-.017z"/>
            <path fill="#000" fill-rule="nonzero" d="M210 132v1.286c0 .517.237 1.008.649 1.343a1.72 1.72 0 0 0-.649 1.34v1.273c0 .971.822 1.758 1.835 1.758h1.33c1.013 0 1.835-.787 1.835-1.758v-1.27a1.72 1.72 0 0 0-.649-1.34L210 132z" opacity=".1"/>
            <path stroke="#FFF" stroke-linecap="round" stroke-linejoin="round" stroke-width=".8" d="M212 134l-3-2M215 138l-3-2"/>
            <ellipse cx="108.5" cy="148" fill="#F6F7F8" fill-rule="nonzero" rx="12.5" ry="2"/>
            <ellipse cx="54" cy="148" fill="#F6F7F8" fill-rule="nonzero" rx="19" ry="1"/>
            <ellipse cx="168.5" cy="148" fill="#F6F7F8" fill-rule="nonzero" rx="12.5" ry="2"/>
            <g stroke="#E9EBEE" stroke-width="1.02" opacity=".6">
                <path d="M87.06 10.013V113.67M100.753 10.013V113.67M114.446 10.013V113.67M128.139 10.013V113.67M141.832 10.013V113.67M155.525 10.013V113.67M169.218 10.013V113.67M182.915 10.013V113.67M196.608 10.013V113.67M72.034 103.152h139.6M72.034 89.382h139.6M72.034 75.613h139.6M72.034 61.844h139.6M72.034 48.074h139.6M72.034 34.305h139.6M72.034 20.531h139.6"/>
            </g>
            <rect width="52" height="124" x="13" y="2" fill="#E9EBEE" fill-rule="nonzero" rx="6"/>
            <path fill="#FFF" fill-rule="nonzero" d="M115 34h55v55h-55z"/>
            <path stroke="#7F889E" stroke-width="1.02" d="M170 88v1h-1"/>
            <path stroke="#7F889E" stroke-dasharray="5.89" stroke-width="1.02" d="M166 88.5h-48"/>
            <path stroke="#7F889E" stroke-width="1.02" d="M117 89h-1v-1"/>
            <path stroke="#7F889E" stroke-dasharray="5.89" stroke-width="1.02" d="M115.5 85V37"/>
            <path stroke="#7F889E" stroke-width="1.02" d="M116 36v-1h1"/>
            <path stroke="#7F889E" stroke-dasharray="5.89" stroke-width="1.02" d="M120 34.5h48"/>
            <path stroke="#7F889E" stroke-width="1.02" d="M169 35h1v1"/>
            <path stroke="#7F889E" stroke-dasharray="5.89" stroke-width="1.02" d="M170.5 39v48"/>
            <path fill="#FFF" fill-rule="nonzero" d="M25 15h25v26H25z"/>
            <path stroke="#7F889E" stroke-width="1.02" d="M50 39v1h-1"/>
            <path stroke="#7F889E" stroke-dasharray="6.13" stroke-width="1.02" d="M47 39.5H27"/>
            <path stroke="#7F889E" stroke-width="1.02" d="M25 40h-1v-1"/>
            <path stroke="#7F889E" stroke-dasharray="6.13" stroke-width="1.02" d="M23.5 37V17"/>
            <path stroke="#7F889E" stroke-width="1.02" d="M24 16v-1h1"/>
            <path stroke="#7F889E" stroke-dasharray="6.13" stroke-width="1.02" d="M28 14.5h20"/>
            <path stroke="#7F889E" stroke-width="1.02" d="M49 15h1v1"/>
            <path stroke="#7F889E" stroke-dasharray="6.13" stroke-width="1.02" d="M50.5 18v20"/>
            <path fill="#F6F7F8" fill-rule="nonzero" d="M33 22h25v26H33zM25 87h25v26H25zM25 51h25v26H25z"/>
            <path fill="#A9B0BE" fill-rule="nonzero" d="M38 32h3v11h-3zM44 28h3v15h-3zM49 33h3v10h-3zM37.987 93a7 7 0 1 0 .026 14 7 7 0 0 0-.026-14zm0 11.455A4.455 4.455 0 1 1 42.455 100a4.455 4.455 0 0 1-4.468 4.45v.005z"/>
            <path stroke="#F6F7F8" stroke-width="3.07" d="M37 91v9h8"/>
            <path fill="#A9B0BE" fill-rule="nonzero" d="M36.714 71h-.42C32.266 71 29 67.642 29 63.5a7.604 7.604 0 0 1 2.135-5.305A7.19 7.19 0 0 1 36.295 56h.84v6.615H44v.863a7.61 7.61 0 0 1-2.126 5.315A7.195 7.195 0 0 1 36.714 71z"/>
            <path fill="#A9B0BE" fill-rule="nonzero" d="M39 55a6 6 0 0 1 6 6h-6v-6z"/>
            <path fill="#FF4702" fill-rule="nonzero" d="M43 78l.029-3H65.97L66 78zM43 90l.032-3h22.94L66 90zM42 104l.03-3h23.94l.03 3zM42 118l.029-3h23.938l.033 3z"/>
            <path fill="#FF4702" fill-rule="nonzero" d="M41.844 148h-1.546a.273.273 0 0 1-.212-.11.418.418 0 0 1-.086-.262l1.06-80.268c.004-.2.136-.36.298-.36h1.348a.27.27 0 0 1 .209.108c.055.07.086.163.085.26l-.862 80.272c-.002.2-.133.36-.294.36M67.702 148h-1.546c-.16 0-.292-.16-.294-.36L65 67.368c0-.098.03-.192.086-.261a.268.268 0 0 1 .212-.107h1.344c.161 0 .292.16.294.36L68 147.628c0 .098-.03.193-.086.263a.273.273 0 0 1-.212.109"/>
            <path fill="#FF4702" fill-rule="nonzero" d="M42 132l.03-3h24.94l.03 3z"/>
            <path fill="#F6F7F8" fill-rule="nonzero" d="M72 65h24v24H72z"/>
            <path fill="#A9B0BE" fill-rule="nonzero" d="M84.004 71a7 7 0 1 0-.008 14 7 7 0 0 0 .008-14zm0 11.454a4.454 4.454 0 1 1 0-8.909 4.454 4.454 0 0 1 0 8.91z"/>
            <path stroke="#F6F7F8" stroke-width="3.07" d="M85 69v9h8"/>
            <path fill="#3C4D6F" fill-rule="nonzero" d="M144 52.906A10.088 10.088 0 0 1 152.247 59L158 57.443c-2.172-5.931-7.663-10.027-14-10.443v5.906z"/>
            <path fill="#FF4702" fill-rule="nonzero" d="M146.781 71.716c-3.576 1.91-7.915 1.462-11.05-1.139-3.136-2.601-4.473-6.863-3.407-10.855 1.066-3.992 4.334-6.956 8.323-7.55V46c-6.543.61-12.07 5.24-13.963 11.7-1.894 6.46.225 13.455 5.353 17.672 5.129 4.217 12.238 4.811 17.963 1.502l-3.219-5.158z"/>
            <path fill="#FFE3D7" fill-rule="nonzero" d="M152.515 60.604c.073.498.11 1 .11 1.503.005 2.952-1.315 5.763-3.625 7.725L152.457 75c4.135-3.113 6.546-7.865 6.543-12.893a15.97 15.97 0 0 0-.31-3.107l-6.175 1.604z"/>
            <path fill="#283A5E" fill-rule="nonzero" d="M53.44 66.009c-.096-.23-8.983 4.02-10.44 5.95L48.284 86l1.224-.3c-.438-4.41-.996-8.53-1.834-11.462L57 72.273l-3.56-6.264z"/>
            <path fill="#3C4D6F" fill-rule="nonzero" d="M54.325 66.767c-1.336 3.95 1.703 23.945 4.458 33.233h1.235l2.296-24.848L65 71.112c-.106-1.337-.74-3.16-1.497-5.112l-9.178.767z"/>
            <path fill="#F0939E" fill-rule="nonzero" d="M54.138 46.791s.097 2.556-.127 3.113C53.787 50.462 57 48.4 57 48.4l-.276-2.4-2.586.791z"/>
            <path fill="#FFC9D5" fill-rule="nonzero" d="M52.238 42.428s-1.302 6.452 2.184 5.47c3.486-.981 2.427-3.585 2.427-3.585s-.19-2.086-1.675-2.282a6.423 6.423 0 0 0-2.936.397z"/>
            <path fill="#202E4B" fill-rule="nonzero" d="M61 48l6.552 9.711L75 64.01l-.544.991-8.962-4.93-3.296-4.095z"/>
            <path fill="#202E4B" fill-rule="nonzero" d="M51 50.78l5.718-2.667L61.634 48s2.365 6.76.871 18.275L53.818 67s.8-5.33-2.818-16.22z"/>
            <path fill="#202E4B" fill-rule="nonzero" d="M52.891 50.55l-8.6-2.16L35.582 44 35 45.216a58.281 58.281 0 0 0 8.575 5.728C46.813 52.69 50.818 53.69 53 55l-.109-4.45z"/>
            <path fill="#00B3CC" fill-rule="nonzero" d="M34 45.93s1.52-.424 8 2.07c0 0-6.708-2.756-7.44-3l-.56.93z"/>
            <path fill="#00B3CC" fill-rule="nonzero" d="M35 45s5.777 4.145 9.048 5.538C47.257 51.91 52.12 53.45 53 54l-.444-2.375s-4.863.173-8.57-1.498C40.277 48.457 35 45 35 45zM62.158 56.11L62 54l3.819 5.116L74 65l-8.733-4.942z" opacity=".3"/>
            <path fill="#00B3CC" fill-rule="nonzero" d="M54 61s1.293 5.768 6 5.528L54.359 67A24.17 24.17 0 0 0 54 61z"/>
            <path fill="#001F3A" fill-rule="nonzero" d="M50.711 86l-.927.304L47 88h4zM59 100h-.988L55 101h4z"/>
            <path fill="#FFC9D5" fill-rule="nonzero" d="M35 44.992l-.535-1.144-.535-.443.177.793L32 43l.088 1.556 1.191.958 1.074.486zM74.59 64l1.286 1.126.124.964-.57.91-.49-1.271-.94-.757z"/>
            <path fill="#E86578" fill-rule="nonzero" d="M52 43.196s2.439-.56 2.376 1.006c-.062 1.566-.095 2.846 1.16 2.797 1.253-.05-.428-4.55-.428-4.55L52.409 42 52 43.196z"/>
            <path fill="#131D2F" fill-rule="nonzero" d="M52.206 43.114s2.06-.972 2.583.288c.523 1.26-.811 3.421 1.786 3.59.433.23 3.06-4.677-.142-5.653-1.495-.682-4.41-.124-4.41-.124s-.12 1.272.183 1.899z"/>
            <path fill="#00B3CC" fill-rule="nonzero" d="M57 48s-1.048 2.865-4 1.737L57 48z"/>
            <path fill="#F0939E" fill-rule="nonzero" d="M101.142 97.593s.095 1.916-.13 2.335c-.227.42 2.988-1.13 2.988-1.13L103.727 97l-2.585.593z"/>
            <path fill="#FFC9D5" fill-rule="nonzero" d="M100.08 93.426s-.355 2.919.43 5.17c.16.463.743.488 1.372.276 2.872-.976 1.99-3.57 1.99-3.57s-.152-2.084-1.379-2.272a4.45 4.45 0 0 0-2.413.396z"/>
            <path fill="#202E4B" fill-rule="nonzero" d="M108 98.888l-3.84-8.54L98.115 84 97 84.41l5.283 6.978L103.992 99z"/>
            <path fill="#202E4B" fill-rule="nonzero" d="M98 100.651l5.237-2.54 4.506-.111s2.165 6.404.812 17.31l-7.956.69s.715-5.032-2.599-15.349z"/>
            <path fill="#202E4B" fill-rule="nonzero" d="M98.77 100.569l-8.19-1.834L89.348 90l-1.081.424c-.098 3.82-.643 7.275.178 10.408 0 0 8.804 3.086 11.554 4.168-.315-1.392-.736-2.874-1.23-4.431z"/>
            <path fill="#00B3CC" fill-rule="nonzero" d="M104.34 98H106l-2.346-7.627L98 84l4.79 6.696z" opacity=".3"/>
            <path fill="#00B3CC" fill-rule="nonzero" d="M101 110s1.292 5.787 6 5.523l-5.637.477a24.196 24.196 0 0 0-.363-6z"/>
            <path fill="#001F3A" fill-rule="nonzero" d="M106 148h-.987L102 149h4zM114.665 147l-1.082.263L111 150l4-1.273z"/>
            <path fill="#FFC9D5" fill-rule="nonzero" d="M89.487 89.67l.155-.65.144-.195.214-.184h-.609L88.793 87 88 88.07l.177 1.144.373.786zM99 83.658l-.81-1.143-.655-.515v.901l-.004.249-.531-.123 1.03.973z"/>
            <path fill="#00B3CC" fill-rule="nonzero" d="M104 99s-1.044 2.864-4 1.738L104 99z"/>
            <path fill="#273A5E" fill-rule="nonzero" d="M109.495 121L115 146.78l-1.073.22s-4.822-9.053-6.927-16.328l.462-6.69 2.033-2.982z"/>
            <path fill="#3C4D6F" fill-rule="nonzero" d="M101.296 116.676c-1.217 3.717 1.548 22.56 4.058 31.324h1.124l1.619-23.394c1.3-1 2.301-2.311 2.903-3.802-.098-1.263-.673-2.997-1.365-4.804l-8.339.676z"/>
            <path fill="#E86578" fill-rule="nonzero" d="M100 94s.19 1.547 1.279 2.365c1.09.817 1.492.861 1.721 1.635v-1.998L100 94z"/>
            <path fill="#131D2F" fill-rule="nonzero" d="M99.395 94.376s.023.556.694 1.746c.403.714 1.506.867 1.578 2.554.03.721 2.203.142 2.414-.788.204-1.021 2.335-4.308-.69-5.27-.824-.393-1.924-.393-2.85-.29-.53-.001-1.054-.112-1.541-.328 0 0 .11 1.758.395 2.376z"/>
            <path fill="#00B3CC" fill-rule="nonzero" d="M88.291 91s.28 8.835.748 9.34l10.536 3.03L100 105l-11.547-4.003s-.9-2.532-.162-9.997z" opacity=".3"/>
            <path fill="#00B3CC" fill-rule="nonzero" d="M88 91.397L89.012 91 90 98c-.721-4.025-.916-6.473-2-6.603z"/>
            <path fill="#FB043D" fill-rule="nonzero" d="M167 147.005l-.126 1.995H163l2.836-2zM174.167 145l.833 1.644-4 2.356 1.892-3.489z"/>
            <path fill="#202E4B" fill-rule="nonzero" d="M170.557 102l-8.822.338-.735 3.375c0 2.257.94 5.464 1.212 11.287h7.418a69.28 69.28 0 0 1 2.37-11.928L170.557 102z"/>
            <path fill="#3C4D6F" fill-rule="nonzero" d="M171.753 120l-.785 3.663-.47 1.207-.98 8.498s3.923 5.421 4.482 12.12l-1.198.512L166 134.197l2.443-10.001 3.31-4.196z"/>
            <path fill="#283A5E" fill-rule="nonzero" d="M162.476 117.117c.279-1.601-2.744 13.502 3.635 29.883h1.573l1.43-22.765 1.789-.994 1.097-3.19-1.934-2.93-7.59-.004z"/>
            <path fill="#FFC9D5" fill-rule="nonzero" d="M162.027 95.093s-.605 5.2 3.87 4.894c0 0 2.16-.497 2.102-2.105-.06-1.608-2.443-5.877-5.972-2.789z"/>
            <path fill="#202E4B" fill-rule="nonzero" d="M164 101.659s-1.865-.859-5.091-4.359c0 0-4.065-5.103-4.724-6.3l-1.185.57s2.32 4.07 4.24 7.09l4.59 6.34 2.17-3.341z"/>
            <path fill="#FFC9D5" fill-rule="nonzero" d="M153.618 90L153 88.159 154.067 87l.421 1.496H155l-.35.404.086.587z"/>
            <path fill="#202E4B" fill-rule="nonzero" d="M169 103.328a50.87 50.87 0 0 0 1.69-8.894s0-4.772-.226-6.193l1.355-.241a37.048 37.048 0 0 1 1.129 6.572l.052 5.957-2.258 3.471-1.742-.672z"/>
            <path fill="#FFC9D5" fill-rule="nonzero" d="M172 88.729l-.87-2.278L169 86l.797 1.784-.781-.548.74 1.23.608.534z"/>
            <path fill="#EA003D" fill-rule="nonzero" d="M163 112s1.27 4.268 4 5h-3.603s-.097-2.127-.397-5z"/>
            <path fill="#141D2F" fill-rule="nonzero" d="M163.347 98.916c.736.338-1.069 4.326-.483 7.501 1.576 7.501 11.09 5.526 13.136 4.793-.886-1.667-1.114-3.576-5.871-10.147-1.772-2.447-1.343-5.48-2.2-6.73-.857-1.25-4.329-2.084-5.93-.334 0 0-1.663.9-.698 2.476.965 1.575 1.143 2.033 2.046 2.441z"/>
            <path fill="#EA003D" fill-rule="nonzero" d="M154.118 90s.24 3.826 2.882 9a245.823 245.823 0 0 1-4-8.33l1.118-.67z"/>
            <path fill="#EA003D" fill-rule="nonzero" d="M157 99l4 5.056-.236.944zM170.21 89l.79 6.106-.485 4.894-.515-1.38a61.25 61.25 0 0 0 .386-3.548c-.013-2.301-.027-4.298-.176-6.072z" opacity=".3"/>
        </g>
    </g>
</svg>
