<svg xmlns="http://www.w3.org/2000/svg" width="236" height="117" viewBox="0 0 236 117">
    <g fill="none" fill-rule="evenodd">
        <path d="M-60-17h354v152H-60z"/>
        <path d="M-14-17h262v152H-14z"/>
        <path fill="#E9EBEE" fill-rule="nonzero" d="M203.504 54.616h-31.983c-8.832 0-15.991-7.28-15.991-16.129v-16.13c0-8.96 7.159-16.24 15.991-16.24h63.965v16.24c0 17.81-14.319 32.26-31.982 32.26M83.592 95.819v20.623H42.043c-22.939 0-41.55-18.467-41.55-41.246h62.325c11.541 0 20.774 9.232 20.774 20.623" opacity=".4"/>
        <g fill="#FB043D" fill-rule="nonzero" opacity=".1">
            <path d="M166.215.602a.492.492 0 0 1-.497.487.492.492 0 0 1-.496-.487c0-.27.222-.488.496-.488s.497.218.497.488M171.586.602a.492.492 0 0 1-.496.487.492.492 0 0 1-.496-.487c0-.27.222-.488.496-.488s.496.218.496.488M176.958.602a.491.491 0 0 1-.496.487.492.492 0 0 1-.497-.487c0-.27.223-.488.497-.488s.496.218.496.488M182.33.602a.492.492 0 0 1-.497.487.491.491 0 0 1-.496-.487c0-.27.222-.488.496-.488s.497.218.497.488M187.701.602a.492.492 0 0 1-.496.487.492.492 0 0 1-.496-.487c0-.27.222-.488.496-.488s.496.218.496.488M193.073.602a.492.492 0 0 1-.496.487.492.492 0 0 1-.496-.487c0-.27.222-.488.496-.488s.496.218.496.488M198.444.602a.492.492 0 0 1-.495.487.492.492 0 0 1-.497-.487c0-.27.222-.488.497-.488.273 0 .495.218.495.488M203.816.602a.491.491 0 0 1-.496.487.492.492 0 0 1-.496-.487c0-.27.223-.488.496-.488.274 0 .496.218.496.488M209.188.602a.492.492 0 0 1-.496.487.491.491 0 0 1-.496-.487c0-.27.221-.488.496-.488.274 0 .496.218.496.488M214.56.602a.492.492 0 0 1-.497.487.492.492 0 0 1-.496-.487c0-.27.223-.488.496-.488.275 0 .497.218.497.488M166.215 4.73c0 .27-.223.488-.497.488a.492.492 0 0 1-.496-.488c0-.269.222-.487.496-.487s.497.218.497.487M171.586 4.73c0 .27-.222.488-.496.488a.492.492 0 0 1-.496-.488c0-.269.222-.487.496-.487s.496.218.496.487M176.958 4.73c0 .27-.222.488-.496.488a.492.492 0 0 1-.497-.488c0-.269.223-.487.497-.487s.496.218.496.487M182.33 4.73c0 .27-.223.488-.497.488a.491.491 0 0 1-.496-.488c0-.269.222-.487.496-.487s.497.218.497.487M187.701 4.73c0 .27-.222.488-.496.488a.492.492 0 0 1-.496-.488c0-.269.222-.487.496-.487s.496.218.496.487M193.073 4.73c0 .27-.222.488-.496.488a.492.492 0 0 1-.496-.488c0-.269.222-.487.496-.487s.496.218.496.487M198.444 4.73c0 .27-.222.488-.495.488a.492.492 0 0 1-.497-.488c0-.269.222-.487.497-.487.273 0 .495.218.495.487M203.816 4.73c0 .27-.222.488-.496.488a.493.493 0 0 1-.496-.488c0-.269.223-.487.496-.487.274 0 .496.218.496.487M209.188 4.73c0 .27-.222.488-.496.488a.491.491 0 0 1-.496-.488c0-.269.221-.487.496-.487.274 0 .496.218.496.487M214.56 4.73c0 .27-.222.488-.497.488a.492.492 0 0 1-.496-.488c0-.269.223-.487.496-.487.275 0 .497.218.497.487M166.215 8.86c0 .269-.223.487-.497.487a.492.492 0 0 1-.496-.488c0-.27.222-.487.496-.487s.497.218.497.487M171.586 8.86c0 .269-.222.487-.496.487a.492.492 0 0 1-.496-.488c0-.27.222-.487.496-.487s.496.218.496.487M176.958 8.86c0 .269-.222.487-.496.487a.492.492 0 0 1-.497-.488c0-.27.223-.487.497-.487a.49.49 0 0 1 .496.487M182.33 8.86c0 .269-.223.487-.497.487a.491.491 0 0 1-.496-.488.49.49 0 0 1 .496-.487c.274 0 .497.218.497.487M187.701 8.86c0 .269-.222.487-.496.487a.492.492 0 0 1-.496-.488c0-.27.222-.487.496-.487s.496.218.496.487M193.073 8.86c0 .269-.222.487-.496.487a.492.492 0 0 1-.496-.488c0-.27.222-.487.496-.487s.496.218.496.487M198.444 8.86c0 .269-.222.487-.495.487a.492.492 0 0 1-.497-.488c0-.27.222-.487.497-.487.273 0 .495.218.495.487M203.816 8.86c0 .269-.222.487-.496.487a.493.493 0 0 1-.496-.488c0-.27.223-.487.496-.487a.49.49 0 0 1 .496.487M209.188 8.86c0 .269-.222.487-.496.487a.491.491 0 0 1-.496-.488.49.49 0 0 1 .496-.487c.274 0 .496.218.496.487M214.56 8.86c0 .269-.222.487-.497.487a.492.492 0 0 1-.496-.488c0-.27.223-.487.496-.487.275 0 .497.218.497.487M166.215 12.989a.492.492 0 0 1-.497.487.492.492 0 0 1-.496-.487c0-.27.222-.488.496-.488s.497.218.497.488M171.586 12.989a.492.492 0 0 1-.496.487.492.492 0 0 1-.496-.487c0-.27.222-.488.496-.488s.496.218.496.488M176.958 12.989a.491.491 0 0 1-.496.487.492.492 0 0 1-.497-.487c0-.27.223-.488.497-.488s.496.218.496.488M182.33 12.989a.492.492 0 0 1-.497.487.491.491 0 0 1-.496-.487c0-.27.222-.488.496-.488s.497.218.497.488M187.701 12.989a.492.492 0 0 1-.496.487.492.492 0 0 1-.496-.487c0-.27.222-.488.496-.488s.496.218.496.488M193.073 12.989a.492.492 0 0 1-.496.487.492.492 0 0 1-.496-.487c0-.27.222-.488.496-.488s.496.218.496.488M198.444 12.989a.492.492 0 0 1-.495.487.492.492 0 0 1-.497-.487c0-.27.222-.488.497-.488.273 0 .495.218.495.488M203.816 12.989a.491.491 0 0 1-.496.487.492.492 0 0 1-.496-.487c0-.27.223-.488.496-.488.274 0 .496.218.496.488M209.188 12.989a.492.492 0 0 1-.496.487.491.491 0 0 1-.496-.487c0-.27.221-.488.496-.488.274 0 .496.218.496.488M214.56 12.989a.492.492 0 0 1-.497.487.492.492 0 0 1-.496-.487c0-.27.223-.488.496-.488.275 0 .497.218.497.488M166.215 17.117c0 .27-.223.488-.497.488a.492.492 0 0 1-.496-.488c0-.269.222-.487.496-.487s.497.218.497.487M171.586 17.117c0 .27-.222.488-.496.488a.492.492 0 0 1-.496-.488c0-.269.222-.487.496-.487s.496.218.496.487M176.958 17.117c0 .27-.222.488-.496.488a.492.492 0 0 1-.497-.488c0-.269.223-.487.497-.487s.496.218.496.487M182.33 17.117c0 .27-.223.488-.497.488a.491.491 0 0 1-.496-.488c0-.269.222-.487.496-.487s.497.218.497.487M187.701 17.117c0 .27-.222.488-.496.488a.492.492 0 0 1-.496-.488c0-.269.222-.487.496-.487s.496.218.496.487M193.073 17.117c0 .27-.222.488-.496.488a.492.492 0 0 1-.496-.488c0-.269.222-.487.496-.487s.496.218.496.487M198.444 17.117c0 .27-.222.488-.495.488a.492.492 0 0 1-.497-.488c0-.269.222-.487.497-.487.273 0 .495.218.495.487M203.816 17.117c0 .27-.222.488-.496.488a.493.493 0 0 1-.496-.488c0-.269.223-.487.496-.487.274 0 .496.218.496.487M209.188 17.117c0 .27-.222.488-.496.488a.491.491 0 0 1-.496-.488c0-.269.221-.487.496-.487.274 0 .496.218.496.487M214.56 17.117c0 .27-.222.488-.497.488a.492.492 0 0 1-.496-.488c0-.269.223-.487.496-.487.275 0 .497.218.497.487M166.215 21.246c0 .27-.223.488-.497.488a.492.492 0 0 1-.496-.488c0-.27.222-.487.496-.487s.497.218.497.487M171.586 21.246c0 .27-.222.488-.496.488a.492.492 0 0 1-.496-.488c0-.27.222-.487.496-.487s.496.218.496.487M176.958 21.246c0 .27-.222.488-.496.488a.492.492 0 0 1-.497-.488c0-.27.223-.487.497-.487a.49.49 0 0 1 .496.487M182.33 21.246c0 .27-.223.488-.497.488a.491.491 0 0 1-.496-.488.49.49 0 0 1 .496-.487c.274 0 .497.218.497.487M187.701 21.246c0 .27-.222.488-.496.488a.492.492 0 0 1-.496-.488c0-.27.222-.487.496-.487s.496.218.496.487M193.073 21.246c0 .27-.222.488-.496.488a.492.492 0 0 1-.496-.488c0-.27.222-.487.496-.487s.496.218.496.487M198.444 21.246c0 .27-.222.488-.495.488a.492.492 0 0 1-.497-.488c0-.27.222-.487.497-.487.273 0 .495.218.495.487M203.816 21.246c0 .27-.222.488-.496.488a.493.493 0 0 1-.496-.488c0-.27.223-.487.496-.487a.49.49 0 0 1 .496.487M209.188 21.246c0 .27-.222.488-.496.488a.491.491 0 0 1-.496-.488.49.49 0 0 1 .496-.487c.274 0 .496.218.496.487M214.56 21.246c0 .27-.222.488-.497.488a.492.492 0 0 1-.496-.488c0-.27.223-.487.496-.487.275 0 .497.218.497.487M166.215 25.375a.492.492 0 0 1-.497.487.492.492 0 0 1-.496-.487c0-.27.222-.487.496-.487s.497.218.497.487M171.586 25.375a.492.492 0 0 1-.496.487.492.492 0 0 1-.496-.487c0-.27.222-.487.496-.487s.496.218.496.487M176.958 25.375a.491.491 0 0 1-.496.487.492.492 0 0 1-.497-.487c0-.27.223-.487.497-.487s.496.218.496.487M182.33 25.375a.492.492 0 0 1-.497.487.491.491 0 0 1-.496-.487c0-.27.222-.487.496-.487s.497.218.497.487M187.701 25.375a.492.492 0 0 1-.496.487.492.492 0 0 1-.496-.487c0-.27.222-.487.496-.487s.496.218.496.487M193.073 25.375a.492.492 0 0 1-.496.487.492.492 0 0 1-.496-.487c0-.27.222-.487.496-.487s.496.218.496.487M198.444 25.375a.492.492 0 0 1-.495.487.492.492 0 0 1-.497-.487c0-.27.222-.487.497-.487.273 0 .495.218.495.487M203.816 25.375a.491.491 0 0 1-.496.487.492.492 0 0 1-.496-.487c0-.27.223-.487.496-.487.274 0 .496.218.496.487M209.188 25.375a.492.492 0 0 1-.496.487.491.491 0 0 1-.496-.487c0-.27.221-.487.496-.487.274 0 .496.218.496.487M214.56 25.375a.492.492 0 0 1-.497.487.492.492 0 0 1-.496-.487c0-.27.223-.487.496-.487.275 0 .497.218.497.487M166.215 29.504c0 .27-.223.488-.497.488a.492.492 0 0 1-.496-.488c0-.269.222-.487.496-.487s.497.218.497.487M171.586 29.504c0 .27-.222.488-.496.488a.492.492 0 0 1-.496-.488c0-.269.222-.487.496-.487s.496.218.496.487M176.958 29.504c0 .27-.222.488-.496.488a.492.492 0 0 1-.497-.488c0-.269.223-.487.497-.487s.496.218.496.487M182.33 29.504c0 .27-.223.488-.497.488a.491.491 0 0 1-.496-.488c0-.269.222-.487.496-.487s.497.218.497.487M187.701 29.504c0 .27-.222.488-.496.488a.492.492 0 0 1-.496-.488c0-.269.222-.487.496-.487s.496.218.496.487M193.073 29.504c0 .27-.222.488-.496.488a.492.492 0 0 1-.496-.488c0-.269.222-.487.496-.487s.496.218.496.487M198.444 29.504c0 .27-.222.488-.495.488a.492.492 0 0 1-.497-.488c0-.269.222-.487.497-.487.273 0 .495.218.495.487M203.816 29.504c0 .27-.222.488-.496.488a.493.493 0 0 1-.496-.488c0-.269.223-.487.496-.487.274 0 .496.218.496.487M209.188 29.504c0 .27-.222.488-.496.488a.491.491 0 0 1-.496-.488c0-.269.221-.487.496-.487.274 0 .496.218.496.487M214.56 29.504c0 .27-.222.488-.497.488a.492.492 0 0 1-.496-.488c0-.269.223-.487.496-.487.275 0 .497.218.497.487M166.215 33.633c0 .27-.223.488-.497.488a.492.492 0 0 1-.496-.488c0-.269.222-.487.496-.487s.497.218.497.487M171.586 33.633c0 .27-.222.488-.496.488a.492.492 0 0 1-.496-.488c0-.269.222-.487.496-.487s.496.218.496.487M176.958 33.633c0 .27-.222.488-.496.488a.492.492 0 0 1-.497-.488c0-.269.223-.487.497-.487s.496.218.496.487M182.33 33.633c0 .27-.223.488-.497.488a.491.491 0 0 1-.496-.488c0-.269.222-.487.496-.487s.497.218.497.487M187.701 33.633c0 .27-.222.488-.496.488a.492.492 0 0 1-.496-.488c0-.269.222-.487.496-.487s.496.218.496.487M193.073 33.633c0 .27-.222.488-.496.488a.492.492 0 0 1-.496-.488c0-.269.222-.487.496-.487s.496.218.496.487M198.444 33.633c0 .27-.222.488-.495.488a.492.492 0 0 1-.497-.488c0-.269.222-.487.497-.487.273 0 .495.218.495.487M203.816 33.633c0 .27-.222.488-.496.488a.493.493 0 0 1-.496-.488c0-.269.223-.487.496-.487.274 0 .496.218.496.487M209.188 33.633c0 .27-.222.488-.496.488a.491.491 0 0 1-.496-.488c0-.269.221-.487.496-.487.274 0 .496.218.496.487M214.56 33.633c0 .27-.222.488-.497.488a.492.492 0 0 1-.496-.488c0-.269.223-.487.496-.487.275 0 .497.218.497.487M166.215 37.762a.493.493 0 0 1-.497.488.492.492 0 0 1-.496-.488c0-.27.222-.487.496-.487s.497.218.497.487M171.586 37.762a.492.492 0 0 1-.496.488.493.493 0 0 1-.496-.488c0-.27.222-.487.496-.487s.496.218.496.487M176.958 37.762a.492.492 0 0 1-.496.488.493.493 0 0 1-.497-.488c0-.27.223-.487.497-.487a.49.49 0 0 1 .496.487M182.33 37.762a.493.493 0 0 1-.497.488.492.492 0 0 1-.496-.488.49.49 0 0 1 .496-.487c.274 0 .497.218.497.487M187.701 37.762a.493.493 0 0 1-.496.488.492.492 0 0 1-.496-.488c0-.27.222-.487.496-.487s.496.218.496.487M193.073 37.762a.492.492 0 0 1-.496.488.493.493 0 0 1-.496-.488c0-.27.222-.487.496-.487s.496.218.496.487M198.444 37.762a.492.492 0 0 1-.495.488.493.493 0 0 1-.497-.488c0-.27.222-.487.497-.487.273 0 .495.218.495.487M203.816 37.762a.492.492 0 0 1-.496.488.493.493 0 0 1-.496-.488c0-.27.223-.487.496-.487a.49.49 0 0 1 .496.487M209.188 37.762a.493.493 0 0 1-.496.488.492.492 0 0 1-.496-.488.49.49 0 0 1 .496-.487c.274 0 .496.218.496.487M214.56 37.762a.493.493 0 0 1-.497.488.492.492 0 0 1-.496-.488c0-.27.223-.487.496-.487.275 0 .497.218.497.487M166.215 41.891a.492.492 0 0 1-.497.487.492.492 0 0 1-.496-.487c0-.269.222-.487.496-.487s.497.218.497.487M171.586 41.891a.492.492 0 0 1-.496.487.492.492 0 0 1-.496-.487c0-.269.222-.487.496-.487s.496.218.496.487M176.958 41.891a.491.491 0 0 1-.496.487.492.492 0 0 1-.497-.487c0-.269.223-.487.497-.487s.496.218.496.487M182.33 41.891a.492.492 0 0 1-.497.487.491.491 0 0 1-.496-.487c0-.269.222-.487.496-.487s.497.218.497.487M187.701 41.891a.492.492 0 0 1-.496.487.492.492 0 0 1-.496-.487c0-.269.222-.487.496-.487s.496.218.496.487M193.073 41.891a.492.492 0 0 1-.496.487.492.492 0 0 1-.496-.487c0-.269.222-.487.496-.487s.496.218.496.487M198.444 41.891a.492.492 0 0 1-.495.487.492.492 0 0 1-.497-.487c0-.269.222-.487.497-.487.273 0 .495.218.495.487M203.816 41.891a.491.491 0 0 1-.496.487.492.492 0 0 1-.496-.487c0-.269.223-.487.496-.487.274 0 .496.218.496.487M209.188 41.891a.492.492 0 0 1-.496.487.491.491 0 0 1-.496-.487c0-.269.221-.487.496-.487.274 0 .496.218.496.487M214.56 41.891a.492.492 0 0 1-.497.487.492.492 0 0 1-.496-.487c0-.269.223-.487.496-.487.275 0 .497.218.497.487M166.215 45.71c0 .27-.223.488-.497.488a.492.492 0 0 1-.496-.488c0-.269.222-.487.496-.487s.497.218.497.487M171.586 45.71c0 .27-.222.488-.496.488a.492.492 0 0 1-.496-.488c0-.269.222-.487.496-.487s.496.218.496.487M176.958 45.71c0 .27-.222.488-.496.488a.492.492 0 0 1-.497-.488c0-.269.223-.487.497-.487s.496.218.496.487M182.33 45.71c0 .27-.223.488-.497.488a.491.491 0 0 1-.496-.488c0-.269.222-.487.496-.487s.497.218.497.487M187.701 45.71c0 .27-.222.488-.496.488a.492.492 0 0 1-.496-.488c0-.269.222-.487.496-.487s.496.218.496.487M193.073 45.71c0 .27-.222.488-.496.488a.492.492 0 0 1-.496-.488c0-.269.222-.487.496-.487s.496.218.496.487M198.444 45.71c0 .27-.222.488-.495.488a.492.492 0 0 1-.497-.488c0-.269.222-.487.497-.487.273 0 .495.218.495.487M203.816 45.71c0 .27-.222.488-.496.488a.493.493 0 0 1-.496-.488c0-.269.223-.487.496-.487.274 0 .496.218.496.487M209.188 45.71c0 .27-.222.488-.496.488a.491.491 0 0 1-.496-.488c0-.269.221-.487.496-.487.274 0 .496.218.496.487M214.56 45.71c0 .27-.222.488-.497.488a.492.492 0 0 1-.496-.488c0-.269.223-.487.496-.487.275 0 .497.218.497.487M166.215 49.84a.493.493 0 0 1-.497.487.492.492 0 0 1-.496-.488c0-.27.222-.487.496-.487s.497.218.497.487M171.586 49.84a.492.492 0 0 1-.496.487.493.493 0 0 1-.496-.488c0-.27.222-.487.496-.487s.496.218.496.487M176.958 49.84a.492.492 0 0 1-.496.487.493.493 0 0 1-.497-.488c0-.27.223-.487.497-.487a.49.49 0 0 1 .496.487M182.33 49.84a.493.493 0 0 1-.497.487.492.492 0 0 1-.496-.488.49.49 0 0 1 .496-.487c.274 0 .497.218.497.487M187.701 49.84a.493.493 0 0 1-.496.487.492.492 0 0 1-.496-.488c0-.27.222-.487.496-.487s.496.218.496.487M193.073 49.84a.492.492 0 0 1-.496.487.493.493 0 0 1-.496-.488c0-.27.222-.487.496-.487s.496.218.496.487M198.444 49.84a.492.492 0 0 1-.495.487.493.493 0 0 1-.497-.488c0-.27.222-.487.497-.487.273 0 .495.218.495.487M203.816 49.84a.492.492 0 0 1-.496.487.493.493 0 0 1-.496-.488c0-.27.223-.487.496-.487a.49.49 0 0 1 .496.487M209.188 49.84a.493.493 0 0 1-.496.487.492.492 0 0 1-.496-.488.49.49 0 0 1 .496-.487c.274 0 .496.218.496.487M214.56 49.84a.493.493 0 0 1-.497.487.492.492 0 0 1-.496-.488c0-.27.223-.487.496-.487.275 0 .497.218.497.487M166.215 53.968c0 .27-.223.488-.497.488a.492.492 0 0 1-.496-.488c0-.269.222-.487.496-.487s.497.218.497.487M171.586 53.968c0 .27-.222.488-.496.488a.492.492 0 0 1-.496-.488c0-.269.222-.487.496-.487s.496.218.496.487M176.958 53.968c0 .27-.222.488-.496.488a.492.492 0 0 1-.497-.488c0-.269.223-.487.497-.487s.496.218.496.487M182.33 53.968c0 .27-.223.488-.497.488a.491.491 0 0 1-.496-.488c0-.269.222-.487.496-.487s.497.218.497.487M187.701 53.968c0 .27-.222.488-.496.488a.492.492 0 0 1-.496-.488c0-.269.222-.487.496-.487s.496.218.496.487M193.073 53.968c0 .27-.222.488-.496.488a.492.492 0 0 1-.496-.488c0-.269.222-.487.496-.487s.496.218.496.487M198.444 53.968c0 .27-.222.488-.495.488a.492.492 0 0 1-.497-.488c0-.269.222-.487.497-.487.273 0 .495.218.495.487M203.816 53.968c0 .27-.222.488-.496.488a.493.493 0 0 1-.496-.488c0-.269.223-.487.496-.487.274 0 .496.218.496.487M209.188 53.968c0 .27-.222.488-.496.488a.491.491 0 0 1-.496-.488c0-.269.221-.487.496-.487.274 0 .496.218.496.487M214.56 53.968c0 .27-.222.488-.497.488a.492.492 0 0 1-.496-.488c0-.269.223-.487.496-.487.275 0 .497.218.497.487M166.215 58.097c0 .27-.223.488-.497.488a.492.492 0 0 1-.496-.488c0-.269.222-.487.496-.487s.497.218.497.487M171.586 58.097c0 .27-.222.488-.496.488a.492.492 0 0 1-.496-.488c0-.269.222-.487.496-.487s.496.218.496.487M176.958 58.097c0 .27-.222.488-.496.488a.492.492 0 0 1-.497-.488c0-.269.223-.487.497-.487s.496.218.496.487M182.33 58.097c0 .27-.223.488-.497.488a.491.491 0 0 1-.496-.488c0-.269.222-.487.496-.487s.497.218.497.487M187.701 58.097c0 .27-.222.488-.496.488a.492.492 0 0 1-.496-.488c0-.269.222-.487.496-.487s.496.218.496.487M193.073 58.097c0 .27-.222.488-.496.488a.492.492 0 0 1-.496-.488c0-.269.222-.487.496-.487s.496.218.496.487M198.444 58.097c0 .27-.222.488-.495.488a.492.492 0 0 1-.497-.488c0-.269.222-.487.497-.487.273 0 .495.218.495.487M203.816 58.097c0 .27-.222.488-.496.488a.493.493 0 0 1-.496-.488c0-.269.223-.487.496-.487.274 0 .496.218.496.487M209.188 58.097c0 .27-.222.488-.496.488a.491.491 0 0 1-.496-.488c0-.269.221-.487.496-.487.274 0 .496.218.496.487M214.56 58.097c0 .27-.222.488-.497.488a.492.492 0 0 1-.496-.488c0-.269.223-.487.496-.487.275 0 .497.218.497.487M166.215 62.226c0 .27-.223.488-.497.488a.492.492 0 0 1-.496-.488c0-.27.222-.487.496-.487s.497.218.497.487M171.586 62.226c0 .27-.222.488-.496.488a.492.492 0 0 1-.496-.488c0-.27.222-.487.496-.487s.496.218.496.487M176.958 62.226c0 .27-.222.488-.496.488a.492.492 0 0 1-.497-.488c0-.27.223-.487.497-.487a.49.49 0 0 1 .496.487M182.33 62.226c0 .27-.223.488-.497.488a.491.491 0 0 1-.496-.488.49.49 0 0 1 .496-.487c.274 0 .497.218.497.487M187.701 62.226c0 .27-.222.488-.496.488a.492.492 0 0 1-.496-.488c0-.27.222-.487.496-.487s.496.218.496.487M193.073 62.226c0 .27-.222.488-.496.488a.492.492 0 0 1-.496-.488c0-.27.222-.487.496-.487s.496.218.496.487M198.444 62.226c0 .27-.222.488-.495.488a.492.492 0 0 1-.497-.488c0-.27.222-.487.497-.487.273 0 .495.218.495.487M203.816 62.226c0 .27-.222.488-.496.488a.493.493 0 0 1-.496-.488c0-.27.223-.487.496-.487a.49.49 0 0 1 .496.487M209.188 62.226c0 .27-.222.488-.496.488a.491.491 0 0 1-.496-.488.49.49 0 0 1 .496-.487c.274 0 .496.218.496.487M214.56 62.226c0 .27-.222.488-.497.488a.492.492 0 0 1-.496-.488c0-.27.223-.487.496-.487.275 0 .497.218.497.487M166.215 66.355a.492.492 0 0 1-.497.487.492.492 0 0 1-.496-.487c0-.269.222-.487.496-.487s.497.218.497.487M171.586 66.355a.492.492 0 0 1-.496.487.492.492 0 0 1-.496-.487c0-.269.222-.487.496-.487s.496.218.496.487M176.958 66.355a.491.491 0 0 1-.496.487.492.492 0 0 1-.497-.487c0-.269.223-.487.497-.487s.496.218.496.487M182.33 66.355a.492.492 0 0 1-.497.487.491.491 0 0 1-.496-.487c0-.269.222-.487.496-.487s.497.218.497.487M187.701 66.355a.492.492 0 0 1-.496.487.492.492 0 0 1-.496-.487c0-.269.222-.487.496-.487s.496.218.496.487M193.073 66.355a.492.492 0 0 1-.496.487.492.492 0 0 1-.496-.487c0-.269.222-.487.496-.487s.496.218.496.487M198.444 66.355a.492.492 0 0 1-.495.487.492.492 0 0 1-.497-.487c0-.269.222-.487.497-.487.273 0 .495.218.495.487M203.816 66.355a.491.491 0 0 1-.496.487.492.492 0 0 1-.496-.487c0-.269.223-.487.496-.487.274 0 .496.218.496.487M209.188 66.355a.492.492 0 0 1-.496.487.491.491 0 0 1-.496-.487c0-.269.221-.487.496-.487.274 0 .496.218.496.487M214.56 66.355a.492.492 0 0 1-.497.487.492.492 0 0 1-.496-.487c0-.269.223-.487.496-.487.275 0 .497.218.497.487M166.215 70.484c0 .27-.223.488-.497.488a.492.492 0 0 1-.496-.488c0-.269.222-.487.496-.487s.497.218.497.487M171.586 70.484c0 .27-.222.488-.496.488a.492.492 0 0 1-.496-.488c0-.269.222-.487.496-.487s.496.218.496.487M176.958 70.484c0 .27-.222.488-.496.488a.492.492 0 0 1-.497-.488c0-.269.223-.487.497-.487s.496.218.496.487M182.33 70.484c0 .27-.223.488-.497.488a.491.491 0 0 1-.496-.488c0-.269.222-.487.496-.487s.497.218.497.487M187.701 70.484c0 .27-.222.488-.496.488a.492.492 0 0 1-.496-.488c0-.269.222-.487.496-.487s.496.218.496.487M193.073 70.484c0 .27-.222.488-.496.488a.492.492 0 0 1-.496-.488c0-.269.222-.487.496-.487s.496.218.496.487M198.444 70.484c0 .27-.222.488-.495.488a.492.492 0 0 1-.497-.488c0-.269.222-.487.497-.487.273 0 .495.218.495.487M203.816 70.484c0 .27-.222.488-.496.488a.493.493 0 0 1-.496-.488c0-.269.223-.487.496-.487.274 0 .496.218.496.487M209.188 70.484c0 .27-.222.488-.496.488a.491.491 0 0 1-.496-.488c0-.269.221-.487.496-.487.274 0 .496.218.496.487M214.56 70.484c0 .27-.222.488-.497.488a.492.492 0 0 1-.496-.488c0-.269.223-.487.496-.487.275 0 .497.218.497.487M166.215 74.613c0 .27-.223.488-.497.488a.492.492 0 0 1-.496-.488c0-.27.222-.487.496-.487s.497.218.497.487M171.586 74.613c0 .27-.222.488-.496.488a.492.492 0 0 1-.496-.488c0-.27.222-.487.496-.487s.496.218.496.487M176.958 74.613c0 .27-.222.488-.496.488a.492.492 0 0 1-.497-.488c0-.27.223-.487.497-.487a.49.49 0 0 1 .496.487M182.33 74.613c0 .27-.223.488-.497.488a.491.491 0 0 1-.496-.488.49.49 0 0 1 .496-.487c.274 0 .497.218.497.487M187.701 74.613c0 .27-.222.488-.496.488a.492.492 0 0 1-.496-.488c0-.27.222-.487.496-.487s.496.218.496.487M193.073 74.613c0 .27-.222.488-.496.488a.492.492 0 0 1-.496-.488c0-.27.222-.487.496-.487s.496.218.496.487M198.444 74.613c0 .27-.222.488-.495.488a.492.492 0 0 1-.497-.488c0-.27.222-.487.497-.487.273 0 .495.218.495.487M203.816 74.613c0 .27-.222.488-.496.488a.493.493 0 0 1-.496-.488c0-.27.223-.487.496-.487a.49.49 0 0 1 .496.487M209.188 74.613c0 .27-.222.488-.496.488a.491.491 0 0 1-.496-.488.49.49 0 0 1 .496-.487c.274 0 .496.218.496.487M214.56 74.613c0 .27-.222.488-.497.488a.492.492 0 0 1-.496-.488c0-.27.223-.487.496-.487.275 0 .497.218.497.487M166.215 78.742a.493.493 0 0 1-.497.488.492.492 0 0 1-.496-.488c0-.27.222-.487.496-.487s.497.218.497.487M171.586 78.742a.492.492 0 0 1-.496.488.493.493 0 0 1-.496-.488c0-.27.222-.487.496-.487s.496.218.496.487M176.958 78.742a.492.492 0 0 1-.496.488.493.493 0 0 1-.497-.488c0-.27.223-.487.497-.487a.49.49 0 0 1 .496.487M182.33 78.742a.493.493 0 0 1-.497.488.492.492 0 0 1-.496-.488.49.49 0 0 1 .496-.487c.274 0 .497.218.497.487M187.701 78.742a.493.493 0 0 1-.496.488.492.492 0 0 1-.496-.488c0-.27.222-.487.496-.487s.496.218.496.487M193.073 78.742a.492.492 0 0 1-.496.488.493.493 0 0 1-.496-.488c0-.27.222-.487.496-.487s.496.218.496.487M198.444 78.742a.492.492 0 0 1-.495.488.493.493 0 0 1-.497-.488c0-.27.222-.487.497-.487.273 0 .495.218.495.487M203.816 78.742a.492.492 0 0 1-.496.488.493.493 0 0 1-.496-.488c0-.27.223-.487.496-.487a.49.49 0 0 1 .496.487M209.188 78.742a.493.493 0 0 1-.496.488.492.492 0 0 1-.496-.488.49.49 0 0 1 .496-.487c.274 0 .496.218.496.487M214.56 78.742a.493.493 0 0 1-.497.488.492.492 0 0 1-.496-.488c0-.27.223-.487.496-.487.275 0 .497.218.497.487M166.215 82.87c0 .27-.223.489-.497.489a.492.492 0 0 1-.496-.488c0-.269.222-.487.496-.487s.497.218.497.487M171.586 82.87c0 .27-.222.489-.496.489a.492.492 0 0 1-.496-.488c0-.269.222-.487.496-.487s.496.218.496.487M176.958 82.87c0 .27-.222.489-.496.489a.492.492 0 0 1-.497-.488c0-.269.223-.487.497-.487s.496.218.496.487M182.33 82.87c0 .27-.223.489-.497.489a.491.491 0 0 1-.496-.488c0-.269.222-.487.496-.487s.497.218.497.487M187.701 82.87c0 .27-.222.489-.496.489a.492.492 0 0 1-.496-.488c0-.269.222-.487.496-.487s.496.218.496.487M193.073 82.87c0 .27-.222.489-.496.489a.492.492 0 0 1-.496-.488c0-.269.222-.487.496-.487s.496.218.496.487M198.444 82.87c0 .27-.222.489-.495.489a.492.492 0 0 1-.497-.488c0-.269.222-.487.497-.487.273 0 .495.218.495.487M203.816 82.87c0 .27-.222.489-.496.489a.493.493 0 0 1-.496-.488c0-.269.223-.487.496-.487.274 0 .496.218.496.487M209.188 82.87c0 .27-.222.489-.496.489a.491.491 0 0 1-.496-.488c0-.269.221-.487.496-.487.274 0 .496.218.496.487M214.56 82.87c0 .27-.222.489-.497.489a.492.492 0 0 1-.496-.488c0-.269.223-.487.496-.487.275 0 .497.218.497.487M166.215 87c0 .27-.223.488-.497.488a.492.492 0 0 1-.496-.488c0-.27.222-.487.496-.487s.497.217.497.487M171.586 87c0 .27-.222.488-.496.488a.492.492 0 0 1-.496-.488c0-.27.222-.487.496-.487s.496.217.496.487M176.958 87c0 .27-.222.488-.496.488a.492.492 0 0 1-.497-.488c0-.27.223-.487.497-.487a.49.49 0 0 1 .496.487M182.33 87c0 .27-.223.488-.497.488a.491.491 0 0 1-.496-.488.49.49 0 0 1 .496-.487c.274 0 .497.217.497.487M187.701 87c0 .27-.222.488-.496.488a.492.492 0 0 1-.496-.488c0-.27.222-.487.496-.487s.496.217.496.487M193.073 87c0 .27-.222.488-.496.488a.492.492 0 0 1-.496-.488c0-.27.222-.487.496-.487s.496.217.496.487M198.444 87c0 .27-.222.488-.495.488a.492.492 0 0 1-.497-.488c0-.27.222-.487.497-.487.273 0 .495.217.495.487M203.816 87c0 .27-.222.488-.496.488a.493.493 0 0 1-.496-.488c0-.27.223-.487.496-.487a.49.49 0 0 1 .496.487M209.188 87c0 .27-.222.488-.496.488a.491.491 0 0 1-.496-.488.49.49 0 0 1 .496-.487c.274 0 .496.217.496.487M214.56 87c0 .27-.222.488-.497.488a.492.492 0 0 1-.496-.488c0-.27.223-.487.496-.487.275 0 .497.217.497.487"/>
        </g>
        <g fill="#FFC916" fill-rule="nonzero" opacity=".3">
            <path d="M20.5 54.15a.53.53 0 0 1-.525.534.53.53 0 0 1-.523-.534c0-.295.234-.533.523-.533.29 0 .524.238.524.533M26.167 54.15a.529.529 0 0 1-.524.534.53.53 0 0 1-.524-.534c0-.295.235-.533.524-.533.29 0 .524.238.524.533M31.834 54.15a.529.529 0 0 1-.524.534.529.529 0 0 1-.523-.534c0-.295.235-.533.523-.533.29 0 .524.238.524.533M37.502 54.15a.529.529 0 0 1-.523.534.53.53 0 0 1-.524-.534c0-.295.235-.533.524-.533.289 0 .523.238.523.533M43.17 54.15a.53.53 0 0 1-.524.534.529.529 0 0 1-.523-.534c0-.295.234-.533.523-.533.29 0 .524.238.524.533M48.838 54.15a.529.529 0 0 1-.524.534.529.529 0 0 1-.523-.534c0-.295.234-.533.523-.533.29 0 .524.238.524.533M54.505 54.15a.529.529 0 0 1-.523.534.53.53 0 0 1-.524-.534c0-.295.235-.533.524-.533.29 0 .523.238.523.533M60.173 54.15a.53.53 0 0 1-.523.534.529.529 0 0 1-.523-.534c0-.295.234-.533.523-.533.289 0 .523.238.523.533M65.841 54.15a.529.529 0 0 1-.524.534.529.529 0 0 1-.523-.534c0-.295.235-.533.523-.533.29 0 .524.238.524.533M71.509 54.15a.529.529 0 0 1-.524.534.53.53 0 0 1-.523-.534c0-.295.234-.533.523-.533.29 0 .524.238.524.533M20.5 58.67a.529.529 0 0 1-.525.533.529.529 0 0 1-.523-.533.53.53 0 0 1 .523-.534c.29 0 .524.24.524.534M26.167 58.67a.529.529 0 0 1-.524.533.529.529 0 0 1-.524-.533.53.53 0 0 1 .524-.534c.29 0 .524.24.524.534M31.834 58.67a.529.529 0 0 1-.524.533.529.529 0 0 1-.523-.533c0-.294.235-.534.523-.534.29 0 .524.24.524.534M37.502 58.67a.528.528 0 0 1-.523.533.529.529 0 0 1-.524-.533.53.53 0 0 1 .524-.534c.289 0 .523.24.523.534M43.17 58.67a.529.529 0 0 1-.524.533.528.528 0 0 1-.523-.533c0-.294.234-.534.523-.534.29 0 .524.24.524.534M48.838 58.67a.529.529 0 0 1-.524.533.529.529 0 0 1-.523-.533c0-.294.234-.534.523-.534.29 0 .524.24.524.534M54.505 58.67a.528.528 0 0 1-.523.533.529.529 0 0 1-.524-.533.53.53 0 0 1 .524-.534c.29 0 .523.24.523.534M60.173 58.67a.529.529 0 0 1-.523.533.528.528 0 0 1-.523-.533c0-.294.234-.534.523-.534.289 0 .523.24.523.534M65.841 58.67a.529.529 0 0 1-.524.533.529.529 0 0 1-.523-.533c0-.294.235-.534.523-.534.29 0 .524.24.524.534M71.509 58.67a.528.528 0 0 1-.524.533.529.529 0 0 1-.523-.533.53.53 0 0 1 .523-.534c.29 0 .524.24.524.534M20.5 63.19a.529.529 0 0 1-.525.533.529.529 0 0 1-.523-.533.53.53 0 0 1 .523-.534c.29 0 .524.24.524.534M26.167 63.19a.528.528 0 0 1-.524.533.529.529 0 0 1-.524-.533.53.53 0 0 1 .524-.534c.29 0 .524.24.524.534M31.834 63.19a.528.528 0 0 1-.524.533.528.528 0 0 1-.523-.533c0-.295.235-.534.523-.534.29 0 .524.24.524.534M37.502 63.19a.528.528 0 0 1-.523.533.529.529 0 0 1-.524-.533.53.53 0 0 1 .524-.534c.289 0 .523.24.523.534M43.17 63.19a.529.529 0 0 1-.524.533.528.528 0 0 1-.523-.533c0-.295.234-.534.523-.534.29 0 .524.24.524.534M48.838 63.19a.528.528 0 0 1-.524.533.528.528 0 0 1-.523-.533c0-.295.234-.534.523-.534.29 0 .524.24.524.534M54.505 63.19a.528.528 0 0 1-.523.533.529.529 0 0 1-.524-.533.53.53 0 0 1 .524-.534c.29 0 .523.24.523.534M60.173 63.19a.529.529 0 0 1-.523.533.528.528 0 0 1-.523-.533c0-.295.234-.534.523-.534.289 0 .523.24.523.534M65.841 63.19a.528.528 0 0 1-.524.533.528.528 0 0 1-.523-.533c0-.295.235-.534.523-.534.29 0 .524.24.524.534M71.509 63.19a.528.528 0 0 1-.524.533.529.529 0 0 1-.523-.533.53.53 0 0 1 .523-.534c.29 0 .524.24.524.534M20.5 67.71a.53.53 0 0 1-.525.533.53.53 0 0 1-.523-.533.53.53 0 0 1 .523-.534c.29 0 .524.239.524.534M26.167 67.71a.529.529 0 0 1-.524.533.53.53 0 0 1-.524-.533.53.53 0 0 1 .524-.534c.29 0 .524.239.524.534M31.834 67.71a.529.529 0 0 1-.524.533.529.529 0 0 1-.523-.533c0-.295.235-.534.523-.534.29 0 .524.239.524.534M37.502 67.71a.529.529 0 0 1-.523.533.53.53 0 0 1-.524-.533.53.53 0 0 1 .524-.534c.289 0 .523.239.523.534M43.17 67.71a.53.53 0 0 1-.524.533.529.529 0 0 1-.523-.533c0-.295.234-.534.523-.534.29 0 .524.239.524.534M48.838 67.71a.529.529 0 0 1-.524.533.529.529 0 0 1-.523-.533c0-.295.234-.534.523-.534.29 0 .524.239.524.534M54.505 67.71a.529.529 0 0 1-.523.533.53.53 0 0 1-.524-.533.53.53 0 0 1 .524-.534c.29 0 .523.239.523.534M60.173 67.71a.53.53 0 0 1-.523.533.529.529 0 0 1-.523-.533c0-.295.234-.534.523-.534.289 0 .523.239.523.534M65.841 67.71a.529.529 0 0 1-.524.533.529.529 0 0 1-.523-.533c0-.295.235-.534.523-.534.29 0 .524.239.524.534M71.509 67.71a.529.529 0 0 1-.524.533.53.53 0 0 1-.523-.533.53.53 0 0 1 .523-.534c.29 0 .524.239.524.534M20.5 72.23a.529.529 0 0 1-.525.533.529.529 0 0 1-.523-.533.53.53 0 0 1 .523-.535c.29 0 .524.24.524.535M26.167 72.23a.529.529 0 0 1-.524.533.529.529 0 0 1-.524-.533.53.53 0 0 1 .524-.535c.29 0 .524.24.524.535M31.834 72.23a.529.529 0 0 1-.524.533.529.529 0 0 1-.523-.533.53.53 0 0 1 .523-.535c.29 0 .524.24.524.535M37.502 72.23a.528.528 0 0 1-.523.533.529.529 0 0 1-.524-.533.53.53 0 0 1 .524-.535c.289 0 .523.24.523.535M43.17 72.23a.529.529 0 0 1-.524.533.528.528 0 0 1-.523-.533c0-.295.234-.535.523-.535.29 0 .524.24.524.535M48.838 72.23a.529.529 0 0 1-.524.533.529.529 0 0 1-.523-.533.53.53 0 0 1 .523-.535c.29 0 .524.24.524.535M54.505 72.23a.528.528 0 0 1-.523.533.529.529 0 0 1-.524-.533.53.53 0 0 1 .524-.535c.29 0 .523.24.523.535M60.173 72.23a.529.529 0 0 1-.523.533.528.528 0 0 1-.523-.533c0-.295.234-.535.523-.535.289 0 .523.24.523.535M65.841 72.23a.529.529 0 0 1-.524.533.529.529 0 0 1-.523-.533.53.53 0 0 1 .523-.535c.29 0 .524.24.524.535M71.509 72.23a.528.528 0 0 1-.524.533.529.529 0 0 1-.523-.533.53.53 0 0 1 .523-.535c.29 0 .524.24.524.535M20.5 76.75a.53.53 0 0 1-.525.534.53.53 0 0 1-.523-.534c0-.296.234-.534.523-.534.29 0 .524.238.524.534M26.167 76.75a.529.529 0 0 1-.524.534.53.53 0 0 1-.524-.534c0-.296.235-.534.524-.534.29 0 .524.238.524.534M31.834 76.75a.529.529 0 0 1-.524.534.529.529 0 0 1-.523-.534c0-.296.235-.534.523-.534.29 0 .524.238.524.534M37.502 76.75a.529.529 0 0 1-.523.534.53.53 0 0 1-.524-.534c0-.296.235-.534.524-.534.289 0 .523.238.523.534M43.17 76.75a.53.53 0 0 1-.524.534.529.529 0 0 1-.523-.534c0-.296.234-.534.523-.534.29 0 .524.238.524.534M48.838 76.75a.529.529 0 0 1-.524.534.529.529 0 0 1-.523-.534c0-.296.234-.534.523-.534.29 0 .524.238.524.534M54.505 76.75a.529.529 0 0 1-.523.534.53.53 0 0 1-.524-.534c0-.296.235-.534.524-.534.29 0 .523.238.523.534M60.173 76.75a.53.53 0 0 1-.523.534.529.529 0 0 1-.523-.534c0-.296.234-.534.523-.534.289 0 .523.238.523.534M65.841 76.75a.529.529 0 0 1-.524.534.529.529 0 0 1-.523-.534c0-.296.235-.534.523-.534.29 0 .524.238.524.534M71.509 76.75a.529.529 0 0 1-.524.534.53.53 0 0 1-.523-.534c0-.296.234-.534.523-.534.29 0 .524.238.524.534M20.5 81.27a.53.53 0 0 1-.525.533.53.53 0 0 1-.523-.534.53.53 0 0 1 .523-.533c.29 0 .524.239.524.533M26.167 81.27a.529.529 0 0 1-.524.533.53.53 0 0 1-.524-.534.53.53 0 0 1 .524-.533c.29 0 .524.239.524.533M31.834 81.27a.529.529 0 0 1-.524.533.529.529 0 0 1-.523-.534c0-.294.235-.533.523-.533.29 0 .524.239.524.533M37.502 81.27a.529.529 0 0 1-.523.533.53.53 0 0 1-.524-.534.53.53 0 0 1 .524-.533c.289 0 .523.239.523.533M43.17 81.27a.53.53 0 0 1-.524.533.529.529 0 0 1-.523-.534c0-.294.234-.533.523-.533.29 0 .524.239.524.533M48.838 81.27a.529.529 0 0 1-.524.533.529.529 0 0 1-.523-.534c0-.294.234-.533.523-.533.29 0 .524.239.524.533M54.505 81.27a.529.529 0 0 1-.523.533.53.53 0 0 1-.524-.534.53.53 0 0 1 .524-.533c.29 0 .523.239.523.533M60.173 81.27a.53.53 0 0 1-.523.533.529.529 0 0 1-.523-.534c0-.294.234-.533.523-.533.289 0 .523.239.523.533M65.841 81.27a.529.529 0 0 1-.524.533.529.529 0 0 1-.523-.534c0-.294.235-.533.523-.533.29 0 .524.239.524.533M71.509 81.27a.529.529 0 0 1-.524.533.53.53 0 0 1-.523-.534.53.53 0 0 1 .523-.533c.29 0 .524.239.524.533M20.5 85.79a.53.53 0 0 1-.525.533.53.53 0 0 1-.523-.534.53.53 0 0 1 .523-.534c.29 0 .524.24.524.534M26.167 85.79a.529.529 0 0 1-.524.533.53.53 0 0 1-.524-.534.53.53 0 0 1 .524-.534c.29 0 .524.24.524.534M31.834 85.79a.529.529 0 0 1-.524.533.529.529 0 0 1-.523-.534c0-.294.235-.534.523-.534.29 0 .524.24.524.534M37.502 85.79a.529.529 0 0 1-.523.533.53.53 0 0 1-.524-.534.53.53 0 0 1 .524-.534c.289 0 .523.24.523.534M43.17 85.79a.53.53 0 0 1-.524.533.529.529 0 0 1-.523-.534c0-.294.234-.534.523-.534.29 0 .524.24.524.534M48.838 85.79a.529.529 0 0 1-.524.533.529.529 0 0 1-.523-.534c0-.294.234-.534.523-.534.29 0 .524.24.524.534M54.505 85.79a.529.529 0 0 1-.523.533.53.53 0 0 1-.524-.534.53.53 0 0 1 .524-.534c.29 0 .523.24.523.534M60.173 85.79a.53.53 0 0 1-.523.533.529.529 0 0 1-.523-.534c0-.294.234-.534.523-.534.289 0 .523.24.523.534M65.841 85.79a.529.529 0 0 1-.524.533.529.529 0 0 1-.523-.534c0-.294.235-.534.523-.534.29 0 .524.24.524.534M71.509 85.79a.529.529 0 0 1-.524.533.53.53 0 0 1-.523-.534.53.53 0 0 1 .523-.534c.29 0 .524.24.524.534M20.5 90.309a.529.529 0 0 1-.525.534.529.529 0 0 1-.523-.534.53.53 0 0 1 .523-.534c.29 0 .524.24.524.534M26.167 90.309a.528.528 0 0 1-.524.534.529.529 0 0 1-.524-.534.53.53 0 0 1 .524-.534c.29 0 .524.24.524.534M31.834 90.309a.528.528 0 0 1-.524.534.529.529 0 0 1-.523-.534c0-.295.235-.534.523-.534.29 0 .524.24.524.534M37.502 90.309a.528.528 0 0 1-.523.534.529.529 0 0 1-.524-.534.53.53 0 0 1 .524-.534c.289 0 .523.24.523.534M43.17 90.309a.529.529 0 0 1-.524.534.528.528 0 0 1-.523-.534c0-.295.234-.534.523-.534.29 0 .524.24.524.534M48.838 90.309a.528.528 0 0 1-.524.534.529.529 0 0 1-.523-.534c0-.295.234-.534.523-.534.29 0 .524.24.524.534M54.505 90.309a.528.528 0 0 1-.523.534.529.529 0 0 1-.524-.534.53.53 0 0 1 .524-.534c.29 0 .523.24.523.534M60.173 90.309a.529.529 0 0 1-.523.534.528.528 0 0 1-.523-.534c0-.295.234-.534.523-.534.289 0 .523.24.523.534M65.841 90.309a.528.528 0 0 1-.524.534.529.529 0 0 1-.523-.534c0-.295.235-.534.523-.534.29 0 .524.24.524.534M71.509 90.309a.528.528 0 0 1-.524.534.529.529 0 0 1-.523-.534.53.53 0 0 1 .523-.534c.29 0 .524.24.524.534M20.5 94.829a.529.529 0 0 1-.525.533.529.529 0 0 1-.523-.533c0-.294.234-.534.523-.534.29 0 .524.24.524.534M26.167 94.829a.528.528 0 0 1-.524.533.529.529 0 0 1-.524-.533c0-.294.235-.534.524-.534.29 0 .524.24.524.534M31.834 94.829a.528.528 0 0 1-.524.533.529.529 0 0 1-.523-.533c0-.294.235-.534.523-.534.29 0 .524.24.524.534M37.502 94.829a.528.528 0 0 1-.523.533.529.529 0 0 1-.524-.533c0-.294.235-.534.524-.534.289 0 .523.24.523.534M43.17 94.829a.529.529 0 0 1-.524.533.528.528 0 0 1-.523-.533c0-.294.234-.534.523-.534.29 0 .524.24.524.534M48.838 94.829a.528.528 0 0 1-.524.533.529.529 0 0 1-.523-.533c0-.294.234-.534.523-.534.29 0 .524.24.524.534M54.505 94.829a.528.528 0 0 1-.523.533.529.529 0 0 1-.524-.533c0-.294.235-.534.524-.534.29 0 .523.24.523.534M60.173 94.829a.529.529 0 0 1-.523.533.528.528 0 0 1-.523-.533c0-.294.234-.534.523-.534.289 0 .523.24.523.534M65.841 94.829a.528.528 0 0 1-.524.533.529.529 0 0 1-.523-.533c0-.294.235-.534.523-.534.29 0 .524.24.524.534M71.509 94.829a.528.528 0 0 1-.524.533.529.529 0 0 1-.523-.533c0-.294.234-.534.523-.534.29 0 .524.24.524.534M20.5 99.349a.53.53 0 0 1-.525.534.53.53 0 0 1-.523-.534.53.53 0 0 1 .523-.534c.29 0 .524.24.524.534M26.167 99.349a.529.529 0 0 1-.524.534.53.53 0 0 1-.524-.534.53.53 0 0 1 .524-.534c.29 0 .524.24.524.534M31.834 99.349a.529.529 0 0 1-.524.534.529.529 0 0 1-.523-.534c0-.295.235-.534.523-.534.29 0 .524.24.524.534M37.502 99.349a.529.529 0 0 1-.523.534.53.53 0 0 1-.524-.534.53.53 0 0 1 .524-.534c.289 0 .523.24.523.534M43.17 99.349a.53.53 0 0 1-.524.534.529.529 0 0 1-.523-.534c0-.295.234-.534.523-.534.29 0 .524.24.524.534M48.838 99.349a.529.529 0 0 1-.524.534.529.529 0 0 1-.523-.534c0-.295.234-.534.523-.534.29 0 .524.24.524.534M54.505 99.349a.529.529 0 0 1-.523.534.53.53 0 0 1-.524-.534.53.53 0 0 1 .524-.534c.29 0 .523.24.523.534M60.173 99.349a.53.53 0 0 1-.523.534.529.529 0 0 1-.523-.534c0-.295.234-.534.523-.534.289 0 .523.24.523.534M65.841 99.349a.529.529 0 0 1-.524.534.529.529 0 0 1-.523-.534c0-.295.235-.534.523-.534.29 0 .524.24.524.534M71.509 99.349a.529.529 0 0 1-.524.534.53.53 0 0 1-.523-.534.53.53 0 0 1 .523-.534c.29 0 .524.24.524.534"/>
        </g>
        <g fill-rule="nonzero">
            <path fill="#283A5E" d="M168.557 41.135H67.804c-2.944 0-5.33-2.494-5.33-5.57V20.709c0-3.077 2.386-5.57 5.33-5.57h100.753c2.945 0 5.331 2.493 5.331 5.57v14.856c0 3.076-2.386 5.57-5.33 5.57M168.557 73.446H67.804c-2.944 0-5.33-2.494-5.33-5.57V53.02c0-3.077 2.386-5.571 5.33-5.571h100.753c2.945 0 5.331 2.494 5.331 5.57v14.856c0 3.077-2.386 5.571-5.33 5.571M168.557 105.942H67.804c-2.944 0-5.33-2.493-5.33-5.57V85.516c0-3.077 2.386-5.57 5.33-5.57h100.753c2.945 0 5.331 2.493 5.331 5.57v14.856c0 3.077-2.386 5.57-5.33 5.57"/>
            <path fill="#FFF" d="M78.288 27.951c0 1.744-1.352 3.157-3.02 3.157-1.67 0-3.022-1.413-3.022-3.157 0-1.743 1.353-3.157 3.022-3.157 1.668 0 3.02 1.414 3.02 3.157M91.97 27.951c0 1.744-1.352 3.157-3.02 3.157-1.669 0-3.021-1.413-3.021-3.157 0-1.743 1.352-3.157 3.021-3.157 1.668 0 3.02 1.414 3.02 3.157M78.288 60.633c0 1.744-1.352 3.157-3.02 3.157-1.67 0-3.022-1.413-3.022-3.157 0-1.743 1.353-3.157 3.022-3.157 1.668 0 3.02 1.414 3.02 3.157M91.97 60.633c0 1.744-1.352 3.157-3.02 3.157-1.669 0-3.021-1.413-3.021-3.157 0-1.743 1.352-3.157 3.021-3.157 1.668 0 3.02 1.414 3.02 3.157M78.288 93.316c0 1.743-1.352 3.156-3.02 3.156-1.67 0-3.022-1.413-3.022-3.156 0-1.744 1.353-3.158 3.022-3.158 1.668 0 3.02 1.414 3.02 3.158M91.97 93.316c0 1.743-1.352 3.156-3.02 3.156-1.669 0-3.021-1.413-3.021-3.156 0-1.744 1.352-3.158 3.021-3.158 1.668 0 3.02 1.414 3.02 3.158"/>
        </g>
        <g fill-rule="nonzero">
            <path fill="#FF4702" d="M47.411 36.086a5.698 5.698 0 0 0-6.75-5.956c-.346-4.214-3.871-7.528-8.17-7.528-4.286 0-7.802 3.292-8.167 7.488a5.7 5.7 0 0 0-4.864 5.996h27.951z"/>
            <g fill="#D3D7DE" stroke="#D3D7DE" stroke-width="1.5">
                <path d="M47.848 39.34h3.89M29.81 39.34H45.02"/>
            </g>
        </g>
        <g fill-rule="nonzero">
            <path fill="#E9EBEF" d="M227.624 77.364c-.016-3.856-3.227-6.976-7.186-6.976-.264 0-.525.014-.782.041-1.542-3.738-5.297-6.377-9.684-6.377-5.764 0-10.436 4.554-10.436 10.172 0 1.096.178 2.15.506 3.14h27.582z"/>
            <g fill="#D3D7DE" stroke="#D3D7DE" stroke-width="1.5">
                <path d="M227.521 80.371h4.612M206.141 80.371h18.027"/>
            </g>
        </g>
    </g>
</svg>
