<svg xmlns="http://www.w3.org/2000/svg" width="406" height="299" viewBox="0 0 406 299">
    <g fill="none" fill-rule="evenodd">
        <path d="M-68-2h540v302H-68z"/>
        <path fill-rule="nonzero" d="M-58-2h519v303H-58z"/>
        <g transform="translate(-24.039 -2)">
            <path d="M0 0h452.819v303H0z"/>
            <ellipse cx="410.24" cy="288.121" fill="#DBDFE2" fill-rule="nonzero" rx="6.083" ry="1.353"/>
            <ellipse cx="423.757" cy="288.121" fill="#DBDFE2" fill-rule="nonzero" rx="6.083" ry="1.353"/>
            <rect width="1.352" height="18.938" x="409.564" y="269.183" fill="#7F889E" fill-rule="nonzero" rx=".676"/>
            <path fill="#02AD46" fill-rule="nonzero" d="M414.937 248.92v-2.854c0-2.174-1.771-3.937-3.956-3.937h-2.868c-2.184 0-3.955 1.763-3.955 3.937v2.853a3.912 3.912 0 0 0 1.399 3 3.912 3.912 0 0 0-1.4 3v2.853a3.912 3.912 0 0 0 1.434 2.974 3.912 3.912 0 0 0-1.399 3v2.853c0 2.174 1.771 3.937 3.956 3.937h2.867c2.185 0 3.956-1.763 3.956-3.937v-2.853a3.912 3.912 0 0 0-1.433-3 3.912 3.912 0 0 0 1.399-3v-2.853a3.912 3.912 0 0 0-1.4-3 3.912 3.912 0 0 0 1.4-2.974z"/>
            <path fill="#000" fill-rule="nonzero" d="M404.158 255.656v2.719c.015 1.098.54 2.135 1.433 2.833-.888.71-1.4 1.757-1.399 2.858v2.72c0 2.07 1.771 3.75 3.956 3.75h2.867c2.185 0 3.956-1.68 3.956-3.75v-2.72c-.007-1.107-.532-2.154-1.433-2.858l-9.38-5.552z" opacity=".1"/>
            <path stroke="#FFF" stroke-linecap="round" stroke-linejoin="round" stroke-width=".8" d="M409.564 258.362l-5.406-4.058M416.323 250.246l-5.407-4.059M414.971 267.83l-5.407-4.058"/>
            <rect width="1.352" height="12.174" x="423.081" y="275.946" fill="#7F889E" fill-rule="nonzero" rx=".676"/>
            <path fill="#02AD46" fill-rule="nonzero" d="M420.43 260.55a3.74 3.74 0 0 0-1.404 2.908v2.79a3.756 3.756 0 0 0 1.404 2.916 3.74 3.74 0 0 0-1.404 2.907v2.766c0 2.107 1.777 3.815 3.969 3.815h2.876c2.192 0 3.969-1.708 3.969-3.815v-2.758a3.74 3.74 0 0 0-1.404-2.907 3.756 3.756 0 0 0 1.404-2.915v-2.766a3.74 3.74 0 0 0-1.404-2.907c-1.863-1.141-5.892-1.166-8.006-.033z"/>
            <path fill="#000" fill-rule="nonzero" d="M419.026 263.772v2.733c0 1.1.513 2.144 1.404 2.855-.891.708-1.405 1.75-1.404 2.847v2.709c0 2.063 1.777 3.736 3.969 3.736h2.876c2.192 0 3.969-1.673 3.969-3.736v-2.7c.001-1.098-.513-2.14-1.404-2.848l-9.41-5.596z" opacity=".1"/>
            <path stroke="#FFF" stroke-linecap="round" stroke-linejoin="round" stroke-width=".8" d="M423.081 266.478l-5.406-4.058M429.84 275.946l-5.407-4.058"/>
            <ellipse cx="216.272" cy="295.56" fill="#DBDFE2" fill-rule="nonzero" rx="25.682" ry="4.734"/>
            <ellipse cx="108.136" cy="294.208" fill="#DBDFE2" fill-rule="nonzero" rx="37.848" ry="2.029"/>
            <ellipse cx="336.573" cy="295.56" fill="#DBDFE2" fill-rule="nonzero" rx="25.682" ry="4.734"/>
            <g stroke="#E9EBEE" stroke-width="1.02" opacity=".6">
                <path d="M173.378 20.315v206.279M200.744 20.315v206.279M228.111 20.315v206.279M255.478 20.315v206.279M282.845 20.315v206.279M310.211 20.315v206.279M337.578 20.315v206.279M364.953 20.315v206.279M392.32 20.315v206.279M143.347 205.662H422.35M143.347 178.261H422.35M143.347 150.86H422.35M143.347 123.459H422.35M143.347 96.058H422.35M143.347 68.657H422.35M143.347 41.247H422.35"/>
            </g>
            <rect width="104.081" height="248.893" x="24.331" y="2.705" fill="#E9EBEE" fill-rule="nonzero" rx="6"/>
            <path fill="#FFF" fill-rule="nonzero" d="M229.789 68.987h109.488v109.567H229.789z"/>
            <path stroke="#7F889E" stroke-width="1.02" d="M339.276 175.848v2.706h-2.703"/>
            <path stroke="#7F889E" stroke-dasharray="5.89" stroke-width="1.02" d="M331.166 177.877h-95.97"/>
            <path stroke="#7F889E" stroke-width="1.02" d="M232.492 178.554h-2.703v-2.706"/>
            <path stroke="#7F889E" stroke-dasharray="5.89" stroke-width="1.02" d="M230.464 170.438v-96.04"/>
            <path stroke="#7F889E" stroke-width="1.02" d="M229.789 71.692v-2.705h2.703"/>
            <path stroke="#7F889E" stroke-dasharray="5.89" stroke-width="1.02" d="M237.899 68.31h95.97"/>
            <path stroke="#7F889E" stroke-width="1.02" d="M336.573 68.987h2.703v2.705"/>
            <path stroke="#7F889E" stroke-dasharray="5.89" stroke-width="1.02" d="M338.6 77.103v96.04"/>
            <path fill="#FFF" fill-rule="nonzero" d="M48.661 29.759h51.365v51.402H48.661z"/>
            <path stroke="#7F889E" stroke-width="1.02" d="M100.026 78.455v2.706h-2.704"/>
            <path stroke="#7F889E" stroke-dasharray="6.13" stroke-width="1.02" d="M93.267 80.484h-39.2"/>
            <path stroke="#7F889E" stroke-width="1.02" d="M51.365 81.16H48.66v-2.705"/>
            <path stroke="#7F889E" stroke-dasharray="6.13" stroke-width="1.02" d="M47.985 73.045V33.817"/>
            <path stroke="#7F889E" stroke-width="1.02" d="M48.661 32.464V29.76h2.704"/>
            <path stroke="#7F889E" stroke-dasharray="6.13" stroke-width="1.02" d="M55.42 29.083h39.199"/>
            <path stroke="#7F889E" stroke-width="1.02" d="M97.322 29.759h2.704v2.705"/>
            <path stroke="#7F889E" stroke-dasharray="6.13" stroke-width="1.02" d="M100.701 36.522V75.75"/>
            <path fill="#F6F7F8" fill-rule="nonzero" d="M66.233 44.638h51.365V96.04H66.233zM48.661 173.143h51.365v51.402H48.661zM48.661 101.451h51.365v51.402H48.661z"/>
            <path fill="#A9B0BE" fill-rule="nonzero" d="M77.047 63.576h5.407v21.643h-5.407zM87.86 55.46h5.407v29.759H87.86zM98.674 66.281h5.407v18.938h-5.407zM74.993 185.317c-7.835.014-14.176 6.38-14.167 14.22.01 7.841 6.367 14.191 14.202 14.186 7.835-.005 14.184-6.362 14.184-14.203 0-3.771-1.499-7.388-4.166-10.052a14.188 14.188 0 0 0-10.053-4.151zm0 23.241c-4.984-.014-9.015-4.067-9.006-9.055.01-4.988 4.056-9.026 9.04-9.021 4.986.005 9.024 4.05 9.024 9.038a9.042 9.042 0 0 1-2.657 6.395 9.028 9.028 0 0 1-6.4 2.635v.008z"/>
            <path stroke="#F6F7F8" stroke-width="3.07" d="M74.343 182.612v17.584h17.572"/>
            <path fill="#A9B0BE" fill-rule="nonzero" d="M73.416 142.031h-.832c-7.987 0-14.461-6.662-14.461-14.88-.002-3.946 1.52-7.732 4.233-10.523 2.712-2.791 6.392-4.358 10.228-4.356h1.665v13.124H87.86v1.713c.011 3.95-1.505 7.744-4.215 10.543-2.709 2.8-6.39 4.375-10.229 4.38z"/>
            <path fill="#A9B0BE" fill-rule="nonzero" d="M77.047 109.567c3.585 0 7.023 1.425 9.558 3.962a13.532 13.532 0 0 1 3.959 9.565H77.047v-13.527z"/>
            <path fill="#FF4702" fill-rule="nonzero" d="M83.805 154.205l.06-5.41h47.19l.06 5.41zM83.805 179.906l.067-5.41h47.184l.059 5.41zM82.454 206.96l.059-5.41h48.542l.06 5.41zM82.454 235.366l.058-5.41h48.536l.067 5.41z"/>
            <path fill="#FF4702" fill-rule="nonzero" d="M83.904 293.531H80.42a.644.644 0 0 1-.477-.217.768.768 0 0 1-.194-.522l2.39-159.515c.008-.397.305-.714.67-.714h3.036c.177 0 .347.077.471.214a.759.759 0 0 1 .192.517l-1.942 159.523c-.005.396-.3.714-.663.714M134.5 293.531h-3.484c-.363 0-.658-.318-.663-.714l-1.942-159.523a.758.758 0 0 1 .194-.52.636.636 0 0 1 .477-.212h3.028c.363 0 .659.32.663.715l2.397 159.515a.768.768 0 0 1-.194.522.644.644 0 0 1-.477.217"/>
            <path fill="#FF4702" fill-rule="nonzero" d="M82.454 262.42l.059-5.411h49.894l.06 5.41z"/>
            <path fill="#F6F7F8" fill-rule="nonzero" d="M144.632 128.504h48.661V177.2h-48.661z"/>
            <path fill="#A9B0BE" fill-rule="nonzero" d="M168.295 140.679a14.193 14.193 0 0 0-13.119 8.763 14.21 14.21 0 0 0 3.075 15.482 14.185 14.185 0 0 0 15.47 3.078 14.203 14.203 0 0 0 8.758-13.13 14.2 14.2 0 0 0-4.154-10.036 14.179 14.179 0 0 0-10.03-4.157zm0 23.24c-4.988 0-9.031-4.046-9.031-9.038 0-4.991 4.043-9.038 9.031-9.038s9.032 4.047 9.032 9.038a9.033 9.033 0 0 1-2.643 6.394 9.02 9.02 0 0 1-6.389 2.645z"/>
            <path stroke="#F6F7F8" stroke-width="3.07" d="M168.962 136.62v17.585h17.572"/>
            <path fill="#3C4D6F" fill-rule="nonzero" d="M286.56 103.965c7.424.78 13.833 5.519 16.722 12.365l11.664-3.16c-4.404-12.034-15.538-20.345-28.386-21.188v11.983z"/>
            <path fill="#FF4702" fill-rule="nonzero" d="M294.903 142.58a20.62 20.62 0 0 1-22.406-2.242 20.447 20.447 0 0 1-6.907-21.357c2.161-7.854 8.787-13.687 16.875-14.856V91.982c-13.266 1.2-24.47 10.31-28.31 23.021s.456 26.471 10.854 34.769c10.397 8.297 24.811 9.467 36.42 2.956l-6.526-10.148z"/>
            <path fill="#FFE3D7" fill-rule="nonzero" d="M305.377 120.938c.138 1.01.208 2.029.21 3.049.007 5.989-2.49 11.694-6.862 15.674l6.543 10.486c7.824-6.317 12.387-15.958 12.381-26.16a34.666 34.666 0 0 0-.587-6.304l-11.685 3.255z"/>
            <path fill="#283A5E" fill-rule="nonzero" d="M108.021 132.58c-.186-.453-17.347 7.887-20.16 11.672l10.203 27.538 2.364-.59c-.847-8.646-1.924-16.73-3.542-22.48l18.008-3.853-6.873-12.287z"/>
            <path fill="#3C4D6F" fill-rule="nonzero" d="M108.735 132.735c-2.463 7.857 3.14 47.632 8.217 66.109h2.277l4.231-49.429 4.951-8.035c-.194-2.66-1.362-6.288-2.759-10.17l-16.917 1.525z"/>
            <path fill="#F0939E" fill-rule="nonzero" d="M107.096 93.588s.218 5.184-.287 6.316c-.505 1.132 6.734-3.053 6.734-3.053l-.623-4.869-5.824 1.606z"/>
            <path fill="#FFC9D5" fill-rule="nonzero" d="M104.596 83.478s-2.817 14.546 4.723 12.333c7.54-2.213 5.248-8.084 5.248-8.084s-.411-4.701-3.621-5.144a13.372 13.372 0 0 0-6.35.895z"/>
            <path fill="#202E4B" fill-rule="nonzero" d="M123.005 94.688l12.652 19.317 14.381 12.528-1.05 1.971-17.306-9.806-6.364-8.147z"/>
            <path fill="#202E4B" fill-rule="nonzero" d="M102.729 101.582l10.95-5.316 9.414-.226s4.528 13.475 1.667 36.43l-16.636 1.445s1.535-10.624-5.395-32.333z"/>
            <path fill="#202E4B" fill-rule="nonzero" d="M105.212 101.357l-17.437-3.983-17.658-8.097-1.18 2.243a119.654 119.654 0 0 0 17.385 10.565c6.566 3.221 14.685 5.066 19.11 7.482l-.22-8.21z"/>
            <path fill="#00B3CC" fill-rule="nonzero" d="M68.937 91.372s3.081-.954 16.22 4.668c0 0-13.6-6.213-15.085-6.763l-1.135 2.095z"/>
            <path fill="#00B3CC" fill-rule="nonzero" d="M68.937 90.63s11.712 8.099 18.345 10.82c6.506 2.68 16.367 5.69 18.15 6.764l-.9-4.641s-9.86.338-17.377-2.925c-7.517-3.264-18.218-10.019-18.218-10.019zM126.01 111.013l-.302-4.151 7.313 10.065 15.666 11.577-16.723-9.723z" opacity=".3"/>
            <path fill="#00B3CC" fill-rule="nonzero" d="M108.136 120.388s2.913 13.004 13.517 12.464l-12.708 1.063a54.53 54.53 0 0 0-.81-13.527z"/>
            <path fill="#001F3A" fill-rule="nonzero" d="M100.694 171.79l-2.193.617-6.586 3.441h9.462zM118.95 198.844h-2.338l-7.124 2.705h9.461z"/>
            <path fill="#FFC9D5" fill-rule="nonzero" d="M70.288 88.357l-.964-2.579-.964-1 .319 1.79-3.798-2.702.16 3.509 2.146 2.158 1.936 1.096zM149.881 127.152l2.61 2.03.25 1.74-1.155 1.64-.992-2.293-1.907-1.364z"/>
            <path fill="#E86578" fill-rule="nonzero" d="M104.08 85.103s5.77-1.213 5.622 2.176c-.147 3.39-.225 6.16 2.742 6.053 2.966-.107-1.012-9.846-1.012-9.846l-6.383-.973-.968 2.59z"/>
            <path fill="#131D2F" fill-rule="nonzero" d="M104.546 85.926s4.638-2.19 5.817.65c1.179 2.842-1.827 7.713 4.024 8.094.977.516 6.895-10.546-.32-12.745-3.367-1.539-9.934-.279-9.934-.279s-.27 2.867.413 4.28z"/>
            <path fill="#00B3CC" fill-rule="nonzero" d="M113.543 96.04s-2.125 5.813-8.11 3.524l8.11-3.524z"/>
            <path fill="#F0939E" fill-rule="nonzero" d="M201.723 194.769s.215 4.32-.294 5.265c-.51.945 6.732-2.547 6.732-2.547l-.616-4.054-5.822 1.336z"/>
            <path fill="#FFC9D5" fill-rule="nonzero" d="M198.89 184.83s-.841 5.921 1.017 10.49c.378.938 1.757.99 3.245.558 6.793-1.98 4.708-7.242 4.708-7.242s-.362-4.23-3.262-4.61c-1.94-.197-3.897.079-5.709.803z"/>
            <path fill="#202E4B" fill-rule="nonzero" d="M216.272 195.916l-7.552-16.942-11.882-12.595-2.194.813 10.387 13.844 3.36 15.102zM197.348 201.319l10.297-4.965 8.858-.216s4.258 12.513 1.598 33.821l-15.642 1.349s1.405-9.83-5.111-29.99z"/>
            <path fill="#202E4B" fill-rule="nonzero" d="M197.557 200.874l-16.607-3.638-2.494-17.33-2.193.842c-.198 7.579-1.303 14.433.363 20.648 0 0 17.85 6.122 23.425 8.27-.638-2.763-1.493-5.702-2.494-8.792z"/>
            <path fill="#00B3CC" fill-rule="nonzero" d="M208.57 196.138h3.647l-5.153-15.475-12.42-12.93 10.522 13.585z" opacity=".3"/>
            <path fill="#00B3CC" fill-rule="nonzero" d="M201.403 219.134s2.91 11.742 13.517 11.206l-12.7.968c.291-4.073.016-8.163-.817-12.174z"/>
            <path fill="#001F3A" fill-rule="nonzero" d="M212.217 293.531h-2.002l-6.109 2.706h8.11zM230.461 292.179l-2.193.474-5.238 4.936 8.11-2.296z"/>
            <path fill="#FFC9D5" fill-rule="nonzero" d="M178.736 180.514l.314-1.465.292-.439.434-.415h-1.235l-1.212-3.7-1.608 2.414.359 2.579.756 1.77zM195.996 167.038l-1.644-2.318-1.327-1.046v1.828l-.007.505-1.077-.249 2.087 1.974z"/>
            <path fill="#00B3CC" fill-rule="nonzero" d="M206.81 196.138s-2.116 5.812-8.11 3.526l8.11-3.526z"/>
            <path fill="#273A5E" fill-rule="nonzero" d="M218.627 240.777l11.162 50.968-2.176.434s-9.776-17.899-14.045-32.28l.937-13.227 4.122-5.895z"/>
            <path fill="#3C4D6F" fill-rule="nonzero" d="M201.964 231.3c-2.304 7.383 2.928 44.819 7.68 62.231h2.126l3.063-46.478a18.026 18.026 0 0 0 5.494-7.554c-.186-2.509-1.274-5.954-2.583-9.544l-15.78 1.344z"/>
            <path fill="#E86578" fill-rule="nonzero" d="M198.7 186.67s.34 3.662 2.304 5.598c1.964 1.935 2.69 2.04 3.102 3.87v-4.73l-5.406-4.738z"/>
            <path fill="#131D2F" fill-rule="nonzero" d="M198.239 186.31s.05 1.181 1.561 3.711c.908 1.516 3.394 1.843 3.556 5.428.067 1.533 4.964.302 5.439-1.675.458-2.17 5.26-9.156-1.553-11.2-1.858-.838-4.336-.838-6.424-.62a9.018 9.018 0 0 1-3.47-.695s.246 3.736.89 5.051z"/>
            <path fill="#00B3CC" fill-rule="nonzero" d="M176.311 181.259s.569 17.925 1.516 18.951l21.363 6.146.861 3.31-23.412-8.124s-1.826-5.137-.328-20.283z" opacity=".3"/>
            <path fill="#00B3CC" fill-rule="nonzero" d="M175.72 180.75l2.053-.844 2.003 14.88c-1.462-8.557-1.858-13.759-4.055-14.037z"/>
            <path fill="#FB043D" fill-rule="nonzero" d="M333.87 292.188l-.298 4.049h-9.165l6.71-4.058zM347.048 288.12l1.69 3.336-8.11 4.78 3.836-7.078z"/>
            <path fill="#202E4B" fill-rule="nonzero" d="M340.67 202.902l-16.26.67-1.354 6.696c0 4.479 1.733 10.84 2.233 22.393h13.673a146.75 146.75 0 0 1 4.37-23.665l-2.661-6.094z"/>
            <path fill="#3C4D6F" fill-rule="nonzero" d="M342.83 239.424l-1.591 7.05-.951 2.325-1.989 16.358s7.955 10.436 9.087 23.332l-2.43.984-13.79-22.72 4.954-19.252 6.71-8.077z"/>
            <path fill="#283A5E" fill-rule="nonzero" d="M325.308 232.893c.528-3.177-5.192 26.786 6.879 59.286h2.976l2.708-45.164 3.384-1.972 2.076-6.328-3.66-5.814-14.363-.008z"/>
            <path fill="#FFC9D5" fill-rule="nonzero" d="M324.463 187.782s-1.228 11.724 7.844 11.032c0 0 4.383-1.12 4.263-4.745-.119-3.626-4.953-13.249-12.107-6.287z"/>
            <path fill="#202E4B" fill-rule="nonzero" d="M327.11 202.886s-3.667-1.743-10.009-8.844c0 0-7.99-10.355-9.287-12.783l-2.33 1.156s4.561 8.258 8.336 14.385l9.025 12.865 4.266-6.78z"/>
            <path fill="#FFC9D5" fill-rule="nonzero" d="M305.385 181.259l-1.253-4.15 2.163-2.613.854 3.373h1.038l-.71.91.175 1.322z"/>
            <path fill="#202E4B" fill-rule="nonzero" d="M336.573 205.653a95.31 95.31 0 0 0 3.425-17.293s0-9.28-.458-12.043l2.748-.469a69.358 69.358 0 0 1 2.29 12.78l.105 11.582-4.58 6.75-3.53-1.307z"/>
            <path fill="#FFC9D5" fill-rule="nonzero" d="M341.98 176.711l-1.57-4.108-3.837-.813 1.437 3.217-1.409-.988 1.333 2.22 1.096.962z"/>
            <path fill="#EA003D" fill-rule="nonzero" d="M324.407 221.84s3.005 9.236 9.462 10.82h-8.523s-.229-4.602-.939-10.82z"/>
            <path fill="#141D2F" fill-rule="nonzero" d="M326.356 195.758c1.46.673-2.118 8.623-.956 14.953 3.125 14.952 21.986 11.015 26.041 9.553-1.755-3.323-2.209-7.127-11.64-20.228-3.511-4.876-2.662-10.923-4.36-13.415-1.698-2.492-8.582-4.154-11.755-.665 0 0-3.298 1.794-1.385 4.934 1.912 3.14 2.267 4.054 4.055 4.868z"/>
            <path fill="#EA003D" fill-rule="nonzero" d="M307.75 179.906s.488 6.9 5.844 16.232c-2.978-5.287-5.724-10.35-8.11-15.024l2.267-1.208z"/>
            <path fill="#EA003D" fill-rule="nonzero" d="M313.594 196.138l9.462 11.4-.56 2.127zM338.493 177.2l2.135 12.015-1.31 9.629-1.394-2.717a89.095 89.095 0 0 0 1.045-6.979c-.036-4.528-.073-8.458-.476-11.947z" opacity=".3"/>
        </g>
    </g>
</svg>
