<?xml version="1.0" encoding="utf-8"?>
<svg xmlns="http://www.w3.org/2000/svg" width="56" height="56" viewBox="0 0 56 56">
    <g fill="none" fill-rule="evenodd" transform="translate(-2 -2)">
        <path fill="#D6E4FC" fill-rule="nonzero" d="M26.583 3.13L54.98 19.523a5.168 5.168 0 0 1 1.892 7.06L40.476 54.978a5.168 5.168 0 0 1-7.06 1.892L5.022 40.476a5.168 5.168 0 0 1-1.892-7.06L19.524 5.022a5.168 5.168 0 0 1 7.06-1.892z"/>
        <path d="M6.522 5.87h46.957v46.957H6.522z"/>
        <rect width="42.525" height="42.525" x="9.39" y="8.086" fill="#FFF" fill-rule="nonzero" stroke="#0162FF" stroke-width=".519" rx="2.201"/>
        <path fill="#0162FF" fill-rule="nonzero" d="M19.515 30.593c.514 4.653 3.877 8.447 8.306 9.6a20.333 20.333 0 0 1-3.329-9.6h-4.977zm0-2.49h4.974c.28-3.44 1.43-6.743 3.332-9.6-4.429 1.153-7.792 4.947-8.306 9.6zm22.274 0c-.514-4.653-3.877-8.447-8.306-9.6a20.333 20.333 0 0 1 3.329 9.6h4.977zm0 2.49h-4.974a20.295 20.295 0 0 1-3.331 9.6c4.428-1.154 7.791-4.948 8.305-9.6zm-14.804-2.49h7.33a17.805 17.805 0 0 0-3.663-9.275 17.79 17.79 0 0 0-3.667 9.275zm7.334 2.49h-7.33a17.805 17.805 0 0 0 3.663 9.275 17.79 17.79 0 0 0 3.667-9.275zm-3.667 12.45c-7.564 0-13.695-6.131-13.695-13.695s6.131-13.696 13.695-13.696 13.696 6.132 13.696 13.696-6.132 13.695-13.696 13.695z"/>
        <path fill="#CCDCF4" d="M36.522 9.783h11.087c1.08 0 1.956.876 1.956 1.956v9.13L36.522 9.784z"/>
        <rect width="28.043" height="11.087" x="16.957" y="25.435" fill="#FFF" rx=".61"/>
        <path fill="#0565FF" fill-rule="nonzero" d="M25.923 26.74l-1.658 7.825h-1.651L21.44 29.48l-1.17 5.085H18.62l-1.662-7.826h1.62l.982 5.44 1.19-5.44h1.381l1.195 5.44.977-5.44h1.62zm9.538 0l-1.657 7.825h-1.652l-1.174-5.085-1.169 5.085h-1.651l-1.663-7.826h1.621l.982 5.44 1.19-5.44h1.381l1.195 5.44.977-5.44h1.62zm9.539 0l-1.657 7.825H41.69l-1.174-5.085-1.169 5.085h-1.652l-1.662-7.826h1.62l.983 5.44 1.19-5.44h1.38l1.196 5.44.976-5.44H45z"/>
    </g>
</svg>
