<?xml version="1.0" encoding="UTF-8"?>
<svg width="106px" height="24px" viewBox="0 0 106 24" version="1.1" xmlns="http://www.w3.org/2000/svg" xmlns:xlink="http://www.w3.org/1999/xlink">
    <!-- Generator: Sketch 48.2 (47327) - http://www.bohemiancoding.com/sketch -->
    <title>Syncfusion-logo</title>
    <desc>Created with Sketch.</desc>
    <defs>
        <polygon id="path-1" points="0 23.2096087 105.931034 23.2096087 105.931034 0 0 0"></polygon>
    </defs>
    <g id="App-Name" stroke="none" stroke-width="1" fill="none" fill-rule="evenodd">
        <g id="Syncfusion-logo">
            <g id="Syncfusion">
                <path d="M29.2214986,10.9350648 L23.3461801,10.9350648 C22.7128645,10.9350648 22.250241,11.053482 21.9551191,11.2887162 C21.6599972,11.5255507 21.5132339,11.9000052 21.5132339,12.4120797 C21.5132339,12.8249398 21.6376636,13.1337847 21.8897137,13.3386145 C22.1417637,13.5418441 22.5166483,13.644259 23.0143674,13.644259 L26.1633977,13.644259 C27.4603388,13.644259 28.3855858,13.8922951 28.9327578,14.3835666 C29.4831202,14.8764383 29.7559086,15.698958 29.7559086,16.8447247 C29.7559086,18.0112944 29.4400484,18.8658187 28.8067327,19.4130984 C28.1734171,19.960378 27.1763837,20.2340178 25.8172277,20.2340178 L19.4856667,20.2340178 L19.4856667,18.2241254 L25.4391527,18.2241254 C26.1171354,18.2241254 26.5957114,18.1249109 26.8716903,17.9264821 C27.1492644,17.7280532 27.2880514,17.4016057 27.2880514,16.9423389 C27.2880514,16.4686699 27.1604312,16.1326211 26.9067859,15.9325919 C26.6531406,15.7325628 26.2176364,15.6317482 25.6018685,15.6317482 L22.7910319,15.6317482 C21.4940908,15.6317482 20.544915,15.3709102 19.9450997,14.8492343 C19.3436891,14.3291586 19.0437815,13.5098394 19.0437815,12.386476 C19.0437815,11.1863013 19.3596417,10.310974 19.9897668,9.75729341 C20.6214872,9.20361285 21.6249016,8.92677257 22.9984148,8.92677257 L29.2214986,8.92677257 L29.2214986,10.9350648 Z" id="Fill-1" fill="#FFFFFF"></path>
                <path d="M34.645943,18.373705 L36.4385949,18.373705 L36.4385949,11.9023634 L38.6826811,11.9023634 L38.6826811,19.9723376 C38.6826811,21.0732978 38.4209801,21.8862161 37.8975781,22.4158932 C37.3725404,22.94397 36.5710811,23.2096087 35.4915644,23.2096087 L31.1129793,23.2096087 L31.1129793,21.527764 L35.1088267,21.527764 C35.5357264,21.527764 35.8644883,21.4253491 36.0951124,21.2205193 C36.3241007,21.0156895 36.4385949,20.7228468 36.4385949,20.3339903 L36.4385949,20.1963702 L34.4660235,20.1963702 C33.1984093,20.1963702 32.2955408,19.9515346 31.7557824,19.4634636 C31.2160241,18.9753926 30.9461449,18.1592738 30.9461449,17.0183078 L30.9461449,11.9023634 L33.1673323,11.9023634 L33.1673323,16.8502834 C33.1673323,17.4759744 33.2621989,17.885634 33.4535677,18.0808624 C33.643301,18.2744906 34.0407594,18.373705 34.645943,18.373705" id="Fill-3" fill="#FFFFFF"></path>
                <path d="M40.4680356,11.9023634 L44.6681025,11.9023634 C45.9382314,11.9023634 46.8447676,12.1370579 47.387711,12.6080544 C47.9322849,13.0806584 48.2045719,13.8619017 48.2045719,14.9517843 L48.2045719,20.2340178 L45.9675797,20.2340178 L45.9675797,15.2218437 C45.9675797,14.5997426 45.8681216,14.1962609 45.6724663,14.0113988 C45.476811,13.8249292 45.0855005,13.7333019 44.4969041,13.7333019 L42.7066582,13.7333019 L42.7066582,20.2340178 L40.4680356,20.2340178 L40.4680356,11.9023634 Z" id="Fill-5" fill="#FFFFFF"></path>
                <path d="M54.2668596,18.4509602 L56.5362263,18.4509602 L56.5362263,20.2340178 L53.6376049,20.2340178 C52.902436,20.2340178 52.2981023,20.1552353 51.8277188,19.999278 C51.3526626,19.841713 50.943024,19.5876795 50.5941303,19.2387855 C50.2172005,18.8593431 49.924379,18.3946869 49.7125507,17.844817 C49.4991648,17.2949471 49.3948082,16.7161367 49.3948082,16.1019546 C49.3948082,15.4588319 49.4991648,14.85912 49.7094356,14.2996032 C49.9181488,13.7416943 50.2125278,13.2738226 50.5941303,12.8975958 C50.9476967,12.5487017 51.3635656,12.2946683 51.8417368,12.1371032 C52.3199081,11.9795381 52.9164541,11.9023634 53.6376049,11.9023634 L56.5362263,11.9023634 L56.5362263,13.7095382 L54.2668596,13.7095382 C53.2622326,13.7095382 52.5706755,13.8880047 52.1921881,14.2449378 C51.8121432,14.6018709 51.6221207,15.2224843 51.6221207,16.106778 C51.6221207,16.6164527 51.6999988,17.0393059 51.8541973,17.3705141 C52.0099535,17.7033301 52.2498179,17.9734416 52.5737906,18.1808486 C52.7326618,18.2789249 52.9195692,18.3480605 53.1313975,18.3898635 C53.3432258,18.4284509 53.7217132,18.4509602 54.2668596,18.4509602" id="Fill-7" fill="#FFFFFF"></path>
                <path d="M58.7065151,13.5985134 L57.1313444,13.5985134 L57.1313444,11.9404375 L58.7065151,11.9404375 L58.7065151,11.074589 C58.7065151,10.2311469 58.8643543,9.66138341 59.1800327,9.36689889 C59.4924899,9.07401483 60.0964664,8.92677257 60.9903516,8.92677257 L63.0825262,8.92677257 L63.0825262,10.5144282 L62.0356336,10.5144282 C61.6571416,10.5144282 61.3881708,10.5736452 61.2303316,10.6904788 C61.0692712,10.8073123 60.9903516,10.9993674 60.9903516,11.269845 L60.9903516,11.9404375 L63.0825262,11.9404375 L63.0825262,13.5985134 L60.9903516,13.5985134 L60.9903516,20.2340178 L58.7065151,20.2340178 L58.7065151,13.5985134 Z" id="Fill-9" fill="#FFFFFF"></path>
                <path d="M71.4141806,20.2340178 L67.1868154,20.2340178 C65.9500167,20.2340178 65.0535012,19.9928933 64.5021768,19.5106444 C63.9508525,19.0267879 63.6776443,18.2535821 63.6776443,17.1878119 L63.6776443,11.9023634 L65.8976654,11.9023634 L65.8976654,17.0125948 C65.8976654,17.5687886 65.995824,17.9385128 66.1937773,18.1249824 C66.3900945,18.3098445 66.7827291,18.4030793 67.3684089,18.4030793 L69.1696198,18.4030793 L69.1696198,11.9023634 L71.4141806,11.9023634 L71.4141806,20.2340178 Z" id="Fill-11" fill="#FFFFFF"></path>
                <path d="M72.7483514,18.4963141 L77.5196959,18.4963141 C77.9448816,18.4963141 78.2526036,18.4336217 78.4461706,18.305022 C78.6430465,18.1780298 78.7390028,17.9738777 78.7390028,17.6909583 C78.7390028,17.4096465 78.6413921,17.2022794 78.4428618,17.0736797 C78.2476403,16.9434725 77.9399184,16.8775651 77.5196959,16.8775651 L75.5592093,16.8775651 C74.4027704,16.8775651 73.6202302,16.705563 73.2148975,16.3599512 C72.806256,16.0143395 72.6044169,15.4002758 72.6044169,14.5177602 C72.6044169,13.6207772 72.8509253,12.9617036 73.3406334,12.5373245 C73.8319958,12.114553 74.5930286,11.9023634 75.6237317,11.9023634 L80.5026135,11.9023634 L80.5026135,13.6400671 L76.4923017,13.6400671 C75.8371517,13.6400671 75.411966,13.6963295 75.2167446,13.8088543 C75.0198687,13.9197715 74.9206036,14.1191011 74.9206036,14.406843 C74.9206036,14.6656499 75.0082878,14.8585495 75.1820018,14.9807192 C75.352407,15.1044965 75.6253861,15.1655813 75.9992848,15.1655813 L78.0524189,15.1655813 C78.9888201,15.1655813 79.7035291,15.3777709 80.196546,15.798935 C80.6912173,16.223314 80.9360713,16.8341627 80.9360713,17.634696 C80.9360713,18.4030793 80.7160336,19.0300029 80.2809213,19.5106444 C79.8441547,19.9928933 79.2833066,20.2340178 78.5950683,20.2340178 L72.7483514,20.2340178 L72.7483514,18.4963141 Z" id="Fill-13" fill="#FFFFFF"></path>
                <mask id="mask-2" fill="white">
                    <use xlink:href="#path-1"></use>
                </mask>
                <g id="Clip-16"></g>
                <path d="M82.1263076,20.2340178 L84.5067803,20.2340178 L84.5067803,11.9235453 L82.1263076,11.9235453 L82.1263076,20.2340178 Z M82.1263076,10.987154 L84.5067803,10.987154 L84.5067803,8.92677257 L82.1263076,8.92677257 L82.1263076,10.987154 Z" id="Fill-15" fill="#FFFFFF" mask="url(#mask-2)"></path>
                <path d="M88.0183344,16.0759656 C88.0183344,16.8425773 88.2065055,17.4396948 88.5828477,17.8657629 C88.9575678,18.2964961 89.481527,18.5079752 90.1563475,18.5079752 C90.8246794,18.5079752 91.3518829,18.2964961 91.7330917,17.8657629 C92.1126782,17.4396948 92.3057158,16.8425773 92.3057158,16.0759656 C92.3057158,15.3109089 92.1159225,14.7153464 91.736336,14.2908332 C91.3583716,13.86321 90.8295459,13.650176 90.1563475,13.650176 C89.4880157,13.650176 88.9640564,13.864765 88.5877142,14.2923882 C88.2065055,14.7215664 88.0183344,15.3155738 88.0183344,16.0759656 M94.6237892,16.0759656 C94.6237892,17.3386202 94.2231145,18.3493659 93.420143,19.1035377 C92.6187936,19.8577094 91.5335654,20.2340178 90.1725692,20.2340178 C88.811573,20.2340178 87.7247226,19.8577094 86.9120181,19.1004277 C86.1009357,18.3447009 85.6970167,17.3370652 85.6970167,16.0759656 C85.6970167,14.813311 86.1009357,13.8010103 86.9120181,13.0406186 C87.7247226,12.2817818 88.811573,11.9023634 90.1725692,11.9023634 C91.5238324,11.9023634 92.6041941,12.2817818 93.4136543,13.0406186 C94.2198702,13.8010103 94.6237892,14.813311 94.6237892,16.0759656" id="Fill-17" fill="#FFFFFF" mask="url(#mask-2)"></path>
                <path d="M95.8140256,11.9023634 L100.014978,11.9023634 C101.283744,11.9023634 102.192102,12.1370579 102.73516,12.6080544 C103.278217,13.0806584 103.550562,13.8619017 103.550562,14.9517843 L103.550562,20.2340178 L101.313098,20.2340178 L101.313098,15.2218437 C101.313098,14.5997426 101.21525,14.1962609 101.019553,14.0113988 C100.822226,13.8249292 100.432464,13.7333019 99.8437433,13.7333019 L98.0514893,13.7333019 L98.0514893,20.2340178 L95.8140256,20.2340178 L95.8140256,11.9023634 Z" id="Fill-18" fill="#FFFFFF" mask="url(#mask-2)"></path>
                <polygon id="Fill-19" fill="#FFFFFF" mask="url(#mask-2)" points="0 8.3316544 5.35606354 8.3316544 5.35606354 2.97559086 0 2.97559086"></polygon>
                <polygon id="Fill-20" fill="#FFFFFF" mask="url(#mask-2)" points="17.5491109 7.14141806 20.829136 3.28156718 16.967743 0 13.6877179 3.86139296"></polygon>
                <polygon id="Fill-21" fill="#FFFFFF" mask="url(#mask-2)" points="5.95118171 8.3316544 11.3072453 8.3316544 11.3072453 2.97559086 5.95118171 2.97559086"></polygon>
                <polygon id="Fill-22" fill="#FFFFFF" mask="url(#mask-2)" points="0 14.2828361 5.35606354 14.2828361 5.35606354 8.92677257 0 8.92677257"></polygon>
                <polygon id="Fill-23" fill="#FFFFFF" mask="url(#mask-2)" points="5.95118171 14.2828361 11.3072453 14.2828361 11.3072453 8.92677257 5.95118171 8.92677257"></polygon>
                <polygon id="Fill-24" fill="#FFFFFF" mask="url(#mask-2)" points="12.4974816 14.2828361 17.8535451 14.2828361 17.8535451 8.92677257 12.4974816 8.92677257"></polygon>
                <polygon id="Fill-25" fill="#FFFFFF" mask="url(#mask-2)" points="0 20.2340178 5.35606354 20.2340178 5.35606354 14.8779543 0 14.8779543"></polygon>
                <polygon id="Fill-26" fill="#FFFFFF" mask="url(#mask-2)" points="5.95118171 20.2340178 11.3072453 20.2340178 11.3072453 14.8779543 5.95118171 14.8779543"></polygon>
                <polygon id="Fill-27" fill="#FFFFFF" mask="url(#mask-2)" points="12.4974816 20.2340178 17.8535451 20.2340178 17.8535451 14.8779543 12.4974816 14.8779543"></polygon>
                <path d="M104.102437,11.2186333 C104.254141,11.2186333 104.333537,11.1477437 104.333537,11.0187246 C104.333537,10.879781 104.256977,10.8188159 104.085424,10.8188159 L104.040054,10.8188159 L104.040054,11.2186333 L104.102437,11.2186333 Z M104.638363,12.0097612 L104.397338,12.0097612 L104.040054,11.4880137 L104.040054,12.0097612 L103.842981,12.0097612 L103.842981,10.627414 L104.078335,10.627414 C104.376071,10.627414 104.534864,10.7649398 104.534864,11.0215602 C104.534864,11.2285578 104.417187,11.3646658 104.215861,11.3986928 L104.638363,12.0097612 Z M103.406301,10.6415919 C103.243255,10.8216515 103.149681,11.0598406 103.149681,11.2966118 C103.149681,11.8580574 103.592032,12.3032441 104.146389,12.3032441 C104.693657,12.3032441 105.141679,11.8538041 105.141679,11.3037008 C105.141679,10.7649398 104.693657,10.3084108 104.161985,10.3084108 C103.857159,10.3084108 103.603375,10.4204164 103.406301,10.6415919 Z M105.335916,11.3037008 C105.335916,11.9643918 104.804244,12.4974816 104.146389,12.4974816 C103.482862,12.4974816 102.955444,11.9643918 102.955444,11.2966118 C102.955444,10.6415919 103.494205,10.1170089 104.16482,10.1170089 C104.804244,10.1170089 105.335916,10.6586054 105.335916,11.3037008 Z" id="Fill-28" fill="#FFFFFF" mask="url(#mask-2)"></path>
            </g>
        </g>
    </g>
</svg>