<?xml version="1.0" encoding="UTF-8"?>
<svg width="160px" height="40px" viewBox="0 0 160 40" version="1.1" xmlns="http://www.w3.org/2000/svg" xmlns:xlink="http://www.w3.org/1999/xlink">
    <!-- Generator: Sketch 50.2 (55047) - http://www.bohemiancoding.com/sketch -->
    <title>logo black</title>
    <desc>Created with Sketch.</desc>
    <defs></defs>
    <g id="logo-black" stroke="none" stroke-width="1" fill="none" fill-rule="evenodd">
        <path d="M46.947084,19.518615 L38.502044,19.518615 C37.5917315,19.518615 36.9267677,19.6875166 36.5025667,20.0230374 C36.0783656,20.3608405 35.8674116,20.8949348 35.8674116,21.62532 C35.8674116,22.2141931 36.0462639,22.6547067 36.4085545,22.9468609 C36.7708451,23.2367325 37.3096951,23.3828096 38.0251044,23.3828096 L42.5514441,23.3828096 C44.4156356,23.3828096 45.7455632,23.7365899 46.5320549,24.4373033 C47.3231325,25.1402991 47.7152318,26.3134804 47.7152318,27.9477174 C47.7152318,29.6116264 47.261222,30.8304568 46.3509095,31.611056 C45.4405971,32.3916553 44.0074855,32.7819549 42.0538677,32.7819549 L32.9530359,32.7819549 L32.9530359,29.9151927 L41.5104318,29.9151927 C42.4849477,29.9151927 43.1728413,29.7736806 43.5695266,29.4906563 C43.9685048,29.207632 44.167994,28.7420114 44.167994,28.0869471 C44.167994,27.4113408 43.9845557,26.9320254 43.6199721,26.6467187 C43.2553885,26.361412 42.6294054,26.2176174 41.7443156,26.2176174 L37.7040874,26.2176174 C35.8398959,26.2176174 34.4755736,25.8455774 33.6134137,25.1014974 C32.7489608,24.3596998 32.3178808,23.1910834 32.3178808,21.5888008 C32.3178808,19.8769603 32.7718905,18.628458 33.6776171,17.8387289 C34.5856366,17.0489999 36.0279201,16.6541353 38.0021746,16.6541353 L46.947084,16.6541353 L46.947084,19.518615 Z M54.3121613,30.1024242 L56.7865744,30.1024242 L56.7865744,20.8721805 L59.884106,20.8721805 L59.884106,32.3825957 C59.884106,33.952924 59.5228778,35.1124106 58.8004214,35.8679028 C58.0757074,36.6211126 56.9694461,37 55.4793799,37 L49.435581,37 L49.435581,34.6011409 L54.9510837,34.6011409 C55.5403371,34.6011409 55.99413,34.4550639 56.3124624,34.1629098 C56.628537,33.8707556 56.7865744,33.4530666 56.7865744,32.8984303 L56.7865744,32.7021392 L54.063817,32.7021392 C52.314118,32.7021392 51.0678808,32.3529238 50.3228477,31.6567753 C49.5778146,30.9606269 49.205298,29.7965754 49.205298,28.1691857 L49.205298,20.8721805 L52.2712222,20.8721805 L52.2712222,27.929528 C52.2712222,28.8219675 52.4021674,29.4062757 52.6663155,29.6847351 C52.9282059,29.960912 53.4768212,30.1024242 54.3121613,30.1024242 Z M62.615894,20.8721805 L68.4132827,20.8721805 C70.1664527,20.8721805 71.4177524,21.2006778 72.1671819,21.8599223 C72.918862,22.5214169 73.294702,23.6149079 73.294702,25.1403954 L73.294702,32.5338346 L70.2069624,32.5338346 L70.2069624,25.5183923 C70.2069624,24.6476494 70.0696795,24.0829041 69.7996148,23.8241562 C69.5295501,23.5631583 68.9894207,23.4349094 68.1769761,23.4349094 L65.7058842,23.4349094 L65.7058842,32.5338346 L62.615894,32.5338346 L62.615894,20.8721805 Z M82.1490319,30.0381236 L85.4635762,30.0381236 L85.4635762,32.5338346 L81.2299682,32.5338346 C80.1562105,32.5338346 79.2735453,32.4235642 78.5865224,32.2052739 C77.8926748,31.9847332 77.2943734,31.6291675 76.7847935,31.1408273 C76.2342652,30.6097292 75.8065821,29.959359 75.4971943,29.1897169 C75.1855316,28.4200747 75.0331126,27.609925 75.0331126,26.7502662 C75.0331126,25.8501 75.1855316,25.0106949 75.4926445,24.2275503 C75.7974824,23.446656 76.2274405,22.791785 76.7847935,22.2651878 C77.3011981,21.7768476 77.9085992,21.4212819 78.6069966,21.2007411 C79.3053941,20.9802004 80.1766847,20.8721805 81.2299682,20.8721805 L85.4635762,20.8721805 L85.4635762,23.4016477 L82.1490319,23.4016477 C80.6817148,23.4016477 79.6716546,23.6514438 79.1188514,24.1510361 C78.5637733,24.6506284 78.2862343,25.5192889 78.2862343,26.7570175 C78.2862343,27.4703993 78.3999798,28.0622586 78.6251959,28.5258442 C78.8526869,28.9916803 79.2030231,29.3697501 79.6762044,29.6600537 C79.9082453,29.7973291 80.1812345,29.894097 80.4906223,29.9526078 C80.8000101,30.0066178 81.3528133,30.0381236 82.1490319,30.0381236 Z M88.1951626,23.3175614 L85.9602649,23.3175614 L85.9602649,20.9526044 L88.1951626,20.9526044 L88.1951626,19.7176221 C88.1951626,18.5145986 88.4191094,17.70193 88.867003,17.281899 C89.3103263,16.8641508 90.1672656,16.6541353 91.4355358,16.6541353 L94.4039735,16.6541353 L94.4039735,18.9186501 L92.918612,18.9186501 C92.3815968,18.9186501 91.9999731,19.0031129 91.7760263,19.1697556 C91.5475092,19.3363983 91.4355358,19.6103316 91.4355358,19.9961209 L91.4355358,20.9526044 L94.4039735,20.9526044 L94.4039735,23.3175614 L91.4355358,23.3175614 L91.4355358,32.7819549 L88.1951626,32.7819549 L88.1951626,23.3175614 Z M106.076159,32.5338346 L100.24109,32.5338346 C98.5339262,32.5338346 97.2964581,32.1963374 96.5354604,31.5213429 C95.7744626,30.8440985 95.397351,29.7618574 95.397351,28.2701196 L95.397351,20.8721805 L98.4616653,20.8721805 L98.4616653,28.0248717 C98.4616653,28.8033653 98.5971545,29.320861 98.8703911,29.5818589 C99.1413695,29.8406067 99.6833264,29.9711057 100.491745,29.9711057 L102.977972,29.9711057 L102.977972,20.8721805 L106.076159,20.8721805 L106.076159,32.5338346 Z M108.508612,30.1016046 L115.05078,30.1016046 C115.633768,30.1016046 116.055697,30.0138553 116.321104,29.8338568 C116.591048,29.6561082 116.722617,29.3703606 116.722617,28.9743638 C116.722617,28.5806171 116.588779,28.2903695 116.316567,28.1103709 C116.048892,27.9281224 115.626963,27.8358732 115.05078,27.8358732 L112.362684,27.8358732 C110.777048,27.8358732 109.704078,27.5951252 109.148311,27.1113792 C108.588007,26.6276331 108.311258,25.7681402 108.311258,24.5329004 C108.311258,23.2774107 108.649255,22.3549183 109.320712,21.7609231 C109.994437,21.169178 111.037918,20.8721805 112.451153,20.8721805 L119.140769,20.8721805 L119.140769,23.3044105 L113.642082,23.3044105 C112.743781,23.3044105 112.160793,23.3831598 111.893118,23.5406585 C111.623174,23.6959072 111.487068,23.9749049 111.487068,24.3776516 C111.487068,24.7398987 111.607295,25.0098964 111.845481,25.180895 C112.07913,25.3541436 112.453421,25.4396429 112.966088,25.4396429 L115.781216,25.4396429 C117.065151,25.4396429 118.045115,25.7366405 118.721109,26.3261356 C119.399371,26.9201307 119.735099,27.7751237 119.735099,28.8956145 C119.735099,29.9711057 119.433397,30.8485984 118.836799,31.5213429 C118.237932,32.1963374 117.468932,32.5338346 116.525263,32.5338346 L108.508612,32.5338346 L108.508612,30.1016046 Z M121.721854,32.5338346 L121.721854,20.862751 L124.950331,20.862751 L124.950331,32.5338346 L121.721854,32.5338346 Z M121.721854,19.5476994 L121.721854,16.6541353 L124.950331,16.6541353 L124.950331,19.5476994 L121.721854,19.5476994 Z M138.857616,26.7143531 C138.857616,28.5568709 138.300274,30.0317928 137.183333,31.1323115 C136.068649,32.2328301 134.559088,32.7819549 132.66593,32.7819549 C130.772772,32.7819549 129.260954,32.2328301 128.130475,31.1277732 C127.002252,30.0249855 126.440397,28.5546018 126.440397,26.7143531 C126.440397,24.8718352 127.002252,23.3946442 128.130475,22.2850491 C129.260954,21.1777231 130.772772,20.6240602 132.66593,20.6240602 C134.545549,20.6240602 136.048341,21.1777231 137.174308,22.2850491 C138.295761,23.3946442 138.857616,24.8718352 138.857616,26.7143531 Z M129.669371,26.7143531 C129.669371,27.8330246 129.931118,28.7043631 130.454614,29.3260994 C130.975852,29.954643 131.704684,30.2632421 132.643366,30.2632421 C133.573021,30.2632421 134.306366,29.954643 134.83663,29.3260994 C135.364639,28.7043631 135.633156,27.8330246 135.633156,26.7143531 C135.633156,25.5979506 135.369151,24.7288813 134.841143,24.1094141 C134.315391,23.4854087 133.57979,23.1745405 132.643366,23.1745405 C131.71371,23.1745405 130.984878,23.4876778 130.461383,24.1116832 C129.931118,24.7379577 129.669371,25.604758 129.669371,26.7143531 Z M140.596026,20.8721805 L146.394637,20.8721805 C148.145926,20.8721805 149.39974,21.2006778 150.149328,21.8599223 C150.898915,22.5214169 151.274834,23.6149079 151.274834,25.1403954 L151.274834,32.5338346 L148.186444,32.5338346 L148.186444,25.5183923 C148.186444,24.6476494 148.051383,24.0829041 147.781262,23.8241562 C147.508889,23.5631583 146.970897,23.4349094 146.158281,23.4349094 L143.684417,23.4349094 L143.684417,32.5338346 L140.596026,32.5338346 L140.596026,20.8721805 Z M5,15.4135338 L5,7.96992481 L12.4503311,7.96992481 L12.4503311,15.4135338 L5,15.4135338 Z M29.7623094,14.4210526 L24.1225166,9.63470434 L28.9131873,4 L34.5529801,8.78859857 L29.7623094,14.4210526 Z M13.692053,15.4135338 L13.692053,7.96992481 L21.1423841,7.96992481 L21.1423841,15.4135338 L13.692053,15.4135338 Z M5,24.0977444 L5,16.6541353 L12.4503311,16.6541353 L12.4503311,24.0977444 L5,24.0977444 Z M13.692053,24.0977444 L13.692053,16.6541353 L21.1423841,16.6541353 L21.1423841,24.0977444 L13.692053,24.0977444 Z M22.384106,24.0977444 L22.384106,16.6541353 L29.8344371,16.6541353 L29.8344371,24.0977444 L22.384106,24.0977444 Z M5,32.5338346 L5,25.3383459 L12.4503311,25.3383459 L12.4503311,32.5338346 L5,32.5338346 Z M13.692053,32.5338346 L13.692053,25.3383459 L21.1423841,25.3383459 L21.1423841,32.5338346 L13.692053,32.5338346 Z M22.384106,32.5338346 L22.384106,25.3383459 L29.8344371,25.3383459 L29.8344371,32.5338346 L22.384106,32.5338346 Z" id="Combined-Shape" fill="#000000"></path>
    </g>
</svg>