<svg xmlns="http://www.w3.org/2000/svg" width="349" height="224" viewBox="0 0 349 224">
    <g fill="none" fill-rule="evenodd">
        <path d="M-17 0h384v224H-17z"/>
        <g>
            <g fill="#FB043D" fill-rule="nonzero" opacity=".1" transform="translate(251 29)">
                <ellipse cx="87.78" cy="158.603" rx="1" ry="1"/>
                <ellipse cx="78.135" cy="158.603" rx="1" ry="1"/>
                <ellipse cx="68.484" cy="158.603" rx="1" ry="1"/>
                <ellipse cx="58.839" cy="158.603" rx="1" ry="1"/>
                <ellipse cx="49.194" cy="158.603" rx="1" ry="1"/>
                <ellipse cx="39.542" cy="158.603" rx="1" ry="1"/>
                <ellipse cx="29.897" cy="158.603" rx="1" ry="1"/>
                <ellipse cx="20.252" cy="158.603" rx="1" ry="1"/>
                <ellipse cx="10.601" cy="158.603" rx="1" ry="1"/>
                <ellipse cx=".956" cy="158.603" rx="1" ry="1"/>
                <ellipse cx="87.78" cy="151.095" rx="1" ry="1"/>
                <ellipse cx="78.135" cy="151.095" rx="1" ry="1"/>
                <ellipse cx="68.484" cy="151.095" rx="1" ry="1"/>
                <ellipse cx="58.839" cy="151.095" rx="1" ry="1"/>
                <ellipse cx="49.194" cy="151.095" rx="1" ry="1"/>
                <ellipse cx="39.542" cy="151.095" rx="1" ry="1"/>
                <ellipse cx="29.897" cy="151.095" rx="1" ry="1"/>
                <ellipse cx="20.252" cy="151.095" rx="1" ry="1"/>
                <ellipse cx="10.601" cy="151.095" rx="1" ry="1"/>
                <ellipse cx=".956" cy="151.095" rx="1" ry="1"/>
                <ellipse cx="87.78" cy="143.587" rx="1" ry="1"/>
                <ellipse cx="78.135" cy="143.587" rx="1" ry="1"/>
                <ellipse cx="68.484" cy="143.587" rx="1" ry="1"/>
                <ellipse cx="58.839" cy="143.587" rx="1" ry="1"/>
                <ellipse cx="49.194" cy="143.587" rx="1" ry="1"/>
                <ellipse cx="39.542" cy="143.587" rx="1" ry="1"/>
                <ellipse cx="29.897" cy="143.587" rx="1" ry="1"/>
                <ellipse cx="20.252" cy="143.587" rx="1" ry="1"/>
                <ellipse cx="10.601" cy="143.587" rx="1" ry="1"/>
                <ellipse cx=".956" cy="143.587" rx="1" ry="1"/>
                <ellipse cx="87.78" cy="136.079" rx="1" ry="1"/>
                <ellipse cx="78.135" cy="136.079" rx="1" ry="1"/>
                <ellipse cx="68.484" cy="136.079" rx="1" ry="1"/>
                <ellipse cx="58.839" cy="136.079" rx="1" ry="1"/>
                <ellipse cx="49.194" cy="136.079" rx="1" ry="1"/>
                <ellipse cx="39.542" cy="136.079" rx="1" ry="1"/>
                <ellipse cx="29.897" cy="136.079" rx="1" ry="1"/>
                <ellipse cx="20.252" cy="136.079" rx="1" ry="1"/>
                <ellipse cx="10.601" cy="136.079" rx="1" ry="1"/>
                <ellipse cx=".956" cy="136.079" rx="1" ry="1"/>
                <ellipse cx="87.78" cy="128.57" rx="1" ry="1"/>
                <ellipse cx="78.135" cy="128.57" rx="1" ry="1"/>
                <ellipse cx="68.484" cy="128.57" rx="1" ry="1"/>
                <ellipse cx="58.839" cy="128.57" rx="1" ry="1"/>
                <ellipse cx="49.194" cy="128.57" rx="1" ry="1"/>
                <ellipse cx="39.542" cy="128.57" rx="1" ry="1"/>
                <ellipse cx="29.897" cy="128.57" rx="1" ry="1"/>
                <ellipse cx="20.252" cy="128.57" rx="1" ry="1"/>
                <ellipse cx="10.601" cy="128.57" rx="1" ry="1"/>
                <ellipse cx=".956" cy="128.57" rx="1" ry="1"/>
                <ellipse cx="87.78" cy="121.062" rx="1" ry="1"/>
                <ellipse cx="78.135" cy="121.062" rx="1" ry="1"/>
                <ellipse cx="68.484" cy="121.062" rx="1" ry="1"/>
                <ellipse cx="58.839" cy="121.062" rx="1" ry="1"/>
                <ellipse cx="49.194" cy="121.062" rx="1" ry="1"/>
                <ellipse cx="39.542" cy="121.062" rx="1" ry="1"/>
                <ellipse cx="29.897" cy="121.062" rx="1" ry="1"/>
                <ellipse cx="20.252" cy="121.062" rx="1" ry="1"/>
                <ellipse cx="10.601" cy="121.062" rx="1" ry="1"/>
                <ellipse cx=".956" cy="121.062" rx="1" ry="1"/>
                <ellipse cx="87.78" cy="113.554" rx="1" ry="1"/>
                <ellipse cx="78.135" cy="113.554" rx="1" ry="1"/>
                <ellipse cx="68.484" cy="113.554" rx="1" ry="1"/>
                <ellipse cx="58.839" cy="113.554" rx="1" ry="1"/>
                <ellipse cx="49.194" cy="113.554" rx="1" ry="1"/>
                <ellipse cx="39.542" cy="113.554" rx="1" ry="1"/>
                <ellipse cx="29.897" cy="113.554" rx="1" ry="1"/>
                <ellipse cx="20.252" cy="113.554" rx="1" ry="1"/>
                <ellipse cx="10.601" cy="113.554" rx="1" ry="1"/>
                <ellipse cx=".956" cy="113.554" rx="1" ry="1"/>
                <ellipse cx="87.78" cy="106.046" rx="1" ry="1"/>
                <ellipse cx="78.135" cy="106.046" rx="1" ry="1"/>
                <ellipse cx="68.484" cy="106.046" rx="1" ry="1"/>
                <ellipse cx="58.839" cy="106.046" rx="1" ry="1"/>
                <ellipse cx="49.194" cy="106.046" rx="1" ry="1"/>
                <ellipse cx="39.542" cy="106.046" rx="1" ry="1"/>
                <ellipse cx="29.897" cy="106.046" rx="1" ry="1"/>
                <ellipse cx="20.252" cy="106.046" rx="1" ry="1"/>
                <ellipse cx="10.601" cy="106.046" rx="1" ry="1"/>
                <ellipse cx=".956" cy="106.046" rx="1" ry="1"/>
                <ellipse cx="87.78" cy="98.538" rx="1" ry="1"/>
                <ellipse cx="78.135" cy="98.538" rx="1" ry="1"/>
                <ellipse cx="68.484" cy="98.538" rx="1" ry="1"/>
                <ellipse cx="58.839" cy="98.538" rx="1" ry="1"/>
                <ellipse cx="49.194" cy="98.538" rx="1" ry="1"/>
                <ellipse cx="39.542" cy="98.538" rx="1" ry="1"/>
                <ellipse cx="29.897" cy="98.538" rx="1" ry="1"/>
                <ellipse cx="20.252" cy="98.538" rx="1" ry="1"/>
                <ellipse cx="10.601" cy="98.538" rx="1" ry="1"/>
                <ellipse cx=".956" cy="98.538" rx="1" ry="1"/>
                <ellipse cx="87.78" cy="91.03" rx="1" ry="1"/>
                <ellipse cx="78.135" cy="91.03" rx="1" ry="1"/>
                <ellipse cx="68.484" cy="91.03" rx="1" ry="1"/>
                <ellipse cx="58.839" cy="91.03" rx="1" ry="1"/>
                <ellipse cx="49.194" cy="91.03" rx="1" ry="1"/>
                <ellipse cx="39.542" cy="91.03" rx="1" ry="1"/>
                <ellipse cx="29.897" cy="91.03" rx="1" ry="1"/>
                <ellipse cx="20.252" cy="91.03" rx="1" ry="1"/>
                <ellipse cx="10.601" cy="91.03" rx="1" ry="1"/>
                <ellipse cx=".956" cy="91.03" rx="1" ry="1"/>
                <ellipse cx="87.78" cy="83.521" rx="1" ry="1"/>
                <ellipse cx="78.135" cy="83.521" rx="1" ry="1"/>
                <ellipse cx="68.484" cy="83.521" rx="1" ry="1"/>
                <ellipse cx="58.839" cy="83.521" rx="1" ry="1"/>
                <ellipse cx="49.194" cy="83.521" rx="1" ry="1"/>
                <ellipse cx="39.542" cy="83.521" rx="1" ry="1"/>
                <ellipse cx="29.897" cy="83.521" rx="1" ry="1"/>
                <ellipse cx="20.252" cy="83.521" rx="1" ry="1"/>
                <ellipse cx="10.601" cy="83.521" rx="1" ry="1"/>
                <ellipse cx=".956" cy="83.521" rx="1" ry="1"/>
                <ellipse cx="87.78" cy="76.577" rx="1" ry="1"/>
                <ellipse cx="78.135" cy="76.577" rx="1" ry="1"/>
                <ellipse cx="68.484" cy="76.577" rx="1" ry="1"/>
                <ellipse cx="58.839" cy="76.577" rx="1" ry="1"/>
                <ellipse cx="49.194" cy="76.577" rx="1" ry="1"/>
                <ellipse cx="39.542" cy="76.577" rx="1" ry="1"/>
                <ellipse cx="29.897" cy="76.577" rx="1" ry="1"/>
                <ellipse cx="20.252" cy="76.577" rx="1" ry="1"/>
                <ellipse cx="10.601" cy="76.577" rx="1" ry="1"/>
                <ellipse cx=".956" cy="76.577" rx="1" ry="1"/>
                <ellipse cx="87.78" cy="69.069" rx="1" ry="1"/>
                <ellipse cx="78.135" cy="69.069" rx="1" ry="1"/>
                <ellipse cx="68.484" cy="69.069" rx="1" ry="1"/>
                <ellipse cx="58.839" cy="69.069" rx="1" ry="1"/>
                <ellipse cx="49.194" cy="69.069" rx="1" ry="1"/>
                <ellipse cx="39.542" cy="69.069" rx="1" ry="1"/>
                <ellipse cx="29.897" cy="69.069" rx="1" ry="1"/>
                <ellipse cx="20.252" cy="69.069" rx="1" ry="1"/>
                <ellipse cx="10.601" cy="69.069" rx="1" ry="1"/>
                <ellipse cx=".956" cy="69.069" rx="1" ry="1"/>
                <ellipse cx="87.78" cy="61.561" rx="1" ry="1"/>
                <ellipse cx="78.135" cy="61.561" rx="1" ry="1"/>
                <ellipse cx="68.484" cy="61.561" rx="1" ry="1"/>
                <ellipse cx="58.839" cy="61.561" rx="1" ry="1"/>
                <ellipse cx="49.194" cy="61.561" rx="1" ry="1"/>
                <ellipse cx="39.542" cy="61.561" rx="1" ry="1"/>
                <ellipse cx="29.897" cy="61.561" rx="1" ry="1"/>
                <ellipse cx="20.252" cy="61.561" rx="1" ry="1"/>
                <ellipse cx="10.601" cy="61.561" rx="1" ry="1"/>
                <ellipse cx=".956" cy="61.561" rx="1" ry="1"/>
                <ellipse cx="87.78" cy="54.052" rx="1" ry="1"/>
                <ellipse cx="78.135" cy="54.052" rx="1" ry="1"/>
                <ellipse cx="68.484" cy="54.052" rx="1" ry="1"/>
                <ellipse cx="58.839" cy="54.052" rx="1" ry="1"/>
                <ellipse cx="49.194" cy="54.052" rx="1" ry="1"/>
                <ellipse cx="39.542" cy="54.052" rx="1" ry="1"/>
                <ellipse cx="29.897" cy="54.052" rx="1" ry="1"/>
                <ellipse cx="20.252" cy="54.052" rx="1" ry="1"/>
                <ellipse cx="10.601" cy="54.052" rx="1" ry="1"/>
                <ellipse cx=".956" cy="54.052" rx="1" ry="1"/>
                <ellipse cx="87.78" cy="46.544" rx="1" ry="1"/>
                <ellipse cx="78.135" cy="46.544" rx="1" ry="1"/>
                <ellipse cx="68.484" cy="46.544" rx="1" ry="1"/>
                <ellipse cx="58.839" cy="46.544" rx="1" ry="1"/>
                <ellipse cx="49.194" cy="46.544" rx="1" ry="1"/>
                <ellipse cx="39.542" cy="46.544" rx="1" ry="1"/>
                <ellipse cx="29.897" cy="46.544" rx="1" ry="1"/>
                <ellipse cx="20.252" cy="46.544" rx="1" ry="1"/>
                <ellipse cx="10.601" cy="46.544" rx="1" ry="1"/>
                <ellipse cx=".956" cy="46.544" rx="1" ry="1"/>
                <ellipse cx="87.78" cy="39.036" rx="1" ry="1"/>
                <ellipse cx="78.135" cy="39.036" rx="1" ry="1"/>
                <ellipse cx="68.484" cy="39.036" rx="1" ry="1"/>
                <ellipse cx="58.839" cy="39.036" rx="1" ry="1"/>
                <ellipse cx="49.194" cy="39.036" rx="1" ry="1"/>
                <ellipse cx="39.542" cy="39.036" rx="1" ry="1"/>
                <ellipse cx="29.897" cy="39.036" rx="1" ry="1"/>
                <ellipse cx="20.252" cy="39.036" rx="1" ry="1"/>
                <ellipse cx="10.601" cy="39.036" rx="1" ry="1"/>
                <ellipse cx=".956" cy="39.036" rx="1" ry="1"/>
                <ellipse cx="87.78" cy="31.528" rx="1" ry="1"/>
                <ellipse cx="78.135" cy="31.528" rx="1" ry="1"/>
                <ellipse cx="68.484" cy="31.528" rx="1" ry="1"/>
                <ellipse cx="58.839" cy="31.528" rx="1" ry="1"/>
                <ellipse cx="49.194" cy="31.528" rx="1" ry="1"/>
                <ellipse cx="39.542" cy="31.528" rx="1" ry="1"/>
                <ellipse cx="29.897" cy="31.528" rx="1" ry="1"/>
                <ellipse cx="20.252" cy="31.528" rx="1" ry="1"/>
                <ellipse cx="10.601" cy="31.528" rx="1" ry="1"/>
                <ellipse cx=".956" cy="31.528" rx="1" ry="1"/>
                <ellipse cx="87.78" cy="24.02" rx="1" ry="1"/>
                <ellipse cx="78.135" cy="24.02" rx="1" ry="1"/>
                <ellipse cx="68.484" cy="24.02" rx="1" ry="1"/>
                <ellipse cx="58.839" cy="24.02" rx="1" ry="1"/>
                <ellipse cx="49.194" cy="24.02" rx="1" ry="1"/>
                <ellipse cx="39.542" cy="24.02" rx="1" ry="1"/>
                <ellipse cx="29.897" cy="24.02" rx="1" ry="1"/>
                <ellipse cx="20.252" cy="24.02" rx="1" ry="1"/>
                <ellipse cx="10.601" cy="24.02" rx="1" ry="1"/>
                <ellipse cx=".956" cy="24.02" rx="1" ry="1"/>
                <ellipse cx="87.78" cy="16.511" rx="1" ry="1"/>
                <ellipse cx="78.135" cy="16.511" rx="1" ry="1"/>
                <ellipse cx="68.484" cy="16.511" rx="1" ry="1"/>
                <ellipse cx="58.839" cy="16.511" rx="1" ry="1"/>
                <ellipse cx="49.194" cy="16.511" rx="1" ry="1"/>
                <ellipse cx="39.542" cy="16.511" rx="1" ry="1"/>
                <ellipse cx="29.897" cy="16.511" rx="1" ry="1"/>
                <ellipse cx="20.252" cy="16.511" rx="1" ry="1"/>
                <ellipse cx="10.601" cy="16.511" rx="1" ry="1"/>
                <ellipse cx=".956" cy="16.511" rx="1" ry="1"/>
                <ellipse cx="87.78" cy="9.003" rx="1" ry="1"/>
                <ellipse cx="78.135" cy="9.003" rx="1" ry="1"/>
                <ellipse cx="68.484" cy="9.003" rx="1" ry="1"/>
                <ellipse cx="58.839" cy="9.003" rx="1" ry="1"/>
                <ellipse cx="49.194" cy="9.003" rx="1" ry="1"/>
                <ellipse cx="39.542" cy="9.003" rx="1" ry="1"/>
                <ellipse cx="29.897" cy="9.003" rx="1" ry="1"/>
                <ellipse cx="20.252" cy="9.003" rx="1" ry="1"/>
                <ellipse cx="10.601" cy="9.003" rx="1" ry="1"/>
                <ellipse cx=".956" cy="9.003" rx="1" ry="1"/>
                <ellipse cx="87.78" cy="1.495" rx="1" ry="1"/>
                <ellipse cx="78.135" cy="1.495" rx="1" ry="1"/>
                <ellipse cx="68.484" cy="1.495" rx="1" ry="1"/>
                <ellipse cx="58.839" cy="1.495" rx="1" ry="1"/>
                <ellipse cx="49.194" cy="1.495" rx="1" ry="1"/>
                <ellipse cx="39.542" cy="1.495" rx="1" ry="1"/>
                <ellipse cx="29.897" cy="1.495" rx="1" ry="1"/>
                <ellipse cx="20.252" cy="1.495" rx="1" ry="1"/>
                <ellipse cx="10.601" cy="1.495" rx="1" ry="1"/>
                <ellipse cx=".956" cy="1.495" rx="1" ry="1"/>
            </g>
            <path fill="#E9EBEE" fill-rule="nonzero" d="M289.004 101h-60.003c-16.545-.032-29.954-13.412-30-29.937V41.146C198.956 24.55 212.383 11.058 229 11H349v30.146c-.029 33.07-26.884 59.861-59.996 59.854M125 101.5V133H62.503C27.971 132.982-.01 104.778 0 70h93.748a31.088 31.088 0 0 1 22.123 9.212A31.535 31.535 0 0 1 125 101.5" opacity=".4"/>
            <g fill="#FFC916" fill-rule="nonzero" opacity=".3" transform="translate(20 26)">
                <ellipse cx="1.355" cy="1.196" rx="1" ry="1"/>
                <ellipse cx="10.935" cy="1.196" rx="1" ry="1"/>
                <ellipse cx="20.509" cy="1.196" rx="1" ry="1"/>
                <ellipse cx="30.083" cy="1.196" rx="1" ry="1"/>
                <ellipse cx="39.664" cy="1.196" rx="1" ry="1"/>
                <ellipse cx="49.238" cy="1.196" rx="1" ry="1"/>
                <ellipse cx="58.812" cy="1.196" rx="1" ry="1"/>
                <ellipse cx="68.393" cy="1.196" rx="1" ry="1"/>
                <ellipse cx="77.967" cy="1.196" rx="1" ry="1"/>
                <ellipse cx="87.541" cy="1.196" rx="1" ry="1"/>
                <ellipse cx="1.355" cy="8.765" rx="1" ry="1"/>
                <ellipse cx="10.935" cy="8.765" rx="1" ry="1"/>
                <ellipse cx="20.509" cy="8.765" rx="1" ry="1"/>
                <ellipse cx="30.083" cy="8.765" rx="1" ry="1"/>
                <ellipse cx="39.664" cy="8.765" rx="1" ry="1"/>
                <ellipse cx="49.238" cy="8.765" rx="1" ry="1"/>
                <ellipse cx="58.812" cy="8.765" rx="1" ry="1"/>
                <ellipse cx="68.393" cy="8.765" rx="1" ry="1"/>
                <ellipse cx="77.967" cy="8.765" rx="1" ry="1"/>
                <ellipse cx="87.541" cy="8.765" rx="1" ry="1"/>
                <ellipse cx="1.355" cy="16.334" rx="1" ry="1"/>
                <ellipse cx="10.935" cy="16.334" rx="1" ry="1"/>
                <ellipse cx="20.509" cy="16.334" rx="1" ry="1"/>
                <ellipse cx="30.083" cy="16.334" rx="1" ry="1"/>
                <ellipse cx="39.664" cy="16.334" rx="1" ry="1"/>
                <ellipse cx="49.238" cy="16.334" rx="1" ry="1"/>
                <ellipse cx="58.812" cy="16.334" rx="1" ry="1"/>
                <ellipse cx="68.393" cy="16.334" rx="1" ry="1"/>
                <ellipse cx="77.967" cy="16.334" rx="1" ry="1"/>
                <ellipse cx="87.541" cy="16.334" rx="1" ry="1"/>
                <ellipse cx="1.355" cy="23.902" rx="1" ry="1"/>
                <ellipse cx="10.935" cy="23.902" rx="1" ry="1"/>
                <ellipse cx="20.509" cy="23.902" rx="1" ry="1"/>
                <ellipse cx="30.083" cy="23.902" rx="1" ry="1"/>
                <ellipse cx="39.664" cy="23.902" rx="1" ry="1"/>
                <ellipse cx="49.238" cy="23.902" rx="1" ry="1"/>
                <ellipse cx="58.812" cy="23.902" rx="1" ry="1"/>
                <ellipse cx="68.393" cy="23.902" rx="1" ry="1"/>
                <ellipse cx="77.967" cy="23.902" rx="1" ry="1"/>
                <ellipse cx="87.541" cy="23.902" rx="1" ry="1"/>
                <ellipse cx="1.355" cy="31.471" rx="1" ry="1"/>
                <ellipse cx="10.935" cy="31.471" rx="1" ry="1"/>
                <ellipse cx="20.509" cy="31.471" rx="1" ry="1"/>
                <ellipse cx="30.083" cy="31.471" rx="1" ry="1"/>
                <ellipse cx="39.664" cy="31.471" rx="1" ry="1"/>
                <ellipse cx="49.238" cy="31.471" rx="1" ry="1"/>
                <ellipse cx="58.812" cy="31.471" rx="1" ry="1"/>
                <ellipse cx="68.393" cy="31.471" rx="1" ry="1"/>
                <ellipse cx="77.967" cy="31.471" rx="1" ry="1"/>
                <ellipse cx="87.541" cy="31.471" rx="1" ry="1"/>
                <ellipse cx="1.355" cy="39.04" rx="1" ry="1"/>
                <ellipse cx="10.935" cy="39.04" rx="1" ry="1"/>
                <ellipse cx="20.509" cy="39.04" rx="1" ry="1"/>
                <ellipse cx="30.083" cy="39.04" rx="1" ry="1"/>
                <ellipse cx="39.664" cy="39.04" rx="1" ry="1"/>
                <ellipse cx="49.238" cy="39.04" rx="1" ry="1"/>
                <ellipse cx="58.812" cy="39.04" rx="1" ry="1"/>
                <ellipse cx="68.393" cy="39.04" rx="1" ry="1"/>
                <ellipse cx="77.967" cy="39.04" rx="1" ry="1"/>
                <ellipse cx="87.541" cy="39.04" rx="1" ry="1"/>
                <ellipse cx="1.355" cy="46.608" rx="1" ry="1"/>
                <ellipse cx="10.935" cy="46.608" rx="1" ry="1"/>
                <ellipse cx="20.509" cy="46.608" rx="1" ry="1"/>
                <ellipse cx="30.083" cy="46.608" rx="1" ry="1"/>
                <ellipse cx="39.664" cy="46.608" rx="1" ry="1"/>
                <ellipse cx="49.238" cy="46.608" rx="1" ry="1"/>
                <ellipse cx="58.812" cy="46.608" rx="1" ry="1"/>
                <ellipse cx="68.393" cy="46.608" rx="1" ry="1"/>
                <ellipse cx="77.967" cy="46.608" rx="1" ry="1"/>
                <ellipse cx="87.541" cy="46.608" rx="1" ry="1"/>
                <ellipse cx="1.355" cy="54.177" rx="1" ry="1"/>
                <ellipse cx="10.935" cy="54.177" rx="1" ry="1"/>
                <ellipse cx="20.509" cy="54.177" rx="1" ry="1"/>
                <ellipse cx="30.083" cy="54.177" rx="1" ry="1"/>
                <ellipse cx="39.664" cy="54.177" rx="1" ry="1"/>
                <ellipse cx="49.238" cy="54.177" rx="1" ry="1"/>
                <ellipse cx="58.812" cy="54.177" rx="1" ry="1"/>
                <ellipse cx="68.393" cy="54.177" rx="1" ry="1"/>
                <ellipse cx="77.967" cy="54.177" rx="1" ry="1"/>
                <ellipse cx="87.541" cy="54.177" rx="1" ry="1"/>
                <ellipse cx="1.355" cy="61.746" rx="1" ry="1"/>
                <ellipse cx="10.935" cy="61.746" rx="1" ry="1"/>
                <ellipse cx="20.509" cy="61.746" rx="1" ry="1"/>
                <ellipse cx="30.083" cy="61.746" rx="1" ry="1"/>
                <ellipse cx="39.664" cy="61.746" rx="1" ry="1"/>
                <ellipse cx="49.238" cy="61.746" rx="1" ry="1"/>
                <ellipse cx="58.812" cy="61.746" rx="1" ry="1"/>
                <ellipse cx="68.393" cy="61.746" rx="1" ry="1"/>
                <ellipse cx="77.967" cy="61.746" rx="1" ry="1"/>
                <ellipse cx="87.541" cy="61.746" rx="1" ry="1"/>
                <ellipse cx="1.355" cy="69.314" rx="1" ry="1"/>
                <ellipse cx="10.935" cy="69.314" rx="1" ry="1"/>
                <ellipse cx="20.509" cy="69.314" rx="1" ry="1"/>
                <ellipse cx="30.083" cy="69.314" rx="1" ry="1"/>
                <ellipse cx="39.664" cy="69.314" rx="1" ry="1"/>
                <ellipse cx="49.238" cy="69.314" rx="1" ry="1"/>
                <ellipse cx="58.812" cy="69.314" rx="1" ry="1"/>
                <ellipse cx="68.393" cy="69.314" rx="1" ry="1"/>
                <ellipse cx="77.967" cy="69.314" rx="1" ry="1"/>
                <ellipse cx="87.541" cy="69.314" rx="1" ry="1"/>
                <ellipse cx="1.355" cy="76.883" rx="1" ry="1"/>
                <ellipse cx="10.935" cy="76.883" rx="1" ry="1"/>
                <ellipse cx="20.509" cy="76.883" rx="1" ry="1"/>
                <ellipse cx="30.083" cy="76.883" rx="1" ry="1"/>
                <ellipse cx="39.664" cy="76.883" rx="1" ry="1"/>
                <ellipse cx="49.238" cy="76.883" rx="1" ry="1"/>
                <ellipse cx="58.812" cy="76.883" rx="1" ry="1"/>
                <ellipse cx="68.393" cy="76.883" rx="1" ry="1"/>
                <ellipse cx="77.967" cy="76.883" rx="1" ry="1"/>
                <ellipse cx="87.541" cy="76.883" rx="1" ry="1"/>
            </g>
            <ellipse cx="328.5" cy="221" fill="#F6F7F8" fill-rule="nonzero" rx="13.5" ry="3"/>
            <path fill="#43B963" fill-rule="nonzero" d="M335.532 199H338a9.01 9.01 0 0 1-2.637 6.371A8.969 8.969 0 0 1 329 208v-2.474c0-1.734.689-3.397 1.914-4.622a6.503 6.503 0 0 1 4.618-1.904z"/>
            <path fill="#02AD46" fill-rule="nonzero" d="M330 208h-3.632a5.368 5.368 0 0 1-5.368-5.368V199h2.474a6.526 6.526 0 0 1 6.526 6.526V208z"/>
            <path fill="#3B4D6F" fill-rule="nonzero" d="M331.523 221h-6.033c-2.074.001-3.841-1.53-4.172-3.615l-1.293-8.093a2 2 0 0 1 .446-1.606 1.925 1.925 0 0 1 1.494-.686h13.07a1.925 1.925 0 0 1 1.494.686 2 2 0 0 1 .446 1.606l-1.293 8.093c-.33 2.08-2.09 3.61-4.159 3.615z"/>
            <ellipse cx="41.5" cy="217.5" fill="#F6F7F8" fill-rule="nonzero" rx="24.5" ry="4.5"/>
            <rect width="241" height="162" x="66" y="56" fill="#F9F9F9" fill-rule="nonzero" stroke="#E9EBEE" stroke-width=".727" rx="7.269"/>
            <path fill="#E9EBEE" fill-rule="nonzero" d="M72.585 55h227.83c3.637 0 6.585 2.985 6.585 6.667V69H66v-7.333C66 57.985 68.948 55 72.585 55z"/>
            <path fill="#E9EBEE" fill-rule="nonzero" d="M66 70h20v148H72.452c-3.564 0-6.452-2.932-6.452-6.549V70z" opacity=".7"/>
            <path fill="#F6F7F7" fill-rule="nonzero" d="M112 70h2v3h-2z"/>
            <path fill="#E9EBEE" fill-rule="nonzero" d="M139.007 92.8c10.9.593 19.606 9.299 20.2 20.2H169c-.613-16.308-13.692-29.387-30-30l.007 9.8z" opacity=".7"/>
            <path fill="#E9EBEE" fill-rule="nonzero" d="M159.244 115A21.332 21.332 0 0 1 149 132.433l4.693 8.567A31.098 31.098 0 0 0 169 115.013l-9.756-.013z"/>
            <path fill="#D3D7DE" fill-rule="nonzero" d="M147.208 132.924c-7.927 3.825-17.394 2.52-23.973-3.306-6.58-5.826-8.971-15.021-6.058-23.286 2.914-8.265 10.558-13.966 19.357-14.438V82c-12.96.477-24.323 8.752-28.685 20.89-4.363 12.139-.846 25.694 8.878 34.223 9.724 8.53 23.695 10.314 35.273 4.504l-4.792-8.693z"/>
            <circle cx="188.5" cy="103.5" r="2.5" fill="#D3D7DE" fill-rule="nonzero"/>
            <circle cx="188.5" cy="113.5" r="2.5" fill="#E9EBEE" fill-rule="nonzero"/>
            <path fill="#E9EBEE" fill-rule="nonzero" d="M196 103h20v2h-20zM196 113h20v2h-20z"/>
            <circle cx="188.5" cy="124.5" r="2.5" fill="#E9EBEE" fill-rule="nonzero" opacity=".7"/>
            <path fill="#E9EBEE" fill-rule="nonzero" d="M196 123h20v2h-20z"/>
            <path fill="#D3D7DE" fill-rule="nonzero" d="M242 90h5v34h-5z"/>
            <path fill="#E9EBEE" fill-rule="nonzero" d="M254 101h5v22h-5z"/>
            <path fill="#D3D7DE" fill-rule="nonzero" d="M267 87h5v36h-5z"/>
            <path fill="#E9EBEE" fill-rule="nonzero" d="M280 105h5v18h-5z"/>
            <circle cx="243" cy="136" r="2" fill="#D3D7DE" fill-rule="nonzero"/>
            <path fill="#E9EBEE" fill-rule="nonzero" d="M247 135h12v2h-12z"/>
            <circle cx="267" cy="136" r="2" fill="#E9EBEE" fill-rule="nonzero"/>
            <path fill="#E9EBEE" fill-rule="nonzero" d="M271 135h14v2h-14zM157.885 189.87a12.001 12.001 0 0 1 4.312-3.998c5.597-3.138 14.346-2.265 19.785.998a16.092 16.092 0 0 0 8.992 1.864c1.662-.229 3.287-.67 4.837-1.313a12.01 12.01 0 0 0 3.172-1.97c2.621-2.218 9.358-7.424 13.979-7.424a19.03 19.03 0 0 1 10.603 2.127 7.284 7.284 0 0 0 3.566.833c2.11-.091 5.085-1.096 7.753-5.18.53-.83.98-1.71 1.343-2.625a72.375 72.375 0 0 1 5.636-11.16c2.156-3.454 5.047-8.056 9.955-9.619 8.664-2.764 11.974 9.447 13.933 13.222 0 0 17.774 34.31 24.249 37.375H145s8.782-6.63 12.885-13.13z"/>
            <path fill="#FFF" fill-rule="nonzero" d="M120 198.136s8.818-6.07 12.806-14.528c0 0 8.426-18.009 15.194 1.388 0 0-2.654 10.005-6.396 11.132 0 0-4.048 3.075-6.801 2.861 0 0-13.934-1.82-14.803-.853zM162 195.326a87.944 87.944 0 0 0 8.062-5.461c5.147-3.963 12.908-5.283 19.086-2.034 1.02.55 1.991 1.188 2.901 1.908 1.773 1.374 5.942 4.49 7.951 5.059 0 0-7.347 7.693-15.632 5.943 0 0-14.293-3.56-15.29-1.75 0 .02-6.165-1.552-7.078-3.665zM215 193.407s9.362-3.475 18 .497c.007 0-6.982 7.286-18-.497z"/>
            <path fill="#D3D7DE" fill-rule="nonzero" d="M105 203h185s-14.678-14.081-19.728-34.141a2.993 2.993 0 0 0-.27-.695c-.73-1.378-3.637-5.595-6.925 3.632-.22.645-.48 1.276-.776 1.891-1.137 2.34-4.13 7.986-7.43 10.144a4.352 4.352 0 0 1-3.322.467c-2.913-.72-6.576-1.377-9.555-.552a5.16 5.16 0 0 0-3.4 2.807c-1.144 2.6-4.642 8.747-12.415 9.332 0 0-4.946 1.5-10.884-2.996-4.34-3.288-11.837-.565-15.585 1.137a15.476 15.476 0 0 0-3.091 1.859 19.369 19.369 0 0 1-14.067 3.86 8.678 8.678 0 0 1-1.604-.338c-1.868-.572-6.958-1.989-10.463-1.638a10.19 10.19 0 0 1-5.675-1.137 14.51 14.51 0 0 1-6.892-7.492s-6.924-17.227-11.87-1.495c0 0-1.598 7.245-9.081 9.812-1.522.488-3.128.67-4.722.533l-7.924-.604S111.43 195.885 105 203z"/>
            <rect width="11" height="11" x="71" y="77" fill="#FFF" fill-rule="nonzero" rx="2.181"/>
            <rect width="11" height="11" x="71" y="100" fill="#FFF" fill-rule="nonzero" rx="2.181"/>
            <rect width="11" height="11" x="71" y="123" fill="#FFF" fill-rule="nonzero" rx="2.181"/>
            <rect width="11" height="11" x="71" y="146" fill="#FFF" fill-rule="nonzero" rx="2.181"/>
            <rect width="271" height="52" x="49" y="113" fill="#FFF" fill-rule="nonzero" stroke="#FF4702" stroke-width="1.454" rx="7.269"/>
            <circle cx="288" cy="127" r="1" stroke="#FF4702" stroke-width=".727"/>
            <path fill="#FF4702" d="M298 145.98h-21a11.636 11.636 0 0 0 1.702-6.051v-4.546c0-4.63 3.812-8.383 8.514-8.383 2.258 0 4.423.883 6.019 2.456a8.311 8.311 0 0 1 2.49 5.927v4.247A10.097 10.097 0 0 0 298 146v-.02z"/>
            <rect width="24" height="2" x="276" y="147" fill="#FF4702" fill-rule="nonzero" rx="1"/>
            <path fill="#FF4702" d="M291 149c-.082 1.678-1.625 3-3.5 3s-3.418-1.322-3.5-3h7z"/>
            <rect width="32" height="24" x="63" y="127" fill="#FF4702" fill-rule="nonzero" rx="5.089"/>
            <path stroke="#FFF" stroke-width="1.454" d="M60 129l19.33 10L98 129"/>
            <rect width="135" height="5" x="108" y="144" fill="#3C4D6F" fill-rule="nonzero" rx="2.5"/>
            <rect width="93" height="7" x="108" y="129" fill="#3C4D6F" fill-rule="nonzero" rx="3.5"/>
            <path fill="#202E4B" fill-rule="nonzero" d="M33.301 104l-8.776 1.188S15.89 114.944 25.65 147l18.93-2.894L46 111.121l-5.576-3.982L33.3 104z"/>
            <path fill="#F0939E" fill-rule="nonzero" d="M34.831 100s-.299 2.611-1.831 4.115c0 0 2.946 4.885 5.306 4.885.92-.82 1.52-1.95 1.694-3.185L34.831 100z"/>
            <path fill="#202E4B" fill-rule="nonzero" d="M45.907 111l7.928 16 15.956-1.76L71 127.013 53.389 132a97.725 97.725 0 0 1-8.179-7.853l-.21-6.954.907-6.193z"/>
            <path fill="#3C4D6F" fill-rule="nonzero" d="M25.417 146.857L24 155.79s.386 42.081 4.237 58.21h2.5s4.657-38.156 5.322-46.84l1.263-8.355 9.678-7.15s-1.995-6.934-2.774-7.655l-18.81 2.857z"/>
            <path fill="#283A5E" fill-rule="nonzero" d="M38.111 159.11L37 166.612s3.962 26.33 9.606 47.388l2.394-.945L47.356 152l-9.245 7.11z"/>
            <path fill="#001F3A" fill-rule="nonzero" d="M29 214v4h9l-6.612-4zM46 214.02l.311 3.98H56l-7.505-5z"/>
            <path fill="#00B3CC" fill-rule="nonzero" d="M45 124.47V118s2.758 9.691 8.255 12.042L71 127.095 53.095 132A99.194 99.194 0 0 1 45 124.47z" opacity=".3"/>
            <path fill="#FFC9D5" fill-rule="nonzero" d="M70 125.469l3.281-.469 1.3.027.984.507L76 127l-4.761-.097z"/>
            <path fill="#00B3CC" fill-rule="nonzero" d="M40.214 107.249a4.87 4.87 0 0 1-1.438 2.087S36.52 109.628 33 104c0 0 .44 6.26 5.681 6.956 4.082.515 1.533-3.707 1.533-3.707z"/>
            <path fill="#FFC9D5" fill-rule="nonzero" d="M47 90.835S44.931 106 41.569 106c-3.363 0-6.296-4.223-6.553-6.808C34.76 96.606 37.591 88 38.462 88S47 90.835 47 90.835z"/>
            <path fill="#283A5E" fill-rule="nonzero" d="M47 91.002l-.58 3.363s-5.208-3.674-8.04-1.681c0 0 .266 1.737-3.38 4.316 0 0 1.4-7.592 3.256-9A43.506 43.506 0 0 1 47 91.002z"/>
            <path fill="#202E4B" fill-rule="nonzero" d="M27.807 113l13.896 17.847L61 135.657V138l-21.051-1.94S29.607 128.457 26 124.013c.22-3.725.826-7.417 1.807-11.014z"/>
            <path fill="#FFC9D5" fill-rule="nonzero" d="M61 135.37l2.02-1.37v1.37l3.98 2.036L64.175 139 61 137.753z"/>
            <path fill="#00B3CC" fill-rule="nonzero" d="M24.068 105c2.622 9.775 10.527 19.204 17.461 25.296L61 135l-20.416-3.448-13.848-12.903s-3.24-11.686-2.668-13.649z" opacity=".3"/>
            <path fill="#00B3CC" fill-rule="nonzero" d="M61 138l-21.29-1.838S30.86 130.033 30 129l9.91 6.737s14.4 0 21.09.045V138z"/>
            <path fill="#E86578" fill-rule="nonzero" d="M47 94.177s-6.643-2.59-7.834-1.368c-.563 2-2.134 3.58-4.166 4.191l2.1-3.931L39.714 91l5.65.901L47 94.177z"/>
            <path fill="#283A5E" fill-rule="nonzero" d="M35.328 97s-1.015-6.759.527-8.768c1.543-2.008 13.974-1.773 13.101 2.29-.873 4.064-1.76 3.71-1.76 3.71s-6.09-3.33-8.356-1.766c0 0 .121 1.989-3.512 4.534z"/>
            <path fill="#00B3CC" fill-rule="nonzero" d="M22 128a100.354 100.354 0 0 0 4.148 19L39 145s-13.325 1.1-17-17z"/>
            <path fill="#202E4B" fill-rule="nonzero" d="M270.93 17l5.894.277s2.03 3.61 6.458.191l5.718.726L288.705 51H267s4.585-2.382 4.827-17.366c0-.898-.714-1.828-.727-2.804-.04-2.138.57-6.658.34-9.178a115.38 115.38 0 0 0-.51-4.652z"/>
            <path fill="#202E4B" fill-rule="nonzero" d="M270.202 17L258 28.453l1.216 2.347 1.52.2L271 24.653c0-.517 0-1.855-.798-7.653z"/>
            <path fill="#202E4B" fill-rule="nonzero" d="M259.763 30.958L278.583 34l.417-2.095L263.1 27l-4.1 2.52z"/>
            <path fill="#FFC9D5" fill-rule="nonzero" d="M279 34.227c.588.666 3.837.773 3.837.773L284 31.947l-1.627-.42L283.425 30l-2.185.98-1.856 1.073-.384 2.174z"/>
            <path fill="#283A5E" fill-rule="nonzero" d="M264 51h22s-7.56 7.619-9.849 8c0 0-11.512-7.359-12.151-8zM287.9 56.233L292.957 51l4.38.778s1.106 4.747.461 5.804C297.154 58.64 288.401 81 288.401 81L286 80.767s2.805-12.673 1.9-24.534z"/>
            <path fill="#F0939E" fill-rule="nonzero" d="M286.562 81L286 83.506l1.824.494L289 81.199z"/>
            <path fill="#EA003D" fill-rule="nonzero" d="M286.17 83L282 88l2.208.875 3.242.125.55-5.428z"/>
            <path fill="#3C4D6F" fill-rule="nonzero" d="M257.477 50s-6.047 1.195-7.116 1.616L250 56.367s4.434 3.336 29.344 3.633l.656-1.65L257.477 50z"/>
            <path fill="#F0939E" fill-rule="nonzero" d="M280.612 58l1.388.58-.25 1.42-1.75-.61z"/>
            <path fill="#EA003D" fill-rule="nonzero" d="M282.265 59.053L286.278 58l1.722.27-1.152 4.73s-3.974-1.072-4.848-2.394l.265-1.553z"/>
            <path fill="#F0939E" fill-rule="nonzero" d="M276 14.967l.5 2.443s2.183 3.457 6.5.177L281.425 13 276 14.967z"/>
            <path fill="#FFC9D5" fill-rule="nonzero" d="M276.637 2s-8.434 8.412.386 12.365l1.697.524a2.383 2.383 0 0 0 1.824-.161l.706-.395a5.17 5.17 0 0 0 1.897-1.941c1.098-1.896 1.617-5.086-1.498-8.308-1.105-1.14-2.73-.7-5.012-2.084z"/>
            <path fill="#EA003D" fill-rule="nonzero" d="M279 32s-9.767-2.142-15-3.46a25.563 25.563 0 0 0 7.646-6.54l-.033 3.226-5.032 2.99L279 32z" opacity=".3"/>
            <path fill="#EA003D" fill-rule="nonzero" d="M283 17.29s-3.937 3.365-6.613-.182L274 17s4.876 6.552 9 .29z"/>
            <path fill="#283A5E" fill-rule="nonzero" d="M264.037 50.434L258 50l11 4z"/>
            <path fill="#202E4B" fill-rule="nonzero" d="M288.37 51s.558-11.91 1.63-16.394A106.247 106.247 0 0 0 288.709 18s-1.336 27.194-.34 33z"/>
            <path fill="#EA003D" fill-rule="nonzero" d="M274 50.992s13.873.767 16-12.992c0 0-.716 6.701-.952 12.992H274z"/>
            <path fill="#3C4D6F" fill-rule="nonzero" d="M293 50.515L288.31 50h-2.7L278 57.276l9.902.724-.107-2.005z"/>
            <path fill="#202E4B" fill-rule="nonzero" d="M289 18s9.033 19.982 2.817 34a2.799 2.799 0 0 0-2.754 0s2.365-12.375-.063-34z"/>
            <path fill="#FB043D" fill-rule="nonzero" d="M289.73 29c.632 14.756-.73 23-.73 23a2.595 2.595 0 0 1 2-.221s-.13-3.767-1.27-22.772V29z" opacity=".3"/>
            <path fill="#FFC9D5" fill-rule="nonzero" d="M288.837 52.344l-.121 1.098L288 58l2.862-1.87L292 52.3s-1.174-.703-3.163.044z"/>
            <path fill="#EA003D" fill-rule="nonzero" d="M279 31.695L278.59 34 262 31s9.228 1.88 14.108 1.794c1.674-.007 2.712-.539 2.892-1.099z"/>
            <path fill="#E86578" fill-rule="nonzero" d="M275.204 13.898c.482-1.398.7-2.883.641-4.37a16.607 16.607 0 0 1 .609-4.743c.922 1.252 2.211 2.143 3.666 2.534 2.28.522 1.922 6.681 1.922 6.681s1.243-5.366.897-6.003c-.346-.637-2.973-2.873-2.973-2.873L276.499 2 273 8.573l2.204 5.325z"/>
            <path fill="#283A5E" fill-rule="nonzero" d="M276.366 3.657c.764 1.78 2.363 3.036 4.239 3.329 3.363.716.81 11.014.81 11.014s4.607-2.62 5.456-7.739c.85-5.119-2.501-12.047-9.847-9.839 0 0-6.846-1.911-7.024 8.57 0 0-.112 5.361 3.66 8.988.44-.803.8-1.649 1.073-2.526.56-1.675.805-3.444.724-5.213-.257-4.282.909-6.584.909-6.584z"/>
            <path stroke="#FF8E62" stroke-linecap="round" stroke-width=".727" d="M288 34.453s-3.398-6.743-5.946-1.384c-2.549 5.36-2.778 26.166-.391 40.42 2.387 14.253 7.31 26.178 5.742 53.511"/>
            <path fill="#FFC9D5" fill-rule="nonzero" d="M279 34.227c.588.666 3.837.773 3.837.773L284 31.947l-1.627-.42L283.425 30l-2.185.98-1.856 1.073-.384 2.174z"/>
            <path fill="#283A5E" fill-rule="nonzero" d="M273 18l3-2.24-.17-.908a10.23 10.23 0 0 1-1.364-.852L273 18z"/>
        </g>
    </g>
</svg>
