<svg width="64" height="64" viewBox="0 0 64 64" fill="none" xmlns="http://www.w3.org/2000/svg">
<path d="M18.2104 52.4658H16.2177L16.2069 51.4829H17.9472C18.2408 51.4829 18.4897 51.4399 18.6938 51.354C18.9014 51.2645 19.059 51.1374 19.1664 50.9727C19.2738 50.8044 19.3275 50.6021 19.3275 50.3657C19.3275 50.1043 19.2774 49.8913 19.1772 49.7266C19.0769 49.5618 18.9229 49.4419 18.7152 49.3667C18.5111 49.2915 18.2497 49.2539 17.9311 49.2539H16.6259V56H15.2777V48.1797H17.9311C18.3607 48.1797 18.7439 48.2209 19.0805 48.3032C19.4206 48.3856 19.7089 48.5145 19.9452 48.6899C20.1851 48.8618 20.366 49.0802 20.4877 49.3452C20.613 49.6102 20.6757 49.9253 20.6757 50.2905C20.6757 50.6128 20.5987 50.9082 20.4447 51.1768C20.2908 51.4417 20.0634 51.6584 19.7626 51.8267C19.4618 51.995 19.0876 52.0952 18.64 52.1274L18.2104 52.4658ZM18.1513 56H15.7934L16.4003 54.9312H18.1513C18.4556 54.9312 18.7099 54.881 18.914 54.7808C19.1181 54.6769 19.2703 54.5355 19.3705 54.3564C19.4744 54.1738 19.5263 53.9608 19.5263 53.7173C19.5263 53.4631 19.4815 53.2428 19.392 53.0566C19.3025 52.8669 19.161 52.7218 18.9677 52.6216C18.7743 52.5177 18.5219 52.4658 18.2104 52.4658H16.6957L16.7065 51.4829H18.6776L18.9838 51.8535C19.4135 51.8678 19.7662 51.9627 20.0419 52.1382C20.3212 52.3136 20.5289 52.541 20.6649 52.8203C20.801 53.0996 20.869 53.4004 20.869 53.7227C20.869 54.2204 20.7598 54.6375 20.5414 54.9741C20.3266 55.3107 20.0168 55.5667 19.6122 55.7422C19.2076 55.9141 18.7206 56 18.1513 56Z" fill="#283A5E"/>
<path d="M21.652 53.1587V53.0352C21.652 52.6162 21.7128 52.2277 21.8346 51.8696C21.9563 51.508 22.1318 51.1947 22.3609 50.9297C22.5937 50.6611 22.8766 50.4535 23.2096 50.3066C23.5462 50.1562 23.9257 50.0811 24.3482 50.0811C24.7744 50.0811 25.1539 50.1562 25.4869 50.3066C25.8235 50.4535 26.1082 50.6611 26.3409 50.9297C26.5737 51.1947 26.7509 51.508 26.8727 51.8696C26.9944 52.2277 27.0553 52.6162 27.0553 53.0352V53.1587C27.0553 53.5776 26.9944 53.9661 26.8727 54.3242C26.7509 54.6823 26.5737 54.9956 26.3409 55.2642C26.1082 55.5291 25.8253 55.7368 25.4923 55.8872C25.1593 56.034 24.7815 56.1074 24.359 56.1074C23.9329 56.1074 23.5515 56.034 23.2149 55.8872C22.8819 55.7368 22.5991 55.5291 22.3663 55.2642C22.1336 54.9956 21.9563 54.6823 21.8346 54.3242C21.7128 53.9661 21.652 53.5776 21.652 53.1587ZM22.9464 53.0352V53.1587C22.9464 53.4201 22.9732 53.6672 23.027 53.8999C23.0807 54.1326 23.1648 54.3368 23.2794 54.5122C23.394 54.6877 23.5408 54.8255 23.7198 54.9258C23.8989 55.026 24.1119 55.0762 24.359 55.0762C24.5989 55.0762 24.8066 55.026 24.982 54.9258C25.1611 54.8255 25.3079 54.6877 25.4225 54.5122C25.5371 54.3368 25.6212 54.1326 25.6749 53.8999C25.7322 53.6672 25.7608 53.4201 25.7608 53.1587V53.0352C25.7608 52.7773 25.7322 52.5339 25.6749 52.3047C25.6212 52.0719 25.5353 51.866 25.4171 51.687C25.3025 51.508 25.1557 51.3683 24.9767 51.2681C24.8012 51.1642 24.5917 51.1123 24.3482 51.1123C24.1048 51.1123 23.8935 51.1642 23.7145 51.2681C23.539 51.3683 23.394 51.508 23.2794 51.687C23.1648 51.866 23.0807 52.0719 23.027 52.3047C22.9732 52.5339 22.9464 52.7773 22.9464 53.0352Z" fill="#283A5E"/>
<path d="M29.326 47.75V56H28.0262V47.75H29.326Z" fill="#283A5E"/>
<path d="M34.0889 54.7969V47.75H35.3887V56H34.2124L34.0889 54.7969ZM30.3076 53.1587V53.0459C30.3076 52.6055 30.3595 52.2044 30.4634 51.8428C30.5672 51.4775 30.7176 51.1642 30.9146 50.9028C31.1115 50.6379 31.3514 50.4355 31.6343 50.2959C31.9172 50.1527 32.2358 50.0811 32.5903 50.0811C32.9412 50.0811 33.2492 50.1491 33.5142 50.2852C33.7791 50.4212 34.0047 50.6164 34.1909 50.8706C34.3771 51.1213 34.5257 51.422 34.6367 51.7729C34.7477 52.1203 34.8265 52.507 34.8731 52.9331V53.293C34.8265 53.7083 34.7477 54.0879 34.6367 54.4316C34.5257 54.7754 34.3771 55.0726 34.1909 55.3232C34.0047 55.5739 33.7773 55.7673 33.5088 55.9033C33.2438 56.0394 32.9341 56.1074 32.5796 56.1074C32.2287 56.1074 31.9118 56.034 31.6289 55.8872C31.3496 55.7404 31.1115 55.5345 30.9146 55.2695C30.7176 55.0046 30.5672 54.693 30.4634 54.335C30.3595 53.9733 30.3076 53.5812 30.3076 53.1587ZM31.6021 53.0459V53.1587C31.6021 53.4237 31.6253 53.6707 31.6719 53.8999C31.722 54.1291 31.799 54.3314 31.9028 54.5068C32.0067 54.6787 32.141 54.8148 32.3057 54.915C32.474 55.0117 32.6745 55.0601 32.9072 55.0601C33.2009 55.0601 33.4426 54.9956 33.6323 54.8667C33.8221 54.7378 33.9707 54.5641 34.0781 54.3457C34.1891 54.1237 34.2643 53.8766 34.3037 53.6045V52.6323C34.2822 52.4211 34.2375 52.2241 34.1694 52.0415C34.105 51.8589 34.0173 51.6995 33.9063 51.5635C33.7953 51.4238 33.6574 51.3164 33.4927 51.2412C33.3315 51.1624 33.14 51.123 32.918 51.123C32.6816 51.123 32.4811 51.1732 32.3164 51.2734C32.1517 51.3737 32.0156 51.5116 31.9082 51.687C31.8044 51.8625 31.7274 52.0666 31.6773 52.2993C31.6271 52.5321 31.6021 52.7809 31.6021 53.0459Z" fill="#283A5E"/>
<path d="M40.6498 48.1797V56H39.3017V48.1797H40.6498Z" fill="#283A5E"/>
<path d="M44.3976 56H42.7272L42.7379 54.9312H44.3976C44.881 54.9312 45.2856 54.8255 45.6114 54.6143C45.9409 54.403 46.1879 54.1004 46.3526 53.7065C46.5209 53.3127 46.6051 52.8436 46.6051 52.2993V51.875C46.6051 51.4525 46.5567 51.0783 46.4601 50.7524C46.367 50.4266 46.2273 50.1527 46.0411 49.9307C45.8585 49.7087 45.6329 49.5404 45.3644 49.4258C45.0994 49.3112 44.7932 49.2539 44.4459 49.2539H42.6949V48.1797H44.4459C44.9651 48.1797 45.4396 48.2674 45.8692 48.4429C46.2989 48.6147 46.6695 48.8636 46.9811 49.1895C47.2962 49.5153 47.5379 49.9056 47.7062 50.3604C47.8745 50.8151 47.9586 51.3236 47.9586 51.8857V52.2993C47.9586 52.8615 47.8745 53.37 47.7062 53.8247C47.5379 54.2795 47.2962 54.6698 46.9811 54.9956C46.666 55.3179 46.29 55.5667 45.8531 55.7422C45.4199 55.9141 44.9347 56 44.3976 56ZM43.4737 48.1797V56H42.1256V48.1797H43.4737Z" fill="#283A5E"/>
<path fill-rule="evenodd" clip-rule="evenodd" d="M36.6591 9C42.6364 9 46.5455 12.4231 46.5455 17.3383C46.5455 20.2128 44.9318 22.6704 42.4545 23.6359C45.75 24.4917 48 27.1467 48 30.7454C48 35.8539 43.9526 39.6171 38.2359 39.7179L38 39.72H22.4C18.8654 39.72 16 36.9692 16 33.576V15.144C16 11.7508 18.8654 9 22.4 9H36.6591ZM30.7873 24.36H30.0127C28.8485 24.36 27.8522 25.1621 27.6494 26.2626L26.5662 32.1399C26.5581 32.1841 26.554 32.2289 26.554 32.2737C26.554 32.6979 26.9121 33.0417 27.354 33.0417H33.446C33.4928 33.0417 33.5394 33.0378 33.5854 33.03C34.0205 32.9561 34.3108 32.5576 34.2338 32.1399L33.1506 26.2626C32.9478 25.1621 31.9515 24.36 30.7873 24.36ZM30.4 15.144C28.1909 15.144 26.4 16.8632 26.4 18.984C26.4 21.1048 28.1909 22.824 30.4 22.824C32.6091 22.824 34.4 21.1048 34.4 18.984C34.4 16.8632 32.6091 15.144 30.4 15.144Z" fill="#FF4800"/>
</svg>
