<svg width="24" height="24" viewBox="0 0 24 24" fill="none" xmlns="http://www.w3.org/2000/svg">
<path fill-rule="evenodd" clip-rule="evenodd" d="M1.5 12C1.5 6.20101 6.20101 1.5 12 1.5C17.799 1.5 22.5 6.20101 22.5 12C22.5 17.799 17.799 22.5 12 22.5C6.20101 22.5 1.5 17.799 1.5 12ZM12 3.40909C7.25537 3.40909 3.40909 7.25537 3.40909 12C3.40909 16.7446 7.25537 20.5909 12 20.5909C16.7446 20.5909 20.5909 16.7446 20.5909 12C20.5909 7.25537 16.7446 3.40909 12 3.40909Z" fill="#38BDF8"/>
<path fill-rule="evenodd" clip-rule="evenodd" d="M16.5954 7.57583C16.1727 7.29544 15.5839 7.38249 15.2759 7.78307C15.1572 7.93744 13.7695 9.59859 12.405 11.2289C11.7242 12.0423 11.0509 12.8458 10.5479 13.4459L9.82426 14.3091L7.53913 12.7542C7.1325 12.4548 6.54232 12.5139 6.21336 12.8958C5.876 13.2876 5.94814 13.8603 6.36307 14.1686L9.42487 16.2914C9.62868 16.4417 9.88731 16.5065 10.141 16.4738C10.3945 16.4412 10.6265 16.3131 10.7806 16.1144L11.6871 15.0253C12.2339 14.3683 12.9655 13.4889 13.7046 12.5996C15.1803 10.8243 16.6934 9.00112 16.8183 8.83869C17.1333 8.42905 17.026 7.86153 16.5954 7.57583Z" fill="#38BDF8"/>
</svg>
