<svg width="350" height="198" viewBox="0 0 350 198" fill="none" xmlns="http://www.w3.org/2000/svg">
<path opacity="0.4" d="M173.549 194.118C188.768 194.118 201.105 190.641 201.105 186.353C201.105 182.065 188.768 178.588 173.549 178.588C158.331 178.588 145.994 182.065 145.994 186.353C145.994 190.641 158.331 194.118 173.549 194.118Z" fill="#E9EBEE"/>
<path fill-rule="evenodd" clip-rule="evenodd" d="M174.517 137.892C175.547 137.892 176.383 138.73 176.383 139.765V162.983L192.881 183.226C193.533 184.026 193.416 185.207 192.618 185.862C191.82 186.517 190.645 186.399 189.992 185.598L176.383 168.9V189.265C176.383 190.299 175.547 191.138 174.517 191.138C173.486 191.138 172.65 190.299 172.65 189.265V167.532L157.075 185.636C156.402 186.419 155.223 186.506 154.443 185.83C153.663 185.153 153.577 183.971 154.251 183.188L172.597 161.862C172.615 161.841 172.632 161.821 172.65 161.801V139.765C172.65 138.73 173.486 137.892 174.517 137.892Z" fill="#E9EBEE"/>
<path opacity="0.4" d="M290.83 89.2942H231.66C215.341 89.2651 202.114 75.9903 202.072 59.5961V29.9058C202.025 13.4407 215.27 0.0533824 231.66 0H350V29.9058C349.983 62.7175 323.493 89.3058 290.83 89.2942ZM123.757 102.882V133.941H61.8785C27.6906 133.92 -0.0106323 106.112 3.06141e-06 71.8236H92.8206C96.8868 71.8171 100.914 72.6162 104.672 74.1752C108.43 75.7341 111.845 78.0222 114.721 80.9083C117.595 83.7929 119.872 87.2191 121.423 90.9902C122.974 94.7612 123.767 98.8027 123.757 102.882Z" fill="#E9EBEE"/>
<g opacity="0.1">
<path d="M241.176 9.02516C241.71 9.02516 242.143 8.59061 242.143 8.05457C242.143 7.51853 241.71 7.08398 241.176 7.08398C240.642 7.08398 240.209 7.51853 240.209 8.05457C240.209 8.59061 240.642 9.02516 241.176 9.02516Z" fill="#FB043D"/>
<path d="M250.242 9.02528C250.776 9.02528 251.209 8.59074 251.209 8.0547C251.209 7.51865 250.776 7.08411 250.242 7.08411C249.708 7.08411 249.275 7.51865 249.275 8.0547C249.275 8.59074 249.708 9.02528 250.242 9.02528Z" fill="#FB043D"/>
<path d="M259.307 9.02528C259.841 9.02528 260.274 8.59074 260.274 8.0547C260.274 7.51865 259.841 7.08411 259.307 7.08411C258.773 7.08411 258.34 7.51865 258.34 8.0547C258.34 8.59074 258.773 9.02528 259.307 9.02528Z" fill="#FB043D"/>
<path d="M268.365 9.02528C268.899 9.02528 269.332 8.59074 269.332 8.0547C269.332 7.51865 268.899 7.08411 268.365 7.08411C267.831 7.08411 267.398 7.51865 267.398 8.0547C267.398 8.59074 267.831 9.02528 268.365 9.02528Z" fill="#FB043D"/>
<path d="M277.43 9.02528C277.964 9.02528 278.397 8.59074 278.397 8.0547C278.397 7.51865 277.964 7.08411 277.43 7.08411C276.896 7.08411 276.463 7.51865 276.463 8.0547C276.463 8.59074 276.896 9.02528 277.43 9.02528Z" fill="#FB043D"/>
<path d="M286.494 9.02528C287.028 9.02528 287.461 8.59074 287.461 8.0547C287.461 7.51865 287.028 7.08411 286.494 7.08411C285.96 7.08411 285.527 7.51865 285.527 8.0547C285.527 8.59074 285.96 9.02528 286.494 9.02528Z" fill="#FB043D"/>
<path d="M295.559 9.02528C296.093 9.02528 296.525 8.59074 296.525 8.0547C296.525 7.51865 296.093 7.08411 295.559 7.08411C295.025 7.08411 294.592 7.51865 294.592 8.0547C294.592 8.59074 295.025 9.02528 295.559 9.02528Z" fill="#FB043D"/>
<path d="M304.625 9.02528C305.159 9.02528 305.592 8.59074 305.592 8.0547C305.592 7.51865 305.159 7.08411 304.625 7.08411C304.091 7.08411 303.658 7.51865 303.658 8.0547C303.658 8.59074 304.091 9.02528 304.625 9.02528Z" fill="#FB043D"/>
<path d="M313.691 9.02528C314.225 9.02528 314.658 8.59074 314.658 8.0547C314.658 7.51865 314.225 7.08411 313.691 7.08411C313.157 7.08411 312.725 7.51865 312.725 8.0547C312.725 8.59074 313.157 9.02528 313.691 9.02528Z" fill="#FB043D"/>
<path d="M322.756 9.02528C323.29 9.02528 323.723 8.59074 323.723 8.0547C323.723 7.51865 323.29 7.08411 322.756 7.08411C322.222 7.08411 321.789 7.51865 321.789 8.0547C321.789 8.59074 322.222 9.02528 322.756 9.02528Z" fill="#FB043D"/>
<path d="M241.176 16.1474C241.71 16.1474 242.143 15.7128 242.143 15.1768C242.143 14.6407 241.71 14.2062 241.176 14.2062C240.642 14.2062 240.209 14.6407 240.209 15.1768C240.209 15.7128 240.642 16.1474 241.176 16.1474Z" fill="#FB043D"/>
<path d="M250.242 16.1474C250.776 16.1474 251.209 15.7128 251.209 15.1768C251.209 14.6407 250.776 14.2062 250.242 14.2062C249.708 14.2062 249.275 14.6407 249.275 15.1768C249.275 15.7128 249.708 16.1474 250.242 16.1474Z" fill="#FB043D"/>
<path d="M259.307 16.1474C259.841 16.1474 260.274 15.7128 260.274 15.1768C260.274 14.6407 259.841 14.2062 259.307 14.2062C258.773 14.2062 258.34 14.6407 258.34 15.1768C258.34 15.7128 258.773 16.1474 259.307 16.1474Z" fill="#FB043D"/>
<path d="M268.365 16.1474C268.899 16.1474 269.332 15.7128 269.332 15.1768C269.332 14.6407 268.899 14.2062 268.365 14.2062C267.831 14.2062 267.398 14.6407 267.398 15.1768C267.398 15.7128 267.831 16.1474 268.365 16.1474Z" fill="#FB043D"/>
<path d="M277.43 16.1474C277.964 16.1474 278.397 15.7128 278.397 15.1768C278.397 14.6407 277.964 14.2062 277.43 14.2062C276.896 14.2062 276.463 14.6407 276.463 15.1768C276.463 15.7128 276.896 16.1474 277.43 16.1474Z" fill="#FB043D"/>
<path d="M286.494 16.1474C287.028 16.1474 287.461 15.7128 287.461 15.1768C287.461 14.6407 287.028 14.2062 286.494 14.2062C285.96 14.2062 285.527 14.6407 285.527 15.1768C285.527 15.7128 285.96 16.1474 286.494 16.1474Z" fill="#FB043D"/>
<path d="M295.559 16.1474C296.093 16.1474 296.525 15.7128 296.525 15.1768C296.525 14.6407 296.093 14.2062 295.559 14.2062C295.025 14.2062 294.592 14.6407 294.592 15.1768C294.592 15.7128 295.025 16.1474 295.559 16.1474Z" fill="#FB043D"/>
<path d="M304.625 16.1474C305.159 16.1474 305.592 15.7128 305.592 15.1768C305.592 14.6407 305.159 14.2062 304.625 14.2062C304.091 14.2062 303.658 14.6407 303.658 15.1768C303.658 15.7128 304.091 16.1474 304.625 16.1474Z" fill="#FB043D"/>
<path d="M313.691 16.1474C314.225 16.1474 314.658 15.7128 314.658 15.1768C314.658 14.6407 314.225 14.2062 313.691 14.2062C313.157 14.2062 312.725 14.6407 312.725 15.1768C312.725 15.7128 313.157 16.1474 313.691 16.1474Z" fill="#FB043D"/>
<path d="M322.756 16.1474C323.29 16.1474 323.723 15.7128 323.723 15.1768C323.723 14.6407 323.29 14.2062 322.756 14.2062C322.222 14.2062 321.789 14.6407 321.789 15.1768C321.789 15.7128 322.222 16.1474 322.756 16.1474Z" fill="#FB043D"/>
<path d="M241.176 23.2697C241.71 23.2697 242.143 22.8351 242.143 22.2991C242.143 21.763 241.71 21.3285 241.176 21.3285C240.642 21.3285 240.209 21.763 240.209 22.2991C240.209 22.8351 240.642 23.2697 241.176 23.2697Z" fill="#FB043D"/>
<path d="M250.242 23.2697C250.776 23.2697 251.209 22.8351 251.209 22.2991C251.209 21.763 250.776 21.3285 250.242 21.3285C249.708 21.3285 249.275 21.763 249.275 22.2991C249.275 22.8351 249.708 23.2697 250.242 23.2697Z" fill="#FB043D"/>
<path d="M259.307 23.2697C259.841 23.2697 260.274 22.8351 260.274 22.2991C260.274 21.763 259.841 21.3285 259.307 21.3285C258.773 21.3285 258.34 21.763 258.34 22.2991C258.34 22.8351 258.773 23.2697 259.307 23.2697Z" fill="#FB043D"/>
<path d="M268.365 23.2697C268.899 23.2697 269.332 22.8351 269.332 22.2991C269.332 21.763 268.899 21.3285 268.365 21.3285C267.831 21.3285 267.398 21.763 267.398 22.2991C267.398 22.8351 267.831 23.2697 268.365 23.2697Z" fill="#FB043D"/>
<path d="M277.43 23.2697C277.964 23.2697 278.397 22.8351 278.397 22.2991C278.397 21.763 277.964 21.3285 277.43 21.3285C276.896 21.3285 276.463 21.763 276.463 22.2991C276.463 22.8351 276.896 23.2697 277.43 23.2697Z" fill="#FB043D"/>
<path d="M286.494 23.2697C287.028 23.2697 287.461 22.8351 287.461 22.2991C287.461 21.763 287.028 21.3285 286.494 21.3285C285.96 21.3285 285.527 21.763 285.527 22.2991C285.527 22.8351 285.96 23.2697 286.494 23.2697Z" fill="#FB043D"/>
<path d="M295.559 23.2697C296.093 23.2697 296.525 22.8351 296.525 22.2991C296.525 21.763 296.093 21.3285 295.559 21.3285C295.025 21.3285 294.592 21.763 294.592 22.2991C294.592 22.8351 295.025 23.2697 295.559 23.2697Z" fill="#FB043D"/>
<path d="M304.625 23.2697C305.159 23.2697 305.592 22.8351 305.592 22.2991C305.592 21.763 305.159 21.3285 304.625 21.3285C304.091 21.3285 303.658 21.763 303.658 22.2991C303.658 22.8351 304.091 23.2697 304.625 23.2697Z" fill="#FB043D"/>
<path d="M313.691 23.2697C314.225 23.2697 314.658 22.8351 314.658 22.2991C314.658 21.763 314.225 21.3285 313.691 21.3285C313.157 21.3285 312.725 21.763 312.725 22.2991C312.725 22.8351 313.157 23.2697 313.691 23.2697Z" fill="#FB043D"/>
<path d="M322.756 23.2697C323.29 23.2697 323.723 22.8351 323.723 22.2991C323.723 21.763 323.29 21.3285 322.756 21.3285C322.222 21.3285 321.789 21.763 321.789 22.2991C321.789 22.8351 322.222 23.2697 322.756 23.2697Z" fill="#FB043D"/>
<path d="M241.176 30.3919C241.71 30.3919 242.143 29.9573 242.143 29.4213C242.143 28.8852 241.71 28.4507 241.176 28.4507C240.642 28.4507 240.209 28.8852 240.209 29.4213C240.209 29.9573 240.642 30.3919 241.176 30.3919Z" fill="#FB043D"/>
<path d="M250.242 30.3919C250.776 30.3919 251.209 29.9573 251.209 29.4213C251.209 28.8852 250.776 28.4507 250.242 28.4507C249.708 28.4507 249.275 28.8852 249.275 29.4213C249.275 29.9573 249.708 30.3919 250.242 30.3919Z" fill="#FB043D"/>
<path d="M259.307 30.3919C259.841 30.3919 260.274 29.9573 260.274 29.4213C260.274 28.8852 259.841 28.4507 259.307 28.4507C258.773 28.4507 258.34 28.8852 258.34 29.4213C258.34 29.9573 258.773 30.3919 259.307 30.3919Z" fill="#FB043D"/>
<path d="M268.365 30.3919C268.899 30.3919 269.332 29.9573 269.332 29.4213C269.332 28.8852 268.899 28.4507 268.365 28.4507C267.831 28.4507 267.398 28.8852 267.398 29.4213C267.398 29.9573 267.831 30.3919 268.365 30.3919Z" fill="#FB043D"/>
<path d="M277.43 30.3919C277.964 30.3919 278.397 29.9573 278.397 29.4213C278.397 28.8852 277.964 28.4507 277.43 28.4507C276.896 28.4507 276.463 28.8852 276.463 29.4213C276.463 29.9573 276.896 30.3919 277.43 30.3919Z" fill="#FB043D"/>
<path d="M286.494 30.3919C287.028 30.3919 287.461 29.9573 287.461 29.4213C287.461 28.8852 287.028 28.4507 286.494 28.4507C285.96 28.4507 285.527 28.8852 285.527 29.4213C285.527 29.9573 285.96 30.3919 286.494 30.3919Z" fill="#FB043D"/>
<path d="M295.559 30.3919C296.093 30.3919 296.525 29.9573 296.525 29.4213C296.525 28.8852 296.093 28.4507 295.559 28.4507C295.025 28.4507 294.592 28.8852 294.592 29.4213C294.592 29.9573 295.025 30.3919 295.559 30.3919Z" fill="#FB043D"/>
<path d="M304.625 30.3919C305.159 30.3919 305.592 29.9573 305.592 29.4213C305.592 28.8852 305.159 28.4507 304.625 28.4507C304.091 28.4507 303.658 28.8852 303.658 29.4213C303.658 29.9573 304.091 30.3919 304.625 30.3919Z" fill="#FB043D"/>
<path d="M313.691 30.3919C314.225 30.3919 314.658 29.9573 314.658 29.4213C314.658 28.8852 314.225 28.4507 313.691 28.4507C313.157 28.4507 312.725 28.8852 312.725 29.4213C312.725 29.9573 313.157 30.3919 313.691 30.3919Z" fill="#FB043D"/>
<path d="M322.756 30.3919C323.29 30.3919 323.723 29.9573 323.723 29.4213C323.723 28.8852 323.29 28.4507 322.756 28.4507C322.222 28.4507 321.789 28.8852 321.789 29.4213C321.789 29.9573 322.222 30.3919 322.756 30.3919Z" fill="#FB043D"/>
<path d="M241.176 37.5139C241.71 37.5139 242.143 37.0794 242.143 36.5433C242.143 36.0073 241.71 35.5728 241.176 35.5728C240.642 35.5728 240.209 36.0073 240.209 36.5433C240.209 37.0794 240.642 37.5139 241.176 37.5139Z" fill="#FB043D"/>
<path d="M250.242 37.5139C250.776 37.5139 251.209 37.0794 251.209 36.5433C251.209 36.0073 250.776 35.5728 250.242 35.5728C249.708 35.5728 249.275 36.0073 249.275 36.5433C249.275 37.0794 249.708 37.5139 250.242 37.5139Z" fill="#FB043D"/>
<path d="M259.307 37.5139C259.841 37.5139 260.274 37.0794 260.274 36.5433C260.274 36.0073 259.841 35.5728 259.307 35.5728C258.773 35.5728 258.34 36.0073 258.34 36.5433C258.34 37.0794 258.773 37.5139 259.307 37.5139Z" fill="#FB043D"/>
<path d="M268.365 37.5139C268.899 37.5139 269.332 37.0794 269.332 36.5433C269.332 36.0073 268.899 35.5728 268.365 35.5728C267.831 35.5728 267.398 36.0073 267.398 36.5433C267.398 37.0794 267.831 37.5139 268.365 37.5139Z" fill="#FB043D"/>
<path d="M277.43 37.5139C277.964 37.5139 278.397 37.0794 278.397 36.5433C278.397 36.0073 277.964 35.5728 277.43 35.5728C276.896 35.5728 276.463 36.0073 276.463 36.5433C276.463 37.0794 276.896 37.5139 277.43 37.5139Z" fill="#FB043D"/>
<path d="M286.494 37.5139C287.028 37.5139 287.461 37.0794 287.461 36.5433C287.461 36.0073 287.028 35.5728 286.494 35.5728C285.96 35.5728 285.527 36.0073 285.527 36.5433C285.527 37.0794 285.96 37.5139 286.494 37.5139Z" fill="#FB043D"/>
<path d="M295.559 37.5139C296.093 37.5139 296.525 37.0794 296.525 36.5433C296.525 36.0073 296.093 35.5728 295.559 35.5728C295.025 35.5728 294.592 36.0073 294.592 36.5433C294.592 37.0794 295.025 37.5139 295.559 37.5139Z" fill="#FB043D"/>
<path d="M304.625 37.5139C305.159 37.5139 305.592 37.0794 305.592 36.5433C305.592 36.0073 305.159 35.5728 304.625 35.5728C304.091 35.5728 303.658 36.0073 303.658 36.5433C303.658 37.0794 304.091 37.5139 304.625 37.5139Z" fill="#FB043D"/>
<path d="M313.691 37.5139C314.225 37.5139 314.658 37.0794 314.658 36.5433C314.658 36.0073 314.225 35.5728 313.691 35.5728C313.157 35.5728 312.725 36.0073 312.725 36.5433C312.725 37.0794 313.157 37.5139 313.691 37.5139Z" fill="#FB043D"/>
<path d="M322.756 37.5139C323.29 37.5139 323.723 37.0794 323.723 36.5433C323.723 36.0073 323.29 35.5728 322.756 35.5728C322.222 35.5728 321.789 36.0073 321.789 36.5433C321.789 37.0794 322.222 37.5139 322.756 37.5139Z" fill="#FB043D"/>
<path d="M241.176 44.6361C241.71 44.6361 242.143 44.2016 242.143 43.6655C242.143 43.1295 241.71 42.6949 241.176 42.6949C240.642 42.6949 240.209 43.1295 240.209 43.6655C240.209 44.2016 240.642 44.6361 241.176 44.6361Z" fill="#FB043D"/>
<path d="M250.242 44.6361C250.776 44.6361 251.209 44.2016 251.209 43.6655C251.209 43.1295 250.776 42.6949 250.242 42.6949C249.708 42.6949 249.275 43.1295 249.275 43.6655C249.275 44.2016 249.708 44.6361 250.242 44.6361Z" fill="#FB043D"/>
<path d="M259.307 44.6361C259.841 44.6361 260.274 44.2016 260.274 43.6655C260.274 43.1295 259.841 42.6949 259.307 42.6949C258.773 42.6949 258.34 43.1295 258.34 43.6655C258.34 44.2016 258.773 44.6361 259.307 44.6361Z" fill="#FB043D"/>
<path d="M268.365 44.6361C268.899 44.6361 269.332 44.2016 269.332 43.6655C269.332 43.1295 268.899 42.6949 268.365 42.6949C267.831 42.6949 267.398 43.1295 267.398 43.6655C267.398 44.2016 267.831 44.6361 268.365 44.6361Z" fill="#FB043D"/>
<path d="M277.43 44.6361C277.964 44.6361 278.397 44.2016 278.397 43.6655C278.397 43.1295 277.964 42.6949 277.43 42.6949C276.896 42.6949 276.463 43.1295 276.463 43.6655C276.463 44.2016 276.896 44.6361 277.43 44.6361Z" fill="#FB043D"/>
<path d="M286.494 44.6361C287.028 44.6361 287.461 44.2016 287.461 43.6655C287.461 43.1295 287.028 42.6949 286.494 42.6949C285.96 42.6949 285.527 43.1295 285.527 43.6655C285.527 44.2016 285.96 44.6361 286.494 44.6361Z" fill="#FB043D"/>
<path d="M295.559 44.6361C296.093 44.6361 296.525 44.2016 296.525 43.6655C296.525 43.1295 296.093 42.6949 295.559 42.6949C295.025 42.6949 294.592 43.1295 294.592 43.6655C294.592 44.2016 295.025 44.6361 295.559 44.6361Z" fill="#FB043D"/>
<path d="M304.625 44.6361C305.159 44.6361 305.592 44.2016 305.592 43.6655C305.592 43.1295 305.159 42.6949 304.625 42.6949C304.091 42.6949 303.658 43.1295 303.658 43.6655C303.658 44.2016 304.091 44.6361 304.625 44.6361Z" fill="#FB043D"/>
<path d="M313.691 44.6361C314.225 44.6361 314.658 44.2016 314.658 43.6655C314.658 43.1295 314.225 42.6949 313.691 42.6949C313.157 42.6949 312.725 43.1295 312.725 43.6655C312.725 44.2016 313.157 44.6361 313.691 44.6361Z" fill="#FB043D"/>
<path d="M322.756 44.6361C323.29 44.6361 323.723 44.2016 323.723 43.6655C323.723 43.1295 323.29 42.6949 322.756 42.6949C322.222 42.6949 321.789 43.1295 321.789 43.6655C321.789 44.2016 322.222 44.6361 322.756 44.6361Z" fill="#FB043D"/>
<path d="M241.176 51.7654C241.71 51.7654 242.143 51.3308 242.143 50.7948C242.143 50.2588 241.71 49.8242 241.176 49.8242C240.642 49.8242 240.209 50.2588 240.209 50.7948C240.209 51.3308 240.642 51.7654 241.176 51.7654Z" fill="#FB043D"/>
<path d="M250.242 51.7654C250.776 51.7654 251.209 51.3308 251.209 50.7948C251.209 50.2588 250.776 49.8242 250.242 49.8242C249.708 49.8242 249.275 50.2588 249.275 50.7948C249.275 51.3308 249.708 51.7654 250.242 51.7654Z" fill="#FB043D"/>
<path d="M259.307 51.7654C259.841 51.7654 260.274 51.3308 260.274 50.7948C260.274 50.2588 259.841 49.8242 259.307 49.8242C258.773 49.8242 258.34 50.2588 258.34 50.7948C258.34 51.3308 258.773 51.7654 259.307 51.7654Z" fill="#FB043D"/>
<path d="M268.365 51.7654C268.899 51.7654 269.332 51.3308 269.332 50.7948C269.332 50.2588 268.899 49.8242 268.365 49.8242C267.831 49.8242 267.398 50.2588 267.398 50.7948C267.398 51.3308 267.831 51.7654 268.365 51.7654Z" fill="#FB043D"/>
<path d="M277.43 51.7654C277.964 51.7654 278.397 51.3308 278.397 50.7948C278.397 50.2588 277.964 49.8242 277.43 49.8242C276.896 49.8242 276.463 50.2588 276.463 50.7948C276.463 51.3308 276.896 51.7654 277.43 51.7654Z" fill="#FB043D"/>
<path d="M286.494 51.7654C287.028 51.7654 287.461 51.3308 287.461 50.7948C287.461 50.2588 287.028 49.8242 286.494 49.8242C285.96 49.8242 285.527 50.2588 285.527 50.7948C285.527 51.3308 285.96 51.7654 286.494 51.7654Z" fill="#FB043D"/>
<path d="M295.559 51.7654C296.093 51.7654 296.525 51.3308 296.525 50.7948C296.525 50.2588 296.093 49.8242 295.559 49.8242C295.025 49.8242 294.592 50.2588 294.592 50.7948C294.592 51.3308 295.025 51.7654 295.559 51.7654Z" fill="#FB043D"/>
<path d="M304.625 51.7654C305.159 51.7654 305.592 51.3308 305.592 50.7948C305.592 50.2588 305.159 49.8242 304.625 49.8242C304.091 49.8242 303.658 50.2588 303.658 50.7948C303.658 51.3308 304.091 51.7654 304.625 51.7654Z" fill="#FB043D"/>
<path d="M313.691 51.7654C314.225 51.7654 314.658 51.3308 314.658 50.7948C314.658 50.2588 314.225 49.8242 313.691 49.8242C313.157 49.8242 312.725 50.2588 312.725 50.7948C312.725 51.3308 313.157 51.7654 313.691 51.7654Z" fill="#FB043D"/>
<path d="M322.756 51.7654C323.29 51.7654 323.723 51.3308 323.723 50.7948C323.723 50.2588 323.29 49.8242 322.756 49.8242C322.222 49.8242 321.789 50.2588 321.789 50.7948C321.789 51.3308 322.222 51.7654 322.756 51.7654Z" fill="#FB043D"/>
<path d="M241.176 58.8875C241.71 58.8875 242.143 58.4529 242.143 57.9169C242.143 57.3808 241.71 56.9463 241.176 56.9463C240.642 56.9463 240.209 57.3808 240.209 57.9169C240.209 58.4529 240.642 58.8875 241.176 58.8875Z" fill="#FB043D"/>
<path d="M250.242 58.8875C250.776 58.8875 251.209 58.4529 251.209 57.9169C251.209 57.3808 250.776 56.9463 250.242 56.9463C249.708 56.9463 249.275 57.3808 249.275 57.9169C249.275 58.4529 249.708 58.8875 250.242 58.8875Z" fill="#FB043D"/>
<path d="M259.307 58.8875C259.841 58.8875 260.274 58.4529 260.274 57.9169C260.274 57.3808 259.841 56.9463 259.307 56.9463C258.773 56.9463 258.34 57.3808 258.34 57.9169C258.34 58.4529 258.773 58.8875 259.307 58.8875Z" fill="#FB043D"/>
<path d="M268.365 58.8875C268.899 58.8875 269.332 58.4529 269.332 57.9169C269.332 57.3808 268.899 56.9463 268.365 56.9463C267.831 56.9463 267.398 57.3808 267.398 57.9169C267.398 58.4529 267.831 58.8875 268.365 58.8875Z" fill="#FB043D"/>
<path d="M277.43 58.8875C277.964 58.8875 278.397 58.4529 278.397 57.9169C278.397 57.3808 277.964 56.9463 277.43 56.9463C276.896 56.9463 276.463 57.3808 276.463 57.9169C276.463 58.4529 276.896 58.8875 277.43 58.8875Z" fill="#FB043D"/>
<path d="M286.494 58.8875C287.028 58.8875 287.461 58.4529 287.461 57.9169C287.461 57.3808 287.028 56.9463 286.494 56.9463C285.96 56.9463 285.527 57.3808 285.527 57.9169C285.527 58.4529 285.96 58.8875 286.494 58.8875Z" fill="#FB043D"/>
<path d="M295.559 58.8875C296.093 58.8875 296.525 58.4529 296.525 57.9169C296.525 57.3808 296.093 56.9463 295.559 56.9463C295.025 56.9463 294.592 57.3808 294.592 57.9169C294.592 58.4529 295.025 58.8875 295.559 58.8875Z" fill="#FB043D"/>
<path d="M304.625 58.8875C305.159 58.8875 305.592 58.4529 305.592 57.9169C305.592 57.3808 305.159 56.9463 304.625 56.9463C304.091 56.9463 303.658 57.3808 303.658 57.9169C303.658 58.4529 304.091 58.8875 304.625 58.8875Z" fill="#FB043D"/>
<path d="M313.691 58.8875C314.225 58.8875 314.658 58.4529 314.658 57.9169C314.658 57.3808 314.225 56.9463 313.691 56.9463C313.157 56.9463 312.725 57.3808 312.725 57.9169C312.725 58.4529 313.157 58.8875 313.691 58.8875Z" fill="#FB043D"/>
<path d="M322.756 58.8875C323.29 58.8875 323.723 58.4529 323.723 57.9169C323.723 57.3808 323.29 56.9463 322.756 56.9463C322.222 56.9463 321.789 57.3808 321.789 57.9169C321.789 58.4529 322.222 58.8875 322.756 58.8875Z" fill="#FB043D"/>
<path d="M241.176 66.0097C241.71 66.0097 242.143 65.5751 242.143 65.0391C242.143 64.503 241.71 64.0685 241.176 64.0685C240.642 64.0685 240.209 64.503 240.209 65.0391C240.209 65.5751 240.642 66.0097 241.176 66.0097Z" fill="#FB043D"/>
<path d="M250.242 66.0097C250.776 66.0097 251.209 65.5751 251.209 65.0391C251.209 64.503 250.776 64.0685 250.242 64.0685C249.708 64.0685 249.275 64.503 249.275 65.0391C249.275 65.5751 249.708 66.0097 250.242 66.0097Z" fill="#FB043D"/>
<path d="M259.307 66.0097C259.841 66.0097 260.274 65.5751 260.274 65.0391C260.274 64.503 259.841 64.0685 259.307 64.0685C258.773 64.0685 258.34 64.503 258.34 65.0391C258.34 65.5751 258.773 66.0097 259.307 66.0097Z" fill="#FB043D"/>
<path d="M268.365 66.0097C268.899 66.0097 269.332 65.5751 269.332 65.0391C269.332 64.503 268.899 64.0685 268.365 64.0685C267.831 64.0685 267.398 64.503 267.398 65.0391C267.398 65.5751 267.831 66.0097 268.365 66.0097Z" fill="#FB043D"/>
<path d="M277.43 66.0097C277.964 66.0097 278.397 65.5751 278.397 65.0391C278.397 64.503 277.964 64.0685 277.43 64.0685C276.896 64.0685 276.463 64.503 276.463 65.0391C276.463 65.5751 276.896 66.0097 277.43 66.0097Z" fill="#FB043D"/>
<path d="M286.494 66.0097C287.028 66.0097 287.461 65.5751 287.461 65.0391C287.461 64.503 287.028 64.0685 286.494 64.0685C285.96 64.0685 285.527 64.503 285.527 65.0391C285.527 65.5751 285.96 66.0097 286.494 66.0097Z" fill="#FB043D"/>
<path d="M295.559 66.0097C296.093 66.0097 296.525 65.5751 296.525 65.0391C296.525 64.503 296.093 64.0685 295.559 64.0685C295.025 64.0685 294.592 64.503 294.592 65.0391C294.592 65.5751 295.025 66.0097 295.559 66.0097Z" fill="#FB043D"/>
<path d="M304.625 66.0097C305.159 66.0097 305.592 65.5751 305.592 65.0391C305.592 64.503 305.159 64.0685 304.625 64.0685C304.091 64.0685 303.658 64.503 303.658 65.0391C303.658 65.5751 304.091 66.0097 304.625 66.0097Z" fill="#FB043D"/>
<path d="M313.691 66.0097C314.225 66.0097 314.658 65.5751 314.658 65.0391C314.658 64.503 314.225 64.0685 313.691 64.0685C313.157 64.0685 312.725 64.503 312.725 65.0391C312.725 65.5751 313.157 66.0097 313.691 66.0097Z" fill="#FB043D"/>
<path d="M322.756 66.0097C323.29 66.0097 323.723 65.5751 323.723 65.0391C323.723 64.503 323.29 64.0685 322.756 64.0685C322.222 64.0685 321.789 64.503 321.789 65.0391C321.789 65.5751 322.222 66.0097 322.756 66.0097Z" fill="#FB043D"/>
<path d="M241.176 73.1316C241.71 73.1316 242.143 72.6971 242.143 72.161C242.143 71.625 241.71 71.1904 241.176 71.1904C240.642 71.1904 240.209 71.625 240.209 72.161C240.209 72.6971 240.642 73.1316 241.176 73.1316Z" fill="#FB043D"/>
<path d="M250.242 73.1316C250.776 73.1316 251.209 72.6971 251.209 72.161C251.209 71.625 250.776 71.1904 250.242 71.1904C249.708 71.1904 249.275 71.625 249.275 72.161C249.275 72.6971 249.708 73.1316 250.242 73.1316Z" fill="#FB043D"/>
<path d="M259.307 73.1316C259.841 73.1316 260.274 72.6971 260.274 72.161C260.274 71.625 259.841 71.1904 259.307 71.1904C258.773 71.1904 258.34 71.625 258.34 72.161C258.34 72.6971 258.773 73.1316 259.307 73.1316Z" fill="#FB043D"/>
<path d="M268.365 73.1316C268.899 73.1316 269.332 72.6971 269.332 72.161C269.332 71.625 268.899 71.1904 268.365 71.1904C267.831 71.1904 267.398 71.625 267.398 72.161C267.398 72.6971 267.831 73.1316 268.365 73.1316Z" fill="#FB043D"/>
<path d="M277.43 73.1316C277.964 73.1316 278.397 72.6971 278.397 72.161C278.397 71.625 277.964 71.1904 277.43 71.1904C276.896 71.1904 276.463 71.625 276.463 72.161C276.463 72.6971 276.896 73.1316 277.43 73.1316Z" fill="#FB043D"/>
<path d="M286.494 73.1316C287.028 73.1316 287.461 72.6971 287.461 72.161C287.461 71.625 287.028 71.1904 286.494 71.1904C285.96 71.1904 285.527 71.625 285.527 72.161C285.527 72.6971 285.96 73.1316 286.494 73.1316Z" fill="#FB043D"/>
<path d="M295.559 73.1316C296.093 73.1316 296.525 72.6971 296.525 72.161C296.525 71.625 296.093 71.1904 295.559 71.1904C295.025 71.1904 294.592 71.625 294.592 72.161C294.592 72.6971 295.025 73.1316 295.559 73.1316Z" fill="#FB043D"/>
<path d="M304.625 73.1316C305.159 73.1316 305.592 72.6971 305.592 72.161C305.592 71.625 305.159 71.1904 304.625 71.1904C304.091 71.1904 303.658 71.625 303.658 72.161C303.658 72.6971 304.091 73.1316 304.625 73.1316Z" fill="#FB043D"/>
<path d="M313.691 73.1316C314.225 73.1316 314.658 72.6971 314.658 72.161C314.658 71.625 314.225 71.1904 313.691 71.1904C313.157 71.1904 312.725 71.625 312.725 72.161C312.725 72.6971 313.157 73.1316 313.691 73.1316Z" fill="#FB043D"/>
<path d="M322.756 73.1316C323.29 73.1316 323.723 72.6971 323.723 72.161C323.723 71.625 323.29 71.1904 322.756 71.1904C322.222 71.1904 321.789 71.625 321.789 72.161C321.789 72.6971 322.222 73.1316 322.756 73.1316Z" fill="#FB043D"/>
<path d="M241.176 80.2537C241.71 80.2537 242.143 79.8191 242.143 79.2831C242.143 78.747 241.71 78.3125 241.176 78.3125C240.642 78.3125 240.209 78.747 240.209 79.2831C240.209 79.8191 240.642 80.2537 241.176 80.2537Z" fill="#FB043D"/>
<path d="M250.242 80.2537C250.776 80.2537 251.209 79.8191 251.209 79.2831C251.209 78.747 250.776 78.3125 250.242 78.3125C249.708 78.3125 249.275 78.747 249.275 79.2831C249.275 79.8191 249.708 80.2537 250.242 80.2537Z" fill="#FB043D"/>
<path d="M259.307 80.2537C259.841 80.2537 260.274 79.8191 260.274 79.2831C260.274 78.747 259.841 78.3125 259.307 78.3125C258.773 78.3125 258.34 78.747 258.34 79.2831C258.34 79.8191 258.773 80.2537 259.307 80.2537Z" fill="#FB043D"/>
<path d="M268.365 80.2537C268.899 80.2537 269.332 79.8191 269.332 79.2831C269.332 78.747 268.899 78.3125 268.365 78.3125C267.831 78.3125 267.398 78.747 267.398 79.2831C267.398 79.8191 267.831 80.2537 268.365 80.2537Z" fill="#FB043D"/>
<path d="M277.43 80.2537C277.964 80.2537 278.397 79.8191 278.397 79.2831C278.397 78.747 277.964 78.3125 277.43 78.3125C276.896 78.3125 276.463 78.747 276.463 79.2831C276.463 79.8191 276.896 80.2537 277.43 80.2537Z" fill="#FB043D"/>
<path d="M286.494 80.2537C287.028 80.2537 287.461 79.8191 287.461 79.2831C287.461 78.747 287.028 78.3125 286.494 78.3125C285.96 78.3125 285.527 78.747 285.527 79.2831C285.527 79.8191 285.96 80.2537 286.494 80.2537Z" fill="#FB043D"/>
<path d="M295.559 80.2537C296.093 80.2537 296.525 79.8191 296.525 79.2831C296.525 78.747 296.093 78.3125 295.559 78.3125C295.025 78.3125 294.592 78.747 294.592 79.2831C294.592 79.8191 295.025 80.2537 295.559 80.2537Z" fill="#FB043D"/>
<path d="M304.625 80.2537C305.159 80.2537 305.592 79.8191 305.592 79.2831C305.592 78.747 305.159 78.3125 304.625 78.3125C304.091 78.3125 303.658 78.747 303.658 79.2831C303.658 79.8191 304.091 80.2537 304.625 80.2537Z" fill="#FB043D"/>
<path d="M313.691 80.2537C314.225 80.2537 314.658 79.8191 314.658 79.2831C314.658 78.747 314.225 78.3125 313.691 78.3125C313.157 78.3125 312.725 78.747 312.725 79.2831C312.725 79.8191 313.157 80.2537 313.691 80.2537Z" fill="#FB043D"/>
<path d="M322.756 80.2537C323.29 80.2537 323.723 79.8191 323.723 79.2831C323.723 78.747 323.29 78.3125 322.756 78.3125C322.222 78.3125 321.789 78.747 321.789 79.2831C321.789 79.8191 322.222 80.2537 322.756 80.2537Z" fill="#FB043D"/>
<path d="M241.176 86.8432C241.71 86.8432 242.143 86.4086 242.143 85.8726C242.143 85.3365 241.71 84.902 241.176 84.902C240.642 84.902 240.209 85.3365 240.209 85.8726C240.209 86.4086 240.642 86.8432 241.176 86.8432Z" fill="#FB043D"/>
<path d="M250.242 86.8432C250.776 86.8432 251.209 86.4086 251.209 85.8726C251.209 85.3365 250.776 84.902 250.242 84.902C249.708 84.902 249.275 85.3365 249.275 85.8726C249.275 86.4086 249.708 86.8432 250.242 86.8432Z" fill="#FB043D"/>
<path d="M259.307 86.8432C259.841 86.8432 260.274 86.4086 260.274 85.8726C260.274 85.3365 259.841 84.902 259.307 84.902C258.773 84.902 258.34 85.3365 258.34 85.8726C258.34 86.4086 258.773 86.8432 259.307 86.8432Z" fill="#FB043D"/>
<path d="M268.365 86.8432C268.899 86.8432 269.332 86.4086 269.332 85.8726C269.332 85.3365 268.899 84.902 268.365 84.902C267.831 84.902 267.398 85.3365 267.398 85.8726C267.398 86.4086 267.831 86.8432 268.365 86.8432Z" fill="#FB043D"/>
<path d="M277.43 86.8432C277.964 86.8432 278.397 86.4086 278.397 85.8726C278.397 85.3365 277.964 84.902 277.43 84.902C276.896 84.902 276.463 85.3365 276.463 85.8726C276.463 86.4086 276.896 86.8432 277.43 86.8432Z" fill="#FB043D"/>
<path d="M286.494 86.8432C287.028 86.8432 287.461 86.4086 287.461 85.8726C287.461 85.3365 287.028 84.902 286.494 84.902C285.96 84.902 285.527 85.3365 285.527 85.8726C285.527 86.4086 285.96 86.8432 286.494 86.8432Z" fill="#FB043D"/>
<path d="M295.559 86.8432C296.093 86.8432 296.525 86.4086 296.525 85.8726C296.525 85.3365 296.093 84.902 295.559 84.902C295.025 84.902 294.592 85.3365 294.592 85.8726C294.592 86.4086 295.025 86.8432 295.559 86.8432Z" fill="#FB043D"/>
<path d="M304.625 86.8432C305.159 86.8432 305.592 86.4086 305.592 85.8726C305.592 85.3365 305.159 84.902 304.625 84.902C304.091 84.902 303.658 85.3365 303.658 85.8726C303.658 86.4086 304.091 86.8432 304.625 86.8432Z" fill="#FB043D"/>
<path d="M313.691 86.8432C314.225 86.8432 314.658 86.4086 314.658 85.8726C314.658 85.3365 314.225 84.902 313.691 84.902C313.157 84.902 312.725 85.3365 312.725 85.8726C312.725 86.4086 313.157 86.8432 313.691 86.8432Z" fill="#FB043D"/>
<path d="M322.756 86.8432C323.29 86.8432 323.723 86.4086 323.723 85.8726C323.723 85.3365 323.29 84.902 322.756 84.902C322.222 84.902 321.789 85.3365 321.789 85.8726C321.789 86.4086 322.222 86.8432 322.756 86.8432Z" fill="#FB043D"/>
<path d="M241.176 93.9652C241.71 93.9652 242.143 93.5307 242.143 92.9946C242.143 92.4586 241.71 92.024 241.176 92.024C240.642 92.024 240.209 92.4586 240.209 92.9946C240.209 93.5307 240.642 93.9652 241.176 93.9652Z" fill="#FB043D"/>
<path d="M250.242 93.9652C250.776 93.9652 251.209 93.5307 251.209 92.9946C251.209 92.4586 250.776 92.024 250.242 92.024C249.708 92.024 249.275 92.4586 249.275 92.9946C249.275 93.5307 249.708 93.9652 250.242 93.9652Z" fill="#FB043D"/>
<path d="M259.307 93.9652C259.841 93.9652 260.274 93.5307 260.274 92.9946C260.274 92.4586 259.841 92.024 259.307 92.024C258.773 92.024 258.34 92.4586 258.34 92.9946C258.34 93.5307 258.773 93.9652 259.307 93.9652Z" fill="#FB043D"/>
<path d="M268.365 93.9652C268.899 93.9652 269.332 93.5307 269.332 92.9946C269.332 92.4586 268.899 92.024 268.365 92.024C267.831 92.024 267.398 92.4586 267.398 92.9946C267.398 93.5307 267.831 93.9652 268.365 93.9652Z" fill="#FB043D"/>
<path d="M277.43 93.9652C277.964 93.9652 278.397 93.5307 278.397 92.9946C278.397 92.4586 277.964 92.024 277.43 92.024C276.896 92.024 276.463 92.4586 276.463 92.9946C276.463 93.5307 276.896 93.9652 277.43 93.9652Z" fill="#FB043D"/>
<path d="M286.494 93.9652C287.028 93.9652 287.461 93.5307 287.461 92.9946C287.461 92.4586 287.028 92.024 286.494 92.024C285.96 92.024 285.527 92.4586 285.527 92.9946C285.527 93.5307 285.96 93.9652 286.494 93.9652Z" fill="#FB043D"/>
<path d="M295.559 93.9652C296.093 93.9652 296.525 93.5307 296.525 92.9946C296.525 92.4586 296.093 92.024 295.559 92.024C295.025 92.024 294.592 92.4586 294.592 92.9946C294.592 93.5307 295.025 93.9652 295.559 93.9652Z" fill="#FB043D"/>
<path d="M304.625 93.9652C305.159 93.9652 305.592 93.5307 305.592 92.9946C305.592 92.4586 305.159 92.024 304.625 92.024C304.091 92.024 303.658 92.4586 303.658 92.9946C303.658 93.5307 304.091 93.9652 304.625 93.9652Z" fill="#FB043D"/>
<path d="M313.691 93.9652C314.225 93.9652 314.658 93.5307 314.658 92.9946C314.658 92.4586 314.225 92.024 313.691 92.024C313.157 92.024 312.725 92.4586 312.725 92.9946C312.725 93.5307 313.157 93.9652 313.691 93.9652Z" fill="#FB043D"/>
<path d="M322.756 93.9652C323.29 93.9652 323.723 93.5307 323.723 92.9946C323.723 92.4586 323.29 92.024 322.756 92.024C322.222 92.024 321.789 92.4586 321.789 92.9946C321.789 93.5307 322.222 93.9652 322.756 93.9652Z" fill="#FB043D"/>
<path d="M241.176 101.094C241.71 101.094 242.143 100.66 242.143 100.124C242.143 99.5877 241.71 99.1532 241.176 99.1532C240.642 99.1532 240.209 99.5877 240.209 100.124C240.209 100.66 240.642 101.094 241.176 101.094Z" fill="#FB043D"/>
<path d="M250.242 101.094C250.776 101.094 251.209 100.66 251.209 100.124C251.209 99.5877 250.776 99.1532 250.242 99.1532C249.708 99.1532 249.275 99.5877 249.275 100.124C249.275 100.66 249.708 101.094 250.242 101.094Z" fill="#FB043D"/>
<path d="M259.307 101.094C259.841 101.094 260.274 100.66 260.274 100.124C260.274 99.5877 259.841 99.1532 259.307 99.1532C258.773 99.1532 258.34 99.5877 258.34 100.124C258.34 100.66 258.773 101.094 259.307 101.094Z" fill="#FB043D"/>
<path d="M268.365 101.094C268.899 101.094 269.332 100.66 269.332 100.124C269.332 99.5877 268.899 99.1532 268.365 99.1532C267.831 99.1532 267.398 99.5877 267.398 100.124C267.398 100.66 267.831 101.094 268.365 101.094Z" fill="#FB043D"/>
<path d="M277.43 101.094C277.964 101.094 278.397 100.66 278.397 100.124C278.397 99.5877 277.964 99.1532 277.43 99.1532C276.896 99.1532 276.463 99.5877 276.463 100.124C276.463 100.66 276.896 101.094 277.43 101.094Z" fill="#FB043D"/>
<path d="M286.494 101.094C287.028 101.094 287.461 100.66 287.461 100.124C287.461 99.5877 287.028 99.1532 286.494 99.1532C285.96 99.1532 285.527 99.5877 285.527 100.124C285.527 100.66 285.96 101.094 286.494 101.094Z" fill="#FB043D"/>
<path d="M295.559 101.094C296.093 101.094 296.525 100.66 296.525 100.124C296.525 99.5877 296.093 99.1532 295.559 99.1532C295.025 99.1532 294.592 99.5877 294.592 100.124C294.592 100.66 295.025 101.094 295.559 101.094Z" fill="#FB043D"/>
<path d="M304.625 101.094C305.159 101.094 305.592 100.66 305.592 100.124C305.592 99.5877 305.159 99.1532 304.625 99.1532C304.091 99.1532 303.658 99.5877 303.658 100.124C303.658 100.66 304.091 101.094 304.625 101.094Z" fill="#FB043D"/>
<path d="M313.691 101.094C314.225 101.094 314.658 100.66 314.658 100.124C314.658 99.5877 314.225 99.1532 313.691 99.1532C313.157 99.1532 312.725 99.5877 312.725 100.124C312.725 100.66 313.157 101.094 313.691 101.094Z" fill="#FB043D"/>
<path d="M322.756 101.094C323.29 101.094 323.723 100.66 323.723 100.124C323.723 99.5877 323.29 99.1532 322.756 99.1532C322.222 99.1532 321.789 99.5877 321.789 100.124C321.789 100.66 322.222 101.094 322.756 101.094Z" fill="#FB043D"/>
<path d="M241.176 108.217C241.71 108.217 242.143 107.782 242.143 107.246C242.143 106.71 241.71 106.275 241.176 106.275C240.642 106.275 240.209 106.71 240.209 107.246C240.209 107.782 240.642 108.217 241.176 108.217Z" fill="#FB043D"/>
<path d="M250.242 108.217C250.776 108.217 251.209 107.782 251.209 107.246C251.209 106.71 250.776 106.275 250.242 106.275C249.708 106.275 249.275 106.71 249.275 107.246C249.275 107.782 249.708 108.217 250.242 108.217Z" fill="#FB043D"/>
<path d="M259.307 108.217C259.841 108.217 260.274 107.782 260.274 107.246C260.274 106.71 259.841 106.275 259.307 106.275C258.773 106.275 258.34 106.71 258.34 107.246C258.34 107.782 258.773 108.217 259.307 108.217Z" fill="#FB043D"/>
<path d="M268.365 108.217C268.899 108.217 269.332 107.782 269.332 107.246C269.332 106.71 268.899 106.275 268.365 106.275C267.831 106.275 267.398 106.71 267.398 107.246C267.398 107.782 267.831 108.217 268.365 108.217Z" fill="#FB043D"/>
<path d="M277.43 108.217C277.964 108.217 278.397 107.782 278.397 107.246C278.397 106.71 277.964 106.275 277.43 106.275C276.896 106.275 276.463 106.71 276.463 107.246C276.463 107.782 276.896 108.217 277.43 108.217Z" fill="#FB043D"/>
<path d="M286.494 108.217C287.028 108.217 287.461 107.782 287.461 107.246C287.461 106.71 287.028 106.275 286.494 106.275C285.96 106.275 285.527 106.71 285.527 107.246C285.527 107.782 285.96 108.217 286.494 108.217Z" fill="#FB043D"/>
<path d="M295.559 108.217C296.093 108.217 296.525 107.782 296.525 107.246C296.525 106.71 296.093 106.275 295.559 106.275C295.025 106.275 294.592 106.71 294.592 107.246C294.592 107.782 295.025 108.217 295.559 108.217Z" fill="#FB043D"/>
<path d="M304.625 108.217C305.159 108.217 305.592 107.782 305.592 107.246C305.592 106.71 305.159 106.275 304.625 106.275C304.091 106.275 303.658 106.71 303.658 107.246C303.658 107.782 304.091 108.217 304.625 108.217Z" fill="#FB043D"/>
<path d="M313.691 108.217C314.225 108.217 314.658 107.782 314.658 107.246C314.658 106.71 314.225 106.275 313.691 106.275C313.157 106.275 312.725 106.71 312.725 107.246C312.725 107.782 313.157 108.217 313.691 108.217Z" fill="#FB043D"/>
<path d="M322.756 108.217C323.29 108.217 323.723 107.782 323.723 107.246C323.723 106.71 323.29 106.275 322.756 106.275C322.222 106.275 321.789 106.71 321.789 107.246C321.789 107.782 322.222 108.217 322.756 108.217Z" fill="#FB043D"/>
<path d="M241.176 115.339C241.71 115.339 242.143 114.904 242.143 114.368C242.143 113.832 241.71 113.398 241.176 113.398C240.642 113.398 240.209 113.832 240.209 114.368C240.209 114.904 240.642 115.339 241.176 115.339Z" fill="#FB043D"/>
<path d="M250.242 115.339C250.776 115.339 251.209 114.904 251.209 114.368C251.209 113.832 250.776 113.398 250.242 113.398C249.708 113.398 249.275 113.832 249.275 114.368C249.275 114.904 249.708 115.339 250.242 115.339Z" fill="#FB043D"/>
<path d="M259.307 115.339C259.841 115.339 260.274 114.904 260.274 114.368C260.274 113.832 259.841 113.398 259.307 113.398C258.773 113.398 258.34 113.832 258.34 114.368C258.34 114.904 258.773 115.339 259.307 115.339Z" fill="#FB043D"/>
<path d="M268.365 115.339C268.899 115.339 269.332 114.904 269.332 114.368C269.332 113.832 268.899 113.398 268.365 113.398C267.831 113.398 267.398 113.832 267.398 114.368C267.398 114.904 267.831 115.339 268.365 115.339Z" fill="#FB043D"/>
<path d="M277.43 115.339C277.964 115.339 278.397 114.904 278.397 114.368C278.397 113.832 277.964 113.398 277.43 113.398C276.896 113.398 276.463 113.832 276.463 114.368C276.463 114.904 276.896 115.339 277.43 115.339Z" fill="#FB043D"/>
<path d="M286.494 115.339C287.028 115.339 287.461 114.904 287.461 114.368C287.461 113.832 287.028 113.398 286.494 113.398C285.96 113.398 285.527 113.832 285.527 114.368C285.527 114.904 285.96 115.339 286.494 115.339Z" fill="#FB043D"/>
<path d="M295.559 115.339C296.093 115.339 296.525 114.904 296.525 114.368C296.525 113.832 296.093 113.398 295.559 113.398C295.025 113.398 294.592 113.832 294.592 114.368C294.592 114.904 295.025 115.339 295.559 115.339Z" fill="#FB043D"/>
<path d="M304.625 115.339C305.159 115.339 305.592 114.904 305.592 114.368C305.592 113.832 305.159 113.398 304.625 113.398C304.091 113.398 303.658 113.832 303.658 114.368C303.658 114.904 304.091 115.339 304.625 115.339Z" fill="#FB043D"/>
<path d="M313.691 115.339C314.225 115.339 314.658 114.904 314.658 114.368C314.658 113.832 314.225 113.398 313.691 113.398C313.157 113.398 312.725 113.832 312.725 114.368C312.725 114.904 313.157 115.339 313.691 115.339Z" fill="#FB043D"/>
<path d="M322.756 115.339C323.29 115.339 323.723 114.904 323.723 114.368C323.723 113.832 323.29 113.398 322.756 113.398C322.222 113.398 321.789 113.832 321.789 114.368C321.789 114.904 322.222 115.339 322.756 115.339Z" fill="#FB043D"/>
<path d="M241.176 122.461C241.71 122.461 242.143 122.026 242.143 121.49C242.143 120.954 241.71 120.52 241.176 120.52C240.642 120.52 240.209 120.954 240.209 121.49C240.209 122.026 240.642 122.461 241.176 122.461Z" fill="#FB043D"/>
<path d="M250.242 122.461C250.776 122.461 251.209 122.026 251.209 121.49C251.209 120.954 250.776 120.52 250.242 120.52C249.708 120.52 249.275 120.954 249.275 121.49C249.275 122.026 249.708 122.461 250.242 122.461Z" fill="#FB043D"/>
<path d="M259.307 122.461C259.841 122.461 260.274 122.026 260.274 121.49C260.274 120.954 259.841 120.52 259.307 120.52C258.773 120.52 258.34 120.954 258.34 121.49C258.34 122.026 258.773 122.461 259.307 122.461Z" fill="#FB043D"/>
<path d="M268.365 122.461C268.899 122.461 269.332 122.026 269.332 121.49C269.332 120.954 268.899 120.52 268.365 120.52C267.831 120.52 267.398 120.954 267.398 121.49C267.398 122.026 267.831 122.461 268.365 122.461Z" fill="#FB043D"/>
<path d="M277.43 122.461C277.964 122.461 278.397 122.026 278.397 121.49C278.397 120.954 277.964 120.52 277.43 120.52C276.896 120.52 276.463 120.954 276.463 121.49C276.463 122.026 276.896 122.461 277.43 122.461Z" fill="#FB043D"/>
<path d="M286.494 122.461C287.028 122.461 287.461 122.026 287.461 121.49C287.461 120.954 287.028 120.52 286.494 120.52C285.96 120.52 285.527 120.954 285.527 121.49C285.527 122.026 285.96 122.461 286.494 122.461Z" fill="#FB043D"/>
<path d="M295.559 122.461C296.093 122.461 296.525 122.026 296.525 121.49C296.525 120.954 296.093 120.52 295.559 120.52C295.025 120.52 294.592 120.954 294.592 121.49C294.592 122.026 295.025 122.461 295.559 122.461Z" fill="#FB043D"/>
<path d="M304.625 122.461C305.159 122.461 305.592 122.026 305.592 121.49C305.592 120.954 305.159 120.52 304.625 120.52C304.091 120.52 303.658 120.954 303.658 121.49C303.658 122.026 304.091 122.461 304.625 122.461Z" fill="#FB043D"/>
<path d="M313.691 122.461C314.225 122.461 314.658 122.026 314.658 121.49C314.658 120.954 314.225 120.52 313.691 120.52C313.157 120.52 312.725 120.954 312.725 121.49C312.725 122.026 313.157 122.461 313.691 122.461Z" fill="#FB043D"/>
<path d="M322.756 122.461C323.29 122.461 323.723 122.026 323.723 121.49C323.723 120.954 323.29 120.52 322.756 120.52C322.222 120.52 321.789 120.954 321.789 121.49C321.789 122.026 322.222 122.461 322.756 122.461Z" fill="#FB043D"/>
<path d="M241.176 129.583C241.71 129.583 242.143 129.149 242.143 128.613C242.143 128.077 241.71 127.642 241.176 127.642C240.642 127.642 240.209 128.077 240.209 128.613C240.209 129.149 240.642 129.583 241.176 129.583Z" fill="#FB043D"/>
<path d="M250.242 129.583C250.776 129.583 251.209 129.149 251.209 128.613C251.209 128.077 250.776 127.642 250.242 127.642C249.708 127.642 249.275 128.077 249.275 128.613C249.275 129.149 249.708 129.583 250.242 129.583Z" fill="#FB043D"/>
<path d="M259.307 129.583C259.841 129.583 260.274 129.149 260.274 128.613C260.274 128.077 259.841 127.642 259.307 127.642C258.773 127.642 258.34 128.077 258.34 128.613C258.34 129.149 258.773 129.583 259.307 129.583Z" fill="#FB043D"/>
<path d="M268.365 129.583C268.899 129.583 269.332 129.149 269.332 128.613C269.332 128.077 268.899 127.642 268.365 127.642C267.831 127.642 267.398 128.077 267.398 128.613C267.398 129.149 267.831 129.583 268.365 129.583Z" fill="#FB043D"/>
<path d="M277.43 129.583C277.964 129.583 278.397 129.149 278.397 128.613C278.397 128.077 277.964 127.642 277.43 127.642C276.896 127.642 276.463 128.077 276.463 128.613C276.463 129.149 276.896 129.583 277.43 129.583Z" fill="#FB043D"/>
<path d="M286.494 129.583C287.028 129.583 287.461 129.149 287.461 128.613C287.461 128.077 287.028 127.642 286.494 127.642C285.96 127.642 285.527 128.077 285.527 128.613C285.527 129.149 285.96 129.583 286.494 129.583Z" fill="#FB043D"/>
<path d="M295.559 129.583C296.093 129.583 296.525 129.149 296.525 128.613C296.525 128.077 296.093 127.642 295.559 127.642C295.025 127.642 294.592 128.077 294.592 128.613C294.592 129.149 295.025 129.583 295.559 129.583Z" fill="#FB043D"/>
<path d="M304.625 129.583C305.159 129.583 305.592 129.149 305.592 128.613C305.592 128.077 305.159 127.642 304.625 127.642C304.091 127.642 303.658 128.077 303.658 128.613C303.658 129.149 304.091 129.583 304.625 129.583Z" fill="#FB043D"/>
<path d="M313.691 129.583C314.225 129.583 314.658 129.149 314.658 128.613C314.658 128.077 314.225 127.642 313.691 127.642C313.157 127.642 312.725 128.077 312.725 128.613C312.725 129.149 313.157 129.583 313.691 129.583Z" fill="#FB043D"/>
<path d="M322.756 129.583C323.29 129.583 323.723 129.149 323.723 128.613C323.723 128.077 323.29 127.642 322.756 127.642C322.222 127.642 321.789 128.077 321.789 128.613C321.789 129.149 322.222 129.583 322.756 129.583Z" fill="#FB043D"/>
<path d="M241.176 136.705C241.71 136.705 242.143 136.27 242.143 135.734C242.143 135.198 241.71 134.764 241.176 134.764C240.642 134.764 240.209 135.198 240.209 135.734C240.209 136.27 240.642 136.705 241.176 136.705Z" fill="#FB043D"/>
<path d="M250.242 136.705C250.776 136.705 251.209 136.27 251.209 135.734C251.209 135.198 250.776 134.764 250.242 134.764C249.708 134.764 249.275 135.198 249.275 135.734C249.275 136.27 249.708 136.705 250.242 136.705Z" fill="#FB043D"/>
<path d="M259.307 136.705C259.841 136.705 260.274 136.27 260.274 135.734C260.274 135.198 259.841 134.764 259.307 134.764C258.773 134.764 258.34 135.198 258.34 135.734C258.34 136.27 258.773 136.705 259.307 136.705Z" fill="#FB043D"/>
<path d="M268.365 136.705C268.899 136.705 269.332 136.27 269.332 135.734C269.332 135.198 268.899 134.764 268.365 134.764C267.831 134.764 267.398 135.198 267.398 135.734C267.398 136.27 267.831 136.705 268.365 136.705Z" fill="#FB043D"/>
<path d="M277.43 136.705C277.964 136.705 278.397 136.27 278.397 135.734C278.397 135.198 277.964 134.764 277.43 134.764C276.896 134.764 276.463 135.198 276.463 135.734C276.463 136.27 276.896 136.705 277.43 136.705Z" fill="#FB043D"/>
<path d="M286.494 136.705C287.028 136.705 287.461 136.27 287.461 135.734C287.461 135.198 287.028 134.764 286.494 134.764C285.96 134.764 285.527 135.198 285.527 135.734C285.527 136.27 285.96 136.705 286.494 136.705Z" fill="#FB043D"/>
<path d="M295.559 136.705C296.093 136.705 296.525 136.27 296.525 135.734C296.525 135.198 296.093 134.764 295.559 134.764C295.025 134.764 294.592 135.198 294.592 135.734C294.592 136.27 295.025 136.705 295.559 136.705Z" fill="#FB043D"/>
<path d="M304.625 136.705C305.159 136.705 305.592 136.27 305.592 135.734C305.592 135.198 305.159 134.764 304.625 134.764C304.091 134.764 303.658 135.198 303.658 135.734C303.658 136.27 304.091 136.705 304.625 136.705Z" fill="#FB043D"/>
<path d="M313.691 136.705C314.225 136.705 314.658 136.27 314.658 135.734C314.658 135.198 314.225 134.764 313.691 134.764C313.157 134.764 312.725 135.198 312.725 135.734C312.725 136.27 313.157 136.705 313.691 136.705Z" fill="#FB043D"/>
<path d="M322.756 136.705C323.29 136.705 323.723 136.27 323.723 135.734C323.723 135.198 323.29 134.764 322.756 134.764C322.222 134.764 321.789 135.198 321.789 135.734C321.789 136.27 322.222 136.705 322.756 136.705Z" fill="#FB043D"/>
<path d="M241.176 143.827C241.71 143.827 242.143 143.393 242.143 142.857C242.143 142.321 241.71 141.886 241.176 141.886C240.642 141.886 240.209 142.321 240.209 142.857C240.209 143.393 240.642 143.827 241.176 143.827Z" fill="#FB043D"/>
<path d="M250.242 143.827C250.776 143.827 251.209 143.393 251.209 142.857C251.209 142.321 250.776 141.886 250.242 141.886C249.708 141.886 249.275 142.321 249.275 142.857C249.275 143.393 249.708 143.827 250.242 143.827Z" fill="#FB043D"/>
<path d="M259.307 143.827C259.841 143.827 260.274 143.393 260.274 142.857C260.274 142.321 259.841 141.886 259.307 141.886C258.773 141.886 258.34 142.321 258.34 142.857C258.34 143.393 258.773 143.827 259.307 143.827Z" fill="#FB043D"/>
<path d="M268.365 143.827C268.899 143.827 269.332 143.393 269.332 142.857C269.332 142.321 268.899 141.886 268.365 141.886C267.831 141.886 267.398 142.321 267.398 142.857C267.398 143.393 267.831 143.827 268.365 143.827Z" fill="#FB043D"/>
<path d="M277.43 143.827C277.964 143.827 278.397 143.393 278.397 142.857C278.397 142.321 277.964 141.886 277.43 141.886C276.896 141.886 276.463 142.321 276.463 142.857C276.463 143.393 276.896 143.827 277.43 143.827Z" fill="#FB043D"/>
<path d="M286.494 143.827C287.028 143.827 287.461 143.393 287.461 142.857C287.461 142.321 287.028 141.886 286.494 141.886C285.96 141.886 285.527 142.321 285.527 142.857C285.527 143.393 285.96 143.827 286.494 143.827Z" fill="#FB043D"/>
<path d="M295.559 143.827C296.093 143.827 296.525 143.393 296.525 142.857C296.525 142.321 296.093 141.886 295.559 141.886C295.025 141.886 294.592 142.321 294.592 142.857C294.592 143.393 295.025 143.827 295.559 143.827Z" fill="#FB043D"/>
<path d="M304.625 143.827C305.159 143.827 305.592 143.393 305.592 142.857C305.592 142.321 305.159 141.886 304.625 141.886C304.091 141.886 303.658 142.321 303.658 142.857C303.658 143.393 304.091 143.827 304.625 143.827Z" fill="#FB043D"/>
<path d="M313.691 143.827C314.225 143.827 314.658 143.393 314.658 142.857C314.658 142.321 314.225 141.886 313.691 141.886C313.157 141.886 312.725 142.321 312.725 142.857C312.725 143.393 313.157 143.827 313.691 143.827Z" fill="#FB043D"/>
<path d="M322.756 143.827C323.29 143.827 323.723 143.393 323.723 142.857C323.723 142.321 323.29 141.886 322.756 141.886C322.222 141.886 321.789 142.321 321.789 142.857C321.789 143.393 322.222 143.827 322.756 143.827Z" fill="#FB043D"/>
<path d="M241.176 150.955C241.71 150.955 242.143 150.521 242.143 149.985C242.143 149.449 241.71 149.014 241.176 149.014C240.642 149.014 240.209 149.449 240.209 149.985C240.209 150.521 240.642 150.955 241.176 150.955Z" fill="#FB043D"/>
<path d="M250.242 150.955C250.776 150.955 251.209 150.521 251.209 149.985C251.209 149.449 250.776 149.014 250.242 149.014C249.708 149.014 249.275 149.449 249.275 149.985C249.275 150.521 249.708 150.955 250.242 150.955Z" fill="#FB043D"/>
<path d="M259.307 150.955C259.841 150.955 260.274 150.521 260.274 149.985C260.274 149.449 259.841 149.014 259.307 149.014C258.773 149.014 258.34 149.449 258.34 149.985C258.34 150.521 258.773 150.955 259.307 150.955Z" fill="#FB043D"/>
<path d="M268.365 150.955C268.899 150.955 269.332 150.521 269.332 149.985C269.332 149.449 268.899 149.014 268.365 149.014C267.831 149.014 267.398 149.449 267.398 149.985C267.398 150.521 267.831 150.955 268.365 150.955Z" fill="#FB043D"/>
<path d="M277.43 150.955C277.964 150.955 278.397 150.521 278.397 149.985C278.397 149.449 277.964 149.014 277.43 149.014C276.896 149.014 276.463 149.449 276.463 149.985C276.463 150.521 276.896 150.955 277.43 150.955Z" fill="#FB043D"/>
<path d="M286.494 150.955C287.028 150.955 287.461 150.521 287.461 149.985C287.461 149.449 287.028 149.014 286.494 149.014C285.96 149.014 285.527 149.449 285.527 149.985C285.527 150.521 285.96 150.955 286.494 150.955Z" fill="#FB043D"/>
<path d="M295.559 150.955C296.093 150.955 296.525 150.521 296.525 149.985C296.525 149.449 296.093 149.014 295.559 149.014C295.025 149.014 294.592 149.449 294.592 149.985C294.592 150.521 295.025 150.955 295.559 150.955Z" fill="#FB043D"/>
<path d="M304.625 150.955C305.159 150.955 305.592 150.521 305.592 149.985C305.592 149.449 305.159 149.014 304.625 149.014C304.091 149.014 303.658 149.449 303.658 149.985C303.658 150.521 304.091 150.955 304.625 150.955Z" fill="#FB043D"/>
<path d="M313.691 150.955C314.225 150.955 314.658 150.521 314.658 149.985C314.658 149.449 314.225 149.014 313.691 149.014C313.157 149.014 312.725 149.449 312.725 149.985C312.725 150.521 313.157 150.955 313.691 150.955Z" fill="#FB043D"/>
<path d="M322.756 150.955C323.29 150.955 323.723 150.521 323.723 149.985C323.723 149.449 323.29 149.014 322.756 149.014C322.222 149.014 321.789 149.449 321.789 149.985C321.789 150.521 322.222 150.955 322.756 150.955Z" fill="#FB043D"/>
<path d="M241.176 158.077C241.71 158.077 242.143 157.643 242.143 157.107C242.143 156.571 241.71 156.136 241.176 156.136C240.642 156.136 240.209 156.571 240.209 157.107C240.209 157.643 240.642 158.077 241.176 158.077Z" fill="#FB043D"/>
<path d="M250.242 158.077C250.776 158.077 251.209 157.643 251.209 157.107C251.209 156.571 250.776 156.136 250.242 156.136C249.708 156.136 249.275 156.571 249.275 157.107C249.275 157.643 249.708 158.077 250.242 158.077Z" fill="#FB043D"/>
<path d="M259.307 158.077C259.841 158.077 260.274 157.643 260.274 157.107C260.274 156.571 259.841 156.136 259.307 156.136C258.773 156.136 258.34 156.571 258.34 157.107C258.34 157.643 258.773 158.077 259.307 158.077Z" fill="#FB043D"/>
<path d="M268.365 158.077C268.899 158.077 269.332 157.643 269.332 157.107C269.332 156.571 268.899 156.136 268.365 156.136C267.831 156.136 267.398 156.571 267.398 157.107C267.398 157.643 267.831 158.077 268.365 158.077Z" fill="#FB043D"/>
<path d="M277.43 158.077C277.964 158.077 278.397 157.643 278.397 157.107C278.397 156.571 277.964 156.136 277.43 156.136C276.896 156.136 276.463 156.571 276.463 157.107C276.463 157.643 276.896 158.077 277.43 158.077Z" fill="#FB043D"/>
<path d="M286.494 158.077C287.028 158.077 287.461 157.643 287.461 157.107C287.461 156.571 287.028 156.136 286.494 156.136C285.96 156.136 285.527 156.571 285.527 157.107C285.527 157.643 285.96 158.077 286.494 158.077Z" fill="#FB043D"/>
<path d="M295.559 158.077C296.093 158.077 296.525 157.643 296.525 157.107C296.525 156.571 296.093 156.136 295.559 156.136C295.025 156.136 294.592 156.571 294.592 157.107C294.592 157.643 295.025 158.077 295.559 158.077Z" fill="#FB043D"/>
<path d="M304.625 158.077C305.159 158.077 305.592 157.643 305.592 157.107C305.592 156.571 305.159 156.136 304.625 156.136C304.091 156.136 303.658 156.571 303.658 157.107C303.658 157.643 304.091 158.077 304.625 158.077Z" fill="#FB043D"/>
<path d="M313.691 158.077C314.225 158.077 314.658 157.643 314.658 157.107C314.658 156.571 314.225 156.136 313.691 156.136C313.157 156.136 312.725 156.571 312.725 157.107C312.725 157.643 313.157 158.077 313.691 158.077Z" fill="#FB043D"/>
<path d="M322.756 158.077C323.29 158.077 323.723 157.643 323.723 157.107C323.723 156.571 323.29 156.136 322.756 156.136C322.222 156.136 321.789 156.571 321.789 157.107C321.789 157.643 322.222 158.077 322.756 158.077Z" fill="#FB043D"/>
</g>
<g opacity="0.3">
<path d="M12.545 41.8682C13.079 41.8682 13.5118 41.4336 13.5118 40.8976C13.5118 40.3615 13.079 39.927 12.545 39.927C12.011 39.927 11.5781 40.3615 11.5781 40.8976C11.5781 41.4336 12.011 41.8682 12.545 41.8682Z" fill="#FFC916"/>
<path d="M21.5762 41.8682C22.1102 41.8682 22.5431 41.4336 22.5431 40.8976C22.5431 40.3615 22.1102 39.927 21.5762 39.927C21.0422 39.927 20.6094 40.3615 20.6094 40.8976C20.6094 41.4336 21.0422 41.8682 21.5762 41.8682Z" fill="#FFC916"/>
<path d="M30.6075 41.8682C31.1415 41.8682 31.5743 41.4336 31.5743 40.8976C31.5743 40.3615 31.1415 39.927 30.6075 39.927C30.0735 39.927 29.6406 40.3615 29.6406 40.8976C29.6406 41.4336 30.0735 41.8682 30.6075 41.8682Z" fill="#FFC916"/>
<path d="M39.6348 41.8682C40.1688 41.8682 40.6017 41.4336 40.6017 40.8976C40.6017 40.3615 40.1688 39.927 39.6348 39.927C39.1008 39.927 38.668 40.3615 38.668 40.8976C38.668 41.4336 39.1008 41.8682 39.6348 41.8682Z" fill="#FFC916"/>
<path d="M48.6661 41.8682C49.2 41.8682 49.6329 41.4336 49.6329 40.8976C49.6329 40.3615 49.2 39.927 48.6661 39.927C48.1321 39.927 47.6992 40.3615 47.6992 40.8976C47.6992 41.4336 48.1321 41.8682 48.6661 41.8682Z" fill="#FFC916"/>
<path d="M57.6934 41.8682C58.2274 41.8682 58.6603 41.4336 58.6603 40.8976C58.6603 40.3615 58.2274 39.927 57.6934 39.927C57.1594 39.927 56.7266 40.3615 56.7266 40.8976C56.7266 41.4336 57.1594 41.8682 57.6934 41.8682Z" fill="#FFC916"/>
<path d="M66.7208 41.8682C67.2547 41.8682 67.6876 41.4336 67.6876 40.8976C67.6876 40.3615 67.2547 39.927 66.7208 39.927C66.1868 39.927 65.7539 40.3615 65.7539 40.8976C65.7539 41.4336 66.1868 41.8682 66.7208 41.8682Z" fill="#FFC916"/>
<path d="M75.7501 41.8682C76.284 41.8682 76.7169 41.4336 76.7169 40.8976C76.7169 40.3615 76.284 39.927 75.7501 39.927C75.2161 39.927 74.7832 40.3615 74.7832 40.8976C74.7832 41.4336 75.2161 41.8682 75.7501 41.8682Z" fill="#FFC916"/>
<path d="M84.7852 41.8682C85.3192 41.8682 85.7521 41.4336 85.7521 40.8976C85.7521 40.3615 85.3192 39.927 84.7852 39.927C84.2512 39.927 83.8184 40.3615 83.8184 40.8976C83.8184 41.4336 84.2512 41.8682 84.7852 41.8682Z" fill="#FFC916"/>
<path d="M93.8145 41.8682C94.3485 41.8682 94.7814 41.4336 94.7814 40.8976C94.7814 40.3615 94.3485 39.927 93.8145 39.927C93.2805 39.927 92.8477 40.3615 92.8477 40.8976C92.8477 41.4336 93.2805 41.8682 93.8145 41.8682Z" fill="#FFC916"/>
<path d="M12.545 49.0224C13.079 49.0224 13.5118 48.5878 13.5118 48.0518C13.5118 47.5157 13.079 47.0812 12.545 47.0812C12.011 47.0812 11.5781 47.5157 11.5781 48.0518C11.5781 48.5878 12.011 49.0224 12.545 49.0224Z" fill="#FFC916"/>
<path d="M21.5762 49.0224C22.1102 49.0224 22.5431 48.5878 22.5431 48.0518C22.5431 47.5157 22.1102 47.0812 21.5762 47.0812C21.0422 47.0812 20.6094 47.5157 20.6094 48.0518C20.6094 48.5878 21.0422 49.0224 21.5762 49.0224Z" fill="#FFC916"/>
<path d="M30.6075 49.0224C31.1415 49.0224 31.5743 48.5878 31.5743 48.0518C31.5743 47.5157 31.1415 47.0812 30.6075 47.0812C30.0735 47.0812 29.6406 47.5157 29.6406 48.0518C29.6406 48.5878 30.0735 49.0224 30.6075 49.0224Z" fill="#FFC916"/>
<path d="M39.6348 49.0224C40.1688 49.0224 40.6017 48.5878 40.6017 48.0518C40.6017 47.5157 40.1688 47.0812 39.6348 47.0812C39.1008 47.0812 38.668 47.5157 38.668 48.0518C38.668 48.5878 39.1008 49.0224 39.6348 49.0224Z" fill="#FFC916"/>
<path d="M48.6661 49.0224C49.2 49.0224 49.6329 48.5878 49.6329 48.0518C49.6329 47.5157 49.2 47.0812 48.6661 47.0812C48.1321 47.0812 47.6992 47.5157 47.6992 48.0518C47.6992 48.5878 48.1321 49.0224 48.6661 49.0224Z" fill="#FFC916"/>
<path d="M57.6934 49.0224C58.2274 49.0224 58.6603 48.5878 58.6603 48.0518C58.6603 47.5157 58.2274 47.0812 57.6934 47.0812C57.1594 47.0812 56.7266 47.5157 56.7266 48.0518C56.7266 48.5878 57.1594 49.0224 57.6934 49.0224Z" fill="#FFC916"/>
<path d="M66.7208 49.0224C67.2547 49.0224 67.6876 48.5878 67.6876 48.0518C67.6876 47.5157 67.2547 47.0812 66.7208 47.0812C66.1868 47.0812 65.7539 47.5157 65.7539 48.0518C65.7539 48.5878 66.1868 49.0224 66.7208 49.0224Z" fill="#FFC916"/>
<path d="M75.7501 49.0224C76.284 49.0224 76.7169 48.5878 76.7169 48.0518C76.7169 47.5157 76.284 47.0812 75.7501 47.0812C75.2161 47.0812 74.7832 47.5157 74.7832 48.0518C74.7832 48.5878 75.2161 49.0224 75.7501 49.0224Z" fill="#FFC916"/>
<path d="M84.7852 49.0224C85.3192 49.0224 85.7521 48.5878 85.7521 48.0518C85.7521 47.5157 85.3192 47.0812 84.7852 47.0812C84.2512 47.0812 83.8184 47.5157 83.8184 48.0518C83.8184 48.5878 84.2512 49.0224 84.7852 49.0224Z" fill="#FFC916"/>
<path d="M93.8145 49.0224C94.3485 49.0224 94.7814 48.5878 94.7814 48.0518C94.7814 47.5157 94.3485 47.0812 93.8145 47.0812C93.2805 47.0812 92.8477 47.5157 92.8477 48.0518C92.8477 48.5878 93.2805 49.0224 93.8145 49.0224Z" fill="#FFC916"/>
<path d="M12.545 56.1832C13.079 56.1832 13.5118 55.7487 13.5118 55.2127C13.5118 54.6766 13.079 54.2421 12.545 54.2421C12.011 54.2421 11.5781 54.6766 11.5781 55.2127C11.5781 55.7487 12.011 56.1832 12.545 56.1832Z" fill="#FFC916"/>
<path d="M21.5762 56.1832C22.1102 56.1832 22.5431 55.7487 22.5431 55.2127C22.5431 54.6766 22.1102 54.2421 21.5762 54.2421C21.0422 54.2421 20.6094 54.6766 20.6094 55.2127C20.6094 55.7487 21.0422 56.1832 21.5762 56.1832Z" fill="#FFC916"/>
<path d="M30.6075 56.1832C31.1415 56.1832 31.5743 55.7487 31.5743 55.2127C31.5743 54.6766 31.1415 54.2421 30.6075 54.2421C30.0735 54.2421 29.6406 54.6766 29.6406 55.2127C29.6406 55.7487 30.0735 56.1832 30.6075 56.1832Z" fill="#FFC916"/>
<path d="M39.6348 56.1832C40.1688 56.1832 40.6017 55.7487 40.6017 55.2127C40.6017 54.6766 40.1688 54.2421 39.6348 54.2421C39.1008 54.2421 38.668 54.6766 38.668 55.2127C38.668 55.7487 39.1008 56.1832 39.6348 56.1832Z" fill="#FFC916"/>
<path d="M48.6661 56.1832C49.2 56.1832 49.6329 55.7487 49.6329 55.2127C49.6329 54.6766 49.2 54.2421 48.6661 54.2421C48.1321 54.2421 47.6992 54.6766 47.6992 55.2127C47.6992 55.7487 48.1321 56.1832 48.6661 56.1832Z" fill="#FFC916"/>
<path d="M57.6934 56.1832C58.2274 56.1832 58.6603 55.7487 58.6603 55.2127C58.6603 54.6766 58.2274 54.2421 57.6934 54.2421C57.1594 54.2421 56.7266 54.6766 56.7266 55.2127C56.7266 55.7487 57.1594 56.1832 57.6934 56.1832Z" fill="#FFC916"/>
<path d="M66.7208 56.1832C67.2547 56.1832 67.6876 55.7487 67.6876 55.2127C67.6876 54.6766 67.2547 54.2421 66.7208 54.2421C66.1868 54.2421 65.7539 54.6766 65.7539 55.2127C65.7539 55.7487 66.1868 56.1832 66.7208 56.1832Z" fill="#FFC916"/>
<path d="M75.7501 56.1832C76.284 56.1832 76.7169 55.7487 76.7169 55.2127C76.7169 54.6766 76.284 54.2421 75.7501 54.2421C75.2161 54.2421 74.7832 54.6766 74.7832 55.2127C74.7832 55.7487 75.2161 56.1832 75.7501 56.1832Z" fill="#FFC916"/>
<path d="M84.7852 56.1832C85.3192 56.1832 85.7521 55.7487 85.7521 55.2127C85.7521 54.6766 85.3192 54.2421 84.7852 54.2421C84.2512 54.2421 83.8184 54.6766 83.8184 55.2127C83.8184 55.7487 84.2512 56.1832 84.7852 56.1832Z" fill="#FFC916"/>
<path d="M93.8145 56.1832C94.3485 56.1832 94.7814 55.7487 94.7814 55.2127C94.7814 54.6766 94.3485 54.2421 93.8145 54.2421C93.2805 54.2421 92.8477 54.6766 92.8477 55.2127C92.8477 55.7487 93.2805 56.1832 93.8145 56.1832Z" fill="#FFC916"/>
<path d="M12.545 63.3375C13.079 63.3375 13.5118 62.903 13.5118 62.367C13.5118 61.8309 13.079 61.3964 12.545 61.3964C12.011 61.3964 11.5781 61.8309 11.5781 62.367C11.5781 62.903 12.011 63.3375 12.545 63.3375Z" fill="#FFC916"/>
<path d="M21.5762 63.3375C22.1102 63.3375 22.5431 62.903 22.5431 62.367C22.5431 61.8309 22.1102 61.3964 21.5762 61.3964C21.0422 61.3964 20.6094 61.8309 20.6094 62.367C20.6094 62.903 21.0422 63.3375 21.5762 63.3375Z" fill="#FFC916"/>
<path d="M30.6075 63.3375C31.1415 63.3375 31.5743 62.903 31.5743 62.367C31.5743 61.8309 31.1415 61.3964 30.6075 61.3964C30.0735 61.3964 29.6406 61.8309 29.6406 62.367C29.6406 62.903 30.0735 63.3375 30.6075 63.3375Z" fill="#FFC916"/>
<path d="M39.6348 63.3375C40.1688 63.3375 40.6017 62.903 40.6017 62.367C40.6017 61.8309 40.1688 61.3964 39.6348 61.3964C39.1008 61.3964 38.668 61.8309 38.668 62.367C38.668 62.903 39.1008 63.3375 39.6348 63.3375Z" fill="#FFC916"/>
<path d="M48.6661 63.3375C49.2 63.3375 49.6329 62.903 49.6329 62.367C49.6329 61.8309 49.2 61.3964 48.6661 61.3964C48.1321 61.3964 47.6992 61.8309 47.6992 62.367C47.6992 62.903 48.1321 63.3375 48.6661 63.3375Z" fill="#FFC916"/>
<path d="M57.6934 63.3375C58.2274 63.3375 58.6603 62.903 58.6603 62.367C58.6603 61.8309 58.2274 61.3964 57.6934 61.3964C57.1594 61.3964 56.7266 61.8309 56.7266 62.367C56.7266 62.903 57.1594 63.3375 57.6934 63.3375Z" fill="#FFC916"/>
<path d="M66.7208 63.3375C67.2547 63.3375 67.6876 62.903 67.6876 62.367C67.6876 61.8309 67.2547 61.3964 66.7208 61.3964C66.1868 61.3964 65.7539 61.8309 65.7539 62.367C65.7539 62.903 66.1868 63.3375 66.7208 63.3375Z" fill="#FFC916"/>
<path d="M75.7501 63.3375C76.284 63.3375 76.7169 62.903 76.7169 62.367C76.7169 61.8309 76.284 61.3964 75.7501 61.3964C75.2161 61.3964 74.7832 61.8309 74.7832 62.367C74.7832 62.903 75.2161 63.3375 75.7501 63.3375Z" fill="#FFC916"/>
<path d="M84.7852 63.3375C85.3192 63.3375 85.7521 62.903 85.7521 62.367C85.7521 61.8309 85.3192 61.3964 84.7852 61.3964C84.2512 61.3964 83.8184 61.8309 83.8184 62.367C83.8184 62.903 84.2512 63.3375 84.7852 63.3375Z" fill="#FFC916"/>
<path d="M93.8145 63.3375C94.3485 63.3375 94.7814 62.903 94.7814 62.367C94.7814 61.8309 94.3485 61.3964 93.8145 61.3964C93.2805 61.3964 92.8477 61.8309 92.8477 62.367C92.8477 62.903 93.2805 63.3375 93.8145 63.3375Z" fill="#FFC916"/>
<path d="M12.545 70.4927C13.079 70.4927 13.5118 70.0581 13.5118 69.5221C13.5118 68.9861 13.079 68.5515 12.545 68.5515C12.011 68.5515 11.5781 68.9861 11.5781 69.5221C11.5781 70.0581 12.011 70.4927 12.545 70.4927Z" fill="#FFC916"/>
<path d="M21.5762 70.4927C22.1102 70.4927 22.5431 70.0581 22.5431 69.5221C22.5431 68.9861 22.1102 68.5515 21.5762 68.5515C21.0422 68.5515 20.6094 68.9861 20.6094 69.5221C20.6094 70.0581 21.0422 70.4927 21.5762 70.4927Z" fill="#FFC916"/>
<path d="M30.6075 70.4927C31.1415 70.4927 31.5743 70.0581 31.5743 69.5221C31.5743 68.9861 31.1415 68.5515 30.6075 68.5515C30.0735 68.5515 29.6406 68.9861 29.6406 69.5221C29.6406 70.0581 30.0735 70.4927 30.6075 70.4927Z" fill="#FFC916"/>
<path d="M39.6348 70.4927C40.1688 70.4927 40.6017 70.0581 40.6017 69.5221C40.6017 68.9861 40.1688 68.5515 39.6348 68.5515C39.1008 68.5515 38.668 68.9861 38.668 69.5221C38.668 70.0581 39.1008 70.4927 39.6348 70.4927Z" fill="#FFC916"/>
<path d="M48.6661 70.4927C49.2 70.4927 49.6329 70.0581 49.6329 69.5221C49.6329 68.9861 49.2 68.5515 48.6661 68.5515C48.1321 68.5515 47.6992 68.9861 47.6992 69.5221C47.6992 70.0581 48.1321 70.4927 48.6661 70.4927Z" fill="#FFC916"/>
<path d="M57.6934 70.4927C58.2274 70.4927 58.6603 70.0581 58.6603 69.5221C58.6603 68.9861 58.2274 68.5515 57.6934 68.5515C57.1594 68.5515 56.7266 68.9861 56.7266 69.5221C56.7266 70.0581 57.1594 70.4927 57.6934 70.4927Z" fill="#FFC916"/>
<path d="M66.7208 70.4927C67.2547 70.4927 67.6876 70.0581 67.6876 69.5221C67.6876 68.9861 67.2547 68.5515 66.7208 68.5515C66.1868 68.5515 65.7539 68.9861 65.7539 69.5221C65.7539 70.0581 66.1868 70.4927 66.7208 70.4927Z" fill="#FFC916"/>
<path d="M75.7501 70.4927C76.284 70.4927 76.7169 70.0581 76.7169 69.5221C76.7169 68.9861 76.284 68.5515 75.7501 68.5515C75.2161 68.5515 74.7832 68.9861 74.7832 69.5221C74.7832 70.0581 75.2161 70.4927 75.7501 70.4927Z" fill="#FFC916"/>
<path d="M84.7852 70.4927C85.3192 70.4927 85.7521 70.0581 85.7521 69.5221C85.7521 68.9861 85.3192 68.5515 84.7852 68.5515C84.2512 68.5515 83.8184 68.9861 83.8184 69.5221C83.8184 70.0581 84.2512 70.4927 84.7852 70.4927Z" fill="#FFC916"/>
<path d="M93.8145 70.4927C94.3485 70.4927 94.7814 70.0581 94.7814 69.5221C94.7814 68.9861 94.3485 68.5515 93.8145 68.5515C93.2805 68.5515 92.8477 68.9861 92.8477 69.5221C92.8477 70.0581 93.2805 70.4927 93.8145 70.4927Z" fill="#FFC916"/>
<path d="M12.545 77.647C13.079 77.647 13.5118 77.2124 13.5118 76.6764C13.5118 76.1404 13.079 75.7058 12.545 75.7058C12.011 75.7058 11.5781 76.1404 11.5781 76.6764C11.5781 77.2124 12.011 77.647 12.545 77.647Z" fill="#FFC916"/>
<path d="M21.5762 77.647C22.1102 77.647 22.5431 77.2124 22.5431 76.6764C22.5431 76.1404 22.1102 75.7058 21.5762 75.7058C21.0422 75.7058 20.6094 76.1404 20.6094 76.6764C20.6094 77.2124 21.0422 77.647 21.5762 77.647Z" fill="#FFC916"/>
<path d="M30.6075 77.647C31.1415 77.647 31.5743 77.2124 31.5743 76.6764C31.5743 76.1404 31.1415 75.7058 30.6075 75.7058C30.0735 75.7058 29.6406 76.1404 29.6406 76.6764C29.6406 77.2124 30.0735 77.647 30.6075 77.647Z" fill="#FFC916"/>
<path d="M39.6348 77.647C40.1688 77.647 40.6017 77.2124 40.6017 76.6764C40.6017 76.1404 40.1688 75.7058 39.6348 75.7058C39.1008 75.7058 38.668 76.1404 38.668 76.6764C38.668 77.2124 39.1008 77.647 39.6348 77.647Z" fill="#FFC916"/>
<path d="M48.6661 77.647C49.2 77.647 49.6329 77.2124 49.6329 76.6764C49.6329 76.1404 49.2 75.7058 48.6661 75.7058C48.1321 75.7058 47.6992 76.1404 47.6992 76.6764C47.6992 77.2124 48.1321 77.647 48.6661 77.647Z" fill="#FFC916"/>
<path d="M57.6934 77.647C58.2274 77.647 58.6603 77.2124 58.6603 76.6764C58.6603 76.1404 58.2274 75.7058 57.6934 75.7058C57.1594 75.7058 56.7266 76.1404 56.7266 76.6764C56.7266 77.2124 57.1594 77.647 57.6934 77.647Z" fill="#FFC916"/>
<path d="M66.7208 77.647C67.2547 77.647 67.6876 77.2124 67.6876 76.6764C67.6876 76.1404 67.2547 75.7058 66.7208 75.7058C66.1868 75.7058 65.7539 76.1404 65.7539 76.6764C65.7539 77.2124 66.1868 77.647 66.7208 77.647Z" fill="#FFC916"/>
<path d="M75.7501 77.647C76.284 77.647 76.7169 77.2124 76.7169 76.6764C76.7169 76.1404 76.284 75.7058 75.7501 75.7058C75.2161 75.7058 74.7832 76.1404 74.7832 76.6764C74.7832 77.2124 75.2161 77.647 75.7501 77.647Z" fill="#FFC916"/>
<path d="M84.7852 77.647C85.3192 77.647 85.7521 77.2124 85.7521 76.6764C85.7521 76.1404 85.3192 75.7058 84.7852 75.7058C84.2512 75.7058 83.8184 76.1404 83.8184 76.6764C83.8184 77.2124 84.2512 77.647 84.7852 77.647Z" fill="#FFC916"/>
<path d="M93.8145 77.647C94.3485 77.647 94.7814 77.2124 94.7814 76.6764C94.7814 76.1404 94.3485 75.7058 93.8145 75.7058C93.2805 75.7058 92.8477 76.1404 92.8477 76.6764C92.8477 77.2124 93.2805 77.647 93.8145 77.647Z" fill="#FFC916"/>
<path d="M12.545 84.8013C13.079 84.8013 13.5118 84.3667 13.5118 83.8307C13.5118 83.2947 13.079 82.8601 12.545 82.8601C12.011 82.8601 11.5781 83.2947 11.5781 83.8307C11.5781 84.3667 12.011 84.8013 12.545 84.8013Z" fill="#FFC916"/>
<path d="M21.5762 84.8013C22.1102 84.8013 22.5431 84.3667 22.5431 83.8307C22.5431 83.2947 22.1102 82.8601 21.5762 82.8601C21.0422 82.8601 20.6094 83.2947 20.6094 83.8307C20.6094 84.3667 21.0422 84.8013 21.5762 84.8013Z" fill="#FFC916"/>
<path d="M30.6075 84.8013C31.1415 84.8013 31.5743 84.3667 31.5743 83.8307C31.5743 83.2947 31.1415 82.8601 30.6075 82.8601C30.0735 82.8601 29.6406 83.2947 29.6406 83.8307C29.6406 84.3667 30.0735 84.8013 30.6075 84.8013Z" fill="#FFC916"/>
<path d="M39.6348 84.8013C40.1688 84.8013 40.6017 84.3667 40.6017 83.8307C40.6017 83.2947 40.1688 82.8601 39.6348 82.8601C39.1008 82.8601 38.668 83.2947 38.668 83.8307C38.668 84.3667 39.1008 84.8013 39.6348 84.8013Z" fill="#FFC916"/>
<path d="M48.6661 84.8013C49.2 84.8013 49.6329 84.3667 49.6329 83.8307C49.6329 83.2947 49.2 82.8601 48.6661 82.8601C48.1321 82.8601 47.6992 83.2947 47.6992 83.8307C47.6992 84.3667 48.1321 84.8013 48.6661 84.8013Z" fill="#FFC916"/>
<path d="M57.6934 84.8013C58.2274 84.8013 58.6603 84.3667 58.6603 83.8307C58.6603 83.2947 58.2274 82.8601 57.6934 82.8601C57.1594 82.8601 56.7266 83.2947 56.7266 83.8307C56.7266 84.3667 57.1594 84.8013 57.6934 84.8013Z" fill="#FFC916"/>
<path d="M66.7208 84.8013C67.2547 84.8013 67.6876 84.3667 67.6876 83.8307C67.6876 83.2947 67.2547 82.8601 66.7208 82.8601C66.1868 82.8601 65.7539 83.2947 65.7539 83.8307C65.7539 84.3667 66.1868 84.8013 66.7208 84.8013Z" fill="#FFC916"/>
<path d="M75.7501 84.8013C76.284 84.8013 76.7169 84.3667 76.7169 83.8307C76.7169 83.2947 76.284 82.8601 75.7501 82.8601C75.2161 82.8601 74.7832 83.2947 74.7832 83.8307C74.7832 84.3667 75.2161 84.8013 75.7501 84.8013Z" fill="#FFC916"/>
<path d="M84.7852 84.8013C85.3192 84.8013 85.7521 84.3667 85.7521 83.8307C85.7521 83.2947 85.3192 82.8601 84.7852 82.8601C84.2512 82.8601 83.8184 83.2947 83.8184 83.8307C83.8184 84.3667 84.2512 84.8013 84.7852 84.8013Z" fill="#FFC916"/>
<path d="M93.8145 84.8013C94.3485 84.8013 94.7814 84.3667 94.7814 83.8307C94.7814 83.2947 94.3485 82.8601 93.8145 82.8601C93.2805 82.8601 92.8477 83.2947 92.8477 83.8307C92.8477 84.3667 93.2805 84.8013 93.8145 84.8013Z" fill="#FFC916"/>
<path d="M12.545 91.9562C13.079 91.9562 13.5118 91.5216 13.5118 90.9856C13.5118 90.4496 13.079 90.015 12.545 90.015C12.011 90.015 11.5781 90.4496 11.5781 90.9856C11.5781 91.5216 12.011 91.9562 12.545 91.9562Z" fill="#FFC916"/>
<path d="M21.5762 91.9562C22.1102 91.9562 22.5431 91.5216 22.5431 90.9856C22.5431 90.4496 22.1102 90.015 21.5762 90.015C21.0422 90.015 20.6094 90.4496 20.6094 90.9856C20.6094 91.5216 21.0422 91.9562 21.5762 91.9562Z" fill="#FFC916"/>
<path d="M30.6075 91.9562C31.1415 91.9562 31.5743 91.5216 31.5743 90.9856C31.5743 90.4496 31.1415 90.015 30.6075 90.015C30.0735 90.015 29.6406 90.4496 29.6406 90.9856C29.6406 91.5216 30.0735 91.9562 30.6075 91.9562Z" fill="#FFC916"/>
<path d="M39.6348 91.9562C40.1688 91.9562 40.6017 91.5216 40.6017 90.9856C40.6017 90.4496 40.1688 90.015 39.6348 90.015C39.1008 90.015 38.668 90.4496 38.668 90.9856C38.668 91.5216 39.1008 91.9562 39.6348 91.9562Z" fill="#FFC916"/>
<path d="M48.6661 91.9562C49.2 91.9562 49.6329 91.5216 49.6329 90.9856C49.6329 90.4496 49.2 90.015 48.6661 90.015C48.1321 90.015 47.6992 90.4496 47.6992 90.9856C47.6992 91.5216 48.1321 91.9562 48.6661 91.9562Z" fill="#FFC916"/>
<path d="M57.6934 91.9562C58.2274 91.9562 58.6603 91.5216 58.6603 90.9856C58.6603 90.4496 58.2274 90.015 57.6934 90.015C57.1594 90.015 56.7266 90.4496 56.7266 90.9856C56.7266 91.5216 57.1594 91.9562 57.6934 91.9562Z" fill="#FFC916"/>
<path d="M66.7208 91.9562C67.2547 91.9562 67.6876 91.5216 67.6876 90.9856C67.6876 90.4496 67.2547 90.015 66.7208 90.015C66.1868 90.015 65.7539 90.4496 65.7539 90.9856C65.7539 91.5216 66.1868 91.9562 66.7208 91.9562Z" fill="#FFC916"/>
<path d="M75.7501 91.9562C76.284 91.9562 76.7169 91.5216 76.7169 90.9856C76.7169 90.4496 76.284 90.015 75.7501 90.015C75.2161 90.015 74.7832 90.4496 74.7832 90.9856C74.7832 91.5216 75.2161 91.9562 75.7501 91.9562Z" fill="#FFC916"/>
<path d="M84.7852 91.9562C85.3192 91.9562 85.7521 91.5216 85.7521 90.9856C85.7521 90.4496 85.3192 90.015 84.7852 90.015C84.2512 90.015 83.8184 90.4496 83.8184 90.9856C83.8184 91.5216 84.2512 91.9562 84.7852 91.9562Z" fill="#FFC916"/>
<path d="M93.8145 91.9562C94.3485 91.9562 94.7814 91.5216 94.7814 90.9856C94.7814 90.4496 94.3485 90.015 93.8145 90.015C93.2805 90.015 92.8477 90.4496 92.8477 90.9856C92.8477 91.5216 93.2805 91.9562 93.8145 91.9562Z" fill="#FFC916"/>
<path d="M12.545 99.1106C13.079 99.1106 13.5118 98.6761 13.5118 98.14C13.5118 97.604 13.079 97.1694 12.545 97.1694C12.011 97.1694 11.5781 97.604 11.5781 98.14C11.5781 98.6761 12.011 99.1106 12.545 99.1106Z" fill="#FFC916"/>
<path d="M21.5762 99.1106C22.1102 99.1106 22.5431 98.6761 22.5431 98.14C22.5431 97.604 22.1102 97.1694 21.5762 97.1694C21.0422 97.1694 20.6094 97.604 20.6094 98.14C20.6094 98.6761 21.0422 99.1106 21.5762 99.1106Z" fill="#FFC916"/>
<path d="M30.6075 99.1106C31.1415 99.1106 31.5743 98.6761 31.5743 98.14C31.5743 97.604 31.1415 97.1694 30.6075 97.1694C30.0735 97.1694 29.6406 97.604 29.6406 98.14C29.6406 98.6761 30.0735 99.1106 30.6075 99.1106Z" fill="#FFC916"/>
<path d="M39.6348 99.1106C40.1688 99.1106 40.6017 98.6761 40.6017 98.14C40.6017 97.604 40.1688 97.1694 39.6348 97.1694C39.1008 97.1694 38.668 97.604 38.668 98.14C38.668 98.6761 39.1008 99.1106 39.6348 99.1106Z" fill="#FFC916"/>
<path d="M48.6661 99.1106C49.2 99.1106 49.6329 98.6761 49.6329 98.14C49.6329 97.604 49.2 97.1694 48.6661 97.1694C48.1321 97.1694 47.6992 97.604 47.6992 98.14C47.6992 98.6761 48.1321 99.1106 48.6661 99.1106Z" fill="#FFC916"/>
<path d="M57.6934 99.1106C58.2274 99.1106 58.6603 98.6761 58.6603 98.14C58.6603 97.604 58.2274 97.1694 57.6934 97.1694C57.1594 97.1694 56.7266 97.604 56.7266 98.14C56.7266 98.6761 57.1594 99.1106 57.6934 99.1106Z" fill="#FFC916"/>
<path d="M66.7208 99.1106C67.2547 99.1106 67.6876 98.6761 67.6876 98.14C67.6876 97.604 67.2547 97.1694 66.7208 97.1694C66.1868 97.1694 65.7539 97.604 65.7539 98.14C65.7539 98.6761 66.1868 99.1106 66.7208 99.1106Z" fill="#FFC916"/>
<path d="M75.7501 99.1106C76.284 99.1106 76.7169 98.6761 76.7169 98.14C76.7169 97.604 76.284 97.1694 75.7501 97.1694C75.2161 97.1694 74.7832 97.604 74.7832 98.14C74.7832 98.6761 75.2161 99.1106 75.7501 99.1106Z" fill="#FFC916"/>
<path d="M84.7852 99.1106C85.3192 99.1106 85.7521 98.6761 85.7521 98.14C85.7521 97.604 85.3192 97.1694 84.7852 97.1694C84.2512 97.1694 83.8184 97.604 83.8184 98.14C83.8184 98.6761 84.2512 99.1106 84.7852 99.1106Z" fill="#FFC916"/>
<path d="M93.8145 99.1106C94.3485 99.1106 94.7814 98.6761 94.7814 98.14C94.7814 97.604 94.3485 97.1694 93.8145 97.1694C93.2805 97.1694 92.8477 97.604 92.8477 98.14C92.8477 98.6761 93.2805 99.1106 93.8145 99.1106Z" fill="#FFC916"/>
<path d="M12.545 106.272C13.079 106.272 13.5118 105.837 13.5118 105.301C13.5118 104.765 13.079 104.331 12.545 104.331C12.011 104.331 11.5781 104.765 11.5781 105.301C11.5781 105.837 12.011 106.272 12.545 106.272Z" fill="#FFC916"/>
<path d="M21.5762 106.272C22.1102 106.272 22.5431 105.837 22.5431 105.301C22.5431 104.765 22.1102 104.331 21.5762 104.331C21.0422 104.331 20.6094 104.765 20.6094 105.301C20.6094 105.837 21.0422 106.272 21.5762 106.272Z" fill="#FFC916"/>
<path d="M30.6075 106.272C31.1415 106.272 31.5743 105.837 31.5743 105.301C31.5743 104.765 31.1415 104.331 30.6075 104.331C30.0735 104.331 29.6406 104.765 29.6406 105.301C29.6406 105.837 30.0735 106.272 30.6075 106.272Z" fill="#FFC916"/>
<path d="M39.6348 106.272C40.1688 106.272 40.6017 105.837 40.6017 105.301C40.6017 104.765 40.1688 104.331 39.6348 104.331C39.1008 104.331 38.668 104.765 38.668 105.301C38.668 105.837 39.1008 106.272 39.6348 106.272Z" fill="#FFC916"/>
<path d="M48.6661 106.272C49.2 106.272 49.6329 105.837 49.6329 105.301C49.6329 104.765 49.2 104.331 48.6661 104.331C48.1321 104.331 47.6992 104.765 47.6992 105.301C47.6992 105.837 48.1321 106.272 48.6661 106.272Z" fill="#FFC916"/>
<path d="M57.6934 106.272C58.2274 106.272 58.6603 105.837 58.6603 105.301C58.6603 104.765 58.2274 104.331 57.6934 104.331C57.1594 104.331 56.7266 104.765 56.7266 105.301C56.7266 105.837 57.1594 106.272 57.6934 106.272Z" fill="#FFC916"/>
<path d="M66.7208 106.272C67.2547 106.272 67.6876 105.837 67.6876 105.301C67.6876 104.765 67.2547 104.331 66.7208 104.331C66.1868 104.331 65.7539 104.765 65.7539 105.301C65.7539 105.837 66.1868 106.272 66.7208 106.272Z" fill="#FFC916"/>
<path d="M75.7501 106.272C76.284 106.272 76.7169 105.837 76.7169 105.301C76.7169 104.765 76.284 104.331 75.7501 104.331C75.2161 104.331 74.7832 104.765 74.7832 105.301C74.7832 105.837 75.2161 106.272 75.7501 106.272Z" fill="#FFC916"/>
<path d="M84.7852 106.272C85.3192 106.272 85.7521 105.837 85.7521 105.301C85.7521 104.765 85.3192 104.331 84.7852 104.331C84.2512 104.331 83.8184 104.765 83.8184 105.301C83.8184 105.837 84.2512 106.272 84.7852 106.272Z" fill="#FFC916"/>
<path d="M93.8145 106.272C94.3485 106.272 94.7814 105.837 94.7814 105.301C94.7814 104.765 94.3485 104.331 93.8145 104.331C93.2805 104.331 92.8477 104.765 92.8477 105.301C92.8477 105.837 93.2805 106.272 93.8145 106.272Z" fill="#FFC916"/>
<path d="M12.545 113.426C13.079 113.426 13.5118 112.991 13.5118 112.455C13.5118 111.919 13.079 111.484 12.545 111.484C12.011 111.484 11.5781 111.919 11.5781 112.455C11.5781 112.991 12.011 113.426 12.545 113.426Z" fill="#FFC916"/>
<path d="M21.5762 113.426C22.1102 113.426 22.5431 112.991 22.5431 112.455C22.5431 111.919 22.1102 111.484 21.5762 111.484C21.0422 111.484 20.6094 111.919 20.6094 112.455C20.6094 112.991 21.0422 113.426 21.5762 113.426Z" fill="#FFC916"/>
<path d="M30.6075 113.426C31.1415 113.426 31.5743 112.991 31.5743 112.455C31.5743 111.919 31.1415 111.484 30.6075 111.484C30.0735 111.484 29.6406 111.919 29.6406 112.455C29.6406 112.991 30.0735 113.426 30.6075 113.426Z" fill="#FFC916"/>
<path d="M39.6348 113.426C40.1688 113.426 40.6017 112.991 40.6017 112.455C40.6017 111.919 40.1688 111.484 39.6348 111.484C39.1008 111.484 38.668 111.919 38.668 112.455C38.668 112.991 39.1008 113.426 39.6348 113.426Z" fill="#FFC916"/>
<path d="M48.6661 113.426C49.2 113.426 49.6329 112.991 49.6329 112.455C49.6329 111.919 49.2 111.484 48.6661 111.484C48.1321 111.484 47.6992 111.919 47.6992 112.455C47.6992 112.991 48.1321 113.426 48.6661 113.426Z" fill="#FFC916"/>
<path d="M57.6934 113.426C58.2274 113.426 58.6603 112.991 58.6603 112.455C58.6603 111.919 58.2274 111.484 57.6934 111.484C57.1594 111.484 56.7266 111.919 56.7266 112.455C56.7266 112.991 57.1594 113.426 57.6934 113.426Z" fill="#FFC916"/>
<path d="M66.7208 113.426C67.2547 113.426 67.6876 112.991 67.6876 112.455C67.6876 111.919 67.2547 111.484 66.7208 111.484C66.1868 111.484 65.7539 111.919 65.7539 112.455C65.7539 112.991 66.1868 113.426 66.7208 113.426Z" fill="#FFC916"/>
<path d="M75.7501 113.426C76.284 113.426 76.7169 112.991 76.7169 112.455C76.7169 111.919 76.284 111.484 75.7501 111.484C75.2161 111.484 74.7832 111.919 74.7832 112.455C74.7832 112.991 75.2161 113.426 75.7501 113.426Z" fill="#FFC916"/>
<path d="M84.7852 113.426C85.3192 113.426 85.7521 112.991 85.7521 112.455C85.7521 111.919 85.3192 111.484 84.7852 111.484C84.2512 111.484 83.8184 111.919 83.8184 112.455C83.8184 112.991 84.2512 113.426 84.7852 113.426Z" fill="#FFC916"/>
<path d="M93.8145 113.426C94.3485 113.426 94.7814 112.991 94.7814 112.455C94.7814 111.919 94.3485 111.484 93.8145 111.484C93.2805 111.484 92.8477 111.919 92.8477 112.455C92.8477 112.991 93.2805 113.426 93.8145 113.426Z" fill="#FFC916"/>
</g>
<path d="M77 18H268.436V144.177H77V18Z" fill="white"/>
<path fill-rule="evenodd" clip-rule="evenodd" d="M77.0391 18.1292H269.097V144.93H77.0391V18.1292ZM77.6607 18.7532V144.306H268.476V18.7532H77.6607Z" fill="#E9EBEE"/>
<path d="M72.5137 141.706H276.519V146.559H72.5137V141.706ZM74.4474 16.5001H271.685V24.2648H74.4474V16.5001Z" fill="#E9EBEE"/>
<path d="M72.5137 15.5295H78.3148V26.206H72.5137V15.5295ZM269.751 15.5295H275.552V26.206H269.751V15.5295Z" fill="#DCE2EA"/>
<path d="M78.2313 62.7698L76.3778 63.0882L76.3972 60.9665L78.2322 58.2352L78.3125 59.1699L78.0921 61.3644L78.2313 62.7698Z" fill="#FAC7D4"/>
<path opacity="0.4" d="M52.2078 198C40.4603 198 30.9371 196.696 30.9371 195.088C30.9371 193.48 40.4603 192.176 52.2078 192.176C63.9553 192.176 73.4785 193.48 73.4785 195.088C73.4785 196.696 63.9553 198 52.2078 198Z" fill="#E9EBEE"/>
<path d="M57.8984 78.8773L72.4891 83.0411L76.4938 63.4022L78.3125 63.0878L77.8678 88.095C71.8936 88.8025 62.2821 87.6631 57.5852 87.401L57.0418 83.9778L57.8984 78.8773Z" fill="#232E4A"/>
<path d="M42.8165 62.924C42.8165 62.924 42.8928 67.4877 34.2627 71.9602C33.1557 72.5348 32.1366 73.0763 31.194 73.6063C22.8549 78.2661 25.272 91.3166 34.7433 92.1688C35.3106 92.2358 35.885 92.2119 36.4449 92.098C39.3938 91.4195 36.3821 85.3524 38.483 81.5321C42.773 73.7286 50.1239 69.2687 44.1778 62.1174" fill="#171C2E"/>
<path d="M44.3946 72.7939L36.4693 74.7885C36.4693 74.7885 33.1076 76.0697 35.9346 93.5616C36.595 97.544 37.1896 102.91 36.1328 111.618L53.8533 108.598L57.5321 92.3435L57.711 87.3615L58.0078 79.0261L55.233 78.3341L52.0636 76.1017L44.3946 72.7939Z" fill="#232E4A"/>
<path d="M36.4133 110.849C34.3597 114.997 33.7805 116.384 32.8717 119.524C32.8717 119.524 35.2937 172.754 39.454 190.235H42.1535C42.1535 190.235 47.156 148.884 47.8869 139.473L49.256 127.098L57.043 116.026C57.043 116.026 54.884 108.516 54.0477 107.735L36.4123 110.849H36.4133Z" fill="#3F4E6F"/>
<path d="M55.1074 98.9995L53.1409 108.334L40.6047 110.647C40.6047 110.647 50.0305 108.465 55.1074 98.9995Z" fill="#ED1941"/>
<path d="M48.5905 127.498L47.3723 138.881C47.3723 138.881 51.8759 167.389 58.2184 190.235L60.9082 189.205L56.3785 116.47L48.5896 127.498H48.5905Z" fill="#2B3A5D"/>
<path d="M39.639 190.235V194.118H49.3075L42.205 190.235H39.639ZM58.0092 190.248L58.3379 194.118H68.6445L60.6613 189.265L58.0092 190.248Z" fill="#ED1941"/>
<path d="M37.9363 78L49.0185 95.257L69 99.792V102L47.9499 99.8429C47.9499 99.8429 39.86 93.935 36 89.3866C36.2361 85.5335 36.8875 81.7163 37.9431 78" fill="#232E4A"/>
<path d="M68.9932 102L47.8231 99.7061C47.8231 99.7061 38.9252 92.5566 38 91.3667L48.045 99.2092C48.045 98.9531 63.1894 101.57 69 100.554L68.9932 102ZM52.6475 76.1455C52.3172 75.929 51.9403 75.7782 51.5431 75.7057C51.0278 75.669 50.7294 76.827 51.0752 78.1833C51.0752 78.1833 48.6088 78.4617 44.7812 73C44.7812 73 45.2627 79.0929 50.9735 79.7251C55.4172 80.22 52.6465 76.1455 52.6465 76.1455" fill="#ED1941"/>
<path d="M46.4929 67.9409C46.4929 67.9409 46.1594 70.7634 44.4722 72.361C44.4722 72.361 47.7199 77.6468 50.3188 77.6468C50.2083 77.2944 50.1699 76.9233 50.2056 76.5557C50.2414 76.1881 50.3508 75.8315 50.5271 75.5072C50.7033 75.183 50.943 74.8978 51.2317 74.6687C51.5203 74.4396 51.8521 74.2714 52.207 74.174L46.4929 67.9409Z" fill="#F2939E"/>
<path d="M50.7872 55.5279C55.7598 57.0032 59.0074 61.4825 57.7283 66.6567C56.715 70.7652 55.2889 74.7349 53.5321 74.7349C49.8832 74.7349 46.7062 69.978 46.4258 67.0605C46.1454 64.1429 48.928 55.3231 49.8639 55.3231C50.178 55.3583 50.4876 55.4269 50.7872 55.5279Z" fill="#FAC7D4"/>
<path d="M57.9439 64.9379C57.9439 64.9379 56.2007 60.8052 51.7658 61.0857C51.7658 61.0857 50.6481 64.0489 46.2586 67.9409C46.2586 67.9409 43.0921 65.6271 42.6039 62.3901C42.1166 59.1532 44.3084 54.9943 49.6271 54.4187C59.2898 53.3821 57.9439 64.9379 57.9439 64.9379Z" fill="#171C2E"/>
<path d="M58.0078 64.9759C58.0078 64.9759 55.3026 61.5682 52.5132 61.9574C52.5132 61.9574 51.2225 65.4903 46.4056 67.9411C46.4056 67.9411 50.1957 64.7643 51.8741 61.1722C51.8741 61.1722 55.8517 60.5976 58.0078 64.9759Z" fill="#E86577"/>
<path opacity="0.3" d="M68.6445 99.9705L48.4818 95.3L40.6059 84.441L47.8215 96.5443L68.6445 99.9705Z" fill="#ED1941"/>
<path d="M68.9996 99.5672L69.6696 97L71.2253 98.4734L75.7676 98.8072L73.6328 101.113L68.9996 101.853V99.5672Z" fill="#FFC9D5"/>
<path d="M120 57.4396C120 55.2547 121.771 53.4835 123.956 53.4835H207.033C209.218 53.4835 210.989 55.2547 210.989 57.4396V117.44C210.989 119.624 209.218 121.396 207.033 121.396H123.956C121.771 121.396 120 119.624 120 117.44V57.4396Z" fill="white"/>
<path d="M113 116.462C113 115.909 113.448 115.462 114 115.462H217.495C218.047 115.462 218.495 115.909 218.495 116.462V119.852C218.495 120.197 218.317 120.518 218.025 120.7L210.826 125.2C210.667 125.299 210.483 125.352 210.296 125.352H121.199C121.011 125.352 120.828 125.299 120.669 125.2L113.47 120.7C113.178 120.518 113 120.197 113 119.852V116.462Z" fill="#293A5E"/>
<g opacity="0.8">
<path d="M163.239 81H159.017V80.1301L160.533 78.6291C160.838 78.3216 161.083 78.0654 161.268 77.8604C161.455 77.6527 161.59 77.4639 161.673 77.294C161.758 77.1241 161.801 76.942 161.801 76.7478C161.801 76.5131 161.733 76.3378 161.598 76.2218C161.466 76.1032 161.289 76.0438 161.066 76.0438C160.831 76.0438 160.604 76.0964 160.384 76.2016C160.164 76.3068 159.934 76.4565 159.694 76.6507L159 75.8456C159.174 75.6999 159.357 75.5624 159.549 75.4329C159.745 75.3034 159.971 75.1996 160.227 75.1214C160.486 75.0405 160.796 75 161.156 75C161.553 75 161.893 75.0701 162.177 75.2104C162.463 75.3506 162.684 75.5421 162.838 75.7849C162.992 76.0249 163.069 76.2974 163.069 76.6022C163.069 76.9285 163.003 77.2266 162.871 77.4963C162.739 77.766 162.546 78.033 162.292 78.2974C162.042 78.5617 161.739 78.8543 161.384 79.1753L160.607 79.8914V79.9481H163.239V81Z" fill="#3F4E6F"/>
<path d="M165.54 81H164.28V75.085H167.741V76.1126H165.54V77.6379H167.589V78.6615H165.54V81Z" fill="#3F4E6F"/>
<path d="M172.62 81L172.182 79.592H169.98L169.543 81H168.163L170.294 75.0607H171.86L174 81H172.62ZM171.877 78.5401L171.439 77.1645C171.411 77.0728 171.374 76.9555 171.327 76.8125C171.283 76.6669 171.238 76.5199 171.191 76.3715C171.147 76.2205 171.111 76.0897 171.083 75.9791C171.056 76.0897 171.017 76.2272 170.968 76.3918C170.921 76.5536 170.876 76.7074 170.831 76.853C170.787 76.9987 170.756 77.1025 170.736 77.1645L170.303 78.5401H171.877Z" fill="#3F4E6F"/>
</g>
<path d="M139 89.6068C139 87.6998 140.54 86.1539 142.44 86.1539H188.874C190.773 86.1539 192.313 87.6998 192.313 89.6068V93.9229C192.313 95.8299 190.773 97.3758 188.874 97.3758H142.44C140.54 97.3758 139 95.8299 139 93.9229V89.6068Z" fill="#E9EBEE"/>
<path fill-rule="evenodd" clip-rule="evenodd" d="M188.854 86.5855H142.42C140.758 86.5855 139.41 87.9382 139.41 89.6068V93.9229C139.41 95.5915 140.758 96.9442 142.42 96.9442H188.854C190.516 96.9442 191.864 95.5915 191.864 93.9229V89.6068C191.864 87.9382 190.516 86.5855 188.854 86.5855ZM142.42 86.1539C140.52 86.1539 138.98 87.6998 138.98 89.6068V93.9229C138.98 95.8299 140.52 97.3758 142.42 97.3758H188.854C190.754 97.3758 192.294 95.8299 192.294 93.9229V89.6068C192.294 87.6998 190.754 86.1539 188.854 86.1539H142.42Z" fill="#D3D7DE"/>
<path d="M144.517 93.0167L145.39 91.9673L144.141 91.6201L144.39 90.8909L145.613 91.3963L145.52 90.0383H146.339L146.239 91.4233L147.434 90.9295L147.68 91.6664L146.412 92.0136L147.254 93.036L146.593 93.4912L145.885 92.357L145.178 93.4526L144.517 93.0167Z" fill="#3F4E6F"/>
<path d="M152.357 93.0167L153.229 91.9673L151.98 91.6201L152.23 90.8909L153.452 91.3963L153.36 90.0383H154.179L154.079 91.4233L155.274 90.9295L155.52 91.6664L154.252 92.0136L155.093 93.036L154.432 93.4912L153.725 92.357L153.018 93.4526L152.357 93.0167Z" fill="#3F4E6F"/>
<path d="M160.195 93.0167L161.067 91.9673L159.818 91.6201L160.068 90.8909L161.29 91.3963L161.198 90.0383H162.017L161.917 91.4233L163.112 90.9295L163.358 91.6664L162.09 92.0136L162.931 93.036L162.27 93.4912L161.563 92.357L160.856 93.4526L160.195 93.0167Z" fill="#3F4E6F"/>
<path d="M168.033 93.0167L168.905 91.9673L167.656 91.6201L167.906 90.8909L169.128 91.3963L169.036 90.0383H169.855L169.755 91.4233L170.95 90.9295L171.196 91.6664L169.928 92.0136L170.769 93.036L170.108 93.4912L169.401 92.357L168.694 93.4526L168.033 93.0167Z" fill="#3F4E6F"/>
<path d="M175.873 93.0167L176.745 91.9673L175.496 91.6201L175.746 90.8909L176.968 91.3963L176.876 90.0383H177.694L177.594 91.4233L178.79 90.9295L179.036 91.6664L177.767 92.0136L178.609 93.036L177.948 93.4912L177.241 92.357L176.534 93.4526L175.873 93.0167Z" fill="#3F4E6F"/>
<path d="M183.713 93.0167L184.585 91.9673L183.336 91.6201L183.586 90.8909L184.808 91.3963L184.716 90.0383H185.534L185.434 91.4233L186.629 90.9295L186.875 91.6664L185.607 92.0136L186.449 93.036L185.788 93.4912L185.081 92.357L184.374 93.4526L183.713 93.0167Z" fill="#3F4E6F"/>
<path fill-rule="evenodd" clip-rule="evenodd" d="M195.027 53.4835C194.851 54.1426 194.757 54.8351 194.757 55.5495V58.7582H125.527V116.121H205.966V97.6593H211.241V117.44C211.241 119.624 209.47 121.396 207.285 121.396H124.208C122.023 121.396 120.252 119.624 120.252 117.44V57.4396C120.252 55.2547 122.023 53.4835 124.208 53.4835H195.027Z" fill="#293A5E"/>
<rect x="200.031" y="38.978" width="30.989" height="46.8132" fill="white"/>
<path d="M222.863 77.5962H208.131C207.731 77.5957 207.348 77.4359 207.066 77.1519C206.783 76.8679 206.625 76.4829 206.625 76.0817V64.3947C206.625 63.9934 206.783 63.6085 207.066 63.3245C207.348 63.0404 207.731 62.8806 208.131 62.8801H222.863C223.263 62.8806 223.646 63.0404 223.928 63.3245C224.211 63.6085 224.369 63.9934 224.369 64.3947V76.0817C224.369 76.4829 224.211 76.8679 223.928 77.1519C223.646 77.4359 223.263 77.5957 222.863 77.5962Z" fill="#FF4702"/>
<path fill-rule="evenodd" clip-rule="evenodd" d="M215.498 56.0351C212.844 56.0351 210.688 58.2012 210.688 60.8784V62.7993H220.309V60.8784C220.309 58.2012 218.153 56.0351 215.498 56.0351ZM220.858 64.6915H208.803V60.8784C208.803 57.1605 211.798 54.1429 215.498 54.1429C219.198 54.1429 222.194 57.1605 222.194 60.8784V66.0423L220.858 64.6915Z" fill="#FF4702"/>
<path fill-rule="evenodd" clip-rule="evenodd" d="M217.34 69.4677C217.437 69.2316 217.487 68.9785 217.487 68.723C217.487 68.2071 217.283 67.712 216.92 67.3468C216.557 66.9815 216.065 66.776 215.551 66.7753C215.037 66.776 214.544 66.9815 214.181 67.3468C213.818 67.7121 213.615 68.2071 213.615 68.723C213.615 69.239 213.818 69.734 214.181 70.0993C214.359 70.2787 214.569 70.4196 214.797 70.5166V73.16C214.797 73.2452 214.814 73.3295 214.846 73.4082C214.878 73.4869 214.926 73.5585 214.986 73.6188C215.046 73.6791 215.117 73.7269 215.195 73.7596C215.274 73.7923 215.358 73.8092 215.442 73.8093C215.798 73.8093 216.087 73.5185 216.087 73.16V70.5941C216.157 70.5739 216.225 70.5498 216.292 70.5219C216.527 70.4238 216.741 70.2803 216.92 70.0994C217.1 69.9185 217.243 69.7039 217.34 69.4677Z" fill="white"/>
<path fill-rule="evenodd" clip-rule="evenodd" d="M227.724 40.956H202.669C201.941 40.956 201.351 41.5464 201.351 42.2747V89.7472C201.351 90.4755 201.941 91.0659 202.669 91.0659H227.724C228.452 91.0659 229.043 90.4755 229.043 89.7472V42.2747C229.043 41.5464 228.452 40.956 227.724 40.956ZM202.669 37C199.756 37 197.395 39.3616 197.395 42.2747V89.7472C197.395 92.6604 199.756 95.022 202.669 95.022H227.724C230.637 95.022 232.999 92.6604 232.999 89.7472V42.2747C232.999 39.3616 230.637 37 227.724 37H202.669Z" fill="#283A5E"/>
<path d="M197.395 83.8132H232.999V89.7473C232.999 92.6604 230.637 95.022 227.724 95.022H202.669C199.756 95.022 197.395 92.6604 197.395 89.7473V83.8132Z" fill="#283A5E"/>
<path fill-rule="evenodd" clip-rule="evenodd" d="M229.702 87.1099H200.691V89.7473C200.691 90.8397 201.577 91.7253 202.669 91.7253H227.724C228.817 91.7253 229.702 90.8397 229.702 89.7473V87.1099ZM197.395 83.8132V89.7473C197.395 92.6604 199.756 95.022 202.669 95.022H227.724C230.637 95.022 232.999 92.6604 232.999 89.7473V83.8132H197.395Z" fill="#283A5E"/>
<path d="M217.833 89.0879C217.833 90.5445 216.653 91.7253 215.196 91.7253C213.739 91.7253 212.559 90.5445 212.559 89.0879C212.559 87.6313 213.739 86.4506 215.196 86.4506C216.653 86.4506 217.833 87.6313 217.833 89.0879Z" fill="white"/>
</svg>
