<?xml version="1.0" encoding="UTF-8"?>
<svg width="239px" height="158px" viewBox="0 0 239 158" version="1.1" xmlns="http://www.w3.org/2000/svg" xmlns:xlink="http://www.w3.org/1999/xlink">
    <!-- Generator: sketchtool 60.1 (101010) - https://sketch.com -->
    <title>F5D97B6D-12EF-4D83-8379-D047E82F6826</title>
    <desc>Created with sketchtool.</desc>
    <defs>
        <linearGradient x1="66.7382812%" y1="14.3229167%" x2="27.3626309%" y2="97.752889%" id="linearGradient-1">
            <stop stop-color="#FFFFFF" offset="0%"></stop>
            <stop stop-color="#FFE7E7" offset="100%"></stop>
        </linearGradient>
    </defs>
    <g id="ðŸ…App-Design" stroke="none" stroke-width="1" fill="none" fill-rule="evenodd">
        <g id="error-Login-Failed!" transform="translate(-563.000000, -208.000000)">
            <g id="img_Login-failed" transform="translate(533.000000, 201.000000)">
                <rect id="Artboard1" x="0" y="0" width="300" height="173.4375"></rect>
                <g id="Login-Failed-" transform="translate(30.000000, 7.000000)" fill-rule="nonzero">
                    <g id="Group-8" transform="translate(0.000000, 17.052288)">
                        <g id="Group-2">
                            <g id="Group" opacity="0.399994" transform="translate(157.606209, 15.915033)" fill="#E9EBEE">
                                <path d="M48.6869831,49.9346405 L16.2287581,49.9346405 C7.26506391,49.9346405 0,42.4384985 0,33.3279581 L0,16.7212759 C0,7.49542125 7.26506391,0 16.2287581,0 L81.1437909,0 L81.1437909,16.7212759 C81.1437909,35.05695 66.6122458,49.9346405 48.6869831,49.9346405" id="Path"></path>
                            </g>
                            <g id="Group" opacity="0.399994" transform="translate(46.500000, 106.828431) scale(-1, 1) rotate(-180.000000) translate(-46.500000, -106.828431) translate(0.000000, 83.828431)" fill="#E9EBEE">
                                <path d="M92.0669935,22.6262563 L92.0669935,45.253268 L46.0338813,45.253268 C20.6191424,45.253268 0,24.992223 0,0 L69.0512065,0 C81.8381821,0 92.0669935,10.128634 92.0669935,22.6262563" id="Path"></path>
                            </g>
                            <g id="Group" opacity="0.100006" transform="translate(151.364379, 0.000000)" fill="#FB043D">
                                <path d="M1.89530569,0.896221818 C1.89530569,1.31563409 1.54853735,1.6562735 1.12049519,1.6562735 C0.693536674,1.6562735 0.346768337,1.31563409 0.346768337,0.896221818 C0.346768337,0.475745048 0.693536674,0.135105639 1.12049519,0.135105639 C1.54853735,0.135105639 1.89530569,0.475745048 1.89530569,0.896221818" id="Path"></path>
                                <path d="M10.2773466,0.896221818 C10.2773466,1.31563409 9.93057825,1.6562735 9.50361974,1.6562735 C9.07557757,1.6562735 8.72880924,1.31563409 8.72880924,0.896221818 C8.72880924,0.475745048 9.07557757,0.135105639 9.50361974,0.135105639 C9.93057825,0.135105639 10.2773466,0.475745048 10.2773466,0.896221818" id="Path"></path>
                                <path d="M18.6593875,0.896221818 C18.6593875,1.31563409 18.3137028,1.6562735 17.8856606,1.6562735 C17.4576185,1.6562735 17.1108501,1.31563409 17.1108501,0.896221818 C17.1108501,0.475745048 17.4576185,0.135105639 17.8856606,0.135105639 C18.3137028,0.135105639 18.6593875,0.475745048 18.6593875,0.896221818" id="Path"></path>
                                <path d="M27.042512,0.896221818 C27.042512,1.31563409 26.69466,1.6562735 26.2677015,1.6562735 C25.8396594,1.6562735 25.4939746,1.31563409 25.4939746,0.896221818 C25.4939746,0.475745048 25.8396594,0.135105639 26.2677015,0.135105639 C26.69466,0.135105639 27.042512,0.475745048 27.042512,0.896221818" id="Path"></path>
                                <path d="M35.4245529,0.896221818 C35.4245529,1.31563409 35.0777846,1.6562735 34.6497424,1.6562735 C34.2227839,1.6562735 33.8760156,1.31563409 33.8760156,0.896221818 C33.8760156,0.475745048 34.2227839,0.135105639 34.6497424,0.135105639 C35.0777846,0.135105639 35.4245529,0.475745048 35.4245529,0.896221818" id="Path"></path>
                                <path d="M43.8065939,0.896221818 C43.8065939,1.31563409 43.4598255,1.6562735 43.032867,1.6562735 C42.6048247,1.6562735 42.2580565,1.31563409 42.2580565,0.896221818 C42.2580565,0.475745048 42.6048247,0.135105639 43.032867,0.135105639 C43.4598255,0.135105639 43.8065939,0.475745048 43.8065939,0.896221818" id="Path"></path>
                                <path d="M52.1886347,0.896221818 C52.1886347,1.31563409 51.8418664,1.6562735 51.4149079,1.6562735 C50.9868658,1.6562735 50.6400974,1.31563409 50.6400974,0.896221818 C50.6400974,0.475745048 50.9868658,0.135105639 51.4149079,0.135105639 C51.8418664,0.135105639 52.1886347,0.475745048 52.1886347,0.896221818" id="Path"></path>
                                <path d="M60.5706756,0.896221818 C60.5706756,1.31563409 60.2249909,1.6562735 59.7969487,1.6562735 C59.3699903,1.6562735 59.0221382,1.31563409 59.0221382,0.896221818 C59.0221382,0.475745048 59.3699903,0.135105639 59.7969487,0.135105639 C60.2249909,0.135105639 60.5706756,0.475745048 60.5706756,0.896221818" id="Path"></path>
                                <path d="M68.9538001,0.896221818 C68.9538001,1.31563409 68.6070319,1.6562735 68.1789896,1.6562735 C67.7509475,1.6562735 67.4052627,1.31563409 67.4052627,0.896221818 C67.4052627,0.475745048 67.7509475,0.135105639 68.1789896,0.135105639 C68.6070319,0.135105639 68.9538001,0.475745048 68.9538001,0.896221818" id="Path"></path>
                                <path d="M77.335841,0.896221818 C77.335841,1.31563409 76.9890727,1.6562735 76.5610305,1.6562735 C76.134072,1.6562735 75.7873037,1.31563409 75.7873037,0.896221818 C75.7873037,0.475745048 76.134072,0.135105639 76.5610305,0.135105639 C76.9890727,0.135105639 77.335841,0.475745048 77.335841,0.896221818" id="Path"></path>
                                <path d="M1.89530569,7.33856463 C1.89530569,7.7590414 1.54853735,8.0996808 1.12049519,8.0996808 C0.693536674,8.0996808 0.346768337,7.7590414 0.346768337,7.33856463 C0.346768337,6.91915235 0.693536674,6.57851295 1.12049519,6.57851295 C1.54853735,6.57851295 1.89530569,6.91915235 1.89530569,7.33856463" id="Path"></path>
                                <path d="M10.2773466,7.33856463 C10.2773466,7.7590414 9.93057825,8.0996808 9.50361974,8.0996808 C9.07557757,8.0996808 8.72880924,7.7590414 8.72880924,7.33856463 C8.72880924,6.91915235 9.07557757,6.57851295 9.50361974,6.57851295 C9.93057825,6.57851295 10.2773466,6.91915235 10.2773466,7.33856463" id="Path"></path>
                                <path d="M18.6593875,7.33856463 C18.6593875,7.7590414 18.3137028,8.0996808 17.8856606,8.0996808 C17.4576185,8.0996808 17.1108501,7.7590414 17.1108501,7.33856463 C17.1108501,6.91915235 17.4576185,6.57851295 17.8856606,6.57851295 C18.3137028,6.57851295 18.6593875,6.91915235 18.6593875,7.33856463" id="Path"></path>
                                <path d="M27.042512,7.33856463 C27.042512,7.7590414 26.69466,8.0996808 26.2677015,8.0996808 C25.8396594,8.0996808 25.4939746,7.7590414 25.4939746,7.33856463 C25.4939746,6.91915235 25.8396594,6.57851295 26.2677015,6.57851295 C26.69466,6.57851295 27.042512,6.91915235 27.042512,7.33856463" id="Path"></path>
                                <path d="M35.4245529,7.33856463 C35.4245529,7.7590414 35.0777846,8.0996808 34.6497424,8.0996808 C34.2227839,8.0996808 33.8760156,7.7590414 33.8760156,7.33856463 C33.8760156,6.91915235 34.2227839,6.57851295 34.6497424,6.57851295 C35.0777846,6.57851295 35.4245529,6.91915235 35.4245529,7.33856463" id="Path"></path>
                                <path d="M43.8065939,7.33856463 C43.8065939,7.7590414 43.4598255,8.0996808 43.032867,8.0996808 C42.6048247,8.0996808 42.2580565,7.7590414 42.2580565,7.33856463 C42.2580565,6.91915235 42.6048247,6.57851295 43.032867,6.57851295 C43.4598255,6.57851295 43.8065939,6.91915235 43.8065939,7.33856463" id="Path"></path>
                                <path d="M52.1886347,7.33856463 C52.1886347,7.7590414 51.8418664,8.0996808 51.4149079,8.0996808 C50.9868658,8.0996808 50.6400974,7.7590414 50.6400974,7.33856463 C50.6400974,6.91915235 50.9868658,6.57851295 51.4149079,6.57851295 C51.8418664,6.57851295 52.1886347,6.91915235 52.1886347,7.33856463" id="Path"></path>
                                <path d="M60.5706756,7.33856463 C60.5706756,7.7590414 60.2249909,8.0996808 59.7969487,8.0996808 C59.3699903,8.0996808 59.0221382,7.7590414 59.0221382,7.33856463 C59.0221382,6.91915235 59.3699903,6.57851295 59.7969487,6.57851295 C60.2249909,6.57851295 60.5706756,6.91915235 60.5706756,7.33856463" id="Path"></path>
                                <path d="M68.9538001,7.33856463 C68.9538001,7.7590414 68.6070319,8.0996808 68.1789896,8.0996808 C67.7509475,8.0996808 67.4052627,7.7590414 67.4052627,7.33856463 C67.4052627,6.91915235 67.7509475,6.57851295 68.1789896,6.57851295 C68.6070319,6.57851295 68.9538001,6.91915235 68.9538001,7.33856463" id="Path"></path>
                                <path d="M77.335841,7.33856463 C77.335841,7.7590414 76.9890727,8.0996808 76.5610305,8.0996808 C76.134072,8.0996808 75.7873037,7.7590414 75.7873037,7.33856463 C75.7873037,6.91915235 76.134072,6.57851295 76.5610305,6.57851295 C76.9890727,6.57851295 77.335841,6.91915235 77.335841,7.33856463" id="Path"></path>
                                <path d="M1.89530569,13.7819719 C1.89530569,14.2024488 1.54853735,14.5430881 1.12049519,14.5430881 C0.693536674,14.5430881 0.346768337,14.2024488 0.346768337,13.7819719 C0.346768337,13.3625596 0.693536674,13.0219203 1.12049519,13.0219203 C1.54853735,13.0219203 1.89530569,13.3625596 1.89530569,13.7819719" id="Path"></path>
                                <path d="M10.2773466,13.7819719 C10.2773466,14.2024488 9.93057825,14.5430881 9.50361974,14.5430881 C9.07557757,14.5430881 8.72880924,14.2024488 8.72880924,13.7819719 C8.72880924,13.3625596 9.07557757,13.0219203 9.50361974,13.0219203 C9.93057825,13.0219203 10.2773466,13.3625596 10.2773466,13.7819719" id="Path"></path>
                                <path d="M18.6593875,13.7819719 C18.6593875,14.2024488 18.3137028,14.5430881 17.8856606,14.5430881 C17.4576185,14.5430881 17.1108501,14.2024488 17.1108501,13.7819719 C17.1108501,13.3625596 17.4576185,13.0219203 17.8856606,13.0219203 C18.3137028,13.0219203 18.6593875,13.3625596 18.6593875,13.7819719" id="Path"></path>
                                <path d="M27.042512,13.7819719 C27.042512,14.2024488 26.69466,14.5430881 26.2677015,14.5430881 C25.8396594,14.5430881 25.4939746,14.2024488 25.4939746,13.7819719 C25.4939746,13.3625596 25.8396594,13.0219203 26.2677015,13.0219203 C26.69466,13.0219203 27.042512,13.3625596 27.042512,13.7819719" id="Path"></path>
                                <path d="M35.4245529,13.7819719 C35.4245529,14.2024488 35.0777846,14.5430881 34.6497424,14.5430881 C34.2227839,14.5430881 33.8760156,14.2024488 33.8760156,13.7819719 C33.8760156,13.3625596 34.2227839,13.0219203 34.6497424,13.0219203 C35.0777846,13.0219203 35.4245529,13.3625596 35.4245529,13.7819719" id="Path"></path>
                                <path d="M43.8065939,13.7819719 C43.8065939,14.2024488 43.4598255,14.5430881 43.032867,14.5430881 C42.6048247,14.5430881 42.2580565,14.2024488 42.2580565,13.7819719 C42.2580565,13.3625596 42.6048247,13.0219203 43.032867,13.0219203 C43.4598255,13.0219203 43.8065939,13.3625596 43.8065939,13.7819719" id="Path"></path>
                                <path d="M52.1886347,13.7819719 C52.1886347,14.2024488 51.8418664,14.5430881 51.4149079,14.5430881 C50.9868658,14.5430881 50.6400974,14.2024488 50.6400974,13.7819719 C50.6400974,13.3625596 50.9868658,13.0219203 51.4149079,13.0219203 C51.8418664,13.0219203 52.1886347,13.3625596 52.1886347,13.7819719" id="Path"></path>
                                <path d="M60.5706756,13.7819719 C60.5706756,14.2024488 60.2249909,14.5430881 59.7969487,14.5430881 C59.3699903,14.5430881 59.0221382,14.2024488 59.0221382,13.7819719 C59.0221382,13.3625596 59.3699903,13.0219203 59.7969487,13.0219203 C60.2249909,13.0219203 60.5706756,13.3625596 60.5706756,13.7819719" id="Path"></path>
                                <path d="M68.9538001,13.7819719 C68.9538001,14.2024488 68.6070319,14.5430881 68.1789896,14.5430881 C67.7509475,14.5430881 67.4052627,14.2024488 67.4052627,13.7819719 C67.4052627,13.3625596 67.7509475,13.0219203 68.1789896,13.0219203 C68.6070319,13.0219203 68.9538001,13.3625596 68.9538001,13.7819719" id="Path"></path>
                                <path d="M77.335841,13.7819719 C77.335841,14.2024488 76.9890727,14.5430881 76.5610305,14.5430881 C76.134072,14.5430881 75.7873037,14.2024488 75.7873037,13.7819719 C75.7873037,13.3625596 76.134072,13.0219203 76.5610305,13.0219203 C76.9890727,13.0219203 77.335841,13.3625596 77.335841,13.7819719" id="Path"></path>
                                <path d="M1.89530569,20.2253792 C1.89530569,20.6447915 1.54853735,20.9864954 1.12049519,20.9864954 C0.693536674,20.9864954 0.346768337,20.6447915 0.346768337,20.2253792 C0.346768337,19.8049025 0.693536674,19.4653275 1.12049519,19.4653275 C1.54853735,19.4653275 1.89530569,19.8049025 1.89530569,20.2253792" id="Path"></path>
                                <path d="M10.2773466,20.2253792 C10.2773466,20.6447915 9.93057825,20.9864954 9.50361974,20.9864954 C9.07557757,20.9864954 8.72880924,20.6447915 8.72880924,20.2253792 C8.72880924,19.8049025 9.07557757,19.4653275 9.50361974,19.4653275 C9.93057825,19.4653275 10.2773466,19.8049025 10.2773466,20.2253792" id="Path"></path>
                                <path d="M18.6593875,20.2253792 C18.6593875,20.6447915 18.3137028,20.9864954 17.8856606,20.9864954 C17.4576185,20.9864954 17.1108501,20.6447915 17.1108501,20.2253792 C17.1108501,19.8049025 17.4576185,19.4653275 17.8856606,19.4653275 C18.3137028,19.4653275 18.6593875,19.8049025 18.6593875,20.2253792" id="Path"></path>
                                <path d="M27.042512,20.2253792 C27.042512,20.6447915 26.69466,20.9864954 26.2677015,20.9864954 C25.8396594,20.9864954 25.4939746,20.6447915 25.4939746,20.2253792 C25.4939746,19.8049025 25.8396594,19.4653275 26.2677015,19.4653275 C26.69466,19.4653275 27.042512,19.8049025 27.042512,20.2253792" id="Path"></path>
                                <path d="M35.4245529,20.2253792 C35.4245529,20.6447915 35.0777846,20.9864954 34.6497424,20.9864954 C34.2227839,20.9864954 33.8760156,20.6447915 33.8760156,20.2253792 C33.8760156,19.8049025 34.2227839,19.4653275 34.6497424,19.4653275 C35.0777846,19.4653275 35.4245529,19.8049025 35.4245529,20.2253792" id="Path"></path>
                                <path d="M43.8065939,20.2253792 C43.8065939,20.6447915 43.4598255,20.9864954 43.032867,20.9864954 C42.6048247,20.9864954 42.2580565,20.6447915 42.2580565,20.2253792 C42.2580565,19.8049025 42.6048247,19.4653275 43.032867,19.4653275 C43.4598255,19.4653275 43.8065939,19.8049025 43.8065939,20.2253792" id="Path"></path>
                                <path d="M52.1886347,20.2253792 C52.1886347,20.6447915 51.8418664,20.9864954 51.4149079,20.9864954 C50.9868658,20.9864954 50.6400974,20.6447915 50.6400974,20.2253792 C50.6400974,19.8049025 50.9868658,19.4653275 51.4149079,19.4653275 C51.8418664,19.4653275 52.1886347,19.8049025 52.1886347,20.2253792" id="Path"></path>
                                <path d="M60.5706756,20.2253792 C60.5706756,20.6447915 60.2249909,20.9864954 59.7969487,20.9864954 C59.3699903,20.9864954 59.0221382,20.6447915 59.0221382,20.2253792 C59.0221382,19.8049025 59.3699903,19.4653275 59.7969487,19.4653275 C60.2249909,19.4653275 60.5706756,19.8049025 60.5706756,20.2253792" id="Path"></path>
                                <path d="M68.9538001,20.2253792 C68.9538001,20.6447915 68.6070319,20.9864954 68.1789896,20.9864954 C67.7509475,20.9864954 67.4052627,20.6447915 67.4052627,20.2253792 C67.4052627,19.8049025 67.7509475,19.4653275 68.1789896,19.4653275 C68.6070319,19.4653275 68.9538001,19.8049025 68.9538001,20.2253792" id="Path"></path>
                                <path d="M77.335841,20.2253792 C77.335841,20.6447915 76.9890727,20.9864954 76.5610305,20.9864954 C76.134072,20.9864954 75.7873037,20.6447915 75.7873037,20.2253792 C75.7873037,19.8049025 76.134072,19.4653275 76.5610305,19.4653275 C76.9890727,19.4653275 77.335841,19.8049025 77.335841,20.2253792" id="Path"></path>
                                <path d="M1.89530569,26.6687865 C1.89530569,27.0881989 1.54853735,27.4288382 1.12049519,27.4288382 C0.693536674,27.4288382 0.346768337,27.0881989 0.346768337,26.6687865 C0.346768337,26.2483097 0.693536674,25.9076704 1.12049519,25.9076704 C1.54853735,25.9076704 1.89530569,26.2483097 1.89530569,26.6687865" id="Path"></path>
                                <path d="M10.2773466,26.6687865 C10.2773466,27.0881989 9.93057825,27.4288382 9.50361974,27.4288382 C9.07557757,27.4288382 8.72880924,27.0881989 8.72880924,26.6687865 C8.72880924,26.2483097 9.07557757,25.9076704 9.50361974,25.9076704 C9.93057825,25.9076704 10.2773466,26.2483097 10.2773466,26.6687865" id="Path"></path>
                                <path d="M18.6593875,26.6687865 C18.6593875,27.0881989 18.3137028,27.4288382 17.8856606,27.4288382 C17.4576185,27.4288382 17.1108501,27.0881989 17.1108501,26.6687865 C17.1108501,26.2483097 17.4576185,25.9076704 17.8856606,25.9076704 C18.3137028,25.9076704 18.6593875,26.2483097 18.6593875,26.6687865" id="Path"></path>
                                <path d="M27.042512,26.6687865 C27.042512,27.0881989 26.69466,27.4288382 26.2677015,27.4288382 C25.8396594,27.4288382 25.4939746,27.0881989 25.4939746,26.6687865 C25.4939746,26.2483097 25.8396594,25.9076704 26.2677015,25.9076704 C26.69466,25.9076704 27.042512,26.2483097 27.042512,26.6687865" id="Path"></path>
                                <path d="M35.4245529,26.6687865 C35.4245529,27.0881989 35.0777846,27.4288382 34.6497424,27.4288382 C34.2227839,27.4288382 33.8760156,27.0881989 33.8760156,26.6687865 C33.8760156,26.2483097 34.2227839,25.9076704 34.6497424,25.9076704 C35.0777846,25.9076704 35.4245529,26.2483097 35.4245529,26.6687865" id="Path"></path>
                                <path d="M43.8065939,26.6687865 C43.8065939,27.0881989 43.4598255,27.4288382 43.032867,27.4288382 C42.6048247,27.4288382 42.2580565,27.0881989 42.2580565,26.6687865 C42.2580565,26.2483097 42.6048247,25.9076704 43.032867,25.9076704 C43.4598255,25.9076704 43.8065939,26.2483097 43.8065939,26.6687865" id="Path"></path>
                                <path d="M52.1886347,26.6687865 C52.1886347,27.0881989 51.8418664,27.4288382 51.4149079,27.4288382 C50.9868658,27.4288382 50.6400974,27.0881989 50.6400974,26.6687865 C50.6400974,26.2483097 50.9868658,25.9076704 51.4149079,25.9076704 C51.8418664,25.9076704 52.1886347,26.2483097 52.1886347,26.6687865" id="Path"></path>
                                <path d="M60.5706756,26.6687865 C60.5706756,27.0881989 60.2249909,27.4288382 59.7969487,27.4288382 C59.3699903,27.4288382 59.0221382,27.0881989 59.0221382,26.6687865 C59.0221382,26.2483097 59.3699903,25.9076704 59.7969487,25.9076704 C60.2249909,25.9076704 60.5706756,26.2483097 60.5706756,26.6687865" id="Path"></path>
                                <path d="M68.9538001,26.6687865 C68.9538001,27.0881989 68.6070319,27.4288382 68.1789896,27.4288382 C67.7509475,27.4288382 67.4052627,27.0881989 67.4052627,26.6687865 C67.4052627,26.2483097 67.7509475,25.9076704 68.1789896,25.9076704 C68.6070319,25.9076704 68.9538001,26.2483097 68.9538001,26.6687865" id="Path"></path>
                                <path d="M77.335841,26.6687865 C77.335841,27.0881989 76.9890727,27.4288382 76.5610305,27.4288382 C76.134072,27.4288382 75.7873037,27.0881989 75.7873037,26.6687865 C75.7873037,26.2483097 76.134072,25.9076704 76.5610305,25.9076704 C76.9890727,25.9076704 77.335841,26.2483097 77.335841,26.6687865" id="Path"></path>
                                <path d="M1.89530569,32.6278473 C1.89530569,33.048324 1.54853735,33.3889634 1.12049519,33.3889634 C0.693536674,33.3889634 0.346768337,33.048324 0.346768337,32.6278473 C0.346768337,32.2084349 0.693536674,31.8677955 1.12049519,31.8677955 C1.54853735,31.8677955 1.89530569,32.2084349 1.89530569,32.6278473" id="Path"></path>
                                <path d="M10.2773466,32.6278473 C10.2773466,33.048324 9.93057825,33.3889634 9.50361974,33.3889634 C9.07557757,33.3889634 8.72880924,33.048324 8.72880924,32.6278473 C8.72880924,32.2084349 9.07557757,31.8677955 9.50361974,31.8677955 C9.93057825,31.8677955 10.2773466,32.2084349 10.2773466,32.6278473" id="Path"></path>
                                <path d="M18.6593875,32.6278473 C18.6593875,33.048324 18.3137028,33.3889634 17.8856606,33.3889634 C17.4576185,33.3889634 17.1108501,33.048324 17.1108501,32.6278473 C17.1108501,32.2084349 17.4576185,31.8677955 17.8856606,31.8677955 C18.3137028,31.8677955 18.6593875,32.2084349 18.6593875,32.6278473" id="Path"></path>
                                <path d="M27.042512,32.6278473 C27.042512,33.048324 26.69466,33.3889634 26.2677015,33.3889634 C25.8396594,33.3889634 25.4939746,33.048324 25.4939746,32.6278473 C25.4939746,32.2084349 25.8396594,31.8677955 26.2677015,31.8677955 C26.69466,31.8677955 27.042512,32.2084349 27.042512,32.6278473" id="Path"></path>
                                <path d="M35.4245529,32.6278473 C35.4245529,33.048324 35.0777846,33.3889634 34.6497424,33.3889634 C34.2227839,33.3889634 33.8760156,33.048324 33.8760156,32.6278473 C33.8760156,32.2084349 34.2227839,31.8677955 34.6497424,31.8677955 C35.0777846,31.8677955 35.4245529,32.2084349 35.4245529,32.6278473" id="Path"></path>
                                <path d="M43.8065939,32.6278473 C43.8065939,33.048324 43.4598255,33.3889634 43.032867,33.3889634 C42.6048247,33.3889634 42.2580565,33.048324 42.2580565,32.6278473 C42.2580565,32.2084349 42.6048247,31.8677955 43.032867,31.8677955 C43.4598255,31.8677955 43.8065939,32.2084349 43.8065939,32.6278473" id="Path"></path>
                                <path d="M52.1886347,32.6278473 C52.1886347,33.048324 51.8418664,33.3889634 51.4149079,33.3889634 C50.9868658,33.3889634 50.6400974,33.048324 50.6400974,32.6278473 C50.6400974,32.2084349 50.9868658,31.8677955 51.4149079,31.8677955 C51.8418664,31.8677955 52.1886347,32.2084349 52.1886347,32.6278473" id="Path"></path>
                                <path d="M60.5706756,32.6278473 C60.5706756,33.048324 60.2249909,33.3889634 59.7969487,33.3889634 C59.3699903,33.3889634 59.0221382,33.048324 59.0221382,32.6278473 C59.0221382,32.2084349 59.3699903,31.8677955 59.7969487,31.8677955 C60.2249909,31.8677955 60.5706756,32.2084349 60.5706756,32.6278473" id="Path"></path>
                                <path d="M68.9538001,32.6278473 C68.9538001,33.048324 68.6070319,33.3889634 68.1789896,33.3889634 C67.7509475,33.3889634 67.4052627,33.048324 67.4052627,32.6278473 C67.4052627,32.2084349 67.7509475,31.8677955 68.1789896,31.8677955 C68.6070319,31.8677955 68.9538001,32.2084349 68.9538001,32.6278473" id="Path"></path>
                                <path d="M77.335841,32.6278473 C77.335841,33.048324 76.9890727,33.3889634 76.5610305,33.3889634 C76.134072,33.3889634 75.7873037,33.048324 75.7873037,32.6278473 C75.7873037,32.2084349 76.134072,31.8677955 76.5610305,31.8677955 C76.9890727,31.8677955 77.335841,32.2084349 77.335841,32.6278473" id="Path"></path>
                                <path d="M1.89530569,39.0712545 C1.89530569,39.4906668 1.54853735,39.8323706 1.12049519,39.8323706 C0.693536674,39.8323706 0.346768337,39.4906668 0.346768337,39.0712545 C0.346768337,38.6507778 0.693536674,38.3112029 1.12049519,38.3112029 C1.54853735,38.3112029 1.89530569,38.6507778 1.89530569,39.0712545" id="Path"></path>
                                <path d="M10.2773466,39.0712545 C10.2773466,39.4906668 9.93057825,39.8323706 9.50361974,39.8323706 C9.07557757,39.8323706 8.72880924,39.4906668 8.72880924,39.0712545 C8.72880924,38.6507778 9.07557757,38.3112029 9.50361974,38.3112029 C9.93057825,38.3112029 10.2773466,38.6507778 10.2773466,39.0712545" id="Path"></path>
                                <path d="M18.6593875,39.0712545 C18.6593875,39.4906668 18.3137028,39.8323706 17.8856606,39.8323706 C17.4576185,39.8323706 17.1108501,39.4906668 17.1108501,39.0712545 C17.1108501,38.6507778 17.4576185,38.3112029 17.8856606,38.3112029 C18.3137028,38.3112029 18.6593875,38.6507778 18.6593875,39.0712545" id="Path"></path>
                                <path d="M27.042512,39.0712545 C27.042512,39.4906668 26.69466,39.8323706 26.2677015,39.8323706 C25.8396594,39.8323706 25.4939746,39.4906668 25.4939746,39.0712545 C25.4939746,38.6507778 25.8396594,38.3112029 26.2677015,38.3112029 C26.69466,38.3112029 27.042512,38.6507778 27.042512,39.0712545" id="Path"></path>
                                <path d="M35.4245529,39.0712545 C35.4245529,39.4906668 35.0777846,39.8323706 34.6497424,39.8323706 C34.2227839,39.8323706 33.8760156,39.4906668 33.8760156,39.0712545 C33.8760156,38.6507778 34.2227839,38.3112029 34.6497424,38.3112029 C35.0777846,38.3112029 35.4245529,38.6507778 35.4245529,39.0712545" id="Path"></path>
                                <path d="M43.8065939,39.0712545 C43.8065939,39.4906668 43.4598255,39.8323706 43.032867,39.8323706 C42.6048247,39.8323706 42.2580565,39.4906668 42.2580565,39.0712545 C42.2580565,38.6507778 42.6048247,38.3112029 43.032867,38.3112029 C43.4598255,38.3112029 43.8065939,38.6507778 43.8065939,39.0712545" id="Path"></path>
                                <path d="M52.1886347,39.0712545 C52.1886347,39.4906668 51.8418664,39.8323706 51.4149079,39.8323706 C50.9868658,39.8323706 50.6400974,39.4906668 50.6400974,39.0712545 C50.6400974,38.6507778 50.9868658,38.3112029 51.4149079,38.3112029 C51.8418664,38.3112029 52.1886347,38.6507778 52.1886347,39.0712545" id="Path"></path>
                                <path d="M60.5706756,39.0712545 C60.5706756,39.4906668 60.2249909,39.8323706 59.7969487,39.8323706 C59.3699903,39.8323706 59.0221382,39.4906668 59.0221382,39.0712545 C59.0221382,38.6507778 59.3699903,38.3112029 59.7969487,38.3112029 C60.2249909,38.3112029 60.5706756,38.6507778 60.5706756,39.0712545" id="Path"></path>
                                <path d="M68.9538001,39.0712545 C68.9538001,39.4906668 68.6070319,39.8323706 68.1789896,39.8323706 C67.7509475,39.8323706 67.4052627,39.4906668 67.4052627,39.0712545 C67.4052627,38.6507778 67.7509475,38.3112029 68.1789896,38.3112029 C68.6070319,38.3112029 68.9538001,38.6507778 68.9538001,39.0712545" id="Path"></path>
                                <path d="M77.335841,39.0712545 C77.335841,39.4906668 76.9890727,39.8323706 76.5610305,39.8323706 C76.134072,39.8323706 75.7873037,39.4906668 75.7873037,39.0712545 C75.7873037,38.6507778 76.134072,38.3112029 76.5610305,38.3112029 C76.9890727,38.3112029 77.335841,38.6507778 77.335841,39.0712545" id="Path"></path>
                                <path d="M1.89530569,45.5135973 C1.89530569,45.9340741 1.54853735,46.2747135 1.12049519,46.2747135 C0.693536674,46.2747135 0.346768337,45.9340741 0.346768337,45.5135973 C0.346768337,45.094185 0.693536674,44.7535456 1.12049519,44.7535456 C1.54853735,44.7535456 1.89530569,45.094185 1.89530569,45.5135973" id="Path"></path>
                                <path d="M10.2773466,45.5135973 C10.2773466,45.9340741 9.93057825,46.2747135 9.50361974,46.2747135 C9.07557757,46.2747135 8.72880924,45.9340741 8.72880924,45.5135973 C8.72880924,45.094185 9.07557757,44.7535456 9.50361974,44.7535456 C9.93057825,44.7535456 10.2773466,45.094185 10.2773466,45.5135973" id="Path"></path>
                                <path d="M18.6593875,45.5135973 C18.6593875,45.9340741 18.3137028,46.2747135 17.8856606,46.2747135 C17.4576185,46.2747135 17.1108501,45.9340741 17.1108501,45.5135973 C17.1108501,45.094185 17.4576185,44.7535456 17.8856606,44.7535456 C18.3137028,44.7535456 18.6593875,45.094185 18.6593875,45.5135973" id="Path"></path>
                                <path d="M27.042512,45.5135973 C27.042512,45.9340741 26.69466,46.2747135 26.2677015,46.2747135 C25.8396594,46.2747135 25.4939746,45.9340741 25.4939746,45.5135973 C25.4939746,45.094185 25.8396594,44.7535456 26.2677015,44.7535456 C26.69466,44.7535456 27.042512,45.094185 27.042512,45.5135973" id="Path"></path>
                                <path d="M35.4245529,45.5135973 C35.4245529,45.9340741 35.0777846,46.2747135 34.6497424,46.2747135 C34.2227839,46.2747135 33.8760156,45.9340741 33.8760156,45.5135973 C33.8760156,45.094185 34.2227839,44.7535456 34.6497424,44.7535456 C35.0777846,44.7535456 35.4245529,45.094185 35.4245529,45.5135973" id="Path"></path>
                                <path d="M43.8065939,45.5135973 C43.8065939,45.9340741 43.4598255,46.2747135 43.032867,46.2747135 C42.6048247,46.2747135 42.2580565,45.9340741 42.2580565,45.5135973 C42.2580565,45.094185 42.6048247,44.7535456 43.032867,44.7535456 C43.4598255,44.7535456 43.8065939,45.094185 43.8065939,45.5135973" id="Path"></path>
                                <path d="M52.1886347,45.5135973 C52.1886347,45.9340741 51.8418664,46.2747135 51.4149079,46.2747135 C50.9868658,46.2747135 50.6400974,45.9340741 50.6400974,45.5135973 C50.6400974,45.094185 50.9868658,44.7535456 51.4149079,44.7535456 C51.8418664,44.7535456 52.1886347,45.094185 52.1886347,45.5135973" id="Path"></path>
                                <path d="M60.5706756,45.5135973 C60.5706756,45.9340741 60.2249909,46.2747135 59.7969487,46.2747135 C59.3699903,46.2747135 59.0221382,45.9340741 59.0221382,45.5135973 C59.0221382,45.094185 59.3699903,44.7535456 59.7969487,44.7535456 C60.2249909,44.7535456 60.5706756,45.094185 60.5706756,45.5135973" id="Path"></path>
                                <path d="M68.9538001,45.5135973 C68.9538001,45.9340741 68.6070319,46.2747135 68.1789896,46.2747135 C67.7509475,46.2747135 67.4052627,45.9340741 67.4052627,45.5135973 C67.4052627,45.094185 67.7509475,44.7535456 68.1789896,44.7535456 C68.6070319,44.7535456 68.9538001,45.094185 68.9538001,45.5135973" id="Path"></path>
                                <path d="M77.335841,45.5135973 C77.335841,45.9340741 76.9890727,46.2747135 76.5610305,46.2747135 C76.134072,46.2747135 75.7873037,45.9340741 75.7873037,45.5135973 C75.7873037,45.094185 76.134072,44.7535456 76.5610305,44.7535456 C76.9890727,44.7535456 77.335841,45.094185 77.335841,45.5135973" id="Path"></path>
                                <path d="M1.89530569,51.9570046 C1.89530569,52.3774814 1.54853735,52.7181207 1.12049519,52.7181207 C0.693536674,52.7181207 0.346768337,52.3774814 0.346768337,51.9570046 C0.346768337,51.5375924 0.693536674,51.1969529 1.12049519,51.1969529 C1.54853735,51.1969529 1.89530569,51.5375924 1.89530569,51.9570046" id="Path"></path>
                                <path d="M10.2773466,51.9570046 C10.2773466,52.3774814 9.93057825,52.7181207 9.50361974,52.7181207 C9.07557757,52.7181207 8.72880924,52.3774814 8.72880924,51.9570046 C8.72880924,51.5375924 9.07557757,51.1969529 9.50361974,51.1969529 C9.93057825,51.1969529 10.2773466,51.5375924 10.2773466,51.9570046" id="Path"></path>
                                <path d="M18.6593875,51.9570046 C18.6593875,52.3774814 18.3137028,52.7181207 17.8856606,52.7181207 C17.4576185,52.7181207 17.1108501,52.3774814 17.1108501,51.9570046 C17.1108501,51.5375924 17.4576185,51.1969529 17.8856606,51.1969529 C18.3137028,51.1969529 18.6593875,51.5375924 18.6593875,51.9570046" id="Path"></path>
                                <path d="M27.042512,51.9570046 C27.042512,52.3774814 26.69466,52.7181207 26.2677015,52.7181207 C25.8396594,52.7181207 25.4939746,52.3774814 25.4939746,51.9570046 C25.4939746,51.5375924 25.8396594,51.1969529 26.2677015,51.1969529 C26.69466,51.1969529 27.042512,51.5375924 27.042512,51.9570046" id="Path"></path>
                                <path d="M35.4245529,51.9570046 C35.4245529,52.3774814 35.0777846,52.7181207 34.6497424,52.7181207 C34.2227839,52.7181207 33.8760156,52.3774814 33.8760156,51.9570046 C33.8760156,51.5375924 34.2227839,51.1969529 34.6497424,51.1969529 C35.0777846,51.1969529 35.4245529,51.5375924 35.4245529,51.9570046" id="Path"></path>
                                <path d="M43.8065939,51.9570046 C43.8065939,52.3774814 43.4598255,52.7181207 43.032867,52.7181207 C42.6048247,52.7181207 42.2580565,52.3774814 42.2580565,51.9570046 C42.2580565,51.5375924 42.6048247,51.1969529 43.032867,51.1969529 C43.4598255,51.1969529 43.8065939,51.5375924 43.8065939,51.9570046" id="Path"></path>
                                <path d="M52.1886347,51.9570046 C52.1886347,52.3774814 51.8418664,52.7181207 51.4149079,52.7181207 C50.9868658,52.7181207 50.6400974,52.3774814 50.6400974,51.9570046 C50.6400974,51.5375924 50.9868658,51.1969529 51.4149079,51.1969529 C51.8418664,51.1969529 52.1886347,51.5375924 52.1886347,51.9570046" id="Path"></path>
                                <path d="M60.5706756,51.9570046 C60.5706756,52.3774814 60.2249909,52.7181207 59.7969487,52.7181207 C59.3699903,52.7181207 59.0221382,52.3774814 59.0221382,51.9570046 C59.0221382,51.5375924 59.3699903,51.1969529 59.7969487,51.1969529 C60.2249909,51.1969529 60.5706756,51.5375924 60.5706756,51.9570046" id="Path"></path>
                                <path d="M68.9538001,51.9570046 C68.9538001,52.3774814 68.6070319,52.7181207 68.1789896,52.7181207 C67.7509475,52.7181207 67.4052627,52.3774814 67.4052627,51.9570046 C67.4052627,51.5375924 67.7509475,51.1969529 68.1789896,51.1969529 C68.6070319,51.1969529 68.9538001,51.5375924 68.9538001,51.9570046" id="Path"></path>
                                <path d="M77.335841,51.9570046 C77.335841,52.3774814 76.9890727,52.7181207 76.5610305,52.7181207 C76.134072,52.7181207 75.7873037,52.3774814 75.7873037,51.9570046 C75.7873037,51.5375924 76.134072,51.1969529 76.5610305,51.1969529 C76.9890727,51.1969529 77.335841,51.5375924 77.335841,51.9570046" id="Path"></path>
                                <path d="M1.89530569,58.4004119 C1.89530569,58.8208886 1.54853735,59.1615281 1.12049519,59.1615281 C0.693536674,59.1615281 0.346768337,58.8208886 0.346768337,58.4004119 C0.346768337,57.9799351 0.693536674,57.6403603 1.12049519,57.6403603 C1.54853735,57.6403603 1.89530569,57.9799351 1.89530569,58.4004119" id="Path"></path>
                                <path d="M10.2773466,58.4004119 C10.2773466,58.8208886 9.93057825,59.1615281 9.50361974,59.1615281 C9.07557757,59.1615281 8.72880924,58.8208886 8.72880924,58.4004119 C8.72880924,57.9799351 9.07557757,57.6403603 9.50361974,57.6403603 C9.93057825,57.6403603 10.2773466,57.9799351 10.2773466,58.4004119" id="Path"></path>
                                <path d="M18.6593875,58.4004119 C18.6593875,58.8208886 18.3137028,59.1615281 17.8856606,59.1615281 C17.4576185,59.1615281 17.1108501,58.8208886 17.1108501,58.4004119 C17.1108501,57.9799351 17.4576185,57.6403603 17.8856606,57.6403603 C18.3137028,57.6403603 18.6593875,57.9799351 18.6593875,58.4004119" id="Path"></path>
                                <path d="M27.042512,58.4004119 C27.042512,58.8208886 26.69466,59.1615281 26.2677015,59.1615281 C25.8396594,59.1615281 25.4939746,58.8208886 25.4939746,58.4004119 C25.4939746,57.9799351 25.8396594,57.6403603 26.2677015,57.6403603 C26.69466,57.6403603 27.042512,57.9799351 27.042512,58.4004119" id="Path"></path>
                                <path d="M35.4245529,58.4004119 C35.4245529,58.8208886 35.0777846,59.1615281 34.6497424,59.1615281 C34.2227839,59.1615281 33.8760156,58.8208886 33.8760156,58.4004119 C33.8760156,57.9799351 34.2227839,57.6403603 34.6497424,57.6403603 C35.0777846,57.6403603 35.4245529,57.9799351 35.4245529,58.4004119" id="Path"></path>
                                <path d="M43.8065939,58.4004119 C43.8065939,58.8208886 43.4598255,59.1615281 43.032867,59.1615281 C42.6048247,59.1615281 42.2580565,58.8208886 42.2580565,58.4004119 C42.2580565,57.9799351 42.6048247,57.6403603 43.032867,57.6403603 C43.4598255,57.6403603 43.8065939,57.9799351 43.8065939,58.4004119" id="Path"></path>
                                <path d="M52.1886347,58.4004119 C52.1886347,58.8208886 51.8418664,59.1615281 51.4149079,59.1615281 C50.9868658,59.1615281 50.6400974,58.8208886 50.6400974,58.4004119 C50.6400974,57.9799351 50.9868658,57.6403603 51.4149079,57.6403603 C51.8418664,57.6403603 52.1886347,57.9799351 52.1886347,58.4004119" id="Path"></path>
                                <path d="M60.5706756,58.4004119 C60.5706756,58.8208886 60.2249909,59.1615281 59.7969487,59.1615281 C59.3699903,59.1615281 59.0221382,58.8208886 59.0221382,58.4004119 C59.0221382,57.9799351 59.3699903,57.6403603 59.7969487,57.6403603 C60.2249909,57.6403603 60.5706756,57.9799351 60.5706756,58.4004119" id="Path"></path>
                                <path d="M68.9538001,58.4004119 C68.9538001,58.8208886 68.6070319,59.1615281 68.1789896,59.1615281 C67.7509475,59.1615281 67.4052627,58.8208886 67.4052627,58.4004119 C67.4052627,57.9799351 67.7509475,57.6403603 68.1789896,57.6403603 C68.6070319,57.6403603 68.9538001,57.9799351 68.9538001,58.4004119" id="Path"></path>
                                <path d="M77.335841,58.4004119 C77.335841,58.8208886 76.9890727,59.1615281 76.5610305,59.1615281 C76.134072,59.1615281 75.7873037,58.8208886 75.7873037,58.4004119 C75.7873037,57.9799351 76.134072,57.6403603 76.5610305,57.6403603 C76.9890727,57.6403603 77.335841,57.9799351 77.335841,58.4004119" id="Path"></path>
                                <path d="M1.89530569,64.8438193 C1.89530569,65.2632315 1.54853735,65.6038709 1.12049519,65.6038709 C0.693536674,65.6038709 0.346768337,65.2632315 0.346768337,64.8438193 C0.346768337,64.4233425 0.693536674,64.082703 1.12049519,64.082703 C1.54853735,64.082703 1.89530569,64.4233425 1.89530569,64.8438193" id="Path"></path>
                                <path d="M10.2773466,64.8438193 C10.2773466,65.2632315 9.93057825,65.6038709 9.50361974,65.6038709 C9.07557757,65.6038709 8.72880924,65.2632315 8.72880924,64.8438193 C8.72880924,64.4233425 9.07557757,64.082703 9.50361974,64.082703 C9.93057825,64.082703 10.2773466,64.4233425 10.2773466,64.8438193" id="Path"></path>
                                <path d="M18.6593875,64.8438193 C18.6593875,65.2632315 18.3137028,65.6038709 17.8856606,65.6038709 C17.4576185,65.6038709 17.1108501,65.2632315 17.1108501,64.8438193 C17.1108501,64.4233425 17.4576185,64.082703 17.8856606,64.082703 C18.3137028,64.082703 18.6593875,64.4233425 18.6593875,64.8438193" id="Path"></path>
                                <path d="M27.042512,64.8438193 C27.042512,65.2632315 26.69466,65.6038709 26.2677015,65.6038709 C25.8396594,65.6038709 25.4939746,65.2632315 25.4939746,64.8438193 C25.4939746,64.4233425 25.8396594,64.082703 26.2677015,64.082703 C26.69466,64.082703 27.042512,64.4233425 27.042512,64.8438193" id="Path"></path>
                                <path d="M35.4245529,64.8438193 C35.4245529,65.2632315 35.0777846,65.6038709 34.6497424,65.6038709 C34.2227839,65.6038709 33.8760156,65.2632315 33.8760156,64.8438193 C33.8760156,64.4233425 34.2227839,64.082703 34.6497424,64.082703 C35.0777846,64.082703 35.4245529,64.4233425 35.4245529,64.8438193" id="Path"></path>
                                <path d="M43.8065939,64.8438193 C43.8065939,65.2632315 43.4598255,65.6038709 43.032867,65.6038709 C42.6048247,65.6038709 42.2580565,65.2632315 42.2580565,64.8438193 C42.2580565,64.4233425 42.6048247,64.082703 43.032867,64.082703 C43.4598255,64.082703 43.8065939,64.4233425 43.8065939,64.8438193" id="Path"></path>
                                <path d="M52.1886347,64.8438193 C52.1886347,65.2632315 51.8418664,65.6038709 51.4149079,65.6038709 C50.9868658,65.6038709 50.6400974,65.2632315 50.6400974,64.8438193 C50.6400974,64.4233425 50.9868658,64.082703 51.4149079,64.082703 C51.8418664,64.082703 52.1886347,64.4233425 52.1886347,64.8438193" id="Path"></path>
                                <path d="M60.5706756,64.8438193 C60.5706756,65.2632315 60.2249909,65.6038709 59.7969487,65.6038709 C59.3699903,65.6038709 59.0221382,65.2632315 59.0221382,64.8438193 C59.0221382,64.4233425 59.3699903,64.082703 59.7969487,64.082703 C60.2249909,64.082703 60.5706756,64.4233425 60.5706756,64.8438193" id="Path"></path>
                                <path d="M68.9538001,64.8438193 C68.9538001,65.2632315 68.6070319,65.6038709 68.1789896,65.6038709 C67.7509475,65.6038709 67.4052627,65.2632315 67.4052627,64.8438193 C67.4052627,64.4233425 67.7509475,64.082703 68.1789896,64.082703 C68.6070319,64.082703 68.9538001,64.4233425 68.9538001,64.8438193" id="Path"></path>
                                <path d="M77.335841,64.8438193 C77.335841,65.2632315 76.9890727,65.6038709 76.5610305,65.6038709 C76.134072,65.6038709 75.7873037,65.2632315 75.7873037,64.8438193 C75.7873037,64.4233425 76.134072,64.082703 76.5610305,64.082703 C76.9890727,64.082703 77.335841,64.4233425 77.335841,64.8438193" id="Path"></path>
                                <path d="M1.89530569,71.286162 C1.89530569,71.7066388 1.54853735,72.0472783 1.12049519,72.0472783 C0.693536674,72.0472783 0.346768337,71.7066388 0.346768337,71.286162 C0.346768337,70.8667498 0.693536674,70.5261104 1.12049519,70.5261104 C1.54853735,70.5261104 1.89530569,70.8667498 1.89530569,71.286162" id="Path"></path>
                                <path d="M10.2773466,71.286162 C10.2773466,71.7066388 9.93057825,72.0472783 9.50361974,72.0472783 C9.07557757,72.0472783 8.72880924,71.7066388 8.72880924,71.286162 C8.72880924,70.8667498 9.07557757,70.5261104 9.50361974,70.5261104 C9.93057825,70.5261104 10.2773466,70.8667498 10.2773466,71.286162" id="Path"></path>
                                <path d="M18.6593875,71.286162 C18.6593875,71.7066388 18.3137028,72.0472783 17.8856606,72.0472783 C17.4576185,72.0472783 17.1108501,71.7066388 17.1108501,71.286162 C17.1108501,70.8667498 17.4576185,70.5261104 17.8856606,70.5261104 C18.3137028,70.5261104 18.6593875,70.8667498 18.6593875,71.286162" id="Path"></path>
                                <path d="M27.042512,71.286162 C27.042512,71.7066388 26.69466,72.0472783 26.2677015,72.0472783 C25.8396594,72.0472783 25.4939746,71.7066388 25.4939746,71.286162 C25.4939746,70.8667498 25.8396594,70.5261104 26.2677015,70.5261104 C26.69466,70.5261104 27.042512,70.8667498 27.042512,71.286162" id="Path"></path>
                                <path d="M35.4245529,71.286162 C35.4245529,71.7066388 35.0777846,72.0472783 34.6497424,72.0472783 C34.2227839,72.0472783 33.8760156,71.7066388 33.8760156,71.286162 C33.8760156,70.8667498 34.2227839,70.5261104 34.6497424,70.5261104 C35.0777846,70.5261104 35.4245529,70.8667498 35.4245529,71.286162" id="Path"></path>
                                <path d="M43.8065939,71.286162 C43.8065939,71.7066388 43.4598255,72.0472783 43.032867,72.0472783 C42.6048247,72.0472783 42.2580565,71.7066388 42.2580565,71.286162 C42.2580565,70.8667498 42.6048247,70.5261104 43.032867,70.5261104 C43.4598255,70.5261104 43.8065939,70.8667498 43.8065939,71.286162" id="Path"></path>
                                <path d="M52.1886347,71.286162 C52.1886347,71.7066388 51.8418664,72.0472783 51.4149079,72.0472783 C50.9868658,72.0472783 50.6400974,71.7066388 50.6400974,71.286162 C50.6400974,70.8667498 50.9868658,70.5261104 51.4149079,70.5261104 C51.8418664,70.5261104 52.1886347,70.8667498 52.1886347,71.286162" id="Path"></path>
                                <path d="M60.5706756,71.286162 C60.5706756,71.7066388 60.2249909,72.0472783 59.7969487,72.0472783 C59.3699903,72.0472783 59.0221382,71.7066388 59.0221382,71.286162 C59.0221382,70.8667498 59.3699903,70.5261104 59.7969487,70.5261104 C60.2249909,70.5261104 60.5706756,70.8667498 60.5706756,71.286162" id="Path"></path>
                                <path d="M68.9538001,71.286162 C68.9538001,71.7066388 68.6070319,72.0472783 68.1789896,72.0472783 C67.7509475,72.0472783 67.4052627,71.7066388 67.4052627,71.286162 C67.4052627,70.8667498 67.7509475,70.5261104 68.1789896,70.5261104 C68.6070319,70.5261104 68.9538001,70.8667498 68.9538001,71.286162" id="Path"></path>
                                <path d="M77.335841,71.286162 C77.335841,71.7066388 76.9890727,72.0472783 76.5610305,72.0472783 C76.134072,72.0472783 75.7873037,71.7066388 75.7873037,71.286162 C75.7873037,70.8667498 76.134072,70.5261104 76.5610305,70.5261104 C76.9890727,70.5261104 77.335841,70.8667498 77.335841,71.286162" id="Path"></path>
                                <path d="M1.89530569,77.7295694 C1.89530569,78.1500461 1.54853735,78.4906855 1.12049519,78.4906855 C0.693536674,78.4906855 0.346768337,78.1500461 0.346768337,77.7295694 C0.346768337,77.3090926 0.693536674,76.9695176 1.12049519,76.9695176 C1.54853735,76.9695176 1.89530569,77.3090926 1.89530569,77.7295694" id="Path"></path>
                                <path d="M10.2773466,77.7295694 C10.2773466,78.1500461 9.93057825,78.4906855 9.50361974,78.4906855 C9.07557757,78.4906855 8.72880924,78.1500461 8.72880924,77.7295694 C8.72880924,77.3090926 9.07557757,76.9695176 9.50361974,76.9695176 C9.93057825,76.9695176 10.2773466,77.3090926 10.2773466,77.7295694" id="Path"></path>
                                <path d="M18.6593875,77.7295694 C18.6593875,78.1500461 18.3137028,78.4906855 17.8856606,78.4906855 C17.4576185,78.4906855 17.1108501,78.1500461 17.1108501,77.7295694 C17.1108501,77.3090926 17.4576185,76.9695176 17.8856606,76.9695176 C18.3137028,76.9695176 18.6593875,77.3090926 18.6593875,77.7295694" id="Path"></path>
                                <path d="M27.042512,77.7295694 C27.042512,78.1500461 26.69466,78.4906855 26.2677015,78.4906855 C25.8396594,78.4906855 25.4939746,78.1500461 25.4939746,77.7295694 C25.4939746,77.3090926 25.8396594,76.9695176 26.2677015,76.9695176 C26.69466,76.9695176 27.042512,77.3090926 27.042512,77.7295694" id="Path"></path>
                                <path d="M35.4245529,77.7295694 C35.4245529,78.1500461 35.0777846,78.4906855 34.6497424,78.4906855 C34.2227839,78.4906855 33.8760156,78.1500461 33.8760156,77.7295694 C33.8760156,77.3090926 34.2227839,76.9695176 34.6497424,76.9695176 C35.0777846,76.9695176 35.4245529,77.3090926 35.4245529,77.7295694" id="Path"></path>
                                <path d="M43.8065939,77.7295694 C43.8065939,78.1500461 43.4598255,78.4906855 43.032867,78.4906855 C42.6048247,78.4906855 42.2580565,78.1500461 42.2580565,77.7295694 C42.2580565,77.3090926 42.6048247,76.9695176 43.032867,76.9695176 C43.4598255,76.9695176 43.8065939,77.3090926 43.8065939,77.7295694" id="Path"></path>
                                <path d="M52.1886347,77.7295694 C52.1886347,78.1500461 51.8418664,78.4906855 51.4149079,78.4906855 C50.9868658,78.4906855 50.6400974,78.1500461 50.6400974,77.7295694 C50.6400974,77.3090926 50.9868658,76.9695176 51.4149079,76.9695176 C51.8418664,76.9695176 52.1886347,77.3090926 52.1886347,77.7295694" id="Path"></path>
                                <path d="M60.5706756,77.7295694 C60.5706756,78.1500461 60.2249909,78.4906855 59.7969487,78.4906855 C59.3699903,78.4906855 59.0221382,78.1500461 59.0221382,77.7295694 C59.0221382,77.3090926 59.3699903,76.9695176 59.7969487,76.9695176 C60.2249909,76.9695176 60.5706756,77.3090926 60.5706756,77.7295694" id="Path"></path>
                                <path d="M68.9538001,77.7295694 C68.9538001,78.1500461 68.6070319,78.4906855 68.1789896,78.4906855 C67.7509475,78.4906855 67.4052627,78.1500461 67.4052627,77.7295694 C67.4052627,77.3090926 67.7509475,76.9695176 68.1789896,76.9695176 C68.6070319,76.9695176 68.9538001,77.3090926 68.9538001,77.7295694" id="Path"></path>
                                <path d="M77.335841,77.7295694 C77.335841,78.1500461 76.9890727,78.4906855 76.5610305,78.4906855 C76.134072,78.4906855 75.7873037,78.1500461 75.7873037,77.7295694 C75.7873037,77.3090926 76.134072,76.9695176 76.5610305,76.9695176 C76.9890727,76.9695176 77.335841,77.3090926 77.335841,77.7295694" id="Path"></path>
                                <path d="M1.89530569,84.1729766 C1.89530569,84.5923889 1.54853735,84.9340929 1.12049519,84.9340929 C0.693536674,84.9340929 0.346768337,84.5923889 0.346768337,84.1729766 C0.346768337,83.7524999 0.693536674,83.412925 1.12049519,83.412925 C1.54853735,83.412925 1.89530569,83.7524999 1.89530569,84.1729766" id="Path"></path>
                                <path d="M10.2773466,84.1729766 C10.2773466,84.5923889 9.93057825,84.9340929 9.50361974,84.9340929 C9.07557757,84.9340929 8.72880924,84.5923889 8.72880924,84.1729766 C8.72880924,83.7524999 9.07557757,83.412925 9.50361974,83.412925 C9.93057825,83.412925 10.2773466,83.7524999 10.2773466,84.1729766" id="Path"></path>
                                <path d="M18.6593875,84.1729766 C18.6593875,84.5923889 18.3137028,84.9340929 17.8856606,84.9340929 C17.4576185,84.9340929 17.1108501,84.5923889 17.1108501,84.1729766 C17.1108501,83.7524999 17.4576185,83.412925 17.8856606,83.412925 C18.3137028,83.412925 18.6593875,83.7524999 18.6593875,84.1729766" id="Path"></path>
                                <path d="M27.042512,84.1729766 C27.042512,84.5923889 26.69466,84.9340929 26.2677015,84.9340929 C25.8396594,84.9340929 25.4939746,84.5923889 25.4939746,84.1729766 C25.4939746,83.7524999 25.8396594,83.412925 26.2677015,83.412925 C26.69466,83.412925 27.042512,83.7524999 27.042512,84.1729766" id="Path"></path>
                                <path d="M35.4245529,84.1729766 C35.4245529,84.5923889 35.0777846,84.9340929 34.6497424,84.9340929 C34.2227839,84.9340929 33.8760156,84.5923889 33.8760156,84.1729766 C33.8760156,83.7524999 34.2227839,83.412925 34.6497424,83.412925 C35.0777846,83.412925 35.4245529,83.7524999 35.4245529,84.1729766" id="Path"></path>
                                <path d="M43.8065939,84.1729766 C43.8065939,84.5923889 43.4598255,84.9340929 43.032867,84.9340929 C42.6048247,84.9340929 42.2580565,84.5923889 42.2580565,84.1729766 C42.2580565,83.7524999 42.6048247,83.412925 43.032867,83.412925 C43.4598255,83.412925 43.8065939,83.7524999 43.8065939,84.1729766" id="Path"></path>
                                <path d="M52.1886347,84.1729766 C52.1886347,84.5923889 51.8418664,84.9340929 51.4149079,84.9340929 C50.9868658,84.9340929 50.6400974,84.5923889 50.6400974,84.1729766 C50.6400974,83.7524999 50.9868658,83.412925 51.4149079,83.412925 C51.8418664,83.412925 52.1886347,83.7524999 52.1886347,84.1729766" id="Path"></path>
                                <path d="M60.5706756,84.1729766 C60.5706756,84.5923889 60.2249909,84.9340929 59.7969487,84.9340929 C59.3699903,84.9340929 59.0221382,84.5923889 59.0221382,84.1729766 C59.0221382,83.7524999 59.3699903,83.412925 59.7969487,83.412925 C60.2249909,83.412925 60.5706756,83.7524999 60.5706756,84.1729766" id="Path"></path>
                                <path d="M68.9538001,84.1729766 C68.9538001,84.5923889 68.6070319,84.9340929 68.1789896,84.9340929 C67.7509475,84.9340929 67.4052627,84.5923889 67.4052627,84.1729766 C67.4052627,83.7524999 67.7509475,83.412925 68.1789896,83.412925 C68.6070319,83.412925 68.9538001,83.7524999 68.9538001,84.1729766" id="Path"></path>
                                <path d="M77.335841,84.1729766 C77.335841,84.5923889 76.9890727,84.9340929 76.5610305,84.9340929 C76.134072,84.9340929 75.7873037,84.5923889 75.7873037,84.1729766 C75.7873037,83.7524999 76.134072,83.412925 76.5610305,83.412925 C76.9890727,83.412925 77.335841,83.7524999 77.335841,84.1729766" id="Path"></path>
                                <path d="M1.89530569,90.6153195 C1.89530569,91.0357963 1.54853735,91.3764356 1.12049519,91.3764356 C0.693536674,91.3764356 0.346768337,91.0357963 0.346768337,90.6153195 C0.346768337,90.1959071 0.693536674,89.8552678 1.12049519,89.8552678 C1.54853735,89.8552678 1.89530569,90.1959071 1.89530569,90.6153195" id="Path"></path>
                                <path d="M10.2773466,90.6153195 C10.2773466,91.0357963 9.93057825,91.3764356 9.50361974,91.3764356 C9.07557757,91.3764356 8.72880924,91.0357963 8.72880924,90.6153195 C8.72880924,90.1959071 9.07557757,89.8552678 9.50361974,89.8552678 C9.93057825,89.8552678 10.2773466,90.1959071 10.2773466,90.6153195" id="Path"></path>
                                <path d="M18.6593875,90.6153195 C18.6593875,91.0357963 18.3137028,91.3764356 17.8856606,91.3764356 C17.4576185,91.3764356 17.1108501,91.0357963 17.1108501,90.6153195 C17.1108501,90.1959071 17.4576185,89.8552678 17.8856606,89.8552678 C18.3137028,89.8552678 18.6593875,90.1959071 18.6593875,90.6153195" id="Path"></path>
                                <path d="M27.042512,90.6153195 C27.042512,91.0357963 26.69466,91.3764356 26.2677015,91.3764356 C25.8396594,91.3764356 25.4939746,91.0357963 25.4939746,90.6153195 C25.4939746,90.1959071 25.8396594,89.8552678 26.2677015,89.8552678 C26.69466,89.8552678 27.042512,90.1959071 27.042512,90.6153195" id="Path"></path>
                                <path d="M35.4245529,90.6153195 C35.4245529,91.0357963 35.0777846,91.3764356 34.6497424,91.3764356 C34.2227839,91.3764356 33.8760156,91.0357963 33.8760156,90.6153195 C33.8760156,90.1959071 34.2227839,89.8552678 34.6497424,89.8552678 C35.0777846,89.8552678 35.4245529,90.1959071 35.4245529,90.6153195" id="Path"></path>
                                <path d="M43.8065939,90.6153195 C43.8065939,91.0357963 43.4598255,91.3764356 43.032867,91.3764356 C42.6048247,91.3764356 42.2580565,91.0357963 42.2580565,90.6153195 C42.2580565,90.1959071 42.6048247,89.8552678 43.032867,89.8552678 C43.4598255,89.8552678 43.8065939,90.1959071 43.8065939,90.6153195" id="Path"></path>
                                <path d="M52.1886347,90.6153195 C52.1886347,91.0357963 51.8418664,91.3764356 51.4149079,91.3764356 C50.9868658,91.3764356 50.6400974,91.0357963 50.6400974,90.6153195 C50.6400974,90.1959071 50.9868658,89.8552678 51.4149079,89.8552678 C51.8418664,89.8552678 52.1886347,90.1959071 52.1886347,90.6153195" id="Path"></path>
                                <path d="M60.5706756,90.6153195 C60.5706756,91.0357963 60.2249909,91.3764356 59.7969487,91.3764356 C59.3699903,91.3764356 59.0221382,91.0357963 59.0221382,90.6153195 C59.0221382,90.1959071 59.3699903,89.8552678 59.7969487,89.8552678 C60.2249909,89.8552678 60.5706756,90.1959071 60.5706756,90.6153195" id="Path"></path>
                                <path d="M68.9538001,90.6153195 C68.9538001,91.0357963 68.6070319,91.3764356 68.1789896,91.3764356 C67.7509475,91.3764356 67.4052627,91.0357963 67.4052627,90.6153195 C67.4052627,90.1959071 67.7509475,89.8552678 68.1789896,89.8552678 C68.6070319,89.8552678 68.9538001,90.1959071 68.9538001,90.6153195" id="Path"></path>
                                <path d="M77.335841,90.6153195 C77.335841,91.0357963 76.9890727,91.3764356 76.5610305,91.3764356 C76.134072,91.3764356 75.7873037,91.0357963 75.7873037,90.6153195 C75.7873037,90.1959071 76.134072,89.8552678 76.5610305,89.8552678 C76.9890727,89.8552678 77.335841,90.1959071 77.335841,90.6153195" id="Path"></path>
                                <path d="M1.89530569,97.0587268 C1.89530569,97.4792035 1.54853735,97.8198429 1.12049519,97.8198429 C0.693536674,97.8198429 0.346768337,97.4792035 0.346768337,97.0587268 C0.346768337,96.63825 0.693536674,96.2986751 1.12049519,96.2986751 C1.54853735,96.2986751 1.89530569,96.63825 1.89530569,97.0587268" id="Path"></path>
                                <path d="M10.2773466,97.0587268 C10.2773466,97.4792035 9.93057825,97.8198429 9.50361974,97.8198429 C9.07557757,97.8198429 8.72880924,97.4792035 8.72880924,97.0587268 C8.72880924,96.63825 9.07557757,96.2986751 9.50361974,96.2986751 C9.93057825,96.2986751 10.2773466,96.63825 10.2773466,97.0587268" id="Path"></path>
                                <path d="M18.6593875,97.0587268 C18.6593875,97.4792035 18.3137028,97.8198429 17.8856606,97.8198429 C17.4576185,97.8198429 17.1108501,97.4792035 17.1108501,97.0587268 C17.1108501,96.63825 17.4576185,96.2986751 17.8856606,96.2986751 C18.3137028,96.2986751 18.6593875,96.63825 18.6593875,97.0587268" id="Path"></path>
                                <path d="M27.042512,97.0587268 C27.042512,97.4792035 26.69466,97.8198429 26.2677015,97.8198429 C25.8396594,97.8198429 25.4939746,97.4792035 25.4939746,97.0587268 C25.4939746,96.63825 25.8396594,96.2986751 26.2677015,96.2986751 C26.69466,96.2986751 27.042512,96.63825 27.042512,97.0587268" id="Path"></path>
                                <path d="M35.4245529,97.0587268 C35.4245529,97.4792035 35.0777846,97.8198429 34.6497424,97.8198429 C34.2227839,97.8198429 33.8760156,97.4792035 33.8760156,97.0587268 C33.8760156,96.63825 34.2227839,96.2986751 34.6497424,96.2986751 C35.0777846,96.2986751 35.4245529,96.63825 35.4245529,97.0587268" id="Path"></path>
                                <path d="M43.8065939,97.0587268 C43.8065939,97.4792035 43.4598255,97.8198429 43.032867,97.8198429 C42.6048247,97.8198429 42.2580565,97.4792035 42.2580565,97.0587268 C42.2580565,96.63825 42.6048247,96.2986751 43.032867,96.2986751 C43.4598255,96.2986751 43.8065939,96.63825 43.8065939,97.0587268" id="Path"></path>
                                <path d="M52.1886347,97.0587268 C52.1886347,97.4792035 51.8418664,97.8198429 51.4149079,97.8198429 C50.9868658,97.8198429 50.6400974,97.4792035 50.6400974,97.0587268 C50.6400974,96.63825 50.9868658,96.2986751 51.4149079,96.2986751 C51.8418664,96.2986751 52.1886347,96.63825 52.1886347,97.0587268" id="Path"></path>
                                <path d="M60.5706756,97.0587268 C60.5706756,97.4792035 60.2249909,97.8198429 59.7969487,97.8198429 C59.3699903,97.8198429 59.0221382,97.4792035 59.0221382,97.0587268 C59.0221382,96.63825 59.3699903,96.2986751 59.7969487,96.2986751 C60.2249909,96.2986751 60.5706756,96.63825 60.5706756,97.0587268" id="Path"></path>
                                <path d="M68.9538001,97.0587268 C68.9538001,97.4792035 68.6070319,97.8198429 68.1789896,97.8198429 C67.7509475,97.8198429 67.4052627,97.4792035 67.4052627,97.0587268 C67.4052627,96.63825 67.7509475,96.2986751 68.1789896,96.2986751 C68.6070319,96.2986751 68.9538001,96.63825 68.9538001,97.0587268" id="Path"></path>
                                <path d="M77.335841,97.0587268 C77.335841,97.4792035 76.9890727,97.8198429 76.5610305,97.8198429 C76.134072,97.8198429 75.7873037,97.4792035 75.7873037,97.0587268 C75.7873037,96.63825 76.134072,96.2986751 76.5610305,96.2986751 C76.9890727,96.2986751 77.335841,96.63825 77.335841,97.0587268" id="Path"></path>
                            </g>
                            <g id="Group" opacity="0.300003" transform="translate(20.285947, 68.210131)" fill="#FFC916">
                                <path d="M2.33934874,0.994130213 C2.33934874,1.45388291 1.97308706,1.82715833 1.52197299,1.82715833 C1.0708589,1.82715833 0.704597232,1.45388291 0.704597232,0.994130213 C0.704597232,0.5343775 1.0708589,0.162196738 1.52197299,0.162196738 C1.97308706,0.162196738 2.33934874,0.5343775 2.33934874,0.994130213" id="Path"></path>
                                <path d="M11.1833329,0.994130213 C11.1833329,1.45388291 10.8181453,1.82715833 10.3659571,1.82715833 C9.91484307,1.82715833 9.5485814,1.45388291 9.5485814,0.994130213 C9.5485814,0.5343775 9.91484307,0.162196738 10.3659571,0.162196738 C10.8181453,0.162196738 11.1833329,0.5343775 11.1833329,0.994130213" id="Path"></path>
                                <path d="M20.0273171,0.994130213 C20.0273171,1.45388291 19.6621295,1.82715833 19.2099414,1.82715833 C18.7599014,1.82715833 18.3936396,1.45388291 18.3936396,0.994130213 C18.3936396,0.5343775 18.7599014,0.162196738 19.2099414,0.162196738 C19.6621295,0.162196738 20.0273171,0.5343775 20.0273171,0.994130213" id="Path"></path>
                                <path d="M28.8713013,0.994130213 C28.8713013,1.45388291 28.5061136,1.82715833 28.0549996,1.82715833 C27.6038855,1.82715833 27.2376239,1.45388291 27.2376239,0.994130213 C27.2376239,0.5343775 27.6038855,0.162196738 28.0549996,0.162196738 C28.5061136,0.162196738 28.8713013,0.5343775 28.8713013,0.994130213" id="Path"></path>
                                <path d="M37.7163595,0.994130213 C37.7163595,1.45388291 37.3500979,1.82715833 36.8989837,1.82715833 C36.4478696,1.82715833 36.0826821,1.45388291 36.0826821,0.994130213 C36.0826821,0.5343775 36.4478696,0.162196738 36.8989837,0.162196738 C37.3500979,0.162196738 37.7163595,0.5343775 37.7163595,0.994130213" id="Path"></path>
                                <path d="M46.5603436,0.994130213 C46.5603436,1.45388291 46.1951561,1.82715833 45.7429679,1.82715833 C45.2929279,1.82715833 44.9266662,1.45388291 44.9266662,0.994130213 C44.9266662,0.5343775 45.2929279,0.162196738 45.7429679,0.162196738 C46.1951561,0.162196738 46.5603436,0.5343775 46.5603436,0.994130213" id="Path"></path>
                                <path d="M55.4043279,0.994130213 C55.4043279,1.45388291 55.0391402,1.82715833 54.5880261,1.82715833 C54.1369121,1.82715833 53.7706504,1.45388291 53.7706504,0.994130213 C53.7706504,0.5343775 54.1369121,0.162196738 54.5880261,0.162196738 C55.0391402,0.162196738 55.4043279,0.5343775 55.4043279,0.994130213" id="Path"></path>
                                <path d="M64.2493861,0.994130213 C64.2493861,1.45388291 63.8831244,1.82715833 63.4320104,1.82715833 C62.9808962,1.82715833 62.6157086,1.45388291 62.6157086,0.994130213 C62.6157086,0.5343775 62.9808962,0.162196738 63.4320104,0.162196738 C63.8831244,0.162196738 64.2493861,0.5343775 64.2493861,0.994130213" id="Path"></path>
                                <path d="M73.0933703,0.994130213 C73.0933703,1.45388291 72.7281826,1.82715833 72.2759945,1.82715833 C71.8259545,1.82715833 71.4596929,1.45388291 71.4596929,0.994130213 C71.4596929,0.5343775 71.8259545,0.162196738 72.2759945,0.162196738 C72.7281826,0.162196738 73.0933703,0.5343775 73.0933703,0.994130213" id="Path"></path>
                                <path d="M81.9373544,0.994130213 C81.9373544,1.45388291 81.5721669,1.82715833 81.1210528,1.82715833 C80.6699386,1.82715833 80.303677,1.45388291 80.303677,0.994130213 C80.303677,0.5343775 80.6699386,0.162196738 81.1210528,0.162196738 C81.5721669,0.162196738 81.9373544,0.5343775 81.9373544,0.994130213" id="Path"></path>
                                <path d="M2.33934874,8.04805031 C2.33934874,8.50670838 1.97308706,8.87998379 1.52197299,8.87998379 C1.0708589,8.87998379 0.704597232,8.50670838 0.704597232,8.04805031 C0.704597232,7.5882976 1.0708589,7.21502219 1.52197299,7.21502219 C1.97308706,7.21502219 2.33934874,7.5882976 2.33934874,8.04805031" id="Path"></path>
                                <path d="M11.1833329,8.04805031 C11.1833329,8.50670838 10.8181453,8.87998379 10.3659571,8.87998379 C9.91484307,8.87998379 9.5485814,8.50670838 9.5485814,8.04805031 C9.5485814,7.5882976 9.91484307,7.21502219 10.3659571,7.21502219 C10.8181453,7.21502219 11.1833329,7.5882976 11.1833329,8.04805031" id="Path"></path>
                                <path d="M20.0273171,8.04805031 C20.0273171,8.50670838 19.6621295,8.87998379 19.2099414,8.87998379 C18.7599014,8.87998379 18.3936396,8.50670838 18.3936396,8.04805031 C18.3936396,7.5882976 18.7599014,7.21502219 19.2099414,7.21502219 C19.6621295,7.21502219 20.0273171,7.5882976 20.0273171,8.04805031" id="Path"></path>
                                <path d="M28.8713013,8.04805031 C28.8713013,8.50670838 28.5061136,8.87998379 28.0549996,8.87998379 C27.6038855,8.87998379 27.2376239,8.50670838 27.2376239,8.04805031 C27.2376239,7.5882976 27.6038855,7.21502219 28.0549996,7.21502219 C28.5061136,7.21502219 28.8713013,7.5882976 28.8713013,8.04805031" id="Path"></path>
                                <path d="M37.7163595,8.04805031 C37.7163595,8.50670838 37.3500979,8.87998379 36.8989837,8.87998379 C36.4478696,8.87998379 36.0826821,8.50670838 36.0826821,8.04805031 C36.0826821,7.5882976 36.4478696,7.21502219 36.8989837,7.21502219 C37.3500979,7.21502219 37.7163595,7.5882976 37.7163595,8.04805031" id="Path"></path>
                                <path d="M46.5603436,8.04805031 C46.5603436,8.50670838 46.1951561,8.87998379 45.7429679,8.87998379 C45.2929279,8.87998379 44.9266662,8.50670838 44.9266662,8.04805031 C44.9266662,7.5882976 45.2929279,7.21502219 45.7429679,7.21502219 C46.1951561,7.21502219 46.5603436,7.5882976 46.5603436,8.04805031" id="Path"></path>
                                <path d="M55.4043279,8.04805031 C55.4043279,8.50670838 55.0391402,8.87998379 54.5880261,8.87998379 C54.1369121,8.87998379 53.7706504,8.50670838 53.7706504,8.04805031 C53.7706504,7.5882976 54.1369121,7.21502219 54.5880261,7.21502219 C55.0391402,7.21502219 55.4043279,7.5882976 55.4043279,8.04805031" id="Path"></path>
                                <path d="M64.2493861,8.04805031 C64.2493861,8.50670838 63.8831244,8.87998379 63.4320104,8.87998379 C62.9808962,8.87998379 62.6157086,8.50670838 62.6157086,8.04805031 C62.6157086,7.5882976 62.9808962,7.21502219 63.4320104,7.21502219 C63.8831244,7.21502219 64.2493861,7.5882976 64.2493861,8.04805031" id="Path"></path>
                                <path d="M73.0933703,8.04805031 C73.0933703,8.50670838 72.7281826,8.87998379 72.2759945,8.87998379 C71.8259545,8.87998379 71.4596929,8.50670838 71.4596929,8.04805031 C71.4596929,7.5882976 71.8259545,7.21502219 72.2759945,7.21502219 C72.7281826,7.21502219 73.0933703,7.5882976 73.0933703,8.04805031" id="Path"></path>
                                <path d="M81.9373544,8.04805031 C81.9373544,8.50670838 81.5721669,8.87998379 81.1210528,8.87998379 C80.6699386,8.87998379 80.303677,8.50670838 80.303677,8.04805031 C80.303677,7.5882976 80.6699386,7.21502219 81.1210528,7.21502219 C81.5721669,7.21502219 81.9373544,7.5882976 81.9373544,8.04805031" id="Path"></path>
                                <path d="M2.33934874,15.1008758 C2.33934874,15.5606285 1.97308706,15.9328093 1.52197299,15.9328093 C1.0708589,15.9328093 0.704597232,15.5606285 0.704597232,15.1008758 C0.704597232,14.641123 1.0708589,14.2678476 1.52197299,14.2678476 C1.97308706,14.2678476 2.33934874,14.641123 2.33934874,15.1008758" id="Path"></path>
                                <path d="M11.1833329,15.1008758 C11.1833329,15.5606285 10.8181453,15.9328093 10.3659571,15.9328093 C9.91484307,15.9328093 9.5485814,15.5606285 9.5485814,15.1008758 C9.5485814,14.641123 9.91484307,14.2678476 10.3659571,14.2678476 C10.8181453,14.2678476 11.1833329,14.641123 11.1833329,15.1008758" id="Path"></path>
                                <path d="M20.0273171,15.1008758 C20.0273171,15.5606285 19.6621295,15.9328093 19.2099414,15.9328093 C18.7599014,15.9328093 18.3936396,15.5606285 18.3936396,15.1008758 C18.3936396,14.641123 18.7599014,14.2678476 19.2099414,14.2678476 C19.6621295,14.2678476 20.0273171,14.641123 20.0273171,15.1008758" id="Path"></path>
                                <path d="M28.8713013,15.1008758 C28.8713013,15.5606285 28.5061136,15.9328093 28.0549996,15.9328093 C27.6038855,15.9328093 27.2376239,15.5606285 27.2376239,15.1008758 C27.2376239,14.641123 27.6038855,14.2678476 28.0549996,14.2678476 C28.5061136,14.2678476 28.8713013,14.641123 28.8713013,15.1008758" id="Path"></path>
                                <path d="M37.7163595,15.1008758 C37.7163595,15.5606285 37.3500979,15.9328093 36.8989837,15.9328093 C36.4478696,15.9328093 36.0826821,15.5606285 36.0826821,15.1008758 C36.0826821,14.641123 36.4478696,14.2678476 36.8989837,14.2678476 C37.3500979,14.2678476 37.7163595,14.641123 37.7163595,15.1008758" id="Path"></path>
                                <path d="M46.5603436,15.1008758 C46.5603436,15.5606285 46.1951561,15.9328093 45.7429679,15.9328093 C45.2929279,15.9328093 44.9266662,15.5606285 44.9266662,15.1008758 C44.9266662,14.641123 45.2929279,14.2678476 45.7429679,14.2678476 C46.1951561,14.2678476 46.5603436,14.641123 46.5603436,15.1008758" id="Path"></path>
                                <path d="M55.4043279,15.1008758 C55.4043279,15.5606285 55.0391402,15.9328093 54.5880261,15.9328093 C54.1369121,15.9328093 53.7706504,15.5606285 53.7706504,15.1008758 C53.7706504,14.641123 54.1369121,14.2678476 54.5880261,14.2678476 C55.0391402,14.2678476 55.4043279,14.641123 55.4043279,15.1008758" id="Path"></path>
                                <path d="M64.2493861,15.1008758 C64.2493861,15.5606285 63.8831244,15.9328093 63.4320104,15.9328093 C62.9808962,15.9328093 62.6157086,15.5606285 62.6157086,15.1008758 C62.6157086,14.641123 62.9808962,14.2678476 63.4320104,14.2678476 C63.8831244,14.2678476 64.2493861,14.641123 64.2493861,15.1008758" id="Path"></path>
                                <path d="M73.0933703,15.1008758 C73.0933703,15.5606285 72.7281826,15.9328093 72.2759945,15.9328093 C71.8259545,15.9328093 71.4596929,15.5606285 71.4596929,15.1008758 C71.4596929,14.641123 71.8259545,14.2678476 72.2759945,14.2678476 C72.7281826,14.2678476 73.0933703,14.641123 73.0933703,15.1008758" id="Path"></path>
                                <path d="M81.9373544,15.1008758 C81.9373544,15.5606285 81.5721669,15.9328093 81.1210528,15.9328093 C80.6699386,15.9328093 80.303677,15.5606285 80.303677,15.1008758 C80.303677,14.641123 80.6699386,14.2678476 81.1210528,14.2678476 C81.5721669,14.2678476 81.9373544,14.641123 81.9373544,15.1008758" id="Path"></path>
                                <path d="M2.33934874,22.1537013 C2.33934874,22.6134539 1.97308706,22.9867294 1.52197299,22.9867294 C1.0708589,22.9867294 0.704597232,22.6134539 0.704597232,22.1537013 C0.704597232,21.6939485 1.0708589,21.3206731 1.52197299,21.3206731 C1.97308706,21.3206731 2.33934874,21.6939485 2.33934874,22.1537013" id="Path"></path>
                                <path d="M11.1833329,22.1537013 C11.1833329,22.6134539 10.8181453,22.9867294 10.3659571,22.9867294 C9.91484307,22.9867294 9.5485814,22.6134539 9.5485814,22.1537013 C9.5485814,21.6939485 9.91484307,21.3206731 10.3659571,21.3206731 C10.8181453,21.3206731 11.1833329,21.6939485 11.1833329,22.1537013" id="Path"></path>
                                <path d="M20.0273171,22.1537013 C20.0273171,22.6134539 19.6621295,22.9867294 19.2099414,22.9867294 C18.7599014,22.9867294 18.3936396,22.6134539 18.3936396,22.1537013 C18.3936396,21.6939485 18.7599014,21.3206731 19.2099414,21.3206731 C19.6621295,21.3206731 20.0273171,21.6939485 20.0273171,22.1537013" id="Path"></path>
                                <path d="M28.8713013,22.1537013 C28.8713013,22.6134539 28.5061136,22.9867294 28.0549996,22.9867294 C27.6038855,22.9867294 27.2376239,22.6134539 27.2376239,22.1537013 C27.2376239,21.6939485 27.6038855,21.3206731 28.0549996,21.3206731 C28.5061136,21.3206731 28.8713013,21.6939485 28.8713013,22.1537013" id="Path"></path>
                                <path d="M37.7163595,22.1537013 C37.7163595,22.6134539 37.3500979,22.9867294 36.8989837,22.9867294 C36.4478696,22.9867294 36.0826821,22.6134539 36.0826821,22.1537013 C36.0826821,21.6939485 36.4478696,21.3206731 36.8989837,21.3206731 C37.3500979,21.3206731 37.7163595,21.6939485 37.7163595,22.1537013" id="Path"></path>
                                <path d="M46.5603436,22.1537013 C46.5603436,22.6134539 46.1951561,22.9867294 45.7429679,22.9867294 C45.2929279,22.9867294 44.9266662,22.6134539 44.9266662,22.1537013 C44.9266662,21.6939485 45.2929279,21.3206731 45.7429679,21.3206731 C46.1951561,21.3206731 46.5603436,21.6939485 46.5603436,22.1537013" id="Path"></path>
                                <path d="M55.4043279,22.1537013 C55.4043279,22.6134539 55.0391402,22.9867294 54.5880261,22.9867294 C54.1369121,22.9867294 53.7706504,22.6134539 53.7706504,22.1537013 C53.7706504,21.6939485 54.1369121,21.3206731 54.5880261,21.3206731 C55.0391402,21.3206731 55.4043279,21.6939485 55.4043279,22.1537013" id="Path"></path>
                                <path d="M64.2493861,22.1537013 C64.2493861,22.6134539 63.8831244,22.9867294 63.4320104,22.9867294 C62.9808962,22.9867294 62.6157086,22.6134539 62.6157086,22.1537013 C62.6157086,21.6939485 62.9808962,21.3206731 63.4320104,21.3206731 C63.8831244,21.3206731 64.2493861,21.6939485 64.2493861,22.1537013" id="Path"></path>
                                <path d="M73.0933703,22.1537013 C73.0933703,22.6134539 72.7281826,22.9867294 72.2759945,22.9867294 C71.8259545,22.9867294 71.4596929,22.6134539 71.4596929,22.1537013 C71.4596929,21.6939485 71.8259545,21.3206731 72.2759945,21.3206731 C72.7281826,21.3206731 73.0933703,21.6939485 73.0933703,22.1537013" id="Path"></path>
                                <path d="M81.9373544,22.1537013 C81.9373544,22.6134539 81.5721669,22.9867294 81.1210528,22.9867294 C80.6699386,22.9867294 80.303677,22.6134539 80.303677,22.1537013 C80.303677,21.6939485 80.6699386,21.3206731 81.1210528,21.3206731 C81.5721669,21.3206731 81.9373544,21.6939485 81.9373544,22.1537013" id="Path"></path>
                                <path d="M2.33934874,29.2076214 C2.33934874,29.6662794 1.97308706,30.0395547 1.52197299,30.0395547 C1.0708589,30.0395547 0.704597232,29.6662794 0.704597232,29.2076214 C0.704597232,28.746774 1.0708589,28.3734985 1.52197299,28.3734985 C1.97308706,28.3734985 2.33934874,28.746774 2.33934874,29.2076214" id="Path"></path>
                                <path d="M11.1833329,29.2076214 C11.1833329,29.6662794 10.8181453,30.0395547 10.3659571,30.0395547 C9.91484307,30.0395547 9.5485814,29.6662794 9.5485814,29.2076214 C9.5485814,28.746774 9.91484307,28.3734985 10.3659571,28.3734985 C10.8181453,28.3734985 11.1833329,28.746774 11.1833329,29.2076214" id="Path"></path>
                                <path d="M20.0273171,29.2076214 C20.0273171,29.6662794 19.6621295,30.0395547 19.2099414,30.0395547 C18.7599014,30.0395547 18.3936396,29.6662794 18.3936396,29.2076214 C18.3936396,28.746774 18.7599014,28.3734985 19.2099414,28.3734985 C19.6621295,28.3734985 20.0273171,28.746774 20.0273171,29.2076214" id="Path"></path>
                                <path d="M28.8713013,29.2076214 C28.8713013,29.6662794 28.5061136,30.0395547 28.0549996,30.0395547 C27.6038855,30.0395547 27.2376239,29.6662794 27.2376239,29.2076214 C27.2376239,28.746774 27.6038855,28.3734985 28.0549996,28.3734985 C28.5061136,28.3734985 28.8713013,28.746774 28.8713013,29.2076214" id="Path"></path>
                                <path d="M37.7163595,29.2076214 C37.7163595,29.6662794 37.3500979,30.0395547 36.8989837,30.0395547 C36.4478696,30.0395547 36.0826821,29.6662794 36.0826821,29.2076214 C36.0826821,28.746774 36.4478696,28.3734985 36.8989837,28.3734985 C37.3500979,28.3734985 37.7163595,28.746774 37.7163595,29.2076214" id="Path"></path>
                                <path d="M46.5603436,29.2076214 C46.5603436,29.6662794 46.1951561,30.0395547 45.7429679,30.0395547 C45.2929279,30.0395547 44.9266662,29.6662794 44.9266662,29.2076214 C44.9266662,28.746774 45.2929279,28.3734985 45.7429679,28.3734985 C46.1951561,28.3734985 46.5603436,28.746774 46.5603436,29.2076214" id="Path"></path>
                                <path d="M55.4043279,29.2076214 C55.4043279,29.6662794 55.0391402,30.0395547 54.5880261,30.0395547 C54.1369121,30.0395547 53.7706504,29.6662794 53.7706504,29.2076214 C53.7706504,28.746774 54.1369121,28.3734985 54.5880261,28.3734985 C55.0391402,28.3734985 55.4043279,28.746774 55.4043279,29.2076214" id="Path"></path>
                                <path d="M64.2493861,29.2076214 C64.2493861,29.6662794 63.8831244,30.0395547 63.4320104,30.0395547 C62.9808962,30.0395547 62.6157086,29.6662794 62.6157086,29.2076214 C62.6157086,28.746774 62.9808962,28.3734985 63.4320104,28.3734985 C63.8831244,28.3734985 64.2493861,28.746774 64.2493861,29.2076214" id="Path"></path>
                                <path d="M73.0933703,29.2076214 C73.0933703,29.6662794 72.7281826,30.0395547 72.2759945,30.0395547 C71.8259545,30.0395547 71.4596929,29.6662794 71.4596929,29.2076214 C71.4596929,28.746774 71.8259545,28.3734985 72.2759945,28.3734985 C72.7281826,28.3734985 73.0933703,28.746774 73.0933703,29.2076214" id="Path"></path>
                                <path d="M81.9373544,29.2076214 C81.9373544,29.6662794 81.5721669,30.0395547 81.1210528,30.0395547 C80.6699386,30.0395547 80.303677,29.6662794 80.303677,29.2076214 C80.303677,28.746774 80.6699386,28.3734985 81.1210528,28.3734985 C81.5721669,28.3734985 81.9373544,28.746774 81.9373544,29.2076214" id="Path"></path>
                                <path d="M2.33934874,36.2604468 C2.33934874,36.7201995 1.97308706,37.0934749 1.52197299,37.0934749 C1.0708589,37.0934749 0.704597232,36.7201995 0.704597232,36.2604468 C0.704597232,35.7995994 1.0708589,35.4274186 1.52197299,35.4274186 C1.97308706,35.4274186 2.33934874,35.7995994 2.33934874,36.2604468" id="Path"></path>
                                <path d="M11.1833329,36.2604468 C11.1833329,36.7201995 10.8181453,37.0934749 10.3659571,37.0934749 C9.91484307,37.0934749 9.5485814,36.7201995 9.5485814,36.2604468 C9.5485814,35.7995994 9.91484307,35.4274186 10.3659571,35.4274186 C10.8181453,35.4274186 11.1833329,35.7995994 11.1833329,36.2604468" id="Path"></path>
                                <path d="M20.0273171,36.2604468 C20.0273171,36.7201995 19.6621295,37.0934749 19.2099414,37.0934749 C18.7599014,37.0934749 18.3936396,36.7201995 18.3936396,36.2604468 C18.3936396,35.7995994 18.7599014,35.4274186 19.2099414,35.4274186 C19.6621295,35.4274186 20.0273171,35.7995994 20.0273171,36.2604468" id="Path"></path>
                                <path d="M28.8713013,36.2604468 C28.8713013,36.7201995 28.5061136,37.0934749 28.0549996,37.0934749 C27.6038855,37.0934749 27.2376239,36.7201995 27.2376239,36.2604468 C27.2376239,35.7995994 27.6038855,35.4274186 28.0549996,35.4274186 C28.5061136,35.4274186 28.8713013,35.7995994 28.8713013,36.2604468" id="Path"></path>
                                <path d="M37.7163595,36.2604468 C37.7163595,36.7201995 37.3500979,37.0934749 36.8989837,37.0934749 C36.4478696,37.0934749 36.0826821,36.7201995 36.0826821,36.2604468 C36.0826821,35.7995994 36.4478696,35.4274186 36.8989837,35.4274186 C37.3500979,35.4274186 37.7163595,35.7995994 37.7163595,36.2604468" id="Path"></path>
                                <path d="M46.5603436,36.2604468 C46.5603436,36.7201995 46.1951561,37.0934749 45.7429679,37.0934749 C45.2929279,37.0934749 44.9266662,36.7201995 44.9266662,36.2604468 C44.9266662,35.7995994 45.2929279,35.4274186 45.7429679,35.4274186 C46.1951561,35.4274186 46.5603436,35.7995994 46.5603436,36.2604468" id="Path"></path>
                                <path d="M55.4043279,36.2604468 C55.4043279,36.7201995 55.0391402,37.0934749 54.5880261,37.0934749 C54.1369121,37.0934749 53.7706504,36.7201995 53.7706504,36.2604468 C53.7706504,35.7995994 54.1369121,35.4274186 54.5880261,35.4274186 C55.0391402,35.4274186 55.4043279,35.7995994 55.4043279,36.2604468" id="Path"></path>
                                <path d="M64.2493861,36.2604468 C64.2493861,36.7201995 63.8831244,37.0934749 63.4320104,37.0934749 C62.9808962,37.0934749 62.6157086,36.7201995 62.6157086,36.2604468 C62.6157086,35.7995994 62.9808962,35.4274186 63.4320104,35.4274186 C63.8831244,35.4274186 64.2493861,35.7995994 64.2493861,36.2604468" id="Path"></path>
                                <path d="M73.0933703,36.2604468 C73.0933703,36.7201995 72.7281826,37.0934749 72.2759945,37.0934749 C71.8259545,37.0934749 71.4596929,36.7201995 71.4596929,36.2604468 C71.4596929,35.7995994 71.8259545,35.4274186 72.2759945,35.4274186 C72.7281826,35.4274186 73.0933703,35.7995994 73.0933703,36.2604468" id="Path"></path>
                                <path d="M81.9373544,36.2604468 C81.9373544,36.7201995 81.5721669,37.0934749 81.1210528,37.0934749 C80.6699386,37.0934749 80.303677,36.7201995 80.303677,36.2604468 C80.303677,35.7995994 80.6699386,35.4274186 81.1210528,35.4274186 C81.5721669,35.4274186 81.9373544,35.7995994 81.9373544,36.2604468" id="Path"></path>
                                <path d="M2.33934874,43.3132722 C2.33934874,43.773025 1.97308706,44.1463004 1.52197299,44.1463004 C1.0708589,44.1463004 0.704597232,43.773025 0.704597232,43.3132722 C0.704597232,42.8535195 1.0708589,42.4802441 1.52197299,42.4802441 C1.97308706,42.4802441 2.33934874,42.8535195 2.33934874,43.3132722" id="Path"></path>
                                <path d="M11.1833329,43.3132722 C11.1833329,43.773025 10.8181453,44.1463004 10.3659571,44.1463004 C9.91484307,44.1463004 9.5485814,43.773025 9.5485814,43.3132722 C9.5485814,42.8535195 9.91484307,42.4802441 10.3659571,42.4802441 C10.8181453,42.4802441 11.1833329,42.8535195 11.1833329,43.3132722" id="Path"></path>
                                <path d="M20.0273171,43.3132722 C20.0273171,43.773025 19.6621295,44.1463004 19.2099414,44.1463004 C18.7599014,44.1463004 18.3936396,43.773025 18.3936396,43.3132722 C18.3936396,42.8535195 18.7599014,42.4802441 19.2099414,42.4802441 C19.6621295,42.4802441 20.0273171,42.8535195 20.0273171,43.3132722" id="Path"></path>
                                <path d="M28.8713013,43.3132722 C28.8713013,43.773025 28.5061136,44.1463004 28.0549996,44.1463004 C27.6038855,44.1463004 27.2376239,43.773025 27.2376239,43.3132722 C27.2376239,42.8535195 27.6038855,42.4802441 28.0549996,42.4802441 C28.5061136,42.4802441 28.8713013,42.8535195 28.8713013,43.3132722" id="Path"></path>
                                <path d="M37.7163595,43.3132722 C37.7163595,43.773025 37.3500979,44.1463004 36.8989837,44.1463004 C36.4478696,44.1463004 36.0826821,43.773025 36.0826821,43.3132722 C36.0826821,42.8535195 36.4478696,42.4802441 36.8989837,42.4802441 C37.3500979,42.4802441 37.7163595,42.8535195 37.7163595,43.3132722" id="Path"></path>
                                <path d="M46.5603436,43.3132722 C46.5603436,43.773025 46.1951561,44.1463004 45.7429679,44.1463004 C45.2929279,44.1463004 44.9266662,43.773025 44.9266662,43.3132722 C44.9266662,42.8535195 45.2929279,42.4802441 45.7429679,42.4802441 C46.1951561,42.4802441 46.5603436,42.8535195 46.5603436,43.3132722" id="Path"></path>
                                <path d="M55.4043279,43.3132722 C55.4043279,43.773025 55.0391402,44.1463004 54.5880261,44.1463004 C54.1369121,44.1463004 53.7706504,43.773025 53.7706504,43.3132722 C53.7706504,42.8535195 54.1369121,42.4802441 54.5880261,42.4802441 C55.0391402,42.4802441 55.4043279,42.8535195 55.4043279,43.3132722" id="Path"></path>
                                <path d="M64.2493861,43.3132722 C64.2493861,43.773025 63.8831244,44.1463004 63.4320104,44.1463004 C62.9808962,44.1463004 62.6157086,43.773025 62.6157086,43.3132722 C62.6157086,42.8535195 62.9808962,42.4802441 63.4320104,42.4802441 C63.8831244,42.4802441 64.2493861,42.8535195 64.2493861,43.3132722" id="Path"></path>
                                <path d="M73.0933703,43.3132722 C73.0933703,43.773025 72.7281826,44.1463004 72.2759945,44.1463004 C71.8259545,44.1463004 71.4596929,43.773025 71.4596929,43.3132722 C71.4596929,42.8535195 71.8259545,42.4802441 72.2759945,42.4802441 C72.7281826,42.4802441 73.0933703,42.8535195 73.0933703,43.3132722" id="Path"></path>
                                <path d="M81.9373544,43.3132722 C81.9373544,43.773025 81.5721669,44.1463004 81.1210528,44.1463004 C80.6699386,44.1463004 80.303677,43.773025 80.303677,43.3132722 C80.303677,42.8535195 80.6699386,42.4802441 81.1210528,42.4802441 C81.5721669,42.4802441 81.9373544,42.8535195 81.9373544,43.3132722" id="Path"></path>
                                <path d="M2.33934874,50.3660977 C2.33934874,50.8258504 1.97308706,51.1991259 1.52197299,51.1991259 C1.0708589,51.1991259 0.704597232,50.8258504 0.704597232,50.3660977 C0.704597232,49.906345 1.0708589,49.5330696 1.52197299,49.5330696 C1.97308706,49.5330696 2.33934874,49.906345 2.33934874,50.3660977" id="Path"></path>
                                <path d="M11.1833329,50.3660977 C11.1833329,50.8258504 10.8181453,51.1991259 10.3659571,51.1991259 C9.91484307,51.1991259 9.5485814,50.8258504 9.5485814,50.3660977 C9.5485814,49.906345 9.91484307,49.5330696 10.3659571,49.5330696 C10.8181453,49.5330696 11.1833329,49.906345 11.1833329,50.3660977" id="Path"></path>
                                <path d="M20.0273171,50.3660977 C20.0273171,50.8258504 19.6621295,51.1991259 19.2099414,51.1991259 C18.7599014,51.1991259 18.3936396,50.8258504 18.3936396,50.3660977 C18.3936396,49.906345 18.7599014,49.5330696 19.2099414,49.5330696 C19.6621295,49.5330696 20.0273171,49.906345 20.0273171,50.3660977" id="Path"></path>
                                <path d="M28.8713013,50.3660977 C28.8713013,50.8258504 28.5061136,51.1991259 28.0549996,51.1991259 C27.6038855,51.1991259 27.2376239,50.8258504 27.2376239,50.3660977 C27.2376239,49.906345 27.6038855,49.5330696 28.0549996,49.5330696 C28.5061136,49.5330696 28.8713013,49.906345 28.8713013,50.3660977" id="Path"></path>
                                <path d="M37.7163595,50.3660977 C37.7163595,50.8258504 37.3500979,51.1991259 36.8989837,51.1991259 C36.4478696,51.1991259 36.0826821,50.8258504 36.0826821,50.3660977 C36.0826821,49.906345 36.4478696,49.5330696 36.8989837,49.5330696 C37.3500979,49.5330696 37.7163595,49.906345 37.7163595,50.3660977" id="Path"></path>
                                <path d="M46.5603436,50.3660977 C46.5603436,50.8258504 46.1951561,51.1991259 45.7429679,51.1991259 C45.2929279,51.1991259 44.9266662,50.8258504 44.9266662,50.3660977 C44.9266662,49.906345 45.2929279,49.5330696 45.7429679,49.5330696 C46.1951561,49.5330696 46.5603436,49.906345 46.5603436,50.3660977" id="Path"></path>
                                <path d="M55.4043279,50.3660977 C55.4043279,50.8258504 55.0391402,51.1991259 54.5880261,51.1991259 C54.1369121,51.1991259 53.7706504,50.8258504 53.7706504,50.3660977 C53.7706504,49.906345 54.1369121,49.5330696 54.5880261,49.5330696 C55.0391402,49.5330696 55.4043279,49.906345 55.4043279,50.3660977" id="Path"></path>
                                <path d="M64.2493861,50.3660977 C64.2493861,50.8258504 63.8831244,51.1991259 63.4320104,51.1991259 C62.9808962,51.1991259 62.6157086,50.8258504 62.6157086,50.3660977 C62.6157086,49.906345 62.9808962,49.5330696 63.4320104,49.5330696 C63.8831244,49.5330696 64.2493861,49.906345 64.2493861,50.3660977" id="Path"></path>
                                <path d="M73.0933703,50.3660977 C73.0933703,50.8258504 72.7281826,51.1991259 72.2759945,51.1991259 C71.8259545,51.1991259 71.4596929,50.8258504 71.4596929,50.3660977 C71.4596929,49.906345 71.8259545,49.5330696 72.2759945,49.5330696 C72.7281826,49.5330696 73.0933703,49.906345 73.0933703,50.3660977" id="Path"></path>
                                <path d="M81.9373544,50.3660977 C81.9373544,50.8258504 81.5721669,51.1991259 81.1210528,51.1991259 C80.6699386,51.1991259 80.303677,50.8258504 80.303677,50.3660977 C80.303677,49.906345 80.6699386,49.5330696 81.1210528,49.5330696 C81.5721669,49.5330696 81.9373544,49.906345 81.9373544,50.3660977" id="Path"></path>
                                <path d="M2.33934874,57.4189231 C2.33934874,57.8797705 1.97308706,58.2519513 1.52197299,58.2519513 C1.0708589,58.2519513 0.704597232,57.8797705 0.704597232,57.4189231 C0.704597232,56.9591705 1.0708589,56.585895 1.52197299,56.585895 C1.97308706,56.585895 2.33934874,56.9591705 2.33934874,57.4189231" id="Path"></path>
                                <path d="M11.1833329,57.4189231 C11.1833329,57.8797705 10.8181453,58.2519513 10.3659571,58.2519513 C9.91484307,58.2519513 9.5485814,57.8797705 9.5485814,57.4189231 C9.5485814,56.9591705 9.91484307,56.585895 10.3659571,56.585895 C10.8181453,56.585895 11.1833329,56.9591705 11.1833329,57.4189231" id="Path"></path>
                                <path d="M20.0273171,57.4189231 C20.0273171,57.8797705 19.6621295,58.2519513 19.2099414,58.2519513 C18.7599014,58.2519513 18.3936396,57.8797705 18.3936396,57.4189231 C18.3936396,56.9591705 18.7599014,56.585895 19.2099414,56.585895 C19.6621295,56.585895 20.0273171,56.9591705 20.0273171,57.4189231" id="Path"></path>
                                <path d="M28.8713013,57.4189231 C28.8713013,57.8797705 28.5061136,58.2519513 28.0549996,58.2519513 C27.6038855,58.2519513 27.2376239,57.8797705 27.2376239,57.4189231 C27.2376239,56.9591705 27.6038855,56.585895 28.0549996,56.585895 C28.5061136,56.585895 28.8713013,56.9591705 28.8713013,57.4189231" id="Path"></path>
                                <path d="M37.7163595,57.4189231 C37.7163595,57.8797705 37.3500979,58.2519513 36.8989837,58.2519513 C36.4478696,58.2519513 36.0826821,57.8797705 36.0826821,57.4189231 C36.0826821,56.9591705 36.4478696,56.585895 36.8989837,56.585895 C37.3500979,56.585895 37.7163595,56.9591705 37.7163595,57.4189231" id="Path"></path>
                                <path d="M46.5603436,57.4189231 C46.5603436,57.8797705 46.1951561,58.2519513 45.7429679,58.2519513 C45.2929279,58.2519513 44.9266662,57.8797705 44.9266662,57.4189231 C44.9266662,56.9591705 45.2929279,56.585895 45.7429679,56.585895 C46.1951561,56.585895 46.5603436,56.9591705 46.5603436,57.4189231" id="Path"></path>
                                <path d="M55.4043279,57.4189231 C55.4043279,57.8797705 55.0391402,58.2519513 54.5880261,58.2519513 C54.1369121,58.2519513 53.7706504,57.8797705 53.7706504,57.4189231 C53.7706504,56.9591705 54.1369121,56.585895 54.5880261,56.585895 C55.0391402,56.585895 55.4043279,56.9591705 55.4043279,57.4189231" id="Path"></path>
                                <path d="M64.2493861,57.4189231 C64.2493861,57.8797705 63.8831244,58.2519513 63.4320104,58.2519513 C62.9808962,58.2519513 62.6157086,57.8797705 62.6157086,57.4189231 C62.6157086,56.9591705 62.9808962,56.585895 63.4320104,56.585895 C63.8831244,56.585895 64.2493861,56.9591705 64.2493861,57.4189231" id="Path"></path>
                                <path d="M73.0933703,57.4189231 C73.0933703,57.8797705 72.7281826,58.2519513 72.2759945,58.2519513 C71.8259545,58.2519513 71.4596929,57.8797705 71.4596929,57.4189231 C71.4596929,56.9591705 71.8259545,56.585895 72.2759945,56.585895 C72.7281826,56.585895 73.0933703,56.9591705 73.0933703,57.4189231" id="Path"></path>
                                <path d="M81.9373544,57.4189231 C81.9373544,57.8797705 81.5721669,58.2519513 81.1210528,58.2519513 C80.6699386,58.2519513 80.303677,57.8797705 80.303677,57.4189231 C80.303677,56.9591705 80.6699386,56.585895 81.1210528,56.585895 C81.5721669,56.585895 81.9373544,56.9591705 81.9373544,57.4189231" id="Path"></path>
                                <path d="M2.33934874,64.4717486 C2.33934874,64.932596 1.97308706,65.3047767 1.52197299,65.3047767 C1.0708589,65.3047767 0.704597232,64.932596 0.704597232,64.4717486 C0.704597232,64.0130905 1.0708589,63.6398151 1.52197299,63.6398151 C1.97308706,63.6398151 2.33934874,64.0130905 2.33934874,64.4717486" id="Path"></path>
                                <path d="M11.1833329,64.4717486 C11.1833329,64.932596 10.8181453,65.3047767 10.3659571,65.3047767 C9.91484307,65.3047767 9.5485814,64.932596 9.5485814,64.4717486 C9.5485814,64.0130905 9.91484307,63.6398151 10.3659571,63.6398151 C10.8181453,63.6398151 11.1833329,64.0130905 11.1833329,64.4717486" id="Path"></path>
                                <path d="M20.0273171,64.4717486 C20.0273171,64.932596 19.6621295,65.3047767 19.2099414,65.3047767 C18.7599014,65.3047767 18.3936396,64.932596 18.3936396,64.4717486 C18.3936396,64.0130905 18.7599014,63.6398151 19.2099414,63.6398151 C19.6621295,63.6398151 20.0273171,64.0130905 20.0273171,64.4717486" id="Path"></path>
                                <path d="M28.8713013,64.4717486 C28.8713013,64.932596 28.5061136,65.3047767 28.0549996,65.3047767 C27.6038855,65.3047767 27.2376239,64.932596 27.2376239,64.4717486 C27.2376239,64.0130905 27.6038855,63.6398151 28.0549996,63.6398151 C28.5061136,63.6398151 28.8713013,64.0130905 28.8713013,64.4717486" id="Path"></path>
                                <path d="M37.7163595,64.4717486 C37.7163595,64.932596 37.3500979,65.3047767 36.8989837,65.3047767 C36.4478696,65.3047767 36.0826821,64.932596 36.0826821,64.4717486 C36.0826821,64.0130905 36.4478696,63.6398151 36.8989837,63.6398151 C37.3500979,63.6398151 37.7163595,64.0130905 37.7163595,64.4717486" id="Path"></path>
                                <path d="M46.5603436,64.4717486 C46.5603436,64.932596 46.1951561,65.3047767 45.7429679,65.3047767 C45.2929279,65.3047767 44.9266662,64.932596 44.9266662,64.4717486 C44.9266662,64.0130905 45.2929279,63.6398151 45.7429679,63.6398151 C46.1951561,63.6398151 46.5603436,64.0130905 46.5603436,64.4717486" id="Path"></path>
                                <path d="M55.4043279,64.4717486 C55.4043279,64.932596 55.0391402,65.3047767 54.5880261,65.3047767 C54.1369121,65.3047767 53.7706504,64.932596 53.7706504,64.4717486 C53.7706504,64.0130905 54.1369121,63.6398151 54.5880261,63.6398151 C55.0391402,63.6398151 55.4043279,64.0130905 55.4043279,64.4717486" id="Path"></path>
                                <path d="M64.2493861,64.4717486 C64.2493861,64.932596 63.8831244,65.3047767 63.4320104,65.3047767 C62.9808962,65.3047767 62.6157086,64.932596 62.6157086,64.4717486 C62.6157086,64.0130905 62.9808962,63.6398151 63.4320104,63.6398151 C63.8831244,63.6398151 64.2493861,64.0130905 64.2493861,64.4717486" id="Path"></path>
                                <path d="M73.0933703,64.4717486 C73.0933703,64.932596 72.7281826,65.3047767 72.2759945,65.3047767 C71.8259545,65.3047767 71.4596929,64.932596 71.4596929,64.4717486 C71.4596929,64.0130905 71.8259545,63.6398151 72.2759945,63.6398151 C72.7281826,63.6398151 73.0933703,64.0130905 73.0933703,64.4717486" id="Path"></path>
                                <path d="M81.9373544,64.4717486 C81.9373544,64.932596 81.5721669,65.3047767 81.1210528,65.3047767 C80.6699386,65.3047767 80.303677,64.932596 80.303677,64.4717486 C80.303677,64.0130905 80.6699386,63.6398151 81.1210528,63.6398151 C81.5721669,63.6398151 81.9373544,64.0130905 81.9373544,64.4717486" id="Path"></path>
                                <path d="M2.33934874,71.5256687 C2.33934874,71.9854214 1.97308706,72.3586969 1.52197299,72.3586969 C1.0708589,72.3586969 0.704597232,71.9854214 0.704597232,71.5256687 C0.704597232,71.065916 1.0708589,70.6926406 1.52197299,70.6926406 C1.97308706,70.6926406 2.33934874,71.065916 2.33934874,71.5256687" id="Path"></path>
                                <path d="M11.1833329,71.5256687 C11.1833329,71.9854214 10.8181453,72.3586969 10.3659571,72.3586969 C9.91484307,72.3586969 9.5485814,71.9854214 9.5485814,71.5256687 C9.5485814,71.065916 9.91484307,70.6926406 10.3659571,70.6926406 C10.8181453,70.6926406 11.1833329,71.065916 11.1833329,71.5256687" id="Path"></path>
                                <path d="M20.0273171,71.5256687 C20.0273171,71.9854214 19.6621295,72.3586969 19.2099414,72.3586969 C18.7599014,72.3586969 18.3936396,71.9854214 18.3936396,71.5256687 C18.3936396,71.065916 18.7599014,70.6926406 19.2099414,70.6926406 C19.6621295,70.6926406 20.0273171,71.065916 20.0273171,71.5256687" id="Path"></path>
                                <path d="M28.8713013,71.5256687 C28.8713013,71.9854214 28.5061136,72.3586969 28.0549996,72.3586969 C27.6038855,72.3586969 27.2376239,71.9854214 27.2376239,71.5256687 C27.2376239,71.065916 27.6038855,70.6926406 28.0549996,70.6926406 C28.5061136,70.6926406 28.8713013,71.065916 28.8713013,71.5256687" id="Path"></path>
                                <path d="M37.7163595,71.5256687 C37.7163595,71.9854214 37.3500979,72.3586969 36.8989837,72.3586969 C36.4478696,72.3586969 36.0826821,71.9854214 36.0826821,71.5256687 C36.0826821,71.065916 36.4478696,70.6926406 36.8989837,70.6926406 C37.3500979,70.6926406 37.7163595,71.065916 37.7163595,71.5256687" id="Path"></path>
                                <path d="M46.5603436,71.5256687 C46.5603436,71.9854214 46.1951561,72.3586969 45.7429679,72.3586969 C45.2929279,72.3586969 44.9266662,71.9854214 44.9266662,71.5256687 C44.9266662,71.065916 45.2929279,70.6926406 45.7429679,70.6926406 C46.1951561,70.6926406 46.5603436,71.065916 46.5603436,71.5256687" id="Path"></path>
                                <path d="M55.4043279,71.5256687 C55.4043279,71.9854214 55.0391402,72.3586969 54.5880261,72.3586969 C54.1369121,72.3586969 53.7706504,71.9854214 53.7706504,71.5256687 C53.7706504,71.065916 54.1369121,70.6926406 54.5880261,70.6926406 C55.0391402,70.6926406 55.4043279,71.065916 55.4043279,71.5256687" id="Path"></path>
                                <path d="M64.2493861,71.5256687 C64.2493861,71.9854214 63.8831244,72.3586969 63.4320104,72.3586969 C62.9808962,72.3586969 62.6157086,71.9854214 62.6157086,71.5256687 C62.6157086,71.065916 62.9808962,70.6926406 63.4320104,70.6926406 C63.8831244,70.6926406 64.2493861,71.065916 64.2493861,71.5256687" id="Path"></path>
                                <path d="M73.0933703,71.5256687 C73.0933703,71.9854214 72.7281826,72.3586969 72.2759945,72.3586969 C71.8259545,72.3586969 71.4596929,71.9854214 71.4596929,71.5256687 C71.4596929,71.065916 71.8259545,70.6926406 72.2759945,70.6926406 C72.7281826,70.6926406 73.0933703,71.065916 73.0933703,71.5256687" id="Path"></path>
                                <path d="M81.9373544,71.5256687 C81.9373544,71.9854214 81.5721669,72.3586969 81.1210528,72.3586969 C80.6699386,72.3586969 80.303677,71.9854214 80.303677,71.5256687 C80.303677,71.065916 80.6699386,70.6926406 81.1210528,70.6926406 C81.5721669,70.6926406 81.9373544,71.065916 81.9373544,71.5256687" id="Path"></path>
                            </g>
                        </g>
                    </g>
                    <path d="M121.715686,0.977941188 C99.7393556,0.977941188 81.9240196,18.7932772 81.9240196,40.7696079 L81.9240196,68.0776143 L161.507353,68.0776143 L161.507353,40.7696079 C161.507353,18.793277 143.692017,0.977941188 121.715686,0.977941188 Z M122.141469,15.0255082 C136.165064,15.2528795 147.463235,26.6918287 147.463235,40.7696079 L147.463235,54.033 L95.968,54.033 L95.968,40.7696079 C95.968,26.5496292 107.495708,15.0220588 121.715686,15.0220588 L122.141469,15.0255082 Z" id="Rectangle" fill="#D6DAE3"></path>
                    <rect id="Rectangle" fill="#D6DAE3" x="68.6601308" y="50.132353" width="106.111111" height="84.2647059" rx="14.1942225"></rect>
                    <circle id="Oval" fill="#3C4D6F" cx="122.495915" cy="85.242647" r="10.1429739"></circle>
                    <path d="M118.594771,90.7042484 L126.397059,90.7042484 L126.397059,108.909586 C126.397059,110.920492 124.650457,112.550654 122.495915,112.550654 L122.495915,112.550654 C120.341373,112.550654 118.594771,110.920492 118.594771,108.909586 L118.594771,90.7042484 Z" id="Path" fill="#3C4D6F"></path>
                    <circle id="BG" fill="#FF4702" cx="174.61236" cy="118.633601" r="21.6875229"></circle>
                    <path d="M185.113589,128.784781 C184.339115,129.559254 183.083695,129.559254 182.309221,128.784781 L174.946268,121.421827 L167.233263,129.134831 C166.458789,129.909305 165.203369,129.909305 164.428895,129.134831 C163.654421,128.360357 163.654421,127.104936 164.428895,126.330463 L172.141899,118.617458 L164.778945,111.254504 C164.004471,110.480031 164.004471,109.223618 164.778945,108.450136 C165.553419,107.675663 166.808839,107.675663 167.583313,108.450136 L174.946268,115.81309 L181.958179,108.801178 C182.732653,108.026704 183.988074,108.026704 184.762548,108.801178 C185.537021,109.575652 185.537021,110.831073 184.762548,111.605546 L177.750635,118.617458 L185.113589,125.980413 C185.888063,126.754886 185.888063,128.010307 185.113589,128.784781 Z" id="Path" fill="url(#linearGradient-1)"></path>
                </g>
            </g>
        </g>
    </g>
</svg>