<svg width="52" height="53" viewBox="0 0 52 53" fill="none" xmlns="http://www.w3.org/2000/svg">
<g filter="url(#filter0_d_3110_11064)">
<path d="M2 26C2 12.7452 12.7452 2 26 2C39.2548 2 50 12.7452 50 26C50 39.2548 39.2548 50 26 50C12.7452 50 2 39.2548 2 26Z" fill="#2563EB"/>
<path fill-rule="evenodd" clip-rule="evenodd" d="M3.33333 26C3.33333 38.5185 13.4815 48.6667 26 48.6667C38.5185 48.6667 48.6667 38.5185 48.6667 26C48.6667 13.4815 38.5185 3.33333 26 3.33333C13.4815 3.33333 3.33333 13.4815 3.33333 26ZM26 2C12.7452 2 2 12.7452 2 26C2 39.2548 12.7452 50 26 50C39.2548 50 50 39.2548 50 26C50 12.7452 39.2548 2 26 2Z" fill="#E5E7EB"/>
<path fill-rule="evenodd" clip-rule="evenodd" d="M18.5 15.2466C18.9161 15.2466 19.2534 15.5839 19.2534 16V17.7466H21C21.4161 17.7466 21.7534 18.0839 21.7534 18.5C21.7534 18.9161 21.4161 19.2534 21 19.2534H19.2534V21C19.2534 21.4161 18.9161 21.7534 18.5 21.7534C18.0839 21.7534 17.7466 21.4161 17.7466 21V19.2534H16C15.5839 19.2534 15.2466 18.9161 15.2466 18.5C15.2466 18.0839 15.5839 17.7466 16 17.7466H17.7466V16C17.7466 15.5839 18.0839 15.2466 18.5 15.2466ZM27 16.2466C27.3117 16.2466 27.5912 16.4386 27.7031 16.7296L29.4373 21.2384C29.7332 22.0077 29.8391 22.2677 29.9904 22.4805C30.136 22.6852 30.3148 22.864 30.5195 23.0096C30.7323 23.1609 30.9923 23.2668 31.7616 23.5627L36.2704 25.2969C36.5614 25.4088 36.7534 25.6883 36.7534 26C36.7534 26.3117 36.5614 26.5912 36.2704 26.7031L31.7616 28.4373C30.9923 28.7332 30.7324 28.8391 30.5195 28.9904C30.3148 29.136 30.136 29.3148 29.9904 29.5195C29.8391 29.7323 29.7332 29.9923 29.4373 30.7616L27.7032 35.2704C27.5913 35.5614 27.3117 35.7534 27 35.7534C26.6883 35.7534 26.4088 35.5614 26.2969 35.2704L24.5627 30.7616C24.2668 29.9923 24.1609 29.7323 24.0096 29.5195C23.864 29.3148 23.6852 29.136 23.4805 28.9904C23.2677 28.8391 23.0077 28.7332 22.2384 28.4373L17.7296 26.7031C17.4386 26.5912 17.2466 26.3117 17.2466 26C17.2466 25.6883 17.4386 25.4088 17.7296 25.2969L22.2384 23.5627C23.0077 23.2668 23.2677 23.1609 23.4805 23.0096C23.6852 22.864 23.864 22.6852 24.0096 22.4805C24.1609 22.2677 24.2668 22.0077 24.5627 21.2384L26.2969 16.7296C26.4088 16.4386 26.6883 16.2466 27 16.2466ZM27 19.0986L25.969 21.7793C25.9578 21.8083 25.9468 21.837 25.936 21.8652C25.686 22.5158 25.5127 22.9666 25.2375 23.3537C24.9944 23.6956 24.6956 23.9944 24.3537 24.2375C23.9666 24.5127 23.5158 24.686 22.8652 24.936C22.837 24.9468 22.8083 24.9578 22.7793 24.969L20.0986 26L22.7793 27.031C22.8083 27.0422 22.837 27.0532 22.8652 27.0641C23.5158 27.314 23.9666 27.4873 24.3537 27.7625C24.6956 28.0056 24.9944 28.3044 25.2375 28.6463C25.5127 29.0334 25.686 29.4842 25.936 30.1348C25.9468 30.1631 25.9578 30.1917 25.969 30.2207L27 32.9014L28.031 30.2207C28.0422 30.1917 28.0532 30.1631 28.064 30.1348C28.314 29.4842 28.4873 29.0334 28.7625 28.6463C29.0056 28.3044 29.3044 28.0056 29.6464 27.7625C30.0334 27.4873 30.4842 27.314 31.1348 27.0641C31.1631 27.0532 31.1917 27.0422 31.2207 27.031L33.9014 26L31.2207 24.969C31.1917 24.9578 31.1631 24.9468 31.1348 24.936C30.4842 24.686 30.0334 24.5127 29.6463 24.2375C29.3044 23.9944 29.0056 23.6956 28.7625 23.3537C28.4873 22.9666 28.314 22.5158 28.0641 21.8652C28.0532 21.837 28.0422 21.8083 28.031 21.7793L27 19.0986ZM18.5 30.2466C18.9161 30.2466 19.2534 30.5839 19.2534 31V32.7466H21C21.4161 32.7466 21.7534 33.0839 21.7534 33.5C21.7534 33.9161 21.4161 34.2534 21 34.2534H19.2534V36C19.2534 36.4161 18.9161 36.7534 18.5 36.7534C18.0839 36.7534 17.7466 36.4161 17.7466 36V34.2534H16C15.5839 34.2534 15.2466 33.9161 15.2466 33.5C15.2466 33.0839 15.5839 32.7466 16 32.7466H17.7466V31C17.7466 30.5839 18.0839 30.2466 18.5 30.2466Z" fill="white"/>
</g>
<defs>
<filter id="filter0_d_3110_11064" x="0" y="0.666667" width="52" height="52" filterUnits="userSpaceOnUse" color-interpolation-filters="sRGB">
<feFlood flood-opacity="0" result="BackgroundImageFix"/>
<feColorMatrix in="SourceAlpha" type="matrix" values="0 0 0 0 0 0 0 0 0 0 0 0 0 0 0 0 0 0 127 0" result="hardAlpha"/>
<feOffset dy="0.666667"/>
<feGaussianBlur stdDeviation="1"/>
<feColorMatrix type="matrix" values="0 0 0 0 0 0 0 0 0 0 0 0 0 0 0 0 0 0 0.1 0"/>
<feBlend mode="normal" in2="BackgroundImageFix" result="effect1_dropShadow_3110_11064"/>
<feBlend mode="normal" in="SourceGraphic" in2="effect1_dropShadow_3110_11064" result="shape"/>
</filter>
</defs>
</svg>