<svg width="200" height="40" viewBox="0 0 200 40" fill="none" xmlns="http://www.w3.org/2000/svg">
<path fill-rule="evenodd" clip-rule="evenodd" d="M61.6591 4C67.6364 4 71.5455 7.56571 71.5455 12.6857C71.5455 15.68 69.9318 18.24 67.4545 19.2457C70.75 20.1371 73 22.9029 73 26.6514C73 31.9527 68.9831 35.8632 63.3006 35.9965L63 36H47.4C43.8654 36 41 33.1346 41 29.6V10.4C41 6.86538 43.8654 4 47.4 4H61.6591ZM55.789 20H55.011C53.8475 20 52.8517 20.8344 52.648 21.9799L51.5671 28.06C51.5589 28.1062 51.5548 28.1531 51.5548 28.2C51.5548 28.6418 51.9129 29 52.3548 29H58.4452C58.4922 29 58.539 28.9959 58.5853 28.9876C59.0203 28.9103 59.3102 28.495 59.2329 28.06L58.152 21.9799C57.9483 20.8344 56.9525 20 55.789 20ZM55.4 10.4C53.1909 10.4 51.4 12.1909 51.4 14.4C51.4 16.6091 53.1909 18.4 55.4 18.4C57.6091 18.4 59.4 16.6091 59.4 14.4C59.4 12.1909 57.6091 10.4 55.4 10.4Z" fill="#FF4800"/>
<path d="M88.392 29C91.476 29 93.672 26.444 93.672 23.612C93.672 21.644 92.484 20.192 90.744 19.724C92.052 19.196 92.904 17.852 92.904 16.28C92.904 13.592 90.84 11 87.684 11H81V29H88.392ZM87.36 18.272H85.392V15.284H87.36C88.2 15.284 88.8 15.848 88.8 16.784C88.8 17.708 88.2 18.272 87.36 18.272ZM87.648 24.956H85.392V21.704H87.648C88.56 21.704 89.208 22.364 89.208 23.336C89.208 24.296 88.56 24.956 87.648 24.956ZM101.66 28.808C105.656 28.808 108.68 25.964 108.68 22.304C108.68 18.644 105.656 15.8 101.66 15.8C97.676 15.8 94.64 18.644 94.64 22.304C94.64 25.964 97.676 28.808 101.66 28.808ZM101.66 24.956C100.124 24.956 98.996 23.804 98.996 22.304C98.996 20.804 100.124 19.652 101.66 19.652C103.208 19.652 104.336 20.804 104.336 22.304C104.336 23.804 103.208 24.956 101.66 24.956ZM114 29V11H110V29H114ZM141 29V11H137V29H141ZM122 15.9259C123.674 15.9259 125.052 16.563 126.052 17.6296V11H129.948V28.9852H126.052V27.5778C125.052 28.637 123.674 29.2815 122 29.2815C118.489 29.2815 116 26.3481 116 22.6074C116 18.8593 118.489 15.9259 122 15.9259ZM122.978 25.8074C124.704 25.8074 126.059 24.4296 126.059 22.6074C126.059 20.7926 124.704 19.4074 122.978 19.4074C121.267 19.4074 119.933 20.8 119.933 22.6074C119.933 24.4296 121.259 25.8074 122.978 25.8074ZM151.252 29C156.256 29 159.676 25.112 159.676 20.12C159.676 15.14 156.256 11 151.252 11H145V29H151.252ZM150.892 24.584H149V15.668H150.892C153.448 15.668 155.092 17.276 155.092 20.12C155.092 22.976 153.448 24.584 150.892 24.584Z" fill="white"/>
</svg>
