<svg width="113" height="113" viewBox="0 0 113 113" fill="none" xmlns="http://www.w3.org/2000/svg">
<path fill-rule="evenodd" clip-rule="evenodd" d="M71.5597 8C90.2386 8 102.455 18.92 102.455 34.6C102.455 43.77 97.4119 51.61 89.6705 54.69C99.9688 57.42 107 65.89 107 77.37C107 93.6052 94.4472 105.581 76.6894 105.989L75.75 106H27C15.9543 106 7 97.2248 7 86.4V27.6C7 16.7752 15.9543 8 27 8H71.5597ZM53.2157 57H50.7843C47.1485 57 44.0364 59.5555 43.4 63.0635L40.0222 81.6837C39.9966 81.8252 39.9836 81.9687 39.9836 82.1125C39.9836 83.4656 41.1029 84.5625 42.4836 84.5625H61.5164C61.6631 84.5625 61.8095 84.5498 61.9539 84.5247C63.3133 84.2878 64.2194 83.0159 63.9778 81.6837L60.6 63.0635C59.9636 59.5555 56.8515 57 53.2157 57ZM52 27.6C45.0964 27.6 39.5 33.0845 39.5 39.85C39.5 46.6155 45.0964 52.1 52 52.1C58.9036 52.1 64.5 46.6155 64.5 39.85C64.5 33.0845 58.9036 27.6 52 27.6Z" fill="#FF4800"/>
</svg>
