<svg width="135" height="50" viewBox="0 0 135 50" fill="none" xmlns="http://www.w3.org/2000/svg">
<path fill-rule="evenodd" clip-rule="evenodd" d="M28.6591 9C34.6364 9 38.5455 12.5657 38.5455 17.6857C38.5455 20.68 36.9318 23.24 34.4545 24.2457C37.75 25.1371 40 27.9029 40 31.6514C40 36.9527 35.9831 40.8632 30.3006 40.9965L30 41H14.4C10.8654 41 8 38.1346 8 34.6V15.4C8 11.8654 10.8654 9 14.4 9H28.6591ZM22.789 25H22.011C20.8475 25 19.8517 25.8344 19.648 26.9799L18.5671 33.06C18.5589 33.1062 18.5548 33.1531 18.5548 33.2C18.5548 33.6418 18.9129 34 19.3548 34H25.4452C25.4922 34 25.539 33.9959 25.5853 33.9876C26.0203 33.9103 26.3102 33.495 26.2329 33.06L25.152 26.9799C24.9483 25.8344 23.9525 25 22.789 25ZM22.4 15.4C20.1909 15.4 18.4 17.1909 18.4 19.4C18.4 21.6091 20.1909 23.4 22.4 23.4C24.6091 23.4 26.4 21.6091 26.4 19.4C26.4 17.1909 24.6091 15.4 22.4 15.4Z" fill="#FF4800"/>
<path d="M55.392 34C58.476 34 60.672 31.444 60.672 28.612C60.672 26.644 59.484 25.192 57.744 24.724C59.052 24.196 59.904 22.852 59.904 21.28C59.904 18.592 57.84 16 54.684 16H48V34H55.392ZM54.36 23.272H52.392V20.284H54.36C55.2 20.284 55.8 20.848 55.8 21.784C55.8 22.708 55.2 23.272 54.36 23.272ZM54.648 29.956H52.392V26.704H54.648C55.56 26.704 56.208 27.364 56.208 28.336C56.208 29.296 55.56 29.956 54.648 29.956ZM68.66 33.808C72.656 33.808 75.68 30.964 75.68 27.304C75.68 23.644 72.656 20.8 68.66 20.8C64.676 20.8 61.64 23.644 61.64 27.304C61.64 30.964 64.676 33.808 68.66 33.808ZM68.66 29.956C67.124 29.956 65.996 28.804 65.996 27.304C65.996 25.804 67.124 24.652 68.66 24.652C70.208 24.652 71.336 25.804 71.336 27.304C71.336 28.804 70.208 29.956 68.66 29.956ZM81 34V16H77V34H81ZM108 34V16H104V34H108ZM89 20.9259C90.6741 20.9259 92.0518 21.563 93.0518 22.6296V16H96.9482V33.9852H93.0518V32.5778C92.0518 33.637 90.6741 34.2815 89 34.2815C85.4889 34.2815 83 31.3481 83 27.6074C83 23.8593 85.4889 20.9259 89 20.9259ZM89.9778 30.8074C91.7037 30.8074 93.0593 29.4296 93.0593 27.6074C93.0593 25.7926 91.7037 24.4074 89.9778 24.4074C88.2667 24.4074 86.9333 25.8 86.9333 27.6074C86.9333 29.4296 88.2593 30.8074 89.9778 30.8074ZM118.252 34C123.256 34 126.676 30.112 126.676 25.12C126.676 20.14 123.256 16 118.252 16H112V34H118.252ZM117.892 29.584H116V20.668H117.892C120.448 20.668 122.092 22.276 122.092 25.12C122.092 27.976 120.448 29.584 117.892 29.584Z" fill="white"/>
</svg>
