<svg width="50" height="50" viewBox="0 0 50 50" fill="none" xmlns="http://www.w3.org/2000/svg">
<path fill-rule="evenodd" clip-rule="evenodd" d="M31.6974 2C40.2898 2 45.9091 7.12571 45.9091 14.4857C45.9091 18.79 43.5895 22.47 40.0284 23.9157C44.7656 25.1971 48 29.1729 48 34.5614C48 42.2109 42.1818 47.846 33.9641 47.9969L33.625 48H11.2C6.11898 48 2 43.881 2 38.8V11.2C2 6.11898 6.11898 2 11.2 2H31.6974ZM23.2568 25H22.1432C20.4697 25 19.0375 26.201 18.746 27.8489L17.1889 36.6497C17.1772 36.7158 17.1713 36.7828 17.1713 36.85C17.1713 37.4851 17.6862 38 18.3213 38H27.0787C27.1458 38 27.2129 37.9941 27.279 37.9824C27.9044 37.8718 28.3217 37.2751 28.2111 36.6497L26.654 27.8489C26.3625 26.201 24.9303 25 23.2568 25ZM22.7 11.2C19.5244 11.2 16.95 13.7744 16.95 16.95C16.95 20.1256 19.5244 22.7 22.7 22.7C25.8756 22.7 28.45 20.1256 28.45 16.95C28.45 13.7744 25.8756 11.2 22.7 11.2Z" fill="#FF4800"/>
</svg>
