<svg width="160" height="40" viewBox="0 0 160 40" fill="none" xmlns="http://www.w3.org/2000/svg">
<path fill-rule="evenodd" clip-rule="evenodd" d="M46.9471 19.5186H38.502C37.5917 19.5186 36.9268 19.6875 36.5026 20.023C36.0784 20.3608 35.8674 20.8949 35.8674 21.6253C35.8674 22.2142 36.0463 22.6547 36.4086 22.9469C36.7708 23.2367 37.3097 23.3828 38.0251 23.3828H42.5514C44.4156 23.3828 45.7456 23.7366 46.5321 24.4373C47.3231 25.1403 47.7152 26.3135 47.7152 27.9477C47.7152 29.6116 47.2612 30.8305 46.3509 31.6111C45.4406 32.3917 44.0075 32.782 42.0539 32.782H32.953V29.9152H41.5104C42.4849 29.9152 43.1728 29.7737 43.5695 29.4907C43.9685 29.2076 44.168 28.742 44.168 28.0869C44.168 27.4113 43.9846 26.932 43.62 26.6467C43.2554 26.3614 42.6294 26.2176 41.7443 26.2176H37.7041C35.8399 26.2176 34.4756 25.8456 33.6134 25.1015C32.749 24.3597 32.3179 23.1911 32.3179 21.5888C32.3179 19.877 32.7719 18.6285 33.6776 17.8387C34.5856 17.049 36.0279 16.6541 38.0022 16.6541H46.9471V19.5186ZM54.3122 30.1024H56.7866V20.8722H59.8841V32.3826C59.8841 33.9529 59.5229 35.1124 58.8004 35.8679C58.0757 36.6211 56.9694 37 55.4794 37H49.4356V34.6011H54.9511C55.5403 34.6011 55.9941 34.4551 56.3125 34.1629C56.6285 33.8708 56.7866 33.4531 56.7866 32.8984V32.7021H54.0638C52.3141 32.7021 51.0679 32.3529 50.3228 31.6568C49.5778 30.9606 49.2053 29.7966 49.2053 28.1692V20.8722H52.2712V27.9295C52.2712 28.822 52.4022 29.4063 52.6663 29.6847C52.9282 29.9609 53.4768 30.1024 54.3122 30.1024ZM62.6159 20.8722H68.4133C70.1665 20.8722 71.4178 21.2007 72.1672 21.8599C72.9189 22.5214 73.2947 23.6149 73.2947 25.1404V32.5338H70.207V25.5184C70.207 24.6476 70.0697 24.0829 69.7996 23.8242C69.5295 23.5632 68.9894 23.4349 68.177 23.4349H65.7059V32.5338H62.6159V20.8722ZM82.149 30.0381H85.4636V32.5338H81.23C80.1562 32.5338 79.2735 32.4236 78.5865 32.2053C77.8927 31.9847 77.2944 31.6292 76.7848 31.1408C76.2343 30.6097 75.8066 29.9594 75.4972 29.1897C75.1855 28.4201 75.0331 27.6099 75.0331 26.7503C75.0331 25.8501 75.1855 25.0107 75.4926 24.2276C75.7975 23.4467 76.2274 22.7918 76.7848 22.2652C77.3012 21.7768 77.9086 21.4213 78.607 21.2007C79.3054 20.9802 80.1767 20.8722 81.23 20.8722H85.4636V23.4016H82.149C80.6817 23.4016 79.6717 23.6514 79.1189 24.151C78.5638 24.6506 78.2862 25.5193 78.2862 26.757C78.2862 27.4704 78.4 28.0623 78.6252 28.5258C78.8527 28.9917 79.203 29.3697 79.6762 29.6601C79.9082 29.7973 80.1812 29.8941 80.4906 29.9526C80.8 30.0066 81.3528 30.0381 82.149 30.0381ZM88.1952 23.3176H85.9603V20.9526H88.1952V19.7176C88.1952 18.5146 88.4191 17.7019 88.867 17.2819C89.3103 16.8642 90.1673 16.6541 91.4355 16.6541H94.404V18.9186H92.9186C92.3816 18.9186 92 19.0031 91.776 19.1698C91.5475 19.3364 91.4355 19.6103 91.4355 19.9961V20.9526H94.404V23.3176H91.4355V32.782H88.1952V23.3176ZM106.076 32.5338H100.241C98.5339 32.5338 97.2965 32.1963 96.5355 31.5213C95.7745 30.8441 95.3974 29.7619 95.3974 28.2701V20.8722H98.4617V28.0249C98.4617 28.8034 98.5972 29.3209 98.8704 29.5819C99.1414 29.8406 99.6833 29.9711 100.492 29.9711H102.978V20.8722H106.076V32.5338ZM108.509 30.1016H115.051C115.634 30.1016 116.056 30.0139 116.321 29.8339C116.591 29.6561 116.723 29.3704 116.723 28.9744C116.723 28.5806 116.589 28.2904 116.317 28.1104C116.049 27.9281 115.627 27.8359 115.051 27.8359H112.363C110.777 27.8359 109.704 27.5951 109.148 27.1114C108.588 26.6276 108.311 25.7681 108.311 24.5329C108.311 23.2774 108.649 22.3549 109.321 21.7609C109.994 21.1692 111.038 20.8722 112.451 20.8722H119.141V23.3044H113.642C112.744 23.3044 112.161 23.3832 111.893 23.5407C111.623 23.6959 111.487 23.9749 111.487 24.3777C111.487 24.7399 111.607 25.0099 111.845 25.1809C112.079 25.3541 112.453 25.4396 112.966 25.4396H115.781C117.065 25.4396 118.045 25.7366 118.721 26.3261C119.399 26.9201 119.735 27.7751 119.735 28.8956C119.735 29.9711 119.433 30.8486 118.837 31.5213C118.238 32.1963 117.469 32.5338 116.525 32.5338H108.509V30.1016ZM121.722 32.5338V20.8628H124.95V32.5338H121.722ZM121.722 19.5477V16.6541H124.95V19.5477H121.722ZM138.858 26.7144C138.858 28.5569 138.3 30.0318 137.183 31.1323C136.069 32.2328 134.559 32.782 132.666 32.782C130.773 32.782 129.261 32.2328 128.13 31.1278C127.002 30.025 126.44 28.5546 126.44 26.7144C126.44 24.8718 127.002 23.3946 128.13 22.285C129.261 21.1777 130.773 20.6241 132.666 20.6241C134.546 20.6241 136.048 21.1777 137.174 22.285C138.296 23.3946 138.858 24.8718 138.858 26.7144ZM129.669 26.7144C129.669 27.833 129.931 28.7044 130.455 29.3261C130.976 29.9546 131.705 30.2632 132.643 30.2632C133.573 30.2632 134.306 29.9546 134.837 29.3261C135.365 28.7044 135.633 27.833 135.633 26.7144C135.633 25.598 135.369 24.7289 134.841 24.1094C134.315 23.4854 133.58 23.1745 132.643 23.1745C131.714 23.1745 130.985 23.4877 130.461 24.1117C129.931 24.738 129.669 25.6048 129.669 26.7144ZM140.596 20.8722H146.395C148.146 20.8722 149.4 21.2007 150.149 21.8599C150.899 22.5214 151.275 23.6149 151.275 25.1404V32.5338H148.186V25.5184C148.186 24.6476 148.051 24.0829 147.781 23.8242C147.509 23.5632 146.971 23.4349 146.158 23.4349H143.684V32.5338H140.596V20.8722ZM5 15.4135V7.96992H12.4503V15.4135H5ZM29.7623 14.4211L24.1225 9.6347L28.9132 4L34.553 8.7886L29.7623 14.4211ZM13.6921 15.4135V7.96992H21.1424V15.4135H13.6921ZM5 24.0977V16.6541H12.4503V24.0977H5ZM13.6921 24.0977V16.6541H21.1424V24.0977H13.6921ZM22.3841 24.0977V16.6541H29.8344V24.0977H22.3841ZM5 32.5338V25.3383H12.4503V32.5338H5ZM13.6921 32.5338V25.3383H21.1424V32.5338H13.6921ZM22.3841 32.5338V25.3383H29.8344V32.5338H22.3841Z" fill="white"/>
</svg>
