<svg width="350" height="198" viewBox="0 0 350 198" fill="none" xmlns="http://www.w3.org/2000/svg">
<path opacity="0.4" d="M173.549 194.118C188.768 194.118 201.105 190.641 201.105 186.353C201.105 182.065 188.768 178.588 173.549 178.588C158.331 178.588 145.994 182.065 145.994 186.353C145.994 190.641 158.331 194.118 173.549 194.118Z" fill="#DBEEFE"/>
<path fill-rule="evenodd" clip-rule="evenodd" d="M174.517 137.892C175.547 137.892 176.383 138.73 176.383 139.765V162.983L192.881 183.226C193.533 184.026 193.416 185.207 192.618 185.862C191.82 186.517 190.645 186.399 189.992 185.598L176.383 168.9V189.265C176.383 190.299 175.547 191.138 174.517 191.138C173.486 191.138 172.65 190.299 172.65 189.265V167.532L157.075 185.636C156.402 186.419 155.223 186.506 154.443 185.83C153.663 185.153 153.577 183.971 154.251 183.188L172.597 161.862C172.615 161.841 172.632 161.821 172.65 161.801V139.765C172.65 138.73 173.486 137.892 174.517 137.892Z" fill="#E9EBEE"/>
<path opacity="0.4" d="M59.1703 89.2942H118.34C134.659 89.265 147.886 75.9903 147.928 59.5961V29.9058C147.975 13.4407 134.73 0.0533824 118.34 0H0V29.9058C0.017395 62.7175 26.5072 89.3058 59.1703 89.2942ZM226.243 102.882V133.941H288.122C322.309 133.92 350.011 106.112 350 71.8236H257.179C253.113 71.8171 249.086 72.6162 245.328 74.1752C241.57 75.7341 238.155 78.0222 235.279 80.9083C232.405 83.7929 230.128 87.2191 228.577 90.9902C227.026 94.7612 226.233 98.8027 226.243 102.882Z" fill="#DBEEFE"/>
<g opacity="0.4">
<path d="M241.643 8.05457C241.643 8.31629 241.432 8.52516 241.176 8.52516C240.92 8.52516 240.709 8.31629 240.709 8.05457C240.709 7.79285 240.92 7.58398 241.176 7.58398C241.432 7.58398 241.643 7.79285 241.643 8.05457Z" fill="#969DA6" stroke="#969DA6"/>
<path d="M250.709 8.0547C250.709 8.31642 250.498 8.52528 250.242 8.52528C249.986 8.52528 249.775 8.31642 249.775 8.0547C249.775 7.79298 249.986 7.58411 250.242 7.58411C250.498 7.58411 250.709 7.79298 250.709 8.0547Z" fill="#969DA6" stroke="#969DA6"/>
<path d="M259.774 8.0547C259.774 8.31642 259.563 8.52528 259.307 8.52528C259.051 8.52528 258.84 8.31642 258.84 8.0547C258.84 7.79298 259.051 7.58411 259.307 7.58411C259.563 7.58411 259.774 7.79298 259.774 8.0547Z" fill="#969DA6" stroke="#969DA6"/>
<path d="M268.832 8.0547C268.832 8.31642 268.621 8.52528 268.365 8.52528C268.109 8.52528 267.898 8.31642 267.898 8.0547C267.898 7.79298 268.109 7.58411 268.365 7.58411C268.621 7.58411 268.832 7.79298 268.832 8.0547Z" fill="#969DA6" stroke="#969DA6"/>
<path d="M277.897 8.0547C277.897 8.31642 277.686 8.52528 277.43 8.52528C277.174 8.52528 276.963 8.31642 276.963 8.0547C276.963 7.79298 277.174 7.58411 277.43 7.58411C277.686 7.58411 277.897 7.79298 277.897 8.0547Z" fill="#969DA6" stroke="#969DA6"/>
<path d="M286.961 8.0547C286.961 8.31642 286.75 8.52528 286.494 8.52528C286.238 8.52528 286.027 8.31642 286.027 8.0547C286.027 7.79298 286.238 7.58411 286.494 7.58411C286.75 7.58411 286.961 7.79298 286.961 8.0547Z" fill="#969DA6" stroke="#969DA6"/>
<path d="M296.025 8.0547C296.025 8.31642 295.815 8.52528 295.559 8.52528C295.303 8.52528 295.092 8.31642 295.092 8.0547C295.092 7.79298 295.303 7.58411 295.559 7.58411C295.815 7.58411 296.025 7.79298 296.025 8.0547Z" fill="#969DA6" stroke="#969DA6"/>
<path d="M305.092 8.0547C305.092 8.31642 304.881 8.52528 304.625 8.52528C304.369 8.52528 304.158 8.31642 304.158 8.0547C304.158 7.79298 304.369 7.58411 304.625 7.58411C304.881 7.58411 305.092 7.79298 305.092 8.0547Z" fill="#969DA6" stroke="#969DA6"/>
<path d="M314.158 8.0547C314.158 8.31642 313.947 8.52528 313.691 8.52528C313.435 8.52528 313.225 8.31642 313.225 8.0547C313.225 7.79298 313.435 7.58411 313.691 7.58411C313.947 7.58411 314.158 7.79298 314.158 8.0547Z" fill="#969DA6" stroke="#969DA6"/>
<path d="M323.223 8.0547C323.223 8.31642 323.012 8.52528 322.756 8.52528C322.5 8.52528 322.289 8.31642 322.289 8.0547C322.289 7.79298 322.5 7.58411 322.756 7.58411C323.012 7.58411 323.223 7.79298 323.223 8.0547Z" fill="#969DA6" stroke="#969DA6"/>
<path d="M241.643 15.1768C241.643 15.4385 241.432 15.6474 241.176 15.6474C240.92 15.6474 240.709 15.4385 240.709 15.1768C240.709 14.915 240.92 14.7062 241.176 14.7062C241.432 14.7062 241.643 14.915 241.643 15.1768Z" fill="#969DA6" stroke="#969DA6"/>
<path d="M250.709 15.1768C250.709 15.4385 250.498 15.6474 250.242 15.6474C249.986 15.6474 249.775 15.4385 249.775 15.1768C249.775 14.915 249.986 14.7062 250.242 14.7062C250.498 14.7062 250.709 14.915 250.709 15.1768Z" fill="#969DA6" stroke="#969DA6"/>
<path d="M259.774 15.1768C259.774 15.4385 259.563 15.6474 259.307 15.6474C259.051 15.6474 258.84 15.4385 258.84 15.1768C258.84 14.915 259.051 14.7062 259.307 14.7062C259.563 14.7062 259.774 14.915 259.774 15.1768Z" fill="#969DA6" stroke="#969DA6"/>
<path d="M268.832 15.1768C268.832 15.4385 268.621 15.6474 268.365 15.6474C268.109 15.6474 267.898 15.4385 267.898 15.1768C267.898 14.915 268.109 14.7062 268.365 14.7062C268.621 14.7062 268.832 14.915 268.832 15.1768Z" fill="#969DA6" stroke="#969DA6"/>
<path d="M277.897 15.1768C277.897 15.4385 277.686 15.6474 277.43 15.6474C277.174 15.6474 276.963 15.4385 276.963 15.1768C276.963 14.915 277.174 14.7062 277.43 14.7062C277.686 14.7062 277.897 14.915 277.897 15.1768Z" fill="#969DA6" stroke="#969DA6"/>
<path d="M286.961 15.1768C286.961 15.4385 286.75 15.6474 286.494 15.6474C286.238 15.6474 286.027 15.4385 286.027 15.1768C286.027 14.915 286.238 14.7062 286.494 14.7062C286.75 14.7062 286.961 14.915 286.961 15.1768Z" fill="#969DA6" stroke="#969DA6"/>
<path d="M296.025 15.1768C296.025 15.4385 295.815 15.6474 295.559 15.6474C295.303 15.6474 295.092 15.4385 295.092 15.1768C295.092 14.915 295.303 14.7062 295.559 14.7062C295.815 14.7062 296.025 14.915 296.025 15.1768Z" fill="#969DA6" stroke="#969DA6"/>
<path d="M305.092 15.1768C305.092 15.4385 304.881 15.6474 304.625 15.6474C304.369 15.6474 304.158 15.4385 304.158 15.1768C304.158 14.915 304.369 14.7062 304.625 14.7062C304.881 14.7062 305.092 14.915 305.092 15.1768Z" fill="#969DA6" stroke="#969DA6"/>
<path d="M314.158 15.1768C314.158 15.4385 313.947 15.6474 313.691 15.6474C313.435 15.6474 313.225 15.4385 313.225 15.1768C313.225 14.915 313.435 14.7062 313.691 14.7062C313.947 14.7062 314.158 14.915 314.158 15.1768Z" fill="#969DA6" stroke="#969DA6"/>
<path d="M323.223 15.1768C323.223 15.4385 323.012 15.6474 322.756 15.6474C322.5 15.6474 322.289 15.4385 322.289 15.1768C322.289 14.915 322.5 14.7062 322.756 14.7062C323.012 14.7062 323.223 14.915 323.223 15.1768Z" fill="#969DA6" stroke="#969DA6"/>
<path d="M241.643 22.2991C241.643 22.5608 241.432 22.7697 241.176 22.7697C240.92 22.7697 240.709 22.5608 240.709 22.2991C240.709 22.0374 240.92 21.8285 241.176 21.8285C241.432 21.8285 241.643 22.0374 241.643 22.2991Z" fill="#969DA6" stroke="#969DA6"/>
<path d="M250.709 22.2991C250.709 22.5608 250.498 22.7697 250.242 22.7697C249.986 22.7697 249.775 22.5608 249.775 22.2991C249.775 22.0374 249.986 21.8285 250.242 21.8285C250.498 21.8285 250.709 22.0374 250.709 22.2991Z" fill="#969DA6" stroke="#969DA6"/>
<path d="M259.774 22.2991C259.774 22.5608 259.563 22.7697 259.307 22.7697C259.051 22.7697 258.84 22.5608 258.84 22.2991C258.84 22.0374 259.051 21.8285 259.307 21.8285C259.563 21.8285 259.774 22.0374 259.774 22.2991Z" fill="#969DA6" stroke="#969DA6"/>
<path d="M268.832 22.2991C268.832 22.5608 268.621 22.7697 268.365 22.7697C268.109 22.7697 267.898 22.5608 267.898 22.2991C267.898 22.0374 268.109 21.8285 268.365 21.8285C268.621 21.8285 268.832 22.0374 268.832 22.2991Z" fill="#969DA6" stroke="#969DA6"/>
<path d="M277.897 22.2991C277.897 22.5608 277.686 22.7697 277.43 22.7697C277.174 22.7697 276.963 22.5608 276.963 22.2991C276.963 22.0374 277.174 21.8285 277.43 21.8285C277.686 21.8285 277.897 22.0374 277.897 22.2991Z" fill="#969DA6" stroke="#969DA6"/>
<path d="M286.961 22.2991C286.961 22.5608 286.75 22.7697 286.494 22.7697C286.238 22.7697 286.027 22.5608 286.027 22.2991C286.027 22.0374 286.238 21.8285 286.494 21.8285C286.75 21.8285 286.961 22.0374 286.961 22.2991Z" fill="#969DA6" stroke="#969DA6"/>
<path d="M296.025 22.2991C296.025 22.5608 295.815 22.7697 295.559 22.7697C295.303 22.7697 295.092 22.5608 295.092 22.2991C295.092 22.0374 295.303 21.8285 295.559 21.8285C295.815 21.8285 296.025 22.0374 296.025 22.2991Z" fill="#969DA6" stroke="#969DA6"/>
<path d="M305.092 22.2991C305.092 22.5608 304.881 22.7697 304.625 22.7697C304.369 22.7697 304.158 22.5608 304.158 22.2991C304.158 22.0374 304.369 21.8285 304.625 21.8285C304.881 21.8285 305.092 22.0374 305.092 22.2991Z" fill="#969DA6" stroke="#969DA6"/>
<path d="M314.158 22.2991C314.158 22.5608 313.947 22.7697 313.691 22.7697C313.435 22.7697 313.225 22.5608 313.225 22.2991C313.225 22.0374 313.435 21.8285 313.691 21.8285C313.947 21.8285 314.158 22.0374 314.158 22.2991Z" fill="#969DA6" stroke="#969DA6"/>
<path d="M323.223 22.2991C323.223 22.5608 323.012 22.7697 322.756 22.7697C322.5 22.7697 322.289 22.5608 322.289 22.2991C322.289 22.0374 322.5 21.8285 322.756 21.8285C323.012 21.8285 323.223 22.0374 323.223 22.2991Z" fill="#969DA6" stroke="#969DA6"/>
<path d="M241.643 29.4212C241.643 29.6829 241.432 29.8918 241.176 29.8918C240.92 29.8918 240.709 29.6829 240.709 29.4212C240.709 29.1595 240.92 28.9506 241.176 28.9506C241.432 28.9506 241.643 29.1595 241.643 29.4212Z" fill="#969DA6" stroke="#969DA6"/>
<path d="M250.709 29.4213C250.709 29.683 250.498 29.8919 250.242 29.8919C249.986 29.8919 249.775 29.683 249.775 29.4213C249.775 29.1596 249.986 28.9507 250.242 28.9507C250.498 28.9507 250.709 29.1596 250.709 29.4213Z" fill="#969DA6" stroke="#969DA6"/>
<path d="M259.774 29.4213C259.774 29.683 259.563 29.8919 259.307 29.8919C259.051 29.8919 258.84 29.683 258.84 29.4213C258.84 29.1596 259.051 28.9507 259.307 28.9507C259.563 28.9507 259.774 29.1596 259.774 29.4213Z" fill="#969DA6" stroke="#969DA6"/>
<path d="M268.832 29.4213C268.832 29.683 268.621 29.8919 268.365 29.8919C268.109 29.8919 267.898 29.683 267.898 29.4213C267.898 29.1596 268.109 28.9507 268.365 28.9507C268.621 28.9507 268.832 29.1596 268.832 29.4213Z" fill="#969DA6" stroke="#969DA6"/>
<path d="M277.897 29.4213C277.897 29.683 277.686 29.8919 277.43 29.8919C277.174 29.8919 276.963 29.683 276.963 29.4213C276.963 29.1596 277.174 28.9507 277.43 28.9507C277.686 28.9507 277.897 29.1596 277.897 29.4213Z" fill="#969DA6" stroke="#969DA6"/>
<path d="M286.961 29.4213C286.961 29.683 286.75 29.8919 286.494 29.8919C286.238 29.8919 286.027 29.683 286.027 29.4213C286.027 29.1596 286.238 28.9507 286.494 28.9507C286.75 28.9507 286.961 29.1596 286.961 29.4213Z" fill="#969DA6" stroke="#969DA6"/>
<path d="M296.025 29.4213C296.025 29.683 295.815 29.8919 295.559 29.8919C295.303 29.8919 295.092 29.683 295.092 29.4213C295.092 29.1596 295.303 28.9507 295.559 28.9507C295.815 28.9507 296.025 29.1596 296.025 29.4213Z" fill="#969DA6" stroke="#969DA6"/>
<path d="M305.092 29.4213C305.092 29.683 304.881 29.8919 304.625 29.8919C304.369 29.8919 304.158 29.683 304.158 29.4213C304.158 29.1596 304.369 28.9507 304.625 28.9507C304.881 28.9507 305.092 29.1596 305.092 29.4213Z" fill="#969DA6" stroke="#969DA6"/>
<path d="M314.158 29.4213C314.158 29.683 313.947 29.8919 313.691 29.8919C313.435 29.8919 313.225 29.683 313.225 29.4213C313.225 29.1596 313.435 28.9507 313.691 28.9507C313.947 28.9507 314.158 29.1596 314.158 29.4213Z" fill="#969DA6" stroke="#969DA6"/>
<path d="M323.223 29.4213C323.223 29.683 323.012 29.8919 322.756 29.8919C322.5 29.8919 322.289 29.683 322.289 29.4213C322.289 29.1596 322.5 28.9507 322.756 28.9507C323.012 28.9507 323.223 29.1596 323.223 29.4213Z" fill="#969DA6" stroke="#969DA6"/>
<path d="M241.643 36.5434C241.643 36.8051 241.432 37.014 241.176 37.014C240.92 37.014 240.709 36.8051 240.709 36.5434C240.709 36.2817 240.92 36.0728 241.176 36.0728C241.432 36.0728 241.643 36.2817 241.643 36.5434Z" fill="#969DA6" stroke="#969DA6"/>
<path d="M250.709 36.5433C250.709 36.8051 250.498 37.0139 250.242 37.0139C249.986 37.0139 249.775 36.8051 249.775 36.5433C249.775 36.2816 249.986 36.0728 250.242 36.0728C250.498 36.0728 250.709 36.2816 250.709 36.5433Z" fill="#969DA6" stroke="#969DA6"/>
<path d="M259.774 36.5433C259.774 36.8051 259.563 37.0139 259.307 37.0139C259.051 37.0139 258.84 36.8051 258.84 36.5433C258.84 36.2816 259.051 36.0728 259.307 36.0728C259.563 36.0728 259.774 36.2816 259.774 36.5433Z" fill="#969DA6" stroke="#969DA6"/>
<path d="M268.832 36.5433C268.832 36.8051 268.621 37.0139 268.365 37.0139C268.109 37.0139 267.898 36.8051 267.898 36.5433C267.898 36.2816 268.109 36.0728 268.365 36.0728C268.621 36.0728 268.832 36.2816 268.832 36.5433Z" fill="#969DA6" stroke="#969DA6"/>
<path d="M277.897 36.5433C277.897 36.8051 277.686 37.0139 277.43 37.0139C277.174 37.0139 276.963 36.8051 276.963 36.5433C276.963 36.2816 277.174 36.0728 277.43 36.0728C277.686 36.0728 277.897 36.2816 277.897 36.5433Z" fill="#969DA6" stroke="#969DA6"/>
<path d="M286.961 36.5433C286.961 36.8051 286.75 37.0139 286.494 37.0139C286.238 37.0139 286.027 36.8051 286.027 36.5433C286.027 36.2816 286.238 36.0728 286.494 36.0728C286.75 36.0728 286.961 36.2816 286.961 36.5433Z" fill="#969DA6" stroke="#969DA6"/>
<path d="M296.025 36.5433C296.025 36.8051 295.815 37.0139 295.559 37.0139C295.303 37.0139 295.092 36.8051 295.092 36.5433C295.092 36.2816 295.303 36.0728 295.559 36.0728C295.815 36.0728 296.025 36.2816 296.025 36.5433Z" fill="#969DA6" stroke="#969DA6"/>
<path d="M305.092 36.5433C305.092 36.8051 304.881 37.0139 304.625 37.0139C304.369 37.0139 304.158 36.8051 304.158 36.5433C304.158 36.2816 304.369 36.0728 304.625 36.0728C304.881 36.0728 305.092 36.2816 305.092 36.5433Z" fill="#969DA6" stroke="#969DA6"/>
<path d="M314.158 36.5433C314.158 36.8051 313.947 37.0139 313.691 37.0139C313.435 37.0139 313.225 36.8051 313.225 36.5433C313.225 36.2816 313.435 36.0728 313.691 36.0728C313.947 36.0728 314.158 36.2816 314.158 36.5433Z" fill="#969DA6" stroke="#969DA6"/>
<path d="M323.223 36.5433C323.223 36.8051 323.012 37.0139 322.756 37.0139C322.5 37.0139 322.289 36.8051 322.289 36.5433C322.289 36.2816 322.5 36.0728 322.756 36.0728C323.012 36.0728 323.223 36.2816 323.223 36.5433Z" fill="#969DA6" stroke="#969DA6"/>
<path d="M241.643 43.6655C241.643 43.9273 241.432 44.1361 241.176 44.1361C240.92 44.1361 240.709 43.9273 240.709 43.6655C240.709 43.4038 240.92 43.1949 241.176 43.1949C241.432 43.1949 241.643 43.4038 241.643 43.6655Z" fill="#969DA6" stroke="#969DA6"/>
<path d="M250.709 43.6655C250.709 43.9273 250.498 44.1361 250.242 44.1361C249.986 44.1361 249.775 43.9273 249.775 43.6655C249.775 43.4038 249.986 43.1949 250.242 43.1949C250.498 43.1949 250.709 43.4038 250.709 43.6655Z" fill="#969DA6" stroke="#969DA6"/>
<path d="M259.774 43.6655C259.774 43.9273 259.563 44.1361 259.307 44.1361C259.051 44.1361 258.84 43.9273 258.84 43.6655C258.84 43.4038 259.051 43.1949 259.307 43.1949C259.563 43.1949 259.774 43.4038 259.774 43.6655Z" fill="#969DA6" stroke="#969DA6"/>
<path d="M268.832 43.6655C268.832 43.9273 268.621 44.1361 268.365 44.1361C268.109 44.1361 267.898 43.9273 267.898 43.6655C267.898 43.4038 268.109 43.1949 268.365 43.1949C268.621 43.1949 268.832 43.4038 268.832 43.6655Z" fill="#969DA6" stroke="#969DA6"/>
<path d="M277.897 43.6655C277.897 43.9273 277.686 44.1361 277.43 44.1361C277.174 44.1361 276.963 43.9273 276.963 43.6655C276.963 43.4038 277.174 43.1949 277.43 43.1949C277.686 43.1949 277.897 43.4038 277.897 43.6655Z" fill="#969DA6" stroke="#969DA6"/>
<path d="M286.961 43.6655C286.961 43.9273 286.75 44.1361 286.494 44.1361C286.238 44.1361 286.027 43.9273 286.027 43.6655C286.027 43.4038 286.238 43.1949 286.494 43.1949C286.75 43.1949 286.961 43.4038 286.961 43.6655Z" fill="#969DA6" stroke="#969DA6"/>
<path d="M296.025 43.6655C296.025 43.9273 295.815 44.1361 295.559 44.1361C295.303 44.1361 295.092 43.9273 295.092 43.6655C295.092 43.4038 295.303 43.1949 295.559 43.1949C295.815 43.1949 296.025 43.4038 296.025 43.6655Z" fill="#969DA6" stroke="#969DA6"/>
<path d="M305.092 43.6655C305.092 43.9273 304.881 44.1361 304.625 44.1361C304.369 44.1361 304.158 43.9273 304.158 43.6655C304.158 43.4038 304.369 43.1949 304.625 43.1949C304.881 43.1949 305.092 43.4038 305.092 43.6655Z" fill="#969DA6" stroke="#969DA6"/>
<path d="M314.158 43.6655C314.158 43.9273 313.947 44.1361 313.691 44.1361C313.435 44.1361 313.225 43.9273 313.225 43.6655C313.225 43.4038 313.435 43.1949 313.691 43.1949C313.947 43.1949 314.158 43.4038 314.158 43.6655Z" fill="#969DA6" stroke="#969DA6"/>
<path d="M323.223 43.6655C323.223 43.9273 323.012 44.1361 322.756 44.1361C322.5 44.1361 322.289 43.9273 322.289 43.6655C322.289 43.4038 322.5 43.1949 322.756 43.1949C323.012 43.1949 323.223 43.4038 323.223 43.6655Z" fill="#969DA6" stroke="#969DA6"/>
<path d="M241.643 50.7948C241.643 51.0565 241.432 51.2654 241.176 51.2654C240.92 51.2654 240.709 51.0565 240.709 50.7948C240.709 50.5331 240.92 50.3242 241.176 50.3242C241.432 50.3242 241.643 50.5331 241.643 50.7948Z" fill="#969DA6" stroke="#969DA6"/>
<path d="M250.709 50.7948C250.709 51.0565 250.498 51.2654 250.242 51.2654C249.986 51.2654 249.775 51.0565 249.775 50.7948C249.775 50.5331 249.986 50.3242 250.242 50.3242C250.498 50.3242 250.709 50.5331 250.709 50.7948Z" fill="#969DA6" stroke="#969DA6"/>
<path d="M259.774 50.7948C259.774 51.0565 259.563 51.2654 259.307 51.2654C259.051 51.2654 258.84 51.0565 258.84 50.7948C258.84 50.5331 259.051 50.3242 259.307 50.3242C259.563 50.3242 259.774 50.5331 259.774 50.7948Z" fill="#969DA6" stroke="#969DA6"/>
<path d="M268.832 50.7948C268.832 51.0565 268.621 51.2654 268.365 51.2654C268.109 51.2654 267.898 51.0565 267.898 50.7948C267.898 50.5331 268.109 50.3242 268.365 50.3242C268.621 50.3242 268.832 50.5331 268.832 50.7948Z" fill="#969DA6" stroke="#969DA6"/>
<path d="M277.897 50.7948C277.897 51.0565 277.686 51.2654 277.43 51.2654C277.174 51.2654 276.963 51.0565 276.963 50.7948C276.963 50.5331 277.174 50.3242 277.43 50.3242C277.686 50.3242 277.897 50.5331 277.897 50.7948Z" fill="#969DA6" stroke="#969DA6"/>
<path d="M286.961 50.7948C286.961 51.0565 286.75 51.2654 286.494 51.2654C286.238 51.2654 286.027 51.0565 286.027 50.7948C286.027 50.5331 286.238 50.3242 286.494 50.3242C286.75 50.3242 286.961 50.5331 286.961 50.7948Z" fill="#969DA6" stroke="#969DA6"/>
<path d="M296.434 50.9706C296.434 51.2323 296.223 51.4412 295.967 51.4412C295.711 51.4412 295.5 51.2323 295.5 50.9706C295.5 50.7089 295.711 50.5 295.967 50.5C296.223 50.5 296.434 50.7089 296.434 50.9706Z" fill="#969DA6" stroke="#969DA6"/>
<path d="M305.092 50.7948C305.092 51.0565 304.881 51.2654 304.625 51.2654C304.369 51.2654 304.158 51.0565 304.158 50.7948C304.158 50.5331 304.369 50.3242 304.625 50.3242C304.881 50.3242 305.092 50.5331 305.092 50.7948Z" fill="#969DA6" stroke="#969DA6"/>
<path d="M314.158 50.7948C314.158 51.0565 313.947 51.2654 313.691 51.2654C313.435 51.2654 313.225 51.0565 313.225 50.7948C313.225 50.5331 313.435 50.3242 313.691 50.3242C313.947 50.3242 314.158 50.5331 314.158 50.7948Z" fill="#969DA6" stroke="#969DA6"/>
<path d="M323.223 50.7948C323.223 51.0565 323.012 51.2654 322.756 51.2654C322.5 51.2654 322.289 51.0565 322.289 50.7948C322.289 50.5331 322.5 50.3242 322.756 50.3242C323.012 50.3242 323.223 50.5331 323.223 50.7948Z" fill="#969DA6" stroke="#969DA6"/>
<path d="M241.643 57.9168C241.643 58.1785 241.432 58.3874 241.176 58.3874C240.92 58.3874 240.709 58.1785 240.709 57.9168C240.709 57.6551 240.92 57.4462 241.176 57.4462C241.432 57.4462 241.643 57.6551 241.643 57.9168Z" fill="#969DA6" stroke="#969DA6"/>
<path d="M250.709 57.9169C250.709 58.1786 250.498 58.3875 250.242 58.3875C249.986 58.3875 249.775 58.1786 249.775 57.9169C249.775 57.6552 249.986 57.4463 250.242 57.4463C250.498 57.4463 250.709 57.6552 250.709 57.9169Z" fill="#969DA6" stroke="#969DA6"/>
<path d="M259.774 57.9169C259.774 58.1786 259.563 58.3875 259.307 58.3875C259.051 58.3875 258.84 58.1786 258.84 57.9169C258.84 57.6552 259.051 57.4463 259.307 57.4463C259.563 57.4463 259.774 57.6552 259.774 57.9169Z" fill="#969DA6" stroke="#969DA6"/>
<path d="M268.832 57.9169C268.832 58.1786 268.621 58.3875 268.365 58.3875C268.109 58.3875 267.898 58.1786 267.898 57.9169C267.898 57.6552 268.109 57.4463 268.365 57.4463C268.621 57.4463 268.832 57.6552 268.832 57.9169Z" fill="#969DA6" stroke="#969DA6"/>
<path d="M277.897 57.9169C277.897 58.1786 277.686 58.3875 277.43 58.3875C277.174 58.3875 276.963 58.1786 276.963 57.9169C276.963 57.6552 277.174 57.4463 277.43 57.4463C277.686 57.4463 277.897 57.6552 277.897 57.9169Z" fill="#969DA6" stroke="#969DA6"/>
<path d="M286.961 57.9169C286.961 58.1786 286.75 58.3875 286.494 58.3875C286.238 58.3875 286.027 58.1786 286.027 57.9169C286.027 57.6552 286.238 57.4463 286.494 57.4463C286.75 57.4463 286.961 57.6552 286.961 57.9169Z" fill="#969DA6" stroke="#969DA6"/>
<path d="M296.025 57.9169C296.025 58.1786 295.815 58.3875 295.559 58.3875C295.303 58.3875 295.092 58.1786 295.092 57.9169C295.092 57.6552 295.303 57.4463 295.559 57.4463C295.815 57.4463 296.025 57.6552 296.025 57.9169Z" fill="#969DA6" stroke="#969DA6"/>
<path d="M305.092 57.9169C305.092 58.1786 304.881 58.3875 304.625 58.3875C304.369 58.3875 304.158 58.1786 304.158 57.9169C304.158 57.6552 304.369 57.4463 304.625 57.4463C304.881 57.4463 305.092 57.6552 305.092 57.9169Z" fill="#969DA6" stroke="#969DA6"/>
<path d="M314.158 57.9169C314.158 58.1786 313.947 58.3875 313.691 58.3875C313.435 58.3875 313.225 58.1786 313.225 57.9169C313.225 57.6552 313.435 57.4463 313.691 57.4463C313.947 57.4463 314.158 57.6552 314.158 57.9169Z" fill="#969DA6" stroke="#969DA6"/>
<path d="M323.223 57.9169C323.223 58.1786 323.012 58.3875 322.756 58.3875C322.5 58.3875 322.289 58.1786 322.289 57.9169C322.289 57.6552 322.5 57.4463 322.756 57.4463C323.012 57.4463 323.223 57.6552 323.223 57.9169Z" fill="#969DA6" stroke="#969DA6"/>
<path d="M241.643 65.0391C241.643 65.3009 241.432 65.5097 241.176 65.5097C240.92 65.5097 240.709 65.3009 240.709 65.0391C240.709 64.7774 240.92 64.5685 241.176 64.5685C241.432 64.5685 241.643 64.7774 241.643 65.0391Z" fill="#969DA6" stroke="#969DA6"/>
<path d="M250.709 65.0391C250.709 65.3008 250.498 65.5097 250.242 65.5097C249.986 65.5097 249.775 65.3008 249.775 65.0391C249.775 64.7774 249.986 64.5685 250.242 64.5685C250.498 64.5685 250.709 64.7774 250.709 65.0391Z" fill="#969DA6" stroke="#969DA6"/>
<path d="M259.774 65.0391C259.774 65.3008 259.563 65.5097 259.307 65.5097C259.051 65.5097 258.84 65.3008 258.84 65.0391C258.84 64.7774 259.051 64.5685 259.307 64.5685C259.563 64.5685 259.774 64.7774 259.774 65.0391Z" fill="#969DA6" stroke="#969DA6"/>
<path d="M268.832 65.0391C268.832 65.3008 268.621 65.5097 268.365 65.5097C268.109 65.5097 267.898 65.3008 267.898 65.0391C267.898 64.7774 268.109 64.5685 268.365 64.5685C268.621 64.5685 268.832 64.7774 268.832 65.0391Z" fill="#969DA6" stroke="#969DA6"/>
<path d="M277.897 65.0391C277.897 65.3008 277.686 65.5097 277.43 65.5097C277.174 65.5097 276.963 65.3008 276.963 65.0391C276.963 64.7774 277.174 64.5685 277.43 64.5685C277.686 64.5685 277.897 64.7774 277.897 65.0391Z" fill="#969DA6" stroke="#969DA6"/>
<path d="M286.961 65.0391C286.961 65.3008 286.75 65.5097 286.494 65.5097C286.238 65.5097 286.027 65.3008 286.027 65.0391C286.027 64.7774 286.238 64.5685 286.494 64.5685C286.75 64.5685 286.961 64.7774 286.961 65.0391Z" fill="#969DA6" stroke="#969DA6"/>
<path d="M296.025 65.0391C296.025 65.3008 295.815 65.5097 295.559 65.5097C295.303 65.5097 295.092 65.3008 295.092 65.0391C295.092 64.7774 295.303 64.5685 295.559 64.5685C295.815 64.5685 296.025 64.7774 296.025 65.0391Z" fill="#969DA6" stroke="#969DA6"/>
<path d="M305.092 65.0391C305.092 65.3008 304.881 65.5097 304.625 65.5097C304.369 65.5097 304.158 65.3008 304.158 65.0391C304.158 64.7774 304.369 64.5685 304.625 64.5685C304.881 64.5685 305.092 64.7774 305.092 65.0391Z" fill="#969DA6" stroke="#969DA6"/>
<path d="M314.158 65.0391C314.158 65.3008 313.947 65.5097 313.691 65.5097C313.435 65.5097 313.225 65.3008 313.225 65.0391C313.225 64.7774 313.435 64.5685 313.691 64.5685C313.947 64.5685 314.158 64.7774 314.158 65.0391Z" fill="#969DA6" stroke="#969DA6"/>
<path d="M323.223 65.0391C323.223 65.3008 323.012 65.5097 322.756 65.5097C322.5 65.5097 322.289 65.3008 322.289 65.0391C322.289 64.7774 322.5 64.5685 322.756 64.5685C323.012 64.5685 323.223 64.7774 323.223 65.0391Z" fill="#969DA6" stroke="#969DA6"/>
<path d="M241.643 72.161C241.643 72.4227 241.432 72.6316 241.176 72.6316C240.92 72.6316 240.709 72.4227 240.709 72.161C240.709 71.8993 240.92 71.6904 241.176 71.6904C241.432 71.6904 241.643 71.8993 241.643 72.161Z" fill="#969DA6" stroke="#969DA6"/>
<path d="M250.709 72.161C250.709 72.4227 250.498 72.6316 250.242 72.6316C249.986 72.6316 249.775 72.4227 249.775 72.161C249.775 71.8993 249.986 71.6904 250.242 71.6904C250.498 71.6904 250.709 71.8993 250.709 72.161Z" fill="#969DA6" stroke="#969DA6"/>
<path d="M259.774 72.161C259.774 72.4227 259.563 72.6316 259.307 72.6316C259.051 72.6316 258.84 72.4227 258.84 72.161C258.84 71.8993 259.051 71.6904 259.307 71.6904C259.563 71.6904 259.774 71.8993 259.774 72.161Z" fill="#969DA6" stroke="#969DA6"/>
<path d="M268.832 72.161C268.832 72.4227 268.621 72.6316 268.365 72.6316C268.109 72.6316 267.898 72.4227 267.898 72.161C267.898 71.8993 268.109 71.6904 268.365 71.6904C268.621 71.6904 268.832 71.8993 268.832 72.161Z" fill="#969DA6" stroke="#969DA6"/>
<path d="M277.897 72.161C277.897 72.4227 277.686 72.6316 277.43 72.6316C277.174 72.6316 276.963 72.4227 276.963 72.161C276.963 71.8993 277.174 71.6904 277.43 71.6904C277.686 71.6904 277.897 71.8993 277.897 72.161Z" fill="#969DA6" stroke="#969DA6"/>
<path d="M286.961 72.161C286.961 72.4227 286.75 72.6316 286.494 72.6316C286.238 72.6316 286.027 72.4227 286.027 72.161C286.027 71.8993 286.238 71.6904 286.494 71.6904C286.75 71.6904 286.961 71.8993 286.961 72.161Z" fill="#969DA6" stroke="#969DA6"/>
<path d="M296.025 72.161C296.025 72.4227 295.815 72.6316 295.559 72.6316C295.303 72.6316 295.092 72.4227 295.092 72.161C295.092 71.8993 295.303 71.6904 295.559 71.6904C295.815 71.6904 296.025 71.8993 296.025 72.161Z" fill="#969DA6" stroke="#969DA6"/>
<path d="M305.092 72.161C305.092 72.4227 304.881 72.6316 304.625 72.6316C304.369 72.6316 304.158 72.4227 304.158 72.161C304.158 71.8993 304.369 71.6904 304.625 71.6904C304.881 71.6904 305.092 71.8993 305.092 72.161Z" fill="#969DA6" stroke="#969DA6"/>
<path d="M314.158 72.161C314.158 72.4227 313.947 72.6316 313.691 72.6316C313.435 72.6316 313.225 72.4227 313.225 72.161C313.225 71.8993 313.435 71.6904 313.691 71.6904C313.947 71.6904 314.158 71.8993 314.158 72.161Z" fill="#969DA6" stroke="#969DA6"/>
<path d="M323.223 72.161C323.223 72.4227 323.012 72.6316 322.756 72.6316C322.5 72.6316 322.289 72.4227 322.289 72.161C322.289 71.8993 322.5 71.6904 322.756 71.6904C323.012 71.6904 323.223 71.8993 323.223 72.161Z" fill="#969DA6" stroke="#969DA6"/>
<path d="M241.643 79.2831C241.643 79.5448 241.432 79.7537 241.176 79.7537C240.92 79.7537 240.709 79.5448 240.709 79.2831C240.709 79.0214 240.92 78.8125 241.176 78.8125C241.432 78.8125 241.643 79.0214 241.643 79.2831Z" fill="#969DA6" stroke="#969DA6"/>
<path d="M250.709 79.2831C250.709 79.5448 250.498 79.7537 250.242 79.7537C249.986 79.7537 249.775 79.5448 249.775 79.2831C249.775 79.0214 249.986 78.8125 250.242 78.8125C250.498 78.8125 250.709 79.0214 250.709 79.2831Z" fill="#969DA6" stroke="#969DA6"/>
<path d="M259.774 79.2831C259.774 79.5448 259.563 79.7537 259.307 79.7537C259.051 79.7537 258.84 79.5448 258.84 79.2831C258.84 79.0214 259.051 78.8125 259.307 78.8125C259.563 78.8125 259.774 79.0214 259.774 79.2831Z" fill="#969DA6" stroke="#969DA6"/>
<path d="M268.832 79.2831C268.832 79.5448 268.621 79.7537 268.365 79.7537C268.109 79.7537 267.898 79.5448 267.898 79.2831C267.898 79.0214 268.109 78.8125 268.365 78.8125C268.621 78.8125 268.832 79.0214 268.832 79.2831Z" fill="#969DA6" stroke="#969DA6"/>
<path d="M277.897 79.2831C277.897 79.5448 277.686 79.7537 277.43 79.7537C277.174 79.7537 276.963 79.5448 276.963 79.2831C276.963 79.0214 277.174 78.8125 277.43 78.8125C277.686 78.8125 277.897 79.0214 277.897 79.2831Z" fill="#969DA6" stroke="#969DA6"/>
<path d="M286.961 79.2831C286.961 79.5448 286.75 79.7537 286.494 79.7537C286.238 79.7537 286.027 79.5448 286.027 79.2831C286.027 79.0214 286.238 78.8125 286.494 78.8125C286.75 78.8125 286.961 79.0214 286.961 79.2831Z" fill="#969DA6" stroke="#969DA6"/>
<path d="M296.025 79.2831C296.025 79.5448 295.815 79.7537 295.559 79.7537C295.303 79.7537 295.092 79.5448 295.092 79.2831C295.092 79.0214 295.303 78.8125 295.559 78.8125C295.815 78.8125 296.025 79.0214 296.025 79.2831Z" fill="#969DA6" stroke="#969DA6"/>
<path d="M305.092 79.2831C305.092 79.5448 304.881 79.7537 304.625 79.7537C304.369 79.7537 304.158 79.5448 304.158 79.2831C304.158 79.0214 304.369 78.8125 304.625 78.8125C304.881 78.8125 305.092 79.0214 305.092 79.2831Z" fill="#969DA6" stroke="#969DA6"/>
<path d="M314.158 79.2831C314.158 79.5448 313.947 79.7537 313.691 79.7537C313.435 79.7537 313.225 79.5448 313.225 79.2831C313.225 79.0214 313.435 78.8125 313.691 78.8125C313.947 78.8125 314.158 79.0214 314.158 79.2831Z" fill="#969DA6" stroke="#969DA6"/>
<path d="M323.223 79.2831C323.223 79.5448 323.012 79.7537 322.756 79.7537C322.5 79.7537 322.289 79.5448 322.289 79.2831C322.289 79.0214 322.5 78.8125 322.756 78.8125C323.012 78.8125 323.223 79.0214 323.223 79.2831Z" fill="#969DA6" stroke="#969DA6"/>
<path d="M241.643 85.8725C241.643 86.1342 241.432 86.3431 241.176 86.3431C240.92 86.3431 240.709 86.1342 240.709 85.8725C240.709 85.6108 240.92 85.4019 241.176 85.4019C241.432 85.4019 241.643 85.6108 241.643 85.8725Z" fill="#969DA6" stroke="#969DA6"/>
<path d="M250.709 85.8726C250.709 86.1343 250.498 86.3432 250.242 86.3432C249.986 86.3432 249.775 86.1343 249.775 85.8726C249.775 85.6108 249.986 85.402 250.242 85.402C250.498 85.402 250.709 85.6108 250.709 85.8726Z" fill="#969DA6" stroke="#969DA6"/>
<path d="M259.774 85.8726C259.774 86.1343 259.563 86.3432 259.307 86.3432C259.051 86.3432 258.84 86.1343 258.84 85.8726C258.84 85.6108 259.051 85.402 259.307 85.402C259.563 85.402 259.774 85.6108 259.774 85.8726Z" fill="#969DA6" stroke="#969DA6"/>
<path d="M268.832 85.8726C268.832 86.1343 268.621 86.3432 268.365 86.3432C268.109 86.3432 267.898 86.1343 267.898 85.8726C267.898 85.6108 268.109 85.402 268.365 85.402C268.621 85.402 268.832 85.6108 268.832 85.8726Z" fill="#969DA6" stroke="#969DA6"/>
<path d="M277.897 85.8726C277.897 86.1343 277.686 86.3432 277.43 86.3432C277.174 86.3432 276.963 86.1343 276.963 85.8726C276.963 85.6108 277.174 85.402 277.43 85.402C277.686 85.402 277.897 85.6108 277.897 85.8726Z" fill="#969DA6" stroke="#969DA6"/>
<path d="M286.961 85.8726C286.961 86.1343 286.75 86.3432 286.494 86.3432C286.238 86.3432 286.027 86.1343 286.027 85.8726C286.027 85.6108 286.238 85.402 286.494 85.402C286.75 85.402 286.961 85.6108 286.961 85.8726Z" fill="#969DA6" stroke="#969DA6"/>
<path d="M296.025 85.8726C296.025 86.1343 295.815 86.3432 295.559 86.3432C295.303 86.3432 295.092 86.1343 295.092 85.8726C295.092 85.6108 295.303 85.402 295.559 85.402C295.815 85.402 296.025 85.6108 296.025 85.8726Z" fill="#969DA6" stroke="#969DA6"/>
<path d="M305.092 85.8726C305.092 86.1343 304.881 86.3432 304.625 86.3432C304.369 86.3432 304.158 86.1343 304.158 85.8726C304.158 85.6108 304.369 85.402 304.625 85.402C304.881 85.402 305.092 85.6108 305.092 85.8726Z" fill="#969DA6" stroke="#969DA6"/>
<path d="M314.158 85.8726C314.158 86.1343 313.947 86.3432 313.691 86.3432C313.435 86.3432 313.225 86.1343 313.225 85.8726C313.225 85.6108 313.435 85.402 313.691 85.402C313.947 85.402 314.158 85.6108 314.158 85.8726Z" fill="#969DA6" stroke="#969DA6"/>
<path d="M323.223 85.8726C323.223 86.1343 323.012 86.3432 322.756 86.3432C322.5 86.3432 322.289 86.1343 322.289 85.8726C322.289 85.6108 322.5 85.402 322.756 85.402C323.012 85.402 323.223 85.6108 323.223 85.8726Z" fill="#969DA6" stroke="#969DA6"/>
<path d="M241.643 92.9947C241.643 93.2564 241.432 93.4653 241.176 93.4653C240.92 93.4653 240.709 93.2564 240.709 92.9947C240.709 92.733 240.92 92.5241 241.176 92.5241C241.432 92.5241 241.643 92.733 241.643 92.9947Z" fill="#969DA6" stroke="#969DA6"/>
<path d="M250.709 92.9946C250.709 93.2564 250.498 93.4652 250.242 93.4652C249.986 93.4652 249.775 93.2564 249.775 92.9946C249.775 92.7329 249.986 92.524 250.242 92.524C250.498 92.524 250.709 92.7329 250.709 92.9946Z" fill="#969DA6" stroke="#969DA6"/>
<path d="M259.774 92.9946C259.774 93.2564 259.563 93.4652 259.307 93.4652C259.051 93.4652 258.84 93.2564 258.84 92.9946C258.84 92.7329 259.051 92.524 259.307 92.524C259.563 92.524 259.774 92.7329 259.774 92.9946Z" fill="#969DA6" stroke="#969DA6"/>
<path d="M268.832 92.9946C268.832 93.2564 268.621 93.4652 268.365 93.4652C268.109 93.4652 267.898 93.2564 267.898 92.9946C267.898 92.7329 268.109 92.524 268.365 92.524C268.621 92.524 268.832 92.7329 268.832 92.9946Z" fill="#969DA6" stroke="#969DA6"/>
<path d="M277.897 92.9946C277.897 93.2564 277.686 93.4652 277.43 93.4652C277.174 93.4652 276.963 93.2564 276.963 92.9946C276.963 92.7329 277.174 92.524 277.43 92.524C277.686 92.524 277.897 92.7329 277.897 92.9946Z" fill="#969DA6" stroke="#969DA6"/>
<path d="M286.961 92.9946C286.961 93.2564 286.75 93.4652 286.494 93.4652C286.238 93.4652 286.027 93.2564 286.027 92.9946C286.027 92.7329 286.238 92.524 286.494 92.524C286.75 92.524 286.961 92.7329 286.961 92.9946Z" fill="#969DA6" stroke="#969DA6"/>
<path d="M296.025 92.9946C296.025 93.2564 295.815 93.4652 295.559 93.4652C295.303 93.4652 295.092 93.2564 295.092 92.9946C295.092 92.7329 295.303 92.524 295.559 92.524C295.815 92.524 296.025 92.7329 296.025 92.9946Z" fill="#969DA6" stroke="#969DA6"/>
<path d="M305.092 92.9946C305.092 93.2564 304.881 93.4652 304.625 93.4652C304.369 93.4652 304.158 93.2564 304.158 92.9946C304.158 92.7329 304.369 92.524 304.625 92.524C304.881 92.524 305.092 92.7329 305.092 92.9946Z" fill="#969DA6" stroke="#969DA6"/>
<path d="M314.158 92.9946C314.158 93.2564 313.947 93.4652 313.691 93.4652C313.435 93.4652 313.225 93.2564 313.225 92.9946C313.225 92.7329 313.435 92.524 313.691 92.524C313.947 92.524 314.158 92.7329 314.158 92.9946Z" fill="#969DA6" stroke="#969DA6"/>
<path d="M323.223 92.9946C323.223 93.2564 323.012 93.4652 322.756 93.4652C322.5 93.4652 322.289 93.2564 322.289 92.9946C322.289 92.7329 322.5 92.524 322.756 92.524C323.012 92.524 323.223 92.7329 323.223 92.9946Z" fill="#969DA6" stroke="#969DA6"/>
<path d="M241.643 100.124C241.643 100.386 241.432 100.594 241.176 100.594C240.92 100.594 240.709 100.386 240.709 100.124C240.709 99.8621 240.92 99.6532 241.176 99.6532C241.432 99.6532 241.643 99.8621 241.643 100.124Z" fill="#969DA6" stroke="#969DA6"/>
<path d="M250.709 100.124C250.709 100.386 250.498 100.594 250.242 100.594C249.986 100.594 249.775 100.386 249.775 100.124C249.775 99.8621 249.986 99.6532 250.242 99.6532C250.498 99.6532 250.709 99.8621 250.709 100.124Z" fill="#969DA6" stroke="#969DA6"/>
<path d="M259.774 100.124C259.774 100.386 259.563 100.594 259.307 100.594C259.051 100.594 258.84 100.386 258.84 100.124C258.84 99.8621 259.051 99.6532 259.307 99.6532C259.563 99.6532 259.774 99.8621 259.774 100.124Z" fill="#969DA6" stroke="#969DA6"/>
<path d="M268.832 100.124C268.832 100.386 268.621 100.594 268.365 100.594C268.109 100.594 267.898 100.386 267.898 100.124C267.898 99.8621 268.109 99.6532 268.365 99.6532C268.621 99.6532 268.832 99.8621 268.832 100.124Z" fill="#969DA6" stroke="#969DA6"/>
<path d="M277.897 100.124C277.897 100.386 277.686 100.594 277.43 100.594C277.174 100.594 276.963 100.386 276.963 100.124C276.963 99.8621 277.174 99.6532 277.43 99.6532C277.686 99.6532 277.897 99.8621 277.897 100.124Z" fill="#969DA6" stroke="#969DA6"/>
<path d="M286.961 100.124C286.961 100.386 286.75 100.594 286.494 100.594C286.238 100.594 286.027 100.386 286.027 100.124C286.027 99.8621 286.238 99.6532 286.494 99.6532C286.75 99.6532 286.961 99.8621 286.961 100.124Z" fill="#969DA6" stroke="#969DA6"/>
<path d="M296.025 100.124C296.025 100.386 295.815 100.594 295.559 100.594C295.303 100.594 295.092 100.386 295.092 100.124C295.092 99.8621 295.303 99.6532 295.559 99.6532C295.815 99.6532 296.025 99.8621 296.025 100.124Z" fill="#969DA6" stroke="#969DA6"/>
<path d="M305.092 100.124C305.092 100.386 304.881 100.594 304.625 100.594C304.369 100.594 304.158 100.386 304.158 100.124C304.158 99.8621 304.369 99.6532 304.625 99.6532C304.881 99.6532 305.092 99.8621 305.092 100.124Z" fill="#969DA6" stroke="#969DA6"/>
<path d="M314.158 100.124C314.158 100.386 313.947 100.594 313.691 100.594C313.435 100.594 313.225 100.386 313.225 100.124C313.225 99.8621 313.435 99.6532 313.691 99.6532C313.947 99.6532 314.158 99.8621 314.158 100.124Z" fill="#969DA6" stroke="#969DA6"/>
<path d="M323.223 100.124C323.223 100.386 323.012 100.594 322.756 100.594C322.5 100.594 322.289 100.386 322.289 100.124C322.289 99.8621 322.5 99.6532 322.756 99.6532C323.012 99.6532 323.223 99.8621 323.223 100.124Z" fill="#969DA6" stroke="#969DA6"/>
<path d="M241.643 107.246C241.643 107.508 241.432 107.717 241.176 107.717C240.92 107.717 240.709 107.508 240.709 107.246C240.709 106.984 240.92 106.775 241.176 106.775C241.432 106.775 241.643 106.984 241.643 107.246Z" fill="#969DA6" stroke="#969DA6"/>
<path d="M250.709 107.246C250.709 107.508 250.498 107.717 250.242 107.717C249.986 107.717 249.775 107.508 249.775 107.246C249.775 106.984 249.986 106.775 250.242 106.775C250.498 106.775 250.709 106.984 250.709 107.246Z" fill="#969DA6" stroke="#969DA6"/>
<path d="M259.774 107.246C259.774 107.508 259.563 107.717 259.307 107.717C259.051 107.717 258.84 107.508 258.84 107.246C258.84 106.984 259.051 106.775 259.307 106.775C259.563 106.775 259.774 106.984 259.774 107.246Z" fill="#969DA6" stroke="#969DA6"/>
<path d="M268.832 107.246C268.832 107.508 268.621 107.717 268.365 107.717C268.109 107.717 267.898 107.508 267.898 107.246C267.898 106.984 268.109 106.775 268.365 106.775C268.621 106.775 268.832 106.984 268.832 107.246Z" fill="#969DA6" stroke="#969DA6"/>
<path d="M277.897 107.246C277.897 107.508 277.686 107.717 277.43 107.717C277.174 107.717 276.963 107.508 276.963 107.246C276.963 106.984 277.174 106.775 277.43 106.775C277.686 106.775 277.897 106.984 277.897 107.246Z" fill="#969DA6" stroke="#969DA6"/>
<path d="M286.961 107.246C286.961 107.508 286.75 107.717 286.494 107.717C286.238 107.717 286.027 107.508 286.027 107.246C286.027 106.984 286.238 106.775 286.494 106.775C286.75 106.775 286.961 106.984 286.961 107.246Z" fill="#969DA6" stroke="#969DA6"/>
<path d="M296.025 107.246C296.025 107.508 295.815 107.717 295.559 107.717C295.303 107.717 295.092 107.508 295.092 107.246C295.092 106.984 295.303 106.775 295.559 106.775C295.815 106.775 296.025 106.984 296.025 107.246Z" fill="#969DA6" stroke="#969DA6"/>
<path d="M305.092 107.246C305.092 107.508 304.881 107.717 304.625 107.717C304.369 107.717 304.158 107.508 304.158 107.246C304.158 106.984 304.369 106.775 304.625 106.775C304.881 106.775 305.092 106.984 305.092 107.246Z" fill="#969DA6" stroke="#969DA6"/>
<path d="M314.158 107.246C314.158 107.508 313.947 107.717 313.691 107.717C313.435 107.717 313.225 107.508 313.225 107.246C313.225 106.984 313.435 106.775 313.691 106.775C313.947 106.775 314.158 106.984 314.158 107.246Z" fill="#969DA6" stroke="#969DA6"/>
<path d="M323.223 107.246C323.223 107.508 323.012 107.717 322.756 107.717C322.5 107.717 322.289 107.508 322.289 107.246C322.289 106.984 322.5 106.775 322.756 106.775C323.012 106.775 323.223 106.984 323.223 107.246Z" fill="#969DA6" stroke="#969DA6"/>
<path d="M241.643 114.368C241.643 114.63 241.432 114.839 241.176 114.839C240.92 114.839 240.709 114.63 240.709 114.368C240.709 114.106 240.92 113.898 241.176 113.898C241.432 113.898 241.643 114.106 241.643 114.368Z" fill="#969DA6" stroke="#969DA6"/>
<path d="M250.709 114.368C250.709 114.63 250.498 114.839 250.242 114.839C249.986 114.839 249.775 114.63 249.775 114.368C249.775 114.106 249.986 113.898 250.242 113.898C250.498 113.898 250.709 114.106 250.709 114.368Z" fill="#969DA6" stroke="#969DA6"/>
<path d="M259.774 114.368C259.774 114.63 259.563 114.839 259.307 114.839C259.051 114.839 258.84 114.63 258.84 114.368C258.84 114.106 259.051 113.898 259.307 113.898C259.563 113.898 259.774 114.106 259.774 114.368Z" fill="#969DA6" stroke="#969DA6"/>
<path d="M268.832 114.368C268.832 114.63 268.621 114.839 268.365 114.839C268.109 114.839 267.898 114.63 267.898 114.368C267.898 114.106 268.109 113.898 268.365 113.898C268.621 113.898 268.832 114.106 268.832 114.368Z" fill="#969DA6" stroke="#969DA6"/>
<path d="M277.897 114.368C277.897 114.63 277.686 114.839 277.43 114.839C277.174 114.839 276.963 114.63 276.963 114.368C276.963 114.106 277.174 113.898 277.43 113.898C277.686 113.898 277.897 114.106 277.897 114.368Z" fill="#969DA6" stroke="#969DA6"/>
<path d="M286.961 114.368C286.961 114.63 286.75 114.839 286.494 114.839C286.238 114.839 286.027 114.63 286.027 114.368C286.027 114.106 286.238 113.898 286.494 113.898C286.75 113.898 286.961 114.106 286.961 114.368Z" fill="#969DA6" stroke="#969DA6"/>
<path d="M296.025 114.368C296.025 114.63 295.815 114.839 295.559 114.839C295.303 114.839 295.092 114.63 295.092 114.368C295.092 114.106 295.303 113.898 295.559 113.898C295.815 113.898 296.025 114.106 296.025 114.368Z" fill="#969DA6" stroke="#969DA6"/>
<path d="M305.092 114.368C305.092 114.63 304.881 114.839 304.625 114.839C304.369 114.839 304.158 114.63 304.158 114.368C304.158 114.106 304.369 113.898 304.625 113.898C304.881 113.898 305.092 114.106 305.092 114.368Z" fill="#969DA6" stroke="#969DA6"/>
<path d="M314.158 114.368C314.158 114.63 313.947 114.839 313.691 114.839C313.435 114.839 313.225 114.63 313.225 114.368C313.225 114.106 313.435 113.898 313.691 113.898C313.947 113.898 314.158 114.106 314.158 114.368Z" fill="#969DA6" stroke="#969DA6"/>
<path d="M323.223 114.368C323.223 114.63 323.012 114.839 322.756 114.839C322.5 114.839 322.289 114.63 322.289 114.368C322.289 114.106 322.5 113.898 322.756 113.898C323.012 113.898 323.223 114.106 323.223 114.368Z" fill="#969DA6" stroke="#969DA6"/>
<path d="M241.643 121.49C241.643 121.752 241.432 121.961 241.176 121.961C240.92 121.961 240.709 121.752 240.709 121.49C240.709 121.229 240.92 121.02 241.176 121.02C241.432 121.02 241.643 121.229 241.643 121.49Z" fill="#969DA6" stroke="#969DA6"/>
<path d="M250.709 121.49C250.709 121.752 250.498 121.961 250.242 121.961C249.986 121.961 249.775 121.752 249.775 121.49C249.775 121.229 249.986 121.02 250.242 121.02C250.498 121.02 250.709 121.229 250.709 121.49Z" fill="#969DA6" stroke="#969DA6"/>
<path d="M259.774 121.49C259.774 121.752 259.563 121.961 259.307 121.961C259.051 121.961 258.84 121.752 258.84 121.49C258.84 121.229 259.051 121.02 259.307 121.02C259.563 121.02 259.774 121.229 259.774 121.49Z" fill="#969DA6" stroke="#969DA6"/>
<path d="M268.832 121.49C268.832 121.752 268.621 121.961 268.365 121.961C268.109 121.961 267.898 121.752 267.898 121.49C267.898 121.229 268.109 121.02 268.365 121.02C268.621 121.02 268.832 121.229 268.832 121.49Z" fill="#969DA6" stroke="#969DA6"/>
<path d="M277.897 121.49C277.897 121.752 277.686 121.961 277.43 121.961C277.174 121.961 276.963 121.752 276.963 121.49C276.963 121.229 277.174 121.02 277.43 121.02C277.686 121.02 277.897 121.229 277.897 121.49Z" fill="#969DA6" stroke="#969DA6"/>
<path d="M286.961 121.49C286.961 121.752 286.75 121.961 286.494 121.961C286.238 121.961 286.027 121.752 286.027 121.49C286.027 121.229 286.238 121.02 286.494 121.02C286.75 121.02 286.961 121.229 286.961 121.49Z" fill="#969DA6" stroke="#969DA6"/>
<path d="M296.025 121.49C296.025 121.752 295.815 121.961 295.559 121.961C295.303 121.961 295.092 121.752 295.092 121.49C295.092 121.229 295.303 121.02 295.559 121.02C295.815 121.02 296.025 121.229 296.025 121.49Z" fill="#969DA6" stroke="#969DA6"/>
<path d="M305.092 121.49C305.092 121.752 304.881 121.961 304.625 121.961C304.369 121.961 304.158 121.752 304.158 121.49C304.158 121.229 304.369 121.02 304.625 121.02C304.881 121.02 305.092 121.229 305.092 121.49Z" fill="#969DA6" stroke="#969DA6"/>
<path d="M314.158 121.49C314.158 121.752 313.947 121.961 313.691 121.961C313.435 121.961 313.225 121.752 313.225 121.49C313.225 121.229 313.435 121.02 313.691 121.02C313.947 121.02 314.158 121.229 314.158 121.49Z" fill="#969DA6" stroke="#969DA6"/>
<path d="M323.223 121.49C323.223 121.752 323.012 121.961 322.756 121.961C322.5 121.961 322.289 121.752 322.289 121.49C322.289 121.229 322.5 121.02 322.756 121.02C323.012 121.02 323.223 121.229 323.223 121.49Z" fill="#969DA6" stroke="#969DA6"/>
<path d="M241.643 128.613C241.643 128.874 241.432 129.083 241.176 129.083C240.92 129.083 240.709 128.874 240.709 128.613C240.709 128.351 240.92 128.142 241.176 128.142C241.432 128.142 241.643 128.351 241.643 128.613Z" fill="#969DA6" stroke="#969DA6"/>
<path d="M250.709 128.613C250.709 128.874 250.498 129.083 250.242 129.083C249.986 129.083 249.775 128.874 249.775 128.613C249.775 128.351 249.986 128.142 250.242 128.142C250.498 128.142 250.709 128.351 250.709 128.613Z" fill="#969DA6" stroke="#969DA6"/>
<path d="M259.774 128.613C259.774 128.874 259.563 129.083 259.307 129.083C259.051 129.083 258.84 128.874 258.84 128.613C258.84 128.351 259.051 128.142 259.307 128.142C259.563 128.142 259.774 128.351 259.774 128.613Z" fill="#969DA6" stroke="#969DA6"/>
<path d="M268.832 128.613C268.832 128.874 268.621 129.083 268.365 129.083C268.109 129.083 267.898 128.874 267.898 128.613C267.898 128.351 268.109 128.142 268.365 128.142C268.621 128.142 268.832 128.351 268.832 128.613Z" fill="#969DA6" stroke="#969DA6"/>
<path d="M277.897 128.613C277.897 128.874 277.686 129.083 277.43 129.083C277.174 129.083 276.963 128.874 276.963 128.613C276.963 128.351 277.174 128.142 277.43 128.142C277.686 128.142 277.897 128.351 277.897 128.613Z" fill="#969DA6" stroke="#969DA6"/>
<path d="M286.961 128.613C286.961 128.874 286.75 129.083 286.494 129.083C286.238 129.083 286.027 128.874 286.027 128.613C286.027 128.351 286.238 128.142 286.494 128.142C286.75 128.142 286.961 128.351 286.961 128.613Z" fill="#969DA6" stroke="#969DA6"/>
<path d="M296.025 128.613C296.025 128.874 295.815 129.083 295.559 129.083C295.303 129.083 295.092 128.874 295.092 128.613C295.092 128.351 295.303 128.142 295.559 128.142C295.815 128.142 296.025 128.351 296.025 128.613Z" fill="#969DA6" stroke="#969DA6"/>
<path d="M305.092 128.613C305.092 128.874 304.881 129.083 304.625 129.083C304.369 129.083 304.158 128.874 304.158 128.613C304.158 128.351 304.369 128.142 304.625 128.142C304.881 128.142 305.092 128.351 305.092 128.613Z" fill="#969DA6" stroke="#969DA6"/>
<path d="M314.158 128.613C314.158 128.874 313.947 129.083 313.691 129.083C313.435 129.083 313.225 128.874 313.225 128.613C313.225 128.351 313.435 128.142 313.691 128.142C313.947 128.142 314.158 128.351 314.158 128.613Z" fill="#969DA6" stroke="#969DA6"/>
<path d="M323.223 128.613C323.223 128.874 323.012 129.083 322.756 129.083C322.5 129.083 322.289 128.874 322.289 128.613C322.289 128.351 322.5 128.142 322.756 128.142C323.012 128.142 323.223 128.351 323.223 128.613Z" fill="#969DA6" stroke="#969DA6"/>
<path d="M241.643 135.734C241.643 135.996 241.432 136.205 241.176 136.205C240.92 136.205 240.709 135.996 240.709 135.734C240.709 135.473 240.92 135.264 241.176 135.264C241.432 135.264 241.643 135.473 241.643 135.734Z" fill="#969DA6" stroke="#969DA6"/>
<path d="M250.709 135.734C250.709 135.996 250.498 136.205 250.242 136.205C249.986 136.205 249.775 135.996 249.775 135.734C249.775 135.473 249.986 135.264 250.242 135.264C250.498 135.264 250.709 135.473 250.709 135.734Z" fill="#969DA6" stroke="#969DA6"/>
<path d="M259.774 135.734C259.774 135.996 259.563 136.205 259.307 136.205C259.051 136.205 258.84 135.996 258.84 135.734C258.84 135.473 259.051 135.264 259.307 135.264C259.563 135.264 259.774 135.473 259.774 135.734Z" fill="#969DA6" stroke="#969DA6"/>
<path d="M268.832 135.734C268.832 135.996 268.621 136.205 268.365 136.205C268.109 136.205 267.898 135.996 267.898 135.734C267.898 135.473 268.109 135.264 268.365 135.264C268.621 135.264 268.832 135.473 268.832 135.734Z" fill="#969DA6" stroke="#969DA6"/>
<path d="M277.897 135.734C277.897 135.996 277.686 136.205 277.43 136.205C277.174 136.205 276.963 135.996 276.963 135.734C276.963 135.473 277.174 135.264 277.43 135.264C277.686 135.264 277.897 135.473 277.897 135.734Z" fill="#969DA6" stroke="#969DA6"/>
<path d="M286.961 135.734C286.961 135.996 286.75 136.205 286.494 136.205C286.238 136.205 286.027 135.996 286.027 135.734C286.027 135.473 286.238 135.264 286.494 135.264C286.75 135.264 286.961 135.473 286.961 135.734Z" fill="#969DA6" stroke="#969DA6"/>
<path d="M296.025 135.734C296.025 135.996 295.815 136.205 295.559 136.205C295.303 136.205 295.092 135.996 295.092 135.734C295.092 135.473 295.303 135.264 295.559 135.264C295.815 135.264 296.025 135.473 296.025 135.734Z" fill="#969DA6" stroke="#969DA6"/>
<path d="M305.092 135.734C305.092 135.996 304.881 136.205 304.625 136.205C304.369 136.205 304.158 135.996 304.158 135.734C304.158 135.473 304.369 135.264 304.625 135.264C304.881 135.264 305.092 135.473 305.092 135.734Z" fill="#969DA6" stroke="#969DA6"/>
<path d="M314.158 135.734C314.158 135.996 313.947 136.205 313.691 136.205C313.435 136.205 313.225 135.996 313.225 135.734C313.225 135.473 313.435 135.264 313.691 135.264C313.947 135.264 314.158 135.473 314.158 135.734Z" fill="#969DA6" stroke="#969DA6"/>
<path d="M323.223 135.734C323.223 135.996 323.012 136.205 322.756 136.205C322.5 136.205 322.289 135.996 322.289 135.734C322.289 135.473 322.5 135.264 322.756 135.264C323.012 135.264 323.223 135.473 323.223 135.734Z" fill="#969DA6" stroke="#969DA6"/>
<path d="M241.643 142.857C241.643 143.119 241.432 143.327 241.176 143.327C240.92 143.327 240.709 143.119 240.709 142.857C240.709 142.595 240.92 142.386 241.176 142.386C241.432 142.386 241.643 142.595 241.643 142.857Z" fill="#969DA6" stroke="#969DA6"/>
<path d="M250.709 142.857C250.709 143.119 250.498 143.327 250.242 143.327C249.986 143.327 249.775 143.119 249.775 142.857C249.775 142.595 249.986 142.386 250.242 142.386C250.498 142.386 250.709 142.595 250.709 142.857Z" fill="#969DA6" stroke="#969DA6"/>
<path d="M259.774 142.857C259.774 143.119 259.563 143.327 259.307 143.327C259.051 143.327 258.84 143.119 258.84 142.857C258.84 142.595 259.051 142.386 259.307 142.386C259.563 142.386 259.774 142.595 259.774 142.857Z" fill="#969DA6" stroke="#969DA6"/>
<path d="M268.832 142.857C268.832 143.119 268.621 143.327 268.365 143.327C268.109 143.327 267.898 143.119 267.898 142.857C267.898 142.595 268.109 142.386 268.365 142.386C268.621 142.386 268.832 142.595 268.832 142.857Z" fill="#969DA6" stroke="#969DA6"/>
<path d="M277.897 142.857C277.897 143.119 277.686 143.327 277.43 143.327C277.174 143.327 276.963 143.119 276.963 142.857C276.963 142.595 277.174 142.386 277.43 142.386C277.686 142.386 277.897 142.595 277.897 142.857Z" fill="#969DA6" stroke="#969DA6"/>
<path d="M286.961 142.857C286.961 143.119 286.75 143.327 286.494 143.327C286.238 143.327 286.027 143.119 286.027 142.857C286.027 142.595 286.238 142.386 286.494 142.386C286.75 142.386 286.961 142.595 286.961 142.857Z" fill="#969DA6" stroke="#969DA6"/>
<path d="M296.025 142.857C296.025 143.119 295.815 143.327 295.559 143.327C295.303 143.327 295.092 143.119 295.092 142.857C295.092 142.595 295.303 142.386 295.559 142.386C295.815 142.386 296.025 142.595 296.025 142.857Z" fill="#969DA6" stroke="#969DA6"/>
<path d="M305.092 142.857C305.092 143.119 304.881 143.327 304.625 143.327C304.369 143.327 304.158 143.119 304.158 142.857C304.158 142.595 304.369 142.386 304.625 142.386C304.881 142.386 305.092 142.595 305.092 142.857Z" fill="#969DA6" stroke="#969DA6"/>
<path d="M314.158 142.857C314.158 143.119 313.947 143.327 313.691 143.327C313.435 143.327 313.225 143.119 313.225 142.857C313.225 142.595 313.435 142.386 313.691 142.386C313.947 142.386 314.158 142.595 314.158 142.857Z" fill="#969DA6" stroke="#969DA6"/>
<path d="M323.223 142.857C323.223 143.119 323.012 143.327 322.756 143.327C322.5 143.327 322.289 143.119 322.289 142.857C322.289 142.595 322.5 142.386 322.756 142.386C323.012 142.386 323.223 142.595 323.223 142.857Z" fill="#969DA6" stroke="#969DA6"/>
<path d="M241.643 149.985C241.643 150.246 241.432 150.455 241.176 150.455C240.92 150.455 240.709 150.246 240.709 149.985C240.709 149.723 240.92 149.514 241.176 149.514C241.432 149.514 241.643 149.723 241.643 149.985Z" fill="#969DA6" stroke="#969DA6"/>
<path d="M250.709 149.985C250.709 150.246 250.498 150.455 250.242 150.455C249.986 150.455 249.775 150.246 249.775 149.985C249.775 149.723 249.986 149.514 250.242 149.514C250.498 149.514 250.709 149.723 250.709 149.985Z" fill="#969DA6" stroke="#969DA6"/>
<path d="M259.774 149.985C259.774 150.246 259.563 150.455 259.307 150.455C259.051 150.455 258.84 150.246 258.84 149.985C258.84 149.723 259.051 149.514 259.307 149.514C259.563 149.514 259.774 149.723 259.774 149.985Z" fill="#969DA6" stroke="#969DA6"/>
<path d="M268.832 149.985C268.832 150.246 268.621 150.455 268.365 150.455C268.109 150.455 267.898 150.246 267.898 149.985C267.898 149.723 268.109 149.514 268.365 149.514C268.621 149.514 268.832 149.723 268.832 149.985Z" fill="#969DA6" stroke="#969DA6"/>
<path d="M277.897 149.985C277.897 150.246 277.686 150.455 277.43 150.455C277.174 150.455 276.963 150.246 276.963 149.985C276.963 149.723 277.174 149.514 277.43 149.514C277.686 149.514 277.897 149.723 277.897 149.985Z" fill="#969DA6" stroke="#969DA6"/>
<path d="M286.961 149.985C286.961 150.246 286.75 150.455 286.494 150.455C286.238 150.455 286.027 150.246 286.027 149.985C286.027 149.723 286.238 149.514 286.494 149.514C286.75 149.514 286.961 149.723 286.961 149.985Z" fill="#969DA6" stroke="#969DA6"/>
<path d="M296.025 149.985C296.025 150.246 295.815 150.455 295.559 150.455C295.303 150.455 295.092 150.246 295.092 149.985C295.092 149.723 295.303 149.514 295.559 149.514C295.815 149.514 296.025 149.723 296.025 149.985Z" fill="#969DA6" stroke="#969DA6"/>
<path d="M305.092 149.985C305.092 150.246 304.881 150.455 304.625 150.455C304.369 150.455 304.158 150.246 304.158 149.985C304.158 149.723 304.369 149.514 304.625 149.514C304.881 149.514 305.092 149.723 305.092 149.985Z" fill="#969DA6" stroke="#969DA6"/>
<path d="M314.158 149.985C314.158 150.246 313.947 150.455 313.691 150.455C313.435 150.455 313.225 150.246 313.225 149.985C313.225 149.723 313.435 149.514 313.691 149.514C313.947 149.514 314.158 149.723 314.158 149.985Z" fill="#969DA6" stroke="#969DA6"/>
<path d="M323.223 149.985C323.223 150.246 323.012 150.455 322.756 150.455C322.5 150.455 322.289 150.246 322.289 149.985C322.289 149.723 322.5 149.514 322.756 149.514C323.012 149.514 323.223 149.723 323.223 149.985Z" fill="#969DA6" stroke="#969DA6"/>
<path d="M241.643 157.107C241.643 157.369 241.432 157.577 241.176 157.577C240.92 157.577 240.709 157.369 240.709 157.107C240.709 156.845 240.92 156.636 241.176 156.636C241.432 156.636 241.643 156.845 241.643 157.107Z" fill="#969DA6" stroke="#969DA6"/>
<path d="M250.709 157.107C250.709 157.369 250.498 157.577 250.242 157.577C249.986 157.577 249.775 157.369 249.775 157.107C249.775 156.845 249.986 156.636 250.242 156.636C250.498 156.636 250.709 156.845 250.709 157.107Z" fill="#969DA6" stroke="#969DA6"/>
<path d="M259.774 157.107C259.774 157.369 259.563 157.577 259.307 157.577C259.051 157.577 258.84 157.369 258.84 157.107C258.84 156.845 259.051 156.636 259.307 156.636C259.563 156.636 259.774 156.845 259.774 157.107Z" fill="#969DA6" stroke="#969DA6"/>
<path d="M268.832 157.107C268.832 157.369 268.621 157.577 268.365 157.577C268.109 157.577 267.898 157.369 267.898 157.107C267.898 156.845 268.109 156.636 268.365 156.636C268.621 156.636 268.832 156.845 268.832 157.107Z" fill="#969DA6" stroke="#969DA6"/>
<path d="M277.897 157.107C277.897 157.369 277.686 157.577 277.43 157.577C277.174 157.577 276.963 157.369 276.963 157.107C276.963 156.845 277.174 156.636 277.43 156.636C277.686 156.636 277.897 156.845 277.897 157.107Z" fill="#969DA6" stroke="#969DA6"/>
<path d="M286.961 157.107C286.961 157.369 286.75 157.577 286.494 157.577C286.238 157.577 286.027 157.369 286.027 157.107C286.027 156.845 286.238 156.636 286.494 156.636C286.75 156.636 286.961 156.845 286.961 157.107Z" fill="#969DA6" stroke="#969DA6"/>
<path d="M296.025 157.107C296.025 157.369 295.815 157.577 295.559 157.577C295.303 157.577 295.092 157.369 295.092 157.107C295.092 156.845 295.303 156.636 295.559 156.636C295.815 156.636 296.025 156.845 296.025 157.107Z" fill="#969DA6" stroke="#969DA6"/>
<path d="M305.092 157.107C305.092 157.369 304.881 157.577 304.625 157.577C304.369 157.577 304.158 157.369 304.158 157.107C304.158 156.845 304.369 156.636 304.625 156.636C304.881 156.636 305.092 156.845 305.092 157.107Z" fill="#969DA6" stroke="#969DA6"/>
<path d="M314.158 157.107C314.158 157.369 313.947 157.577 313.691 157.577C313.435 157.577 313.225 157.369 313.225 157.107C313.225 156.845 313.435 156.636 313.691 156.636C313.947 156.636 314.158 156.845 314.158 157.107Z" fill="#969DA6" stroke="#969DA6"/>
<path d="M323.223 157.107C323.223 157.369 323.012 157.577 322.756 157.577C322.5 157.577 322.289 157.369 322.289 157.107C322.289 156.845 322.5 156.636 322.756 156.636C323.012 156.636 323.223 156.845 323.223 157.107Z" fill="#969DA6" stroke="#969DA6"/>
</g>
<g opacity="0.4">
<path d="M12.545 41.8682C13.079 41.8682 13.5118 41.4336 13.5118 40.8976C13.5118 40.3615 13.079 39.927 12.545 39.927C12.011 39.927 11.5781 40.3615 11.5781 40.8976C11.5781 41.4336 12.011 41.8682 12.545 41.8682Z" fill="#969DA6"/>
<path d="M21.5762 41.8682C22.1102 41.8682 22.5431 41.4336 22.5431 40.8976C22.5431 40.3615 22.1102 39.927 21.5762 39.927C21.0422 39.927 20.6094 40.3615 20.6094 40.8976C20.6094 41.4336 21.0422 41.8682 21.5762 41.8682Z" fill="#969DA6"/>
<path d="M30.6075 41.8682C31.1415 41.8682 31.5743 41.4336 31.5743 40.8976C31.5743 40.3615 31.1415 39.927 30.6075 39.927C30.0735 39.927 29.6406 40.3615 29.6406 40.8976C29.6406 41.4336 30.0735 41.8682 30.6075 41.8682Z" fill="#969DA6"/>
<path d="M39.6348 41.8682C40.1688 41.8682 40.6017 41.4336 40.6017 40.8976C40.6017 40.3615 40.1688 39.927 39.6348 39.927C39.1008 39.927 38.668 40.3615 38.668 40.8976C38.668 41.4336 39.1008 41.8682 39.6348 41.8682Z" fill="#969DA6"/>
<path d="M48.6661 41.8682C49.2 41.8682 49.6329 41.4336 49.6329 40.8976C49.6329 40.3615 49.2 39.927 48.6661 39.927C48.1321 39.927 47.6992 40.3615 47.6992 40.8976C47.6992 41.4336 48.1321 41.8682 48.6661 41.8682Z" fill="#969DA6"/>
<path d="M57.6934 41.8682C58.2274 41.8682 58.6603 41.4336 58.6603 40.8976C58.6603 40.3615 58.2274 39.927 57.6934 39.927C57.1594 39.927 56.7266 40.3615 56.7266 40.8976C56.7266 41.4336 57.1594 41.8682 57.6934 41.8682Z" fill="#969DA6"/>
<path d="M66.7208 41.8682C67.2547 41.8682 67.6876 41.4336 67.6876 40.8976C67.6876 40.3615 67.2547 39.927 66.7208 39.927C66.1868 39.927 65.7539 40.3615 65.7539 40.8976C65.7539 41.4336 66.1868 41.8682 66.7208 41.8682Z" fill="#969DA6"/>
<path d="M75.7501 41.8682C76.284 41.8682 76.7169 41.4336 76.7169 40.8976C76.7169 40.3615 76.284 39.927 75.7501 39.927C75.2161 39.927 74.7832 40.3615 74.7832 40.8976C74.7832 41.4336 75.2161 41.8682 75.7501 41.8682Z" fill="#969DA6"/>
<path d="M84.7852 41.8682C85.3192 41.8682 85.7521 41.4336 85.7521 40.8976C85.7521 40.3615 85.3192 39.927 84.7852 39.927C84.2512 39.927 83.8184 40.3615 83.8184 40.8976C83.8184 41.4336 84.2512 41.8682 84.7852 41.8682Z" fill="#969DA6"/>
<path d="M93.8145 41.8682C94.3485 41.8682 94.7814 41.4336 94.7814 40.8976C94.7814 40.3615 94.3485 39.927 93.8145 39.927C93.2805 39.927 92.8477 40.3615 92.8477 40.8976C92.8477 41.4336 93.2805 41.8682 93.8145 41.8682Z" fill="#969DA6"/>
<path d="M12.545 49.0224C13.079 49.0224 13.5118 48.5878 13.5118 48.0518C13.5118 47.5157 13.079 47.0812 12.545 47.0812C12.011 47.0812 11.5781 47.5157 11.5781 48.0518C11.5781 48.5878 12.011 49.0224 12.545 49.0224Z" fill="#969DA6"/>
<path d="M21.5762 49.0224C22.1102 49.0224 22.5431 48.5878 22.5431 48.0518C22.5431 47.5157 22.1102 47.0812 21.5762 47.0812C21.0422 47.0812 20.6094 47.5157 20.6094 48.0518C20.6094 48.5878 21.0422 49.0224 21.5762 49.0224Z" fill="#969DA6"/>
<path d="M30.6075 49.0224C31.1415 49.0224 31.5743 48.5878 31.5743 48.0518C31.5743 47.5157 31.1415 47.0812 30.6075 47.0812C30.0735 47.0812 29.6406 47.5157 29.6406 48.0518C29.6406 48.5878 30.0735 49.0224 30.6075 49.0224Z" fill="#969DA6"/>
<path d="M39.6348 49.0224C40.1688 49.0224 40.6017 48.5878 40.6017 48.0518C40.6017 47.5157 40.1688 47.0812 39.6348 47.0812C39.1008 47.0812 38.668 47.5157 38.668 48.0518C38.668 48.5878 39.1008 49.0224 39.6348 49.0224Z" fill="#969DA6"/>
<path d="M48.6661 49.0224C49.2 49.0224 49.6329 48.5878 49.6329 48.0518C49.6329 47.5157 49.2 47.0812 48.6661 47.0812C48.1321 47.0812 47.6992 47.5157 47.6992 48.0518C47.6992 48.5878 48.1321 49.0224 48.6661 49.0224Z" fill="#969DA6"/>
<path d="M57.6934 49.0224C58.2274 49.0224 58.6603 48.5878 58.6603 48.0518C58.6603 47.5157 58.2274 47.0812 57.6934 47.0812C57.1594 47.0812 56.7266 47.5157 56.7266 48.0518C56.7266 48.5878 57.1594 49.0224 57.6934 49.0224Z" fill="#969DA6"/>
<path d="M66.7208 49.0224C67.2547 49.0224 67.6876 48.5878 67.6876 48.0518C67.6876 47.5157 67.2547 47.0812 66.7208 47.0812C66.1868 47.0812 65.7539 47.5157 65.7539 48.0518C65.7539 48.5878 66.1868 49.0224 66.7208 49.0224Z" fill="#969DA6"/>
<path d="M75.7501 49.0224C76.284 49.0224 76.7169 48.5878 76.7169 48.0518C76.7169 47.5157 76.284 47.0812 75.7501 47.0812C75.2161 47.0812 74.7832 47.5157 74.7832 48.0518C74.7832 48.5878 75.2161 49.0224 75.7501 49.0224Z" fill="#969DA6"/>
<path d="M84.7852 49.0224C85.3192 49.0224 85.7521 48.5878 85.7521 48.0518C85.7521 47.5157 85.3192 47.0812 84.7852 47.0812C84.2512 47.0812 83.8184 47.5157 83.8184 48.0518C83.8184 48.5878 84.2512 49.0224 84.7852 49.0224Z" fill="#969DA6"/>
<path d="M93.8145 49.0224C94.3485 49.0224 94.7814 48.5878 94.7814 48.0518C94.7814 47.5157 94.3485 47.0812 93.8145 47.0812C93.2805 47.0812 92.8477 47.5157 92.8477 48.0518C92.8477 48.5878 93.2805 49.0224 93.8145 49.0224Z" fill="#969DA6"/>
<path d="M12.545 56.1832C13.079 56.1832 13.5118 55.7487 13.5118 55.2127C13.5118 54.6766 13.079 54.2421 12.545 54.2421C12.011 54.2421 11.5781 54.6766 11.5781 55.2127C11.5781 55.7487 12.011 56.1832 12.545 56.1832Z" fill="#969DA6"/>
<path d="M21.5762 56.1832C22.1102 56.1832 22.5431 55.7487 22.5431 55.2127C22.5431 54.6766 22.1102 54.2421 21.5762 54.2421C21.0422 54.2421 20.6094 54.6766 20.6094 55.2127C20.6094 55.7487 21.0422 56.1832 21.5762 56.1832Z" fill="#969DA6"/>
<path d="M30.6075 56.1832C31.1415 56.1832 31.5743 55.7487 31.5743 55.2127C31.5743 54.6766 31.1415 54.2421 30.6075 54.2421C30.0735 54.2421 29.6406 54.6766 29.6406 55.2127C29.6406 55.7487 30.0735 56.1832 30.6075 56.1832Z" fill="#969DA6"/>
<path d="M39.6348 56.1832C40.1688 56.1832 40.6017 55.7487 40.6017 55.2127C40.6017 54.6766 40.1688 54.2421 39.6348 54.2421C39.1008 54.2421 38.668 54.6766 38.668 55.2127C38.668 55.7487 39.1008 56.1832 39.6348 56.1832Z" fill="#969DA6"/>
<path d="M48.6661 56.1832C49.2 56.1832 49.6329 55.7487 49.6329 55.2127C49.6329 54.6766 49.2 54.2421 48.6661 54.2421C48.1321 54.2421 47.6992 54.6766 47.6992 55.2127C47.6992 55.7487 48.1321 56.1832 48.6661 56.1832Z" fill="#969DA6"/>
<path d="M57.6934 56.1832C58.2274 56.1832 58.6603 55.7487 58.6603 55.2127C58.6603 54.6766 58.2274 54.2421 57.6934 54.2421C57.1594 54.2421 56.7266 54.6766 56.7266 55.2127C56.7266 55.7487 57.1594 56.1832 57.6934 56.1832Z" fill="#969DA6"/>
<path d="M66.7208 56.1832C67.2547 56.1832 67.6876 55.7487 67.6876 55.2127C67.6876 54.6766 67.2547 54.2421 66.7208 54.2421C66.1868 54.2421 65.7539 54.6766 65.7539 55.2127C65.7539 55.7487 66.1868 56.1832 66.7208 56.1832Z" fill="#969DA6"/>
<path d="M75.7501 56.1832C76.284 56.1832 76.7169 55.7487 76.7169 55.2127C76.7169 54.6766 76.284 54.2421 75.7501 54.2421C75.2161 54.2421 74.7832 54.6766 74.7832 55.2127C74.7832 55.7487 75.2161 56.1832 75.7501 56.1832Z" fill="#969DA6"/>
<path d="M84.7852 56.1832C85.3192 56.1832 85.7521 55.7487 85.7521 55.2127C85.7521 54.6766 85.3192 54.2421 84.7852 54.2421C84.2512 54.2421 83.8184 54.6766 83.8184 55.2127C83.8184 55.7487 84.2512 56.1832 84.7852 56.1832Z" fill="#969DA6"/>
<path d="M93.8145 56.1832C94.3485 56.1832 94.7814 55.7487 94.7814 55.2127C94.7814 54.6766 94.3485 54.2421 93.8145 54.2421C93.2805 54.2421 92.8477 54.6766 92.8477 55.2127C92.8477 55.7487 93.2805 56.1832 93.8145 56.1832Z" fill="#969DA6"/>
<path d="M12.545 63.3375C13.079 63.3375 13.5118 62.903 13.5118 62.367C13.5118 61.8309 13.079 61.3964 12.545 61.3964C12.011 61.3964 11.5781 61.8309 11.5781 62.367C11.5781 62.903 12.011 63.3375 12.545 63.3375Z" fill="#969DA6"/>
<path d="M21.5762 63.3375C22.1102 63.3375 22.5431 62.903 22.5431 62.367C22.5431 61.8309 22.1102 61.3964 21.5762 61.3964C21.0422 61.3964 20.6094 61.8309 20.6094 62.367C20.6094 62.903 21.0422 63.3375 21.5762 63.3375Z" fill="#969DA6"/>
<path d="M30.6075 63.3375C31.1415 63.3375 31.5743 62.903 31.5743 62.367C31.5743 61.8309 31.1415 61.3964 30.6075 61.3964C30.0735 61.3964 29.6406 61.8309 29.6406 62.367C29.6406 62.903 30.0735 63.3375 30.6075 63.3375Z" fill="#969DA6"/>
<path d="M39.6348 63.3375C40.1688 63.3375 40.6017 62.903 40.6017 62.367C40.6017 61.8309 40.1688 61.3964 39.6348 61.3964C39.1008 61.3964 38.668 61.8309 38.668 62.367C38.668 62.903 39.1008 63.3375 39.6348 63.3375Z" fill="#969DA6"/>
<path d="M48.6661 63.3375C49.2 63.3375 49.6329 62.903 49.6329 62.367C49.6329 61.8309 49.2 61.3964 48.6661 61.3964C48.1321 61.3964 47.6992 61.8309 47.6992 62.367C47.6992 62.903 48.1321 63.3375 48.6661 63.3375Z" fill="#969DA6"/>
<path d="M57.6934 63.3375C58.2274 63.3375 58.6603 62.903 58.6603 62.367C58.6603 61.8309 58.2274 61.3964 57.6934 61.3964C57.1594 61.3964 56.7266 61.8309 56.7266 62.367C56.7266 62.903 57.1594 63.3375 57.6934 63.3375Z" fill="#969DA6"/>
<path d="M66.7208 63.3375C67.2547 63.3375 67.6876 62.903 67.6876 62.367C67.6876 61.8309 67.2547 61.3964 66.7208 61.3964C66.1868 61.3964 65.7539 61.8309 65.7539 62.367C65.7539 62.903 66.1868 63.3375 66.7208 63.3375Z" fill="#969DA6"/>
<path d="M75.7501 63.3375C76.284 63.3375 76.7169 62.903 76.7169 62.367C76.7169 61.8309 76.284 61.3964 75.7501 61.3964C75.2161 61.3964 74.7832 61.8309 74.7832 62.367C74.7832 62.903 75.2161 63.3375 75.7501 63.3375Z" fill="#969DA6"/>
<path d="M84.7852 63.3375C85.3192 63.3375 85.7521 62.903 85.7521 62.367C85.7521 61.8309 85.3192 61.3964 84.7852 61.3964C84.2512 61.3964 83.8184 61.8309 83.8184 62.367C83.8184 62.903 84.2512 63.3375 84.7852 63.3375Z" fill="#969DA6"/>
<path d="M93.8145 63.3375C94.3485 63.3375 94.7814 62.903 94.7814 62.367C94.7814 61.8309 94.3485 61.3964 93.8145 61.3964C93.2805 61.3964 92.8477 61.8309 92.8477 62.367C92.8477 62.903 93.2805 63.3375 93.8145 63.3375Z" fill="#969DA6"/>
<path d="M12.545 70.4927C13.079 70.4927 13.5118 70.0581 13.5118 69.5221C13.5118 68.9861 13.079 68.5515 12.545 68.5515C12.011 68.5515 11.5781 68.9861 11.5781 69.5221C11.5781 70.0581 12.011 70.4927 12.545 70.4927Z" fill="#969DA6"/>
<path d="M21.5762 70.4927C22.1102 70.4927 22.5431 70.0581 22.5431 69.5221C22.5431 68.9861 22.1102 68.5515 21.5762 68.5515C21.0422 68.5515 20.6094 68.9861 20.6094 69.5221C20.6094 70.0581 21.0422 70.4927 21.5762 70.4927Z" fill="#969DA6"/>
<path d="M30.6075 70.4927C31.1415 70.4927 31.5743 70.0581 31.5743 69.5221C31.5743 68.9861 31.1415 68.5515 30.6075 68.5515C30.0735 68.5515 29.6406 68.9861 29.6406 69.5221C29.6406 70.0581 30.0735 70.4927 30.6075 70.4927Z" fill="#969DA6"/>
<path d="M39.6348 70.4927C40.1688 70.4927 40.6017 70.0581 40.6017 69.5221C40.6017 68.9861 40.1688 68.5515 39.6348 68.5515C39.1008 68.5515 38.668 68.9861 38.668 69.5221C38.668 70.0581 39.1008 70.4927 39.6348 70.4927Z" fill="#969DA6"/>
<path d="M48.6661 70.4927C49.2 70.4927 49.6329 70.0581 49.6329 69.5221C49.6329 68.9861 49.2 68.5515 48.6661 68.5515C48.1321 68.5515 47.6992 68.9861 47.6992 69.5221C47.6992 70.0581 48.1321 70.4927 48.6661 70.4927Z" fill="#969DA6"/>
<path d="M57.6934 70.4927C58.2274 70.4927 58.6603 70.0581 58.6603 69.5221C58.6603 68.9861 58.2274 68.5515 57.6934 68.5515C57.1594 68.5515 56.7266 68.9861 56.7266 69.5221C56.7266 70.0581 57.1594 70.4927 57.6934 70.4927Z" fill="#969DA6"/>
<path d="M66.7208 70.4927C67.2547 70.4927 67.6876 70.0581 67.6876 69.5221C67.6876 68.9861 67.2547 68.5515 66.7208 68.5515C66.1868 68.5515 65.7539 68.9861 65.7539 69.5221C65.7539 70.0581 66.1868 70.4927 66.7208 70.4927Z" fill="#969DA6"/>
<path d="M75.7501 70.4927C76.284 70.4927 76.7169 70.0581 76.7169 69.5221C76.7169 68.9861 76.284 68.5515 75.7501 68.5515C75.2161 68.5515 74.7832 68.9861 74.7832 69.5221C74.7832 70.0581 75.2161 70.4927 75.7501 70.4927Z" fill="#969DA6"/>
<path d="M84.7852 70.4927C85.3192 70.4927 85.7521 70.0581 85.7521 69.5221C85.7521 68.9861 85.3192 68.5515 84.7852 68.5515C84.2512 68.5515 83.8184 68.9861 83.8184 69.5221C83.8184 70.0581 84.2512 70.4927 84.7852 70.4927Z" fill="#969DA6"/>
<path d="M93.8145 70.4927C94.3485 70.4927 94.7814 70.0581 94.7814 69.5221C94.7814 68.9861 94.3485 68.5515 93.8145 68.5515C93.2805 68.5515 92.8477 68.9861 92.8477 69.5221C92.8477 70.0581 93.2805 70.4927 93.8145 70.4927Z" fill="#969DA6"/>
<path d="M12.545 77.647C13.079 77.647 13.5118 77.2124 13.5118 76.6764C13.5118 76.1404 13.079 75.7058 12.545 75.7058C12.011 75.7058 11.5781 76.1404 11.5781 76.6764C11.5781 77.2124 12.011 77.647 12.545 77.647Z" fill="#969DA6"/>
<path d="M21.5762 77.647C22.1102 77.647 22.5431 77.2124 22.5431 76.6764C22.5431 76.1404 22.1102 75.7058 21.5762 75.7058C21.0422 75.7058 20.6094 76.1404 20.6094 76.6764C20.6094 77.2124 21.0422 77.647 21.5762 77.647Z" fill="#969DA6"/>
<path d="M30.6075 77.647C31.1415 77.647 31.5743 77.2124 31.5743 76.6764C31.5743 76.1404 31.1415 75.7058 30.6075 75.7058C30.0735 75.7058 29.6406 76.1404 29.6406 76.6764C29.6406 77.2124 30.0735 77.647 30.6075 77.647Z" fill="#969DA6"/>
<path d="M39.6348 77.647C40.1688 77.647 40.6017 77.2124 40.6017 76.6764C40.6017 76.1404 40.1688 75.7058 39.6348 75.7058C39.1008 75.7058 38.668 76.1404 38.668 76.6764C38.668 77.2124 39.1008 77.647 39.6348 77.647Z" fill="#969DA6"/>
<path d="M48.6661 77.647C49.2 77.647 49.6329 77.2124 49.6329 76.6764C49.6329 76.1404 49.2 75.7058 48.6661 75.7058C48.1321 75.7058 47.6992 76.1404 47.6992 76.6764C47.6992 77.2124 48.1321 77.647 48.6661 77.647Z" fill="#969DA6"/>
<path d="M57.6934 77.647C58.2274 77.647 58.6603 77.2124 58.6603 76.6764C58.6603 76.1404 58.2274 75.7058 57.6934 75.7058C57.1594 75.7058 56.7266 76.1404 56.7266 76.6764C56.7266 77.2124 57.1594 77.647 57.6934 77.647Z" fill="#969DA6"/>
<path d="M66.7208 77.647C67.2547 77.647 67.6876 77.2124 67.6876 76.6764C67.6876 76.1404 67.2547 75.7058 66.7208 75.7058C66.1868 75.7058 65.7539 76.1404 65.7539 76.6764C65.7539 77.2124 66.1868 77.647 66.7208 77.647Z" fill="#969DA6"/>
<path d="M75.7501 77.647C76.284 77.647 76.7169 77.2124 76.7169 76.6764C76.7169 76.1404 76.284 75.7058 75.7501 75.7058C75.2161 75.7058 74.7832 76.1404 74.7832 76.6764C74.7832 77.2124 75.2161 77.647 75.7501 77.647Z" fill="#969DA6"/>
<path d="M84.7852 77.647C85.3192 77.647 85.7521 77.2124 85.7521 76.6764C85.7521 76.1404 85.3192 75.7058 84.7852 75.7058C84.2512 75.7058 83.8184 76.1404 83.8184 76.6764C83.8184 77.2124 84.2512 77.647 84.7852 77.647Z" fill="#969DA6"/>
<path d="M93.8145 77.647C94.3485 77.647 94.7814 77.2124 94.7814 76.6764C94.7814 76.1404 94.3485 75.7058 93.8145 75.7058C93.2805 75.7058 92.8477 76.1404 92.8477 76.6764C92.8477 77.2124 93.2805 77.647 93.8145 77.647Z" fill="#969DA6"/>
<path d="M12.545 84.8013C13.079 84.8013 13.5118 84.3667 13.5118 83.8307C13.5118 83.2947 13.079 82.8601 12.545 82.8601C12.011 82.8601 11.5781 83.2947 11.5781 83.8307C11.5781 84.3667 12.011 84.8013 12.545 84.8013Z" fill="#969DA6"/>
<path d="M21.5762 84.8013C22.1102 84.8013 22.5431 84.3667 22.5431 83.8307C22.5431 83.2947 22.1102 82.8601 21.5762 82.8601C21.0422 82.8601 20.6094 83.2947 20.6094 83.8307C20.6094 84.3667 21.0422 84.8013 21.5762 84.8013Z" fill="#969DA6"/>
<path d="M30.6075 84.8013C31.1415 84.8013 31.5743 84.3667 31.5743 83.8307C31.5743 83.2947 31.1415 82.8601 30.6075 82.8601C30.0735 82.8601 29.6406 83.2947 29.6406 83.8307C29.6406 84.3667 30.0735 84.8013 30.6075 84.8013Z" fill="#969DA6"/>
<path d="M39.6348 84.8013C40.1688 84.8013 40.6017 84.3667 40.6017 83.8307C40.6017 83.2947 40.1688 82.8601 39.6348 82.8601C39.1008 82.8601 38.668 83.2947 38.668 83.8307C38.668 84.3667 39.1008 84.8013 39.6348 84.8013Z" fill="#969DA6"/>
<path d="M48.6661 84.8013C49.2 84.8013 49.6329 84.3667 49.6329 83.8307C49.6329 83.2947 49.2 82.8601 48.6661 82.8601C48.1321 82.8601 47.6992 83.2947 47.6992 83.8307C47.6992 84.3667 48.1321 84.8013 48.6661 84.8013Z" fill="#969DA6"/>
<path d="M57.6934 84.8013C58.2274 84.8013 58.6603 84.3667 58.6603 83.8307C58.6603 83.2947 58.2274 82.8601 57.6934 82.8601C57.1594 82.8601 56.7266 83.2947 56.7266 83.8307C56.7266 84.3667 57.1594 84.8013 57.6934 84.8013Z" fill="#969DA6"/>
<path d="M66.7208 84.8013C67.2547 84.8013 67.6876 84.3667 67.6876 83.8307C67.6876 83.2947 67.2547 82.8601 66.7208 82.8601C66.1868 82.8601 65.7539 83.2947 65.7539 83.8307C65.7539 84.3667 66.1868 84.8013 66.7208 84.8013Z" fill="#969DA6"/>
<path d="M75.7501 84.8013C76.284 84.8013 76.7169 84.3667 76.7169 83.8307C76.7169 83.2947 76.284 82.8601 75.7501 82.8601C75.2161 82.8601 74.7832 83.2947 74.7832 83.8307C74.7832 84.3667 75.2161 84.8013 75.7501 84.8013Z" fill="#969DA6"/>
<path d="M84.7852 84.8013C85.3192 84.8013 85.7521 84.3667 85.7521 83.8307C85.7521 83.2947 85.3192 82.8601 84.7852 82.8601C84.2512 82.8601 83.8184 83.2947 83.8184 83.8307C83.8184 84.3667 84.2512 84.8013 84.7852 84.8013Z" fill="#969DA6"/>
<path d="M93.8145 84.8013C94.3485 84.8013 94.7814 84.3667 94.7814 83.8307C94.7814 83.2947 94.3485 82.8601 93.8145 82.8601C93.2805 82.8601 92.8477 83.2947 92.8477 83.8307C92.8477 84.3667 93.2805 84.8013 93.8145 84.8013Z" fill="#969DA6"/>
<path d="M12.545 91.9562C13.079 91.9562 13.5118 91.5216 13.5118 90.9856C13.5118 90.4496 13.079 90.015 12.545 90.015C12.011 90.015 11.5781 90.4496 11.5781 90.9856C11.5781 91.5216 12.011 91.9562 12.545 91.9562Z" fill="#969DA6"/>
<path d="M21.5762 91.9562C22.1102 91.9562 22.5431 91.5216 22.5431 90.9856C22.5431 90.4496 22.1102 90.015 21.5762 90.015C21.0422 90.015 20.6094 90.4496 20.6094 90.9856C20.6094 91.5216 21.0422 91.9562 21.5762 91.9562Z" fill="#969DA6"/>
<path d="M30.6075 91.9562C31.1415 91.9562 31.5743 91.5216 31.5743 90.9856C31.5743 90.4496 31.1415 90.015 30.6075 90.015C30.0735 90.015 29.6406 90.4496 29.6406 90.9856C29.6406 91.5216 30.0735 91.9562 30.6075 91.9562Z" fill="#969DA6"/>
<path d="M39.6348 91.9562C40.1688 91.9562 40.6017 91.5216 40.6017 90.9856C40.6017 90.4496 40.1688 90.015 39.6348 90.015C39.1008 90.015 38.668 90.4496 38.668 90.9856C38.668 91.5216 39.1008 91.9562 39.6348 91.9562Z" fill="#969DA6"/>
<path d="M48.6661 91.9562C49.2 91.9562 49.6329 91.5216 49.6329 90.9856C49.6329 90.4496 49.2 90.015 48.6661 90.015C48.1321 90.015 47.6992 90.4496 47.6992 90.9856C47.6992 91.5216 48.1321 91.9562 48.6661 91.9562Z" fill="#969DA6"/>
<path d="M57.6934 91.9562C58.2274 91.9562 58.6603 91.5216 58.6603 90.9856C58.6603 90.4496 58.2274 90.015 57.6934 90.015C57.1594 90.015 56.7266 90.4496 56.7266 90.9856C56.7266 91.5216 57.1594 91.9562 57.6934 91.9562Z" fill="#969DA6"/>
<path d="M66.7208 91.9562C67.2547 91.9562 67.6876 91.5216 67.6876 90.9856C67.6876 90.4496 67.2547 90.015 66.7208 90.015C66.1868 90.015 65.7539 90.4496 65.7539 90.9856C65.7539 91.5216 66.1868 91.9562 66.7208 91.9562Z" fill="#969DA6"/>
<path d="M75.7501 91.9562C76.284 91.9562 76.7169 91.5216 76.7169 90.9856C76.7169 90.4496 76.284 90.015 75.7501 90.015C75.2161 90.015 74.7832 90.4496 74.7832 90.9856C74.7832 91.5216 75.2161 91.9562 75.7501 91.9562Z" fill="#969DA6"/>
<path d="M84.7852 91.9562C85.3192 91.9562 85.7521 91.5216 85.7521 90.9856C85.7521 90.4496 85.3192 90.015 84.7852 90.015C84.2512 90.015 83.8184 90.4496 83.8184 90.9856C83.8184 91.5216 84.2512 91.9562 84.7852 91.9562Z" fill="#969DA6"/>
<path d="M93.8145 91.9562C94.3485 91.9562 94.7814 91.5216 94.7814 90.9856C94.7814 90.4496 94.3485 90.015 93.8145 90.015C93.2805 90.015 92.8477 90.4496 92.8477 90.9856C92.8477 91.5216 93.2805 91.9562 93.8145 91.9562Z" fill="#969DA6"/>
<path d="M12.545 99.1106C13.079 99.1106 13.5118 98.6761 13.5118 98.14C13.5118 97.604 13.079 97.1694 12.545 97.1694C12.011 97.1694 11.5781 97.604 11.5781 98.14C11.5781 98.6761 12.011 99.1106 12.545 99.1106Z" fill="#969DA6"/>
<path d="M21.5762 99.1106C22.1102 99.1106 22.5431 98.6761 22.5431 98.14C22.5431 97.604 22.1102 97.1694 21.5762 97.1694C21.0422 97.1694 20.6094 97.604 20.6094 98.14C20.6094 98.6761 21.0422 99.1106 21.5762 99.1106Z" fill="#969DA6"/>
<path d="M30.6075 99.1106C31.1415 99.1106 31.5743 98.6761 31.5743 98.14C31.5743 97.604 31.1415 97.1694 30.6075 97.1694C30.0735 97.1694 29.6406 97.604 29.6406 98.14C29.6406 98.6761 30.0735 99.1106 30.6075 99.1106Z" fill="#969DA6"/>
<path d="M39.6348 99.1106C40.1688 99.1106 40.6017 98.6761 40.6017 98.14C40.6017 97.604 40.1688 97.1694 39.6348 97.1694C39.1008 97.1694 38.668 97.604 38.668 98.14C38.668 98.6761 39.1008 99.1106 39.6348 99.1106Z" fill="#969DA6"/>
<path d="M48.6661 99.1106C49.2 99.1106 49.6329 98.6761 49.6329 98.14C49.6329 97.604 49.2 97.1694 48.6661 97.1694C48.1321 97.1694 47.6992 97.604 47.6992 98.14C47.6992 98.6761 48.1321 99.1106 48.6661 99.1106Z" fill="#969DA6"/>
<path d="M57.6934 99.1106C58.2274 99.1106 58.6603 98.6761 58.6603 98.14C58.6603 97.604 58.2274 97.1694 57.6934 97.1694C57.1594 97.1694 56.7266 97.604 56.7266 98.14C56.7266 98.6761 57.1594 99.1106 57.6934 99.1106Z" fill="#969DA6"/>
<path d="M66.7208 99.1106C67.2547 99.1106 67.6876 98.6761 67.6876 98.14C67.6876 97.604 67.2547 97.1694 66.7208 97.1694C66.1868 97.1694 65.7539 97.604 65.7539 98.14C65.7539 98.6761 66.1868 99.1106 66.7208 99.1106Z" fill="#969DA6"/>
<path d="M75.7501 99.1106C76.284 99.1106 76.7169 98.6761 76.7169 98.14C76.7169 97.604 76.284 97.1694 75.7501 97.1694C75.2161 97.1694 74.7832 97.604 74.7832 98.14C74.7832 98.6761 75.2161 99.1106 75.7501 99.1106Z" fill="#969DA6"/>
<path d="M84.7852 99.1106C85.3192 99.1106 85.7521 98.6761 85.7521 98.14C85.7521 97.604 85.3192 97.1694 84.7852 97.1694C84.2512 97.1694 83.8184 97.604 83.8184 98.14C83.8184 98.6761 84.2512 99.1106 84.7852 99.1106Z" fill="#969DA6"/>
<path d="M93.8145 99.1106C94.3485 99.1106 94.7814 98.6761 94.7814 98.14C94.7814 97.604 94.3485 97.1694 93.8145 97.1694C93.2805 97.1694 92.8477 97.604 92.8477 98.14C92.8477 98.6761 93.2805 99.1106 93.8145 99.1106Z" fill="#969DA6"/>
<path d="M12.545 106.272C13.079 106.272 13.5118 105.837 13.5118 105.301C13.5118 104.765 13.079 104.331 12.545 104.331C12.011 104.331 11.5781 104.765 11.5781 105.301C11.5781 105.837 12.011 106.272 12.545 106.272Z" fill="#969DA6"/>
<path d="M21.5762 106.272C22.1102 106.272 22.5431 105.837 22.5431 105.301C22.5431 104.765 22.1102 104.331 21.5762 104.331C21.0422 104.331 20.6094 104.765 20.6094 105.301C20.6094 105.837 21.0422 106.272 21.5762 106.272Z" fill="#969DA6"/>
<path d="M30.6075 106.272C31.1415 106.272 31.5743 105.837 31.5743 105.301C31.5743 104.765 31.1415 104.331 30.6075 104.331C30.0735 104.331 29.6406 104.765 29.6406 105.301C29.6406 105.837 30.0735 106.272 30.6075 106.272Z" fill="#969DA6"/>
<path d="M39.6348 106.272C40.1688 106.272 40.6017 105.837 40.6017 105.301C40.6017 104.765 40.1688 104.331 39.6348 104.331C39.1008 104.331 38.668 104.765 38.668 105.301C38.668 105.837 39.1008 106.272 39.6348 106.272Z" fill="#969DA6"/>
<path d="M48.6661 106.272C49.2 106.272 49.6329 105.837 49.6329 105.301C49.6329 104.765 49.2 104.331 48.6661 104.331C48.1321 104.331 47.6992 104.765 47.6992 105.301C47.6992 105.837 48.1321 106.272 48.6661 106.272Z" fill="#969DA6"/>
<path d="M57.6934 106.272C58.2274 106.272 58.6603 105.837 58.6603 105.301C58.6603 104.765 58.2274 104.331 57.6934 104.331C57.1594 104.331 56.7266 104.765 56.7266 105.301C56.7266 105.837 57.1594 106.272 57.6934 106.272Z" fill="#969DA6"/>
<path d="M66.7208 106.272C67.2547 106.272 67.6876 105.837 67.6876 105.301C67.6876 104.765 67.2547 104.331 66.7208 104.331C66.1868 104.331 65.7539 104.765 65.7539 105.301C65.7539 105.837 66.1868 106.272 66.7208 106.272Z" fill="#969DA6"/>
<path d="M75.7501 106.272C76.284 106.272 76.7169 105.837 76.7169 105.301C76.7169 104.765 76.284 104.331 75.7501 104.331C75.2161 104.331 74.7832 104.765 74.7832 105.301C74.7832 105.837 75.2161 106.272 75.7501 106.272Z" fill="#969DA6"/>
<path d="M84.7852 106.272C85.3192 106.272 85.7521 105.837 85.7521 105.301C85.7521 104.765 85.3192 104.331 84.7852 104.331C84.2512 104.331 83.8184 104.765 83.8184 105.301C83.8184 105.837 84.2512 106.272 84.7852 106.272Z" fill="#969DA6"/>
<path d="M93.8145 106.272C94.3485 106.272 94.7814 105.837 94.7814 105.301C94.7814 104.765 94.3485 104.331 93.8145 104.331C93.2805 104.331 92.8477 104.765 92.8477 105.301C92.8477 105.837 93.2805 106.272 93.8145 106.272Z" fill="#969DA6"/>
<path d="M12.545 113.426C13.079 113.426 13.5118 112.991 13.5118 112.455C13.5118 111.919 13.079 111.484 12.545 111.484C12.011 111.484 11.5781 111.919 11.5781 112.455C11.5781 112.991 12.011 113.426 12.545 113.426Z" fill="#969DA6"/>
<path d="M21.5762 113.426C22.1102 113.426 22.5431 112.991 22.5431 112.455C22.5431 111.919 22.1102 111.484 21.5762 111.484C21.0422 111.484 20.6094 111.919 20.6094 112.455C20.6094 112.991 21.0422 113.426 21.5762 113.426Z" fill="#969DA6"/>
<path d="M30.6075 113.426C31.1415 113.426 31.5743 112.991 31.5743 112.455C31.5743 111.919 31.1415 111.484 30.6075 111.484C30.0735 111.484 29.6406 111.919 29.6406 112.455C29.6406 112.991 30.0735 113.426 30.6075 113.426Z" fill="#969DA6"/>
<path d="M39.6348 113.426C40.1688 113.426 40.6017 112.991 40.6017 112.455C40.6017 111.919 40.1688 111.484 39.6348 111.484C39.1008 111.484 38.668 111.919 38.668 112.455C38.668 112.991 39.1008 113.426 39.6348 113.426Z" fill="#969DA6"/>
<path d="M48.6661 113.426C49.2 113.426 49.6329 112.991 49.6329 112.455C49.6329 111.919 49.2 111.484 48.6661 111.484C48.1321 111.484 47.6992 111.919 47.6992 112.455C47.6992 112.991 48.1321 113.426 48.6661 113.426Z" fill="#969DA6"/>
<path d="M57.6934 113.426C58.2274 113.426 58.6603 112.991 58.6603 112.455C58.6603 111.919 58.2274 111.484 57.6934 111.484C57.1594 111.484 56.7266 111.919 56.7266 112.455C56.7266 112.991 57.1594 113.426 57.6934 113.426Z" fill="#969DA6"/>
<path d="M66.7208 113.426C67.2547 113.426 67.6876 112.991 67.6876 112.455C67.6876 111.919 67.2547 111.484 66.7208 111.484C66.1868 111.484 65.7539 111.919 65.7539 112.455C65.7539 112.991 66.1868 113.426 66.7208 113.426Z" fill="#969DA6"/>
<path d="M75.7501 113.426C76.284 113.426 76.7169 112.991 76.7169 112.455C76.7169 111.919 76.284 111.484 75.7501 111.484C75.2161 111.484 74.7832 111.919 74.7832 112.455C74.7832 112.991 75.2161 113.426 75.7501 113.426Z" fill="#969DA6"/>
<path d="M84.7852 113.426C85.3192 113.426 85.7521 112.991 85.7521 112.455C85.7521 111.919 85.3192 111.484 84.7852 111.484C84.2512 111.484 83.8184 111.919 83.8184 112.455C83.8184 112.991 84.2512 113.426 84.7852 113.426Z" fill="#969DA6"/>
<path d="M93.8145 113.426C94.3485 113.426 94.7814 112.991 94.7814 112.455C94.7814 111.919 94.3485 111.484 93.8145 111.484C93.2805 111.484 92.8477 111.919 92.8477 112.455C92.8477 112.991 93.2805 113.426 93.8145 113.426Z" fill="#969DA6"/>
</g>
<path d="M77 18H268.436V144.177H77V18Z" fill="#F7F8FA"/>
<path fill-rule="evenodd" clip-rule="evenodd" d="M77.0391 18.1292H269.097V144.93H77.0391V18.1292ZM77.6607 18.7532V144.306H268.476V18.7532H77.6607Z" fill="#E9EBEE"/>
<path d="M72.5137 141.706H276.519V146.559H72.5137V141.706ZM74.4474 16.5001H271.685V24.2648H74.4474V16.5001Z" fill="#BEC3CE"/>
<path d="M72.5137 15.5295H78.3148V26.206H72.5137V15.5295ZM269.751 15.5295H275.552V26.206H269.751V15.5295Z" fill="#BEC3CE"/>
<path d="M78.2313 62.7699L76.3778 63.0882L76.3972 60.9665L78.2322 58.2353L78.3125 59.17L78.0921 61.3645L78.2313 62.7699Z" fill="#FAC7D4"/>
<path opacity="0.4" d="M52.2703 197.823C40.5228 197.823 30.9996 196.52 30.9996 194.912C30.9996 193.304 40.5228 192 52.2703 192C64.0178 192 73.541 193.304 73.541 194.912C73.541 196.52 64.0178 197.823 52.2703 197.823Z" fill="#DBEEFE"/>
<path d="M57.8984 78.8774L72.4891 83.0412L76.4938 63.4023L78.3125 63.0878L77.8678 88.0951C71.8936 88.8026 62.2821 87.6631 57.5852 87.4011L57.0418 83.9778L57.8984 78.8774Z" fill="#FCF4F4"/>
<path d="M42.8165 62.924C42.8165 62.924 42.8928 67.4877 34.2627 71.9602C33.1557 72.5348 32.1366 73.0763 31.194 73.6063C22.8549 78.2661 25.272 91.3166 34.7433 92.1688C35.3106 92.2358 35.885 92.2119 36.4449 92.098C39.3938 91.4195 36.3821 85.3524 38.483 81.5321C42.773 73.7286 50.1239 69.2687 44.1778 62.1174" fill="#171C2E"/>
<path d="M44.3946 72.7939L36.4693 74.7885C36.4693 74.7885 33.1076 76.0697 35.9346 93.5616C36.595 97.544 37.1896 102.91 36.1328 111.618L53.8533 108.598L57.5321 92.3435L57.711 87.3615L58.0078 79.0261L55.233 78.3341L52.0636 76.1017L44.3946 72.7939Z" fill="#FCF4F4"/>
<path d="M36.5422 111.114C34.4886 115.262 33.9094 116.649 33.0006 119.789C33.0006 119.789 35.4226 173.019 39.5829 190.5H42.2824C42.2824 190.5 47.2849 149.149 48.0158 139.738L49.3849 127.363L57.1719 116.291C57.1719 116.291 55.0129 108.781 54.1766 108L36.5412 111.114H36.5422Z" fill="#4E74AC"/>
<path d="M55.1074 98.9995L53.1409 108.334L40.6047 110.647C40.6047 110.647 50.0305 108.465 55.1074 98.9995Z" fill="#ED1941"/>
<path d="M48.5905 127.498L47.3723 138.881C47.3723 138.881 51.8759 167.389 58.2184 190.235L60.9082 189.205L56.3785 116.47L48.5896 127.498H48.5905Z" fill="#1D498C"/>
<path d="M39.639 190.235V194.118H49.3075L42.205 190.235H39.639ZM58.0092 190.248L58.3379 194.118H68.6445L60.6613 189.265L58.0092 190.248Z" fill="#ED1941"/>
<path d="M37.9363 78L49.0185 95.257L69 99.792V102L47.9499 99.8429C47.9499 99.8429 39.86 93.935 36 89.3866C36.2361 85.5335 36.8875 81.7163 37.9431 78" fill="#FCF4F4"/>
<path d="M68.9932 102L47.8231 99.7061C47.8231 99.7061 38.9252 92.5566 38 91.3667L48.045 99.2092C48.045 98.9531 63.1894 101.57 69 100.554L68.9932 102ZM52.6475 76.1455C52.3172 75.929 51.9403 75.7782 51.5431 75.7057C51.0278 75.669 50.7294 76.827 51.0752 78.1833C51.0752 78.1833 48.6088 78.4617 44.7812 73C44.7812 73 45.2627 79.0929 50.9735 79.7251C55.4172 80.22 52.6465 76.1455 52.6465 76.1455" fill="#ED1941"/>
<path d="M46.4929 67.9409C46.4929 67.9409 46.1594 70.7634 44.4722 72.361C44.4722 72.361 47.7199 77.6468 50.3188 77.6468C50.2083 77.2944 50.1699 76.9233 50.2056 76.5557C50.2414 76.1881 50.3508 75.8315 50.5271 75.5072C50.7033 75.183 50.943 74.8978 51.2317 74.6687C51.5203 74.4396 51.8521 74.2714 52.207 74.174L46.4929 67.9409Z" fill="#F2939E"/>
<path d="M50.7872 55.5279C55.7598 57.0032 59.0074 61.4825 57.7283 66.6567C56.715 70.7652 55.2889 74.7349 53.5321 74.7349C49.8832 74.7349 46.7062 69.978 46.4258 67.0605C46.1454 64.1429 48.928 55.3231 49.8639 55.3231C50.178 55.3583 50.4876 55.4269 50.7872 55.5279Z" fill="#FAC7D4"/>
<path d="M57.9439 64.9379C57.9439 64.9379 56.2007 60.8052 51.7658 61.0857C51.7658 61.0857 50.6481 64.0489 46.2586 67.9409C46.2586 67.9409 43.0921 65.6271 42.6039 62.3901C42.1166 59.1532 44.3084 54.9943 49.6271 54.4187C59.2898 53.3821 57.9439 64.9379 57.9439 64.9379Z" fill="#171C2E"/>
<path d="M58.0078 64.9759C58.0078 64.9759 55.3026 61.5682 52.5132 61.9574C52.5132 61.9574 51.2225 65.4903 46.4056 67.9411C46.4056 67.9411 50.1957 64.7643 51.8741 61.1722C51.8741 61.1722 55.8517 60.5976 58.0078 64.9759Z" fill="#E86577"/>
<path opacity="0.3" d="M68.6445 99.9705L48.4818 95.3L40.6059 84.441L47.8215 96.5443L68.6445 99.9705Z" fill="#ED1941"/>
<path d="M68.9996 99.5672L69.6696 97L71.2253 98.4734L75.7676 98.8072L73.6328 101.113L68.9996 101.853V99.5672Z" fill="#FFC9D5"/>
<path d="M120 57.4396C120 55.2547 121.771 53.4835 123.956 53.4835H207.033C209.218 53.4835 210.989 55.2547 210.989 57.4396V117.44C210.989 119.624 209.218 121.396 207.033 121.396H123.956C121.771 121.396 120 119.624 120 117.44V57.4396Z" fill="white"/>
<path d="M113 116.462C113 115.909 113.448 115.462 114 115.462H217.495C218.047 115.462 218.495 115.909 218.495 116.462V119.852C218.495 120.197 218.317 120.518 218.025 120.7L210.826 125.2C210.667 125.299 210.483 125.352 210.296 125.352H121.199C121.011 125.352 120.828 125.299 120.669 125.2L113.47 120.7C113.178 120.518 113 120.197 113 119.852V116.462Z" fill="#293A5E"/>
<g opacity="0.8">
<path d="M163.239 81H159.017V80.1301L160.533 78.6291C160.838 78.3216 161.083 78.0654 161.268 77.8604C161.455 77.6527 161.59 77.4639 161.673 77.294C161.758 77.1241 161.801 76.942 161.801 76.7478C161.801 76.5131 161.733 76.3378 161.598 76.2218C161.466 76.1032 161.289 76.0438 161.066 76.0438C160.831 76.0438 160.604 76.0964 160.384 76.2016C160.164 76.3068 159.934 76.4565 159.694 76.6507L159 75.8456C159.174 75.6999 159.357 75.5624 159.549 75.4329C159.745 75.3034 159.971 75.1996 160.227 75.1214C160.486 75.0405 160.796 75 161.156 75C161.553 75 161.893 75.0701 162.177 75.2104C162.463 75.3506 162.684 75.5421 162.838 75.7849C162.992 76.0249 163.069 76.2974 163.069 76.6022C163.069 76.9285 163.003 77.2266 162.871 77.4963C162.739 77.766 162.546 78.033 162.292 78.2974C162.042 78.5617 161.739 78.8543 161.384 79.1753L160.607 79.8914V79.9481H163.239V81Z" fill="#3F4E6F"/>
<path d="M165.54 81H164.28V75.085H167.741V76.1126H165.54V77.6379H167.589V78.6615H165.54V81Z" fill="#3F4E6F"/>
<path d="M172.62 81L172.182 79.592H169.98L169.543 81H168.163L170.294 75.0607H171.86L174 81H172.62ZM171.877 78.5401L171.439 77.1645C171.411 77.0728 171.374 76.9555 171.327 76.8125C171.283 76.6669 171.238 76.5199 171.191 76.3715C171.147 76.2205 171.111 76.0897 171.083 75.9791C171.056 76.0897 171.017 76.2272 170.968 76.3918C170.921 76.5536 170.876 76.7074 170.831 76.853C170.787 76.9987 170.756 77.1025 170.736 77.1645L170.303 78.5401H171.877Z" fill="#3F4E6F"/>
</g>
<path d="M139 89.6068C139 87.6998 140.54 86.1539 142.44 86.1539H188.874C190.773 86.1539 192.313 87.6998 192.313 89.6068V93.9229C192.313 95.8299 190.773 97.3758 188.874 97.3758H142.44C140.54 97.3758 139 95.8299 139 93.9229V89.6068Z" fill="#E9EBEE"/>
<path fill-rule="evenodd" clip-rule="evenodd" d="M188.854 86.5855H142.42C140.758 86.5855 139.41 87.9382 139.41 89.6068V93.9229C139.41 95.5915 140.758 96.9442 142.42 96.9442H188.854C190.516 96.9442 191.864 95.5915 191.864 93.9229V89.6068C191.864 87.9382 190.516 86.5855 188.854 86.5855ZM142.42 86.1539C140.52 86.1539 138.98 87.6998 138.98 89.6068V93.9229C138.98 95.8299 140.52 97.3758 142.42 97.3758H188.854C190.754 97.3758 192.294 95.8299 192.294 93.9229V89.6068C192.294 87.6998 190.754 86.1539 188.854 86.1539H142.42Z" fill="#D3D7DE"/>
<path d="M144.517 93.0167L145.39 91.9673L144.141 91.6201L144.39 90.8909L145.613 91.3963L145.52 90.0383H146.339L146.239 91.4233L147.434 90.9295L147.68 91.6664L146.412 92.0136L147.254 93.036L146.593 93.4912L145.885 92.357L145.178 93.4526L144.517 93.0167Z" fill="#3F4E6F"/>
<path d="M152.357 93.0167L153.229 91.9673L151.98 91.6201L152.23 90.8909L153.452 91.3963L153.36 90.0383H154.179L154.079 91.4233L155.274 90.9295L155.52 91.6664L154.252 92.0136L155.093 93.036L154.432 93.4912L153.725 92.357L153.018 93.4526L152.357 93.0167Z" fill="#3F4E6F"/>
<path d="M160.195 93.0167L161.067 91.9673L159.818 91.6201L160.068 90.8909L161.29 91.3963L161.198 90.0383H162.017L161.917 91.4233L163.112 90.9295L163.358 91.6664L162.09 92.0136L162.931 93.036L162.27 93.4912L161.563 92.357L160.856 93.4526L160.195 93.0167Z" fill="#3F4E6F"/>
<path d="M168.033 93.0167L168.905 91.9673L167.656 91.6201L167.906 90.8909L169.128 91.3963L169.036 90.0383H169.855L169.755 91.4233L170.95 90.9295L171.196 91.6664L169.928 92.0136L170.769 93.036L170.108 93.4912L169.401 92.357L168.694 93.4526L168.033 93.0167Z" fill="#3F4E6F"/>
<path d="M175.873 93.0167L176.745 91.9673L175.496 91.6201L175.746 90.8909L176.968 91.3963L176.876 90.0383H177.694L177.594 91.4233L178.79 90.9295L179.036 91.6664L177.767 92.0136L178.609 93.036L177.948 93.4912L177.241 92.357L176.534 93.4526L175.873 93.0167Z" fill="#3F4E6F"/>
<path d="M183.713 93.0167L184.585 91.9673L183.336 91.6201L183.586 90.8909L184.808 91.3963L184.716 90.0383H185.534L185.434 91.4233L186.629 90.9295L186.875 91.6664L185.607 92.0136L186.449 93.036L185.788 93.4912L185.081 92.357L184.374 93.4526L183.713 93.0167Z" fill="#3F4E6F"/>
<path fill-rule="evenodd" clip-rule="evenodd" d="M195.027 53.4835C194.851 54.1426 194.757 54.8351 194.757 55.5495V58.7582H125.527V116.121H205.966V97.6593H211.241V117.44C211.241 119.624 209.47 121.396 207.285 121.396H124.208C122.023 121.396 120.252 119.624 120.252 117.44V57.4396C120.252 55.2547 122.023 53.4835 124.208 53.4835H195.027Z" fill="#293A5E"/>
<rect x="200.031" y="38.978" width="30.989" height="46.8132" fill="white"/>
<path d="M222.863 77.5961H208.131C207.731 77.5956 207.348 77.4358 207.066 77.1518C206.783 76.8678 206.625 76.4828 206.625 76.0815V64.3946C206.625 63.9933 206.783 63.6083 207.066 63.3243C207.348 63.0403 207.731 62.8805 208.131 62.88H222.863C223.263 62.8805 223.646 63.0403 223.928 63.3243C224.211 63.6083 224.369 63.9933 224.369 64.3946V76.0815C224.369 76.4828 224.211 76.8678 223.928 77.1518C223.646 77.4358 223.263 77.5956 222.863 77.5961Z" fill="#FF4702"/>
<path fill-rule="evenodd" clip-rule="evenodd" d="M215.498 56.0351C212.844 56.0351 210.688 58.2012 210.688 60.8784V62.7993H220.309V60.8784C220.309 58.2012 218.153 56.0351 215.498 56.0351ZM220.858 64.6914H208.803V60.8784C208.803 57.1604 211.798 54.1429 215.498 54.1429C219.198 54.1429 222.194 57.1604 222.194 60.8784V66.0422L220.858 64.6914Z" fill="#FF4702"/>
<path fill-rule="evenodd" clip-rule="evenodd" d="M217.34 69.4676C217.437 69.2315 217.487 68.9784 217.487 68.7229C217.487 68.207 217.283 67.7119 216.92 67.3467C216.557 66.9814 216.065 66.7758 215.551 66.7751C215.037 66.7758 214.544 66.9814 214.181 67.3467C213.818 67.712 213.615 68.207 213.615 68.7229C213.615 69.2388 213.818 69.7339 214.181 70.0991C214.359 70.2786 214.569 70.4195 214.797 70.5165V73.1599C214.797 73.245 214.814 73.3294 214.846 73.4081C214.878 73.4868 214.926 73.5584 214.986 73.6187C215.046 73.6789 215.117 73.7268 215.195 73.7595C215.274 73.7922 215.358 73.809 215.442 73.8091C215.798 73.8091 216.087 73.5183 216.087 73.1599V70.594C216.157 70.5738 216.225 70.5497 216.292 70.5217C216.527 70.4237 216.741 70.2801 216.92 70.0993C217.1 69.9184 217.243 69.7038 217.34 69.4676Z" fill="white"/>
<path fill-rule="evenodd" clip-rule="evenodd" d="M227.724 40.956H202.669C201.941 40.956 201.351 41.5464 201.351 42.2747V89.7472C201.351 90.4755 201.941 91.0659 202.669 91.0659H227.724C228.452 91.0659 229.043 90.4755 229.043 89.7472V42.2747C229.043 41.5464 228.452 40.956 227.724 40.956ZM202.669 37C199.756 37 197.395 39.3616 197.395 42.2747V89.7472C197.395 92.6604 199.756 95.022 202.669 95.022H227.724C230.637 95.022 232.999 92.6604 232.999 89.7472V42.2747C232.999 39.3616 230.637 37 227.724 37H202.669Z" fill="#283A5E"/>
<path d="M197.395 83.8132H232.999V89.7472C232.999 92.6604 230.637 95.022 227.724 95.022H202.669C199.756 95.022 197.395 92.6604 197.395 89.7472V83.8132Z" fill="#283A5E"/>
<path fill-rule="evenodd" clip-rule="evenodd" d="M229.702 87.1099H200.691V89.7472C200.691 90.8397 201.577 91.7253 202.669 91.7253H227.724C228.817 91.7253 229.702 90.8397 229.702 89.7472V87.1099ZM197.395 83.8132V89.7472C197.395 92.6604 199.756 95.022 202.669 95.022H227.724C230.637 95.022 232.999 92.6604 232.999 89.7472V83.8132H197.395Z" fill="#283A5E"/>
<path d="M217.833 89.0879C217.833 90.5445 216.653 91.7253 215.196 91.7253C213.739 91.7253 212.559 90.5445 212.559 89.0879C212.559 87.6313 213.739 86.4506 215.196 86.4506C216.653 86.4506 217.833 87.6313 217.833 89.0879Z" fill="white"/>
</svg>
