<svg xmlns="http://www.w3.org/2000/svg" width="48" height="48" viewBox="0 0 48 48">
    <g fill="none" fill-rule="evenodd" transform="translate(-3 -3)">
        <path fill="#D6E4FC" fill-rule="nonzero" d="M26.76 4.453l19.887 11.482a7.924 7.924 0 0 1 2.9 10.825L38.065 46.647a7.924 7.924 0 0 1-10.825 2.9L7.353 38.065a7.924 7.924 0 0 1-2.9-10.825L15.935 7.353a7.924 7.924 0 0 1 10.825-2.9z"/>
        <path d="M5.906 5.063h42.188v42.188H5.906z"/>
        <rect width="38.017" height="38.017" x="8.835" y="7.148" fill="#FFF" fill-rule="nonzero" stroke="#0162FF" stroke-width=".796" rx="3.375"/>
        <path fill="#0162FF" fill-rule="nonzero" d="M17.473 27.69a10.019 10.019 0 0 0 7.42 8.576 18.164 18.164 0 0 1-2.974-8.576h-4.446zm0-2.224h4.444a18.13 18.13 0 0 1 2.975-8.575 10.019 10.019 0 0 0-7.419 8.575zm19.898 0a10.019 10.019 0 0 0-7.42-8.576 18.164 18.164 0 0 1 2.973 8.576h4.447zm0 2.224h-4.444a18.13 18.13 0 0 1-2.976 8.576 10.019 10.019 0 0 0 7.42-8.576zm-13.225-2.224h6.548a15.905 15.905 0 0 0-3.272-8.285 15.892 15.892 0 0 0-3.276 8.285zm6.552 2.224h-6.549a15.905 15.905 0 0 0 3.273 8.285 15.892 15.892 0 0 0 3.276-8.285zm-3.276 11.122c-6.757 0-12.235-5.477-12.235-12.234s5.478-12.234 12.235-12.234 12.234 5.477 12.234 12.234-5.477 12.235-12.234 12.235z"/>
        <path fill="#CCDCF4" d="M33 9h9a3 3 0 0 1 3 3v7L33 9z"/>
        <rect width="25.313" height="10.125" x="15.188" y="22.781" fill="#FFF" rx=".935"/>
        <path fill="#0565FF" fill-rule="nonzero" d="M23.28 24.469l-1.495 6.75h-1.491l-1.06-4.386-1.055 4.386h-1.491l-1.5-6.75h1.462l.887 4.691 1.073-4.691h1.248l1.078 4.691.881-4.691h1.463zm8.61 0l-1.496 6.75h-1.49l-1.06-4.386-1.055 4.386h-1.491l-1.5-6.75h1.462l.886 4.691 1.074-4.691h1.247l1.079 4.691.881-4.691h1.463zm8.61 0l-1.496 6.75h-1.49l-1.06-4.386-1.055 4.386h-1.491l-1.5-6.75h1.462l.886 4.691 1.074-4.691h1.247l1.079 4.691.881-4.691H40.5z"/>
    </g>
</svg>
