<?xml version="1.0" encoding="UTF-8"?>
<svg width="55px" height="55px" viewBox="0 0 55 55" version="1.1" xmlns="http://www.w3.org/2000/svg" xmlns:xlink="http://www.w3.org/1999/xlink">
    <title>Create dataset Copy</title>
    <defs>
        <path d="M4.97654416,1.33333333 L2,1.33333333 C1.63181017,1.33333333 1.33333333,1.63181017 1.33333333,2 L1.33333333,11.3333333 C1.33333333,11.7015232 1.63181017,12 2,12 L12.6666667,12 C13.0348565,12 13.3333333,11.7015232 13.3333333,11.3333333 L13.3333333,4 C13.3333333,3.63181017 13.0348565,3.33333333 12.6666667,3.33333333 L6.66666667,3.33333333 C6.44376454,3.33333333 6.23561032,3.22193258 6.11196647,3.0364668 L4.97654416,1.33333333 Z M7.02345584,2 L12.6666667,2 C13.7712362,2 14.6666667,2.8954305 14.6666667,4 L14.6666667,11.3333333 C14.6666667,12.4379028 13.7712362,13.3333333 12.6666667,13.3333333 L2,13.3333333 C0.8954305,13.3333333 0,12.4379028 0,11.3333333 L0,2 C0,0.8954305 0.8954305,0 2,0 L5.33333333,0 C5.55623546,0 5.76438968,0.111400757 5.88803353,0.296866536 L7.02345584,2 Z" id="path-1"></path>
    </defs>
    <g id="New-Designs" stroke="none" stroke-width="1" fill="none" fill-rule="evenodd">
        <g id="Add-Sidebar" transform="translate(-23.000000, -229.000000)">
            <g id="Create-Dataset-Copy" transform="translate(15.000000, 216.000000)">
                <g id="Create-dataset-Copy" transform="translate(8.000000, 13.000000)">
                    <path d="M15.4686028,7.36860279 L39.5313972,7.36860279 C44.0049037,7.36860279 47.6313972,10.9950963 47.6313972,15.4686028 L47.6313972,39.5313972 C47.6313972,44.0049037 44.0049037,47.6313972 39.5313972,47.6313972 L15.4686028,47.6313972 C10.9950963,47.6313972 7.36860279,44.0049037 7.36860279,39.5313972 L7.36860279,15.4686028 C7.36860279,10.9950963 10.9950963,7.36860279 15.4686028,7.36860279 Z" id="Rectangle-Copy-2" fill="#D6E4FC" fill-rule="nonzero" transform="translate(27.500000, 27.500000) rotate(-330.000000) translate(-27.500000, -27.500000) "></path>
                    <g id="Group-38-Copy-2" transform="translate(11.163775, 6.089332)">
                        <path d="M19.4203361,0.45 C20.1705664,0.45 20.8961644,0.717765409 21.4665516,1.20510917 L21.4665516,1.20510917 L26.556131,5.55368824 L30.619898,9.00870052 C31.3238483,9.60719866 31.7295277,10.4845894 31.7295277,11.4085732 L31.7295277,11.4085732 L31.7295277,38.0104334 C31.7295277,38.8802819 31.3769519,39.6677819 30.806914,40.2378198 C30.2368761,40.8078576 29.4493761,41.1604334 28.5795277,41.1604334 L28.5795277,41.1604334 L3.6,41.1604334 C2.73015152,41.1604334 1.94265152,40.8078576 1.37261364,40.2378198 C0.80257576,39.6677819 0.45,38.8802819 0.45,38.0104334 L0.45,38.0104334 L0.45,3.6 C0.45,2.73015152 0.80257576,1.94265152 1.37261364,1.37261364 C1.94265152,0.80257576 2.73015152,0.45 3.6,0.45 L3.6,0.45 L19.4203361,0.45 Z" id="Rectangle" stroke="#0162FF" stroke-width="0.9" fill="#FFFFFF" fill-rule="nonzero"></path>
                        <g id="Icon" transform="translate(8.927171, 17.183216)">
                            <mask id="mask-2" fill="white">
                                <use xlink:href="#path-1"></use>
                            </mask>
                            <use id="Mask" fill="#0162FF" fill-rule="nonzero" xlink:href="#path-1"></use>
                        </g>
                        <path d="M20.8743884,1.28140569 C22.6097083,2.79035779 24.6982978,4.57538308 27.1401569,6.63648155 C29.582016,8.69758001 30.9025699,10.0082823 31.1018186,10.5685885 C25.7251746,11.7089512 22.2328275,11.5936871 20.6247774,10.2227962 C19.0167273,8.85190529 19.0999309,5.87144178 20.8743884,1.28140569 Z" id="Rectangle" fill="#CCDCF4" fill-rule="nonzero"></path>
                        <path d="M31.1018186,11.0480118 L22.5445876,11.0480118 C20.5563625,11.0480118 18.9445876,9.43623693 18.9445876,7.44801183 L18.9445876,4.5228732 L18.9445876,4.5228732" id="Path-6" stroke="#0162FF" stroke-width="0.9" stroke-linecap="round" stroke-linejoin="round" fill-rule="nonzero"></path>
                    </g>
                </g>
            </g>
        </g>
    </g>
</svg>