<?xml version="1.0" encoding="UTF-8"?>
<svg width="55px" height="55px" viewBox="0 0 55 55" version="1.1" xmlns="http://www.w3.org/2000/svg" xmlns:xlink="http://www.w3.org/1999/xlink">
    <!-- Generator: Sketch 63.1 (92452) - https://sketch.com -->
    <title>Multitab </title>
    <desc>Created with Sketch.</desc>
    <g id="Multitab-" stroke="none" stroke-width="1" fill="none" fill-rule="evenodd">
        <g id="Blank_image-Copy" fill="#D6E4FC" fill-rule="nonzero">
            <path d="M15.3605039,7.26050391 L38.8326351,7.26050391 C43.3061415,7.26050391 46.9326351,10.8869974 46.9326351,15.3605039 L46.9326351,38.8326351 C46.9326351,43.3061415 43.3061415,46.9326351 38.8326351,46.9326351 L15.3605039,46.9326351 C10.8869974,46.9326351 7.26050391,43.3061415 7.26050391,38.8326351 L7.26050391,15.3605039 C7.26050391,10.8869974 10.8869974,7.26050391 15.3605039,7.26050391 Z" id="Rectangle-Copy-2" transform="translate(27.096569, 27.096569) rotate(-330.000000) translate(-27.096569, -27.096569) "></path>
        </g>
        <path d="M22.2759879,23.8013345 L38.6888964,23.8013345 C39.7934659,23.8013345 40.6888964,24.696765 40.6888964,25.8013345 L40.6888964,40.7448189 L40.6888964,40.7448189 C40.6888964,41.732434 40.0220002,42.5330542 39.1993419,42.5330542 L8.85946818,42.5330542 C8.03680992,42.5330542 7.36991363,41.732434 7.36991363,40.7448189 L7.36991363,20.3212895 C7.36991363,19.3336744 8.03680992,18.5330542 8.85946818,18.5330542 L19.2759879,18.5330542 C20.3805574,18.5330542 21.2759879,19.4284847 21.2759879,20.5330542 L21.2759879,22.8013345 C21.2759879,23.3536193 21.7237031,23.8013345 22.2759879,23.8013345 Z" id="Path-Copy" stroke="#0162FF" stroke-width="0.89411766" fill="#FFFFFF"></path>
        <path d="M26.1831839,20.5894137 L43.0534648,20.5894137 C44.1580343,20.5894137 45.0534648,21.4848442 45.0534648,22.5894137 L45.0534648,37.532898 L45.0534648,37.532898 C45.0534648,38.5205131 44.3708563,39.3211333 43.528816,39.3211333 L12.4741283,39.3211333 C11.632088,39.3211333 10.9494795,38.5205131 10.9494795,37.532898 L10.9494795,17.1093686 C10.9494795,16.1217535 11.632088,15.3211333 12.4741283,15.3211333 L23.1831839,15.3211333 C24.2877534,15.3211333 25.1831839,16.2165638 25.1831839,17.3211333 L25.1831839,19.5894137 C25.1831839,20.1416984 25.6308991,20.5894137 26.1831839,20.5894137 Z" id="Path" stroke="#0162FF" stroke-width="0.89411766" fill="#FFFFFF"></path>
        <line x1="32.4854353" y1="17.3578941" x2="28.0059023" y2="17.3578941" id="Path-6" stroke="#0162FF" stroke-linecap="round" stroke-linejoin="round" fill-rule="nonzero"></line>
        <line x1="42.0534648" y1="17.3578941" x2="38.2173985" y2="17.3578941" id="Path-6" stroke="#0162FF" stroke-linecap="round" stroke-linejoin="round" fill-rule="nonzero"></line>
    </g>
</svg>