<svg xmlns="http://www.w3.org/2000/svg" width="48" height="48" viewBox="0 0 48 48">
    <g fill="none" fill-rule="evenodd">
        <path fill="#D6E4FC" fill-rule="nonzero" d="M23.853 1.39L43.74 12.872a7.924 7.924 0 0 1 2.9 10.825L35.16 43.584a7.924 7.924 0 0 1-10.826 2.9L4.447 35.004a7.924 7.924 0 0 1-2.9-10.825L13.028 4.29a7.924 7.924 0 0 1 10.825-2.9z"/>
        <path d="M3 2h42.188v42.188H3z"/>
        <path fill="#FFF" fill-rule="nonzero" stroke="#0162FF" stroke-width=".796" d="M9.06 5.012a2.977 2.977 0 0 0-2.662 2.96V40.7a2.977 2.977 0 0 0 2.676 2.962l16.59 1.692 16.083-1.683a2.977 2.977 0 0 0 2.668-2.961V7.992c0-1.53-1.16-2.81-2.682-2.962L24.83 3.333 9.059 5.012z"/>
        <g transform="translate(10 10.938)">
            <path fill="#0565FF" d="M7.5 10a2.5 2.5 0 1 1 0-5 2.5 2.5 0 0 1 0 5zm0 11a2.5 2.5 0 1 1 0-5 2.5 2.5 0 0 1 0 5zm16.333-9.773V4.333c0-1.196-.97-2.166-2.166-2.166H4.333c-1.196 0-2.166.97-2.166 2.166v6.894h21.666zm0 2.364H2.167v8.076c0 1.196.97 2.166 2.166 2.166h17.334c1.196 0 2.166-.97 2.166-2.166V13.59zM4.333 0h17.334A4.333 4.333 0 0 1 26 4.333v17.334A4.333 4.333 0 0 1 21.667 26H4.333A4.333 4.333 0 0 1 0 21.667V4.333A4.333 4.333 0 0 1 4.333 0z"/>
            <circle cx="22.5" cy="17.5" r="9.5" fill="#FFF"/>
            <path fill="#0565FF" fill-rule="nonzero" d="M27.166 19.233a.633.633 0 0 1 .812-.397c.331.12.505.491.388.83-.944 2.73-3.543 4.492-6.373 4.323-2.83-.17-5.209-2.23-5.835-5.053-.627-2.823.651-5.73 3.134-7.127a6.26 6.26 0 0 1 7.561 1.083l2.947 2.834a.66.66 0 0 1 .027.919.627.627 0 0 1-.9.027l-2.96-2.847a5.013 5.013 0 0 0-6.06-.878c-1.986 1.118-3.009 3.443-2.508 5.702.501 2.259 2.405 3.907 4.669 4.042 2.264.135 4.342-1.275 5.098-3.458zm1.561-3.684V12.3c0-.358.285-.65.637-.65.351 0 .636.292.636.65v3.9c0 .36-.285.65-.636.65h-3.82a.643.643 0 0 1-.636-.65c0-.359.285-.65.637-.65h3.182z"/>
        </g>
        <path fill="#CCDCF4" d="M31 6.938h9a3 3 0 0 1 3 3v7l-12-10z"/>
    </g>
</svg>
