<svg xmlns="http://www.w3.org/2000/svg" width="49" height="51" viewBox="0 0 49 51">
    <g fill="none" fill-rule="evenodd" transform="translate(-2)">
        <path fill="#D6E4FC" fill-rule="nonzero" d="M26.31 4.457l19.858 11.485a7.91 7.91 0 0 1 2.893 10.798L37.59 46.645a7.91 7.91 0 0 1-10.814 2.898L6.918 38.058A7.91 7.91 0 0 1 4.024 27.26L15.496 7.355A7.91 7.91 0 0 1 26.31 4.457z"/>
        <path d="M5.487 5.063h42.112v42.188H5.487z"/>
        <path fill="#FFF" fill-rule="nonzero" stroke="#0162FF" stroke-width="1.078" d="M16.101 7.03l-.157.259h-4.562a2.83 2.83 0 0 0-2.83 2.83v32.075a2.83 2.83 0 0 0 2.83 2.83h32.006a2.83 2.83 0 0 0 2.83-2.83V10.119a2.83 2.83 0 0 0-2.83-2.83h-4.09l-.158-.26C36.71 3.032 32.38.54 27.62.54a13.46 13.46 0 0 0-11.519 6.49z"/>
        <path fill="#0565FF" fill-rule="nonzero" d="M35.67 23.264c0 .513-.4.928-.894.928s-.894-.415-.894-.928V21.41c0-1.538-1.202-2.784-2.684-2.784h-7.155c-1.482 0-2.683 1.246-2.683 2.784v1.855c0 .513-.4.928-.894.928s-.895-.415-.895-.928V21.41c0-2.563 2.002-4.64 4.472-4.64h7.155c2.47 0 4.472 2.077 4.472 4.64v1.855zm-7.647-8.144c-2.445 0-4.427-2.03-4.427-4.536 0-2.505 1.982-4.536 4.427-4.536 2.445 0 4.428 2.03 4.428 4.536 0 2.505-1.983 4.536-4.428 4.536zm0-1.65c1.556 0 2.818-1.292 2.818-2.886s-1.262-2.887-2.818-2.887-2.817 1.293-2.817 2.887 1.261 2.887 2.817 2.887z"/>
        <circle cx="28.473" cy="9.818" r="1.964" fill="#CCDCF4"/>
        <rect width="32.342" height="10.8" x="11.45" y="29.16" fill="#FFF" stroke="#0565FF" stroke-width=".539" rx="2.156"/>
        <path fill="#0565FF" fill-rule="nonzero" d="M17.918 34.375l.291-.895 1.492.623-.1-1.703h.954l-.1 1.737 1.454-.608.286.905-1.535.432 1.01 1.295-.772.559-.872-1.425-.863 1.376-.778-.535 1.05-1.323-1.517-.438zm4.684 0l.29-.895 1.493.623-.1-1.703h.953l-.1 1.737 1.454-.608.287.905-1.536.432 1.011 1.295-.772.559-.873-1.425-.863 1.376-.777-.535 1.049-1.323-1.516-.438zm4.683 0l.29-.895 1.493.623-.1-1.703h.954l-.1 1.737 1.454-.608.286.905-1.535.432 1.01 1.295-.772.559-.872-1.425-.863 1.376-.778-.535 1.05-1.323-1.517-.438zm4.684 0l.29-.895 1.493.623-.1-1.703h.953l-.1 1.737 1.454-.608.286.905-1.535.432 1.011 1.295-.772.559-.873-1.425-.863 1.376-.777-.535 1.049-1.323-1.516-.438z"/>
    </g>
</svg>
