<svg xmlns="http://www.w3.org/2000/svg" width="48" height="48" viewBox="0 0 48 48">
    <g fill="none" fill-rule="evenodd">
        <path fill="#D6E4FC" fill-rule="nonzero" d="M23.853 1.453L43.74 12.935a7.924 7.924 0 0 1 2.9 10.825L35.16 43.647a7.924 7.924 0 0 1-10.826 2.9L4.447 35.065a7.924 7.924 0 0 1-2.9-10.825L13.028 4.353a7.924 7.924 0 0 1 10.825-2.9z"/>
        <path d="M3 2.063h42.188v42.188H3z"/>
        <path fill="#FFF" fill-rule="nonzero" stroke="#0565FF" stroke-width=".74" d="M9.44 5.969a2.77 2.77 0 0 0-2.474 2.47L5.368 23.83l1.599 15.551a2.77 2.77 0 0 0 2.477 2.472L25.3 43.458l15.07-1.591a2.77 2.77 0 0 0 2.466-2.496l1.476-15.701-1.469-15.218a2.77 2.77 0 0 0-2.47-2.489L25.089 4.368l-15.65 1.6z"/>
        <path fill="#CCDCF4" d="M29 7h9.481a3 3 0 0 1 3 3v7.829L29 7z"/>
        <path fill="#0565FF" fill-rule="nonzero" d="M16.662 11.34h1.553l-2.162 4.224v2.39h-1.445v-2.39l-2.162-4.224H14l1.33 2.939 1.332-2.939zm7.645 3.452c0 .66-.119 1.236-.356 1.726-.238.49-.57.868-.997 1.131-.427.264-.92.395-1.477.395s-1.05-.131-1.48-.395a2.652 2.652 0 0 1-1.004-1.13c-.24-.491-.359-1.067-.359-1.727v-.286c0-.66.12-1.236.359-1.728a2.66 2.66 0 0 1 1-1.134c.426-.263.918-.395 1.475-.395s1.05.132 1.479.395c.428.264.762.642 1.001 1.134.24.492.36 1.068.36 1.728v.286zm-1.444-.295c0-.672-.121-1.186-.364-1.542-.242-.356-.586-.534-1.03-.534-.449 0-.793.177-1.032.532-.239.354-.359.869-.359 1.544v.295c0 .67.122 1.184.364 1.544.242.36.587.541 1.035.541.446 0 .788-.18 1.027-.54.24-.36.359-.876.359-1.545v-.295zm7.659 1.19c0 .5-.107.927-.322 1.28a2.055 2.055 0 0 1-.898.805c-.383.181-.825.272-1.328.272-.506 0-.952-.09-1.338-.272a2.05 2.05 0 0 1-.901-.804c-.215-.354-.323-.781-.323-1.281V11.34h1.43v4.347c0 .805.378 1.208 1.132 1.208.366 0 .645-.097.836-.293.19-.195.286-.5.286-.915V11.34h1.426v4.347zm6.501 2.198v.068h-1.526l-1.217-2.389h-1.032v2.39h-1.426V11.34h2.498c.512 0 .952.077 1.32.23.368.152.65.378.847.676.197.299.295.663.295 1.093 0 .469-.101.853-.304 1.151-.203.298-.494.534-.872.706l1.417 2.69zm-3.775-3.474h1.072c.34 0 .597-.085.773-.255.175-.17.263-.402.263-.7 0-.302-.087-.538-.261-.708-.174-.17-.432-.254-.775-.254h-1.072v1.917zm-15.95 11.696v1.149H13.01v-6.614h1.426v5.465h2.861zm6.128-2.013c0 .66-.119 1.236-.357 1.726-.237.491-.57.868-.997 1.131-.427.264-.919.396-1.476.396-.557 0-1.05-.132-1.48-.396a2.652 2.652 0 0 1-1.004-1.13c-.24-.491-.36-1.066-.36-1.727v-.286c0-.66.12-1.236.36-1.728a2.66 2.66 0 0 1 .999-1.133c.427-.264.919-.395 1.476-.395.557 0 1.05.131 1.479.395.428.263.762.641 1.001 1.133.24.492.359 1.068.359 1.728v.286zm-1.444-.295c0-.672-.122-1.186-.364-1.542-.242-.356-.586-.534-1.03-.534-.449 0-.793.178-1.032.532-.24.354-.359.869-.359 1.544v.295c0 .67.121 1.184.364 1.545.242.36.587.54 1.035.54.445 0 .788-.18 1.027-.54.239-.36.359-.875.359-1.545V23.8zm7.886 2.626a2.262 2.262 0 0 1-.518.427c-.22.139-.504.256-.85.352a4.482 4.482 0 0 1-1.19.143c-.575 0-1.079-.126-1.512-.377a2.543 2.543 0 0 1-1.008-1.097c-.24-.48-.359-1.056-.359-1.729v-.386c0-.672.116-1.249.347-1.73.232-.482.558-.849.977-1.102.42-.253.908-.379 1.465-.379.833 0 1.462.197 1.89.59.426.394.678.936.753 1.627h-1.38c-.052-.349-.173-.614-.364-.795-.19-.182-.477-.273-.858-.273-.448 0-.791.174-1.03.523-.237.348-.356.858-.356 1.53v.395c0 .679.128 1.19.384 1.536.256.345.635.517 1.138.517.484 0 .833-.102 1.045-.308v-1.095h-1.204v-1.036h2.63v2.667zm6.75-2.33c0 .66-.118 1.235-.356 1.725-.238.491-.57.868-.997 1.131-.427.264-.919.396-1.476.396-.557 0-1.05-.132-1.48-.396a2.652 2.652 0 0 1-1.005-1.13c-.239-.491-.358-1.066-.358-1.727v-.286c0-.66.12-1.236.358-1.728a2.66 2.66 0 0 1 1-1.133c.427-.264.919-.395 1.476-.395.557 0 1.05.131 1.478.395.429.263.763.641 1.002 1.133.24.492.359 1.068.359 1.728v.286zm-1.444-.296c0-.672-.12-1.186-.363-1.542-.242-.356-.586-.534-1.031-.534-.448 0-.792.178-1.031.532-.24.354-.359.869-.359 1.544v.295c0 .67.121 1.184.363 1.545.243.36.588.54 1.036.54.445 0 .787-.18 1.027-.54.239-.36.358-.875.358-1.545V23.8zm-16.741 6.146v6.613h-1.422v-2.807h-2.575v2.807H13.01v-6.613h1.426v2.657h2.575v-2.657h1.422zm5.824 5.464v1.15h-4.465v-6.614h4.46v1.153h-3.034v1.504h2.585v1.113h-2.585v1.694h3.04zm6.179 1.081v.068H28.91l-1.218-2.389h-1.03v2.39h-1.427v-6.614h2.498c.512 0 .952.076 1.32.23.368.152.65.378.847.676.197.298.295.662.295 1.092 0 .47-.101.853-.304 1.152-.203.298-.494.533-.872.706l1.417 2.689zm-3.775-3.475h1.072c.34 0 .597-.085.772-.254.176-.17.264-.403.264-.7 0-.302-.087-.539-.261-.708-.175-.17-.433-.255-.775-.255h-1.072v1.917zm9.226 2.394v1.15h-4.464v-6.614h4.46v1.153h-3.034v1.504h2.584v1.113H32.85v1.694h3.038z"/>
    </g>
</svg>
