<?xml version="1.0" encoding="UTF-8"?>
<svg width="16px" height="16px" viewBox="0 0 24 24" version="1.1" xmlns="http://www.w3.org/2000/svg" xmlns:xlink="http://www.w3.org/1999/xlink">
    <!-- Generator: Sketch 53.2 (72643) - https://sketchapp.com -->
    <title>Sucess</title>
    <desc>Created with Sketch.</desc>
    <defs>
        <linearGradient x1="50%" y1="0%" x2="50%" y2="97.783801%" id="linearGradient-1">
            <stop stop-color="#39B54A" offset="0%"></stop>
            <stop stop-color="#34AA44" offset="100%"></stop>
        </linearGradient>
    </defs>
    <g id="Page-1" stroke="none" stroke-width="1" fill="none" fill-rule="evenodd">
        <path d="M12,24 C5.372583,24 0,18.627417 0,12 C0,5.372583 5.372583,0 12,0 C18.627417,0 24,5.372583 24,12 C24,18.627417 18.627417,24 12,24 Z M17.6722503,7.22530248 L9.66666667,15.1429126 L6.32774972,11.8406871 C6.0240086,11.5402838 5.53154695,11.5402838 5.22780584,11.8406871 C4.92406472,12.1410904 4.92406472,12.6281404 5.22780584,12.9285437 L9.11669473,16.7746975 C9.42043584,17.0751008 9.91289749,17.0751008 10.2166386,16.7746975 L18.7721942,8.31315906 C19.0759353,8.01275576 19.0759353,7.52570578 18.7721942,7.22530248 C18.468453,6.92489917 17.9759914,6.92489917 17.6722503,7.22530248 Z" id="Sucess" fill="url(#linearGradient-1)"></path>
    </g>
</svg>