<svg width="191" height="114" viewBox="0 0 191 114" fill="none" xmlns="http://www.w3.org/2000/svg">
<g clip-path="url(#clip0_586_43079)">
<g opacity="0.399994">
<path opacity="0.4" d="M165.035 53.3964H139.068C131.897 53.3964 126.085 47.3995 126.085 40.1111V26.8258C126.085 19.4451 131.897 13.4487 139.068 13.4487H191V26.8258C191 41.4943 179.375 53.3964 165.035 53.3964Z" fill="#DBEEFE"/>
</g>
<g opacity="0.399994">
<path opacity="0.4" d="M73.6536 86.4784V68.3768H36.8271C16.4953 68.3768 0 84.5856 0 104.579H55.241C65.4705 104.579 73.6536 96.4765 73.6536 86.4784Z" fill="#DBEEFE"/>
</g>
<g opacity="0.7">
<path d="M122.608 1.43366C122.608 1.76919 122.331 2.0417 121.988 2.0417C121.647 2.0417 121.369 1.76919 121.369 1.43366C121.369 1.09728 121.647 0.824768 121.988 0.824768C122.331 0.824768 122.608 1.09728 122.608 1.43366Z" fill="#969DA6"/>
<path d="M129.314 1.43366C129.314 1.76919 129.036 2.0417 128.695 2.0417C128.352 2.0417 128.075 1.76919 128.075 1.43366C128.075 1.09728 128.352 0.824768 128.695 0.824768C129.036 0.824768 129.314 1.09728 129.314 1.43366Z" fill="#969DA6"/>
<path d="M136.019 1.43366C136.019 1.76919 135.743 2.0417 135.4 2.0417C135.058 2.0417 134.78 1.76919 134.78 1.43366C134.78 1.09728 135.058 0.824768 135.4 0.824768C135.743 0.824768 136.019 1.09728 136.019 1.43366Z" fill="#969DA6"/>
<path d="M142.726 1.43366C142.726 1.76919 142.447 2.0417 142.106 2.0417C141.763 2.0417 141.487 1.76919 141.487 1.43366C141.487 1.09728 141.763 0.824768 142.106 0.824768C142.447 0.824768 142.726 1.09728 142.726 1.43366Z" fill="#969DA6"/>
<path d="M149.431 1.43366C149.431 1.76919 149.154 2.0417 148.811 2.0417C148.47 2.0417 148.192 1.76919 148.192 1.43366C148.192 1.09728 148.47 0.824768 148.811 0.824768C149.154 0.824768 149.431 1.09728 149.431 1.43366Z" fill="#969DA6"/>
<path d="M156.137 1.43366C156.137 1.76919 155.859 2.0417 155.518 2.0417C155.175 2.0417 154.898 1.76919 154.898 1.43366C154.898 1.09728 155.175 0.824768 155.518 0.824768C155.859 0.824768 156.137 1.09728 156.137 1.43366Z" fill="#969DA6"/>
<path d="M162.843 1.43366C162.843 1.76919 162.565 2.0417 162.224 2.0417C161.881 2.0417 161.604 1.76919 161.604 1.43366C161.604 1.09728 161.881 0.824768 162.224 0.824768C162.565 0.824768 162.843 1.09728 162.843 1.43366Z" fill="#969DA6"/>
<path d="M169.548 1.43366C169.548 1.76919 169.272 2.0417 168.929 2.0417C168.588 2.0417 168.31 1.76919 168.31 1.43366C168.31 1.09728 168.588 0.824768 168.929 0.824768C169.272 0.824768 169.548 1.09728 169.548 1.43366Z" fill="#969DA6"/>
<path d="M176.255 1.43366C176.255 1.76919 175.978 2.0417 175.635 2.0417C175.293 2.0417 175.016 1.76919 175.016 1.43366C175.016 1.09728 175.293 0.824768 175.635 0.824768C175.978 0.824768 176.255 1.09728 176.255 1.43366Z" fill="#969DA6"/>
<path d="M182.961 1.43366C182.961 1.76919 182.683 2.0417 182.341 2.0417C181.999 2.0417 181.722 1.76919 181.722 1.43366C181.722 1.09728 181.999 0.824768 182.341 0.824768C182.683 0.824768 182.961 1.09728 182.961 1.43366Z" fill="#969DA6"/>
<path d="M122.608 6.58753C122.608 6.92391 122.331 7.19643 121.988 7.19643C121.647 7.19643 121.369 6.92391 121.369 6.58753C121.369 6.252 121.647 5.97949 121.988 5.97949C122.331 5.97949 122.608 6.252 122.608 6.58753Z" fill="#969DA6"/>
<path d="M129.314 6.58753C129.314 6.92391 129.036 7.19643 128.695 7.19643C128.352 7.19643 128.075 6.92391 128.075 6.58753C128.075 6.252 128.352 5.97949 128.695 5.97949C129.036 5.97949 129.314 6.252 129.314 6.58753Z" fill="#969DA6"/>
<path d="M136.019 6.58753C136.019 6.92391 135.743 7.19643 135.4 7.19643C135.058 7.19643 134.78 6.92391 134.78 6.58753C134.78 6.252 135.058 5.97949 135.4 5.97949C135.743 5.97949 136.019 6.252 136.019 6.58753Z" fill="#969DA6"/>
<path d="M142.726 6.58753C142.726 6.92391 142.447 7.19643 142.106 7.19643C141.763 7.19643 141.487 6.92391 141.487 6.58753C141.487 6.252 141.763 5.97949 142.106 5.97949C142.447 5.97949 142.726 6.252 142.726 6.58753Z" fill="#969DA6"/>
<path d="M149.431 6.58753C149.431 6.92391 149.154 7.19643 148.811 7.19643C148.47 7.19643 148.192 6.92391 148.192 6.58753C148.192 6.252 148.47 5.97949 148.811 5.97949C149.154 5.97949 149.431 6.252 149.431 6.58753Z" fill="#969DA6"/>
<path d="M156.137 6.58753C156.137 6.92391 155.859 7.19643 155.518 7.19643C155.175 7.19643 154.898 6.92391 154.898 6.58753C154.898 6.252 155.175 5.97949 155.518 5.97949C155.859 5.97949 156.137 6.252 156.137 6.58753Z" fill="#969DA6"/>
<path d="M162.843 6.58753C162.843 6.92391 162.565 7.19643 162.224 7.19643C161.881 7.19643 161.604 6.92391 161.604 6.58753C161.604 6.252 161.881 5.97949 162.224 5.97949C162.565 5.97949 162.843 6.252 162.843 6.58753Z" fill="#969DA6"/>
<path d="M169.548 6.58753C169.548 6.92391 169.272 7.19643 168.929 7.19643C168.588 7.19643 168.31 6.92391 168.31 6.58753C168.31 6.252 168.588 5.97949 168.929 5.97949C169.272 5.97949 169.548 6.252 169.548 6.58753Z" fill="#969DA6"/>
<path d="M176.255 6.58753C176.255 6.92391 175.978 7.19643 175.635 7.19643C175.293 7.19643 175.016 6.92391 175.016 6.58753C175.016 6.252 175.293 5.97949 175.635 5.97949C175.978 5.97949 176.255 6.252 176.255 6.58753Z" fill="#969DA6"/>
<path d="M182.961 6.58753C182.961 6.92391 182.683 7.19643 182.341 7.19643C181.999 7.19643 181.722 6.92391 181.722 6.58753C181.722 6.252 181.999 5.97949 182.341 5.97949C182.683 5.97949 182.961 6.252 182.961 6.58753Z" fill="#969DA6"/>
<path d="M122.608 11.7423C122.608 12.0786 122.331 12.3512 121.988 12.3512C121.647 12.3512 121.369 12.0786 121.369 11.7423C121.369 11.4067 121.647 11.1342 121.988 11.1342C122.331 11.1342 122.608 11.4067 122.608 11.7423Z" fill="#969DA6"/>
<path d="M129.314 11.7423C129.314 12.0786 129.036 12.3512 128.695 12.3512C128.352 12.3512 128.075 12.0786 128.075 11.7423C128.075 11.4067 128.352 11.1342 128.695 11.1342C129.036 11.1342 129.314 11.4067 129.314 11.7423Z" fill="#969DA6"/>
<path d="M136.019 11.7423C136.019 12.0786 135.743 12.3512 135.4 12.3512C135.058 12.3512 134.78 12.0786 134.78 11.7423C134.78 11.4067 135.058 11.1342 135.4 11.1342C135.743 11.1342 136.019 11.4067 136.019 11.7423Z" fill="#969DA6"/>
<path d="M142.726 11.7423C142.726 12.0786 142.447 12.3512 142.106 12.3512C141.763 12.3512 141.487 12.0786 141.487 11.7423C141.487 11.4067 141.763 11.1342 142.106 11.1342C142.447 11.1342 142.726 11.4067 142.726 11.7423Z" fill="#969DA6"/>
<path d="M149.431 11.7423C149.431 12.0786 149.154 12.3512 148.811 12.3512C148.47 12.3512 148.192 12.0786 148.192 11.7423C148.192 11.4067 148.47 11.1342 148.811 11.1342C149.154 11.1342 149.431 11.4067 149.431 11.7423Z" fill="#969DA6"/>
<path d="M156.137 11.7423C156.137 12.0786 155.859 12.3512 155.518 12.3512C155.175 12.3512 154.898 12.0786 154.898 11.7423C154.898 11.4067 155.175 11.1342 155.518 11.1342C155.859 11.1342 156.137 11.4067 156.137 11.7423Z" fill="#969DA6"/>
<path d="M162.843 11.7423C162.843 12.0786 162.565 12.3512 162.224 12.3512C161.881 12.3512 161.604 12.0786 161.604 11.7423C161.604 11.4067 161.881 11.1342 162.224 11.1342C162.565 11.1342 162.843 11.4067 162.843 11.7423Z" fill="#969DA6"/>
<path d="M169.548 11.7423C169.548 12.0786 169.272 12.3512 168.929 12.3512C168.588 12.3512 168.31 12.0786 168.31 11.7423C168.31 11.4067 168.588 11.1342 168.929 11.1342C169.272 11.1342 169.548 11.4067 169.548 11.7423Z" fill="#969DA6"/>
<path d="M176.255 11.7423C176.255 12.0786 175.978 12.3512 175.635 12.3512C175.293 12.3512 175.016 12.0786 175.016 11.7423C175.016 11.4067 175.293 11.1342 175.635 11.1342C175.978 11.1342 176.255 11.4067 176.255 11.7423Z" fill="#969DA6"/>
<path d="M182.961 11.7423C182.961 12.0786 182.683 12.3512 182.341 12.3512C181.999 12.3512 181.722 12.0786 181.722 11.7423C181.722 11.4067 181.999 11.1342 182.341 11.1342C182.683 11.1342 182.961 11.4067 182.961 11.7423Z" fill="#969DA6"/>
<path d="M122.608 16.897C122.608 17.2325 122.331 17.5059 121.988 17.5059C121.647 17.5059 121.369 17.2325 121.369 16.897C121.369 16.5606 121.647 16.2889 121.988 16.2889C122.331 16.2889 122.608 16.5606 122.608 16.897Z" fill="#969DA6"/>
<path d="M129.314 16.897C129.314 17.2325 129.036 17.5059 128.695 17.5059C128.352 17.5059 128.075 17.2325 128.075 16.897C128.075 16.5606 128.352 16.2889 128.695 16.2889C129.036 16.2889 129.314 16.5606 129.314 16.897Z" fill="#969DA6"/>
<path d="M136.019 16.897C136.019 17.2325 135.743 17.5059 135.4 17.5059C135.058 17.5059 134.78 17.2325 134.78 16.897C134.78 16.5606 135.058 16.2889 135.4 16.2889C135.743 16.2889 136.019 16.5606 136.019 16.897Z" fill="#969DA6"/>
<path d="M142.726 16.897C142.726 17.2325 142.447 17.5059 142.106 17.5059C141.763 17.5059 141.487 17.2325 141.487 16.897C141.487 16.5606 141.763 16.2889 142.106 16.2889C142.447 16.2889 142.726 16.5606 142.726 16.897Z" fill="#969DA6"/>
<path d="M149.431 16.897C149.431 17.2325 149.154 17.5059 148.811 17.5059C148.47 17.5059 148.192 17.2325 148.192 16.897C148.192 16.5606 148.47 16.2889 148.811 16.2889C149.154 16.2889 149.431 16.5606 149.431 16.897Z" fill="#969DA6"/>
<path d="M156.137 16.897C156.137 17.2325 155.859 17.5059 155.518 17.5059C155.175 17.5059 154.898 17.2325 154.898 16.897C154.898 16.5606 155.175 16.2889 155.518 16.2889C155.859 16.2889 156.137 16.5606 156.137 16.897Z" fill="#969DA6"/>
<path d="M162.843 16.897C162.843 17.2325 162.565 17.5059 162.224 17.5059C161.881 17.5059 161.604 17.2325 161.604 16.897C161.604 16.5606 161.881 16.2889 162.224 16.2889C162.565 16.2889 162.843 16.5606 162.843 16.897Z" fill="#969DA6"/>
<path d="M169.548 16.897C169.548 17.2325 169.272 17.5059 168.929 17.5059C168.588 17.5059 168.31 17.2325 168.31 16.897C168.31 16.5606 168.588 16.2889 168.929 16.2889C169.272 16.2889 169.548 16.5606 169.548 16.897Z" fill="#969DA6"/>
<path d="M176.255 16.897C176.255 17.2325 175.978 17.5059 175.635 17.5059C175.293 17.5059 175.016 17.2325 175.016 16.897C175.016 16.5606 175.293 16.2889 175.635 16.2889C175.978 16.2889 176.255 16.5606 176.255 16.897Z" fill="#969DA6"/>
<path d="M182.961 16.897C182.961 17.2325 182.683 17.5059 182.341 17.5059C181.999 17.5059 181.722 17.2325 181.722 16.897C181.722 16.5606 181.999 16.2889 182.341 16.2889C182.683 16.2889 182.961 16.5606 182.961 16.897Z" fill="#969DA6"/>
<path d="M122.608 22.0517C122.608 22.3872 122.331 22.6597 121.988 22.6597C121.647 22.6597 121.369 22.3872 121.369 22.0517C121.369 21.7153 121.647 21.4428 121.988 21.4428C122.331 21.4428 122.608 21.7153 122.608 22.0517Z" fill="#969DA6"/>
<path d="M129.314 22.0517C129.314 22.3872 129.036 22.6597 128.695 22.6597C128.352 22.6597 128.075 22.3872 128.075 22.0517C128.075 21.7153 128.352 21.4428 128.695 21.4428C129.036 21.4428 129.314 21.7153 129.314 22.0517Z" fill="#969DA6"/>
<path d="M136.019 22.0517C136.019 22.3872 135.743 22.6597 135.4 22.6597C135.058 22.6597 134.78 22.3872 134.78 22.0517C134.78 21.7153 135.058 21.4428 135.4 21.4428C135.743 21.4428 136.019 21.7153 136.019 22.0517Z" fill="#969DA6"/>
<path d="M142.726 22.0517C142.726 22.3872 142.447 22.6597 142.106 22.6597C141.763 22.6597 141.487 22.3872 141.487 22.0517C141.487 21.7153 141.763 21.4428 142.106 21.4428C142.447 21.4428 142.726 21.7153 142.726 22.0517Z" fill="#969DA6"/>
<path d="M149.431 22.0517C149.431 22.3872 149.154 22.6597 148.811 22.6597C148.47 22.6597 148.192 22.3872 148.192 22.0517C148.192 21.7153 148.47 21.4428 148.811 21.4428C149.154 21.4428 149.431 21.7153 149.431 22.0517Z" fill="#969DA6"/>
<path d="M156.137 22.0517C156.137 22.3872 155.859 22.6597 155.518 22.6597C155.175 22.6597 154.898 22.3872 154.898 22.0517C154.898 21.7153 155.175 21.4428 155.518 21.4428C155.859 21.4428 156.137 21.7153 156.137 22.0517Z" fill="#969DA6"/>
<path d="M162.843 22.0517C162.843 22.3872 162.565 22.6597 162.224 22.6597C161.881 22.6597 161.604 22.3872 161.604 22.0517C161.604 21.7153 161.881 21.4428 162.224 21.4428C162.565 21.4428 162.843 21.7153 162.843 22.0517Z" fill="#969DA6"/>
<path d="M169.548 22.0517C169.548 22.3872 169.272 22.6597 168.929 22.6597C168.588 22.6597 168.31 22.3872 168.31 22.0517C168.31 21.7153 168.588 21.4428 168.929 21.4428C169.272 21.4428 169.548 21.7153 169.548 22.0517Z" fill="#969DA6"/>
<path d="M176.255 22.0517C176.255 22.3872 175.978 22.6597 175.635 22.6597C175.293 22.6597 175.016 22.3872 175.016 22.0517C175.016 21.7153 175.293 21.4428 175.635 21.4428C175.978 21.4428 176.255 21.7153 176.255 22.0517Z" fill="#969DA6"/>
<path d="M182.961 22.0517C182.961 22.3872 182.683 22.6597 182.341 22.6597C181.999 22.6597 181.722 22.3872 181.722 22.0517C181.722 21.7153 181.999 21.4428 182.341 21.4428C182.683 21.4428 182.961 21.7153 182.961 22.0517Z" fill="#969DA6"/>
<path d="M122.608 26.819C122.608 27.1554 122.331 27.4279 121.988 27.4279C121.647 27.4279 121.369 27.1554 121.369 26.819C121.369 26.4834 121.647 26.2109 121.988 26.2109C122.331 26.2109 122.608 26.4834 122.608 26.819Z" fill="#969DA6"/>
<path d="M129.314 26.819C129.314 27.1554 129.036 27.4279 128.695 27.4279C128.352 27.4279 128.075 27.1554 128.075 26.819C128.075 26.4834 128.352 26.2109 128.695 26.2109C129.036 26.2109 129.314 26.4834 129.314 26.819Z" fill="#969DA6"/>
<path d="M136.019 26.819C136.019 27.1554 135.743 27.4279 135.4 27.4279C135.058 27.4279 134.78 27.1554 134.78 26.819C134.78 26.4834 135.058 26.2109 135.4 26.2109C135.743 26.2109 136.019 26.4834 136.019 26.819Z" fill="#969DA6"/>
<path d="M142.726 26.819C142.726 27.1554 142.447 27.4279 142.106 27.4279C141.763 27.4279 141.487 27.1554 141.487 26.819C141.487 26.4834 141.763 26.2109 142.106 26.2109C142.447 26.2109 142.726 26.4834 142.726 26.819Z" fill="#969DA6"/>
<path d="M149.431 26.819C149.431 27.1554 149.154 27.4279 148.811 27.4279C148.47 27.4279 148.192 27.1554 148.192 26.819C148.192 26.4834 148.47 26.2109 148.811 26.2109C149.154 26.2109 149.431 26.4834 149.431 26.819Z" fill="#969DA6"/>
<path d="M156.137 26.819C156.137 27.1554 155.859 27.4279 155.518 27.4279C155.175 27.4279 154.898 27.1554 154.898 26.819C154.898 26.4834 155.175 26.2109 155.518 26.2109C155.859 26.2109 156.137 26.4834 156.137 26.819Z" fill="#969DA6"/>
<path d="M162.843 26.819C162.843 27.1554 162.565 27.4279 162.224 27.4279C161.881 27.4279 161.604 27.1554 161.604 26.819C161.604 26.4834 161.881 26.2109 162.224 26.2109C162.565 26.2109 162.843 26.4834 162.843 26.819Z" fill="#969DA6"/>
<path d="M169.548 26.819C169.548 27.1554 169.272 27.4279 168.929 27.4279C168.588 27.4279 168.31 27.1554 168.31 26.819C168.31 26.4834 168.588 26.2109 168.929 26.2109C169.272 26.2109 169.548 26.4834 169.548 26.819Z" fill="#969DA6"/>
<path d="M176.255 26.819C176.255 27.1554 175.978 27.4279 175.635 27.4279C175.293 27.4279 175.016 27.1554 175.016 26.819C175.016 26.4834 175.293 26.2109 175.635 26.2109C175.978 26.2109 176.255 26.4834 176.255 26.819Z" fill="#969DA6"/>
<path d="M182.961 26.819C182.961 27.1554 182.683 27.4279 182.341 27.4279C181.999 27.4279 181.722 27.1554 181.722 26.819C181.722 26.4834 181.999 26.2109 182.341 26.2109C182.683 26.2109 182.961 26.4834 182.961 26.819Z" fill="#969DA6"/>
<path d="M122.608 31.9737C122.608 32.3092 122.331 32.5826 121.988 32.5826C121.647 32.5826 121.369 32.3092 121.369 31.9737C121.369 31.6373 121.647 31.3657 121.988 31.3657C122.331 31.3657 122.608 31.6373 122.608 31.9737Z" fill="#969DA6"/>
<path d="M129.314 31.9737C129.314 32.3092 129.036 32.5826 128.695 32.5826C128.352 32.5826 128.075 32.3092 128.075 31.9737C128.075 31.6373 128.352 31.3657 128.695 31.3657C129.036 31.3657 129.314 31.6373 129.314 31.9737Z" fill="#969DA6"/>
<path d="M136.019 31.9737C136.019 32.3092 135.743 32.5826 135.4 32.5826C135.058 32.5826 134.78 32.3092 134.78 31.9737C134.78 31.6373 135.058 31.3657 135.4 31.3657C135.743 31.3657 136.019 31.6373 136.019 31.9737Z" fill="#969DA6"/>
<path d="M142.726 31.9737C142.726 32.3092 142.447 32.5826 142.106 32.5826C141.763 32.5826 141.487 32.3092 141.487 31.9737C141.487 31.6373 141.763 31.3657 142.106 31.3657C142.447 31.3657 142.726 31.6373 142.726 31.9737Z" fill="#969DA6"/>
<path d="M149.431 31.9737C149.431 32.3092 149.154 32.5826 148.811 32.5826C148.47 32.5826 148.192 32.3092 148.192 31.9737C148.192 31.6373 148.47 31.3657 148.811 31.3657C149.154 31.3657 149.431 31.6373 149.431 31.9737Z" fill="#969DA6"/>
<path d="M156.137 31.9737C156.137 32.3092 155.859 32.5826 155.518 32.5826C155.175 32.5826 154.898 32.3092 154.898 31.9737C154.898 31.6373 155.175 31.3657 155.518 31.3657C155.859 31.3657 156.137 31.6373 156.137 31.9737Z" fill="#969DA6"/>
<path d="M162.843 31.9737C162.843 32.3092 162.565 32.5826 162.224 32.5826C161.881 32.5826 161.604 32.3092 161.604 31.9737C161.604 31.6373 161.881 31.3657 162.224 31.3657C162.565 31.3657 162.843 31.6373 162.843 31.9737Z" fill="#969DA6"/>
<path d="M169.548 31.9737C169.548 32.3092 169.272 32.5826 168.929 32.5826C168.588 32.5826 168.31 32.3092 168.31 31.9737C168.31 31.6373 168.588 31.3657 168.929 31.3657C169.272 31.3657 169.548 31.6373 169.548 31.9737Z" fill="#969DA6"/>
<path d="M176.255 31.9737C176.255 32.3092 175.978 32.5826 175.635 32.5826C175.293 32.5826 175.016 32.3092 175.016 31.9737C175.016 31.6373 175.293 31.3657 175.635 31.3657C175.978 31.3657 176.255 31.6373 176.255 31.9737Z" fill="#969DA6"/>
<path d="M182.961 31.9737C182.961 32.3092 182.683 32.5826 182.341 32.5826C181.999 32.5826 181.722 32.3092 181.722 31.9737C181.722 31.6373 181.999 31.3657 182.341 31.3657C182.683 31.3657 182.961 31.6373 182.961 31.9737Z" fill="#969DA6"/>
<path d="M122.608 37.1276C122.608 37.464 122.331 37.7365 121.988 37.7365C121.647 37.7365 121.369 37.464 121.369 37.1276C121.369 36.792 121.647 36.5195 121.988 36.5195C122.331 36.5195 122.608 36.792 122.608 37.1276Z" fill="#969DA6"/>
<path d="M129.314 37.1276C129.314 37.464 129.036 37.7365 128.695 37.7365C128.352 37.7365 128.075 37.464 128.075 37.1276C128.075 36.792 128.352 36.5195 128.695 36.5195C129.036 36.5195 129.314 36.792 129.314 37.1276Z" fill="#969DA6"/>
<path d="M136.019 37.1276C136.019 37.464 135.743 37.7365 135.4 37.7365C135.058 37.7365 134.78 37.464 134.78 37.1276C134.78 36.792 135.058 36.5195 135.4 36.5195C135.743 36.5195 136.019 36.792 136.019 37.1276Z" fill="#969DA6"/>
<path d="M142.726 37.1276C142.726 37.464 142.447 37.7365 142.106 37.7365C141.763 37.7365 141.487 37.464 141.487 37.1276C141.487 36.792 141.763 36.5195 142.106 36.5195C142.447 36.5195 142.726 36.792 142.726 37.1276Z" fill="#969DA6"/>
<path d="M149.431 37.1276C149.431 37.464 149.154 37.7365 148.811 37.7365C148.47 37.7365 148.192 37.464 148.192 37.1276C148.192 36.792 148.47 36.5195 148.811 36.5195C149.154 36.5195 149.431 36.792 149.431 37.1276Z" fill="#969DA6"/>
<path d="M156.137 37.1276C156.137 37.464 155.859 37.7365 155.518 37.7365C155.175 37.7365 154.898 37.464 154.898 37.1276C154.898 36.792 155.175 36.5195 155.518 36.5195C155.859 36.5195 156.137 36.792 156.137 37.1276Z" fill="#969DA6"/>
<path d="M162.843 37.1276C162.843 37.464 162.565 37.7365 162.224 37.7365C161.881 37.7365 161.604 37.464 161.604 37.1276C161.604 36.792 161.881 36.5195 162.224 36.5195C162.565 36.5195 162.843 36.792 162.843 37.1276Z" fill="#969DA6"/>
<path d="M169.548 37.1276C169.548 37.464 169.272 37.7365 168.929 37.7365C168.588 37.7365 168.31 37.464 168.31 37.1276C168.31 36.792 168.588 36.5195 168.929 36.5195C169.272 36.5195 169.548 36.792 169.548 37.1276Z" fill="#969DA6"/>
<path d="M176.255 37.1276C176.255 37.464 175.978 37.7365 175.635 37.7365C175.293 37.7365 175.016 37.464 175.016 37.1276C175.016 36.792 175.293 36.5195 175.635 36.5195C175.978 36.5195 176.255 36.792 176.255 37.1276Z" fill="#969DA6"/>
<path d="M182.961 37.1276C182.961 37.464 182.683 37.7365 182.341 37.7365C181.999 37.7365 181.722 37.464 181.722 37.1276C181.722 36.792 181.999 36.5195 182.341 36.5195C182.683 36.5195 182.961 36.792 182.961 37.1276Z" fill="#969DA6"/>
<path d="M122.608 42.2823C122.608 42.6187 122.331 42.8912 121.988 42.8912C121.647 42.8912 121.369 42.6187 121.369 42.2823C121.369 41.9468 121.647 41.6743 121.988 41.6743C122.331 41.6743 122.608 41.9468 122.608 42.2823Z" fill="#969DA6"/>
<path d="M129.314 42.2823C129.314 42.6187 129.036 42.8912 128.695 42.8912C128.352 42.8912 128.075 42.6187 128.075 42.2823C128.075 41.9468 128.352 41.6743 128.695 41.6743C129.036 41.6743 129.314 41.9468 129.314 42.2823Z" fill="#969DA6"/>
<path d="M136.019 42.2823C136.019 42.6187 135.743 42.8912 135.4 42.8912C135.058 42.8912 134.78 42.6187 134.78 42.2823C134.78 41.9468 135.058 41.6743 135.4 41.6743C135.743 41.6743 136.019 41.9468 136.019 42.2823Z" fill="#969DA6"/>
<path d="M142.726 42.2823C142.726 42.6187 142.447 42.8912 142.106 42.8912C141.763 42.8912 141.487 42.6187 141.487 42.2823C141.487 41.9468 141.763 41.6743 142.106 41.6743C142.447 41.6743 142.726 41.9468 142.726 42.2823Z" fill="#969DA6"/>
<path d="M149.431 42.2823C149.431 42.6187 149.154 42.8912 148.811 42.8912C148.47 42.8912 148.192 42.6187 148.192 42.2823C148.192 41.9468 148.47 41.6743 148.811 41.6743C149.154 41.6743 149.431 41.9468 149.431 42.2823Z" fill="#969DA6"/>
<path d="M156.137 42.2823C156.137 42.6187 155.859 42.8912 155.518 42.8912C155.175 42.8912 154.898 42.6187 154.898 42.2823C154.898 41.9468 155.175 41.6743 155.518 41.6743C155.859 41.6743 156.137 41.9468 156.137 42.2823Z" fill="#969DA6"/>
<path d="M162.843 42.2823C162.843 42.6187 162.565 42.8912 162.224 42.8912C161.881 42.8912 161.604 42.6187 161.604 42.2823C161.604 41.9468 161.881 41.6743 162.224 41.6743C162.565 41.6743 162.843 41.9468 162.843 42.2823Z" fill="#969DA6"/>
<path d="M169.548 42.2823C169.548 42.6187 169.272 42.8912 168.929 42.8912C168.588 42.8912 168.31 42.6187 168.31 42.2823C168.31 41.9468 168.588 41.6743 168.929 41.6743C169.272 41.6743 169.548 41.9468 169.548 42.2823Z" fill="#969DA6"/>
<path d="M176.255 42.2823C176.255 42.6187 175.978 42.8912 175.635 42.8912C175.293 42.8912 175.016 42.6187 175.016 42.2823C175.016 41.9468 175.293 41.6743 175.635 41.6743C175.978 41.6743 176.255 41.9468 176.255 42.2823Z" fill="#969DA6"/>
<path d="M182.961 42.2823C182.961 42.6187 182.683 42.8912 182.341 42.8912C181.999 42.8912 181.722 42.6187 181.722 42.2823C181.722 41.9468 181.999 41.6743 182.341 41.6743C182.683 41.6743 182.961 41.9468 182.961 42.2823Z" fill="#969DA6"/>
<path d="M122.608 47.437C122.608 47.7734 122.331 48.0459 121.988 48.0459C121.647 48.0459 121.369 47.7734 121.369 47.437C121.369 47.1006 121.647 46.829 121.988 46.829C122.331 46.829 122.608 47.1006 122.608 47.437Z" fill="#969DA6"/>
<path d="M129.314 47.437C129.314 47.7734 129.036 48.0459 128.695 48.0459C128.352 48.0459 128.075 47.7734 128.075 47.437C128.075 47.1006 128.352 46.829 128.695 46.829C129.036 46.829 129.314 47.1006 129.314 47.437Z" fill="#969DA6"/>
<path d="M136.019 47.437C136.019 47.7734 135.743 48.0459 135.4 48.0459C135.058 48.0459 134.78 47.7734 134.78 47.437C134.78 47.1006 135.058 46.829 135.4 46.829C135.743 46.829 136.019 47.1006 136.019 47.437Z" fill="#969DA6"/>
<path d="M142.726 47.437C142.726 47.7734 142.447 48.0459 142.106 48.0459C141.763 48.0459 141.487 47.7734 141.487 47.437C141.487 47.1006 141.763 46.829 142.106 46.829C142.447 46.829 142.726 47.1006 142.726 47.437Z" fill="#969DA6"/>
<path d="M149.431 47.437C149.431 47.7734 149.154 48.0459 148.811 48.0459C148.47 48.0459 148.192 47.7734 148.192 47.437C148.192 47.1006 148.47 46.829 148.811 46.829C149.154 46.829 149.431 47.1006 149.431 47.437Z" fill="#969DA6"/>
<path d="M156.137 47.437C156.137 47.7734 155.859 48.0459 155.518 48.0459C155.175 48.0459 154.898 47.7734 154.898 47.437C154.898 47.1006 155.175 46.829 155.518 46.829C155.859 46.829 156.137 47.1006 156.137 47.437Z" fill="#969DA6"/>
<path d="M162.843 47.437C162.843 47.7734 162.565 48.0459 162.224 48.0459C161.881 48.0459 161.604 47.7734 161.604 47.437C161.604 47.1006 161.881 46.829 162.224 46.829C162.565 46.829 162.843 47.1006 162.843 47.437Z" fill="#969DA6"/>
<path d="M169.548 47.437C169.548 47.7734 169.272 48.0459 168.929 48.0459C168.588 48.0459 168.31 47.7734 168.31 47.437C168.31 47.1006 168.588 46.829 168.929 46.829C169.272 46.829 169.548 47.1006 169.548 47.437Z" fill="#969DA6"/>
<path d="M176.255 47.437C176.255 47.7734 175.978 48.0459 175.635 48.0459C175.293 48.0459 175.016 47.7734 175.016 47.437C175.016 47.1006 175.293 46.829 175.635 46.829C175.978 46.829 176.255 47.1006 176.255 47.437Z" fill="#969DA6"/>
<path d="M182.961 47.437C182.961 47.7734 182.683 48.0459 182.341 48.0459C181.999 48.0459 181.722 47.7734 181.722 47.437C181.722 47.1006 181.999 46.829 182.341 46.829C182.683 46.829 182.961 47.1006 182.961 47.437Z" fill="#969DA6"/>
<path d="M122.608 52.5917C122.608 52.9273 122.331 53.1998 121.988 53.1998C121.647 53.1998 121.369 52.9273 121.369 52.5917C121.369 52.2554 121.647 51.9828 121.988 51.9828C122.331 51.9828 122.608 52.2554 122.608 52.5917Z" fill="#969DA6"/>
<path d="M129.314 52.5917C129.314 52.9273 129.036 53.1998 128.695 53.1998C128.352 53.1998 128.075 52.9273 128.075 52.5917C128.075 52.2554 128.352 51.9828 128.695 51.9828C129.036 51.9828 129.314 52.2554 129.314 52.5917Z" fill="#969DA6"/>
<path d="M136.019 52.5917C136.019 52.9273 135.743 53.1998 135.4 53.1998C135.058 53.1998 134.78 52.9273 134.78 52.5917C134.78 52.2554 135.058 51.9828 135.4 51.9828C135.743 51.9828 136.019 52.2554 136.019 52.5917Z" fill="#969DA6"/>
<path d="M142.726 52.5917C142.726 52.9273 142.447 53.1998 142.106 53.1998C141.763 53.1998 141.487 52.9273 141.487 52.5917C141.487 52.2554 141.763 51.9828 142.106 51.9828C142.447 51.9828 142.726 52.2554 142.726 52.5917Z" fill="#969DA6"/>
<path d="M149.431 52.5917C149.431 52.9273 149.154 53.1998 148.811 53.1998C148.47 53.1998 148.192 52.9273 148.192 52.5917C148.192 52.2554 148.47 51.9828 148.811 51.9828C149.154 51.9828 149.431 52.2554 149.431 52.5917Z" fill="#969DA6"/>
<path d="M156.137 52.5917C156.137 52.9273 155.859 53.1998 155.518 53.1998C155.175 53.1998 154.898 52.9273 154.898 52.5917C154.898 52.2554 155.175 51.9828 155.518 51.9828C155.859 51.9828 156.137 52.2554 156.137 52.5917Z" fill="#969DA6"/>
<path d="M162.843 52.5917C162.843 52.9273 162.565 53.1998 162.224 53.1998C161.881 53.1998 161.604 52.9273 161.604 52.5917C161.604 52.2554 161.881 51.9828 162.224 51.9828C162.565 51.9828 162.843 52.2554 162.843 52.5917Z" fill="#969DA6"/>
<path d="M169.548 52.5917C169.548 52.9273 169.272 53.1998 168.929 53.1998C168.588 53.1998 168.31 52.9273 168.31 52.5917C168.31 52.2554 168.588 51.9828 168.929 51.9828C169.272 51.9828 169.548 52.2554 169.548 52.5917Z" fill="#969DA6"/>
<path d="M176.255 52.5917C176.255 52.9273 175.978 53.1998 175.635 53.1998C175.293 53.1998 175.016 52.9273 175.016 52.5917C175.016 52.2554 175.293 51.9828 175.635 51.9828C175.978 51.9828 176.255 52.2554 176.255 52.5917Z" fill="#969DA6"/>
<path d="M182.961 52.5917C182.961 52.9273 182.683 53.1998 182.341 53.1998C181.999 53.1998 181.722 52.9273 181.722 52.5917C181.722 52.2554 181.999 51.9828 182.341 51.9828C182.683 51.9828 182.961 52.2554 182.961 52.5917Z" fill="#969DA6"/>
<path d="M122.608 57.7456C122.608 58.082 122.331 58.3545 121.988 58.3545C121.647 58.3545 121.369 58.082 121.369 57.7456C121.369 57.4101 121.647 57.1376 121.988 57.1376C122.331 57.1376 122.608 57.4101 122.608 57.7456Z" fill="#969DA6"/>
<path d="M129.314 57.7456C129.314 58.082 129.036 58.3545 128.695 58.3545C128.352 58.3545 128.075 58.082 128.075 57.7456C128.075 57.4101 128.352 57.1376 128.695 57.1376C129.036 57.1376 129.314 57.4101 129.314 57.7456Z" fill="#969DA6"/>
<path d="M136.019 57.7456C136.019 58.082 135.743 58.3545 135.4 58.3545C135.058 58.3545 134.78 58.082 134.78 57.7456C134.78 57.4101 135.058 57.1376 135.4 57.1376C135.743 57.1376 136.019 57.4101 136.019 57.7456Z" fill="#969DA6"/>
<path d="M142.726 57.7456C142.726 58.082 142.447 58.3545 142.106 58.3545C141.763 58.3545 141.487 58.082 141.487 57.7456C141.487 57.4101 141.763 57.1376 142.106 57.1376C142.447 57.1376 142.726 57.4101 142.726 57.7456Z" fill="#969DA6"/>
<path d="M149.431 57.7456C149.431 58.082 149.154 58.3545 148.811 58.3545C148.47 58.3545 148.192 58.082 148.192 57.7456C148.192 57.4101 148.47 57.1376 148.811 57.1376C149.154 57.1376 149.431 57.4101 149.431 57.7456Z" fill="#969DA6"/>
<path d="M156.137 57.7456C156.137 58.082 155.859 58.3545 155.518 58.3545C155.175 58.3545 154.898 58.082 154.898 57.7456C154.898 57.4101 155.175 57.1376 155.518 57.1376C155.859 57.1376 156.137 57.4101 156.137 57.7456Z" fill="#969DA6"/>
<path d="M162.843 57.7456C162.843 58.082 162.565 58.3545 162.224 58.3545C161.881 58.3545 161.604 58.082 161.604 57.7456C161.604 57.4101 161.881 57.1376 162.224 57.1376C162.565 57.1376 162.843 57.4101 162.843 57.7456Z" fill="#969DA6"/>
<path d="M169.548 57.7456C169.548 58.082 169.272 58.3545 168.929 58.3545C168.588 58.3545 168.31 58.082 168.31 57.7456C168.31 57.4101 168.588 57.1376 168.929 57.1376C169.272 57.1376 169.548 57.4101 169.548 57.7456Z" fill="#969DA6"/>
<path d="M176.255 57.7456C176.255 58.082 175.978 58.3545 175.635 58.3545C175.293 58.3545 175.016 58.082 175.016 57.7456C175.016 57.4101 175.293 57.1376 175.635 57.1376C175.978 57.1376 176.255 57.4101 176.255 57.7456Z" fill="#969DA6"/>
<path d="M182.961 57.7456C182.961 58.082 182.683 58.3545 182.341 58.3545C181.999 58.3545 181.722 58.082 181.722 57.7456C181.722 57.4101 181.999 57.1376 182.341 57.1376C182.683 57.1376 182.961 57.4101 182.961 57.7456Z" fill="#969DA6"/>
<path d="M122.608 62.9003C122.608 63.2367 122.331 63.5092 121.988 63.5092C121.647 63.5092 121.369 63.2367 121.369 62.9003C121.369 62.564 121.647 62.2923 121.988 62.2923C122.331 62.2923 122.608 62.564 122.608 62.9003Z" fill="#969DA6"/>
<path d="M129.314 62.9003C129.314 63.2367 129.036 63.5092 128.695 63.5092C128.352 63.5092 128.075 63.2367 128.075 62.9003C128.075 62.564 128.352 62.2923 128.695 62.2923C129.036 62.2923 129.314 62.564 129.314 62.9003Z" fill="#969DA6"/>
<path d="M136.019 62.9003C136.019 63.2367 135.743 63.5092 135.4 63.5092C135.058 63.5092 134.78 63.2367 134.78 62.9003C134.78 62.564 135.058 62.2923 135.4 62.2923C135.743 62.2923 136.019 62.564 136.019 62.9003Z" fill="#969DA6"/>
<path d="M142.726 62.9003C142.726 63.2367 142.447 63.5092 142.106 63.5092C141.763 63.5092 141.487 63.2367 141.487 62.9003C141.487 62.564 141.763 62.2923 142.106 62.2923C142.447 62.2923 142.726 62.564 142.726 62.9003Z" fill="#969DA6"/>
<path d="M149.431 62.9003C149.431 63.2367 149.154 63.5092 148.811 63.5092C148.47 63.5092 148.192 63.2367 148.192 62.9003C148.192 62.564 148.47 62.2923 148.811 62.2923C149.154 62.2923 149.431 62.564 149.431 62.9003Z" fill="#969DA6"/>
<path d="M156.137 62.9003C156.137 63.2367 155.859 63.5092 155.518 63.5092C155.175 63.5092 154.898 63.2367 154.898 62.9003C154.898 62.564 155.175 62.2923 155.518 62.2923C155.859 62.2923 156.137 62.564 156.137 62.9003Z" fill="#969DA6"/>
<path d="M162.843 62.9003C162.843 63.2367 162.565 63.5092 162.224 63.5092C161.881 63.5092 161.604 63.2367 161.604 62.9003C161.604 62.564 161.881 62.2923 162.224 62.2923C162.565 62.2923 162.843 62.564 162.843 62.9003Z" fill="#969DA6"/>
<path d="M169.548 62.9003C169.548 63.2367 169.272 63.5092 168.929 63.5092C168.588 63.5092 168.31 63.2367 168.31 62.9003C168.31 62.564 168.588 62.2923 168.929 62.2923C169.272 62.2923 169.548 62.564 169.548 62.9003Z" fill="#969DA6"/>
<path d="M176.255 62.9003C176.255 63.2367 175.978 63.5092 175.635 63.5092C175.293 63.5092 175.016 63.2367 175.016 62.9003C175.016 62.564 175.293 62.2923 175.635 62.2923C175.978 62.2923 176.255 62.564 176.255 62.9003Z" fill="#969DA6"/>
<path d="M182.961 62.9003C182.961 63.2367 182.683 63.5092 182.341 63.5092C181.999 63.5092 181.722 63.2367 181.722 62.9003C181.722 62.564 181.999 62.2923 182.341 62.2923C182.683 62.2923 182.961 62.564 182.961 62.9003Z" fill="#969DA6"/>
<path d="M122.608 68.0551C122.608 68.3906 122.331 68.664 121.988 68.664C121.647 68.664 121.369 68.3906 121.369 68.0551C121.369 67.7187 121.647 67.447 121.988 67.447C122.331 67.447 122.608 67.7187 122.608 68.0551Z" fill="#969DA6"/>
<path d="M129.314 68.0551C129.314 68.3906 129.036 68.664 128.695 68.664C128.352 68.664 128.075 68.3906 128.075 68.0551C128.075 67.7187 128.352 67.447 128.695 67.447C129.036 67.447 129.314 67.7187 129.314 68.0551Z" fill="#969DA6"/>
<path d="M136.019 68.0551C136.019 68.3906 135.743 68.664 135.4 68.664C135.058 68.664 134.78 68.3906 134.78 68.0551C134.78 67.7187 135.058 67.447 135.4 67.447C135.743 67.447 136.019 67.7187 136.019 68.0551Z" fill="#969DA6"/>
<path d="M142.726 68.0551C142.726 68.3906 142.447 68.664 142.106 68.664C141.763 68.664 141.487 68.3906 141.487 68.0551C141.487 67.7187 141.763 67.447 142.106 67.447C142.447 67.447 142.726 67.7187 142.726 68.0551Z" fill="#969DA6"/>
<path d="M149.431 68.0551C149.431 68.3906 149.154 68.664 148.811 68.664C148.47 68.664 148.192 68.3906 148.192 68.0551C148.192 67.7187 148.47 67.447 148.811 67.447C149.154 67.447 149.431 67.7187 149.431 68.0551Z" fill="#969DA6"/>
<path d="M156.137 68.0551C156.137 68.3906 155.859 68.664 155.518 68.664C155.175 68.664 154.898 68.3906 154.898 68.0551C154.898 67.7187 155.175 67.447 155.518 67.447C155.859 67.447 156.137 67.7187 156.137 68.0551Z" fill="#969DA6"/>
<path d="M162.843 68.0551C162.843 68.3906 162.565 68.664 162.224 68.664C161.881 68.664 161.604 68.3906 161.604 68.0551C161.604 67.7187 161.881 67.447 162.224 67.447C162.565 67.447 162.843 67.7187 162.843 68.0551Z" fill="#969DA6"/>
<path d="M169.548 68.0551C169.548 68.3906 169.272 68.664 168.929 68.664C168.588 68.664 168.31 68.3906 168.31 68.0551C168.31 67.7187 168.588 67.447 168.929 67.447C169.272 67.447 169.548 67.7187 169.548 68.0551Z" fill="#969DA6"/>
<path d="M176.255 68.0551C176.255 68.3906 175.978 68.664 175.635 68.664C175.293 68.664 175.016 68.3906 175.016 68.0551C175.016 67.7187 175.293 67.447 175.635 67.447C175.978 67.447 176.255 67.7187 176.255 68.0551Z" fill="#969DA6"/>
<path d="M182.961 68.0551C182.961 68.3906 182.683 68.664 182.341 68.664C181.999 68.664 181.722 68.3906 181.722 68.0551C181.722 67.7187 181.999 67.447 182.341 67.447C182.683 67.447 182.961 67.7187 182.961 68.0551Z" fill="#969DA6"/>
<path d="M122.608 73.2089C122.608 73.5453 122.331 73.8178 121.988 73.8178C121.647 73.8178 121.369 73.5453 121.369 73.2089C121.369 72.8734 121.647 72.6009 121.988 72.6009C122.331 72.6009 122.608 72.8734 122.608 73.2089Z" fill="#969DA6"/>
<path d="M129.314 73.2089C129.314 73.5453 129.036 73.8178 128.695 73.8178C128.352 73.8178 128.075 73.5453 128.075 73.2089C128.075 72.8734 128.352 72.6009 128.695 72.6009C129.036 72.6009 129.314 72.8734 129.314 73.2089Z" fill="#969DA6"/>
<path d="M136.019 73.2089C136.019 73.5453 135.743 73.8178 135.4 73.8178C135.058 73.8178 134.78 73.5453 134.78 73.2089C134.78 72.8734 135.058 72.6009 135.4 72.6009C135.743 72.6009 136.019 72.8734 136.019 73.2089Z" fill="#969DA6"/>
<path d="M142.726 73.2089C142.726 73.5453 142.447 73.8178 142.106 73.8178C141.763 73.8178 141.487 73.5453 141.487 73.2089C141.487 72.8734 141.763 72.6009 142.106 72.6009C142.447 72.6009 142.726 72.8734 142.726 73.2089Z" fill="#969DA6"/>
<path d="M149.431 73.2089C149.431 73.5453 149.154 73.8178 148.811 73.8178C148.47 73.8178 148.192 73.5453 148.192 73.2089C148.192 72.8734 148.47 72.6009 148.811 72.6009C149.154 72.6009 149.431 72.8734 149.431 73.2089Z" fill="#969DA6"/>
<path d="M156.137 73.2089C156.137 73.5453 155.859 73.8178 155.518 73.8178C155.175 73.8178 154.898 73.5453 154.898 73.2089C154.898 72.8734 155.175 72.6009 155.518 72.6009C155.859 72.6009 156.137 72.8734 156.137 73.2089Z" fill="#969DA6"/>
<path d="M162.843 73.2089C162.843 73.5453 162.565 73.8178 162.224 73.8178C161.881 73.8178 161.604 73.5453 161.604 73.2089C161.604 72.8734 161.881 72.6009 162.224 72.6009C162.565 72.6009 162.843 72.8734 162.843 73.2089Z" fill="#969DA6"/>
<path d="M169.548 73.2089C169.548 73.5453 169.272 73.8178 168.929 73.8178C168.588 73.8178 168.31 73.5453 168.31 73.2089C168.31 72.8734 168.588 72.6009 168.929 72.6009C169.272 72.6009 169.548 72.8734 169.548 73.2089Z" fill="#969DA6"/>
<path d="M176.255 73.2089C176.255 73.5453 175.978 73.8178 175.635 73.8178C175.293 73.8178 175.016 73.5453 175.016 73.2089C175.016 72.8734 175.293 72.6009 175.635 72.6009C175.978 72.6009 176.255 72.8734 176.255 73.2089Z" fill="#969DA6"/>
<path d="M182.961 73.2089C182.961 73.5453 182.683 73.8178 182.341 73.8178C181.999 73.8178 181.722 73.5453 181.722 73.2089C181.722 72.8734 181.999 72.6009 182.341 72.6009C182.683 72.6009 182.961 72.8734 182.961 73.2089Z" fill="#969DA6"/>
<path d="M122.608 78.3637C122.608 78.7 122.331 78.9725 121.988 78.9725C121.647 78.9725 121.369 78.7 121.369 78.3637C121.369 78.0273 121.647 77.7556 121.988 77.7556C122.331 77.7556 122.608 78.0273 122.608 78.3637Z" fill="#969DA6"/>
<path d="M129.314 78.3637C129.314 78.7 129.036 78.9725 128.695 78.9725C128.352 78.9725 128.075 78.7 128.075 78.3637C128.075 78.0273 128.352 77.7556 128.695 77.7556C129.036 77.7556 129.314 78.0273 129.314 78.3637Z" fill="#969DA6"/>
<path d="M136.019 78.3637C136.019 78.7 135.743 78.9725 135.4 78.9725C135.058 78.9725 134.78 78.7 134.78 78.3637C134.78 78.0273 135.058 77.7556 135.4 77.7556C135.743 77.7556 136.019 78.0273 136.019 78.3637Z" fill="#969DA6"/>
<path d="M142.726 78.3637C142.726 78.7 142.447 78.9725 142.106 78.9725C141.763 78.9725 141.487 78.7 141.487 78.3637C141.487 78.0273 141.763 77.7556 142.106 77.7556C142.447 77.7556 142.726 78.0273 142.726 78.3637Z" fill="#969DA6"/>
<path d="M149.431 78.3637C149.431 78.7 149.154 78.9725 148.811 78.9725C148.47 78.9725 148.192 78.7 148.192 78.3637C148.192 78.0273 148.47 77.7556 148.811 77.7556C149.154 77.7556 149.431 78.0273 149.431 78.3637Z" fill="#969DA6"/>
<path d="M156.137 78.3637C156.137 78.7 155.859 78.9725 155.518 78.9725C155.175 78.9725 154.898 78.7 154.898 78.3637C154.898 78.0273 155.175 77.7556 155.518 77.7556C155.859 77.7556 156.137 78.0273 156.137 78.3637Z" fill="#969DA6"/>
<path d="M162.843 78.3637C162.843 78.7 162.565 78.9725 162.224 78.9725C161.881 78.9725 161.604 78.7 161.604 78.3637C161.604 78.0273 161.881 77.7556 162.224 77.7556C162.565 77.7556 162.843 78.0273 162.843 78.3637Z" fill="#969DA6"/>
<path d="M169.548 78.3637C169.548 78.7 169.272 78.9725 168.929 78.9725C168.588 78.9725 168.31 78.7 168.31 78.3637C168.31 78.0273 168.588 77.7556 168.929 77.7556C169.272 77.7556 169.548 78.0273 169.548 78.3637Z" fill="#969DA6"/>
<path d="M176.255 78.3637C176.255 78.7 175.978 78.9725 175.635 78.9725C175.293 78.9725 175.016 78.7 175.016 78.3637C175.016 78.0273 175.293 77.7556 175.635 77.7556C175.978 77.7556 176.255 78.0273 176.255 78.3637Z" fill="#969DA6"/>
<path d="M182.961 78.3637C182.961 78.7 182.683 78.9725 182.341 78.9725C181.999 78.9725 181.722 78.7 181.722 78.3637C181.722 78.0273 181.999 77.7556 182.341 77.7556C182.683 77.7556 182.961 78.0273 182.961 78.3637Z" fill="#969DA6"/>
</g>
<g opacity="0.7">
<path d="M18.1003 56.0801C18.1003 56.4479 17.8073 56.7465 17.4464 56.7465C17.0855 56.7465 16.7925 56.4479 16.7925 56.0801C16.7925 55.7123 17.0855 55.4146 17.4464 55.4146C17.8073 55.4146 18.1003 55.7123 18.1003 56.0801Z" fill="#969DA6"/>
<path d="M25.1755 56.0801C25.1755 56.4479 24.8833 56.7465 24.5216 56.7465C24.1607 56.7465 23.8677 56.4479 23.8677 56.0801C23.8677 55.7123 24.1607 55.4146 24.5216 55.4146C24.8833 55.4146 25.1755 55.7123 25.1755 56.0801Z" fill="#969DA6"/>
<path d="M32.2508 56.0801C32.2508 56.4479 31.9586 56.7465 31.5969 56.7465C31.2369 56.7465 30.9438 56.4479 30.9438 56.0801C30.9438 55.7123 31.2369 55.4146 31.5969 55.4146C31.9586 55.4146 32.2508 55.7123 32.2508 56.0801Z" fill="#969DA6"/>
<path d="M39.326 56.0801C39.326 56.4479 39.0338 56.7465 38.6729 56.7465C38.3121 56.7465 38.019 56.4479 38.019 56.0801C38.019 55.7123 38.3121 55.4146 38.6729 55.4146C39.0338 55.4146 39.326 55.7123 39.326 56.0801Z" fill="#969DA6"/>
<path d="M46.4017 56.0801C46.4017 56.4479 46.1087 56.7465 45.7478 56.7465C45.3869 56.7465 45.0947 56.4479 45.0947 56.0801C45.0947 55.7123 45.3869 55.4146 45.7478 55.4146C46.1087 55.4146 46.4017 55.7123 46.4017 56.0801Z" fill="#969DA6"/>
<path d="M53.4769 56.0801C53.4769 56.4479 53.1847 56.7465 52.823 56.7465C52.4629 56.7465 52.1699 56.4479 52.1699 56.0801C52.1699 55.7123 52.4629 55.4146 52.823 55.4146C53.1847 55.4146 53.4769 55.7123 53.4769 56.0801Z" fill="#969DA6"/>
<path d="M60.5521 56.0801C60.5521 56.4479 60.2599 56.7465 59.899 56.7465C59.5381 56.7465 59.2451 56.4479 59.2451 56.0801C59.2451 55.7123 59.5381 55.4146 59.899 55.4146C60.2599 55.4146 60.5521 55.7123 60.5521 56.0801Z" fill="#969DA6"/>
<path d="M67.6282 56.0801C67.6282 56.4479 67.3352 56.7465 66.9743 56.7465C66.6134 56.7465 66.3213 56.4479 66.3213 56.0801C66.3213 55.7123 66.6134 55.4146 66.9743 55.4146C67.3352 55.4146 67.6282 55.7123 67.6282 56.0801Z" fill="#969DA6"/>
<path d="M74.7034 56.0801C74.7034 56.4479 74.4113 56.7465 74.0495 56.7465C73.6895 56.7465 73.3965 56.4479 73.3965 56.0801C73.3965 55.7123 73.6895 55.4146 74.0495 55.4146C74.4113 55.4146 74.7034 55.7123 74.7034 56.0801Z" fill="#969DA6"/>
<path d="M81.7786 56.0801C81.7786 56.4479 81.4865 56.7465 81.1256 56.7465C80.7647 56.7465 80.4717 56.4479 80.4717 56.0801C80.4717 55.7123 80.7647 55.4146 81.1256 55.4146C81.4865 55.4146 81.7786 55.7123 81.7786 56.0801Z" fill="#969DA6"/>
<path d="M18.1003 61.7232C18.1003 62.0902 17.8073 62.3888 17.4464 62.3888C17.0855 62.3888 16.7925 62.0902 16.7925 61.7232C16.7925 61.3554 17.0855 61.0568 17.4464 61.0568C17.8073 61.0568 18.1003 61.3554 18.1003 61.7232Z" fill="#969DA6"/>
<path d="M25.1755 61.7232C25.1755 62.0902 24.8833 62.3888 24.5216 62.3888C24.1607 62.3888 23.8677 62.0902 23.8677 61.7232C23.8677 61.3554 24.1607 61.0568 24.5216 61.0568C24.8833 61.0568 25.1755 61.3554 25.1755 61.7232Z" fill="#969DA6"/>
<path d="M32.2508 61.7232C32.2508 62.0902 31.9586 62.3888 31.5969 62.3888C31.2369 62.3888 30.9438 62.0902 30.9438 61.7232C30.9438 61.3554 31.2369 61.0568 31.5969 61.0568C31.9586 61.0568 32.2508 61.3554 32.2508 61.7232Z" fill="#969DA6"/>
<path d="M39.326 61.7232C39.326 62.0902 39.0338 62.3888 38.6729 62.3888C38.3121 62.3888 38.019 62.0902 38.019 61.7232C38.019 61.3554 38.3121 61.0568 38.6729 61.0568C39.0338 61.0568 39.326 61.3554 39.326 61.7232Z" fill="#969DA6"/>
<path d="M46.4017 61.7232C46.4017 62.0902 46.1087 62.3888 45.7478 62.3888C45.3869 62.3888 45.0947 62.0902 45.0947 61.7232C45.0947 61.3554 45.3869 61.0568 45.7478 61.0568C46.1087 61.0568 46.4017 61.3554 46.4017 61.7232Z" fill="#969DA6"/>
<path d="M53.4769 61.7232C53.4769 62.0902 53.1847 62.3888 52.823 62.3888C52.4629 62.3888 52.1699 62.0902 52.1699 61.7232C52.1699 61.3554 52.4629 61.0568 52.823 61.0568C53.1847 61.0568 53.4769 61.3554 53.4769 61.7232Z" fill="#969DA6"/>
<path d="M60.5521 61.7232C60.5521 62.0902 60.2599 62.3888 59.899 62.3888C59.5381 62.3888 59.2451 62.0902 59.2451 61.7232C59.2451 61.3554 59.5381 61.0568 59.899 61.0568C60.2599 61.0568 60.5521 61.3554 60.5521 61.7232Z" fill="#969DA6"/>
<path d="M67.6282 61.7232C67.6282 62.0902 67.3352 62.3888 66.9743 62.3888C66.6134 62.3888 66.3213 62.0902 66.3213 61.7232C66.3213 61.3554 66.6134 61.0568 66.9743 61.0568C67.3352 61.0568 67.6282 61.3554 67.6282 61.7232Z" fill="#969DA6"/>
<path d="M74.7034 61.7232C74.7034 62.0902 74.4113 62.3888 74.0495 62.3888C73.6895 62.3888 73.3965 62.0902 73.3965 61.7232C73.3965 61.3554 73.6895 61.0568 74.0495 61.0568C74.4113 61.0568 74.7034 61.3554 74.7034 61.7232Z" fill="#969DA6"/>
<path d="M81.7786 61.7232C81.7786 62.0902 81.4865 62.3888 81.1256 62.3888C80.7647 62.3888 80.4717 62.0902 80.4717 61.7232C80.4717 61.3554 80.7647 61.0568 81.1256 61.0568C81.4865 61.0568 81.7786 61.3554 81.7786 61.7232Z" fill="#969DA6"/>
<path d="M18.1003 67.3655C18.1003 67.7333 17.8073 68.0311 17.4464 68.0311C17.0855 68.0311 16.7925 67.7333 16.7925 67.3655C16.7925 66.9977 17.0855 66.6991 17.4464 66.6991C17.8073 66.6991 18.1003 66.9977 18.1003 67.3655Z" fill="#969DA6"/>
<path d="M25.1755 67.3655C25.1755 67.7333 24.8833 68.0311 24.5216 68.0311C24.1607 68.0311 23.8677 67.7333 23.8677 67.3655C23.8677 66.9977 24.1607 66.6991 24.5216 66.6991C24.8833 66.6991 25.1755 66.9977 25.1755 67.3655Z" fill="#969DA6"/>
<path d="M32.2508 67.3655C32.2508 67.7333 31.9586 68.0311 31.5969 68.0311C31.2369 68.0311 30.9438 67.7333 30.9438 67.3655C30.9438 66.9977 31.2369 66.6991 31.5969 66.6991C31.9586 66.6991 32.2508 66.9977 32.2508 67.3655Z" fill="#969DA6"/>
<path d="M39.326 67.3655C39.326 67.7333 39.0338 68.0311 38.6729 68.0311C38.3121 68.0311 38.019 67.7333 38.019 67.3655C38.019 66.9977 38.3121 66.6991 38.6729 66.6991C39.0338 66.6991 39.326 66.9977 39.326 67.3655Z" fill="#969DA6"/>
<path d="M46.4017 67.3655C46.4017 67.7333 46.1087 68.0311 45.7478 68.0311C45.3869 68.0311 45.0947 67.7333 45.0947 67.3655C45.0947 66.9977 45.3869 66.6991 45.7478 66.6991C46.1087 66.6991 46.4017 66.9977 46.4017 67.3655Z" fill="#969DA6"/>
<path d="M53.4769 67.3655C53.4769 67.7333 53.1847 68.0311 52.823 68.0311C52.4629 68.0311 52.1699 67.7333 52.1699 67.3655C52.1699 66.9977 52.4629 66.6991 52.823 66.6991C53.1847 66.6991 53.4769 66.9977 53.4769 67.3655Z" fill="#969DA6"/>
<path d="M60.5521 67.3655C60.5521 67.7333 60.2599 68.0311 59.899 68.0311C59.5381 68.0311 59.2451 67.7333 59.2451 67.3655C59.2451 66.9977 59.5381 66.6991 59.899 66.6991C60.2599 66.6991 60.5521 66.9977 60.5521 67.3655Z" fill="#969DA6"/>
<path d="M67.6282 67.3655C67.6282 67.7333 67.3352 68.0311 66.9743 68.0311C66.6134 68.0311 66.3213 67.7333 66.3213 67.3655C66.3213 66.9977 66.6134 66.6991 66.9743 66.6991C67.3352 66.6991 67.6282 66.9977 67.6282 67.3655Z" fill="#969DA6"/>
<path d="M74.7034 67.3655C74.7034 67.7333 74.4113 68.0311 74.0495 68.0311C73.6895 68.0311 73.3965 67.7333 73.3965 67.3655C73.3965 66.9977 73.6895 66.6991 74.0495 66.6991C74.4113 66.6991 74.7034 66.9977 74.7034 67.3655Z" fill="#969DA6"/>
<path d="M81.7786 67.3655C81.7786 67.7333 81.4865 68.0311 81.1256 68.0311C80.7647 68.0311 80.4717 67.7333 80.4717 67.3655C80.4717 66.9977 80.7647 66.6991 81.1256 66.6991C81.4865 66.6991 81.7786 66.9977 81.7786 67.3655Z" fill="#969DA6"/>
<path d="M18.1003 73.0077C18.1003 73.3755 17.8073 73.6742 17.4464 73.6742C17.0855 73.6742 16.7925 73.3755 16.7925 73.0077C16.7925 72.6399 17.0855 72.3413 17.4464 72.3413C17.8073 72.3413 18.1003 72.6399 18.1003 73.0077Z" fill="#969DA6"/>
<path d="M25.1755 73.0077C25.1755 73.3755 24.8833 73.6742 24.5216 73.6742C24.1607 73.6742 23.8677 73.3755 23.8677 73.0077C23.8677 72.6399 24.1607 72.3413 24.5216 72.3413C24.8833 72.3413 25.1755 72.6399 25.1755 73.0077Z" fill="#969DA6"/>
<path d="M32.2508 73.0077C32.2508 73.3755 31.9586 73.6742 31.5969 73.6742C31.2369 73.6742 30.9438 73.3755 30.9438 73.0077C30.9438 72.6399 31.2369 72.3413 31.5969 72.3413C31.9586 72.3413 32.2508 72.6399 32.2508 73.0077Z" fill="#969DA6"/>
<path d="M39.326 73.0077C39.326 73.3755 39.0338 73.6742 38.6729 73.6742C38.3121 73.6742 38.019 73.3755 38.019 73.0077C38.019 72.6399 38.3121 72.3413 38.6729 72.3413C39.0338 72.3413 39.326 72.6399 39.326 73.0077Z" fill="#969DA6"/>
<path d="M46.4017 73.0077C46.4017 73.3755 46.1087 73.6742 45.7478 73.6742C45.3869 73.6742 45.0947 73.3755 45.0947 73.0077C45.0947 72.6399 45.3869 72.3413 45.7478 72.3413C46.1087 72.3413 46.4017 72.6399 46.4017 73.0077Z" fill="#969DA6"/>
<path d="M53.4769 73.0077C53.4769 73.3755 53.1847 73.6742 52.823 73.6742C52.4629 73.6742 52.1699 73.3755 52.1699 73.0077C52.1699 72.6399 52.4629 72.3413 52.823 72.3413C53.1847 72.3413 53.4769 72.6399 53.4769 73.0077Z" fill="#969DA6"/>
<path d="M60.5521 73.0077C60.5521 73.3755 60.2599 73.6742 59.899 73.6742C59.5381 73.6742 59.2451 73.3755 59.2451 73.0077C59.2451 72.6399 59.5381 72.3413 59.899 72.3413C60.2599 72.3413 60.5521 72.6399 60.5521 73.0077Z" fill="#969DA6"/>
<path d="M67.6282 73.0077C67.6282 73.3755 67.3352 73.6742 66.9743 73.6742C66.6134 73.6742 66.3213 73.3755 66.3213 73.0077C66.3213 72.6399 66.6134 72.3413 66.9743 72.3413C67.3352 72.3413 67.6282 72.6399 67.6282 73.0077Z" fill="#969DA6"/>
<path d="M74.7034 73.0077C74.7034 73.3755 74.4113 73.6742 74.0495 73.6742C73.6895 73.6742 73.3965 73.3755 73.3965 73.0077C73.3965 72.6399 73.6895 72.3413 74.0495 72.3413C74.4113 72.3413 74.7034 72.6399 74.7034 73.0077Z" fill="#969DA6"/>
<path d="M81.7786 73.0077C81.7786 73.3755 81.4865 73.6742 81.1256 73.6742C80.7647 73.6742 80.4717 73.3755 80.4717 73.0077C80.4717 72.6399 80.7647 72.3413 81.1256 72.3413C81.4865 72.3413 81.7786 72.6399 81.7786 73.0077Z" fill="#969DA6"/>
<path d="M18.1003 78.6509C18.1003 79.0178 17.8073 79.3164 17.4464 79.3164C17.0855 79.3164 16.7925 79.0178 16.7925 78.6509C16.7925 78.2822 17.0855 77.9836 17.4464 77.9836C17.8073 77.9836 18.1003 78.2822 18.1003 78.6509Z" fill="#969DA6"/>
<path d="M25.1755 78.6509C25.1755 79.0178 24.8833 79.3164 24.5216 79.3164C24.1607 79.3164 23.8677 79.0178 23.8677 78.6509C23.8677 78.2822 24.1607 77.9836 24.5216 77.9836C24.8833 77.9836 25.1755 78.2822 25.1755 78.6509Z" fill="#969DA6"/>
<path d="M32.2508 78.6509C32.2508 79.0178 31.9586 79.3164 31.5969 79.3164C31.2369 79.3164 30.9438 79.0178 30.9438 78.6509C30.9438 78.2822 31.2369 77.9836 31.5969 77.9836C31.9586 77.9836 32.2508 78.2822 32.2508 78.6509Z" fill="#969DA6"/>
<path d="M39.326 78.6509C39.326 79.0178 39.0338 79.3164 38.6729 79.3164C38.3121 79.3164 38.019 79.0178 38.019 78.6509C38.019 78.2822 38.3121 77.9836 38.6729 77.9836C39.0338 77.9836 39.326 78.2822 39.326 78.6509Z" fill="#969DA6"/>
<path d="M46.4017 78.6509C46.4017 79.0178 46.1087 79.3164 45.7478 79.3164C45.3869 79.3164 45.0947 79.0178 45.0947 78.6509C45.0947 78.2822 45.3869 77.9836 45.7478 77.9836C46.1087 77.9836 46.4017 78.2822 46.4017 78.6509Z" fill="#969DA6"/>
<path d="M53.4769 78.6509C53.4769 79.0178 53.1847 79.3164 52.823 79.3164C52.4629 79.3164 52.1699 79.0178 52.1699 78.6509C52.1699 78.2822 52.4629 77.9836 52.823 77.9836C53.1847 77.9836 53.4769 78.2822 53.4769 78.6509Z" fill="#969DA6"/>
<path d="M60.5521 78.6509C60.5521 79.0178 60.2599 79.3164 59.899 79.3164C59.5381 79.3164 59.2451 79.0178 59.2451 78.6509C59.2451 78.2822 59.5381 77.9836 59.899 77.9836C60.2599 77.9836 60.5521 78.2822 60.5521 78.6509Z" fill="#969DA6"/>
<path d="M67.6282 78.6509C67.6282 79.0178 67.3352 79.3164 66.9743 79.3164C66.6134 79.3164 66.3213 79.0178 66.3213 78.6509C66.3213 78.2822 66.6134 77.9836 66.9743 77.9836C67.3352 77.9836 67.6282 78.2822 67.6282 78.6509Z" fill="#969DA6"/>
<path d="M74.7034 78.6509C74.7034 79.0178 74.4113 79.3164 74.0495 79.3164C73.6895 79.3164 73.3965 79.0178 73.3965 78.6509C73.3965 78.2822 73.6895 77.9836 74.0495 77.9836C74.4113 77.9836 74.7034 78.2822 74.7034 78.6509Z" fill="#969DA6"/>
<path d="M81.7786 78.6509C81.7786 79.0178 81.4865 79.3164 81.1256 79.3164C80.7647 79.3164 80.4717 79.0178 80.4717 78.6509C80.4717 78.2822 80.7647 77.9836 81.1256 77.9836C81.4865 77.9836 81.7786 78.2822 81.7786 78.6509Z" fill="#969DA6"/>
<path d="M18.1003 84.2931C18.1003 84.6609 17.8073 84.9596 17.4464 84.9596C17.0855 84.9596 16.7925 84.6609 16.7925 84.2931C16.7925 83.9245 17.0855 83.6267 17.4464 83.6267C17.8073 83.6267 18.1003 83.9245 18.1003 84.2931Z" fill="#969DA6"/>
<path d="M25.1755 84.2931C25.1755 84.6609 24.8833 84.9596 24.5216 84.9596C24.1607 84.9596 23.8677 84.6609 23.8677 84.2931C23.8677 83.9245 24.1607 83.6267 24.5216 83.6267C24.8833 83.6267 25.1755 83.9245 25.1755 84.2931Z" fill="#969DA6"/>
<path d="M32.2508 84.2931C32.2508 84.6609 31.9586 84.9596 31.5969 84.9596C31.2369 84.9596 30.9438 84.6609 30.9438 84.2931C30.9438 83.9245 31.2369 83.6267 31.5969 83.6267C31.9586 83.6267 32.2508 83.9245 32.2508 84.2931Z" fill="#969DA6"/>
<path d="M39.326 84.2931C39.326 84.6609 39.0338 84.9596 38.6729 84.9596C38.3121 84.9596 38.019 84.6609 38.019 84.2931C38.019 83.9245 38.3121 83.6267 38.6729 83.6267C39.0338 83.6267 39.326 83.9245 39.326 84.2931Z" fill="#969DA6"/>
<path d="M46.4017 84.2931C46.4017 84.6609 46.1087 84.9596 45.7478 84.9596C45.3869 84.9596 45.0947 84.6609 45.0947 84.2931C45.0947 83.9245 45.3869 83.6267 45.7478 83.6267C46.1087 83.6267 46.4017 83.9245 46.4017 84.2931Z" fill="#969DA6"/>
<path d="M53.4769 84.2931C53.4769 84.6609 53.1847 84.9596 52.823 84.9596C52.4629 84.9596 52.1699 84.6609 52.1699 84.2931C52.1699 83.9245 52.4629 83.6267 52.823 83.6267C53.1847 83.6267 53.4769 83.9245 53.4769 84.2931Z" fill="#969DA6"/>
<path d="M60.5521 84.2931C60.5521 84.6609 60.2599 84.9596 59.899 84.9596C59.5381 84.9596 59.2451 84.6609 59.2451 84.2931C59.2451 83.9245 59.5381 83.6267 59.899 83.6267C60.2599 83.6267 60.5521 83.9245 60.5521 84.2931Z" fill="#969DA6"/>
<path d="M67.6282 84.2931C67.6282 84.6609 67.3352 84.9596 66.9743 84.9596C66.6134 84.9596 66.3213 84.6609 66.3213 84.2931C66.3213 83.9245 66.6134 83.6267 66.9743 83.6267C67.3352 83.6267 67.6282 83.9245 67.6282 84.2931Z" fill="#969DA6"/>
<path d="M74.7034 84.2931C74.7034 84.6609 74.4113 84.9596 74.0495 84.9596C73.6895 84.9596 73.3965 84.6609 73.3965 84.2931C73.3965 83.9245 73.6895 83.6267 74.0495 83.6267C74.4113 83.6267 74.7034 83.9245 74.7034 84.2931Z" fill="#969DA6"/>
<path d="M81.7786 84.2931C81.7786 84.6609 81.4865 84.9596 81.1256 84.9596C80.7647 84.9596 80.4717 84.6609 80.4717 84.2931C80.4717 83.9245 80.7647 83.6267 81.1256 83.6267C81.4865 83.6267 81.7786 83.9245 81.7786 84.2931Z" fill="#969DA6"/>
<path d="M18.1003 89.9354C18.1003 90.3032 17.8073 90.6018 17.4464 90.6018C17.0855 90.6018 16.7925 90.3032 16.7925 89.9354C16.7925 89.5676 17.0855 89.269 17.4464 89.269C17.8073 89.269 18.1003 89.5676 18.1003 89.9354Z" fill="#969DA6"/>
<path d="M25.1755 89.9354C25.1755 90.3032 24.8833 90.6018 24.5216 90.6018C24.1607 90.6018 23.8677 90.3032 23.8677 89.9354C23.8677 89.5676 24.1607 89.269 24.5216 89.269C24.8833 89.269 25.1755 89.5676 25.1755 89.9354Z" fill="#969DA6"/>
<path d="M32.2508 89.9354C32.2508 90.3032 31.9586 90.6018 31.5969 90.6018C31.2369 90.6018 30.9438 90.3032 30.9438 89.9354C30.9438 89.5676 31.2369 89.269 31.5969 89.269C31.9586 89.269 32.2508 89.5676 32.2508 89.9354Z" fill="#969DA6"/>
<path d="M39.326 89.9354C39.326 90.3032 39.0338 90.6018 38.6729 90.6018C38.3121 90.6018 38.019 90.3032 38.019 89.9354C38.019 89.5676 38.3121 89.269 38.6729 89.269C39.0338 89.269 39.326 89.5676 39.326 89.9354Z" fill="#969DA6"/>
<path d="M46.4017 89.9354C46.4017 90.3032 46.1087 90.6018 45.7478 90.6018C45.3869 90.6018 45.0947 90.3032 45.0947 89.9354C45.0947 89.5676 45.3869 89.269 45.7478 89.269C46.1087 89.269 46.4017 89.5676 46.4017 89.9354Z" fill="#969DA6"/>
<path d="M53.4769 89.9354C53.4769 90.3032 53.1847 90.6018 52.823 90.6018C52.4629 90.6018 52.1699 90.3032 52.1699 89.9354C52.1699 89.5676 52.4629 89.269 52.823 89.269C53.1847 89.269 53.4769 89.5676 53.4769 89.9354Z" fill="#969DA6"/>
<path d="M60.5521 89.9354C60.5521 90.3032 60.2599 90.6018 59.899 90.6018C59.5381 90.6018 59.2451 90.3032 59.2451 89.9354C59.2451 89.5676 59.5381 89.269 59.899 89.269C60.2599 89.269 60.5521 89.5676 60.5521 89.9354Z" fill="#969DA6"/>
<path d="M67.6282 89.9354C67.6282 90.3032 67.3352 90.6018 66.9743 90.6018C66.6134 90.6018 66.3213 90.3032 66.3213 89.9354C66.3213 89.5676 66.6134 89.269 66.9743 89.269C67.3352 89.269 67.6282 89.5676 67.6282 89.9354Z" fill="#969DA6"/>
<path d="M74.7034 89.9354C74.7034 90.3032 74.4113 90.6018 74.0495 90.6018C73.6895 90.6018 73.3965 90.3032 73.3965 89.9354C73.3965 89.5676 73.6895 89.269 74.0495 89.269C74.4113 89.269 74.7034 89.5676 74.7034 89.9354Z" fill="#969DA6"/>
<path d="M81.7786 89.9354C81.7786 90.3032 81.4865 90.6018 81.1256 90.6018C80.7647 90.6018 80.4717 90.3032 80.4717 89.9354C80.4717 89.5676 80.7647 89.269 81.1256 89.269C81.4865 89.269 81.7786 89.5676 81.7786 89.9354Z" fill="#969DA6"/>
<path d="M18.1003 95.5777C18.1003 95.9455 17.8073 96.2441 17.4464 96.2441C17.0855 96.2441 16.7925 95.9455 16.7925 95.5777C16.7925 95.2099 17.0855 94.9113 17.4464 94.9113C17.8073 94.9113 18.1003 95.2099 18.1003 95.5777Z" fill="#969DA6"/>
<path d="M25.1755 95.5777C25.1755 95.9455 24.8833 96.2441 24.5216 96.2441C24.1607 96.2441 23.8677 95.9455 23.8677 95.5777C23.8677 95.2099 24.1607 94.9113 24.5216 94.9113C24.8833 94.9113 25.1755 95.2099 25.1755 95.5777Z" fill="#969DA6"/>
<path d="M32.2508 95.5777C32.2508 95.9455 31.9586 96.2441 31.5969 96.2441C31.2369 96.2441 30.9438 95.9455 30.9438 95.5777C30.9438 95.2099 31.2369 94.9113 31.5969 94.9113C31.9586 94.9113 32.2508 95.2099 32.2508 95.5777Z" fill="#969DA6"/>
<path d="M39.326 95.5777C39.326 95.9455 39.0338 96.2441 38.6729 96.2441C38.3121 96.2441 38.019 95.9455 38.019 95.5777C38.019 95.2099 38.3121 94.9113 38.6729 94.9113C39.0338 94.9113 39.326 95.2099 39.326 95.5777Z" fill="#969DA6"/>
<path d="M46.4017 95.5777C46.4017 95.9455 46.1087 96.2441 45.7478 96.2441C45.3869 96.2441 45.0947 95.9455 45.0947 95.5777C45.0947 95.2099 45.3869 94.9113 45.7478 94.9113C46.1087 94.9113 46.4017 95.2099 46.4017 95.5777Z" fill="#969DA6"/>
<path d="M53.4769 95.5777C53.4769 95.9455 53.1847 96.2441 52.823 96.2441C52.4629 96.2441 52.1699 95.9455 52.1699 95.5777C52.1699 95.2099 52.4629 94.9113 52.823 94.9113C53.1847 94.9113 53.4769 95.2099 53.4769 95.5777Z" fill="#969DA6"/>
<path d="M60.5521 95.5777C60.5521 95.9455 60.2599 96.2441 59.899 96.2441C59.5381 96.2441 59.2451 95.9455 59.2451 95.5777C59.2451 95.2099 59.5381 94.9113 59.899 94.9113C60.2599 94.9113 60.5521 95.2099 60.5521 95.5777Z" fill="#969DA6"/>
<path d="M67.6282 95.5777C67.6282 95.9455 67.3352 96.2441 66.9743 96.2441C66.6134 96.2441 66.3213 95.9455 66.3213 95.5777C66.3213 95.2099 66.6134 94.9113 66.9743 94.9113C67.3352 94.9113 67.6282 95.2099 67.6282 95.5777Z" fill="#969DA6"/>
<path d="M74.7034 95.5777C74.7034 95.9455 74.4113 96.2441 74.0495 96.2441C73.6895 96.2441 73.3965 95.9455 73.3965 95.5777C73.3965 95.2099 73.6895 94.9113 74.0495 94.9113C74.4113 94.9113 74.7034 95.2099 74.7034 95.5777Z" fill="#969DA6"/>
<path d="M81.7786 95.5777C81.7786 95.9455 81.4865 96.2441 81.1256 96.2441C80.7647 96.2441 80.4717 95.9455 80.4717 95.5777C80.4717 95.2099 80.7647 94.9113 81.1256 94.9113C81.4865 94.9113 81.7786 95.2099 81.7786 95.5777Z" fill="#969DA6"/>
<path d="M18.1003 101.22C18.1003 101.589 17.8073 101.886 17.4464 101.886C17.0855 101.886 16.7925 101.589 16.7925 101.22C16.7925 100.852 17.0855 100.554 17.4464 100.554C17.8073 100.554 18.1003 100.852 18.1003 101.22Z" fill="#969DA6"/>
<path d="M25.1755 101.22C25.1755 101.589 24.8833 101.886 24.5216 101.886C24.1607 101.886 23.8677 101.589 23.8677 101.22C23.8677 100.852 24.1607 100.554 24.5216 100.554C24.8833 100.554 25.1755 100.852 25.1755 101.22Z" fill="#969DA6"/>
<path d="M32.2508 101.22C32.2508 101.589 31.9586 101.886 31.5969 101.886C31.2369 101.886 30.9438 101.589 30.9438 101.22C30.9438 100.852 31.2369 100.554 31.5969 100.554C31.9586 100.554 32.2508 100.852 32.2508 101.22Z" fill="#969DA6"/>
<path d="M39.326 101.22C39.326 101.589 39.0338 101.886 38.6729 101.886C38.3121 101.886 38.019 101.589 38.019 101.22C38.019 100.852 38.3121 100.554 38.6729 100.554C39.0338 100.554 39.326 100.852 39.326 101.22Z" fill="#969DA6"/>
<path d="M46.4017 101.22C46.4017 101.589 46.1087 101.886 45.7478 101.886C45.3869 101.886 45.0947 101.589 45.0947 101.22C45.0947 100.852 45.3869 100.554 45.7478 100.554C46.1087 100.554 46.4017 100.852 46.4017 101.22Z" fill="#969DA6"/>
<path d="M53.4769 101.22C53.4769 101.589 53.1847 101.886 52.823 101.886C52.4629 101.886 52.1699 101.589 52.1699 101.22C52.1699 100.852 52.4629 100.554 52.823 100.554C53.1847 100.554 53.4769 100.852 53.4769 101.22Z" fill="#969DA6"/>
<path d="M60.5521 101.22C60.5521 101.589 60.2599 101.886 59.899 101.886C59.5381 101.886 59.2451 101.589 59.2451 101.22C59.2451 100.852 59.5381 100.554 59.899 100.554C60.2599 100.554 60.5521 100.852 60.5521 101.22Z" fill="#969DA6"/>
<path d="M67.6282 101.22C67.6282 101.589 67.3352 101.886 66.9743 101.886C66.6134 101.886 66.3213 101.589 66.3213 101.22C66.3213 100.852 66.6134 100.554 66.9743 100.554C67.3352 100.554 67.6282 100.852 67.6282 101.22Z" fill="#969DA6"/>
<path d="M74.7034 101.22C74.7034 101.589 74.4113 101.886 74.0495 101.886C73.6895 101.886 73.3965 101.589 73.3965 101.22C73.3965 100.852 73.6895 100.554 74.0495 100.554C74.4113 100.554 74.7034 100.852 74.7034 101.22Z" fill="#969DA6"/>
<path d="M81.7786 101.22C81.7786 101.589 81.4865 101.886 81.1256 101.886C80.7647 101.886 80.4717 101.589 80.4717 101.22C80.4717 100.852 80.7647 100.554 81.1256 100.554C81.4865 100.554 81.7786 100.852 81.7786 101.22Z" fill="#969DA6"/>
<path d="M18.1003 106.862C18.1003 107.231 17.8073 107.529 17.4464 107.529C17.0855 107.529 16.7925 107.231 16.7925 106.862C16.7925 106.495 17.0855 106.197 17.4464 106.197C17.8073 106.197 18.1003 106.495 18.1003 106.862Z" fill="#969DA6"/>
<path d="M25.1755 106.862C25.1755 107.231 24.8833 107.529 24.5216 107.529C24.1607 107.529 23.8677 107.231 23.8677 106.862C23.8677 106.495 24.1607 106.197 24.5216 106.197C24.8833 106.197 25.1755 106.495 25.1755 106.862Z" fill="#969DA6"/>
<path d="M32.2508 106.862C32.2508 107.231 31.9586 107.529 31.5969 107.529C31.2369 107.529 30.9438 107.231 30.9438 106.862C30.9438 106.495 31.2369 106.197 31.5969 106.197C31.9586 106.197 32.2508 106.495 32.2508 106.862Z" fill="#969DA6"/>
<path d="M39.326 106.862C39.326 107.231 39.0338 107.529 38.6729 107.529C38.3121 107.529 38.019 107.231 38.019 106.862C38.019 106.495 38.3121 106.197 38.6729 106.197C39.0338 106.197 39.326 106.495 39.326 106.862Z" fill="#969DA6"/>
<path d="M46.4017 106.862C46.4017 107.231 46.1087 107.529 45.7478 107.529C45.3869 107.529 45.0947 107.231 45.0947 106.862C45.0947 106.495 45.3869 106.197 45.7478 106.197C46.1087 106.197 46.4017 106.495 46.4017 106.862Z" fill="#969DA6"/>
<path d="M53.4769 106.862C53.4769 107.231 53.1847 107.529 52.823 107.529C52.4629 107.529 52.1699 107.231 52.1699 106.862C52.1699 106.495 52.4629 106.197 52.823 106.197C53.1847 106.197 53.4769 106.495 53.4769 106.862Z" fill="#969DA6"/>
<path d="M60.5521 106.862C60.5521 107.231 60.2599 107.529 59.899 107.529C59.5381 107.529 59.2451 107.231 59.2451 106.862C59.2451 106.495 59.5381 106.197 59.899 106.197C60.2599 106.197 60.5521 106.495 60.5521 106.862Z" fill="#969DA6"/>
<path d="M67.6282 106.862C67.6282 107.231 67.3352 107.529 66.9743 107.529C66.6134 107.529 66.3213 107.231 66.3213 106.862C66.3213 106.495 66.6134 106.197 66.9743 106.197C67.3352 106.197 67.6282 106.495 67.6282 106.862Z" fill="#969DA6"/>
<path d="M74.7034 106.862C74.7034 107.231 74.4113 107.529 74.0495 107.529C73.6895 107.529 73.3965 107.231 73.3965 106.862C73.3965 106.495 73.6895 106.197 74.0495 106.197C74.4113 106.197 74.7034 106.495 74.7034 106.862Z" fill="#969DA6"/>
<path d="M81.7786 106.862C81.7786 107.231 81.4865 107.529 81.1256 107.529C80.7647 107.529 80.4717 107.231 80.4717 106.862C80.4717 106.495 80.7647 106.197 81.1256 106.197C81.4865 106.197 81.7786 106.495 81.7786 106.862Z" fill="#969DA6"/>
<path d="M18.1003 112.505C18.1003 112.873 17.8073 113.172 17.4464 113.172C17.0855 113.172 16.7925 112.873 16.7925 112.505C16.7925 112.138 17.0855 111.839 17.4464 111.839C17.8073 111.839 18.1003 112.138 18.1003 112.505Z" fill="#969DA6"/>
<path d="M25.1755 112.505C25.1755 112.873 24.8833 113.172 24.5216 113.172C24.1607 113.172 23.8677 112.873 23.8677 112.505C23.8677 112.138 24.1607 111.839 24.5216 111.839C24.8833 111.839 25.1755 112.138 25.1755 112.505Z" fill="#969DA6"/>
<path d="M32.2508 112.505C32.2508 112.873 31.9586 113.172 31.5969 113.172C31.2369 113.172 30.9438 112.873 30.9438 112.505C30.9438 112.138 31.2369 111.839 31.5969 111.839C31.9586 111.839 32.2508 112.138 32.2508 112.505Z" fill="#969DA6"/>
<path d="M39.326 112.505C39.326 112.873 39.0338 113.172 38.6729 113.172C38.3121 113.172 38.019 112.873 38.019 112.505C38.019 112.138 38.3121 111.839 38.6729 111.839C39.0338 111.839 39.326 112.138 39.326 112.505Z" fill="#969DA6"/>
<path d="M46.4017 112.505C46.4017 112.873 46.1087 113.172 45.7478 113.172C45.3869 113.172 45.0947 112.873 45.0947 112.505C45.0947 112.138 45.3869 111.839 45.7478 111.839C46.1087 111.839 46.4017 112.138 46.4017 112.505Z" fill="#969DA6"/>
<path d="M53.4769 112.505C53.4769 112.873 53.1847 113.172 52.823 113.172C52.4629 113.172 52.1699 112.873 52.1699 112.505C52.1699 112.138 52.4629 111.839 52.823 111.839C53.1847 111.839 53.4769 112.138 53.4769 112.505Z" fill="#969DA6"/>
<path d="M60.5521 112.505C60.5521 112.873 60.2599 113.172 59.899 113.172C59.5381 113.172 59.2451 112.873 59.2451 112.505C59.2451 112.138 59.5381 111.839 59.899 111.839C60.2599 111.839 60.5521 112.138 60.5521 112.505Z" fill="#969DA6"/>
<path d="M67.6282 112.505C67.6282 112.873 67.3352 113.172 66.9743 113.172C66.6134 113.172 66.3213 112.873 66.3213 112.505C66.3213 112.138 66.6134 111.839 66.9743 111.839C67.3352 111.839 67.6282 112.138 67.6282 112.505Z" fill="#969DA6"/>
<path d="M74.7034 112.505C74.7034 112.873 74.4113 113.172 74.0495 113.172C73.6895 113.172 73.3965 112.873 73.3965 112.505C73.3965 112.138 73.6895 111.839 74.0495 111.839C74.4113 111.839 74.7034 112.138 74.7034 112.505Z" fill="#969DA6"/>
<path d="M81.7786 112.505C81.7786 112.873 81.4865 113.172 81.1256 113.172C80.7647 113.172 80.4717 112.873 80.4717 112.505C80.4717 112.138 80.7647 111.839 81.1256 111.839C81.4865 111.839 81.7786 112.138 81.7786 112.505Z" fill="#969DA6"/>
</g>
<g filter="url(#filter0_d_586_43079)">
<path d="M52.8799 15.5785V86.354C52.8799 87.5561 53.5989 88.5306 54.4859 88.5306H142.274C143.161 88.5306 143.88 87.5561 143.88 86.354V15.5785H52.8799Z" fill="black"/>
</g>
<path d="M52.8799 15.5785V86.354C52.8799 87.5561 53.5989 88.5306 54.4859 88.5306H142.274C143.161 88.5306 143.88 87.5561 143.88 86.354V15.5785H52.8799Z" fill="#E6EAEE"/>
<path fill-rule="evenodd" clip-rule="evenodd" d="M56.1469 12.4749H140.613C142.417 12.4749 143.88 13.9375 143.88 15.7419V20.4307H52.8799V15.7419C52.8799 13.9375 54.3426 12.4749 56.1469 12.4749Z" fill="#BEC3CE"/>
<path d="M66.257 17.6308C66.8584 17.6308 67.346 17.1432 67.346 16.5418C67.346 15.9403 66.8584 15.4528 66.257 15.4528C65.6555 15.4528 65.168 15.9403 65.168 16.5418C65.168 17.1432 65.6555 17.6308 66.257 17.6308Z" fill="#3C4D6F"/>
<path d="M61.7233 17.6308C62.3247 17.6308 62.8123 17.1432 62.8123 16.5418C62.8123 15.9403 62.3247 15.4528 61.7233 15.4528C61.1218 15.4528 60.6343 15.9403 60.6343 16.5418C60.6343 17.1432 61.1218 17.6308 61.7233 17.6308Z" fill="#3C4D6F"/>
<path d="M57.1891 17.6308C57.7905 17.6308 58.2781 17.1432 58.2781 16.5418C58.2781 15.9403 57.7905 15.4528 57.1891 15.4528C56.5877 15.4528 56.1001 15.9403 56.1001 16.5418C56.1001 17.1432 56.5877 17.6308 57.1891 17.6308Z" fill="#3C4D6F"/>
<path d="M83 45.9749C84.933 45.9749 86.5 44.4079 86.5 42.4749C86.5 40.5419 84.933 38.9749 83 38.9749C81.067 38.9749 79.5 40.5419 79.5 42.4749C79.5 44.4079 81.067 45.9749 83 45.9749Z" fill="#283A5E"/>
<path d="M114 45.9749C115.933 45.9749 117.5 44.4079 117.5 42.4749C117.5 40.5419 115.933 38.9749 114 38.9749C112.067 38.9749 110.5 40.5419 110.5 42.4749C110.5 44.4079 112.067 45.9749 114 45.9749Z" fill="#283A5E"/>
<path d="M85.375 66.5433C89.75 61.9899 94.125 59.7132 98.5 59.7132C102.875 59.7132 107.25 61.9899 111.625 66.5433" stroke="#283A5E" stroke-width="1.05" stroke-linecap="round"/>
<path d="M141.85 96.1749C151.432 96.1749 159.2 88.407 159.2 78.8249C159.2 69.2427 151.432 61.4749 141.85 61.4749C132.268 61.4749 124.5 69.2427 124.5 78.8249C124.5 88.407 132.268 96.1749 141.85 96.1749Z" fill="#FF4702"/>
<path d="M150.251 86.9458C149.632 87.5654 148.627 87.5654 148.008 86.9458L142.117 81.0555L135.947 87.2259C135.327 87.8455 134.323 87.8455 133.703 87.2259C133.084 86.6063 133.084 85.602 133.703 84.9824L139.874 78.812L133.983 72.9216C133.364 72.302 133.364 71.2969 133.983 70.6781C134.603 70.0585 135.607 70.0585 136.227 70.6781L142.117 76.5685L147.727 70.959C148.346 70.3394 149.351 70.3394 149.97 70.959C150.59 71.5785 150.59 72.5829 149.97 73.2025L144.361 78.812L150.251 84.7023C150.871 85.3219 150.871 86.3263 150.251 86.9458Z" fill="url(#paint0_linear_586_43079)"/>
</g>
<defs>
<filter id="filter0_d_586_43079" x="50.8799" y="11.5785" width="99" height="80.9521" filterUnits="userSpaceOnUse" color-interpolation-filters="sRGB">
<feFlood flood-opacity="0" result="BackgroundImageFix"/>
<feColorMatrix in="SourceAlpha" type="matrix" values="0 0 0 0 0 0 0 0 0 0 0 0 0 0 0 0 0 0 127 0" result="hardAlpha"/>
<feOffset dx="2"/>
<feGaussianBlur stdDeviation="2"/>
<feColorMatrix type="matrix" values="0 0 0 0 0 0 0 0 0 0 0 0 0 0 0 0 0 0 0.12 0"/>
<feBlend mode="normal" in2="BackgroundImageFix" result="effect1_dropShadow_586_43079"/>
<feBlend mode="normal" in="SourceGraphic" in2="effect1_dropShadow_586_43079" result="shape"/>
</filter>
<linearGradient id="paint0_linear_586_43079" x1="144.903" y1="72.7167" x2="138.021" y2="87.2978" gradientUnits="userSpaceOnUse">
<stop stop-color="white"/>
<stop offset="1" stop-color="#FFE7E7"/>
</linearGradient>
<clipPath id="clip0_586_43079">
<rect width="191" height="113" fill="white" transform="translate(0 0.474854)"/>
</clipPath>
</defs>
</svg>
