<svg xmlns="http://www.w3.org/2000/svg" width="36" height="36" viewBox="0 0 36 36">
  <g fill="none" fill-rule="evenodd" transform="matrix(-1 0 0 1 36 1)">
    <path fill="#F8CD32" d="M18.8547833,33.7739389 L16.4147317,33.7739389 C7.40665649,33.7739389 0.104258368,26.3025038 0.104258368,17.0859084 L0.104258368,16.7487634 C0.104258368,7.53216794 7.40665649,0.0607328244 16.4147317,0.0607328244 L18.8547833,0.0607328244 C27.8628585,0.0607328244 35.1652566,7.53216794 35.1652566,16.7487634 L35.1652566,17.0859084 C35.1652566,26.3025038 27.8628585,33.7739389 18.8547833,33.7739389"/>
    <path fill="#FFFFFE" d="M2.32082678,13.0565191 C2.27009278,13.0565191 2.2183441,13.0495115 2.16735643,13.0341985 C1.87893365,12.947771 1.71354081,12.6381374 1.79801292,12.3425191 C3.17696301,7.52593893 6.76208103,3.64656489 11.3885144,1.96447328 C11.6716101,1.86221374 11.9831169,2.01300763 12.0840775,2.30291603 C12.1850382,2.59308397 12.0368949,2.91180153 11.7532918,3.01483969 C7.45510746,4.5770229 4.12416676,8.18180153 2.84313329,12.6560458 C2.77362772,12.8987176 2.5564862,13.0565191 2.32082678,13.0565191"/>
    <path fill="#EEB530" d="M26.0262877,1.75891603 C29.9642607,4.80541985 32.5100928,9.63653435 32.5100928,15.0770534 L32.5100928,15.4141985 C32.5100928,24.6307939 25.2076947,32.102229 16.1996195,32.102229 L13.7595678,32.102229 C11.1858321,32.102229 8.75262948,31.490229 6.58780975,30.4040458 C9.32110393,32.5185344 12.7240869,33.7739389 16.4147317,33.7739389 L18.8547833,33.7739389 C27.8628585,33.7739389 35.1652566,26.3025038 35.1652566,17.0859084 L35.1652566,16.7487634 C35.1652566,10.1654809 31.4383371,4.47450382 26.0262877,1.75891603"/>
    <path fill="#34311D" d="M11.2076477 10.5259847L11.1718802 10.5259847C10.1916994 10.5259847 9.39695126 11.3388702 9.39695126 12.3417405L9.39695126 13.7611756C9.39695126 14.7640458 10.1916994 15.5771908 11.1718802 15.5771908L11.2076477 15.5771908C12.1880822 15.5771908 12.9825766 14.7640458 12.9825766 13.7611756L12.9825766 12.3417405C12.9825766 11.3388702 12.1880822 10.5259847 11.2076477 10.5259847M24.0973811 10.5259847L24.0616136 10.5259847C23.0814328 10.5259847 22.2869383 11.3388702 22.2869383 12.3417405L22.2869383 13.7611756C22.2869383 14.7640458 23.0814328 15.5771908 24.0616136 15.5771908L24.0973811 15.5771908C25.0778156 15.5771908 25.87231 14.7640458 25.87231 13.7611756L25.87231 12.3417405C25.87231 11.3388702 25.0778156 10.5259847 24.0973811 10.5259847M17.6348843 27.2267328C11.1219072 27.2267328 9.07073165 22.3180153 8.98676688 22.109084 8.81477863 21.6823969 9.0136559 21.1939389 9.43094304 21.0179695 9.84620082 20.8422595 10.3231004 21.0447023 10.4961033 21.4690534 10.5673846 21.6406107 12.2522607 25.5550229 17.6348843 25.5550229 23.0657052 25.5550229 24.7554011 21.5131756 24.7716359 21.4724275 24.9438779 21.0457405 25.4215385 20.8422595 25.8383183 21.0179695 26.2556054 21.1939389 26.4544827 21.6823969 26.2827481 22.109084 26.1985297 22.3180153 24.1478614 27.2267328 17.6348843 27.2267328"/>
  </g>
</svg>
