<svg width="48" height="48" viewBox="0 0 48 48" fill="none" xmlns="http://www.w3.org/2000/svg">
<path fill-rule="evenodd" clip-rule="evenodd" d="M23 33C31.8366 33 39 25.8366 39 17C39 8.16344 31.8366 1 23 1C14.1634 1 7 8.16344 7 17C7 25.8366 14.1634 33 23 33Z" fill="url(#paint0_linear)"/>
<g filter="url(#filter0_d)">
<path fill-rule="evenodd" clip-rule="evenodd" d="M13.9333 17.2667C13.9333 12.1205 18.1205 7.93335 23.2667 7.93335C28.4129 7.93335 32.6 12.1205 32.6 17.2667C32.6 22.4129 28.4129 26.6 23.2667 26.6C18.1205 26.6 13.9333 22.4129 13.9333 17.2667ZM22.5181 20.7286L28.483 14.8105C28.8573 14.4362 28.8573 13.8514 28.483 13.4771C28.1088 13.1029 27.524 13.1029 27.1497 13.4771L21.8164 18.8105L19.3134 16.5181C18.9392 16.1672 18.3544 16.1906 18.0035 16.5649C17.676 16.9391 17.6994 17.5239 18.0737 17.8748L21.2316 20.752C21.6058 21.1029 22.1672 21.0795 22.5181 20.7286Z" fill="url(#paint1_linear)"/>
</g>
<defs>
<filter id="filter0_d" x="0.93335" y="0.93335" width="46.6667" height="46.6667" filterUnits="userSpaceOnUse" color-interpolation-filters="sRGB">
<feFlood flood-opacity="0" result="BackgroundImageFix"/>
<feColorMatrix in="SourceAlpha" type="matrix" values="0 0 0 0 0 0 0 0 0 0 0 0 0 0 0 0 0 0 127 0"/>
<feOffset dx="1" dy="7"/>
<feGaussianBlur stdDeviation="7"/>
<feColorMatrix type="matrix" values="0 0 0 0 0 0 0 0 0 0 0 0 0 0 0 0 0 0 0.2 0"/>
<feBlend mode="normal" in2="BackgroundImageFix" result="effect1_dropShadow"/>
<feBlend mode="normal" in="SourceGraphic" in2="effect1_dropShadow" result="shape"/>
</filter>
<linearGradient id="paint0_linear" x1="21.999" y1="-1.79792" x2="5.20729" y2="18.0542" gradientUnits="userSpaceOnUse">
<stop stop-color="#BAE04B"/>
<stop offset="0.263492" stop-color="#A2DA55"/>
<stop offset="0.528858" stop-color="#78D967"/>
<stop offset="0.765545" stop-color="#6AD46B"/>
<stop offset="1" stop-color="#4FD478"/>
</linearGradient>
<linearGradient id="paint1_linear" x1="18.6044" y1="6.9319" x2="11.2542" y2="22.5055" gradientUnits="userSpaceOnUse">
<stop stop-color="white"/>
<stop offset="1" stop-color="#E1F9DB"/>
</linearGradient>
</defs>
</svg>
