<?xml version="1.0" encoding="UTF-8"?>
<svg width="63px" height="63px" viewBox="0 0 63 63" version="1.1" xmlns="http://www.w3.org/2000/svg" xmlns:xlink="http://www.w3.org/1999/xlink">
    <!-- Generator: Sketch 53.2 (72643) - https://sketchapp.com -->
    <title>Templates</title>
    <desc>Created with Sketch.</desc>
    <defs>
        <path d="M15.2170883,11.6269566 C15.3784109,11.2454492 15.8184616,11.0669542 16.199969,11.2282768 C16.5814764,11.3895995 16.7599714,11.8296501 16.5986488,12.2111575 C15.1547743,15.625736 11.6105533,17.6578433 7.93431117,17.1789245 C4.25806904,16.7000057 1.35276653,13.827693 0.831898083,10.1571596 C0.311029636,6.48662614 2.30253126,2.91943058 5.70039875,1.43665752 C6.08003904,1.27098879 6.52209934,1.444447 6.68776807,1.82408729 C6.8534368,2.20372758 6.67997858,2.64578788 6.30033829,2.81145661 C3.52026489,4.02463457 1.89085447,6.94324912 2.31701956,9.94641282 C2.74318466,12.9495765 5.12025035,15.2996505 8.12808482,15.6914932 C11.1359193,16.0833359 14.0357365,14.4207026 15.2170883,11.6269566 Z M17.2503685,9.00155706 C17.2503685,9.41577062 16.9145821,9.75155706 16.5003685,9.75155706 L9.00036852,9.75155706 C8.58615496,9.75155706 8.25036852,9.41577062 8.25036852,9.00155706 L8.25036852,1.50155706 C8.25036852,1.0873435 8.58615496,0.751557062 9.00036852,0.751557062 C11.1884046,0.751557062 13.2868243,1.620751 14.8339995,3.16792612 C16.3811746,4.71510124 17.2503685,6.81352102 17.2503685,9.00155706 Z M13.7733393,4.22858629 C12.6855189,3.14076587 11.2646327,2.46258633 9.75036852,2.29332963 L9.75036852,8.25155706 L15.708596,8.25155706 C15.5393393,6.73729293 14.8611597,5.31640671 13.7733393,4.22858629 Z" id="path-1"></path>
    </defs>
    <g id="Page-1" stroke="none" stroke-width="1" fill="none" fill-rule="evenodd">
        <g id="Templates" transform="translate(-3.000000, -3.000000)">
            <path d="M19.5497323,9.24064134 L49.4233537,9.24064134 C55.1169074,9.24064134 59.7324446,13.8561786 59.7324446,19.5497323 L59.7324446,49.4233537 C59.7324446,55.1169074 55.1169074,59.7324446 49.4233537,59.7324446 L19.5497323,59.7324446 C13.8561786,59.7324446 9.24064134,55.1169074 9.24064134,49.4233537 L9.24064134,19.5497323 C9.24064134,13.8561786 13.8561786,9.24064134 19.5497323,9.24064134 Z" id="Rectangle-Copy-2" fill="#D6E4FC" fill-rule="nonzero" transform="translate(34.486543, 34.486543) rotate(-330.000000) translate(-34.486543, -34.486543) "></path>
            <g id="Group-38-Copy-2" transform="translate(13.770492, 6.885246)" fill-rule="nonzero">
                <path d="M4.58181818,0.572727273 C2.36765841,0.572727273 0.572727273,2.36765841 0.572727273,4.58181818 L0.572727273,48.2050671 C0.572727273,50.4192268 2.36765841,52.214158 4.58181818,52.214158 L36.3519768,52.214158 C38.5661366,52.214158 40.3610677,50.4192268 40.3610677,48.2050671 L40.3610677,14.4834842 C40.3610677,13.3056289 39.8431067,12.1873646 38.94472,11.4256267 L33.7799056,7.04640238 L27.3063017,1.53028847 C26.5809303,0.912204406 25.6591048,0.572727273 24.706114,0.572727273 L4.58181818,0.572727273 Z" id="Rectangle" stroke="#0450CC" stroke-width="1.14545455" fill="#0162FF"></path>
                <path d="M26.5531535,1.62558785 C28.5071045,3.67369706 31.1638835,5.93817539 34.5234905,8.41902285 C37.8830975,10.8998703 39.5884709,12.5775451 39.6396107,13.4520472 C32.7491398,14.8688657 28.2811486,14.7077207 26.2356371,12.9686121 C24.1901256,11.2295035 24.2959644,7.44849544 26.5531535,1.62558785 Z" id="Rectangle" fill="#ABCBFF"></path>
                <path d="M39.562901,14.0154784 L28.6801788,14.0154784 C26.1497105,14.0154784 24.0983607,11.9641286 24.0983607,9.43366027 L24.0983607,5.73770492" id="Path-6" stroke="#0450CC" stroke-width="1.14545455" stroke-linecap="round" stroke-linejoin="round"></path>
            </g>
            <g id="Glyphs-/-Chart---Pie" transform="translate(25.000000, 34.000000)">
                <mask id="mask-2" fill="white">
                    <use xlink:href="#path-1"></use>
                </mask>
                <use id="Mask" fill="#000000" fill-rule="nonzero" xlink:href="#path-1"></use>
                <g id="Colors-/-Glyphs-/-White" mask="url(#mask-2)" fill="#FFFFFF" fill-rule="evenodd">
                    <rect id="Base" x="0" y="0" width="18.4736842" height="18.4736842"></rect>
                </g>
            </g>
        </g>
    </g>
</svg>