<svg xmlns="http://www.w3.org/2000/svg" width="36" height="36" viewBox="0 0 36 36">
  <g fill="none" fill-rule="evenodd" transform="translate(0 1)">
    <path fill="#F8CD32" d="M19.628192,33.9392672 L17.1881403,33.9392672 C8.18006513,33.9392672 0.877667009,26.4678321 0.877667009,17.2512366 L0.877667009,16.9140916 C0.877667009,7.69749618 8.18006513,0.226061069 17.1881403,0.226061069 L19.628192,0.226061069 C28.6362671,0.226061069 35.9386652,7.69749618 35.9386652,16.9140916 L35.9386652,17.2512366 C35.9386652,26.4678321 28.6362671,33.9392672 19.628192,33.9392672"/>
    <path fill="#FFFFFE" d="M23.3878349,13.2221069 C23.3368473,13.2221069 23.2853523,13.2150992 23.2343646,13.1997863 C22.9456881,13.1133588 22.7802953,12.8037252 22.8647674,12.5081069 C24.2437175,7.69100763 27.8290892,3.81163359 32.4552689,2.13006107 C32.739633,2.02728244 33.0506324,2.1791145 33.1510857,2.46850382 C33.251539,2.75867176 33.1033957,3.07738931 32.8203,3.18042748 C28.5221156,4.7420916 25.1914286,8.34687023 23.9101415,12.8216336 C23.8406359,13.0643053 23.6232407,13.2221069 23.3878349,13.2221069" transform="matrix(-1 0 0 1 56.025 0)"/>
    <path fill="#EEB530" d="M20.316145,1.92424427 C24.2538643,4.97074809 26.7996964,9.8018626 26.7996964,15.2423817 L26.7996964,15.5795267 C26.7996964,24.7961221 19.4972982,32.2675573 10.4892231,32.2675573 L8.04917141,32.2675573 C5.47543565,32.2675573 3.04223307,31.6558168 0.877667009,30.569374 C3.61070753,32.6838626 7.0136905,33.9392672 10.7043352,33.9392672 L13.1443869,33.9392672 C22.1524621,33.9392672 29.4548602,26.4678321 29.4548602,17.2512366 L29.4548602,16.9140916 C29.4548602,10.3308092 25.7279406,4.6400916 20.316145,1.92424427" transform="matrix(-1 0 0 1 30.333 0)"/>
    <path fill="#34311D" d="M25.2685443 16.3565954C23.4951374 16.3565954 22.0905666 14.9195115 22.0905666 13.1530687L22.0905666 12.6648702C22.0905666 12.2034046 22.4561051 11.829145 22.907384 11.829145 23.3586629 11.829145 23.724455 12.2034046 23.724455 12.6648702L23.724455 13.1530687C23.724455 13.9976183 24.3961732 14.6848855 25.2216153 14.6848855 26.0939864 14.6848855 26.7654509 13.9976183 26.7654509 13.1530687L26.7654509 12.6648702C26.7654509 12.2034046 27.1309894 11.829145 27.5822683 11.829145 28.0335472 11.829145 28.3993394 12.2034046 28.3993394 12.6648702L28.3993394 13.1530687C28.3993394 14.9195115 26.9950223 16.3565954 25.2685443 16.3565954M11.5947169 16.3565954C9.82156366 16.3565954 8.41724657 14.9195115 8.41724657 13.1530687L8.41724657 12.6648702C8.41724657 12.2034046 8.78278504 11.829145 9.23406396 11.829145 9.68534288 11.829145 10.051135 12.2034046 10.051135 12.6648702L10.051135 13.1530687C10.051135 13.9976183 10.7225995 14.6848855 11.5480416 14.6848855 12.4201591 14.6848855 13.0916236 13.9976183 13.0916236 13.1530687L13.0916236 12.6648702C13.0916236 12.2034046 13.4574157 11.829145 13.9086946 11.829145 14.3599735 11.829145 14.7257657 12.2034046 14.7257657 12.6648702L14.7257657 13.1530687C14.7257657 14.9195115 13.3211949 16.3565954 11.5947169 16.3565954M25.4291174 25.339084C25.1092395 25.339084 24.8053429 25.1457252 24.6749565 24.8246718 24.610017 24.6697252 23.1280769 21.247145 18.4080393 21.247145 13.6814063 21.247145 12.2020029 24.6793282 12.1413758 24.8257099 11.9658361 25.2492824 11.4876682 25.4512061 11.0734251 25.2721221 10.6586746 25.0945954 10.4610657 24.609771 10.632293 24.1846412 10.7078866 23.9964733 12.5551115 19.5754351 18.4080393 19.5754351 24.2612207 19.5754351 26.1084456 23.9964733 26.1840393 24.1846412 26.3560275 24.6113282 26.1571503 25.1000458 25.7398631 25.2757557 25.6381415 25.3188397 25.5328684 25.339084 25.4291174 25.339084"/>
  </g>
</svg>
