<svg width="49" height="49" viewBox="0 0 49 49" fill="none" xmlns="http://www.w3.org/2000/svg">
<path fill-rule="evenodd" clip-rule="evenodd" d="M23 33C31.8366 33 39 25.8366 39 17C39 8.16344 31.8366 1 23 1C14.1634 1 7 8.16344 7 17C7 25.8366 14.1634 33 23 33Z" fill="url(#paint0_linear)"/>
<g filter="url(#filter0_d)">
<path fill-rule="evenodd" clip-rule="evenodd" d="M23.2667 7.93359C18.1202 7.93359 13.9333 12.1205 13.9333 17.2669C13.9333 22.4134 18.1202 26.6003 23.2667 26.6003C28.4132 26.6003 32.6 22.4134 32.6 17.2669C32.6 12.1205 28.4132 7.93359 23.2667 7.93359ZM23.2667 9.31641C25.2661 9.31641 27.0913 10.0645 28.4899 11.2875L17.2871 22.4902C16.0641 21.0916 15.316 19.2671 15.316 17.267C15.316 12.8831 18.8828 9.31641 23.2667 9.31641ZM18.2813 23.4508C19.6461 24.5535 21.38 25.2172 23.2667 25.2172C27.6506 25.2172 31.2173 21.6505 31.2173 17.2666C31.2173 15.3799 30.5536 13.646 29.4509 12.2812L18.2813 23.4508Z" fill="url(#paint1_linear)"/>
<path d="M28.4899 11.2875L28.8434 11.641L29.2214 11.263L28.819 10.9111L28.4899 11.2875ZM17.2871 22.4902L16.9107 22.8194L17.2626 23.2218L17.6407 22.8438L17.2871 22.4902ZM18.2813 23.4508L17.9278 23.0973L17.5347 23.4904L17.9671 23.8397L18.2813 23.4508ZM29.4509 12.2812L29.8398 11.967L29.4904 11.5346L29.0973 11.9277L29.4509 12.2812ZM14.4333 17.2669C14.4333 12.3966 18.3964 8.43359 23.2667 8.43359V7.43359C17.8441 7.43359 13.4333 11.8443 13.4333 17.2669H14.4333ZM23.2667 26.1003C18.3964 26.1003 14.4333 22.1373 14.4333 17.2669H13.4333C13.4333 22.6895 17.8441 27.1003 23.2667 27.1003V26.1003ZM32.1 17.2669C32.1 22.1373 28.137 26.1003 23.2667 26.1003V27.1003C28.6893 27.1003 33.1 22.6895 33.1 17.2669H32.1ZM23.2667 8.43359C28.137 8.43359 32.1 12.3966 32.1 17.2669H33.1C33.1 11.8443 28.6893 7.43359 23.2667 7.43359V8.43359ZM28.819 10.9111C27.3341 9.61261 25.3934 8.81641 23.2667 8.81641V9.81641C25.1387 9.81641 26.8484 10.5163 28.1607 11.6639L28.819 10.9111ZM17.6407 22.8438L28.8434 11.641L28.1363 10.9339L16.9335 22.1367L17.6407 22.8438ZM14.816 17.267C14.816 19.3945 15.6123 21.3345 16.9107 22.8194L17.6635 22.1611C16.5159 20.8487 15.816 19.1398 15.816 17.267H14.816ZM23.2667 8.81641C18.6066 8.81641 14.816 12.607 14.816 17.267H15.816C15.816 13.1593 19.1589 9.81641 23.2667 9.81641V8.81641ZM23.2667 24.7172C21.4994 24.7172 19.8753 24.096 18.5956 23.0619L17.9671 23.8397C19.4168 25.0111 21.2606 25.7172 23.2667 25.7172V24.7172ZM30.7173 17.2666C30.7173 21.3744 27.3745 24.7172 23.2667 24.7172V25.7172C27.9267 25.7172 31.7173 21.9267 31.7173 17.2666H30.7173ZM29.062 12.5955C30.0961 13.8753 30.7173 15.4993 30.7173 17.2666H31.7173C31.7173 15.2605 31.0112 13.4167 29.8398 11.967L29.062 12.5955ZM18.6349 23.8044L29.8044 12.6348L29.0973 11.9277L17.9278 23.0973L18.6349 23.8044Z" fill="url(#paint2_linear)"/>
</g>
<defs>
<filter id="filter0_d" x="0.43335" y="0.433594" width="47.6667" height="47.6667" filterUnits="userSpaceOnUse" color-interpolation-filters="sRGB">
<feFlood flood-opacity="0" result="BackgroundImageFix"/>
<feColorMatrix in="SourceAlpha" type="matrix" values="0 0 0 0 0 0 0 0 0 0 0 0 0 0 0 0 0 0 127 0"/>
<feOffset dx="1" dy="7"/>
<feGaussianBlur stdDeviation="7"/>
<feColorMatrix type="matrix" values="0 0 0 0 0 0 0 0 0 0 0 0 0 0 0 0 0 0 0.2 0"/>
<feBlend mode="normal" in2="BackgroundImageFix" result="effect1_dropShadow"/>
<feBlend mode="normal" in="SourceGraphic" in2="effect1_dropShadow" result="shape"/>
</filter>
<linearGradient id="paint0_linear" x1="25.0594" y1="34.8458" x2="41.851" y2="14.9937" gradientUnits="userSpaceOnUse">
<stop stop-color="#FE3E67"/>
<stop offset="0.263492" stop-color="#FE4B57"/>
<stop offset="0.528858" stop-color="#FE5A47"/>
<stop offset="0.765545" stop-color="#FF4F54"/>
<stop offset="1" stop-color="#FE633D"/>
</linearGradient>
<linearGradient id="paint1_linear" x1="18.6044" y1="6.93214" x2="11.2542" y2="22.5057" gradientUnits="userSpaceOnUse">
<stop stop-color="white"/>
<stop offset="1" stop-color="#FFE7E7"/>
</linearGradient>
<linearGradient id="paint2_linear" x1="14.1517" y1="7.93359" x2="14.1517" y2="26.1635" gradientUnits="userSpaceOnUse">
<stop stop-color="white"/>
<stop offset="1" stop-color="#FFEEEE"/>
</linearGradient>
</defs>
</svg>
