<svg xmlns="http://www.w3.org/2000/svg" width="50" height="50" viewBox="0 0 50 50">
    <g fill="none" fill-rule="nonzero">
        <path fill="#D6E4FC" d="M24.85 2.05l20.328 11.736a8.1 8.1 0 0 1 2.965 11.065L36.407 45.178a8.1 8.1 0 0 1-11.065 2.965L5.015 36.407A8.1 8.1 0 0 1 2.05 25.342L13.786 5.015A8.1 8.1 0 0 1 24.851 2.05z"/>
        <path fill="#FFF" stroke="#0162FF" stroke-width=".9" d="M12.42 3.86a3.15 3.15 0 0 0-3.15 3.15v34.275a3.15 3.15 0 0 0 3.15 3.15h24.962a3.15 3.15 0 0 0 3.15-3.15V14.79a3.15 3.15 0 0 0-1.113-2.403l-4.058-3.44-5.086-4.335a3.15 3.15 0 0 0-2.043-.752H12.42z"/>
        <path fill="#CCDCF4" d="M29.683 4.687a571.64 571.64 0 0 0 6.262 5.338c2.44 2.054 3.76 3.36 3.96 3.92-5.374 1.136-8.864 1.02-10.472-.346-1.607-1.366-1.524-4.337.25-8.912z"/>
        <path stroke="#0162FF" stroke-linecap="round" stroke-linejoin="round" stroke-width=".9" d="M39.905 14.422h-8.55a3.6 3.6 0 0 1-3.6-3.6V7.918"/>
    </g>
</svg>
