<svg xmlns="http://www.w3.org/2000/svg" xmlns:xlink="http://www.w3.org/1999/xlink" width="50" height="50" viewBox="0 0 50 50">
    <defs>
        <path id="a" d="M4.083 5.25a1.167 1.167 0 1 1 0-2.333 1.167 1.167 0 0 1 0 2.333zm0 5.833a1.167 1.167 0 1 1 0-2.333 1.167 1.167 0 0 1 0 2.333zm8.264-4.958V2.722c0-.59-.479-1.07-1.07-1.07H2.723c-.59 0-1.07.48-1.07 1.07v3.403h10.695zm0 1.167H1.653v3.986c0 .59.479 1.07 1.07 1.07h8.555c.59 0 1.07-.48 1.07-1.07V7.292zM2.722.583h8.556c1.181 0 2.139.958 2.139 2.14v8.555a2.139 2.139 0 0 1-2.14 2.139H2.723a2.139 2.139 0 0 1-2.139-2.14V2.723c0-1.181.958-2.139 2.14-2.139z"/>
    </defs>
    <g fill="none" fill-rule="evenodd">
        <path fill="#D6E4FC" fill-rule="nonzero" d="M24.85 2.05l20.328 11.736a8.1 8.1 0 0 1 2.965 11.065L36.407 45.178a8.1 8.1 0 0 1-11.065 2.965L5.015 36.407A8.1 8.1 0 0 1 2.05 25.342L13.786 5.015A8.1 8.1 0 0 1 24.851 2.05z"/>
        <path fill="#FFF" fill-rule="nonzero" stroke="#0162FF" stroke-width=".9" d="M12.42 3.86a3.15 3.15 0 0 0-3.15 3.15v34.275a3.15 3.15 0 0 0 3.15 3.15h24.962a3.15 3.15 0 0 0 3.15-3.15V14.79a3.15 3.15 0 0 0-1.113-2.403l-4.058-3.44-5.086-4.335a3.15 3.15 0 0 0-2.043-.752H12.42z"/>
        <g transform="translate(17.82 22.41)">
            <mask id="b" fill="#fff">
                <use xlink:href="#a"/>
            </mask>
            <use fill="#4D4D4D" xlink:href="#a"/>
            <g fill="#0565FF" mask="url(#b)">
                <path d="M0 0h14.167v14.167H0z"/>
            </g>
        </g>
        <path fill="#CCDCF4" fill-rule="nonzero" d="M29.683 4.687a571.64 571.64 0 0 0 6.262 5.338c2.44 2.054 3.76 3.36 3.96 3.92-5.374 1.136-8.864 1.02-10.472-.346-1.607-1.366-1.524-4.337.25-8.912z"/>
        <path stroke="#0162FF" stroke-linecap="round" stroke-linejoin="round" stroke-width=".9" d="M39.905 14.422h-8.55a3.6 3.6 0 0 1-3.6-3.6V7.918"/>
    </g>
</svg>
