<svg width="150" height="100" viewBox="0 0 150 100" fill="none" xmlns="http://www.w3.org/2000/svg">
<g clip-path="url(#clip0_58_243)">
<path d="M143.5 0.5H6.5C3.18629 0.5 0.5 3.18629 0.5 6.5V93.5C0.5 96.8137 3.18629 99.5 6.5 99.5H143.5C146.814 99.5 149.5 96.8137 149.5 93.5V6.5C149.5 3.18629 146.814 0.5 143.5 0.5Z" fill="url(#paint0_linear_58_243)" stroke="#9B9B9B"/>
<path opacity="0.313839" d="M75 79.953C87.4264 79.953 97.5 79.1442 97.5 78.1464C97.5 77.1487 87.4264 76.3398 75 76.3398C62.5736 76.3398 52.5 77.1487 52.5 78.1464C52.5 79.1442 62.5736 79.953 75 79.953Z" fill="url(#paint1_radial_58_243)"/>
<path d="M84.0676 56.5916C81.8018 53.8411 75.9108 49.6811 70.4729 55.0445H67.0419C65.7602 55.0445 64.7212 56.0834 64.7212 57.3652C64.7212 58.6469 65.7603 59.6859 67.0419 59.6859H72.5644" stroke="#283A5E" stroke-linecap="round" stroke-linejoin="round"/>
<path d="M81.4531 70.0002L90.342 61.233L85.1133 56.0759L76.2244 64.843L81.4531 70.0002Z" stroke="#283A5E" stroke-linejoin="round"/>
<path d="M77.7932 63.2959H64.7213L53.9629 53.6075C53.236 52.9529 53.1027 51.8628 53.6505 51.0524C54.2717 50.1335 55.5306 49.9122 56.4278 50.5643L64.7213 56.5915" stroke="#283A5E" stroke-linecap="round" stroke-linejoin="round"/>
<path d="M78.8478 37.6971C78.6904 37.6352 78.5228 37.6037 78.3537 37.6042H78.336C77.4431 37.6174 76.4417 38.4537 75.9162 39.7185C75.2862 41.2317 75.5762 42.7799 76.5687 43.1779C76.7259 43.2398 76.8934 43.2713 77.0623 43.2708C77.9597 43.2708 78.9748 42.4297 79.5048 41.1565C80.1303 39.6433 79.8359 38.0951 78.8478 37.6971ZM73.0864 43.602C71.8556 41.5598 71.3244 40.7917 69.9166 40.7917C68.5088 40.7917 67.9731 41.5646 66.7424 43.602C65.6887 45.3445 63.5593 45.4897 63.028 46.9697C62.9203 47.2407 62.8661 47.5302 62.8687 47.8219C62.8687 49.0256 63.7895 50 64.9228 50C66.3306 50 68.2476 48.876 69.921 48.876C71.5944 48.876 73.5025 50 74.9103 50C76.0437 50 76.9601 49.026 76.9601 47.8219C76.9611 47.5299 76.9055 47.2405 76.7963 46.9697C76.265 45.4844 74.14 45.3445 73.0864 43.602ZM67.1058 38.8438C67.1651 38.8438 67.2243 38.8394 67.2829 38.8305C68.3104 38.6813 68.9519 37.2575 68.7191 35.6496C68.4999 34.1338 67.58 33 66.618 33C66.5587 33 66.4995 33.0044 66.4409 33.0133C65.4134 33.1625 64.7719 34.5862 65.0047 36.1941C65.2239 37.7055 66.1438 38.8438 67.1058 38.8438ZM74.8271 36.1941C75.06 34.5862 74.4185 33.1625 73.391 33.0133C73.3324 33.0044 73.2732 33 73.2139 33C72.2519 33 71.3337 34.1338 71.1141 35.6496C70.8812 37.2575 71.5227 38.6813 72.5503 38.8305C72.6089 38.8394 72.6681 38.8438 72.7273 38.8438C73.6893 38.8438 74.6093 37.7055 74.8271 36.1941ZM63.2658 43.1779C64.257 42.7794 64.5465 41.2299 63.9174 39.7185C63.388 38.4453 62.3737 37.6042 61.4777 37.6042C61.3087 37.6037 61.1413 37.6352 60.9841 37.6971C59.9928 38.0956 59.7033 39.6451 60.3324 41.1565C60.8619 42.4297 61.8761 43.2708 62.7722 43.2708C62.9411 43.2713 63.1086 43.2398 63.2658 43.1779Z" stroke="#FF4702" stroke-miterlimit="10"/>
</g>
<defs>
<linearGradient id="paint0_linear_58_243" x1="7450.5" y1="9900.5" x2="7450.5" y2="0.5" gradientUnits="userSpaceOnUse">
<stop stop-color="#F9F9F9"/>
<stop offset="1" stop-color="white"/>
</linearGradient>
<radialGradient id="paint1_radial_58_243" cx="0" cy="0" r="1" gradientUnits="userSpaceOnUse" gradientTransform="translate(192.468 257) scale(1414.39 1414.4)">
<stop stop-color="#2D2C2C"/>
<stop offset="1" stop-color="#B6B3B3"/>
</radialGradient>
<clipPath id="clip0_58_243">
<rect width="150" height="100" fill="white"/>
</clipPath>
</defs>
</svg>
