<?xml version="1.0" encoding="UTF-8"?>
<svg width="152px" height="102px" viewBox="0 0 152 102" version="1.1" xmlns="http://www.w3.org/2000/svg" xmlns:xlink="http://www.w3.org/1999/xlink">
    <!-- Generator: Sketch 63.1 (92452) - https://sketch.com -->
    <title>Group 8</title>
    <desc>Created with Sketch.</desc>
    <defs>
        <linearGradient x1="50%" y1="100%" x2="50%" y2="-2.48949813e-15%" id="linearGradient-1">
            <stop stop-color="#F9F9F9" offset="0%"></stop>
            <stop stop-color="#FFFFFF" offset="100%"></stop>
        </linearGradient>
        <radialGradient cx="51.9692999%" cy="50%" fx="51.9692999%" fy="50%" r="391.451527%" gradientTransform="translate(0.519693,0.500000),scale(0.080293,1.000000),translate(-0.519693,-0.500000)" id="radialGradient-2">
            <stop stop-color="#2D2C2C" offset="0%"></stop>
            <stop stop-color="#B6B3B3" offset="100%"></stop>
        </radialGradient>
    </defs>
    <g id="Page-1" stroke="none" stroke-width="1" fill="none" fill-rule="evenodd">
        <g id="Group-8" transform="translate(1.000000, 1.000000)">
            <rect id="Rectangle-3-Copy-66" stroke="#9B9B9B" fill="url(#linearGradient-1)" fill-rule="nonzero" x="0" y="0" width="150" height="100" rx="6"></rect>
            <ellipse id="Oval-Copy-9" fill="url(#radialGradient-2)" fill-rule="nonzero" opacity="0.313839286" cx="75.5" cy="79.6463358" rx="22.5" ry="1.806602"></ellipse>
            <g id="Artboard-41" transform="translate(54.000000, 24.000000)">
                <rect id="Rectangle" stroke="#283A5E" stroke-width="1.79999995" stroke-linejoin="round" x="8.94374976" y="0.506249987" width="25.3124993" height="42.1874989"></rect>
                <rect id="Rectangle" stroke="#283A5E" stroke-width="1.79999995" stroke-linejoin="round" x="3.31874991" y="6.13124984" width="5.62499985" height="36.562499"></rect>
                <rect id="Rectangle" stroke="#283A5E" stroke-width="1.79999995" stroke-linejoin="round" x="34.2562491" y="6.13124984" width="5.62499985" height="36.562499"></rect>
                <rect id="Rectangle" fill="#FF4702" fill-rule="nonzero" transform="translate(15.975000, 10.350000) rotate(180.000000) translate(-15.975000, -10.350000) " x="13.1624997" y="7.5374998" width="5.62499985" height="5.62499985" rx="0.449999988"></rect>
                <rect id="Rectangle" fill="#FF4702" fill-rule="nonzero" transform="translate(27.224999, 10.350000) rotate(180.000000) translate(-27.224999, -10.350000) " x="24.4124994" y="7.5374998" width="5.62499985" height="5.62499985" rx="0.449999988"></rect>
                <rect id="Rectangle" fill="#FF4702" fill-rule="nonzero" transform="translate(15.975000, 21.599999) rotate(180.000000) translate(-15.975000, -21.599999) " x="13.1624997" y="18.7874995" width="5.62499985" height="5.62499985" rx="0.449999988"></rect>
                <rect id="Rectangle" fill="#FF4702" fill-rule="nonzero" transform="translate(27.224999, 21.599999) rotate(180.000000) translate(-27.224999, -21.599999) " x="24.4124994" y="18.7874995" width="5.62499985" height="5.62499985" rx="0.449999988"></rect>
                <rect id="Rectangle" fill="#FF4702" fill-rule="nonzero" transform="translate(15.975000, 32.849999) rotate(180.000000) translate(-15.975000, -32.849999) " x="13.1624997" y="30.0374992" width="5.62499985" height="5.62499985" rx="0.449999988"></rect>
                <rect id="Rectangle" fill="#FF4702" fill-rule="nonzero" transform="translate(27.224999, 32.849999) rotate(180.000000) translate(-27.224999, -32.849999) " x="24.4124994" y="30.0374992" width="5.62499985" height="5.62499985" rx="0.449999988"></rect>
                <line x1="0.506249987" y1="42.6937489" x2="42.6937489" y2="42.6937489" id="Path" stroke="#283A5E" stroke-width="1.79999995" stroke-linecap="round"></line>
            </g>
        </g>
    </g>
</svg>