<?xml version="1.0" encoding="UTF-8"?>
<svg width="150px" height="100px" viewBox="0 0 150 100" version="1.1" xmlns="http://www.w3.org/2000/svg" xmlns:xlink="http://www.w3.org/1999/xlink">
    <!-- Generator: Sketch 56.2 (81672) - https://sketch.com -->
    <title>Support</title>
    <desc>Created with Sketch.</desc>
    <defs>
        <linearGradient x1="50%" y1="100%" x2="50%" y2="-2.48949813e-15%" id="linearGradient-1">
            <stop stop-color="#F9F9F9" offset="0%"></stop>
            <stop stop-color="#FFFFFF" offset="100%"></stop>
        </linearGradient>
        <radialGradient cx="51.9692899%" cy="50%" fx="51.9692899%" fy="50%" r="391.455643%" gradientTransform="translate(0.519693,0.500000),scale(0.080293,1.000000),translate(-0.519693,-0.500000)" id="radialGradient-2">
            <stop stop-color="#2D2C2C" offset="0%"></stop>
            <stop stop-color="#B6B3B3" offset="100%"></stop>
        </radialGradient>
        <filter x="-4.4%" y="-55.1%" width="108.9%" height="210.3%" filterUnits="objectBoundingBox" id="filter-3">
            <feGaussianBlur stdDeviation="0.6640625" in="SourceGraphic"></feGaussianBlur>
        </filter>
    </defs>
    <g id="Support" stroke="none" stroke-width="1" fill="none" fill-rule="evenodd">
        <rect id="Rectangle-3-Copy-36" stroke="#9B9B9B" fill="url(#linearGradient-1)" fill-rule="nonzero" x="0.5" y="0.5" width="149" height="99" rx="6"></rect>
        <ellipse id="Oval-Copy-2" fill="url(#radialGradient-2)" fill-rule="nonzero" opacity="0.313839286" filter="url(#filter-3)" cx="75" cy="78.1463358" rx="22.5" ry="1.806602"></ellipse>
        <g id="noun_support_1002239-copy-5" transform="translate(55.000000, 26.500000)" fill-rule="nonzero">
            <path d="M0.20624296,24.7095977 C-0.0496531795,24.1317082 -0.0496531795,23.472635 0.20624296,22.8947455 L2.53266417,17.6775531 C2.86602032,16.9316073 3.03760177,16.1235141 3.03611309,15.3064711 C3.01735308,9.53731732 6.30414462,4.26708989 11.4932429,1.74583092 C11.9966428,1.49917619 12.6046822,1.70730926 12.8513369,2.21070916 C13.0979917,2.71410906 12.8898586,3.32214848 12.3864587,3.56880322 C7.89786827,5.7525986 5.05729068,10.3148818 5.07832926,15.3064711 C5.07910768,16.4077749 4.84664369,17.4967579 4.39623718,18.5017477 L2.06169583,23.7189401 C2.03819774,23.7725331 2.03847361,23.8335665 2.06245519,23.8869449 C2.08643677,23.9403232 2.13188462,23.981062 2.18755806,23.9990851 L4.37187675,24.7217779 C4.78620064,24.8597752 5.06581746,25.2473143 5.06614904,25.6840149 L5.06614904,31.0433099 C5.06614904,31.881936 5.74598983,32.5617768 6.58461594,32.5617768 L12.0372925,32.5617768 C12.4884116,32.5617768 12.8853964,32.8595154 13.0117098,33.2925897 L14.1444699,37.25928 C14.2105489,37.4612999 14.4212549,37.5781621 14.6276184,37.5272447 L29.2154568,33.3778512 C29.42465,33.3150195 29.5466431,33.0979434 29.4915417,32.8865825 L27.3315834,25.3307887 C27.2408488,24.9841453 27.3396072,24.6153445 27.591428,24.3604315 C30.1304659,21.7333117 31.4426483,18.1565088 31.204892,14.510697 C30.899441,9.87738413 28.1702728,5.74967163 24.0266849,3.65406473 C23.5266485,3.39956188 23.3276042,2.78788695 23.582107,2.28785053 C23.8366099,1.7878141 24.4482848,1.58876981 24.9483212,1.84327265 C29.7225986,4.26944593 32.8642311,9.032815 33.2146276,14.3767147 C33.481032,18.3898193 32.1200304,22.3411141 29.4387608,25.3389088 L31.4403762,32.3547131 C31.7832649,33.6306367 31.0465729,34.947316 29.7798068,35.3226257 L15.1838483,39.4923195 C13.8988982,39.850238 12.5650492,39.1082053 12.1915753,37.8276901 L11.2699389,34.5796325 L6.58867601,34.5796325 C4.62981952,34.5773951 3.04241058,32.9899862 3.04017316,31.0311297 L3.04017316,26.422948 L1.55012676,25.9316793 C0.94976158,25.7322485 0.461645611,25.2883727 0.20624296,24.7095977 Z" id="Shape" fill="#3C4D6F"></path>
            <g id="Group-2" transform="translate(7.000000, 0.000000)" fill="#FF4702">
                <path d="M5.1996954,17.8643164 C5.21155678,15.4885173 6.51944427,13.3087048 8.61015581,12.1802158 C8.57063115,8.6086335 8.32798831,5.0421905 7.88340294,1.49816654 C7.79827575,0.945727636 8.17581161,0.428430894 8.7278979,0.341046041 C9.69865826,0.203631402 10.6811399,0.168251178 11.6592698,0.235484171 C12.3270313,0.280097711 12.9906107,0.373731604 13.644645,0.515629133 C14.0610818,0.607384291 14.3757652,0.949643071 14.4322989,1.37230431 C14.8490215,5.02560971 15.0739873,8.69824514 15.1062709,12.3750992 C17.8500136,14.0928392 18.9025729,17.5736236 17.5703942,20.5238871 C16.2382154,23.4741506 12.9310993,24.9863425 9.82817739,24.0640463 C8.97196543,25.6398474 7.6922423,26.9448838 6.13351194,27.831793 C6.22849926,29.3613005 5.06831636,30.6794425 3.53912599,30.7794052 L3.36048282,30.7794052 C1.89633529,30.7760162 0.68555754,29.6380272 0.591513777,28.1768991 C0.521009602,27.0558858 1.13273018,26.002784 2.14143093,25.508654 C3.15013169,25.0145239 4.35716608,25.1766761 5.1996954,25.9194991 L5.26871663,25.9844603 C6.41102528,25.3106741 7.35504243,24.3470483 8.0052051,23.1911308 C6.25079507,21.9850677 5.20177312,19.9932923 5.1996954,17.8643164 Z M3.41326376,28.7615495 C3.61459707,28.7491918 3.8023769,28.6559427 3.93390118,28.5030075 C4.06542545,28.3500723 4.12951521,28.1504498 4.11159613,27.9495351 C4.07518272,27.5412559 3.71659036,27.2385708 3.30799291,27.2712198 C2.89939547,27.3038687 2.59341829,27.6596561 2.62229998,28.0685371 C2.65118168,28.4774181 3.00413394,28.7866615 3.41326376,28.7615495 Z M10.0352411,2.25333991 C10.3600468,4.94922767 10.5589903,8.57893196 10.6280116,11.4697032 C11.4360271,11.3282184 12.2641184,11.3489207 13.0640547,11.5306042 C13.0031536,8.59517225 12.8204504,4.99794853 12.5118849,2.36296186 C12.1870792,2.31018092 11.8622734,2.27364027 11.5415277,2.25333991 C11.0399275,2.22180047 10.5368413,2.22180047 10.0352411,2.25333991 Z M11.6592698,13.3982373 C9.19272244,13.3982373 7.19319071,15.3977691 7.19319071,17.8643164 C7.19319071,20.3308638 9.19272244,22.3303955 11.6592698,22.3303955 C14.1258172,22.3303955 16.1253489,20.3308638 16.1253489,17.8643164 C16.1253489,15.3977691 14.1258172,13.3982373 11.6592698,13.3982373 Z" id="Combined-Shape"></path>
            </g>
        </g>
    </g>
</svg>