<?xml version="1.0" encoding="UTF-8"?>
<svg width="150px" height="100px" viewBox="0 0 150 100" version="1.1" xmlns="http://www.w3.org/2000/svg" xmlns:xlink="http://www.w3.org/1999/xlink">
    <!-- Generator: Sketch 56.2 (81672) - https://sketch.com -->
    <title>Education</title>
    <desc>Created with Sketch.</desc>
    <defs>
        <linearGradient x1="50%" y1="100%" x2="50%" y2="-2.48949813e-15%" id="linearGradient-1">
            <stop stop-color="#F9F9F9" offset="0%"></stop>
            <stop stop-color="#FFFFFF" offset="100%"></stop>
        </linearGradient>
        <radialGradient cx="51.9692992%" cy="50%" fx="51.9692992%" fy="50%" r="391.453585%" gradientTransform="translate(0.519693,0.500000),scale(0.080293,1.000000),translate(-0.519693,-0.500000)" id="radialGradient-2">
            <stop stop-color="#2D2C2C" offset="0%"></stop>
            <stop stop-color="#B6B3B3" offset="100%"></stop>
        </radialGradient>
    </defs>
    <g id="Education" stroke="none" stroke-width="1" fill="none" fill-rule="evenodd">
        <rect id="Rectangle-3-Copy-66" stroke="#9B9B9B" fill="url(#linearGradient-1)" fill-rule="nonzero" x="0.5" y="0.5" width="149" height="99" rx="6"></rect>
        <ellipse id="Oval-Copy-9" fill="url(#radialGradient-2)" fill-rule="nonzero" opacity="0.313839286" cx="75" cy="78.1463358" rx="22.5" ry="1.806602"></ellipse>
        <rect id="Rectangle-Copy" fill="#FFD0D0" fill-rule="nonzero" opacity="0" x="54" y="31" width="40" height="40"></rect>
        <g id="Group" transform="translate(55.000000, 39.151869)" fill-rule="nonzero">
            <path d="M19.6021537,0.000834429614 C19.4577033,0.00459040094 19.3148713,0.0322353072 19.1794512,0.0826478212 L0.853251448,7.06405724 C0.340315951,7.25460801 -5.32907052e-14,7.7440722 -5.32907052e-14,8.29125811 C-5.32907052e-14,8.83844402 0.340315951,9.32790822 0.853251448,9.51845899 L6.98925582,11.8501406 L6.98925582,19.1997103 C6.98925582,20.2515683 7.59591804,21.1476457 8.35281235,21.7768322 C9.10970665,22.4060186 10.0651845,22.8665193 11.1890099,23.2494732 C13.4366607,24.0153814 16.3756866,24.4357674 19.6430604,24.4357674 C22.9104342,24.4357674 25.8494601,24.0153814 28.0971109,23.2494732 C29.2209363,22.8665193 30.1764141,22.4060186 30.9333084,21.7768322 C31.6902027,21.1476457 32.296865,20.2515683 32.296865,19.1997103 L32.296865,15.7090056 C32.3035413,15.2369281 32.0555151,14.7978252 31.6477603,14.5598381 C31.2400056,14.321851 30.7356958,14.321851 30.3279411,14.5598381 C29.9201863,14.7978252 29.6721601,15.2369281 29.6788364,15.7090056 L29.6788364,19.1997103 C29.6788364,19.2833912 29.6547767,19.4387206 29.2697695,19.7587685 C28.8847604,20.0788164 28.1758825,20.4665141 27.2517058,20.7814359 C25.4033528,21.4112795 22.681252,21.8177389 19.6430604,21.8177389 C16.6048688,21.8177389 13.882768,21.4112795 12.034415,20.7814359 C11.1102382,20.4665141 10.4013603,20.0788164 10.0163513,19.7587685 C9.63134229,19.4387206 9.60728435,19.2833912 9.60728435,19.1997103 L9.60728435,12.8591725 L19.1794512,16.4998684 C19.478174,16.612986 19.8079468,16.612986 20.1066696,16.4998684 L38.4328693,9.51845899 C38.9458048,9.32790822 39.2861208,8.83844402 39.2861208,8.29125811 C39.2861208,7.7440722 38.9458048,7.25460801 38.4328693,7.06405724 L20.1066696,0.0826478212 C19.9455062,0.0224945148 19.7740675,-0.00530634681 19.6021537,0.000834429614 Z M19.6430604,2.71431192 L34.2876575,8.29125811 L19.6430604,13.8682043 L4.99846329,8.29125811 L19.6430604,2.71431192 Z" id="Shape-Copy" fill="#3C4D6F"></path>
            <path d="M35.368356,12.9664522 L35.368356,19.4932329 C35.368356,20.1835888 35.9280001,20.7432329 36.618356,20.7432329 C37.3087119,20.7432329 37.868356,20.1835888 37.868356,19.4932329 L37.868356,12.9664522 C37.868356,12.2760963 37.3087119,11.7164522 36.618356,11.7164522 C35.9280001,11.7164522 35.368356,12.2760963 35.368356,12.9664522 Z" id="Line-4-Copy" fill="#FF4702"></path>
        </g>
    </g>
</svg>