<?xml version="1.0" encoding="UTF-8"?>
<svg width="150px" height="100px" viewBox="0 0 150 100" version="1.1" xmlns="http://www.w3.org/2000/svg" xmlns:xlink="http://www.w3.org/1999/xlink">
    <!-- Generator: Sketch 56.2 (81672) - https://sketch.com -->
    <title>Sports</title>
    <desc>Created with Sketch.</desc>
    <defs>
        <linearGradient x1="50%" y1="100%" x2="50%" y2="-2.48949813e-15%" id="linearGradient-1">
            <stop stop-color="#F9F9F9" offset="0%"></stop>
            <stop stop-color="#FFFFFF" offset="100%"></stop>
        </linearGradient>
        <radialGradient cx="51.9692899%" cy="50%" fx="51.9692899%" fy="50%" r="391.455643%" gradientTransform="translate(0.519693,0.500000),scale(0.080293,1.000000),translate(-0.519693,-0.500000)" id="radialGradient-2">
            <stop stop-color="#2D2C2C" offset="0%"></stop>
            <stop stop-color="#B6B3B3" offset="100%"></stop>
        </radialGradient>
        <filter x="-4.4%" y="-55.1%" width="108.9%" height="210.3%" filterUnits="objectBoundingBox" id="filter-3">
            <feGaussianBlur stdDeviation="0.6640625" in="SourceGraphic"></feGaussianBlur>
        </filter>
    </defs>
    <g id="Sports" stroke="none" stroke-width="1" fill="none" fill-rule="evenodd">
        <rect id="Rectangle-3-Copy-63" stroke="#9B9B9B" fill="url(#linearGradient-1)" fill-rule="nonzero" x="0.5" y="0.5" width="149" height="99" rx="6"></rect>
        <ellipse id="Oval-Copy-6" fill="url(#radialGradient-2)" fill-rule="nonzero" opacity="0.313839286" filter="url(#filter-3)" cx="75" cy="78.1463358" rx="22.5" ry="1.806602"></ellipse>
        <g id="noun_Sports_909439-(1)-Copy" transform="translate(75.500000, 49.500000) rotate(4.000000) translate(-75.500000, -49.500000) translate(55.500000, 29.500000)" fill="#3C4D6F" fill-rule="nonzero">
            <path d="M5.97510395,5.97510395 C2.27623007,9.72139928 0.237107299,14.6532311 0.237107299,19.9170132 C0.237107299,25.1807952 2.27623007,30.112627 6.02252541,33.8589224 C9.86366366,37.7000606 14.8903384,39.596919 19.9644346,39.596919 C25.0385308,39.596919 30.0652056,37.7000606 33.9063438,33.8589224 C37.6052177,30.1600485 39.6917619,25.1807952 39.6917619,19.9170132 C39.6917619,14.6532311 37.6526392,9.72139928 33.9063438,5.97510395 C26.1766459,-1.70717256 13.6573804,-1.70717256 5.97510395,5.97510395 Z M25.7498527,12.0450508 C23.7107299,9.5791349 22.6200364,6.44931854 22.5726149,3.27208073 C25.5127454,3.74629533 28.358033,4.97925329 30.7765275,7.01837606 L25.7498527,12.0450508 Z M23.7581514,14.0841736 L19.9170132,17.9253118 L9.05749884,7.06579752 C12.1398937,4.45761723 15.9336105,3.12981635 19.7273273,3.08239489 C19.7273273,7.11321898 21.1499711,11.0017787 23.7581514,14.0841736 Z M17.9253118,19.9170132 L14.0841736,23.7581514 C11.0017787,21.1499711 7.11321898,19.7273273 3.08239489,19.7747488 C3.12981635,15.8387676 4.50503869,12.0924723 7.06579752,9.1049203 L17.9253118,19.9170132 Z M14.0841736,27.7889755 C16.1232964,30.2548914 17.2139899,33.3372863 17.2614114,36.5619456 C14.3212809,36.087731 11.4759933,34.854773 9.05749884,32.8156502 L14.0841736,27.7889755 Z M16.0758749,25.7498527 L19.9170132,21.9087145 L30.7765275,32.7682288 C27.6941326,35.3764091 23.9004158,36.70421 20.106699,36.7516314 C20.106699,32.7208073 18.6840552,28.8322476 16.0758749,25.7498527 Z M21.9087145,19.9170132 L25.7024313,16.1232964 C28.7848262,18.7314767 32.6259644,20.106699 36.609367,20.106699 C36.6567885,20.106699 36.6567885,20.106699 36.70421,20.106699 C36.6567885,24.0426802 35.2815662,27.7889755 32.7208073,30.7765275 L21.9087145,19.9170132 Z M27.7889755,14.0841736 L32.8156502,9.05749884 C34.8073516,11.4285718 36.087731,14.226438 36.5619456,17.2614114 C33.3372863,17.2139899 30.2548914,16.1232964 27.7889755,14.0841736 Z M3.27208073,22.5726149 C6.49674,22.6200364 9.5791349,23.7107299 12.0450508,25.7498527 L7.06579752,30.7765275 C5.02667475,28.4054545 3.74629533,25.6075883 3.27208073,22.5726149 Z" id="Shape"></path>
        </g>
    </g>
</svg>