<?xml version="1.0" encoding="UTF-8"?>
<svg width="150px" height="100px" viewBox="0 0 150 100" version="1.1" xmlns="http://www.w3.org/2000/svg" xmlns:xlink="http://www.w3.org/1999/xlink">
    <!-- Generator: Sketch 60 (88103) - https://sketch.com -->
    <title>HR</title>
    <desc>Created with Sketch.</desc>
    <defs>
        <linearGradient x1="50%" y1="100%" x2="50%" y2="-2.48949813e-15%" id="linearGradient-1">
            <stop stop-color="#F9F9F9" offset="0%"></stop>
            <stop stop-color="#FFFFFF" offset="100%"></stop>
        </linearGradient>
        <radialGradient cx="51.9692899%" cy="50%" fx="51.9692899%" fy="50%" r="391.455643%" gradientTransform="translate(0.519693,0.500000),scale(0.080293,1.000000),translate(-0.519693,-0.500000)" id="radialGradient-2">
            <stop stop-color="#2D2C2C" offset="0%"></stop>
            <stop stop-color="#B6B3B3" offset="100%"></stop>
        </radialGradient>
        <filter x="-4.4%" y="-55.1%" width="108.9%" height="210.3%" filterUnits="objectBoundingBox" id="filter-3">
            <feGaussianBlur stdDeviation="0.6640625" in="SourceGraphic"></feGaussianBlur>
        </filter>
    </defs>
    <g id="HR" stroke="none" stroke-width="1" fill="none" fill-rule="evenodd">
        <g id="Group-2" transform="translate(0.500000, 0.500000)" fill-rule="nonzero">
            <rect id="Rectangle-3-Copy-66" stroke="#9B9B9B" fill="url(#linearGradient-1)" x="0" y="0" width="149" height="99" rx="6"></rect>
            <ellipse id="Oval-Copy-9" fill="url(#radialGradient-2)" opacity="0.313839286" filter="url(#filter-3)" cx="74.5" cy="77.6463358" rx="22.5" ry="1.806602"></ellipse>
            <g id="Group" transform="translate(51.500000, 35.500000)">
                <path d="M26.6312785,15.5 C29.8696754,15.5 32.5088502,18.0655749 32.62714,21.2750617 L32.6312785,21.5 L32.6312785,29.5 C32.6312785,30.0128358 32.2452383,30.4355072 31.7478996,30.4932723 L31.6312785,30.5 L18.5992773,30.5 C18.0469925,30.5 17.5992773,30.0522847 17.5992773,29.5 C17.5992773,28.9871642 17.9853175,28.5644928 18.4826562,28.5067277 L18.5992773,28.5 L30.631,28.5 L30.6312785,21.5 C30.6312785,19.3578046 28.94731,17.6089211 26.8309188,17.5048953 L26.6312785,17.5 L18,17.5 C15.8578046,17.5 14.1089211,19.1839685 14.0048953,21.3003597 L14,21.5 L14,29.5 C14,30.0522847 13.5522847,30.5 13,30.5 C12.4871642,30.5 12.0644928,30.1139598 12.0067277,29.6166211 L12,29.5 L12,21.5 C12,18.2616031 14.5655749,15.6224282 17.7750617,15.5041385 L18,15.5 L26.6312785,15.5 Z" id="Path-9" fill="#FF4702"></path>
                <path d="M39,13.7770898 C42.2383969,13.7770898 44.8775718,16.3426647 44.9958615,19.5521516 L45,19.7770898 L45,24.7770898 C45,25.2899257 44.6139598,25.712597 44.1166211,25.7703621 L44,25.7770898 L39.5419683,25.7770898 C38.9896836,25.7770898 38.5419683,25.3293746 38.5419683,24.7770898 C38.5419683,24.264254 38.9280085,23.8415827 39.4253472,23.7838175 L39.5419683,23.7770898 L43,23.777 L43,19.7770898 C43,17.6348944 41.3160315,15.8860109 39.1996403,15.7819851 L39,15.7770898 L34,15.7770898 C33.4477153,15.7770898 33,15.3293746 33,14.7770898 C33,14.264254 33.3860402,13.8415827 33.8833789,13.7838175 L34,13.7770898 L39,13.7770898 Z" id="Path-9-Copy" fill="#3C4D6F"></path>
                <path d="M6,13.7770898 C9.23839694,13.7770898 11.8775718,16.3426647 11.9958615,19.5521516 L12,19.7770898 L12,24.7770898 C12,25.2899257 11.6139598,25.712597 11.1166211,25.7703621 L11,25.7770898 L6.54196833,25.7770898 C5.98968358,25.7770898 5.54196833,25.3293746 5.54196833,24.7770898 C5.54196833,24.264254 5.92800852,23.8415827 6.4253472,23.7838175 L6.54196833,23.7770898 L10,23.777 L10,19.7770898 C10,17.6348944 8.31603153,15.8860109 6.19964034,15.7819851 L6,15.7770898 L1,15.7770898 C0.44771525,15.7770898 0,15.3293746 0,14.7770898 C0,14.264254 0.38604019,13.8415827 0.883378875,13.7838175 L1,13.7770898 L6,13.7770898 Z" id="Path-9-Copy-2" fill="#3C4D6F" transform="translate(6.000000, 19.777090) scale(-1, 1) translate(-6.000000, -19.777090) "></path>
                <path d="M22,0 C18.1340068,0 15,3.13400675 15,7 C15,10.8659932 18.1340068,14 22,14 C25.8659932,14 29,10.8659932 29,7 C29,3.13400675 25.8659932,0 22,0 Z M22,2 C24.7614237,2 27,4.23857625 27,7 C27,9.76142375 24.7614237,12 22,12 C19.2385763,12 17,9.76142375 17,7 C17,4.23857625 19.2385763,2 22,2 Z" id="Oval" fill="#FF4702"></path>
                <path d="M8,4 C5.790861,4 4,5.790861 4,8 C4,10.209139 5.790861,12 8,12 C10.209139,12 12,10.209139 12,8 C12,5.790861 10.209139,4 8,4 Z M8,6 C9.1045695,6 10,6.8954305 10,8 C10,9.1045695 9.1045695,10 8,10 C6.8954305,10 6,9.1045695 6,8 C6,6.8954305 6.8954305,6 8,6 Z" id="Oval-Copy" fill="#3C4D6F"></path>
                <path d="M36,4 C33.790861,4 32,5.790861 32,8 C32,10.209139 33.790861,12 36,12 C38.209139,12 40,10.209139 40,8 C40,5.790861 38.209139,4 36,4 Z M36,6 C37.1045695,6 38,6.8954305 38,8 C38,9.1045695 37.1045695,10 36,10 C34.8954305,10 34,9.1045695 34,8 C34,6.8954305 34.8954305,6 36,6 Z" id="Oval-Copy-2" fill="#3C4D6F"></path>
            </g>
        </g>
    </g>
</svg>