<svg width="150" height="100" viewBox="0 0 150 100" fill="none" xmlns="http://www.w3.org/2000/svg">
<g clip-path="url(#clip0_29_3)">
<path d="M143.5 0.5H6.5C3.18629 0.5 0.5 3.18629 0.5 6.5V93.5C0.5 96.8137 3.18629 99.5 6.5 99.5H143.5C146.814 99.5 149.5 96.8137 149.5 93.5V6.5C149.5 3.18629 146.814 0.5 143.5 0.5Z" fill="url(#paint0_linear_29_3)" stroke="#9B9B9B"/>
<path opacity="0.313839" d="M75 79.953C87.4264 79.953 97.5 79.1442 97.5 78.1464C97.5 77.1487 87.4264 76.3398 75 76.3398C62.5736 76.3398 52.5 77.1487 52.5 78.1464C52.5 79.1442 62.5736 79.953 75 79.953Z" fill="url(#paint1_radial_29_3)"/>
<path d="M84.0676 56.5914C81.8018 53.841 75.9108 49.681 70.4729 55.0444H67.0419C65.7602 55.0444 64.7212 56.0833 64.7212 57.3651C64.7212 58.6467 65.7603 59.6858 67.0419 59.6858H72.5644" stroke="#283A5E" stroke-linecap="round" stroke-linejoin="round"/>
<path d="M81.4531 69.9999L90.342 61.2327L85.1133 56.0757L76.2244 64.8427L81.4531 69.9999Z" stroke="#283A5E" stroke-linejoin="round"/>
<path d="M77.7932 63.2957H64.7213L53.9629 53.6074C53.236 52.9528 53.1027 51.8627 53.6505 51.0523C54.2717 50.1334 55.5306 49.9121 56.4278 50.5642L64.7213 56.5914" stroke="#283A5E" stroke-linecap="round" stroke-linejoin="round"/>
<path fill-rule="evenodd" clip-rule="evenodd" d="M57.271 40.7352H56.5226C56.24 40.7352 56.0108 40.9644 56.0101 41.247C56.0101 44.0255 58.2708 46.2859 61.049 46.2859C63.8276 46.2859 66.088 44.0252 66.088 41.247C66.088 40.9644 65.8588 40.7352 65.5762 40.7352H64.8278L62.32 36.2471C62.6262 35.9294 62.8152 35.4976 62.8152 35.0224C62.8152 34.7574 62.7561 34.506 62.651 34.2801H68.5445C68.7156 34.8431 69.1603 35.2878 69.7229 35.4585V47.1183H70.7464V35.4585C71.3095 35.2878 71.7541 34.8431 71.9248 34.2801H77.8184C77.7133 34.506 77.6541 34.7574 77.6541 35.0224C77.6541 35.4976 77.8435 35.9294 78.1497 36.2471L75.6419 40.7352H74.8935C74.6109 40.7352 74.3817 40.9644 74.3817 41.247C74.3817 44.0255 76.6425 46.2859 79.4207 46.2859C82.1992 46.2859 84.4596 44.0252 84.4596 41.247C84.4596 40.9644 84.2304 40.7352 83.9478 40.7352H83.1994L80.6916 36.2475C80.9979 35.9297 81.1869 35.498 81.1869 35.0228C81.1869 34.0488 80.3943 33.2566 79.4207 33.2566H71.9252C71.7545 32.6936 71.3098 32.2489 70.7468 32.0782V30.5117C70.7468 30.2292 70.5176 30 70.235 30C69.9524 30 69.7233 30.2292 69.7233 30.5117V32.0778C69.1603 32.2485 68.7156 32.6932 68.5449 33.2562H61.0494C60.0754 33.2562 59.2832 34.0488 59.2832 35.0224C59.2832 35.4976 59.4726 35.9294 59.7788 36.2471L57.271 40.7352ZM61.0494 35.7648C60.6402 35.7648 60.3071 35.4316 60.3071 35.0224C60.3071 34.6133 60.6402 34.2801 61.0494 34.2801C61.4586 34.2801 61.7917 34.6133 61.7917 35.0224C61.7917 35.4316 61.4586 35.7648 61.0494 35.7648ZM78.6787 35.0224C78.6787 34.6133 79.0118 34.2801 79.421 34.2801C79.8302 34.2801 80.1634 34.6133 80.1634 35.0224C80.1634 35.4316 79.8302 35.7648 79.421 35.7648C79.0118 35.7648 78.6787 35.4316 78.6787 35.0224ZM83.4035 41.7591C83.1514 43.7318 81.4616 45.262 79.421 45.262C77.3805 45.262 75.6907 43.7322 75.4382 41.7591H83.4035ZM79.7986 36.7477L82.0267 40.7352L76.8153 40.7356L79.0434 36.7481C79.1653 36.7746 79.2916 36.789 79.421 36.789C79.5505 36.789 79.6771 36.7743 79.7986 36.7477ZM70.9774 33.7684C70.9774 34.1775 70.6442 34.5107 70.235 34.5107C69.8258 34.5107 69.4927 34.1775 69.4927 33.7684C69.4927 33.3592 69.8266 33.0264 70.2357 33.026C70.6446 33.0264 70.9774 33.3592 70.9774 33.7684ZM61.0494 36.789C61.1789 36.789 61.3055 36.7743 61.427 36.7477L63.6551 40.7356H58.4437L60.6718 36.7481C60.7937 36.7746 60.9199 36.789 61.0494 36.789ZM65.0318 41.7591C64.7797 43.7318 63.0899 45.262 61.0494 45.262C59.0089 45.262 57.3191 43.7322 57.067 41.7591H65.0318Z" fill="#FF4800"/>
<path fill-rule="evenodd" clip-rule="evenodd" d="M70.7464 47.1183H73.2478C74.3997 47.1183 75.3364 48.0553 75.3364 49.2068V50.1335C75.3364 50.4161 75.1072 50.6453 74.8246 50.6453H65.6447C65.3621 50.6453 65.133 50.4161 65.133 50.1335V49.2068C65.133 48.055 66.07 47.1183 67.2216 47.1183H69.7229H70.7464ZM66.1572 49.6221V49.2072C66.1572 48.6198 66.6349 48.1421 67.2219 48.1421H73.2481C73.8356 48.1421 74.3132 48.6201 74.3132 49.2072V49.6221H66.1572Z" fill="#FF4800"/>
</g>
<defs>
<linearGradient id="paint0_linear_29_3" x1="7450.5" y1="9900.5" x2="7450.5" y2="0.5" gradientUnits="userSpaceOnUse">
<stop stop-color="#F9F9F9"/>
<stop offset="1" stop-color="white"/>
</linearGradient>
<radialGradient id="paint1_radial_29_3" cx="0" cy="0" r="1" gradientUnits="userSpaceOnUse" gradientTransform="translate(192.468 257) scale(1414.39 1414.4)">
<stop stop-color="#2D2C2C"/>
<stop offset="1" stop-color="#B6B3B3"/>
</radialGradient>
<clipPath id="clip0_29_3">
<rect width="150" height="100" fill="white"/>
</clipPath>
</defs>
</svg>
