<?xml version="1.0" encoding="UTF-8"?>
<svg width="150px" height="100px" viewBox="0 0 150 100" version="1.1" xmlns="http://www.w3.org/2000/svg" xmlns:xlink="http://www.w3.org/1999/xlink">
    <!-- Generator: Sketch 56.2 (81672) - https://sketch.com -->
    <title>Predictive Analytics</title>
    <desc>Created with Sketch.</desc>
    <defs>
        <linearGradient x1="50%" y1="100%" x2="50%" y2="-2.48949813e-15%" id="linearGradient-1">
            <stop stop-color="#F9F9F9" offset="0%"></stop>
            <stop stop-color="#FFFFFF" offset="100%"></stop>
        </linearGradient>
        <radialGradient cx="51.9692992%" cy="50%" fx="51.9692992%" fy="50%" r="391.453585%" gradientTransform="translate(0.519693,0.500000),scale(0.080293,1.000000),translate(-0.519693,-0.500000)" id="radialGradient-2">
            <stop stop-color="#2D2C2C" offset="0%"></stop>
            <stop stop-color="#B6B3B3" offset="100%"></stop>
        </radialGradient>
    </defs>
    <g id="Predictive-Analytics" stroke="none" stroke-width="1" fill="none" fill-rule="evenodd">
        <rect id="Rectangle-3-Copy-66" stroke="#9B9B9B" fill="url(#linearGradient-1)" fill-rule="nonzero" x="0.5" y="0.5" width="149" height="99" rx="6"></rect>
        <ellipse id="Oval-Copy-9" fill="url(#radialGradient-2)" fill-rule="nonzero" opacity="0.313839286" cx="75" cy="78.1463358" rx="22.5" ry="1.806602"></ellipse>
        <g id="Group" transform="translate(55.500000, 31.250000)" fill-rule="nonzero">
            <path d="M25.6286922,23.7195033 L33.9107992,32.0016104 C34.438007,32.5288182 34.438007,33.3835909 33.9107992,33.9107987 C33.3835914,34.4380065 32.5288187,34.4380065 32.0016109,33.9107987 L23.719504,25.6286917 C18.0820085,30.3039425 9.70655049,30.0005157 4.42444612,24.7184113 C-1.17957746,19.1143877 -1.17957746,10.0284703 4.42444612,4.42444669 C10.0284697,-1.1795769 19.1143872,-1.1795769 24.7184107,4.42444669 C30.0005147,9.70655067 30.3039419,18.0820079 25.6286922,23.7195033 Z M22.8092224,22.809223 C27.3588304,18.259615 27.3588304,10.883243 22.8092224,6.333635 C18.2596144,1.784027 10.8832424,1.784027 6.33363443,6.333635 C1.78402643,10.883243 1.78402643,18.259615 6.33363443,22.809223 C10.8832424,27.358831 18.2596144,27.358831 22.8092224,22.809223 Z" id="Combined-Shape" fill="#3C4D6F"></path>
            <path d="M19.8117104,11.3300516 L16.8579658,11.3111263 C16.4437608,11.3084724 16.1101326,10.9705414 16.1127865,10.5563364 C16.1154404,10.1421313 16.4533714,9.80850318 16.8675764,9.81115708 L21.4590633,9.8405757 C21.8124257,9.84283977 22.1162727,10.0914544 22.1884475,10.4373748 L23.0836546,14.727935 C23.1682566,15.1334166 22.9081322,15.5307079 22.5026506,15.61531 C22.0971689,15.699912 21.6998776,15.4397876 21.6152756,15.034306 L21.0262663,12.2112948 L15.1660092,19.8335143 C14.8955878,20.1852414 14.3806141,20.2266303 14.0574894,19.9226071 L9.36621472,15.5086558 L6.47597395,19.7956364 C6.24442379,20.1390856 5.77829465,20.2297978 5.43484539,19.9982476 C5.09139612,19.7666974 5.00068398,19.3005683 5.23223415,18.957119 L8.6156947,13.9385649 C8.87419554,13.5551408 9.41471705,13.4947166 9.75150377,13.8115942 L14.481893,18.2623478 L19.8117104,11.3300516 Z" id="Combined-Shape" fill="#FF4702"></path>
        </g>
    </g>
</svg>