<?xml version="1.0" encoding="UTF-8"?>
<svg width="150px" height="100px" viewBox="0 0 150 100" version="1.1" xmlns="http://www.w3.org/2000/svg" xmlns:xlink="http://www.w3.org/1999/xlink">
    <!-- Generator: Sketch 57.1 (83088) - https://sketch.com -->
    <title>Pharmaceutical</title>
    <desc>Created with Sketch.</desc>
    <defs>
        <linearGradient x1="50%" y1="100%" x2="50%" y2="-2.48949813e-15%" id="linearGradient-1">
            <stop stop-color="#F9F9F9" offset="0%"></stop>
            <stop stop-color="#FFFFFF" offset="100%"></stop>
        </linearGradient>
        <radialGradient cx="51.9692992%" cy="50%" fx="51.9692992%" fy="50%" r="391.453585%" gradientTransform="translate(0.519693,0.500000),scale(0.080293,1.000000),translate(-0.519693,-0.500000)" id="radialGradient-2">
            <stop stop-color="#2D2C2C" offset="0%"></stop>
            <stop stop-color="#B6B3B3" offset="100%"></stop>
        </radialGradient>
    </defs>
    <g id="Pharmaceutical" stroke="none" stroke-width="1" fill="none" fill-rule="evenodd">
        <rect id="Rectangle-3-Copy-66" stroke="#9B9B9B" fill="url(#linearGradient-1)" fill-rule="nonzero" x="0.5" y="0.5" width="149" height="99" rx="6"></rect>
        <ellipse id="Oval-Copy-9" fill="url(#radialGradient-2)" fill-rule="nonzero" opacity="0.313839286" cx="75" cy="78.1463358" rx="22.5" ry="1.806602"></ellipse>
        <g id="Group" transform="translate(54.000000, 28.000000)">
            <path d="M32.2132034,6.05025253 C34.9468735,8.78392257 34.9468735,13.2160774 32.2132034,15.9497475 L15.9497475,32.2132034 C13.2160774,34.9468735 8.78392257,34.9468735 6.05025253,32.2132034 C3.31658249,29.4795334 3.31658249,25.0473785 6.05025253,22.3137085 L22.3137085,6.05025253 C25.0473785,3.31658249 29.4795334,3.31658249 32.2132034,6.05025253 Z M23.7279221,7.46446609 L7.46446609,23.7279221 C5.51184464,25.6805435 5.51184464,28.8463684 7.46446609,30.7989899 C7.66140174,30.9959255 7.87067828,31.1729988 8.08980636,31.3302098 C7.17824681,29.9696776 7.3234456,28.1115832 8.52512627,26.9099026 L18.6874357,16.7475931 L23.6371832,21.6973406 L30.7989899,14.5355339 C32.7516113,12.5829124 32.7516113,9.41708755 30.7989899,7.46446609 C28.8463684,5.51184464 25.6805435,5.51184464 23.7279221,7.46446609 Z" id="Combined-Shape" fill="#F94702" fill-rule="nonzero" transform="translate(19.131728, 19.131728) rotate(-13.000000) translate(-19.131728, -19.131728) "></path>
            <path d="M27.471964,26.547235 L27.471964,34.547235 C23.053686,34.547235 19.471964,30.965513 19.471964,26.547235 L27.471964,26.547235 Z M37.471964,26.547235 C37.471964,30.965513 33.890242,34.547235 29.471964,34.547235 L29.471964,34.547235 L29.471964,26.547235 Z" id="Combined-Shape" fill="#3B4D6F" transform="translate(28.471964, 30.547235) rotate(-58.000000) translate(-28.471964, -30.547235) "></path>
            <polygon id="+" fill="#3B4D6F" fill-rule="nonzero" points="35.9950382 11.983927 37.9478159 11.983927 37.9478159 15.9844826 41.9694826 15.9844826 41.9694826 17.778927 37.9478159 17.778927 37.9478159 21.8111493 35.9950382 21.8111493 35.9950382 17.778927 31.983927 17.778927 31.983927 15.9844826 35.9950382 15.9844826"></polygon>
        </g>
    </g>
</svg>