<svg id="Layer_1" data-name="Layer 1" xmlns="http://www.w3.org/2000/svg" xmlns:xlink="http://www.w3.org/1999/xlink" viewBox="0 0 150 100"><defs><style>.cls-1{stroke:#9b9b9b;fill:url(#linear-gradient);}.cls-2{opacity:0.31;isolation:isolate;fill:url(#radial-gradient);}.cls-3{fill:#3b4d6f;}.cls-4,.cls-7{fill:none;stroke-miterlimit:10;}.cls-4{stroke:#fff;stroke-width:2px;}.cls-5{fill:#f94702;}.cls-6{fill:#fff;}.cls-7{stroke:#3b4d6f;}</style><linearGradient id="linear-gradient" x1="-265.7" y1="585.06" x2="-265.7" y2="586.06" gradientTransform="matrix(149, 0, 0, -99, 39664.5, 58020.5)" gradientUnits="userSpaceOnUse"><stop offset="0" stop-color="#f9f9f9"/><stop offset="1" stop-color="#fff"/></linearGradient><radialGradient id="radial-gradient" cx="-193.31" cy="455.16" r="3.91" gradientTransform="matrix(3.61, 0, 0, -3.61, 774.34, 1722.74)" gradientUnits="userSpaceOnUse"><stop offset="0" stop-color="#2d2c2c"/><stop offset="1" stop-color="#b6b3b3"/></radialGradient></defs><title>Supply Chain</title><g id="Pharmaceutical"><rect id="Rectangle-3-Copy-66" class="cls-1" x="0.5" y="0.5" width="149" height="99" rx="6"/><ellipse id="Oval-Copy-9" class="cls-2" cx="75" cy="78.15" rx="22.5" ry="1.81"/><rect class="cls-3" x="50" y="34.32" width="31.57" height="23.15" rx="2"/><line class="cls-4" x1="55" y1="40" x2="67" y2="40"/><line class="cls-4" x1="55" y1="44" x2="67" y2="44"/><path class="cls-5" d="M98.27,57.47H85.72a2.1,2.1,0,0,1-2.1-2.1V40.63a1,1,0,0,1,1-1.05h4.75a6.34,6.34,0,0,1,5.49,3.18L97.3,47l1,1,2.43,5.67a2.72,2.72,0,0,1-.58,3h0A2.72,2.72,0,0,1,98.27,57.47Z"/><path class="cls-6" d="M85.72,41.69h3.42a5,5,0,0,1,5,5V47a1,1,0,0,1-1,1H86.72a1,1,0,0,1-1-1V41.69A0,0,0,0,1,85.72,41.69Z"/><circle class="cls-6" cx="56.84" cy="56.94" r="5.16"/><circle class="cls-6" cx="66.84" cy="56.94" r="5.16"/><circle class="cls-7" cx="66.84" cy="56.94" r="3.16"/><circle class="cls-7" cx="56.84" cy="56.94" r="3.16"/><circle class="cls-6" cx="92.56" cy="56.94" r="5.16"/><circle class="cls-7" cx="92.56" cy="56.94" r="3.16"/></g></svg>