<svg width="151" height="101" viewBox="0 0 151 101" fill="none" xmlns="http://www.w3.org/2000/svg">
<g id="Survey Analysis">
<rect id="Rectangle-3-Copy-66" x="1" y="1" width="149" height="99" rx="6" fill="url(#paint0_linear)" stroke="#9B9B9B"/>
<g id="Group 16">
<g id="Group 15">
<path id="Line 14 (Stroke)" fill-rule="evenodd" clip-rule="evenodd" d="M61.7276 32.3639C61.7276 31.912 62.0939 31.5457 62.5458 31.5457H83.8191C84.271 31.5457 84.6373 31.912 84.6373 32.3639C84.6373 32.8157 84.271 33.1821 83.8191 33.1821H62.5458C62.0939 33.1821 61.7276 32.8157 61.7276 32.3639Z" fill="#283A5E"/>
<path id="Line 15 (Stroke)" fill-rule="evenodd" clip-rule="evenodd" d="M61.7276 38.0913C61.7276 37.6394 62.0939 37.2731 62.5458 37.2731H76.4553C76.9072 37.2731 77.2735 37.6394 77.2735 38.0913C77.2735 38.5432 76.9072 38.9095 76.4553 38.9095H62.5458C62.0939 38.9095 61.7276 38.5432 61.7276 38.0913Z" fill="#283A5E"/>
<path id="Line 16 (Stroke)" fill-rule="evenodd" clip-rule="evenodd" d="M61.7276 44.6371C61.7276 44.1852 62.0939 43.8188 62.5458 43.8188H71.546C71.9979 43.8188 72.3642 44.1852 72.3642 44.6371C72.3642 45.0889 71.9979 45.4553 71.546 45.4553H62.5458C62.0939 45.4553 61.7276 45.0889 61.7276 44.6371Z" fill="#283A5E"/>
</g>
<path id="Subtract" fill-rule="evenodd" clip-rule="evenodd" d="M58.4546 25C57.099 25 56 26.099 56 27.4546V63.4556C56 64.8112 57.099 65.9102 58.4546 65.9102H74.8187V64.2738H58.4546C58.0027 64.2738 57.6364 63.9075 57.6364 63.4556V27.4546C57.6364 27.0027 58.0027 26.6364 58.4546 26.6364H87.91C88.3619 26.6364 88.7282 27.0027 88.7282 27.4546V45.4551H90.3646V27.4546C90.3646 26.099 89.2656 25 87.91 25H58.4546Z" fill="#283A5E"/>
<g id="Group 14">
<path id="Ellipse 1 (Stroke)" fill-rule="evenodd" clip-rule="evenodd" d="M79.7277 47.0915C76.5646 47.0915 74.0003 49.6557 74.0003 52.8189C74.0003 55.9821 76.5646 58.5463 79.7277 58.5463C82.8909 58.5463 85.4552 55.9821 85.4552 52.8189C85.4552 49.6557 82.8909 47.0915 79.7277 47.0915ZM72.3639 52.8189C72.3639 48.752 75.6608 45.4551 79.7277 45.4551C83.7947 45.4551 87.0916 48.752 87.0916 52.8189C87.0916 56.8859 83.7947 60.1828 79.7277 60.1828C75.6608 60.1828 72.3639 56.8859 72.3639 52.8189Z" fill="#FF4702"/>
<path id="Rectangle 3 (Stroke)" fill-rule="evenodd" clip-rule="evenodd" d="M84.4785 59.9735C83.6623 59.1853 83.6396 57.8848 84.4278 57.0686C85.2159 56.2525 86.5165 56.2298 87.3326 57.0179L93.131 62.6174C93.9472 63.4055 93.9699 64.7061 93.1817 65.5222C92.3936 66.3384 91.093 66.3611 90.2769 65.5729L84.4785 59.9735ZM85.6049 58.2054C85.4446 58.3714 85.4492 58.636 85.6152 58.7963L91.4136 64.3958C91.5797 64.5561 91.8442 64.5515 92.0046 64.3855C92.1649 64.2194 92.1603 63.9548 91.9943 63.7945L86.1959 58.195C86.0298 58.0347 85.7652 58.0393 85.6049 58.2054Z" fill="#FF4702"/>
</g>
</g>
<ellipse id="Oval-Copy-9" opacity="0.313839" cx="75.5" cy="78.8066" rx="22.5" ry="1.8066" fill="url(#paint1_radial)"/>
</g>
<defs>
<linearGradient id="paint0_linear" x1="150" y1="100" x2="150" y2="1" gradientUnits="userSpaceOnUse">
<stop stop-color="#F9F9F9"/>
<stop offset="1" stop-color="white"/>
</linearGradient>
<radialGradient id="paint1_radial" cx="0" cy="0" r="1" gradientUnits="userSpaceOnUse" gradientTransform="translate(76.3862 78.8066) scale(14.1439 1.13567)">
<stop stop-color="#2D2C2C"/>
<stop offset="1" stop-color="#B6B3B3"/>
</radialGradient>
</defs>
</svg>
