<svg width="48" height="48" viewBox="0 0 48 48" fill="none" xmlns="http://www.w3.org/2000/svg">
<path d="M9.43495 36H44V17.4021C44 17.4021 42.4625 22.7504 41.0474 24.7275C39.6323 26.7046 36.3125 27.0168 34.4853 26.9296C32.6581 26.8425 27.4889 26.5033 26.0625 26.9296C24.6361 27.356 23.5 29.6833 22.3331 29.7566C21.1662 29.8299 16.4632 29.0768 14.7875 30.2166C13.1118 31.3565 12.7375 32.3499 11.3026 33.0525C9.86763 33.7551 8.125 33.4165 6.87086 33.8816C5.61671 34.3468 3 36 3 36H9.43495Z" fill="url(#paint0_linear_301_13739)"/>
<path d="M30.2478 12.6414C30.4451 12.3391 30.8879 12.3391 31.0852 12.6414L34.1617 17.3543C34.3788 17.6869 34.1402 18.1277 33.743 18.1277L27.59 18.1277C27.1928 18.1277 26.9542 17.6869 27.1713 17.3543L30.2478 12.6414Z" fill="#008625"/>
<path d="M15.4187 17.9969C15.2214 18.2992 14.7786 18.2992 14.5813 17.9969L11.5048 13.284C11.2877 12.9514 11.5263 12.5107 11.9235 12.5107H18.0765C18.4737 12.5107 18.7123 12.9514 18.4952 13.284L15.4187 17.9969Z" fill="#F25858"/>
<defs>
<linearGradient id="paint0_linear_301_13739" x1="36.825" y1="25.4169" x2="37.9341" y2="36.608" gradientUnits="userSpaceOnUse">
<stop offset="0.473958" stop-color="#3FA2FF"/>
<stop offset="1" stop-color="#0083FF"/>
</linearGradient>
</defs>
</svg>
