<svg width="48" height="48" viewBox="0 0 48 48" fill="none" xmlns="http://www.w3.org/2000/svg">
<path fill-rule="evenodd" clip-rule="evenodd" d="M6.94041 41.5511C8.40892 41.6792 9.70924 40.6076 9.84039 39.1508C10.818 28.2922 15.7849 24.5615 26.0553 26.9281C39.8003 30.0954 46.3917 23.7589 44.0278 9.69564C43.7854 8.2536 42.4078 7.28263 40.9537 7.51944C39.4968 7.75671 38.5065 9.11793 38.7494 10.5629C40.4934 20.938 37.2631 24.0789 27.2699 21.7762C13.8007 18.6725 5.77414 24.6485 4.51071 38.6818C4.37941 40.1402 5.47032 41.4228 6.94041 41.5511ZM26.3881 25.4844C15.2304 22.9133 9.42194 27.276 8.3648 39.018C8.30733 39.6563 7.72923 40.1326 7.06922 40.0751C6.4108 40.0176 5.92912 39.4513 5.98644 38.8147C7.17008 25.6676 14.3525 20.3201 26.9373 23.22C37.9718 25.7627 42.1276 21.7219 40.2106 10.3173C40.1047 9.68719 40.5407 9.08788 41.1919 8.98182C41.8461 8.87529 42.4603 9.30819 42.5667 9.94126C44.7569 22.9708 39.0961 28.4127 26.3881 25.4844Z" fill="#0787FF"/>
<path d="M9.10241 39.0843C9.0081 40.1319 8.06889 40.9058 7.00464 40.813C5.94038 40.7202 5.15408 39.7957 5.24839 38.7482C6.47089 25.1696 14.0653 19.4937 27.1034 22.4981C37.6073 24.9184 41.3121 21.3402 39.4798 10.4401C39.3054 9.4025 40.0185 8.42223 41.0726 8.25057C42.1267 8.0789 43.1226 8.78084 43.297 9.81839C45.5721 23.3529 39.4596 29.2566 26.2215 26.2062C15.5177 23.7397 10.1208 27.7732 9.10241 39.0843Z" fill="#0787FF"/>
</svg>
