<svg width="48" height="48" viewBox="0 0 48 48" fill="none" xmlns="http://www.w3.org/2000/svg">
<path d="M2 24.5369C2 24.5369 9.10526 27.4362 10.8816 27.4362C12.6579 27.4362 17.6041 18.7382 19.1711 18.7382C20.738 18.7382 25.0921 21.6375 26.8684 21.6375C28.6447 21.6375 34.1842 11.3214 36.3421 11.0067C38.5 10.692 47 21.6375 47 21.6375V39.5656V40H2V24.5369Z" fill="#F25858"/>
<path d="M2 27.2087C2 27.2087 9.10526 29.607 10.8816 29.607C12.6579 29.607 17.6041 22.4119 19.1711 22.4119C20.738 22.4119 25.0921 24.8103 26.8684 24.8103C28.6447 24.8103 35.1579 16.4713 36.3421 16.0163C37.5263 15.5612 47 24.8103 47 24.8103V39.6407V40H2V27.2087Z" fill="#FF8900"/>
<path d="M2 30.4065C2 30.4065 9.10526 32.2053 10.8816 32.2053C12.6579 32.2053 17.6041 26.8089 19.1711 26.8089C20.738 26.8089 25.0921 28.6077 26.8684 28.6077C28.6447 28.6077 35.1579 22.3534 36.3421 22.0122C37.5263 21.6709 47 28.6077 47 28.6077V39.7305V40H2V30.4065Z" fill="#0787FF"/>
</svg>
