<?xml version="1.0" encoding="UTF-8"?>
<svg width="151px" height="101px" viewBox="0 0 151 101" version="1.1" xmlns="http://www.w3.org/2000/svg" xmlns:xlink="http://www.w3.org/1999/xlink">
    <!-- Generator: Sketch 63.1 (92452) - https://sketch.com -->
    <title>project-overview-dashboard copy</title>
    <desc>Created with Sketch.</desc>
    <defs>
        <linearGradient x1="50%" y1="100%" x2="50%" y2="-2.48949813e-15%" id="linearGradient-1">
            <stop stop-color="#F9F9F9" offset="0%"></stop>
            <stop stop-color="#FFFFFF" offset="100%"></stop>
        </linearGradient>
        <radialGradient cx="51.9692999%" cy="50%" fx="51.9692999%" fy="50%" r="391.451527%" gradientTransform="translate(0.519693,0.500000),scale(0.080293,1.000000),translate(-0.519693,-0.500000)" id="radialGradient-2">
            <stop stop-color="#2D2C2C" offset="0%"></stop>
            <stop stop-color="#B6B3B3" offset="100%"></stop>
        </radialGradient>
    </defs>
    <g id="Page-1" stroke="none" stroke-width="1" fill="none" fill-rule="evenodd">
        <g id="project-overview-dashboard-copy" transform="translate(1.000000, 1.000000)">
            <rect id="Rectangle-3-Copy-66" stroke="#9B9B9B" fill="url(#linearGradient-1)" fill-rule="nonzero" x="0" y="0" width="149" height="99" rx="6"></rect>
            <g id="Group-6" transform="translate(54.000000, 30.000000)">
                <rect id="Rectangle" stroke="#3C4D6F" stroke-width="2" fill-opacity="0" fill="#FFFFFF" fill-rule="nonzero" x="0" y="0" width="42" height="36" rx="2"></rect>
                <path d="M1,0 L41,0 C41.5522847,-1.01453063e-16 42,0.44771525 42,1 L42,7 L42,7 L0,7 L0,1 C-6.76353751e-17,0.44771525 0.44771525,1.01453063e-16 1,0 Z" id="Rectangle" fill="#3C4D6F" fill-rule="nonzero"></path>
                <circle id="Oval" fill="#FF3737" cx="38" cy="3" r="1"></circle>
                <circle id="Oval" fill="#F8E71C" cx="35" cy="3" r="1"></circle>
                <circle id="Oval" fill="#7ED321" cx="32" cy="3" r="1"></circle>
                <g id="Group-5" transform="translate(4.000000, 14.000000)" fill-rule="nonzero">
                    <path d="M6.1713206,14 L5.83537506,14 C2.61258694,14 0,11.3137087 0,8 L0,8 C-0.000890941185,6.40842073 0.613619214,4.88176448 1.70815754,3.75634745 C2.80269586,2.63093041 4.28746437,1.99908392 5.83537506,2 L6.50726614,2 L6.50726614,7.29188311 L12,7.29188311 L12,7.98272934 C12.0044368,9.57582207 11.3925324,11.1053379 10.2991571,12.2340948 C9.20578186,13.3628517 7.72070814,13.9981723 6.1713206,14 Z" id="Path" fill="#FF4702"></path>
                    <path d="M8,0 L8,0 C9.59129894,0 11.1174224,0.632141042 12.2426407,1.75735931 C13.367859,2.88257758 14,4.40870106 14,6 L14,6 L8,6 L8,0 Z" id="Path" fill="#FFE3D7"></path>
                </g>
                <g id="Group-4" transform="translate(23.000000, 14.000000)" fill-rule="nonzero">
                    <rect id="Rectangle" fill="#FF4702" x="0" y="1" width="3" height="13"></rect>
                    <rect id="Rectangle" fill="#FFE3D7" x="4" y="4" width="3" height="10"></rect>
                    <rect id="Rectangle" fill="#FF4702" x="8" y="0" width="3" height="14"></rect>
                    <rect id="Rectangle" fill="#FFE3D7" x="12" y="6" width="3" height="8"></rect>
                </g>
            </g>
            <ellipse id="Oval-Copy-9" fill="url(#radialGradient-2)" fill-rule="nonzero" opacity="0.313839286" cx="74.5" cy="77.806602" rx="22.5" ry="1.806602"></ellipse>
        </g>
    </g>
</svg>