<svg width="150" height="100" viewBox="0 0 150 100" fill="none" xmlns="http://www.w3.org/2000/svg">
<g clip-path="url(#clip0_17_51)">
<path d="M143.5 0.5H6.5C3.18629 0.5 0.5 3.18629 0.5 6.5V93.5C0.5 96.8137 3.18629 99.5 6.5 99.5H143.5C146.814 99.5 149.5 96.8137 149.5 93.5V6.5C149.5 3.18629 146.814 0.5 143.5 0.5Z" fill="url(#paint0_linear_17_51)" stroke="#9B9B9B"/>
<path opacity="0.313839" d="M75 79.953C87.4264 79.953 97.5 79.1442 97.5 78.1464C97.5 77.1487 87.4264 76.3398 75 76.3398C62.5736 76.3398 52.5 77.1487 52.5 78.1464C52.5 79.1442 62.5736 79.953 75 79.953Z" fill="url(#paint1_radial_17_51)"/>
<path d="M58.8155 69H91.1846" stroke="#3C4D6F" stroke-linecap="round" stroke-linejoin="round"/>
<path d="M64.3928 62.9822V49.5184" stroke="#3C4D6F" stroke-linecap="round" stroke-linejoin="round"/>
<path d="M60.3842 62.9822V49.5184" stroke="#3C4D6F" stroke-linecap="round" stroke-linejoin="round"/>
<path d="M85.3403 62.9822V49.5184" stroke="#3C4D6F" stroke-linecap="round" stroke-linejoin="round"/>
<path d="M89.2211 62.9822V49.5184" stroke="#3C4D6F" stroke-linecap="round" stroke-linejoin="round"/>
<path d="M75 31L93 43.0327H57L75 31Z" stroke="#3C4D6F" stroke-linecap="round" stroke-linejoin="round"/>
<path d="M74.4727 62.7002C78.3712 62.7002 81.5315 59.6333 81.5315 55.8501C81.5315 52.0669 78.3712 49 74.4727 49C70.5742 49 67.4139 52.0669 67.4139 55.8501C67.4139 59.6333 70.5742 62.7002 74.4727 62.7002Z" fill="#FF4702" stroke="white" stroke-linecap="round" stroke-linejoin="round"/>
<path d="M77.2964 53.1101H73.0611C72.6866 53.1101 72.3275 53.2544 72.0628 53.5114C71.798 53.7683 71.6493 54.1168 71.6493 54.4801C71.6493 54.8435 71.798 55.1919 72.0628 55.4489C72.3275 55.7058 72.6866 55.8501 73.0611 55.8501H75.8846C76.259 55.8501 76.6181 55.9945 76.8829 56.2514C77.1476 56.5083 77.2964 56.8568 77.2964 57.2202C77.2964 57.5835 77.1476 57.932 76.8829 58.1889C76.6181 58.4458 76.259 58.5902 75.8846 58.5902H71.6493" fill="#FF4702"/>
<path d="M77.2964 53.1101H73.0611C72.6866 53.1101 72.3275 53.2544 72.0628 53.5114C71.798 53.7683 71.6493 54.1168 71.6493 54.4801C71.6493 54.8435 71.798 55.1919 72.0628 55.4489C72.3275 55.7058 72.6866 55.8501 73.0611 55.8501H75.8846C76.259 55.8501 76.6181 55.9945 76.8829 56.2514C77.1476 56.5083 77.2964 56.8568 77.2964 57.2202C77.2964 57.5835 77.1476 57.932 76.8829 58.1889C76.6181 58.4458 76.259 58.5902 75.8846 58.5902H71.6493" stroke="white" stroke-linecap="round" stroke-linejoin="round"/>
<path d="M74.4727 59.9601V51.74Z" fill="#FF4702"/>
<path d="M74.4727 59.9601V51.74" stroke="white" stroke-linecap="round" stroke-linejoin="round"/>
</g>
<defs>
<linearGradient id="paint0_linear_17_51" x1="7450.5" y1="9900.5" x2="7450.5" y2="0.5" gradientUnits="userSpaceOnUse">
<stop stop-color="#F9F9F9"/>
<stop offset="1" stop-color="white"/>
</linearGradient>
<radialGradient id="paint1_radial_17_51" cx="0" cy="0" r="1" gradientUnits="userSpaceOnUse" gradientTransform="translate(192.468 257) scale(1414.39 1414.4)">
<stop stop-color="#2D2C2C"/>
<stop offset="1" stop-color="#B6B3B3"/>
</radialGradient>
<clipPath id="clip0_17_51">
<rect width="150" height="100" fill="white"/>
</clipPath>
</defs>
</svg>
