<svg width="150" height="100" viewBox="0 0 150 100" fill="none" xmlns="http://www.w3.org/2000/svg">
<g clip-path="url(#clip0_7_37)">
<path d="M143.5 0.5H6.5C3.18629 0.5 0.5 3.18629 0.5 6.5V93.5C0.5 96.8137 3.18629 99.5 6.5 99.5H143.5C146.814 99.5 149.5 96.8137 149.5 93.5V6.5C149.5 3.18629 146.814 0.5 143.5 0.5Z" fill="url(#paint0_linear_7_37)" stroke="#9B9B9B"/>
<path opacity="0.313839" d="M75 79.953C87.4264 79.953 97.5 79.1442 97.5 78.1464C97.5 77.1487 87.4264 76.3398 75 76.3398C62.5736 76.3398 52.5 77.1487 52.5 78.1464C52.5 79.1442 62.5736 79.953 75 79.953Z" fill="url(#paint1_radial_7_37)"/>
<path d="M93.6984 37.0317H74.3968M59.9206 37.0317H56.3016C55.6353 37.0317 55.0952 37.5718 55.0952 38.2381V62.3651C55.0952 63.0313 55.6353 63.5714 56.3016 63.5714H92.492C93.1583 63.5714 93.6984 63.0313 93.6984 62.3651V50.3016" stroke="#3C4D6F" stroke-linecap="round" stroke-linejoin="round"/>
<path d="M74.5 64V69" stroke="#3C4D6F" stroke-linecap="round" stroke-linejoin="round"/>
<path d="M68.3651 69H80.4285" stroke="#3C4D6F" stroke-linecap="round" stroke-linejoin="round"/>
<path d="M55 58.1429H93.5" stroke="#3C4D6F"/>
<circle cx="74.3968" cy="61.1587" r="1.20635" fill="#3C4D6F"/>
<path d="M61.7302 31H95.5079V46.6825H61.7302V31Z" fill="white"/>
<path d="M85.9309 36.8106L90.2604 32.4811" stroke="#FF4702" stroke-linecap="round" stroke-linejoin="round"/>
<path d="M85.9309 43.8745L90.2604 48.2039" stroke="#FF4702" stroke-linecap="round" stroke-linejoin="round"/>
<path d="M87.5256 40.4564H93.3362" stroke="#FF4702" stroke-linecap="round" stroke-linejoin="round"/>
<path d="M70.892 37.1524V50.4569C70.892 51.0374 70.4215 51.5079 69.841 51.5079V51.5079C69.3292 51.5079 68.8918 51.1393 68.8051 50.6349L67.7019 44.2162" stroke="#FF4702"/>
<path d="M83.0825 48.0712V32.8231C83.0825 31.8162 82.2663 31 81.2595 31H80.8261C80.4261 31 80.058 31.2185 79.8665 31.5697L78.8597 33.4155C77.5649 35.7893 75.0768 37.2663 72.3728 37.2663H67.3028C65.4466 37.2663 63.9418 38.7711 63.9418 40.6273C63.9418 42.4836 65.4466 43.9884 67.3028 43.9884H72.2108C75.0252 43.9884 77.6258 45.4903 79.0322 47.9282L79.8665 49.3743C80.0588 49.7075 80.4143 49.9129 80.799 49.9129H81.2409C82.258 49.9129 83.0825 49.0883 83.0825 48.0712Z" fill="#FF4702" stroke="#FF4702"/>
</g>
<defs>
<linearGradient id="paint0_linear_7_37" x1="7450.5" y1="9900.5" x2="7450.5" y2="0.5" gradientUnits="userSpaceOnUse">
<stop stop-color="#F9F9F9"/>
<stop offset="1" stop-color="white"/>
</linearGradient>
<radialGradient id="paint1_radial_7_37" cx="0" cy="0" r="1" gradientUnits="userSpaceOnUse" gradientTransform="translate(192.468 257) scale(1414.39 1414.4)">
<stop stop-color="#2D2C2C"/>
<stop offset="1" stop-color="#B6B3B3"/>
</radialGradient>
<clipPath id="clip0_7_37">
<rect width="150" height="100" fill="white"/>
</clipPath>
</defs>
</svg>
