<?xml version="1.0" encoding="UTF-8"?>
<svg width="150px" height="100px" viewBox="0 0 150 100" version="1.1" xmlns="http://www.w3.org/2000/svg" xmlns:xlink="http://www.w3.org/1999/xlink">
    <!-- Generator: Sketch 56.2 (81672) - https://sketch.com -->
    <title>Finance</title>
    <desc>Created with Sketch.</desc>
    <defs>
        <linearGradient x1="50%" y1="100%" x2="50%" y2="-2.48949813e-15%" id="linearGradient-1">
            <stop stop-color="#F9F9F9" offset="0%"></stop>
            <stop stop-color="#FFFFFF" offset="100%"></stop>
        </linearGradient>
        <radialGradient cx="51.9692899%" cy="50%" fx="51.9692899%" fy="50%" r="391.455643%" gradientTransform="translate(0.519693,0.500000),scale(0.080293,1.000000),translate(-0.519693,-0.500000)" id="radialGradient-2">
            <stop stop-color="#2D2C2C" offset="0%"></stop>
            <stop stop-color="#B6B3B3" offset="100%"></stop>
        </radialGradient>
        <filter x="-4.4%" y="-55.1%" width="108.9%" height="210.3%" filterUnits="objectBoundingBox" id="filter-3">
            <feGaussianBlur stdDeviation="0.6640625" in="SourceGraphic"></feGaussianBlur>
        </filter>
    </defs>
    <g id="Finance" stroke="none" stroke-width="1" fill="none" fill-rule="evenodd">
        <rect id="Rectangle-3-Copy-64" stroke="#9B9B9B" fill="url(#linearGradient-1)" fill-rule="nonzero" x="0.5" y="0.5" width="149" height="99" rx="6"></rect>
        <ellipse id="Oval-Copy-7" fill="url(#radialGradient-2)" fill-rule="nonzero" opacity="0.313839286" filter="url(#filter-3)" cx="75" cy="78.1463358" rx="22.5" ry="1.806602"></ellipse>
        <g id="noun_Online-Banking_1286029-Copy" transform="translate(56.250000, 30.000000)" fill-rule="nonzero">
            <path d="M27.5,27.5 L30,27.5 C30.5,27.5 31,27.125 31.125,26.75 C31.25,26.375 31.125,25.75 30.75,25.375 L19.5,15.375 C19,15 18.375,15 17.875,15.375 L6.625,25.375 C6.25,25.75 6.125,26.25 6.25,26.75 C6.375,27.25 7,27.5 7.5,27.5 L10,27.5 L10,37.5 L5,37.5 L5,40 L32.5,40 L32.5,37.5 L27.5,37.5 L27.5,27.5 Z M18.75,17.875 L26.75,25 L10.75,25 L18.75,17.875 Z M12.5,37.5 L12.5,27.5 L15,27.5 L15,37.5 L12.5,37.5 Z M17.5,37.5 L17.5,27.5 L20,27.5 L20,37.5 L17.5,37.5 Z M22.5,37.5 L22.5,27.5 L25,27.5 L25,37.5 L22.5,37.5 Z" id="Shape" fill="#FF4702"></path>
            <path d="M6.5,32.5 C6.875,32.5 7.125,32.375 7.375,32.125 C7.875,31.625 7.875,30.875 7.375,30.375 C4.5,27.625 2.875,23.875 2.5,20 L6.25,20 C7,20 7.5,19.5 7.5,18.75 C7.5,18 7,17.5 6.25,17.5 L2.625,17.5 C2.875,14.75 3.75,12.25 5.125,10.125 C6.25,10.5 7.75,11 9.625,11.5 C9.25,13.375 9,15.375 8.875,17.5 C8.875,18.25 9.375,18.75 10.125,18.75 C10.75,18.75 11.375,18.25 11.375,17.5 C11.5,15.5 11.75,13.625 12.125,11.875 C13.75,12.125 15.625,12.375 17.625,12.375 L17.625,12.375 C17.625,13.125 18.125,13.625 18.875,13.625 C19.625,13.625 20.125,13.125 20.125,12.375 C21.875,12.375 23.75,12.125 25.625,11.75 C26,13.5 26.25,15.375 26.375,17.375 C26.375,18 27,18.625 27.625,18.625 C27.625,18.625 27.625,18.625 27.625,18.625 C28.375,18.625 28.875,18 28.875,17.375 C28.75,15.25 28.5,13.25 28.125,11.375 C29.625,11 31.125,10.625 32.625,10 C34,12.125 34.875,14.75 35.125,17.375 L31.25,17.375 C30.5,17.375 30,17.875 30,18.625 C30,19.375 30.5,19.875 31.25,19.875 L35,19.875 C34.75,23.75 33,27.5 30.125,30.25 C29.625,30.75 29.625,31.5 30.125,32 C30.625,32.5 31.375,32.5 31.875,32 C35.5,28.625 37.5,23.875 37.5,18.75 C37.5,8.375 29.125,0 18.75,0 C8.375,0 0,8.375 0,18.75 C0,23.875 2,28.625 5.625,32.125 C5.875,32.375 6.25,32.5 6.5,32.5 Z M12.625,9.5 C13.75,6 15.5,3.5 17.5,2.75 L17.5,10 C15.75,10 14.125,9.75 12.625,9.5 Z M20,10 L20,2.75 C22,3.5 23.75,6 24.875,9.5 C23.125,9.75 21.5,9.875 20,10 Z M30.875,8 C29.625,8.375 28.5,8.75 27.375,9 C26.75,6.875 25.875,5.125 24.75,3.625 C27.125,4.625 29.25,6.125 30.875,8 Z M12.75,3.625 C11.75,5.125 10.875,6.875 10.125,9 C8.75,8.625 7.5,8.25 6.625,8 C8.25,6.125 10.375,4.625 12.75,3.625 Z" id="Shape" fill="#3C4D6F"></path>
        </g>
    </g>
</svg>