<?xml version="1.0" encoding="UTF-8"?>
<svg width="150px" height="100px" viewBox="0 0 150 100" version="1.1" xmlns="http://www.w3.org/2000/svg" xmlns:xlink="http://www.w3.org/1999/xlink">
    <!-- Generator: Sketch 60 (88103) - https://sketch.com -->
    <title>Telecommunication</title>
    <desc>Created with Sketch.</desc>
    <defs>
        <linearGradient x1="50%" y1="100%" x2="50%" y2="-2.48949813e-15%" id="linearGradient-1">
            <stop stop-color="#F9F9F9" offset="0%"></stop>
            <stop stop-color="#FFFFFF" offset="100%"></stop>
        </linearGradient>
        <radialGradient cx="51.9692899%" cy="50%" fx="51.9692899%" fy="50%" r="391.455643%" gradientTransform="translate(0.519693,0.500000),scale(0.080293,1.000000),translate(-0.519693,-0.500000)" id="radialGradient-2">
            <stop stop-color="#2D2C2C" offset="0%"></stop>
            <stop stop-color="#B6B3B3" offset="100%"></stop>
        </radialGradient>
        <filter x="-4.4%" y="-55.1%" width="108.9%" height="210.3%" filterUnits="objectBoundingBox" id="filter-3">
            <feGaussianBlur stdDeviation="0.6640625" in="SourceGraphic"></feGaussianBlur>
        </filter>
    </defs>
    <g id="Telecommunication" stroke="none" stroke-width="1" fill="none" fill-rule="evenodd">
        <g id="Group-3" transform="translate(0.500000, 0.500000)">
            <rect id="Rectangle-3-Copy-66" stroke="#9B9B9B" fill="url(#linearGradient-1)" fill-rule="nonzero" x="0" y="0" width="149" height="99" rx="6"></rect>
            <ellipse id="Oval-Copy-9" fill="url(#radialGradient-2)" fill-rule="nonzero" opacity="0.313839286" filter="url(#filter-3)" cx="74.5" cy="77.6463358" rx="22.5" ry="1.806602"></ellipse>
            <g id="Group-2" transform="translate(50.500000, 29.500000)">
                <path d="M22.4742792,11.1794322 C22.7837689,10.3765176 23.8758501,10.3256087 24.2769283,11.0440422 L24.3317233,11.1575795 L35.4755639,38.1575795 C35.6862696,38.6680906 35.4432294,39.2527523 34.9327183,39.463458 C34.4586723,39.6591133 33.9206903,39.4635284 33.6775516,39.0258458 L33.6268398,38.9206123 L23.438,14.237 L13.933082,38.8987597 C13.7486335,39.3772776 13.2364068,39.6328199 12.751573,39.5078448 L12.6403363,39.4721779 C12.1618184,39.2877294 11.906276,38.7755027 12.0312512,38.290669 L12.066918,38.1794322 L22.4742792,11.1794322 Z" id="Path-18" fill="#3C4D6F" fill-rule="nonzero"></path>
                <path d="M38,37 C38.8284271,37 39.5,37.6715729 39.5,38.5 C39.5,39.2796961 38.9051119,39.9204487 38.14446,39.9931334 L38,40 L9,40 C8.17157288,40 7.5,39.3284271 7.5,38.5 C7.5,37.7203039 8.09488808,37.0795513 8.85553999,37.0068666 L9,37 L38,37 Z" id="Line" fill="#3C4D6F" fill-rule="nonzero"></path>
                <g id="Group" fill="#FF4702" fill-rule="nonzero">
                    <path d="M19.6544884,8.16 C20.0079506,8.16 20.2944884,8.44653776 20.2944884,8.8 C20.2944884,9.15346224 20.0079506,9.44 19.6544884,9.44 C17.1423714,9.44 15.4944884,11.1724168 15.4944884,13.6 C15.4944884,13.9534622 15.2079506,14.24 14.8544884,14.24 C14.5010261,14.24 14.2144884,13.9534622 14.2144884,13.6 C14.2144884,10.4794173 16.4207291,8.16 19.6544884,8.16 Z" id="Path" transform="translate(17.254488, 11.200000) rotate(-30.000000) translate(-17.254488, -11.200000) "></path>
                    <path d="M17.4020545,6.16 C17.7555167,6.16 18.0420545,6.44653776 18.0420545,6.8 C18.0420545,7.15346224 17.7555167,7.44 17.4020545,7.44 C13.1122176,7.44 10.24,10.8457835 10.24,15.6 C10.24,15.9534622 9.95346224,16.24 9.6,16.24 C9.24653776,16.24 8.96,15.9534622 8.96,15.6 C8.96,10.182579 12.3523831,6.16 17.4020545,6.16 Z" id="Path-Copy" transform="translate(13.501027, 11.200000) rotate(-30.000000) translate(-13.501027, -11.200000) "></path>
                    <path d="M17.6,2.56 C17.9534622,2.56 18.24,2.84653776 18.24,3.2 C18.24,3.55346224 17.9534622,3.84 17.6,3.84 C9.35862809,3.84 3.84,10.2863609 3.84,19.2 C3.84,19.5534622 3.55346224,19.84 3.2,19.84 C2.84653776,19.84 2.56,19.5534622 2.56,19.2 C2.56,9.61975278 8.60374319,2.56 17.6,2.56 Z" id="Path-Copy-2" transform="translate(10.400000, 11.200000) rotate(-30.000000) translate(-10.400000, -11.200000) "></path>
                </g>
                <g id="Group-Copy" transform="translate(37.500000, 11.000000) scale(-1, 1) translate(-37.500000, -11.000000) translate(27.000000, 0.000000)" fill="#FF4702" fill-rule="nonzero">
                    <path d="M19.6544884,8.16 C20.0079506,8.16 20.2944884,8.44653776 20.2944884,8.8 C20.2944884,9.15346224 20.0079506,9.44 19.6544884,9.44 C17.1423714,9.44 15.4944884,11.1724168 15.4944884,13.6 C15.4944884,13.9534622 15.2079506,14.24 14.8544884,14.24 C14.5010261,14.24 14.2144884,13.9534622 14.2144884,13.6 C14.2144884,10.4794173 16.4207291,8.16 19.6544884,8.16 Z" id="Path" transform="translate(17.254488, 11.200000) rotate(-30.000000) translate(-17.254488, -11.200000) "></path>
                    <path d="M17.4020545,6.16 C17.7555167,6.16 18.0420545,6.44653776 18.0420545,6.8 C18.0420545,7.15346224 17.7555167,7.44 17.4020545,7.44 C13.1122176,7.44 10.24,10.8457835 10.24,15.6 C10.24,15.9534622 9.95346224,16.24 9.6,16.24 C9.24653776,16.24 8.96,15.9534622 8.96,15.6 C8.96,10.182579 12.3523831,6.16 17.4020545,6.16 Z" id="Path-Copy" transform="translate(13.501027, 11.200000) rotate(-30.000000) translate(-13.501027, -11.200000) "></path>
                    <path d="M17.6,2.56 C17.9534622,2.56 18.24,2.84653776 18.24,3.2 C18.24,3.55346224 17.9534622,3.84 17.6,3.84 C9.35862809,3.84 3.84,10.2863609 3.84,19.2 C3.84,19.5534622 3.55346224,19.84 3.2,19.84 C2.84653776,19.84 2.56,19.5534622 2.56,19.2 C2.56,9.61975278 8.60374319,2.56 17.6,2.56 Z" id="Path-Copy-2" transform="translate(10.400000, 11.200000) rotate(-30.000000) translate(-10.400000, -11.200000) "></path>
                </g>
                <circle id="Oval" stroke="#3C4D6F" stroke-width="2" fill="#FFFFFF" cx="23.5" cy="12.5" r="3.5"></circle>
                <path d="M27.9673174,25.1538979 C28.4346789,24.8596332 29.0520989,25 29.3463635,25.4673174 C29.6196093,25.901296 29.5181343,26.4646617 29.128048,26.778533 L29.032944,26.8463635 L15.532944,35.3463635 C15.0655825,35.6406282 14.4481625,35.5002614 14.1538979,35.032944 C13.8806521,34.5989654 13.9821271,34.0355998 14.3722134,33.7217284 L14.4673174,33.6538979 L27.9673174,25.1538979 Z" id="Line-2" fill="#3C4D6F" fill-rule="nonzero"></path>
                <path d="M31.9673174,25.1538979 C32.4346789,24.8596332 33.0520989,25 33.3463635,25.4673174 C33.6196093,25.901296 33.5181343,26.4646617 33.128048,26.778533 L33.032944,26.8463635 L19.532944,35.3463635 C19.0655825,35.6406282 18.4481625,35.5002614 18.1538979,35.032944 C17.8806521,34.5989654 17.9821271,34.0355998 18.3722134,33.7217284 L18.4673174,33.6538979 L31.9673174,25.1538979 Z" id="Line-2-Copy" fill="#3C4D6F" fill-rule="nonzero" transform="translate(25.750131, 30.250131) scale(-1, 1) translate(-25.750131, -30.250131) "></path>
            </g>
        </g>
    </g>
</svg>