<?xml version="1.0" encoding="UTF-8"?>
<svg width="150px" height="100px" viewBox="0 0 150 100" version="1.1" xmlns="http://www.w3.org/2000/svg" xmlns:xlink="http://www.w3.org/1999/xlink">
    <!-- Generator: Sketch 56.2 (81672) - https://sketch.com -->
    <title>Government</title>
    <desc>Created with Sketch.</desc>
    <defs>
        <linearGradient x1="50%" y1="100%" x2="50%" y2="-2.48949813e-15%" id="linearGradient-1">
            <stop stop-color="#F9F9F9" offset="0%"></stop>
            <stop stop-color="#FFFFFF" offset="100%"></stop>
        </linearGradient>
        <radialGradient cx="51.9692992%" cy="50%" fx="51.9692992%" fy="50%" r="391.453585%" gradientTransform="translate(0.519693,0.500000),scale(0.080293,1.000000),translate(-0.519693,-0.500000)" id="radialGradient-2">
            <stop stop-color="#2D2C2C" offset="0%"></stop>
            <stop stop-color="#B6B3B3" offset="100%"></stop>
        </radialGradient>
    </defs>
    <g id="Government" stroke="none" stroke-width="1" fill="none" fill-rule="evenodd">
        <rect id="Rectangle-3-Copy-66" stroke="#9B9B9B" fill="url(#linearGradient-1)" fill-rule="nonzero" x="0.5" y="0.5" width="149" height="99" rx="6"></rect>
        <ellipse id="Oval-Copy-9" fill="url(#radialGradient-2)" fill-rule="nonzero" opacity="0.313839286" cx="75" cy="78.1463358" rx="22.5" ry="1.806602"></ellipse>
        <g id="Group" transform="translate(56.000000, 29.741993)" fill-rule="nonzero">
            <path d="M17.7264181,0.641472345 L3.2181294,11.4321592 C2.33182629,12.0913561 2.14772035,13.3442314 2.80691727,14.2305345 C3.18428864,14.7379177 3.7793766,15.0369529 4.41171101,15.0369529 L33.4282884,15.0369529 C34.5328579,15.0369529 35.4282884,14.1415224 35.4282884,13.0369529 C35.4282884,12.4046185 35.1292531,11.8095305 34.62187,11.4321592 L20.1135813,0.641472346 C19.4050979,0.11453066 18.4349015,0.11453066 17.7264181,0.641472345 Z M18.9199997,2.24626608 L33.4282884,13.0369529 L4.41171101,13.0369529 L18.9199997,2.24626608 Z" id="Path-4" fill="#3C4D6F"></path>
            <path d="M6.11999991,18.006406 L6.11999991,29.206406 C6.11999991,29.7586907 6.56771516,30.206406 7.11999991,30.206406 C7.67228466,30.206406 8.11999991,29.7586907 8.11999991,29.206406 L8.11999991,18.006406 C8.11999991,17.4541213 7.67228466,17.006406 7.11999991,17.006406 C6.56771516,17.006406 6.11999991,17.4541213 6.11999991,18.006406 Z" id="Line" fill="#FF4702"></path>
            <path d="M13.9866664,18.006406 L13.9866664,29.206406 C13.9866664,29.7586907 14.4343817,30.206406 14.9866664,30.206406 C15.5389511,30.206406 15.9866664,29.7586907 15.9866664,29.206406 L15.9866664,18.006406 C15.9866664,17.4541213 15.5389511,17.006406 14.9866664,17.006406 C14.4343817,17.006406 13.9866664,17.4541213 13.9866664,18.006406 Z" id="Line-Copy" fill="#FF4702"></path>
            <path d="M21.853333,18.006406 L21.853333,29.206406 C21.853333,29.7586907 22.3010483,30.206406 22.853333,30.206406 C23.4056177,30.206406 23.853333,29.7586907 23.853333,29.206406 L23.853333,18.006406 C23.853333,17.4541213 23.4056177,17.006406 22.853333,17.006406 C22.3010483,17.006406 21.853333,17.4541213 21.853333,18.006406 Z" id="Line-Copy-2" fill="#FF4702"></path>
            <path d="M29.7199995,18.006406 L29.7199995,29.206406 C29.7199995,29.7586907 30.1677148,30.206406 30.7199995,30.206406 C31.2722842,30.206406 31.7199995,29.7586907 31.7199995,29.206406 L31.7199995,18.006406 C31.7199995,17.4541213 31.2722842,17.006406 30.7199995,17.006406 C30.1677148,17.006406 29.7199995,17.4541213 29.7199995,18.006406 Z" id="Line-Copy-3" fill="#FF4702"></path>
            <path d="M1.39156249,34.1764838 L36.4484369,34.1764838 C37.0007216,34.1764838 37.4484369,33.7287685 37.4484369,33.1764838 C37.4484369,32.6241991 37.0007216,32.1764838 36.4484369,32.1764838 L1.39156249,32.1764838 C0.839277743,32.1764838 0.391562493,32.6241991 0.391562493,33.1764838 C0.391562493,33.7287685 0.839277743,34.1764838 1.39156249,34.1764838 Z" id="Line-2" fill="#3C4D6F"></path>
        </g>
    </g>
</svg>