<?xml version="1.0" encoding="UTF-8"?>
<svg width="150px" height="100px" viewBox="0 0 150 100" version="1.1" xmlns="http://www.w3.org/2000/svg" xmlns:xlink="http://www.w3.org/1999/xlink">
    <!-- Generator: Sketch 56.2 (81672) - https://sketch.com -->
    <title>Health Care</title>
    <desc>Created with Sketch.</desc>
    <defs>
        <linearGradient x1="50%" y1="100%" x2="50%" y2="-2.48949813e-15%" id="linearGradient-1">
            <stop stop-color="#F9F9F9" offset="0%"></stop>
            <stop stop-color="#FFFFFF" offset="100%"></stop>
        </linearGradient>
        <radialGradient cx="51.9692899%" cy="50%" fx="51.9692899%" fy="50%" r="391.455643%" gradientTransform="translate(0.519693,0.500000),scale(0.080293,1.000000),translate(-0.519693,-0.500000)" id="radialGradient-2">
            <stop stop-color="#2D2C2C" offset="0%"></stop>
            <stop stop-color="#B6B3B3" offset="100%"></stop>
        </radialGradient>
        <filter x="-4.4%" y="-55.1%" width="108.9%" height="210.3%" filterUnits="objectBoundingBox" id="filter-3">
            <feGaussianBlur stdDeviation="0.6640625" in="SourceGraphic"></feGaussianBlur>
        </filter>
    </defs>
    <g id="Health-Care" stroke="none" stroke-width="1" fill="none" fill-rule="evenodd">
        <rect id="Rectangle-3-Copy-35" stroke="#9B9B9B" fill="url(#linearGradient-1)" fill-rule="nonzero" x="0.5" y="0.5" width="149" height="99" rx="6"></rect>
        <ellipse id="Oval-Copy" fill="url(#radialGradient-2)" fill-rule="nonzero" opacity="0.313839286" filter="url(#filter-3)" cx="75" cy="78.1463358" rx="22.5" ry="1.806602"></ellipse>
        <g id="noun_Health-Care_1656388-Copy-6" transform="translate(55.000000, 33.500000)" fill-rule="nonzero">
            <g id="Group" transform="translate(0.016100, 4.275405)" fill="#3C4D6F">
                <path d="M3.49434911,0.906454802 C1.84198598,0.830027716 0.354910717,2.44142157 0.431788852,4.81951294 C0.487382821,6.5392044 0.434185295,9.20075822 0.445280176,11.5121939 C0.450828696,12.6678837 0.473885495,13.7432172 0.539720348,14.5886648 C0.572637969,15.0113886 0.607072948,15.3751729 0.674634923,15.6950872 C0.736041107,15.9858987 0.769073411,16.246528 1.09287001,16.5721851 C3.4177152,19.217944 5.83741183,21.8998439 8.20286683,24.5466391 L8.20286683,26.3817095 C8.20290569,26.8338815 8.61422504,27.2452924 9.06631975,27.2452924 L16.3921797,27.2452924 C16.8398054,27.2452924 17.2485893,26.8428628 17.2556326,26.3952246 C17.2867518,25.3142779 17.2691261,20.7550784 17.2691261,20.7550784 C17.2694439,20.7416929 17.2694439,20.7278755 17.2691261,20.71449 C17.1483834,18.8240207 15.8876958,17.1331686 14.4629032,15.5735379 C13.0381106,14.0139072 11.383807,12.5745304 10.2400783,11.4580905 C10.235579,11.4580473 10.2310841,11.4580473 10.2265848,11.4580905 C9.67873862,10.9422292 9.19902566,10.4839776 8.51317029,10.2706726 C7.82731449,10.057372 6.98683288,10.3368749 6.42199484,10.9048793 C6.40322055,10.9221509 6.38521052,10.9402862 6.36802868,10.9588532 C6.23496265,11.1180115 6.15113984,11.299623 6.04423389,11.4715624 C6.05299494,8.69379188 6.04531337,7.4201453 6.04423389,4.79239644 C6.04367256,3.28550907 5.71491174,2.29973352 5.15379789,1.67544514 C4.59268448,1.05115675 3.85475679,0.922996732 3.49434911,0.906325264 L3.49434911,0.906454802 Z M35.3611647,0.906454802 C35.000757,0.923121951 34.2628298,1.05128629 33.7017159,1.67557467 C33.1406021,2.29986306 32.8118451,3.28563861 32.8112799,4.79252597 C32.8102004,7.42027484 32.8025189,8.69392574 32.8112799,11.4716919 C32.704374,11.2997526 32.6205512,11.1181411 32.4874851,10.9589827 C32.4703041,10.9404157 32.4522898,10.9222805 32.4335194,10.9050088 C31.8686809,10.3370088 31.0281984,10.0575015 30.3423439,10.2708022 C29.656489,10.4841072 29.1767761,10.9423588 28.628929,11.45822 C27.1524203,12.9084348 25.593015,14.2709095 24.3926145,15.5736674 C22.9678219,17.1332981 21.7071347,18.8241502 21.586392,20.7146195 C21.5860742,20.7280051 21.5860742,20.7418224 21.586392,20.7552079 C21.586392,20.7552079 21.568762,25.3142779 21.5998812,26.3954405 C21.6069237,26.8430787 22.0157084,27.2455083 22.4633341,27.2455083 L29.7891941,27.2455083 C30.2412888,27.2455083 30.6526081,26.8340974 30.652647,26.3819254 L30.652647,24.5468549 C32.9656635,21.8628393 35.5061421,19.2581438 37.7626419,16.572401 C38.0864384,16.2467439 38.1194709,15.9861146 38.1808772,15.6953031 C38.2484392,15.3753888 38.2828742,15.0116045 38.3157918,14.5888807 C38.3816266,13.743433 38.4046834,12.6680996 38.4102319,11.5124098 C38.4213289,9.20097843 38.3681322,6.5394203 38.4237211,4.81972883 C38.5005989,2.44163746 37.0135239,0.830243612 35.3611608,0.906670697 L35.3611647,0.906454802 Z M3.41340031,2.63359898 C3.57834248,2.64124169 3.7013672,2.6327354 3.87210963,2.82250342 C4.04285249,3.01247439 4.31685697,3.53573653 4.31732762,4.79252597 C4.31849346,7.68542933 4.33152061,8.66324264 4.31732762,12.1193791 C4.31538456,12.5930111 4.54576602,12.9704832 4.77603738,13.2393165 C5.00630873,13.5081499 5.2673163,13.7297021 5.55854149,13.9679646 C6.92962656,15.1180843 8.0703319,16.1423799 9.29567441,17.4627118 C9.60358186,17.7923846 10.1829182,17.8134992 10.5139666,17.5070568 C10.8450155,17.2006144 10.8687468,16.6212798 10.5638713,16.2888004 C9.6536714,15.3319938 8.84146349,14.5849514 7.96001869,13.6844935 C7.47650942,13.1900923 7.33917211,12.8851612 7.32592043,12.7669367 C7.31317395,12.6531597 7.36127551,12.4788886 7.6766983,12.0922626 C7.87235164,11.8955384 7.88176037,11.8799507 8.00049309,11.9168689 C8.13291834,11.9578891 8.52892464,12.2344515 9.02584362,12.6994477 C9.0298161,12.7037656 9.03534303,12.7089471 9.0393371,12.7128332 C10.250247,13.8936533 11.8734533,15.2875624 13.1947049,16.7338479 C14.5203155,18.1849262 15.4700166,19.6918783 15.542246,20.8223083 C15.5424379,20.8976127 15.5416568,23.964541 15.5287246,25.5179539 L9.92977137,25.5179539 L9.92977137,24.2226228 C9.9319735,24.0115631 9.85350102,23.8006762 9.71390803,23.6423814 L2.44201378,15.5059625 C2.43292889,15.494736 2.3948764,15.426772 2.37455673,15.3305257 C2.33391652,15.1380762 2.28275959,14.8339223 2.25313352,14.4534709 C2.19388223,13.692568 2.1776486,12.6500076 2.17218471,11.5119349 C2.16125607,9.23571605 2.21730649,6.57836788 2.15869339,4.76527993 C2.10322663,3.04951777 2.90808385,2.60996704 3.41339858,2.63333991 L3.41340031,2.63359898 Z M35.4421135,2.63359898 C35.9474282,2.61023907 36.7522858,3.04977685 36.6968187,4.76553901 C36.6382056,6.57862696 36.6942711,9.23597513 36.6833295,11.5121939 C36.677863,12.6502667 36.661632,13.6928271 36.6023807,14.45373 C36.5727555,14.8341814 36.5215969,15.1383353 36.4809579,15.3307847 C36.4606378,15.4270311 36.4225858,15.4950814 36.4135005,15.5062216 L29.1416066,23.6426405 C29.0020136,23.8009352 28.9235546,24.0118222 28.9257433,24.2228818 L28.9257433,25.518213 L23.3267896,25.518213 C23.3138358,23.9648001 23.3130759,20.8978718 23.3132678,20.8225674 C23.3854977,19.6921374 24.3351988,18.1851853 25.6608093,16.7341069 C26.9932072,15.2738746 28.5350005,13.9557017 29.8296711,12.6997068 C30.3265892,12.2347106 30.7225959,11.9583209 30.8550216,11.917128 C30.9737556,11.8799939 30.9831622,11.8959702 31.1788164,12.0925216 C31.49424,12.4791477 31.5423403,12.6534187 31.5295942,12.7671958 C31.5163469,12.8854203 31.3790057,13.1903514 30.895496,13.6847526 C30.0591319,14.5526966 29.0662573,15.4547521 28.291645,16.28893 C27.9867696,16.6214094 28.0105009,17.200744 28.3415498,17.5071863 C28.6725982,17.8136287 29.2519345,17.7925141 29.559842,17.4628414 C30.7369823,16.2318471 31.9707085,15.0506816 33.2969749,13.9680078 C33.5882005,13.7297453 33.8492081,13.5081931 34.0794795,13.2393597 C34.3097504,12.9705264 34.5401344,12.5930543 34.5381888,12.1194223 C34.5239958,8.66329446 34.5370229,7.68547251 34.5381888,4.79256915 C34.5386637,3.53577971 34.8126639,3.01251756 34.9834068,2.8225466 C35.1541492,2.6327275 35.2771744,2.64127192 35.4421161,2.63364216 L35.4421135,2.63359898 Z" id="Shape"></path>
            </g>
            <path d="M15.3964228,0.432223234 C16.3854661,0.428414834 17.3406173,0.706505795 18.1082051,1.3497671 L19.4438591,2.46970888 L20.7795131,1.3497671 C21.8029633,0.4920868 23.1710172,0.282901118 24.4896634,0.526673295 C25.8083096,0.770449789 27.1109138,1.45409655 28.1323558,2.53717629 C28.1564609,2.56275562 28.1790009,2.58981167 28.1998132,2.61813719 C29.4853211,4.35990615 29.9602839,6.14001819 29.7648219,7.7995611 C29.5693598,9.45910401 28.7573674,10.9543676 27.6871378,12.3333065 C25.5466793,15.0912059 22.3072508,17.4649794 20.037483,19.619705 C19.7205882,19.9197137 19.16713,19.9197137 18.8502353,19.619705 C16.5804683,17.4649794 13.3410393,15.0912059 11.2005805,12.3333065 C10.1303509,10.9543676 9.31835887,9.45910401 9.12289638,7.7995611 C8.92743389,6.14001819 9.40239757,4.35990615 10.687905,2.61813719 C10.7087157,2.58981167 10.7312556,2.56273835 10.7553625,2.53717629 C11.7768049,1.45409655 13.0794091,0.770449789 14.3980553,0.526673295 C14.7277168,0.46573025 15.0667418,0.433518609 15.3964228,0.432223234 Z M15.3829293,2.1593631 C15.1663634,2.15985534 14.9419316,2.17015788 14.7083566,2.21333703 C13.7880825,2.38346286 12.8114847,2.90666023 12.0505399,3.69759852 C11.0033131,5.13850384 10.6941297,6.39001248 10.8363092,7.59716318 C10.9803535,8.82015199 11.6084425,10.050654 12.563215,11.2808321 C14.327887,13.5545336 17.1317844,15.724644 19.443857,17.8385653 C21.7559296,15.724644 24.5598265,13.5545336 26.324499,11.2808321 C27.2792714,10.0506497 27.9073605,8.82015199 28.0514052,7.59716318 C28.1935842,6.39001248 27.8844012,5.13850384 26.837174,3.69759852 C26.0762297,2.90666023 25.0996319,2.38346286 24.1793578,2.21333703 C23.2450565,2.04061613 22.4266045,2.21890714 21.8858103,2.6721068 L19.9970069,4.25082267 C19.6896612,4.50723339 19.1980532,4.50723339 18.8907075,4.25082267 L17.0019036,2.6721068 C16.5963068,2.3322049 16.0326264,2.15806772 15.3829293,2.1593631 Z" id="Combined-Shape" fill="#FF4702"></path>
        </g>
    </g>
</svg>