<?xml version="1.0" encoding="UTF-8"?>
<svg width="150px" height="100px" viewBox="0 0 150 100" version="1.1" xmlns="http://www.w3.org/2000/svg" xmlns:xlink="http://www.w3.org/1999/xlink">
    <!-- Generator: Sketch 56.2 (81672) - https://sketch.com -->
    <title>Hospitality</title>
    <desc>Created with Sketch.</desc>
    <defs>
        <linearGradient x1="50%" y1="100%" x2="50%" y2="-2.48949813e-15%" id="linearGradient-1">
            <stop stop-color="#F9F9F9" offset="0%"></stop>
            <stop stop-color="#FFFFFF" offset="100%"></stop>
        </linearGradient>
        <radialGradient cx="51.9692992%" cy="50%" fx="51.9692992%" fy="50%" r="391.453585%" gradientTransform="translate(0.519693,0.500000),scale(0.080293,1.000000),translate(-0.519693,-0.500000)" id="radialGradient-2">
            <stop stop-color="#2D2C2C" offset="0%"></stop>
            <stop stop-color="#B6B3B3" offset="100%"></stop>
        </radialGradient>
    </defs>
    <g id="Hospitality" stroke="none" stroke-width="1" fill="none" fill-rule="evenodd">
        <rect id="Rectangle-3-Copy-66" stroke="#9B9B9B" fill="url(#linearGradient-1)" fill-rule="nonzero" x="0.5" y="0.5" width="149" height="99" rx="6"></rect>
        <ellipse id="Oval-Copy-9" fill="url(#radialGradient-2)" fill-rule="nonzero" opacity="0.313839286" cx="75" cy="78.1463358" rx="22.5" ry="1.806602"></ellipse>
        <g id="Group" transform="translate(53.952381, 27.000000)" fill-rule="nonzero">
            <path d="M37.7072013,27.9575003 C38.1062693,28.7354985 38.1538934,29.6069813 37.9078527,30.3859901 C37.6618425,31.1649026 37.122365,31.8509733 36.3486798,32.258803 L25.1409946,38.1646553 C23.7984511,38.8724353 22.288582,39.2398106 20.775463,39.2398106 C20.2790502,39.2398106 19.7826394,39.2003347 19.2916608,39.1203708 L6.81815362,37.0934509 C6.50676587,37.5953637 6.07761454,38.0169013 5.56956373,38.3191119 C5.02196009,38.6448502 4.38278141,38.8321345 3.70060354,38.8321345 C2.68970165,38.8321345 1.77301329,38.4210805 1.10909512,37.7571623 C0.445176946,37.0932441 0.0341229101,36.1765558 0.0341229101,35.1656539 L0.0341229101,24.6347966 C0.0341229101,23.6238947 0.445176946,22.7072063 1.10909512,22.0432881 C1.77301329,21.37937 2.68970165,20.9683159 3.70060354,20.9683159 C4.48434191,20.9683159 5.21047757,21.215838 5.80617979,21.6365991 C6.3520336,22.0221509 6.78821336,22.5533402 7.05869311,23.1728866 L9.87356978,22.5960614 C12.8568746,21.9842509 15.9159311,22.5515546 18.4829365,24.1942049 C20.0107381,25.1722788 21.7772905,25.6894014 23.5919932,25.6894014 L25.452629,25.6894014 C26.2773143,25.6894014 27.0356442,25.9774961 27.6327754,26.4583357 C28.160995,26.8836842 28.5628716,27.4599692 28.7729975,28.1209397 L33.8108383,26.388531 C34.5584167,26.1313913 35.3522348,26.1707677 36.0495635,26.4515671 C36.7458845,26.7319607 37.3455336,27.2528718 37.7072013,27.9575003 Z M5.20835402,35.1656539 L5.20835402,24.6347966 C5.20835402,24.2190901 5.03915408,23.8422209 4.76616665,23.5692335 C4.49317922,23.2962461 4.11631003,23.1270461 3.70060354,23.1270461 C3.28489706,23.1270461 2.90802787,23.2962461 2.63504044,23.5692335 C2.36205301,23.8422209 2.19285307,24.2190901 2.19285307,24.6347966 L2.19285307,35.1656539 C2.19285307,35.5813604 2.36205301,35.9582296 2.63504044,36.231217 C2.90802787,36.5042044 3.28489706,36.6734044 3.70060354,36.6734044 C4.11631003,36.6734044 4.49317922,36.5042044 4.76616665,36.231217 C5.03915408,35.9582296 5.20835402,35.5813604 5.20835402,35.1656539 L5.20835402,35.1656539 Z M35.3423752,30.3488772 C35.5953448,30.2156925 35.7711549,29.9912167 35.8514635,29.7367713 C35.9318183,29.4821797 35.9166955,29.1971989 35.7861256,28.9427603 C35.6683036,28.7127947 35.4726169,28.54367 35.2456377,28.4522559 C35.0175829,28.3604085 34.7575618,28.3467897 34.5118487,28.4302548 L28.7700969,30.4050452 C28.5933456,30.9445869 28.2769418,31.4247218 27.8612069,31.79534 C27.4180678,32.1903884 26.8623062,32.4611435 26.2424633,32.5478604 C25.3400142,32.6749144 24.2119078,32.7779639 22.9352679,32.7779639 C21.4010416,32.7784873 19.6521184,32.6291087 17.8178554,32.1925291 C17.527813,32.1237055 17.2931259,31.9437736 17.1482749,31.7086293 C17.0033575,31.4733771 16.9483396,31.1828463 17.0175891,30.892842 C17.08644,30.6030351 17.2666746,30.3676947 17.502175,30.2226245 C17.737611,30.0775938 18.0281792,30.0227052 18.3181824,30.093009 C21.3533196,30.8143478 24.1404686,30.6634482 25.9424788,30.4101679 C26.1839319,30.376425 26.3938417,30.2496665 26.5409111,30.0434184 C26.6939938,29.8287373 26.7790179,29.5340829 26.7790179,29.1750372 C26.7790179,28.809207 26.6301127,28.477561 26.3899461,28.2373174 C26.1497802,27.9970745 25.8182509,27.8481316 25.452629,27.8481316 L23.5919932,27.8481316 C21.364036,27.8481316 19.1948814,27.2135279 17.319183,26.0126783 C15.2281747,24.6745132 12.7373729,24.2120246 10.3072492,24.7110903 L7.36699965,25.313513 L7.36349074,34.9951983 L19.6375308,36.9897069 C21.1659796,37.2376575 22.764082,36.9773052 24.1345923,36.2547809 L35.3423752,30.3488772 Z" id="Shape" fill="#3C4D6F"></path>
            <path d="M15.8492477,18.3532779 C18.6616443,20.7151124 21.4373553,22.0171958 21.5541295,22.0714493 C21.6600529,22.1205357 21.7742435,22.1453373 21.8884342,22.1453373 C22.0026248,22.1453373 22.1168154,22.1205357 22.2227389,22.0714493 C22.339513,22.0171958 25.115224,20.7151124 27.9276207,18.3532779 C31.7294974,15.1600736 33.7394593,11.552476 33.7394593,7.91956016 C33.7394593,4.12853418 30.6552786,1.04435349 26.8642526,1.04435349 C24.9736483,1.04435349 23.1765666,1.82663688 21.8884342,3.17573989 C20.6003017,1.82663688 18.8032201,1.04435349 16.9126157,1.04435349 C13.1210731,1.04435349 10.0368923,4.12853423 10.0368923,7.91956016 C10.0368923,11.552476 12.0468543,15.1600736 15.8492477,18.3532779 Z M16.9126158,2.63165508 C18.6311591,2.63165508 20.2484293,3.47180884 21.2394594,4.87929894 C21.5370784,5.30195931 22.2397901,5.30195931 22.5374091,4.87929894 C23.5284392,3.47180889 25.1457094,2.63165508 26.8642527,2.63165508 C29.7799893,2.63165508 32.1521578,5.00382354 32.1521578,7.91956016 C32.1521578,14.8195684 23.6917163,19.5385871 21.8884342,20.4655465 C20.0846354,19.5385871 11.624194,14.8195685 11.624194,7.91956016 C11.624194,5.0038236 13.9963624,2.63165508 16.9126158,2.63165508 Z" id="Shape" fill="#FF008E"></path>
            <path d="M22.3431238,22.3305634 C21.3994963,22.3009757 18.5494289,20.9939757 15.6655057,18.5720736 C11.783376,15.3119076 9.75117804,11.6236948 9.75117804,7.91956016 C9.75117804,5.94524269 10.5541731,4.15491607 11.8509597,2.85822692 C13.1476992,1.56158489 14.9380997,0.758639206 16.9126157,0.758639206 C18.7825554,0.758639206 20.5647052,1.49332417 21.8884342,2.77069115 C23.2121631,1.49332417 24.994313,0.758639206 26.8642526,0.758639206 C28.8385378,0.758639206 30.6288381,1.56160851 31.9255212,2.8582916 C33.2222043,4.15497468 34.0251736,5.94527499 34.0251736,7.91956016 C34.0251736,11.6236915 31.9929751,15.311899 28.1113635,18.5720729 C25.2679039,20.9599938 22.461184,22.2757124 22.3431238,22.3305634 Z M29.2791375,14.35095 C30.7594734,12.5414435 31.8664435,10.3740291 31.8664435,7.91956016 C31.8664435,6.5404629 31.305325,5.28998592 30.399576,4.3842369 C29.4938269,3.47848788 28.24335,2.91736937 26.8642527,2.91736937 C25.2384543,2.91736937 23.7085458,3.71229224 22.7710232,5.04378936 C22.5686423,5.33119833 22.2308354,5.48200851 21.8884342,5.48200851 C21.5460331,5.48200851 21.2082261,5.33119833 21.0058502,5.04379637 C20.0683226,3.71229219 18.5384142,2.91736937 16.9126158,2.91736937 C15.533291,2.91736937 14.2827014,3.47846437 13.3768876,4.38418969 C12.4710475,5.28994128 11.9099083,6.54043829 11.9099083,7.91956016 C11.9099083,10.3741202 13.0169604,12.5416041 14.497404,14.3511511 C17.015483,17.4290004 20.6207564,19.4803618 21.8884171,20.1436822 C23.1558363,19.4803297 26.7611051,17.4288973 29.2791375,14.35095 Z" id="Shape" fill="#FF4702"></path>
        </g>
    </g>
</svg>