<?xml version="1.0" encoding="UTF-8"?>
<svg width="150px" height="100px" viewBox="0 0 150 100" version="1.1" xmlns="http://www.w3.org/2000/svg" xmlns:xlink="http://www.w3.org/1999/xlink">
    <!-- Generator: Sketch 60 (88103) - https://sketch.com -->
    <title>Insurance</title>
    <desc>Created with Sketch.</desc>
    <defs>
        <linearGradient x1="50%" y1="100%" x2="50%" y2="-2.48949813e-15%" id="linearGradient-1">
            <stop stop-color="#F9F9F9" offset="0%"></stop>
            <stop stop-color="#FFFFFF" offset="100%"></stop>
        </linearGradient>
        <radialGradient cx="51.9692899%" cy="50%" fx="51.9692899%" fy="50%" r="391.455643%" gradientTransform="translate(0.519693,0.500000),scale(0.080293,1.000000),translate(-0.519693,-0.500000)" id="radialGradient-2">
            <stop stop-color="#2D2C2C" offset="0%"></stop>
            <stop stop-color="#B6B3B3" offset="100%"></stop>
        </radialGradient>
        <filter x="-4.4%" y="-55.1%" width="108.9%" height="210.3%" filterUnits="objectBoundingBox" id="filter-3">
            <feGaussianBlur stdDeviation="0.6640625" in="SourceGraphic"></feGaussianBlur>
        </filter>
    </defs>
    <g id="Insurance" stroke="none" stroke-width="1" fill="none" fill-rule="evenodd">
        <g id="Group-3" transform="translate(0.500000, 0.500000)">
            <rect id="Rectangle-3-Copy-66" stroke="#9B9B9B" fill="url(#linearGradient-1)" fill-rule="nonzero" x="0" y="0" width="149" height="99" rx="6"></rect>
            <ellipse id="Oval-Copy-9" fill="url(#radialGradient-2)" fill-rule="nonzero" opacity="0.313839286" filter="url(#filter-3)" cx="74.5" cy="77.6463358" rx="22.5" ry="1.806602"></ellipse>
            <g id="Group-2" transform="translate(53.500000, 23.500000)">
                <g id="Group" transform="translate(9.000000, 12.000000)" fill="#FF4702" fill-rule="nonzero">
                    <path d="M11.8,14.5 C15.2793939,14.5 18.1,17.3206061 18.1,20.8 C18.1,21.2970563 17.6970563,21.7 17.2,21.7 C16.7029437,21.7 16.3,21.2970563 16.3,20.8 C16.3,18.3857267 14.3987635,16.4155109 12.0118357,16.304898 L11.8,16.3 L6.4,16.3 C3.91471863,16.3 1.9,18.3147186 1.9,20.8 C1.9,21.2970563 1.49705627,21.7 1,21.7 C0.502943725,21.7 0.1,21.2970563 0.1,20.8 C0.1,17.3979259 2.7966387,14.6256856 6.16904011,14.504155 L6.4,14.5 L11.8,14.5 Z M8.81592469,0.1 C12.2953186,0.1 15.1159247,2.92060608 15.1159247,6.4 C15.1159247,9.87939392 12.2953186,12.7 8.81592469,12.7 C5.33653077,12.7 2.51592469,9.87939392 2.51592469,6.4 C2.51592469,2.92060608 5.33653077,0.1 8.81592469,0.1 Z M8.81592469,1.9 C6.33064332,1.9 4.31592469,3.91471863 4.31592469,6.4 C4.31592469,8.88528137 6.33064332,10.9 8.81592469,10.9 C11.3012061,10.9 13.3159247,8.88528137 13.3159247,6.4 C13.3159247,3.91471863 11.3012061,1.9 8.81592469,1.9 Z" id="Combined-Shape"></path>
                </g>
                <path d="M17.8560991,0.17336274 C15.4389848,1.81881862 12.4699664,3.44792127 8.95035593,5.05774225 C5.69515146,6.54662761 3.30005531,6.54662761 1.63036017,5.19083025 C0.976794959,4.66013338 0,5.12523838 0,5.96713306 L0,8.64719969 C0,21.6421568 6.78754881,33.6933 17.9004925,40.4291292 C18.2198813,40.6227186 18.6205309,40.6221944 18.9394121,40.4277699 L19.3568552,40.1732512 C30.324313,33.38478 37,21.4072162 37,8.50820546 L37,5.96713306 C37,5.29453449 36.3493391,4.81372462 35.706386,5.01120901 C32.3531691,6.0411565 29.6039581,6.0411565 27.4306478,5.05629281 C25.0671862,3.98525956 22.2462449,2.35577912 18.9745933,0.168656577 C18.6356605,-0.0579224454 18.1931133,-0.056060389 17.8560991,0.17336274 Z M18.419,2.201 L18.9651883,2.55830911 C21.8603671,4.44145104 24.4054294,5.88115063 26.6051297,6.87797331 L26.9035811,7.0071833 C29.1095275,7.91831367 31.6959071,8.02880225 34.6475159,7.36303825 L35,7.279 L35,8.50820546 L34.9965448,9.0025633 C34.8308272,20.8552084 28.7137424,31.8307262 18.7282666,38.2061699 L18.42,38.399 L18.1047592,38.1982642 C8.08432187,31.7366679 2,20.6149486 2,8.64719969 L2,7.71 L2.1648041,7.77507213 C4.25559888,8.55313356 6.81482416,8.23377933 9.7822414,6.87652387 C12.9161624,5.44311188 15.6369292,3.9883815 17.9453959,2.51042641 L18.419,2.201 Z" id="Rectangle" fill="#3C4D6F" fill-rule="nonzero"></path>
                <circle id="Oval" stroke="#FFFFFF" stroke-width="2" fill="#3C4D6F" cx="35" cy="10" r="7"></circle>
                <path d="M35,7 C35.5522847,7 36,7.44771525 36,8 L36,9 L37,9 C37.5522847,9 38,9.44771525 38,10 C38,10.5522847 37.5522847,11 37,11 L36,11 L36,12 C36,12.5522847 35.5522847,13 35,13 C34.4477153,13 34,12.5522847 34,12 L34,10.999 L33,11 C32.4477153,11 32,10.5522847 32,10 C32,9.44771525 32.4477153,9 33,9 L34,8.999 L34,8 C34,7.44771525 34.4477153,7 35,7 Z" id="Combined-Shape" fill="#FFFFFF"></path>
            </g>
        </g>
    </g>
</svg>