<svg width="150" height="100" viewBox="0 0 150 100" fill="none" xmlns="http://www.w3.org/2000/svg">
<g clip-path="url(#clip0_4_135)">
<path d="M143.5 0.5H6.5C3.18629 0.5 0.5 3.18629 0.5 6.5V93.5C0.5 96.8137 3.18629 99.5 6.5 99.5H143.5C146.814 99.5 149.5 96.8137 149.5 93.5V6.5C149.5 3.18629 146.814 0.5 143.5 0.5Z" fill="url(#paint0_linear_4_135)" stroke="#9B9B9B"/>
<path opacity="0.313839" d="M75 79.953C87.4264 79.953 97.5 79.1442 97.5 78.1464C97.5 77.1487 87.4264 76.3398 75 76.3398C62.5736 76.3398 52.5 77.1487 52.5 78.1464C52.5 79.1442 62.5736 79.953 75 79.953Z" fill="url(#paint1_radial_4_135)"/>
<path d="M82.5161 57H53.5C53.2239 57 53 57.2239 53 57.5V61C53 61.5523 53.4477 62 54 62H59.5M83 62H68" stroke="#3C4D6F"/>
<path d="M92.8 47.325H96.4562" stroke="#3C4D6F" stroke-linecap="round"/>
<circle cx="63.5" cy="63.5" r="4.5" stroke="#3C4D6F"/>
<circle cx="89.5" cy="63.5" r="4.5" stroke="#3C4D6F"/>
<path d="M94.0791 62L98.5501 61.9614C99.3529 61.9545 100 61.3018 100 60.499V51.9226C100 51.6305 99.9126 51.3452 99.749 51.1033L96.4583 46.2372L93.3517 41.6432C93.0796 41.241 92.6257 41 92.1402 41H84.4625C83.6548 41 83 41.6548 83 42.4625V62H85.5" stroke="#3C4D6F"/>
<path d="M94.9937 44.4H88.4125C87.6048 44.4 86.95 45.0548 86.95 45.8625V50.25C86.95 51.0577 87.6048 51.7125 88.4125 51.7125H100.112" stroke="#3C4D6F"/>
<path d="M83 57H54C53.4477 57 53 56.5523 53 56V37C53 35.8954 53.8954 35 55 35H81C82.1046 35 83 35.8954 83 37V42" stroke="#3C4D6F"/>
<path d="M75 43.4989C74.9997 43.2359 74.9277 42.9775 74.7912 42.7497C74.6547 42.522 74.4585 42.3328 74.2222 42.2013L68.7778 39.201C68.5413 39.0693 68.2731 39 68 39C67.7269 39 67.4587 39.0693 67.2222 39.201L61.7778 42.2013C61.5415 42.3328 61.3453 42.522 61.2088 42.7497C61.0723 42.9775 61.0003 43.2359 61 43.4989V49.4995C61.0003 49.7626 61.0723 50.021 61.2088 50.2487C61.3453 50.4765 61.5415 50.6656 61.7778 50.7972L67.2222 53.7975C67.4587 53.9291 67.7269 53.9985 68 53.9985C68.2731 53.9985 68.5413 53.9291 68.7778 53.7975L74.2222 50.7972C74.4585 50.6656 74.6547 50.4765 74.7912 50.2487C74.9277 50.021 74.9997 49.7626 75 49.4995V43.4989Z" fill="#FF4702" stroke="#FF4702" stroke-linecap="round" stroke-linejoin="round"/>
<path d="M61.2333 42.7488L68 46.4992L74.7667 42.7488" stroke="white" stroke-linecap="round" stroke-linejoin="round"/>
<path d="M68 54V46.4993" stroke="white" stroke-linecap="round" stroke-linejoin="round"/>
</g>
<defs>
<linearGradient id="paint0_linear_4_135" x1="7450.5" y1="9900.5" x2="7450.5" y2="0.5" gradientUnits="userSpaceOnUse">
<stop stop-color="#F9F9F9"/>
<stop offset="1" stop-color="white"/>
</linearGradient>
<radialGradient id="paint1_radial_4_135" cx="0" cy="0" r="1" gradientUnits="userSpaceOnUse" gradientTransform="translate(192.468 257) scale(1414.39 1414.4)">
<stop stop-color="#2D2C2C"/>
<stop offset="1" stop-color="#B6B3B3"/>
</radialGradient>
<clipPath id="clip0_4_135">
<rect width="150" height="100" fill="white"/>
</clipPath>
</defs>
</svg>
