<?xml version="1.0" encoding="UTF-8"?>
<svg width="150px" height="100px" viewBox="0 0 150 100" version="1.1" xmlns="http://www.w3.org/2000/svg" xmlns:xlink="http://www.w3.org/1999/xlink">
    <!-- Generator: Sketch 56.2 (81672) - https://sketch.com -->
    <title>Marketing</title>
    <desc>Created with Sketch.</desc>
    <defs>
        <linearGradient x1="50%" y1="100%" x2="50%" y2="-2.48949813e-15%" id="linearGradient-1">
            <stop stop-color="#F9F9F9" offset="0%"></stop>
            <stop stop-color="#FFFFFF" offset="100%"></stop>
        </linearGradient>
        <radialGradient cx="51.9692899%" cy="50%" fx="51.9692899%" fy="50%" r="391.455643%" gradientTransform="translate(0.519693,0.500000),scale(0.080293,1.000000),translate(-0.519693,-0.500000)" id="radialGradient-2">
            <stop stop-color="#2D2C2C" offset="0%"></stop>
            <stop stop-color="#B6B3B3" offset="100%"></stop>
        </radialGradient>
        <filter x="-4.4%" y="-55.1%" width="108.9%" height="210.3%" filterUnits="objectBoundingBox" id="filter-3">
            <feGaussianBlur stdDeviation="0.6640625" in="SourceGraphic"></feGaussianBlur>
        </filter>
    </defs>
    <g id="Marketing" stroke="none" stroke-width="1" fill="none" fill-rule="evenodd">
        <rect id="Rectangle-3-Copy-67" stroke="#9B9B9B" fill="url(#linearGradient-1)" fill-rule="nonzero" x="0.5" y="0.5" width="149" height="99" rx="6"></rect>
        <path d="M97.742787,39 C97.3325571,39 97,38.5522847 97,38 C97,37.4477153 97.3325571,37 97.742787,37 L108.257213,37 C108.667443,37 109,37.4477153 109,38 C109,38.5522847 108.667443,39 108.257213,39 L97.742787,39 Z M97.742787,59 C97.3325571,59 97,58.5522847 97,58 C97,57.4477153 97.3325571,57 97.742787,57 L108.257213,57 C108.667443,57 109,57.4477153 109,58 C109,58.5522847 108.667443,59 108.257213,59 L97.742787,59 Z M97.7768561,49 C97.3478103,49 97,48.5522847 97,48 C97,47.4477153 97.3478103,47 97.7768561,47 L102.223144,47 C102.65219,47 103,47.4477153 103,48 C103,48.5522847 102.65219,49 102.223144,49 L97.7768561,49 Z" id="Combined-Shape" fill="#FF4702" fill-rule="nonzero"></path>
        <ellipse id="Oval-Copy-10" fill="url(#radialGradient-2)" fill-rule="nonzero" opacity="0.313839286" filter="url(#filter-3)" cx="75" cy="78.1463358" rx="22.5" ry="1.806602"></ellipse>
        <g id="noun_Speaker_1279832-Copy" transform="translate(55.000000, 32.500000)" fill="#3C4D6F" fill-rule="nonzero">
            <path d="M36.25,7.10542736e-14 C34.5,7.10542736e-14 33,1.25 32.625,2.75 L18.5,7.5 L7.5,7.5 C3.375,7.5 0,10.875 0,15 L0,17.5 C0,21.625 3.375,25 7.5,25 L8.25,25 L9.75,32.375 C10.125,33.875 11.375,35 13,35 C14.875,35 16.25,33.5 16.25,31.625 L16.25,25 L18.5,25 L32.625,29.75 C33,31.25 34.5,32.5 36.25,32.5 C38.375,32.5 40,30.875 40,28.75 L40,3.75 C40,1.625 38.375,7.10542736e-14 36.25,7.10542736e-14 Z M32.5,27 L20,22.875 L20,9.625 L32.5,5.5 L32.5,27 Z M2.5,17.5 L2.5,15 C2.5,12.25 4.75,10 7.5,10 L17.5,10 L17.5,22.5 L7.5,22.5 C4.75,22.5 2.5,20.25 2.5,17.5 Z M13.75,31.625 C13.75,32.125 13.375,32.5 13,32.5 C12.625,32.5 12.25,32.25 12.25,31.875 L10.75,25 L13.75,25 L13.75,31.625 Z M37.5,28.75 C37.5,29.5 37,30 36.25,30 C35.5,30 35,29.5 35,28.75 L35,3.75 C35,3 35.5,2.5 36.25,2.5 C37,2.5 37.5,3 37.5,3.75 L37.5,28.75 Z" id="Shape"></path>
        </g>
    </g>
</svg>