<?xml version="1.0" encoding="UTF-8"?>
<svg width="150px" height="100px" viewBox="0 0 150 100" version="1.1" xmlns="http://www.w3.org/2000/svg" xmlns:xlink="http://www.w3.org/1999/xlink">
    <!-- Generator: Sketch 56.2 (81672) - https://sketch.com -->
    <title>Oil and gas</title>
    <desc>Created with Sketch.</desc>
    <defs>
        <linearGradient x1="50%" y1="100%" x2="50%" y2="-2.48949813e-15%" id="linearGradient-1">
            <stop stop-color="#F9F9F9" offset="0%"></stop>
            <stop stop-color="#FFFFFF" offset="100%"></stop>
        </linearGradient>
        <radialGradient cx="51.9692992%" cy="50%" fx="51.9692992%" fy="50%" r="391.453585%" gradientTransform="translate(0.519693,0.500000),scale(0.080293,1.000000),translate(-0.519693,-0.500000)" id="radialGradient-2">
            <stop stop-color="#2D2C2C" offset="0%"></stop>
            <stop stop-color="#B6B3B3" offset="100%"></stop>
        </radialGradient>
    </defs>
    <g id="Oil-and-gas" stroke="none" stroke-width="1" fill="none" fill-rule="evenodd">
        <rect id="Rectangle-3-Copy-66" stroke="#9B9B9B" fill="url(#linearGradient-1)" fill-rule="nonzero" x="0.5" y="0.5" width="149" height="99" rx="6"></rect>
        <ellipse id="Oval-Copy-9" fill="url(#radialGradient-2)" fill-rule="nonzero" opacity="0.313839286" cx="75" cy="78.1463358" rx="22.5" ry="1.806602"></ellipse>
        <g id="Group-3" transform="translate(52.000000, 21.000000)">
            <path d="M0,43.5673116 L45.600086,43.5673116" id="Path-2" stroke="#3C4D6F" stroke-width="1.22666667" stroke-linecap="round" stroke-linejoin="round"></path>
            <path d="M8.05158939,25.3500345 L8.05158939,39.8362032" id="Path-6" stroke="#3C4D6F" stroke-width="1.22666667" stroke-linecap="round" stroke-linejoin="round"></path>
            <path d="M5.12008603,43.5466667 L11.2534194,43.5466667 L11.2534194,40.48 C11.2534194,40.1412654 10.9788207,39.8666667 10.640086,39.8666667 L5.73341936,39.8666667 C5.39468471,39.8666667 5.12008603,40.1412654 5.12008603,40.48 L5.12008603,43.5466667 Z" id="Rectangle" stroke="#3C4D6F" stroke-width="1.22666667"></path>
            <polyline id="Path-3" stroke="#3C4D6F" stroke-width="2" stroke-linecap="round" stroke-linejoin="round" points="14.4506133 43.0907403 17.7949158 20.0389214 28.3319123 13.9596272 33.1695417 43.0907403"></polyline>
            <path d="M32.5479645,19.1407188 L32.2592527,15.0144816 L7.0134297,15.1052051 C5.90572345,15.1091858 5.00985549,16.0082789 5.00985549,17.1159923 C5.00985549,18.2213205 5.90539309,19.1176343 7.01072082,19.118592 L32.5479645,19.1407188 Z" id="Rectangle" stroke="#FF4702" stroke-width="2" transform="translate(18.815150, 17.076387) rotate(-30.000000) translate(-18.815150, -17.076387) "></path>
            <path d="M29.3863974,7.56370583 L35.222269,15.7446013 C36.0556848,16.912908 37.6262419,17.2820305 38.8928252,16.6072791 C40.1366321,15.9446614 40.6496744,14.4283035 40.0637054,13.1466022 L35.7619177,3.73721937 C34.9169354,1.88897338 32.7336425,1.07566745 30.8853965,1.92064974 C30.7624472,1.97685976 30.642689,2.03980265 30.5266667,2.10919211 C28.7299859,3.18373226 28.1445752,5.5113167 29.2191154,7.30799747 C29.2714165,7.39544733 29.3272225,7.48075274 29.3863974,7.56370583 Z" id="Path-4" stroke="#FF4702" stroke-width="2"></path>
            <circle id="Oval" fill="#3C4D6F" cx="32.5" cy="5.5" r="1.5"></circle>
            <path d="M38.6500253,17.0763868 L38.6500253,39.2533333" id="Path-5" stroke="#FF4702" stroke-width="1.22666667" stroke-linecap="round" stroke-linejoin="round"></path>
            <rect id="Rectangle" fill="#3C4D6F" x="37" y="39" width="4" height="4"></rect>
            <path d="M17.0473179,29.1550881 L30.7042523,29.1550881" id="Path-7" stroke="#3C4D6F" stroke-width="1.22666667"></path>
            <path d="M15.2627692,37.4133333 L32.2837713,37.4133333" id="Path-7-Copy" stroke="#3C4D6F" stroke-width="1.22666667"></path>
        </g>
    </g>
</svg>