<?xml version="1.0" encoding="UTF-8"?>
<svg width="150px" height="100px" viewBox="0 0 150 100" version="1.1" xmlns="http://www.w3.org/2000/svg" xmlns:xlink="http://www.w3.org/1999/xlink">
    <!-- Generator: Sketch 56.2 (81672) - https://sketch.com -->
    <title>Energy</title>
    <desc>Created with Sketch.</desc>
    <defs>
        <linearGradient x1="50%" y1="100%" x2="50%" y2="-2.48949813e-15%" id="linearGradient-1">
            <stop stop-color="#F9F9F9" offset="0%"></stop>
            <stop stop-color="#FFFFFF" offset="100%"></stop>
        </linearGradient>
        <radialGradient cx="51.9692992%" cy="50%" fx="51.9692992%" fy="50%" r="391.453585%" gradientTransform="translate(0.519693,0.500000),scale(0.080293,1.000000),translate(-0.519693,-0.500000)" id="radialGradient-2">
            <stop stop-color="#2D2C2C" offset="0%"></stop>
            <stop stop-color="#B6B3B3" offset="100%"></stop>
        </radialGradient>
    </defs>
    <g id="Energy" stroke="none" stroke-width="1" fill="none" fill-rule="evenodd">
        <rect id="Rectangle-3-Copy-66" stroke="#9B9B9B" fill="url(#linearGradient-1)" fill-rule="nonzero" x="0.5" y="0.5" width="149" height="99" rx="6"></rect>
        <ellipse id="Oval-Copy-9" fill="url(#radialGradient-2)" fill-rule="nonzero" opacity="0.313839286" cx="75" cy="78.1463358" rx="22.5" ry="1.806602"></ellipse>
        <g id="Group-12" transform="translate(73.200000, 46.000000) rotate(22.000000) translate(-73.200000, -46.000000) translate(56.700000, 28.000000)" fill-rule="nonzero">
            <g id="Group-11">
                <g id="Path-7" stroke-linecap="round" stroke-linejoin="round" transform="translate(7.393750, 0.000000)" fill="#3C4D6F">
                    <path d="M4.62126656,21.2944487 L3.09150275,35.4848407 C2.97935576,36.5251384 4.33810488,37.0171924 4.91806838,36.1463086 L18.6260762,15.5621137 C19.0686571,14.8975262 18.59222,14.0078276 17.79375,14.0078276 L12.5661511,14.0078276 L14.344239,0.127059013 C14.4789441,-0.924526241 13.0996541,-1.43531354 12.5169406,-0.549637555 L-0.835403231,19.7448111 C-1.27288586,20.4097482 -0.795947487,21.2944487 -1.0658141e-14,21.2944487 L4.62126656,21.2944487 Z M10.4379876,14.8807686 C10.3614065,15.478605 10.8271615,16.0078276 11.4298828,16.0078276 L15.9263497,16.0078276 L5.51785382,31.6374152 L6.72910272,20.4016305 C6.79284419,19.810352 6.32956759,19.2944487 5.73486328,19.2944487 L1.85495758,19.2944487 L11.8110248,4.16205709 L10.4379876,14.8807686 Z" id="Path-6"></path>
                </g>
                <path d="M13.7363363,2.14660976 C14.281849,2.06038709 14.7939717,2.43271522 14.8801944,2.97822791 C14.9664171,3.5237406 14.5940889,4.03586329 14.0485763,4.12208596 C7.14936236,5.21256222 2,11.1864741 2,18.2460112 C2,23.2528704 4.59291485,27.8124598 8.7695354,30.4050477 C9.2387685,30.6963186 9.38303537,31.3128289 9.09176446,31.782062 C8.80049355,32.2512951 8.18398324,32.395562 7.71475014,32.1042911 C2.95634714,29.1505686 0,23.9518907 0,18.2460112 C0,10.1987057 5.86881785,3.39013434 13.7363363,2.14660976 Z M18.5479344,34.3921476 C18.0008361,34.4676585 17.4961116,34.0853614 17.4206007,33.5382631 C17.3450898,32.9911648 17.7273869,32.4864403 18.2744852,32.4109294 C25.3019011,31.4410005 30.6,25.4088441 30.6,18.2460112 C30.6,13.2371035 28.004948,8.67590376 23.825564,6.08393413 C23.3562135,5.79285242 23.211698,5.17640033 23.5027798,4.70704983 C23.7938615,4.23769934 24.4103136,4.09318393 24.879664,4.38426563 C29.6412188,7.33728579 32.6,12.5377951 32.6,18.2460112 C32.6,26.4110773 26.5616085,33.2860946 18.5479344,34.3921476 Z" id="Shape" fill="#FF4702"></path>
            </g>
        </g>
    </g>
</svg>