<?xml version="1.0" encoding="UTF-8"?>
<svg width="150px" height="100px" viewBox="0 0 150 100" version="1.1" xmlns="http://www.w3.org/2000/svg" xmlns:xlink="http://www.w3.org/1999/xlink">
    <!-- Generator: Sketch 56.2 (81672) - https://sketch.com -->
    <title>Manufacturing</title>
    <desc>Created with Sketch.</desc>
    <defs>
        <linearGradient x1="50%" y1="100%" x2="50%" y2="-2.48949813e-15%" id="linearGradient-1">
            <stop stop-color="#F9F9F9" offset="0%"></stop>
            <stop stop-color="#FFFFFF" offset="100%"></stop>
        </linearGradient>
        <radialGradient cx="51.9692899%" cy="50%" fx="51.9692899%" fy="50%" r="391.455643%" gradientTransform="translate(0.519693,0.500000),scale(0.080293,1.000000),translate(-0.519693,-0.500000)" id="radialGradient-2">
            <stop stop-color="#2D2C2C" offset="0%"></stop>
            <stop stop-color="#B6B3B3" offset="100%"></stop>
        </radialGradient>
        <filter x="-4.4%" y="-55.1%" width="108.9%" height="210.3%" filterUnits="objectBoundingBox" id="filter-3">
            <feGaussianBlur stdDeviation="0.6640625" in="SourceGraphic"></feGaussianBlur>
        </filter>
    </defs>
    <g id="Manufacturing" stroke="none" stroke-width="1" fill="none" fill-rule="evenodd">
        <rect id="Rectangle-3-Copy-68" stroke="#9B9B9B" fill="url(#linearGradient-1)" fill-rule="nonzero" x="0.5" y="0.5" width="149" height="99" rx="6"></rect>
        <ellipse id="Oval-Copy-11" fill="url(#radialGradient-2)" fill-rule="nonzero" opacity="0.313839286" filter="url(#filter-3)" cx="75" cy="78.1463358" rx="22.5" ry="1.806602"></ellipse>
        <g id="noun_Factory_69335-Copy" transform="translate(55.000000, 31.025641)" fill-rule="nonzero">
            <path d="M39.031085,37.6522605 L11.9147522,37.6522605 C11.46117,37.6522605 11.0930452,37.2841358 11.0930452,36.8305535 C11.0930452,36.3769712 11.46117,36.0088464 11.9147522,36.0088464 L38.2093779,36.0088464 L38.2093779,19.5747054 L11.9147522,19.5747054 C11.46117,19.5747054 11.0930452,19.2065806 11.0930452,18.7529983 C11.0930452,18.299416 11.46117,17.9312913 11.9147522,17.9312913 L39.031085,17.9312913 C39.4830238,17.9312913 39.852792,18.299416 39.852792,18.7529983 L39.852792,36.8305535 C39.852792,37.2857792 39.4830238,37.6522605 39.031085,37.6522605 Z" id="Shape" fill="#3C4D6F"></path>
            <path d="M12.7364593,37.6522605 L1.23256058,37.6522605 C0.999195775,37.6522605 0.777334871,37.5536557 0.621210531,37.3794538 C0.465086191,37.2052519 0.389489143,36.9751739 0.415783768,36.7434525 L3.70261197,5.51858456 C3.74534074,5.10115738 4.09867477,4.78233504 4.51938878,4.78233504 L9.44963109,4.78233504 C9.87034511,4.78233504 10.2236791,5.09951396 10.2664079,5.51858456 L13.5532361,36.7434525 C13.5778873,36.9751739 13.5022903,37.2036085 13.3478093,37.3794538 C13.1933284,37.5552991 12.9698241,37.6522605 12.7364593,37.6522605 Z M2.1446554,36.0088464 L11.8243645,36.0088464 L8.71009475,6.42739256 L5.25892513,6.42739256 L2.1446554,36.0088464 Z" id="Shape" fill="#3C4D6F"></path>
            <path d="M25.3250113,6.62460225 C22.8368824,6.62460225 20.720165,5.84891079 18.6691842,5.09787055 C16.4522186,4.28602398 14.3880905,3.52512325 12.0100703,3.80286024 C11.623868,3.85380607 11.2540998,3.61386761 11.1324871,3.24081261 C11.0108745,2.86775761 11.1686422,2.46183433 11.5104724,2.27119829 C14.0479038,0.841428021 16.3799084,0.146263855 18.6379593,0.146263855 C20.9206615,0.146263855 22.8073009,0.838141193 24.633134,1.50701073 C26.363649,2.14136858 27.9972027,2.73957131 29.895346,2.73957131 C30.9224798,2.73957131 31.9430399,2.56536942 33.0161893,2.20710514 C33.4007482,2.07563201 33.8296793,2.25312074 34.0120983,2.62124549 C34.1945172,2.98937025 34.0778348,3.43473548 33.7392915,3.66481345 C30.8090842,5.65663134 28.0563656,6.62460225 25.3250113,6.62460225 L25.3250113,6.62460225 Z M15.3314102,2.34679534 C16.6905136,2.62288891 17.9756635,3.09290534 19.2345187,3.55306129 C21.2378405,4.28602398 23.1310535,4.97954473 25.3250113,4.97954473 C26.5016958,4.97954473 27.6931711,4.76754431 28.9208014,4.33696982 C27.1459142,4.17591524 25.5863142,3.60400713 24.0710864,3.04853316 C22.299486,2.39774118 20.6314207,1.78474772 18.6396028,1.78474772 C17.5713836,1.78967796 16.4752264,1.97374034 15.3314102,2.34679534 L15.3314102,2.34679534 Z" id="Shape" stroke="#FF4702" stroke-width="0.6" fill="#FF4702"></path>
            <path d="M34.1008426,30.8027114 L27.5271862,30.8027114 C27.0752474,30.8027114 26.7054792,30.4345866 26.7054792,29.9810043 L26.7054792,23.4073479 C26.7054792,22.9537656 27.0752474,22.5856409 27.5271862,22.5856409 L34.1008426,22.5856409 C34.5527815,22.5856409 34.9225497,22.9537656 34.9225497,23.4073479 L34.9225497,29.9810043 C34.9225497,30.43623 34.5527815,30.8027114 34.1008426,30.8027114 Z M28.3488933,29.1592973 L33.2791356,29.1592973 L33.2791356,24.229055 L28.3488933,24.229055 L28.3488933,29.1592973 Z" id="Shape" stroke="#FF4702" stroke-width="0.7" fill="#FF4702"></path>
            <path d="M22.5969439,30.8027114 L16.0232875,30.8027114 C15.5697052,30.8027114 15.2015805,30.4345866 15.2015805,29.9810043 L15.2015805,23.4073479 C15.2015805,22.9537656 15.5697052,22.5856409 16.0232875,22.5856409 L22.5969439,22.5856409 C23.0488828,22.5856409 23.418651,22.9537656 23.418651,23.4073479 L23.418651,29.9810043 C23.418651,30.43623 23.0488828,30.8027114 22.5969439,30.8027114 Z M16.8449946,29.1592973 L21.7752369,29.1592973 L21.7752369,24.229055 L16.8449946,24.229055 L16.8449946,29.1592973 Z" id="Shape" stroke="#FF4702" stroke-width="0.7" fill="#FF4702"></path>
        </g>
    </g>
</svg>