<?xml version="1.0" encoding="UTF-8"?>
<svg width="150px" height="100px" viewBox="0 0 150 100" version="1.1" xmlns="http://www.w3.org/2000/svg" xmlns:xlink="http://www.w3.org/1999/xlink">
    <!-- Generator: Sketch 63.1 (92452) - https://sketch.com -->
    <title>Group 22</title>
    <desc>Created with Sketch.</desc>
    <defs>
        <linearGradient x1="50.1342282%" y1="100.060606%" x2="50.1342282%" y2="0.0606060606%" id="linearGradient-1">
            <stop stop-color="#F9F9F9" offset="0%"></stop>
            <stop stop-color="#FFFFFF" offset="100%"></stop>
        </linearGradient>
        <radialGradient cx="53.3131111%" cy="90.3977901%" fx="53.3131111%" fy="90.3977901%" r="389.91989%" gradientTransform="translate(0.533131,0.903978),scale(0.080444,1.000000),translate(-0.533131,-0.903978)" id="radialGradient-2">
            <stop stop-color="#2D2C2C" offset="0%"></stop>
            <stop stop-color="#B6B3B3" offset="100%"></stop>
        </radialGradient>
    </defs>
    <g id="Palette" stroke="none" stroke-width="1" fill="none" fill-rule="evenodd">
        <g id="Group-22">
            <g id="Supply-Chain-Copy" fill-rule="nonzero">
                <rect id="Rectangle-3-Copy-66" stroke="#9B9B9B" fill="url(#linearGradient-1)" x="0.5" y="0.5" width="149" height="99" rx="6"></rect>
                <ellipse id="Oval-Copy-9" fill="url(#radialGradient-2)" opacity="0.31" cx="75" cy="78.15" rx="22.5" ry="1.81"></ellipse>
                <path d="M85.72,41.69 L89.14,41.69 C91.9014237,41.69 94.14,43.9285763 94.14,46.69 L94.14,47 C94.14,47.5522847 93.6922847,48 93.14,48 L86.72,48 C86.1677153,48 85.72,47.5522847 85.72,47 L85.72,41.69 Z" id="Path" fill="#FFFFFF"></path>
            </g>
            <g id="Group-30" transform="translate(58.500000, 27.500000)">
                <path d="M30.5701322,25.1743813 C32.4431914,25.41121 32.4431914,27.612327 30.9294073,31.529862 C30.6121044,32.2956184 30.3237289,32.8774989 30.0591926,33.2807134 L29.9359343,33.4650844 L29.7682498,33.7044991 C29.619475,33.9074736 29.0578628,34.6748795 28.8175919,35.0315381 L28.7321882,35.1634333 C28.1339091,36.1629501 26.6567924,37.3895348 24.2109375,38.923544 L23.5289248,39.1945885 C22.0939917,39.7524687 20.9367301,40.1193684 20.0517488,40.2954207 C19.0903347,40.486678 17.5911682,40.6001462 15.5382589,40.6389819 L15.1468453,40.6453898 L5.76,40.6447777 L5.76000023,41.3153141 C5.76000023,42.0170406 5.22460093,42.593718 4.54001419,42.6591342 L4.41000018,42.6653142 L1.35000005,42.6653142 C0.604415612,42.6653142 -2.75202083e-12,42.0608985 -2.75202083e-12,41.3153141 L-2.75202083e-12,41.3153141 L-2.75202083e-12,30.1553137 C-2.75202083e-12,29.4097292 0.604415612,28.8053136 1.35000005,28.8053136 L1.35000005,28.8053136 L4.41000018,28.8053136 C5.15558462,28.8053136 5.76000023,29.4097292 5.76000023,30.1553137 L5.76000023,30.1553137 L5.76027548,30.9038396 C7.27152615,29.489262 10.5467671,28.6307827 14.5201293,28.5887651 L15.5172341,28.5825446 C15.7482608,28.5794241 15.9849159,28.5746658 16.2412781,28.5681143 L18.6798871,28.4922587 C20.4676125,28.446539 21.1308353,28.4917673 21.8789647,28.7052108 C22.9277301,29.0044267 23.517196,29.6580416 23.6482277,30.7259124 L26.6148854,29.4598212 L26.6431556,29.3752375 C27.637158,26.4197542 28.923477,24.966179 30.5701322,25.1743813 Z M4.41000018,29.7053136 L1.35000005,29.7053136 C1.10147191,29.7053136 0.900000036,29.9067855 0.900000036,30.1553137 L0.900000036,30.1553137 L0.900000036,41.3153141 C0.900000036,41.5638422 1.10147191,41.7653141 1.35000005,41.7653141 L1.35000005,41.7653141 L4.41000018,41.7653141 C4.65852832,41.7653141 4.86000019,41.5638422 4.86000019,41.3153141 L4.86000019,41.3153141 L4.86000019,30.1553137 C4.86000019,29.9067855 4.65852832,29.7053136 4.41000018,29.7053136 L4.41000018,29.7053136 Z M27.4973386,29.6585856 L27.3453056,30.1269287 L23.6463103,31.7082949 C23.470756,33.0084758 22.4964132,33.7477847 20.8496486,34.0507797 L20.5896638,34.0954622 C19.5490586,34.2613281 18.4676539,34.2743745 16.1643857,34.1903832 L13.5583862,34.0929499 C13.4091793,34.088755 13.263943,34.0851826 13.1140615,34.0819761 L12.4038972,34.0716833 L12.4100967,33.1717046 L13.1333117,33.1821819 L14.408802,33.2208448 L16.490778,33.3013128 C18.701307,33.3768604 19.688285,33.3493563 20.6867876,33.1656377 C22.085183,32.9083412 22.7316614,32.3690984 22.7728144,31.3747527 C22.8172248,30.3017017 22.480837,29.8128393 21.6320448,29.5706764 C20.9443922,29.374487 20.261997,29.3438641 18.2290282,29.4054188 L16.2611026,29.4679073 C15.9154069,29.4767308 15.6045669,29.482341 15.2948679,29.4851007 L14.8269606,29.4871478 C9.7444738,29.4871478 5.91276814,30.9007717 5.76445923,32.6580266 L5.76000023,32.7638657 L5.76,39.7447777 L15.1405778,39.7454334 L15.89075,39.7312486 C17.7022259,39.687353 19.0336491,39.5803189 19.8761496,39.4127175 C20.8313536,39.2226955 22.1662961,38.7815622 23.8017864,38.1258947 L24.3720409,37.7600037 C26.2070805,36.5609712 27.3836159,35.568944 27.8891596,34.8128425 L28.0480965,34.5639734 C28.3448207,34.1195506 29.0850252,33.1135508 29.0684765,33.1371086 C29.1535137,33.016055 29.2322365,32.9004975 29.3066868,32.787018 C29.5349256,32.4391295 29.8003795,31.9034999 30.0939265,31.1954162 C31.4019266,27.8101175 31.4019266,26.1867186 30.4572355,26.0672723 C29.3749195,25.9304248 28.3658259,27.0747374 27.4973386,29.6585856 Z" id="Combined-Shape" fill="#FF4800" fill-rule="nonzero"></path>
                <g id="Group-28" transform="translate(5.011708, 0.000000)">
                    <g id="Group-27">
                        <path d="M2.81704914,9.0391106 L4.01704907,9.0391106 L3.95339669,11.1477096 C3.94143278,11.5440353 3.64096869,11.8717994 3.24717479,11.9180983 L2.81704914,11.9686689 L2.81704914,11.9686689 L2.81704914,9.0391106 Z" id="Rectangle" fill="#283A5E"></path>
                        <path d="M6.01704895,9.0391106 L7.21704888,9.0391106 L7.21704888,11.9686689 L6.81704891,11.9686689 C6.37522113,11.9686689 6.01704895,11.6104967 6.01704895,11.1686689 L6.01704895,9.0391106 L6.01704895,9.0391106 Z" id="Rectangle" fill="#283A5E"></path>
                        <path d="M2.81704914,14.6391103 L4.01704907,14.6391103 L3.95339669,16.7477093 C3.94143278,17.144035 3.64096869,17.4717991 3.24717479,17.518098 L2.81704914,17.5686685 L2.81704914,17.5686685 L2.81704914,14.6391103 Z" id="Rectangle" fill="#283A5E"></path>
                        <path d="M6.01704895,14.6391103 L7.21704888,14.6391103 L7.21704888,17.5686685 L6.81704891,17.5686685 C6.37522113,17.5686685 6.01704895,17.2104964 6.01704895,16.7686686 L6.01704895,14.6391103 L6.01704895,14.6391103 Z" id="Rectangle" fill="#283A5E"></path>
                        <path d="M2.81704914,19.43911 L4.01704907,19.43911 L3.95339669,21.547709 C3.94143278,21.9440347 3.64096869,22.2717988 3.24717479,22.3180977 L2.81704914,22.3686683 L2.81704914,22.3686683 L2.81704914,19.43911 Z" id="Rectangle" fill="#283A5E"></path>
                        <path d="M6.01704895,19.43911 L7.21704888,19.43911 L7.21704888,22.3686683 L6.81704891,22.3686683 C6.37522113,22.3686683 6.01704895,22.0104961 6.01704895,21.5686683 L6.01704895,19.43911 L6.01704895,19.43911 Z" id="Rectangle" fill="#283A5E"></path>
                        <path d="M13.2170485,19.43911 L14.4170485,19.43911 L14.3533961,21.547709 C14.3414322,21.9440347 14.0409681,22.2717988 13.6471742,22.3180977 L13.2170485,22.3686683 L13.2170485,22.3686683 L13.2170485,19.43911 Z" id="Rectangle" fill="#283A5E"></path>
                        <path d="M13.2170485,14.6391103 L14.4170485,14.6391103 L14.3533961,16.7477093 C14.3414322,17.144035 14.0409681,17.4717991 13.6471742,17.518098 L13.2170485,17.5686685 L13.2170485,17.5686685 L13.2170485,14.6391103 Z" id="Rectangle" fill="#283A5E"></path>
                        <path d="M16.4170483,14.6391103 L17.6170483,14.6391103 L17.6170483,17.5686685 L17.2170483,17.5686685 C16.7752205,17.5686685 16.4170483,17.2104964 16.4170483,16.7686686 L16.4170483,14.6391103 L16.4170483,14.6391103 Z" id="Rectangle" fill="#283A5E"></path>
                        <path d="M-7.14095407e-13,24.4501179 L-7.14095407e-13,6.683079 C-7.12776543e-13,6.57362688 0.0559410749,6.47176727 0.148304348,6.41304086 L9.74286197,0.312629872 C9.89199991,0.217804993 10.0897709,0.261834433 10.1845957,0.41097238 C10.2172269,0.462293769 10.2345576,0.521851258 10.2345576,0.582668013 L10.2345576,24.4501179 L10.2345576,24.4501179" id="Path-166" stroke="#283A5E" stroke-width="1.19999993" stroke-linecap="round"></path>
                        <path d="M12.2140836,7.89927883 L21.1215969,13.7500429 C21.3467857,13.8979547 21.4823985,14.1492803 21.4823985,14.4187017 L21.4823985,26.3573793 L21.4823985,26.3573793" id="Path-167" stroke="#283A5E" stroke-width="1.19999993" stroke-linecap="round"></path>
                    </g>
                </g>
            </g>
        </g>
    </g>
</svg>