<?xml version="1.0" encoding="UTF-8"?>
<svg width="150px" height="100px" viewBox="0 0 150 100" version="1.1" xmlns="http://www.w3.org/2000/svg" xmlns:xlink="http://www.w3.org/1999/xlink">
    <!-- Generator: Sketch 58 (84663) - https://sketch.com -->
    <title>Retails</title>
    <desc>Created with Sketch.</desc>
    <defs>
        <linearGradient x1="50%" y1="100%" x2="50%" y2="-2.48949813e-15%" id="linearGradient-1">
            <stop stop-color="#F9F9F9" offset="0%"></stop>
            <stop stop-color="#FFFFFF" offset="100%"></stop>
        </linearGradient>
        <radialGradient cx="51.9692899%" cy="50%" fx="51.9692899%" fy="50%" r="391.455643%" gradientTransform="translate(0.519693,0.500000),scale(0.080293,1.000000),translate(-0.519693,-0.500000)" id="radialGradient-2">
            <stop stop-color="#2D2C2C" offset="0%"></stop>
            <stop stop-color="#B6B3B3" offset="100%"></stop>
        </radialGradient>
        <filter x="-4.4%" y="-55.1%" width="108.9%" height="210.3%" filterUnits="objectBoundingBox" id="filter-3">
            <feGaussianBlur stdDeviation="0.6640625" in="SourceGraphic"></feGaussianBlur>
        </filter>
    </defs>
    <g id="Retails" stroke="none" stroke-width="1" fill="none" fill-rule="evenodd">
        <rect id="Rectangle-3-Copy-66" stroke="#9B9B9B" fill="url(#linearGradient-1)" fill-rule="nonzero" x="1" y="1" width="148" height="98" rx="6"></rect>
        <ellipse id="Oval-Copy-9" fill="url(#radialGradient-2)" fill-rule="nonzero" opacity="0.313839286" filter="url(#filter-3)" cx="75" cy="78.1463358" rx="22.5" ry="1.806602"></ellipse>
        <g id="Group" transform="translate(56.000000, 32.000000)">
            <path d="M14.2188616,0 C17.6813807,0 20.5025591,2.78838472 20.6235827,6.27449078 L20.6276281,6.50790857 L20.6268341,7.58498599 L20.697364,7.57322136 L20.697364,7.57322136 L20.7701876,7.56920628 L28.3370241,7.56920628 C28.6698891,7.56920628 28.945459,7.81831058 28.9928116,8.14295293 L29,8.2424382 L29,39.3267681 C29,39.6647824 28.7546906,39.9446152 28.4349939,39.9927004 L28.3370241,40 L0.662975852,40 C0.330110895,40 0.0545410235,39.7508957 0.00718836051,39.4262534 L-1.13686838e-13,39.3267681 L-1.13686838e-13,8.2424382 C-1.13686838e-13,7.90442391 0.245309421,7.62459104 0.56500614,7.57650585 L0.662975852,7.56920628 L7.81,7.569 L7.81009498,6.50790857 C7.81009498,2.91368991 10.6793975,0 14.2188616,0 Z M14.2188616,1.34646384 C11.4836789,1.34646384 9.25309632,3.54033515 9.14050575,6.28972704 L9.13604669,6.50790857 L9.13574925,10.6776765 C9.78381771,10.9439262 10.2410064,11.5890387 10.2410064,12.3425852 C10.2410064,13.3340938 9.44947471,14.1378703 8.47307083,14.1378703 C7.49666696,14.1378703 6.70513523,13.3340938 6.70513523,12.3425852 C6.70513523,11.58942 7.16186133,10.9445792 7.80940865,10.678081 L7.809,8.915 L1.3259517,8.91567013 L1.3259517,38.6535362 L27.6740483,38.6535362 L27.6740483,8.91567013 L20.7701876,8.91567013 C20.7213201,8.91567013 20.6736876,8.91030125 20.6278307,8.90011267 L20.6281238,10.6780026 C21.2757721,10.9444526 21.7325879,11.5893461 21.7325879,12.3425852 C21.7325879,13.3340938 20.9410561,14.1378703 19.9646523,14.1378703 C18.9882484,14.1378703 18.1967167,13.3340938 18.1967167,12.3425852 C18.1967167,11.5893461 18.6535324,10.9444526 19.3011807,10.6780026 L19.3016764,6.50790857 C19.3016764,3.65732136 17.0260227,1.34646384 14.2188616,1.34646384 Z M17.5337408,7.62996177 L17.5337408,8.97642561 L10.9039823,8.97642561 L10.9039823,7.62996177 L17.5337408,7.62996177 Z" id="Combined-Shape" fill="#3B4D6F" fill-rule="nonzero"></path>
            <path d="M30.5,11.5 L30.5,15.5" id="Line" stroke="#3B4D6F" stroke-linecap="square"></path>
            <rect id="Rectangle" stroke="#F94702" stroke-width="1.5" fill="#FFFFFF" x="8" y="18" width="31" height="22" rx="2"></rect>
        </g>
        <path d="M79.5137263,53 C82.9762455,53 85.7974239,55.7883847 85.9184475,59.2744908 L85.9224929,59.5079086 L85.9229886,60.6780026 C86.5706369,60.9444526 87.0274526,61.5893461 87.0274526,62.3425852 C87.0274526,63.3340938 86.2359209,64.1378703 85.259517,64.1378703 C84.2831132,64.1378703 83.4915814,63.3340938 83.4915814,62.3425852 C83.4915814,61.5893461 83.9483972,60.9444526 84.5960455,60.6780026 L84.5965412,59.5079086 C84.5965412,56.6573214 82.3208875,54.3464638 79.5137263,54.3464638 C76.7785437,54.3464638 74.5479611,56.5403351 74.4353705,59.289727 L74.4309115,59.5079086 L74.430614,60.6776765 C75.0786825,60.9439262 75.5358712,61.5890387 75.5358712,62.3425852 C75.5358712,63.3340938 74.7443395,64.1378703 73.7679356,64.1378703 C72.7915317,64.1378703 72,63.3340938 72,62.3425852 C72,61.58942 72.4567261,60.9445792 73.1042734,60.678081 L73.1049598,59.5079086 C73.1049598,55.9136899 75.9742623,53 79.5137263,53 Z" id="Combined-Shape" fill="#F94702" fill-rule="nonzero" transform="translate(79.513726, 58.568935) rotate(-180.000000) translate(-79.513726, -58.568935) "></path>
    </g>
</svg>