<?xml version="1.0" encoding="UTF-8"?>
<svg width="150px" height="100px" viewBox="0 0 150 100" version="1.1" xmlns="http://www.w3.org/2000/svg" xmlns:xlink="http://www.w3.org/1999/xlink">
    <!-- Generator: Sketch 56.2 (81672) - https://sketch.com -->
    <title>Sales</title>
    <desc>Created with Sketch.</desc>
    <defs>
        <linearGradient x1="50%" y1="100%" x2="50%" y2="-2.48949813e-15%" id="linearGradient-1">
            <stop stop-color="#F9F9F9" offset="0%"></stop>
            <stop stop-color="#FFFFFF" offset="100%"></stop>
        </linearGradient>
        <linearGradient x1="-1.11022302e-14%" y1="50%" x2="100%" y2="50%" id="linearGradient-2">
            <stop stop-color="#4FACFE" offset="0%"></stop>
            <stop stop-color="#00F2FE" offset="100%"></stop>
        </linearGradient>
        <radialGradient cx="51.9692899%" cy="50%" fx="51.9692899%" fy="50%" r="391.455643%" gradientTransform="translate(0.519693,0.500000),scale(0.080293,1.000000),translate(-0.519693,-0.500000)" id="radialGradient-3">
            <stop stop-color="#2D2C2C" offset="0%"></stop>
            <stop stop-color="#B6B3B3" offset="100%"></stop>
        </radialGradient>
        <filter x="-4.4%" y="-55.1%" width="108.9%" height="210.3%" filterUnits="objectBoundingBox" id="filter-4">
            <feGaussianBlur stdDeviation="0.6640625" in="SourceGraphic"></feGaussianBlur>
        </filter>
    </defs>
    <g id="Sales" stroke="none" stroke-width="1" fill="none" fill-rule="evenodd">
        <rect id="Rectangle-3-Copy-32" stroke="#9B9B9B" fill="url(#linearGradient-1)" fill-rule="nonzero" x="0.5" y="0.5" width="149" height="99" rx="6"></rect>
        <rect id="Rectangle-Copy-96" x="50.6666667" y="26" width="46.875" height="46.875"></rect>
        <g id="noun_business-analysis_1273915-copy-20" transform="translate(55.000000, 26.000000)" fill-rule="nonzero">
            <path d="M38.75,33.75 L38.75,11.25 C38.75,10.5 38.25,10 37.5,10 L32.5,10 C31.75,10 31.25,10.5 31.25,11.25 L31.25,33.75 L28.75,33.75 L28.75,18.75 C28.75,18 28.25,17.5 27.5,17.5 L22.5,17.5 C21.75,17.5 21.25,18 21.25,18.75 L21.25,33.75 L18.75,33.75 L18.75,15 C18.75,14.25 18.25,13.75 17.5,13.75 L12.5,13.75 C11.75,13.75 11.25,14.25 11.25,15 L11.25,33.75 L8.75,33.75 L8.75,21.25 C8.75,20.5 8.25,20 7.5,20 L2.5,20 C1.75,20 1.25,20.5 1.25,21.25 L1.25,33.75 L0,33.75 L0,36.25 L2.5,36.25 L7.5,36.25 L12.5,36.25 L17.5,36.25 L22.5,36.25 L27.5,36.25 L32.5,36.25 L37.5,36.25 L40,36.25 L40,33.75 L38.75,33.75 Z M3.75,33.75 L3.75,22.5 L6.25,22.5 L6.25,33.75 L3.75,33.75 Z M13.75,33.75 L13.75,16.25 L16.25,16.25 L16.25,33.75 L13.75,33.75 Z M23.75,33.75 L23.75,20 L26.25,20 L26.25,33.75 L23.75,33.75 Z M33.75,33.75 L33.75,12.5 L36.25,12.5 L36.25,33.75 L33.75,33.75 Z" id="Shape" fill="#3C4D6F"></path>
            <path d="M3.75,16.25 C4,16.25 4.25,16.125 4.5,16 L15.25,8.875 L24.625,12.375 C25.125,12.5 25.625,12.375 26,12.125 L33.875,4.25 L33.875,6.25 C33.875,7 34.375,7.5 35.125,7.5 C35.875,7.5 36.375,7 36.375,6.25 L36.375,1.25 C36.375,1.125 36.375,0.875 36.25,0.75 C36.125,0.5 35.875,0.25 35.625,0.125 C35.375,0 35.125,0 35,0 L30,0 C29.25,0 28.75,0.5 28.75,1.25 C28.75,2 29.25,2.5 30,2.5 L32,2.5 L24.75,9.75 L15.5,6.25 C15,6.25 14.625,6.25 14.25,6.5 L3,14 C2.375,14.375 2.25,15.125 2.625,15.75 C3,16 3.375,16.25 3.75,16.25 Z" id="Shape" fill="#FF4702"></path>
        </g>
        <ellipse id="Oval-Copy" fill="url(#radialGradient-3)" fill-rule="nonzero" opacity="0.313839286" filter="url(#filter-4)" cx="75" cy="78.1463358" rx="22.5" ry="1.806602"></ellipse>
    </g>
</svg>