<svg width="150" height="100" viewBox="0 0 150 100" fill="none" xmlns="http://www.w3.org/2000/svg">
<g clip-path="url(#clip0_26_37)">
<path d="M143.5 0.5H6.5C3.18629 0.5 0.5 3.18629 0.5 6.5V93.5C0.5 96.8137 3.18629 99.5 6.5 99.5H143.5C146.814 99.5 149.5 96.8137 149.5 93.5V6.5C149.5 3.18629 146.814 0.5 143.5 0.5Z" fill="url(#paint0_linear_26_37)" stroke="#9B9B9B"/>
<path d="M57 46.5V53C57 54.6569 58.3431 56 60 56H66L65.5 59L69 56.5" stroke="#3C4D6F" stroke-linecap="round" stroke-linejoin="round"/>
<path opacity="0.313839" d="M75 79.953C87.4264 79.953 97.5 79.1442 97.5 78.1464C97.5 77.1487 87.4264 76.3398 75 76.3398C62.5736 76.3398 52.5 77.1487 52.5 78.1464C52.5 79.1442 62.5736 79.953 75 79.953Z" fill="url(#paint1_radial_26_37)"/>
<path d="M84 63.6344V65.4081C84 66.3746 83.2165 67.1581 82.25 67.1581H80.087L75.9643 70V67.7826H70.75C69.7835 67.7826 69 66.9991 69 66.0326V55.75C69 54.7835 69.7835 54 70.75 54H82.25C83.2165 54 84 54.7835 84 55.75V59.4194" stroke="#3C4D6F" stroke-linecap="round" stroke-linejoin="round"/>
<path d="M75.2679 58.6C75.2679 58.2756 75.3973 57.9642 75.6282 57.7344C75.8592 57.5045 76.1728 57.375 76.5001 57.375C76.8274 57.375 77.141 57.5045 77.3719 57.7344C77.6028 57.9642 77.7322 58.2756 77.7322 58.6C77.7322 58.9243 77.6028 59.2358 77.3719 59.4656C77.141 59.6955 76.8274 59.825 76.5001 59.825C76.1728 59.825 75.8592 59.6955 75.6282 59.4656C75.3973 59.2358 75.2679 58.9243 75.2679 58.6ZM76.4999 61.215L76.5004 61.215C76.8549 61.2147 77.2054 61.2889 77.529 61.4328C77.8526 61.5766 78.1419 61.7868 78.378 62.0495C78.6141 62.3123 78.7918 62.6215 78.8994 62.9571C79.0042 63.2839 79.0403 63.6286 79.0056 63.9696C78.242 64.4003 77.3788 64.6263 76.5006 64.625L76.4995 64.625C75.6213 64.6264 74.7582 64.4004 73.9946 63.9697C73.9395 63.41 74.074 62.8472 74.3774 62.3719C74.6047 62.0174 74.9183 61.7254 75.2892 61.5231C75.6602 61.3208 76.0766 61.2148 76.4999 61.215ZM78.4822 59.88C78.4822 59.6405 78.5777 59.4105 78.7484 59.2407C78.919 59.0707 79.1508 58.975 79.3929 58.975C79.635 58.975 79.8668 59.0707 80.0375 59.2407C80.2081 59.4105 80.3036 59.6405 80.3036 59.88C80.3036 60.1195 80.2081 60.3495 80.0375 60.5193C79.8668 60.6892 79.635 60.785 79.3929 60.785C79.1508 60.785 78.919 60.6892 78.7484 60.5193C78.5777 60.3495 78.4822 60.1195 78.4822 59.88ZM72.6965 59.88C72.6965 59.6405 72.7921 59.4105 72.9627 59.2407C73.1333 59.0707 73.3652 58.975 73.6072 58.975C73.8493 58.975 74.0811 59.0707 74.2518 59.2407C74.4224 59.4105 74.5179 59.6405 74.5179 59.88C74.5179 60.1195 74.4224 60.3495 74.2518 60.5193C74.0811 60.6892 73.8493 60.785 73.6072 60.785C73.3652 60.785 73.1333 60.6892 72.9627 60.5193C72.7921 60.3495 72.6965 60.1195 72.6965 59.88Z" stroke="#FF4702" stroke-width="0.75"/>
<path d="M80.9948 63.5287L80.9905 63.5803C80.9868 63.6266 80.9697 63.6708 80.9414 63.7076C80.913 63.7444 80.8745 63.7722 80.8306 63.7877M80.9948 63.5287C81.0121 63.3145 80.9859 63.099 80.9177 62.8951C80.8495 62.6912 80.7408 62.5031 80.598 62.3419C80.4552 62.1808 80.2813 62.0499 80.0866 61.9572C80.0447 61.9372 80.002 61.9191 79.9586 61.9028C79.9861 61.9548 80.0124 62.0074 80.0374 62.0604C80.1021 62.1974 80.1586 62.3377 80.2068 62.4807M80.9948 63.5287L80.7336 63.5076L80.752 63.5605L80.7522 63.5613L80.7524 63.5619L80.8306 63.7877M80.9948 63.5287L80.7334 63.507L80.7079 63.4334L80.7057 63.4341M80.2068 62.4807C80.1221 62.4067 80.0275 62.3444 79.9253 62.2957C79.8512 62.2604 79.7739 62.2326 79.6946 62.2127C79.9027 62.6507 80.0183 63.127 80.0338 63.6119C80.1599 63.5906 80.284 63.5631 80.4057 63.5296M80.2068 62.4807C80.2458 62.5149 80.2828 62.5516 80.3174 62.5906C80.4267 62.7141 80.5099 62.8581 80.562 63.014C80.6104 63.1586 80.6311 63.3107 80.6233 63.4626M80.2068 62.4807C80.3206 62.8189 80.3878 63.1718 80.4057 63.5296M80.4057 63.5296C80.4122 63.6583 80.4122 63.7876 80.4058 63.9172C80.5333 63.8855 80.6585 63.8479 80.7813 63.8048L80.8306 63.7877M80.4057 63.5296C80.4791 63.5094 80.5517 63.4871 80.6233 63.4626M80.8306 63.7877L80.7506 63.5612L80.7503 63.5604L80.7503 63.5603L80.7316 63.5075M80.7316 63.5075L80.6167 63.5505L80.6168 63.5493M80.7316 63.5075L80.6768 63.503L80.6759 63.503L80.6753 63.5029L80.6312 63.4993M80.7316 63.5075L80.6312 63.4993M80.7057 63.4341L80.6586 63.4504L80.6571 63.451C80.6459 63.4549 80.6346 63.4588 80.6233 63.4626M80.7057 63.4341C80.6896 63.4398 80.6747 63.4485 80.6619 63.4599C80.6615 63.4603 80.661 63.4606 80.6606 63.461C80.6547 63.4664 80.6493 63.4722 80.6444 63.4786C80.6395 63.4849 80.6353 63.4916 80.6316 63.4986L80.6749 63.5022L80.6751 63.5022L80.6766 63.5023L80.7314 63.5069L80.7057 63.4341ZM80.6233 63.4626C80.6227 63.4746 80.6219 63.4866 80.621 63.4985L80.6168 63.5493M80.6168 63.5493C80.6183 63.5317 80.6233 63.5148 80.6312 63.4993M80.6168 63.5493L80.6312 63.4993M72.6825 62.5906C72.7171 62.5516 72.754 62.5149 72.7931 62.4807C72.6792 62.819 72.6121 63.1719 72.5941 63.5297C72.521 63.5097 72.4484 63.4875 72.3766 63.463C72.3687 63.311 72.3895 63.1587 72.4378 63.014C72.49 62.8581 72.5732 62.7141 72.6825 62.5906Z" stroke="#FF4702" stroke-width="0.75"/>
<path d="M57 43.5V41.5C57 40.1193 58.1193 39 59.5 39H71.5C72.8807 39 74 40.1193 74 41.5V53.5" stroke="#3C4D6F" stroke-linecap="round" stroke-linejoin="round"/>
<path d="M72 39V32.5C72 30.2909 73.7909 28.5 76 28.5H84.5" stroke="#3C4D6F" stroke-linecap="round" stroke-linejoin="round"/>
<path d="M87.1538 29H90C91.6569 29 93 30.3431 93 32V47.0612C93 48.7181 91.6569 50.0612 90 50.0612H87.1538L83.2564 53V50.0612H75.9487C75.4615 50.0612 74.4872 50.0612 74 49.0816" stroke="#3C4D6F" stroke-linecap="round" stroke-linejoin="round"/>
<path d="M64.5 43.5L63 51.5" stroke="#FF4702" stroke-linecap="round" stroke-linejoin="round"/>
<path d="M67.5 44L66 52" stroke="#FF4702" stroke-linecap="round" stroke-linejoin="round"/>
<path d="M61 46.5H69.5" stroke="#FF4702" stroke-linecap="round" stroke-linejoin="round"/>
<path d="M61 49H69.5" stroke="#FF4702" stroke-linecap="round" stroke-linejoin="round"/>
<path d="M80.0257 38.8V46" stroke="#FF4702" stroke-linecap="round" stroke-linejoin="round"/>
<path d="M84.8669 36.328L84.2617 38.8H87.7897C87.9776 38.8 88.1629 38.8434 88.331 38.9267C88.499 39.01 88.6452 39.131 88.7579 39.28C88.8707 39.429 88.9469 39.602 88.9805 39.7853C89.0141 39.9686 89.0042 40.1572 88.9516 40.336L87.5416 45.136C87.4683 45.3853 87.3154 45.6042 87.1059 45.76C86.8964 45.9158 86.6416 46 86.3797 46H78.2103C77.8893 46 77.5815 45.8736 77.3545 45.6485C77.1275 45.4235 77 45.1183 77 44.8V40C77 39.6817 77.1275 39.3765 77.3545 39.1515C77.5815 38.9264 77.8893 38.8 78.2103 38.8H79.8805C80.1056 38.7999 80.3263 38.7375 80.5177 38.6198C80.709 38.5022 80.8635 38.3339 80.9637 38.134L83.0514 34C83.3368 34.0035 83.6177 34.0709 83.8731 34.1972C84.1285 34.3234 84.3518 34.5053 84.5264 34.7291C84.701 34.953 84.8223 35.2131 84.8812 35.4899C84.9402 35.7668 84.9353 36.0533 84.8669 36.328Z" stroke="#FF4702" stroke-linecap="round" stroke-linejoin="round"/>
</g>
<defs>
<linearGradient id="paint0_linear_26_37" x1="7450.5" y1="9900.5" x2="7450.5" y2="0.5" gradientUnits="userSpaceOnUse">
<stop stop-color="#F9F9F9"/>
<stop offset="1" stop-color="white"/>
</linearGradient>
<radialGradient id="paint1_radial_26_37" cx="0" cy="0" r="1" gradientUnits="userSpaceOnUse" gradientTransform="translate(192.468 257) scale(1414.39 1414.4)">
<stop stop-color="#2D2C2C"/>
<stop offset="1" stop-color="#B6B3B3"/>
</radialGradient>
<clipPath id="clip0_26_37">
<rect width="150" height="100" fill="white"/>
</clipPath>
</defs>
</svg>
