<svg width="150" height="100" viewBox="0 0 150 100" fill="none" xmlns="http://www.w3.org/2000/svg">
<g clip-path="url(#clip0_58_176)">
<path d="M143.5 0.5H6.5C3.18629 0.5 0.5 3.18629 0.5 6.5V93.5C0.5 96.8137 3.18629 99.5 6.5 99.5H143.5C146.814 99.5 149.5 96.8137 149.5 93.5V6.5C149.5 3.18629 146.814 0.5 143.5 0.5Z" fill="url(#paint0_linear_58_176)" stroke="#9B9B9B"/>
<path opacity="0.313839" d="M75 79.953C87.4264 79.953 97.5 79.1442 97.5 78.1464C97.5 77.1487 87.4264 76.3398 75 76.3398C62.5736 76.3398 52.5 77.1487 52.5 78.1464C52.5 79.1442 62.5736 79.953 75 79.953Z" fill="url(#paint1_radial_58_176)"/>
<circle cx="64.2903" cy="48.6085" r="15.9192" stroke="#3C4D6F"/>
<circle cx="88.9192" cy="38.2096" r="7.70962" stroke="#3C4D6F"/>
<path d="M75.7838 36.8828C72.744 39.8628 70.858 44.0154 70.858 48.6085C70.858 53.2016 72.744 57.3542 75.7838 60.3342" stroke="#3C4D6F"/>
<path d="M94.6659 32.3469C93.146 33.8369 92.203 35.9132 92.203 38.2098C92.203 40.5063 93.146 42.5826 94.6659 44.0726" stroke="#3C4D6F"/>
<path d="M52.7969 37.115C55.8367 40.095 57.1754 43.7003 57.1754 48.2934C57.1754 52.8865 55.2894 56.5747 52.2496 59.5546" stroke="#3C4D6F"/>
<path d="M83.1725 32.4626C84.6924 33.9526 85.3617 35.7553 85.3617 38.0518C85.3617 40.3484 84.4187 42.1925 82.8988 43.6825" stroke="#3C4D6F"/>
<path d="M64.2904 32.7366V64.4804" stroke="#3C4D6F"/>
<path d="M48.4185 48.6084H80.1623" stroke="#3C4D6F"/>
<path d="M70.8581 59.0071C75.609 50.693 84.4471 49.509 89.1986 50.0329C90.0374 50.1253 90.6966 50.7721 90.8219 51.6066C91.8611 58.5257 88.443 64.7852 86.73 66.6696C80.5198 73.5008 73.6571 73.2852 69.381 72.7788C68.9474 72.7274 68.5864 72.4193 68.4992 71.9915C67.7058 68.1024 68.7967 62.0993 70.8581 59.0071Z" fill="white" stroke="#FF4702"/>
<path d="M74.6892 66.1223L85.0881 56.2708" stroke="#FF4702" stroke-linecap="round"/>
<path d="M81.8042 56.2708L85.088 59.5546" stroke="#FF4702" stroke-linecap="round"/>
<path d="M78.5204 59.5547L81.8042 62.8385" stroke="#FF4702" stroke-linecap="round"/>
<path d="M75.2366 62.8384L78.5204 66.1222" stroke="#FF4702" stroke-linecap="round"/>
</g>
<defs>
<linearGradient id="paint0_linear_58_176" x1="7450.5" y1="9900.5" x2="7450.5" y2="0.5" gradientUnits="userSpaceOnUse">
<stop stop-color="#F9F9F9"/>
<stop offset="1" stop-color="white"/>
</linearGradient>
<radialGradient id="paint1_radial_58_176" cx="0" cy="0" r="1" gradientUnits="userSpaceOnUse" gradientTransform="translate(192.468 257) scale(1414.39 1414.4)">
<stop stop-color="#2D2C2C"/>
<stop offset="1" stop-color="#B6B3B3"/>
</radialGradient>
<clipPath id="clip0_58_176">
<rect width="150" height="100" fill="white"/>
</clipPath>
</defs>
</svg>
