<?xml version="1.0" encoding="UTF-8"?>
<svg width="150px" height="100px" viewBox="0 0 150 100" version="1.1" xmlns="http://www.w3.org/2000/svg" xmlns:xlink="http://www.w3.org/1999/xlink">
    <!-- Generator: Sketch 56.2 (81672) - https://sketch.com -->
    <title>Information Technology</title>
    <desc>Created with Sketch.</desc>
    <defs>
        <linearGradient x1="50%" y1="100%" x2="50%" y2="-2.48949813e-15%" id="linearGradient-1">
            <stop stop-color="#F9F9F9" offset="0%"></stop>
            <stop stop-color="#FFFFFF" offset="100%"></stop>
        </linearGradient>
        <radialGradient cx="51.9692992%" cy="50%" fx="51.9692992%" fy="50%" r="391.453585%" gradientTransform="translate(0.519693,0.500000),scale(0.080293,1.000000),translate(-0.519693,-0.500000)" id="radialGradient-2">
            <stop stop-color="#2D2C2C" offset="0%"></stop>
            <stop stop-color="#B6B3B3" offset="100%"></stop>
        </radialGradient>
    </defs>
    <g id="Information-Technology" stroke="none" stroke-width="1" fill="none" fill-rule="evenodd">
        <rect id="Rectangle-3-Copy-66" stroke="#9B9B9B" fill="url(#linearGradient-1)" fill-rule="nonzero" x="0.5" y="0.5" width="149" height="99" rx="6"></rect>
        <ellipse id="Oval-Copy-9" fill="url(#radialGradient-2)" fill-rule="nonzero" opacity="0.313839286" cx="75" cy="78.1463358" rx="22.5" ry="1.806602"></ellipse>
        <g id="Group-14" transform="translate(53.500000, 31.000000)" fill-rule="nonzero">
            <g id="Group-13">
                <path d="M2.63513514,6.47027028 C4.75322179,6.47027028 6.47027028,4.75322179 6.47027028,2.63513514 C6.47027028,0.517048489 4.75322179,-1.2 2.63513514,-1.2 C0.517048489,-1.2 -1.2,0.517048489 -1.2,2.63513514 C-1.2,4.75322179 0.517048489,6.47027028 2.63513514,6.47027028 Z M2.63513514,4.07027028 C1.84253189,4.07027028 1.2,3.42773839 1.2,2.63513514 C1.2,1.84253189 1.84253189,1.2 2.63513514,1.2 C3.42773839,1.2 4.07027028,1.84253189 4.07027028,2.63513514 C4.07027028,3.42773839 3.42773839,4.07027028 2.63513514,4.07027028 Z" id="Oval" fill="#FF4702"></path>
                <path d="M35.3252217,37.9331147 C37.4433084,37.9331147 39.1603568,36.2160663 39.1603568,34.0979796 C39.1603568,31.9798929 37.4433084,30.2628445 35.3252217,30.2628445 C33.207135,30.2628445 31.4900866,31.9798929 31.4900866,34.0979796 C31.4900866,36.2160663 33.207135,37.9331147 35.3252217,37.9331147 Z M35.3252217,35.5331147 C34.5326184,35.5331147 33.8900866,34.8905829 33.8900866,34.0979796 C33.8900866,33.3053763 34.5326184,32.6628445 35.3252217,32.6628445 C36.117825,32.6628445 36.7603568,33.3053763 36.7603568,34.0979796 C36.7603568,34.8905829 36.117825,35.5331147 35.3252217,35.5331147 Z" id="Oval-Copy-13" fill="#FF4702"></path>
                <polygon id="Path-8" fill="#FF4702" points="3.83513514 17.1870157 3.83513514 4.68431298 1.43513514 4.68431298 1.43513514 19.5870157 6.89690007 19.5870157 6.89690007 17.1870157"></polygon>
                <polygon id="Path-8-Copy" fill="#FF4702" transform="translate(32.594339, 25.838367) rotate(180.000000) translate(-32.594339, -25.838367) " points="32.2634563 18.3870156 29.8634563 18.3870156 29.8634563 33.2897183 35.3252212 33.2897183 35.3252212 30.8897183 32.2634563 30.8897183"></polygon>
                <path d="M31.6146735,18.3870157 C31.6146735,21.8653941 30.1914226,25.0273918 27.8989118,27.3199026 C25.606401,29.6124134 22.4444032,31.0356643 18.9660249,31.0356643 C15.4876465,31.0356643 12.3256487,29.6124134 10.0331379,27.3199026 C7.74062711,25.0273918 6.31737621,21.8653941 6.31737621,18.3870157 C6.31737621,14.9086373 7.74062711,11.7466395 10.0331379,9.45412874 C12.3256487,7.16161793 15.4876465,5.73836703 18.9660249,5.73836703 C22.4444032,5.73836703 25.606401,7.16161793 27.8989118,9.45412874 C30.1914226,11.7466395 31.6146735,14.9086373 31.6146735,18.3870157 Z M22.6591922,13.4824376 C22.2035945,11.7449381 21.5983659,10.3515351 20.9733022,9.38989864 C20.2815964,8.32573578 19.553369,7.80345252 18.9660249,7.80345252 C18.3786807,7.80345252 17.6504533,8.32573578 16.9587475,9.38989864 C16.3336838,10.3515351 15.7284552,11.7449381 15.2728576,13.4824376 L22.6591922,13.4824376 Z M15.2728576,23.2915937 C15.7284552,25.0290933 16.3336838,26.4224963 16.9587475,27.3841327 C17.6504533,28.4482956 18.3786807,28.9705788 18.9660249,28.9705788 C19.5592555,28.9705788 20.2967611,28.4380954 20.9746753,27.3534327 C21.5748835,26.3930995 22.13683,25.0108834 22.5171231,23.2915937 L15.2728576,23.2915937 Z M29.0873387,21.2265082 C29.3946758,20.3901411 29.549588,19.388707 29.549588,18.3870157 C29.549588,17.3853244 29.3946758,16.3838903 29.0873387,15.5475231 L24.977123,15.5475231 C25.1630715,16.3703486 25.1612813,17.3787857 25.1612813,18.3870157 C25.1612813,19.3952456 25.1630715,20.4036827 24.977123,21.2265082 L29.0873387,21.2265082 Z M14.5554699,9.19896979 C14.6464274,8.99431534 14.7434036,8.78419649 14.846841,8.57018533 C14.6302912,8.65966534 14.4160053,8.75731507 14.2041407,8.86324738 C12.2249357,9.85284989 10.6972049,11.4451861 9.6243142,13.4824376 L13.2494284,13.4824376 C13.4899664,11.8730595 14.0231102,10.396779 14.5554699,9.19896979 Z M14.3394885,27.9138186 C14.5842009,28.0280177 14.8299101,28.1309173 15.0765865,28.2228592 C14.9319518,27.999958 14.7977544,27.7767538 14.6743015,27.5545386 C14.0120869,26.3625524 13.4890402,24.8930393 13.2494167,23.2915937 L9.6242637,23.2915937 C10.6985685,25.3301146 12.2175175,26.9235655 14.3394885,27.9138186 Z M23.727909,27.910784 C25.7061461,26.9216655 27.2333285,25.3300609 28.4658402,23.2915937 L24.8298001,23.2915937 C24.4418399,24.9005615 23.9092216,26.3766176 23.3765799,27.5750616 C23.2857203,27.7794955 23.1888643,27.989342 23.0860637,28.203587 C23.302404,28.1140679 23.516365,28.016556 23.727909,27.910784 L23.727909,27.910784 Z M12.9549267,21.2265082 C12.7689782,20.4036827 12.7707684,19.3952456 12.7707684,18.3870157 C12.7707684,17.3787857 12.7689782,16.3703486 12.9549267,15.5475231 L8.84471107,15.5475231 C8.53737393,16.3838903 8.38246171,17.3853244 8.38246171,18.3870157 C8.38246171,19.388707 8.53737393,20.3901411 8.84471107,21.2265082 L12.9549267,21.2265082 Z M23.5925612,8.86021275 C23.3478489,8.74601366 23.1021396,8.6431141 22.8554632,8.55117212 C23.0000979,8.77407336 23.1342953,8.99727754 23.2577482,9.21949273 C23.9199628,10.411479 24.4430095,11.880992 24.682633,13.4824376 L28.307786,13.4824376 C27.2334812,11.4439167 25.7145322,9.8504659 23.5925612,8.86021275 Z M15.0084237,21.2265082 L22.923626,21.2265082 C23.0945354,20.394138 23.0961959,19.3906729 23.0961959,18.3870157 C23.0961959,17.3833585 23.0945354,16.3798934 22.923626,15.5475231 L15.0084237,15.5475231 C14.8375143,16.3798934 14.8358539,17.3833585 14.8358539,18.3870157 C14.8358539,19.3906729 14.8375143,20.394138 15.0084237,21.2265082 Z" id="Shape" fill="#3C4D6F"></path>
            </g>
        </g>
    </g>
</svg>