<svg width="150" height="100" viewBox="0 0 150 100" fill="none" xmlns="http://www.w3.org/2000/svg">
<g clip-path="url(#clip0_22_2)">
<path d="M143.5 0.5H6.5C3.18629 0.5 0.5 3.18629 0.5 6.5V93.5C0.5 96.8137 3.18629 99.5 6.5 99.5H143.5C146.814 99.5 149.5 96.8137 149.5 93.5V6.5C149.5 3.18629 146.814 0.5 143.5 0.5Z" stroke="#9B9B9B"/>
<path d="M60.1313 53.7314C62.948 50.3123 70.2713 45.1409 77.0313 51.8083H81.2964C82.8898 51.8083 84.1813 53.0998 84.1813 54.6932C84.1813 56.2864 82.8896 57.5781 81.2964 57.5781H74.4313" stroke="#3C4D6F" stroke-linecap="round" stroke-linejoin="round"/>
<path d="M63.3814 70.4L52.3313 59.5013L58.8313 53.0904L69.8813 63.989L63.3814 70.4Z" stroke="#3C4D6F" stroke-linejoin="round"/>
<path d="M67.9312 62.0658H83.7972C84.0444 62.0658 84.2828 61.9743 84.4664 61.8089L97.5553 50.0219C98.4588 49.2082 98.6245 47.8531 97.9436 46.8457C97.1714 45.7033 95.6063 45.4282 94.491 46.2389L84.1811 53.7314" stroke="#3C4D6F" stroke-linecap="round" stroke-linejoin="round"/>
<path d="M65.8188 39.8134C65.8188 39.501 66.0721 39.2477 66.3846 39.2477H69.5928C69.9052 39.2477 70.1585 39.501 70.1585 39.8134V43.8957H65.8188V39.8134Z" fill="#FF5819"/>
<path d="M71.5404 34.6905C71.5404 34.378 71.7937 34.1248 72.1061 34.1248H75.3144C75.6268 34.1248 75.8801 34.378 75.8801 34.6905V43.8957H71.5404V34.6905Z" fill="#FF5819"/>
<path d="M77.262 37.0366C77.262 36.7242 77.5152 36.4709 77.8277 36.4709H81.0359C81.3483 36.4709 81.6016 36.7242 81.6016 37.0366V43.8957H77.262V37.0366Z" fill="#FF5819"/>
<path d="M82.9834 32.3165C82.9834 32.0041 83.2367 31.7508 83.5491 31.7508H86.7574C87.0698 31.7508 87.3231 32.0041 87.3231 32.3165V43.8957H82.9834V32.3165Z" fill="#FF5819"/>
<path d="M65.9007 34.7769C65.6962 34.9624 65.6808 35.2786 65.8664 35.4832C66.0519 35.6877 66.3681 35.7031 66.5726 35.5175L65.9007 34.7769ZM73.4907 28.5667L73.8005 28.1743C73.6087 28.0229 73.3357 28.0322 73.1547 28.1964L73.4907 28.5667ZM79.1242 33.0143L78.8144 33.4067C79.0269 33.5744 79.3343 33.5426 79.5079 33.3349L79.1242 33.0143ZM66.5726 35.5175L73.8266 28.937L73.1547 28.1964L65.9007 34.7769L66.5726 35.5175ZM73.1808 28.9591L78.8144 33.4067L79.4341 32.6218L73.8005 28.1743L73.1808 28.9591ZM79.5079 33.3349L85.0426 26.713L84.2753 26.0717L78.7406 32.6936L79.5079 33.3349Z" fill="#3C4D6F"/>
<path d="M85.8979 28.6817L82.0841 25.5803L86.4079 24.578L85.8979 28.6817Z" fill="#3C4D6F"/>
<g opacity="0.313839" filter="url(#filter0_f_22_2)">
<path d="M76.3976 76.6079C89.3013 76.6079 99.7618 76.0666 99.7618 75.3989C99.7618 74.7312 89.3013 74.1899 76.3976 74.1899C63.494 74.1899 53.0334 74.7312 53.0334 75.3989C53.0334 76.0666 63.494 76.6079 76.3976 76.6079Z" fill="url(#paint0_linear_22_2)"/>
</g>
</g>
<defs>
<filter id="filter0_f_22_2" x="51.0334" y="72.1899" width="50.7284" height="6.41797" filterUnits="userSpaceOnUse" color-interpolation-filters="sRGB">
<feFlood flood-opacity="0" result="BackgroundImageFix"/>
<feBlend mode="normal" in="SourceGraphic" in2="BackgroundImageFix" result="shape"/>
<feGaussianBlur stdDeviation="1" result="effect1_foregroundBlur_22_2"/>
</filter>
<linearGradient id="paint0_linear_22_2" x1="-1270.34" y1="195.089" x2="1667.1" y2="195.089" gradientUnits="userSpaceOnUse">
<stop stop-color="#2D2C2C" stop-opacity="0.1"/>
<stop offset="0.5" stop-color="#2D2C2C"/>
<stop offset="1" stop-color="#2D2C2C" stop-opacity="0.1"/>
</linearGradient>
<clipPath id="clip0_22_2">
<rect width="150" height="100" fill="white"/>
</clipPath>
</defs>
</svg>
