<svg width="440" height="256" viewBox="0 0 440 256" fill="none" xmlns="http://www.w3.org/2000/svg">
<g opacity="0.399994">
<path d="M358.252 107.001H315.435C303.609 107.001 294.026 97.3648 294.026 85.652V64.3041C294.026 52.445 303.609 42.8087 315.435 42.8087H401.069V64.3041C401.069 87.8749 381.899 107.001 358.252 107.001Z" fill="#E9EBEE"/>
</g>
<g opacity="0.399994">
<path d="M153.575 184.769V215.45H92.2663C58.4177 215.45 30.9581 187.976 30.9581 154.086H122.921C139.951 154.086 153.575 167.822 153.575 184.769Z" fill="#E9EBEE"/>
</g>
<g opacity="0.100006">
<path d="M309.575 24.3494C309.575 24.714 309.281 25.0098 308.918 25.0098C308.556 25.0098 308.262 24.714 308.262 24.3494C308.262 23.9849 308.556 23.6891 308.918 23.6891C309.281 23.6891 309.575 23.9849 309.575 24.3494Z" fill="#FB043D"/>
<path d="M316.683 24.3494C316.683 24.714 316.39 25.0098 316.027 25.0098C315.664 25.0098 315.37 24.714 315.37 24.3494C315.37 23.9849 315.664 23.689 316.027 23.689C316.39 23.689 316.683 23.9849 316.683 24.3494Z" fill="#FB043D"/>
<path d="M323.791 24.3494C323.791 24.714 323.498 25.0098 323.135 25.0098C322.772 25.0098 322.478 24.714 322.478 24.3494C322.478 23.9849 322.772 23.689 323.135 23.689C323.498 23.689 323.791 23.9849 323.791 24.3494Z" fill="#FB043D"/>
<path d="M330.901 24.3494C330.901 24.714 330.607 25.0098 330.244 25.0098C329.881 25.0098 329.588 24.714 329.588 24.3494C329.588 23.9849 329.881 23.689 330.244 23.689C330.607 23.689 330.901 23.9849 330.901 24.3494Z" fill="#FB043D"/>
<path d="M338.009 24.3494C338.009 24.714 337.715 25.0098 337.353 25.0098C336.989 25.0098 336.696 24.714 336.696 24.3494C336.696 23.9849 336.989 23.689 337.353 23.689C337.715 23.689 338.009 23.9849 338.009 24.3494Z" fill="#FB043D"/>
<path d="M345.117 24.3494C345.117 24.714 344.823 25.0098 344.461 25.0098C344.099 25.0098 343.804 24.714 343.804 24.3494C343.804 23.9849 344.099 23.689 344.461 23.689C344.823 23.689 345.117 23.9849 345.117 24.3494Z" fill="#FB043D"/>
<path d="M352.226 24.3494C352.226 24.714 351.932 25.0098 351.569 25.0098C351.207 25.0098 350.913 24.714 350.913 24.3494C350.913 23.9849 351.207 23.689 351.569 23.689C351.932 23.689 352.226 23.9849 352.226 24.3494Z" fill="#FB043D"/>
<path d="M359.334 24.3494C359.334 24.714 359.041 25.0098 358.678 25.0098C358.315 25.0098 358.021 24.714 358.021 24.3494C358.021 23.9849 358.315 23.689 358.678 23.689C359.041 23.689 359.334 23.9849 359.334 24.3494Z" fill="#FB043D"/>
<path d="M366.444 24.3494C366.444 24.714 366.149 25.0098 365.786 25.0098C365.423 25.0098 365.129 24.714 365.129 24.3494C365.129 23.9849 365.423 23.689 365.786 23.689C366.149 23.689 366.444 23.9849 366.444 24.3494Z" fill="#FB043D"/>
<path d="M373.552 24.3494C373.552 24.714 373.258 25.0098 372.895 25.0098C372.532 25.0098 372.239 24.714 372.239 24.3494C372.239 23.9849 372.532 23.689 372.895 23.689C373.258 23.689 373.552 23.9849 373.552 24.3494Z" fill="#FB043D"/>
<path d="M309.575 29.9447C309.575 30.3092 309.281 30.605 308.918 30.605C308.556 30.605 308.262 30.3092 308.262 29.9447C308.262 29.5801 308.556 29.2843 308.918 29.2843C309.281 29.2843 309.575 29.5801 309.575 29.9447Z" fill="#FB043D"/>
<path d="M316.683 29.9447C316.683 30.3092 316.39 30.605 316.027 30.605C315.664 30.605 315.37 30.3092 315.37 29.9447C315.37 29.5801 315.664 29.2843 316.027 29.2843C316.39 29.2843 316.683 29.5801 316.683 29.9447Z" fill="#FB043D"/>
<path d="M323.791 29.9447C323.791 30.3092 323.498 30.605 323.135 30.605C322.772 30.605 322.478 30.3092 322.478 29.9447C322.478 29.5801 322.772 29.2843 323.135 29.2843C323.498 29.2843 323.791 29.5801 323.791 29.9447Z" fill="#FB043D"/>
<path d="M330.901 29.9447C330.901 30.3092 330.607 30.605 330.244 30.605C329.881 30.605 329.588 30.3092 329.588 29.9447C329.588 29.5801 329.881 29.2843 330.244 29.2843C330.607 29.2843 330.901 29.5801 330.901 29.9447Z" fill="#FB043D"/>
<path d="M338.009 29.9447C338.009 30.3092 337.715 30.605 337.353 30.605C336.989 30.605 336.696 30.3092 336.696 29.9447C336.696 29.5801 336.989 29.2843 337.353 29.2843C337.715 29.2843 338.009 29.5801 338.009 29.9447Z" fill="#FB043D"/>
<path d="M345.117 29.9447C345.117 30.3092 344.823 30.605 344.461 30.605C344.099 30.605 343.804 30.3092 343.804 29.9447C343.804 29.5801 344.099 29.2843 344.461 29.2843C344.823 29.2843 345.117 29.5801 345.117 29.9447Z" fill="#FB043D"/>
<path d="M352.226 29.9447C352.226 30.3092 351.932 30.605 351.569 30.605C351.207 30.605 350.913 30.3092 350.913 29.9447C350.913 29.5801 351.207 29.2843 351.569 29.2843C351.932 29.2843 352.226 29.5801 352.226 29.9447Z" fill="#FB043D"/>
<path d="M359.334 29.9447C359.334 30.3092 359.041 30.605 358.678 30.605C358.315 30.605 358.021 30.3092 358.021 29.9447C358.021 29.5801 358.315 29.2843 358.678 29.2843C359.041 29.2843 359.334 29.5801 359.334 29.9447Z" fill="#FB043D"/>
<path d="M366.444 29.9447C366.444 30.3092 366.149 30.605 365.786 30.605C365.423 30.605 365.129 30.3092 365.129 29.9447C365.129 29.5801 365.423 29.2843 365.786 29.2843C366.149 29.2843 366.444 29.5801 366.444 29.9447Z" fill="#FB043D"/>
<path d="M373.552 29.9447C373.552 30.3092 373.258 30.605 372.895 30.605C372.532 30.605 372.239 30.3092 372.239 29.9447C372.239 29.5801 372.532 29.2843 372.895 29.2843C373.258 29.2843 373.552 29.5801 373.552 29.9447Z" fill="#FB043D"/>
<path d="M309.575 35.5398C309.575 35.9044 309.281 36.2002 308.918 36.2002C308.556 36.2002 308.262 35.9044 308.262 35.5398C308.262 35.1753 308.556 34.8795 308.918 34.8795C309.281 34.8795 309.575 35.1753 309.575 35.5398Z" fill="#FB043D"/>
<path d="M316.683 35.5398C316.683 35.9044 316.39 36.2002 316.027 36.2002C315.664 36.2002 315.37 35.9044 315.37 35.5398C315.37 35.1753 315.664 34.8795 316.027 34.8795C316.39 34.8795 316.683 35.1753 316.683 35.5398Z" fill="#FB043D"/>
<path d="M323.791 35.5398C323.791 35.9044 323.498 36.2002 323.135 36.2002C322.772 36.2002 322.478 35.9044 322.478 35.5398C322.478 35.1753 322.772 34.8795 323.135 34.8795C323.498 34.8795 323.791 35.1753 323.791 35.5398Z" fill="#FB043D"/>
<path d="M330.901 35.5398C330.901 35.9044 330.607 36.2002 330.244 36.2002C329.881 36.2002 329.588 35.9044 329.588 35.5398C329.588 35.1753 329.881 34.8795 330.244 34.8795C330.607 34.8795 330.901 35.1753 330.901 35.5398Z" fill="#FB043D"/>
<path d="M338.009 35.5398C338.009 35.9044 337.715 36.2002 337.353 36.2002C336.989 36.2002 336.696 35.9044 336.696 35.5398C336.696 35.1753 336.989 34.8795 337.353 34.8795C337.715 34.8795 338.009 35.1753 338.009 35.5398Z" fill="#FB043D"/>
<path d="M345.117 35.5398C345.117 35.9044 344.823 36.2002 344.461 36.2002C344.099 36.2002 343.804 35.9044 343.804 35.5398C343.804 35.1753 344.099 34.8795 344.461 34.8795C344.823 34.8795 345.117 35.1753 345.117 35.5398Z" fill="#FB043D"/>
<path d="M352.226 35.5398C352.226 35.9044 351.932 36.2002 351.569 36.2002C351.207 36.2002 350.913 35.9044 350.913 35.5398C350.913 35.1753 351.207 34.8795 351.569 34.8795C351.932 34.8795 352.226 35.1753 352.226 35.5398Z" fill="#FB043D"/>
<path d="M359.334 35.5398C359.334 35.9044 359.041 36.2002 358.678 36.2002C358.315 36.2002 358.021 35.9044 358.021 35.5398C358.021 35.1753 358.315 34.8795 358.678 34.8795C359.041 34.8795 359.334 35.1753 359.334 35.5398Z" fill="#FB043D"/>
<path d="M366.444 35.5398C366.444 35.9044 366.149 36.2002 365.786 36.2002C365.423 36.2002 365.129 35.9044 365.129 35.5398C365.129 35.1753 365.423 34.8795 365.786 34.8795C366.149 34.8795 366.444 35.1753 366.444 35.5398Z" fill="#FB043D"/>
<path d="M373.552 35.5398C373.552 35.9044 373.258 36.2002 372.895 36.2002C372.532 36.2002 372.239 35.9044 372.239 35.5398C372.239 35.1753 372.532 34.8795 372.895 34.8795C373.258 34.8795 373.552 35.1753 373.552 35.5398Z" fill="#FB043D"/>
<path d="M309.575 41.1352C309.575 41.4998 309.281 41.7956 308.918 41.7956C308.556 41.7956 308.262 41.4998 308.262 41.1352C308.262 40.7695 308.556 40.4737 308.918 40.4737C309.281 40.4737 309.575 40.7695 309.575 41.1352Z" fill="#FB043D"/>
<path d="M316.683 41.1352C316.683 41.4998 316.39 41.7956 316.027 41.7956C315.664 41.7956 315.37 41.4998 315.37 41.1352C315.37 40.7695 315.664 40.4737 316.027 40.4737C316.39 40.4737 316.683 40.7695 316.683 41.1352Z" fill="#FB043D"/>
<path d="M323.791 41.1352C323.791 41.4998 323.498 41.7956 323.135 41.7956C322.772 41.7956 322.478 41.4998 322.478 41.1352C322.478 40.7695 322.772 40.4737 323.135 40.4737C323.498 40.4737 323.791 40.7695 323.791 41.1352Z" fill="#FB043D"/>
<path d="M330.901 41.1352C330.901 41.4998 330.607 41.7956 330.244 41.7956C329.881 41.7956 329.588 41.4998 329.588 41.1352C329.588 40.7695 329.881 40.4737 330.244 40.4737C330.607 40.4737 330.901 40.7695 330.901 41.1352Z" fill="#FB043D"/>
<path d="M338.009 41.1352C338.009 41.4998 337.715 41.7956 337.353 41.7956C336.989 41.7956 336.696 41.4998 336.696 41.1352C336.696 40.7695 336.989 40.4737 337.353 40.4737C337.715 40.4737 338.009 40.7695 338.009 41.1352Z" fill="#FB043D"/>
<path d="M345.117 41.1352C345.117 41.4998 344.823 41.7956 344.461 41.7956C344.099 41.7956 343.804 41.4998 343.804 41.1352C343.804 40.7695 344.099 40.4737 344.461 40.4737C344.823 40.4737 345.117 40.7695 345.117 41.1352Z" fill="#FB043D"/>
<path d="M352.226 41.1352C352.226 41.4998 351.932 41.7956 351.569 41.7956C351.207 41.7956 350.913 41.4998 350.913 41.1352C350.913 40.7695 351.207 40.4737 351.569 40.4737C351.932 40.4737 352.226 40.7695 352.226 41.1352Z" fill="#FB043D"/>
<path d="M359.334 41.1352C359.334 41.4998 359.041 41.7956 358.678 41.7956C358.315 41.7956 358.021 41.4998 358.021 41.1352C358.021 40.7695 358.315 40.4737 358.678 40.4737C359.041 40.4737 359.334 40.7695 359.334 41.1352Z" fill="#FB043D"/>
<path d="M366.444 41.1352C366.444 41.4998 366.149 41.7956 365.786 41.7956C365.423 41.7956 365.129 41.4998 365.129 41.1352C365.129 40.7695 365.423 40.4737 365.786 40.4737C366.149 40.4737 366.444 40.7695 366.444 41.1352Z" fill="#FB043D"/>
<path d="M373.552 41.1352C373.552 41.4998 373.258 41.7956 372.895 41.7956C372.532 41.7956 372.239 41.4998 372.239 41.1352C372.239 40.7695 372.532 40.4737 372.895 40.4737C373.258 40.4737 373.552 40.7695 373.552 41.1352Z" fill="#FB043D"/>
<path d="M309.575 46.7293C309.575 47.095 309.281 47.3908 308.918 47.3908C308.556 47.3908 308.262 47.095 308.262 46.7293C308.262 46.3647 308.556 46.0689 308.918 46.0689C309.281 46.0689 309.575 46.3647 309.575 46.7293Z" fill="#FB043D"/>
<path d="M316.683 46.7293C316.683 47.095 316.39 47.3908 316.027 47.3908C315.664 47.3908 315.37 47.095 315.37 46.7293C315.37 46.3647 315.664 46.0689 316.027 46.0689C316.39 46.0689 316.683 46.3647 316.683 46.7293Z" fill="#FB043D"/>
<path d="M323.791 46.7293C323.791 47.095 323.498 47.3908 323.135 47.3908C322.772 47.3908 322.478 47.095 322.478 46.7293C322.478 46.3647 322.772 46.0689 323.135 46.0689C323.498 46.0689 323.791 46.3647 323.791 46.7293Z" fill="#FB043D"/>
<path d="M330.901 46.7293C330.901 47.095 330.607 47.3908 330.244 47.3908C329.881 47.3908 329.588 47.095 329.588 46.7293C329.588 46.3647 329.881 46.0689 330.244 46.0689C330.607 46.0689 330.901 46.3647 330.901 46.7293Z" fill="#FB043D"/>
<path d="M338.009 46.7293C338.009 47.095 337.715 47.3908 337.353 47.3908C336.989 47.3908 336.696 47.095 336.696 46.7293C336.696 46.3647 336.989 46.0689 337.353 46.0689C337.715 46.0689 338.009 46.3647 338.009 46.7293Z" fill="#FB043D"/>
<path d="M345.117 46.7293C345.117 47.095 344.823 47.3908 344.461 47.3908C344.099 47.3908 343.804 47.095 343.804 46.7293C343.804 46.3647 344.099 46.0689 344.461 46.0689C344.823 46.0689 345.117 46.3647 345.117 46.7293Z" fill="#FB043D"/>
<path d="M352.226 46.7293C352.226 47.095 351.932 47.3908 351.569 47.3908C351.207 47.3908 350.913 47.095 350.913 46.7293C350.913 46.3647 351.207 46.0689 351.569 46.0689C351.932 46.0689 352.226 46.3647 352.226 46.7293Z" fill="#FB043D"/>
<path d="M359.334 46.7293C359.334 47.095 359.041 47.3908 358.678 47.3908C358.315 47.3908 358.021 47.095 358.021 46.7293C358.021 46.3647 358.315 46.0689 358.678 46.0689C359.041 46.0689 359.334 46.3647 359.334 46.7293Z" fill="#FB043D"/>
<path d="M366.444 46.7293C366.444 47.095 366.149 47.3908 365.786 47.3908C365.423 47.3908 365.129 47.095 365.129 46.7293C365.129 46.3647 365.423 46.0689 365.786 46.0689C366.149 46.0689 366.444 46.3647 366.444 46.7293Z" fill="#FB043D"/>
<path d="M373.552 46.7293C373.552 47.095 373.258 47.3908 372.895 47.3908C372.532 47.3908 372.239 47.095 372.239 46.7293C372.239 46.3647 372.532 46.0689 372.895 46.0689C373.258 46.0689 373.552 46.3647 373.552 46.7293Z" fill="#FB043D"/>
<path d="M309.575 52.3245C309.575 52.6902 309.281 52.9849 308.918 52.9849C308.556 52.9849 308.262 52.6902 308.262 52.3245C308.262 51.96 308.556 51.6641 308.918 51.6641C309.281 51.6641 309.575 51.96 309.575 52.3245Z" fill="#FB043D"/>
<path d="M316.683 52.3245C316.683 52.6902 316.39 52.9849 316.027 52.9849C315.664 52.9849 315.37 52.6902 315.37 52.3245C315.37 51.96 315.664 51.6641 316.027 51.6641C316.39 51.6641 316.683 51.96 316.683 52.3245Z" fill="#FB043D"/>
<path d="M323.791 52.3245C323.791 52.6902 323.498 52.9849 323.135 52.9849C322.772 52.9849 322.478 52.6902 322.478 52.3245C322.478 51.96 322.772 51.6641 323.135 51.6641C323.498 51.6641 323.791 51.96 323.791 52.3245Z" fill="#FB043D"/>
<path d="M330.901 52.3245C330.901 52.6902 330.607 52.9849 330.244 52.9849C329.881 52.9849 329.588 52.6902 329.588 52.3245C329.588 51.96 329.881 51.6641 330.244 51.6641C330.607 51.6641 330.901 51.96 330.901 52.3245Z" fill="#FB043D"/>
<path d="M338.009 52.3245C338.009 52.6902 337.715 52.9849 337.353 52.9849C336.989 52.9849 336.696 52.6902 336.696 52.3245C336.696 51.96 336.989 51.6641 337.353 51.6641C337.715 51.6641 338.009 51.96 338.009 52.3245Z" fill="#FB043D"/>
<path d="M345.117 52.3245C345.117 52.6902 344.823 52.9849 344.461 52.9849C344.099 52.9849 343.804 52.6902 343.804 52.3245C343.804 51.96 344.099 51.6641 344.461 51.6641C344.823 51.6641 345.117 51.96 345.117 52.3245Z" fill="#FB043D"/>
<path d="M352.226 52.3245C352.226 52.6902 351.932 52.9849 351.569 52.9849C351.207 52.9849 350.913 52.6902 350.913 52.3245C350.913 51.96 351.207 51.6641 351.569 51.6641C351.932 51.6641 352.226 51.96 352.226 52.3245Z" fill="#FB043D"/>
<path d="M359.334 52.3245C359.334 52.6902 359.041 52.9849 358.678 52.9849C358.315 52.9849 358.021 52.6902 358.021 52.3245C358.021 51.96 358.315 51.6641 358.678 51.6641C359.041 51.6641 359.334 51.96 359.334 52.3245Z" fill="#FB043D"/>
<path d="M366.444 52.3245C366.444 52.6902 366.149 52.9849 365.786 52.9849C365.423 52.9849 365.129 52.6902 365.129 52.3245C365.129 51.96 365.423 51.6641 365.786 51.6641C366.149 51.6641 366.444 51.96 366.444 52.3245Z" fill="#FB043D"/>
<path d="M373.552 52.3245C373.552 52.6902 373.258 52.9849 372.895 52.9849C372.532 52.9849 372.239 52.6902 372.239 52.3245C372.239 51.96 372.532 51.6641 372.895 51.6641C373.258 51.6641 373.552 51.96 373.552 52.3245Z" fill="#FB043D"/>
<path d="M309.575 57.9198C309.575 58.2844 309.281 58.5802 308.918 58.5802C308.556 58.5802 308.262 58.2844 308.262 57.9198C308.262 57.5553 308.556 57.2595 308.918 57.2595C309.281 57.2595 309.575 57.5553 309.575 57.9198Z" fill="#FB043D"/>
<path d="M316.683 57.9198C316.683 58.2844 316.39 58.5802 316.027 58.5802C315.664 58.5802 315.37 58.2844 315.37 57.9198C315.37 57.5553 315.664 57.2595 316.027 57.2595C316.39 57.2595 316.683 57.5553 316.683 57.9198Z" fill="#FB043D"/>
<path d="M323.791 57.9198C323.791 58.2844 323.498 58.5802 323.135 58.5802C322.772 58.5802 322.478 58.2844 322.478 57.9198C322.478 57.5553 322.772 57.2595 323.135 57.2595C323.498 57.2595 323.791 57.5553 323.791 57.9198Z" fill="#FB043D"/>
<path d="M330.901 57.9198C330.901 58.2844 330.607 58.5802 330.244 58.5802C329.881 58.5802 329.588 58.2844 329.588 57.9198C329.588 57.5553 329.881 57.2595 330.244 57.2595C330.607 57.2595 330.901 57.5553 330.901 57.9198Z" fill="#FB043D"/>
<path d="M338.009 57.9198C338.009 58.2844 337.715 58.5802 337.353 58.5802C336.989 58.5802 336.696 58.2844 336.696 57.9198C336.696 57.5553 336.989 57.2595 337.353 57.2595C337.715 57.2595 338.009 57.5553 338.009 57.9198Z" fill="#FB043D"/>
<path d="M345.117 57.9198C345.117 58.2844 344.823 58.5802 344.461 58.5802C344.099 58.5802 343.804 58.2844 343.804 57.9198C343.804 57.5553 344.099 57.2595 344.461 57.2595C344.823 57.2595 345.117 57.5553 345.117 57.9198Z" fill="#FB043D"/>
<path d="M352.226 57.9198C352.226 58.2844 351.932 58.5802 351.569 58.5802C351.207 58.5802 350.913 58.2844 350.913 57.9198C350.913 57.5553 351.207 57.2595 351.569 57.2595C351.932 57.2595 352.226 57.5553 352.226 57.9198Z" fill="#FB043D"/>
<path d="M359.334 57.9198C359.334 58.2844 359.041 58.5802 358.678 58.5802C358.315 58.5802 358.021 58.2844 358.021 57.9198C358.021 57.5553 358.315 57.2595 358.678 57.2595C359.041 57.2595 359.334 57.5553 359.334 57.9198Z" fill="#FB043D"/>
<path d="M366.444 57.9198C366.444 58.2844 366.149 58.5802 365.786 58.5802C365.423 58.5802 365.129 58.2844 365.129 57.9198C365.129 57.5553 365.423 57.2595 365.786 57.2595C366.149 57.2595 366.444 57.5553 366.444 57.9198Z" fill="#FB043D"/>
<path d="M373.552 57.9198C373.552 58.2844 373.258 58.5802 372.895 58.5802C372.532 58.5802 372.239 58.2844 372.239 57.9198C372.239 57.5553 372.532 57.2595 372.895 57.2595C373.258 57.2595 373.552 57.5553 373.552 57.9198Z" fill="#FB043D"/>
<path d="M309.575 63.5151C309.575 63.8796 309.281 64.1755 308.918 64.1755C308.556 64.1755 308.262 63.8796 308.262 63.5151C308.262 63.1505 308.556 62.8547 308.918 62.8547C309.281 62.8547 309.575 63.1505 309.575 63.5151Z" fill="#FB043D"/>
<path d="M316.683 63.5151C316.683 63.8796 316.39 64.1755 316.027 64.1755C315.664 64.1755 315.37 63.8796 315.37 63.5151C315.37 63.1505 315.664 62.8547 316.027 62.8547C316.39 62.8547 316.683 63.1505 316.683 63.5151Z" fill="#FB043D"/>
<path d="M323.791 63.5151C323.791 63.8796 323.498 64.1755 323.135 64.1755C322.772 64.1755 322.478 63.8796 322.478 63.5151C322.478 63.1505 322.772 62.8547 323.135 62.8547C323.498 62.8547 323.791 63.1505 323.791 63.5151Z" fill="#FB043D"/>
<path d="M330.901 63.5151C330.901 63.8796 330.607 64.1755 330.244 64.1755C329.881 64.1755 329.588 63.8796 329.588 63.5151C329.588 63.1505 329.881 62.8547 330.244 62.8547C330.607 62.8547 330.901 63.1505 330.901 63.5151Z" fill="#FB043D"/>
<path d="M338.009 63.5151C338.009 63.8796 337.715 64.1755 337.353 64.1755C336.989 64.1755 336.696 63.8796 336.696 63.5151C336.696 63.1505 336.989 62.8547 337.353 62.8547C337.715 62.8547 338.009 63.1505 338.009 63.5151Z" fill="#FB043D"/>
<path d="M345.117 63.5151C345.117 63.8796 344.823 64.1755 344.461 64.1755C344.099 64.1755 343.804 63.8796 343.804 63.5151C343.804 63.1505 344.099 62.8547 344.461 62.8547C344.823 62.8547 345.117 63.1505 345.117 63.5151Z" fill="#FB043D"/>
<path d="M352.226 63.5151C352.226 63.8796 351.932 64.1755 351.569 64.1755C351.207 64.1755 350.913 63.8796 350.913 63.5151C350.913 63.1505 351.207 62.8547 351.569 62.8547C351.932 62.8547 352.226 63.1505 352.226 63.5151Z" fill="#FB043D"/>
<path d="M359.334 63.5151C359.334 63.8796 359.041 64.1755 358.678 64.1755C358.315 64.1755 358.021 63.8796 358.021 63.5151C358.021 63.1505 358.315 62.8547 358.678 62.8547C359.041 62.8547 359.334 63.1505 359.334 63.5151Z" fill="#FB043D"/>
<path d="M366.444 63.5151C366.444 63.8796 366.149 64.1755 365.786 64.1755C365.423 64.1755 365.129 63.8796 365.129 63.5151C365.129 63.1505 365.423 62.8547 365.786 62.8547C366.149 62.8547 366.444 63.1505 366.444 63.5151Z" fill="#FB043D"/>
<path d="M373.552 63.5151C373.552 63.8796 373.258 64.1755 372.895 64.1755C372.532 64.1755 372.239 63.8796 372.239 63.5151C372.239 63.1505 372.532 62.8547 372.895 62.8547C373.258 62.8547 373.552 63.1505 373.552 63.5151Z" fill="#FB043D"/>
<path d="M309.575 69.1103C309.575 69.4749 309.281 69.7707 308.918 69.7707C308.556 69.7707 308.262 69.4749 308.262 69.1103C308.262 68.7446 308.556 68.4499 308.918 68.4499C309.281 68.4499 309.575 68.7446 309.575 69.1103Z" fill="#FB043D"/>
<path d="M316.683 69.1103C316.683 69.4749 316.39 69.7707 316.027 69.7707C315.664 69.7707 315.37 69.4749 315.37 69.1103C315.37 68.7446 315.664 68.4499 316.027 68.4499C316.39 68.4499 316.683 68.7446 316.683 69.1103Z" fill="#FB043D"/>
<path d="M323.791 69.1103C323.791 69.4749 323.498 69.7707 323.135 69.7707C322.772 69.7707 322.478 69.4749 322.478 69.1103C322.478 68.7446 322.772 68.4499 323.135 68.4499C323.498 68.4499 323.791 68.7446 323.791 69.1103Z" fill="#FB043D"/>
<path d="M330.901 69.1103C330.901 69.4749 330.607 69.7707 330.244 69.7707C329.881 69.7707 329.588 69.4749 329.588 69.1103C329.588 68.7446 329.881 68.4499 330.244 68.4499C330.607 68.4499 330.901 68.7446 330.901 69.1103Z" fill="#FB043D"/>
<path d="M338.009 69.1103C338.009 69.4749 337.715 69.7707 337.353 69.7707C336.989 69.7707 336.696 69.4749 336.696 69.1103C336.696 68.7446 336.989 68.4499 337.353 68.4499C337.715 68.4499 338.009 68.7446 338.009 69.1103Z" fill="#FB043D"/>
<path d="M345.117 69.1103C345.117 69.4749 344.823 69.7707 344.461 69.7707C344.099 69.7707 343.804 69.4749 343.804 69.1103C343.804 68.7446 344.099 68.4499 344.461 68.4499C344.823 68.4499 345.117 68.7446 345.117 69.1103Z" fill="#FB043D"/>
<path d="M352.226 69.1103C352.226 69.4749 351.932 69.7707 351.569 69.7707C351.207 69.7707 350.913 69.4749 350.913 69.1103C350.913 68.7446 351.207 68.4499 351.569 68.4499C351.932 68.4499 352.226 68.7446 352.226 69.1103Z" fill="#FB043D"/>
<path d="M359.334 69.1103C359.334 69.4749 359.041 69.7707 358.678 69.7707C358.315 69.7707 358.021 69.4749 358.021 69.1103C358.021 68.7446 358.315 68.4499 358.678 68.4499C359.041 68.4499 359.334 68.7446 359.334 69.1103Z" fill="#FB043D"/>
<path d="M366.444 69.1103C366.444 69.4749 366.149 69.7707 365.786 69.7707C365.423 69.7707 365.129 69.4749 365.129 69.1103C365.129 68.7446 365.423 68.4499 365.786 68.4499C366.149 68.4499 366.444 68.7446 366.444 69.1103Z" fill="#FB043D"/>
<path d="M373.552 69.1103C373.552 69.4749 373.258 69.7707 372.895 69.7707C372.532 69.7707 372.239 69.4749 372.239 69.1103C372.239 68.7446 372.532 68.4499 372.895 68.4499C373.258 68.4499 373.552 68.7446 373.552 69.1103Z" fill="#FB043D"/>
<path d="M309.575 74.7056C309.575 75.0701 309.281 75.3659 308.918 75.3659C308.556 75.3659 308.262 75.0701 308.262 74.7056C308.262 74.3398 308.556 74.0452 308.918 74.0452C309.281 74.0452 309.575 74.3398 309.575 74.7056Z" fill="#FB043D"/>
<path d="M316.683 74.7056C316.683 75.0701 316.39 75.3659 316.027 75.3659C315.664 75.3659 315.37 75.0701 315.37 74.7056C315.37 74.3398 315.664 74.0452 316.027 74.0452C316.39 74.0452 316.683 74.3398 316.683 74.7056Z" fill="#FB043D"/>
<path d="M323.791 74.7056C323.791 75.0701 323.498 75.3659 323.135 75.3659C322.772 75.3659 322.478 75.0701 322.478 74.7056C322.478 74.3398 322.772 74.0452 323.135 74.0452C323.498 74.0452 323.791 74.3398 323.791 74.7056Z" fill="#FB043D"/>
<path d="M330.901 74.7056C330.901 75.0701 330.607 75.3659 330.244 75.3659C329.881 75.3659 329.588 75.0701 329.588 74.7056C329.588 74.3398 329.881 74.0452 330.244 74.0452C330.607 74.0452 330.901 74.3398 330.901 74.7056Z" fill="#FB043D"/>
<path d="M338.009 74.7056C338.009 75.0701 337.715 75.3659 337.353 75.3659C336.989 75.3659 336.696 75.0701 336.696 74.7056C336.696 74.3398 336.989 74.0452 337.353 74.0452C337.715 74.0452 338.009 74.3398 338.009 74.7056Z" fill="#FB043D"/>
<path d="M345.117 74.7056C345.117 75.0701 344.823 75.3659 344.461 75.3659C344.099 75.3659 343.804 75.0701 343.804 74.7056C343.804 74.3398 344.099 74.0452 344.461 74.0452C344.823 74.0452 345.117 74.3398 345.117 74.7056Z" fill="#FB043D"/>
<path d="M352.226 74.7056C352.226 75.0701 351.932 75.3659 351.569 75.3659C351.207 75.3659 350.913 75.0701 350.913 74.7056C350.913 74.3398 351.207 74.0452 351.569 74.0452C351.932 74.0452 352.226 74.3398 352.226 74.7056Z" fill="#FB043D"/>
<path d="M359.334 74.7056C359.334 75.0701 359.041 75.3659 358.678 75.3659C358.315 75.3659 358.021 75.0701 358.021 74.7056C358.021 74.3398 358.315 74.0452 358.678 74.0452C359.041 74.0452 359.334 74.3398 359.334 74.7056Z" fill="#FB043D"/>
<path d="M366.444 74.7056C366.444 75.0701 366.149 75.3659 365.786 75.3659C365.423 75.3659 365.129 75.0701 365.129 74.7056C365.129 74.3398 365.423 74.0452 365.786 74.0452C366.149 74.0452 366.444 74.3398 366.444 74.7056Z" fill="#FB043D"/>
<path d="M373.552 74.7056C373.552 75.0701 373.258 75.3659 372.895 75.3659C372.532 75.3659 372.239 75.0701 372.239 74.7056C372.239 74.3398 372.532 74.0452 372.895 74.0452C373.258 74.0452 373.552 74.3398 373.552 74.7056Z" fill="#FB043D"/>
<path d="M309.575 80.2994C309.575 80.6651 309.281 80.9598 308.918 80.9598C308.556 80.9598 308.262 80.6651 308.262 80.2994C308.262 79.9348 308.556 79.639 308.918 79.639C309.281 79.639 309.575 79.9348 309.575 80.2994Z" fill="#FB043D"/>
<path d="M316.683 80.2994C316.683 80.6651 316.39 80.9598 316.027 80.9598C315.664 80.9598 315.37 80.6651 315.37 80.2994C315.37 79.9348 315.664 79.639 316.027 79.639C316.39 79.639 316.683 79.9348 316.683 80.2994Z" fill="#FB043D"/>
<path d="M323.791 80.2994C323.791 80.6651 323.498 80.9598 323.135 80.9598C322.772 80.9598 322.478 80.6651 322.478 80.2994C322.478 79.9348 322.772 79.639 323.135 79.639C323.498 79.639 323.791 79.9348 323.791 80.2994Z" fill="#FB043D"/>
<path d="M330.901 80.2994C330.901 80.6651 330.607 80.9598 330.244 80.9598C329.881 80.9598 329.588 80.6651 329.588 80.2994C329.588 79.9348 329.881 79.639 330.244 79.639C330.607 79.639 330.901 79.9348 330.901 80.2994Z" fill="#FB043D"/>
<path d="M338.009 80.2994C338.009 80.6651 337.715 80.9598 337.353 80.9598C336.989 80.9598 336.696 80.6651 336.696 80.2994C336.696 79.9348 336.989 79.639 337.353 79.639C337.715 79.639 338.009 79.9348 338.009 80.2994Z" fill="#FB043D"/>
<path d="M345.117 80.2994C345.117 80.6651 344.823 80.9598 344.461 80.9598C344.099 80.9598 343.804 80.6651 343.804 80.2994C343.804 79.9348 344.099 79.639 344.461 79.639C344.823 79.639 345.117 79.9348 345.117 80.2994Z" fill="#FB043D"/>
<path d="M352.226 80.2994C352.226 80.6651 351.932 80.9598 351.569 80.9598C351.207 80.9598 350.913 80.6651 350.913 80.2994C350.913 79.9348 351.207 79.639 351.569 79.639C351.932 79.639 352.226 79.9348 352.226 80.2994Z" fill="#FB043D"/>
<path d="M359.334 80.2994C359.334 80.6651 359.041 80.9598 358.678 80.9598C358.315 80.9598 358.021 80.6651 358.021 80.2994C358.021 79.9348 358.315 79.639 358.678 79.639C359.041 79.639 359.334 79.9348 359.334 80.2994Z" fill="#FB043D"/>
<path d="M366.444 80.2994C366.444 80.6651 366.149 80.9598 365.786 80.9598C365.423 80.9598 365.129 80.6651 365.129 80.2994C365.129 79.9348 365.423 79.639 365.786 79.639C366.149 79.639 366.444 79.9348 366.444 80.2994Z" fill="#FB043D"/>
<path d="M373.552 80.2994C373.552 80.6651 373.258 80.9598 372.895 80.9598C372.532 80.9598 372.239 80.6651 372.239 80.2994C372.239 79.9348 372.532 79.639 372.895 79.639C373.258 79.639 373.552 79.9348 373.552 80.2994Z" fill="#FB043D"/>
<path d="M309.575 85.4756C309.575 85.8402 309.281 86.136 308.918 86.136C308.556 86.136 308.262 85.8402 308.262 85.4756C308.262 85.1111 308.556 84.8152 308.918 84.8152C309.281 84.8152 309.575 85.1111 309.575 85.4756Z" fill="#FB043D"/>
<path d="M316.683 85.4756C316.683 85.8402 316.39 86.136 316.027 86.136C315.664 86.136 315.37 85.8402 315.37 85.4756C315.37 85.1111 315.664 84.8152 316.027 84.8152C316.39 84.8152 316.683 85.1111 316.683 85.4756Z" fill="#FB043D"/>
<path d="M323.791 85.4756C323.791 85.8402 323.498 86.136 323.135 86.136C322.772 86.136 322.478 85.8402 322.478 85.4756C322.478 85.1111 322.772 84.8152 323.135 84.8152C323.498 84.8152 323.791 85.1111 323.791 85.4756Z" fill="#FB043D"/>
<path d="M330.901 85.4756C330.901 85.8402 330.607 86.136 330.244 86.136C329.881 86.136 329.588 85.8402 329.588 85.4756C329.588 85.1111 329.881 84.8152 330.244 84.8152C330.607 84.8152 330.901 85.1111 330.901 85.4756Z" fill="#FB043D"/>
<path d="M338.009 85.4756C338.009 85.8402 337.715 86.136 337.353 86.136C336.989 86.136 336.696 85.8402 336.696 85.4756C336.696 85.1111 336.989 84.8152 337.353 84.8152C337.715 84.8152 338.009 85.1111 338.009 85.4756Z" fill="#FB043D"/>
<path d="M345.117 85.4756C345.117 85.8402 344.823 86.136 344.461 86.136C344.099 86.136 343.804 85.8402 343.804 85.4756C343.804 85.1111 344.099 84.8152 344.461 84.8152C344.823 84.8152 345.117 85.1111 345.117 85.4756Z" fill="#FB043D"/>
<path d="M352.226 85.4756C352.226 85.8402 351.932 86.136 351.569 86.136C351.207 86.136 350.913 85.8402 350.913 85.4756C350.913 85.1111 351.207 84.8152 351.569 84.8152C351.932 84.8152 352.226 85.1111 352.226 85.4756Z" fill="#FB043D"/>
<path d="M359.334 85.4756C359.334 85.8402 359.041 86.136 358.678 86.136C358.315 86.136 358.021 85.8402 358.021 85.4756C358.021 85.1111 358.315 84.8152 358.678 84.8152C359.041 84.8152 359.334 85.1111 359.334 85.4756Z" fill="#FB043D"/>
<path d="M366.444 85.4756C366.444 85.8402 366.149 86.136 365.786 86.136C365.423 86.136 365.129 85.8402 365.129 85.4756C365.129 85.1111 365.423 84.8152 365.786 84.8152C366.149 84.8152 366.444 85.1111 366.444 85.4756Z" fill="#FB043D"/>
<path d="M373.552 85.4756C373.552 85.8402 373.258 86.136 372.895 86.136C372.532 86.136 372.239 85.8402 372.239 85.4756C372.239 85.1111 372.532 84.8152 372.895 84.8152C373.258 84.8152 373.552 85.1111 373.552 85.4756Z" fill="#FB043D"/>
<path d="M309.575 91.0709C309.575 91.4355 309.281 91.7313 308.918 91.7313C308.556 91.7313 308.262 91.4355 308.262 91.0709C308.262 90.7064 308.556 90.4106 308.918 90.4106C309.281 90.4106 309.575 90.7064 309.575 91.0709Z" fill="#FB043D"/>
<path d="M316.683 91.0709C316.683 91.4355 316.39 91.7313 316.027 91.7313C315.664 91.7313 315.37 91.4355 315.37 91.0709C315.37 90.7064 315.664 90.4106 316.027 90.4106C316.39 90.4106 316.683 90.7064 316.683 91.0709Z" fill="#FB043D"/>
<path d="M323.791 91.0709C323.791 91.4355 323.498 91.7313 323.135 91.7313C322.772 91.7313 322.478 91.4355 322.478 91.0709C322.478 90.7064 322.772 90.4106 323.135 90.4106C323.498 90.4106 323.791 90.7064 323.791 91.0709Z" fill="#FB043D"/>
<path d="M330.901 91.0709C330.901 91.4355 330.607 91.7313 330.244 91.7313C329.881 91.7313 329.588 91.4355 329.588 91.0709C329.588 90.7064 329.881 90.4106 330.244 90.4106C330.607 90.4106 330.901 90.7064 330.901 91.0709Z" fill="#FB043D"/>
<path d="M338.009 91.0709C338.009 91.4355 337.715 91.7313 337.353 91.7313C336.989 91.7313 336.696 91.4355 336.696 91.0709C336.696 90.7064 336.989 90.4106 337.353 90.4106C337.715 90.4106 338.009 90.7064 338.009 91.0709Z" fill="#FB043D"/>
<path d="M345.117 91.0709C345.117 91.4355 344.823 91.7313 344.461 91.7313C344.099 91.7313 343.804 91.4355 343.804 91.0709C343.804 90.7064 344.099 90.4106 344.461 90.4106C344.823 90.4106 345.117 90.7064 345.117 91.0709Z" fill="#FB043D"/>
<path d="M352.226 91.0709C352.226 91.4355 351.932 91.7313 351.569 91.7313C351.207 91.7313 350.913 91.4355 350.913 91.0709C350.913 90.7064 351.207 90.4106 351.569 90.4106C351.932 90.4106 352.226 90.7064 352.226 91.0709Z" fill="#FB043D"/>
<path d="M359.334 91.0709C359.334 91.4355 359.041 91.7313 358.678 91.7313C358.315 91.7313 358.021 91.4355 358.021 91.0709C358.021 90.7064 358.315 90.4106 358.678 90.4106C359.041 90.4106 359.334 90.7064 359.334 91.0709Z" fill="#FB043D"/>
<path d="M366.444 91.0709C366.444 91.4355 366.149 91.7313 365.786 91.7313C365.423 91.7313 365.129 91.4355 365.129 91.0709C365.129 90.7064 365.423 90.4106 365.786 90.4106C366.149 90.4106 366.444 90.7064 366.444 91.0709Z" fill="#FB043D"/>
<path d="M373.552 91.0709C373.552 91.4355 373.258 91.7313 372.895 91.7313C372.532 91.7313 372.239 91.4355 372.239 91.0709C372.239 90.7064 372.532 90.4106 372.895 90.4106C373.258 90.4106 373.552 90.7064 373.552 91.0709Z" fill="#FB043D"/>
<path d="M309.575 96.6647C309.575 97.0304 309.281 97.325 308.918 97.325C308.556 97.325 308.262 97.0304 308.262 96.6647C308.262 96.3001 308.556 96.0043 308.918 96.0043C309.281 96.0043 309.575 96.3001 309.575 96.6647Z" fill="#FB043D"/>
<path d="M316.683 96.6647C316.683 97.0304 316.39 97.325 316.027 97.325C315.664 97.325 315.37 97.0304 315.37 96.6647C315.37 96.3001 315.664 96.0043 316.027 96.0043C316.39 96.0043 316.683 96.3001 316.683 96.6647Z" fill="#FB043D"/>
<path d="M323.791 96.6647C323.791 97.0304 323.498 97.325 323.135 97.325C322.772 97.325 322.478 97.0304 322.478 96.6647C322.478 96.3001 322.772 96.0043 323.135 96.0043C323.498 96.0043 323.791 96.3001 323.791 96.6647Z" fill="#FB043D"/>
<path d="M330.901 96.6647C330.901 97.0304 330.607 97.325 330.244 97.325C329.881 97.325 329.588 97.0304 329.588 96.6647C329.588 96.3001 329.881 96.0043 330.244 96.0043C330.607 96.0043 330.901 96.3001 330.901 96.6647Z" fill="#FB043D"/>
<path d="M338.009 96.6647C338.009 97.0304 337.715 97.325 337.353 97.325C336.989 97.325 336.696 97.0304 336.696 96.6647C336.696 96.3001 336.989 96.0043 337.353 96.0043C337.715 96.0043 338.009 96.3001 338.009 96.6647Z" fill="#FB043D"/>
<path d="M345.117 96.6647C345.117 97.0304 344.823 97.325 344.461 97.325C344.099 97.325 343.804 97.0304 343.804 96.6647C343.804 96.3001 344.099 96.0043 344.461 96.0043C344.823 96.0043 345.117 96.3001 345.117 96.6647Z" fill="#FB043D"/>
<path d="M352.226 96.6647C352.226 97.0304 351.932 97.325 351.569 97.325C351.207 97.325 350.913 97.0304 350.913 96.6647C350.913 96.3001 351.207 96.0043 351.569 96.0043C351.932 96.0043 352.226 96.3001 352.226 96.6647Z" fill="#FB043D"/>
<path d="M359.334 96.6647C359.334 97.0304 359.041 97.325 358.678 97.325C358.315 97.325 358.021 97.0304 358.021 96.6647C358.021 96.3001 358.315 96.0043 358.678 96.0043C359.041 96.0043 359.334 96.3001 359.334 96.6647Z" fill="#FB043D"/>
<path d="M366.444 96.6647C366.444 97.0304 366.149 97.325 365.786 97.325C365.423 97.325 365.129 97.0304 365.129 96.6647C365.129 96.3001 365.423 96.0043 365.786 96.0043C366.149 96.0043 366.444 96.3001 366.444 96.6647Z" fill="#FB043D"/>
<path d="M373.552 96.6647C373.552 97.0304 373.258 97.325 372.895 97.325C372.532 97.325 372.239 97.0304 372.239 96.6647C372.239 96.3001 372.532 96.0043 372.895 96.0043C373.258 96.0043 373.552 96.3001 373.552 96.6647Z" fill="#FB043D"/>
<path d="M309.575 102.26C309.575 102.626 309.281 102.92 308.918 102.92C308.556 102.92 308.262 102.626 308.262 102.26C308.262 101.895 308.556 101.6 308.918 101.6C309.281 101.6 309.575 101.895 309.575 102.26Z" fill="#FB043D"/>
<path d="M316.683 102.26C316.683 102.626 316.39 102.92 316.027 102.92C315.664 102.92 315.37 102.626 315.37 102.26C315.37 101.895 315.664 101.6 316.027 101.6C316.39 101.6 316.683 101.895 316.683 102.26Z" fill="#FB043D"/>
<path d="M323.791 102.26C323.791 102.626 323.498 102.92 323.135 102.92C322.772 102.92 322.478 102.626 322.478 102.26C322.478 101.895 322.772 101.6 323.135 101.6C323.498 101.6 323.791 101.895 323.791 102.26Z" fill="#FB043D"/>
<path d="M330.901 102.26C330.901 102.626 330.607 102.92 330.244 102.92C329.881 102.92 329.588 102.626 329.588 102.26C329.588 101.895 329.881 101.6 330.244 101.6C330.607 101.6 330.901 101.895 330.901 102.26Z" fill="#FB043D"/>
<path d="M338.009 102.26C338.009 102.626 337.715 102.92 337.353 102.92C336.989 102.92 336.696 102.626 336.696 102.26C336.696 101.895 336.989 101.6 337.353 101.6C337.715 101.6 338.009 101.895 338.009 102.26Z" fill="#FB043D"/>
<path d="M345.117 102.26C345.117 102.626 344.823 102.92 344.461 102.92C344.099 102.92 343.804 102.626 343.804 102.26C343.804 101.895 344.099 101.6 344.461 101.6C344.823 101.6 345.117 101.895 345.117 102.26Z" fill="#FB043D"/>
<path d="M352.226 102.26C352.226 102.626 351.932 102.92 351.569 102.92C351.207 102.92 350.913 102.626 350.913 102.26C350.913 101.895 351.207 101.6 351.569 101.6C351.932 101.6 352.226 101.895 352.226 102.26Z" fill="#FB043D"/>
<path d="M359.334 102.26C359.334 102.626 359.041 102.92 358.678 102.92C358.315 102.92 358.021 102.626 358.021 102.26C358.021 101.895 358.315 101.6 358.678 101.6C359.041 101.6 359.334 101.895 359.334 102.26Z" fill="#FB043D"/>
<path d="M366.444 102.26C366.444 102.626 366.149 102.92 365.786 102.92C365.423 102.92 365.129 102.626 365.129 102.26C365.129 101.895 365.423 101.6 365.786 101.6C366.149 101.6 366.444 101.895 366.444 102.26Z" fill="#FB043D"/>
<path d="M373.552 102.26C373.552 102.626 373.258 102.92 372.895 102.92C372.532 102.92 372.239 102.626 372.239 102.26C372.239 101.895 372.532 101.6 372.895 101.6C373.258 101.6 373.552 101.895 373.552 102.26Z" fill="#FB043D"/>
<path d="M309.575 107.855C309.575 108.221 309.281 108.516 308.918 108.516C308.556 108.516 308.262 108.221 308.262 107.855C308.262 107.491 308.556 107.195 308.918 107.195C309.281 107.195 309.575 107.491 309.575 107.855Z" fill="#FB043D"/>
<path d="M316.683 107.855C316.683 108.221 316.39 108.516 316.027 108.516C315.664 108.516 315.37 108.221 315.37 107.855C315.37 107.491 315.664 107.195 316.027 107.195C316.39 107.195 316.683 107.491 316.683 107.855Z" fill="#FB043D"/>
<path d="M323.791 107.855C323.791 108.221 323.498 108.516 323.135 108.516C322.772 108.516 322.478 108.221 322.478 107.855C322.478 107.491 322.772 107.195 323.135 107.195C323.498 107.195 323.791 107.491 323.791 107.855Z" fill="#FB043D"/>
<path d="M330.901 107.855C330.901 108.221 330.607 108.516 330.244 108.516C329.881 108.516 329.588 108.221 329.588 107.855C329.588 107.491 329.881 107.195 330.244 107.195C330.607 107.195 330.901 107.491 330.901 107.855Z" fill="#FB043D"/>
<path d="M338.009 107.855C338.009 108.221 337.715 108.516 337.353 108.516C336.989 108.516 336.696 108.221 336.696 107.855C336.696 107.491 336.989 107.195 337.353 107.195C337.715 107.195 338.009 107.491 338.009 107.855Z" fill="#FB043D"/>
<path d="M345.117 107.855C345.117 108.221 344.823 108.516 344.461 108.516C344.099 108.516 343.804 108.221 343.804 107.855C343.804 107.491 344.099 107.195 344.461 107.195C344.823 107.195 345.117 107.491 345.117 107.855Z" fill="#FB043D"/>
<path d="M352.226 107.855C352.226 108.221 351.932 108.516 351.569 108.516C351.207 108.516 350.913 108.221 350.913 107.855C350.913 107.491 351.207 107.195 351.569 107.195C351.932 107.195 352.226 107.491 352.226 107.855Z" fill="#FB043D"/>
<path d="M359.334 107.855C359.334 108.221 359.041 108.516 358.678 108.516C358.315 108.516 358.021 108.221 358.021 107.855C358.021 107.491 358.315 107.195 358.678 107.195C359.041 107.195 359.334 107.491 359.334 107.855Z" fill="#FB043D"/>
<path d="M366.444 107.855C366.444 108.221 366.149 108.516 365.786 108.516C365.423 108.516 365.129 108.221 365.129 107.855C365.129 107.491 365.423 107.195 365.786 107.195C366.149 107.195 366.444 107.491 366.444 107.855Z" fill="#FB043D"/>
<path d="M373.552 107.855C373.552 108.221 373.258 108.516 372.895 108.516C372.532 108.516 372.239 108.221 372.239 107.855C372.239 107.491 372.532 107.195 372.895 107.195C373.258 107.195 373.552 107.491 373.552 107.855Z" fill="#FB043D"/>
<path d="M309.575 113.45C309.575 113.815 309.281 114.111 308.918 114.111C308.556 114.111 308.262 113.815 308.262 113.45C308.262 113.086 308.556 112.79 308.918 112.79C309.281 112.79 309.575 113.086 309.575 113.45Z" fill="#FB043D"/>
<path d="M316.683 113.45C316.683 113.815 316.39 114.111 316.027 114.111C315.664 114.111 315.37 113.815 315.37 113.45C315.37 113.086 315.664 112.79 316.027 112.79C316.39 112.79 316.683 113.086 316.683 113.45Z" fill="#FB043D"/>
<path d="M323.791 113.45C323.791 113.815 323.498 114.111 323.135 114.111C322.772 114.111 322.478 113.815 322.478 113.45C322.478 113.086 322.772 112.79 323.135 112.79C323.498 112.79 323.791 113.086 323.791 113.45Z" fill="#FB043D"/>
<path d="M330.901 113.45C330.901 113.815 330.607 114.111 330.244 114.111C329.881 114.111 329.588 113.815 329.588 113.45C329.588 113.086 329.881 112.79 330.244 112.79C330.607 112.79 330.901 113.086 330.901 113.45Z" fill="#FB043D"/>
<path d="M338.009 113.45C338.009 113.815 337.715 114.111 337.353 114.111C336.989 114.111 336.696 113.815 336.696 113.45C336.696 113.086 336.989 112.79 337.353 112.79C337.715 112.79 338.009 113.086 338.009 113.45Z" fill="#FB043D"/>
<path d="M345.117 113.45C345.117 113.815 344.823 114.111 344.461 114.111C344.099 114.111 343.804 113.815 343.804 113.45C343.804 113.086 344.099 112.79 344.461 112.79C344.823 112.79 345.117 113.086 345.117 113.45Z" fill="#FB043D"/>
<path d="M352.226 113.45C352.226 113.815 351.932 114.111 351.569 114.111C351.207 114.111 350.913 113.815 350.913 113.45C350.913 113.086 351.207 112.79 351.569 112.79C351.932 112.79 352.226 113.086 352.226 113.45Z" fill="#FB043D"/>
<path d="M359.334 113.45C359.334 113.815 359.041 114.111 358.678 114.111C358.315 114.111 358.021 113.815 358.021 113.45C358.021 113.086 358.315 112.79 358.678 112.79C359.041 112.79 359.334 113.086 359.334 113.45Z" fill="#FB043D"/>
<path d="M366.444 113.45C366.444 113.815 366.149 114.111 365.786 114.111C365.423 114.111 365.129 113.815 365.129 113.45C365.129 113.086 365.423 112.79 365.786 112.79C366.149 112.79 366.444 113.086 366.444 113.45Z" fill="#FB043D"/>
<path d="M373.552 113.45C373.552 113.815 373.258 114.111 372.895 114.111C372.532 114.111 372.239 113.815 372.239 113.45C372.239 113.086 372.532 112.79 372.895 112.79C373.258 112.79 373.552 113.086 373.552 113.45Z" fill="#FB043D"/>
<path d="M309.575 119.046C309.575 119.41 309.281 119.706 308.918 119.706C308.556 119.706 308.262 119.41 308.262 119.046C308.262 118.68 308.556 118.385 308.918 118.385C309.281 118.385 309.575 118.68 309.575 119.046Z" fill="#FB043D"/>
<path d="M316.683 119.046C316.683 119.41 316.39 119.706 316.027 119.706C315.664 119.706 315.37 119.41 315.37 119.046C315.37 118.68 315.664 118.385 316.027 118.385C316.39 118.385 316.683 118.68 316.683 119.046Z" fill="#FB043D"/>
<path d="M323.791 119.046C323.791 119.41 323.498 119.706 323.135 119.706C322.772 119.706 322.478 119.41 322.478 119.046C322.478 118.68 322.772 118.385 323.135 118.385C323.498 118.385 323.791 118.68 323.791 119.046Z" fill="#FB043D"/>
<path d="M330.901 119.046C330.901 119.41 330.607 119.706 330.244 119.706C329.881 119.706 329.588 119.41 329.588 119.046C329.588 118.68 329.881 118.385 330.244 118.385C330.607 118.385 330.901 118.68 330.901 119.046Z" fill="#FB043D"/>
<path d="M338.009 119.046C338.009 119.41 337.715 119.706 337.353 119.706C336.989 119.706 336.696 119.41 336.696 119.046C336.696 118.68 336.989 118.385 337.353 118.385C337.715 118.385 338.009 118.68 338.009 119.046Z" fill="#FB043D"/>
<path d="M345.117 119.046C345.117 119.41 344.823 119.706 344.461 119.706C344.099 119.706 343.804 119.41 343.804 119.046C343.804 118.68 344.099 118.385 344.461 118.385C344.823 118.385 345.117 118.68 345.117 119.046Z" fill="#FB043D"/>
<path d="M352.226 119.046C352.226 119.41 351.932 119.706 351.569 119.706C351.207 119.706 350.913 119.41 350.913 119.046C350.913 118.68 351.207 118.385 351.569 118.385C351.932 118.385 352.226 118.68 352.226 119.046Z" fill="#FB043D"/>
<path d="M359.334 119.046C359.334 119.41 359.041 119.706 358.678 119.706C358.315 119.706 358.021 119.41 358.021 119.046C358.021 118.68 358.315 118.385 358.678 118.385C359.041 118.385 359.334 118.68 359.334 119.046Z" fill="#FB043D"/>
<path d="M366.444 119.046C366.444 119.41 366.149 119.706 365.786 119.706C365.423 119.706 365.129 119.41 365.129 119.046C365.129 118.68 365.423 118.385 365.786 118.385C366.149 118.385 366.444 118.68 366.444 119.046Z" fill="#FB043D"/>
<path d="M373.552 119.046C373.552 119.41 373.258 119.706 372.895 119.706C372.532 119.706 372.239 119.41 372.239 119.046C372.239 118.68 372.532 118.385 372.895 118.385C373.258 118.385 373.552 118.68 373.552 119.046Z" fill="#FB043D"/>
<path d="M309.575 124.641C309.575 125.006 309.281 125.301 308.918 125.301C308.556 125.301 308.262 125.006 308.262 124.641C308.262 124.275 308.556 123.981 308.918 123.981C309.281 123.981 309.575 124.275 309.575 124.641Z" fill="#FB043D"/>
<path d="M316.683 124.641C316.683 125.006 316.39 125.301 316.027 125.301C315.664 125.301 315.37 125.006 315.37 124.641C315.37 124.275 315.664 123.981 316.027 123.981C316.39 123.981 316.683 124.275 316.683 124.641Z" fill="#FB043D"/>
<path d="M323.791 124.641C323.791 125.006 323.498 125.301 323.135 125.301C322.772 125.301 322.478 125.006 322.478 124.641C322.478 124.275 322.772 123.981 323.135 123.981C323.498 123.981 323.791 124.275 323.791 124.641Z" fill="#FB043D"/>
<path d="M330.901 124.641C330.901 125.006 330.607 125.301 330.244 125.301C329.881 125.301 329.588 125.006 329.588 124.641C329.588 124.275 329.881 123.981 330.244 123.981C330.607 123.981 330.901 124.275 330.901 124.641Z" fill="#FB043D"/>
<path d="M338.009 124.641C338.009 125.006 337.715 125.301 337.353 125.301C336.989 125.301 336.696 125.006 336.696 124.641C336.696 124.275 336.989 123.981 337.353 123.981C337.715 123.981 338.009 124.275 338.009 124.641Z" fill="#FB043D"/>
<path d="M345.117 124.641C345.117 125.006 344.823 125.301 344.461 125.301C344.099 125.301 343.804 125.006 343.804 124.641C343.804 124.275 344.099 123.981 344.461 123.981C344.823 123.981 345.117 124.275 345.117 124.641Z" fill="#FB043D"/>
<path d="M352.226 124.641C352.226 125.006 351.932 125.301 351.569 125.301C351.207 125.301 350.913 125.006 350.913 124.641C350.913 124.275 351.207 123.981 351.569 123.981C351.932 123.981 352.226 124.275 352.226 124.641Z" fill="#FB043D"/>
<path d="M359.334 124.641C359.334 125.006 359.041 125.301 358.678 125.301C358.315 125.301 358.021 125.006 358.021 124.641C358.021 124.275 358.315 123.981 358.678 123.981C359.041 123.981 359.334 124.275 359.334 124.641Z" fill="#FB043D"/>
<path d="M366.444 124.641C366.444 125.006 366.149 125.301 365.786 125.301C365.423 125.301 365.129 125.006 365.129 124.641C365.129 124.275 365.423 123.981 365.786 123.981C366.149 123.981 366.444 124.275 366.444 124.641Z" fill="#FB043D"/>
<path d="M373.552 124.641C373.552 125.006 373.258 125.301 372.895 125.301C372.532 125.301 372.239 125.006 372.239 124.641C372.239 124.275 372.532 123.981 372.895 123.981C373.258 123.981 373.552 124.275 373.552 124.641Z" fill="#FB043D"/>
<path d="M309.575 130.236C309.575 130.601 309.281 130.897 308.918 130.897C308.556 130.897 308.262 130.601 308.262 130.236C308.262 129.871 308.556 129.576 308.918 129.576C309.281 129.576 309.575 129.871 309.575 130.236Z" fill="#FB043D"/>
<path d="M316.683 130.236C316.683 130.601 316.39 130.897 316.027 130.897C315.664 130.897 315.37 130.601 315.37 130.236C315.37 129.871 315.664 129.576 316.027 129.576C316.39 129.576 316.683 129.871 316.683 130.236Z" fill="#FB043D"/>
<path d="M323.791 130.236C323.791 130.601 323.498 130.897 323.135 130.897C322.772 130.897 322.478 130.601 322.478 130.236C322.478 129.871 322.772 129.576 323.135 129.576C323.498 129.576 323.791 129.871 323.791 130.236Z" fill="#FB043D"/>
<path d="M330.901 130.236C330.901 130.601 330.607 130.897 330.244 130.897C329.881 130.897 329.588 130.601 329.588 130.236C329.588 129.871 329.881 129.576 330.244 129.576C330.607 129.576 330.901 129.871 330.901 130.236Z" fill="#FB043D"/>
<path d="M338.009 130.236C338.009 130.601 337.715 130.897 337.353 130.897C336.989 130.897 336.696 130.601 336.696 130.236C336.696 129.871 336.989 129.576 337.353 129.576C337.715 129.576 338.009 129.871 338.009 130.236Z" fill="#FB043D"/>
<path d="M345.117 130.236C345.117 130.601 344.823 130.897 344.461 130.897C344.099 130.897 343.804 130.601 343.804 130.236C343.804 129.871 344.099 129.576 344.461 129.576C344.823 129.576 345.117 129.871 345.117 130.236Z" fill="#FB043D"/>
<path d="M352.226 130.236C352.226 130.601 351.932 130.897 351.569 130.897C351.207 130.897 350.913 130.601 350.913 130.236C350.913 129.871 351.207 129.576 351.569 129.576C351.932 129.576 352.226 129.871 352.226 130.236Z" fill="#FB043D"/>
<path d="M359.334 130.236C359.334 130.601 359.041 130.897 358.678 130.897C358.315 130.897 358.021 130.601 358.021 130.236C358.021 129.871 358.315 129.576 358.678 129.576C359.041 129.576 359.334 129.871 359.334 130.236Z" fill="#FB043D"/>
<path d="M366.444 130.236C366.444 130.601 366.149 130.897 365.786 130.897C365.423 130.897 365.129 130.601 365.129 130.236C365.129 129.871 365.423 129.576 365.786 129.576C366.149 129.576 366.444 129.871 366.444 130.236Z" fill="#FB043D"/>
<path d="M373.552 130.236C373.552 130.601 373.258 130.897 372.895 130.897C372.532 130.897 372.239 130.601 372.239 130.236C372.239 129.871 372.532 129.576 372.895 129.576C373.258 129.576 373.552 129.871 373.552 130.236Z" fill="#FB043D"/>
<path d="M309.575 135.83C309.575 136.196 309.281 136.491 308.918 136.491C308.556 136.491 308.262 136.196 308.262 135.83C308.262 135.466 308.556 135.17 308.918 135.17C309.281 135.17 309.575 135.466 309.575 135.83Z" fill="#FB043D"/>
<path d="M316.683 135.83C316.683 136.196 316.39 136.491 316.027 136.491C315.664 136.491 315.37 136.196 315.37 135.83C315.37 135.466 315.664 135.17 316.027 135.17C316.39 135.17 316.683 135.466 316.683 135.83Z" fill="#FB043D"/>
<path d="M323.791 135.83C323.791 136.196 323.498 136.491 323.135 136.491C322.772 136.491 322.478 136.196 322.478 135.83C322.478 135.466 322.772 135.17 323.135 135.17C323.498 135.17 323.791 135.466 323.791 135.83Z" fill="#FB043D"/>
<path d="M330.901 135.83C330.901 136.196 330.607 136.491 330.244 136.491C329.881 136.491 329.588 136.196 329.588 135.83C329.588 135.466 329.881 135.17 330.244 135.17C330.607 135.17 330.901 135.466 330.901 135.83Z" fill="#FB043D"/>
<path d="M338.009 135.83C338.009 136.196 337.715 136.491 337.353 136.491C336.989 136.491 336.696 136.196 336.696 135.83C336.696 135.466 336.989 135.17 337.353 135.17C337.715 135.17 338.009 135.466 338.009 135.83Z" fill="#FB043D"/>
<path d="M345.117 135.83C345.117 136.196 344.823 136.491 344.461 136.491C344.099 136.491 343.804 136.196 343.804 135.83C343.804 135.466 344.099 135.17 344.461 135.17C344.823 135.17 345.117 135.466 345.117 135.83Z" fill="#FB043D"/>
<path d="M352.226 135.83C352.226 136.196 351.932 136.491 351.569 136.491C351.207 136.491 350.913 136.196 350.913 135.83C350.913 135.466 351.207 135.17 351.569 135.17C351.932 135.17 352.226 135.466 352.226 135.83Z" fill="#FB043D"/>
<path d="M359.334 135.83C359.334 136.196 359.041 136.491 358.678 136.491C358.315 136.491 358.021 136.196 358.021 135.83C358.021 135.466 358.315 135.17 358.678 135.17C359.041 135.17 359.334 135.466 359.334 135.83Z" fill="#FB043D"/>
<path d="M366.444 135.83C366.444 136.196 366.149 136.491 365.786 136.491C365.423 136.491 365.129 136.196 365.129 135.83C365.129 135.466 365.423 135.17 365.786 135.17C366.149 135.17 366.444 135.466 366.444 135.83Z" fill="#FB043D"/>
<path d="M373.552 135.83C373.552 136.196 373.258 136.491 372.895 136.491C372.532 136.491 372.239 136.196 372.239 135.83C372.239 135.466 372.532 135.17 372.895 135.17C373.258 135.17 373.552 135.466 373.552 135.83Z" fill="#FB043D"/>
<path d="M309.575 141.426C309.575 141.79 309.281 142.086 308.918 142.086C308.556 142.086 308.262 141.79 308.262 141.426C308.262 141.061 308.556 140.765 308.918 140.765C309.281 140.765 309.575 141.061 309.575 141.426Z" fill="#FB043D"/>
<path d="M316.683 141.426C316.683 141.79 316.39 142.086 316.027 142.086C315.664 142.086 315.37 141.79 315.37 141.426C315.37 141.061 315.664 140.765 316.027 140.765C316.39 140.765 316.683 141.061 316.683 141.426Z" fill="#FB043D"/>
<path d="M323.791 141.426C323.791 141.79 323.498 142.086 323.135 142.086C322.772 142.086 322.478 141.79 322.478 141.426C322.478 141.061 322.772 140.765 323.135 140.765C323.498 140.765 323.791 141.061 323.791 141.426Z" fill="#FB043D"/>
<path d="M330.901 141.426C330.901 141.79 330.607 142.086 330.244 142.086C329.881 142.086 329.588 141.79 329.588 141.426C329.588 141.061 329.881 140.765 330.244 140.765C330.607 140.765 330.901 141.061 330.901 141.426Z" fill="#FB043D"/>
<path d="M338.009 141.426C338.009 141.79 337.715 142.086 337.353 142.086C336.989 142.086 336.696 141.79 336.696 141.426C336.696 141.061 336.989 140.765 337.353 140.765C337.715 140.765 338.009 141.061 338.009 141.426Z" fill="#FB043D"/>
<path d="M345.117 141.426C345.117 141.79 344.823 142.086 344.461 142.086C344.099 142.086 343.804 141.79 343.804 141.426C343.804 141.061 344.099 140.765 344.461 140.765C344.823 140.765 345.117 141.061 345.117 141.426Z" fill="#FB043D"/>
<path d="M352.226 141.426C352.226 141.79 351.932 142.086 351.569 142.086C351.207 142.086 350.913 141.79 350.913 141.426C350.913 141.061 351.207 140.765 351.569 140.765C351.932 140.765 352.226 141.061 352.226 141.426Z" fill="#FB043D"/>
<path d="M359.334 141.426C359.334 141.79 359.041 142.086 358.678 142.086C358.315 142.086 358.021 141.79 358.021 141.426C358.021 141.061 358.315 140.765 358.678 140.765C359.041 140.765 359.334 141.061 359.334 141.426Z" fill="#FB043D"/>
<path d="M366.444 141.426C366.444 141.79 366.149 142.086 365.786 142.086C365.423 142.086 365.129 141.79 365.129 141.426C365.129 141.061 365.423 140.765 365.786 140.765C366.149 140.765 366.444 141.061 366.444 141.426Z" fill="#FB043D"/>
<path d="M373.552 141.426C373.552 141.79 373.258 142.086 372.895 142.086C372.532 142.086 372.239 141.79 372.239 141.426C372.239 141.061 372.532 140.765 372.895 140.765C373.258 140.765 373.552 141.061 373.552 141.426Z" fill="#FB043D"/>
</g>
<g opacity="0.300003">
<path d="M56.8855 163.589C56.8855 163.997 56.5476 164.329 56.1311 164.329C55.7157 164.329 55.3778 163.997 55.3778 163.589C55.3778 163.18 55.7157 162.848 56.1311 162.848C56.5476 162.848 56.8855 163.18 56.8855 163.589Z" fill="#FFC916"/>
<path d="M65.0449 163.589C65.0449 163.997 64.7082 164.329 64.2916 164.329C63.8751 164.329 63.5372 163.997 63.5372 163.589C63.5372 163.18 63.8751 162.848 64.2916 162.848C64.7082 162.848 65.0449 163.18 65.0449 163.589Z" fill="#FFC916"/>
<path d="M73.2055 163.589C73.2055 163.997 72.8676 164.329 72.451 164.329C72.0357 164.329 71.6978 163.997 71.6978 163.589C71.6978 163.18 72.0357 162.848 72.451 162.848C72.8676 162.848 73.2055 163.18 73.2055 163.589Z" fill="#FFC916"/>
<path d="M81.3648 163.589C81.3648 163.997 81.028 164.329 80.6115 164.329C80.195 164.329 79.8582 163.997 79.8582 163.589C79.8582 163.18 80.195 162.848 80.6115 162.848C81.028 162.848 81.3648 163.18 81.3648 163.589Z" fill="#FFC916"/>
<path d="M89.5253 163.589C89.5253 163.997 89.1874 164.329 88.7709 164.329C88.3555 164.329 88.0176 163.997 88.0176 163.589C88.0176 163.18 88.3555 162.848 88.7709 162.848C89.1874 162.848 89.5253 163.18 89.5253 163.589Z" fill="#FFC916"/>
<path d="M97.6858 163.589C97.6858 163.997 97.3479 164.329 96.9314 164.329C96.5148 164.329 96.1781 163.997 96.1781 163.589C96.1781 163.18 96.5148 162.848 96.9314 162.848C97.3479 162.848 97.6858 163.18 97.6858 163.589Z" fill="#FFC916"/>
<path d="M105.845 163.589C105.845 163.997 105.508 164.329 105.092 164.329C104.675 164.329 104.337 163.997 104.337 163.589C104.337 163.18 104.675 162.848 105.092 162.848C105.508 162.848 105.845 163.18 105.845 163.589Z" fill="#FFC916"/>
<path d="M114.006 163.589C114.006 163.997 113.668 164.329 113.251 164.329C112.836 164.329 112.498 163.997 112.498 163.589C112.498 163.18 112.836 162.848 113.251 162.848C113.668 162.848 114.006 163.18 114.006 163.589Z" fill="#FFC916"/>
<path d="M122.165 163.589C122.165 163.997 121.828 164.329 121.412 164.329C120.995 164.329 120.659 163.997 120.659 163.589C120.659 163.18 120.995 162.848 121.412 162.848C121.828 162.848 122.165 163.18 122.165 163.589Z" fill="#FFC916"/>
<path d="M130.326 163.589C130.326 163.997 129.988 164.329 129.571 164.329C129.156 164.329 128.818 163.997 128.818 163.589C128.818 163.18 129.156 162.848 129.571 162.848C129.988 162.848 130.326 163.18 130.326 163.589Z" fill="#FFC916"/>
<path d="M56.8856 169.861C56.8856 170.269 56.5477 170.6 56.1311 170.6C55.7158 170.6 55.3779 170.269 55.3779 169.861C55.3779 169.452 55.7158 169.12 56.1311 169.12C56.5477 169.12 56.8856 169.452 56.8856 169.861Z" fill="#FFC916"/>
<path d="M65.0449 169.861C65.0449 170.269 64.7082 170.6 64.2916 170.6C63.8751 170.6 63.5372 170.269 63.5372 169.861C63.5372 169.452 63.8751 169.12 64.2916 169.12C64.7082 169.12 65.0449 169.452 65.0449 169.861Z" fill="#FFC916"/>
<path d="M73.2055 169.861C73.2055 170.269 72.8676 170.6 72.451 170.6C72.0357 170.6 71.6978 170.269 71.6978 169.861C71.6978 169.452 72.0357 169.12 72.451 169.12C72.8676 169.12 73.2055 169.452 73.2055 169.861Z" fill="#FFC916"/>
<path d="M81.3648 169.861C81.3648 170.269 81.028 170.6 80.6115 170.6C80.195 170.6 79.8582 170.269 79.8582 169.861C79.8582 169.452 80.195 169.12 80.6115 169.12C81.028 169.12 81.3648 169.452 81.3648 169.861Z" fill="#FFC916"/>
<path d="M89.5253 169.861C89.5253 170.269 89.1874 170.6 88.7709 170.6C88.3555 170.6 88.0176 170.269 88.0176 169.861C88.0176 169.452 88.3555 169.12 88.7709 169.12C89.1874 169.12 89.5253 169.452 89.5253 169.861Z" fill="#FFC916"/>
<path d="M97.6858 169.861C97.6858 170.269 97.3479 170.6 96.9314 170.6C96.5148 170.6 96.1781 170.269 96.1781 169.861C96.1781 169.452 96.5148 169.12 96.9314 169.12C97.3479 169.12 97.6858 169.452 97.6858 169.861Z" fill="#FFC916"/>
<path d="M105.845 169.861C105.845 170.269 105.508 170.6 105.092 170.6C104.675 170.6 104.337 170.269 104.337 169.861C104.337 169.452 104.675 169.12 105.092 169.12C105.508 169.12 105.845 169.452 105.845 169.861Z" fill="#FFC916"/>
<path d="M114.006 169.861C114.006 170.269 113.668 170.6 113.251 170.6C112.836 170.6 112.498 170.269 112.498 169.861C112.498 169.452 112.836 169.12 113.251 169.12C113.668 169.12 114.006 169.452 114.006 169.861Z" fill="#FFC916"/>
<path d="M122.165 169.861C122.165 170.269 121.828 170.6 121.412 170.6C120.995 170.6 120.659 170.269 120.659 169.861C120.659 169.452 120.995 169.12 121.412 169.12C121.828 169.12 122.165 169.452 122.165 169.861Z" fill="#FFC916"/>
<path d="M130.326 169.861C130.326 170.269 129.988 170.6 129.571 170.6C129.156 170.6 128.818 170.269 128.818 169.861C128.818 169.452 129.156 169.12 129.571 169.12C129.988 169.12 130.326 169.452 130.326 169.861Z" fill="#FFC916"/>
<path d="M56.8856 176.132C56.8856 176.541 56.5477 176.872 56.1311 176.872C55.7158 176.872 55.3779 176.541 55.3779 176.132C55.3779 175.723 55.7158 175.391 56.1311 175.391C56.5477 175.391 56.8856 175.723 56.8856 176.132Z" fill="#FFC916"/>
<path d="M65.0449 176.132C65.0449 176.541 64.7082 176.872 64.2916 176.872C63.8751 176.872 63.5372 176.541 63.5372 176.132C63.5372 175.723 63.8751 175.391 64.2916 175.391C64.7082 175.391 65.0449 175.723 65.0449 176.132Z" fill="#FFC916"/>
<path d="M73.2055 176.132C73.2055 176.541 72.8676 176.872 72.451 176.872C72.0357 176.872 71.6978 176.541 71.6978 176.132C71.6978 175.723 72.0357 175.391 72.451 175.391C72.8676 175.391 73.2055 175.723 73.2055 176.132Z" fill="#FFC916"/>
<path d="M81.3648 176.132C81.3648 176.541 81.028 176.872 80.6115 176.872C80.195 176.872 79.8582 176.541 79.8582 176.132C79.8582 175.723 80.195 175.391 80.6115 175.391C81.028 175.391 81.3648 175.723 81.3648 176.132Z" fill="#FFC916"/>
<path d="M89.5253 176.132C89.5253 176.541 89.1874 176.872 88.7709 176.872C88.3555 176.872 88.0176 176.541 88.0176 176.132C88.0176 175.723 88.3555 175.391 88.7709 175.391C89.1874 175.391 89.5253 175.723 89.5253 176.132Z" fill="#FFC916"/>
<path d="M97.6858 176.132C97.6858 176.541 97.3479 176.872 96.9314 176.872C96.5148 176.872 96.1781 176.541 96.1781 176.132C96.1781 175.723 96.5148 175.391 96.9314 175.391C97.3479 175.391 97.6858 175.723 97.6858 176.132Z" fill="#FFC916"/>
<path d="M105.845 176.132C105.845 176.541 105.508 176.872 105.092 176.872C104.675 176.872 104.337 176.541 104.337 176.132C104.337 175.723 104.675 175.391 105.092 175.391C105.508 175.391 105.845 175.723 105.845 176.132Z" fill="#FFC916"/>
<path d="M114.006 176.132C114.006 176.541 113.668 176.872 113.251 176.872C112.836 176.872 112.498 176.541 112.498 176.132C112.498 175.723 112.836 175.391 113.251 175.391C113.668 175.391 114.006 175.723 114.006 176.132Z" fill="#FFC916"/>
<path d="M122.165 176.132C122.165 176.541 121.828 176.872 121.412 176.872C120.995 176.872 120.659 176.541 120.659 176.132C120.659 175.723 120.995 175.391 121.412 175.391C121.828 175.391 122.165 175.723 122.165 176.132Z" fill="#FFC916"/>
<path d="M130.326 176.132C130.326 176.541 129.988 176.872 129.571 176.872C129.156 176.872 128.818 176.541 128.818 176.132C128.818 175.723 129.156 175.391 129.571 175.391C129.988 175.391 130.326 175.723 130.326 176.132Z" fill="#FFC916"/>
<path d="M56.8856 182.402C56.8856 182.811 56.5477 183.143 56.1311 183.143C55.7158 183.143 55.3779 182.811 55.3779 182.402C55.3779 181.994 55.7158 181.662 56.1311 181.662C56.5477 181.662 56.8856 181.994 56.8856 182.402Z" fill="#FFC916"/>
<path d="M65.0449 182.402C65.0449 182.811 64.7082 183.143 64.2916 183.143C63.8751 183.143 63.5372 182.811 63.5372 182.402C63.5372 181.994 63.8751 181.662 64.2916 181.662C64.7082 181.662 65.0449 181.994 65.0449 182.402Z" fill="#FFC916"/>
<path d="M73.2055 182.402C73.2055 182.811 72.8676 183.143 72.451 183.143C72.0357 183.143 71.6978 182.811 71.6978 182.402C71.6978 181.994 72.0357 181.662 72.451 181.662C72.8676 181.662 73.2055 181.994 73.2055 182.402Z" fill="#FFC916"/>
<path d="M81.3648 182.402C81.3648 182.811 81.028 183.143 80.6115 183.143C80.195 183.143 79.8582 182.811 79.8582 182.402C79.8582 181.994 80.195 181.662 80.6115 181.662C81.028 181.662 81.3648 181.994 81.3648 182.402Z" fill="#FFC916"/>
<path d="M89.5253 182.402C89.5253 182.811 89.1874 183.143 88.7709 183.143C88.3555 183.143 88.0176 182.811 88.0176 182.402C88.0176 181.994 88.3555 181.662 88.7709 181.662C89.1874 181.662 89.5253 181.994 89.5253 182.402Z" fill="#FFC916"/>
<path d="M97.6858 182.402C97.6858 182.811 97.3479 183.143 96.9314 183.143C96.5148 183.143 96.1781 182.811 96.1781 182.402C96.1781 181.994 96.5148 181.662 96.9314 181.662C97.3479 181.662 97.6858 181.994 97.6858 182.402Z" fill="#FFC916"/>
<path d="M105.845 182.402C105.845 182.811 105.508 183.143 105.092 183.143C104.675 183.143 104.337 182.811 104.337 182.402C104.337 181.994 104.675 181.662 105.092 181.662C105.508 181.662 105.845 181.994 105.845 182.402Z" fill="#FFC916"/>
<path d="M114.006 182.402C114.006 182.811 113.668 183.143 113.251 183.143C112.836 183.143 112.498 182.811 112.498 182.402C112.498 181.994 112.836 181.662 113.251 181.662C113.668 181.662 114.006 181.994 114.006 182.402Z" fill="#FFC916"/>
<path d="M122.165 182.402C122.165 182.811 121.828 183.143 121.412 183.143C120.995 183.143 120.659 182.811 120.659 182.402C120.659 181.994 120.995 181.662 121.412 181.662C121.828 181.662 122.165 181.994 122.165 182.402Z" fill="#FFC916"/>
<path d="M130.326 182.402C130.326 182.811 129.988 183.143 129.571 183.143C129.156 183.143 128.818 182.811 128.818 182.402C128.818 181.994 129.156 181.662 129.571 181.662C129.988 181.662 130.326 181.994 130.326 182.402Z" fill="#FFC916"/>
<path d="M56.8856 188.675C56.8856 189.082 56.5477 189.414 56.1311 189.414C55.7158 189.414 55.3779 189.082 55.3779 188.675C55.3779 188.265 55.7158 187.934 56.1311 187.934C56.5477 187.934 56.8856 188.265 56.8856 188.675Z" fill="#FFC916"/>
<path d="M65.0449 188.675C65.0449 189.082 64.7082 189.414 64.2916 189.414C63.8751 189.414 63.5372 189.082 63.5372 188.675C63.5372 188.265 63.8751 187.934 64.2916 187.934C64.7082 187.934 65.0449 188.265 65.0449 188.675Z" fill="#FFC916"/>
<path d="M73.2055 188.675C73.2055 189.082 72.8676 189.414 72.451 189.414C72.0357 189.414 71.6978 189.082 71.6978 188.675C71.6978 188.265 72.0357 187.934 72.451 187.934C72.8676 187.934 73.2055 188.265 73.2055 188.675Z" fill="#FFC916"/>
<path d="M81.3648 188.675C81.3648 189.082 81.028 189.414 80.6115 189.414C80.195 189.414 79.8582 189.082 79.8582 188.675C79.8582 188.265 80.195 187.934 80.6115 187.934C81.028 187.934 81.3648 188.265 81.3648 188.675Z" fill="#FFC916"/>
<path d="M89.5253 188.675C89.5253 189.082 89.1874 189.414 88.7709 189.414C88.3555 189.414 88.0176 189.082 88.0176 188.675C88.0176 188.265 88.3555 187.934 88.7709 187.934C89.1874 187.934 89.5253 188.265 89.5253 188.675Z" fill="#FFC916"/>
<path d="M97.6858 188.675C97.6858 189.082 97.3479 189.414 96.9314 189.414C96.5148 189.414 96.1781 189.082 96.1781 188.675C96.1781 188.265 96.5148 187.934 96.9314 187.934C97.3479 187.934 97.6858 188.265 97.6858 188.675Z" fill="#FFC916"/>
<path d="M105.845 188.675C105.845 189.082 105.508 189.414 105.092 189.414C104.675 189.414 104.337 189.082 104.337 188.675C104.337 188.265 104.675 187.934 105.092 187.934C105.508 187.934 105.845 188.265 105.845 188.675Z" fill="#FFC916"/>
<path d="M114.006 188.675C114.006 189.082 113.668 189.414 113.251 189.414C112.836 189.414 112.498 189.082 112.498 188.675C112.498 188.265 112.836 187.934 113.251 187.934C113.668 187.934 114.006 188.265 114.006 188.675Z" fill="#FFC916"/>
<path d="M122.165 188.675C122.165 189.082 121.828 189.414 121.412 189.414C120.995 189.414 120.659 189.082 120.659 188.675C120.659 188.265 120.995 187.934 121.412 187.934C121.828 187.934 122.165 188.265 122.165 188.675Z" fill="#FFC916"/>
<path d="M130.326 188.675C130.326 189.082 129.988 189.414 129.571 189.414C129.156 189.414 128.818 189.082 128.818 188.675C128.818 188.265 129.156 187.934 129.571 187.934C129.988 187.934 130.326 188.265 130.326 188.675Z" fill="#FFC916"/>
<path d="M56.8856 194.945C56.8856 195.354 56.5477 195.686 56.1311 195.686C55.7158 195.686 55.3779 195.354 55.3779 194.945C55.3779 194.535 55.7158 194.205 56.1311 194.205C56.5477 194.205 56.8856 194.535 56.8856 194.945Z" fill="#FFC916"/>
<path d="M65.0449 194.945C65.0449 195.354 64.7082 195.686 64.2916 195.686C63.8751 195.686 63.5372 195.354 63.5372 194.945C63.5372 194.535 63.8751 194.205 64.2916 194.205C64.7082 194.205 65.0449 194.535 65.0449 194.945Z" fill="#FFC916"/>
<path d="M73.2055 194.945C73.2055 195.354 72.8676 195.686 72.451 195.686C72.0357 195.686 71.6978 195.354 71.6978 194.945C71.6978 194.535 72.0357 194.205 72.451 194.205C72.8676 194.205 73.2055 194.535 73.2055 194.945Z" fill="#FFC916"/>
<path d="M81.3648 194.945C81.3648 195.354 81.028 195.686 80.6115 195.686C80.195 195.686 79.8582 195.354 79.8582 194.945C79.8582 194.535 80.195 194.205 80.6115 194.205C81.028 194.205 81.3648 194.535 81.3648 194.945Z" fill="#FFC916"/>
<path d="M89.5253 194.945C89.5253 195.354 89.1874 195.686 88.7709 195.686C88.3555 195.686 88.0176 195.354 88.0176 194.945C88.0176 194.535 88.3555 194.205 88.7709 194.205C89.1874 194.205 89.5253 194.535 89.5253 194.945Z" fill="#FFC916"/>
<path d="M97.6858 194.945C97.6858 195.354 97.3479 195.686 96.9314 195.686C96.5148 195.686 96.1781 195.354 96.1781 194.945C96.1781 194.535 96.5148 194.205 96.9314 194.205C97.3479 194.205 97.6858 194.535 97.6858 194.945Z" fill="#FFC916"/>
<path d="M105.845 194.945C105.845 195.354 105.508 195.686 105.092 195.686C104.675 195.686 104.337 195.354 104.337 194.945C104.337 194.535 104.675 194.205 105.092 194.205C105.508 194.205 105.845 194.535 105.845 194.945Z" fill="#FFC916"/>
<path d="M114.006 194.945C114.006 195.354 113.668 195.686 113.251 195.686C112.836 195.686 112.498 195.354 112.498 194.945C112.498 194.535 112.836 194.205 113.251 194.205C113.668 194.205 114.006 194.535 114.006 194.945Z" fill="#FFC916"/>
<path d="M122.165 194.945C122.165 195.354 121.828 195.686 121.412 195.686C120.995 195.686 120.659 195.354 120.659 194.945C120.659 194.535 120.995 194.205 121.412 194.205C121.828 194.205 122.165 194.535 122.165 194.945Z" fill="#FFC916"/>
<path d="M130.326 194.945C130.326 195.354 129.988 195.686 129.571 195.686C129.156 195.686 128.818 195.354 128.818 194.945C128.818 194.535 129.156 194.205 129.571 194.205C129.988 194.205 130.326 194.535 130.326 194.945Z" fill="#FFC916"/>
<path d="M56.8856 201.216C56.8856 201.625 56.5477 201.957 56.1311 201.957C55.7158 201.957 55.3779 201.625 55.3779 201.216C55.3779 200.806 55.7158 200.476 56.1311 200.476C56.5477 200.476 56.8856 200.806 56.8856 201.216Z" fill="#FFC916"/>
<path d="M65.0449 201.216C65.0449 201.625 64.7082 201.957 64.2916 201.957C63.8751 201.957 63.5372 201.625 63.5372 201.216C63.5372 200.806 63.8751 200.476 64.2916 200.476C64.7082 200.476 65.0449 200.806 65.0449 201.216Z" fill="#FFC916"/>
<path d="M73.2055 201.216C73.2055 201.625 72.8676 201.957 72.451 201.957C72.0357 201.957 71.6978 201.625 71.6978 201.216C71.6978 200.806 72.0357 200.476 72.451 200.476C72.8676 200.476 73.2055 200.806 73.2055 201.216Z" fill="#FFC916"/>
<path d="M81.3648 201.216C81.3648 201.625 81.028 201.957 80.6115 201.957C80.195 201.957 79.8582 201.625 79.8582 201.216C79.8582 200.806 80.195 200.476 80.6115 200.476C81.028 200.476 81.3648 200.806 81.3648 201.216Z" fill="#FFC916"/>
<path d="M89.5253 201.216C89.5253 201.625 89.1874 201.957 88.7709 201.957C88.3555 201.957 88.0176 201.625 88.0176 201.216C88.0176 200.806 88.3555 200.476 88.7709 200.476C89.1874 200.476 89.5253 200.806 89.5253 201.216Z" fill="#FFC916"/>
<path d="M97.6858 201.216C97.6858 201.625 97.3479 201.957 96.9314 201.957C96.5148 201.957 96.1781 201.625 96.1781 201.216C96.1781 200.806 96.5148 200.476 96.9314 200.476C97.3479 200.476 97.6858 200.806 97.6858 201.216Z" fill="#FFC916"/>
<path d="M105.845 201.216C105.845 201.625 105.508 201.957 105.092 201.957C104.675 201.957 104.337 201.625 104.337 201.216C104.337 200.806 104.675 200.476 105.092 200.476C105.508 200.476 105.845 200.806 105.845 201.216Z" fill="#FFC916"/>
<path d="M114.006 201.216C114.006 201.625 113.668 201.957 113.251 201.957C112.836 201.957 112.498 201.625 112.498 201.216C112.498 200.806 112.836 200.476 113.251 200.476C113.668 200.476 114.006 200.806 114.006 201.216Z" fill="#FFC916"/>
<path d="M122.165 201.216C122.165 201.625 121.828 201.957 121.412 201.957C120.995 201.957 120.659 201.625 120.659 201.216C120.659 200.806 120.995 200.476 121.412 200.476C121.828 200.476 122.165 200.806 122.165 201.216Z" fill="#FFC916"/>
<path d="M130.326 201.216C130.326 201.625 129.988 201.957 129.571 201.957C129.156 201.957 128.818 201.625 128.818 201.216C128.818 200.806 129.156 200.476 129.571 200.476C129.988 200.476 130.326 200.806 130.326 201.216Z" fill="#FFC916"/>
<path d="M56.8856 207.487C56.8856 207.896 56.5477 208.228 56.1311 208.228C55.7158 208.228 55.3779 207.896 55.3779 207.487C55.3779 207.078 55.7158 206.746 56.1311 206.746C56.5477 206.746 56.8856 207.078 56.8856 207.487Z" fill="#FFC916"/>
<path d="M65.0449 207.487C65.0449 207.896 64.7082 208.228 64.2916 208.228C63.8751 208.228 63.5372 207.896 63.5372 207.487C63.5372 207.078 63.8751 206.746 64.2916 206.746C64.7082 206.746 65.0449 207.078 65.0449 207.487Z" fill="#FFC916"/>
<path d="M73.2055 207.487C73.2055 207.896 72.8676 208.228 72.451 208.228C72.0357 208.228 71.6978 207.896 71.6978 207.487C71.6978 207.078 72.0357 206.746 72.451 206.746C72.8676 206.746 73.2055 207.078 73.2055 207.487Z" fill="#FFC916"/>
<path d="M81.3648 207.487C81.3648 207.896 81.028 208.228 80.6115 208.228C80.195 208.228 79.8582 207.896 79.8582 207.487C79.8582 207.078 80.195 206.746 80.6115 206.746C81.028 206.746 81.3648 207.078 81.3648 207.487Z" fill="#FFC916"/>
<path d="M89.5253 207.487C89.5253 207.896 89.1874 208.228 88.7709 208.228C88.3555 208.228 88.0176 207.896 88.0176 207.487C88.0176 207.078 88.3555 206.746 88.7709 206.746C89.1874 206.746 89.5253 207.078 89.5253 207.487Z" fill="#FFC916"/>
<path d="M97.6858 207.487C97.6858 207.896 97.3479 208.228 96.9314 208.228C96.5148 208.228 96.1781 207.896 96.1781 207.487C96.1781 207.078 96.5148 206.746 96.9314 206.746C97.3479 206.746 97.6858 207.078 97.6858 207.487Z" fill="#FFC916"/>
<path d="M105.845 207.487C105.845 207.896 105.508 208.228 105.092 208.228C104.675 208.228 104.337 207.896 104.337 207.487C104.337 207.078 104.675 206.746 105.092 206.746C105.508 206.746 105.845 207.078 105.845 207.487Z" fill="#FFC916"/>
<path d="M114.006 207.487C114.006 207.896 113.668 208.228 113.251 208.228C112.836 208.228 112.498 207.896 112.498 207.487C112.498 207.078 112.836 206.746 113.251 206.746C113.668 206.746 114.006 207.078 114.006 207.487Z" fill="#FFC916"/>
<path d="M122.165 207.487C122.165 207.896 121.828 208.228 121.412 208.228C120.995 208.228 120.659 207.896 120.659 207.487C120.659 207.078 120.995 206.746 121.412 206.746C121.828 206.746 122.165 207.078 122.165 207.487Z" fill="#FFC916"/>
<path d="M130.326 207.487C130.326 207.896 129.988 208.228 129.571 208.228C129.156 208.228 128.818 207.896 128.818 207.487C128.818 207.078 129.156 206.746 129.571 206.746C129.988 206.746 130.326 207.078 130.326 207.487Z" fill="#FFC916"/>
<path d="M56.8856 213.758C56.8856 214.167 56.5477 214.498 56.1311 214.498C55.7158 214.498 55.3779 214.167 55.3779 213.758C55.3779 213.349 55.7158 213.017 56.1311 213.017C56.5477 213.017 56.8856 213.349 56.8856 213.758Z" fill="#FFC916"/>
<path d="M65.0449 213.758C65.0449 214.167 64.7082 214.498 64.2916 214.498C63.8751 214.498 63.5372 214.167 63.5372 213.758C63.5372 213.349 63.8751 213.017 64.2916 213.017C64.7082 213.017 65.0449 213.349 65.0449 213.758Z" fill="#FFC916"/>
<path d="M73.2055 213.758C73.2055 214.167 72.8676 214.498 72.451 214.498C72.0357 214.498 71.6978 214.167 71.6978 213.758C71.6978 213.349 72.0357 213.017 72.451 213.017C72.8676 213.017 73.2055 213.349 73.2055 213.758Z" fill="#FFC916"/>
<path d="M81.3648 213.758C81.3648 214.167 81.028 214.498 80.6115 214.498C80.195 214.498 79.8582 214.167 79.8582 213.758C79.8582 213.349 80.195 213.017 80.6115 213.017C81.028 213.017 81.3648 213.349 81.3648 213.758Z" fill="#FFC916"/>
<path d="M89.5253 213.758C89.5253 214.167 89.1874 214.498 88.7709 214.498C88.3555 214.498 88.0176 214.167 88.0176 213.758C88.0176 213.349 88.3555 213.017 88.7709 213.017C89.1874 213.017 89.5253 213.349 89.5253 213.758Z" fill="#FFC916"/>
<path d="M97.6858 213.758C97.6858 214.167 97.3479 214.498 96.9314 214.498C96.5148 214.498 96.1781 214.167 96.1781 213.758C96.1781 213.349 96.5148 213.017 96.9314 213.017C97.3479 213.017 97.6858 213.349 97.6858 213.758Z" fill="#FFC916"/>
<path d="M105.845 213.758C105.845 214.167 105.508 214.498 105.092 214.498C104.675 214.498 104.337 214.167 104.337 213.758C104.337 213.349 104.675 213.017 105.092 213.017C105.508 213.017 105.845 213.349 105.845 213.758Z" fill="#FFC916"/>
<path d="M114.006 213.758C114.006 214.167 113.668 214.498 113.251 214.498C112.836 214.498 112.498 214.167 112.498 213.758C112.498 213.349 112.836 213.017 113.251 213.017C113.668 213.017 114.006 213.349 114.006 213.758Z" fill="#FFC916"/>
<path d="M122.165 213.758C122.165 214.167 121.828 214.498 121.412 214.498C120.995 214.498 120.659 214.167 120.659 213.758C120.659 213.349 120.995 213.017 121.412 213.017C121.828 213.017 122.165 213.349 122.165 213.758Z" fill="#FFC916"/>
<path d="M130.326 213.758C130.326 214.167 129.988 214.498 129.571 214.498C129.156 214.498 128.818 214.167 128.818 213.758C128.818 213.349 129.156 213.017 129.571 213.017C129.988 213.017 130.326 213.349 130.326 213.758Z" fill="#FFC916"/>
<path d="M56.8856 220.03C56.8856 220.439 56.5477 220.769 56.1311 220.769C55.7158 220.769 55.3779 220.439 55.3779 220.03C55.3779 219.62 55.7158 219.289 56.1311 219.289C56.5477 219.289 56.8856 219.62 56.8856 220.03Z" fill="#FFC916"/>
<path d="M65.0449 220.03C65.0449 220.439 64.7082 220.769 64.2916 220.769C63.8751 220.769 63.5372 220.439 63.5372 220.03C63.5372 219.62 63.8751 219.289 64.2916 219.289C64.7082 219.289 65.0449 219.62 65.0449 220.03Z" fill="#FFC916"/>
<path d="M73.2055 220.03C73.2055 220.439 72.8676 220.769 72.451 220.769C72.0357 220.769 71.6978 220.439 71.6978 220.03C71.6978 219.62 72.0357 219.289 72.451 219.289C72.8676 219.289 73.2055 219.62 73.2055 220.03Z" fill="#FFC916"/>
<path d="M81.3648 220.03C81.3648 220.439 81.028 220.769 80.6115 220.769C80.195 220.769 79.8582 220.439 79.8582 220.03C79.8582 219.62 80.195 219.289 80.6115 219.289C81.028 219.289 81.3648 219.62 81.3648 220.03Z" fill="#FFC916"/>
<path d="M89.5253 220.03C89.5253 220.439 89.1874 220.769 88.7709 220.769C88.3555 220.769 88.0176 220.439 88.0176 220.03C88.0176 219.62 88.3555 219.289 88.7709 219.289C89.1874 219.289 89.5253 219.62 89.5253 220.03Z" fill="#FFC916"/>
<path d="M97.6858 220.03C97.6858 220.439 97.3479 220.769 96.9314 220.769C96.5148 220.769 96.1781 220.439 96.1781 220.03C96.1781 219.62 96.5148 219.289 96.9314 219.289C97.3479 219.289 97.6858 219.62 97.6858 220.03Z" fill="#FFC916"/>
<path d="M105.845 220.03C105.845 220.439 105.508 220.769 105.092 220.769C104.675 220.769 104.337 220.439 104.337 220.03C104.337 219.62 104.675 219.289 105.092 219.289C105.508 219.289 105.845 219.62 105.845 220.03Z" fill="#FFC916"/>
<path d="M114.006 220.03C114.006 220.439 113.668 220.769 113.251 220.769C112.836 220.769 112.498 220.439 112.498 220.03C112.498 219.62 112.836 219.289 113.251 219.289C113.668 219.289 114.006 219.62 114.006 220.03Z" fill="#FFC916"/>
<path d="M122.165 220.03C122.165 220.439 121.828 220.769 121.412 220.769C120.995 220.769 120.659 220.439 120.659 220.03C120.659 219.62 120.995 219.289 121.412 219.289C121.828 219.289 122.165 219.62 122.165 220.03Z" fill="#FFC916"/>
<path d="M130.326 220.03C130.326 220.439 129.988 220.769 129.571 220.769C129.156 220.769 128.818 220.439 128.818 220.03C128.818 219.62 129.156 219.289 129.571 219.289C129.988 219.289 130.326 219.62 130.326 220.03Z" fill="#FFC916"/>
<path d="M56.8856 226.3C56.8856 226.709 56.5477 227.041 56.1311 227.041C55.7158 227.041 55.3779 226.709 55.3779 226.3C55.3779 225.892 55.7158 225.56 56.1311 225.56C56.5477 225.56 56.8856 225.892 56.8856 226.3Z" fill="#FFC916"/>
<path d="M65.0449 226.3C65.0449 226.709 64.7082 227.041 64.2916 227.041C63.8751 227.041 63.5372 226.709 63.5372 226.3C63.5372 225.892 63.8751 225.56 64.2916 225.56C64.7082 225.56 65.0449 225.892 65.0449 226.3Z" fill="#FFC916"/>
<path d="M73.2055 226.3C73.2055 226.709 72.8676 227.041 72.451 227.041C72.0357 227.041 71.6978 226.709 71.6978 226.3C71.6978 225.892 72.0357 225.56 72.451 225.56C72.8676 225.56 73.2055 225.892 73.2055 226.3Z" fill="#FFC916"/>
<path d="M81.3648 226.3C81.3648 226.709 81.028 227.041 80.6115 227.041C80.195 227.041 79.8582 226.709 79.8582 226.3C79.8582 225.892 80.195 225.56 80.6115 225.56C81.028 225.56 81.3648 225.892 81.3648 226.3Z" fill="#FFC916"/>
<path d="M89.5253 226.3C89.5253 226.709 89.1874 227.041 88.7709 227.041C88.3555 227.041 88.0176 226.709 88.0176 226.3C88.0176 225.892 88.3555 225.56 88.7709 225.56C89.1874 225.56 89.5253 225.892 89.5253 226.3Z" fill="#FFC916"/>
<path d="M97.6858 226.3C97.6858 226.709 97.3479 227.041 96.9314 227.041C96.5148 227.041 96.1781 226.709 96.1781 226.3C96.1781 225.892 96.5148 225.56 96.9314 225.56C97.3479 225.56 97.6858 225.892 97.6858 226.3Z" fill="#FFC916"/>
<path d="M105.845 226.3C105.845 226.709 105.508 227.041 105.092 227.041C104.675 227.041 104.337 226.709 104.337 226.3C104.337 225.892 104.675 225.56 105.092 225.56C105.508 225.56 105.845 225.892 105.845 226.3Z" fill="#FFC916"/>
<path d="M114.006 226.3C114.006 226.709 113.668 227.041 113.251 227.041C112.836 227.041 112.498 226.709 112.498 226.3C112.498 225.892 112.836 225.56 113.251 225.56C113.668 225.56 114.006 225.892 114.006 226.3Z" fill="#FFC916"/>
<path d="M122.165 226.3C122.165 226.709 121.828 227.041 121.412 227.041C120.995 227.041 120.659 226.709 120.659 226.3C120.659 225.892 120.995 225.56 121.412 225.56C121.828 225.56 122.165 225.892 122.165 226.3Z" fill="#FFC916"/>
<path d="M130.326 226.3C130.326 226.709 129.988 227.041 129.571 227.041C129.156 227.041 128.818 226.709 128.818 226.3C128.818 225.892 129.156 225.56 129.571 225.56C129.988 225.56 130.326 225.892 130.326 226.3Z" fill="#FFC916"/>
</g>
<path d="M92.97 73.9051C92.9815 73.7152 92.9884 73.5253 92.9884 73.3331C92.9884 68.2599 88.8053 64.1477 83.6465 64.1477C83.0473 64.1477 82.4607 64.2034 81.8938 64.3092C81.3269 57.5188 75.5423 52.1795 68.4888 52.1795C61.4572 52.1795 55.6888 57.4824 55.0895 64.2432C50.5658 64.8835 47.0904 68.7091 47.0904 73.3331C47.0904 73.5253 47.0973 73.7152 47.1089 73.9051H92.97Z" fill="#FF4702"/>
<path d="M93.687 79.2159H100.071H93.687Z" fill="#D3D7DE"/>
<path d="M93.687 79.2159H100.071" stroke="#D3D7DE" stroke-width="0.5"/>
<path d="M64.0908 79.2158H89.0443H64.0908Z" fill="#D3D7DE"/>
<path d="M64.0908 79.2158H89.0443" stroke="#D3D7DE" stroke-width="0.5"/>
<path d="M333.579 215.778H110.821C105.507 215.778 101.2 211.48 101.2 206.177V74.3129C101.2 69.0095 105.507 64.7114 110.821 64.7114H333.579C338.892 64.7114 343.2 69.0095 343.2 74.3129V206.177C343.2 211.48 338.892 215.778 333.579 215.778Z" fill="white" stroke="#E1E1E1"/>
<path d="M325.411 127.6H274.309C272.816 127.6 271.606 126.114 271.606 124.28V115.426C271.606 113.592 272.816 112.106 274.309 112.106H325.411C326.904 112.106 328.114 113.592 328.114 115.426V124.28C328.114 126.114 326.904 127.6 325.411 127.6" stroke="#F7F7F7"/>
<path d="M325.411 144.917H274.309C272.816 144.917 271.606 143.955 271.606 142.769V137.04C271.606 135.853 272.816 134.891 274.309 134.891H325.411C326.904 134.891 328.114 135.853 328.114 137.04V142.769C328.114 143.955 326.904 144.917 325.411 144.917" stroke="#F7F7F7"/>
<path d="M325.411 185.931H274.309C272.816 185.931 271.606 182.784 271.606 178.901V160.152C271.606 156.268 272.816 153.12 274.309 153.12H325.411C326.904 153.12 328.114 156.268 328.114 160.152V178.901C328.114 182.784 326.904 185.931 325.411 185.931" stroke="#F7F7F7"/>
<path d="M235.149 126.689C235.149 135.246 228.416 142.183 220.11 142.183C211.804 142.183 205.071 135.246 205.071 126.689C205.071 118.131 211.804 111.194 220.11 111.194C228.416 111.194 235.149 118.131 235.149 126.689Z" fill="#F2F3F4"/>
<path fill-rule="evenodd" clip-rule="evenodd" d="M218.028 110.421C218.71 110.33 219.405 110.283 220.11 110.283C220.815 110.283 221.51 110.33 222.192 110.421C222.693 110.489 223.046 110.961 222.981 111.476C222.915 111.991 222.456 112.354 221.955 112.287C221.352 112.206 220.736 112.164 220.11 112.164C219.484 112.164 218.868 112.206 218.264 112.287C217.764 112.354 217.305 111.991 217.239 111.476C217.174 110.961 217.527 110.489 218.028 110.421ZM225.021 112.037C225.214 111.557 225.749 111.329 226.216 111.528C227.513 112.081 228.723 112.805 229.821 113.673C230.221 113.989 230.296 114.58 229.988 114.992C229.681 115.404 229.107 115.481 228.706 115.164C227.734 114.396 226.663 113.755 225.515 113.266C225.049 113.067 224.827 112.516 225.021 112.037ZM215.199 112.037C215.393 112.516 215.171 113.067 214.705 113.266C213.557 113.755 212.486 114.396 211.514 115.164C211.113 115.481 210.539 115.404 210.231 114.992C209.924 114.58 209.999 113.989 210.399 113.673C211.497 112.805 212.707 112.081 214.004 111.528C214.471 111.329 215.006 111.557 215.199 112.037ZM208.738 116.528C209.138 116.844 209.214 117.435 208.906 117.847C208.159 118.847 207.536 119.949 207.06 121.129C206.867 121.609 206.332 121.837 205.865 121.638C205.399 121.439 205.177 120.888 205.371 120.408C205.909 119.074 206.612 117.829 207.456 116.701C207.763 116.289 208.338 116.211 208.738 116.528ZM231.482 116.528C231.882 116.211 232.457 116.289 232.764 116.701C233.607 117.829 234.311 119.074 234.849 120.408C235.043 120.888 234.821 121.439 234.355 121.638C233.888 121.837 233.353 121.609 233.16 121.129C232.684 119.949 232.061 118.847 231.314 117.847C231.006 117.435 231.082 116.844 231.482 116.528ZM234.9 123.736C235.401 123.669 235.86 124.032 235.925 124.547C236.014 125.248 236.06 125.963 236.06 126.689C236.06 127.414 236.014 128.129 235.925 128.83C235.86 129.345 235.401 129.708 234.9 129.641C234.399 129.574 234.046 129.102 234.112 128.587C234.19 127.966 234.231 127.332 234.231 126.689C234.231 126.045 234.19 125.411 234.112 124.79C234.046 124.275 234.399 123.803 234.9 123.736ZM205.32 123.736C205.821 123.803 206.174 124.275 206.108 124.79C206.03 125.411 205.989 126.045 205.989 126.689C205.989 127.332 206.03 127.966 206.108 128.587C206.174 129.102 205.821 129.574 205.32 129.641C204.819 129.708 204.36 129.345 204.295 128.83C204.206 128.129 204.16 127.414 204.16 126.689C204.16 125.963 204.206 125.248 204.295 124.547C204.36 124.032 204.819 123.669 205.32 123.736ZM234.355 131.74C234.821 131.939 235.043 132.489 234.849 132.969C234.311 134.303 233.607 135.548 232.764 136.677C232.457 137.089 231.882 137.166 231.482 136.849C231.082 136.533 231.006 135.942 231.314 135.53C232.061 134.531 232.684 133.428 233.16 132.248C233.353 131.768 233.888 131.541 234.355 131.74ZM205.865 131.74C206.332 131.541 206.867 131.768 207.06 132.248C207.536 133.428 208.159 134.531 208.906 135.53C209.214 135.942 209.138 136.533 208.738 136.849C208.338 137.166 207.763 137.089 207.456 136.677C206.612 135.548 205.909 134.303 205.371 132.969C205.177 132.489 205.399 131.939 205.865 131.74ZM210.231 138.385C210.539 137.974 211.113 137.896 211.514 138.213C212.486 138.981 213.557 139.622 214.705 140.111C215.171 140.31 215.393 140.861 215.199 141.341C215.006 141.82 214.471 142.048 214.004 141.849C212.707 141.296 211.497 140.572 210.399 139.704C209.999 139.388 209.924 138.797 210.231 138.385ZM229.988 138.385C230.296 138.797 230.221 139.388 229.821 139.704C228.723 140.572 227.513 141.296 226.216 141.849C225.749 142.048 225.214 141.82 225.021 141.341C224.827 140.861 225.049 140.31 225.515 140.111C226.663 139.622 227.734 138.981 228.706 138.213C229.107 137.896 229.681 137.974 229.988 138.385ZM217.239 141.901C217.305 141.386 217.764 141.023 218.264 141.09C218.868 141.171 219.484 141.213 220.11 141.213C220.736 141.213 221.352 141.171 221.955 141.09C222.456 141.023 222.915 141.386 222.981 141.901C223.046 142.416 222.693 142.888 222.192 142.956C221.51 143.047 220.815 143.094 220.11 143.094C219.405 143.094 218.71 143.047 218.028 142.956C217.527 142.888 217.174 142.416 217.239 141.901Z" fill="#979797"/>
<path d="M195.046 160.198V169.797C195.046 170.895 195.046 171.444 195.34 171.959C195.634 172.475 196.055 172.727 196.899 173.23C199.778 174.949 204.028 176.927 205.355 177.254C210.675 178.566 219.543 178.785 223.977 178.566C232.179 177.473 238.949 174.634 242.519 172.705C243.327 172.268 243.732 172.05 243.997 171.607C244.263 171.164 244.263 170.664 244.263 169.664V167.414C243.997 157.967 240.161 152.981 238.277 151.669C234.286 147.471 223.534 146.64 218.657 146.749C200.3 147.799 195.267 156.152 195.046 160.198Z" fill="#F2F3F4"/>
<path fill-rule="evenodd" clip-rule="evenodd" d="M218.696 147.711C219.412 147.696 220.261 147.701 221.203 147.735C221.725 147.754 222.164 147.35 222.183 146.833C222.202 146.316 221.794 145.881 221.272 145.862C220.29 145.826 219.396 145.821 218.637 145.838L218.62 145.838L218.604 145.839C217.748 145.888 216.92 145.953 216.119 146.032C215.599 146.083 215.22 146.543 215.272 147.058C215.324 147.573 215.787 147.949 216.307 147.897C217.076 147.821 217.872 147.759 218.696 147.711ZM225.443 147.107C225.513 146.594 225.989 146.234 226.507 146.303C228.228 146.533 230.005 146.862 231.693 147.319C232.197 147.456 232.493 147.972 232.355 148.471C232.217 148.97 231.697 149.264 231.193 149.127C229.605 148.697 227.913 148.383 226.254 148.161C225.736 148.091 225.373 147.62 225.443 147.107ZM212.31 147.491C212.415 147.998 212.085 148.493 211.573 148.597C209.875 148.94 208.35 149.359 206.984 149.834C206.491 150.005 205.951 149.748 205.778 149.259C205.605 148.771 205.865 148.236 206.358 148.065C207.811 147.56 209.418 147.119 211.194 146.76C211.706 146.657 212.206 146.984 212.31 147.491ZM235.408 149.645C235.675 149.2 236.255 149.052 236.704 149.316C237.518 149.794 238.257 150.344 238.874 150.978C239.38 151.344 239.952 151.89 240.536 152.606C240.865 153.009 240.802 153.599 240.395 153.924C239.989 154.25 239.393 154.187 239.065 153.784C238.529 153.128 238.052 152.695 237.707 152.455L237.628 152.4L237.562 152.33C237.08 151.823 236.467 151.356 235.74 150.929C235.29 150.665 235.142 150.09 235.408 149.645ZM203.049 150.476C203.311 150.923 203.157 151.497 202.705 151.756C201.18 152.632 199.973 153.58 199.029 154.529C198.663 154.898 198.064 154.902 197.691 154.539C197.319 154.176 197.314 153.583 197.681 153.214C198.75 152.138 200.093 151.09 201.756 150.135C202.208 149.875 202.787 150.028 203.049 150.476ZM241.644 156.041C242.121 155.831 242.68 156.044 242.892 156.518C243.439 157.739 243.936 159.155 244.327 160.772C244.448 161.275 244.135 161.781 243.627 161.901C243.119 162.022 242.608 161.711 242.487 161.208C242.122 159.7 241.662 158.393 241.163 157.278C240.951 156.804 241.166 156.251 241.644 156.041ZM195.988 156.99C196.474 157.182 196.71 157.727 196.517 158.208C196.207 158.979 196.06 159.67 196.026 160.231V162.601C196.026 163.118 195.603 163.538 195.08 163.538C194.558 163.538 194.134 163.118 194.134 162.601V160.179L194.136 160.153C194.179 159.362 194.378 158.462 194.759 157.514C194.953 157.033 195.503 156.798 195.988 156.99ZM244.016 164.317C244.536 164.271 244.996 164.651 245.043 165.167C245.108 165.878 245.152 166.617 245.174 167.384L245.174 167.397V167.972C245.174 168.183 245.104 168.377 244.986 168.534C245.104 168.69 245.174 168.885 245.174 169.095V169.657C245.174 169.837 245.174 170.006 245.173 170.162C245.171 170.368 245.102 170.557 244.987 170.71C245.086 170.9 245.119 171.124 245.067 171.349C245.008 171.602 244.917 171.842 244.777 172.076C244.647 172.292 244.494 172.477 244.314 172.642C244.151 172.793 243.948 172.875 243.742 172.89C243.66 173.052 243.53 173.193 243.359 173.288C243.229 173.36 243.088 173.437 242.939 173.517C242.293 173.866 241.547 174.243 240.712 174.633C240.24 174.853 239.676 174.652 239.453 174.184C239.231 173.716 239.433 173.157 239.906 172.937C240.709 172.562 241.421 172.202 242.033 171.871C242.185 171.79 242.315 171.719 242.433 171.654C242.557 171.585 242.691 171.546 242.824 171.536C242.873 171.439 242.941 171.348 243.026 171.269C243.079 171.221 243.116 171.175 243.15 171.119C243.18 171.068 243.204 171.012 243.224 170.928C243.254 170.798 243.31 170.681 243.385 170.581C243.317 170.45 243.279 170.301 243.281 170.143C243.282 169.998 243.282 169.839 243.282 169.657V169.095C243.282 168.885 243.352 168.69 243.471 168.534C243.352 168.377 243.282 168.183 243.282 167.972V167.423C243.262 166.7 243.219 166.004 243.158 165.335C243.111 164.82 243.495 164.364 244.016 164.317ZM195.08 166.456C195.603 166.456 196.026 166.876 196.026 167.393V169.79C196.026 169.992 196.026 170.17 196.028 170.331C196.03 170.512 195.98 170.681 195.892 170.826C195.989 170.937 196.06 171.072 196.096 171.225C196.121 171.329 196.153 171.41 196.198 171.488C196.245 171.572 196.296 171.638 196.357 171.7C196.45 171.795 196.519 171.905 196.563 172.021C196.711 172.031 196.859 172.077 196.993 172.159C197.119 172.236 197.258 172.32 197.419 172.416C198.033 172.782 198.714 173.163 199.419 173.538C199.88 173.783 200.053 174.351 199.806 174.807C199.559 175.263 198.985 175.434 198.525 175.189C197.798 174.803 197.088 174.407 196.442 174.021L196.439 174.019C196.282 173.925 196.133 173.836 195.996 173.752C195.812 173.639 195.681 173.474 195.61 173.288C195.387 173.272 195.168 173.178 195 173.006C194.825 172.828 194.677 172.634 194.55 172.41C194.41 172.165 194.316 171.915 194.253 171.649C194.195 171.402 194.242 171.154 194.365 170.952C194.225 170.791 194.139 170.581 194.136 170.351C194.134 170.179 194.134 169.992 194.134 169.793V167.393C194.134 166.876 194.558 166.456 195.08 166.456ZM236.689 175.318C236.868 175.804 236.615 176.342 236.124 176.519C234.672 177.043 233.088 177.55 231.393 178.006C230.889 178.142 230.369 177.847 230.232 177.348C230.095 176.848 230.393 176.333 230.897 176.198C232.537 175.756 234.071 175.265 235.476 174.758C235.967 174.581 236.51 174.832 236.689 175.318ZM202.319 176.032C202.53 175.558 203.088 175.343 203.566 175.551C204.522 175.968 205.241 176.238 205.603 176.327C206.282 176.494 207.026 176.645 207.821 176.779C208.336 176.866 208.682 177.35 208.594 177.86C208.507 178.37 208.018 178.713 207.503 178.626C206.672 178.486 205.88 178.327 205.146 178.146C204.609 178.014 203.757 177.682 202.804 177.267C202.326 177.059 202.109 176.506 202.319 176.032ZM227.315 178.003C227.408 178.512 227.066 179 226.552 179.092C225.75 179.236 224.931 179.364 224.097 179.476L224.058 179.481L224.018 179.483C223.322 179.517 222.522 179.541 221.648 179.551C221.126 179.558 220.697 179.143 220.69 178.626C220.684 178.108 221.102 177.683 221.625 177.677C222.462 177.667 223.225 177.645 223.885 177.613C224.675 177.507 225.453 177.384 226.215 177.247C226.729 177.155 227.222 177.493 227.315 178.003ZM211.357 178.192C211.402 177.676 211.861 177.295 212.382 177.34C213.918 177.473 215.488 177.563 216.998 177.618C217.52 177.637 217.928 178.071 217.909 178.588C217.89 179.106 217.451 179.51 216.929 179.491C215.392 179.436 213.79 179.344 212.216 179.207C211.696 179.162 211.311 178.707 211.357 178.192Z" fill="#979797"/>
<path d="M343.2 85.0667H101.2V73.5181C101.2 67.7451 105.506 63.0667 110.819 63.0667H333.58C338.893 63.0667 343.2 67.7451 343.2 73.5181V85.0667Z" fill="#293A5E"/>
<circle cx="302.867" cy="75.5334" r="2.2" fill="#F9F9F9"/>
<circle cx="317.533" cy="75.5334" r="2.2" fill="#F9F9F9"/>
<circle cx="330.733" cy="75.5334" r="2.2" fill="#F9F9F9"/>
<rect x="116.663" y="109.371" width="50.1652" height="3.67747" fill="#F7F7F7"/>
<rect x="116.664" y="117.955" width="39.1536" height="3.67747" fill="#F7F7F7"/>
<rect x="116.664" y="126.538" width="46.4943" height="3.67747" fill="#F7F7F7"/>
<rect x="116.663" y="163.32" width="50.1652" height="3.67747" fill="#F7F7F7"/>
<rect x="116.664" y="173.13" width="39.1536" height="3.67747" fill="#F7F7F7"/>
<rect x="116.664" y="181.713" width="46.4943" height="3.67747" fill="#F7F7F7"/>
<path fill-rule="evenodd" clip-rule="evenodd" d="M328.387 155.091C330.128 152.17 333.254 150.386 336.625 150.386C339.997 150.386 343.123 152.17 344.863 155.091C352.809 168.417 364.793 188.52 372.92 202.151C374.712 205.156 374.764 208.903 373.058 211.957C371.352 215.012 368.152 216.901 364.682 216.901C348.609 216.901 324.641 216.901 308.568 216.901C305.099 216.901 301.898 215.012 300.192 211.957C298.486 208.903 298.539 205.156 300.33 202.151C308.457 188.52 320.441 168.417 328.387 155.091Z" fill="#FF4702"/>
<path fill-rule="evenodd" clip-rule="evenodd" d="M331.978 157.41C332.96 155.763 334.723 154.756 336.625 154.756C338.527 154.756 340.29 155.763 341.272 157.41C348.374 169.322 361.869 191.957 369.153 204.175C370.164 205.87 370.193 207.983 369.231 209.707C368.268 211.43 366.463 212.495 364.506 212.495C350.118 212.495 323.132 212.495 308.744 212.495C306.787 212.495 304.982 211.43 304.02 209.707C303.057 207.983 303.087 205.87 304.098 204.175C311.382 191.957 324.876 169.322 331.978 157.41Z" fill="white" stroke="#FFAC8D" stroke-width="0.5"/>
<path fill-rule="evenodd" clip-rule="evenodd" d="M338.561 194.582H333.878L333.056 176.12H339.383L338.561 194.582ZM336.229 203.335C334.07 203.335 332.445 201.806 332.445 199.838C332.445 197.869 334.07 196.34 336.229 196.34C338.37 196.34 339.994 197.869 339.994 199.838C339.994 201.806 338.37 203.335 336.229 203.335Z" fill="white"/>
<path fill-rule="evenodd" clip-rule="evenodd" d="M338.561 194.582H333.878L333.056 176.12H339.383L338.561 194.582ZM336.229 203.335C334.07 203.335 332.445 201.806 332.445 199.838C332.445 197.869 334.07 196.34 336.229 196.34C338.37 196.34 339.994 197.869 339.994 199.838C339.994 201.806 338.37 203.335 336.229 203.335Z" fill="#FF4702"/>
</svg>
