<?xml version="1.0" encoding="UTF-8"?>
<svg width="152px" height="32px" viewBox="0 0 152 32" version="1.1" xmlns="http://www.w3.org/2000/svg" xmlns:xlink="http://www.w3.org/1999/xlink">
    <!-- Generator: Sketch 59.1 (86144) - https://sketch.com -->
    <title>BoldReport logo</title>
    <desc>Created with Sketch.</desc>
    <g id="BoldReport-logo" stroke="none" stroke-width="1" fill="none" fill-rule="evenodd">
        <g id="BR_logo-documentation" transform="translate(1.000000, 4.000000)" fill-rule="nonzero">
            <path d="M15.9196617,0.518931386 L10.2748414,0.680376706 C9.62329425,0.697674419 9.00634249,0.939842399 8.52200653,1.36651932 C6.70574668,2.9579089 2.11032097,7.24197578 0.415145109,12.7887757 C-0.703440323,16.4501249 2.19104363,20.1172401 6.07149721,20.1172401 L19.4945224,20.1172401 C19.817413,20.1172401 19.9615606,19.7251586 19.7193927,19.517586 C18.1683644,18.1971939 16.3290409,15.8389391 21.6509706,10.4939458 C27.8608495,4.26100327 22.4524313,0.392081491 15.9196617,0.518931386 Z M13.6248318,13.4403229 C13.5960023,13.5268115 13.5095137,13.5787046 13.4172593,13.5787046 L6.17528349,13.5787046 C5.69671343,13.5787046 5.36229099,13.1116663 5.52373631,12.6676917 C5.71401115,12.1545262 6.01383817,11.508745 6.44628099,10.8860273 L14.9798193,10.8860273 C14.3225062,11.6932539 13.9246589,12.6273304 13.6248318,13.4403229 Z M18.2433212,6.63655583 C18.0011532,7.07476456 17.6551989,7.530271 17.2977129,7.95118201 L8.32596579,7.95118201 C8.86219489,7.10359408 9.67518739,6.16375168 10.3670959,5.52950221 C10.5573707,5.35652508 10.7995387,5.25850471 11.0590044,5.25850471 L16.4674226,5.25850471 C18.1395349,5.25850471 18.5835095,6.01383817 18.2433212,6.63655583 Z" id="Shape" fill="#FF4800"></path>
            <g id="Group" transform="translate(30.559293, 4.036133)" fill="#283A5E">
                <path d="M0.541995003,14.1437632 L0.541995003,0.720738036 L5.73707476,0.720738036 C8.23947722,0.720738036 9.79627138,2.17951182 9.79627138,4.35325774 C9.79627138,5.6505862 9.12742648,6.64808764 8.13569095,7.06899865 C9.46761484,7.43225062 10.4766481,8.60272919 10.4766481,10.2229483 C10.4766481,12.5062464 8.81030175,14.1437632 6.35402652,14.1437632 L0.541995003,14.1437632 Z M5.50067269,3.26926773 L3.62098789,3.26926773 L3.62098789,6.0484336 L5.50067269,6.0484336 C6.28483567,6.0484336 6.84412839,5.55256583 6.84412839,4.65885066 C6.84412839,3.7709014 6.29060158,3.26926773 5.50067269,3.26926773 Z M5.89275418,8.50470882 L3.62098789,8.50470882 L3.62098789,11.5952335 L5.89275418,11.5952335 C6.73457621,11.5952335 7.32846435,10.9840477 7.32846435,10.0499712 C7.33423025,9.11012877 6.74034211,8.50470882 5.89275418,8.50470882 Z" id="Shape"></path>
                <path d="M17.3380742,3.97847396 C20.5150874,3.97847396 22.9021718,6.26177205 22.9021718,9.17355372 C22.9021718,12.0911013 20.5150874,14.3686335 17.3380742,14.3686335 C14.1610609,14.3686335 11.7739766,12.0853354 11.7739766,9.17355372 C11.7797425,6.26177205 14.1668268,3.97847396 17.3380742,3.97847396 Z M17.3380742,11.6701903 C18.7680185,11.6701903 19.8404766,10.5977321 19.8404766,9.17931962 C19.8404766,7.76667307 18.7680185,6.68844897 17.3380742,6.68844897 C15.9081299,6.68844897 14.8356717,7.77243898 14.8356717,9.17931962 C14.8356717,10.5977321 15.9138958,11.6701903 17.3380742,11.6701903 Z" id="Shape"></path>
                <polygon id="Path" points="24.6896022 0.144147607 27.768595 0.144147607 27.768595 14.1437632 24.6896022 14.1437632"></polygon>
                <path d="M34.2494715,3.97847396 C35.5525658,3.97847396 36.625024,4.47434173 37.4034211,5.30463194 L37.4034211,0.144147607 L40.4362868,0.144147607 L40.4362868,14.1437632 L37.4034211,14.1437632 L37.4034211,13.0482414 C36.625024,13.8727657 35.5525658,14.3743994 34.2494715,14.3743994 C31.5164328,14.3743994 29.579089,12.0911013 29.579089,9.17931962 C29.579089,6.26177205 31.5164328,3.97847396 34.2494715,3.97847396 Z M35.0105708,11.6701903 C36.3540265,11.6701903 37.409187,10.5977321 37.409187,9.17931962 C37.409187,7.76667307 36.3540265,6.68844897 35.0105708,6.68844897 C33.6786469,6.68844897 32.6407842,7.77243898 32.6407842,9.17931962 C32.6407842,10.5977321 33.672881,11.6701903 35.0105708,11.6701903 Z" id="Shape"></path>
                <path d="M51.506823,0.720738036 C54.3148184,0.720738036 56.2463963,2.48510475 56.2463963,5.09129348 C56.2463963,6.98827599 55.2373631,8.42975207 53.5825485,9.04093792 L56.6038824,14.1437632 L53.1616375,14.1437632 L50.4862579,9.46184893 L49.6905631,9.46184893 L49.6905631,14.1437632 L46.5423794,14.1437632 L46.5423794,0.720738036 L51.506823,0.720738036 Z M49.6847972,3.25197002 L49.6847972,7.08053046 L51.1781664,7.08053046 C52.3890063,7.08053046 53.0982126,6.30213338 53.0982126,5.17201614 C53.0982126,4.01883529 52.3890063,3.25197002 51.1781664,3.25197002 L49.6847972,3.25197002 Z" id="Shape"></path>
                <path d="M63.25197,12.0565059 C64.5665962,12.0565059 65.5467999,11.6644244 66.4635787,10.845666 L67.7666731,12.3044397 C66.6826831,13.5152796 65.2527388,14.3743994 63.2116087,14.3743994 C59.7808956,14.3743994 57.4860657,12.0911013 57.4860657,9.17931962 C57.4860657,6.26177205 59.8327888,3.98423986 62.9348453,3.98423986 C65.9734768,3.98423986 68.1875841,6.22717663 68.1875841,9.0178743 C68.1875841,9.35229675 68.129925,9.74437824 68.0434365,10.0326735 L60.5708245,10.0326735 C60.7956948,11.2896406 61.7758985,12.0565059 63.25197,12.0565059 Z M60.6227177,8.08379781 L65.0509322,8.08379781 C64.8087642,6.98827599 64.036133,6.30213338 62.894484,6.30213338 C61.7758985,6.30213338 60.9225447,6.97097828 60.6227177,8.08379781 Z" id="Shape"></path>
                <path d="M76.1560638,14.3743994 C74.8529694,14.3743994 73.7689794,13.8785316 73.0021142,13.0482414 L73.0021142,18.5892754 L69.9692485,18.5892754 L69.9692485,4.20911013 L73.0021142,4.20911013 L73.0021142,5.30463194 C73.7689794,4.48010763 74.8529694,3.97847396 76.1560638,3.97847396 C78.8775706,3.97847396 80.8264463,6.26177205 80.8264463,9.17355372 C80.8264463,12.0911013 78.8775706,14.3743994 76.1560638,14.3743994 Z M75.3891985,6.68268307 C74.0572746,6.68268307 73.0021142,7.76667307 73.0021142,9.17355372 C73.0021142,10.5919662 74.0572746,11.6644244 75.3891985,11.6644244 C76.7211224,11.6644244 77.7647511,10.5919662 77.7647511,9.17355372 C77.7647511,7.76667307 76.7211224,6.68268307 75.3891985,6.68268307 Z" id="Shape"></path>
                <path d="M87.5552566,3.97847396 C90.7322698,3.97847396 93.1193542,6.26177205 93.1193542,9.17355372 C93.1193542,12.0911013 90.7322698,14.3686335 87.5552566,14.3686335 C84.3782433,14.3686335 81.9911589,12.0853354 81.9911589,9.17355372 C81.9911589,6.26177205 84.3782433,3.97847396 87.5552566,3.97847396 Z M87.5552566,11.6701903 C88.9852008,11.6701903 90.057659,10.5977321 90.057659,9.17931962 C90.057659,7.76667307 88.9852008,6.68844897 87.5552566,6.68844897 C86.1253123,6.68844897 85.0527855,7.77243898 85.0527855,9.17931962 C85.0470882,10.5977321 86.1253123,11.6701903 87.5552566,11.6701903 Z" id="Shape"></path>
                <path d="M97.9742456,8.8737267 L97.9742456,14.1495291 L94.8952527,14.1495291 L94.8952527,4.20911013 L97.9742456,4.20911013 L97.9742456,5.33346146 C98.6084951,4.50893715 99.4791466,3.97847396 100.603498,3.97847396 C100.880261,3.97847396 101.151259,4.04766481 101.341534,4.13415337 L101.122429,6.90755333 C100.736114,6.77493754 100.297905,6.68844897 99.9115895,6.68844897 C98.8737267,6.68268307 97.9742456,7.48414376 97.9742456,8.8737267 Z" id="Path"></path>
                <path d="M106.669229,10.5516048 C106.669229,11.3472996 107.032481,11.7105516 107.943494,11.7105516 C108.272151,11.7105516 108.669998,11.6932539 108.952527,11.6528926 L108.952527,13.9246589 C108.45666,14.2244859 107.753219,14.3743994 107.003652,14.3743994 C104.881799,14.3743994 103.578705,13.0886027 103.578705,10.8629637 L103.578705,6.87295791 L101.946954,6.87295791 L101.946954,4.20911013 L103.578705,4.20911013 L103.578705,1.79319623 L106.669229,1.33192389 L106.669229,4.20911013 L108.837209,4.20911013 L108.837209,6.87295791 L106.669229,6.87295791 L106.669229,10.5516048 Z" id="Path"></path>
                <path d="M111.264655,10.9321545 C112.048818,11.6586585 112.896406,12.0334422 113.842014,12.0334422 C114.608879,12.0334422 115.052854,11.7278493 115.052854,11.2377475 C115.052854,10.7476456 114.666539,10.4420527 113.530655,10.1998847 C111.437632,9.75591005 110.319047,8.62002691 110.319047,6.95944647 C110.319047,5.23544109 111.823948,3.97847396 114.00346,3.97847396 C116.361714,3.97847396 117.676341,5.33346146 117.947338,7.21891217 L115.28349,7.21891217 C115.168172,6.65385355 114.776091,6.3194311 114.182203,6.3194311 C113.634442,6.3194311 113.230828,6.57889679 113.230828,6.9998078 C113.230828,7.44378243 113.605612,7.78397079 114.689602,8.01460696 C116.961368,8.49317701 118.033827,9.59446473 118.033827,11.2550452 C118.033827,13.0367096 116.471267,14.3743994 114.032289,14.3743994 C112.556218,14.3743994 111.23006,13.6536613 110.14607,12.2756102 L111.264655,10.9321545 Z" id="Path"></path>
            </g>
        </g>
    </g>
</svg>