<?xml version="1.0" encoding="UTF-8"?>
<svg width="472px" height="274px" viewBox="0 0 472 274" version="1.1" xmlns="http://www.w3.org/2000/svg" xmlns:xlink="http://www.w3.org/1999/xlink">
    <title>Let's Configure your site-CH@3x</title>
    <g id="Let's-Configure-your-site-CH" stroke="none" stroke-width="1" fill="none" fill-rule="evenodd">
        <g id="Group" opacity="0.1" transform="translate(360.608773, 32.405497)" fill="#FB043D" fill-rule="nonzero">
            <ellipse id="Oval" cx="109.571473" cy="198.870889" rx="1.11093871" ry="1.11"></ellipse>
            <ellipse id="Oval" cx="97.5321892" cy="198.870889" rx="1.11093871" ry="1.11"></ellipse>
            <ellipse id="Oval" cx="85.4846761" cy="198.870889" rx="1.11093871" ry="1.11"></ellipse>
            <ellipse id="Oval" cx="73.4453922" cy="198.870889" rx="1.11093871" ry="1.11"></ellipse>
            <ellipse id="Oval" cx="61.4061083" cy="198.870889" rx="1.11093871" ry="1.11"></ellipse>
            <ellipse id="Oval" cx="49.3585952" cy="198.870889" rx="1.11093871" ry="1.11"></ellipse>
            <ellipse id="Oval" cx="37.3193113" cy="198.870889" rx="1.11093871" ry="1.11"></ellipse>
            <ellipse id="Oval" cx="25.2800274" cy="198.870889" rx="1.11093871" ry="1.11"></ellipse>
            <ellipse id="Oval" cx="13.2325144" cy="198.870889" rx="1.11093871" ry="1.11"></ellipse>
            <ellipse id="Oval" cx="1.19323046" cy="198.870889" rx="1.11093871" ry="1.11"></ellipse>
            <ellipse id="Oval" cx="109.571473" cy="189.456444" rx="1.11093871" ry="1.11"></ellipse>
            <ellipse id="Oval" cx="97.5321892" cy="189.456444" rx="1.11093871" ry="1.11"></ellipse>
            <ellipse id="Oval" cx="85.4846761" cy="189.456444" rx="1.11093871" ry="1.11"></ellipse>
            <ellipse id="Oval" cx="73.4453922" cy="189.456444" rx="1.11093871" ry="1.11"></ellipse>
            <ellipse id="Oval" cx="61.4061083" cy="189.456444" rx="1.11093871" ry="1.11"></ellipse>
            <ellipse id="Oval" cx="49.3585952" cy="189.456444" rx="1.11093871" ry="1.11"></ellipse>
            <ellipse id="Oval" cx="37.3193113" cy="189.456444" rx="1.11093871" ry="1.11"></ellipse>
            <ellipse id="Oval" cx="25.2800274" cy="189.456444" rx="1.11093871" ry="1.11"></ellipse>
            <ellipse id="Oval" cx="13.2325144" cy="189.456444" rx="1.11093871" ry="1.11"></ellipse>
            <ellipse id="Oval" cx="1.19323046" cy="189.456444" rx="1.11093871" ry="1.11"></ellipse>
            <ellipse id="Oval" cx="109.571473" cy="180.042" rx="1.11093871" ry="1.11"></ellipse>
            <ellipse id="Oval" cx="97.5321892" cy="180.042" rx="1.11093871" ry="1.11"></ellipse>
            <ellipse id="Oval" cx="85.4846761" cy="180.042" rx="1.11093871" ry="1.11"></ellipse>
            <ellipse id="Oval" cx="73.4453922" cy="180.042" rx="1.11093871" ry="1.11"></ellipse>
            <ellipse id="Oval" cx="61.4061083" cy="180.042" rx="1.11093871" ry="1.11"></ellipse>
            <ellipse id="Oval" cx="49.3585952" cy="180.042" rx="1.11093871" ry="1.11"></ellipse>
            <ellipse id="Oval" cx="37.3193113" cy="180.042" rx="1.11093871" ry="1.11"></ellipse>
            <ellipse id="Oval" cx="25.2800274" cy="180.042" rx="1.11093871" ry="1.11"></ellipse>
            <ellipse id="Oval" cx="13.2325144" cy="180.042" rx="1.11093871" ry="1.11"></ellipse>
            <ellipse id="Oval" cx="1.19323046" cy="180.042" rx="1.11093871" ry="1.11"></ellipse>
            <ellipse id="Oval" cx="109.571473" cy="170.627556" rx="1.11093871" ry="1.11"></ellipse>
            <ellipse id="Oval" cx="97.5321892" cy="170.627556" rx="1.11093871" ry="1.11"></ellipse>
            <ellipse id="Oval" cx="85.4846761" cy="170.627556" rx="1.11093871" ry="1.11"></ellipse>
            <ellipse id="Oval" cx="73.4453922" cy="170.627556" rx="1.11093871" ry="1.11"></ellipse>
            <ellipse id="Oval" cx="61.4061083" cy="170.627556" rx="1.11093871" ry="1.11"></ellipse>
            <ellipse id="Oval" cx="49.3585952" cy="170.627556" rx="1.11093871" ry="1.11"></ellipse>
            <ellipse id="Oval" cx="37.3193113" cy="170.627556" rx="1.11093871" ry="1.11"></ellipse>
            <ellipse id="Oval" cx="25.2800274" cy="170.627556" rx="1.11093871" ry="1.11"></ellipse>
            <ellipse id="Oval" cx="13.2325144" cy="170.627556" rx="1.11093871" ry="1.11"></ellipse>
            <ellipse id="Oval" cx="1.19323046" cy="170.627556" rx="1.11093871" ry="1.11"></ellipse>
            <ellipse id="Oval" cx="109.571473" cy="161.213111" rx="1.11093871" ry="1.11"></ellipse>
            <ellipse id="Oval" cx="97.5321892" cy="161.213111" rx="1.11093871" ry="1.11"></ellipse>
            <ellipse id="Oval" cx="85.4846761" cy="161.213111" rx="1.11093871" ry="1.11"></ellipse>
            <ellipse id="Oval" cx="73.4453922" cy="161.213111" rx="1.11093871" ry="1.11"></ellipse>
            <ellipse id="Oval" cx="61.4061083" cy="161.213111" rx="1.11093871" ry="1.11"></ellipse>
            <ellipse id="Oval" cx="49.3585952" cy="161.213111" rx="1.11093871" ry="1.11"></ellipse>
            <ellipse id="Oval" cx="37.3193113" cy="161.213111" rx="1.11093871" ry="1.11"></ellipse>
            <ellipse id="Oval" cx="25.2800274" cy="161.213111" rx="1.11093871" ry="1.11"></ellipse>
            <ellipse id="Oval" cx="13.2325144" cy="161.213111" rx="1.11093871" ry="1.11"></ellipse>
            <ellipse id="Oval" cx="1.19323046" cy="161.213111" rx="1.11093871" ry="1.11"></ellipse>
            <ellipse id="Oval" cx="109.571473" cy="151.798667" rx="1.11093871" ry="1.11"></ellipse>
            <ellipse id="Oval" cx="97.5321892" cy="151.798667" rx="1.11093871" ry="1.11"></ellipse>
            <ellipse id="Oval" cx="85.4846761" cy="151.798667" rx="1.11093871" ry="1.11"></ellipse>
            <ellipse id="Oval" cx="73.4453922" cy="151.798667" rx="1.11093871" ry="1.11"></ellipse>
            <ellipse id="Oval" cx="61.4061083" cy="151.798667" rx="1.11093871" ry="1.11"></ellipse>
            <ellipse id="Oval" cx="49.3585952" cy="151.798667" rx="1.11093871" ry="1.11"></ellipse>
            <ellipse id="Oval" cx="37.3193113" cy="151.798667" rx="1.11093871" ry="1.11"></ellipse>
            <ellipse id="Oval" cx="25.2800274" cy="151.798667" rx="1.11093871" ry="1.11"></ellipse>
            <ellipse id="Oval" cx="13.2325144" cy="151.798667" rx="1.11093871" ry="1.11"></ellipse>
            <ellipse id="Oval" cx="1.19323046" cy="151.798667" rx="1.11093871" ry="1.11"></ellipse>
            <ellipse id="Oval" cx="109.571473" cy="142.384222" rx="1.11093871" ry="1.11"></ellipse>
            <ellipse id="Oval" cx="97.5321892" cy="142.384222" rx="1.11093871" ry="1.11"></ellipse>
            <ellipse id="Oval" cx="85.4846761" cy="142.384222" rx="1.11093871" ry="1.11"></ellipse>
            <ellipse id="Oval" cx="73.4453922" cy="142.384222" rx="1.11093871" ry="1.11"></ellipse>
            <ellipse id="Oval" cx="61.4061083" cy="142.384222" rx="1.11093871" ry="1.11"></ellipse>
            <ellipse id="Oval" cx="49.3585952" cy="142.384222" rx="1.11093871" ry="1.11"></ellipse>
            <ellipse id="Oval" cx="37.3193113" cy="142.384222" rx="1.11093871" ry="1.11"></ellipse>
            <ellipse id="Oval" cx="25.2800274" cy="142.384222" rx="1.11093871" ry="1.11"></ellipse>
            <ellipse id="Oval" cx="13.2325144" cy="142.384222" rx="1.11093871" ry="1.11"></ellipse>
            <ellipse id="Oval" cx="1.19323046" cy="142.384222" rx="1.11093871" ry="1.11"></ellipse>
            <ellipse id="Oval" cx="109.571473" cy="132.969778" rx="1.11093871" ry="1.11"></ellipse>
            <ellipse id="Oval" cx="97.5321892" cy="132.969778" rx="1.11093871" ry="1.11"></ellipse>
            <ellipse id="Oval" cx="85.4846761" cy="132.969778" rx="1.11093871" ry="1.11"></ellipse>
            <ellipse id="Oval" cx="73.4453922" cy="132.969778" rx="1.11093871" ry="1.11"></ellipse>
            <ellipse id="Oval" cx="61.4061083" cy="132.969778" rx="1.11093871" ry="1.11"></ellipse>
            <ellipse id="Oval" cx="49.3585952" cy="132.969778" rx="1.11093871" ry="1.11"></ellipse>
            <ellipse id="Oval" cx="37.3193113" cy="132.969778" rx="1.11093871" ry="1.11"></ellipse>
            <ellipse id="Oval" cx="25.2800274" cy="132.969778" rx="1.11093871" ry="1.11"></ellipse>
            <ellipse id="Oval" cx="13.2325144" cy="132.969778" rx="1.11093871" ry="1.11"></ellipse>
            <ellipse id="Oval" cx="1.19323046" cy="132.969778" rx="1.11093871" ry="1.11"></ellipse>
            <ellipse id="Oval" cx="109.571473" cy="123.555333" rx="1.11093871" ry="1.11"></ellipse>
            <ellipse id="Oval" cx="97.5321892" cy="123.555333" rx="1.11093871" ry="1.11"></ellipse>
            <ellipse id="Oval" cx="85.4846761" cy="123.555333" rx="1.11093871" ry="1.11"></ellipse>
            <ellipse id="Oval" cx="73.4453922" cy="123.555333" rx="1.11093871" ry="1.11"></ellipse>
            <ellipse id="Oval" cx="61.4061083" cy="123.555333" rx="1.11093871" ry="1.11"></ellipse>
            <ellipse id="Oval" cx="49.3585952" cy="123.555333" rx="1.11093871" ry="1.11"></ellipse>
            <ellipse id="Oval" cx="37.3193113" cy="123.555333" rx="1.11093871" ry="1.11"></ellipse>
            <ellipse id="Oval" cx="25.2800274" cy="123.555333" rx="1.11093871" ry="1.11"></ellipse>
            <ellipse id="Oval" cx="13.2325144" cy="123.555333" rx="1.11093871" ry="1.11"></ellipse>
            <ellipse id="Oval" cx="1.19323046" cy="123.555333" rx="1.11093871" ry="1.11"></ellipse>
            <ellipse id="Oval" cx="109.571473" cy="114.140889" rx="1.11093871" ry="1.11"></ellipse>
            <ellipse id="Oval" cx="97.5321892" cy="114.140889" rx="1.11093871" ry="1.11"></ellipse>
            <ellipse id="Oval" cx="85.4846761" cy="114.140889" rx="1.11093871" ry="1.11"></ellipse>
            <ellipse id="Oval" cx="73.4453922" cy="114.140889" rx="1.11093871" ry="1.11"></ellipse>
            <ellipse id="Oval" cx="61.4061083" cy="114.140889" rx="1.11093871" ry="1.11"></ellipse>
            <ellipse id="Oval" cx="49.3585952" cy="114.140889" rx="1.11093871" ry="1.11"></ellipse>
            <ellipse id="Oval" cx="37.3193113" cy="114.140889" rx="1.11093871" ry="1.11"></ellipse>
            <ellipse id="Oval" cx="25.2800274" cy="114.140889" rx="1.11093871" ry="1.11"></ellipse>
            <ellipse id="Oval" cx="13.2325144" cy="114.140889" rx="1.11093871" ry="1.11"></ellipse>
            <ellipse id="Oval" cx="1.19323046" cy="114.140889" rx="1.11093871" ry="1.11"></ellipse>
            <ellipse id="Oval" cx="109.571473" cy="104.726444" rx="1.11093871" ry="1.11"></ellipse>
            <ellipse id="Oval" cx="97.5321892" cy="104.726444" rx="1.11093871" ry="1.11"></ellipse>
            <ellipse id="Oval" cx="85.4846761" cy="104.726444" rx="1.11093871" ry="1.11"></ellipse>
            <ellipse id="Oval" cx="73.4453922" cy="104.726444" rx="1.11093871" ry="1.11"></ellipse>
            <ellipse id="Oval" cx="61.4061083" cy="104.726444" rx="1.11093871" ry="1.11"></ellipse>
            <ellipse id="Oval" cx="49.3585952" cy="104.726444" rx="1.11093871" ry="1.11"></ellipse>
            <ellipse id="Oval" cx="37.3193113" cy="104.726444" rx="1.11093871" ry="1.11"></ellipse>
            <ellipse id="Oval" cx="25.2800274" cy="104.726444" rx="1.11093871" ry="1.11"></ellipse>
            <ellipse id="Oval" cx="13.2325144" cy="104.726444" rx="1.11093871" ry="1.11"></ellipse>
            <ellipse id="Oval" cx="1.19323046" cy="104.726444" rx="1.11093871" ry="1.11"></ellipse>
            <ellipse id="Oval" cx="109.571473" cy="96.0191111" rx="1.11093871" ry="1.11"></ellipse>
            <ellipse id="Oval" cx="97.5321892" cy="96.0191111" rx="1.11093871" ry="1.11"></ellipse>
            <ellipse id="Oval" cx="85.4846761" cy="96.0191111" rx="1.11093871" ry="1.11"></ellipse>
            <ellipse id="Oval" cx="73.4453922" cy="96.0191111" rx="1.11093871" ry="1.11"></ellipse>
            <ellipse id="Oval" cx="61.4061083" cy="96.0191111" rx="1.11093871" ry="1.11"></ellipse>
            <ellipse id="Oval" cx="49.3585952" cy="96.0191111" rx="1.11093871" ry="1.11"></ellipse>
            <ellipse id="Oval" cx="37.3193113" cy="96.0191111" rx="1.11093871" ry="1.11"></ellipse>
            <ellipse id="Oval" cx="25.2800274" cy="96.0191111" rx="1.11093871" ry="1.11"></ellipse>
            <ellipse id="Oval" cx="13.2325144" cy="96.0191111" rx="1.11093871" ry="1.11"></ellipse>
            <ellipse id="Oval" cx="1.19323046" cy="96.0191111" rx="1.11093871" ry="1.11"></ellipse>
            <ellipse id="Oval" cx="109.571473" cy="86.6046667" rx="1.11093871" ry="1.11"></ellipse>
            <ellipse id="Oval" cx="97.5321892" cy="86.6046667" rx="1.11093871" ry="1.11"></ellipse>
            <ellipse id="Oval" cx="85.4846761" cy="86.6046667" rx="1.11093871" ry="1.11"></ellipse>
            <ellipse id="Oval" cx="73.4453922" cy="86.6046667" rx="1.11093871" ry="1.11"></ellipse>
            <ellipse id="Oval" cx="61.4061083" cy="86.6046667" rx="1.11093871" ry="1.11"></ellipse>
            <ellipse id="Oval" cx="49.3585952" cy="86.6046667" rx="1.11093871" ry="1.11"></ellipse>
            <ellipse id="Oval" cx="37.3193113" cy="86.6046667" rx="1.11093871" ry="1.11"></ellipse>
            <ellipse id="Oval" cx="25.2800274" cy="86.6046667" rx="1.11093871" ry="1.11"></ellipse>
            <ellipse id="Oval" cx="13.2325144" cy="86.6046667" rx="1.11093871" ry="1.11"></ellipse>
            <ellipse id="Oval" cx="1.19323046" cy="86.6046667" rx="1.11093871" ry="1.11"></ellipse>
            <ellipse id="Oval" cx="109.571473" cy="77.1902222" rx="1.11093871" ry="1.11"></ellipse>
            <ellipse id="Oval" cx="97.5321892" cy="77.1902222" rx="1.11093871" ry="1.11"></ellipse>
            <ellipse id="Oval" cx="85.4846761" cy="77.1902222" rx="1.11093871" ry="1.11"></ellipse>
            <ellipse id="Oval" cx="73.4453922" cy="77.1902222" rx="1.11093871" ry="1.11"></ellipse>
            <ellipse id="Oval" cx="61.4061083" cy="77.1902222" rx="1.11093871" ry="1.11"></ellipse>
            <ellipse id="Oval" cx="49.3585952" cy="77.1902222" rx="1.11093871" ry="1.11"></ellipse>
            <ellipse id="Oval" cx="37.3193113" cy="77.1902222" rx="1.11093871" ry="1.11"></ellipse>
            <ellipse id="Oval" cx="25.2800274" cy="77.1902222" rx="1.11093871" ry="1.11"></ellipse>
            <ellipse id="Oval" cx="13.2325144" cy="77.1902222" rx="1.11093871" ry="1.11"></ellipse>
            <ellipse id="Oval" cx="1.19323046" cy="77.1902222" rx="1.11093871" ry="1.11"></ellipse>
            <ellipse id="Oval" cx="109.571473" cy="67.7757778" rx="1.11093871" ry="1.11"></ellipse>
            <ellipse id="Oval" cx="97.5321892" cy="67.7757778" rx="1.11093871" ry="1.11"></ellipse>
            <ellipse id="Oval" cx="85.4846761" cy="67.7757778" rx="1.11093871" ry="1.11"></ellipse>
            <ellipse id="Oval" cx="73.4453922" cy="67.7757778" rx="1.11093871" ry="1.11"></ellipse>
            <ellipse id="Oval" cx="61.4061083" cy="67.7757778" rx="1.11093871" ry="1.11"></ellipse>
            <ellipse id="Oval" cx="49.3585952" cy="67.7757778" rx="1.11093871" ry="1.11"></ellipse>
            <ellipse id="Oval" cx="37.3193113" cy="67.7757778" rx="1.11093871" ry="1.11"></ellipse>
            <ellipse id="Oval" cx="25.2800274" cy="67.7757778" rx="1.11093871" ry="1.11"></ellipse>
            <ellipse id="Oval" cx="13.2325144" cy="67.7757778" rx="1.11093871" ry="1.11"></ellipse>
            <ellipse id="Oval" cx="1.19323046" cy="67.7757778" rx="1.11093871" ry="1.11"></ellipse>
            <ellipse id="Oval" cx="109.571473" cy="58.3613333" rx="1.11093871" ry="1.11"></ellipse>
            <ellipse id="Oval" cx="97.5321892" cy="58.3613333" rx="1.11093871" ry="1.11"></ellipse>
            <ellipse id="Oval" cx="85.4846761" cy="58.3613333" rx="1.11093871" ry="1.11"></ellipse>
            <ellipse id="Oval" cx="73.4453922" cy="58.3613333" rx="1.11093871" ry="1.11"></ellipse>
            <ellipse id="Oval" cx="61.4061083" cy="58.3613333" rx="1.11093871" ry="1.11"></ellipse>
            <ellipse id="Oval" cx="49.3585952" cy="58.3613333" rx="1.11093871" ry="1.11"></ellipse>
            <ellipse id="Oval" cx="37.3193113" cy="58.3613333" rx="1.11093871" ry="1.11"></ellipse>
            <ellipse id="Oval" cx="25.2800274" cy="58.3613333" rx="1.11093871" ry="1.11"></ellipse>
            <ellipse id="Oval" cx="13.2325144" cy="58.3613333" rx="1.11093871" ry="1.11"></ellipse>
            <ellipse id="Oval" cx="1.19323046" cy="58.3613333" rx="1.11093871" ry="1.11"></ellipse>
            <ellipse id="Oval" cx="109.571473" cy="48.9468889" rx="1.11093871" ry="1.11"></ellipse>
            <ellipse id="Oval" cx="97.5321892" cy="48.9468889" rx="1.11093871" ry="1.11"></ellipse>
            <ellipse id="Oval" cx="85.4846761" cy="48.9468889" rx="1.11093871" ry="1.11"></ellipse>
            <ellipse id="Oval" cx="73.4453922" cy="48.9468889" rx="1.11093871" ry="1.11"></ellipse>
            <ellipse id="Oval" cx="61.4061083" cy="48.9468889" rx="1.11093871" ry="1.11"></ellipse>
            <ellipse id="Oval" cx="49.3585952" cy="48.9468889" rx="1.11093871" ry="1.11"></ellipse>
            <ellipse id="Oval" cx="37.3193113" cy="48.9468889" rx="1.11093871" ry="1.11"></ellipse>
            <ellipse id="Oval" cx="25.2800274" cy="48.9468889" rx="1.11093871" ry="1.11"></ellipse>
            <ellipse id="Oval" cx="13.2325144" cy="48.9468889" rx="1.11093871" ry="1.11"></ellipse>
            <ellipse id="Oval" cx="1.19323046" cy="48.9468889" rx="1.11093871" ry="1.11"></ellipse>
            <ellipse id="Oval" cx="109.571473" cy="39.5324444" rx="1.11093871" ry="1.11"></ellipse>
            <ellipse id="Oval" cx="97.5321892" cy="39.5324444" rx="1.11093871" ry="1.11"></ellipse>
            <ellipse id="Oval" cx="85.4846761" cy="39.5324444" rx="1.11093871" ry="1.11"></ellipse>
            <ellipse id="Oval" cx="73.4453922" cy="39.5324444" rx="1.11093871" ry="1.11"></ellipse>
            <ellipse id="Oval" cx="61.4061083" cy="39.5324444" rx="1.11093871" ry="1.11"></ellipse>
            <ellipse id="Oval" cx="49.3585952" cy="39.5324444" rx="1.11093871" ry="1.11"></ellipse>
            <ellipse id="Oval" cx="37.3193113" cy="39.5324444" rx="1.11093871" ry="1.11"></ellipse>
            <ellipse id="Oval" cx="25.2800274" cy="39.5324444" rx="1.11093871" ry="1.11"></ellipse>
            <ellipse id="Oval" cx="13.2325144" cy="39.5324444" rx="1.11093871" ry="1.11"></ellipse>
            <ellipse id="Oval" cx="1.19323046" cy="39.5324444" rx="1.11093871" ry="1.11"></ellipse>
            <ellipse id="Oval" cx="109.571473" cy="30.118" rx="1.11093871" ry="1.11"></ellipse>
            <ellipse id="Oval" cx="97.5321892" cy="30.118" rx="1.11093871" ry="1.11"></ellipse>
            <ellipse id="Oval" cx="85.4846761" cy="30.118" rx="1.11093871" ry="1.11"></ellipse>
            <ellipse id="Oval" cx="73.4453922" cy="30.118" rx="1.11093871" ry="1.11"></ellipse>
            <ellipse id="Oval" cx="61.4061083" cy="30.118" rx="1.11093871" ry="1.11"></ellipse>
            <ellipse id="Oval" cx="49.3585952" cy="30.118" rx="1.11093871" ry="1.11"></ellipse>
            <ellipse id="Oval" cx="37.3193113" cy="30.118" rx="1.11093871" ry="1.11"></ellipse>
            <ellipse id="Oval" cx="25.2800274" cy="30.118" rx="1.11093871" ry="1.11"></ellipse>
            <ellipse id="Oval" cx="13.2325144" cy="30.118" rx="1.11093871" ry="1.11"></ellipse>
            <ellipse id="Oval" cx="1.19323046" cy="30.118" rx="1.11093871" ry="1.11"></ellipse>
            <ellipse id="Oval" cx="109.571473" cy="20.7035556" rx="1.11093871" ry="1.11"></ellipse>
            <ellipse id="Oval" cx="97.5321892" cy="20.7035556" rx="1.11093871" ry="1.11"></ellipse>
            <ellipse id="Oval" cx="85.4846761" cy="20.7035556" rx="1.11093871" ry="1.11"></ellipse>
            <ellipse id="Oval" cx="73.4453922" cy="20.7035556" rx="1.11093871" ry="1.11"></ellipse>
            <ellipse id="Oval" cx="61.4061083" cy="20.7035556" rx="1.11093871" ry="1.11"></ellipse>
            <ellipse id="Oval" cx="49.3585952" cy="20.7035556" rx="1.11093871" ry="1.11"></ellipse>
            <ellipse id="Oval" cx="37.3193113" cy="20.7035556" rx="1.11093871" ry="1.11"></ellipse>
            <ellipse id="Oval" cx="25.2800274" cy="20.7035556" rx="1.11093871" ry="1.11"></ellipse>
            <ellipse id="Oval" cx="13.2325144" cy="20.7035556" rx="1.11093871" ry="1.11"></ellipse>
            <ellipse id="Oval" cx="1.19323046" cy="20.7035556" rx="1.11093871" ry="1.11"></ellipse>
            <ellipse id="Oval" cx="109.571473" cy="11.2891111" rx="1.11093871" ry="1.11"></ellipse>
            <ellipse id="Oval" cx="97.5321892" cy="11.2891111" rx="1.11093871" ry="1.11"></ellipse>
            <ellipse id="Oval" cx="85.4846761" cy="11.2891111" rx="1.11093871" ry="1.11"></ellipse>
            <ellipse id="Oval" cx="73.4453922" cy="11.2891111" rx="1.11093871" ry="1.11"></ellipse>
            <ellipse id="Oval" cx="61.4061083" cy="11.2891111" rx="1.11093871" ry="1.11"></ellipse>
            <ellipse id="Oval" cx="49.3585952" cy="11.2891111" rx="1.11093871" ry="1.11"></ellipse>
            <ellipse id="Oval" cx="37.3193113" cy="11.2891111" rx="1.11093871" ry="1.11"></ellipse>
            <ellipse id="Oval" cx="25.2800274" cy="11.2891111" rx="1.11093871" ry="1.11"></ellipse>
            <ellipse id="Oval" cx="13.2325144" cy="11.2891111" rx="1.11093871" ry="1.11"></ellipse>
            <ellipse id="Oval" cx="1.19323046" cy="11.2891111" rx="1.11093871" ry="1.11"></ellipse>
            <ellipse id="Oval" cx="109.571473" cy="1.87466667" rx="1.11093871" ry="1.11"></ellipse>
            <ellipse id="Oval" cx="97.5321892" cy="1.87466667" rx="1.11093871" ry="1.11"></ellipse>
            <ellipse id="Oval" cx="85.4846761" cy="1.87466667" rx="1.11093871" ry="1.11"></ellipse>
            <ellipse id="Oval" cx="73.4453922" cy="1.87466667" rx="1.11093871" ry="1.11"></ellipse>
            <ellipse id="Oval" cx="61.4061083" cy="1.87466667" rx="1.11093871" ry="1.11"></ellipse>
            <ellipse id="Oval" cx="49.3585952" cy="1.87466667" rx="1.11093871" ry="1.11"></ellipse>
            <ellipse id="Oval" cx="37.3193113" cy="1.87466667" rx="1.11093871" ry="1.11"></ellipse>
            <ellipse id="Oval" cx="25.2800274" cy="1.87466667" rx="1.11093871" ry="1.11"></ellipse>
            <ellipse id="Oval" cx="13.2325144" cy="1.87466667" rx="1.11093871" ry="1.11"></ellipse>
            <ellipse id="Oval" cx="1.19323046" cy="1.87466667" rx="1.11093871" ry="1.11"></ellipse>
        </g>
        <rect id="Rectangle" x="-6.81675483" y="-20" width="444.375482" height="296"></rect>
        <path d="M405.321272,122.849943 L329.974941,122.849943 C309.198341,122.809294 292.360618,106.000498 292.301642,85.2414969 L292.301642,47.6577191 C292.247144,26.809103 309.108748,9.85870395 329.974941,9.78616352 L480.659375,9.78616352 L480.659375,47.6577191 C480.623034,89.2022963 446.900998,122.859035 405.321272,122.849943" id="Path" fill="#E9EBEE" fill-rule="nonzero" opacity="0"></path>
        <path d="M132.295816,75.4404514 L132.295816,114.701563 L53.7811267,114.701563 C10.3978886,114.678863 -24.7553053,79.5259249 -24.7416708,36.1792848 L93.0342943,36.1792848 C103.458139,36.161814 113.459619,40.2936661 120.827312,47.6613053 C128.195005,55.0289445 132.321968,65.0254325 132.295816,75.4404514" id="Path" fill="#E9EBEE" fill-rule="nonzero" opacity="0"></path>
        <g id="Group" opacity="0.3" transform="translate(0.225652, -0.062974)" fill="#FFC916" fill-rule="nonzero">
            <ellipse id="Oval" cx="1.70343935" cy="1.48822222" rx="1.11093871" ry="1.11"></ellipse>
            <ellipse id="Oval" cx="13.7509524" cy="1.48822222" rx="1.11093871" ry="1.11"></ellipse>
            <ellipse id="Oval" cx="25.7902363" cy="1.48822222" rx="1.11093871" ry="1.11"></ellipse>
            <ellipse id="Oval" cx="37.8295202" cy="1.48822222" rx="1.11093871" ry="1.11"></ellipse>
            <ellipse id="Oval" cx="49.8770333" cy="1.48822222" rx="1.11093871" ry="1.11"></ellipse>
            <ellipse id="Oval" cx="61.9163172" cy="1.48822222" rx="1.11093871" ry="1.11"></ellipse>
            <ellipse id="Oval" cx="73.9556011" cy="1.48822222" rx="1.11093871" ry="1.11"></ellipse>
            <ellipse id="Oval" cx="86.0031141" cy="1.48822222" rx="1.11093871" ry="1.11"></ellipse>
            <ellipse id="Oval" cx="98.042398" cy="1.48822222" rx="1.11093871" ry="1.11"></ellipse>
            <ellipse id="Oval" cx="110.081682" cy="1.48822222" rx="1.11093871" ry="1.11"></ellipse>
            <ellipse id="Oval" cx="1.70343935" cy="10.9026667" rx="1.11093871" ry="1.11"></ellipse>
            <ellipse id="Oval" cx="13.7509524" cy="10.9026667" rx="1.11093871" ry="1.11"></ellipse>
            <ellipse id="Oval" cx="25.7902363" cy="10.9026667" rx="1.11093871" ry="1.11"></ellipse>
            <ellipse id="Oval" cx="37.8295202" cy="10.9026667" rx="1.11093871" ry="1.11"></ellipse>
            <ellipse id="Oval" cx="49.8770333" cy="10.9026667" rx="1.11093871" ry="1.11"></ellipse>
            <ellipse id="Oval" cx="61.9163172" cy="10.9026667" rx="1.11093871" ry="1.11"></ellipse>
            <ellipse id="Oval" cx="73.9556011" cy="10.9026667" rx="1.11093871" ry="1.11"></ellipse>
            <ellipse id="Oval" cx="86.0031141" cy="10.9026667" rx="1.11093871" ry="1.11"></ellipse>
            <ellipse id="Oval" cx="98.042398" cy="10.9026667" rx="1.11093871" ry="1.11"></ellipse>
            <ellipse id="Oval" cx="110.081682" cy="10.9026667" rx="1.11093871" ry="1.11"></ellipse>
            <ellipse id="Oval" cx="1.70343935" cy="20.3171111" rx="1.11093871" ry="1.11"></ellipse>
            <ellipse id="Oval" cx="13.7509524" cy="20.3171111" rx="1.11093871" ry="1.11"></ellipse>
            <ellipse id="Oval" cx="25.7902363" cy="20.3171111" rx="1.11093871" ry="1.11"></ellipse>
            <ellipse id="Oval" cx="37.8295202" cy="20.3171111" rx="1.11093871" ry="1.11"></ellipse>
            <ellipse id="Oval" cx="49.8770333" cy="20.3171111" rx="1.11093871" ry="1.11"></ellipse>
            <ellipse id="Oval" cx="61.9163172" cy="20.3171111" rx="1.11093871" ry="1.11"></ellipse>
            <ellipse id="Oval" cx="73.9556011" cy="20.3171111" rx="1.11093871" ry="1.11"></ellipse>
            <ellipse id="Oval" cx="86.0031141" cy="20.3171111" rx="1.11093871" ry="1.11"></ellipse>
            <ellipse id="Oval" cx="98.042398" cy="20.3171111" rx="1.11093871" ry="1.11"></ellipse>
            <ellipse id="Oval" cx="110.081682" cy="20.3171111" rx="1.11093871" ry="1.11"></ellipse>
            <ellipse id="Oval" cx="1.70343935" cy="29.7315556" rx="1.11093871" ry="1.11"></ellipse>
            <ellipse id="Oval" cx="13.7509524" cy="29.7315556" rx="1.11093871" ry="1.11"></ellipse>
            <ellipse id="Oval" cx="25.7902363" cy="29.7315556" rx="1.11093871" ry="1.11"></ellipse>
            <ellipse id="Oval" cx="37.8295202" cy="29.7315556" rx="1.11093871" ry="1.11"></ellipse>
            <ellipse id="Oval" cx="49.8770333" cy="29.7315556" rx="1.11093871" ry="1.11"></ellipse>
            <ellipse id="Oval" cx="61.9163172" cy="29.7315556" rx="1.11093871" ry="1.11"></ellipse>
            <ellipse id="Oval" cx="73.9556011" cy="29.7315556" rx="1.11093871" ry="1.11"></ellipse>
            <ellipse id="Oval" cx="86.0031141" cy="29.7315556" rx="1.11093871" ry="1.11"></ellipse>
            <ellipse id="Oval" cx="98.042398" cy="29.7315556" rx="1.11093871" ry="1.11"></ellipse>
            <ellipse id="Oval" cx="110.081682" cy="29.7315556" rx="1.11093871" ry="1.11"></ellipse>
            <ellipse id="Oval" cx="1.70343935" cy="39.146" rx="1.11093871" ry="1.11"></ellipse>
            <ellipse id="Oval" cx="13.7509524" cy="39.146" rx="1.11093871" ry="1.11"></ellipse>
            <ellipse id="Oval" cx="25.7902363" cy="39.146" rx="1.11093871" ry="1.11"></ellipse>
            <ellipse id="Oval" cx="37.8295202" cy="39.146" rx="1.11093871" ry="1.11"></ellipse>
            <ellipse id="Oval" cx="49.8770333" cy="39.146" rx="1.11093871" ry="1.11"></ellipse>
            <ellipse id="Oval" cx="61.9163172" cy="39.146" rx="1.11093871" ry="1.11"></ellipse>
            <ellipse id="Oval" cx="73.9556011" cy="39.146" rx="1.11093871" ry="1.11"></ellipse>
            <ellipse id="Oval" cx="86.0031141" cy="39.146" rx="1.11093871" ry="1.11"></ellipse>
            <ellipse id="Oval" cx="98.042398" cy="39.146" rx="1.11093871" ry="1.11"></ellipse>
            <ellipse id="Oval" cx="110.081682" cy="39.146" rx="1.11093871" ry="1.11"></ellipse>
            <ellipse id="Oval" cx="1.70343935" cy="48.5604444" rx="1.11093871" ry="1.11"></ellipse>
            <ellipse id="Oval" cx="13.7509524" cy="48.5604444" rx="1.11093871" ry="1.11"></ellipse>
            <ellipse id="Oval" cx="25.7902363" cy="48.5604444" rx="1.11093871" ry="1.11"></ellipse>
            <ellipse id="Oval" cx="37.8295202" cy="48.5604444" rx="1.11093871" ry="1.11"></ellipse>
            <ellipse id="Oval" cx="49.8770333" cy="48.5604444" rx="1.11093871" ry="1.11"></ellipse>
            <ellipse id="Oval" cx="61.9163172" cy="48.5604444" rx="1.11093871" ry="1.11"></ellipse>
            <ellipse id="Oval" cx="73.9556011" cy="48.5604444" rx="1.11093871" ry="1.11"></ellipse>
            <ellipse id="Oval" cx="86.0031141" cy="48.5604444" rx="1.11093871" ry="1.11"></ellipse>
            <ellipse id="Oval" cx="98.042398" cy="48.5604444" rx="1.11093871" ry="1.11"></ellipse>
            <ellipse id="Oval" cx="110.081682" cy="48.5604444" rx="1.11093871" ry="1.11"></ellipse>
            <ellipse id="Oval" cx="1.70343935" cy="57.9748889" rx="1.11093871" ry="1.11"></ellipse>
            <ellipse id="Oval" cx="13.7509524" cy="57.9748889" rx="1.11093871" ry="1.11"></ellipse>
            <ellipse id="Oval" cx="25.7902363" cy="57.9748889" rx="1.11093871" ry="1.11"></ellipse>
            <ellipse id="Oval" cx="37.8295202" cy="57.9748889" rx="1.11093871" ry="1.11"></ellipse>
            <ellipse id="Oval" cx="49.8770333" cy="57.9748889" rx="1.11093871" ry="1.11"></ellipse>
            <ellipse id="Oval" cx="61.9163172" cy="57.9748889" rx="1.11093871" ry="1.11"></ellipse>
            <ellipse id="Oval" cx="73.9556011" cy="57.9748889" rx="1.11093871" ry="1.11"></ellipse>
            <ellipse id="Oval" cx="86.0031141" cy="57.9748889" rx="1.11093871" ry="1.11"></ellipse>
            <ellipse id="Oval" cx="98.042398" cy="57.9748889" rx="1.11093871" ry="1.11"></ellipse>
            <ellipse id="Oval" cx="110.081682" cy="57.9748889" rx="1.11093871" ry="1.11"></ellipse>
            <ellipse id="Oval" cx="1.70343935" cy="67.3893333" rx="1.11093871" ry="1.11"></ellipse>
            <ellipse id="Oval" cx="13.7509524" cy="67.3893333" rx="1.11093871" ry="1.11"></ellipse>
            <ellipse id="Oval" cx="25.7902363" cy="67.3893333" rx="1.11093871" ry="1.11"></ellipse>
            <ellipse id="Oval" cx="37.8295202" cy="67.3893333" rx="1.11093871" ry="1.11"></ellipse>
            <ellipse id="Oval" cx="49.8770333" cy="67.3893333" rx="1.11093871" ry="1.11"></ellipse>
            <ellipse id="Oval" cx="61.9163172" cy="67.3893333" rx="1.11093871" ry="1.11"></ellipse>
            <ellipse id="Oval" cx="73.9556011" cy="67.3893333" rx="1.11093871" ry="1.11"></ellipse>
            <ellipse id="Oval" cx="86.0031141" cy="67.3893333" rx="1.11093871" ry="1.11"></ellipse>
            <ellipse id="Oval" cx="98.042398" cy="67.3893333" rx="1.11093871" ry="1.11"></ellipse>
            <ellipse id="Oval" cx="110.081682" cy="67.3893333" rx="1.11093871" ry="1.11"></ellipse>
            <ellipse id="Oval" cx="1.70343935" cy="76.8037778" rx="1.11093871" ry="1.11"></ellipse>
            <ellipse id="Oval" cx="13.7509524" cy="76.8037778" rx="1.11093871" ry="1.11"></ellipse>
            <ellipse id="Oval" cx="25.7902363" cy="76.8037778" rx="1.11093871" ry="1.11"></ellipse>
            <ellipse id="Oval" cx="37.8295202" cy="76.8037778" rx="1.11093871" ry="1.11"></ellipse>
            <ellipse id="Oval" cx="49.8770333" cy="76.8037778" rx="1.11093871" ry="1.11"></ellipse>
            <ellipse id="Oval" cx="61.9163172" cy="76.8037778" rx="1.11093871" ry="1.11"></ellipse>
            <ellipse id="Oval" cx="73.9556011" cy="76.8037778" rx="1.11093871" ry="1.11"></ellipse>
            <ellipse id="Oval" cx="86.0031141" cy="76.8037778" rx="1.11093871" ry="1.11"></ellipse>
            <ellipse id="Oval" cx="98.042398" cy="76.8037778" rx="1.11093871" ry="1.11"></ellipse>
            <ellipse id="Oval" cx="110.081682" cy="76.8037778" rx="1.11093871" ry="1.11"></ellipse>
            <ellipse id="Oval" cx="1.70343935" cy="86.2182222" rx="1.11093871" ry="1.11"></ellipse>
            <ellipse id="Oval" cx="13.7509524" cy="86.2182222" rx="1.11093871" ry="1.11"></ellipse>
            <ellipse id="Oval" cx="25.7902363" cy="86.2182222" rx="1.11093871" ry="1.11"></ellipse>
            <ellipse id="Oval" cx="37.8295202" cy="86.2182222" rx="1.11093871" ry="1.11"></ellipse>
            <ellipse id="Oval" cx="49.8770333" cy="86.2182222" rx="1.11093871" ry="1.11"></ellipse>
            <ellipse id="Oval" cx="61.9163172" cy="86.2182222" rx="1.11093871" ry="1.11"></ellipse>
            <ellipse id="Oval" cx="73.9556011" cy="86.2182222" rx="1.11093871" ry="1.11"></ellipse>
            <ellipse id="Oval" cx="86.0031141" cy="86.2182222" rx="1.11093871" ry="1.11"></ellipse>
            <ellipse id="Oval" cx="98.042398" cy="86.2182222" rx="1.11093871" ry="1.11"></ellipse>
            <ellipse id="Oval" cx="110.081682" cy="86.2182222" rx="1.11093871" ry="1.11"></ellipse>
            <ellipse id="Oval" cx="1.70343935" cy="95.6326667" rx="1.11093871" ry="1.11"></ellipse>
            <ellipse id="Oval" cx="13.7509524" cy="95.6326667" rx="1.11093871" ry="1.11"></ellipse>
            <ellipse id="Oval" cx="25.7902363" cy="95.6326667" rx="1.11093871" ry="1.11"></ellipse>
            <ellipse id="Oval" cx="37.8295202" cy="95.6326667" rx="1.11093871" ry="1.11"></ellipse>
            <ellipse id="Oval" cx="49.8770333" cy="95.6326667" rx="1.11093871" ry="1.11"></ellipse>
            <ellipse id="Oval" cx="61.9163172" cy="95.6326667" rx="1.11093871" ry="1.11"></ellipse>
            <ellipse id="Oval" cx="73.9556011" cy="95.6326667" rx="1.11093871" ry="1.11"></ellipse>
            <ellipse id="Oval" cx="86.0031141" cy="95.6326667" rx="1.11093871" ry="1.11"></ellipse>
            <ellipse id="Oval" cx="98.042398" cy="95.6326667" rx="1.11093871" ry="1.11"></ellipse>
            <ellipse id="Oval" cx="110.081682" cy="95.6326667" rx="1.11093871" ry="1.11"></ellipse>
        </g>
        <ellipse id="Oval" fill="#F6F7F8" fill-rule="nonzero" cx="408.847134" cy="269.212827" rx="16.9109558" ry="3.89733333"></ellipse>
        <ellipse id="Oval" fill-rule="nonzero" cx="48.5759617" cy="267.023545" rx="30.9252419" ry="5.76377778"></ellipse>
        <ellipse id="Oval" fill="#F6F7F8" fill-rule="nonzero" cx="38.9834074" cy="266.602056" rx="6.98340741" ry="1.61466667"></ellipse>
        <ellipse id="Oval" fill="#F6F7F8" fill-rule="nonzero" cx="54.6385185" cy="266.9865" rx="6.98340741" ry="1.61466667"></ellipse>
        <rect id="Rectangle" fill="#7F889E" fill-rule="nonzero" x="38.216" y="244.602222" width="1.53481481" height="22.0094444" rx="0.767407407"></rect>
        <path d="M45.3528915,222.592778 L45.3528915,219.401889 C45.3528915,216.970793 43.3858934,215 40.9594815,215 L37.7747407,215 C35.3483288,215 33.3813307,216.970793 33.3813307,219.401889 L33.3813307,222.592778 C33.3801126,223.885809 33.9488378,225.113391 34.9353333,225.947056 C33.9488378,226.78072 33.3801126,228.008302 33.3813307,229.301333 L33.3813307,232.492222 C33.379913,233.788033 33.9484126,235.018644 34.9353333,235.856111 C33.9488378,236.689776 33.3801126,237.917358 33.3813307,239.210389 L33.3813307,242.401278 C33.3813307,244.832374 35.3483288,246.803167 37.7747407,246.803167 L40.9594815,246.803167 C43.3858934,246.803167 45.3528915,244.832374 45.3528915,242.401278 L45.3528915,239.210389 C45.3541096,237.917358 44.7853844,236.689776 43.7988889,235.856111 C44.7858096,235.018644 45.3543092,233.788033 45.3528915,232.492222 L45.3528915,229.301333 C45.3541096,228.008302 44.7853844,226.78072 43.7988889,225.947056 C44.7853844,225.113391 45.3541096,223.885809 45.3528915,222.592778 Z" id="Path" fill="#02AD46" fill-rule="nonzero"></path>
        <path d="M33.3813307,229.301333 L33.3813307,232.492222 C33.379913,233.788033 33.9484126,235.018644 34.9353333,235.856111 C33.9488378,236.689776 33.3801126,237.917358 33.3813307,239.210389 L33.3813307,242.401278 C33.3813307,244.832374 35.3483288,246.803167 37.7747407,246.803167 L40.9594815,246.803167 C43.3858934,246.803167 45.3528908,244.832374 45.3528908,242.401278 L45.3528908,239.210389 C45.3541096,237.917358 44.7853844,236.689776 43.7988889,235.856111 L33.3813307,229.301333 Z" id="Path" fill="#000000" fill-rule="nonzero" opacity="0.1"></path>
        <line x1="38.8107407" y1="232.530667" x2="32.4604444" y2="228.388278" id="Path" stroke="#FFFFFF" stroke-width="0.768000031" stroke-linecap="round" stroke-linejoin="round"></line>
        <line x1="46.715037" y1="222.736944" x2="40.3647407" y2="218.594556" id="Path" stroke="#FFFFFF" stroke-width="0.768000031" stroke-linecap="round" stroke-linejoin="round"></line>
        <line x1="45.727" y1="243.535389" x2="39.3767037" y2="239.393" id="Path" stroke="#FFFFFF" stroke-width="0.768000031" stroke-linecap="round" stroke-linejoin="round"></line>
        <rect id="Rectangle" fill="#7F889E" fill-rule="nonzero" x="53.8711111" y="253.6655" width="1.53481481" height="13.321" rx="0.767407407"></rect>
        <path d="M50.5904444,235.019944 C49.6107143,235.857858 49.0463426,237.08361 49.046037,238.374222 L49.046037,241.565111 C49.0463426,242.855724 49.6107143,244.081475 50.5904444,244.919389 C49.6107143,245.757303 49.0463426,246.983054 49.046037,248.273667 L49.046037,251.464556 C49.046037,253.895652 51.0130325,255.866444 53.4394444,255.866444 L56.6241852,255.866444 C59.0468501,255.861145 61.0080172,253.891903 61.0080172,251.464556 L61.0080172,248.273667 C61.0116066,246.982196 60.4465133,245.754878 59.4635926,244.919389 C60.4465133,244.0839 61.0116066,242.856581 61.0080172,241.565111 L61.0080172,238.374222 C61.0116066,237.082752 60.4465133,235.855433 59.4635926,235.019944 C57.4011852,233.732056 52.9406296,233.712833 50.5904444,235.019944 Z" id="Path" fill="#02AD46" fill-rule="nonzero"></path>
        <path d="M49.046037,238.374222 L49.046037,241.565111 C49.0463426,242.855724 49.6107143,244.081475 50.5904444,244.919389 C49.6107143,245.757303 49.0463426,246.983054 49.046037,248.273667 L49.046037,251.464556 C49.046037,253.895652 51.0130325,255.866444 53.4394444,255.866444 L56.6241852,255.866444 C59.0468501,255.861145 61.0080172,253.891903 61.0080172,251.464556 L61.0080172,248.273667 C61.0116066,246.982196 60.4465133,245.754878 59.4635926,244.919389 L49.046037,238.374222 Z" id="Path" fill="#000000" fill-rule="nonzero" opacity="0.1"></path>
        <line x1="54.4658519" y1="241.593944" x2="48.1155556" y2="237.451556" id="Path" stroke="#FFFFFF" stroke-width="0.768000031" stroke-linecap="round" stroke-linejoin="round"></line>
        <line x1="61.3917037" y1="252.598667" x2="55.0414074" y2="248.456278" id="Path" stroke="#FFFFFF" stroke-width="0.768000031" stroke-linecap="round" stroke-linejoin="round"></line>
        <rect id="Rectangle" stroke="#E9EBEE" stroke-width="0.822435945" fill="#F9F9F9" fill-rule="nonzero" x="79" y="55" width="301.187827" height="203.088889" rx="8.22435945"></rect>
        <path d="M87.654181,55.0031111 L372.383657,55.0031111 C376.928505,55.0031111 380.612832,58.6843254 380.612832,63.2253333 L380.612832,72.2697778 L79.4250054,72.2697778 L79.4250054,63.2253333 C79.4250054,58.6843254 83.1093328,55.0031111 87.654181,55.0031111 Z" id="Path" fill="#E9EBEE" fill-rule="nonzero"></path>
        <path d="M79.4250054,72.2697778 L104.93545,72.2697778 L104.93545,258.092 L87.654181,258.092 C83.1093328,258.092 79.4250054,254.410786 79.4250054,249.869778 L79.4250054,72.2697778 L79.4250054,72.2697778 Z" id="Path" fill="#E9EBEE" fill-rule="nonzero" opacity="0.7"></path>
        <rect id="Rectangle" fill="#F6F7F7" fill-rule="nonzero" x="137.852152" y="72.2697778" width="2.46875268" height="4.11111111"></rect>
        <path d="M170.768855,101.096889 C184.50883,101.844335 195.481845,112.808079 196.229924,126.536444 L208.573687,126.536444 C207.800412,105.999054 191.315384,89.527955 170.760625,88.7553333 L170.768855,101.096889 Z" id="Path" fill="#E9EBEE" fill-rule="nonzero" opacity="0.7"></path>
        <path d="M196.16409,129.003111 C195.821473,138.054741 190.948427,146.328213 183.19491,151.022222 L189.136374,161.842667 C200.832806,154.976581 208.158523,142.569128 208.516083,129.019556 L196.16409,129.003111 Z" id="Path" fill="#E9EBEE" fill-rule="nonzero"></path>
        <path d="M180.709699,152.230889 C170.882074,156.999742 159.14574,155.372762 150.988748,148.110745 C142.831756,140.848727 139.866103,129.386804 143.478565,119.084708 C147.091026,108.782612 156.567702,101.67626 167.477184,101.088667 L167.477184,88.7553333 C151.407945,89.3504479 137.321637,99.6641341 131.91294,114.794694 C126.504244,129.925253 130.863817,146.821621 142.919724,157.453603 C154.975631,168.085585 172.296807,170.309251 186.651163,163.067778 L180.709699,152.230889 Z" id="Path" fill="#D3D7DE" fill-rule="nonzero"></path>
        <ellipse id="Oval" fill="#D3D7DE" fill-rule="nonzero" cx="232.89913" cy="115.436444" rx="2.88021146" ry="2.87777778"></ellipse>
        <ellipse id="Oval" fill="#E9EBEE" fill-rule="nonzero" cx="232.89913" cy="127.769778" rx="2.88021146" ry="2.87777778"></ellipse>
        <rect id="Rectangle" fill="#E9EBEE" fill-rule="nonzero" x="242.362682" y="114.203111" width="24.6875268" height="2.46666667"></rect>
        <rect id="Rectangle" fill="#E9EBEE" fill-rule="nonzero" x="242.362682" y="126.536444" width="24.6875268" height="2.46666667"></rect>
        <ellipse id="Oval" fill="#E9EBEE" fill-rule="nonzero" opacity="0.7" cx="232.89913" cy="140.925333" rx="2.88021146" ry="2.87777778"></ellipse>
        <rect id="Rectangle" fill="#E9EBEE" fill-rule="nonzero" x="242.362682" y="139.692" width="24.6875268" height="2.46666667"></rect>
        <rect id="Rectangle" fill="#D3D7DE" fill-rule="nonzero" x="299.966911" y="97.7586667" width="6.58334048" height="41.9333333"></rect>
        <rect id="Rectangle" fill="#E9EBEE" fill-rule="nonzero" x="314.779427" y="112.558667" width="6.58334048" height="27.1333333"></rect>
        <rect id="Rectangle" fill="#D3D7DE" fill-rule="nonzero" x="331.237779" y="94.4697778" width="6.58334048" height="45.2222222"></rect>
        <rect id="Rectangle" fill="#E9EBEE" fill-rule="nonzero" x="346.873212" y="117.492" width="6.58334048" height="22.2"></rect>
        <ellipse id="Oval" fill="#D3D7DE" fill-rule="nonzero" cx="300.789829" cy="156.136444" rx="2.46875268" ry="2.46666667"></ellipse>
        <rect id="Rectangle" fill="#E9EBEE" fill-rule="nonzero" x="306.550252" y="154.492" width="15.6354336" height="2.46666667"></rect>
        <ellipse id="Oval" fill="#E9EBEE" fill-rule="nonzero" cx="331.237779" cy="156.136444" rx="2.46875268" ry="2.46666667"></ellipse>
        <rect id="Rectangle" fill="#E9EBEE" fill-rule="nonzero" x="336.175284" y="154.492" width="18.1041863" height="2.46666667"></rect>
        <path d="M194.238463,222.72 C195.599923,220.628103 197.460699,218.90735 199.653261,217.712667 C206.680977,213.782444 217.666926,214.876 224.497142,218.962444 C227.954357,220.81828 231.87709,221.629588 235.787571,221.297556 C237.873861,221.010468 239.914811,220.457833 241.860702,219.653111 C243.30884,219.043213 244.652692,218.210951 245.843623,217.186444 C249.135294,214.407333 257.594886,207.887111 263.396455,207.887111 C267.999067,207.471924 272.623543,208.39718 276.711261,210.551111 C278.090373,211.273775 279.631127,211.633169 281.187933,211.595333 C283.837727,211.480222 287.573773,210.222222 290.923047,205.108 C291.589166,204.068026 292.154072,202.966702 292.610028,201.819111 C294.560677,196.964411 296.928559,192.28767 299.687119,187.841333 C302.394518,183.516444 306.023585,177.752667 312.187237,175.795778 C323.066207,172.334222 327.221941,187.627556 329.682464,192.355333 C329.682464,192.355333 351.999989,235.324667 360.130414,239.164444 L178.059904,239.164444 C178.059904,239.164444 189.086999,230.86 194.238463,222.72 Z" id="Path" fill="#E9EBEE" fill-rule="nonzero"></path>
        <path d="M146.813724,233.836444 C146.813724,233.836444 157.750299,226.354222 162.696033,215.928444 C162.696033,215.928444 173.147086,193.728444 181.540845,217.638667 C181.540845,217.638667 178.249175,229.972 173.60792,231.361556 C173.60792,231.361556 168.588123,235.152 165.173015,234.888889 C165.173015,234.888889 147.891746,232.644222 146.813724,233.836444 Z" id="Path" fill="#FFFFFF" fill-rule="nonzero"></path>
        <path d="M199.636802,229.355333 C203.128119,227.276542 206.501743,225.006486 209.74223,222.555556 C216.193904,217.622222 225.920789,215.977778 233.664444,220.023111 C234.943737,220.707979 236.160784,221.503068 237.301739,222.399333 C239.523617,224.109556 244.749143,227.990444 247.267271,228.697556 C247.267271,228.697556 238.058823,238.276444 227.673604,236.097556 C227.673604,236.097556 209.758688,231.665778 208.507854,233.918667 C208.507854,233.943333 200.780658,231.986444 199.636802,229.355333 Z" id="Path" fill="#FFFFFF" fill-rule="nonzero"></path>
        <path d="M266.688125,227.982222 C266.688125,227.982222 278.085533,223.558667 288.602426,228.615333 C288.610649,228.615333 280.101681,237.89 266.688125,227.982222 Z" id="Path" fill="#FFFFFF" fill-rule="nonzero"></path>
        <path d="M128.651934,239.180889 L360.155102,239.180889 C360.155102,239.180889 341.787582,221.363333 335.467575,195.981333 C335.391922,195.675272 335.278593,195.37976 335.130179,195.101556 C334.21674,193.358444 330.579445,188.022222 326.464857,199.697778 C326.188152,200.513571 325.863918,201.312492 325.493814,202.090444 C324.070167,205.050444 320.325892,212.195556 316.194846,214.925333 C314.94658,215.675653 313.447508,215.889202 312.039112,215.517333 C308.393587,214.604667 303.809936,213.774222 300.08212,214.818444 C298.202783,215.305417 296.64124,216.609125 295.827636,218.370444 C294.395759,221.659333 290.017838,229.437556 280.290952,230.177556 C280.290952,230.177556 274.102612,232.076889 266.671667,226.387111 C261.240411,222.226667 251.859151,225.671778 247.168521,227.826 C245.791507,228.455704 244.493361,229.244973 243.300808,230.177556 C238.305739,234.057449 231.980719,235.812422 225.698602,235.061556 C225.017174,234.983383 224.3448,234.840212 223.690683,234.634 C221.353597,233.910444 214.984215,232.118 210.598064,232.562 C208.140937,232.786132 205.671937,232.285889 203.496286,231.123111 C199.571012,229.106092 196.508003,225.739044 194.87211,221.642889 C194.87211,221.642889 186.206788,199.845778 180.018448,219.751778 C180.018448,219.751778 178.018758,228.919556 168.653956,232.167333 C166.749489,232.785087 164.740239,233.014362 162.745408,232.841556 L152.829252,232.076889 C152.829252,232.076889 136.700068,230.177556 128.651934,239.180889 Z" id="Path" fill="#D3D7DE" fill-rule="nonzero"></path>
        <rect id="Rectangle" fill="#FFFFFF" fill-rule="nonzero" x="86.0083459" y="82.1364444" width="13.166681" height="13.1555556" rx="2.46730783"></rect>
        <rect id="Rectangle" fill="#FFFFFF" fill-rule="nonzero" x="86.0083459" y="110.914222" width="13.166681" height="13.1555556" rx="2.46730783"></rect>
        <rect id="Rectangle" fill="#FFFFFF" fill-rule="nonzero" x="86.0083459" y="139.692" width="13.166681" height="13.1555556" rx="2.46730783"></rect>
        <rect id="Rectangle" fill="#FFFFFF" fill-rule="nonzero" x="86.0083459" y="168.469778" width="13.166681" height="13.1555556" rx="2.46730783"></rect>
        <g id="Group-2" transform="translate(121.000000, 127.000000)" fill-rule="nonzero">
            <rect id="Rectangle" stroke="#FF4702" stroke-width="1.64487189" fill="#FFFFFF" x="0" y="0" width="242" height="61" rx="8.22435945"></rect>
            <g id="Group-7" transform="translate(66.000000, 21.000000)" fill="#EFF0F3">
                <g id="Group-3" transform="translate(0.384877, 0.401360)">
                    <rect id="Rectangle" x="0" y="0" width="153.524801" height="18.4984798"></rect>
                </g>
            </g>
        </g>
        <g id="Group-9" transform="translate(383.000000, 219.000000)" fill-rule="nonzero">
            <g id="Group-11" transform="translate(-0.000000, 0.000000)">
                <path d="M18.6321166,48.5620075 L24.8282088,49.2486544 C24.8576373,48.9159113 25.0199151,48.6090526 25.2783955,48.3973754 C25.5368759,48.1856982 25.869759,48.087055 26.2018707,48.1237222 L26.4649123,45.6254962 C26.6387834,44.017549 27.7535872,42.6675042 29.2999168,42.1922616 L29.4022107,42.1922616 C30.9685129,41.7016808 32.6753564,42.2240439 33.6985576,43.5071174 L35.2475807,45.4647916 C35.5047855,45.2561729 35.834678,45.1588871 36.1639605,45.1945498 C36.4932429,45.2302125 36.7946423,45.39587 37.0011916,45.6547152 L41.8528487,41.6517098 C41.4327381,41.1065928 41.5164735,40.3274176 42.0428232,39.8839592 L40.2745988,37.6633139 C39.3133691,36.4367198 39.164486,34.7593711 39.8946498,33.3827278 L39.8946498,33.3827278 C40.6100921,31.9459305 42.1407772,31.1022429 43.7379805,31.264349 L46.5291446,31.5711487 C46.5983498,30.881606 47.2129539,30.3782886 47.9028066,30.4462165 L48.5750241,24.1202991 C48.2290084,24.0848076 47.9131803,23.9075365 47.7027129,23.6306799 C47.4922455,23.3538234 47.4059635,23.002144 47.4644038,22.6593483 L44.1909966,22.3379391 C42.7732633,22.1707948 41.5903342,21.1776302 41.1806311,19.810494 C41.1806311,19.7374465 41.1806311,19.6643989 41.1806311,19.5913514 C40.7167978,18.1790419 41.1629024,16.6267822 42.3058648,15.676003 L44.9362813,13.5284052 C44.5047842,12.9893402 44.5826415,12.2044892 45.1116424,11.7606546 L41.209858,6.83725015 C40.9526531,7.04586883 40.6227606,7.14315462 40.2934782,7.10749192 C39.9641957,7.07182921 39.6627964,6.90617179 39.456247,6.64732653 L36.6504694,8.92640992 C35.534858,9.83524274 33.9783825,9.97407323 32.7194582,9.27703813 L32.7194582,9.27703813 C31.4290079,8.58544233 30.684308,7.18301156 30.8343264,5.72692748 L31.0389143,2.05994075 C30.6928986,2.02444917 30.3770705,1.84717814 30.1666031,1.57032156 C29.9561357,1.29346497 29.8698538,0.941785613 29.928294,0.598989864 L23.7322019,-6.75794902e-14 C23.6629967,0.689542633 23.0483926,1.19286005 22.35854,1.12493218 L21.9785909,4.74809038 C21.8132253,6.19825385 20.7936264,7.40762338 19.3920147,7.81608724 L19.3920147,7.81608724 C18.0070389,8.23244831 16.5080418,7.7637756 15.6071377,6.63271703 L13.3566703,3.79847231 C13.0994654,4.00709099 12.7695729,4.10437678 12.4402905,4.06871407 C12.111008,4.03305137 11.8096087,3.86739395 11.6030593,3.60854869 L6.75140227,7.56772559 C7.18108273,8.11531571 7.09688044,8.90531006 6.56142774,9.35008568 L8.66576092,11.9944068 C9.59343458,13.1633034 9.70944611,14.7812305 8.95802941,16.0704598 C8.92463091,16.1416724 8.88553472,16.2100724 8.84112201,16.2749929 C8.16272127,17.528344 6.79549167,18.2492634 5.37774033,18.1011815 L2.04587947,17.7359438 C2.01278819,18.0660511 1.84894749,18.3691955 1.59089111,18.5777809 C1.33283472,18.7863664 1.0020216,18.8830476 0.672217542,18.8462664 L-5.63162418e-14,25.1283553 C0.344217362,25.1679128 0.657374442,25.3462064 0.867026172,25.62199 C1.0766779,25.8977736 1.16466051,26.247154 1.11062029,26.5893061 L4.1209858,26.9107153 C5.59287616,27.0806608 6.80451645,28.1463856 7.16057816,29.5842555 L7.29209898,30.0517597 C7.68799617,31.4361812 7.22275969,32.9233906 6.10841157,33.8356225 L3.7702636,35.7494682 C4.19211538,36.2992818 4.10855755,37.0832298 3.58028908,37.5318283 L7.48207351,42.4552328 C7.73927837,42.2466141 8.06917089,42.1493283 8.39845332,42.184991 C8.72773575,42.2206537 9.02913512,42.3863111 9.23568448,42.6451564 L11.3984714,40.8774058 C12.5272291,39.9394077 14.1235006,39.8108049 15.3879363,40.5559966 L15.9870868,40.9066248 C17.2627303,41.5776467 18.0114542,42.94802 17.886832,44.3836879 L17.5799501,47.1741041 C18.2465108,47.2793042 18.7109918,47.8919969 18.6321166,48.5620075 L18.6321166,48.5620075 Z" id="Path" fill="#3C4D6F"></path>
                <ellipse id="Oval" fill="#FFFFFF" cx="24.6382342" cy="24.0326421" rx="10.9600686" ry="10.9571317"></ellipse>
                <ellipse id="Oval" fill="#3C4D6F" cx="24.6382342" cy="24.0326421" rx="5.11469869" ry="5.1133281"></ellipse>
            </g>
        </g>
        <g id="Group-9-Copy" transform="translate(381.000000, 194.000000)" fill-rule="nonzero">
            <g id="Group-11" transform="translate(-0.000000, 0.000000)">
                <path d="M9.12973684,23.7953829 L12.1658219,24.1318398 C12.1802418,23.9687957 12.259758,23.8184349 12.3864134,23.7147131 C12.5130688,23.6109913 12.6761815,23.5626562 12.8389162,23.5806231 L12.9678066,22.3564924 C13.0530034,21.5685983 13.5992573,20.9070763 14.3569587,20.6742075 L14.4070828,20.6742075 C15.1745708,20.4338229 16.0109241,20.6897808 16.5122927,21.3184868 L17.2713139,22.2777471 C17.3973443,22.175524 17.5589916,22.1278539 17.72034,22.1453287 C17.8816884,22.1628034 18.0293741,22.2439755 18.1305833,22.3708097 L20.5078952,20.4093371 C20.302041,20.1422298 20.3430713,19.7604339 20.6009827,19.5431393 L19.7345527,18.4550232 C19.2635502,17.8539921 19.1905975,17.0320913 19.5483777,16.357536 L19.5483777,16.357536 C19.8989445,15.6535054 20.6489801,15.2400985 21.4316097,15.3195305 L22.7992801,15.4698623 C22.8331906,15.1319864 23.1343466,14.8853609 23.4723744,14.9186456 L23.801761,11.8189462 C23.6322133,11.8015553 23.4774575,11.7146925 23.3743285,11.5790328 C23.2711995,11.4433731 23.2289213,11.2710502 23.2575571,11.1030803 L21.6535876,10.9455898 C20.9588983,10.8636891 20.3792631,10.3770384 20.1785086,9.70714174 C20.1785086,9.67134845 20.1785086,9.63555515 20.1785086,9.59976185 C19.9512303,8.90773024 20.1698215,8.14712299 20.7298731,7.68124122 L22.0187771,6.62891833 C21.8073435,6.36477646 21.8454936,5.98019951 22.104704,5.76272058 L20.1928297,3.35025246 C20.0667993,3.45247561 19.905152,3.50014565 19.7438036,3.48267092 C19.5824552,3.4651962 19.4347696,3.38402406 19.3335604,3.25718989 L17.9587294,4.37394071 C17.4120798,4.81926878 16.6494068,4.88729572 16.032534,4.54574853 L16.032534,4.54574853 C15.4002133,4.2068666 15.0353104,3.51967555 15.1088194,2.80619437 L15.2090675,1.00937093 C15.0395198,0.991980059 14.884764,0.90511726 14.781635,0.769457537 C14.678506,0.633797815 14.6362278,0.461474935 14.6648636,0.293505023 L11.6287785,-3.31139491e-14 C11.594868,0.337875879 11.293712,0.584501406 10.9556842,0.551216751 L10.7695092,2.32656421 C10.6884801,3.03714428 10.1888766,3.62973533 9.5020869,3.82988262 L9.5020869,3.82988262 C8.82344876,4.03389953 8.08894019,3.80424991 7.64749721,3.25003123 L6.54476822,1.86125137 C6.41873784,1.96347452 6.25709051,2.01114455 6.09574212,1.99366983 C5.93439374,1.9761951 5.78670805,1.89502297 5.68549887,1.7681888 L3.308187,3.70818541 C3.51873042,3.97650456 3.4774713,4.36360178 3.21509948,4.58154182 L4.2462227,5.87725912 C4.70078278,6.45001842 4.75762843,7.24280272 4.38943426,7.87452501 C4.373069,7.9094192 4.35391186,7.9429352 4.33214964,7.97474624 C3.99973329,8.58888828 3.32979081,8.94213878 2.63509267,8.86957863 L1.00248091,8.69061215 C0.986266179,8.85236473 0.905984238,9.0009055 0.779536615,9.10311235 C0.653088992,9.20531921 0.490990569,9.25269303 0.329386584,9.23467024 L-2.75949576e-14,12.3128937 C0.168666502,12.3322768 0.322113466,12.4196407 0.42484281,12.5547747 C0.527572154,12.6899086 0.570683629,12.861105 0.544203922,13.0287596 L2.01928297,13.1862501 C2.74050922,13.2695233 3.33421295,13.7917285 3.50868318,14.4962847 L3.57312838,14.7253618 C3.767118,15.4037283 3.53915213,16.1324608 2.99312157,16.5794545 L1.8474291,17.5172388 C2.05413647,17.7866475 2.01319313,18.170782 1.75434159,18.3905952 L3.66621589,20.8030633 C3.79224627,20.7008402 3.9538936,20.6531702 4.11524199,20.6706449 C4.27659037,20.6881196 4.42427606,20.7692917 4.52548524,20.8961259 L5.58525077,20.0299282 C6.13834203,19.5703091 6.92051506,19.5072938 7.54008855,19.8724377 L7.83367224,20.0442455 C8.45873757,20.3730462 8.82561225,21.0445291 8.76454737,21.7480063 L8.61417523,23.1153102 C8.94078998,23.1668583 9.16838568,23.4670777 9.12973684,23.7953829 L9.12973684,23.7953829 Z" id="Path" fill="#3C4D6F"></path>
                <ellipse id="Oval" fill="#FFFFFF" cx="12.0727344" cy="11.7759942" rx="5.37043344" ry="5.36899433"></ellipse>
                <ellipse id="Oval" fill="#3C4D6F" cx="12.0727344" cy="11.7759942" rx="2.50620227" ry="2.50553069"></ellipse>
            </g>
        </g>
        <g id="Group-9-Copy-2" transform="translate(351.000000, 211.000000)" fill-rule="nonzero">
            <g id="Group-11" transform="translate(-0.000000, 0.000000)">
                <path d="M13.0424814,33.9934047 L17.3797458,34.4740575 C17.4003458,34.2411373 17.5139403,34.0263362 17.6948766,33.8781622 C17.8758128,33.7299882 18.108831,33.6609379 18.3413092,33.686605 L18.5254383,31.9378468 C18.6471481,30.8122838 19.4275107,29.8672524 20.5099414,29.5345826 L20.5815472,29.5345826 C21.6779587,29.1911761 22.8727491,29.5568302 23.5889899,30.4549817 L24.673306,31.8253536 C24.8533494,31.6793205 25.0842742,31.6112204 25.3147719,31.6361843 C25.5452696,31.6611482 25.7562492,31.7771084 25.9008337,31.9583001 L29.2969936,29.1561964 C29.0029161,28.7746145 29.061531,28.2291918 29.4299757,27.918771 L28.1922187,26.3643193 C27.5193579,25.5057034 27.4151398,24.3315594 27.9262544,23.367909 L27.9262544,23.367909 C28.427064,22.362151 29.4985435,21.7715696 30.6165858,21.8850439 L32.5704007,22.0998037 C32.6188443,21.6171239 33.0490672,21.2648017 33.531964,21.3123512 L34.0025163,16.8842091 C33.7603053,16.859365 33.5392256,16.7352753 33.3918984,16.5414757 C33.2445713,16.3476761 33.1841739,16.1015005 33.2250821,15.8615435 L30.9336971,15.6365571 C29.9412838,15.5195561 29.1132334,14.8243409 28.8264413,13.8673456 C28.8264413,13.8162123 28.8264413,13.765079 28.8264413,13.7139457 C28.501758,12.7253291 28.8140312,11.6387473 29.6141049,10.9732019 L31.4553964,9.46988349 C31.1533484,9.09253795 31.2078485,8.54314231 31.5781492,8.23245811 L28.8469001,4.78607502 C28.6668567,4.9321081 28.4359319,5.00020815 28.2054342,4.97524426 C27.9749365,4.95028037 27.763957,4.83432017 27.6193724,4.6531285 L25.6553282,6.24848684 C24.8744002,6.8846698 23.7848673,6.98185114 22.9036203,6.49392658 L22.9036203,6.49392658 C22.0003051,6.00980953 21.4790153,5.02810801 21.5840281,4.00884916 L21.7272396,1.4419585 C21.4850287,1.41711439 21.263949,1.29302468 21.1166218,1.09922507 C20.9692946,0.905425465 20.9088973,0.659249918 20.9498055,0.419292897 L16.612541,-4.73056423e-14 C16.5640974,0.482679835 16.1338745,0.835002023 15.6509777,0.787452515 L15.3850134,3.32366321 C15.2692575,4.33877762 14.5555382,5.18533628 13.5744101,5.47126098 L13.5744101,5.47126098 C12.604927,5.76271372 11.555629,5.43464283 10.9249962,4.64290184 L9.34966904,2.65893057 C9.16962564,2.80496364 8.93870088,2.8730637 8.70820318,2.8480998 C8.47770548,2.82313591 8.26672593,2.70717572 8.12214138,2.52598404 L4.72598151,5.29740783 C5.02675782,5.6807209 4.96781622,6.23371693 4.59299934,6.54505986 L6.06603254,8.3960846 C6.71540409,9.21431219 6.79661216,10.3468612 6.27062048,11.2493216 C6.24724153,11.2991705 6.21987419,11.3470505 6.1887853,11.3924948 C5.71390479,12.2698406 4.75684409,12.7744842 3.76441817,12.6708268 L1.43211561,12.4151604 C1.40895171,12.6462355 1.29426322,12.8584366 1.11362375,13.0044464 C0.932984291,13.1504562 0.701415111,13.2181331 0.470552271,13.1923863 L-3.94213686e-14,17.5898484 C0.24095215,17.6175386 0.460162102,17.7423442 0.60691831,17.9353927 C0.753674518,18.1284412 0.815262341,18.3730075 0.777434187,18.612514 L2.88469001,18.8375004 C3.91501325,18.9564622 4.76316144,19.7024696 5.01240463,20.7089785 L5.1044692,21.0362315 C5.38159723,22.0053265 5.0559317,23.046373 4.27588803,23.6849354 L2.63918448,25.0246273 C2.93448072,25.4094969 2.87599024,25.9582604 2.50620231,26.2722793 L5.23745137,29.7186624 C5.41749477,29.5726294 5.64841953,29.5045293 5.87891722,29.5294932 C6.10941492,29.5544571 6.32039448,29.6704173 6.46497903,29.851609 L7.97892981,28.6141836 C8.76906019,27.9575849 9.88645026,27.867563 10.7715552,28.3891971 L11.1909605,28.6346369 C12.083911,29.1043522 12.6080177,30.0636135 12.5207822,31.068581 L12.3059648,33.0218723 C12.7725573,33.0955124 13.0976941,33.5243972 13.0424814,33.9934047 L13.0424814,33.9934047 Z" id="Path" fill="#3C4D6F"></path>
                <ellipse id="Oval" fill="#FFFFFF" cx="17.2467637" cy="16.8228492" rx="7.6720479" ry="7.66999202"></ellipse>
                <ellipse id="Oval" fill="#3C4D6F" cx="17.2467637" cy="16.8228492" rx="3.58028902" ry="3.57932961"></ellipse>
            </g>
        </g>
        <circle id="Oval" fill="#FF4702" opacity="0.0977725074" cx="159.5" cy="157.5" r="14.5"></circle>
        <g id="world-wide-web" transform="translate(143.000000, 142.000000)" fill="#FF4702" fill-rule="nonzero">
            <path d="M27.659708,14.093149 C27.2509423,13.8818775 26.7481795,14.0421505 26.536908,14.4509717 L25.5672145,16.3277493 L24.6337422,14.4608603 C24.4926353,14.1785354 24.2040883,14.0002073 23.888431,14.0002073 C23.5727737,14.0002073 23.2842267,14.1785354 23.1431198,14.4608603 L22.2218138,16.3034167 L21.3005079,14.4608603 C21.151179,14.1620358 20.8384105,13.9816523 20.5041982,14.0017628 L20.4537552,14.0048738 C20.0824329,14.0276509 19.7831085,14.2903098 19.6967777,14.6327997 C19.6400016,14.4045842 19.4880617,14.2015347 19.2612351,14.0881492 C18.8497473,13.882433 18.3490955,14.0491503 18.1432682,14.4608048 L17.2219623,16.3034167 L16.3007118,14.4608603 C16.1594938,14.1785354 15.8710024,14.0002073 15.5553451,14.0002073 C15.2396878,14.0002073 14.9511963,14.1785354 14.8099783,14.4608603 L13.8887279,16.3034167 L12.9674774,14.4608603 C12.7616502,14.0492614 12.261054,13.8823775 11.8494551,14.0882047 C11.6226285,14.2015902 11.4706885,14.4046398 11.4139125,14.6327997 C11.3276372,14.2903098 11.0282572,14.0275954 10.6569349,14.0048183 L10.606492,14.0017073 C10.2729463,13.9811523 9.95956673,14.1619803 9.81018228,14.4608048 L8.8888763,16.3034167 L7.96762587,14.4608603 C7.66424598,13.8556005 6.78693869,13.8408232 6.4769479,14.4608603 L5.54347561,16.3278049 L4.57378217,14.4510828 C4.36256622,14.0422061 3.85985892,13.8820442 3.45098217,14.0932601 C3.04210542,14.3045316 2.88188795,14.8072389 3.09315946,15.2161157 L4.81533055,18.5493501 C5.12793239,19.1544432 5.99612884,19.1492211 6.30100867,18.539517 L7.2222591,16.6968495 L8.14356509,18.5394059 C8.45044487,19.1531099 9.32808548,19.1517211 9.63424306,18.5394059 L11.1869192,15.4339425 C11.2961382,15.327779 11.3764136,15.1915053 11.4145235,15.0375654 C11.4290231,15.0947304 11.4493558,15.1512287 11.4767995,15.2061715 L13.1434167,18.5394059 C13.4502964,19.1531099 14.3279371,19.1517211 14.6340946,18.5394059 L15.5553451,16.6968495 L16.4765955,18.5394059 C16.7834753,19.1531099 17.6611714,19.1517766 17.9672735,18.5394059 L19.6338907,15.206116 C19.6613343,15.1512287 19.681667,15.0947304 19.6961666,15.0375654 C19.7342766,15.1915608 19.814552,15.3278901 19.9238265,15.4340536 L21.4765026,18.5394059 C21.7832713,19.1531099 22.6610786,19.1517211 22.967125,18.5394059 L23.888431,16.6968495 L24.809737,18.5394059 C25.114228,19.1485545 25.98248,19.1548321 26.2953596,18.5492389 L28.0175307,15.215949 C28.2288022,14.8070723 28.0685847,14.304365 27.659708,14.093149 Z" id="Path"></path>
            <path d="M30.8144982,9.95806191 C28.4319983,4.14318725 22.6635611,0 16,0 C9.33474944,0 3.56737479,4.14462475 1.18556243,9.95799941 C0.468812472,10.4682494 0,11.3051243 0,12.2499993 L0,19.7499988 C0,20.6948738 0.468812472,21.5317487 1.18556243,22.0419987 C3.56793729,27.8566858 9.33631194,32 16,32 C22.6652486,32 28.4325608,27.8553733 30.8144982,22.0419362 C31.5311856,21.5316862 32,20.6948113 32,19.7499988 L32,12.2499993 C32,11.3051868 31.5311856,10.4683119 30.8144982,9.95806191 Z M28.5028108,9.43749944 L23.7098736,9.43749944 C23.1140611,6.88468709 22.1840612,4.68674972 21.0008737,3.04637482 C20.9181863,2.93181233 20.8344988,2.82068733 20.7499363,2.71231234 C24.0379986,3.90249977 26.8390609,6.29293712 28.5028108,9.43749944 Z M16.937499,2.03199988 C19.5028113,2.89331233 21.1069362,6.7768746 21.7803737,9.43749944 L16.937499,9.43749944 L16.937499,2.03199988 Z M15.0624991,2.03199988 L15.0624991,9.43749944 L10.2195619,9.43749944 C10.7580619,7.31006206 11.5444368,5.49543717 12.5198118,4.14324975 C13.1058117,3.3308748 13.9774367,2.39631236 15.0624991,2.03199988 Z M11.2500618,2.71231234 C11.1654993,2.82068733 11.0818118,2.93174983 10.9991243,3.04637482 C9.81593691,4.68674972 8.88587447,6.88468709 8.29012451,9.43749944 L3.49718729,9.43749944 C5.16093719,6.29293712 7.96193703,3.90249977 11.2500618,2.71231234 Z M3.49718729,22.5624987 L8.29012451,22.5624987 C8.83574947,24.900311 9.77306192,27.3946859 11.2500618,29.2876858 C7.96193703,28.0974983 5.16093719,25.707061 3.49718729,22.5624987 Z M15.0624991,29.9679982 C12.4971868,29.1066858 10.8929994,25.2231235 10.2195619,22.5624987 L15.0624991,22.5624987 L15.0624991,29.9679982 Z M16.937499,29.9679982 L16.937499,22.5499987 L21.7804362,22.5499987 C21.1059362,25.214561 19.4973738,29.1084983 16.937499,29.9679982 Z M20.7499363,29.2876858 C22.2267487,27.3949359 23.1641861,24.888311 23.7098736,22.5499987 L28.5028108,22.5499987 C26.8390609,25.694561 24.0380611,28.0974983 20.7499363,29.2876858 Z M30.1249982,19.7499988 C30.1249982,20.2669363 29.7044357,20.6874988 29.1874983,20.6874988 C28.5926858,20.6874988 3.49249979,20.6874988 2.81249983,20.6874988 C2.29556236,20.6874988 1.87499989,20.2669363 1.87499989,19.7499988 L1.87499989,12.2499993 C1.87499989,11.7330618 2.29556236,11.3124993 2.81249983,11.3124993 C3.52718729,11.3124993 28.5457483,11.3124993 29.1874983,11.3124993 C29.7044357,11.3124993 30.1249982,11.7330618 30.1249982,12.2499993 L30.1249982,19.7499988 Z" id="Shape"></path>
        </g>
        <rect id="Rectangle" fill="#3C4D6F" opacity="0.243396577" x="196" y="156" width="28" height="4" rx="2"></rect>
    </g>
</svg>