<svg width="16" height="17" viewBox="0 0 16 17" fill="none" xmlns="http://www.w3.org/2000/svg">
<g id="Delete1">
<path id="Fill 380" fill-rule="evenodd" clip-rule="evenodd" d="M11.3333 3.83341H13.9999C14.3679 3.83341 14.6666 4.13208 14.6666 4.50008C14.6666 4.86875 14.3679 5.16675 13.9999 5.16675H13.3333V13.8334C13.3333 14.9381 12.4379 15.8334 11.3333 15.8334H4.66659C3.56192 15.8334 2.66659 14.9381 2.66659 13.8334V5.16675H1.99992C1.63192 5.16675 1.33325 4.86875 1.33325 4.50008C1.33325 4.13208 1.63192 3.83341 1.99992 3.83341H4.66659V3.16675C4.66659 2.06275 5.56192 1.16675 6.66659 1.16675H9.33325C10.4379 1.16675 11.3333 2.06275 11.3333 3.16675V3.83341ZM9.99992 3.83341V3.16675C9.99992 2.79875 9.70125 2.50008 9.33325 2.50008H6.66658C6.29858 2.50008 5.99992 2.79875 5.99992 3.16675V3.83341H9.99992ZM11.9999 5.16675H3.99992V13.8334C3.99992 14.2021 4.29859 14.5001 4.66659 14.5001H11.3333C11.7013 14.5001 11.9999 14.2021 11.9999 13.8334V5.16675ZM5.99992 7.83341C5.99992 7.46541 6.29858 7.16675 6.66658 7.16675C7.03459 7.16675 7.33325 7.46541 7.33325 7.83341V11.8334C7.33325 12.2021 7.03459 12.5001 6.66658 12.5001C6.29858 12.5001 5.99992 12.2021 5.99992 11.8334V7.83341ZM8.66659 7.83341C8.66659 7.46541 8.96525 7.16675 9.33325 7.16675C9.70125 7.16675 9.99992 7.46541 9.99992 7.83341V11.8334C9.99992 12.2021 9.70125 12.5001 9.33325 12.5001C8.96525 12.5001 8.66659 12.2021 8.66659 11.8334V7.83341Z" fill="#828282"/>
</g>
</svg>
