<svg width="48" height="48" viewBox="0 0 48 48" fill="none" xmlns="http://www.w3.org/2000/svg">
<path d="M34.7371 14.5262C34.7371 13.1368 33.6003 12 32.2108 12H21.6422C21.2004 12 20.8422 12.3582 20.8422 12.8V17.5156C20.8422 17.9574 21.2004 18.3156 21.6422 18.3156H33.9371C34.379 18.3156 34.7371 17.9574 34.7371 17.5156V14.5262ZM12 32.2098C12 33.5992 13.1369 34.736 14.5263 34.736H17.5159C17.9577 34.736 18.3159 34.3779 18.3159 33.936V21.6418C18.3159 21.2 17.9577 20.8418 17.5159 20.8418H12.8C12.3582 20.8418 12 21.2 12 21.6418V32.2098ZM12 14.5262V17.5156C12 17.9574 12.3582 18.3156 12.8 18.3156H17.5159C17.9577 18.3156 18.3159 17.9574 18.3159 17.5156V12.8C18.3159 12.3582 17.9577 12 17.5159 12H14.5263C13.1369 12 12 13.1368 12 14.5262Z" fill="#1D91FF"/>
<path d="M26.8602 24.632C26.5038 24.632 26.3254 24.2012 26.5774 23.9492L30.6644 19.8624C30.8206 19.7062 31.0738 19.7062 31.23 19.8624L35.317 23.9492C35.569 24.2012 35.3905 24.632 35.0342 24.632H32.6104C32.3895 24.632 32.2104 24.8111 32.2104 25.032V27.1583C32.2104 29.9497 29.9493 32.2107 27.1577 32.2107H25.0313C24.8104 32.2107 24.6313 32.3898 24.6313 32.6107V35.0344C24.6313 35.3908 24.2005 35.5692 23.9485 35.3173L19.8615 31.2305C19.7053 31.0742 19.7053 30.821 19.8615 30.6648L23.9485 26.578C24.2005 26.326 24.6313 26.5045 24.6313 26.8608V29.2845C24.6313 29.5054 24.8104 29.6845 25.0313 29.6845H27.1577C28.5472 29.6845 29.684 28.5477 29.684 27.1583V25.032C29.684 24.8111 29.5049 24.632 29.284 24.632H26.8602Z" fill="#F25858"/>
<rect x="39.5" y="39.5" width="31" height="31" rx="2.7" transform="rotate(-180 39.5 39.5)" stroke="#1D91FF"/>
</svg>
