<svg width="50" height="43" viewBox="0 0 50 43" fill="none" xmlns="http://www.w3.org/2000/svg">
<path d="M35.686 30.9638L34.135 30.394C34.1284 30.3916 34.1224 30.3878 34.1175 30.3828C34.1126 30.3778 34.1088 30.3717 34.1064 30.3651L33.5422 28.7984C33.5183 28.732 33.4747 28.6746 33.4174 28.634C33.3601 28.5935 33.2918 28.5717 33.2218 28.5717C33.1518 28.5717 33.0835 28.5935 33.0261 28.634C32.9688 28.6746 32.9252 28.732 32.9013 28.7984L32.3371 30.3651C32.3348 30.3717 32.331 30.3778 32.326 30.3828C32.3211 30.3878 32.3151 30.3916 32.3085 30.394L30.7576 30.9638C30.6918 30.988 30.635 31.032 30.5948 31.0899C30.5546 31.1479 30.5331 31.2168 30.5331 31.2875C30.5331 31.3582 30.5546 31.4272 30.5948 31.4851C30.635 31.5431 30.6918 31.5871 30.7576 31.6112L32.3085 32.1811C32.3151 32.1835 32.3211 32.1873 32.326 32.1923C32.331 32.1973 32.3348 32.2034 32.3371 32.21L32.9013 33.7766C32.9252 33.8431 32.9688 33.9005 33.0261 33.9411C33.0835 33.9816 33.1518 34.0034 33.2218 34.0034C33.2918 34.0034 33.3601 33.9816 33.4174 33.9411C33.4747 33.9005 33.5183 33.8431 33.5422 33.7766L34.1064 32.21C34.1088 32.2034 34.1126 32.1973 34.1175 32.1923C34.1224 32.1873 34.1284 32.1835 34.135 32.1811L35.686 31.6112C35.7518 31.5871 35.8086 31.5431 35.8487 31.4851C35.8889 31.4272 35.9104 31.3582 35.9104 31.2875C35.9104 31.2168 35.8889 31.1479 35.8487 31.0899C35.8086 31.032 35.7518 30.988 35.686 30.9638ZM35.5858 31.3342L34.0348 31.9038C33.9879 31.9211 33.9454 31.9485 33.9102 31.9841C33.8749 32.0197 33.8478 32.0627 33.8307 32.11L33.2667 33.6767C33.263 33.6856 33.2567 33.6932 33.2487 33.6985C33.2407 33.7038 33.2314 33.7067 33.2218 33.7067C33.2122 33.7067 33.2028 33.7038 33.1948 33.6985C33.1868 33.6932 33.1805 33.6856 33.1768 33.6767L32.6129 32.11C32.5958 32.0627 32.5686 32.0197 32.5334 31.9841C32.4981 31.9485 32.4556 31.9211 32.4088 31.9038L30.8578 31.333C30.849 31.3292 30.8414 31.3229 30.8362 31.3148C30.8309 31.3067 30.8281 31.2972 30.8281 31.2875C30.8281 31.2779 30.8309 31.2684 30.8362 31.2603C30.8414 31.2522 30.849 31.2459 30.8578 31.2421L32.4088 30.6725C32.4556 30.6552 32.4981 30.6278 32.5334 30.5922C32.5686 30.5566 32.5958 30.5136 32.6129 30.4663L33.1768 28.8997C33.1805 28.8908 33.1868 28.8832 33.1948 28.8778C33.2028 28.8725 33.2122 28.8696 33.2218 28.8696C33.2314 28.8696 33.2407 28.8725 33.2487 28.8778C33.2567 28.8832 33.263 28.8908 33.2667 28.8997L33.8307 30.4663C33.8478 30.5136 33.8749 30.5566 33.9102 30.5922C33.9454 30.6278 33.9879 30.6552 34.0348 30.6725L35.5858 31.2421C35.5946 31.2459 35.6021 31.2522 35.6074 31.2603C35.6127 31.2684 35.6155 31.2779 35.6155 31.2875C35.6155 31.2972 35.6127 31.3067 35.6074 31.3148C35.6021 31.3229 35.5946 31.3292 35.5858 31.333V31.3342Z" fill="#F25858"/>
<path d="M35.5858 31.3342L34.0348 31.9038C33.9879 31.9211 33.9454 31.9485 33.9102 31.9841C33.8749 32.0197 33.8478 32.0627 33.8307 32.11L33.2667 33.6767C33.263 33.6856 33.2567 33.6932 33.2487 33.6985C33.2407 33.7038 33.2314 33.7067 33.2218 33.7067C33.2122 33.7067 33.2028 33.7038 33.1948 33.6985C33.1868 33.6932 33.1805 33.6856 33.1768 33.6767L32.6129 32.11C32.5958 32.0627 32.5686 32.0197 32.5334 31.9841C32.4981 31.9485 32.4556 31.9211 32.4088 31.9038L30.8578 31.333C30.849 31.3292 30.8414 31.3229 30.8362 31.3148C30.8309 31.3067 30.8281 31.2972 30.8281 31.2875C30.8281 31.2779 30.8309 31.2684 30.8362 31.2603C30.8414 31.2522 30.849 31.2459 30.8578 31.2421L32.4088 30.6725C32.4556 30.6552 32.4981 30.6278 32.5334 30.5922C32.5686 30.5566 32.5958 30.5136 32.6129 30.4663L33.1768 28.8997C33.1805 28.8908 33.1868 28.8832 33.1948 28.8778C33.2028 28.8725 33.2122 28.8696 33.2218 28.8696C33.2314 28.8696 33.2407 28.8725 33.2487 28.8778C33.2567 28.8832 33.263 28.8908 33.2667 28.8997L33.8307 30.4663C33.8478 30.5136 33.8749 30.5566 33.9102 30.5922C33.9454 30.6278 33.9879 30.6552 34.0348 30.6725L35.5858 31.2421C35.5946 31.2459 35.6021 31.2522 35.6074 31.2603C35.6127 31.2684 35.6155 31.2779 35.6155 31.2875C35.6155 31.2972 35.6127 31.3067 35.6074 31.3148C35.6021 31.3229 35.5946 31.3292 35.5858 31.333V31.3342Z" fill="#F25858"/>
<path d="M31.173 33.8184L30.2867 33.4928C30.283 33.4914 30.2796 33.4892 30.2767 33.4864C30.2739 33.4835 30.2717 33.4801 30.2704 33.4763L29.948 32.581C29.9343 32.5431 29.9094 32.5103 29.8767 32.4871C29.8439 32.4639 29.8049 32.4515 29.7649 32.4515C29.7249 32.4515 29.6859 32.4639 29.6531 32.4871C29.6203 32.5103 29.5954 32.5431 29.5818 32.581L29.2594 33.4763C29.258 33.4801 29.2559 33.4835 29.253 33.4864C29.2502 33.4892 29.2468 33.4914 29.243 33.4928L28.3568 33.8184C28.3192 33.8322 28.2867 33.8574 28.2638 33.8905C28.2408 33.9235 28.2285 33.963 28.2285 34.0034C28.2285 34.0438 28.2408 34.0832 28.2638 34.1163C28.2867 34.1494 28.3192 34.1745 28.3568 34.1883L29.243 34.514C29.2468 34.5153 29.2502 34.5175 29.253 34.5204C29.2559 34.5232 29.258 34.5267 29.2594 34.5305L29.5818 35.4257C29.5954 35.4637 29.6203 35.4965 29.6531 35.5197C29.6859 35.5428 29.7249 35.5553 29.7649 35.5553C29.8049 35.5553 29.8439 35.5428 29.8767 35.5197C29.9094 35.4965 29.9343 35.4637 29.948 35.4257L30.2704 34.5305C30.2717 34.5267 30.2739 34.5232 30.2767 34.5204C30.2796 34.5175 30.283 34.5153 30.2867 34.514L31.173 34.1883C31.2106 34.1745 31.2431 34.1494 31.266 34.1163C31.289 34.0832 31.3013 34.0438 31.3013 34.0034C31.3013 33.963 31.289 33.9235 31.266 33.8905C31.2431 33.8574 31.2106 33.8322 31.173 33.8184ZM31.1157 34.03L30.2295 34.3555C30.2027 34.3654 30.1784 34.3811 30.1583 34.4014C30.1381 34.4218 30.1226 34.4463 30.1128 34.4733L29.7906 35.3686C29.7884 35.3737 29.7849 35.378 29.7803 35.3811C29.7757 35.3841 29.7704 35.3857 29.7649 35.3857C29.7594 35.3857 29.7541 35.3841 29.7495 35.3811C29.7449 35.378 29.7413 35.3737 29.7392 35.3686L29.4169 34.4733C29.4072 34.4463 29.3917 34.4218 29.3715 34.4014C29.3514 34.3811 29.3271 34.3654 29.3003 34.3555L28.414 34.0293C28.409 34.0272 28.4047 34.0235 28.4017 34.0189C28.3987 34.0143 28.3971 34.0089 28.3971 34.0034C28.3971 33.9978 28.3987 33.9924 28.4017 33.9878C28.4047 33.9832 28.409 33.9796 28.414 33.9774L29.3003 33.6519C29.3271 33.642 29.3514 33.6264 29.3715 33.606C29.3917 33.5857 29.4072 33.5611 29.4169 33.5341L29.7392 32.6389C29.7413 32.6338 29.7449 32.6294 29.7495 32.6264C29.7541 32.6233 29.7594 32.6217 29.7649 32.6217C29.7704 32.6217 29.7757 32.6233 29.7803 32.6264C29.7849 32.6294 29.7884 32.6338 29.7906 32.6389L30.1128 33.5341C30.1226 33.5611 30.1381 33.5857 30.1583 33.606C30.1784 33.6264 30.2027 33.642 30.2295 33.6519L31.1157 33.9774C31.1208 33.9796 31.1251 33.9832 31.1281 33.9878C31.1311 33.9924 31.1327 33.9978 31.1327 34.0034C31.1327 34.0089 31.1311 34.0143 31.1281 34.0189C31.1251 34.0235 31.1208 34.0279 31.1157 34.03Z" fill="#F25858"/>
<path d="M31.1157 34.03L30.2295 34.3555C30.2027 34.3654 30.1784 34.3811 30.1583 34.4014C30.1381 34.4218 30.1226 34.4463 30.1128 34.4733L29.7906 35.3686C29.7884 35.3737 29.7849 35.378 29.7803 35.3811C29.7757 35.3841 29.7704 35.3857 29.7649 35.3857C29.7594 35.3857 29.7541 35.3841 29.7495 35.3811C29.7449 35.378 29.7413 35.3737 29.7392 35.3686L29.4169 34.4733C29.4072 34.4463 29.3917 34.4218 29.3715 34.4014C29.3514 34.3811 29.3271 34.3654 29.3003 34.3555L28.414 34.0293C28.409 34.0272 28.4047 34.0235 28.4017 34.0189C28.3987 34.0143 28.3971 34.0089 28.3971 34.0034C28.3971 33.9978 28.3987 33.9924 28.4017 33.9878C28.4047 33.9832 28.409 33.9796 28.414 33.9774L29.3003 33.6519C29.3271 33.642 29.3514 33.6264 29.3715 33.606C29.3917 33.5857 29.4072 33.5611 29.4169 33.5341L29.7392 32.6389C29.7413 32.6338 29.7449 32.6294 29.7495 32.6264C29.7541 32.6233 29.7594 32.6217 29.7649 32.6217C29.7704 32.6217 29.7757 32.6233 29.7803 32.6264C29.7849 32.6294 29.7884 32.6338 29.7906 32.6389L30.1128 33.5341C30.1226 33.5611 30.1381 33.5857 30.1583 33.606C30.1784 33.6264 30.2027 33.642 30.2295 33.6519L31.1157 33.9774C31.1208 33.9796 31.1251 33.9832 31.1281 33.9878C31.1311 33.9924 31.1327 33.9978 31.1327 34.0034C31.1327 34.0089 31.1311 34.0143 31.1281 34.0189C31.1251 34.0235 31.1208 34.0279 31.1157 34.03Z" fill="#F25858"/>
<path d="M11.0586 34.4578L11.7569 31.3152C11.1669 29.5911 8.99278 26.5858 10.7094 21.8874C12.426 17.189 18.357 14.7448 23.2798 16.6497C25.6596 17.5706 27.6889 19.3294 28.7204 21.6038C29.8227 24.0341 29.7856 27.0532 27.8191 30.2677C24.0124 36.4903 16.529 35.0398 13.852 33.0611L11.0586 34.4578Z" fill="#0787FF"/>
<path d="M11.7569 31.3152L12.5595 31.4936L12.6097 31.2678L12.5348 31.049L11.7569 31.3152ZM11.0586 34.4578L10.256 34.2795L9.88128 35.9657L11.4262 35.1932L11.0586 34.4578ZM13.852 33.0611L14.3407 32.3999L13.9352 32.1003L13.4843 32.3257L13.852 33.0611ZM27.8191 30.2677L27.1178 29.8386L27.8191 30.2677ZM23.2798 16.6497L22.9831 17.4165V17.4165L23.2798 16.6497ZM36.5995 37.2998L35.9399 36.8091L35.7153 37.1109L35.7969 37.4782L36.5995 37.2998ZM37.2979 40.4424L36.9302 41.1778L38.4752 41.9503L38.1005 40.2641L37.2979 40.4424ZM34.5045 39.0457L34.8721 38.3104L34.5093 38.129L34.1446 38.3065L34.5045 39.0457ZM19.839 34.8556L20.5172 34.3909L19.1377 35.2846L19.839 34.8556ZM28.7204 21.6038L27.9717 21.9434L28.7204 21.6038ZM10.9543 31.1369L10.256 34.2795L11.8611 34.6362L12.5595 31.4936L10.9543 31.1369ZM11.4262 35.1932L14.2197 33.7965L13.4843 32.3257L10.6909 33.7224L11.4262 35.1932ZM13.3633 33.7223C14.8714 34.837 17.6069 35.7393 20.4633 35.5604C23.3657 35.3787 26.4546 34.0737 28.5204 30.6967L27.1178 29.8386C25.3769 32.6843 22.8208 33.7653 20.3606 33.9193C17.8543 34.0762 15.5096 33.2639 14.3407 32.3999L13.3633 33.7223ZM23.5765 15.883C18.2722 13.8304 11.8286 16.4282 9.93716 21.6053L11.4816 22.1696C13.0233 17.9498 18.4419 15.6592 22.9831 17.4165L23.5765 15.883ZM9.93716 21.6053C8.09094 26.6584 10.4631 30.0738 10.9791 31.5814L12.5348 31.049C11.8707 29.1084 9.89461 26.5132 11.4816 22.1696L9.93716 21.6053ZM35.7969 37.4782L36.4953 40.6208L38.1005 40.2641L37.4021 37.1215L35.7969 37.4782ZM37.6656 39.7071L34.8721 38.3104L34.1368 39.7811L36.9302 41.1778L37.6656 39.7071ZM34.1446 38.3065C31.7045 39.4945 29.1833 39.9465 26.8619 39.4174C24.5592 38.8926 22.3463 37.3787 20.5403 34.4266L19.1377 35.2846C21.1384 38.5551 23.6981 40.3828 26.4965 41.0206C29.2761 41.6541 32.1843 41.0898 34.8644 39.7849L34.1446 38.3065ZM37.5654 27.4337C38.5341 30.3395 38.3302 33.5964 35.9399 36.8091L37.2591 37.7906C39.9923 34.117 40.2518 30.293 39.1254 26.9137L37.5654 27.4337ZM28.7757 22.4241C33.8523 22.0821 36.6411 24.6605 37.5654 27.4337L39.1254 26.9137C37.9547 23.4016 34.4582 20.3932 28.6652 20.7835L28.7757 22.4241ZM28.5204 30.6967C30.6169 27.2697 30.6933 23.9634 29.4692 21.2642L27.9717 21.9434C28.952 24.1049 28.9542 26.8367 27.1178 29.8386L28.5204 30.6967ZM29.4692 21.2642C28.3369 18.7676 26.1286 16.8706 23.5765 15.883L22.9831 17.4165C25.1906 18.2707 27.041 19.8913 27.9717 21.9434L29.4692 21.2642ZM34.1446 38.3065C31.6869 39.5031 29.3106 39.9843 27.0739 39.4783C24.8487 38.9749 22.6219 37.4626 20.5172 34.3909L19.1608 35.3203C21.4316 38.6346 23.9775 40.4637 26.7111 41.0821C29.4331 41.6979 32.2018 41.0812 34.8644 39.7849L34.1446 38.3065Z" fill="#0787FF"/>
<path d="M19.9463 21.25C20.4838 21.25 20.9569 21.3373 21.3657 21.512C21.7745 21.6867 22.0887 21.9297 22.3082 22.241C22.5353 22.5524 22.6489 22.9093 22.6489 23.3118C22.6489 23.9041 22.418 24.4243 21.9562 24.8723C21.502 25.3204 20.8963 25.6811 20.1393 25.9545L20.3551 27.1391H19.265L18.9584 25.6925C20.0712 25.009 20.6276 24.2117 20.6276 23.3004C20.6276 22.9055 20.533 22.6131 20.3437 22.4233C20.1545 22.2258 19.9046 22.1271 19.5943 22.1271C19.3596 22.1271 19.1438 22.1803 18.947 22.2866C18.7502 22.3853 18.595 22.5296 18.4814 22.7194C18.6934 22.7878 18.8713 22.9055 19.0151 23.0726C19.1665 23.232 19.2422 23.4257 19.2422 23.6535C19.2422 23.9269 19.14 24.1547 18.9356 24.337C18.7388 24.5192 18.5041 24.6103 18.2316 24.6103C18.0424 24.6103 17.8569 24.561 17.6752 24.4623C17.4935 24.3635 17.3459 24.2193 17.2323 24.0294C17.1188 23.8396 17.062 23.6155 17.062 23.3573C17.062 22.9852 17.1794 22.6397 17.414 22.3208C17.6563 21.9942 17.9932 21.736 18.4247 21.5462C18.8637 21.3487 19.3709 21.25 19.9463 21.25ZM21.0137 29.2009C21.0137 29.5426 20.9077 29.816 20.6957 30.0211C20.4913 30.2261 20.215 30.3286 19.8668 30.3286C19.5261 30.3286 19.2498 30.2261 19.0378 30.0211C18.8335 29.8084 18.7313 29.5351 18.7313 29.2009C18.7313 28.8592 18.8335 28.5858 19.0378 28.3808C19.2422 28.1757 19.5186 28.0732 19.8668 28.0732C20.215 28.0732 20.4913 28.1757 20.6957 28.3808C20.9077 28.5858 21.0137 28.8592 21.0137 29.2009Z" fill="white"/>
<path d="M1 14.25H0.75V14V6C0.75 3.65279 2.65279 1.75 5 1.75H45C47.3472 1.75 49.25 3.65279 49.25 6V14V14.25H49H1Z" fill="#2D3748" stroke="white" stroke-width="0.5"/>
<path d="M8.32516 9.01953V8.03125H9.75484C9.97099 8.03125 10.1455 7.99609 10.2783 7.92578C10.4137 7.85547 10.5127 7.75911 10.5752 7.63672C10.6377 7.51432 10.6689 7.3737 10.6689 7.21484C10.6689 7.05599 10.6377 6.90755 10.5752 6.76953C10.5127 6.62891 10.4137 6.51693 10.2783 6.43359C10.1455 6.34766 9.97099 6.30469 9.75484 6.30469H8.74703V11H7.51656V5.3125H9.75484C10.2054 5.3125 10.5921 5.39453 10.915 5.55859C11.2379 5.72266 11.4853 5.94792 11.6572 6.23438C11.8291 6.51823 11.915 6.84245 11.915 7.20703C11.915 7.57682 11.8291 7.89714 11.6572 8.16797C11.4853 8.4388 11.2379 8.64844 10.915 8.79688C10.5921 8.94531 10.2054 9.01953 9.75484 9.01953H8.32516ZM15.1608 5.3125C15.6009 5.3125 15.9785 5.37891 16.2936 5.51172C16.6113 5.64193 16.8548 5.83464 17.0241 6.08984C17.1933 6.34245 17.278 6.65625 17.278 7.03125C17.278 7.34375 17.2259 7.60938 17.1217 7.82812C17.0202 8.04688 16.8769 8.22786 16.692 8.37109C16.5071 8.51432 16.2897 8.63021 16.0397 8.71875L15.6491 8.94141H13.8248L13.817 7.94922H15.1569C15.3548 7.94922 15.5202 7.91667 15.653 7.85156C15.7858 7.78385 15.8847 7.6888 15.9498 7.56641C16.0149 7.44401 16.0475 7.29948 16.0475 7.13281C16.0475 6.8776 15.9746 6.67578 15.8288 6.52734C15.6855 6.37891 15.4629 6.30469 15.1608 6.30469H14.2467V11H13.0202V5.3125H15.1608ZM14.8873 8.47266L16.1842 8.46484L17.485 10.9414V11H16.1686L14.8873 8.47266ZM22.3011 11H19.2972V10.0117H22.3011V11ZM19.6917 11H18.4613V5.3125H19.6917V11ZM21.9105 8.55469H19.2972V7.59766H21.9105V8.55469ZM22.2972 6.30469H19.2972V5.3125H22.2972V6.30469ZM26.7891 5.3125H28.1523L26.1875 11H25.2852L25.4766 9.73828L26.7891 5.3125ZM25.6016 9.73828L25.8008 11H24.8984L22.9375 5.3125H24.3008L25.6016 9.73828ZM30.2809 11H29.0544V5.3125H30.2809V11ZM35.4955 11H32.4916V10.0117H35.4955V11ZM32.8861 11H31.6556V5.3125H32.8861V11ZM35.1048 8.55469H32.4916V7.59766H35.1048V8.55469ZM35.4916 6.30469H32.4916V5.3125H35.4916V6.30469ZM38.9678 5.3125H39.6241L39.7998 5.98047L38.6045 11H37.8936L37.8467 10.2461L38.9678 5.3125ZM38.2608 10.2578L38.1475 11H37.3623L36.1123 5.3125H37.335L38.2608 10.2578ZM41.6358 5.3125H42.8545L41.6084 11H40.8194L40.7217 10.2383L41.6358 5.3125ZM41.1358 10.2695L41.0772 11H40.3663L39.1631 5.97656L39.3545 5.3125H40.003L41.1358 10.2695Z" fill="white"/>
</svg>
