<svg width="48" height="48" viewBox="0 0 48 48" fill="none" xmlns="http://www.w3.org/2000/svg">
<path d="M40.2 24C41.1941 24 42.0093 23.1921 41.9101 22.203C41.7028 20.1374 41.1393 18.1186 40.2402 16.2375C39.0816 13.8137 37.3953 11.68 35.3048 9.99279C33.2143 8.30561 30.7726 7.10774 28.1589 6.48705C25.5452 5.86635 22.8257 5.83856 20.1998 6.40573C17.5739 6.97289 15.1083 8.12062 12.9838 9.76474C10.8592 11.4089 9.12963 13.5077 7.92183 15.9073C6.71402 18.3069 6.05865 20.9464 6.00376 23.6322C5.96116 25.7168 6.2811 27.7882 6.94485 29.7552C7.26269 30.6971 8.33866 31.0965 9.24415 30.6862L10.5979 30.0728L11.9516 29.4594C12.8571 29.0491 13.2433 27.984 12.9801 27.0253C12.6897 25.9672 12.5522 24.8698 12.5748 23.7665C12.6096 22.0613 13.0257 20.3856 13.7925 18.8622C14.5593 17.3388 15.6574 16.0063 17.0062 14.9625C18.355 13.9187 19.9203 13.1901 21.5874 12.83C23.2544 12.4699 24.981 12.4876 26.6403 12.8816C28.2997 13.2757 29.8498 14.0362 31.177 15.1073C32.5042 16.1784 33.5748 17.5331 34.3103 19.0718C34.7862 20.0674 35.114 21.1238 35.2861 22.2074C35.4421 23.1892 36.2335 24 37.2276 24H40.2Z" fill="#7FC1FF"/>
<path d="M42 24C42 20.4399 40.9443 16.9598 38.9665 13.9997C36.9886 11.0397 34.1774 8.73255 30.8883 7.37017C27.5992 6.00779 23.98 5.65133 20.4884 6.34586C16.9967 7.0404 13.7894 8.75473 11.2721 11.2721L15.9195 15.9195C17.5176 14.3213 19.5538 13.2329 21.7706 12.792C23.9873 12.351 26.285 12.5773 28.3732 13.4423C30.4613 14.3072 32.246 15.7719 33.5017 17.6512C34.7574 19.5304 35.4276 21.7398 35.4276 24H42Z" fill="#0787FF"/>
<path d="M38.1724 31.8477C39.0421 32.3292 40.1466 32.0174 40.539 31.104C41.8012 28.1653 42.262 24.9323 41.8574 21.738C41.3771 17.9462 39.7023 14.4058 37.0756 11.6294L32.3013 16.1463C33.9689 17.909 35.0322 20.1567 35.3371 22.5639C35.5662 24.3728 35.3582 26.2012 34.742 27.899C34.4028 28.8335 34.7024 29.9262 35.572 30.4078L38.1724 31.8477Z" fill="#0064C1"/>
<path d="M28.9442 15.9756C29.4169 16.2047 24.2209 25.3425 24.2209 25.3425C24.2209 25.3425 23.7241 26.5153 22.3171 25.6257C20.9101 24.736 21.8939 23.7435 21.8939 23.7435C21.8939 23.7435 28.4714 15.7464 28.9442 15.9756Z" fill="#E23F3F"/>
</svg>
