<svg width="48" height="48" viewBox="0 0 48 48" fill="none" xmlns="http://www.w3.org/2000/svg">
<path d="M2 23.5369C2 23.5369 9.10526 26.4362 10.8816 26.4362C12.6579 26.4362 17.6041 17.7382 19.1711 17.7382C20.738 17.7382 25.0921 20.6375 26.8684 20.6375C28.6447 20.6375 34.1842 10.3214 36.3421 10.0067C38.5 9.69196 47 20.6375 47 20.6375V38.5656V39H2V23.5369Z" fill="#F25858"/>
<path d="M2 26.2087C2 26.2087 9.10526 28.607 10.8816 28.607C12.6579 28.607 17.6041 21.4119 19.1711 21.4119C20.738 21.4119 25.0921 23.8103 26.8684 23.8103C28.6447 23.8103 35.1579 15.4713 36.3421 15.0163C37.5263 14.5612 47 23.8103 47 23.8103V38.6407V39H2V26.2087Z" fill="#FF8900"/>
<path d="M2 29.4065C2 29.4065 9.10526 31.2053 10.8816 31.2053C12.6579 31.2053 17.6041 25.8089 19.1711 25.8089C20.738 25.8089 25.0921 27.6077 26.8684 27.6077C28.6447 27.6077 35.1579 21.3534 36.3421 21.0122C37.5263 20.6709 47 27.6077 47 27.6077V38.7305V39H2V29.4065Z" fill="#005EB7"/>
</svg>
