<svg xmlns="http://www.w3.org/2000/svg" width="232" height="137" viewBox="0 0 232 137">
    <g fill="none" fill-rule="evenodd">
        <path d="M-32-18h300v174H-32z"/>
        <path stroke="#3C4D6F" stroke-width=".5" d="M115.539 1l-.078 135"/>
        <path fill="#E9EBEE" fill-rule="nonzero" d="M197.305 77.697H163.13c-9.438 0-17.087-7.696-17.087-17.048V43.6c0-9.47 7.649-17.166 17.087-17.166h68.348V43.6c0 18.823-15.3 34.096-34.173 34.096M90.403 99.699v22.552h-44.96C20.62 122.25.481 102.057.481 77.147h67.441c12.489 0 22.48 10.095 22.48 22.552" opacity=".4"/>
        <g fill="#FB043D" fill-rule="nonzero" opacity=".1">
            <path d="M149.68 8.75c0 .32-.256.577-.573.577a.575.575 0 0 1-.572-.577c0-.318.257-.576.572-.576.317 0 .573.258.573.576M155.885 8.75c0 .32-.256.577-.573.577a.574.574 0 0 1-.573-.577.574.574 0 1 1 1.146 0M162.09 8.75a.574.574 0 0 1-1.147 0 .574.574 0 1 1 1.146 0M168.293 8.75c0 .32-.257.577-.573.577a.574.574 0 0 1-.573-.577.574.574 0 1 1 1.146 0M174.497 8.75c0 .32-.257.577-.573.577a.574.574 0 0 1-.573-.577.574.574 0 1 1 1.146 0M180.701 8.75c0 .32-.257.577-.573.577a.574.574 0 0 1-.573-.577.574.574 0 1 1 1.146 0M186.905 8.75c0 .32-.257.577-.573.577a.575.575 0 0 1-.573-.577.574.574 0 0 1 1.146 0M193.11 8.75a.574.574 0 0 1-1.146 0 .574.574 0 1 1 1.145 0M199.313 8.75c0 .32-.257.577-.573.577a.574.574 0 0 1-.573-.577.574.574 0 1 1 1.146 0M205.517 8.75c0 .32-.257.577-.573.577a.574.574 0 0 1-.573-.577.574.574 0 1 1 1.146 0M149.68 13.63a.575.575 0 0 1-.573.577.575.575 0 0 1 0-1.153c.317 0 .573.258.573.576M155.885 13.63a.575.575 0 0 1-.573.577.575.575 0 0 1-.573-.577.574.574 0 1 1 1.146 0M162.09 13.63a.576.576 0 0 1-.574.577.575.575 0 0 1-.573-.577.574.574 0 1 1 1.146 0M168.293 13.63a.575.575 0 0 1-.573.577.575.575 0 0 1-.573-.577.574.574 0 1 1 1.146 0M174.497 13.63a.576.576 0 0 1-.573.577.575.575 0 0 1-.573-.577.574.574 0 1 1 1.146 0M180.701 13.63a.575.575 0 0 1-.573.577.575.575 0 0 1-.573-.577.574.574 0 1 1 1.146 0M186.905 13.63a.575.575 0 0 1-.573.577.575.575 0 0 1 0-1.153c.316 0 .573.258.573.576M193.11 13.63a.575.575 0 0 1-.574.577.575.575 0 0 1-.573-.577.574.574 0 1 1 1.146 0M199.313 13.63a.575.575 0 0 1-.573.577.575.575 0 0 1-.573-.577.574.574 0 1 1 1.146 0M205.517 13.63a.575.575 0 0 1-.573.577.575.575 0 0 1-.573-.577.574.574 0 1 1 1.146 0M149.68 18.51a.574.574 0 1 1-1.145 0c0-.318.257-.576.572-.576.317 0 .573.258.573.576M155.885 18.51a.574.574 0 1 1-1.146 0 .574.574 0 1 1 1.146 0M162.09 18.51a.574.574 0 0 1-1.147 0 .574.574 0 1 1 1.146 0M168.293 18.51a.574.574 0 0 1-1.146 0 .574.574 0 1 1 1.146 0M174.497 18.51a.574.574 0 0 1-1.147 0 .574.574 0 1 1 1.147 0M180.701 18.51a.574.574 0 0 1-1.146 0 .574.574 0 1 1 1.146 0M186.905 18.51a.574.574 0 1 1-1.146 0 .574.574 0 0 1 1.146 0M193.11 18.51a.574.574 0 1 1-1.147 0 .574.574 0 1 1 1.146 0M199.313 18.51a.574.574 0 1 1-1.146 0 .574.574 0 1 1 1.146 0M205.517 18.51a.574.574 0 0 1-1.146 0 .574.574 0 1 1 1.146 0M149.68 23.39a.574.574 0 1 1-1.145 0c0-.318.257-.576.572-.576.317 0 .573.258.573.576M155.885 23.39a.574.574 0 1 1-1.146 0 .574.574 0 1 1 1.146 0M162.09 23.39a.574.574 0 0 1-1.147 0 .574.574 0 1 1 1.146 0M168.293 23.39a.574.574 0 0 1-1.146 0 .574.574 0 1 1 1.146 0M174.497 23.39a.574.574 0 0 1-1.147 0 .574.574 0 1 1 1.147 0M180.701 23.39a.574.574 0 0 1-1.146 0 .574.574 0 1 1 1.146 0M186.905 23.39a.574.574 0 1 1-1.146 0 .574.574 0 0 1 1.146 0M193.11 23.39a.574.574 0 1 1-1.147 0 .574.574 0 1 1 1.146 0M199.313 23.39a.574.574 0 1 1-1.146 0 .574.574 0 1 1 1.146 0M205.517 23.39a.574.574 0 0 1-1.146 0 .574.574 0 1 1 1.146 0M149.68 28.27a.574.574 0 1 1-1.145 0c0-.318.257-.576.572-.576.317 0 .573.258.573.577M155.885 28.27a.574.574 0 1 1-1.146 0c0-.318.256-.576.573-.576.317 0 .573.258.573.577M162.09 28.27a.574.574 0 0 1-1.147 0c0-.318.256-.576.573-.576.316 0 .573.258.573.577M168.293 28.27a.574.574 0 0 1-1.146 0c0-.318.256-.576.573-.576.316 0 .573.258.573.577M174.497 28.27a.574.574 0 0 1-1.147 0c0-.318.257-.576.574-.576.316 0 .573.258.573.577M180.701 28.27a.574.574 0 0 1-1.146 0c0-.318.256-.576.573-.576.316 0 .573.258.573.577M186.905 28.27a.574.574 0 1 1-1.146 0c0-.318.257-.576.573-.576.316 0 .573.258.573.577M193.11 28.27a.574.574 0 1 1-1.147 0c0-.318.257-.576.573-.576.317 0 .573.258.573.577M199.313 28.27a.574.574 0 1 1-1.146 0c0-.318.256-.576.573-.576.316 0 .573.258.573.577M205.517 28.27a.574.574 0 0 1-1.146 0c0-.318.257-.576.573-.576.316 0 .573.258.573.577M149.68 33.15a.574.574 0 1 1-1.145 0c0-.318.257-.576.572-.576.317 0 .573.258.573.577M155.885 33.15a.574.574 0 1 1-1.146 0c0-.318.256-.576.573-.576.317 0 .573.258.573.577M162.09 33.15a.574.574 0 0 1-1.147 0c0-.318.256-.576.573-.576.316 0 .573.258.573.577M168.293 33.15a.574.574 0 0 1-1.146 0c0-.318.256-.576.573-.576.316 0 .573.258.573.577M174.497 33.15a.574.574 0 0 1-1.147 0c0-.318.257-.576.574-.576.316 0 .573.258.573.577M180.701 33.15a.574.574 0 0 1-1.146 0c0-.318.256-.576.573-.576.316 0 .573.258.573.577M186.905 33.15a.574.574 0 1 1-1.146 0c0-.318.257-.576.573-.576.316 0 .573.258.573.577M193.11 33.15a.574.574 0 1 1-1.147 0c0-.318.257-.576.573-.576.317 0 .573.258.573.577M199.313 33.15a.574.574 0 1 1-1.146 0c0-.318.256-.576.573-.576.316 0 .573.258.573.577M205.517 33.15a.574.574 0 0 1-1.146 0c0-.318.257-.576.573-.576.316 0 .573.258.573.577M149.68 38.03a.574.574 0 1 1-1.145 0c0-.318.257-.576.572-.576.317 0 .573.258.573.576M155.885 38.03a.574.574 0 1 1-1.146 0c0-.318.256-.576.573-.576.317 0 .573.258.573.576M162.09 38.03a.574.574 0 0 1-1.147 0c0-.318.256-.576.573-.576.316 0 .573.258.573.576M168.293 38.03a.574.574 0 0 1-1.146 0c0-.318.256-.576.573-.576.316 0 .573.258.573.576M174.497 38.03a.574.574 0 0 1-1.147 0c0-.318.257-.576.574-.576.316 0 .573.258.573.576M180.701 38.03a.574.574 0 0 1-1.146 0c0-.318.256-.576.573-.576.316 0 .573.258.573.576M186.905 38.03a.574.574 0 1 1-1.146 0c0-.318.257-.576.573-.576.316 0 .573.258.573.576M193.11 38.03a.574.574 0 1 1-1.147 0c0-.318.257-.576.573-.576.317 0 .573.258.573.576M199.313 38.03a.574.574 0 1 1-1.146 0c0-.318.256-.576.573-.576.316 0 .573.258.573.576M205.517 38.03a.574.574 0 0 1-1.146 0c0-.318.257-.576.573-.576.316 0 .573.258.573.576M149.68 42.91a.574.574 0 1 1-1.145 0c0-.318.257-.576.572-.576.317 0 .573.258.573.576M155.885 42.91a.574.574 0 1 1-1.146 0 .574.574 0 1 1 1.146 0M162.09 42.91a.574.574 0 0 1-1.147 0 .574.574 0 1 1 1.146 0M168.293 42.91a.574.574 0 0 1-1.146 0 .574.574 0 1 1 1.146 0M174.497 42.91a.574.574 0 0 1-1.147 0 .574.574 0 1 1 1.147 0M180.701 42.91a.574.574 0 0 1-1.146 0 .574.574 0 1 1 1.146 0M186.905 42.91a.574.574 0 1 1-1.146 0 .574.574 0 0 1 1.146 0M193.11 42.91a.574.574 0 1 1-1.147 0 .574.574 0 1 1 1.146 0M199.313 42.91a.574.574 0 1 1-1.146 0 .574.574 0 1 1 1.146 0M205.517 42.91a.574.574 0 0 1-1.146 0 .574.574 0 1 1 1.146 0M149.68 47.79a.574.574 0 1 1-1.145 0c0-.318.257-.576.572-.576.317 0 .573.258.573.576M155.885 47.79a.574.574 0 1 1-1.146 0 .574.574 0 1 1 1.146 0M162.09 47.79a.574.574 0 0 1-1.147 0 .574.574 0 1 1 1.146 0M168.293 47.79a.574.574 0 0 1-1.146 0 .574.574 0 1 1 1.146 0M174.497 47.79a.574.574 0 0 1-1.147 0 .574.574 0 1 1 1.147 0M180.701 47.79a.574.574 0 0 1-1.146 0 .574.574 0 1 1 1.146 0M186.905 47.79a.574.574 0 1 1-1.146 0 .574.574 0 0 1 1.146 0M193.11 47.79a.574.574 0 1 1-1.147 0 .574.574 0 1 1 1.146 0M199.313 47.79a.574.574 0 1 1-1.146 0 .574.574 0 1 1 1.146 0M205.517 47.79a.574.574 0 0 1-1.146 0 .574.574 0 1 1 1.146 0M149.68 52.67a.575.575 0 0 1-.573.576.575.575 0 0 1 0-1.152c.317 0 .573.258.573.576M155.885 52.67a.575.575 0 0 1-.573.576.575.575 0 0 1-.573-.576.574.574 0 1 1 1.146 0M162.09 52.67a.575.575 0 0 1-.574.576.575.575 0 0 1-.573-.576.574.574 0 1 1 1.146 0M168.293 52.67a.575.575 0 0 1-.573.576.575.575 0 0 1-.573-.576.574.574 0 1 1 1.146 0M174.497 52.67a.575.575 0 0 1-.573.576.575.575 0 0 1-.573-.576.574.574 0 1 1 1.146 0M180.701 52.67a.575.575 0 0 1-.573.576.575.575 0 0 1-.573-.576.574.574 0 1 1 1.146 0M186.905 52.67a.575.575 0 0 1-.573.576.575.575 0 0 1 0-1.152c.316 0 .573.258.573.576M193.11 52.67a.575.575 0 0 1-.574.576.575.575 0 0 1-.573-.576.574.574 0 1 1 1.146 0M199.313 52.67a.575.575 0 0 1-.573.576.575.575 0 0 1-.573-.576.574.574 0 1 1 1.146 0M205.517 52.67a.575.575 0 0 1-.573.576.575.575 0 0 1-.573-.576.574.574 0 1 1 1.146 0M149.68 57.55a.574.574 0 1 1-1.145 0c0-.318.257-.576.572-.576.317 0 .573.258.573.576M155.885 57.55a.574.574 0 1 1-1.146 0c0-.318.256-.576.573-.576.317 0 .573.258.573.576M162.09 57.55a.574.574 0 0 1-1.147 0c0-.318.256-.576.573-.576.316 0 .573.258.573.576M168.293 57.55a.574.574 0 0 1-1.146 0c0-.318.256-.576.573-.576.316 0 .573.258.573.576M174.497 57.55a.574.574 0 0 1-1.147 0c0-.318.257-.576.574-.576.316 0 .573.258.573.576M180.701 57.55a.574.574 0 0 1-1.146 0c0-.318.256-.576.573-.576.316 0 .573.258.573.576M186.905 57.55a.574.574 0 1 1-1.146 0c0-.318.257-.576.573-.576.316 0 .573.258.573.576M193.11 57.55a.574.574 0 1 1-1.147 0c0-.318.257-.576.573-.576.317 0 .573.258.573.576M199.313 57.55a.574.574 0 1 1-1.146 0c0-.318.256-.576.573-.576.316 0 .573.258.573.576M205.517 57.55a.574.574 0 0 1-1.146 0c0-.318.257-.576.573-.576.316 0 .573.258.573.576M149.68 62.063a.575.575 0 0 1-.573.577.575.575 0 0 1 0-1.152c.317 0 .573.257.573.575M155.885 62.063a.575.575 0 0 1-.573.577.575.575 0 0 1-.573-.577.574.574 0 1 1 1.146 0M162.09 62.063a.576.576 0 0 1-.574.577.575.575 0 0 1-.573-.577.574.574 0 1 1 1.146 0M168.293 62.063a.575.575 0 0 1-.573.577.575.575 0 0 1-.573-.577.574.574 0 1 1 1.146 0M174.497 62.063a.576.576 0 0 1-.573.577.575.575 0 0 1-.573-.577.574.574 0 1 1 1.146 0M180.701 62.063a.575.575 0 0 1-.573.577.575.575 0 0 1-.573-.577.574.574 0 1 1 1.146 0M186.905 62.063a.575.575 0 0 1-.573.577.575.575 0 0 1 0-1.152c.316 0 .573.257.573.575M193.11 62.063a.575.575 0 0 1-.574.577.575.575 0 0 1-.573-.577.574.574 0 1 1 1.146 0M199.313 62.063a.575.575 0 0 1-.573.577.575.575 0 0 1-.573-.577.574.574 0 1 1 1.146 0M205.517 62.063a.575.575 0 0 1-.573.577.575.575 0 0 1-.573-.577.574.574 0 1 1 1.146 0M149.68 66.944a.574.574 0 1 1-1.145 0c0-.319.257-.576.572-.576.317 0 .573.257.573.576M155.885 66.944a.574.574 0 1 1-1.146 0 .574.574 0 1 1 1.146 0M162.09 66.944a.574.574 0 0 1-1.147 0 .574.574 0 1 1 1.146 0M168.293 66.944a.574.574 0 0 1-1.146 0 .574.574 0 1 1 1.146 0M174.497 66.944a.574.574 0 0 1-1.147 0 .574.574 0 1 1 1.147 0M180.701 66.944a.574.574 0 0 1-1.146 0 .574.574 0 1 1 1.146 0M186.905 66.944a.574.574 0 1 1-1.146 0 .574.574 0 0 1 1.146 0M193.11 66.944a.574.574 0 1 1-1.147 0 .574.574 0 1 1 1.146 0M199.313 66.944a.574.574 0 1 1-1.146 0 .574.574 0 1 1 1.146 0M205.517 66.944a.574.574 0 0 1-1.146 0 .574.574 0 1 1 1.146 0M149.68 71.824a.574.574 0 1 1-1.145 0c0-.319.257-.576.572-.576.317 0 .573.257.573.576M155.885 71.824a.574.574 0 1 1-1.146 0 .574.574 0 1 1 1.146 0M162.09 71.824a.574.574 0 0 1-1.147 0 .574.574 0 1 1 1.146 0M168.293 71.824a.574.574 0 0 1-1.146 0 .574.574 0 1 1 1.146 0M174.497 71.824a.574.574 0 0 1-1.147 0 .574.574 0 1 1 1.147 0M180.701 71.824a.574.574 0 0 1-1.146 0 .574.574 0 1 1 1.146 0M186.905 71.824a.574.574 0 1 1-1.146 0 .574.574 0 0 1 1.146 0M193.11 71.824a.574.574 0 1 1-1.147 0 .574.574 0 1 1 1.146 0M199.313 71.824a.574.574 0 1 1-1.146 0 .574.574 0 1 1 1.146 0M205.517 71.824a.574.574 0 0 1-1.146 0 .574.574 0 1 1 1.146 0M149.68 76.704a.574.574 0 1 1-1.145 0c0-.318.257-.577.572-.577.317 0 .573.259.573.577M155.885 76.704a.574.574 0 1 1-1.146 0c0-.318.256-.577.573-.577.317 0 .573.259.573.577M162.09 76.704a.574.574 0 0 1-1.147 0c0-.318.256-.577.573-.577.316 0 .573.259.573.577M168.293 76.704a.574.574 0 0 1-1.146 0c0-.318.256-.577.573-.577.316 0 .573.259.573.577M174.497 76.704a.574.574 0 0 1-1.147 0c0-.318.257-.577.574-.577.316 0 .573.259.573.577M180.701 76.704a.574.574 0 0 1-1.146 0c0-.318.256-.577.573-.577.316 0 .573.259.573.577M186.905 76.704a.574.574 0 1 1-1.146 0c0-.318.257-.577.573-.577.316 0 .573.259.573.577M193.11 76.704a.574.574 0 1 1-1.147 0c0-.318.257-.577.573-.577.317 0 .573.259.573.577M199.313 76.704a.574.574 0 1 1-1.146 0c0-.318.256-.577.573-.577.316 0 .573.259.573.577M205.517 76.704a.574.574 0 0 1-1.146 0c0-.318.257-.577.573-.577.316 0 .573.259.573.577M149.68 81.584a.574.574 0 1 1-1.145 0c0-.318.257-.577.572-.577.317 0 .573.259.573.577M155.885 81.584a.574.574 0 1 1-1.146 0c0-.318.256-.577.573-.577.317 0 .573.259.573.577M162.09 81.584a.574.574 0 0 1-1.147 0c0-.318.256-.577.573-.577.316 0 .573.259.573.577M168.293 81.584a.574.574 0 0 1-1.146 0c0-.318.256-.577.573-.577.316 0 .573.259.573.577M174.497 81.584a.574.574 0 0 1-1.147 0c0-.318.257-.577.574-.577.316 0 .573.259.573.577M180.701 81.584a.574.574 0 0 1-1.146 0c0-.318.256-.577.573-.577.316 0 .573.259.573.577M186.905 81.584a.574.574 0 1 1-1.146 0c0-.318.257-.577.573-.577.316 0 .573.259.573.577M193.11 81.584a.574.574 0 1 1-1.147 0c0-.318.257-.577.573-.577.317 0 .573.259.573.577M199.313 81.584a.574.574 0 1 1-1.146 0c0-.318.256-.577.573-.577.316 0 .573.259.573.577M205.517 81.584a.574.574 0 0 1-1.146 0c0-.318.257-.577.573-.577.316 0 .573.259.573.577M149.68 86.463a.574.574 0 1 1-1.145 0c0-.318.257-.576.572-.576.317 0 .573.258.573.576M155.885 86.463a.574.574 0 1 1-1.146 0 .574.574 0 1 1 1.146 0M162.09 86.463a.574.574 0 0 1-1.147 0 .574.574 0 1 1 1.146 0M168.293 86.463a.574.574 0 0 1-1.146 0 .574.574 0 1 1 1.146 0M174.497 86.463a.574.574 0 0 1-1.147 0 .574.574 0 1 1 1.147 0M180.701 86.463a.574.574 0 0 1-1.146 0 .574.574 0 1 1 1.146 0M186.905 86.463a.574.574 0 1 1-1.146 0 .574.574 0 0 1 1.146 0M193.11 86.463a.574.574 0 1 1-1.147 0 .574.574 0 1 1 1.146 0M199.313 86.463a.574.574 0 1 1-1.146 0 .574.574 0 1 1 1.146 0M205.517 86.463a.574.574 0 0 1-1.146 0 .574.574 0 1 1 1.146 0M149.68 91.343a.574.574 0 1 1-1.145 0c0-.318.257-.576.572-.576.317 0 .573.258.573.576M155.885 91.343a.574.574 0 1 1-1.146 0 .574.574 0 1 1 1.146 0M162.09 91.343a.574.574 0 0 1-1.147 0 .574.574 0 1 1 1.146 0M168.293 91.343a.574.574 0 0 1-1.146 0 .574.574 0 1 1 1.146 0M174.497 91.343a.574.574 0 0 1-1.147 0 .574.574 0 1 1 1.147 0M180.701 91.343a.574.574 0 0 1-1.146 0 .574.574 0 1 1 1.146 0M186.905 91.343a.574.574 0 1 1-1.146 0 .574.574 0 0 1 1.146 0M193.11 91.343a.574.574 0 1 1-1.147 0 .574.574 0 1 1 1.146 0M199.313 91.343a.574.574 0 1 1-1.146 0 .574.574 0 1 1 1.146 0M205.517 91.343a.574.574 0 0 1-1.146 0 .574.574 0 1 1 1.146 0M149.68 96.224a.574.574 0 1 1-1.145 0c0-.319.257-.576.572-.576.317 0 .573.257.573.576M155.885 96.224a.574.574 0 1 1-1.146 0 .574.574 0 1 1 1.146 0M162.09 96.224a.574.574 0 0 1-1.147 0 .574.574 0 1 1 1.146 0M168.293 96.224a.574.574 0 0 1-1.146 0 .574.574 0 1 1 1.146 0M174.497 96.224a.574.574 0 0 1-1.147 0 .574.574 0 1 1 1.147 0M180.701 96.224a.574.574 0 0 1-1.146 0 .574.574 0 1 1 1.146 0M186.905 96.224a.574.574 0 1 1-1.146 0 .574.574 0 0 1 1.146 0M193.11 96.224a.574.574 0 1 1-1.147 0 .574.574 0 1 1 1.146 0M199.313 96.224a.574.574 0 1 1-1.146 0 .574.574 0 1 1 1.146 0M205.517 96.224a.574.574 0 0 1-1.146 0 .574.574 0 1 1 1.146 0M149.68 101.104a.575.575 0 0 1-.573.576.575.575 0 0 1 0-1.152c.317 0 .573.257.573.576M155.885 101.104a.575.575 0 0 1-.573.576.575.575 0 0 1-.573-.576.574.574 0 1 1 1.146 0M162.09 101.104a.575.575 0 0 1-.574.576.575.575 0 0 1-.573-.576.574.574 0 1 1 1.146 0M168.293 101.104a.575.575 0 0 1-.573.576.575.575 0 0 1-.573-.576.574.574 0 1 1 1.146 0M174.497 101.104a.575.575 0 0 1-.573.576.575.575 0 0 1-.573-.576.574.574 0 1 1 1.146 0M180.701 101.104a.575.575 0 0 1-.573.576.575.575 0 0 1-.573-.576.574.574 0 1 1 1.146 0M186.905 101.104a.575.575 0 0 1-.573.576.575.575 0 0 1 0-1.152c.316 0 .573.257.573.576M193.11 101.104a.575.575 0 0 1-.574.576.575.575 0 0 1-.573-.576.574.574 0 1 1 1.146 0M199.313 101.104a.575.575 0 0 1-.573.576.575.575 0 0 1-.573-.576.574.574 0 1 1 1.146 0M205.517 101.104a.575.575 0 0 1-.573.576.575.575 0 0 1-.573-.576.574.574 0 1 1 1.146 0M149.68 105.983a.574.574 0 1 1-1.145 0c0-.318.257-.576.572-.576.317 0 .573.258.573.576M155.885 105.983a.574.574 0 1 1-1.146 0c0-.318.256-.576.573-.576.317 0 .573.258.573.576M162.09 105.983a.574.574 0 0 1-1.147 0c0-.318.256-.576.573-.576.316 0 .573.258.573.576M168.293 105.983a.574.574 0 0 1-1.146 0c0-.318.256-.576.573-.576.316 0 .573.258.573.576M174.497 105.983a.574.574 0 0 1-1.147 0c0-.318.257-.576.574-.576.316 0 .573.258.573.576M180.701 105.983a.574.574 0 0 1-1.146 0c0-.318.256-.576.573-.576.316 0 .573.258.573.576M186.905 105.983a.574.574 0 1 1-1.146 0c0-.318.257-.576.573-.576.316 0 .573.258.573.576M193.11 105.983a.574.574 0 1 1-1.147 0c0-.318.257-.576.573-.576.317 0 .573.258.573.576M199.313 105.983a.574.574 0 1 1-1.146 0c0-.318.256-.576.573-.576.316 0 .573.258.573.576M205.517 105.983a.574.574 0 0 1-1.146 0c0-.318.257-.576.573-.576.316 0 .573.258.573.576M149.68 110.863a.574.574 0 1 1-1.145 0c0-.318.257-.576.572-.576.317 0 .573.258.573.576M155.885 110.863a.574.574 0 1 1-1.146 0 .574.574 0 1 1 1.146 0M162.09 110.863a.574.574 0 0 1-1.147 0 .574.574 0 1 1 1.146 0M168.293 110.863a.574.574 0 0 1-1.146 0 .574.574 0 1 1 1.146 0M174.497 110.863a.574.574 0 0 1-1.147 0 .574.574 0 1 1 1.147 0M180.701 110.863a.574.574 0 0 1-1.146 0 .574.574 0 1 1 1.146 0M186.905 110.863a.574.574 0 1 1-1.146 0 .574.574 0 0 1 1.146 0M193.11 110.863a.574.574 0 1 1-1.147 0 .574.574 0 1 1 1.146 0M199.313 110.863a.574.574 0 1 1-1.146 0 .574.574 0 1 1 1.146 0M205.517 110.863a.574.574 0 0 1-1.146 0 .574.574 0 1 1 1.146 0"/>
        </g>
        <g fill="#FFC916" fill-rule="nonzero" opacity=".3">
            <path d="M22.57 73.292a.613.613 0 0 1-.618.607.613.613 0 0 1-.617-.607c0-.336.277-.608.617-.608.341 0 .618.272.618.608M29.25 73.292a.613.613 0 0 1-.618.607.613.613 0 0 1-.616-.607c0-.336.276-.608.616-.608.341 0 .618.272.618.608M35.93 73.292a.612.612 0 0 1-.618.607.612.612 0 0 1-.616-.607c0-.336.275-.608.616-.608.341 0 .617.272.617.608M42.61 73.292a.613.613 0 0 1-.618.607.612.612 0 0 1-.616-.607c0-.336.276-.608.616-.608.34 0 .617.272.617.608M49.29 73.292a.613.613 0 0 1-.618.607.613.613 0 0 1-.617-.607c0-.336.277-.608.617-.608.34 0 .617.272.617.608M55.969 73.292a.612.612 0 0 1-.617.607.613.613 0 0 1-.617-.607c0-.336.277-.608.617-.608.341 0 .617.272.617.608M62.649 73.292a.612.612 0 0 1-.617.607.612.612 0 0 1-.617-.607c0-.336.276-.608.617-.608.341 0 .617.272.617.608M69.329 73.292a.613.613 0 0 1-.618.607.612.612 0 0 1-.616-.607c0-.336.276-.608.616-.608.341 0 .618.272.618.608M76.01 73.292a.613.613 0 0 1-.619.607.613.613 0 0 1-.616-.607c0-.336.276-.608.616-.608.341 0 .618.272.618.608M82.688 73.292a.612.612 0 0 1-.616.607.613.613 0 0 1-.617-.607c0-.336.276-.608.617-.608.34 0 .616.272.616.608M22.57 78.438a.613.613 0 0 1-.618.608.613.613 0 0 1-.617-.608c0-.335.277-.608.617-.608.341 0 .618.273.618.608M29.25 78.438a.613.613 0 0 1-.618.608.613.613 0 0 1-.616-.608c0-.335.276-.608.616-.608.341 0 .618.273.618.608M35.93 78.438a.612.612 0 0 1-.618.608.612.612 0 0 1-.616-.608c0-.335.275-.608.616-.608.341 0 .617.273.617.608M42.61 78.438a.613.613 0 0 1-.618.608.612.612 0 0 1-.616-.608c0-.335.276-.608.616-.608.34 0 .617.273.617.608M49.29 78.438a.613.613 0 0 1-.618.608.613.613 0 0 1-.617-.608c0-.335.277-.608.617-.608.34 0 .617.273.617.608M55.969 78.438a.612.612 0 0 1-.617.608.613.613 0 0 1-.617-.608c0-.335.277-.608.617-.608.341 0 .617.273.617.608M62.649 78.438a.612.612 0 0 1-.617.608.612.612 0 0 1-.617-.608c0-.335.276-.608.617-.608.341 0 .617.273.617.608M69.329 78.438a.613.613 0 0 1-.618.608.612.612 0 0 1-.616-.608c0-.335.276-.608.616-.608.341 0 .618.273.618.608M76.01 78.438a.613.613 0 0 1-.619.608.613.613 0 0 1-.616-.608c0-.335.276-.608.616-.608.341 0 .618.273.618.608M82.688 78.438a.612.612 0 0 1-.616.608.613.613 0 0 1-.617-.608c0-.335.276-.608.617-.608.34 0 .616.273.616.608M22.57 83.584a.613.613 0 0 1-.618.608.613.613 0 0 1-.617-.608c0-.335.277-.607.617-.607.341 0 .618.272.618.607M29.25 83.584a.613.613 0 0 1-.618.608.613.613 0 0 1-.616-.608c0-.335.276-.607.616-.607.341 0 .618.272.618.607M35.93 83.584a.612.612 0 0 1-.618.608.612.612 0 0 1-.616-.608c0-.335.275-.607.616-.607.341 0 .617.272.617.607M42.61 83.584a.613.613 0 0 1-.618.608.612.612 0 0 1-.616-.608c0-.335.276-.607.616-.607.34 0 .617.272.617.607M49.29 83.584a.613.613 0 0 1-.618.608.613.613 0 0 1-.617-.608c0-.335.277-.607.617-.607.34 0 .617.272.617.607M55.969 83.584a.612.612 0 0 1-.617.608.613.613 0 0 1-.617-.608c0-.335.277-.607.617-.607.341 0 .617.272.617.607M62.649 83.584a.612.612 0 0 1-.617.608.612.612 0 0 1-.617-.608c0-.335.276-.607.617-.607.341 0 .617.272.617.607M69.329 83.584a.613.613 0 0 1-.618.608.612.612 0 0 1-.616-.608c0-.335.276-.607.616-.607.341 0 .618.272.618.607M76.01 83.584a.613.613 0 0 1-.619.608.613.613 0 0 1-.616-.608c0-.335.276-.607.616-.607.341 0 .618.272.618.607M82.688 83.584a.612.612 0 0 1-.616.608.613.613 0 0 1-.617-.608c0-.335.276-.607.617-.607.34 0 .616.272.616.607M22.57 88.73a.612.612 0 0 1-.618.608.612.612 0 0 1-.617-.607c0-.336.277-.608.617-.608.341 0 .618.272.618.608M29.25 88.73a.612.612 0 0 1-.618.608.612.612 0 0 1-.616-.607c0-.336.276-.608.616-.608.341 0 .618.272.618.608M35.93 88.73a.612.612 0 0 1-.618.608.612.612 0 0 1-.616-.607c0-.336.275-.608.616-.608.341 0 .617.272.617.608M42.61 88.73a.612.612 0 0 1-.618.608.612.612 0 0 1-.616-.607c0-.336.276-.608.616-.608.34 0 .617.272.617.608M49.29 88.73a.612.612 0 0 1-.618.608.612.612 0 0 1-.617-.607c0-.336.277-.608.617-.608.34 0 .617.272.617.608M55.969 88.73a.612.612 0 0 1-.617.608.612.612 0 0 1-.617-.607c0-.336.277-.608.617-.608.341 0 .617.272.617.608M62.649 88.73a.612.612 0 0 1-.617.608.612.612 0 0 1-.617-.607c0-.336.276-.608.617-.608.341 0 .617.272.617.608M69.329 88.73a.612.612 0 0 1-.618.608.612.612 0 0 1-.616-.607c0-.336.276-.608.616-.608.341 0 .618.272.618.608M76.01 88.73a.612.612 0 0 1-.619.608.612.612 0 0 1-.616-.607c0-.336.276-.608.616-.608.341 0 .618.272.618.608M82.688 88.73a.612.612 0 0 1-.616.608.612.612 0 0 1-.617-.607c0-.336.276-.608.617-.608.34 0 .616.272.616.608M22.57 93.877a.613.613 0 0 1-.618.608.613.613 0 0 1-.617-.608c0-.336.277-.608.617-.608.341 0 .618.272.618.608M29.25 93.877a.613.613 0 0 1-.618.608.613.613 0 0 1-.616-.608c0-.336.276-.608.616-.608.341 0 .618.272.618.608M35.93 93.877a.612.612 0 0 1-.618.608.612.612 0 0 1-.616-.608c0-.336.275-.608.616-.608.341 0 .617.272.617.608M42.61 93.877a.613.613 0 0 1-.618.608.612.612 0 0 1-.616-.608c0-.336.276-.608.616-.608.34 0 .617.272.617.608M49.29 93.877a.613.613 0 0 1-.618.608.613.613 0 0 1-.617-.608c0-.336.277-.608.617-.608.34 0 .617.272.617.608M55.969 93.877a.612.612 0 0 1-.617.608.613.613 0 0 1-.617-.608c0-.336.277-.608.617-.608.341 0 .617.272.617.608M62.649 93.877a.612.612 0 0 1-.617.608.612.612 0 0 1-.617-.608c0-.336.276-.608.617-.608.341 0 .617.272.617.608M69.329 93.877a.613.613 0 0 1-.618.608.612.612 0 0 1-.616-.608c0-.336.276-.608.616-.608.341 0 .618.272.618.608M76.01 93.877a.613.613 0 0 1-.619.608.613.613 0 0 1-.616-.608c0-.336.276-.608.616-.608.341 0 .618.272.618.608M82.688 93.877a.612.612 0 0 1-.616.608.613.613 0 0 1-.617-.608c0-.336.276-.608.617-.608.34 0 .616.272.616.608M22.57 99.023a.613.613 0 0 1-.618.608.613.613 0 0 1-.617-.608c0-.335.277-.608.617-.608.341 0 .618.273.618.608M29.25 99.023a.613.613 0 0 1-.618.608.613.613 0 0 1-.616-.608c0-.335.276-.608.616-.608.341 0 .618.273.618.608M35.93 99.023a.612.612 0 0 1-.618.608.612.612 0 0 1-.616-.608c0-.335.275-.608.616-.608.341 0 .617.273.617.608M42.61 99.023a.613.613 0 0 1-.618.608.612.612 0 0 1-.616-.608c0-.335.276-.608.616-.608.34 0 .617.273.617.608M49.29 99.023a.613.613 0 0 1-.618.608.613.613 0 0 1-.617-.608c0-.335.277-.608.617-.608.34 0 .617.273.617.608M55.969 99.023a.612.612 0 0 1-.617.608.613.613 0 0 1-.617-.608c0-.335.277-.608.617-.608.341 0 .617.273.617.608M62.649 99.023a.612.612 0 0 1-.617.608.612.612 0 0 1-.617-.608c0-.335.276-.608.617-.608.341 0 .617.273.617.608M69.329 99.023a.613.613 0 0 1-.618.608.612.612 0 0 1-.616-.608c0-.335.276-.608.616-.608.341 0 .618.273.618.608M76.01 99.023a.613.613 0 0 1-.619.608.613.613 0 0 1-.616-.608c0-.335.276-.608.616-.608.341 0 .618.273.618.608M82.688 99.023a.612.612 0 0 1-.616.608.613.613 0 0 1-.617-.608c0-.335.276-.608.617-.608.34 0 .616.273.616.608M22.57 104.17a.613.613 0 0 1-.618.607.613.613 0 0 1-.617-.607c0-.336.277-.608.617-.608.341 0 .618.272.618.608M29.25 104.17a.613.613 0 0 1-.618.607.613.613 0 0 1-.616-.607c0-.336.276-.608.616-.608.341 0 .618.272.618.608M35.93 104.17a.612.612 0 0 1-.618.607.612.612 0 0 1-.616-.607c0-.336.275-.608.616-.608.341 0 .617.272.617.608M42.61 104.17a.613.613 0 0 1-.618.607.612.612 0 0 1-.616-.607c0-.336.276-.608.616-.608.34 0 .617.272.617.608M49.29 104.17a.613.613 0 0 1-.618.607.613.613 0 0 1-.617-.607c0-.336.277-.608.617-.608.34 0 .617.272.617.608M55.969 104.17a.612.612 0 0 1-.617.607.613.613 0 0 1-.617-.607c0-.336.277-.608.617-.608.341 0 .617.272.617.608M62.649 104.17a.612.612 0 0 1-.617.607.612.612 0 0 1-.617-.607c0-.336.276-.608.617-.608.341 0 .617.272.617.608M69.329 104.17a.613.613 0 0 1-.618.607.612.612 0 0 1-.616-.607c0-.336.276-.608.616-.608.341 0 .618.272.618.608M76.01 104.17a.613.613 0 0 1-.619.607.613.613 0 0 1-.616-.607c0-.336.276-.608.616-.608.341 0 .618.272.618.608M82.688 104.17a.612.612 0 0 1-.616.607.613.613 0 0 1-.617-.607c0-.336.276-.608.617-.608.34 0 .616.272.616.608M22.57 109.316a.613.613 0 0 1-.618.608.613.613 0 0 1-.617-.608c0-.335.277-.608.617-.608.341 0 .618.273.618.608M29.25 109.316a.613.613 0 0 1-.618.608.613.613 0 0 1-.616-.608c0-.335.276-.608.616-.608.341 0 .618.273.618.608M35.93 109.316a.612.612 0 0 1-.618.608.612.612 0 0 1-.616-.608c0-.335.275-.608.616-.608.341 0 .617.273.617.608M42.61 109.316a.613.613 0 0 1-.618.608.612.612 0 0 1-.616-.608c0-.335.276-.608.616-.608.34 0 .617.273.617.608M49.29 109.316a.613.613 0 0 1-.618.608.613.613 0 0 1-.617-.608c0-.335.277-.608.617-.608.34 0 .617.273.617.608M55.969 109.316a.612.612 0 0 1-.617.608.613.613 0 0 1-.617-.608c0-.335.277-.608.617-.608.341 0 .617.273.617.608M62.649 109.316a.612.612 0 0 1-.617.608.612.612 0 0 1-.617-.608c0-.335.276-.608.617-.608.341 0 .617.273.617.608M69.329 109.316a.613.613 0 0 1-.618.608.612.612 0 0 1-.616-.608c0-.335.276-.608.616-.608.341 0 .618.273.618.608M76.01 109.316a.613.613 0 0 1-.619.608.613.613 0 0 1-.616-.608c0-.335.276-.608.616-.608.341 0 .618.273.618.608M82.688 109.316a.612.612 0 0 1-.616.608.613.613 0 0 1-.617-.608c0-.335.276-.608.617-.608.34 0 .616.273.616.608M22.57 114.462a.612.612 0 0 1-.618.607.612.612 0 0 1-.617-.607c0-.335.277-.607.617-.607.341 0 .618.272.618.607M29.25 114.462a.612.612 0 0 1-.618.607.612.612 0 0 1-.616-.607c0-.335.276-.607.616-.607.341 0 .618.272.618.607M35.93 114.462a.612.612 0 0 1-.618.607.612.612 0 0 1-.616-.607c0-.335.275-.607.616-.607.341 0 .617.272.617.607M42.61 114.462a.612.612 0 0 1-.618.607.612.612 0 0 1-.616-.607c0-.335.276-.607.616-.607.34 0 .617.272.617.607M49.29 114.462a.612.612 0 0 1-.618.607.612.612 0 0 1-.617-.607c0-.335.277-.607.617-.607.34 0 .617.272.617.607M55.969 114.462a.612.612 0 0 1-.617.607.612.612 0 0 1-.617-.607c0-.335.277-.607.617-.607.341 0 .617.272.617.607M62.649 114.462a.612.612 0 0 1-.617.607.612.612 0 0 1-.617-.607c0-.335.276-.607.617-.607.341 0 .617.272.617.607M69.329 114.462a.612.612 0 0 1-.618.607.612.612 0 0 1-.616-.607c0-.335.276-.607.616-.607.341 0 .618.272.618.607M76.01 114.462a.612.612 0 0 1-.619.607.612.612 0 0 1-.616-.607c0-.335.276-.607.616-.607.341 0 .618.272.618.607M82.688 114.462a.612.612 0 0 1-.616.607.612.612 0 0 1-.617-.607c0-.335.276-.607.617-.607.34 0 .616.272.616.607M22.57 119.608a.612.612 0 0 1-.618.608.612.612 0 0 1-.617-.608c0-.335.277-.608.617-.608.341 0 .618.273.618.608M29.25 119.608a.612.612 0 0 1-.618.608.612.612 0 0 1-.616-.608c0-.335.276-.608.616-.608.341 0 .618.273.618.608M35.93 119.608a.612.612 0 0 1-.618.608.612.612 0 0 1-.616-.608c0-.335.275-.608.616-.608.341 0 .617.273.617.608M42.61 119.608a.612.612 0 0 1-.618.608.612.612 0 0 1-.616-.608c0-.335.276-.608.616-.608.34 0 .617.273.617.608M49.29 119.608a.612.612 0 0 1-.618.608.612.612 0 0 1-.617-.608c0-.335.277-.608.617-.608.34 0 .617.273.617.608M55.969 119.608a.612.612 0 0 1-.617.608.612.612 0 0 1-.617-.608c0-.335.277-.608.617-.608.341 0 .617.273.617.608M62.649 119.608a.612.612 0 0 1-.617.608.612.612 0 0 1-.617-.608c0-.335.276-.608.617-.608.341 0 .617.273.617.608M69.329 119.608a.612.612 0 0 1-.618.608.612.612 0 0 1-.616-.608c0-.335.276-.608.616-.608.341 0 .618.273.618.608M76.01 119.608a.612.612 0 0 1-.619.608.612.612 0 0 1-.616-.608c0-.335.276-.608.616-.608.341 0 .618.273.618.608M82.688 119.608a.612.612 0 0 1-.616.608.612.612 0 0 1-.617-.608c0-.335.276-.608.617-.608.34 0 .616.273.616.608M22.57 124.754a.613.613 0 0 1-.618.608.613.613 0 0 1-.617-.608c0-.335.277-.607.617-.607.341 0 .618.272.618.607M29.25 124.754a.613.613 0 0 1-.618.608.613.613 0 0 1-.616-.608c0-.335.276-.607.616-.607.341 0 .618.272.618.607M35.93 124.754a.612.612 0 0 1-.618.608.612.612 0 0 1-.616-.608c0-.335.275-.607.616-.607.341 0 .617.272.617.607M42.61 124.754a.613.613 0 0 1-.618.608.612.612 0 0 1-.616-.608c0-.335.276-.607.616-.607.34 0 .617.272.617.607M49.29 124.754a.613.613 0 0 1-.618.608.613.613 0 0 1-.617-.608c0-.335.277-.607.617-.607.34 0 .617.272.617.607M55.969 124.754a.612.612 0 0 1-.617.608.613.613 0 0 1-.617-.608c0-.335.277-.607.617-.607.341 0 .617.272.617.607M62.649 124.754a.612.612 0 0 1-.617.608.612.612 0 0 1-.617-.608c0-.335.276-.607.617-.607.341 0 .617.272.617.607M69.329 124.754a.613.613 0 0 1-.618.608.612.612 0 0 1-.616-.608c0-.335.276-.607.616-.607.341 0 .618.272.618.607M76.01 124.754a.613.613 0 0 1-.619.608.613.613 0 0 1-.616-.608c0-.335.276-.607.616-.607.341 0 .618.272.618.607M82.688 124.754a.612.612 0 0 1-.616.608.613.613 0 0 1-.617-.608c0-.335.276-.607.617-.607.34 0 .616.272.616.607"/>
        </g>
        <g fill="#3C4D6F">
            <path d="M115.48 136.865V.085s11.095 13.4 61.408 18.431c0 0 8.73 93.336-61.409 118.349"/>
            <path d="M115.48.085s-11.072 13.4-61.385 18.431c0 0-8.548 93.235 61.384 118.349"/>
        </g>
        <g stroke-linecap="round" stroke-width="1.316">
            <path stroke="#FFF" d="M176.101 19.471l-30.065 27.756"/>
            <path stroke="#F6F7F8" d="M86.717 98.112l-10.492 9.383"/>
        </g>
        <path fill="#BEC3CE" fill-rule="nonzero" d="M135.386 92.728H95.614a4.07 4.07 0 0 1-4.065-4.073V57.226a4.07 4.07 0 0 1 4.065-4.073h39.772a4.07 4.07 0 0 1 4.065 4.073v31.429a4.07 4.07 0 0 1-4.065 4.073"/>
        <path stroke="#BEC3CE" stroke-width="2.632" d="M131.031 55.48H99.97V47.77c0-8.599 6.954-15.569 15.531-15.569 8.577 0 15.531 6.97 15.531 15.569v7.711z"/>
        <path fill="#3C4D6F" fill-rule="nonzero" d="M120.871 68.866a5.232 5.232 0 0 1-5.226 5.238 5.232 5.232 0 0 1-5.225-5.238 5.232 5.232 0 0 1 5.225-5.238 5.233 5.233 0 0 1 5.226 5.238"/>
        <path fill="#3C4D6F" fill-rule="nonzero" d="M115.355 82.544a1.744 1.744 0 0 1-1.742-1.746v-8.73h3.483v8.73c0 .964-.78 1.746-1.741 1.746"/>
        <g fill-rule="nonzero">
            <path fill="#E9EBEF" d="M201.996 125.208c-.02-4.915-4.05-8.891-9.02-8.891-.332 0-.66.018-.982.052-1.936-4.765-6.65-8.129-12.158-8.129-7.236 0-13.1 5.805-13.1 12.966 0 1.397.223 2.742.636 4.002h34.624z"/>
            <g fill="#D3D7DE" stroke="#D3D7DE" stroke-linecap="round" stroke-width=".5">
                <path d="M201.868 129.042h5.789M175.028 129.042h22.63"/>
            </g>
        </g>
        <g fill-rule="nonzero">
            <path fill="#FF4702" d="M44.234 49.654a7.64 7.64 0 0 0 .016-.488c0-4.331-3.619-7.841-8.082-7.841-.519 0-1.025.048-1.516.137-.49-5.797-5.495-10.354-11.598-10.354-6.083 0-11.074 4.527-11.592 10.298-3.913.547-6.92 3.812-6.92 7.76 0 .164.005.326.015.488h39.677z"/>
            <g fill="#D3D7DE" stroke="#D3D7DE" stroke-linecap="round" stroke-width=".5">
                <path d="M44.854 54.128h5.523M19.249 54.128h21.589"/>
            </g>
        </g>
    </g>
</svg>
