<svg xmlns="http://www.w3.org/2000/svg" xmlns:xlink="http://www.w3.org/1999/xlink" width="253" height="152" viewBox="0 0 253 152">
    <defs>
        <path id="a" d="M213.842.296H38.427a38.16 38.16 0 0 0-26.955 11.14A37.991 37.991 0 0 0 .307 38.33v46.34a37.991 37.991 0 0 0 11.165 26.894 38.16 38.16 0 0 0 26.955 11.14h66.728c28.826 0 56.47-11.425 76.853-31.762a108.322 108.322 0 0 0 31.834-76.682V.296z"/>
        <path id="c" d="M213.842.296H38.427a38.162 38.162 0 0 0-26.955 11.14A37.991 37.991 0 0 0 .307 38.33V84.67a37.994 37.994 0 0 0 11.165 26.894 38.162 38.162 0 0 0 26.955 11.14h66.728c28.826 0 56.47-11.425 76.853-31.763a108.322 108.322 0 0 0 31.834-76.682V.296z"/>
    </defs>
    <g fill="none" fill-rule="evenodd">
        <path d="M-50 0h354v152H-50z"/>
        <path d="M253 29H78.024a37.923 37.923 0 0 0-26.887 11.194A38.317 38.317 0 0 0 40 67.218v46.564a38.317 38.317 0 0 0 11.137 27.024A37.923 37.923 0 0 0 78.024 152h66.561c28.753 0 56.329-11.48 76.66-31.916C241.578 99.65 253 71.932 253 43.032V29z"/>
        <path fill="#F4F4F4" d="M253 29H78.024a37.923 37.923 0 0 0-26.887 11.194A38.317 38.317 0 0 0 40 67.218v46.564a38.317 38.317 0 0 0 11.137 27.024A37.923 37.923 0 0 0 78.024 152h66.561c28.753 0 56.329-11.48 76.66-31.916C241.578 99.65 253 71.932 253 43.032V29z"/>
        <g transform="translate(40 29)">
            <mask id="b" fill="#fff">
                <use xlink:href="#a"/>
            </mask>
            <g mask="url(#b)">
                <path fill="#202E4B" fill-rule="nonzero" d="M72.286 50.422l15.807.286 35.163 4.799s-2.515 71.212-14.3 107.693l-49.391 3.008L39.47 59.19l32.815-8.77z"/>
                <path fill="#202E4B" fill-rule="nonzero" d="M123.297 55.571s6.52 21.913 13.475 46.697c0 0 15.66 26.848-3.395 35.537-7.017-13.238-9.68-18.99-13.844-32.32V78.26l3.764-22.688zM39.472 59.19l6.211 20.947 1.558 20.433-10.052 30.136 13.003 47.003-7.443 4.718s-11.878-27.192-21.546-52.439c0 0 10.813-56.167 18.269-70.797"/>
                <path fill="#E86578" fill-rule="nonzero" d="M93.445 32.554s3.508-.285 2.435 4.429c-1.075 4.715-2.936 5-4.725 5-1.79 0 2.29-9.43 2.29-9.43"/>
                <path fill="#00B3CC" d="M88.132 50.715s-5.525 16-24.296 1.968l6.94-1.857 3.684-1.003 13.672.892z"/>
                <path fill="#FFC9D5" fill-rule="nonzero" d="M66.707 32.554s-3.508-.285-2.435 4.429c1.075 4.715 2.936 5 4.725 5 1.79 0-2.29-9.43-2.29-9.43"/>
                <path fill="#FFC9D5" fill-rule="nonzero" d="M66.087 16.628a82.787 82.787 0 0 0-.155 5.092c0 19.077 6.412 34.54 14.326 34.54 7.913 0 14.327-15.463 14.327-34.54 0-1.73-.054-3.43-.156-5.092H66.087z"/>
                <path fill="#E86578" fill-rule="nonzero" d="M94.43 16.628h-1.96c.059 1.266.1 2.544.1 3.847 0 19.076-6.415 34.541-14.327 34.541-.871 0-1.721-.197-2.549-.557 1.434 1.164 2.968 1.801 4.564 1.801 7.913 0 14.538-15.492 14.327-34.54-.018-1.73-.055-3.43-.156-5.092"/>
                <path fill="#283A5E" fill-rule="nonzero" d="M79.858 27.981l14.718-5.253c.004-.336.01-.67.01-1.008 0-1.73-.055-3.43-.157-5.093-9.286-7.494-23.846-6.811-28.342 0a82.826 82.826 0 0 0-.102 8.003l13.873 3.351z"/>
                <path fill="#283A5E" fill-rule="nonzero" d="M92.516 23.463l1.116 10.669s2.9-11.301.797-17.504l-1.913 6.835zM66.956 34.571s-2.887-6.59-.87-17.944c0 0 .299 1.284 1.33 1.759l.723 6.035-1.183 10.15z"/>
                <path fill="#00B3CC" fill-rule="nonzero" d="M47.24 100.57L44.798 87.56s-1.247 21.792-10.922 43.01l16.315 47.136-13.003-47L47.24 100.57zM119.533 105.486l1.83-23.119c1.472 18.163 4.804 35.837 13.242 50.755 0 0 4.74-.02 10.405-7.286-2.281 4.935-5.7 9.195-11.634 11.968-6.73-12.573-10.191-20.19-13.843-32.318" opacity=".3"/>
            </g>
        </g>
        <g fill="#FFC916" fill-rule="nonzero" opacity=".3">
            <path d="M1.779 38.2a.79.79 0 0 1-.792.787.79.79 0 0 1-.79-.787c0-.435.354-.787.79-.787.437 0 .792.352.792.787M10.338 38.2a.789.789 0 0 1-.79.787.79.79 0 0 1-.791-.787c0-.435.354-.787.79-.787.437 0 .791.352.791.787M18.898 38.2a.789.789 0 0 1-.791.787.789.789 0 0 1-.79-.787c0-.435.354-.787.79-.787.437 0 .791.352.791.787M27.458 38.2a.79.79 0 0 1-.791.787.789.789 0 0 1-.79-.787c0-.435.354-.787.79-.787.437 0 .791.352.791.787M36.018 38.2a.789.789 0 0 1-.79.787.789.789 0 0 1-.79-.787c0-.435.353-.787.79-.787.436 0 .79.352.79.787M44.578 38.2a.789.789 0 0 1-.79.787.789.789 0 0 1-.791-.787c0-.435.353-.787.79-.787.437 0 .791.352.791.787M53.138 38.2a.789.789 0 0 1-.791.787.789.789 0 0 1-.79-.787c0-.435.354-.787.79-.787.437 0 .791.352.791.787M61.698 38.2a.79.79 0 0 1-.791.787.789.789 0 0 1-.79-.787c0-.435.354-.787.79-.787.437 0 .791.352.791.787M70.258 38.2a.789.789 0 0 1-.79.787.789.789 0 0 1-.79-.787c0-.435.353-.787.79-.787.436 0 .79.352.79.787M78.818 38.2a.789.789 0 0 1-.79.787.79.79 0 0 1-.792-.787.79.79 0 0 1 .791-.787c.437 0 .791.352.791.787M1.779 44.861a.79.79 0 0 1-.792.787.79.79 0 0 1-.79-.787.79.79 0 0 1 .79-.786.79.79 0 0 1 .792.786M10.338 44.861a.789.789 0 0 1-.79.787.79.79 0 0 1-.791-.787.79.79 0 0 1 .79-.786c.437 0 .791.352.791.786M18.898 44.861a.789.789 0 0 1-.791.787.789.789 0 0 1-.79-.787c0-.434.354-.786.79-.786.437 0 .791.352.791.786M27.458 44.861a.79.79 0 0 1-.791.787.789.789 0 0 1-.79-.787c0-.434.354-.786.79-.786a.79.79 0 0 1 .791.786M36.018 44.861a.789.789 0 0 1-.79.787.789.789 0 0 1-.79-.787c0-.434.353-.786.79-.786.436 0 .79.352.79.786M44.578 44.861a.789.789 0 0 1-.79.787.789.789 0 0 1-.791-.787c0-.434.353-.786.79-.786.437 0 .791.352.791.786M53.138 44.861a.789.789 0 0 1-.791.787.789.789 0 0 1-.79-.787c0-.434.354-.786.79-.786.437 0 .791.352.791.786M61.698 44.861a.79.79 0 0 1-.791.787.789.789 0 0 1-.79-.787c0-.434.354-.786.79-.786a.79.79 0 0 1 .791.786M70.258 44.861a.789.789 0 0 1-.79.787.789.789 0 0 1-.79-.787c0-.434.353-.786.79-.786.436 0 .79.352.79.786M78.818 44.861a.789.789 0 0 1-.79.787.79.79 0 0 1-.792-.787.79.79 0 0 1 .791-.786c.437 0 .791.352.791.786M1.779 51.522a.789.789 0 0 1-.792.786.789.789 0 0 1-.79-.786.79.79 0 0 1 .79-.786.79.79 0 0 1 .792.786M10.338 51.522a.788.788 0 0 1-.79.786.789.789 0 0 1-.791-.786.79.79 0 0 1 .79-.786c.437 0 .791.352.791.786M18.898 51.522a.788.788 0 0 1-.791.786.788.788 0 0 1-.79-.786c0-.434.354-.786.79-.786.437 0 .791.352.791.786M27.458 51.522a.789.789 0 0 1-.791.786.788.788 0 0 1-.79-.786c0-.434.354-.786.79-.786a.79.79 0 0 1 .791.786M36.018 51.522a.788.788 0 0 1-.79.786.788.788 0 0 1-.79-.786c0-.434.353-.786.79-.786.436 0 .79.352.79.786M44.578 51.522a.788.788 0 0 1-.79.786.788.788 0 0 1-.791-.786c0-.434.353-.786.79-.786.437 0 .791.352.791.786M53.138 51.522a.788.788 0 0 1-.791.786.788.788 0 0 1-.79-.786c0-.434.354-.786.79-.786.437 0 .791.352.791.786M61.698 51.522a.789.789 0 0 1-.791.786.788.788 0 0 1-.79-.786c0-.434.354-.786.79-.786a.79.79 0 0 1 .791.786M70.258 51.522a.788.788 0 0 1-.79.786.788.788 0 0 1-.79-.786c0-.434.353-.786.79-.786.436 0 .79.352.79.786M78.818 51.522a.788.788 0 0 1-.79.786.79.79 0 0 1-.792-.786.79.79 0 0 1 .791-.786c.437 0 .791.352.791.786M1.779 58.183a.79.79 0 0 1-.792.787.79.79 0 0 1-.79-.787.79.79 0 0 1 .79-.786.79.79 0 0 1 .792.786M10.338 58.183a.789.789 0 0 1-.79.787.79.79 0 0 1-.791-.787.79.79 0 0 1 .79-.786c.437 0 .791.352.791.786M18.898 58.183a.789.789 0 0 1-.791.787.789.789 0 0 1-.79-.787c0-.434.354-.786.79-.786.437 0 .791.352.791.786M27.458 58.183a.79.79 0 0 1-.791.787.789.789 0 0 1-.79-.787c0-.434.354-.786.79-.786a.79.79 0 0 1 .791.786M36.018 58.183a.789.789 0 0 1-.79.787.789.789 0 0 1-.79-.787c0-.434.353-.786.79-.786.436 0 .79.352.79.786M44.578 58.183a.789.789 0 0 1-.79.787.789.789 0 0 1-.791-.787c0-.434.353-.786.79-.786.437 0 .791.352.791.786M53.138 58.183a.789.789 0 0 1-.791.787.789.789 0 0 1-.79-.787c0-.434.354-.786.79-.786.437 0 .791.352.791.786M61.698 58.183a.79.79 0 0 1-.791.787.789.789 0 0 1-.79-.787c0-.434.354-.786.79-.786a.79.79 0 0 1 .791.786M70.258 58.183a.789.789 0 0 1-.79.787.789.789 0 0 1-.79-.787c0-.434.353-.786.79-.786.436 0 .79.352.79.786M78.818 58.183a.789.789 0 0 1-.79.787.79.79 0 0 1-.792-.787.79.79 0 0 1 .791-.786c.437 0 .791.352.791.786M1.779 64.845a.79.79 0 0 1-.792.787.79.79 0 0 1-.79-.787.79.79 0 0 1 .79-.787.79.79 0 0 1 .792.787M10.338 64.845a.789.789 0 0 1-.79.787.79.79 0 0 1-.791-.787.79.79 0 0 1 .79-.787c.437 0 .791.352.791.787M18.898 64.845a.789.789 0 0 1-.791.787.789.789 0 0 1-.79-.787c0-.435.354-.787.79-.787.437 0 .791.352.791.787M27.458 64.845a.79.79 0 0 1-.791.787.789.789 0 0 1-.79-.787c0-.435.354-.787.79-.787a.79.79 0 0 1 .791.787M36.018 64.845a.789.789 0 0 1-.79.787.789.789 0 0 1-.79-.787c0-.435.353-.787.79-.787.436 0 .79.352.79.787M44.578 64.845a.789.789 0 0 1-.79.787.789.789 0 0 1-.791-.787c0-.435.353-.787.79-.787.437 0 .791.352.791.787M53.138 64.845a.789.789 0 0 1-.791.787.789.789 0 0 1-.79-.787c0-.435.354-.787.79-.787.437 0 .791.352.791.787M61.698 64.845a.79.79 0 0 1-.791.787.789.789 0 0 1-.79-.787c0-.435.354-.787.79-.787a.79.79 0 0 1 .791.787M70.258 64.845a.789.789 0 0 1-.79.787.789.789 0 0 1-.79-.787c0-.435.353-.787.79-.787.436 0 .79.352.79.787M78.818 64.845a.789.789 0 0 1-.79.787.79.79 0 0 1-.792-.787.79.79 0 0 1 .791-.787c.437 0 .791.352.791.787M1.779 71.506a.79.79 0 0 1-.792.786.79.79 0 0 1-.79-.786c0-.435.354-.787.79-.787.437 0 .792.352.792.787M10.338 71.506a.789.789 0 0 1-.79.786.79.79 0 0 1-.791-.786c0-.435.354-.787.79-.787.437 0 .791.352.791.787M18.898 71.506a.789.789 0 0 1-.791.786.789.789 0 0 1-.79-.786c0-.435.354-.787.79-.787.437 0 .791.352.791.787M27.458 71.506a.79.79 0 0 1-.791.786.789.789 0 0 1-.79-.786c0-.435.354-.787.79-.787.437 0 .791.352.791.787M36.018 71.506a.789.789 0 0 1-.79.786.789.789 0 0 1-.79-.786c0-.435.353-.787.79-.787.436 0 .79.352.79.787M44.578 71.506a.789.789 0 0 1-.79.786.789.789 0 0 1-.791-.786c0-.435.353-.787.79-.787.437 0 .791.352.791.787M53.138 71.506a.789.789 0 0 1-.791.786.789.789 0 0 1-.79-.786c0-.435.354-.787.79-.787.437 0 .791.352.791.787M61.698 71.506a.79.79 0 0 1-.791.786.789.789 0 0 1-.79-.786c0-.435.354-.787.79-.787.437 0 .791.352.791.787M70.258 71.506a.789.789 0 0 1-.79.786.789.789 0 0 1-.79-.786c0-.435.353-.787.79-.787.436 0 .79.352.79.787M78.818 71.506a.789.789 0 0 1-.79.786.79.79 0 0 1-.792-.786.79.79 0 0 1 .791-.787c.437 0 .791.352.791.787M1.779 78.167a.79.79 0 0 1-.792.786.79.79 0 0 1-.79-.786c0-.434.354-.786.79-.786.437 0 .792.352.792.786M10.338 78.167a.789.789 0 0 1-.79.786.79.79 0 0 1-.791-.786c0-.434.354-.786.79-.786.437 0 .791.352.791.786M18.898 78.167a.789.789 0 0 1-.791.786.789.789 0 0 1-.79-.786c0-.434.354-.786.79-.786.437 0 .791.352.791.786M27.458 78.167a.79.79 0 0 1-.791.786.789.789 0 0 1-.79-.786c0-.434.354-.786.79-.786.437 0 .791.352.791.786M36.018 78.167a.789.789 0 0 1-.79.786.789.789 0 0 1-.79-.786c0-.434.353-.786.79-.786.436 0 .79.352.79.786M44.578 78.167a.789.789 0 0 1-.79.786.789.789 0 0 1-.791-.786c0-.434.353-.786.79-.786.437 0 .791.352.791.786M53.138 78.167a.789.789 0 0 1-.791.786.789.789 0 0 1-.79-.786c0-.434.354-.786.79-.786.437 0 .791.352.791.786M61.698 78.167a.79.79 0 0 1-.791.786.789.789 0 0 1-.79-.786c0-.434.354-.786.79-.786.437 0 .791.352.791.786M70.258 78.167a.789.789 0 0 1-.79.786.789.789 0 0 1-.79-.786c0-.434.353-.786.79-.786.436 0 .79.352.79.786M78.818 78.167a.789.789 0 0 1-.79.786.79.79 0 0 1-.792-.786.79.79 0 0 1 .791-.786c.437 0 .791.352.791.786M1.779 84.828a.79.79 0 0 1-.792.786.79.79 0 0 1-.79-.786.79.79 0 0 1 .79-.786.79.79 0 0 1 .792.786M10.338 84.828a.789.789 0 0 1-.79.786.79.79 0 0 1-.791-.786.79.79 0 0 1 .79-.786c.437 0 .791.352.791.786M18.898 84.828a.789.789 0 0 1-.791.786.789.789 0 0 1-.79-.786c0-.434.354-.786.79-.786.437 0 .791.352.791.786M27.458 84.828a.79.79 0 0 1-.791.786.789.789 0 0 1-.79-.786c0-.434.354-.786.79-.786a.79.79 0 0 1 .791.786M36.018 84.828a.789.789 0 0 1-.79.786.789.789 0 0 1-.79-.786c0-.434.353-.786.79-.786.436 0 .79.352.79.786M44.578 84.828a.789.789 0 0 1-.79.786.789.789 0 0 1-.791-.786c0-.434.353-.786.79-.786.437 0 .791.352.791.786M53.138 84.828a.789.789 0 0 1-.791.786.789.789 0 0 1-.79-.786c0-.434.354-.786.79-.786.437 0 .791.352.791.786M61.698 84.828a.79.79 0 0 1-.791.786.789.789 0 0 1-.79-.786c0-.434.354-.786.79-.786a.79.79 0 0 1 .791.786M70.258 84.828a.789.789 0 0 1-.79.786.789.789 0 0 1-.79-.786c0-.434.353-.786.79-.786.436 0 .79.352.79.786M78.818 84.828a.789.789 0 0 1-.79.786.79.79 0 0 1-.792-.786.79.79 0 0 1 .791-.786c.437 0 .791.352.791.786M1.779 91.489a.789.789 0 0 1-.792.786.789.789 0 0 1-.79-.786.79.79 0 0 1 .79-.787.79.79 0 0 1 .792.787M10.338 91.489a.788.788 0 0 1-.79.786.789.789 0 0 1-.791-.786.79.79 0 0 1 .79-.787c.437 0 .791.353.791.787M18.898 91.489a.788.788 0 0 1-.791.786.788.788 0 0 1-.79-.786c0-.434.354-.787.79-.787.437 0 .791.353.791.787M27.458 91.489a.789.789 0 0 1-.791.786.788.788 0 0 1-.79-.786c0-.434.354-.787.79-.787a.79.79 0 0 1 .791.787M36.018 91.489a.788.788 0 0 1-.79.786.788.788 0 0 1-.79-.786c0-.434.353-.787.79-.787.436 0 .79.353.79.787M44.578 91.489a.788.788 0 0 1-.79.786.788.788 0 0 1-.791-.786c0-.434.353-.787.79-.787.437 0 .791.353.791.787M53.138 91.489a.788.788 0 0 1-.791.786.788.788 0 0 1-.79-.786c0-.434.354-.787.79-.787.437 0 .791.353.791.787M61.698 91.489a.789.789 0 0 1-.791.786.788.788 0 0 1-.79-.786c0-.434.354-.787.79-.787a.79.79 0 0 1 .791.787M70.258 91.489a.788.788 0 0 1-.79.786.788.788 0 0 1-.79-.786c0-.434.353-.787.79-.787.436 0 .79.353.79.787M1.779 98.15a.789.789 0 0 1-.792.787.789.789 0 0 1-.79-.787.79.79 0 0 1 .79-.787.79.79 0 0 1 .792.787M10.338 98.15a.788.788 0 0 1-.79.787.789.789 0 0 1-.791-.787.79.79 0 0 1 .79-.787c.437 0 .791.353.791.787M18.898 98.15a.789.789 0 0 1-.791.787.788.788 0 0 1-.79-.787c0-.434.354-.787.79-.787.437 0 .791.353.791.787M27.458 98.15a.789.789 0 0 1-.791.787.788.788 0 0 1-.79-.787c0-.434.354-.787.79-.787a.79.79 0 0 1 .791.787M36.018 98.15a.788.788 0 0 1-.79.787.788.788 0 0 1-.79-.787c0-.434.353-.787.79-.787.436 0 .79.353.79.787M44.578 98.15a.788.788 0 0 1-.79.787.788.788 0 0 1-.791-.787c0-.434.353-.787.79-.787.437 0 .791.353.791.787M53.138 98.15a.789.789 0 0 1-.791.787.788.788 0 0 1-.79-.787c0-.434.354-.787.79-.787.437 0 .791.353.791.787M61.698 98.15a.789.789 0 0 1-.791.787.788.788 0 0 1-.79-.787c0-.434.354-.787.79-.787a.79.79 0 0 1 .791.787M70.258 98.15a.788.788 0 0 1-.79.787.788.788 0 0 1-.79-.787c0-.434.353-.787.79-.787.436 0 .79.353.79.787M1.779 104.811a.79.79 0 0 1-.792.787.79.79 0 0 1-.79-.787.79.79 0 0 1 .79-.787.79.79 0 0 1 .792.787M10.338 104.811a.789.789 0 0 1-.79.787.79.79 0 0 1-.791-.787.79.79 0 0 1 .79-.787c.437 0 .791.353.791.787M18.898 104.811a.789.789 0 0 1-.791.787.789.789 0 0 1-.79-.787c0-.434.354-.787.79-.787.437 0 .791.353.791.787M27.458 104.811a.79.79 0 0 1-.791.787.789.789 0 0 1-.79-.787c0-.434.354-.787.79-.787a.79.79 0 0 1 .791.787M36.018 104.811a.789.789 0 0 1-.79.787.789.789 0 0 1-.79-.787c0-.434.353-.787.79-.787.436 0 .79.353.79.787M44.578 104.811a.789.789 0 0 1-.79.787.789.789 0 0 1-.791-.787c0-.434.353-.787.79-.787.437 0 .791.353.791.787M53.138 104.811a.789.789 0 0 1-.791.787.789.789 0 0 1-.79-.787c0-.434.354-.787.79-.787.437 0 .791.353.791.787M61.698 104.811a.79.79 0 0 1-.791.787.789.789 0 0 1-.79-.787c0-.434.354-.787.79-.787a.79.79 0 0 1 .791.787M70.258 104.811a.789.789 0 0 1-.79.787.789.789 0 0 1-.79-.787c0-.434.353-.787.79-.787.436 0 .79.353.79.787"/>
        </g>
        <g fill="#FB043D" fill-rule="nonzero" opacity=".1">
            <path d="M176.475.857a.619.619 0 0 1-.616.621.618.618 0 0 1-.615-.621c0-.344.275-.622.615-.622.34 0 .616.278.616.622M183.14.857a.619.619 0 0 1-.616.621.619.619 0 0 1-.616-.621.62.62 0 0 1 .616-.622c.34 0 .616.278.616.622M189.804.857a.618.618 0 0 1-.615.621.619.619 0 0 1-.616-.621c0-.344.276-.622.616-.622.34 0 .615.278.615.622M196.47.857a.619.619 0 0 1-.617.621.618.618 0 0 1-.615-.621c0-.344.276-.622.615-.622a.62.62 0 0 1 .616.622M203.134.857a.619.619 0 0 1-.616.621.619.619 0 0 1-.616-.621c0-.344.276-.622.616-.622a.62.62 0 0 1 .616.622M209.799.857a.618.618 0 0 1-.616.621.619.619 0 0 1-.616-.621c0-.344.276-.622.616-.622.34 0 .616.278.616.622M216.464.857a.619.619 0 0 1-.616.621.619.619 0 0 1-.616-.621.62.62 0 0 1 .616-.622c.34 0 .616.278.616.622M223.128.857a.618.618 0 0 1-.615.621.619.619 0 0 1-.616-.621.62.62 0 0 1 .616-.622c.34 0 .615.278.615.622M229.793.857a.619.619 0 0 1-.616.621.618.618 0 0 1-.615-.621c0-.344.275-.622.615-.622.34 0 .616.278.616.622M236.458.857a.619.619 0 0 1-.616.621.619.619 0 0 1-.616-.621c0-.344.276-.622.616-.622a.62.62 0 0 1 .616.622M176.475 6.123a.619.619 0 0 1-.616.622.619.619 0 0 1-.615-.622c0-.344.275-.622.615-.622.34 0 .616.278.616.622M183.14 6.123a.619.619 0 0 1-.616.622.62.62 0 0 1-.616-.622.62.62 0 0 1 .616-.622c.34 0 .616.278.616.622M189.804 6.123a.619.619 0 0 1-.615.622.619.619 0 0 1-.616-.622c0-.344.276-.622.616-.622.34 0 .615.278.615.622M196.47 6.123a.62.62 0 0 1-.617.622.619.619 0 0 1-.615-.622c0-.344.276-.622.615-.622a.62.62 0 0 1 .616.622M203.134 6.123a.62.62 0 0 1-.616.622.619.619 0 0 1-.616-.622c0-.344.276-.622.616-.622a.62.62 0 0 1 .616.622M209.799 6.123a.619.619 0 0 1-.616.622.619.619 0 0 1-.616-.622c0-.344.276-.622.616-.622.34 0 .616.278.616.622M216.464 6.123a.619.619 0 0 1-.616.622.62.62 0 0 1-.616-.622.62.62 0 0 1 .616-.622c.34 0 .616.278.616.622M223.128 6.123a.618.618 0 0 1-.615.622.62.62 0 0 1-.616-.622.62.62 0 0 1 .616-.622c.34 0 .615.278.615.622M229.793 6.123a.619.619 0 0 1-.616.622.619.619 0 0 1-.615-.622c0-.344.275-.622.615-.622.34 0 .616.278.616.622M236.458 6.123a.62.62 0 0 1-.616.622.619.619 0 0 1-.616-.622c0-.344.276-.622.616-.622a.62.62 0 0 1 .616.622M176.475 11.39a.619.619 0 0 1-.616.621.619.619 0 0 1-.615-.622c0-.343.275-.621.615-.621.34 0 .616.278.616.621M183.14 11.39a.619.619 0 0 1-.616.621.62.62 0 0 1-.616-.622c0-.343.276-.621.616-.621.34 0 .616.278.616.621M189.804 11.39a.619.619 0 0 1-.615.621.619.619 0 0 1-.616-.622c0-.343.276-.621.616-.621.34 0 .615.278.615.621M196.47 11.39a.62.62 0 0 1-.617.621.619.619 0 0 1-.615-.622c0-.343.276-.621.615-.621.34 0 .616.278.616.621M203.134 11.39a.62.62 0 0 1-.616.621.619.619 0 0 1-.616-.622c0-.343.276-.621.616-.621.34 0 .616.278.616.621M209.799 11.39a.619.619 0 0 1-.616.621.619.619 0 0 1-.616-.622c0-.343.276-.621.616-.621.34 0 .616.278.616.621M216.464 11.39a.619.619 0 0 1-.616.621.62.62 0 0 1-.616-.622c0-.343.276-.621.616-.621.34 0 .616.278.616.621M223.128 11.39a.618.618 0 0 1-.615.621.62.62 0 0 1-.616-.622c0-.343.276-.621.616-.621.34 0 .615.278.615.621M229.793 11.39a.619.619 0 0 1-.616.621.619.619 0 0 1-.615-.622c0-.343.275-.621.615-.621.34 0 .616.278.616.621M236.458 11.39a.62.62 0 0 1-.616.621.619.619 0 0 1-.616-.622c0-.343.276-.621.616-.621.34 0 .616.278.616.621M176.475 16.655a.619.619 0 0 1-.616.622.619.619 0 0 1-.615-.622c0-.343.275-.62.615-.62.34 0 .616.277.616.62M183.14 16.655a.619.619 0 0 1-.616.622.62.62 0 0 1-.616-.622c0-.343.276-.62.616-.62.34 0 .616.277.616.62M189.804 16.655a.619.619 0 0 1-.615.622.619.619 0 0 1-.616-.622c0-.343.276-.62.616-.62.34 0 .615.277.615.62M196.47 16.655a.62.62 0 0 1-.617.622.619.619 0 0 1-.615-.622c0-.343.276-.62.615-.62.34 0 .616.277.616.62M203.134 16.655a.62.62 0 0 1-.616.622.619.619 0 0 1-.616-.622c0-.343.276-.62.616-.62.34 0 .616.277.616.62M209.799 16.655a.619.619 0 0 1-.616.622.619.619 0 0 1-.616-.622c0-.343.276-.62.616-.62.34 0 .616.277.616.62M216.464 16.655a.619.619 0 0 1-.616.622.62.62 0 0 1-.616-.622c0-.343.276-.62.616-.62.34 0 .616.277.616.62M223.128 16.655a.618.618 0 0 1-.615.622.62.62 0 0 1-.616-.622c0-.343.276-.62.616-.62.34 0 .615.277.615.62M229.793 16.655a.619.619 0 0 1-.616.622.619.619 0 0 1-.615-.622c0-.343.275-.62.615-.62.34 0 .616.277.616.62M236.458 16.655a.62.62 0 0 1-.616.622.619.619 0 0 1-.616-.622c0-.343.276-.62.616-.62.34 0 .616.277.616.62M176.475 21.922a.619.619 0 0 1-.616.621.618.618 0 0 1-.615-.62c0-.345.275-.623.615-.623.34 0 .616.278.616.622M183.14 21.922a.619.619 0 0 1-.616.621.619.619 0 0 1-.616-.62.62.62 0 0 1 .616-.623c.34 0 .616.278.616.622M189.804 21.922a.618.618 0 0 1-.615.621.619.619 0 0 1-.616-.62c0-.345.276-.623.616-.623.34 0 .615.278.615.622M196.47 21.922a.619.619 0 0 1-.617.621.618.618 0 0 1-.615-.62c0-.345.276-.623.615-.623a.62.62 0 0 1 .616.622M203.134 21.922a.619.619 0 0 1-.616.621.619.619 0 0 1-.616-.62c0-.345.276-.623.616-.623a.62.62 0 0 1 .616.622M209.799 21.922a.618.618 0 0 1-.616.621.619.619 0 0 1-.616-.62c0-.345.276-.623.616-.623.34 0 .616.278.616.622M216.464 21.922a.619.619 0 0 1-.616.621.619.619 0 0 1-.616-.62.62.62 0 0 1 .616-.623c.34 0 .616.278.616.622M223.128 21.922a.618.618 0 0 1-.615.621.619.619 0 0 1-.616-.62.62.62 0 0 1 .616-.623c.34 0 .615.278.615.622M229.793 21.922a.619.619 0 0 1-.616.621.618.618 0 0 1-.615-.62c0-.345.275-.623.615-.623.34 0 .616.278.616.622M236.458 21.922a.619.619 0 0 1-.616.621.619.619 0 0 1-.616-.62c0-.345.276-.623.616-.623a.62.62 0 0 1 .616.622M176.475 27.188a.619.619 0 0 1-.616.622.619.619 0 0 1-.615-.622c0-.343.275-.622.615-.622.34 0 .616.279.616.622M183.14 27.188a.619.619 0 0 1-.616.622.62.62 0 0 1-.616-.622.62.62 0 0 1 .616-.622c.34 0 .616.279.616.622M189.804 27.188a.619.619 0 0 1-.615.622.619.619 0 0 1-.616-.622c0-.343.276-.622.616-.622.34 0 .615.279.615.622M196.47 27.188a.62.62 0 0 1-.617.622.619.619 0 0 1-.615-.622c0-.343.276-.622.615-.622a.62.62 0 0 1 .616.622M203.134 27.188a.62.62 0 0 1-.616.622.619.619 0 0 1-.616-.622c0-.343.276-.622.616-.622a.62.62 0 0 1 .616.622M209.799 27.188a.619.619 0 0 1-.616.622.619.619 0 0 1-.616-.622c0-.343.276-.622.616-.622.34 0 .616.279.616.622M216.464 27.188a.619.619 0 0 1-.616.622.62.62 0 0 1-.616-.622.62.62 0 0 1 .616-.622c.34 0 .616.279.616.622M223.128 27.188a.618.618 0 0 1-.615.622.62.62 0 0 1-.616-.622.62.62 0 0 1 .616-.622c.34 0 .615.279.615.622M229.793 27.188a.619.619 0 0 1-.616.622.619.619 0 0 1-.615-.622c0-.343.275-.622.615-.622.34 0 .616.279.616.622M236.458 27.188a.62.62 0 0 1-.616.622.619.619 0 0 1-.616-.622c0-.343.276-.622.616-.622a.62.62 0 0 1 .616.622M176.475 32.454a.619.619 0 0 1-.616.622.619.619 0 0 1-.615-.622c0-.343.275-.622.615-.622a.62.62 0 0 1 .616.622M183.14 32.454a.619.619 0 0 1-.616.622.62.62 0 0 1-.616-.622.62.62 0 0 1 .616-.622.62.62 0 0 1 .616.622M189.804 32.454a.619.619 0 0 1-.615.622.619.619 0 0 1-.616-.622.62.62 0 0 1 .616-.622c.34 0 .615.28.615.622M196.47 32.454a.62.62 0 0 1-.617.622.619.619 0 0 1-.615-.622c0-.343.276-.622.615-.622a.62.62 0 0 1 .616.622M203.134 32.454a.62.62 0 0 1-.616.622.619.619 0 0 1-.616-.622.62.62 0 0 1 .616-.622.62.62 0 0 1 .616.622M209.799 32.454a.619.619 0 0 1-.616.622.619.619 0 0 1-.616-.622.62.62 0 0 1 .616-.622c.34 0 .616.28.616.622M216.464 32.454a.619.619 0 0 1-.616.622.62.62 0 0 1-.616-.622.62.62 0 0 1 .616-.622.62.62 0 0 1 .616.622M223.128 32.454a.618.618 0 0 1-.615.622.62.62 0 0 1-.616-.622.62.62 0 0 1 .616-.622c.34 0 .615.28.615.622M229.793 32.454a.619.619 0 0 1-.616.622.619.619 0 0 1-.615-.622c0-.343.275-.622.615-.622a.62.62 0 0 1 .616.622M236.458 32.454a.62.62 0 0 1-.616.622.619.619 0 0 1-.616-.622.62.62 0 0 1 .616-.622.62.62 0 0 1 .616.622M176.475 37.72a.619.619 0 0 1-.616.622.619.619 0 0 1-.615-.622c0-.343.275-.62.615-.62.34 0 .616.277.616.62M183.14 37.72a.619.619 0 0 1-.616.622.62.62 0 0 1-.616-.622c0-.343.276-.62.616-.62.34 0 .616.277.616.62M189.804 37.72a.619.619 0 0 1-.615.622.619.619 0 0 1-.616-.622c0-.343.276-.62.616-.62.34 0 .615.277.615.62M196.47 37.72a.62.62 0 0 1-.617.622.619.619 0 0 1-.615-.622c0-.343.276-.62.615-.62.34 0 .616.277.616.62M203.134 37.72a.62.62 0 0 1-.616.622.619.619 0 0 1-.616-.622c0-.343.276-.62.616-.62.34 0 .616.277.616.62M209.799 37.72a.619.619 0 0 1-.616.622.619.619 0 0 1-.616-.622c0-.343.276-.62.616-.62.34 0 .616.277.616.62M216.464 37.72a.619.619 0 0 1-.616.622.62.62 0 0 1-.616-.622c0-.343.276-.62.616-.62.34 0 .616.277.616.62M223.128 37.72a.618.618 0 0 1-.615.622.62.62 0 0 1-.616-.622c0-.343.276-.62.616-.62.34 0 .615.277.615.62M229.793 37.72a.619.619 0 0 1-.616.622.619.619 0 0 1-.615-.622c0-.343.275-.62.615-.62.34 0 .616.277.616.62M236.458 37.72a.62.62 0 0 1-.616.622.619.619 0 0 1-.616-.622c0-.343.276-.62.616-.62.34 0 .616.277.616.62M176.475 42.987a.619.619 0 0 1-.616.622.619.619 0 0 1-.615-.622c0-.344.275-.622.615-.622.34 0 .616.278.616.622M183.14 42.987a.619.619 0 0 1-.616.622.62.62 0 0 1-.616-.622.62.62 0 0 1 .616-.622c.34 0 .616.278.616.622M189.804 42.987a.619.619 0 0 1-.615.622.619.619 0 0 1-.616-.622c0-.344.276-.622.616-.622.34 0 .615.278.615.622M196.47 42.987a.62.62 0 0 1-.617.622.619.619 0 0 1-.615-.622c0-.344.276-.622.615-.622a.62.62 0 0 1 .616.622M203.134 42.987a.62.62 0 0 1-.616.622.619.619 0 0 1-.616-.622c0-.344.276-.622.616-.622a.62.62 0 0 1 .616.622M209.799 42.987a.619.619 0 0 1-.616.622.619.619 0 0 1-.616-.622c0-.344.276-.622.616-.622.34 0 .616.278.616.622M216.464 42.987a.619.619 0 0 1-.616.622.62.62 0 0 1-.616-.622.62.62 0 0 1 .616-.622c.34 0 .616.278.616.622M223.128 42.987a.618.618 0 0 1-.615.622.62.62 0 0 1-.616-.622.62.62 0 0 1 .616-.622c.34 0 .615.278.615.622M229.793 42.987a.619.619 0 0 1-.616.622.619.619 0 0 1-.615-.622c0-.344.275-.622.615-.622.34 0 .616.278.616.622M236.458 42.987a.62.62 0 0 1-.616.622.619.619 0 0 1-.616-.622c0-.344.276-.622.616-.622a.62.62 0 0 1 .616.622M176.475 48.253a.62.62 0 0 1-.616.622.619.619 0 0 1-.615-.622c0-.343.275-.621.615-.621.34 0 .616.278.616.621M183.14 48.253a.62.62 0 0 1-.616.622.62.62 0 0 1-.616-.622c0-.343.276-.621.616-.621.34 0 .616.278.616.621M189.804 48.253a.619.619 0 0 1-.615.622.62.62 0 0 1-.616-.622c0-.343.276-.621.616-.621.34 0 .615.278.615.621M196.47 48.253a.62.62 0 0 1-.617.622.619.619 0 0 1-.615-.622c0-.343.276-.621.615-.621.34 0 .616.278.616.621M203.134 48.253a.62.62 0 0 1-.616.622.62.62 0 0 1-.616-.622c0-.343.276-.621.616-.621.34 0 .616.278.616.621M209.799 48.253a.619.619 0 0 1-.616.622.62.62 0 0 1-.616-.622c0-.343.276-.621.616-.621.34 0 .616.278.616.621M216.464 48.253a.62.62 0 0 1-.616.622.62.62 0 0 1-.616-.622c0-.343.276-.621.616-.621.34 0 .616.278.616.621M223.128 48.253a.619.619 0 0 1-.615.622.62.62 0 0 1-.616-.622c0-.343.276-.621.616-.621.34 0 .615.278.615.621M229.793 48.253a.62.62 0 0 1-.616.622.619.619 0 0 1-.615-.622c0-.343.275-.621.615-.621.34 0 .616.278.616.621M236.458 48.253a.62.62 0 0 1-.616.622.62.62 0 0 1-.616-.622c0-.343.276-.621.616-.621.34 0 .616.278.616.621M176.475 53.52a.619.619 0 0 1-.616.621.619.619 0 0 1-.615-.622c0-.343.275-.62.615-.62.34 0 .616.277.616.62M183.14 53.52a.619.619 0 0 1-.616.621.62.62 0 0 1-.616-.622c0-.343.276-.62.616-.62.34 0 .616.277.616.62M189.804 53.52a.619.619 0 0 1-.615.621.619.619 0 0 1-.616-.622c0-.343.276-.62.616-.62.34 0 .615.277.615.62M196.47 53.52a.62.62 0 0 1-.617.621.619.619 0 0 1-.615-.622c0-.343.276-.62.615-.62.34 0 .616.277.616.62M203.134 53.52a.62.62 0 0 1-.616.621.619.619 0 0 1-.616-.622c0-.343.276-.62.616-.62.34 0 .616.277.616.62M209.799 53.52a.619.619 0 0 1-.616.621.619.619 0 0 1-.616-.622c0-.343.276-.62.616-.62.34 0 .616.277.616.62M216.464 53.52a.619.619 0 0 1-.616.621.62.62 0 0 1-.616-.622c0-.343.276-.62.616-.62.34 0 .616.277.616.62M223.128 53.52a.618.618 0 0 1-.615.621.62.62 0 0 1-.616-.622c0-.343.276-.62.616-.62.34 0 .615.277.615.62M229.793 53.52a.619.619 0 0 1-.616.621.619.619 0 0 1-.615-.622c0-.343.275-.62.615-.62.34 0 .616.277.616.62M236.458 53.52a.62.62 0 0 1-.616.621.619.619 0 0 1-.616-.622c0-.343.276-.62.616-.62.34 0 .616.277.616.62M176.475 58.391a.618.618 0 0 1-.616.621.618.618 0 0 1-.615-.621c0-.344.275-.622.615-.622.34 0 .616.278.616.622M183.14 58.391a.618.618 0 0 1-.616.621.619.619 0 0 1-.616-.621.62.62 0 0 1 .616-.622c.34 0 .616.278.616.622M189.804 58.391a.618.618 0 0 1-.615.621.618.618 0 0 1-.616-.621c0-.344.276-.622.616-.622.34 0 .615.278.615.622M196.47 58.391a.619.619 0 0 1-.617.621.618.618 0 0 1-.615-.621c0-.344.276-.622.615-.622a.62.62 0 0 1 .616.622M203.134 58.391a.619.619 0 0 1-.616.621.618.618 0 0 1-.616-.621c0-.344.276-.622.616-.622a.62.62 0 0 1 .616.622M209.799 58.391a.618.618 0 0 1-.616.621.618.618 0 0 1-.616-.621c0-.344.276-.622.616-.622.34 0 .616.278.616.622M216.464 58.391a.618.618 0 0 1-.616.621.619.619 0 0 1-.616-.621.62.62 0 0 1 .616-.622c.34 0 .616.278.616.622M223.128 58.391a.618.618 0 0 1-.615.621.619.619 0 0 1-.616-.621.62.62 0 0 1 .616-.622c.34 0 .615.278.615.622M229.793 58.391a.618.618 0 0 1-.616.621.618.618 0 0 1-.615-.621c0-.344.275-.622.615-.622.34 0 .616.278.616.622M236.458 58.391a.619.619 0 0 1-.616.621.618.618 0 0 1-.616-.621c0-.344.276-.622.616-.622a.62.62 0 0 1 .616.622M176.475 63.657a.62.62 0 0 1-.616.622.619.619 0 0 1-.615-.622c0-.344.275-.621.615-.621.34 0 .616.277.616.621M183.14 63.657a.62.62 0 0 1-.616.622.62.62 0 0 1-.616-.622c0-.344.276-.621.616-.621.34 0 .616.277.616.621M189.804 63.657a.619.619 0 0 1-.615.622.62.62 0 0 1-.616-.622c0-.344.276-.621.616-.621.34 0 .615.277.615.621M196.47 63.657a.62.62 0 0 1-.617.622.619.619 0 0 1-.615-.622c0-.344.276-.621.615-.621.34 0 .616.277.616.621M203.134 63.657a.62.62 0 0 1-.616.622.62.62 0 0 1-.616-.622c0-.344.276-.621.616-.621.34 0 .616.277.616.621M209.799 63.657a.619.619 0 0 1-.616.622.62.62 0 0 1-.616-.622c0-.344.276-.621.616-.621.34 0 .616.277.616.621M216.464 63.657a.62.62 0 0 1-.616.622.62.62 0 0 1-.616-.622c0-.344.276-.621.616-.621.34 0 .616.277.616.621M223.128 63.657a.619.619 0 0 1-.615.622.62.62 0 0 1-.616-.622c0-.344.276-.621.616-.621.34 0 .615.277.615.621M229.793 63.657a.62.62 0 0 1-.616.622.619.619 0 0 1-.615-.622c0-.344.275-.621.615-.621.34 0 .616.277.616.621M236.458 63.657a.62.62 0 0 1-.616.622.62.62 0 0 1-.616-.622c0-.344.276-.621.616-.621.34 0 .616.277.616.621M176.475 68.923a.619.619 0 0 1-.616.622.619.619 0 0 1-.615-.622c0-.344.275-.622.615-.622.34 0 .616.278.616.622M183.14 68.923a.619.619 0 0 1-.616.622.62.62 0 0 1-.616-.622.62.62 0 0 1 .616-.622c.34 0 .616.278.616.622M189.804 68.923a.619.619 0 0 1-.615.622.619.619 0 0 1-.616-.622c0-.344.276-.622.616-.622.34 0 .615.278.615.622M196.47 68.923a.62.62 0 0 1-.617.622.619.619 0 0 1-.615-.622c0-.344.276-.622.615-.622a.62.62 0 0 1 .616.622M203.134 68.923a.62.62 0 0 1-.616.622.619.619 0 0 1-.616-.622c0-.344.276-.622.616-.622a.62.62 0 0 1 .616.622M209.799 68.923a.619.619 0 0 1-.616.622.619.619 0 0 1-.616-.622c0-.344.276-.622.616-.622.34 0 .616.278.616.622M216.464 68.923a.619.619 0 0 1-.616.622.62.62 0 0 1-.616-.622.62.62 0 0 1 .616-.622c.34 0 .616.278.616.622M223.128 68.923a.618.618 0 0 1-.615.622.62.62 0 0 1-.616-.622.62.62 0 0 1 .616-.622c.34 0 .615.278.615.622M229.793 68.923a.619.619 0 0 1-.616.622.619.619 0 0 1-.615-.622c0-.344.275-.622.615-.622.34 0 .616.278.616.622M236.458 68.923a.62.62 0 0 1-.616.622.619.619 0 0 1-.616-.622c0-.344.276-.622.616-.622a.62.62 0 0 1 .616.622M176.475 74.19a.619.619 0 0 1-.616.621.619.619 0 0 1-.615-.622c0-.343.275-.621.615-.621.34 0 .616.278.616.621M183.14 74.19a.619.619 0 0 1-.616.621.62.62 0 0 1-.616-.622c0-.343.276-.621.616-.621.34 0 .616.278.616.621M189.804 74.19a.619.619 0 0 1-.615.621.619.619 0 0 1-.616-.622c0-.343.276-.621.616-.621.34 0 .615.278.615.621M196.47 74.19a.62.62 0 0 1-.617.621.619.619 0 0 1-.615-.622c0-.343.276-.621.615-.621.34 0 .616.278.616.621M203.134 74.19a.62.62 0 0 1-.616.621.619.619 0 0 1-.616-.622c0-.343.276-.621.616-.621.34 0 .616.278.616.621M209.799 74.19a.619.619 0 0 1-.616.621.619.619 0 0 1-.616-.622c0-.343.276-.621.616-.621.34 0 .616.278.616.621M216.464 74.19a.619.619 0 0 1-.616.621.62.62 0 0 1-.616-.622c0-.343.276-.621.616-.621.34 0 .616.278.616.621M223.128 74.19a.618.618 0 0 1-.615.621.62.62 0 0 1-.616-.622c0-.343.276-.621.616-.621.34 0 .615.278.615.621M229.793 74.19a.619.619 0 0 1-.616.621.619.619 0 0 1-.615-.622c0-.343.275-.621.615-.621.34 0 .616.278.616.621M236.458 74.19a.62.62 0 0 1-.616.621.619.619 0 0 1-.616-.622c0-.343.276-.621.616-.621.34 0 .616.278.616.621M176.475 79.456a.619.619 0 0 1-.616.622.619.619 0 0 1-.615-.622c0-.344.275-.622.615-.622.34 0 .616.278.616.622M183.14 79.456a.619.619 0 0 1-.616.622.62.62 0 0 1-.616-.622.62.62 0 0 1 .616-.622c.34 0 .616.278.616.622M189.804 79.456a.619.619 0 0 1-.615.622.619.619 0 0 1-.616-.622c0-.344.276-.622.616-.622.34 0 .615.278.615.622M196.47 79.456a.62.62 0 0 1-.617.622.619.619 0 0 1-.615-.622c0-.344.276-.622.615-.622a.62.62 0 0 1 .616.622M203.134 79.456a.62.62 0 0 1-.616.622.619.619 0 0 1-.616-.622c0-.344.276-.622.616-.622a.62.62 0 0 1 .616.622M209.799 79.456a.619.619 0 0 1-.616.622.619.619 0 0 1-.616-.622c0-.344.276-.622.616-.622.34 0 .616.278.616.622M216.464 79.456a.619.619 0 0 1-.616.622.62.62 0 0 1-.616-.622.62.62 0 0 1 .616-.622c.34 0 .616.278.616.622M223.128 79.456a.618.618 0 0 1-.615.622.62.62 0 0 1-.616-.622.62.62 0 0 1 .616-.622c.34 0 .615.278.615.622M229.793 79.456a.619.619 0 0 1-.616.622.619.619 0 0 1-.615-.622c0-.344.275-.622.615-.622.34 0 .616.278.616.622M236.458 79.456a.62.62 0 0 1-.616.622.619.619 0 0 1-.616-.622c0-.344.276-.622.616-.622a.62.62 0 0 1 .616.622M176.475 84.722a.618.618 0 0 1-.616.621.618.618 0 0 1-.615-.62c0-.344.275-.623.615-.623a.62.62 0 0 1 .616.622M183.14 84.722a.618.618 0 0 1-.616.621.619.619 0 0 1-.616-.62.62.62 0 0 1 .616-.623.62.62 0 0 1 .616.622M189.804 84.722a.618.618 0 0 1-.615.621.618.618 0 0 1-.616-.62.62.62 0 0 1 .616-.623c.34 0 .615.28.615.622M196.47 84.722a.619.619 0 0 1-.617.621.618.618 0 0 1-.615-.62c0-.344.276-.623.615-.623a.62.62 0 0 1 .616.622M203.134 84.722a.619.619 0 0 1-.616.621.618.618 0 0 1-.616-.62.62.62 0 0 1 .616-.623.62.62 0 0 1 .616.622M209.799 84.722a.618.618 0 0 1-.616.621.618.618 0 0 1-.616-.62.62.62 0 0 1 .616-.623c.34 0 .616.28.616.622M216.464 84.722a.618.618 0 0 1-.616.621.619.619 0 0 1-.616-.62.62.62 0 0 1 .616-.623.62.62 0 0 1 .616.622M223.128 84.722a.618.618 0 0 1-.615.621.619.619 0 0 1-.616-.62.62.62 0 0 1 .616-.623c.34 0 .615.28.615.622M229.793 84.722a.618.618 0 0 1-.616.621.618.618 0 0 1-.615-.62c0-.344.275-.623.615-.623a.62.62 0 0 1 .616.622M236.458 84.722a.619.619 0 0 1-.616.621.618.618 0 0 1-.616-.62.62.62 0 0 1 .616-.623.62.62 0 0 1 .616.622M176.475 89.988a.619.619 0 0 1-.616.622.619.619 0 0 1-.615-.622c0-.343.275-.621.615-.621.34 0 .616.278.616.621M183.14 89.988a.619.619 0 0 1-.616.622.62.62 0 0 1-.616-.622c0-.343.276-.621.616-.621.34 0 .616.278.616.621M189.804 89.988a.619.619 0 0 1-.615.622.619.619 0 0 1-.616-.622c0-.343.276-.621.616-.621.34 0 .615.278.615.621M196.47 89.988a.62.62 0 0 1-.617.622.619.619 0 0 1-.615-.622c0-.343.276-.621.615-.621.34 0 .616.278.616.621M203.134 89.988a.62.62 0 0 1-.616.622.619.619 0 0 1-.616-.622c0-.343.276-.621.616-.621.34 0 .616.278.616.621M209.799 89.988a.619.619 0 0 1-.616.622.619.619 0 0 1-.616-.622c0-.343.276-.621.616-.621.34 0 .616.278.616.621M216.464 89.988a.619.619 0 0 1-.616.622.62.62 0 0 1-.616-.622c0-.343.276-.621.616-.621.34 0 .616.278.616.621M223.128 89.988a.618.618 0 0 1-.615.622.62.62 0 0 1-.616-.622c0-.343.276-.621.616-.621.34 0 .615.278.615.621M229.793 89.988a.619.619 0 0 1-.616.622.619.619 0 0 1-.615-.622c0-.343.275-.621.615-.621.34 0 .616.278.616.621M236.458 89.988a.62.62 0 0 1-.616.622.619.619 0 0 1-.616-.622c0-.343.276-.621.616-.621.34 0 .616.278.616.621M176.475 95.255a.618.618 0 0 1-.616.621.618.618 0 0 1-.615-.621c0-.344.275-.622.615-.622.34 0 .616.278.616.622M183.14 95.255a.618.618 0 0 1-.616.621.619.619 0 0 1-.616-.621.62.62 0 0 1 .616-.622c.34 0 .616.278.616.622M189.804 95.255a.618.618 0 0 1-.615.621.618.618 0 0 1-.616-.621c0-.344.276-.622.616-.622.34 0 .615.278.615.622M196.47 95.255a.619.619 0 0 1-.617.621.618.618 0 0 1-.615-.621c0-.344.276-.622.615-.622a.62.62 0 0 1 .616.622M203.134 95.255a.619.619 0 0 1-.616.621.618.618 0 0 1-.616-.621c0-.344.276-.622.616-.622a.62.62 0 0 1 .616.622M209.799 95.255a.618.618 0 0 1-.616.621.618.618 0 0 1-.616-.621c0-.344.276-.622.616-.622.34 0 .616.278.616.622M216.464 95.255a.618.618 0 0 1-.616.621.619.619 0 0 1-.616-.621.62.62 0 0 1 .616-.622c.34 0 .616.278.616.622M223.128 95.255a.618.618 0 0 1-.615.621.619.619 0 0 1-.616-.621.62.62 0 0 1 .616-.622c.34 0 .615.278.615.622M229.793 95.255a.618.618 0 0 1-.616.621.618.618 0 0 1-.615-.621c0-.344.275-.622.615-.622.34 0 .616.278.616.622M236.458 95.255a.619.619 0 0 1-.616.621.618.618 0 0 1-.616-.621c0-.344.276-.622.616-.622a.62.62 0 0 1 .616.622M176.475 100.521a.62.62 0 0 1-.616.622.619.619 0 0 1-.615-.622c0-.344.275-.621.615-.621.34 0 .616.277.616.621M183.14 100.521a.62.62 0 0 1-.616.622.62.62 0 0 1-.616-.622c0-.344.276-.621.616-.621.34 0 .616.277.616.621M189.804 100.521a.619.619 0 0 1-.615.622.62.62 0 0 1-.616-.622c0-.344.276-.621.616-.621.34 0 .615.277.615.621M196.47 100.521a.62.62 0 0 1-.617.622.619.619 0 0 1-.615-.622c0-.344.276-.621.615-.621.34 0 .616.277.616.621M203.134 100.521a.62.62 0 0 1-.616.622.62.62 0 0 1-.616-.622c0-.344.276-.621.616-.621.34 0 .616.277.616.621M209.799 100.521a.619.619 0 0 1-.616.622.62.62 0 0 1-.616-.622c0-.344.276-.621.616-.621.34 0 .616.277.616.621M216.464 100.521a.62.62 0 0 1-.616.622.62.62 0 0 1-.616-.622c0-.344.276-.621.616-.621.34 0 .616.277.616.621M223.128 100.521a.619.619 0 0 1-.615.622.62.62 0 0 1-.616-.622c0-.344.276-.621.616-.621.34 0 .615.277.615.621M229.793 100.521a.62.62 0 0 1-.616.622.619.619 0 0 1-.615-.622c0-.344.275-.621.615-.621.34 0 .616.277.616.621M236.458 100.521a.62.62 0 0 1-.616.622.62.62 0 0 1-.616-.622c0-.344.276-.621.616-.621.34 0 .616.277.616.621M196.47 105.787a.62.62 0 0 1-.617.622.619.619 0 0 1-.615-.622c0-.343.276-.622.615-.622a.62.62 0 0 1 .616.622M203.134 105.787a.62.62 0 0 1-.616.622.619.619 0 0 1-.616-.622.62.62 0 0 1 .616-.622.62.62 0 0 1 .616.622M209.799 105.787a.619.619 0 0 1-.616.622.619.619 0 0 1-.616-.622.62.62 0 0 1 .616-.622c.34 0 .616.28.616.622M216.464 105.787a.619.619 0 0 1-.616.622.62.62 0 0 1-.616-.622.62.62 0 0 1 .616-.622.62.62 0 0 1 .616.622M223.128 105.787a.618.618 0 0 1-.615.622.62.62 0 0 1-.616-.622.62.62 0 0 1 .616-.622c.34 0 .615.28.615.622M229.793 105.787a.619.619 0 0 1-.616.622.619.619 0 0 1-.615-.622c0-.343.275-.622.615-.622a.62.62 0 0 1 .616.622M196.47 111.053a.62.62 0 0 1-.617.622.619.619 0 0 1-.615-.622c0-.343.276-.621.615-.621.34 0 .616.278.616.621M203.134 111.053a.62.62 0 0 1-.616.622.619.619 0 0 1-.616-.622c0-.343.276-.621.616-.621.34 0 .616.278.616.621M209.799 111.053a.619.619 0 0 1-.616.622.619.619 0 0 1-.616-.622c0-.343.276-.621.616-.621.34 0 .616.278.616.621M216.464 111.053a.619.619 0 0 1-.616.622.62.62 0 0 1-.616-.622c0-.343.276-.621.616-.621.34 0 .616.278.616.621M223.128 111.053a.618.618 0 0 1-.615.622.62.62 0 0 1-.616-.622c0-.343.276-.621.616-.621.34 0 .615.278.615.621M229.793 111.053a.619.619 0 0 1-.616.622.619.619 0 0 1-.615-.622c0-.343.275-.621.615-.621.34 0 .616.278.616.621"/>
        </g>
        <path d="M253 29H78.024a37.926 37.926 0 0 0-26.887 11.194A38.317 38.317 0 0 0 40 67.218v46.564a38.32 38.32 0 0 0 11.137 27.024A37.926 37.926 0 0 0 78.024 152h66.561c28.753 0 56.329-11.48 76.66-31.916C241.578 99.648 253 71.932 253 43.032V29z"/>
        <g transform="translate(40 29)">
            <mask id="d" fill="#fff">
                <use xlink:href="#c"/>
            </mask>
            <g mask="url(#d)">
                <g transform="translate(67.87 74.63)">
                    <path fill="#F1F1F1" d="M82.055 3.286A2.75 2.75 0 0 0 79.3.536H3.071c-.73 0-1.432.29-1.95.805a2.747 2.747 0 0 0-.807 1.945v44.789h81.741V3.285z"/>
                    <path fill="#D8D8D8" d="M82.748 3.286a2.75 2.75 0 0 0-2.756-2.75H3.763c-.73 0-1.432.29-1.949.805a2.747 2.747 0 0 0-.807 1.945v44.789h81.741V3.285z"/>
                    <ellipse cx="41.531" cy="27.851" fill="#F1F1F1" rx="3.209" ry="3.201"/>
                </g>
            </g>
        </g>
        <path fill="#FF4702" d="M204 61.78a8.78 8.78 0 0 0-8.78-8.78h-6.44a8.78 8.78 0 0 0-8.78 8.78V77h15.22a8.78 8.78 0 0 0 8.78-8.78v-6.44z"/>
        <path fill="#202E4B" d="M206 48.437A8.563 8.563 0 0 0 214.563 57h4.874A8.563 8.563 0 0 0 228 48.437V35h-13.437A8.563 8.563 0 0 0 206 43.563v4.874z"/>
        <path fill="#FF4702" d="M200.367 11A8.366 8.366 0 0 0 192 19.367v1.266A8.367 8.367 0 0 0 200.367 29H210v-9.633A8.367 8.367 0 0 0 201.633 11h-1.266z"/>
        <path fill="#202E4B" fill-rule="nonzero" d="M218 46a1 1 0 1 1-2 0 1 1 0 0 1 2 0"/>
        <g stroke="#FFF" stroke-width=".5">
            <path d="M213.852 42.891a1.22 1.22 0 0 1-.076-1.759 1.314 1.314 0 0 1 1.815-.059 1.22 1.22 0 0 1 .076 1.76 1.313 1.313 0 0 1-1.815.058m2.55-2.666c-1.01-.908-2.58-.856-3.509.114-.927.97-.861 2.492.149 3.4 1.009.908 2.58.858 3.507-.113.928-.97.862-2.493-.148-3.4M222.08 49.21l-5.793-5.208.697-.729 5.793 5.21a.486.486 0 0 1 .03.702v.002a.525.525 0 0 1-.726.024M220.27 50.337c-.175-.157-.174-.431 0-.614l1.074-1.123.63.566-1.074 1.123c-.174.183-.457.204-.63.048M219.232 48.727c-.173-.156-.165-.439.018-.632l.733-.766.63.566-.733.767c-.183.192-.474.221-.648.065"/>
        </g>
        <g stroke="#FFF" stroke-width=".5">
            <path d="M199.735 65.571l-1.608.396-.032.008a.441.441 0 0 0-.316.313 4.775 4.775 0 0 1-.497 1.19.442.442 0 0 0 .002.45l.746 1.243-.76.76-1.231-.739a.441.441 0 0 0-.456 0 4.725 4.725 0 0 1-1.231.525.44.44 0 0 0-.312.312l-.049.188-.358 1.456h-1.071l-.317-1.294-.086-.342a.439.439 0 0 0-.314-.319 4.826 4.826 0 0 1-1.217-.513.441.441 0 0 0-.449 0l-1.212.726-.76-.76.724-1.206a.441.441 0 0 0 .001-.453 4.745 4.745 0 0 1-.515-1.223.44.44 0 0 0-.319-.314 615.32 615.32 0 0 0-1.637-.404V64.5c.48-.118 1.337-.329 1.638-.405a.441.441 0 0 0 .317-.313c.105-.392.26-.77.459-1.125a.44.44 0 0 0-.005-.442l-.812-1.356.76-.759.365.219c.439.264.939.563.952.572a.44.44 0 0 0 .454-.002 4.837 4.837 0 0 1 1.256-.536.438.438 0 0 0 .314-.318l.403-1.636h1.071c.145.586.4 1.624.404 1.636a.44.44 0 0 0 .313.319c.423.113.828.283 1.206.505.138.082.31.082.449 0l1.265-.759.76.76-.758 1.262a.442.442 0 0 0-.001.451c.224.378.395.785.508 1.208a.44.44 0 0 0 .31.312l.19.049 1.456.358v1.071z"/>
            <path fill="#FF4702" fill-rule="nonzero" d="M193.098 67.238a2.205 2.205 0 0 1-2.203-2.203c0-1.214.988-2.202 2.203-2.202 1.214 0 2.202.988 2.202 2.202a2.205 2.205 0 0 1-2.202 2.203z"/>
        </g>
        <g fill="#FFF" fill-rule="nonzero">
            <path d="M201.863 19.94l.367-.344-.733-.692-.98.922-3.52-3.31.134-.376-1.413-.778-.679.638.827 1.331.398-.125 3.517 3.31-.976.922.732.69.368-.345 3.52 3.314c.636.598 1.527.407 1.96 0a1.25 1.25 0 0 0 0-1.844l-3.522-3.312zm-5.505-3.107l-.335.106-.55-.886.302-.284.939.52-.113.314 3.67 3.454-.244.23-3.67-3.454zm3.18 4.836l-.245-.231 2.204-2.073.245.23-2.204 2.074zm5.603 3.199a1.087 1.087 0 0 1-1.47 0l-3.52-3.315.612-.576 3.519 3.313.244-.229-3.52-3.314.613-.576 3.522 3.314a.942.942 0 0 1 0 1.383z"/>
            <path d="M197.203 24.857a1.086 1.086 0 0 1-1.468 0 .937.937 0 0 1 0-1.382l3.36-3.163-.244-.23-3.36 3.162a1.25 1.25 0 0 0 0 1.843c.646.608 1.585.39 1.959 0l2.755-2.594-.244-.23-2.758 2.594zM200.308 19.17l.453-.425c-.348-.779-.066-1.782.57-2.381a2.498 2.498 0 0 1 1.922-.659l-1.16 1.094.826 1.297 1.378.778 1.161-1.094a2.185 2.185 0 0 1-.699 1.81 2.508 2.508 0 0 1-1.876.663l-.024.325a2.84 2.84 0 0 0 2.143-.756c1.252-1.178.673-2.708.673-2.708l-1.433 1.35-1.071-.606-.642-1.007 1.433-1.349s-1.63-.539-2.875.633c-.701.66-.97 1.618-.716 2.517l-.31.292.246.227z"/>
            <path d="M195.934 24.036c0 .195.168.353.375.353s.376-.158.376-.353c0-.196-.169-.354-.376-.354a.364.364 0 0 0-.375.354m.503 0a.124.124 0 0 1-.128.12c-.071 0-.128-.053-.128-.12s.057-.121.128-.121c.071 0 .128.054.128.12"/>
        </g>
    </g>
</svg>
