<svg xmlns="http://www.w3.org/2000/svg" width="310" height="220" viewBox="0 0 310 220">
    <g fill="none" fill-rule="evenodd">
        <path fill-rule="nonzero" d="M-37-2h384v224H-37z"/>
        <path fill="#E9EBEE" fill-rule="nonzero" d="M267.77 73.99h-41.53c-11.451-.023-20.732-9.247-20.765-20.64V32.713c-.03-11.44 9.265-20.74 20.765-20.778H309.3v20.778c-.013 22.804-18.602 41.282-41.525 41.277" opacity=".4"/>
        <g fill="#FB043D" fill-rule="nonzero" opacity=".1" transform="translate(205.475)">
            <circle cx="86.072" cy="124.26" r="1"/>
            <circle cx="76.525" cy="124.26" r="1"/>
            <circle cx="66.978" cy="124.26" r="1"/>
            <circle cx="57.431" cy="124.26" r="1"/>
            <circle cx="47.884" cy="124.26" r="1"/>
            <circle cx="38.934" cy="124.26" r="1"/>
            <circle cx="29.387" cy="124.26" r="1"/>
            <circle cx="19.84" cy="124.26" r="1"/>
            <circle cx="10.293" cy="124.26" r="1"/>
            <circle cx=".746" cy="124.26" r="1"/>
            <circle cx="86.072" cy="118.293" r="1"/>
            <circle cx="76.525" cy="118.293" r="1"/>
            <circle cx="66.978" cy="118.293" r="1"/>
            <circle cx="57.431" cy="118.293" r="1"/>
            <circle cx="47.884" cy="118.293" r="1"/>
            <circle cx="38.934" cy="118.293" r="1"/>
            <circle cx="29.387" cy="118.293" r="1"/>
            <circle cx="19.84" cy="118.293" r="1"/>
            <circle cx="10.293" cy="118.293" r="1"/>
            <circle cx=".746" cy="118.293" r="1"/>
            <circle cx="86.072" cy="112.326" r="1"/>
            <circle cx="76.525" cy="112.326" r="1"/>
            <circle cx="66.978" cy="112.326" r="1"/>
            <circle cx="57.431" cy="112.326" r="1"/>
            <circle cx="47.884" cy="112.326" r="1"/>
            <circle cx="38.934" cy="112.326" r="1"/>
            <circle cx="29.387" cy="112.326" r="1"/>
            <circle cx="19.84" cy="112.326" r="1"/>
            <circle cx="10.293" cy="112.326" r="1"/>
            <circle cx=".746" cy="112.326" r="1"/>
            <circle cx="86.072" cy="106.359" r="1"/>
            <circle cx="76.525" cy="106.359" r="1"/>
            <circle cx="66.978" cy="106.359" r="1"/>
            <circle cx="57.431" cy="106.359" r="1"/>
            <circle cx="47.884" cy="106.359" r="1"/>
            <circle cx="38.934" cy="106.359" r="1"/>
            <circle cx="29.387" cy="106.359" r="1"/>
            <circle cx="19.84" cy="106.359" r="1"/>
            <circle cx="10.293" cy="106.359" r="1"/>
            <circle cx=".746" cy="106.359" r="1"/>
            <circle cx="86.072" cy="100.393" r="1"/>
            <circle cx="76.525" cy="100.393" r="1"/>
            <circle cx="66.978" cy="100.393" r="1"/>
            <circle cx="57.431" cy="100.393" r="1"/>
            <circle cx="47.884" cy="100.393" r="1"/>
            <circle cx="38.934" cy="100.393" r="1"/>
            <circle cx="29.387" cy="100.393" r="1"/>
            <circle cx="19.84" cy="100.393" r="1"/>
            <circle cx="10.293" cy="100.393" r="1"/>
            <circle cx=".746" cy="100.393" r="1"/>
            <circle cx="86.072" cy="94.426" r="1"/>
            <circle cx="76.525" cy="94.426" r="1"/>
            <circle cx="66.978" cy="94.426" r="1"/>
            <circle cx="57.431" cy="94.426" r="1"/>
            <circle cx="47.884" cy="94.426" r="1"/>
            <circle cx="38.934" cy="94.426" r="1"/>
            <circle cx="29.387" cy="94.426" r="1"/>
            <circle cx="19.84" cy="94.426" r="1"/>
            <circle cx="10.293" cy="94.426" r="1"/>
            <circle cx=".746" cy="94.426" r="1"/>
            <circle cx="86.072" cy="89.056" r="1"/>
            <circle cx="76.525" cy="89.056" r="1"/>
            <circle cx="66.978" cy="89.056" r="1"/>
            <circle cx="57.431" cy="89.056" r="1"/>
            <circle cx="47.884" cy="89.056" r="1"/>
            <circle cx="38.934" cy="89.056" r="1"/>
            <circle cx="29.387" cy="89.056" r="1"/>
            <circle cx="19.84" cy="89.056" r="1"/>
            <circle cx="10.293" cy="89.056" r="1"/>
            <circle cx=".746" cy="89.056" r="1"/>
            <circle cx="86.072" cy="83.089" r="1"/>
            <circle cx="76.525" cy="83.089" r="1"/>
            <circle cx="66.978" cy="83.089" r="1"/>
            <circle cx="57.431" cy="83.089" r="1"/>
            <circle cx="47.884" cy="83.089" r="1"/>
            <circle cx="38.934" cy="83.089" r="1"/>
            <circle cx="29.387" cy="83.089" r="1"/>
            <circle cx="19.84" cy="83.089" r="1"/>
            <circle cx="10.293" cy="83.089" r="1"/>
            <circle cx=".746" cy="83.089" r="1"/>
            <circle cx="86.072" cy="77.122" r="1"/>
            <circle cx="76.525" cy="77.122" r="1"/>
            <circle cx="66.978" cy="77.122" r="1"/>
            <circle cx="57.431" cy="77.122" r="1"/>
            <circle cx="47.884" cy="77.122" r="1"/>
            <circle cx="38.934" cy="77.122" r="1"/>
            <circle cx="29.387" cy="77.122" r="1"/>
            <circle cx="19.84" cy="77.122" r="1"/>
            <circle cx="10.293" cy="77.122" r="1"/>
            <circle cx=".746" cy="77.122" r="1"/>
            <circle cx="86.072" cy="71.155" r="1"/>
            <circle cx="76.525" cy="71.155" r="1"/>
            <circle cx="66.978" cy="71.155" r="1"/>
            <circle cx="57.431" cy="71.155" r="1"/>
            <circle cx="47.884" cy="71.155" r="1"/>
            <circle cx="38.934" cy="71.155" r="1"/>
            <circle cx="29.387" cy="71.155" r="1"/>
            <circle cx="19.84" cy="71.155" r="1"/>
            <circle cx="10.293" cy="71.155" r="1"/>
            <circle cx=".746" cy="71.155" r="1"/>
            <circle cx="86.072" cy="64.591" r="1"/>
            <circle cx="76.525" cy="64.591" r="1"/>
            <circle cx="66.978" cy="64.591" r="1"/>
            <circle cx="57.431" cy="64.591" r="1"/>
            <circle cx="47.884" cy="64.591" r="1"/>
            <circle cx="38.934" cy="64.591" r="1"/>
            <circle cx="29.387" cy="64.591" r="1"/>
            <circle cx="19.84" cy="64.591" r="1"/>
            <circle cx="10.293" cy="64.591" r="1"/>
            <circle cx=".746" cy="64.591" r="1"/>
            <circle cx="86.072" cy="60.415" r="1"/>
            <circle cx="76.525" cy="60.415" r="1"/>
            <circle cx="66.978" cy="60.415" r="1"/>
            <circle cx="57.431" cy="60.415" r="1"/>
            <circle cx="47.884" cy="60.415" r="1"/>
            <circle cx="38.934" cy="60.415" r="1"/>
            <circle cx="29.387" cy="60.415" r="1"/>
            <circle cx="19.84" cy="60.415" r="1"/>
            <circle cx="10.293" cy="60.415" r="1"/>
            <circle cx=".746" cy="60.415" r="1"/>
            <circle cx="86.072" cy="53.851" r="1"/>
            <circle cx="76.525" cy="53.851" r="1"/>
            <circle cx="66.978" cy="53.851" r="1"/>
            <circle cx="57.431" cy="53.851" r="1"/>
            <circle cx="47.884" cy="53.851" r="1"/>
            <circle cx="38.934" cy="53.851" r="1"/>
            <circle cx="29.387" cy="53.851" r="1"/>
            <circle cx="19.84" cy="53.851" r="1"/>
            <circle cx="10.293" cy="53.851" r="1"/>
            <circle cx=".746" cy="53.851" r="1"/>
            <circle cx="86.072" cy="47.287" r="1"/>
            <circle cx="76.525" cy="47.287" r="1"/>
            <circle cx="66.978" cy="47.287" r="1"/>
            <circle cx="57.431" cy="47.287" r="1"/>
            <circle cx="47.884" cy="47.287" r="1"/>
            <circle cx="38.934" cy="47.287" r="1"/>
            <circle cx="29.387" cy="47.287" r="1"/>
            <circle cx="19.84" cy="47.287" r="1"/>
            <circle cx="10.293" cy="47.287" r="1"/>
            <circle cx=".746" cy="47.287" r="1"/>
            <circle cx="86.072" cy="41.917" r="1"/>
            <circle cx="76.525" cy="41.917" r="1"/>
            <circle cx="66.978" cy="41.917" r="1"/>
            <circle cx="57.431" cy="41.917" r="1"/>
            <circle cx="47.884" cy="41.917" r="1"/>
            <circle cx="38.934" cy="41.917" r="1"/>
            <circle cx="29.387" cy="41.917" r="1"/>
            <circle cx="19.84" cy="41.917" r="1"/>
            <circle cx="10.293" cy="41.917" r="1"/>
            <circle cx=".746" cy="41.917" r="1"/>
            <circle cx="86.072" cy="35.95" r="1"/>
            <circle cx="76.525" cy="35.95" r="1"/>
            <circle cx="66.978" cy="35.95" r="1"/>
            <circle cx="57.431" cy="35.95" r="1"/>
            <circle cx="47.884" cy="35.95" r="1"/>
            <circle cx="38.934" cy="35.95" r="1"/>
            <circle cx="29.387" cy="35.95" r="1"/>
            <circle cx="19.84" cy="35.95" r="1"/>
            <circle cx="10.293" cy="35.95" r="1"/>
            <circle cx=".746" cy="35.95" r="1"/>
            <circle cx="86.072" cy="30.58" r="1"/>
            <circle cx="76.525" cy="30.58" r="1"/>
            <circle cx="66.978" cy="30.58" r="1"/>
            <circle cx="57.431" cy="30.58" r="1"/>
            <circle cx="47.884" cy="30.58" r="1"/>
            <circle cx="38.934" cy="30.58" r="1"/>
            <circle cx="29.387" cy="30.58" r="1"/>
            <circle cx="19.84" cy="30.58" r="1"/>
            <circle cx="10.293" cy="30.58" r="1"/>
            <circle cx=".746" cy="30.58" r="1"/>
            <circle cx="86.072" cy="24.613" r="1"/>
            <circle cx="76.525" cy="24.613" r="1"/>
            <circle cx="66.978" cy="24.613" r="1"/>
            <circle cx="57.431" cy="24.613" r="1"/>
            <circle cx="47.884" cy="24.613" r="1"/>
            <circle cx="38.934" cy="24.613" r="1"/>
            <circle cx="29.387" cy="24.613" r="1"/>
            <circle cx="19.84" cy="24.613" r="1"/>
            <circle cx="10.293" cy="24.613" r="1"/>
            <circle cx=".746" cy="24.613" r="1"/>
            <circle cx="86.072" cy="18.646" r="1"/>
            <circle cx="76.525" cy="18.646" r="1"/>
            <circle cx="66.978" cy="18.646" r="1"/>
            <circle cx="57.431" cy="18.646" r="1"/>
            <circle cx="47.884" cy="18.646" r="1"/>
            <circle cx="38.934" cy="18.646" r="1"/>
            <circle cx="29.387" cy="18.646" r="1"/>
            <circle cx="19.84" cy="18.646" r="1"/>
            <circle cx="10.293" cy="18.646" r="1"/>
            <circle cx=".746" cy="18.646" r="1"/>
            <circle cx="86.072" cy="12.083" r="1"/>
            <circle cx="76.525" cy="12.083" r="1"/>
            <circle cx="66.978" cy="12.083" r="1"/>
            <circle cx="57.431" cy="12.083" r="1"/>
            <circle cx="47.884" cy="12.083" r="1"/>
            <circle cx="38.934" cy="12.083" r="1"/>
            <circle cx="29.387" cy="12.083" r="1"/>
            <circle cx="19.84" cy="12.083" r="1"/>
            <circle cx="10.293" cy="12.083" r="1"/>
            <circle cx=".746" cy="12.083" r="1"/>
            <circle cx="86.072" cy="6.713" r="1"/>
            <circle cx="76.525" cy="6.713" r="1"/>
            <circle cx="66.978" cy="6.713" r="1"/>
            <circle cx="57.431" cy="6.713" r="1"/>
            <circle cx="47.884" cy="6.713" r="1"/>
            <circle cx="38.934" cy="6.713" r="1"/>
            <circle cx="29.387" cy="6.713" r="1"/>
            <circle cx="19.84" cy="6.713" r="1"/>
            <circle cx="10.293" cy="6.713" r="1"/>
            <circle cx=".746" cy="6.713" r="1"/>
            <circle cx="86.072" cy=".746" r="1"/>
            <circle cx="76.525" cy=".746" r="1"/>
            <circle cx="66.978" cy=".746" r="1"/>
            <circle cx="57.431" cy=".746" r="1"/>
            <circle cx="47.884" cy=".746" r="1"/>
            <circle cx="38.934" cy=".746" r="1"/>
            <circle cx="29.387" cy=".746" r="1"/>
            <circle cx="19.84" cy=".746" r="1"/>
            <circle cx="10.293" cy=".746" r="1"/>
            <circle cx=".746" cy=".746" r="1"/>
        </g>
        <g fill="#FFEFB9" fill-rule="nonzero" transform="translate(.812 85.326)">
            <circle cx="86.072" cy="124.26" r="1"/>
            <circle cx="76.525" cy="124.26" r="1"/>
            <circle cx="66.978" cy="124.26" r="1"/>
            <circle cx="57.431" cy="124.26" r="1"/>
            <circle cx="47.884" cy="124.26" r="1"/>
            <circle cx="38.934" cy="124.26" r="1"/>
            <circle cx="29.387" cy="124.26" r="1"/>
            <circle cx="19.84" cy="124.26" r="1"/>
            <circle cx="10.293" cy="124.26" r="1"/>
            <circle cx=".746" cy="124.26" r="1"/>
            <circle cx="86.072" cy="118.293" r="1"/>
            <circle cx="76.525" cy="118.293" r="1"/>
            <circle cx="66.978" cy="118.293" r="1"/>
            <circle cx="57.431" cy="118.293" r="1"/>
            <circle cx="47.884" cy="118.293" r="1"/>
            <circle cx="38.934" cy="118.293" r="1"/>
            <circle cx="29.387" cy="118.293" r="1"/>
            <circle cx="19.84" cy="118.293" r="1"/>
            <circle cx="10.293" cy="118.293" r="1"/>
            <circle cx=".746" cy="118.293" r="1"/>
            <circle cx="86.072" cy="112.326" r="1"/>
            <circle cx="76.525" cy="112.326" r="1"/>
            <circle cx="66.978" cy="112.326" r="1"/>
            <circle cx="57.431" cy="112.326" r="1"/>
            <circle cx="47.884" cy="112.326" r="1"/>
            <circle cx="38.934" cy="112.326" r="1"/>
            <circle cx="29.387" cy="112.326" r="1"/>
            <circle cx="19.84" cy="112.326" r="1"/>
            <circle cx="10.293" cy="112.326" r="1"/>
            <circle cx=".746" cy="112.326" r="1"/>
            <circle cx="86.072" cy="106.359" r="1"/>
            <circle cx="76.525" cy="106.359" r="1"/>
            <circle cx="66.978" cy="106.359" r="1"/>
            <circle cx="57.431" cy="106.359" r="1"/>
            <circle cx="47.884" cy="106.359" r="1"/>
            <circle cx="38.934" cy="106.359" r="1"/>
            <circle cx="29.387" cy="106.359" r="1"/>
            <circle cx="19.84" cy="106.359" r="1"/>
            <circle cx="10.293" cy="106.359" r="1"/>
            <circle cx=".746" cy="106.359" r="1"/>
            <circle cx="86.072" cy="100.393" r="1"/>
            <circle cx="76.525" cy="100.393" r="1"/>
            <circle cx="66.978" cy="100.393" r="1"/>
            <circle cx="57.431" cy="100.393" r="1"/>
            <circle cx="47.884" cy="100.393" r="1"/>
            <circle cx="38.934" cy="100.393" r="1"/>
            <circle cx="29.387" cy="100.393" r="1"/>
            <circle cx="19.84" cy="100.393" r="1"/>
            <circle cx="10.293" cy="100.393" r="1"/>
            <circle cx=".746" cy="100.393" r="1"/>
            <circle cx="86.072" cy="94.426" r="1"/>
            <circle cx="76.525" cy="94.426" r="1"/>
            <circle cx="66.978" cy="94.426" r="1"/>
            <circle cx="57.431" cy="94.426" r="1"/>
            <circle cx="47.884" cy="94.426" r="1"/>
            <circle cx="38.934" cy="94.426" r="1"/>
            <circle cx="29.387" cy="94.426" r="1"/>
            <circle cx="19.84" cy="94.426" r="1"/>
            <circle cx="10.293" cy="94.426" r="1"/>
            <circle cx=".746" cy="94.426" r="1"/>
            <circle cx="86.072" cy="89.056" r="1"/>
            <circle cx="76.525" cy="89.056" r="1"/>
            <circle cx="66.978" cy="89.056" r="1"/>
            <circle cx="57.431" cy="89.056" r="1"/>
            <circle cx="47.884" cy="89.056" r="1"/>
            <circle cx="38.934" cy="89.056" r="1"/>
            <circle cx="29.387" cy="89.056" r="1"/>
            <circle cx="19.84" cy="89.056" r="1"/>
            <circle cx="10.293" cy="89.056" r="1"/>
            <circle cx=".746" cy="89.056" r="1"/>
            <circle cx="86.072" cy="83.089" r="1"/>
            <circle cx="76.525" cy="83.089" r="1"/>
            <circle cx="66.978" cy="83.089" r="1"/>
            <circle cx="57.431" cy="83.089" r="1"/>
            <circle cx="47.884" cy="83.089" r="1"/>
            <circle cx="38.934" cy="83.089" r="1"/>
            <circle cx="29.387" cy="83.089" r="1"/>
            <circle cx="19.84" cy="83.089" r="1"/>
            <circle cx="10.293" cy="83.089" r="1"/>
            <circle cx=".746" cy="83.089" r="1"/>
            <circle cx="86.072" cy="77.122" r="1"/>
            <circle cx="76.525" cy="77.122" r="1"/>
            <circle cx="66.978" cy="77.122" r="1"/>
            <circle cx="57.431" cy="77.122" r="1"/>
            <circle cx="47.884" cy="77.122" r="1"/>
            <circle cx="38.934" cy="77.122" r="1"/>
            <circle cx="29.387" cy="77.122" r="1"/>
            <circle cx="19.84" cy="77.122" r="1"/>
            <circle cx="10.293" cy="77.122" r="1"/>
            <circle cx=".746" cy="77.122" r="1"/>
            <circle cx="86.072" cy="71.155" r="1"/>
            <circle cx="76.525" cy="71.155" r="1"/>
            <circle cx="66.978" cy="71.155" r="1"/>
            <circle cx="57.431" cy="71.155" r="1"/>
            <circle cx="47.884" cy="71.155" r="1"/>
            <circle cx="38.934" cy="71.155" r="1"/>
            <circle cx="29.387" cy="71.155" r="1"/>
            <circle cx="19.84" cy="71.155" r="1"/>
            <circle cx="10.293" cy="71.155" r="1"/>
            <circle cx=".746" cy="71.155" r="1"/>
            <circle cx="86.072" cy="64.591" r="1"/>
            <circle cx="76.525" cy="64.591" r="1"/>
            <circle cx="66.978" cy="64.591" r="1"/>
            <circle cx="57.431" cy="64.591" r="1"/>
            <circle cx="47.884" cy="64.591" r="1"/>
            <circle cx="38.934" cy="64.591" r="1"/>
            <circle cx="29.387" cy="64.591" r="1"/>
            <circle cx="19.84" cy="64.591" r="1"/>
            <circle cx="10.293" cy="64.591" r="1"/>
            <circle cx=".746" cy="64.591" r="1"/>
            <circle cx="86.072" cy="60.415" r="1"/>
            <circle cx="76.525" cy="60.415" r="1"/>
            <circle cx="66.978" cy="60.415" r="1"/>
            <circle cx="57.431" cy="60.415" r="1"/>
            <circle cx="47.884" cy="60.415" r="1"/>
            <circle cx="38.934" cy="60.415" r="1"/>
            <circle cx="29.387" cy="60.415" r="1"/>
            <circle cx="19.84" cy="60.415" r="1"/>
            <circle cx="10.293" cy="60.415" r="1"/>
            <circle cx=".746" cy="60.415" r="1"/>
            <circle cx="86.072" cy="53.851" r="1"/>
            <circle cx="76.525" cy="53.851" r="1"/>
            <circle cx="66.978" cy="53.851" r="1"/>
            <circle cx="57.431" cy="53.851" r="1"/>
            <circle cx="47.884" cy="53.851" r="1"/>
            <circle cx="38.934" cy="53.851" r="1"/>
            <circle cx="29.387" cy="53.851" r="1"/>
            <circle cx="19.84" cy="53.851" r="1"/>
            <circle cx="10.293" cy="53.851" r="1"/>
            <circle cx=".746" cy="53.851" r="1"/>
            <circle cx="86.072" cy="47.287" r="1"/>
            <circle cx="76.525" cy="47.287" r="1"/>
            <circle cx="66.978" cy="47.287" r="1"/>
            <circle cx="57.431" cy="47.287" r="1"/>
            <circle cx="47.884" cy="47.287" r="1"/>
            <circle cx="38.934" cy="47.287" r="1"/>
            <circle cx="29.387" cy="47.287" r="1"/>
            <circle cx="19.84" cy="47.287" r="1"/>
            <circle cx="10.293" cy="47.287" r="1"/>
            <circle cx=".746" cy="47.287" r="1"/>
            <circle cx="86.072" cy="41.917" r="1"/>
            <circle cx="76.525" cy="41.917" r="1"/>
            <circle cx="66.978" cy="41.917" r="1"/>
            <circle cx="57.431" cy="41.917" r="1"/>
            <circle cx="47.884" cy="41.917" r="1"/>
            <circle cx="38.934" cy="41.917" r="1"/>
            <circle cx="29.387" cy="41.917" r="1"/>
            <circle cx="19.84" cy="41.917" r="1"/>
            <circle cx="10.293" cy="41.917" r="1"/>
            <circle cx=".746" cy="41.917" r="1"/>
            <circle cx="86.072" cy="35.95" r="1"/>
            <circle cx="76.525" cy="35.95" r="1"/>
            <circle cx="66.978" cy="35.95" r="1"/>
            <circle cx="57.431" cy="35.95" r="1"/>
            <circle cx="47.884" cy="35.95" r="1"/>
            <circle cx="38.934" cy="35.95" r="1"/>
            <circle cx="29.387" cy="35.95" r="1"/>
            <circle cx="19.84" cy="35.95" r="1"/>
            <circle cx="10.293" cy="35.95" r="1"/>
            <circle cx=".746" cy="35.95" r="1"/>
            <circle cx="86.072" cy="30.58" r="1"/>
            <circle cx="76.525" cy="30.58" r="1"/>
            <circle cx="66.978" cy="30.58" r="1"/>
            <circle cx="57.431" cy="30.58" r="1"/>
            <circle cx="47.884" cy="30.58" r="1"/>
            <circle cx="38.934" cy="30.58" r="1"/>
            <circle cx="29.387" cy="30.58" r="1"/>
            <circle cx="19.84" cy="30.58" r="1"/>
            <circle cx="10.293" cy="30.58" r="1"/>
            <circle cx=".746" cy="30.58" r="1"/>
            <circle cx="86.072" cy="24.613" r="1"/>
            <circle cx="76.525" cy="24.613" r="1"/>
            <circle cx="66.978" cy="24.613" r="1"/>
            <circle cx="57.431" cy="24.613" r="1"/>
            <circle cx="47.884" cy="24.613" r="1"/>
            <circle cx="38.934" cy="24.613" r="1"/>
            <circle cx="29.387" cy="24.613" r="1"/>
            <circle cx="19.84" cy="24.613" r="1"/>
            <circle cx="10.293" cy="24.613" r="1"/>
            <circle cx=".746" cy="24.613" r="1"/>
            <circle cx="86.072" cy="18.646" r="1"/>
            <circle cx="76.525" cy="18.646" r="1"/>
            <circle cx="66.978" cy="18.646" r="1"/>
            <circle cx="57.431" cy="18.646" r="1"/>
            <circle cx="47.884" cy="18.646" r="1"/>
            <circle cx="38.934" cy="18.646" r="1"/>
            <circle cx="29.387" cy="18.646" r="1"/>
            <circle cx="19.84" cy="18.646" r="1"/>
            <circle cx="10.293" cy="18.646" r="1"/>
            <circle cx=".746" cy="18.646" r="1"/>
            <circle cx="86.072" cy="12.083" r="1"/>
            <circle cx="76.525" cy="12.083" r="1"/>
            <circle cx="66.978" cy="12.083" r="1"/>
            <circle cx="57.431" cy="12.083" r="1"/>
            <circle cx="47.884" cy="12.083" r="1"/>
            <circle cx="38.934" cy="12.083" r="1"/>
            <circle cx="29.387" cy="12.083" r="1"/>
            <circle cx="19.84" cy="12.083" r="1"/>
            <circle cx="10.293" cy="12.083" r="1"/>
            <circle cx=".746" cy="12.083" r="1"/>
            <circle cx="86.072" cy="6.713" r="1"/>
            <circle cx="76.525" cy="6.713" r="1"/>
            <circle cx="66.978" cy="6.713" r="1"/>
            <circle cx="57.431" cy="6.713" r="1"/>
            <circle cx="47.884" cy="6.713" r="1"/>
            <circle cx="38.934" cy="6.713" r="1"/>
            <circle cx="29.387" cy="6.713" r="1"/>
            <circle cx="19.84" cy="6.713" r="1"/>
            <circle cx="10.293" cy="6.713" r="1"/>
            <circle cx=".746" cy="6.713" r="1"/>
            <circle cx="86.072" cy=".746" r="1"/>
            <circle cx="76.525" cy=".746" r="1"/>
            <circle cx="66.978" cy=".746" r="1"/>
            <circle cx="57.431" cy=".746" r="1"/>
            <circle cx="47.884" cy=".746" r="1"/>
            <circle cx="38.934" cy=".746" r="1"/>
            <circle cx="29.387" cy=".746" r="1"/>
            <circle cx="19.84" cy=".746" r="1"/>
            <circle cx="10.293" cy=".746" r="1"/>
            <circle cx=".746" cy=".746" r="1"/>
        </g>
        <g transform="translate(44.37 25.658)">
            <path fill="#283A5E" d="M80.969 184.43l36.01-20.751v-14.453h3.412v14.453l36.14 20.751h-1.49l-34.65-17.602v1.74l-.774.299-.435 13.242h-.86l-.388-13.102-.67-.438v-1.914L82.54 184.43z" opacity=".122"/>
            <rect width="237.481" height="1.79" y="147.978" fill="#BEC3CE" rx=".895"/>
            <rect width="237.481" height="1.79" fill="#BEC3CE" rx=".895"/>
            <path fill="#F5F6F7" d="M8.95 1.79h223.758v146.188H8.95z"/>
            <g fill-rule="nonzero" transform="translate(23.867 13.127)">
                <rect width="192.943" height="123.514" fill="#FFF" stroke="#E9EBEE" stroke-width=".527" rx="5.27"/>
                <g transform="translate(17.304 18.388)">
                    <path fill="#283A5E" d="M28.525 0c13.285.5 24.118 10.463 25.96 23.354h-8.677c-1.72-8.149-8.726-14.326-17.278-14.791z" opacity=".7"/>
                    <path fill="#E9EBEE" d="M46.139 27.925a18.688 18.688 0 0 1-8.993 15.277l4.12 7.508a27.245 27.245 0 0 0 13.437-22.774l-8.564-.011z"/>
                    <path fill="#5C687B" d="M35.423 44.041a18.7 18.7 0 0 1-20.607-2.859A18.692 18.692 0 0 1 26.248 8.557V0A27.256 27.256 0 0 0 1.59 18.067a27.249 27.249 0 0 0 7.632 29.598 27.26 27.26 0 0 0 30.322 3.895l-4.12-7.519z" opacity=".334"/>
                    <path fill="#FF4800" d="M26.248 0v8.557A18.697 18.697 0 0 0 8.961 23.354H.277A27.256 27.256 0 0 1 26.247 0h.001z"/>
                    <circle cx="71.304" cy="18.796" r="2.088" fill="#FF4800"/>
                    <circle cx="71.304" cy="27.149" r="2.088" fill="#E9EBEE"/>
                    <path fill="#FF4800" d="M78.166 17.901H95.47v1.79H78.166z"/>
                    <path fill="#E9EBEE" d="M78.166 26.254H95.47v1.79H78.166z"/>
                    <circle cx="71.304" cy="36.1" r="2.088" fill="#E9EBEE" opacity=".7"/>
                    <path fill="#E9EBEE" d="M78.166 35.205H95.47v1.79H78.166z"/>
                </g>
                <g transform="translate(135.448 20.775)">
                    <path fill="#D3D7DE" d="M1.054 2.108h4.217v26.881H1.054z"/>
                    <path fill="#E9EBEE" d="M10.543 11.596h4.217v17.393h-4.217z"/>
                    <path fill="#D3D7DE" d="M21.087 0h4.217v28.989h-4.217z"/>
                    <path fill="#E9EBEE" d="M31.103 14.758h4.217v14.231h-4.217z"/>
                    <path fill="#283A5E" d="M1.054 2.108h4.217v16.084H1.054z" opacity=".122"/>
                    <path fill="#283A5E" d="M10.543 11.596h4.218v6.597h-4.218z"/>
                    <path fill="#283A5E" d="M21.087 0h4.217v18.193h-4.217z" opacity=".122"/>
                    <path fill="#283A5E" d="M31.103 14.758h4.217v3.435h-4.217z"/>
                    <ellipse cx="1.581" cy="39.531" fill="#BEC3CE" rx="1.581" ry="1.581"/>
                    <path fill="#E9EBEE" d="M5.272 38.476h10.016v1.581H5.272z"/>
                    <ellipse cx="21.087" cy="39.531" fill="#283A5E" rx="1.581" ry="1.581"/>
                    <path fill="#E9EBEE" d="M24.25 38.476h11.598v1.581H24.25z"/>
                </g>
                <path fill="#283A5E" d="M59.665 103.855c1.004-1.349 2.376-2.458 3.992-3.228 5.182-2.533 13.283-1.828 18.32.806 2.549 1.196 5.441 1.719 8.325 1.505a20.32 20.32 0 0 0 4.478-1.06 11.489 11.489 0 0 0 2.937-1.59c2.427-1.791 8.665-5.994 12.943-5.994 3.394-.268 6.804.329 9.818 1.717a7.564 7.564 0 0 0 3.301.673c1.954-.074 4.709-.885 7.179-4.181.49-.67.907-1.38 1.244-2.12a55.934 55.934 0 0 1 5.218-9.01c1.996-2.788 4.672-6.503 9.217-7.764 8.022-2.232 11.087 7.626 12.9 10.674 0 0 16.457 27.696 22.452 30.171H47.735s8.131-5.352 11.93-10.6z"/>
                <path fill="#E9EBEE" d="M63.249 108.15a83.36 83.36 0 0 0 7.469-4.345c4.768-3.152 11.958-4.203 17.681-1.618.946.438 1.845.946 2.689 1.518 1.642 1.093 5.504 3.573 7.365 4.025 0 0-6.806 6.12-14.482 4.728 0 0-13.24-2.831-14.165-1.392 0 .016-5.712-1.235-6.557-2.916zM24.464 110.798s8.08-4.724 11.735-11.306c0 0 7.721-14.016 13.923 1.08 0 0-2.432 7.786-5.861 8.664 0 0-3.71 2.393-6.232 2.227 0 0-12.768-1.417-13.565-.665zM112.774 107.276s8.379-2.903 16.11.416c.006 0-6.25 6.086-16.11-.416z"/>
                <path fill="#FF4800" d="M11.337 114.454h170.056s-13.492-11.95-18.135-28.125a2.245 2.245 0 0 0-.248-.561c-.67-1.11-3.343-4.511-6.365 2.929-.203.52-.442 1.029-.713 1.525-1.046 1.886-3.797 6.44-6.831 8.179a4.49 4.49 0 0 1-3.053.377c-2.678-.582-6.045-1.11-8.783-.445-1.38.31-2.528 1.14-3.125 2.263-1.052 2.096-4.268 7.053-11.413 7.524 0 0-4.546 1.21-10.005-2.415-3.99-2.651-10.88-.456-14.326.917a14.745 14.745 0 0 0-2.841 1.498c-3.67 2.473-8.316 3.591-12.93 3.113-.5-.05-.995-.141-1.475-.273-1.717-.46-6.396-1.603-9.618-1.32a10.488 10.488 0 0 1-5.216-.917c-2.884-1.285-5.134-3.431-6.335-6.041 0 0-6.366-13.89-10.912-1.205 0 0-1.468 5.842-8.348 7.911a12.58 12.58 0 0 1-4.34.43l-7.284-.487s-11.848-.614-17.76 5.123z"/>
            </g>
            <path fill="#F6F7F7" fill-rule="nonzero" d="M61.296 12.859h1.581v2.635h-1.581z"/>
        </g>
        <path fill="#E9EBEE" fill-rule="nonzero" d="M51.48 216.246c0 1.733-9.3 3.142-20.782 3.142-11.472 0-20.781-1.409-20.781-3.142 0-1.732 9.3-3.141 20.781-3.141 11.481 0 20.781 1.409 20.781 3.141" opacity=".4"/>
        <g fill-rule="nonzero">
            <path fill="#141D2F" d="M31.023 69.812s-9.098-1.437-8.334 11.164c0 0-11.309-.774-10.544 11.536 0 0 3.211 6.186-.61 8.024-3.821 1.838-11.154 1.374-10.472 11.846.692 10.472 16.213 13.228 23.846 7.642 7.642-5.586 16.813-49.448 6.114-50.212"/>
            <path fill="#3C4D6F" d="M39.966 121.671l4.677 8.361s-1.256 43.48-11.364 80.417h-2.62l-1.492-73.457-12.164-5.55s.164-5.677 5.777-12.764l17.186 2.993z"/>
            <path fill="#283A5E" d="M16.994 131.442s-3.112 6.141 12.1 79.007h1.547l-1.492-73.457-12.155-5.55z"/>
            <path fill="#B27D89" d="M40.576 84.67s-3.785-2.62-3.257-7.416h-5.586s-.483 4.722-3.34 5.787c0 0 4.459 7.715 12.183 1.628"/>
            <path fill="#283A5E" d="M29.176 137.847s2.184-2.911 11.81-4.476c0 0-6.651 0-12.592 3.339l.782 1.137z"/>
            <path fill="#E86578" d="M33.28 210.45l6.313 6.022H30.65v-6.023z"/>
            <path fill="#EA003D" d="M30.65 210.45v6.022H20.497l8.606-6.023z"/>
            <path fill="#202E4B" d="M39.966 121.671s1.037-12.492 4.213-19.943l2.574-13.883-6.168-3.167s-6.623 4.113-12.182-1.628l-5.304.346-.319 35.29 17.186 2.985z"/>
            <path fill="#202E4B" d="M46.744 87.845l10.69 21.944s4.631-1.22 17.623-6.15l1.456 2.465s-7.879 6.706-20.87 9.399c0 0-8.162-8.507-11.473-13.775l2.574-13.883zM23.099 83.387l-12.374 27.066 2.284 21.753h3.048s.682-11.69.254-21.707L23.1 99.49V83.387z"/>
            <path fill="#B38F97" d="M16.057 132.206v2.011l-.683 1.583.264 4.085-2.22-4.276-.418-3.403zM75.057 103.639l1.674-2.22 1.975-1.274-.564 1.401 5.013-1.683-.737 1.965-2.393 2.302-3.512 1.974z"/>
            <path fill="#966B74" d="M30.686 70.768s-1.337-.364-1.264 1.546c.072 1.91.773 2.156 1.464 2.284.692.127-.2-3.83-.2-3.83"/>
            <path fill="#B38F97" d="M40.758 67.456c-.073.655.582 4.13.427 4.804-.982 4.321-3.966 9.234-7.041 8.697-3.076-.546-4.495-6.996-3.185-14.42.119-.673 2.775.337 2.93-.31l6.869 1.229z"/>
            <path fill="#966B74" d="M31.86 64.59l.364.073c-.118.482-.228.982-.319 1.483-1.392 7.406-.036 13.874 3.03 14.457.337.063.846.063 1.192-.01-.637.346-1.41.574-2.029.455-3.066-.573-4.513-7.233-3.066-14.566.136-.673.673-1.255.828-1.892"/>
            <path fill="#141D2F" d="M41.185 72.25s-5.504-1.82-7.697-5.213c0 0 .091 2.52-3.002 4.495 0 0-2.083-8.607 5.468-8.88.01 0 8.525 1.11 5.231 9.599"/>
            <path fill="#FB043D" d="M22.771 118.678l.155-17.004s-.82 16.722 12.91 19.278l-13.065-2.274z"/>
            <path fill="#EA003D" d="M28.394 83.04s4.649 5.478 12.182 1.63l3.284 1.692s-11.4 5.013-15.466-3.321M76.522 106.104s-2.493-1.164-19.078 3.685c0 0 15.175-5.186 17.622-6.15l1.456 2.465z"/>
        </g>
        <g fill-rule="nonzero" transform="translate(284.238 196.907)">
            <ellipse cx="12.262" cy="19.398" fill="#F6F7F8" rx="12.262" ry="2.828"/>
            <path fill="#43B963" d="M18.461.006h2.149a7.793 7.793 0 0 1-7.793 7.793V5.657A5.65 5.65 0 0 1 18.46.006z"/>
            <path fill="#02AD46" d="M13.491 7.793h-3.144a4.648 4.648 0 0 1-4.649-4.648V0h2.136a5.65 5.65 0 0 1 5.657 5.65v2.143z"/>
            <path fill="#3B4D6F" d="M14.774 19.798H9.231a3.89 3.89 0 0 1-3.843-3.276L4.195 9.195a1.79 1.79 0 0 1 1.79-2.077h12.047a1.79 1.79 0 0 1 1.79 2.077l-1.193 7.327a3.89 3.89 0 0 1-3.855 3.276z"/>
        </g>
    </g>
</svg>
