<svg xmlns="http://www.w3.org/2000/svg" width="291" height="139" viewBox="0 0 291 139">
    <g fill="none" fill-rule="evenodd">
        <path d="M-5-17h300v173.684H-5z"/>
        <path fill="#E9EBEE" fill-rule="nonzero" d="M249.997 69.406h-40.25c-11.116 0-20.126-9.076-20.126-20.108V29.192c0-11.17 9.01-20.247 20.125-20.247h80.5v20.247c0 22.2-18.02 40.214-40.25 40.214M98.936 109.316v24.531H49.919C22.857 133.847.9 111.882.9 84.785h73.527c13.616 0 24.508 10.981 24.508 24.53" opacity=".4"/>
        <g fill="#FB043D" fill-rule="nonzero" opacity=".1">
            <path d="M209.5 1.092a.659.659 0 1 1-1.318 0 .659.659 0 0 1 1.318 0M216.64 1.092a.659.659 0 1 1-1.318 0 .659.659 0 0 1 1.318 0M223.78 1.092a.659.659 0 1 1-1.319 0 .659.659 0 0 1 1.318 0M230.92 1.092a.66.66 0 1 1-1.32-.001.66.66 0 0 1 1.32 0M238.058 1.092a.659.659 0 1 1-1.317 0 .659.659 0 0 1 1.317 0M245.198 1.092a.66.66 0 1 1-1.319-.001.66.66 0 0 1 1.32 0M252.338 1.092a.659.659 0 1 1-1.318 0 .659.659 0 0 1 1.318 0M259.477 1.092a.658.658 0 1 1-1.317.001.658.658 0 0 1 1.317-.001M266.617 1.092a.659.659 0 1 1-1.318 0 .659.659 0 0 1 1.318 0M273.757 1.092a.66.66 0 1 1-1.32-.001.66.66 0 0 1 1.32 0M209.5 6.679a.66.66 0 1 1-1.319 0 .66.66 0 0 1 1.319 0M216.64 6.679a.66.66 0 1 1-1.32-.001.66.66 0 0 1 1.32 0M223.78 6.679a.66.66 0 1 1-1.32 0 .66.66 0 0 1 1.32 0M230.92 6.679a.66.66 0 1 1-1.32-.002.66.66 0 0 1 1.32.002M238.058 6.679a.66.66 0 1 1-1.318 0 .66.66 0 0 1 1.318 0M245.198 6.679a.66.66 0 1 1-1.32-.002.66.66 0 0 1 1.32.002M252.338 6.679a.66.66 0 1 1-1.32 0 .66.66 0 0 1 1.32 0M259.477 6.679a.659.659 0 1 1-1.318 0 .659.659 0 0 1 1.318 0M266.617 6.679a.66.66 0 1 1-1.319 0 .66.66 0 0 1 1.319 0M273.757 6.679a.66.66 0 1 1-1.32-.002.66.66 0 0 1 1.32.002M209.5 12.265a.66.66 0 1 1-1.319 0 .66.66 0 0 1 1.319 0M216.64 12.265a.66.66 0 1 1-1.32 0 .66.66 0 0 1 1.32 0M223.78 12.265a.66.66 0 1 1-1.32 0 .66.66 0 0 1 1.32 0M230.92 12.265a.66.66 0 1 1-1.32-.002.66.66 0 0 1 1.32.002M238.058 12.265a.66.66 0 1 1-1.318 0 .66.66 0 0 1 1.318 0M245.198 12.265a.66.66 0 1 1-1.32-.002.66.66 0 0 1 1.32.002M252.338 12.265a.66.66 0 1 1-1.32 0 .66.66 0 0 1 1.32 0M259.477 12.265a.659.659 0 1 1-1.318 0 .659.659 0 0 1 1.318 0M266.617 12.265a.66.66 0 1 1-1.319 0 .66.66 0 0 1 1.319 0M273.757 12.265a.66.66 0 1 1-1.32-.002.66.66 0 0 1 1.32.002M209.5 17.851a.659.659 0 1 1-1.318.001.659.659 0 0 1 1.318 0M216.64 17.851a.659.659 0 1 1-1.318 0 .659.659 0 0 1 1.318 0M223.78 17.851a.659.659 0 1 1-1.319.001.659.659 0 0 1 1.318 0M230.92 17.851a.66.66 0 1 1-1.32 0 .66.66 0 0 1 1.32 0M238.058 17.851a.659.659 0 1 1-1.317.001.659.659 0 0 1 1.317 0M245.198 17.851a.66.66 0 1 1-1.319 0 .66.66 0 0 1 1.32 0M252.338 17.851a.659.659 0 1 1-1.318.001.659.659 0 0 1 1.318 0M259.477 17.851a.658.658 0 1 1-1.317.002.658.658 0 0 1 1.317-.002M266.617 17.851a.659.659 0 1 1-1.318.001.659.659 0 0 1 1.318 0M273.757 17.851a.66.66 0 1 1-1.32 0 .66.66 0 0 1 1.32 0M209.5 23.438a.66.66 0 1 1-1.319 0 .66.66 0 0 1 1.319 0M216.64 23.438a.66.66 0 1 1-1.32 0 .66.66 0 0 1 1.32 0M223.78 23.438a.66.66 0 1 1-1.32 0 .66.66 0 0 1 1.32 0M230.92 23.438a.66.66 0 1 1-1.32-.001.66.66 0 0 1 1.32.001M238.058 23.438a.66.66 0 1 1-1.318 0 .66.66 0 0 1 1.318 0M245.198 23.438a.66.66 0 1 1-1.32-.001.66.66 0 0 1 1.32.001M252.338 23.438a.66.66 0 1 1-1.32 0 .66.66 0 0 1 1.32 0M259.477 23.438a.659.659 0 1 1-1.318.001.659.659 0 0 1 1.318 0M266.617 23.438a.66.66 0 1 1-1.319 0 .66.66 0 0 1 1.319 0M273.757 23.438a.66.66 0 1 1-1.32-.001.66.66 0 0 1 1.32.001M209.5 29.025a.66.66 0 1 1-1.32 0 .66.66 0 0 1 1.32 0M216.64 29.025a.66.66 0 1 1-1.32 0 .66.66 0 0 1 1.32 0M223.78 29.025a.66.66 0 1 1-1.32 0 .66.66 0 0 1 1.32 0M230.92 29.025a.66.66 0 1 1-1.321 0 .66.66 0 0 1 1.32 0M238.058 29.025a.66.66 0 1 1-1.319 0 .66.66 0 0 1 1.32 0M245.198 29.025a.66.66 0 1 1-1.32 0 .66.66 0 0 1 1.32 0M252.338 29.025a.66.66 0 1 1-1.32 0 .66.66 0 0 1 1.32 0M259.477 29.025a.659.659 0 1 1-1.318.002.659.659 0 0 1 1.318-.002M266.617 29.025a.66.66 0 1 1-1.32 0 .66.66 0 0 1 1.32 0M273.757 29.025a.66.66 0 1 1-1.32 0 .66.66 0 0 1 1.32 0M209.5 34.611a.66.66 0 1 1-1.32.001.66.66 0 0 1 1.32 0M216.64 34.611a.66.66 0 1 1-1.32 0 .66.66 0 0 1 1.32 0M223.78 34.611a.66.66 0 1 1-1.32.001.66.66 0 0 1 1.32 0M230.92 34.611a.66.66 0 1 1-1.321 0 .66.66 0 0 1 1.32 0M238.058 34.611a.66.66 0 1 1-1.319.001.66.66 0 0 1 1.32 0M245.198 34.611a.66.66 0 1 1-1.32 0 .66.66 0 0 1 1.32 0M252.338 34.611a.66.66 0 1 1-1.32.001.66.66 0 0 1 1.32 0M259.477 34.611a.659.659 0 1 1-1.318.002.659.659 0 0 1 1.318-.002M266.617 34.611a.66.66 0 1 1-1.32.001.66.66 0 0 1 1.32 0M273.757 34.611a.66.66 0 1 1-1.32 0 .66.66 0 0 1 1.32 0M209.5 40.198a.66.66 0 1 1-1.319 0 .66.66 0 0 1 1.319 0M216.64 40.198a.66.66 0 1 1-1.32 0 .66.66 0 0 1 1.32 0M223.78 40.198a.66.66 0 1 1-1.32 0 .66.66 0 0 1 1.32 0M230.92 40.198a.66.66 0 1 1-1.32-.002.66.66 0 0 1 1.32.002M238.058 40.198a.66.66 0 1 1-1.318 0 .66.66 0 0 1 1.318 0M245.198 40.198a.66.66 0 1 1-1.32-.002.66.66 0 0 1 1.32.002M252.338 40.198a.66.66 0 1 1-1.32 0 .66.66 0 0 1 1.32 0M259.477 40.198a.659.659 0 1 1-1.318 0 .659.659 0 0 1 1.318 0M266.617 40.198a.66.66 0 1 1-1.319 0 .66.66 0 0 1 1.319 0M273.757 40.198a.66.66 0 1 1-1.32-.002.66.66 0 0 1 1.32.002M209.5 45.784a.66.66 0 1 1-1.32.001.66.66 0 0 1 1.32 0M216.64 45.784a.66.66 0 1 1-1.32.001.66.66 0 0 1 1.32 0M223.78 45.784a.66.66 0 1 1-1.32.001.66.66 0 0 1 1.32 0M230.92 45.784a.66.66 0 1 1-1.321 0 .66.66 0 0 1 1.32 0M238.058 45.784a.66.66 0 1 1-1.319.001.66.66 0 0 1 1.32 0M245.198 45.784a.66.66 0 1 1-1.32 0 .66.66 0 0 1 1.32 0M252.338 45.784a.66.66 0 1 1-1.32.001.66.66 0 0 1 1.32 0M259.477 45.784a.659.659 0 1 1-1.318.002.659.659 0 0 1 1.318-.002M266.617 45.784a.66.66 0 1 1-1.32.001.66.66 0 0 1 1.32 0M273.757 45.784a.66.66 0 1 1-1.32 0 .66.66 0 0 1 1.32 0M209.5 51.372a.66.66 0 1 1-1.319 0 .66.66 0 0 1 1.319 0M216.64 51.372a.66.66 0 1 1-1.32-.001.66.66 0 0 1 1.32 0M223.78 51.372a.66.66 0 1 1-1.32 0 .66.66 0 0 1 1.32 0M230.92 51.372a.66.66 0 1 1-1.32-.002.66.66 0 0 1 1.32.002M238.058 51.372a.66.66 0 1 1-1.318 0 .66.66 0 0 1 1.318 0M245.198 51.372a.66.66 0 1 1-1.32-.002.66.66 0 0 1 1.32.002M252.338 51.372a.66.66 0 1 1-1.32 0 .66.66 0 0 1 1.32 0M259.477 51.372a.659.659 0 1 1-1.318 0 .659.659 0 0 1 1.318 0M266.617 51.372a.66.66 0 1 1-1.319 0 .66.66 0 0 1 1.319 0M273.757 51.372a.66.66 0 1 1-1.32-.002.66.66 0 0 1 1.32.002M209.5 56.958a.66.66 0 1 1-1.319 0 .66.66 0 0 1 1.319 0M216.64 56.958a.66.66 0 1 1-1.32 0 .66.66 0 0 1 1.32 0M223.78 56.958a.66.66 0 1 1-1.32 0 .66.66 0 0 1 1.32 0M230.92 56.958a.66.66 0 1 1-1.32-.002.66.66 0 0 1 1.32.002M238.058 56.958a.66.66 0 1 1-1.318 0 .66.66 0 0 1 1.318 0M245.198 56.958a.66.66 0 1 1-1.32-.002.66.66 0 0 1 1.32.002M252.338 56.958a.66.66 0 1 1-1.32 0 .66.66 0 0 1 1.32 0M259.477 56.958a.659.659 0 1 1-1.318 0 .659.659 0 0 1 1.318 0M266.617 56.958a.66.66 0 1 1-1.319 0 .66.66 0 0 1 1.319 0M273.757 56.958a.66.66 0 1 1-1.32-.002.66.66 0 0 1 1.32.002M209.5 62.126a.66.66 0 1 1-1.319 0 .66.66 0 0 1 1.319 0M216.64 62.126a.66.66 0 1 1-1.32 0 .66.66 0 0 1 1.32 0M223.78 62.126a.66.66 0 1 1-1.32 0 .66.66 0 0 1 1.32 0M230.92 62.126a.66.66 0 1 1-1.32-.002.66.66 0 0 1 1.32.002M238.058 62.126a.66.66 0 1 1-1.318 0 .66.66 0 0 1 1.318 0M245.198 62.126a.66.66 0 1 1-1.32-.002.66.66 0 0 1 1.32.002M252.338 62.126a.66.66 0 1 1-1.32 0 .66.66 0 0 1 1.32 0M259.477 62.126a.659.659 0 1 1-1.318 0 .659.659 0 0 1 1.318 0M266.617 62.126a.66.66 0 1 1-1.319 0 .66.66 0 0 1 1.319 0M273.757 62.126a.66.66 0 1 1-1.32-.002.66.66 0 0 1 1.32.002M209.5 67.712a.66.66 0 1 1-1.32 0 .66.66 0 0 1 1.32 0M216.64 67.712a.66.66 0 1 1-1.32 0 .66.66 0 0 1 1.32 0M223.78 67.712a.66.66 0 1 1-1.32 0 .66.66 0 0 1 1.32 0M230.92 67.712a.66.66 0 0 1-1.32 0 .66.66 0 0 1 1.32 0M238.058 67.712a.66.66 0 1 1-1.32 0 .66.66 0 0 1 1.32 0M245.198 67.712a.66.66 0 0 1-1.319 0 .66.66 0 0 1 1.32 0M252.338 67.712a.66.66 0 1 1-1.32 0 .66.66 0 0 1 1.32 0M259.477 67.712a.66.66 0 1 1-1.32.001.66.66 0 0 1 1.32 0M266.617 67.712a.66.66 0 1 1-1.32 0 .66.66 0 0 1 1.32 0M273.757 67.712a.66.66 0 0 1-1.32 0 .66.66 0 0 1 1.32 0M209.5 73.298a.66.66 0 1 1-1.32.001.66.66 0 0 1 1.32 0M216.64 73.298a.66.66 0 1 1-1.32.001.66.66 0 0 1 1.32 0M223.78 73.298a.66.66 0 1 1-1.32.001.66.66 0 0 1 1.32 0M230.92 73.298a.66.66 0 1 1-1.321 0 .66.66 0 0 1 1.32 0M238.058 73.298a.66.66 0 1 1-1.319.001.66.66 0 0 1 1.32 0M245.198 73.298a.66.66 0 1 1-1.32 0 .66.66 0 0 1 1.32 0M252.338 73.298a.66.66 0 1 1-1.32.001.66.66 0 0 1 1.32 0M259.477 73.298a.659.659 0 1 1-1.318.002.659.659 0 0 1 1.318-.002M266.617 73.298a.66.66 0 1 1-1.32.001.66.66 0 0 1 1.32 0M273.757 73.298a.66.66 0 1 1-1.32 0 .66.66 0 0 1 1.32 0M209.5 78.886a.66.66 0 1 1-1.319 0 .66.66 0 0 1 1.319 0M216.64 78.886a.66.66 0 1 1-1.32-.001.66.66 0 0 1 1.32 0M223.78 78.886a.66.66 0 1 1-1.32 0 .66.66 0 0 1 1.32 0M230.92 78.886a.66.66 0 1 1-1.32-.002.66.66 0 0 1 1.32.002M238.058 78.886a.66.66 0 1 1-1.318 0 .66.66 0 0 1 1.318 0M245.198 78.886a.66.66 0 1 1-1.32-.002.66.66 0 0 1 1.32.002M252.338 78.886a.66.66 0 1 1-1.32 0 .66.66 0 0 1 1.32 0M259.477 78.886a.659.659 0 1 1-1.318 0 .659.659 0 0 1 1.318 0M266.617 78.886a.66.66 0 1 1-1.319 0 .66.66 0 0 1 1.319 0M273.757 78.886a.66.66 0 1 1-1.32-.002.66.66 0 0 1 1.32.002M209.5 84.472a.66.66 0 1 1-1.32 0 .66.66 0 0 1 1.32 0M216.64 84.472a.66.66 0 1 1-1.32 0 .66.66 0 0 1 1.32 0M223.78 84.472a.66.66 0 1 1-1.32 0 .66.66 0 0 1 1.32 0M230.92 84.472a.66.66 0 1 1-1.321 0 .66.66 0 0 1 1.32 0M238.058 84.472a.66.66 0 1 1-1.319 0 .66.66 0 0 1 1.32 0M245.198 84.472a.66.66 0 1 1-1.32 0 .66.66 0 0 1 1.32 0M252.338 84.472a.66.66 0 1 1-1.32 0 .66.66 0 0 1 1.32 0M259.477 84.472a.659.659 0 1 1-1.318.002.659.659 0 0 1 1.318-.002M266.617 84.472a.66.66 0 1 1-1.32 0 .66.66 0 0 1 1.32 0M273.757 84.472a.66.66 0 1 1-1.32 0 .66.66 0 0 1 1.32 0M209.5 90.058a.66.66 0 1 1-1.32.001.66.66 0 0 1 1.32 0M216.64 90.058a.66.66 0 1 1-1.32 0 .66.66 0 0 1 1.32 0M223.78 90.058a.66.66 0 1 1-1.32.001.66.66 0 0 1 1.32 0M230.92 90.058a.66.66 0 1 1-1.321 0 .66.66 0 0 1 1.32 0M238.058 90.058a.66.66 0 1 1-1.319.001.66.66 0 0 1 1.32 0M245.198 90.058a.66.66 0 1 1-1.32 0 .66.66 0 0 1 1.32 0M252.338 90.058a.66.66 0 1 1-1.32.001.66.66 0 0 1 1.32 0M259.477 90.058a.659.659 0 1 1-1.318.002.659.659 0 0 1 1.318-.002M266.617 90.058a.66.66 0 1 1-1.32.001.66.66 0 0 1 1.32 0M273.757 90.058a.66.66 0 1 1-1.32 0 .66.66 0 0 1 1.32 0M209.5 95.645a.66.66 0 1 1-1.319 0 .66.66 0 0 1 1.319 0M216.64 95.645a.66.66 0 1 1-1.32 0 .66.66 0 0 1 1.32 0M223.78 95.645a.66.66 0 1 1-1.32 0 .66.66 0 0 1 1.32 0M230.92 95.645a.66.66 0 1 1-1.32-.001.66.66 0 0 1 1.32.001M238.058 95.645a.66.66 0 1 1-1.318 0 .66.66 0 0 1 1.318 0M245.198 95.645a.66.66 0 1 1-1.32-.001.66.66 0 0 1 1.32.001M252.338 95.645a.66.66 0 1 1-1.32 0 .66.66 0 0 1 1.32 0M259.477 95.645a.659.659 0 1 1-1.318.001.659.659 0 0 1 1.318 0M266.617 95.645a.66.66 0 1 1-1.319 0 .66.66 0 0 1 1.319 0M273.757 95.645a.66.66 0 1 1-1.32-.001.66.66 0 0 1 1.32.001M209.5 101.232a.66.66 0 1 1-1.32 0 .66.66 0 0 1 1.32 0M216.64 101.232a.66.66 0 1 1-1.32 0 .66.66 0 0 1 1.32 0M223.78 101.232a.66.66 0 1 1-1.32 0 .66.66 0 0 1 1.32 0M230.92 101.232a.66.66 0 1 1-1.321 0 .66.66 0 0 1 1.32 0M238.058 101.232a.66.66 0 1 1-1.319 0 .66.66 0 0 1 1.32 0M245.198 101.232a.66.66 0 1 1-1.32 0 .66.66 0 0 1 1.32 0M252.338 101.232a.66.66 0 1 1-1.32 0 .66.66 0 0 1 1.32 0M259.477 101.232a.659.659 0 1 1-1.318.002.659.659 0 0 1 1.318-.002M266.617 101.232a.66.66 0 1 1-1.32 0 .66.66 0 0 1 1.32 0M273.757 101.232a.66.66 0 1 1-1.32 0 .66.66 0 0 1 1.32 0M209.5 106.819a.66.66 0 1 1-1.319 0 .66.66 0 0 1 1.319 0M216.64 106.819a.66.66 0 1 1-1.32-.001.66.66 0 0 1 1.32 0M223.78 106.819a.66.66 0 1 1-1.32 0 .66.66 0 0 1 1.32 0M230.92 106.819a.66.66 0 1 1-1.32-.002.66.66 0 0 1 1.32.002M238.058 106.819a.66.66 0 1 1-1.318 0 .66.66 0 0 1 1.318 0M245.198 106.819a.66.66 0 1 1-1.32-.002.66.66 0 0 1 1.32.002M252.338 106.819a.66.66 0 1 1-1.32 0 .66.66 0 0 1 1.32 0M259.477 106.819a.659.659 0 1 1-1.318 0 .659.659 0 0 1 1.318 0M266.617 106.819a.66.66 0 1 1-1.319 0 .66.66 0 0 1 1.319 0M273.757 106.819a.66.66 0 1 1-1.32-.002.66.66 0 0 1 1.32.002M209.5 112.405a.659.659 0 1 1-1.318 0 .659.659 0 0 1 1.318 0M216.64 112.405a.659.659 0 1 1-1.318 0 .659.659 0 0 1 1.318 0M223.78 112.405a.659.659 0 1 1-1.319 0 .659.659 0 0 1 1.318 0M230.92 112.405a.66.66 0 1 1-1.32 0 .66.66 0 0 1 1.32 0M238.058 112.405a.659.659 0 1 1-1.317 0 .659.659 0 0 1 1.317 0M245.198 112.405a.66.66 0 1 1-1.319 0 .66.66 0 0 1 1.32 0M252.338 112.405a.659.659 0 1 1-1.318 0 .659.659 0 0 1 1.318 0M259.477 112.405a.658.658 0 1 1-1.317.002.658.658 0 0 1 1.317-.002M266.617 112.405a.659.659 0 1 1-1.318 0 .659.659 0 0 1 1.318 0M273.757 112.405a.66.66 0 1 1-1.32 0 .66.66 0 0 1 1.32 0M209.5 117.992a.66.66 0 1 1-1.319 0 .66.66 0 0 1 1.319 0M216.64 117.992a.66.66 0 1 1-1.32 0 .66.66 0 0 1 1.32 0M223.78 117.992a.66.66 0 1 1-1.32 0 .66.66 0 0 1 1.32 0M230.92 117.992a.66.66 0 1 1-1.32-.002.66.66 0 0 1 1.32.002M238.058 117.992a.66.66 0 1 1-1.318 0 .66.66 0 0 1 1.318 0M245.198 117.992a.66.66 0 1 1-1.32-.002.66.66 0 0 1 1.32.002M252.338 117.992a.66.66 0 1 1-1.32 0 .66.66 0 0 1 1.32 0M259.477 117.992a.659.659 0 1 1-1.318 0 .659.659 0 0 1 1.318 0M266.617 117.992a.66.66 0 1 1-1.319 0 .66.66 0 0 1 1.319 0M273.757 117.992a.66.66 0 1 1-1.32-.002.66.66 0 0 1 1.32.002"/>
        </g>
        <g fill="#FFC916" fill-rule="nonzero" opacity=".3">
            <path d="M18.923 77.912a.691.691 0 1 1-1.382 0 .691.691 0 0 1 1.382 0M26.397 77.912a.69.69 0 1 1-1.38 0 .69.69 0 0 1 1.38 0M33.871 77.912a.69.69 0 1 1-1.38 0 .69.69 0 0 1 1.38 0M41.346 77.912a.69.69 0 1 1-1.381 0 .69.69 0 0 1 1.381 0M48.82 77.912a.691.691 0 1 1-1.381 0 .691.691 0 0 1 1.382 0M56.295 77.912a.69.69 0 1 1-1.381 0 .69.69 0 0 1 1.38 0M63.77 77.912a.691.691 0 1 1-1.383 0 .691.691 0 0 1 1.382 0M71.243 77.912a.69.69 0 1 1-1.38 0 .69.69 0 0 1 1.38 0M78.718 77.912a.69.69 0 1 1-1.38 0 .69.69 0 0 1 1.38 0M86.193 77.912a.691.691 0 1 1-1.382 0 .691.691 0 0 1 1.382 0M18.923 83.761a.69.69 0 1 1-1.381-.001.69.69 0 0 1 1.381.001M26.397 83.761a.69.69 0 1 1-1.38 0 .69.69 0 0 1 1.38 0M33.871 83.761a.69.69 0 1 1-1.38 0 .69.69 0 0 1 1.38 0M41.346 83.761a.69.69 0 1 1-1.38 0 .69.69 0 0 1 1.38 0M48.82 83.761a.69.69 0 1 1-1.381-.001.69.69 0 0 1 1.382.001M56.295 83.761a.69.69 0 1 1-1.381 0 .69.69 0 0 1 1.38 0M63.77 83.761a.69.69 0 1 1-1.382-.001.69.69 0 0 1 1.381.001M71.243 83.761a.69.69 0 1 1-1.38 0 .69.69 0 0 1 1.38 0M78.718 83.761a.69.69 0 1 1-1.38 0 .69.69 0 0 1 1.38 0M86.193 83.761a.69.69 0 1 1-1.382-.001.69.69 0 0 1 1.382.001M18.923 89.61a.69.69 0 1 1-1.38-.001.69.69 0 0 1 1.38 0M26.397 89.61a.69.69 0 1 1-1.379 0 .69.69 0 0 1 1.38 0M33.871 89.61a.69.69 0 1 1-1.38 0 .69.69 0 0 1 1.38 0M41.346 89.61a.69.69 0 1 1-1.38 0 .69.69 0 0 1 1.38 0M48.82 89.61a.69.69 0 1 1-1.38-.001.69.69 0 0 1 1.38 0M56.295 89.61a.69.69 0 1 1-1.38 0 .69.69 0 0 1 1.38 0M63.77 89.61a.69.69 0 1 1-1.381-.001.69.69 0 0 1 1.38 0M71.243 89.61a.69.69 0 1 1-1.379 0 .69.69 0 0 1 1.38 0M78.718 89.61a.69.69 0 1 1-1.38 0 .69.69 0 0 1 1.38 0M86.193 89.61a.69.69 0 1 1-1.38-.001.69.69 0 0 1 1.38 0M18.923 95.458a.691.691 0 1 1-1.382 0 .691.691 0 0 1 1.382 0M26.397 95.458a.69.69 0 1 1-1.38.001.69.69 0 0 1 1.38 0M33.871 95.458a.69.69 0 1 1-1.38.001.69.69 0 0 1 1.38 0M41.346 95.458a.69.69 0 1 1-1.381 0 .69.69 0 0 1 1.381 0M48.82 95.458a.691.691 0 1 1-1.381 0 .691.691 0 0 1 1.382 0M56.295 95.458a.69.69 0 1 1-1.381 0 .69.69 0 0 1 1.38 0M63.77 95.458a.691.691 0 1 1-1.383 0 .691.691 0 0 1 1.382 0M71.243 95.458a.69.69 0 1 1-1.38.001.69.69 0 0 1 1.38 0M78.718 95.458a.69.69 0 1 1-1.38 0 .69.69 0 0 1 1.38 0M86.193 95.458a.691.691 0 1 1-1.382 0 .691.691 0 0 1 1.382 0M18.923 101.307a.69.69 0 1 1-1.381-.001.69.69 0 0 1 1.381.001M26.397 101.307a.69.69 0 1 1-1.38 0 .69.69 0 0 1 1.38 0M33.871 101.307a.69.69 0 1 1-1.38 0 .69.69 0 0 1 1.38 0M41.346 101.307a.69.69 0 1 1-1.38 0 .69.69 0 0 1 1.38 0M48.82 101.307a.69.69 0 1 1-1.381-.001.69.69 0 0 1 1.382.001M56.295 101.307a.69.69 0 1 1-1.381 0 .69.69 0 0 1 1.38 0M63.77 101.307a.69.69 0 1 1-1.382-.001.69.69 0 0 1 1.381.001M71.243 101.307a.69.69 0 1 1-1.38 0 .69.69 0 0 1 1.38 0M78.718 101.307a.69.69 0 1 1-1.38 0 .69.69 0 0 1 1.38 0M86.193 101.307a.69.69 0 1 1-1.382-.001.69.69 0 0 1 1.382.001M18.923 107.156a.69.69 0 1 1-1.381-.002.69.69 0 0 1 1.381.002M26.397 107.156a.69.69 0 1 1-1.38 0 .69.69 0 0 1 1.38 0M33.871 107.156a.69.69 0 1 1-1.38 0 .69.69 0 0 1 1.38 0M41.346 107.156a.69.69 0 1 1-1.38 0 .69.69 0 0 1 1.38 0M48.82 107.156a.69.69 0 1 1-1.381-.002.69.69 0 0 1 1.382.002M56.295 107.156a.69.69 0 1 1-1.381 0 .69.69 0 0 1 1.38 0M63.77 107.156a.69.69 0 1 1-1.382-.002.69.69 0 0 1 1.381.002M71.243 107.156a.69.69 0 1 1-1.38 0 .69.69 0 0 1 1.38 0M78.718 107.156a.69.69 0 1 1-1.38 0 .69.69 0 0 1 1.38 0M86.193 107.156a.69.69 0 1 1-1.382-.002.69.69 0 0 1 1.382.002M18.923 113.004a.691.691 0 1 1-1.382 0 .691.691 0 0 1 1.382 0M26.397 113.004a.69.69 0 1 1-1.38.001.69.69 0 0 1 1.38 0M33.871 113.004a.69.69 0 1 1-1.38.001.69.69 0 0 1 1.38 0M41.346 113.004a.69.69 0 1 1-1.381 0 .69.69 0 0 1 1.381 0M48.82 113.004a.691.691 0 1 1-1.381 0 .691.691 0 0 1 1.382 0M56.295 113.004a.69.69 0 1 1-1.381 0 .69.69 0 0 1 1.38 0M63.77 113.004a.691.691 0 1 1-1.383 0 .691.691 0 0 1 1.382 0M71.243 113.004a.69.69 0 1 1-1.38.001.69.69 0 0 1 1.38 0M78.718 113.004a.69.69 0 1 1-1.38 0 .69.69 0 0 1 1.38 0M86.193 113.004a.691.691 0 1 1-1.382 0 .691.691 0 0 1 1.382 0M18.923 118.853a.691.691 0 1 1-1.382 0 .691.691 0 0 1 1.382 0M26.397 118.853a.69.69 0 1 1-1.38 0 .69.69 0 0 1 1.38 0M33.871 118.853a.69.69 0 1 1-1.38 0 .69.69 0 0 1 1.38 0M41.346 118.853a.69.69 0 1 1-1.381 0 .69.69 0 0 1 1.381 0M48.82 118.853a.691.691 0 1 1-1.381 0 .691.691 0 0 1 1.382 0M56.295 118.853a.69.69 0 1 1-1.381 0 .69.69 0 0 1 1.38 0M63.77 118.853a.691.691 0 1 1-1.383 0 .691.691 0 0 1 1.382 0M71.243 118.853a.69.69 0 1 1-1.38 0 .69.69 0 0 1 1.38 0M78.718 118.853a.69.69 0 1 1-1.38 0 .69.69 0 0 1 1.38 0M86.193 118.853a.691.691 0 1 1-1.382 0 .691.691 0 0 1 1.382 0M18.923 124.701a.691.691 0 1 1-1.382 0 .691.691 0 0 1 1.382 0M26.397 124.701a.69.69 0 1 1-1.38 0 .69.69 0 0 1 1.38 0M33.871 124.701a.69.69 0 1 1-1.38 0 .69.69 0 0 1 1.38 0M41.346 124.701a.69.69 0 1 1-1.381 0 .69.69 0 0 1 1.381 0M48.82 124.701a.691.691 0 1 1-1.381 0 .691.691 0 0 1 1.382 0M56.295 124.701a.69.69 0 1 1-1.381 0 .69.69 0 0 1 1.38 0M63.77 124.701a.691.691 0 1 1-1.383 0 .691.691 0 0 1 1.382 0M71.243 124.701a.69.69 0 1 1-1.38 0 .69.69 0 0 1 1.38 0M78.718 124.701a.69.69 0 1 1-1.38 0 .69.69 0 0 1 1.38 0M86.193 124.701a.691.691 0 1 1-1.382 0 .691.691 0 0 1 1.382 0M18.923 130.55a.69.69 0 1 1-1.38 0 .69.69 0 0 1 1.38 0M26.397 130.55a.69.69 0 1 1-1.38.001.69.69 0 0 1 1.38-.002M33.871 130.55a.69.69 0 1 1-1.38.001.69.69 0 0 1 1.38-.002M41.346 130.55a.69.69 0 1 1-1.38.001.69.69 0 0 1 1.38-.002M48.82 130.55a.69.69 0 1 1-1.38 0 .69.69 0 0 1 1.38 0M56.295 130.55a.69.69 0 1 1-1.38.001.69.69 0 0 1 1.38-.002M63.77 130.55a.69.69 0 1 1-1.382 0 .69.69 0 0 1 1.381 0M71.243 130.55a.69.69 0 1 1-1.38.001.69.69 0 0 1 1.38-.002M78.718 130.55a.69.69 0 1 1-1.38.001.69.69 0 0 1 1.38-.002M86.193 130.55a.69.69 0 1 1-1.381 0 .69.69 0 0 1 1.38 0M18.923 136.398a.691.691 0 1 1-1.382 0 .691.691 0 0 1 1.382 0M26.397 136.398a.69.69 0 1 1-1.38.002.69.69 0 0 1 1.38-.002M33.871 136.398a.69.69 0 1 1-1.38.002.69.69 0 0 1 1.38-.002M41.346 136.398a.69.69 0 1 1-1.381.002.69.69 0 0 1 1.381-.002M48.82 136.398a.691.691 0 1 1-1.382 0 .691.691 0 0 1 1.383 0M56.295 136.398a.69.69 0 1 1-1.382.002.69.69 0 0 1 1.382-.002M63.77 136.398a.691.691 0 1 1-1.383 0 .691.691 0 0 1 1.382 0M71.243 136.398a.69.69 0 1 1-1.38.002.69.69 0 0 1 1.38-.002M78.718 136.398a.69.69 0 1 1-1.381.002.69.69 0 0 1 1.381-.002M86.193 136.398a.691.691 0 1 1-1.383 0 .691.691 0 0 1 1.383 0"/>
        </g>
        <g fill="#3C4D6F" fill-rule="nonzero">
            <path d="M82.014 118.147v-18.17H45.06V84.825l39.173-57.342h14.536v57.28h11.21v15.214h-11.21v18.17H82.014zm0-33.384V53.906L61.257 84.763h20.757zM142.312 27.483c8.746 0 15.582 3.12 20.51 9.361 5.872 7.392 8.808 19.649 8.808 36.771 0 17.082-2.957 29.359-8.87 36.833-4.886 6.159-11.702 9.238-20.448 9.238-8.788 0-15.87-3.377-21.25-10.132-5.38-6.755-8.069-18.796-8.069-36.124 0-16.999 2.957-29.236 8.87-36.709 4.886-6.158 11.702-9.238 20.449-9.238zm0 14.35c-2.095 0-3.963.668-5.605 2.002-1.643 1.335-2.916 3.727-3.82 7.176-1.19 4.475-1.786 12.01-1.786 22.604s.535 17.872 1.602 21.834c1.068 3.964 2.413 6.601 4.034 7.916 1.622 1.313 3.48 1.97 5.575 1.97 2.094 0 3.962-.667 5.604-2.001 1.643-1.335 2.916-3.726 3.819-7.176 1.19-4.435 1.787-11.95 1.787-22.543 0-10.594-.535-17.872-1.602-21.834-1.068-3.963-2.412-6.61-4.034-7.946-1.622-1.334-3.48-2.001-5.574-2.001zM211.971 118.147v-18.17h-36.956V84.825l39.173-57.342h14.536v57.28h11.21v15.214h-11.21v18.17H211.97zm0-33.384V53.906l-20.757 30.857h20.757z"/>
        </g>
        <g fill-rule="nonzero">
            <path fill="#FF4702" d="M57.574 35.438c.01-.169.016-.337.016-.507 0-4.495-3.65-8.137-8.151-8.137-.523 0-1.034.05-1.53.143-.493-6.017-5.541-10.746-11.696-10.746-6.134 0-11.169 4.698-11.691 10.686-3.947.568-6.98 3.957-6.98 8.054 0 .17.005.338.016.507h40.016z"/>
            <g fill="#D3D7DE" stroke="#D3D7DE" stroke-width="1.5">
                <path d="M58.2 40.08h5.57M32.375 40.08H54.15"/>
            </g>
        </g>
        <g fill-rule="nonzero">
            <path fill="#FF4702" d="M275.071 133.604c-.021-5.23-4.274-9.463-9.518-9.463-.35 0-.696.02-1.036.056a13.825 13.825 0 0 0-12.83-8.65c-7.634 0-13.824 6.177-13.824 13.799 0 1.485.236 2.917.672 4.258h36.536z"/>
            <g fill="#D3D7DE" stroke="#D3D7DE" stroke-width="1.5">
                <path d="M274.936 137.685h6.108M246.614 137.685h23.88"/>
            </g>
        </g>
    </g>
</svg>
