<svg xmlns="http://www.w3.org/2000/svg" width="269" height="134" viewBox="0 0 269 134">
    <g fill="none" fill-rule="evenodd">
        <path d="M-16-19h300v173.684H-16z"/>
        <path fill="#E9EBEE" fill-rule="nonzero" d="M232.26 62.673H196.1c-9.986 0-18.08-8.212-18.08-18.191V26.29c0-10.107 8.094-18.317 18.08-18.317h72.319V26.29c0 20.085-16.189 36.382-36.159 36.382M94.852 109.871v23.647h-47.25C21.515 133.518.35 112.344.35 86.225h70.876c13.125 0 23.625 10.585 23.625 23.646" opacity=".4"/>
        <g fill="#FB043D" fill-rule="nonzero" opacity=".1">
            <path d="M190.644 1.433a.564.564 0 1 1-1.128 0 .564.564 0 0 1 1.128 0M196.75 1.433a.564.564 0 1 1-1.128 0 .564.564 0 0 1 1.129 0M202.857 1.433a.564.564 0 1 1-1.127 0 .564.564 0 0 1 1.127 0M208.964 1.433a.565.565 0 1 1-1.129-.002.565.565 0 0 1 1.13.002M215.071 1.433a.564.564 0 1 1-1.128 0 .564.564 0 0 1 1.128 0M221.178 1.433a.564.564 0 1 1-1.128 0 .564.564 0 0 1 1.128 0M227.284 1.433a.564.564 0 1 1-1.128 0 .564.564 0 0 1 1.128 0M233.39 1.433a.564.564 0 1 1-1.126 0 .564.564 0 0 1 1.127 0M239.498 1.433a.564.564 0 1 1-1.128 0 .564.564 0 0 1 1.128 0M245.605 1.433a.564.564 0 1 1-1.129 0 .564.564 0 0 1 1.129 0M190.644 6.211a.564.564 0 1 1-1.129 0 .564.564 0 0 1 1.129 0M196.75 6.211a.564.564 0 1 1-1.128 0 .564.564 0 0 1 1.129 0M202.857 6.211a.564.564 0 1 1-1.127.002.564.564 0 0 1 1.127-.002M208.964 6.211a.565.565 0 1 1-1.13 0 .565.565 0 0 1 1.13 0M215.071 6.211a.564.564 0 1 1-1.129 0 .564.564 0 0 1 1.13 0M221.178 6.211a.564.564 0 1 1-1.129 0 .564.564 0 0 1 1.129 0M227.284 6.211a.564.564 0 1 1-1.128 0 .564.564 0 0 1 1.128 0M233.39 6.211a.564.564 0 1 1-1.127.002.564.564 0 0 1 1.128-.002M239.498 6.211a.564.564 0 1 1-1.129 0 .564.564 0 0 1 1.13 0M245.605 6.211a.564.564 0 1 1-1.129 0 .564.564 0 0 1 1.129 0M190.644 10.99a.564.564 0 1 1-1.129 0 .564.564 0 0 1 1.129 0M196.75 10.99a.564.564 0 1 1-1.128 0 .564.564 0 0 1 1.129 0M202.857 10.99a.564.564 0 1 1-1.127.001.564.564 0 0 1 1.127-.001M208.964 10.99a.565.565 0 1 1-1.13-.001.565.565 0 0 1 1.13 0M215.071 10.99a.564.564 0 1 1-1.129 0 .564.564 0 0 1 1.13 0M221.178 10.99a.564.564 0 1 1-1.129 0 .564.564 0 0 1 1.129 0M227.284 10.99a.564.564 0 1 1-1.128 0 .564.564 0 0 1 1.128 0M233.39 10.99a.564.564 0 1 1-1.127.001.564.564 0 0 1 1.128-.001M239.498 10.99a.564.564 0 1 1-1.129 0 .564.564 0 0 1 1.13 0M245.605 10.99a.564.564 0 1 1-1.129 0 .564.564 0 0 1 1.129 0M190.644 15.768a.564.564 0 1 1-1.128 0 .564.564 0 0 1 1.128 0M196.75 15.768a.564.564 0 1 1-1.128 0 .564.564 0 0 1 1.129 0M202.857 15.768a.564.564 0 1 1-1.127 0 .564.564 0 0 1 1.127 0M208.964 15.768a.565.565 0 1 1-1.129-.002.565.565 0 0 1 1.13.002M215.071 15.768a.564.564 0 1 1-1.128 0 .564.564 0 0 1 1.128 0M221.178 15.768a.564.564 0 1 1-1.128 0 .564.564 0 0 1 1.128 0M227.284 15.768a.564.564 0 1 1-1.128 0 .564.564 0 0 1 1.128 0M233.39 15.768a.564.564 0 1 1-1.126 0 .564.564 0 0 1 1.127 0M239.498 15.768a.564.564 0 1 1-1.128 0 .564.564 0 0 1 1.128 0M245.605 15.768a.564.564 0 1 1-1.129 0 .564.564 0 0 1 1.129 0M190.644 20.546a.564.564 0 1 1-1.129 0 .564.564 0 0 1 1.129 0M196.75 20.546a.564.564 0 1 1-1.128 0 .564.564 0 0 1 1.129 0M202.857 20.546a.564.564 0 1 1-1.127.002.564.564 0 0 1 1.127-.002M208.964 20.546a.565.565 0 1 1-1.13 0 .565.565 0 0 1 1.13 0M215.071 20.546a.564.564 0 1 1-1.129 0 .564.564 0 0 1 1.13 0M221.178 20.546a.564.564 0 1 1-1.129 0 .564.564 0 0 1 1.129 0M227.284 20.546a.564.564 0 1 1-1.128 0 .564.564 0 0 1 1.128 0M233.39 20.546a.564.564 0 1 1-1.127.002.564.564 0 0 1 1.128-.002M239.498 20.546a.564.564 0 1 1-1.129 0 .564.564 0 0 1 1.13 0M245.605 20.546a.564.564 0 1 1-1.129 0 .564.564 0 0 1 1.129 0M190.644 25.325a.564.564 0 1 1-1.129 0 .564.564 0 0 1 1.129 0M196.75 25.325a.564.564 0 1 1-1.128 0 .564.564 0 0 1 1.129 0M202.857 25.325a.564.564 0 1 1-1.127.002.564.564 0 0 1 1.127-.002M208.964 25.325a.565.565 0 1 1-1.13 0 .565.565 0 0 1 1.13 0M215.071 25.325a.564.564 0 1 1-1.129 0 .564.564 0 0 1 1.13 0M221.178 25.325a.564.564 0 1 1-1.129 0 .564.564 0 0 1 1.129 0M227.284 25.325a.564.564 0 1 1-1.128 0 .564.564 0 0 1 1.128 0M233.39 25.325a.564.564 0 1 1-1.127.002.564.564 0 0 1 1.128-.002M239.498 25.325a.564.564 0 1 1-1.129 0 .564.564 0 0 1 1.13 0M245.605 25.325a.564.564 0 1 1-1.129 0 .564.564 0 0 1 1.129 0M190.644 30.104a.564.564 0 1 1-1.128-.001.564.564 0 0 1 1.128 0M196.75 30.104a.564.564 0 1 1-1.128-.001.564.564 0 0 1 1.129 0M202.857 30.104a.564.564 0 1 1-1.127 0 .564.564 0 0 1 1.127 0M208.964 30.104a.565.565 0 1 1-1.129-.002.565.565 0 0 1 1.13.002M215.071 30.104a.564.564 0 1 1-1.128-.001.564.564 0 0 1 1.128 0M221.178 30.104a.564.564 0 1 1-1.128-.001.564.564 0 0 1 1.128 0M227.284 30.104a.564.564 0 1 1-1.128-.001.564.564 0 0 1 1.128 0M233.39 30.104a.564.564 0 1 1-1.126 0 .564.564 0 0 1 1.127 0M239.498 30.104a.564.564 0 1 1-1.128-.001.564.564 0 0 1 1.128 0M245.605 30.104a.564.564 0 1 1-1.129-.001.564.564 0 0 1 1.129 0M190.644 34.882a.564.564 0 1 1-1.129 0 .564.564 0 0 1 1.129 0M196.75 34.882a.564.564 0 1 1-1.128 0 .564.564 0 0 1 1.129 0M202.857 34.882a.564.564 0 1 1-1.127.001.564.564 0 0 1 1.127-.001M208.964 34.882a.565.565 0 1 1-1.13-.001.565.565 0 0 1 1.13 0M215.071 34.882a.564.564 0 1 1-1.129 0 .564.564 0 0 1 1.13 0M221.178 34.882a.564.564 0 1 1-1.129 0 .564.564 0 0 1 1.129 0M227.284 34.882a.564.564 0 1 1-1.128 0 .564.564 0 0 1 1.128 0M233.39 34.882a.564.564 0 1 1-1.127.001.564.564 0 0 1 1.128-.001M239.498 34.882a.564.564 0 1 1-1.129 0 .564.564 0 0 1 1.13 0M245.605 34.882a.564.564 0 1 1-1.129 0 .564.564 0 0 1 1.129 0M190.644 39.66a.564.564 0 1 1-1.129 0 .564.564 0 0 1 1.129 0M196.75 39.66a.564.564 0 1 1-1.128 0 .564.564 0 0 1 1.129 0M202.857 39.66a.564.564 0 1 1-1.127.002.564.564 0 0 1 1.127-.002M208.964 39.66a.565.565 0 1 1-1.13 0 .565.565 0 0 1 1.13 0M215.071 39.66a.564.564 0 1 1-1.129 0 .564.564 0 0 1 1.13 0M221.178 39.66a.564.564 0 1 1-1.129 0 .564.564 0 0 1 1.129 0M227.284 39.66a.564.564 0 1 1-1.128 0 .564.564 0 0 1 1.128 0M233.39 39.66a.564.564 0 1 1-1.127.002.564.564 0 0 1 1.128-.002M239.498 39.66a.564.564 0 1 1-1.129 0 .564.564 0 0 1 1.13 0M245.605 39.66a.564.564 0 1 1-1.129 0 .564.564 0 0 1 1.129 0M190.644 44.439a.565.565 0 1 1-1.13 0 .565.565 0 0 1 1.13 0M196.75 44.439a.565.565 0 1 1-1.129 0 .565.565 0 0 1 1.13 0M202.857 44.439a.564.564 0 1 1-1.128 0 .564.564 0 0 1 1.128 0M208.964 44.439a.564.564 0 1 1 0 0M215.071 44.439a.565.565 0 1 1-1.13 0 .565.565 0 0 1 1.13 0M221.178 44.439a.565.565 0 1 1-1.13 0 .565.565 0 0 1 1.13 0M227.284 44.439a.565.565 0 1 1-1.13 0 .565.565 0 0 1 1.13 0M233.39 44.439a.564.564 0 1 1-1.128 0 .564.564 0 0 1 1.129 0M239.498 44.439a.565.565 0 1 1-1.13 0 .565.565 0 0 1 1.13 0M245.605 44.439a.565.565 0 1 1-1.13 0 .565.565 0 0 1 1.13 0M190.644 49.218a.564.564 0 1 1-1.128-.001.564.564 0 0 1 1.128 0M196.75 49.218a.564.564 0 1 1-1.128-.001.564.564 0 0 1 1.129 0M202.857 49.218a.564.564 0 1 1-1.127 0 .564.564 0 0 1 1.127 0M208.964 49.218a.565.565 0 1 1-1.129-.002.565.565 0 0 1 1.13.002M215.071 49.218a.564.564 0 1 1-1.128-.001.564.564 0 0 1 1.128 0M221.178 49.218a.564.564 0 1 1-1.128-.001.564.564 0 0 1 1.128 0M227.284 49.218a.564.564 0 1 1-1.128-.001.564.564 0 0 1 1.128 0M233.39 49.218a.564.564 0 1 1-1.126 0 .564.564 0 0 1 1.127 0M239.498 49.218a.564.564 0 1 1-1.128-.001.564.564 0 0 1 1.128 0M245.605 49.218a.564.564 0 1 1-1.129-.001.564.564 0 0 1 1.129 0M190.644 53.637a.564.564 0 1 1-1.129 0 .564.564 0 0 1 1.129 0M196.75 53.637a.564.564 0 1 1-1.128 0 .564.564 0 0 1 1.129 0M202.857 53.637a.564.564 0 1 1-1.127.002.564.564 0 0 1 1.127-.002M208.964 53.637a.565.565 0 1 1-1.13 0 .565.565 0 0 1 1.13 0M215.071 53.637a.564.564 0 1 1-1.129 0 .564.564 0 0 1 1.13 0M221.178 53.637a.564.564 0 1 1-1.129 0 .564.564 0 0 1 1.129 0M227.284 53.637a.564.564 0 1 1-1.128 0 .564.564 0 0 1 1.128 0M233.39 53.637a.564.564 0 1 1-1.127.002.564.564 0 0 1 1.128-.002M239.498 53.637a.564.564 0 1 1-1.129 0 .564.564 0 0 1 1.13 0M245.605 53.637a.564.564 0 1 1-1.129 0 .564.564 0 0 1 1.129 0M190.644 58.416a.565.565 0 1 1-1.13-.001.565.565 0 0 1 1.13 0M196.75 58.416a.565.565 0 1 1-1.129 0 .565.565 0 0 1 1.13 0M202.857 58.416a.564.564 0 1 1-1.128 0 .564.564 0 0 1 1.128 0M208.964 58.416a.564.564 0 1 1 0 0M215.071 58.416a.565.565 0 1 1-1.13-.001.565.565 0 0 1 1.13 0M221.178 58.416a.565.565 0 1 1-1.13 0 .565.565 0 0 1 1.13 0M227.284 58.416a.565.565 0 1 1-1.13 0 .565.565 0 0 1 1.13 0M233.39 58.416a.564.564 0 1 1-1.128 0 .564.564 0 0 1 1.129 0M239.498 58.416a.565.565 0 1 1-1.13-.001.565.565 0 0 1 1.13 0M245.605 58.416a.565.565 0 1 1-1.13-.001.565.565 0 0 1 1.13 0M190.644 63.194a.564.564 0 1 1-1.129 0 .564.564 0 0 1 1.129 0M196.75 63.194a.564.564 0 1 1-1.128 0 .564.564 0 0 1 1.129 0M202.857 63.194a.564.564 0 1 1-1.127.001.564.564 0 0 1 1.127-.001M208.964 63.194a.565.565 0 1 1-1.13-.001.565.565 0 0 1 1.13 0M215.071 63.194a.564.564 0 1 1-1.129 0 .564.564 0 0 1 1.13 0M221.178 63.194a.564.564 0 1 1-1.129 0 .564.564 0 0 1 1.129 0M227.284 63.194a.564.564 0 1 1-1.128 0 .564.564 0 0 1 1.128 0M233.39 63.194a.564.564 0 1 1-1.127.001.564.564 0 0 1 1.128-.001M239.498 63.194a.564.564 0 1 1-1.129 0 .564.564 0 0 1 1.13 0M245.605 63.194a.564.564 0 1 1-1.129 0 .564.564 0 0 1 1.129 0M190.644 67.972a.564.564 0 1 1-1.129 0 .564.564 0 0 1 1.129 0M196.75 67.972a.564.564 0 1 1-1.128 0 .564.564 0 0 1 1.129 0M202.857 67.972a.564.564 0 1 1-1.127.002.564.564 0 0 1 1.127-.002M208.964 67.972a.565.565 0 1 1-1.13 0 .565.565 0 0 1 1.13 0M215.071 67.972a.564.564 0 1 1-1.129 0 .564.564 0 0 1 1.13 0M221.178 67.972a.564.564 0 1 1-1.129 0 .564.564 0 0 1 1.129 0M227.284 67.972a.564.564 0 1 1-1.128 0 .564.564 0 0 1 1.128 0M233.39 67.972a.564.564 0 1 1-1.127.002.564.564 0 0 1 1.128-.002M239.498 67.972a.564.564 0 1 1-1.129 0 .564.564 0 0 1 1.13 0M245.605 67.972a.564.564 0 1 1-1.129 0 .564.564 0 0 1 1.129 0M190.644 72.751a.564.564 0 1 1-1.129 0 .564.564 0 0 1 1.129 0M196.75 72.751a.564.564 0 1 1-1.128 0 .564.564 0 0 1 1.129 0M202.857 72.751a.564.564 0 1 1-1.127.002.564.564 0 0 1 1.127-.002M208.964 72.751a.565.565 0 1 1-1.13 0 .565.565 0 0 1 1.13 0M215.071 72.751a.564.564 0 1 1-1.129 0 .564.564 0 0 1 1.13 0M221.178 72.751a.564.564 0 1 1-1.129 0 .564.564 0 0 1 1.129 0M227.284 72.751a.564.564 0 1 1-1.128 0 .564.564 0 0 1 1.128 0M233.39 72.751a.564.564 0 1 1-1.127.002.564.564 0 0 1 1.128-.002M239.498 72.751a.564.564 0 1 1-1.129 0 .564.564 0 0 1 1.13 0M245.605 72.751a.564.564 0 1 1-1.129 0 .564.564 0 0 1 1.129 0M190.644 77.53a.564.564 0 1 1-1.128-.001.564.564 0 0 1 1.128 0M196.75 77.53a.564.564 0 1 1-1.128 0 .564.564 0 0 1 1.129 0M202.857 77.53a.564.564 0 1 1-1.127 0 .564.564 0 0 1 1.127 0M208.964 77.53a.565.565 0 1 1-1.129-.002.565.565 0 0 1 1.13.002M215.071 77.53a.564.564 0 1 1-1.128-.001.564.564 0 0 1 1.128 0M221.178 77.53a.564.564 0 1 1-1.128 0 .564.564 0 0 1 1.128 0M227.284 77.53a.564.564 0 1 1-1.128 0 .564.564 0 0 1 1.128 0M233.39 77.53a.564.564 0 1 1-1.126 0 .564.564 0 0 1 1.127 0M239.498 77.53a.564.564 0 1 1-1.128-.001.564.564 0 0 1 1.128 0M245.605 77.53a.564.564 0 1 1-1.129-.001.564.564 0 0 1 1.129 0M190.644 82.308a.564.564 0 1 1-1.129 0 .564.564 0 0 1 1.129 0M196.75 82.308a.564.564 0 1 1-1.128 0 .564.564 0 0 1 1.129 0M202.857 82.308a.564.564 0 1 1-1.127.001.564.564 0 0 1 1.127-.001M208.964 82.308a.565.565 0 1 1-1.13-.001.565.565 0 0 1 1.13 0M215.071 82.308a.564.564 0 1 1-1.129 0 .564.564 0 0 1 1.13 0M221.178 82.308a.564.564 0 1 1-1.129 0 .564.564 0 0 1 1.129 0M227.284 82.308a.564.564 0 1 1-1.128 0 .564.564 0 0 1 1.128 0M233.39 82.308a.564.564 0 1 1-1.127.001.564.564 0 0 1 1.128-.001M239.498 82.308a.564.564 0 1 1-1.129 0 .564.564 0 0 1 1.13 0M245.605 82.308a.564.564 0 1 1-1.129 0 .564.564 0 0 1 1.129 0M190.644 87.086a.564.564 0 1 1-1.129 0 .564.564 0 0 1 1.129 0M196.75 87.086a.564.564 0 1 1-1.128 0 .564.564 0 0 1 1.129 0M202.857 87.086a.564.564 0 1 1-1.127.002.564.564 0 0 1 1.127-.002M208.964 87.086a.565.565 0 1 1-1.13 0 .565.565 0 0 1 1.13 0M215.071 87.086a.564.564 0 1 1-1.129 0 .564.564 0 0 1 1.13 0M221.178 87.086a.564.564 0 1 1-1.129 0 .564.564 0 0 1 1.129 0M227.284 87.086a.564.564 0 1 1-1.128 0 .564.564 0 0 1 1.128 0M233.39 87.086a.564.564 0 1 1-1.127.002.564.564 0 0 1 1.128-.002M239.498 87.086a.564.564 0 1 1-1.129 0 .564.564 0 0 1 1.13 0M245.605 87.086a.564.564 0 1 1-1.129 0 .564.564 0 0 1 1.129 0M190.644 91.865a.565.565 0 1 1-1.13 0 .565.565 0 0 1 1.13 0M196.75 91.865a.565.565 0 1 1-1.129 0 .565.565 0 0 1 1.13 0M202.857 91.865a.564.564 0 1 1-1.128 0 .564.564 0 0 1 1.128 0M208.964 91.865a.564.564 0 1 1 0 0M215.071 91.865a.565.565 0 1 1-1.13 0 .565.565 0 0 1 1.13 0M221.178 91.865a.565.565 0 1 1-1.13 0 .565.565 0 0 1 1.13 0M227.284 91.865a.565.565 0 1 1-1.13 0 .565.565 0 0 1 1.13 0M233.39 91.865a.564.564 0 1 1-1.128 0 .564.564 0 0 1 1.129 0M239.498 91.865a.565.565 0 1 1-1.13 0 .565.565 0 0 1 1.13 0M245.605 91.865a.565.565 0 1 1-1.13 0 .565.565 0 0 1 1.13 0M190.644 96.643a.564.564 0 1 1-1.129 0 .564.564 0 0 1 1.129 0M196.75 96.643a.564.564 0 1 1-1.128 0 .564.564 0 0 1 1.129 0M202.857 96.643a.564.564 0 1 1-1.127.001.564.564 0 0 1 1.127-.001M208.964 96.643a.565.565 0 1 1-1.13 0 .565.565 0 0 1 1.13 0M215.071 96.643a.564.564 0 1 1-1.129 0 .564.564 0 0 1 1.13 0M221.178 96.643a.564.564 0 1 1-1.129 0 .564.564 0 0 1 1.129 0M227.284 96.643a.564.564 0 1 1-1.128 0 .564.564 0 0 1 1.128 0M233.39 96.643a.564.564 0 1 1-1.127.001.564.564 0 0 1 1.128-.001M239.498 96.643a.564.564 0 1 1-1.129 0 .564.564 0 0 1 1.13 0M245.605 96.643a.564.564 0 1 1-1.129 0 .564.564 0 0 1 1.129 0M190.644 101.422a.564.564 0 1 1-1.129 0 .564.564 0 0 1 1.129 0M196.75 101.422a.564.564 0 1 1-1.128 0 .564.564 0 0 1 1.129 0M202.857 101.422a.564.564 0 1 1-1.127.001.564.564 0 0 1 1.127-.001M208.964 101.422a.565.565 0 1 1-1.13-.001.565.565 0 0 1 1.13 0M215.071 101.422a.564.564 0 1 1-1.129 0 .564.564 0 0 1 1.13 0M221.178 101.422a.564.564 0 1 1-1.129 0 .564.564 0 0 1 1.129 0M227.284 101.422a.564.564 0 1 1-1.128 0 .564.564 0 0 1 1.128 0M233.39 101.422a.564.564 0 1 1-1.127.001.564.564 0 0 1 1.128-.001M239.498 101.422a.564.564 0 1 1-1.129 0 .564.564 0 0 1 1.13 0M245.605 101.422a.564.564 0 1 1-1.129 0 .564.564 0 0 1 1.129 0"/>
        </g>
        <g fill="#FFC916" fill-rule="nonzero" opacity=".3">
            <path d="M23.614 63.61a.601.601 0 1 1-1.202 0 .601.601 0 0 1 1.202 0M30.115 63.61a.6.6 0 1 1-1.201 0 .6.6 0 0 1 1.2 0M36.615 63.61a.6.6 0 1 1-1.2 0 .6.6 0 0 1 1.2 0M43.116 63.61a.6.6 0 1 1-1.201 0 .6.6 0 0 1 1.2 0M49.617 63.61a.601.601 0 1 1-1.202 0 .601.601 0 0 1 1.202 0M56.118 63.61a.6.6 0 1 1-1.202 0 .6.6 0 0 1 1.202 0M62.618 63.61a.6.6 0 1 1-1.2 0 .6.6 0 0 1 1.2 0M69.12 63.61a.601.601 0 1 1-1.203 0 .601.601 0 0 1 1.202 0M75.62 63.61a.6.6 0 1 1-1.201 0 .6.6 0 0 1 1.201 0M82.12 63.61a.6.6 0 1 1-1.2 0 .6.6 0 0 1 1.2 0M23.614 68.697a.6.6 0 1 1-1.202-.002.6.6 0 0 1 1.202.002M30.115 68.697a.6.6 0 1 1-1.201 0 .6.6 0 0 1 1.2 0M36.615 68.697a.6.6 0 1 1-1.2 0 .6.6 0 0 1 1.2 0M43.116 68.697a.6.6 0 1 1-1.2 0 .6.6 0 0 1 1.2 0M49.617 68.697a.6.6 0 1 1-1.202-.002.6.6 0 0 1 1.202.002M56.118 68.697a.6.6 0 1 1-1.201 0 .6.6 0 0 1 1.2 0M62.618 68.697a.6.6 0 1 1-1.2 0 .6.6 0 0 1 1.2 0M69.12 68.697a.6.6 0 1 1-1.202-.002.6.6 0 0 1 1.201.002M75.62 68.697a.6.6 0 1 1-1.2 0 .6.6 0 0 1 1.2 0M82.12 68.697a.6.6 0 1 1-1.2 0 .6.6 0 0 1 1.2 0M23.614 73.784a.6.6 0 1 1-1.2-.001.6.6 0 0 1 1.2 0M30.115 73.784a.6.6 0 1 1-1.2 0 .6.6 0 0 1 1.2 0M36.615 73.784a.6.6 0 1 1-1.2 0 .6.6 0 0 1 1.2 0M43.116 73.784a.6.6 0 1 1-1.2 0 .6.6 0 0 1 1.2 0M49.617 73.784a.6.6 0 1 1-1.2-.001.6.6 0 0 1 1.2 0M56.118 73.784a.6.6 0 1 1-1.2 0 .6.6 0 0 1 1.2 0M62.618 73.784a.6.6 0 1 1-1.2 0 .6.6 0 0 1 1.2 0M69.12 73.784a.6.6 0 1 1-1.201-.001.6.6 0 0 1 1.2 0M75.62 73.784a.6.6 0 1 1-1.2 0 .6.6 0 0 1 1.2 0M82.12 73.784a.6.6 0 1 1-1.199 0 .6.6 0 0 1 1.2 0M23.614 78.87a.601.601 0 1 1-1.202 0 .601.601 0 0 1 1.202 0M30.115 78.87a.6.6 0 1 1-1.201 0 .6.6 0 0 1 1.2 0M36.615 78.87a.6.6 0 1 1-1.2 0 .6.6 0 0 1 1.2 0M43.116 78.87a.6.6 0 1 1-1.201.001.6.6 0 0 1 1.2 0M49.617 78.87a.601.601 0 1 1-1.202 0 .601.601 0 0 1 1.202 0M56.118 78.87a.6.6 0 1 1-1.202 0 .6.6 0 0 1 1.202 0M62.618 78.87a.6.6 0 1 1-1.2.001.6.6 0 0 1 1.2 0M69.12 78.87a.601.601 0 1 1-1.203 0 .601.601 0 0 1 1.202 0M75.62 78.87a.6.6 0 1 1-1.201 0 .6.6 0 0 1 1.201 0M82.12 78.87a.6.6 0 1 1-1.2.001.6.6 0 0 1 1.2 0M23.614 83.958a.6.6 0 1 1-1.202-.002.6.6 0 0 1 1.202.002M30.115 83.958a.6.6 0 1 1-1.201-.001.6.6 0 0 1 1.2 0M36.615 83.958a.6.6 0 1 1-1.2-.001.6.6 0 0 1 1.2 0M43.116 83.958a.6.6 0 1 1-1.2 0 .6.6 0 0 1 1.2 0M49.617 83.958a.6.6 0 1 1-1.202-.002.6.6 0 0 1 1.202.002M56.118 83.958a.6.6 0 1 1-1.201-.001.6.6 0 0 1 1.2 0M62.618 83.958a.6.6 0 1 1-1.2 0 .6.6 0 0 1 1.2 0M69.12 83.958a.6.6 0 1 1-1.202-.002.6.6 0 0 1 1.201.002M75.62 83.958a.6.6 0 1 1-1.2-.001.6.6 0 0 1 1.2 0M82.12 83.958a.6.6 0 1 1-1.2 0 .6.6 0 0 1 1.2 0M23.614 89.044a.601.601 0 1 1-1.202 0 .601.601 0 0 1 1.202 0M30.115 89.044a.6.6 0 1 1-1.201 0 .6.6 0 0 1 1.2 0M36.615 89.044a.6.6 0 1 1-1.2 0 .6.6 0 0 1 1.2 0M43.116 89.044a.6.6 0 1 1-1.201.001.6.6 0 0 1 1.2 0M49.617 89.044a.601.601 0 1 1-1.202 0 .601.601 0 0 1 1.202 0M56.118 89.044a.6.6 0 1 1-1.202 0 .6.6 0 0 1 1.202 0M62.618 89.044a.6.6 0 1 1-1.2.001.6.6 0 0 1 1.2 0M69.12 89.044a.601.601 0 1 1-1.203 0 .601.601 0 0 1 1.202 0M75.62 89.044a.6.6 0 1 1-1.201 0 .6.6 0 0 1 1.201 0M82.12 89.044a.6.6 0 1 1-1.2.001.6.6 0 0 1 1.2 0M23.614 94.13a.601.601 0 1 1-1.202 0 .601.601 0 0 1 1.202 0M30.115 94.13a.6.6 0 1 1-1.201.001.6.6 0 0 1 1.2 0M36.615 94.13a.6.6 0 1 1-1.2.001.6.6 0 0 1 1.2 0M43.116 94.13a.6.6 0 1 1-1.201.002.6.6 0 0 1 1.2-.001M49.617 94.13a.601.601 0 1 1-1.202 0 .601.601 0 0 1 1.202 0M56.118 94.13a.6.6 0 1 1-1.202.001.6.6 0 0 1 1.202 0M62.618 94.13a.6.6 0 1 1-1.2.002.6.6 0 0 1 1.2-.001M69.12 94.13a.601.601 0 1 1-1.203 0 .601.601 0 0 1 1.202 0M75.62 94.13a.6.6 0 1 1-1.201.001.6.6 0 0 1 1.201 0M82.12 94.13a.6.6 0 1 1-1.2.002.6.6 0 0 1 1.2-.001M23.614 99.217a.601.601 0 1 1-1.202 0 .601.601 0 0 1 1.202 0M30.115 99.217a.6.6 0 1 1-1.201 0 .6.6 0 0 1 1.2 0M36.615 99.217a.6.6 0 1 1-1.2 0 .6.6 0 0 1 1.2 0M43.116 99.217a.6.6 0 1 1-1.201.001.6.6 0 0 1 1.2 0M49.617 99.217a.601.601 0 1 1-1.202 0 .601.601 0 0 1 1.202 0M56.118 99.217a.6.6 0 1 1-1.202 0 .6.6 0 0 1 1.202 0M62.618 99.217a.6.6 0 1 1-1.2.001.6.6 0 0 1 1.2 0M69.12 99.217a.601.601 0 1 1-1.203 0 .601.601 0 0 1 1.202 0M75.62 99.217a.6.6 0 1 1-1.201 0 .6.6 0 0 1 1.201 0M82.12 99.217a.6.6 0 1 1-1.2.001.6.6 0 0 1 1.2 0M23.614 104.304a.6.6 0 1 1-1.2 0 .6.6 0 0 1 1.2 0M30.115 104.304a.6.6 0 1 1-1.2.001.6.6 0 0 1 1.2-.001M36.615 104.304a.6.6 0 1 1-1.2.001.6.6 0 0 1 1.2-.001M43.116 104.304a.6.6 0 1 1-1.2.002.6.6 0 0 1 1.2-.002M49.617 104.304a.6.6 0 1 1-1.201 0 .6.6 0 0 1 1.201 0M56.118 104.304a.6.6 0 1 1-1.2.001.6.6 0 0 1 1.2-.001M62.618 104.304a.6.6 0 1 1-1.2.002.6.6 0 0 1 1.2-.002M69.12 104.304a.6.6 0 1 1-1.202 0 .6.6 0 0 1 1.201 0M75.62 104.304a.6.6 0 1 1-1.2.001.6.6 0 0 1 1.2-.001M82.12 104.304a.6.6 0 1 1-1.2.002.6.6 0 0 1 1.2-.002M23.614 109.39a.6.6 0 1 1-1.2.001.6.6 0 0 1 1.2 0M30.115 109.39a.6.6 0 1 1-1.2.002.6.6 0 0 1 1.2-.001M36.615 109.39a.6.6 0 1 1-1.2.002.6.6 0 0 1 1.2-.001M43.116 109.39a.6.6 0 1 1-1.2.002.6.6 0 0 1 1.2-.001M49.617 109.39a.6.6 0 1 1-1.201.001.6.6 0 0 1 1.201 0M56.118 109.39a.6.6 0 1 1-1.2.002.6.6 0 0 1 1.2-.001M62.618 109.39a.6.6 0 1 1-1.2.002.6.6 0 0 1 1.2-.001M69.12 109.39a.6.6 0 1 1-1.202.001.6.6 0 0 1 1.201 0M75.62 109.39a.6.6 0 1 1-1.2.002.6.6 0 0 1 1.2-.001M82.12 109.39a.6.6 0 1 1-1.2.002.6.6 0 0 1 1.2-.001M23.614 114.478a.601.601 0 1 1-1.202 0 .601.601 0 0 1 1.202 0M30.115 114.478a.6.6 0 1 1-1.201 0 .6.6 0 0 1 1.2 0M36.615 114.478a.6.6 0 1 1-1.2 0 .6.6 0 0 1 1.2 0M43.116 114.478a.6.6 0 1 1-1.201 0 .6.6 0 0 1 1.2 0M49.617 114.478a.601.601 0 1 1-1.202 0 .601.601 0 0 1 1.202 0M56.118 114.478a.6.6 0 1 1-1.202 0 .6.6 0 0 1 1.202 0M62.618 114.478a.6.6 0 1 1-1.2 0 .6.6 0 0 1 1.2 0M69.12 114.478a.601.601 0 1 1-1.203 0 .601.601 0 0 1 1.202 0M75.62 114.478a.6.6 0 1 1-1.201 0 .6.6 0 0 1 1.201 0M82.12 114.478a.6.6 0 1 1-1.2 0 .6.6 0 0 1 1.2 0"/>
        </g>
        <g fill-rule="nonzero">
            <path fill="#283A5E" d="M193.273 47.018H77.51c-3.383 0-6.125-2.834-6.125-6.33V23.803c0-3.497 2.742-6.331 6.125-6.331h115.762c3.383 0 6.125 2.834 6.125 6.331v16.883c0 3.497-2.742 6.331-6.125 6.331M193.273 83.74H77.51c-3.383 0-6.125-2.835-6.125-6.332V60.525c0-3.496 2.742-6.331 6.125-6.331h115.762c3.383 0 6.125 2.835 6.125 6.331v16.883c0 3.497-2.742 6.332-6.125 6.332M193.273 120.671H77.51c-3.383 0-6.125-2.834-6.125-6.33V97.457c0-3.497 2.742-6.33 6.125-6.33h115.762c3.383 0 6.125 2.833 6.125 6.33v16.884c0 3.496-2.742 6.33-6.125 6.33"/>
            <path fill="#FFF" d="M89.557 32.035c0 1.981-1.554 3.587-3.47 3.587-1.919 0-3.472-1.606-3.472-3.587 0-1.982 1.553-3.588 3.471-3.588 1.917 0 3.47 1.606 3.47 3.588M105.277 32.035c0 1.981-1.553 3.587-3.47 3.587-1.918 0-3.471-1.606-3.471-3.587 0-1.982 1.553-3.588 3.47-3.588 1.918 0 3.471 1.606 3.471 3.588M89.557 69.178c0 1.981-1.554 3.587-3.47 3.587-1.919 0-3.472-1.606-3.472-3.587 0-1.982 1.553-3.588 3.471-3.588 1.917 0 3.47 1.606 3.47 3.588M105.277 69.178c0 1.981-1.553 3.587-3.47 3.587-1.918 0-3.471-1.606-3.471-3.587 0-1.982 1.553-3.588 3.47-3.588 1.918 0 3.471 1.606 3.471 3.588M89.557 106.321c0 1.982-1.554 3.587-3.47 3.587-1.919 0-3.472-1.605-3.472-3.587 0-1.982 1.553-3.588 3.471-3.588 1.917 0 3.47 1.606 3.47 3.588M105.277 106.321c0 1.982-1.553 3.587-3.47 3.587-1.918 0-3.471-1.605-3.471-3.587 0-1.982 1.553-3.588 3.47-3.588 1.918 0 3.471 1.606 3.471 3.588"/>
        </g>
        <g fill-rule="nonzero">
            <path fill="#FF4702" d="M54.652 41.274c.008-.134.013-.268.013-.404 0-3.592-2.94-6.502-6.564-6.502-.421 0-.833.04-1.232.114-.398-4.806-4.463-8.585-9.42-8.585-4.94 0-8.995 3.754-9.415 8.539-3.179.453-5.621 3.16-5.621 6.434 0 .136.004.27.012.404h32.227z"/>
            <g fill="#D3D7DE" stroke="#D3D7DE" stroke-width="1.5">
                <path d="M55.156 44.984h4.486M34.359 44.984h17.535"/>
            </g>
        </g>
        <g fill-rule="nonzero">
            <path fill="#E9EBEF" d="M260.639 88.998c-.018-4.51-3.686-8.158-8.208-8.158-.3 0-.599.017-.892.048a11.92 11.92 0 0 0-11.06-7.459c-6.584 0-11.92 5.327-11.92 11.898 0 1.28.204 2.515.579 3.671h31.5z"/>
            <g fill="#D3D7DE" stroke="#D3D7DE" stroke-width="1.5">
                <path d="M260.522 92.516h5.266M236.103 92.516h20.59"/>
            </g>
        </g>
        <path fill="#FF4702" d="M192.212 79.413a8.391 8.391 0 0 1 14.371 0l24.474 40.595a8.39 8.39 0 0 1-7.186 12.723h-48.946a8.39 8.39 0 0 1-7.187-12.723l24.474-40.595z"/>
        <path stroke="#FFAC8D" stroke-width="1.5" d="M195.344 81.413a4.732 4.732 0 0 1 8.108 0l24.319 40.34a4.731 4.731 0 0 1-4.054 7.178h-48.64a4.734 4.734 0 0 1-4.052-7.177c6.353-10.54 18.124-30.065 24.32-40.34z"/>
        <path fill="#FFF" fill-rule="nonzero" d="M197.38 112.831h4.035l.708-15.905h-5.45l.708 15.905zm-1.234 4.528c0 1.696 1.4 3.014 3.26 3.014 1.844 0 3.243-1.318 3.243-3.014 0-1.695-1.4-3.013-3.243-3.013-1.86 0-3.26 1.318-3.26 3.013z"/>
    </g>
</svg>
