<svg xmlns="http://www.w3.org/2000/svg" width="253" height="140" viewBox="0 0 253 140">
    <g fill="none" fill-rule="evenodd" transform="translate(-21 -16)">
        <path d="M0 0h300v174H0z"/>
        <path fill="#E9EBEE" fill-rule="nonzero" d="M244.263 72.955h-29.194c-8.063 0-14.597-6.57-14.597-14.556V43.844c0-8.086 6.534-14.656 14.597-14.656h58.387v14.656c0 16.07-13.07 29.111-29.193 29.111M104.71 125.979v20.919H62.909c-23.079 0-41.801-18.732-41.801-41.84H83.81c11.61 0 20.9 9.366 20.9 20.92" opacity=".4"/>
        <g fill="#FB043D" fill-rule="nonzero" opacity=".1">
            <path d="M211.074 16.602c0 .249-.2.45-.448.45a.45.45 0 0 1-.448-.45c0-.249.2-.45.448-.45a.45.45 0 0 1 .448.45M215.92 16.602a.449.449 0 1 1-.895 0 .449.449 0 0 1 .895 0M220.767 16.602a.449.449 0 1 1-.895 0c0-.249.2-.45.447-.45.248 0 .448.201.448.45M225.614 16.602c0 .249-.2.45-.447.45a.449.449 0 0 1-.448-.45.449.449 0 1 1 .895 0M230.46 16.602c0 .249-.2.45-.447.45a.449.449 0 0 1-.447-.45.449.449 0 1 1 .895 0M235.307 16.602c0 .249-.2.45-.447.45a.45.45 0 0 1-.448-.45c0-.249.2-.45.448-.45a.45.45 0 0 1 .447.45M240.154 16.602c0 .249-.2.45-.448.45a.45.45 0 0 1-.447-.45c0-.249.2-.45.447-.45a.45.45 0 0 1 .448.45M245 16.602a.449.449 0 1 1-.895 0 .449.449 0 0 1 .895 0M249.848 16.602a.45.45 0 0 1-.896 0 .45.45 0 1 1 .896 0M254.694 16.602c0 .249-.2.45-.447.45a.449.449 0 0 1-.448-.45.449.449 0 1 1 .895 0M211.074 20.417c0 .248-.2.45-.448.45a.45.45 0 0 1-.448-.45c0-.249.2-.45.448-.45a.45.45 0 0 1 .448.45M215.92 20.417a.449.449 0 1 1-.895 0 .449.449 0 0 1 .895 0M220.767 20.417a.449.449 0 1 1-.895 0c0-.249.2-.45.447-.45.248 0 .448.201.448.45M225.614 20.417c0 .248-.2.45-.447.45a.449.449 0 0 1-.448-.45.449.449 0 1 1 .895 0M230.46 20.417c0 .248-.2.45-.447.45a.449.449 0 0 1-.447-.45.449.449 0 1 1 .895 0M235.307 20.417c0 .248-.2.45-.447.45a.45.45 0 0 1-.448-.45c0-.249.2-.45.448-.45a.45.45 0 0 1 .447.45M240.154 20.417c0 .248-.2.45-.448.45a.45.45 0 0 1-.447-.45c0-.249.2-.45.447-.45a.45.45 0 0 1 .448.45M245 20.417a.449.449 0 1 1-.895 0 .449.449 0 0 1 .895 0M249.848 20.417a.45.45 0 0 1-.896 0 .45.45 0 1 1 .896 0M254.694 20.417c0 .248-.2.45-.447.45a.449.449 0 0 1-.448-.45.449.449 0 1 1 .895 0M211.074 24.232c0 .248-.2.45-.448.45a.45.45 0 0 1-.448-.45c0-.249.2-.45.448-.45a.45.45 0 0 1 .448.45M215.92 24.232a.449.449 0 1 1-.895 0 .449.449 0 0 1 .895 0M220.767 24.232a.449.449 0 1 1-.895 0c0-.249.2-.45.447-.45.248 0 .448.201.448.45M225.614 24.232c0 .248-.2.45-.447.45a.449.449 0 0 1-.448-.45.449.449 0 1 1 .895 0M230.46 24.232c0 .248-.2.45-.447.45a.449.449 0 0 1-.447-.45.449.449 0 1 1 .895 0M235.307 24.232c0 .248-.2.45-.447.45a.45.45 0 0 1-.448-.45c0-.249.2-.45.448-.45a.45.45 0 0 1 .447.45M240.154 24.232c0 .248-.2.45-.448.45a.45.45 0 0 1-.447-.45c0-.249.2-.45.447-.45a.45.45 0 0 1 .448.45M245 24.232a.449.449 0 1 1-.895 0 .449.449 0 0 1 .895 0M249.848 24.232a.45.45 0 0 1-.896 0 .45.45 0 1 1 .896 0M254.694 24.232c0 .248-.2.45-.447.45a.449.449 0 0 1-.448-.45.449.449 0 1 1 .895 0M211.074 28.047c0 .248-.2.45-.448.45a.45.45 0 0 1-.448-.45c0-.25.2-.451.448-.451a.45.45 0 0 1 .448.45M215.92 28.047a.449.449 0 1 1-.895 0 .449.449 0 0 1 .895 0M220.767 28.047a.449.449 0 1 1-.895 0c0-.25.2-.451.447-.451.248 0 .448.201.448.45M225.614 28.047c0 .248-.2.45-.447.45a.449.449 0 0 1-.448-.45c0-.25.2-.451.448-.451a.45.45 0 0 1 .447.45M230.46 28.047c0 .248-.2.45-.447.45a.449.449 0 0 1-.447-.45c0-.25.2-.451.447-.451a.45.45 0 0 1 .448.45M235.307 28.047c0 .248-.2.45-.447.45a.45.45 0 0 1-.448-.45c0-.25.2-.451.448-.451a.45.45 0 0 1 .447.45M240.154 28.047c0 .248-.2.45-.448.45a.45.45 0 0 1-.447-.45c0-.25.2-.451.447-.451a.45.45 0 0 1 .448.45M245 28.047a.449.449 0 1 1-.895 0 .449.449 0 0 1 .895 0M249.848 28.047a.45.45 0 0 1-.896 0c0-.25.2-.451.447-.451a.45.45 0 0 1 .449.45M254.694 28.047c0 .248-.2.45-.447.45a.449.449 0 0 1-.448-.45c0-.25.2-.451.448-.451a.45.45 0 0 1 .447.45M211.074 31.86c0 .25-.2.452-.448.452a.45.45 0 0 1-.448-.451c0-.249.2-.45.448-.45a.45.45 0 0 1 .448.45M215.92 31.86c0 .25-.2.452-.447.452a.45.45 0 0 1-.448-.451.449.449 0 0 1 .895 0M220.767 31.86c0 .25-.2.452-.448.452a.45.45 0 0 1-.447-.451c0-.249.2-.45.447-.45.248 0 .448.201.448.45M225.614 31.86c0 .25-.2.452-.447.452a.449.449 0 0 1-.448-.451.449.449 0 1 1 .895 0M230.46 31.86c0 .25-.2.452-.447.452a.449.449 0 0 1-.447-.451.449.449 0 1 1 .895 0M235.307 31.86c0 .25-.2.452-.447.452a.45.45 0 0 1-.448-.451c0-.249.2-.45.448-.45a.45.45 0 0 1 .447.45M240.154 31.86c0 .25-.2.452-.448.452a.45.45 0 0 1-.447-.451c0-.249.2-.45.447-.45a.45.45 0 0 1 .448.45M245 31.86c0 .25-.2.452-.447.452a.45.45 0 0 1-.448-.451.449.449 0 0 1 .895 0M249.848 31.86a.45.45 0 0 1-.896 0 .45.45 0 1 1 .896 0M254.694 31.86c0 .25-.2.452-.447.452a.449.449 0 0 1-.448-.451.449.449 0 1 1 .895 0M211.074 35.676a.449.449 0 1 1-.896 0c0-.249.2-.45.448-.45a.45.45 0 0 1 .448.45M215.92 35.676a.448.448 0 1 1-.895 0 .449.449 0 0 1 .895 0M220.767 35.676a.448.448 0 1 1-.895 0c0-.249.2-.45.447-.45.248 0 .448.201.448.45M225.614 35.676a.449.449 0 1 1-.895 0 .449.449 0 1 1 .895 0M230.46 35.676a.449.449 0 1 1-.894 0 .449.449 0 1 1 .895 0M235.307 35.676a.449.449 0 1 1-.895 0c0-.249.2-.45.448-.45a.45.45 0 0 1 .447.45M240.154 35.676a.449.449 0 1 1-.895 0c0-.249.2-.45.447-.45a.45.45 0 0 1 .448.45M245 35.676a.448.448 0 1 1-.895 0 .449.449 0 0 1 .895 0M249.848 35.676a.449.449 0 1 1-.896 0 .45.45 0 1 1 .896 0M254.694 35.676a.449.449 0 1 1-.895 0 .449.449 0 1 1 .895 0M211.074 39.49c0 .25-.2.451-.448.451a.45.45 0 0 1-.448-.45c0-.249.2-.45.448-.45a.45.45 0 0 1 .448.45M215.92 39.49a.449.449 0 1 1-.895 0 .449.449 0 0 1 .895 0M220.767 39.49a.449.449 0 1 1-.895 0c0-.248.2-.45.447-.45.248 0 .448.202.448.45M225.614 39.49c0 .25-.2.451-.447.451a.449.449 0 0 1-.448-.45.449.449 0 1 1 .895 0M230.46 39.49c0 .25-.2.451-.447.451a.449.449 0 0 1-.447-.45.449.449 0 1 1 .895 0M235.307 39.49c0 .25-.2.451-.447.451a.45.45 0 0 1-.448-.45c0-.249.2-.45.448-.45a.45.45 0 0 1 .447.45M240.154 39.49c0 .25-.2.451-.448.451a.45.45 0 0 1-.447-.45c0-.249.2-.45.447-.45a.45.45 0 0 1 .448.45M245 39.49a.449.449 0 1 1-.895 0 .449.449 0 0 1 .895 0M249.848 39.49a.45.45 0 0 1-.896 0 .45.45 0 1 1 .896 0M254.694 39.49c0 .25-.2.451-.447.451a.449.449 0 0 1-.448-.45.449.449 0 1 1 .895 0M211.074 43.306c0 .248-.2.45-.448.45a.45.45 0 0 1-.448-.45c0-.249.2-.45.448-.45a.45.45 0 0 1 .448.45M215.92 43.306a.449.449 0 1 1-.895 0 .449.449 0 0 1 .895 0M220.767 43.306a.449.449 0 1 1-.895 0c0-.249.2-.45.447-.45.248 0 .448.201.448.45M225.614 43.306c0 .248-.2.45-.447.45a.449.449 0 0 1-.448-.45.449.449 0 1 1 .895 0M230.46 43.306c0 .248-.2.45-.447.45a.449.449 0 0 1-.447-.45.449.449 0 1 1 .895 0M235.307 43.306c0 .248-.2.45-.447.45a.45.45 0 0 1-.448-.45c0-.249.2-.45.448-.45a.45.45 0 0 1 .447.45M240.154 43.306c0 .248-.2.45-.448.45a.45.45 0 0 1-.447-.45c0-.249.2-.45.447-.45a.45.45 0 0 1 .448.45M245 43.306a.449.449 0 1 1-.895 0 .449.449 0 0 1 .895 0M249.848 43.306a.45.45 0 0 1-.896 0 .45.45 0 1 1 .896 0M254.694 43.306c0 .248-.2.45-.447.45a.449.449 0 0 1-.448-.45.449.449 0 1 1 .895 0M211.074 47.12c0 .25-.2.45-.448.45a.45.45 0 0 1-.448-.45.449.449 0 1 1 .896 0M215.92 47.12a.449.449 0 1 1-.895 0 .449.449 0 1 1 .895 0M220.767 47.12a.449.449 0 1 1-.895 0 .449.449 0 1 1 .895 0M225.614 47.12c0 .25-.2.45-.447.45a.449.449 0 0 1-.448-.45.448.448 0 1 1 .895 0M230.46 47.12c0 .25-.2.45-.447.45a.449.449 0 0 1-.447-.45.448.448 0 1 1 .895 0M235.307 47.12c0 .25-.2.45-.447.45a.45.45 0 0 1-.448-.45.449.449 0 1 1 .895 0M240.154 47.12c0 .25-.2.45-.448.45a.45.45 0 0 1-.447-.45.449.449 0 1 1 .895 0M245 47.12a.449.449 0 1 1-.895 0 .449.449 0 1 1 .896 0M249.848 47.12a.45.45 0 0 1-.896 0 .449.449 0 1 1 .896 0M254.694 47.12c0 .25-.2.45-.447.45a.449.449 0 0 1-.448-.45.448.448 0 1 1 .895 0M211.074 50.936c0 .248-.2.45-.448.45a.45.45 0 0 1-.448-.45.449.449 0 1 1 .896 0M215.92 50.936a.449.449 0 1 1-.895 0 .449.449 0 1 1 .895 0M220.767 50.936a.449.449 0 1 1-.895 0 .449.449 0 1 1 .895 0M225.614 50.936c0 .248-.2.45-.447.45a.449.449 0 0 1-.448-.45.448.448 0 1 1 .895 0M230.46 50.936c0 .248-.2.45-.447.45a.449.449 0 0 1-.447-.45.448.448 0 1 1 .895 0M235.307 50.936c0 .248-.2.45-.447.45a.45.45 0 0 1-.448-.45.449.449 0 1 1 .895 0M240.154 50.936c0 .248-.2.45-.448.45a.45.45 0 0 1-.447-.45.449.449 0 1 1 .895 0M245 50.936a.449.449 0 1 1-.895 0 .449.449 0 1 1 .896 0M249.848 50.936a.45.45 0 0 1-.896 0 .449.449 0 1 1 .896 0M254.694 50.936c0 .248-.2.45-.447.45a.449.449 0 0 1-.448-.45.448.448 0 1 1 .895 0M211.074 54.75a.449.449 0 1 1-.896 0c0-.249.2-.45.448-.45a.45.45 0 0 1 .448.45M215.92 54.75a.448.448 0 1 1-.895 0 .449.449 0 0 1 .895 0M220.767 54.75a.448.448 0 1 1-.895 0c0-.249.2-.45.447-.45.248 0 .448.201.448.45M225.614 54.75a.449.449 0 1 1-.895 0 .449.449 0 1 1 .895 0M230.46 54.75a.449.449 0 1 1-.894 0 .449.449 0 1 1 .895 0M235.307 54.75a.449.449 0 1 1-.895 0c0-.249.2-.45.448-.45a.45.45 0 0 1 .447.45M240.154 54.75a.449.449 0 1 1-.895 0c0-.249.2-.45.447-.45a.45.45 0 0 1 .448.45M245 54.75a.448.448 0 1 1-.895 0 .449.449 0 0 1 .895 0M249.848 54.75a.449.449 0 1 1-.896 0 .45.45 0 1 1 .896 0M254.694 54.75a.449.449 0 1 1-.895 0 .449.449 0 1 1 .895 0M211.074 58.279c0 .248-.2.45-.448.45a.45.45 0 0 1-.448-.45c0-.249.2-.45.448-.45a.45.45 0 0 1 .448.45M215.92 58.279a.449.449 0 1 1-.895 0 .449.449 0 0 1 .895 0M220.767 58.279a.449.449 0 1 1-.895 0c0-.249.2-.45.447-.45.248 0 .448.201.448.45M225.614 58.279c0 .248-.2.45-.447.45a.449.449 0 0 1-.448-.45.449.449 0 1 1 .895 0M230.46 58.279c0 .248-.2.45-.447.45a.449.449 0 0 1-.447-.45.449.449 0 1 1 .895 0M235.307 58.279c0 .248-.2.45-.447.45a.45.45 0 0 1-.448-.45c0-.249.2-.45.448-.45a.45.45 0 0 1 .447.45M240.154 58.279c0 .248-.2.45-.448.45a.45.45 0 0 1-.447-.45c0-.249.2-.45.447-.45a.45.45 0 0 1 .448.45M245 58.279a.449.449 0 1 1-.895 0 .449.449 0 0 1 .895 0M249.848 58.279a.45.45 0 0 1-.896 0 .45.45 0 1 1 .896 0M254.694 58.279c0 .248-.2.45-.447.45a.449.449 0 0 1-.448-.45.449.449 0 1 1 .895 0M211.074 62.094c0 .248-.2.45-.448.45a.45.45 0 0 1-.448-.45c0-.249.2-.45.448-.45a.45.45 0 0 1 .448.45M215.92 62.094a.449.449 0 1 1-.895 0 .449.449 0 0 1 .895 0M220.767 62.094a.449.449 0 1 1-.895 0c0-.249.2-.45.447-.45.248 0 .448.201.448.45M225.614 62.094c0 .248-.2.45-.447.45a.449.449 0 0 1-.448-.45.449.449 0 1 1 .895 0M230.46 62.094c0 .248-.2.45-.447.45a.449.449 0 0 1-.447-.45.449.449 0 1 1 .895 0M235.307 62.094c0 .248-.2.45-.447.45a.45.45 0 0 1-.448-.45c0-.249.2-.45.448-.45a.45.45 0 0 1 .447.45M240.154 62.094c0 .248-.2.45-.448.45a.45.45 0 0 1-.447-.45c0-.249.2-.45.447-.45a.45.45 0 0 1 .448.45M245 62.094a.449.449 0 1 1-.895 0 .449.449 0 0 1 .895 0M249.848 62.094a.45.45 0 0 1-.896 0 .45.45 0 1 1 .896 0M254.694 62.094c0 .248-.2.45-.447.45a.449.449 0 0 1-.448-.45.449.449 0 1 1 .895 0M211.074 65.908a.449.449 0 1 1-.896 0c0-.249.2-.45.448-.45a.45.45 0 0 1 .448.45M215.92 65.908a.448.448 0 1 1-.895 0 .449.449 0 0 1 .895 0M220.767 65.908a.448.448 0 1 1-.895 0c0-.249.2-.45.447-.45.248 0 .448.201.448.45M225.614 65.908a.449.449 0 1 1-.895 0 .449.449 0 1 1 .895 0M230.46 65.908a.449.449 0 1 1-.894 0 .449.449 0 1 1 .895 0M235.307 65.908a.449.449 0 1 1-.895 0c0-.249.2-.45.448-.45a.45.45 0 0 1 .447.45M240.154 65.908a.449.449 0 1 1-.895 0c0-.249.2-.45.447-.45a.45.45 0 0 1 .448.45M245 65.908a.448.448 0 1 1-.895 0 .449.449 0 0 1 .895 0M249.848 65.908a.449.449 0 1 1-.896 0 .45.45 0 1 1 .896 0M254.694 65.908a.449.449 0 1 1-.895 0 .449.449 0 1 1 .895 0M211.074 69.723a.449.449 0 1 1-.896 0c0-.249.2-.45.448-.45a.45.45 0 0 1 .448.45M215.92 69.723a.448.448 0 1 1-.895 0 .449.449 0 0 1 .895 0M220.767 69.723a.448.448 0 1 1-.895 0c0-.249.2-.45.447-.45.248 0 .448.201.448.45M225.614 69.723a.449.449 0 1 1-.895 0 .449.449 0 1 1 .895 0M230.46 69.723a.449.449 0 1 1-.894 0 .449.449 0 1 1 .895 0M235.307 69.723a.449.449 0 1 1-.895 0c0-.249.2-.45.448-.45a.45.45 0 0 1 .447.45M240.154 69.723a.449.449 0 1 1-.895 0c0-.249.2-.45.447-.45a.45.45 0 0 1 .448.45M245 69.723a.448.448 0 1 1-.895 0 .449.449 0 0 1 .895 0M249.848 69.723a.449.449 0 1 1-.896 0 .45.45 0 1 1 .896 0M254.694 69.723a.449.449 0 1 1-.895 0 .449.449 0 1 1 .895 0M211.074 73.538a.449.449 0 1 1-.896 0c0-.249.2-.45.448-.45a.45.45 0 0 1 .448.45M215.92 73.538a.448.448 0 1 1-.895 0 .449.449 0 0 1 .895 0M220.767 73.538a.448.448 0 1 1-.895 0c0-.249.2-.45.447-.45.248 0 .448.201.448.45M225.614 73.538a.449.449 0 1 1-.895 0 .449.449 0 1 1 .895 0M230.46 73.538a.449.449 0 1 1-.894 0 .449.449 0 1 1 .895 0M235.307 73.538a.449.449 0 1 1-.895 0c0-.249.2-.45.448-.45a.45.45 0 0 1 .447.45M240.154 73.538a.449.449 0 1 1-.895 0c0-.249.2-.45.447-.45a.45.45 0 0 1 .448.45M245 73.538a.448.448 0 1 1-.895 0 .449.449 0 0 1 .895 0M249.848 73.538a.449.449 0 1 1-.896 0 .45.45 0 1 1 .896 0M254.694 73.538a.449.449 0 1 1-.895 0 .449.449 0 1 1 .895 0M211.074 77.353c0 .248-.2.45-.448.45a.45.45 0 0 1-.448-.45c0-.249.2-.45.448-.45a.45.45 0 0 1 .448.45M215.92 77.353a.449.449 0 1 1-.895 0 .449.449 0 0 1 .895 0M220.767 77.353a.449.449 0 1 1-.895 0c0-.249.2-.45.447-.45.248 0 .448.201.448.45M225.614 77.353c0 .248-.2.45-.447.45a.449.449 0 0 1-.448-.45.449.449 0 1 1 .895 0M230.46 77.353c0 .248-.2.45-.447.45a.449.449 0 0 1-.447-.45.449.449 0 1 1 .895 0M235.307 77.353c0 .248-.2.45-.447.45a.45.45 0 0 1-.448-.45c0-.249.2-.45.448-.45a.45.45 0 0 1 .447.45M240.154 77.353c0 .248-.2.45-.448.45a.45.45 0 0 1-.447-.45c0-.249.2-.45.447-.45a.45.45 0 0 1 .448.45M245 77.353a.449.449 0 1 1-.895 0 .449.449 0 0 1 .895 0M249.848 77.353a.45.45 0 0 1-.896 0 .45.45 0 1 1 .896 0M254.694 77.353c0 .248-.2.45-.447.45a.449.449 0 0 1-.448-.45.449.449 0 1 1 .895 0M211.074 81.168c0 .248-.2.45-.448.45a.45.45 0 0 1-.448-.45.449.449 0 1 1 .896 0M215.92 81.168a.449.449 0 1 1-.895 0 .449.449 0 1 1 .895 0M220.767 81.168a.449.449 0 1 1-.895 0 .449.449 0 1 1 .895 0M225.614 81.168c0 .248-.2.45-.447.45a.449.449 0 0 1-.448-.45.448.448 0 1 1 .895 0M230.46 81.168c0 .248-.2.45-.447.45a.449.449 0 0 1-.447-.45.448.448 0 1 1 .895 0M235.307 81.168c0 .248-.2.45-.447.45a.45.45 0 0 1-.448-.45.449.449 0 1 1 .895 0M240.154 81.168c0 .248-.2.45-.448.45a.45.45 0 0 1-.447-.45.449.449 0 1 1 .895 0M245 81.168a.449.449 0 1 1-.895 0 .449.449 0 1 1 .896 0M249.848 81.168a.45.45 0 0 1-.896 0 .449.449 0 1 1 .896 0M254.694 81.168c0 .248-.2.45-.447.45a.449.449 0 0 1-.448-.45.448.448 0 1 1 .895 0M211.074 84.983c0 .248-.2.45-.448.45a.45.45 0 0 1-.448-.45.449.449 0 1 1 .896 0M215.92 84.983a.449.449 0 1 1-.895 0 .449.449 0 1 1 .895 0M220.767 84.983a.449.449 0 1 1-.895 0 .449.449 0 1 1 .895 0M225.614 84.983c0 .248-.2.45-.447.45a.449.449 0 0 1-.448-.45.448.448 0 1 1 .895 0M230.46 84.983c0 .248-.2.45-.447.45a.449.449 0 0 1-.447-.45.448.448 0 1 1 .895 0M235.307 84.983c0 .248-.2.45-.447.45a.45.45 0 0 1-.448-.45.449.449 0 1 1 .895 0M240.154 84.983c0 .248-.2.45-.448.45a.45.45 0 0 1-.447-.45.449.449 0 1 1 .895 0M245 84.983a.449.449 0 1 1-.895 0 .449.449 0 1 1 .896 0M249.848 84.983a.45.45 0 0 1-.896 0 .449.449 0 1 1 .896 0M254.694 84.983c0 .248-.2.45-.447.45a.449.449 0 0 1-.448-.45.448.448 0 1 1 .895 0M211.074 88.798c0 .248-.2.45-.448.45a.45.45 0 0 1-.448-.45.449.449 0 1 1 .896 0M215.92 88.798a.449.449 0 1 1-.895 0 .449.449 0 1 1 .895 0M220.767 88.798a.449.449 0 1 1-.895 0 .449.449 0 1 1 .895 0M225.614 88.798c0 .248-.2.45-.447.45a.449.449 0 0 1-.448-.45.448.448 0 1 1 .895 0M230.46 88.798c0 .248-.2.45-.447.45a.449.449 0 0 1-.447-.45.448.448 0 1 1 .895 0M235.307 88.798c0 .248-.2.45-.447.45a.45.45 0 0 1-.448-.45.449.449 0 1 1 .895 0M240.154 88.798c0 .248-.2.45-.448.45a.45.45 0 0 1-.447-.45.449.449 0 1 1 .895 0M245 88.798a.449.449 0 1 1-.895 0 .449.449 0 1 1 .896 0M249.848 88.798a.45.45 0 0 1-.896 0 .449.449 0 1 1 .896 0M254.694 88.798c0 .248-.2.45-.447.45a.449.449 0 0 1-.448-.45.448.448 0 1 1 .895 0M211.074 92.612a.449.449 0 1 1-.896 0c0-.249.2-.45.448-.45a.45.45 0 0 1 .448.45M215.92 92.612a.448.448 0 1 1-.895 0 .449.449 0 0 1 .895 0M220.767 92.612a.448.448 0 1 1-.895 0c0-.249.2-.45.447-.45.248 0 .448.201.448.45M225.614 92.612a.449.449 0 1 1-.895 0 .449.449 0 1 1 .895 0M230.46 92.612a.449.449 0 1 1-.894 0 .449.449 0 1 1 .895 0M235.307 92.612a.449.449 0 1 1-.895 0c0-.249.2-.45.448-.45a.45.45 0 0 1 .447.45M240.154 92.612a.449.449 0 1 1-.895 0c0-.249.2-.45.447-.45a.45.45 0 0 1 .448.45M245 92.612a.448.448 0 1 1-.895 0 .449.449 0 0 1 .895 0M249.848 92.612a.449.449 0 1 1-.896 0 .45.45 0 1 1 .896 0M254.694 92.612a.449.449 0 1 1-.895 0 .449.449 0 1 1 .895 0M211.074 96.427c0 .248-.2.45-.448.45a.45.45 0 0 1-.448-.45c0-.249.2-.45.448-.45a.45.45 0 0 1 .448.45M215.92 96.427a.449.449 0 1 1-.895 0 .449.449 0 0 1 .895 0M220.767 96.427a.449.449 0 1 1-.895 0c0-.249.2-.45.447-.45.248 0 .448.201.448.45M225.614 96.427c0 .248-.2.45-.447.45a.449.449 0 0 1-.448-.45.449.449 0 1 1 .895 0M230.46 96.427c0 .248-.2.45-.447.45a.449.449 0 0 1-.447-.45.449.449 0 1 1 .895 0M235.307 96.427c0 .248-.2.45-.447.45a.45.45 0 0 1-.448-.45c0-.249.2-.45.448-.45a.45.45 0 0 1 .447.45M240.154 96.427c0 .248-.2.45-.448.45a.45.45 0 0 1-.447-.45c0-.249.2-.45.447-.45a.45.45 0 0 1 .448.45M245 96.427a.449.449 0 1 1-.895 0 .449.449 0 0 1 .895 0M249.848 96.427a.45.45 0 0 1-.896 0 .45.45 0 1 1 .896 0M254.694 96.427c0 .248-.2.45-.447.45a.449.449 0 0 1-.448-.45.449.449 0 1 1 .895 0"/>
        </g>
        <g fill="#FFC916" fill-rule="nonzero" opacity=".3">
            <path d="M38.786 111.538a.51.51 0 0 1-.515.505.51.51 0 0 1-.513-.505.51.51 0 0 1 .513-.505.51.51 0 0 1 .515.505M44.349 111.538a.51.51 0 0 1-.514.505.51.51 0 0 1-.514-.505.51.51 0 0 1 .514-.505.51.51 0 0 1 .514.505M49.913 111.538a.51.51 0 0 1-.515.505.51.51 0 0 1-.513-.505.51.51 0 0 1 .513-.505.51.51 0 0 1 .515.505M55.476 111.538a.51.51 0 0 1-.514.505.51.51 0 0 1-.513-.505.51.51 0 0 1 .513-.505.51.51 0 0 1 .514.505M61.04 111.538a.51.51 0 0 1-.514.505.51.51 0 0 1-.514-.505.51.51 0 0 1 .514-.505.51.51 0 0 1 .514.505M66.604 111.538a.51.51 0 0 1-.514.505.51.51 0 0 1-.514-.505.51.51 0 0 1 .514-.505.51.51 0 0 1 .514.505M72.167 111.538a.51.51 0 0 1-.513.505.51.51 0 0 1-.515-.505.51.51 0 0 1 .515-.505.51.51 0 0 1 .513.505M77.731 111.538a.51.51 0 0 1-.514.505.51.51 0 0 1-.514-.505.51.51 0 0 1 .514-.505.51.51 0 0 1 .514.505M83.294 111.538a.51.51 0 0 1-.513.505.51.51 0 0 1-.514-.505.51.51 0 0 1 .514-.505.51.51 0 0 1 .513.505M88.858 111.538a.51.51 0 0 1-.514.505.51.51 0 0 1-.514-.505.51.51 0 0 1 .514-.505.51.51 0 0 1 .514.505M38.786 115.814a.51.51 0 0 1-.515.505.51.51 0 0 1-.513-.505.51.51 0 0 1 .513-.505.51.51 0 0 1 .515.505M44.349 115.814a.51.51 0 0 1-.514.505.51.51 0 0 1-.514-.505.51.51 0 0 1 .514-.505.51.51 0 0 1 .514.505M49.913 115.814a.51.51 0 0 1-.515.505.51.51 0 0 1-.513-.505.51.51 0 0 1 .513-.505.51.51 0 0 1 .515.505M55.476 115.814a.51.51 0 0 1-.514.505.51.51 0 0 1-.513-.505.51.51 0 0 1 .513-.505.51.51 0 0 1 .514.505M61.04 115.814a.51.51 0 0 1-.514.505.51.51 0 0 1-.514-.505.51.51 0 0 1 .514-.505.51.51 0 0 1 .514.505M66.604 115.814a.51.51 0 0 1-.514.505.51.51 0 0 1-.514-.505.51.51 0 0 1 .514-.505.51.51 0 0 1 .514.505M72.167 115.814a.51.51 0 0 1-.513.505.51.51 0 0 1-.515-.505.51.51 0 0 1 .515-.505.51.51 0 0 1 .513.505M77.731 115.814a.51.51 0 0 1-.514.505.51.51 0 0 1-.514-.505.51.51 0 0 1 .514-.505.51.51 0 0 1 .514.505M83.294 115.814a.51.51 0 0 1-.513.505.51.51 0 0 1-.514-.505.51.51 0 0 1 .514-.505.51.51 0 0 1 .513.505M88.858 115.814a.51.51 0 0 1-.514.505.51.51 0 0 1-.514-.505.51.51 0 0 1 .514-.505.51.51 0 0 1 .514.505M38.786 120.09a.51.51 0 0 1-.515.504.51.51 0 0 1-.513-.504.51.51 0 0 1 .513-.505.51.51 0 0 1 .515.505M44.349 120.09c0 .279-.23.504-.514.504a.51.51 0 0 1-.514-.504.51.51 0 0 1 .514-.505.51.51 0 0 1 .514.505M49.913 120.09a.51.51 0 0 1-.515.504.51.51 0 0 1-.513-.504.51.51 0 0 1 .513-.505.51.51 0 0 1 .515.505M55.476 120.09c0 .279-.23.504-.514.504a.509.509 0 0 1-.513-.504.51.51 0 0 1 .513-.505.51.51 0 0 1 .514.505M61.04 120.09a.51.51 0 0 1-.514.504.51.51 0 0 1-.514-.504.51.51 0 0 1 .514-.505.51.51 0 0 1 .514.505M66.604 120.09a.51.51 0 0 1-.514.504.509.509 0 0 1-.514-.504.51.51 0 0 1 .514-.505.51.51 0 0 1 .514.505M72.167 120.09c0 .279-.23.504-.513.504a.51.51 0 0 1-.515-.504.51.51 0 0 1 .515-.505.51.51 0 0 1 .513.505M77.731 120.09a.51.51 0 0 1-.514.504.51.51 0 0 1-.514-.504.51.51 0 0 1 .514-.505.51.51 0 0 1 .514.505M83.294 120.09c0 .279-.23.504-.513.504a.509.509 0 0 1-.514-.504.51.51 0 0 1 .514-.505.51.51 0 0 1 .513.505M88.858 120.09a.51.51 0 0 1-.514.504.51.51 0 0 1-.514-.504.51.51 0 0 1 .514-.505.51.51 0 0 1 .514.505M38.786 124.365a.51.51 0 0 1-.515.505.51.51 0 0 1-.513-.505.51.51 0 0 1 .513-.504.51.51 0 0 1 .515.504M44.349 124.365a.51.51 0 0 1-.514.505.51.51 0 0 1-.514-.505.51.51 0 0 1 .514-.504.51.51 0 0 1 .514.504M49.913 124.365a.51.51 0 0 1-.515.505.51.51 0 0 1-.513-.505.51.51 0 0 1 .513-.504.51.51 0 0 1 .515.504M55.476 124.365a.51.51 0 0 1-.514.505.51.51 0 0 1-.513-.505.51.51 0 0 1 .513-.504.51.51 0 0 1 .514.504M61.04 124.365a.51.51 0 0 1-.514.505.51.51 0 0 1-.514-.505.51.51 0 0 1 .514-.504.51.51 0 0 1 .514.504M66.604 124.365a.51.51 0 0 1-.514.505.51.51 0 0 1-.514-.505.51.51 0 0 1 .514-.504.51.51 0 0 1 .514.504M72.167 124.365a.51.51 0 0 1-.513.505.51.51 0 0 1-.515-.505.51.51 0 0 1 .515-.504.51.51 0 0 1 .513.504M77.731 124.365a.51.51 0 0 1-.514.505.51.51 0 0 1-.514-.505.51.51 0 0 1 .514-.504.51.51 0 0 1 .514.504M83.294 124.365a.51.51 0 0 1-.513.505.51.51 0 0 1-.514-.505.51.51 0 0 1 .514-.504.51.51 0 0 1 .513.504M88.858 124.365a.51.51 0 0 1-.514.505.51.51 0 0 1-.514-.505.51.51 0 0 1 .514-.504.51.51 0 0 1 .514.504M38.786 128.642a.51.51 0 0 1-.515.504.51.51 0 0 1-.513-.504.51.51 0 0 1 .513-.506.51.51 0 0 1 .515.506M44.349 128.642a.51.51 0 0 1-.514.504.51.51 0 0 1-.514-.504.51.51 0 0 1 .514-.506.51.51 0 0 1 .514.506M49.913 128.642a.51.51 0 0 1-.515.504.51.51 0 0 1-.513-.504.51.51 0 0 1 .513-.506.51.51 0 0 1 .515.506M55.476 128.642a.51.51 0 0 1-.514.504.51.51 0 0 1-.513-.504.51.51 0 0 1 .513-.506.51.51 0 0 1 .514.506M61.04 128.642a.51.51 0 0 1-.514.504.51.51 0 0 1-.514-.504.51.51 0 0 1 .514-.506.51.51 0 0 1 .514.506M66.604 128.642a.51.51 0 0 1-.514.504.51.51 0 0 1-.514-.504.51.51 0 0 1 .514-.506.51.51 0 0 1 .514.506M72.167 128.642a.51.51 0 0 1-.513.504.51.51 0 0 1-.515-.504.51.51 0 0 1 .515-.506.51.51 0 0 1 .513.506M77.731 128.642a.51.51 0 0 1-.514.504.51.51 0 0 1-.514-.504.51.51 0 0 1 .514-.506.51.51 0 0 1 .514.506M83.294 128.642a.51.51 0 0 1-.513.504.51.51 0 0 1-.514-.504.51.51 0 0 1 .514-.506.51.51 0 0 1 .513.506M88.858 128.642a.51.51 0 0 1-.514.504.51.51 0 0 1-.514-.504.51.51 0 0 1 .514-.506.51.51 0 0 1 .514.506M38.786 132.917a.51.51 0 0 1-.515.505.51.51 0 0 1-.513-.505.51.51 0 0 1 .513-.505.51.51 0 0 1 .515.505M44.349 132.917a.51.51 0 0 1-.514.505.51.51 0 0 1-.514-.505.51.51 0 0 1 .514-.505c.284 0 .514.226.514.505M49.913 132.917a.51.51 0 0 1-.515.505.51.51 0 0 1-.513-.505.51.51 0 0 1 .513-.505.51.51 0 0 1 .515.505M55.476 132.917a.51.51 0 0 1-.514.505.51.51 0 0 1-.513-.505c0-.28.23-.505.513-.505.284 0 .514.226.514.505M61.04 132.917a.51.51 0 0 1-.514.505.51.51 0 0 1-.514-.505.51.51 0 0 1 .514-.505.51.51 0 0 1 .514.505M66.604 132.917a.51.51 0 0 1-.514.505.51.51 0 0 1-.514-.505c0-.28.23-.505.514-.505a.51.51 0 0 1 .514.505M72.167 132.917a.51.51 0 0 1-.513.505.51.51 0 0 1-.515-.505.51.51 0 0 1 .515-.505c.284 0 .513.226.513.505M77.731 132.917a.51.51 0 0 1-.514.505.51.51 0 0 1-.514-.505.51.51 0 0 1 .514-.505.51.51 0 0 1 .514.505M83.294 132.917a.51.51 0 0 1-.513.505.51.51 0 0 1-.514-.505c0-.28.23-.505.514-.505.284 0 .513.226.513.505M88.858 132.917a.51.51 0 0 1-.514.505.51.51 0 0 1-.514-.505.51.51 0 0 1 .514-.505.51.51 0 0 1 .514.505M38.786 137.193a.51.51 0 0 1-.515.505.51.51 0 0 1-.513-.505.51.51 0 0 1 .513-.505.51.51 0 0 1 .515.505M44.349 137.193a.51.51 0 0 1-.514.505.51.51 0 0 1-.514-.505.51.51 0 0 1 .514-.505c.284 0 .514.226.514.505M49.913 137.193a.51.51 0 0 1-.515.505.51.51 0 0 1-.513-.505.51.51 0 0 1 .513-.505.51.51 0 0 1 .515.505M55.476 137.193a.51.51 0 0 1-.514.505.51.51 0 0 1-.513-.505c0-.28.23-.505.513-.505.284 0 .514.226.514.505M61.04 137.193a.51.51 0 0 1-.514.505.51.51 0 0 1-.514-.505.51.51 0 0 1 .514-.505.51.51 0 0 1 .514.505M66.604 137.193a.51.51 0 0 1-.514.505.51.51 0 0 1-.514-.505c0-.28.23-.505.514-.505a.51.51 0 0 1 .514.505M72.167 137.193a.51.51 0 0 1-.513.505.51.51 0 0 1-.515-.505.51.51 0 0 1 .515-.505c.284 0 .513.226.513.505M77.731 137.193a.51.51 0 0 1-.514.505.51.51 0 0 1-.514-.505.51.51 0 0 1 .514-.505.51.51 0 0 1 .514.505M83.294 137.193a.51.51 0 0 1-.513.505.51.51 0 0 1-.514-.505c0-.28.23-.505.514-.505.284 0 .513.226.513.505M88.858 137.193a.51.51 0 0 1-.514.505.51.51 0 0 1-.514-.505.51.51 0 0 1 .514-.505.51.51 0 0 1 .514.505M38.786 141.468a.51.51 0 0 1-.515.506.51.51 0 0 1-.513-.506.51.51 0 0 1 .513-.505.51.51 0 0 1 .515.505M44.349 141.468a.51.51 0 0 1-.514.506.51.51 0 0 1-.514-.506.51.51 0 0 1 .514-.505.51.51 0 0 1 .514.505M49.913 141.468a.51.51 0 0 1-.515.506.51.51 0 0 1-.513-.506.51.51 0 0 1 .513-.505.51.51 0 0 1 .515.505M55.476 141.468a.51.51 0 0 1-.514.506.51.51 0 0 1-.513-.506.51.51 0 0 1 .513-.505.51.51 0 0 1 .514.505M61.04 141.468a.51.51 0 0 1-.514.506.51.51 0 0 1-.514-.506.51.51 0 0 1 .514-.505.51.51 0 0 1 .514.505M66.604 141.468a.51.51 0 0 1-.514.506.51.51 0 0 1-.514-.506.51.51 0 0 1 .514-.505.51.51 0 0 1 .514.505M72.167 141.468a.51.51 0 0 1-.513.506.51.51 0 0 1-.515-.506.51.51 0 0 1 .515-.505.51.51 0 0 1 .513.505M77.731 141.468a.51.51 0 0 1-.514.506.51.51 0 0 1-.514-.506.51.51 0 0 1 .514-.505.51.51 0 0 1 .514.505M83.294 141.468a.51.51 0 0 1-.513.506.51.51 0 0 1-.514-.506.51.51 0 0 1 .514-.505.51.51 0 0 1 .513.505M88.858 141.468a.51.51 0 0 1-.514.506.51.51 0 0 1-.514-.506.51.51 0 0 1 .514-.505.51.51 0 0 1 .514.505M38.786 145.744a.51.51 0 0 1-.515.505.51.51 0 0 1-.513-.505.51.51 0 0 1 .513-.505.51.51 0 0 1 .515.505M44.349 145.744c0 .28-.23.505-.514.505a.51.51 0 0 1-.514-.505.51.51 0 0 1 .514-.505.51.51 0 0 1 .514.505M49.913 145.744a.51.51 0 0 1-.515.505.51.51 0 0 1-.513-.505.51.51 0 0 1 .513-.505.51.51 0 0 1 .515.505M55.476 145.744c0 .28-.23.505-.514.505a.509.509 0 0 1-.513-.505.51.51 0 0 1 .513-.505.51.51 0 0 1 .514.505M61.04 145.744a.51.51 0 0 1-.514.505.51.51 0 0 1-.514-.505.51.51 0 0 1 .514-.505.51.51 0 0 1 .514.505M66.604 145.744a.51.51 0 0 1-.514.505.509.509 0 0 1-.514-.505.51.51 0 0 1 .514-.505.51.51 0 0 1 .514.505M72.167 145.744c0 .28-.23.505-.513.505a.51.51 0 0 1-.515-.505.51.51 0 0 1 .515-.505.51.51 0 0 1 .513.505M77.731 145.744a.51.51 0 0 1-.514.505.51.51 0 0 1-.514-.505.51.51 0 0 1 .514-.505.51.51 0 0 1 .514.505M83.294 145.744c0 .28-.23.505-.513.505a.509.509 0 0 1-.514-.505.51.51 0 0 1 .514-.505.51.51 0 0 1 .513.505M88.858 145.744a.51.51 0 0 1-.514.505.51.51 0 0 1-.514-.505.51.51 0 0 1 .514-.505.51.51 0 0 1 .514.505M38.786 150.02a.51.51 0 0 1-.515.505.51.51 0 0 1-.513-.505.51.51 0 0 1 .513-.505.51.51 0 0 1 .515.505M44.349 150.02c0 .28-.23.505-.514.505a.51.51 0 0 1-.514-.505.51.51 0 0 1 .514-.505.51.51 0 0 1 .514.505M49.913 150.02a.51.51 0 0 1-.515.505.51.51 0 0 1-.513-.505.51.51 0 0 1 .513-.505.51.51 0 0 1 .515.505M55.476 150.02c0 .28-.23.505-.514.505a.509.509 0 0 1-.513-.505.51.51 0 0 1 .513-.505.51.51 0 0 1 .514.505M61.04 150.02a.51.51 0 0 1-.514.505.51.51 0 0 1-.514-.505.51.51 0 0 1 .514-.505.51.51 0 0 1 .514.505M66.604 150.02a.51.51 0 0 1-.514.505.509.509 0 0 1-.514-.505.51.51 0 0 1 .514-.505.51.51 0 0 1 .514.505M72.167 150.02c0 .28-.23.505-.513.505a.51.51 0 0 1-.515-.505.51.51 0 0 1 .515-.505.51.51 0 0 1 .513.505M77.731 150.02a.51.51 0 0 1-.514.505.51.51 0 0 1-.514-.505.51.51 0 0 1 .514-.505.51.51 0 0 1 .514.505M83.294 150.02c0 .28-.23.505-.513.505a.509.509 0 0 1-.514-.505.51.51 0 0 1 .514-.505.51.51 0 0 1 .513.505M88.858 150.02a.51.51 0 0 1-.514.505.51.51 0 0 1-.514-.505.51.51 0 0 1 .514-.505.51.51 0 0 1 .514.505M38.786 154.295a.51.51 0 0 1-.515.505.51.51 0 0 1-.513-.505.51.51 0 0 1 .513-.504.51.51 0 0 1 .515.504M44.349 154.295a.51.51 0 0 1-.514.505.51.51 0 0 1-.514-.505.51.51 0 0 1 .514-.504.51.51 0 0 1 .514.504M49.913 154.295a.51.51 0 0 1-.515.505.51.51 0 0 1-.513-.505.51.51 0 0 1 .513-.504.51.51 0 0 1 .515.504M55.476 154.295a.51.51 0 0 1-.514.505.51.51 0 0 1-.513-.505.51.51 0 0 1 .513-.504.51.51 0 0 1 .514.504M61.04 154.295a.51.51 0 0 1-.514.505.51.51 0 0 1-.514-.505.51.51 0 0 1 .514-.504.51.51 0 0 1 .514.504M66.604 154.295a.51.51 0 0 1-.514.505.51.51 0 0 1-.514-.505.51.51 0 0 1 .514-.504.51.51 0 0 1 .514.504M72.167 154.295a.51.51 0 0 1-.513.505.51.51 0 0 1-.515-.505.51.51 0 0 1 .515-.504.51.51 0 0 1 .513.504M77.731 154.295a.51.51 0 0 1-.514.505.51.51 0 0 1-.514-.505.51.51 0 0 1 .514-.504.51.51 0 0 1 .514.504M83.294 154.295a.51.51 0 0 1-.513.505.51.51 0 0 1-.514-.505.51.51 0 0 1 .514-.504.51.51 0 0 1 .513.504M88.858 154.295a.51.51 0 0 1-.514.505.51.51 0 0 1-.514-.505.51.51 0 0 1 .514-.504.51.51 0 0 1 .514.504"/>
        </g>
        <g fill-rule="nonzero">
            <path fill="#FF4702" d="M63.389 50.39c.007-.13.012-.26.012-.39 0-3.46-2.852-6.263-6.37-6.263-.408 0-.808.038-1.194.11-.387-4.63-4.33-8.27-9.14-8.27-4.794 0-8.727 3.616-9.136 8.225-3.084.437-5.454 3.045-5.454 6.198 0 .13.005.26.013.39h31.269z"/>
            <g fill="#D3D7DE" stroke="#D3D7DE" stroke-width=".5">
                <path d="M63.877 54.01h4.353M43.698 54.01h17.014"/>
            </g>
        </g>
        <path fill="#FFF" fill-rule="nonzero" stroke="#F6F6F6" stroke-width=".5" d="M227.44 147H75.56c-3.624 0-6.56-2.93-6.56-6.546V50.546C69 46.931 71.936 44 75.56 44h151.88c3.623 0 6.56 2.93 6.56 6.546v89.908c0 3.615-2.937 6.546-6.56 6.546z"/>
        <path fill="#293A5E" fill-rule="nonzero" d="M234 58H69v-7.874C69 46.19 71.936 43 75.558 43h151.883c3.623 0 6.559 3.19 6.559 7.126V58z"/>
        <circle cx="206.5" cy="51.5" r="1.5" fill="#F9F9F9"/>
        <circle cx="216.5" cy="51.5" r="1.5" fill="#F9F9F9"/>
        <circle cx="225.5" cy="51.5" r="1.5" fill="#F9F9F9"/>
        <g fill="#F7F7F7" fill-rule="nonzero">
            <path d="M93.594 118.757h-3.736c-.656 0-1.186-.562-1.186-1.256V89.838c0-.693.53-1.256 1.186-1.256h3.736c.656 0 1.187.563 1.187 1.256V117.5c0 .694-.531 1.256-1.187 1.256M118.07 118.757h-3.817c-.633 0-1.147-.544-1.147-1.214v-16.971c0-.67.514-1.213 1.147-1.213h3.817c.632 0 1.146.543 1.146 1.213v16.971c0 .67-.514 1.214-1.146 1.214M105.85 118.757h-3.813c-.635 0-1.148-.544-1.148-1.215V81.714c0-.67.513-1.214 1.148-1.214h3.813c.634 0 1.148.543 1.148 1.214v35.828c0 .67-.514 1.215-1.148 1.215M130.29 118.757h-3.824c-.63 0-1.141-.541-1.141-1.21v-29.91c0-.669.511-1.21 1.141-1.21h3.824c.632 0 1.143.541 1.143 1.21v29.91c0 .669-.511 1.21-1.143 1.21"/>
        </g>
        <g fill="#F7F7F7">
            <path d="M187.106 77.499h34.204v2.507h-34.204zM187.107 83.351h26.696v2.507h-26.696zM187.107 89.203h31.701v2.507h-31.701zM187.106 114.282h34.204v2.507h-34.204zM187.107 120.971h26.696v2.507h-26.696zM187.107 126.822h31.701v2.507h-31.701z"/>
        </g>
        <path fill="#FF4702" d="M227.722 102.19a8.33 8.33 0 0 1 7.152-4.085 8.33 8.33 0 0 1 7.151 4.085l24.357 40.854a8.526 8.526 0 0 1 .12 8.512 8.335 8.335 0 0 1-7.272 4.292h-48.714a8.335 8.335 0 0 1-7.27-4.292 8.526 8.526 0 0 1 .119-8.512l24.357-40.854z"/>
        <path stroke="#FFAC8D" stroke-width=".5" d="M230.839 104.203a4.7 4.7 0 0 1 4.034-2.304 4.7 4.7 0 0 1 4.034 2.304c6.166 10.34 17.88 29.99 24.204 40.597a4.81 4.81 0 0 1 .068 4.803 4.701 4.701 0 0 1-4.102 2.42H210.67a4.701 4.701 0 0 1-4.102-2.42 4.807 4.807 0 0 1 .068-4.803l24.203-40.597z"/>
        <path fill="#FFF" fill-rule="nonzero" d="M232.866 135.822h4.015l.705-16.008h-5.425l.705 16.008zm-1.229 4.556c0 1.707 1.393 3.033 3.244 3.033 1.836 0 3.229-1.326 3.229-3.033 0-1.706-1.393-3.032-3.229-3.032-1.85 0-3.244 1.326-3.244 3.032z"/>
        <path stroke="#F7F7F7" stroke-width="1.461" d="M176 85c0-6.623-5.377-12-12-12s-12 5.377-12 12 5.377 12 12 12 12-5.377 12-12zM176 120c0-6.623-5.377-12-12-12s-12 5.377-12 12 5.377 12 12 12 12-5.377 12-12z"/>
    </g>
</svg>
