<svg xmlns="http://www.w3.org/2000/svg" width="225" height="116" viewBox="0 0 225 116">
    <g fill="none" fill-rule="evenodd">
        <path d="M-37-34h300v173.438H-37z"/>
        <path fill="#E9EBEE" fill-rule="nonzero" d="M190.226 48.755h-32.37c-8.939 0-16.185-7.23-16.185-16.018V16.719c0-8.898 7.246-16.129 16.185-16.129h64.738v16.13c0 17.685-14.492 32.035-32.368 32.035M89.294 76.145V98.04H44.966C20.492 98.04.638 78.434.638 54.248H67.13c12.313 0 22.164 9.802 22.164 21.897" opacity=".4"/>
        <g fill="#FB043D" fill-rule="nonzero" opacity=".15">
            <path d="M170.765 5.663a.415.415 0 1 1-.831-.002.415.415 0 0 1 .83.002M175.271 5.663a.415.415 0 1 1-.83-.002.415.415 0 0 1 .83.002M179.778 5.663a.415.415 0 1 1-.83-.002.415.415 0 0 1 .83.002M184.284 5.663a.415.415 0 1 1-.83-.002.415.415 0 0 1 .83.002M188.791 5.663a.415.415 0 1 1-.83-.002.415.415 0 0 1 .83.002M193.298 5.663a.415.415 0 1 1-.831-.002.415.415 0 0 1 .83.002M197.804 5.663a.415.415 0 1 1-.83-.002.415.415 0 0 1 .83.002M202.31 5.663a.415.415 0 1 1-.83-.002.415.415 0 0 1 .83.002M206.817 5.663a.415.415 0 1 1-.83-.002.415.415 0 0 1 .83.002M211.324 5.663a.415.415 0 1 1-.83-.002.415.415 0 0 1 .83.002M170.765 9.173a.415.415 0 1 1-.831-.001.415.415 0 0 1 .83.001M175.271 9.173a.415.415 0 1 1-.83-.001.415.415 0 0 1 .83.001M179.778 9.173a.415.415 0 1 1-.83-.001.415.415 0 0 1 .83.001M184.284 9.173a.415.415 0 1 1-.83-.001.415.415 0 0 1 .83.001M188.791 9.173a.415.415 0 1 1-.83-.001.415.415 0 0 1 .83.001M193.298 9.173a.415.415 0 1 1-.831-.001.415.415 0 0 1 .83.001M197.804 9.173a.415.415 0 1 1-.83-.001.415.415 0 0 1 .83.001M202.31 9.173a.415.415 0 1 1-.83-.001.415.415 0 0 1 .83.001M206.817 9.173a.415.415 0 1 1-.83-.001.415.415 0 0 1 .83.001M211.324 9.173a.415.415 0 1 1-.83-.001.415.415 0 0 1 .83.001M170.765 12.684a.415.415 0 1 1-.831-.002.415.415 0 0 1 .83.002M175.271 12.684a.415.415 0 1 1-.83-.002.415.415 0 0 1 .83.002M179.778 12.684a.415.415 0 1 1-.83-.002.415.415 0 0 1 .83.002M184.284 12.684a.415.415 0 1 1-.83-.002.415.415 0 0 1 .83.002M188.791 12.684a.415.415 0 1 1-.83-.002.415.415 0 0 1 .83.002M193.298 12.684a.415.415 0 1 1-.831-.002.415.415 0 0 1 .83.002M197.804 12.684a.415.415 0 1 1-.83-.002.415.415 0 0 1 .83.002M202.31 12.684a.415.415 0 1 1-.83-.002.415.415 0 0 1 .83.002M206.817 12.684a.415.415 0 1 1-.83-.002.415.415 0 0 1 .83.002M211.324 12.684a.415.415 0 1 1-.83-.002.415.415 0 0 1 .83.002M170.765 16.195a.415.415 0 1 1-.831-.002.415.415 0 0 1 .83.002M175.271 16.195a.415.415 0 1 1-.83-.002.415.415 0 0 1 .83.002M179.778 16.195a.415.415 0 1 1-.83-.002.415.415 0 0 1 .83.002M184.284 16.195a.415.415 0 1 1-.83-.002.415.415 0 0 1 .83.002M188.791 16.195a.415.415 0 1 1-.83-.002.415.415 0 0 1 .83.002M193.298 16.195a.415.415 0 1 1-.831-.002.415.415 0 0 1 .83.002M197.804 16.195a.415.415 0 1 1-.83-.002.415.415 0 0 1 .83.002M202.31 16.195a.415.415 0 1 1-.83-.002.415.415 0 0 1 .83.002M206.817 16.195a.415.415 0 1 1-.83-.002.415.415 0 0 1 .83.002M211.324 16.195a.415.415 0 1 1-.83-.002.415.415 0 0 1 .83.002M170.765 19.706a.415.415 0 1 1-.831-.002.415.415 0 0 1 .83.002M175.271 19.706a.415.415 0 1 1-.83-.002.415.415 0 0 1 .83.002M179.778 19.706a.415.415 0 1 1-.83-.002.415.415 0 0 1 .83.002M184.284 19.706a.415.415 0 1 1-.83-.002.415.415 0 0 1 .83.002M188.791 19.706a.415.415 0 1 1-.83-.002.415.415 0 0 1 .83.002M193.298 19.706a.415.415 0 1 1-.831-.002.415.415 0 0 1 .83.002M197.804 19.706a.415.415 0 1 1-.83-.002.415.415 0 0 1 .83.002M202.31 19.706a.415.415 0 1 1-.83-.002.415.415 0 0 1 .83.002M206.817 19.706a.415.415 0 1 1-.83-.002.415.415 0 0 1 .83.002M211.324 19.706a.415.415 0 1 1-.83-.002.415.415 0 0 1 .83.002M170.765 23.217a.415.415 0 1 1-.831-.002.415.415 0 0 1 .83.002M175.271 23.217a.415.415 0 1 1-.83-.002.415.415 0 0 1 .83.002M179.778 23.217a.415.415 0 1 1-.83-.002.415.415 0 0 1 .83.002M184.284 23.217a.415.415 0 1 1-.83-.002.415.415 0 0 1 .83.002M188.791 23.217a.415.415 0 1 1-.83-.002.415.415 0 0 1 .83.002M193.298 23.217a.415.415 0 1 1-.831-.002.415.415 0 0 1 .83.002M197.804 23.217a.415.415 0 1 1-.83-.002.415.415 0 0 1 .83.002M202.31 23.217a.415.415 0 1 1-.83-.002.415.415 0 0 1 .83.002M206.817 23.217a.415.415 0 1 1-.83-.002.415.415 0 0 1 .83.002M211.324 23.217a.415.415 0 1 1-.83-.002.415.415 0 0 1 .83.002M170.765 26.727a.415.415 0 1 1-.831-.002.415.415 0 0 1 .83.002M175.271 26.727a.415.415 0 1 1-.83-.002.415.415 0 0 1 .83.002M179.778 26.727a.415.415 0 1 1-.83-.002.415.415 0 0 1 .83.002M184.284 26.727a.415.415 0 1 1-.83-.002.415.415 0 0 1 .83.002M188.791 26.727a.415.415 0 1 1-.83-.002.415.415 0 0 1 .83.002M193.298 26.727a.415.415 0 1 1-.831-.002.415.415 0 0 1 .83.002M197.804 26.727a.415.415 0 1 1-.83-.002.415.415 0 0 1 .83.002M202.31 26.727a.415.415 0 1 1-.83-.002.415.415 0 0 1 .83.002M206.817 26.727a.415.415 0 1 1-.83-.002.415.415 0 0 1 .83.002M211.324 26.727a.415.415 0 1 1-.83-.002.415.415 0 0 1 .83.002M170.765 30.237a.415.415 0 1 1-.831-.001.415.415 0 0 1 .83.001M175.271 30.237a.415.415 0 1 1-.83-.001.415.415 0 0 1 .83.001M179.778 30.237a.415.415 0 1 1-.83-.001.415.415 0 0 1 .83.001M184.284 30.237a.415.415 0 1 1-.83-.001.415.415 0 0 1 .83.001M188.791 30.237a.415.415 0 1 1-.83-.001.415.415 0 0 1 .83.001M193.298 30.237a.415.415 0 1 1-.831-.001.415.415 0 0 1 .83.001M197.804 30.237a.415.415 0 1 1-.83-.001.415.415 0 0 1 .83.001M202.31 30.237a.415.415 0 1 1-.83-.001.415.415 0 0 1 .83.001M206.817 30.237a.415.415 0 1 1-.83-.001.415.415 0 0 1 .83.001M211.324 30.237a.415.415 0 1 1-.83-.001.415.415 0 0 1 .83.001M170.765 33.748a.415.415 0 1 1-.831-.002.415.415 0 0 1 .83.002M175.271 33.748a.415.415 0 1 1-.83-.002.415.415 0 0 1 .83.002M179.778 33.748a.415.415 0 1 1-.83-.002.415.415 0 0 1 .83.002M184.284 33.748a.415.415 0 1 1-.83-.002.415.415 0 0 1 .83.002M188.791 33.748a.415.415 0 1 1-.83-.002.415.415 0 0 1 .83.002M193.298 33.748a.415.415 0 1 1-.831-.002.415.415 0 0 1 .83.002M197.804 33.748a.415.415 0 1 1-.83-.002.415.415 0 0 1 .83.002M202.31 33.748a.415.415 0 1 1-.83-.002.415.415 0 0 1 .83.002M206.817 33.748a.415.415 0 1 1-.83-.002.415.415 0 0 1 .83.002M211.324 33.748a.415.415 0 1 1-.83-.002.415.415 0 0 1 .83.002M170.765 37.259a.415.415 0 1 1-.831-.002.415.415 0 0 1 .83.002M175.271 37.259a.415.415 0 1 1-.83-.002.415.415 0 0 1 .83.002M179.778 37.259a.415.415 0 1 1-.83-.002.415.415 0 0 1 .83.002M184.284 37.259a.415.415 0 1 1-.83-.002.415.415 0 0 1 .83.002M188.791 37.259a.415.415 0 1 1-.83-.002.415.415 0 0 1 .83.002M193.298 37.259a.415.415 0 1 1-.831-.002.415.415 0 0 1 .83.002M197.804 37.259a.415.415 0 1 1-.83-.002.415.415 0 0 1 .83.002M202.31 37.259a.415.415 0 1 1-.83-.002.415.415 0 0 1 .83.002M206.817 37.259a.415.415 0 1 1-.83-.002.415.415 0 0 1 .83.002M211.324 37.259a.415.415 0 1 1-.83-.002.415.415 0 0 1 .83.002M170.765 40.77a.415.415 0 1 1-.831-.002.415.415 0 0 1 .83.002M175.271 40.77a.415.415 0 1 1-.83-.002.415.415 0 0 1 .83.002M179.778 40.77a.415.415 0 1 1-.83-.002.415.415 0 0 1 .83.002M184.284 40.77a.415.415 0 1 1-.83-.002.415.415 0 0 1 .83.002M188.791 40.77a.415.415 0 1 1-.83-.002.415.415 0 0 1 .83.002M193.298 40.77a.415.415 0 1 1-.831-.002.415.415 0 0 1 .83.002M197.804 40.77a.415.415 0 1 1-.83-.002.415.415 0 0 1 .83.002M202.31 40.77a.415.415 0 1 1-.83-.002.415.415 0 0 1 .83.002M206.817 40.77a.415.415 0 1 1-.83-.002.415.415 0 0 1 .83.002M211.324 40.77a.415.415 0 1 1-.83-.002.415.415 0 0 1 .83.002M170.765 44.017a.415.415 0 1 1-.831-.002.415.415 0 0 1 .83.002M175.271 44.017a.415.415 0 1 1-.83-.002.415.415 0 0 1 .83.002M179.778 44.017a.415.415 0 1 1-.83-.002.415.415 0 0 1 .83.002M184.284 44.017a.415.415 0 1 1-.83-.002.415.415 0 0 1 .83.002M188.791 44.017a.415.415 0 1 1-.83-.002.415.415 0 0 1 .83.002M193.298 44.017a.415.415 0 1 1-.831-.002.415.415 0 0 1 .83.002M197.804 44.017a.415.415 0 1 1-.83-.002.415.415 0 0 1 .83.002M202.31 44.017a.415.415 0 1 1-.83-.002.415.415 0 0 1 .83.002M206.817 44.017a.415.415 0 1 1-.83-.002.415.415 0 0 1 .83.002M211.324 44.017a.415.415 0 1 1-.83-.002.415.415 0 0 1 .83.002M170.765 47.528a.415.415 0 1 1-.831-.002.415.415 0 0 1 .83.002M175.271 47.528a.415.415 0 1 1-.83-.002.415.415 0 0 1 .83.002M179.778 47.528a.415.415 0 1 1-.83-.002.415.415 0 0 1 .83.002M184.284 47.528a.415.415 0 1 1-.83-.002.415.415 0 0 1 .83.002M188.791 47.528a.415.415 0 1 1-.83-.002.415.415 0 0 1 .83.002M193.298 47.528a.415.415 0 1 1-.831-.002.415.415 0 0 1 .83.002M197.804 47.528a.415.415 0 1 1-.83-.002.415.415 0 0 1 .83.002M202.31 47.528a.415.415 0 1 1-.83-.002.415.415 0 0 1 .83.002M206.817 47.528a.415.415 0 1 1-.83-.002.415.415 0 0 1 .83.002M211.324 47.528a.415.415 0 1 1-.83-.002.415.415 0 0 1 .83.002M170.765 51.038a.415.415 0 1 1-.831-.002.415.415 0 0 1 .83.002M175.271 51.038a.415.415 0 1 1-.83-.002.415.415 0 0 1 .83.002M179.778 51.038a.415.415 0 1 1-.83-.002.415.415 0 0 1 .83.002M184.284 51.038a.415.415 0 1 1-.83-.002.415.415 0 0 1 .83.002M188.791 51.038a.415.415 0 1 1-.83-.002.415.415 0 0 1 .83.002M193.298 51.038a.415.415 0 1 1-.831-.002.415.415 0 0 1 .83.002M197.804 51.038a.415.415 0 1 1-.83-.002.415.415 0 0 1 .83.002M202.31 51.038a.415.415 0 1 1-.83-.002.415.415 0 0 1 .83.002M206.817 51.038a.415.415 0 1 1-.83-.002.415.415 0 0 1 .83.002M211.324 51.038a.415.415 0 1 1-.83-.002.415.415 0 0 1 .83.002M170.765 54.548a.415.415 0 1 1-.831-.001.415.415 0 0 1 .83.001M175.271 54.548a.415.415 0 1 1-.83-.001.415.415 0 0 1 .83.001M179.778 54.548a.415.415 0 1 1-.83-.001.415.415 0 0 1 .83.001M184.284 54.548a.415.415 0 1 1-.83-.001.415.415 0 0 1 .83.001M188.791 54.548a.415.415 0 1 1-.83-.001.415.415 0 0 1 .83.001M193.298 54.548a.415.415 0 1 1-.831-.001.415.415 0 0 1 .83.001M197.804 54.548a.415.415 0 1 1-.83-.001.415.415 0 0 1 .83.001M202.31 54.548a.415.415 0 1 1-.83-.001.415.415 0 0 1 .83.001M206.817 54.548a.415.415 0 1 1-.83-.001.415.415 0 0 1 .83.001M211.324 54.548a.415.415 0 1 1-.83-.001.415.415 0 0 1 .83.001M170.765 58.06a.415.415 0 1 1-.831-.003.415.415 0 0 1 .83.002M175.271 58.06a.415.415 0 1 1-.83-.003.415.415 0 0 1 .83.002M179.778 58.06a.415.415 0 1 1-.83-.003.415.415 0 0 1 .83.002M184.284 58.06a.415.415 0 1 1-.83-.003.415.415 0 0 1 .83.002M188.791 58.06a.415.415 0 1 1-.83-.003.415.415 0 0 1 .83.002M193.298 58.06a.415.415 0 1 1-.831-.003.415.415 0 0 1 .83.002M197.804 58.06a.415.415 0 1 1-.83-.003.415.415 0 0 1 .83.002M202.31 58.06a.415.415 0 1 1-.83-.003.415.415 0 0 1 .83.002M206.817 58.06a.415.415 0 1 1-.83-.003.415.415 0 0 1 .83.002M211.324 58.06a.415.415 0 1 1-.83-.003.415.415 0 0 1 .83.002M170.765 61.57a.415.415 0 1 1-.831-.002.415.415 0 0 1 .83.002M175.271 61.57a.415.415 0 1 1-.83-.002.415.415 0 0 1 .83.002M179.778 61.57a.415.415 0 1 1-.83-.002.415.415 0 0 1 .83.002M184.284 61.57a.415.415 0 1 1-.83-.002.415.415 0 0 1 .83.002M188.791 61.57a.415.415 0 1 1-.83-.002.415.415 0 0 1 .83.002M193.298 61.57a.415.415 0 1 1-.831-.002.415.415 0 0 1 .83.002M197.804 61.57a.415.415 0 1 1-.83-.002.415.415 0 0 1 .83.002M202.31 61.57a.415.415 0 1 1-.83-.002.415.415 0 0 1 .83.002M206.817 61.57a.415.415 0 1 1-.83-.002.415.415 0 0 1 .83.002M211.324 61.57a.415.415 0 1 1-.83-.002.415.415 0 0 1 .83.002M170.765 65.08a.415.415 0 1 1-.831 0 .415.415 0 0 1 .83 0M175.271 65.08a.415.415 0 1 1-.83 0 .415.415 0 0 1 .83 0M179.778 65.08a.415.415 0 1 1-.83 0 .415.415 0 0 1 .83 0M184.284 65.08a.415.415 0 1 1-.83 0 .415.415 0 0 1 .83 0M188.791 65.08a.415.415 0 1 1-.83 0 .415.415 0 0 1 .83 0M193.298 65.08a.415.415 0 1 1-.831 0 .415.415 0 0 1 .83 0M197.804 65.08a.415.415 0 1 1-.83 0 .415.415 0 0 1 .83 0M202.31 65.08a.415.415 0 1 1-.83 0 .415.415 0 0 1 .83 0M206.817 65.08a.415.415 0 1 1-.83 0 .415.415 0 0 1 .83 0M211.324 65.08a.415.415 0 1 1-.83 0 .415.415 0 0 1 .83 0M170.765 68.592a.415.415 0 1 1-.831-.002.415.415 0 0 1 .83.002M175.271 68.592a.415.415 0 1 1-.83-.002.415.415 0 0 1 .83.002M179.778 68.592a.415.415 0 1 1-.83-.002.415.415 0 0 1 .83.002M184.284 68.592a.415.415 0 1 1-.83-.002.415.415 0 0 1 .83.002M188.791 68.592a.415.415 0 1 1-.83-.002.415.415 0 0 1 .83.002M193.298 68.592a.415.415 0 1 1-.831-.002.415.415 0 0 1 .83.002M197.804 68.592a.415.415 0 1 1-.83-.002.415.415 0 0 1 .83.002M202.31 68.592a.415.415 0 1 1-.83-.002.415.415 0 0 1 .83.002M206.817 68.592a.415.415 0 1 1-.83-.002.415.415 0 0 1 .83.002M211.324 68.592a.415.415 0 1 1-.83-.002.415.415 0 0 1 .83.002M170.765 72.102a.416.416 0 0 1-.833 0 .416.416 0 0 1 .833 0M175.271 72.102a.416.416 0 0 1-.832 0 .416.416 0 0 1 .832 0M179.778 72.102a.416.416 0 0 1-.833 0 .415.415 0 0 1 .833 0M184.284 72.102a.416.416 0 0 1-.832 0 .415.415 0 0 1 .832 0M188.791 72.102a.416.416 0 0 1-.833 0 .415.415 0 0 1 .833 0M193.298 72.102a.416.416 0 0 1-.833 0 .415.415 0 0 1 .833 0M197.804 72.102a.416.416 0 0 1-.832 0 .415.415 0 0 1 .832 0M202.31 72.102a.416.416 0 0 1-.832 0 .415.415 0 0 1 .833 0M206.817 72.102a.416.416 0 0 1-.832 0 .415.415 0 0 1 .832 0M211.324 72.102a.416.416 0 0 1-.833 0 .415.415 0 0 1 .833 0M170.765 75.612a.415.415 0 1 1-.831-.001.415.415 0 0 1 .83.001M175.271 75.612a.415.415 0 1 1-.83-.001.415.415 0 0 1 .83.001M179.778 75.612a.415.415 0 1 1-.83-.001.415.415 0 0 1 .83.001M184.284 75.612a.415.415 0 1 1-.83-.001.415.415 0 0 1 .83.001M188.791 75.612a.415.415 0 1 1-.83-.001.415.415 0 0 1 .83.001M193.298 75.612a.415.415 0 1 1-.831-.001.415.415 0 0 1 .83.001M197.804 75.612a.415.415 0 1 1-.83-.001.415.415 0 0 1 .83.001M202.31 75.612a.415.415 0 1 1-.83-.001.415.415 0 0 1 .83.001M206.817 75.612a.415.415 0 1 1-.83-.001.415.415 0 0 1 .83.001M211.324 75.612a.415.415 0 1 1-.83-.001.415.415 0 0 1 .83.001M170.765 79.123a.415.415 0 1 1-.831-.002.415.415 0 0 1 .83.002M175.271 79.123a.415.415 0 1 1-.83-.002.415.415 0 0 1 .83.002M179.778 79.123a.415.415 0 1 1-.83-.002.415.415 0 0 1 .83.002M184.284 79.123a.415.415 0 1 1-.83-.002.415.415 0 0 1 .83.002M188.791 79.123a.415.415 0 1 1-.83-.002.415.415 0 0 1 .83.002M193.298 79.123a.415.415 0 1 1-.831-.002.415.415 0 0 1 .83.002M197.804 79.123a.415.415 0 1 1-.83-.002.415.415 0 0 1 .83.002M202.31 79.123a.415.415 0 1 1-.83-.002.415.415 0 0 1 .83.002M206.817 79.123a.415.415 0 1 1-.83-.002.415.415 0 0 1 .83.002M211.324 79.123a.415.415 0 1 1-.83-.002.415.415 0 0 1 .83.002"/>
        </g>
        <g fill="#FFC916" fill-rule="nonzero" opacity=".35">
            <path d="M13.818 62.926a.507.507 0 0 1-.51.504.507.507 0 0 1-.51-.504c0-.28.229-.506.51-.506s.51.227.51.506M19.333 62.926a.507.507 0 0 1-.51.504.507.507 0 0 1-.51-.504c0-.28.23-.506.51-.506.282 0 .51.227.51.506M24.848 62.926a.507.507 0 0 1-.509.504.507.507 0 0 1-.51-.504c0-.28.229-.506.51-.506s.51.227.51.506M30.363 62.926a.507.507 0 0 1-.509.504.507.507 0 0 1-.509-.504c0-.28.228-.506.51-.506.28 0 .508.227.508.506M35.88 62.926a.507.507 0 0 1-.51.504.507.507 0 0 1-.51-.504c0-.28.228-.506.51-.506.28 0 .51.227.51.506M41.394 62.926a.507.507 0 0 1-.51.504.507.507 0 0 1-.509-.504c0-.28.229-.506.51-.506.282 0 .51.227.51.506M46.91 62.926a.507.507 0 0 1-.51.504.507.507 0 0 1-.509-.504c0-.28.228-.506.51-.506.28 0 .508.227.508.506M52.425 62.926a.507.507 0 0 1-.51.504.507.507 0 0 1-.509-.504c0-.28.228-.506.51-.506.28 0 .509.227.509.506M57.94 62.926a.507.507 0 0 1-.51.504.507.507 0 0 1-.508-.504c0-.28.227-.506.509-.506.281 0 .51.227.51.506M63.456 62.926a.507.507 0 0 1-.51.504.507.507 0 0 1-.51-.504c0-.28.23-.506.51-.506.282 0 .51.227.51.506M13.818 67.204a.507.507 0 0 1-.51.505.507.507 0 0 1-.51-.505c0-.279.229-.506.51-.506s.51.227.51.506M19.333 67.204a.507.507 0 0 1-.51.505.507.507 0 0 1-.51-.505c0-.279.23-.506.51-.506.282 0 .51.227.51.506M24.848 67.204a.507.507 0 0 1-.509.505.507.507 0 0 1-.51-.505c0-.279.229-.506.51-.506s.51.227.51.506M30.363 67.204a.507.507 0 0 1-.509.505.507.507 0 0 1-.509-.505c0-.279.228-.506.51-.506.28 0 .508.227.508.506M35.88 67.204a.507.507 0 0 1-.51.505.507.507 0 0 1-.51-.505c0-.279.228-.506.51-.506.28 0 .51.227.51.506M41.394 67.204a.507.507 0 0 1-.51.505.507.507 0 0 1-.509-.505c0-.279.229-.506.51-.506.282 0 .51.227.51.506M46.91 67.204a.507.507 0 0 1-.51.505.507.507 0 0 1-.509-.505c0-.279.228-.506.51-.506.28 0 .508.227.508.506M52.425 67.204a.507.507 0 0 1-.51.505.507.507 0 0 1-.509-.505c0-.279.228-.506.51-.506.28 0 .509.227.509.506M57.94 67.204a.507.507 0 0 1-.51.505.507.507 0 0 1-.508-.505c0-.279.227-.506.509-.506.281 0 .51.227.51.506M63.456 67.204a.507.507 0 0 1-.51.505.507.507 0 0 1-.51-.505c0-.279.23-.506.51-.506.282 0 .51.227.51.506M13.818 71.482a.507.507 0 0 1-.51.505.507.507 0 0 1-.51-.505c0-.279.229-.505.51-.505s.51.226.51.505M19.333 71.482a.507.507 0 0 1-.51.505.507.507 0 0 1-.51-.505c0-.279.23-.505.51-.505.282 0 .51.226.51.505M24.848 71.482a.507.507 0 0 1-.509.505.507.507 0 0 1-.51-.505c0-.279.229-.505.51-.505s.51.226.51.505M30.363 71.482a.507.507 0 0 1-.509.505.507.507 0 0 1-.509-.505c0-.279.228-.505.51-.505.28 0 .508.226.508.505M35.88 71.482a.507.507 0 0 1-.51.505.507.507 0 0 1-.51-.505c0-.279.228-.505.51-.505.28 0 .51.226.51.505M41.394 71.482a.507.507 0 0 1-.51.505.507.507 0 0 1-.509-.505c0-.279.229-.505.51-.505.282 0 .51.226.51.505M46.91 71.482a.507.507 0 0 1-.51.505.507.507 0 0 1-.509-.505c0-.279.228-.505.51-.505.28 0 .508.226.508.505M52.425 71.482a.507.507 0 0 1-.51.505.507.507 0 0 1-.509-.505c0-.279.228-.505.51-.505.28 0 .509.226.509.505M57.94 71.482a.507.507 0 0 1-.51.505.507.507 0 0 1-.508-.505c0-.279.227-.505.509-.505.281 0 .51.226.51.505M63.456 71.482a.507.507 0 0 1-.51.505.507.507 0 0 1-.51-.505c0-.279.23-.505.51-.505.282 0 .51.226.51.505M13.818 75.76a.507.507 0 0 1-.51.505.507.507 0 0 1-.51-.505c0-.279.229-.505.51-.505s.51.226.51.505M19.333 75.76a.507.507 0 0 1-.51.505.507.507 0 0 1-.51-.505c0-.279.23-.505.51-.505.282 0 .51.226.51.505M24.848 75.76a.507.507 0 0 1-.509.505.507.507 0 0 1-.51-.505c0-.279.229-.505.51-.505s.51.226.51.505M30.363 75.76a.507.507 0 0 1-.509.505.507.507 0 0 1-.509-.505c0-.279.228-.505.51-.505.28 0 .508.226.508.505M35.88 75.76a.507.507 0 0 1-.51.505.507.507 0 0 1-.51-.505c0-.279.228-.505.51-.505.28 0 .51.226.51.505M41.394 75.76a.507.507 0 0 1-.51.505.507.507 0 0 1-.509-.505c0-.279.229-.505.51-.505.282 0 .51.226.51.505M46.91 75.76a.507.507 0 0 1-.51.505.507.507 0 0 1-.509-.505c0-.279.228-.505.51-.505.28 0 .508.226.508.505M52.425 75.76a.507.507 0 0 1-.51.505.507.507 0 0 1-.509-.505c0-.279.228-.505.51-.505.28 0 .509.226.509.505M57.94 75.76a.507.507 0 0 1-.51.505.507.507 0 0 1-.508-.505c0-.279.227-.505.509-.505.281 0 .51.226.51.505M63.456 75.76a.507.507 0 0 1-.51.505.507.507 0 0 1-.51-.505c0-.279.23-.505.51-.505.282 0 .51.226.51.505M13.818 80.038a.508.508 0 0 1-.51.506.507.507 0 0 1-.51-.506c0-.279.229-.505.51-.505s.51.226.51.505M19.333 80.038a.508.508 0 0 1-.51.506.508.508 0 0 1-.51-.506c0-.279.23-.505.51-.505.282 0 .51.226.51.505M24.848 80.038a.507.507 0 0 1-.509.506.508.508 0 0 1-.51-.506c0-.279.229-.505.51-.505s.51.226.51.505M30.363 80.038a.507.507 0 0 1-.509.506.507.507 0 0 1-.509-.506c0-.279.228-.505.51-.505.28 0 .508.226.508.505M35.88 80.038a.508.508 0 0 1-.51.506.507.507 0 0 1-.51-.506c0-.279.228-.505.51-.505.28 0 .51.226.51.505M41.394 80.038a.508.508 0 0 1-.51.506.508.508 0 0 1-.509-.506c0-.279.229-.505.51-.505.282 0 .51.226.51.505M46.91 80.038a.507.507 0 0 1-.51.506.507.507 0 0 1-.509-.506c0-.279.228-.505.51-.505.28 0 .508.226.508.505M52.425 80.038a.507.507 0 0 1-.51.506.507.507 0 0 1-.509-.506c0-.279.228-.505.51-.505.28 0 .509.226.509.505M57.94 80.038a.508.508 0 0 1-.51.506.507.507 0 0 1-.508-.506c0-.279.227-.505.509-.505.281 0 .51.226.51.505M63.456 80.038a.508.508 0 0 1-.51.506.508.508 0 0 1-.51-.506c0-.279.23-.505.51-.505.282 0 .51.226.51.505M13.818 84.316a.508.508 0 0 1-.51.506.507.507 0 0 1-.51-.506c0-.279.229-.504.51-.504s.51.225.51.504M19.333 84.316a.508.508 0 0 1-.51.506.508.508 0 0 1-.51-.506c0-.279.23-.504.51-.504.282 0 .51.225.51.504M24.848 84.316a.507.507 0 0 1-.509.506.508.508 0 0 1-.51-.506c0-.279.229-.504.51-.504s.51.225.51.504M30.363 84.316a.507.507 0 0 1-.509.506.507.507 0 0 1-.509-.506c0-.279.228-.504.51-.504.28 0 .508.225.508.504M35.88 84.316a.508.508 0 0 1-.51.506.507.507 0 0 1-.51-.506c0-.279.228-.504.51-.504.28 0 .51.225.51.504M41.394 84.316a.508.508 0 0 1-.51.506.508.508 0 0 1-.509-.506c0-.279.229-.504.51-.504.282 0 .51.225.51.504M46.91 84.316a.507.507 0 0 1-.51.506.507.507 0 0 1-.509-.506c0-.279.228-.504.51-.504.28 0 .508.225.508.504M52.425 84.316a.507.507 0 0 1-.51.506.507.507 0 0 1-.509-.506c0-.279.228-.504.51-.504.28 0 .509.225.509.504M57.94 84.316a.508.508 0 0 1-.51.506.507.507 0 0 1-.508-.506c0-.279.227-.504.509-.504.281 0 .51.225.51.504M63.456 84.316a.508.508 0 0 1-.51.506.508.508 0 0 1-.51-.506c0-.279.23-.504.51-.504.282 0 .51.225.51.504M13.818 88.595a.508.508 0 0 1-.51.505.507.507 0 0 1-.51-.505c0-.28.229-.505.51-.505s.51.226.51.505M19.333 88.595a.508.508 0 0 1-.51.505.508.508 0 0 1-.51-.505c0-.28.23-.505.51-.505.282 0 .51.226.51.505M24.848 88.595a.507.507 0 0 1-.509.505.508.508 0 0 1-.51-.505c0-.28.229-.505.51-.505s.51.226.51.505M30.363 88.595a.507.507 0 0 1-.509.505.507.507 0 0 1-.509-.505c0-.28.228-.505.51-.505.28 0 .508.226.508.505M35.88 88.595a.508.508 0 0 1-.51.505.507.507 0 0 1-.51-.505c0-.28.228-.505.51-.505.28 0 .51.226.51.505M41.394 88.595a.508.508 0 0 1-.51.505.508.508 0 0 1-.509-.505c0-.28.229-.505.51-.505.282 0 .51.226.51.505M46.91 88.595a.507.507 0 0 1-.51.505.507.507 0 0 1-.509-.505c0-.28.228-.505.51-.505.28 0 .508.226.508.505M52.425 88.595a.507.507 0 0 1-.51.505.507.507 0 0 1-.509-.505c0-.28.228-.505.51-.505.28 0 .509.226.509.505M57.94 88.595a.508.508 0 0 1-.51.505.507.507 0 0 1-.508-.505c0-.28.227-.505.509-.505.281 0 .51.226.51.505M63.456 88.595a.508.508 0 0 1-.51.505.508.508 0 0 1-.51-.505c0-.28.23-.505.51-.505.282 0 .51.226.51.505M13.818 92.873a.508.508 0 0 1-.51.505.507.507 0 0 1-.51-.505c0-.28.229-.505.51-.505s.51.226.51.505M19.333 92.873a.508.508 0 0 1-.51.505.508.508 0 0 1-.51-.505c0-.28.23-.505.51-.505.282 0 .51.226.51.505M24.848 92.873a.507.507 0 0 1-.509.505.508.508 0 0 1-.51-.505c0-.28.229-.505.51-.505s.51.226.51.505M30.363 92.873a.507.507 0 0 1-.509.505.507.507 0 0 1-.509-.505c0-.28.228-.505.51-.505.28 0 .508.226.508.505M35.88 92.873a.508.508 0 0 1-.51.505.507.507 0 0 1-.51-.505c0-.28.228-.505.51-.505.28 0 .51.226.51.505M41.394 92.873a.508.508 0 0 1-.51.505.508.508 0 0 1-.509-.505c0-.28.229-.505.51-.505.282 0 .51.226.51.505M46.91 92.873a.507.507 0 0 1-.51.505.507.507 0 0 1-.509-.505c0-.28.228-.505.51-.505.28 0 .508.226.508.505M52.425 92.873a.507.507 0 0 1-.51.505.507.507 0 0 1-.509-.505c0-.28.228-.505.51-.505.28 0 .509.226.509.505M57.94 92.873a.508.508 0 0 1-.51.505.507.507 0 0 1-.508-.505c0-.28.227-.505.509-.505.281 0 .51.226.51.505M63.456 92.873a.508.508 0 0 1-.51.505.508.508 0 0 1-.51-.505c0-.28.23-.505.51-.505.282 0 .51.226.51.505M13.818 97.15a.508.508 0 0 1-.51.506.507.507 0 0 1-.51-.505c0-.28.229-.505.51-.505s.51.226.51.505M19.333 97.15a.508.508 0 0 1-.51.506.508.508 0 0 1-.51-.505c0-.28.23-.505.51-.505.282 0 .51.226.51.505M24.848 97.15a.507.507 0 0 1-.509.506.508.508 0 0 1-.51-.505c0-.28.229-.505.51-.505s.51.226.51.505M30.363 97.15a.507.507 0 0 1-.509.506.507.507 0 0 1-.509-.505c0-.28.228-.505.51-.505.28 0 .508.226.508.505M35.88 97.15a.508.508 0 0 1-.51.506.507.507 0 0 1-.51-.505c0-.28.228-.505.51-.505.28 0 .51.226.51.505M41.394 97.15a.508.508 0 0 1-.51.506.508.508 0 0 1-.509-.505c0-.28.229-.505.51-.505.282 0 .51.226.51.505M46.91 97.15a.507.507 0 0 1-.51.506.507.507 0 0 1-.509-.505c0-.28.228-.505.51-.505.28 0 .508.226.508.505M52.425 97.15a.507.507 0 0 1-.51.506.507.507 0 0 1-.509-.505c0-.28.228-.505.51-.505.28 0 .509.226.509.505M57.94 97.15a.508.508 0 0 1-.51.506.507.507 0 0 1-.508-.505c0-.28.227-.505.509-.505.281 0 .51.226.51.505M63.456 97.15a.508.508 0 0 1-.51.506.508.508 0 0 1-.51-.505c0-.28.23-.505.51-.505.282 0 .51.226.51.505M13.818 101.429a.508.508 0 0 1-.51.505.507.507 0 0 1-.51-.505c0-.279.229-.505.51-.505s.51.226.51.505M19.333 101.429a.508.508 0 0 1-.51.505.508.508 0 0 1-.51-.505c0-.279.23-.505.51-.505.282 0 .51.226.51.505M24.848 101.429a.507.507 0 0 1-.509.505.508.508 0 0 1-.51-.505c0-.279.229-.505.51-.505s.51.226.51.505M30.363 101.429a.507.507 0 0 1-.509.505.507.507 0 0 1-.509-.505c0-.279.228-.505.51-.505.28 0 .508.226.508.505M35.88 101.429a.508.508 0 0 1-.51.505.507.507 0 0 1-.51-.505c0-.279.228-.505.51-.505.28 0 .51.226.51.505M41.394 101.429a.508.508 0 0 1-.51.505.508.508 0 0 1-.509-.505c0-.279.229-.505.51-.505.282 0 .51.226.51.505M46.91 101.429a.507.507 0 0 1-.51.505.507.507 0 0 1-.509-.505c0-.279.228-.505.51-.505.28 0 .508.226.508.505M52.425 101.429a.507.507 0 0 1-.51.505.507.507 0 0 1-.509-.505c0-.279.228-.505.51-.505.28 0 .509.226.509.505M57.94 101.429a.508.508 0 0 1-.51.505.507.507 0 0 1-.508-.505c0-.279.227-.505.509-.505.281 0 .51.226.51.505M63.456 101.429a.508.508 0 0 1-.51.505.508.508 0 0 1-.51-.505c0-.279.23-.505.51-.505.282 0 .51.226.51.505M13.818 105.707a.508.508 0 0 1-.51.506.507.507 0 0 1-.51-.506c0-.279.229-.505.51-.505s.51.226.51.505M19.333 105.707a.508.508 0 0 1-.51.506.508.508 0 0 1-.51-.506c0-.279.23-.505.51-.505.282 0 .51.226.51.505M24.848 105.707a.507.507 0 0 1-.509.506.508.508 0 0 1-.51-.506c0-.279.229-.505.51-.505s.51.226.51.505M30.363 105.707a.507.507 0 0 1-.509.506.507.507 0 0 1-.509-.506c0-.279.228-.505.51-.505.28 0 .508.226.508.505M35.88 105.707a.508.508 0 0 1-.51.506.507.507 0 0 1-.51-.506c0-.279.228-.505.51-.505.28 0 .51.226.51.505M41.394 105.707a.508.508 0 0 1-.51.506.508.508 0 0 1-.509-.506c0-.279.229-.505.51-.505.282 0 .51.226.51.505M46.91 105.707a.507.507 0 0 1-.51.506.507.507 0 0 1-.509-.506c0-.279.228-.505.51-.505.28 0 .508.226.508.505M52.425 105.707a.507.507 0 0 1-.51.506.507.507 0 0 1-.509-.506c0-.279.228-.505.51-.505.28 0 .509.226.509.505M57.94 105.707a.508.508 0 0 1-.51.506.507.507 0 0 1-.508-.506c0-.279.227-.505.509-.505.281 0 .51.226.51.505M63.456 105.707a.508.508 0 0 1-.51.506.508.508 0 0 1-.51-.506c0-.279.23-.505.51-.505.282 0 .51.226.51.505"/>
        </g>
        <g fill-rule="nonzero">
            <path fill="#FF4702" d="M54.054 38.886c.008-.132.013-.264.013-.397 0-3.523-2.928-6.38-6.541-6.38-.419 0-.83.04-1.227.113-.397-4.717-4.447-8.425-9.385-8.425-4.923 0-8.963 3.683-9.382 8.378-3.167.445-5.6 3.102-5.6 6.314 0 .133.004.265.012.397h32.11z"/>
            <g fill="#D3D7DE" stroke="#D3D7DE" stroke-width=".586">
                <path d="M54.556 42.527h4.47M33.834 42.527h17.471"/>
            </g>
        </g>
        <g fill-rule="nonzero">
            <path fill="#E9EBEF" d="M220.235 103.536c-.017-4.012-3.294-7.258-7.335-7.258-.27 0-.536.014-.798.043a10.653 10.653 0 0 0-9.885-6.635c-5.882 0-10.651 4.738-10.651 10.583 0 1.14.181 2.237.517 3.267h28.152z"/>
            <g fill="#D3D7DE" stroke="#D3D7DE" stroke-width=".586">
                <path d="M220.13 106.666h4.707M198.307 106.666h18.4"/>
            </g>
        </g>
        <g stroke="#283A5E" stroke-width="1.668" transform="translate(69.64 15.219)">
            <ellipse cx="44.989" cy="44.967" fill="#FFF" rx="44.987" ry="44.666"/>
            <path d="M44.587 18.042v32.77H61.1"/>
        </g>
        <path fill="#FF4702" d="M143.5 67.88a8.356 8.356 0 0 1 7.157-4.052 8.356 8.356 0 0 1 7.159 4.052l21.074 35.034a8.392 8.392 0 0 1 .12 8.444 8.355 8.355 0 0 1-7.277 4.257h-42.15a8.355 8.355 0 0 1-7.277-4.257 8.392 8.392 0 0 1 .12-8.444L143.5 67.88z"/>
        <path stroke="#FFAC8D" stroke-width=".586" d="M146.62 69.271a4.714 4.714 0 0 1 4.037-2.286c1.653 0 3.185.868 4.038 2.286l21.48 35.706a4.732 4.732 0 0 1 .066 4.762 4.712 4.712 0 0 1-4.105 2.402h-42.957a4.713 4.713 0 0 1-4.105-2.402 4.734 4.734 0 0 1 .067-4.762L146.62 69.27z"/>
        <path fill="#FFF" fill-rule="nonzero" d="M148.818 97.424h3.68l.645-14.539h-4.97l.645 14.54zm-1.126 4.14c0 1.55 1.276 2.754 2.973 2.754 1.682 0 2.959-1.204 2.959-2.755 0-1.55-1.277-2.754-2.959-2.754-1.697 0-2.973 1.204-2.973 2.754z"/>
    </g>
</svg>
