<?xml version="1.0" encoding="UTF-8"?>
<svg width="40px" height="40px" viewBox="0 0 40 40" version="1.1" xmlns="http://www.w3.org/2000/svg" xmlns:xlink="http://www.w3.org/1999/xlink">
    <!-- Generator: Sketch 54.1 (76490) - https://sketchapp.com -->
    <title>Syncfusion_header logo</title>
    <desc>Created with Sketch.</desc>
    <g id="Syncfusion_header-logo" stroke="none" stroke-width="1" fill="none" fill-rule="evenodd">
        <path d="M4,17.3697479 L4,9.30252101 L12.0672269,9.30252101 L12.0672269,17.3697479 L4,17.3697479 Z M30.8126564,16.2941176 L24.7058824,11.106774 L29.893226,5 L36,10.1897824 L30.8126564,16.2941176 Z M13.4117647,17.3697479 L13.4117647,9.30252101 L21.4789916,9.30252101 L21.4789916,17.3697479 L13.4117647,17.3697479 Z M4,26.7815126 L4,18.7142857 L12.0672269,18.7142857 L12.0672269,26.7815126 L4,26.7815126 Z M13.4117647,26.7815126 L13.4117647,18.7142857 L21.4789916,18.7142857 L21.4789916,26.7815126 L13.4117647,26.7815126 Z M22.8235294,26.7815126 L22.8235294,18.7142857 L30.8907563,18.7142857 L30.8907563,26.7815126 L22.8235294,26.7815126 Z M4,35.9243697 L4,28.1260504 L12.0672269,28.1260504 L12.0672269,35.9243697 L4,35.9243697 Z M13.4117647,35.9243697 L13.4117647,28.1260504 L21.4789916,28.1260504 L21.4789916,35.9243697 L13.4117647,35.9243697 Z M22.8235294,35.9243697 L22.8235294,28.1260504 L30.8907563,28.1260504 L30.8907563,35.9243697 L22.8235294,35.9243697 Z" id="syncfusion" fill="#000000"></path>
    </g>
</svg>