<?xml version="1.0" encoding="UTF-8"?>
<svg width="24px" height="24px" viewBox="0 0 24 24" version="1.1" xmlns="http://www.w3.org/2000/svg" xmlns:xlink="http://www.w3.org/1999/xlink">
    <!-- Generator: Sketch 57.1 (83088) - https://sketch.com -->
    <title>BoldSign</title>
    <desc>Created with Sketch.</desc>
    <g id="BoldSign" stroke="none" stroke-width="1" fill="none" fill-rule="evenodd">
        <g id="Group-57">
            <g id="Group-47">
                <circle id="Oval" fill="#FE4901" cx="12" cy="12" r="12"></circle>
                <path d="M13.277225,13.2922298 L11.1308471,18.8928071 C11.0499044,19.1064233 10.8517342,19.207754 10.6563552,19.199538 C10.477723,19.191322 10.3018819,19.0899912 10.2265214,18.8955458 L5.61557692,7.00698531 C5.57370999,6.90017724 5.62115918,6.80432383 5.69931078,6.7550278 C5.77746238,6.70573176 5.8863164,6.7029931 5.96725913,6.78515315 L10.1232497,10.9506681 C9.88879486,11.6189033 10.195819,12.4350265 11.0666511,12.703416 C11.259239,12.7636667 11.4713648,12.7664054 11.6639527,12.7088934 C12.7804041,12.3775145 12.9981122,11.1314202 12.3142856,10.4467531 C11.9402744,10.0715555 11.4043777,9.97296342 10.9382592,10.1372835 L6.77110417,5.95807523 C6.69016144,5.87591517 6.69295257,5.7691071 6.74598402,5.69516304 C6.79622433,5.61848032 6.89670496,5.57466163 7.00276785,5.61574165 L18.895767,10.2468303 C19.0995194,10.3262517 19.2,10.5070038 19.2,10.6877559 C19.2,10.8685081 19.0967282,11.0492602 18.8929758,11.1286816 L13.277225,13.2922298 Z" id="Path" fill="#FFFFFF" fill-rule="nonzero"></path>
            </g>
        </g>
    </g>
</svg>