<?xml version="1.0" encoding="UTF-8"?>
<svg width="186px" height="144px" viewBox="0 0 186 144" version="1.1" xmlns="http://www.w3.org/2000/svg" xmlns:xlink="http://www.w3.org/1999/xlink">
    <!-- Generator: Sketch 49.1 (51147) - http://www.bohemiancoding.com/sketch -->
    <title>Login Failed</title>
    <desc>Created with Sketch.</desc>
    <defs>
        <linearGradient x1="12.518222%" y1="65.2398003%" x2="72.9592789%" y2="36.8546891%" id="linearGradient-1">
            <stop stop-color="#FFA59B" offset="0%"></stop>
            <stop stop-color="#FF6C62" offset="100%"></stop>
        </linearGradient>
        <linearGradient x1="25.4695699%" y1="100%" x2="65.0259944%" y2="6.87177466%" id="linearGradient-2">
            <stop stop-color="#FFA59B" offset="0%"></stop>
            <stop stop-color="#FF6C62" offset="100%"></stop>
        </linearGradient>
    </defs>
    <g id="Design" stroke="none" stroke-width="1" fill="none" fill-rule="evenodd">
        <g id="Product-launch-Copy-3" transform="translate(-590.000000, -140.000000)">
            <rect id="BG" fill="#FFFFFF" x="0" y="0" width="1366" height="768"></rect>
            <g id="Group-4" transform="translate(590.000000, 140.000000)">
                <path d="M160.997385,34.1553019 L162.876947,32.2757404 C163.465104,31.6875823 164.418697,31.6875823 165.006855,32.2757404 C165.595013,32.8638984 165.595013,33.8174911 165.006855,34.405649 L163.127294,36.2852107 L165.006855,38.1647722 C165.595013,38.7529302 165.595013,39.7065228 165.006855,40.2946809 C164.418697,40.8828389 163.465104,40.8828389 162.876947,40.2946809 L160.997385,38.4151193 L159.117824,40.2946809 C158.529665,40.8828389 157.576073,40.8828389 156.987915,40.2946809 C156.399757,39.7065228 156.399757,38.7529302 156.987915,38.1647722 L158.867477,36.2852107 L156.987915,34.405649 C156.399757,33.8174911 156.399757,32.8638984 156.987915,32.2757404 C157.576073,31.6875823 158.529665,31.6875823 159.117824,32.2757404 L160.997385,34.1553019 Z" id="Combined-Shape-Copy" fill="#F9AF97" fill-rule="nonzero"></path>
                <path d="M4.45058877,64.0696679 L6.33015033,62.1901064 C6.91830838,61.6019484 7.87190096,61.6019484 8.46005902,62.1901064 C9.04821707,62.7782644 9.04821707,63.731857 8.46005902,64.3200151 L6.58049746,66.1995767 L8.46005902,68.0791382 C9.04821707,68.6672963 9.04821707,69.6208888 8.46005902,70.2090469 C7.87190096,70.7972049 6.91830838,70.7972049 6.33015033,70.2090469 L4.45058877,68.3294853 L2.57102722,70.2090469 C1.98286918,70.7972049 1.02927657,70.7972049 0.441118532,70.2090469 C-0.147039511,69.6208888 -0.147039511,68.6672963 0.441118532,68.0791382 L2.32068009,66.1995767 L0.441118532,64.3200151 C-0.147039511,63.731857 -0.147039511,62.7782644 0.441118532,62.1901064 C1.02927657,61.6019484 1.98286918,61.6019484 2.57102722,62.1901064 L4.45058877,64.0696679 Z" id="Combined-Shape-Copy-2" fill="#F9AF97" fill-rule="nonzero"></path>
                <circle id="Oval-2" fill="#FFD571" fill-rule="nonzero" cx="114.838057" cy="4.89473684" r="4.89473684"></circle>
                <circle id="Oval-2-Copy" fill="#FFD571" fill-rule="nonzero" cx="24.4736842" cy="87.7287449" r="4.89473684"></circle>
                <circle id="Oval-2-Copy-2" fill="#FFD571" fill-rule="nonzero" cx="157.008097" cy="99.7773279" r="4.89473684"></circle>
                <rect id="Rectangle-7" fill="#102D5C" fill-rule="nonzero" x="118.979757" y="139.311741" width="7.53036437" height="3.76518219" rx="1.88259109"></rect>
                <rect id="Rectangle-7-Copy" fill="#102D5C" fill-rule="nonzero" x="132.534413" y="139.311741" width="40.6639676" height="3.76518219" rx="1.88259109"></rect>
                <path d="M26.1471482,38.6075263 C25.5889501,39.0167234 24.7891056,38.9162783 24.3606455,38.383176 C23.9321855,37.8500738 24.037359,37.0861893 24.5955571,36.6769922 L29.429202,33.1336032 L33.7421937,36.1266238 L37.113411,33.6829813 C37.6739291,33.2766871 38.4731903,33.3812815 38.8986108,33.9165995 C39.3240313,34.4519174 39.2145131,35.2152448 38.653995,35.621539 L33.7752849,39.1578947 L29.4710012,36.170917 L26.1471482,38.6075263 Z" id="Path-3" fill="#102D5C" fill-rule="nonzero"></path>
                <path d="M169.224071,121.441534 C168.665873,121.850731 167.866029,121.750287 167.437568,121.217184 C167.009109,120.684082 167.114282,119.920197 167.67248,119.511 L172.506125,115.967611 L176.819117,118.960632 L180.190334,116.516989 C180.750852,116.110695 181.550113,116.21529 181.975534,116.750607 C182.400954,117.285926 182.291436,118.049253 181.730918,118.455547 L176.852208,121.991903 L172.547924,119.004925 L169.224071,121.441534 Z" id="Path-3-Copy" fill="#102D5C" fill-rule="nonzero"></path>
                <path d="M180.728745,74.9271255 C178.025456,74.9271255 175.834008,72.7356772 175.834008,70.0323887 C175.834008,67.3291001 178.025456,65.1376518 180.728745,65.1376518 C183.432034,65.1376518 185.623482,67.3291001 185.623482,70.0323887 C185.623482,72.7356772 183.432034,74.9271255 180.728745,74.9271255 Z M180.728745,72.6680162 C182.184362,72.6680162 183.364372,71.4880055 183.364372,70.0323887 C183.364372,68.5767718 182.184362,67.3967611 180.728745,67.3967611 C179.273128,67.3967611 178.093117,68.5767718 178.093117,70.0323887 C178.093117,71.4880055 179.273128,72.6680162 180.728745,72.6680162 Z" id="Oval-3" fill="#102D5C" fill-rule="nonzero"></path>
                <path d="M6.77732794,120.109312 C4.07403943,120.109312 1.88259109,117.917864 1.88259109,115.214575 C1.88259109,112.511286 4.07403943,110.319838 6.77732794,110.319838 C9.48061647,110.319838 11.6720648,112.511286 11.6720648,115.214575 C11.6720648,117.917864 9.48061647,120.109312 6.77732794,120.109312 Z M6.77732794,117.850202 C8.23294481,117.850202 9.41295547,116.670192 9.41295547,115.214575 C9.41295547,113.758958 8.23294481,112.578947 6.77732794,112.578947 C5.32171105,112.578947 4.1417004,113.758958 4.1417004,115.214575 C4.1417004,116.670192 5.32171105,117.850202 6.77732794,117.850202 Z" id="Oval-3-Copy" fill="#102D5C" fill-rule="nonzero"></path>
                <g id="Group-3" transform="translate(46.688259, 34.639676)">
                    <path d="M77.1761261,8.49209093 C76.6298794,7.8659778 76.7027485,6.92256897 77.3388843,6.38492834 C77.9750202,5.84728772 78.9335301,5.91900886 79.4797767,6.545122 C84.4067194,12.1924283 86.7783693,19.0871244 86.5886508,27.1556611 C86.5692511,27.9807129 85.8739816,28.6340707 85.0357225,28.6149765 C84.1974634,28.5958824 83.5336475,27.9115669 83.5530472,27.0865151 C83.7258141,19.7389213 81.6021994,13.5652964 77.1761261,8.49209093 Z" id="Path-2" fill="#FFFFFF" fill-rule="nonzero"></path>
                    <g id="Group-2">
                        <path d="M67.4046053,66.6567081 L67.4046053,22.2015915 C67.4046053,15.5473428 62.006759,10.1530085 55.3481781,10.1530085 C48.6895973,10.1530085 43.291751,15.5473428 43.291751,22.2015915 L43.291751,28.1365559 L35.3927126,28.1365559 L35.3927126,22.2015915 C35.3927126,11.1876627 44.3270788,2.25910931 55.3481781,2.25910931 C66.3692775,2.25910931 75.3036437,11.1876627 75.3036437,22.2015915 L75.3036437,71.2268603 C75.3036437,73.062515 73.8145827,74.5506073 71.9777328,74.5506073 L38.7186235,74.5506073 C36.8817736,74.5506073 35.3927126,73.062515 35.3927126,71.2268603 L35.3927126,51.4513144 L43.291751,51.4513144 L43.291751,66.6567081 L67.4046053,66.6567081 Z" id="Rectangle-3" fill="url(#linearGradient-1)" fill-rule="nonzero"></path>
                        <path d="M65.8985324,64.3975988 L65.8985324,19.9424822 C65.8985324,13.2882335 60.5006861,7.89389919 53.8421053,7.89389919 C47.1835244,7.89389919 41.7856781,13.2882335 41.7856781,19.9424822 L41.7856781,25.8774466 L33.8866397,25.8774466 L33.8866397,19.9424822 C33.8866397,8.92855341 42.8210059,2.21406029e-15 53.8421053,0 C64.8632046,-2.21406029e-15 73.7975709,8.92855341 73.7975709,19.9424822 L73.7975709,68.9677509 C73.7975709,70.8034057 72.3085098,72.291498 70.4716599,72.291498 L37.2125506,72.291498 C35.3757007,72.291498 33.8866397,70.8034057 33.8866397,68.9677509 L33.8866397,49.192205 L41.7856781,49.192205 L41.7856781,64.3975988 L65.8985324,64.3975988 Z" id="Rectangle-3-Copy" stroke="#102D5C" stroke-width="4"></path>
                        <rect id="Rectangle" fill="url(#linearGradient-2)" fill-rule="nonzero" x="21.8380567" y="39.9109312" width="67.0202429" height="54.2186235" rx="8"></rect>
                        <rect id="Rectangle-Copy" stroke="#102D5C" stroke-width="4" x="18.8259109" y="36.8987854" width="67.0202429" height="53.465587" rx="8"></rect>
                        <rect id="Rectangle-4" fill="#E54D4F" fill-rule="nonzero" transform="translate(24.850202, 14.307692) rotate(-48.000000) translate(-24.850202, -14.307692) " x="23.3441296" y="9.03643725" width="3.01214575" height="10.5425101" rx="1.50607287"></rect>
                        <rect id="Rectangle-4-Copy" fill="#E54D4F" fill-rule="nonzero" transform="translate(24.850202, 29.368421) scale(-1, 1) rotate(132.000000) translate(-24.850202, -29.368421) " x="23.3441296" y="24.097166" width="3.01214575" height="10.5425101" rx="1.50607287"></rect>
                        <rect id="Rectangle-4-Copy-2" fill="#E54D4F" fill-rule="nonzero" transform="translate(21.838057, 21.838057) scale(-1, 1) rotate(-90.000000) translate(-21.838057, -21.838057) " x="20.3319838" y="16.5668016" width="3.01214575" height="10.5425101" rx="1.50607287"></rect>
                        <g id="Group" transform="translate(0.000000, 49.700405)" fill-rule="nonzero">
                            <path d="M17.7548738,2.21761038 L29.5271882,25.7622392 C30.2711559,27.2501744 29.6680509,29.0594892 28.1801157,29.8034568 C27.7618628,30.0125832 27.300664,30.1214575 26.8330432,30.1214575 L3.28841434,30.1214575 C1.62485217,30.1214575 0.276268584,28.7728739 0.276268584,27.1093117 C0.276268584,26.6416909 0.385142868,26.1804921 0.594269272,25.7622392 L12.3665837,2.21761038 C13.1105513,0.729675156 14.9198661,0.12657024 16.4078013,0.870537856 C16.990734,1.16200422 17.4634075,1.63467764 17.7548738,2.21761038 Z" id="Triangle" stroke="#102D5C" stroke-width="4" fill="#F8E203" stroke-linecap="round" stroke-linejoin="round"></path>
                            <path d="M13.7960177,18.9113706 L13.4839039,14.2394174 C13.4253823,13.329081 13.3961219,12.6755993 13.3961219,12.2789527 C13.3961219,11.7392532 13.537547,11.318229 13.8204015,11.0158672 C14.1032561,10.7135055 14.4755131,10.5623269 14.9371837,10.5623269 C15.4963904,10.5623269 15.870273,10.7557705 16.0588426,11.1426634 C16.2474123,11.5295564 16.3416958,12.0871291 16.3416958,12.8153983 C16.3416958,13.2445569 16.3189376,13.6802114 16.2734209,14.1223747 L15.8540179,18.9308777 C15.8085012,19.5030893 15.7109665,19.9419949 15.5614113,20.2476078 C15.411856,20.5532207 15.1647684,20.7060249 14.8201411,20.7060249 C14.4690112,20.7060249 14.2251748,20.5580975 14.0886244,20.2622382 C13.9520739,19.9663788 13.8545393,19.5160941 13.7960177,18.9113706 Z M14.8786624,25.3292104 C14.4820158,25.3292104 14.135768,25.2007898 13.8399087,24.9439449 C13.5440494,24.6871 13.3961219,24.3278476 13.3961219,23.866177 C13.3961219,23.4630281 13.537547,23.1200314 13.8204015,22.8371769 C14.1032561,22.5543223 14.4495038,22.4128972 14.8591553,22.4128972 C15.2688066,22.4128972 15.6183055,22.5543223 15.9076625,22.8371769 C16.1970195,23.1200314 16.3416958,23.4630281 16.3416958,23.866177 C16.3416958,24.3213452 16.1953939,24.678972 15.9027858,24.9390682 C15.6101776,25.1991643 15.2688066,25.3292104 14.8786624,25.3292104 Z" id="!" fill="#102D5C"></path>
                        </g>
                        <path d="M50.7044534,71.6315218 C48.364634,70.7737214 46.6882591,68.4591585 46.6882591,65.7384787 C46.6882591,62.2874722 49.3854263,59.4898785 52.7125506,59.4898785 C56.0396749,59.4898785 58.7368421,62.2874722 58.7368421,65.7384787 C58.7368421,68.4591585 57.0604673,70.7737214 54.7206478,71.6315218 L54.7206478,79.0688259 L50.7044534,79.0688259 L50.7044534,71.6315218 Z" id="Combined-Shape" fill="#102D5C" fill-rule="nonzero"></path>
                    </g>
                </g>
                <rect id="Rectangle-10" fill="#FFFFFF" fill-rule="nonzero" x="125.757085" y="82.8340081" width="2.25910931" height="18.8259109" rx="1.12955466"></rect>
                <rect id="Rectangle-10-Copy" fill="#FFFFFF" fill-rule="nonzero" x="125.757085" y="109.190283" width="2.25910931" height="6.0242915" rx="1.12955466"></rect>
            </g>
        </g>
    </g>
</svg>