<?xml version="1.0" encoding="UTF-8"?>
<svg width="352px" height="194px" viewBox="0 0 352 194" version="1.1" xmlns="http://www.w3.org/2000/svg" xmlns:xlink="http://www.w3.org/1999/xlink">
    <!-- Generator: Sketch 61.2 (89653) - https://sketch.com -->
    <title>No Sites found</title>
    <desc>Created with Sketch.</desc>
    <defs>
        <path d="M0.642399498,0.732787158 L0.642399498,140.868342 C0.642399498,143.248488 2.0660731,145.177977 3.8222635,145.177977 L177.642547,145.177977 C179.398737,145.177977 180.822411,143.248488 180.822411,140.868342 L180.822411,0.732787158 L0.642399498,0.732787158 Z" id="path-1"></path>
        <filter x="-5.6%" y="-9.7%" width="115.5%" height="119.4%" filterUnits="objectBoundingBox" id="filter-2">
            <feOffset dx="4" dy="0" in="SourceAlpha" result="shadowOffsetOuter1"></feOffset>
            <feGaussianBlur stdDeviation="4" in="shadowOffsetOuter1" result="shadowBlurOuter1"></feGaussianBlur>
            <feColorMatrix values="0 0 0 0 0   0 0 0 0 0   0 0 0 0 0  0 0 0 0.12 0" type="matrix" in="shadowBlurOuter1"></feColorMatrix>
        </filter>
    </defs>
    <g id="Page-1" stroke="none" stroke-width="1" fill="none" fill-rule="evenodd">
        <g id="No-Sites-found" transform="translate(-507.000000, -211.000000)">
            <g transform="translate(507.500000, 211.000000)">
                <g id="Group-3" fill-rule="nonzero">
                    <g id="Group-8" transform="translate(0.000000, 0.435294)">
                        <g id="Group-2">
                            <g id="Group" opacity="0.399994" transform="translate(233.988236, 22.982354)" fill="#E9EBEE">
                                <path d="M70.1092585,71.9058852 L23.3694127,71.9058852 C10.4616925,71.9058852 0,61.1114404 0,47.9922617 L0,24.0786381 C0,10.793407 10.4616925,0 23.3694127,0 L116.847063,0 L116.847063,24.0786381 C116.847063,50.4820101 95.9216376,71.9058852 70.1092585,71.9058852" id="Path"></path>
                            </g>
                            <g id="Group" opacity="0.399994" transform="translate(66.500000, 144.447062) scale(1, -1) translate(-66.500000, -144.447062) translate(0.000000, 111.447062)" fill="#E9EBEE">
                                <path d="M132.576476,32.5818103 L132.576476,65.1647085 L66.2887917,65.1647085 C29.6915662,65.1647085 0,35.9888025 0,0 L99.4337413,0 C117.846987,0 132.576476,14.5852335 132.576476,32.5818103" id="Path"></path>
                            </g>
                            <g id="Group" opacity="0.100006" transform="translate(225.000000, 0.064706)" fill="#FB043D">
                                <path d="M2.7292403,1.29055947 C2.7292403,1.89451316 2.22989388,2.38503393 1.61351314,2.38503393 C0.99869285,2.38503393 0.499346425,1.89451316 0.499346425,1.29055947 C0.499346425,0.685072895 0.99869285,0.194552128 1.61351314,0.194552128 C2.22989388,0.194552128 2.7292403,0.685072895 2.7292403,1.29055947" id="Path"></path>
                                <path d="M14.7993797,1.29055947 C14.7993797,1.89451316 14.3000332,2.38503393 13.685213,2.38503393 C13.0688322,2.38503393 12.5694858,1.89451316 12.5694858,1.29055947 C12.5694858,0.685072895 13.0688322,0.194552128 13.685213,0.194552128 C14.3000332,0.194552128 14.7993797,0.685072895 14.7993797,1.29055947" id="Path"></path>
                                <path d="M26.869519,1.29055947 C26.869519,1.89451316 26.3717331,2.38503393 25.7553523,2.38503393 C25.1389716,2.38503393 24.6396252,1.89451316 24.6396252,1.29055947 C24.6396252,0.685072895 25.1389716,0.194552128 25.7553523,0.194552128 C26.3717331,0.194552128 26.869519,0.685072895 26.869519,1.29055947" id="Path"></path>
                                <path d="M38.9412189,1.29055947 C38.9412189,1.89451316 38.440312,2.38503393 37.8254917,2.38503393 C37.209111,2.38503393 36.711325,1.89451316 36.711325,1.29055947 C36.711325,0.685072895 37.209111,0.194552128 37.8254917,0.194552128 C38.440312,0.194552128 38.9412189,0.685072895 38.9412189,1.29055947" id="Path"></path>
                                <path d="M51.0113582,1.29055947 C51.0113582,1.89451316 50.5120118,2.38503393 49.8956311,2.38503393 C49.2808108,2.38503393 48.7814644,1.89451316 48.7814644,1.29055947 C48.7814644,0.685072895 49.2808108,0.194552128 49.8956311,0.194552128 C50.5120118,0.194552128 51.0113582,0.685072895 51.0113582,1.29055947" id="Path"></path>
                                <path d="M63.0814976,1.29055947 C63.0814976,1.89451316 62.5821512,2.38503393 61.9673309,2.38503393 C61.3509502,2.38503393 60.8516037,1.89451316 60.8516037,1.29055947 C60.8516037,0.685072895 61.3509502,0.194552128 61.9673309,0.194552128 C62.5821512,0.194552128 63.0814976,0.685072895 63.0814976,1.29055947" id="Path"></path>
                                <path d="M75.151637,1.29055947 C75.151637,1.89451316 74.6522905,2.38503393 74.0374703,2.38503393 C73.4210895,2.38503393 72.9217431,1.89451316 72.9217431,1.29055947 C72.9217431,0.685072895 73.4210895,0.194552128 74.0374703,0.194552128 C74.6522905,0.194552128 75.151637,0.685072895 75.151637,1.29055947" id="Path"></path>
                                <path d="M87.2217763,1.29055947 C87.2217763,1.89451316 86.7239904,2.38503393 86.1076096,2.38503393 C85.4927893,2.38503393 84.9918825,1.89451316 84.9918825,1.29055947 C84.9918825,0.685072895 85.4927893,0.194552128 86.1076096,0.194552128 C86.7239904,0.194552128 87.2217763,0.685072895 87.2217763,1.29055947" id="Path"></path>
                                <path d="M99.2934762,1.29055947 C99.2934762,1.89451316 98.7941297,2.38503393 98.177749,2.38503393 C97.5613683,2.38503393 97.0635823,1.89451316 97.0635823,1.29055947 C97.0635823,0.685072895 97.5613683,0.194552128 98.177749,0.194552128 C98.7941297,0.194552128 99.2934762,0.685072895 99.2934762,1.29055947" id="Path"></path>
                                <path d="M111.363616,1.29055947 C111.363616,1.89451316 110.864269,2.38503393 110.247888,2.38503393 C109.633068,2.38503393 109.133722,1.89451316 109.133722,1.29055947 C109.133722,0.685072895 109.633068,0.194552128 110.247888,0.194552128 C110.864269,0.194552128 111.363616,0.685072895 111.363616,1.29055947" id="Path"></path>
                                <path d="M2.7292403,10.5675335 C2.7292403,11.1730201 2.22989388,11.6635408 1.61351314,11.6635408 C0.99869285,11.6635408 0.499346425,11.1730201 0.499346425,10.5675335 C0.499346425,9.96357978 0.99869285,9.47305902 1.61351314,9.47305902 C2.22989388,9.47305902 2.7292403,9.96357978 2.7292403,10.5675335" id="Path"></path>
                                <path d="M14.7993797,10.5675335 C14.7993797,11.1730201 14.3000332,11.6635408 13.685213,11.6635408 C13.0688322,11.6635408 12.5694858,11.1730201 12.5694858,10.5675335 C12.5694858,9.96357978 13.0688322,9.47305902 13.685213,9.47305902 C14.3000332,9.47305902 14.7993797,9.96357978 14.7993797,10.5675335" id="Path"></path>
                                <path d="M26.869519,10.5675335 C26.869519,11.1730201 26.3717331,11.6635408 25.7553523,11.6635408 C25.1389716,11.6635408 24.6396252,11.1730201 24.6396252,10.5675335 C24.6396252,9.96357978 25.1389716,9.47305902 25.7553523,9.47305902 C26.3717331,9.47305902 26.869519,9.96357978 26.869519,10.5675335" id="Path"></path>
                                <path d="M38.9412189,10.5675335 C38.9412189,11.1730201 38.440312,11.6635408 37.8254917,11.6635408 C37.209111,11.6635408 36.711325,11.1730201 36.711325,10.5675335 C36.711325,9.96357978 37.209111,9.47305902 37.8254917,9.47305902 C38.440312,9.47305902 38.9412189,9.96357978 38.9412189,10.5675335" id="Path"></path>
                                <path d="M51.0113582,10.5675335 C51.0113582,11.1730201 50.5120118,11.6635408 49.8956311,11.6635408 C49.2808108,11.6635408 48.7814644,11.1730201 48.7814644,10.5675335 C48.7814644,9.96357978 49.2808108,9.47305902 49.8956311,9.47305902 C50.5120118,9.47305902 51.0113582,9.96357978 51.0113582,10.5675335" id="Path"></path>
                                <path d="M63.0814976,10.5675335 C63.0814976,11.1730201 62.5821512,11.6635408 61.9673309,11.6635408 C61.3509502,11.6635408 60.8516037,11.1730201 60.8516037,10.5675335 C60.8516037,9.96357978 61.3509502,9.47305902 61.9673309,9.47305902 C62.5821512,9.47305902 63.0814976,9.96357978 63.0814976,10.5675335" id="Path"></path>
                                <path d="M75.151637,10.5675335 C75.151637,11.1730201 74.6522905,11.6635408 74.0374703,11.6635408 C73.4210895,11.6635408 72.9217431,11.1730201 72.9217431,10.5675335 C72.9217431,9.96357978 73.4210895,9.47305902 74.0374703,9.47305902 C74.6522905,9.47305902 75.151637,9.96357978 75.151637,10.5675335" id="Path"></path>
                                <path d="M87.2217763,10.5675335 C87.2217763,11.1730201 86.7239904,11.6635408 86.1076096,11.6635408 C85.4927893,11.6635408 84.9918825,11.1730201 84.9918825,10.5675335 C84.9918825,9.96357978 85.4927893,9.47305902 86.1076096,9.47305902 C86.7239904,9.47305902 87.2217763,9.96357978 87.2217763,10.5675335" id="Path"></path>
                                <path d="M99.2934762,10.5675335 C99.2934762,11.1730201 98.7941297,11.6635408 98.177749,11.6635408 C97.5613683,11.6635408 97.0635823,11.1730201 97.0635823,10.5675335 C97.0635823,9.96357978 97.5613683,9.47305902 98.177749,9.47305902 C98.7941297,9.47305902 99.2934762,9.96357978 99.2934762,10.5675335" id="Path"></path>
                                <path d="M111.363616,10.5675335 C111.363616,11.1730201 110.864269,11.6635408 110.247888,11.6635408 C109.633068,11.6635408 109.133722,11.1730201 109.133722,10.5675335 C109.133722,9.96357978 109.633068,9.47305902 110.247888,9.47305902 C110.864269,9.47305902 111.363616,9.96357978 111.363616,10.5675335" id="Path"></path>
                                <path d="M2.7292403,19.8460404 C2.7292403,20.4515269 2.22989388,20.9420477 1.61351314,20.9420477 C0.99869285,20.9420477 0.499346425,20.4515269 0.499346425,19.8460404 C0.499346425,19.2420867 0.99869285,18.7515659 1.61351314,18.7515659 C2.22989388,18.7515659 2.7292403,19.2420867 2.7292403,19.8460404" id="Path"></path>
                                <path d="M14.7993797,19.8460404 C14.7993797,20.4515269 14.3000332,20.9420477 13.685213,20.9420477 C13.0688322,20.9420477 12.5694858,20.4515269 12.5694858,19.8460404 C12.5694858,19.2420867 13.0688322,18.7515659 13.685213,18.7515659 C14.3000332,18.7515659 14.7993797,19.2420867 14.7993797,19.8460404" id="Path"></path>
                                <path d="M26.869519,19.8460404 C26.869519,20.4515269 26.3717331,20.9420477 25.7553523,20.9420477 C25.1389716,20.9420477 24.6396252,20.4515269 24.6396252,19.8460404 C24.6396252,19.2420867 25.1389716,18.7515659 25.7553523,18.7515659 C26.3717331,18.7515659 26.869519,19.2420867 26.869519,19.8460404" id="Path"></path>
                                <path d="M38.9412189,19.8460404 C38.9412189,20.4515269 38.440312,20.9420477 37.8254917,20.9420477 C37.209111,20.9420477 36.711325,20.4515269 36.711325,19.8460404 C36.711325,19.2420867 37.209111,18.7515659 37.8254917,18.7515659 C38.440312,18.7515659 38.9412189,19.2420867 38.9412189,19.8460404" id="Path"></path>
                                <path d="M51.0113582,19.8460404 C51.0113582,20.4515269 50.5120118,20.9420477 49.8956311,20.9420477 C49.2808108,20.9420477 48.7814644,20.4515269 48.7814644,19.8460404 C48.7814644,19.2420867 49.2808108,18.7515659 49.8956311,18.7515659 C50.5120118,18.7515659 51.0113582,19.2420867 51.0113582,19.8460404" id="Path"></path>
                                <path d="M63.0814976,19.8460404 C63.0814976,20.4515269 62.5821512,20.9420477 61.9673309,20.9420477 C61.3509502,20.9420477 60.8516037,20.4515269 60.8516037,19.8460404 C60.8516037,19.2420867 61.3509502,18.7515659 61.9673309,18.7515659 C62.5821512,18.7515659 63.0814976,19.2420867 63.0814976,19.8460404" id="Path"></path>
                                <path d="M75.151637,19.8460404 C75.151637,20.4515269 74.6522905,20.9420477 74.0374703,20.9420477 C73.4210895,20.9420477 72.9217431,20.4515269 72.9217431,19.8460404 C72.9217431,19.2420867 73.4210895,18.7515659 74.0374703,18.7515659 C74.6522905,18.7515659 75.151637,19.2420867 75.151637,19.8460404" id="Path"></path>
                                <path d="M87.2217763,19.8460404 C87.2217763,20.4515269 86.7239904,20.9420477 86.1076096,20.9420477 C85.4927893,20.9420477 84.9918825,20.4515269 84.9918825,19.8460404 C84.9918825,19.2420867 85.4927893,18.7515659 86.1076096,18.7515659 C86.7239904,18.7515659 87.2217763,19.2420867 87.2217763,19.8460404" id="Path"></path>
                                <path d="M99.2934762,19.8460404 C99.2934762,20.4515269 98.7941297,20.9420477 98.177749,20.9420477 C97.5613683,20.9420477 97.0635823,20.4515269 97.0635823,19.8460404 C97.0635823,19.2420867 97.5613683,18.7515659 98.177749,18.7515659 C98.7941297,18.7515659 99.2934762,19.2420867 99.2934762,19.8460404" id="Path"></path>
                                <path d="M111.363616,19.8460404 C111.363616,20.4515269 110.864269,20.9420477 110.247888,20.9420477 C109.633068,20.9420477 109.133722,20.4515269 109.133722,19.8460404 C109.133722,19.2420867 109.633068,18.7515659 110.247888,18.7515659 C110.864269,18.7515659 111.363616,19.2420867 111.363616,19.8460404" id="Path"></path>
                                <path d="M2.7292403,29.1245473 C2.7292403,29.728501 2.22989388,30.2205546 1.61351314,30.2205546 C0.99869285,30.2205546 0.499346425,29.728501 0.499346425,29.1245473 C0.499346425,28.5190607 0.99869285,28.0300728 1.61351314,28.0300728 C2.22989388,28.0300728 2.7292403,28.5190607 2.7292403,29.1245473" id="Path"></path>
                                <path d="M14.7993797,29.1245473 C14.7993797,29.728501 14.3000332,30.2205546 13.685213,30.2205546 C13.0688322,30.2205546 12.5694858,29.728501 12.5694858,29.1245473 C12.5694858,28.5190607 13.0688322,28.0300728 13.685213,28.0300728 C14.3000332,28.0300728 14.7993797,28.5190607 14.7993797,29.1245473" id="Path"></path>
                                <path d="M26.869519,29.1245473 C26.869519,29.728501 26.3717331,30.2205546 25.7553523,30.2205546 C25.1389716,30.2205546 24.6396252,29.728501 24.6396252,29.1245473 C24.6396252,28.5190607 25.1389716,28.0300728 25.7553523,28.0300728 C26.3717331,28.0300728 26.869519,28.5190607 26.869519,29.1245473" id="Path"></path>
                                <path d="M38.9412189,29.1245473 C38.9412189,29.728501 38.440312,30.2205546 37.8254917,30.2205546 C37.209111,30.2205546 36.711325,29.728501 36.711325,29.1245473 C36.711325,28.5190607 37.209111,28.0300728 37.8254917,28.0300728 C38.440312,28.0300728 38.9412189,28.5190607 38.9412189,29.1245473" id="Path"></path>
                                <path d="M51.0113582,29.1245473 C51.0113582,29.728501 50.5120118,30.2205546 49.8956311,30.2205546 C49.2808108,30.2205546 48.7814644,29.728501 48.7814644,29.1245473 C48.7814644,28.5190607 49.2808108,28.0300728 49.8956311,28.0300728 C50.5120118,28.0300728 51.0113582,28.5190607 51.0113582,29.1245473" id="Path"></path>
                                <path d="M63.0814976,29.1245473 C63.0814976,29.728501 62.5821512,30.2205546 61.9673309,30.2205546 C61.3509502,30.2205546 60.8516037,29.728501 60.8516037,29.1245473 C60.8516037,28.5190607 61.3509502,28.0300728 61.9673309,28.0300728 C62.5821512,28.0300728 63.0814976,28.5190607 63.0814976,29.1245473" id="Path"></path>
                                <path d="M75.151637,29.1245473 C75.151637,29.728501 74.6522905,30.2205546 74.0374703,30.2205546 C73.4210895,30.2205546 72.9217431,29.728501 72.9217431,29.1245473 C72.9217431,28.5190607 73.4210895,28.0300728 74.0374703,28.0300728 C74.6522905,28.0300728 75.151637,28.5190607 75.151637,29.1245473" id="Path"></path>
                                <path d="M87.2217763,29.1245473 C87.2217763,29.728501 86.7239904,30.2205546 86.1076096,30.2205546 C85.4927893,30.2205546 84.9918825,29.728501 84.9918825,29.1245473 C84.9918825,28.5190607 85.4927893,28.0300728 86.1076096,28.0300728 C86.7239904,28.0300728 87.2217763,28.5190607 87.2217763,29.1245473" id="Path"></path>
                                <path d="M99.2934762,29.1245473 C99.2934762,29.728501 98.7941297,30.2205546 98.177749,30.2205546 C97.5613683,30.2205546 97.0635823,29.728501 97.0635823,29.1245473 C97.0635823,28.5190607 97.5613683,28.0300728 98.177749,28.0300728 C98.7941297,28.0300728 99.2934762,28.5190607 99.2934762,29.1245473" id="Path"></path>
                                <path d="M111.363616,29.1245473 C111.363616,29.728501 110.864269,30.2205546 110.247888,30.2205546 C109.633068,30.2205546 109.133722,29.728501 109.133722,29.1245473 C109.133722,28.5190607 109.633068,28.0300728 110.247888,28.0300728 C110.864269,28.0300728 111.363616,28.5190607 111.363616,29.1245473" id="Path"></path>
                                <path d="M2.7292403,38.4030541 C2.7292403,39.0070078 2.22989388,39.4975286 1.61351314,39.4975286 C0.99869285,39.4975286 0.499346425,39.0070078 0.499346425,38.4030541 C0.499346425,37.7975676 0.99869285,37.3070468 1.61351314,37.3070468 C2.22989388,37.3070468 2.7292403,37.7975676 2.7292403,38.4030541" id="Path"></path>
                                <path d="M14.7993797,38.4030541 C14.7993797,39.0070078 14.3000332,39.4975286 13.685213,39.4975286 C13.0688322,39.4975286 12.5694858,39.0070078 12.5694858,38.4030541 C12.5694858,37.7975676 13.0688322,37.3070468 13.685213,37.3070468 C14.3000332,37.3070468 14.7993797,37.7975676 14.7993797,38.4030541" id="Path"></path>
                                <path d="M26.869519,38.4030541 C26.869519,39.0070078 26.3717331,39.4975286 25.7553523,39.4975286 C25.1389716,39.4975286 24.6396252,39.0070078 24.6396252,38.4030541 C24.6396252,37.7975676 25.1389716,37.3070468 25.7553523,37.3070468 C26.3717331,37.3070468 26.869519,37.7975676 26.869519,38.4030541" id="Path"></path>
                                <path d="M38.9412189,38.4030541 C38.9412189,39.0070078 38.440312,39.4975286 37.8254917,39.4975286 C37.209111,39.4975286 36.711325,39.0070078 36.711325,38.4030541 C36.711325,37.7975676 37.209111,37.3070468 37.8254917,37.3070468 C38.440312,37.3070468 38.9412189,37.7975676 38.9412189,38.4030541" id="Path"></path>
                                <path d="M51.0113582,38.4030541 C51.0113582,39.0070078 50.5120118,39.4975286 49.8956311,39.4975286 C49.2808108,39.4975286 48.7814644,39.0070078 48.7814644,38.4030541 C48.7814644,37.7975676 49.2808108,37.3070468 49.8956311,37.3070468 C50.5120118,37.3070468 51.0113582,37.7975676 51.0113582,38.4030541" id="Path"></path>
                                <path d="M63.0814976,38.4030541 C63.0814976,39.0070078 62.5821512,39.4975286 61.9673309,39.4975286 C61.3509502,39.4975286 60.8516037,39.0070078 60.8516037,38.4030541 C60.8516037,37.7975676 61.3509502,37.3070468 61.9673309,37.3070468 C62.5821512,37.3070468 63.0814976,37.7975676 63.0814976,38.4030541" id="Path"></path>
                                <path d="M75.151637,38.4030541 C75.151637,39.0070078 74.6522905,39.4975286 74.0374703,39.4975286 C73.4210895,39.4975286 72.9217431,39.0070078 72.9217431,38.4030541 C72.9217431,37.7975676 73.4210895,37.3070468 74.0374703,37.3070468 C74.6522905,37.3070468 75.151637,37.7975676 75.151637,38.4030541" id="Path"></path>
                                <path d="M87.2217763,38.4030541 C87.2217763,39.0070078 86.7239904,39.4975286 86.1076096,39.4975286 C85.4927893,39.4975286 84.9918825,39.0070078 84.9918825,38.4030541 C84.9918825,37.7975676 85.4927893,37.3070468 86.1076096,37.3070468 C86.7239904,37.3070468 87.2217763,37.7975676 87.2217763,38.4030541" id="Path"></path>
                                <path d="M99.2934762,38.4030541 C99.2934762,39.0070078 98.7941297,39.4975286 98.177749,39.4975286 C97.5613683,39.4975286 97.0635823,39.0070078 97.0635823,38.4030541 C97.0635823,37.7975676 97.5613683,37.3070468 98.177749,37.3070468 C98.7941297,37.3070468 99.2934762,37.7975676 99.2934762,38.4030541" id="Path"></path>
                                <path d="M111.363616,38.4030541 C111.363616,39.0070078 110.864269,39.4975286 110.247888,39.4975286 C109.633068,39.4975286 109.133722,39.0070078 109.133722,38.4030541 C109.133722,37.7975676 109.633068,37.3070468 110.247888,37.3070468 C110.864269,37.3070468 111.363616,37.7975676 111.363616,38.4030541" id="Path"></path>
                                <path d="M2.7292403,46.9841018 C2.7292403,47.5895884 2.22989388,48.0801092 1.61351314,48.0801092 C0.99869285,48.0801092 0.499346425,47.5895884 0.499346425,46.9841018 C0.499346425,46.3801481 0.99869285,45.8896274 1.61351314,45.8896274 C2.22989388,45.8896274 2.7292403,46.3801481 2.7292403,46.9841018" id="Path"></path>
                                <path d="M14.7993797,46.9841018 C14.7993797,47.5895884 14.3000332,48.0801092 13.685213,48.0801092 C13.0688322,48.0801092 12.5694858,47.5895884 12.5694858,46.9841018 C12.5694858,46.3801481 13.0688322,45.8896274 13.685213,45.8896274 C14.3000332,45.8896274 14.7993797,46.3801481 14.7993797,46.9841018" id="Path"></path>
                                <path d="M26.869519,46.9841018 C26.869519,47.5895884 26.3717331,48.0801092 25.7553523,48.0801092 C25.1389716,48.0801092 24.6396252,47.5895884 24.6396252,46.9841018 C24.6396252,46.3801481 25.1389716,45.8896274 25.7553523,45.8896274 C26.3717331,45.8896274 26.869519,46.3801481 26.869519,46.9841018" id="Path"></path>
                                <path d="M38.9412189,46.9841018 C38.9412189,47.5895884 38.440312,48.0801092 37.8254917,48.0801092 C37.209111,48.0801092 36.711325,47.5895884 36.711325,46.9841018 C36.711325,46.3801481 37.209111,45.8896274 37.8254917,45.8896274 C38.440312,45.8896274 38.9412189,46.3801481 38.9412189,46.9841018" id="Path"></path>
                                <path d="M51.0113582,46.9841018 C51.0113582,47.5895884 50.5120118,48.0801092 49.8956311,48.0801092 C49.2808108,48.0801092 48.7814644,47.5895884 48.7814644,46.9841018 C48.7814644,46.3801481 49.2808108,45.8896274 49.8956311,45.8896274 C50.5120118,45.8896274 51.0113582,46.3801481 51.0113582,46.9841018" id="Path"></path>
                                <path d="M63.0814976,46.9841018 C63.0814976,47.5895884 62.5821512,48.0801092 61.9673309,48.0801092 C61.3509502,48.0801092 60.8516037,47.5895884 60.8516037,46.9841018 C60.8516037,46.3801481 61.3509502,45.8896274 61.9673309,45.8896274 C62.5821512,45.8896274 63.0814976,46.3801481 63.0814976,46.9841018" id="Path"></path>
                                <path d="M75.151637,46.9841018 C75.151637,47.5895884 74.6522905,48.0801092 74.0374703,48.0801092 C73.4210895,48.0801092 72.9217431,47.5895884 72.9217431,46.9841018 C72.9217431,46.3801481 73.4210895,45.8896274 74.0374703,45.8896274 C74.6522905,45.8896274 75.151637,46.3801481 75.151637,46.9841018" id="Path"></path>
                                <path d="M87.2217763,46.9841018 C87.2217763,47.5895884 86.7239904,48.0801092 86.1076096,48.0801092 C85.4927893,48.0801092 84.9918825,47.5895884 84.9918825,46.9841018 C84.9918825,46.3801481 85.4927893,45.8896274 86.1076096,45.8896274 C86.7239904,45.8896274 87.2217763,46.3801481 87.2217763,46.9841018" id="Path"></path>
                                <path d="M99.2934762,46.9841018 C99.2934762,47.5895884 98.7941297,48.0801092 98.177749,48.0801092 C97.5613683,48.0801092 97.0635823,47.5895884 97.0635823,46.9841018 C97.0635823,46.3801481 97.5613683,45.8896274 98.177749,45.8896274 C98.7941297,45.8896274 99.2934762,46.3801481 99.2934762,46.9841018" id="Path"></path>
                                <path d="M111.363616,46.9841018 C111.363616,47.5895884 110.864269,48.0801092 110.247888,48.0801092 C109.633068,48.0801092 109.133722,47.5895884 109.133722,46.9841018 C109.133722,46.3801481 109.633068,45.8896274 110.247888,45.8896274 C110.864269,45.8896274 111.363616,46.3801481 111.363616,46.9841018" id="Path"></path>
                                <path d="M2.7292403,56.2626087 C2.7292403,56.8665624 2.22989388,57.3586161 1.61351314,57.3586161 C0.99869285,57.3586161 0.499346425,56.8665624 0.499346425,56.2626087 C0.499346425,55.6571221 0.99869285,55.1681342 1.61351314,55.1681342 C2.22989388,55.1681342 2.7292403,55.6571221 2.7292403,56.2626087" id="Path"></path>
                                <path d="M14.7993797,56.2626087 C14.7993797,56.8665624 14.3000332,57.3586161 13.685213,57.3586161 C13.0688322,57.3586161 12.5694858,56.8665624 12.5694858,56.2626087 C12.5694858,55.6571221 13.0688322,55.1681342 13.685213,55.1681342 C14.3000332,55.1681342 14.7993797,55.6571221 14.7993797,56.2626087" id="Path"></path>
                                <path d="M26.869519,56.2626087 C26.869519,56.8665624 26.3717331,57.3586161 25.7553523,57.3586161 C25.1389716,57.3586161 24.6396252,56.8665624 24.6396252,56.2626087 C24.6396252,55.6571221 25.1389716,55.1681342 25.7553523,55.1681342 C26.3717331,55.1681342 26.869519,55.6571221 26.869519,56.2626087" id="Path"></path>
                                <path d="M38.9412189,56.2626087 C38.9412189,56.8665624 38.440312,57.3586161 37.8254917,57.3586161 C37.209111,57.3586161 36.711325,56.8665624 36.711325,56.2626087 C36.711325,55.6571221 37.209111,55.1681342 37.8254917,55.1681342 C38.440312,55.1681342 38.9412189,55.6571221 38.9412189,56.2626087" id="Path"></path>
                                <path d="M51.0113582,56.2626087 C51.0113582,56.8665624 50.5120118,57.3586161 49.8956311,57.3586161 C49.2808108,57.3586161 48.7814644,56.8665624 48.7814644,56.2626087 C48.7814644,55.6571221 49.2808108,55.1681342 49.8956311,55.1681342 C50.5120118,55.1681342 51.0113582,55.6571221 51.0113582,56.2626087" id="Path"></path>
                                <path d="M63.0814976,56.2626087 C63.0814976,56.8665624 62.5821512,57.3586161 61.9673309,57.3586161 C61.3509502,57.3586161 60.8516037,56.8665624 60.8516037,56.2626087 C60.8516037,55.6571221 61.3509502,55.1681342 61.9673309,55.1681342 C62.5821512,55.1681342 63.0814976,55.6571221 63.0814976,56.2626087" id="Path"></path>
                                <path d="M75.151637,56.2626087 C75.151637,56.8665624 74.6522905,57.3586161 74.0374703,57.3586161 C73.4210895,57.3586161 72.9217431,56.8665624 72.9217431,56.2626087 C72.9217431,55.6571221 73.4210895,55.1681342 74.0374703,55.1681342 C74.6522905,55.1681342 75.151637,55.6571221 75.151637,56.2626087" id="Path"></path>
                                <path d="M87.2217763,56.2626087 C87.2217763,56.8665624 86.7239904,57.3586161 86.1076096,57.3586161 C85.4927893,57.3586161 84.9918825,56.8665624 84.9918825,56.2626087 C84.9918825,55.6571221 85.4927893,55.1681342 86.1076096,55.1681342 C86.7239904,55.1681342 87.2217763,55.6571221 87.2217763,56.2626087" id="Path"></path>
                                <path d="M99.2934762,56.2626087 C99.2934762,56.8665624 98.7941297,57.3586161 98.177749,57.3586161 C97.5613683,57.3586161 97.0635823,56.8665624 97.0635823,56.2626087 C97.0635823,55.6571221 97.5613683,55.1681342 98.177749,55.1681342 C98.7941297,55.1681342 99.2934762,55.6571221 99.2934762,56.2626087" id="Path"></path>
                                <path d="M111.363616,56.2626087 C111.363616,56.8665624 110.864269,57.3586161 110.247888,57.3586161 C109.633068,57.3586161 109.133722,56.8665624 109.133722,56.2626087 C109.133722,55.6571221 109.633068,55.1681342 110.247888,55.1681342 C110.864269,55.1681342 111.363616,55.6571221 111.363616,56.2626087" id="Path"></path>
                                <path d="M2.7292403,65.5395827 C2.7292403,66.1450693 2.22989388,66.6355901 1.61351314,66.6355901 C0.99869285,66.6355901 0.499346425,66.1450693 0.499346425,65.5395827 C0.499346425,64.935629 0.99869285,64.4451083 1.61351314,64.4451083 C2.22989388,64.4451083 2.7292403,64.935629 2.7292403,65.5395827" id="Path"></path>
                                <path d="M14.7993797,65.5395827 C14.7993797,66.1450693 14.3000332,66.6355901 13.685213,66.6355901 C13.0688322,66.6355901 12.5694858,66.1450693 12.5694858,65.5395827 C12.5694858,64.935629 13.0688322,64.4451083 13.685213,64.4451083 C14.3000332,64.4451083 14.7993797,64.935629 14.7993797,65.5395827" id="Path"></path>
                                <path d="M26.869519,65.5395827 C26.869519,66.1450693 26.3717331,66.6355901 25.7553523,66.6355901 C25.1389716,66.6355901 24.6396252,66.1450693 24.6396252,65.5395827 C24.6396252,64.935629 25.1389716,64.4451083 25.7553523,64.4451083 C26.3717331,64.4451083 26.869519,64.935629 26.869519,65.5395827" id="Path"></path>
                                <path d="M38.9412189,65.5395827 C38.9412189,66.1450693 38.440312,66.6355901 37.8254917,66.6355901 C37.209111,66.6355901 36.711325,66.1450693 36.711325,65.5395827 C36.711325,64.935629 37.209111,64.4451083 37.8254917,64.4451083 C38.440312,64.4451083 38.9412189,64.935629 38.9412189,65.5395827" id="Path"></path>
                                <path d="M51.0113582,65.5395827 C51.0113582,66.1450693 50.5120118,66.6355901 49.8956311,66.6355901 C49.2808108,66.6355901 48.7814644,66.1450693 48.7814644,65.5395827 C48.7814644,64.935629 49.2808108,64.4451083 49.8956311,64.4451083 C50.5120118,64.4451083 51.0113582,64.935629 51.0113582,65.5395827" id="Path"></path>
                                <path d="M63.0814976,65.5395827 C63.0814976,66.1450693 62.5821512,66.6355901 61.9673309,66.6355901 C61.3509502,66.6355901 60.8516037,66.1450693 60.8516037,65.5395827 C60.8516037,64.935629 61.3509502,64.4451083 61.9673309,64.4451083 C62.5821512,64.4451083 63.0814976,64.935629 63.0814976,65.5395827" id="Path"></path>
                                <path d="M75.151637,65.5395827 C75.151637,66.1450693 74.6522905,66.6355901 74.0374703,66.6355901 C73.4210895,66.6355901 72.9217431,66.1450693 72.9217431,65.5395827 C72.9217431,64.935629 73.4210895,64.4451083 74.0374703,64.4451083 C74.6522905,64.4451083 75.151637,64.935629 75.151637,65.5395827" id="Path"></path>
                                <path d="M87.2217763,65.5395827 C87.2217763,66.1450693 86.7239904,66.6355901 86.1076096,66.6355901 C85.4927893,66.6355901 84.9918825,66.1450693 84.9918825,65.5395827 C84.9918825,64.935629 85.4927893,64.4451083 86.1076096,64.4451083 C86.7239904,64.4451083 87.2217763,64.935629 87.2217763,65.5395827" id="Path"></path>
                                <path d="M99.2934762,65.5395827 C99.2934762,66.1450693 98.7941297,66.6355901 98.177749,66.6355901 C97.5613683,66.6355901 97.0635823,66.1450693 97.0635823,65.5395827 C97.0635823,64.935629 97.5613683,64.4451083 98.177749,64.4451083 C98.7941297,64.4451083 99.2934762,64.935629 99.2934762,65.5395827" id="Path"></path>
                                <path d="M111.363616,65.5395827 C111.363616,66.1450693 110.864269,66.6355901 110.247888,66.6355901 C109.633068,66.6355901 109.133722,66.1450693 109.133722,65.5395827 C109.133722,64.935629 109.633068,64.4451083 110.247888,64.4451083 C110.864269,64.4451083 111.363616,64.935629 111.363616,65.5395827" id="Path"></path>
                                <path d="M2.7292403,74.8180896 C2.7292403,75.4235762 2.22989388,75.914097 1.61351314,75.914097 C0.99869285,75.914097 0.499346425,75.4235762 0.499346425,74.8180896 C0.499346425,74.2141359 0.99869285,73.7236152 1.61351314,73.7236152 C2.22989388,73.7236152 2.7292403,74.2141359 2.7292403,74.8180896" id="Path"></path>
                                <path d="M14.7993797,74.8180896 C14.7993797,75.4235762 14.3000332,75.914097 13.685213,75.914097 C13.0688322,75.914097 12.5694858,75.4235762 12.5694858,74.8180896 C12.5694858,74.2141359 13.0688322,73.7236152 13.685213,73.7236152 C14.3000332,73.7236152 14.7993797,74.2141359 14.7993797,74.8180896" id="Path"></path>
                                <path d="M26.869519,74.8180896 C26.869519,75.4235762 26.3717331,75.914097 25.7553523,75.914097 C25.1389716,75.914097 24.6396252,75.4235762 24.6396252,74.8180896 C24.6396252,74.2141359 25.1389716,73.7236152 25.7553523,73.7236152 C26.3717331,73.7236152 26.869519,74.2141359 26.869519,74.8180896" id="Path"></path>
                                <path d="M38.9412189,74.8180896 C38.9412189,75.4235762 38.440312,75.914097 37.8254917,75.914097 C37.209111,75.914097 36.711325,75.4235762 36.711325,74.8180896 C36.711325,74.2141359 37.209111,73.7236152 37.8254917,73.7236152 C38.440312,73.7236152 38.9412189,74.2141359 38.9412189,74.8180896" id="Path"></path>
                                <path d="M51.0113582,74.8180896 C51.0113582,75.4235762 50.5120118,75.914097 49.8956311,75.914097 C49.2808108,75.914097 48.7814644,75.4235762 48.7814644,74.8180896 C48.7814644,74.2141359 49.2808108,73.7236152 49.8956311,73.7236152 C50.5120118,73.7236152 51.0113582,74.2141359 51.0113582,74.8180896" id="Path"></path>
                                <path d="M63.0814976,74.8180896 C63.0814976,75.4235762 62.5821512,75.914097 61.9673309,75.914097 C61.3509502,75.914097 60.8516037,75.4235762 60.8516037,74.8180896 C60.8516037,74.2141359 61.3509502,73.7236152 61.9673309,73.7236152 C62.5821512,73.7236152 63.0814976,74.2141359 63.0814976,74.8180896" id="Path"></path>
                                <path d="M75.151637,74.8180896 C75.151637,75.4235762 74.6522905,75.914097 74.0374703,75.914097 C73.4210895,75.914097 72.9217431,75.4235762 72.9217431,74.8180896 C72.9217431,74.2141359 73.4210895,73.7236152 74.0374703,73.7236152 C74.6522905,73.7236152 75.151637,74.2141359 75.151637,74.8180896" id="Path"></path>
                                <path d="M87.2217763,74.8180896 C87.2217763,75.4235762 86.7239904,75.914097 86.1076096,75.914097 C85.4927893,75.914097 84.9918825,75.4235762 84.9918825,74.8180896 C84.9918825,74.2141359 85.4927893,73.7236152 86.1076096,73.7236152 C86.7239904,73.7236152 87.2217763,74.2141359 87.2217763,74.8180896" id="Path"></path>
                                <path d="M99.2934762,74.8180896 C99.2934762,75.4235762 98.7941297,75.914097 98.177749,75.914097 C97.5613683,75.914097 97.0635823,75.4235762 97.0635823,74.8180896 C97.0635823,74.2141359 97.5613683,73.7236152 98.177749,73.7236152 C98.7941297,73.7236152 99.2934762,74.2141359 99.2934762,74.8180896" id="Path"></path>
                                <path d="M111.363616,74.8180896 C111.363616,75.4235762 110.864269,75.914097 110.247888,75.914097 C109.633068,75.914097 109.133722,75.4235762 109.133722,74.8180896 C109.133722,74.2141359 109.633068,73.7236152 110.247888,73.7236152 C110.864269,73.7236152 111.363616,74.2141359 111.363616,74.8180896" id="Path"></path>
                                <path d="M2.7292403,84.0965965 C2.7292403,84.7020831 2.22989388,85.1926038 1.61351314,85.1926038 C0.99869285,85.1926038 0.499346425,84.7020831 0.499346425,84.0965965 C0.499346425,83.4911099 0.99869285,83.002122 1.61351314,83.002122 C2.22989388,83.002122 2.7292403,83.4911099 2.7292403,84.0965965" id="Path"></path>
                                <path d="M14.7993797,84.0965965 C14.7993797,84.7020831 14.3000332,85.1926038 13.685213,85.1926038 C13.0688322,85.1926038 12.5694858,84.7020831 12.5694858,84.0965965 C12.5694858,83.4911099 13.0688322,83.002122 13.685213,83.002122 C14.3000332,83.002122 14.7993797,83.4911099 14.7993797,84.0965965" id="Path"></path>
                                <path d="M26.869519,84.0965965 C26.869519,84.7020831 26.3717331,85.1926038 25.7553523,85.1926038 C25.1389716,85.1926038 24.6396252,84.7020831 24.6396252,84.0965965 C24.6396252,83.4911099 25.1389716,83.002122 25.7553523,83.002122 C26.3717331,83.002122 26.869519,83.4911099 26.869519,84.0965965" id="Path"></path>
                                <path d="M38.9412189,84.0965965 C38.9412189,84.7020831 38.440312,85.1926038 37.8254917,85.1926038 C37.209111,85.1926038 36.711325,84.7020831 36.711325,84.0965965 C36.711325,83.4911099 37.209111,83.002122 37.8254917,83.002122 C38.440312,83.002122 38.9412189,83.4911099 38.9412189,84.0965965" id="Path"></path>
                                <path d="M51.0113582,84.0965965 C51.0113582,84.7020831 50.5120118,85.1926038 49.8956311,85.1926038 C49.2808108,85.1926038 48.7814644,84.7020831 48.7814644,84.0965965 C48.7814644,83.4911099 49.2808108,83.002122 49.8956311,83.002122 C50.5120118,83.002122 51.0113582,83.4911099 51.0113582,84.0965965" id="Path"></path>
                                <path d="M63.0814976,84.0965965 C63.0814976,84.7020831 62.5821512,85.1926038 61.9673309,85.1926038 C61.3509502,85.1926038 60.8516037,84.7020831 60.8516037,84.0965965 C60.8516037,83.4911099 61.3509502,83.002122 61.9673309,83.002122 C62.5821512,83.002122 63.0814976,83.4911099 63.0814976,84.0965965" id="Path"></path>
                                <path d="M75.151637,84.0965965 C75.151637,84.7020831 74.6522905,85.1926038 74.0374703,85.1926038 C73.4210895,85.1926038 72.9217431,84.7020831 72.9217431,84.0965965 C72.9217431,83.4911099 73.4210895,83.002122 74.0374703,83.002122 C74.6522905,83.002122 75.151637,83.4911099 75.151637,84.0965965" id="Path"></path>
                                <path d="M87.2217763,84.0965965 C87.2217763,84.7020831 86.7239904,85.1926038 86.1076096,85.1926038 C85.4927893,85.1926038 84.9918825,84.7020831 84.9918825,84.0965965 C84.9918825,83.4911099 85.4927893,83.002122 86.1076096,83.002122 C86.7239904,83.002122 87.2217763,83.4911099 87.2217763,84.0965965" id="Path"></path>
                                <path d="M99.2934762,84.0965965 C99.2934762,84.7020831 98.7941297,85.1926038 98.177749,85.1926038 C97.5613683,85.1926038 97.0635823,84.7020831 97.0635823,84.0965965 C97.0635823,83.4911099 97.5613683,83.002122 98.177749,83.002122 C98.7941297,83.002122 99.2934762,83.4911099 99.2934762,84.0965965" id="Path"></path>
                                <path d="M111.363616,84.0965965 C111.363616,84.7020831 110.864269,85.1926038 110.247888,85.1926038 C109.633068,85.1926038 109.133722,84.7020831 109.133722,84.0965965 C109.133722,83.4911099 109.633068,83.002122 110.247888,83.002122 C110.864269,83.002122 111.363616,83.4911099 111.363616,84.0965965" id="Path"></path>
                                <path d="M2.7292403,93.3751034 C2.7292403,93.9790571 2.22989388,94.4695779 1.61351314,94.4695779 C0.99869285,94.4695779 0.499346425,93.9790571 0.499346425,93.3751034 C0.499346425,92.7696168 0.99869285,92.2790961 1.61351314,92.2790961 C2.22989388,92.2790961 2.7292403,92.7696168 2.7292403,93.3751034" id="Path"></path>
                                <path d="M14.7993797,93.3751034 C14.7993797,93.9790571 14.3000332,94.4695779 13.685213,94.4695779 C13.0688322,94.4695779 12.5694858,93.9790571 12.5694858,93.3751034 C12.5694858,92.7696168 13.0688322,92.2790961 13.685213,92.2790961 C14.3000332,92.2790961 14.7993797,92.7696168 14.7993797,93.3751034" id="Path"></path>
                                <path d="M26.869519,93.3751034 C26.869519,93.9790571 26.3717331,94.4695779 25.7553523,94.4695779 C25.1389716,94.4695779 24.6396252,93.9790571 24.6396252,93.3751034 C24.6396252,92.7696168 25.1389716,92.2790961 25.7553523,92.2790961 C26.3717331,92.2790961 26.869519,92.7696168 26.869519,93.3751034" id="Path"></path>
                                <path d="M38.9412189,93.3751034 C38.9412189,93.9790571 38.440312,94.4695779 37.8254917,94.4695779 C37.209111,94.4695779 36.711325,93.9790571 36.711325,93.3751034 C36.711325,92.7696168 37.209111,92.2790961 37.8254917,92.2790961 C38.440312,92.2790961 38.9412189,92.7696168 38.9412189,93.3751034" id="Path"></path>
                                <path d="M51.0113582,93.3751034 C51.0113582,93.9790571 50.5120118,94.4695779 49.8956311,94.4695779 C49.2808108,94.4695779 48.7814644,93.9790571 48.7814644,93.3751034 C48.7814644,92.7696168 49.2808108,92.2790961 49.8956311,92.2790961 C50.5120118,92.2790961 51.0113582,92.7696168 51.0113582,93.3751034" id="Path"></path>
                                <path d="M63.0814976,93.3751034 C63.0814976,93.9790571 62.5821512,94.4695779 61.9673309,94.4695779 C61.3509502,94.4695779 60.8516037,93.9790571 60.8516037,93.3751034 C60.8516037,92.7696168 61.3509502,92.2790961 61.9673309,92.2790961 C62.5821512,92.2790961 63.0814976,92.7696168 63.0814976,93.3751034" id="Path"></path>
                                <path d="M75.151637,93.3751034 C75.151637,93.9790571 74.6522905,94.4695779 74.0374703,94.4695779 C73.4210895,94.4695779 72.9217431,93.9790571 72.9217431,93.3751034 C72.9217431,92.7696168 73.4210895,92.2790961 74.0374703,92.2790961 C74.6522905,92.2790961 75.151637,92.7696168 75.151637,93.3751034" id="Path"></path>
                                <path d="M87.2217763,93.3751034 C87.2217763,93.9790571 86.7239904,94.4695779 86.1076096,94.4695779 C85.4927893,94.4695779 84.9918825,93.9790571 84.9918825,93.3751034 C84.9918825,92.7696168 85.4927893,92.2790961 86.1076096,92.2790961 C86.7239904,92.2790961 87.2217763,92.7696168 87.2217763,93.3751034" id="Path"></path>
                                <path d="M99.2934762,93.3751034 C99.2934762,93.9790571 98.7941297,94.4695779 98.177749,94.4695779 C97.5613683,94.4695779 97.0635823,93.9790571 97.0635823,93.3751034 C97.0635823,92.7696168 97.5613683,92.2790961 98.177749,92.2790961 C98.7941297,92.2790961 99.2934762,92.7696168 99.2934762,93.3751034" id="Path"></path>
                                <path d="M111.363616,93.3751034 C111.363616,93.9790571 110.864269,94.4695779 110.247888,94.4695779 C109.633068,94.4695779 109.133722,93.9790571 109.133722,93.3751034 C109.133722,92.7696168 109.633068,92.2790961 110.247888,92.2790961 C110.864269,92.2790961 111.363616,92.7696168 111.363616,93.3751034" id="Path"></path>
                                <path d="M2.7292403,102.652077 C2.7292403,103.257564 2.22989388,103.748085 1.61351314,103.748085 C0.99869285,103.748085 0.499346425,103.257564 0.499346425,102.652077 C0.499346425,102.048124 0.99869285,101.557603 1.61351314,101.557603 C2.22989388,101.557603 2.7292403,102.048124 2.7292403,102.652077" id="Path"></path>
                                <path d="M14.7993797,102.652077 C14.7993797,103.257564 14.3000332,103.748085 13.685213,103.748085 C13.0688322,103.748085 12.5694858,103.257564 12.5694858,102.652077 C12.5694858,102.048124 13.0688322,101.557603 13.685213,101.557603 C14.3000332,101.557603 14.7993797,102.048124 14.7993797,102.652077" id="Path"></path>
                                <path d="M26.869519,102.652077 C26.869519,103.257564 26.3717331,103.748085 25.7553523,103.748085 C25.1389716,103.748085 24.6396252,103.257564 24.6396252,102.652077 C24.6396252,102.048124 25.1389716,101.557603 25.7553523,101.557603 C26.3717331,101.557603 26.869519,102.048124 26.869519,102.652077" id="Path"></path>
                                <path d="M38.9412189,102.652077 C38.9412189,103.257564 38.440312,103.748085 37.8254917,103.748085 C37.209111,103.748085 36.711325,103.257564 36.711325,102.652077 C36.711325,102.048124 37.209111,101.557603 37.8254917,101.557603 C38.440312,101.557603 38.9412189,102.048124 38.9412189,102.652077" id="Path"></path>
                                <path d="M51.0113582,102.652077 C51.0113582,103.257564 50.5120118,103.748085 49.8956311,103.748085 C49.2808108,103.748085 48.7814644,103.257564 48.7814644,102.652077 C48.7814644,102.048124 49.2808108,101.557603 49.8956311,101.557603 C50.5120118,101.557603 51.0113582,102.048124 51.0113582,102.652077" id="Path"></path>
                                <path d="M63.0814976,102.652077 C63.0814976,103.257564 62.5821512,103.748085 61.9673309,103.748085 C61.3509502,103.748085 60.8516037,103.257564 60.8516037,102.652077 C60.8516037,102.048124 61.3509502,101.557603 61.9673309,101.557603 C62.5821512,101.557603 63.0814976,102.048124 63.0814976,102.652077" id="Path"></path>
                                <path d="M75.151637,102.652077 C75.151637,103.257564 74.6522905,103.748085 74.0374703,103.748085 C73.4210895,103.748085 72.9217431,103.257564 72.9217431,102.652077 C72.9217431,102.048124 73.4210895,101.557603 74.0374703,101.557603 C74.6522905,101.557603 75.151637,102.048124 75.151637,102.652077" id="Path"></path>
                                <path d="M87.2217763,102.652077 C87.2217763,103.257564 86.7239904,103.748085 86.1076096,103.748085 C85.4927893,103.748085 84.9918825,103.257564 84.9918825,102.652077 C84.9918825,102.048124 85.4927893,101.557603 86.1076096,101.557603 C86.7239904,101.557603 87.2217763,102.048124 87.2217763,102.652077" id="Path"></path>
                                <path d="M99.2934762,102.652077 C99.2934762,103.257564 98.7941297,103.748085 98.177749,103.748085 C97.5613683,103.748085 97.0635823,103.257564 97.0635823,102.652077 C97.0635823,102.048124 97.5613683,101.557603 98.177749,101.557603 C98.7941297,101.557603 99.2934762,102.048124 99.2934762,102.652077" id="Path"></path>
                                <path d="M111.363616,102.652077 C111.363616,103.257564 110.864269,103.748085 110.247888,103.748085 C109.633068,103.748085 109.133722,103.257564 109.133722,102.652077 C109.133722,102.048124 109.633068,101.557603 110.247888,101.557603 C110.864269,101.557603 111.363616,102.048124 111.363616,102.652077" id="Path"></path>
                                <path d="M2.7292403,111.930584 C2.7292403,112.536071 2.22989388,113.026592 1.61351314,113.026592 C0.99869285,113.026592 0.499346425,112.536071 0.499346425,111.930584 C0.499346425,111.325098 0.99869285,110.83611 1.61351314,110.83611 C2.22989388,110.83611 2.7292403,111.325098 2.7292403,111.930584" id="Path"></path>
                                <path d="M14.7993797,111.930584 C14.7993797,112.536071 14.3000332,113.026592 13.685213,113.026592 C13.0688322,113.026592 12.5694858,112.536071 12.5694858,111.930584 C12.5694858,111.325098 13.0688322,110.83611 13.685213,110.83611 C14.3000332,110.83611 14.7993797,111.325098 14.7993797,111.930584" id="Path"></path>
                                <path d="M26.869519,111.930584 C26.869519,112.536071 26.3717331,113.026592 25.7553523,113.026592 C25.1389716,113.026592 24.6396252,112.536071 24.6396252,111.930584 C24.6396252,111.325098 25.1389716,110.83611 25.7553523,110.83611 C26.3717331,110.83611 26.869519,111.325098 26.869519,111.930584" id="Path"></path>
                                <path d="M38.9412189,111.930584 C38.9412189,112.536071 38.440312,113.026592 37.8254917,113.026592 C37.209111,113.026592 36.711325,112.536071 36.711325,111.930584 C36.711325,111.325098 37.209111,110.83611 37.8254917,110.83611 C38.440312,110.83611 38.9412189,111.325098 38.9412189,111.930584" id="Path"></path>
                                <path d="M51.0113582,111.930584 C51.0113582,112.536071 50.5120118,113.026592 49.8956311,113.026592 C49.2808108,113.026592 48.7814644,112.536071 48.7814644,111.930584 C48.7814644,111.325098 49.2808108,110.83611 49.8956311,110.83611 C50.5120118,110.83611 51.0113582,111.325098 51.0113582,111.930584" id="Path"></path>
                                <path d="M63.0814976,111.930584 C63.0814976,112.536071 62.5821512,113.026592 61.9673309,113.026592 C61.3509502,113.026592 60.8516037,112.536071 60.8516037,111.930584 C60.8516037,111.325098 61.3509502,110.83611 61.9673309,110.83611 C62.5821512,110.83611 63.0814976,111.325098 63.0814976,111.930584" id="Path"></path>
                                <path d="M75.151637,111.930584 C75.151637,112.536071 74.6522905,113.026592 74.0374703,113.026592 C73.4210895,113.026592 72.9217431,112.536071 72.9217431,111.930584 C72.9217431,111.325098 73.4210895,110.83611 74.0374703,110.83611 C74.6522905,110.83611 75.151637,111.325098 75.151637,111.930584" id="Path"></path>
                                <path d="M87.2217763,111.930584 C87.2217763,112.536071 86.7239904,113.026592 86.1076096,113.026592 C85.4927893,113.026592 84.9918825,112.536071 84.9918825,111.930584 C84.9918825,111.325098 85.4927893,110.83611 86.1076096,110.83611 C86.7239904,110.83611 87.2217763,111.325098 87.2217763,111.930584" id="Path"></path>
                                <path d="M99.2934762,111.930584 C99.2934762,112.536071 98.7941297,113.026592 98.177749,113.026592 C97.5613683,113.026592 97.0635823,112.536071 97.0635823,111.930584 C97.0635823,111.325098 97.5613683,110.83611 98.177749,110.83611 C98.7941297,110.83611 99.2934762,111.325098 99.2934762,111.930584" id="Path"></path>
                                <path d="M111.363616,111.930584 C111.363616,112.536071 110.864269,113.026592 110.247888,113.026592 C109.633068,113.026592 109.133722,112.536071 109.133722,111.930584 C109.133722,111.325098 109.633068,110.83611 110.247888,110.83611 C110.864269,110.83611 111.363616,111.325098 111.363616,111.930584" id="Path"></path>
                                <path d="M2.7292403,121.209091 C2.7292403,121.813045 2.22989388,122.305099 1.61351314,122.305099 C0.99869285,122.305099 0.499346425,121.813045 0.499346425,121.209091 C0.499346425,120.603605 0.99869285,120.114617 1.61351314,120.114617 C2.22989388,120.114617 2.7292403,120.603605 2.7292403,121.209091" id="Path"></path>
                                <path d="M14.7993797,121.209091 C14.7993797,121.813045 14.3000332,122.305099 13.685213,122.305099 C13.0688322,122.305099 12.5694858,121.813045 12.5694858,121.209091 C12.5694858,120.603605 13.0688322,120.114617 13.685213,120.114617 C14.3000332,120.114617 14.7993797,120.603605 14.7993797,121.209091" id="Path"></path>
                                <path d="M26.869519,121.209091 C26.869519,121.813045 26.3717331,122.305099 25.7553523,122.305099 C25.1389716,122.305099 24.6396252,121.813045 24.6396252,121.209091 C24.6396252,120.603605 25.1389716,120.114617 25.7553523,120.114617 C26.3717331,120.114617 26.869519,120.603605 26.869519,121.209091" id="Path"></path>
                                <path d="M38.9412189,121.209091 C38.9412189,121.813045 38.440312,122.305099 37.8254917,122.305099 C37.209111,122.305099 36.711325,121.813045 36.711325,121.209091 C36.711325,120.603605 37.209111,120.114617 37.8254917,120.114617 C38.440312,120.114617 38.9412189,120.603605 38.9412189,121.209091" id="Path"></path>
                                <path d="M51.0113582,121.209091 C51.0113582,121.813045 50.5120118,122.305099 49.8956311,122.305099 C49.2808108,122.305099 48.7814644,121.813045 48.7814644,121.209091 C48.7814644,120.603605 49.2808108,120.114617 49.8956311,120.114617 C50.5120118,120.114617 51.0113582,120.603605 51.0113582,121.209091" id="Path"></path>
                                <path d="M63.0814976,121.209091 C63.0814976,121.813045 62.5821512,122.305099 61.9673309,122.305099 C61.3509502,122.305099 60.8516037,121.813045 60.8516037,121.209091 C60.8516037,120.603605 61.3509502,120.114617 61.9673309,120.114617 C62.5821512,120.114617 63.0814976,120.603605 63.0814976,121.209091" id="Path"></path>
                                <path d="M75.151637,121.209091 C75.151637,121.813045 74.6522905,122.305099 74.0374703,122.305099 C73.4210895,122.305099 72.9217431,121.813045 72.9217431,121.209091 C72.9217431,120.603605 73.4210895,120.114617 74.0374703,120.114617 C74.6522905,120.114617 75.151637,120.603605 75.151637,121.209091" id="Path"></path>
                                <path d="M87.2217763,121.209091 C87.2217763,121.813045 86.7239904,122.305099 86.1076096,122.305099 C85.4927893,122.305099 84.9918825,121.813045 84.9918825,121.209091 C84.9918825,120.603605 85.4927893,120.114617 86.1076096,120.114617 C86.7239904,120.114617 87.2217763,120.603605 87.2217763,121.209091" id="Path"></path>
                                <path d="M99.2934762,121.209091 C99.2934762,121.813045 98.7941297,122.305099 98.177749,122.305099 C97.5613683,122.305099 97.0635823,121.813045 97.0635823,121.209091 C97.0635823,120.603605 97.5613683,120.114617 98.177749,120.114617 C98.7941297,120.114617 99.2934762,120.603605 99.2934762,121.209091" id="Path"></path>
                                <path d="M111.363616,121.209091 C111.363616,121.813045 110.864269,122.305099 110.247888,122.305099 C109.633068,122.305099 109.133722,121.813045 109.133722,121.209091 C109.133722,120.603605 109.633068,120.114617 110.247888,120.114617 C110.864269,120.114617 111.363616,120.603605 111.363616,121.209091" id="Path"></path>
                                <path d="M2.7292403,130.486065 C2.7292403,131.091552 2.22989388,131.582073 1.61351314,131.582073 C0.99869285,131.582073 0.499346425,131.091552 0.499346425,130.486065 C0.499346425,129.882111 0.99869285,129.391591 1.61351314,129.391591 C2.22989388,129.391591 2.7292403,129.882111 2.7292403,130.486065" id="Path"></path>
                                <path d="M14.7993797,130.486065 C14.7993797,131.091552 14.3000332,131.582073 13.685213,131.582073 C13.0688322,131.582073 12.5694858,131.091552 12.5694858,130.486065 C12.5694858,129.882111 13.0688322,129.391591 13.685213,129.391591 C14.3000332,129.391591 14.7993797,129.882111 14.7993797,130.486065" id="Path"></path>
                                <path d="M26.869519,130.486065 C26.869519,131.091552 26.3717331,131.582073 25.7553523,131.582073 C25.1389716,131.582073 24.6396252,131.091552 24.6396252,130.486065 C24.6396252,129.882111 25.1389716,129.391591 25.7553523,129.391591 C26.3717331,129.391591 26.869519,129.882111 26.869519,130.486065" id="Path"></path>
                                <path d="M38.9412189,130.486065 C38.9412189,131.091552 38.440312,131.582073 37.8254917,131.582073 C37.209111,131.582073 36.711325,131.091552 36.711325,130.486065 C36.711325,129.882111 37.209111,129.391591 37.8254917,129.391591 C38.440312,129.391591 38.9412189,129.882111 38.9412189,130.486065" id="Path"></path>
                                <path d="M51.0113582,130.486065 C51.0113582,131.091552 50.5120118,131.582073 49.8956311,131.582073 C49.2808108,131.582073 48.7814644,131.091552 48.7814644,130.486065 C48.7814644,129.882111 49.2808108,129.391591 49.8956311,129.391591 C50.5120118,129.391591 51.0113582,129.882111 51.0113582,130.486065" id="Path"></path>
                                <path d="M63.0814976,130.486065 C63.0814976,131.091552 62.5821512,131.582073 61.9673309,131.582073 C61.3509502,131.582073 60.8516037,131.091552 60.8516037,130.486065 C60.8516037,129.882111 61.3509502,129.391591 61.9673309,129.391591 C62.5821512,129.391591 63.0814976,129.882111 63.0814976,130.486065" id="Path"></path>
                                <path d="M75.151637,130.486065 C75.151637,131.091552 74.6522905,131.582073 74.0374703,131.582073 C73.4210895,131.582073 72.9217431,131.091552 72.9217431,130.486065 C72.9217431,129.882111 73.4210895,129.391591 74.0374703,129.391591 C74.6522905,129.391591 75.151637,129.882111 75.151637,130.486065" id="Path"></path>
                                <path d="M87.2217763,130.486065 C87.2217763,131.091552 86.7239904,131.582073 86.1076096,131.582073 C85.4927893,131.582073 84.9918825,131.091552 84.9918825,130.486065 C84.9918825,129.882111 85.4927893,129.391591 86.1076096,129.391591 C86.7239904,129.391591 87.2217763,129.882111 87.2217763,130.486065" id="Path"></path>
                                <path d="M99.2934762,130.486065 C99.2934762,131.091552 98.7941297,131.582073 98.177749,131.582073 C97.5613683,131.582073 97.0635823,131.091552 97.0635823,130.486065 C97.0635823,129.882111 97.5613683,129.391591 98.177749,129.391591 C98.7941297,129.391591 99.2934762,129.882111 99.2934762,130.486065" id="Path"></path>
                                <path d="M111.363616,130.486065 C111.363616,131.091552 110.864269,131.582073 110.247888,131.582073 C109.633068,131.582073 109.133722,131.091552 109.133722,130.486065 C109.133722,129.882111 109.633068,129.391591 110.247888,129.391591 C110.864269,129.391591 111.363616,129.882111 111.363616,130.486065" id="Path"></path>
                                <path d="M2.7292403,139.764572 C2.7292403,140.370059 2.22989388,140.860579 1.61351314,140.860579 C0.99869285,140.860579 0.499346425,140.370059 0.499346425,139.764572 C0.499346425,139.159086 0.99869285,138.670098 1.61351314,138.670098 C2.22989388,138.670098 2.7292403,139.159086 2.7292403,139.764572" id="Path"></path>
                                <path d="M14.7993797,139.764572 C14.7993797,140.370059 14.3000332,140.860579 13.685213,140.860579 C13.0688322,140.860579 12.5694858,140.370059 12.5694858,139.764572 C12.5694858,139.159086 13.0688322,138.670098 13.685213,138.670098 C14.3000332,138.670098 14.7993797,139.159086 14.7993797,139.764572" id="Path"></path>
                                <path d="M26.869519,139.764572 C26.869519,140.370059 26.3717331,140.860579 25.7553523,140.860579 C25.1389716,140.860579 24.6396252,140.370059 24.6396252,139.764572 C24.6396252,139.159086 25.1389716,138.670098 25.7553523,138.670098 C26.3717331,138.670098 26.869519,139.159086 26.869519,139.764572" id="Path"></path>
                                <path d="M38.9412189,139.764572 C38.9412189,140.370059 38.440312,140.860579 37.8254917,140.860579 C37.209111,140.860579 36.711325,140.370059 36.711325,139.764572 C36.711325,139.159086 37.209111,138.670098 37.8254917,138.670098 C38.440312,138.670098 38.9412189,139.159086 38.9412189,139.764572" id="Path"></path>
                                <path d="M51.0113582,139.764572 C51.0113582,140.370059 50.5120118,140.860579 49.8956311,140.860579 C49.2808108,140.860579 48.7814644,140.370059 48.7814644,139.764572 C48.7814644,139.159086 49.2808108,138.670098 49.8956311,138.670098 C50.5120118,138.670098 51.0113582,139.159086 51.0113582,139.764572" id="Path"></path>
                                <path d="M63.0814976,139.764572 C63.0814976,140.370059 62.5821512,140.860579 61.9673309,140.860579 C61.3509502,140.860579 60.8516037,140.370059 60.8516037,139.764572 C60.8516037,139.159086 61.3509502,138.670098 61.9673309,138.670098 C62.5821512,138.670098 63.0814976,139.159086 63.0814976,139.764572" id="Path"></path>
                                <path d="M75.151637,139.764572 C75.151637,140.370059 74.6522905,140.860579 74.0374703,140.860579 C73.4210895,140.860579 72.9217431,140.370059 72.9217431,139.764572 C72.9217431,139.159086 73.4210895,138.670098 74.0374703,138.670098 C74.6522905,138.670098 75.151637,139.159086 75.151637,139.764572" id="Path"></path>
                                <path d="M87.2217763,139.764572 C87.2217763,140.370059 86.7239904,140.860579 86.1076096,140.860579 C85.4927893,140.860579 84.9918825,140.370059 84.9918825,139.764572 C84.9918825,139.159086 85.4927893,138.670098 86.1076096,138.670098 C86.7239904,138.670098 87.2217763,139.159086 87.2217763,139.764572" id="Path"></path>
                                <path d="M99.2934762,139.764572 C99.2934762,140.370059 98.7941297,140.860579 98.177749,140.860579 C97.5613683,140.860579 97.0635823,140.370059 97.0635823,139.764572 C97.0635823,139.159086 97.5613683,138.670098 98.177749,138.670098 C98.7941297,138.670098 99.2934762,139.159086 99.2934762,139.764572" id="Path"></path>
                                <path d="M111.363616,139.764572 C111.363616,140.370059 110.864269,140.860579 110.247888,140.860579 C109.633068,140.860579 109.133722,140.370059 109.133722,139.764572 C109.133722,139.159086 109.633068,138.670098 110.247888,138.670098 C110.864269,138.670098 111.363616,139.159086 111.363616,139.764572" id="Path"></path>
                            </g>
                            <g id="Group" opacity="0.300003" transform="translate(30.211766, 88.564706)" fill="#FFC916">
                                <path d="M2.36866232,1.5835476 C2.36866232,2.24559152 1.84124549,2.78310814 1.19164119,2.78310814 C0.542036883,2.78310814 0.0146200556,2.24559152 0.0146200556,1.5835476 C0.0146200556,0.921503676 0.542036883,0.385563356 1.19164119,0.385563356 C1.84124549,0.385563356 2.36866232,0.921503676 2.36866232,1.5835476" id="Path"></path>
                                <path d="M15.104,1.5835476 C15.104,2.24559152 14.5781299,2.78310814 13.9269789,2.78310814 C13.2773746,2.78310814 12.7499578,2.24559152 12.7499578,1.5835476 C12.7499578,0.921503676 13.2773746,0.385563356 13.9269789,0.385563356 C14.5781299,0.385563356 15.104,0.921503676 15.104,1.5835476" id="Path"></path>
                                <path d="M27.8393377,1.5835476 C27.8393377,2.24559152 27.3134676,2.78310814 26.6623166,2.78310814 C26.014259,2.78310814 25.4868422,2.24559152 25.4868422,1.5835476 C25.4868422,0.921503676 26.014259,0.385563356 26.6623166,0.385563356 C27.3134676,0.385563356 27.8393377,0.921503676 27.8393377,1.5835476" id="Path"></path>
                                <path d="M40.5746754,1.5835476 C40.5746754,2.24559152 40.0488053,2.78310814 39.399201,2.78310814 C38.7495967,2.78310814 38.2221799,2.24559152 38.2221799,1.5835476 C38.2221799,0.921503676 38.7495967,0.385563356 39.399201,0.385563356 C40.0488053,0.385563356 40.5746754,0.921503676 40.5746754,1.5835476" id="Path"></path>
                                <path d="M53.3115598,1.5835476 C53.3115598,2.24559152 52.784143,2.78310814 52.1345387,2.78310814 C51.4849344,2.78310814 50.9590642,2.24559152 50.9590642,1.5835476 C50.9590642,0.921503676 51.4849344,0.385563356 52.1345387,0.385563356 C52.784143,0.385563356 53.3115598,0.921503676 53.3115598,1.5835476" id="Path"></path>
                                <path d="M66.0468975,1.5835476 C66.0468975,2.24559152 65.5210274,2.78310814 64.8698764,2.78310814 C64.2218188,2.78310814 63.694402,2.24559152 63.694402,1.5835476 C63.694402,0.921503676 64.2218188,0.385563356 64.8698764,0.385563356 C65.5210274,0.385563356 66.0468975,0.921503676 66.0468975,1.5835476" id="Path"></path>
                                <path d="M78.7822353,1.5835476 C78.7822353,2.24559152 78.2563651,2.78310814 77.6067608,2.78310814 C76.9571565,2.78310814 76.4297397,2.24559152 76.4297397,1.5835476 C76.4297397,0.921503676 76.9571565,0.385563356 77.6067608,0.385563356 C78.2563651,0.385563356 78.7822353,0.921503676 78.7822353,1.5835476" id="Path"></path>
                                <path d="M91.5191196,1.5835476 C91.5191196,2.24559152 90.9917028,2.78310814 90.3420985,2.78310814 C89.6924942,2.78310814 89.1666241,2.24559152 89.1666241,1.5835476 C89.1666241,0.921503676 89.6924942,0.385563356 90.3420985,0.385563356 C90.9917028,0.385563356 91.5191196,0.921503676 91.5191196,1.5835476" id="Path"></path>
                                <path d="M104.254457,1.5835476 C104.254457,2.24559152 103.728587,2.78310814 103.077436,2.78310814 C102.429379,2.78310814 101.901962,2.24559152 101.901962,1.5835476 C101.901962,0.921503676 102.429379,0.385563356 103.077436,0.385563356 C103.728587,0.385563356 104.254457,0.921503676 104.254457,1.5835476" id="Path"></path>
                                <path d="M116.989795,1.5835476 C116.989795,2.24559152 116.463925,2.78310814 115.814321,2.78310814 C115.164716,2.78310814 114.637299,2.24559152 114.637299,1.5835476 C114.637299,0.921503676 115.164716,0.385563356 115.814321,0.385563356 C116.463925,0.385563356 116.989795,0.921503676 116.989795,1.5835476" id="Path"></path>
                                <path d="M2.36866232,11.741193 C2.36866232,12.4016606 1.84124549,12.9391772 1.19164119,12.9391772 C0.542036883,12.9391772 0.0146200556,12.4016606 0.0146200556,11.741193 C0.0146200556,11.079149 0.542036883,10.5416324 1.19164119,10.5416324 C1.84124549,10.5416324 2.36866232,11.079149 2.36866232,11.741193" id="Path"></path>
                                <path d="M15.104,11.741193 C15.104,12.4016606 14.5781299,12.9391772 13.9269789,12.9391772 C13.2773746,12.9391772 12.7499578,12.4016606 12.7499578,11.741193 C12.7499578,11.079149 13.2773746,10.5416324 13.9269789,10.5416324 C14.5781299,10.5416324 15.104,11.079149 15.104,11.741193" id="Path"></path>
                                <path d="M27.8393377,11.741193 C27.8393377,12.4016606 27.3134676,12.9391772 26.6623166,12.9391772 C26.014259,12.9391772 25.4868422,12.4016606 25.4868422,11.741193 C25.4868422,11.079149 26.014259,10.5416324 26.6623166,10.5416324 C27.3134676,10.5416324 27.8393377,11.079149 27.8393377,11.741193" id="Path"></path>
                                <path d="M40.5746754,11.741193 C40.5746754,12.4016606 40.0488053,12.9391772 39.399201,12.9391772 C38.7495967,12.9391772 38.2221799,12.4016606 38.2221799,11.741193 C38.2221799,11.079149 38.7495967,10.5416324 39.399201,10.5416324 C40.0488053,10.5416324 40.5746754,11.079149 40.5746754,11.741193" id="Path"></path>
                                <path d="M53.3115598,11.741193 C53.3115598,12.4016606 52.784143,12.9391772 52.1345387,12.9391772 C51.4849344,12.9391772 50.9590642,12.4016606 50.9590642,11.741193 C50.9590642,11.079149 51.4849344,10.5416324 52.1345387,10.5416324 C52.784143,10.5416324 53.3115598,11.079149 53.3115598,11.741193" id="Path"></path>
                                <path d="M66.0468975,11.741193 C66.0468975,12.4016606 65.5210274,12.9391772 64.8698764,12.9391772 C64.2218188,12.9391772 63.694402,12.4016606 63.694402,11.741193 C63.694402,11.079149 64.2218188,10.5416324 64.8698764,10.5416324 C65.5210274,10.5416324 66.0468975,11.079149 66.0468975,11.741193" id="Path"></path>
                                <path d="M78.7822353,11.741193 C78.7822353,12.4016606 78.2563651,12.9391772 77.6067608,12.9391772 C76.9571565,12.9391772 76.4297397,12.4016606 76.4297397,11.741193 C76.4297397,11.079149 76.9571565,10.5416324 77.6067608,10.5416324 C78.2563651,10.5416324 78.7822353,11.079149 78.7822353,11.741193" id="Path"></path>
                                <path d="M91.5191196,11.741193 C91.5191196,12.4016606 90.9917028,12.9391772 90.3420985,12.9391772 C89.6924942,12.9391772 89.1666241,12.4016606 89.1666241,11.741193 C89.1666241,11.079149 89.6924942,10.5416324 90.3420985,10.5416324 C90.9917028,10.5416324 91.5191196,11.079149 91.5191196,11.741193" id="Path"></path>
                                <path d="M104.254457,11.741193 C104.254457,12.4016606 103.728587,12.9391772 103.077436,12.9391772 C102.429379,12.9391772 101.901962,12.4016606 101.901962,11.741193 C101.901962,11.079149 102.429379,10.5416324 103.077436,10.5416324 C103.728587,10.5416324 104.254457,11.079149 104.254457,11.741193" id="Path"></path>
                                <path d="M116.989795,11.741193 C116.989795,12.4016606 116.463925,12.9391772 115.814321,12.9391772 C115.164716,12.9391772 114.637299,12.4016606 114.637299,11.741193 C114.637299,11.079149 115.164716,10.5416324 115.814321,10.5416324 C116.463925,10.5416324 116.989795,11.079149 116.989795,11.741193" id="Path"></path>
                                <path d="M2.36866232,21.897262 C2.36866232,22.5593059 1.84124549,23.0952463 1.19164119,23.0952463 C0.542036883,23.0952463 0.0146200556,22.5593059 0.0146200556,21.897262 C0.0146200556,21.2352181 0.542036883,20.6977015 1.19164119,20.6977015 C1.84124549,20.6977015 2.36866232,21.2352181 2.36866232,21.897262" id="Path"></path>
                                <path d="M15.104,21.897262 C15.104,22.5593059 14.5781299,23.0952463 13.9269789,23.0952463 C13.2773746,23.0952463 12.7499578,22.5593059 12.7499578,21.897262 C12.7499578,21.2352181 13.2773746,20.6977015 13.9269789,20.6977015 C14.5781299,20.6977015 15.104,21.2352181 15.104,21.897262" id="Path"></path>
                                <path d="M27.8393377,21.897262 C27.8393377,22.5593059 27.3134676,23.0952463 26.6623166,23.0952463 C26.014259,23.0952463 25.4868422,22.5593059 25.4868422,21.897262 C25.4868422,21.2352181 26.014259,20.6977015 26.6623166,20.6977015 C27.3134676,20.6977015 27.8393377,21.2352181 27.8393377,21.897262" id="Path"></path>
                                <path d="M40.5746754,21.897262 C40.5746754,22.5593059 40.0488053,23.0952463 39.399201,23.0952463 C38.7495967,23.0952463 38.2221799,22.5593059 38.2221799,21.897262 C38.2221799,21.2352181 38.7495967,20.6977015 39.399201,20.6977015 C40.0488053,20.6977015 40.5746754,21.2352181 40.5746754,21.897262" id="Path"></path>
                                <path d="M53.3115598,21.897262 C53.3115598,22.5593059 52.784143,23.0952463 52.1345387,23.0952463 C51.4849344,23.0952463 50.9590642,22.5593059 50.9590642,21.897262 C50.9590642,21.2352181 51.4849344,20.6977015 52.1345387,20.6977015 C52.784143,20.6977015 53.3115598,21.2352181 53.3115598,21.897262" id="Path"></path>
                                <path d="M66.0468975,21.897262 C66.0468975,22.5593059 65.5210274,23.0952463 64.8698764,23.0952463 C64.2218188,23.0952463 63.694402,22.5593059 63.694402,21.897262 C63.694402,21.2352181 64.2218188,20.6977015 64.8698764,20.6977015 C65.5210274,20.6977015 66.0468975,21.2352181 66.0468975,21.897262" id="Path"></path>
                                <path d="M78.7822353,21.897262 C78.7822353,22.5593059 78.2563651,23.0952463 77.6067608,23.0952463 C76.9571565,23.0952463 76.4297397,22.5593059 76.4297397,21.897262 C76.4297397,21.2352181 76.9571565,20.6977015 77.6067608,20.6977015 C78.2563651,20.6977015 78.7822353,21.2352181 78.7822353,21.897262" id="Path"></path>
                                <path d="M91.5191196,21.897262 C91.5191196,22.5593059 90.9917028,23.0952463 90.3420985,23.0952463 C89.6924942,23.0952463 89.1666241,22.5593059 89.1666241,21.897262 C89.1666241,21.2352181 89.6924942,20.6977015 90.3420985,20.6977015 C90.9917028,20.6977015 91.5191196,21.2352181 91.5191196,21.897262" id="Path"></path>
                                <path d="M104.254457,21.897262 C104.254457,22.5593059 103.728587,23.0952463 103.077436,23.0952463 C102.429379,23.0952463 101.901962,22.5593059 101.901962,21.897262 C101.901962,21.2352181 102.429379,20.6977015 103.077436,20.6977015 C103.728587,20.6977015 104.254457,21.2352181 104.254457,21.897262" id="Path"></path>
                                <path d="M116.989795,21.897262 C116.989795,22.5593059 116.463925,23.0952463 115.814321,23.0952463 C115.164716,23.0952463 114.637299,22.5593059 114.637299,21.897262 C114.637299,21.2352181 115.164716,20.6977015 115.814321,20.6977015 C116.463925,20.6977015 116.989795,21.2352181 116.989795,21.897262" id="Path"></path>
                                <path d="M2.36866232,32.0533311 C2.36866232,32.715375 1.84124549,33.2528916 1.19164119,33.2528916 C0.542036883,33.2528916 0.0146200556,32.715375 0.0146200556,32.0533311 C0.0146200556,31.3912872 0.542036883,30.8537705 1.19164119,30.8537705 C1.84124549,30.8537705 2.36866232,31.3912872 2.36866232,32.0533311" id="Path"></path>
                                <path d="M15.104,32.0533311 C15.104,32.715375 14.5781299,33.2528916 13.9269789,33.2528916 C13.2773746,33.2528916 12.7499578,32.715375 12.7499578,32.0533311 C12.7499578,31.3912872 13.2773746,30.8537705 13.9269789,30.8537705 C14.5781299,30.8537705 15.104,31.3912872 15.104,32.0533311" id="Path"></path>
                                <path d="M27.8393377,32.0533311 C27.8393377,32.715375 27.3134676,33.2528916 26.6623166,33.2528916 C26.014259,33.2528916 25.4868422,32.715375 25.4868422,32.0533311 C25.4868422,31.3912872 26.014259,30.8537705 26.6623166,30.8537705 C27.3134676,30.8537705 27.8393377,31.3912872 27.8393377,32.0533311" id="Path"></path>
                                <path d="M40.5746754,32.0533311 C40.5746754,32.715375 40.0488053,33.2528916 39.399201,33.2528916 C38.7495967,33.2528916 38.2221799,32.715375 38.2221799,32.0533311 C38.2221799,31.3912872 38.7495967,30.8537705 39.399201,30.8537705 C40.0488053,30.8537705 40.5746754,31.3912872 40.5746754,32.0533311" id="Path"></path>
                                <path d="M53.3115598,32.0533311 C53.3115598,32.715375 52.784143,33.2528916 52.1345387,33.2528916 C51.4849344,33.2528916 50.9590642,32.715375 50.9590642,32.0533311 C50.9590642,31.3912872 51.4849344,30.8537705 52.1345387,30.8537705 C52.784143,30.8537705 53.3115598,31.3912872 53.3115598,32.0533311" id="Path"></path>
                                <path d="M66.0468975,32.0533311 C66.0468975,32.715375 65.5210274,33.2528916 64.8698764,33.2528916 C64.2218188,33.2528916 63.694402,32.715375 63.694402,32.0533311 C63.694402,31.3912872 64.2218188,30.8537705 64.8698764,30.8537705 C65.5210274,30.8537705 66.0468975,31.3912872 66.0468975,32.0533311" id="Path"></path>
                                <path d="M78.7822353,32.0533311 C78.7822353,32.715375 78.2563651,33.2528916 77.6067608,33.2528916 C76.9571565,33.2528916 76.4297397,32.715375 76.4297397,32.0533311 C76.4297397,31.3912872 76.9571565,30.8537705 77.6067608,30.8537705 C78.2563651,30.8537705 78.7822353,31.3912872 78.7822353,32.0533311" id="Path"></path>
                                <path d="M91.5191196,32.0533311 C91.5191196,32.715375 90.9917028,33.2528916 90.3420985,33.2528916 C89.6924942,33.2528916 89.1666241,32.715375 89.1666241,32.0533311 C89.1666241,31.3912872 89.6924942,30.8537705 90.3420985,30.8537705 C90.9917028,30.8537705 91.5191196,31.3912872 91.5191196,32.0533311" id="Path"></path>
                                <path d="M104.254457,32.0533311 C104.254457,32.715375 103.728587,33.2528916 103.077436,33.2528916 C102.429379,33.2528916 101.901962,32.715375 101.901962,32.0533311 C101.901962,31.3912872 102.429379,30.8537705 103.077436,30.8537705 C103.728587,30.8537705 104.254457,31.3912872 104.254457,32.0533311" id="Path"></path>
                                <path d="M116.989795,32.0533311 C116.989795,32.715375 116.463925,33.2528916 115.814321,33.2528916 C115.164716,33.2528916 114.637299,32.715375 114.637299,32.0533311 C114.637299,31.3912872 115.164716,30.8537705 115.814321,30.8537705 C116.463925,30.8537705 116.989795,31.3912872 116.989795,32.0533311" id="Path"></path>
                                <path d="M2.36866232,42.2109764 C2.36866232,42.8714441 1.84124549,43.4089607 1.19164119,43.4089607 C0.542036883,43.4089607 0.0146200556,42.8714441 0.0146200556,42.2109764 C0.0146200556,41.5473562 0.542036883,41.0098396 1.19164119,41.0098396 C1.84124549,41.0098396 2.36866232,41.5473562 2.36866232,42.2109764" id="Path"></path>
                                <path d="M15.104,42.2109764 C15.104,42.8714441 14.5781299,43.4089607 13.9269789,43.4089607 C13.2773746,43.4089607 12.7499578,42.8714441 12.7499578,42.2109764 C12.7499578,41.5473562 13.2773746,41.0098396 13.9269789,41.0098396 C14.5781299,41.0098396 15.104,41.5473562 15.104,42.2109764" id="Path"></path>
                                <path d="M27.8393377,42.2109764 C27.8393377,42.8714441 27.3134676,43.4089607 26.6623166,43.4089607 C26.014259,43.4089607 25.4868422,42.8714441 25.4868422,42.2109764 C25.4868422,41.5473562 26.014259,41.0098396 26.6623166,41.0098396 C27.3134676,41.0098396 27.8393377,41.5473562 27.8393377,42.2109764" id="Path"></path>
                                <path d="M40.5746754,42.2109764 C40.5746754,42.8714441 40.0488053,43.4089607 39.399201,43.4089607 C38.7495967,43.4089607 38.2221799,42.8714441 38.2221799,42.2109764 C38.2221799,41.5473562 38.7495967,41.0098396 39.399201,41.0098396 C40.0488053,41.0098396 40.5746754,41.5473562 40.5746754,42.2109764" id="Path"></path>
                                <path d="M53.3115598,42.2109764 C53.3115598,42.8714441 52.784143,43.4089607 52.1345387,43.4089607 C51.4849344,43.4089607 50.9590642,42.8714441 50.9590642,42.2109764 C50.9590642,41.5473562 51.4849344,41.0098396 52.1345387,41.0098396 C52.784143,41.0098396 53.3115598,41.5473562 53.3115598,42.2109764" id="Path"></path>
                                <path d="M66.0468975,42.2109764 C66.0468975,42.8714441 65.5210274,43.4089607 64.8698764,43.4089607 C64.2218188,43.4089607 63.694402,42.8714441 63.694402,42.2109764 C63.694402,41.5473562 64.2218188,41.0098396 64.8698764,41.0098396 C65.5210274,41.0098396 66.0468975,41.5473562 66.0468975,42.2109764" id="Path"></path>
                                <path d="M78.7822353,42.2109764 C78.7822353,42.8714441 78.2563651,43.4089607 77.6067608,43.4089607 C76.9571565,43.4089607 76.4297397,42.8714441 76.4297397,42.2109764 C76.4297397,41.5473562 76.9571565,41.0098396 77.6067608,41.0098396 C78.2563651,41.0098396 78.7822353,41.5473562 78.7822353,42.2109764" id="Path"></path>
                                <path d="M91.5191196,42.2109764 C91.5191196,42.8714441 90.9917028,43.4089607 90.3420985,43.4089607 C89.6924942,43.4089607 89.1666241,42.8714441 89.1666241,42.2109764 C89.1666241,41.5473562 89.6924942,41.0098396 90.3420985,41.0098396 C90.9917028,41.0098396 91.5191196,41.5473562 91.5191196,42.2109764" id="Path"></path>
                                <path d="M104.254457,42.2109764 C104.254457,42.8714441 103.728587,43.4089607 103.077436,43.4089607 C102.429379,43.4089607 101.901962,42.8714441 101.901962,42.2109764 C101.901962,41.5473562 102.429379,41.0098396 103.077436,41.0098396 C103.728587,41.0098396 104.254457,41.5473562 104.254457,42.2109764" id="Path"></path>
                                <path d="M116.989795,42.2109764 C116.989795,42.8714441 116.463925,43.4089607 115.814321,43.4089607 C115.164716,43.4089607 114.637299,42.8714441 114.637299,42.2109764 C114.637299,41.5473562 115.164716,41.0098396 115.814321,41.0098396 C116.463925,41.0098396 116.989795,41.5473562 116.989795,42.2109764" id="Path"></path>
                                <path d="M2.36866232,52.3670455 C2.36866232,53.0290894 1.84124549,53.566606 1.19164119,53.566606 C0.542036883,53.566606 0.0146200556,53.0290894 0.0146200556,52.3670455 C0.0146200556,51.7034253 0.542036883,51.167485 1.19164119,51.167485 C1.84124549,51.167485 2.36866232,51.7034253 2.36866232,52.3670455" id="Path"></path>
                                <path d="M15.104,52.3670455 C15.104,53.0290894 14.5781299,53.566606 13.9269789,53.566606 C13.2773746,53.566606 12.7499578,53.0290894 12.7499578,52.3670455 C12.7499578,51.7034253 13.2773746,51.167485 13.9269789,51.167485 C14.5781299,51.167485 15.104,51.7034253 15.104,52.3670455" id="Path"></path>
                                <path d="M27.8393377,52.3670455 C27.8393377,53.0290894 27.3134676,53.566606 26.6623166,53.566606 C26.014259,53.566606 25.4868422,53.0290894 25.4868422,52.3670455 C25.4868422,51.7034253 26.014259,51.167485 26.6623166,51.167485 C27.3134676,51.167485 27.8393377,51.7034253 27.8393377,52.3670455" id="Path"></path>
                                <path d="M40.5746754,52.3670455 C40.5746754,53.0290894 40.0488053,53.566606 39.399201,53.566606 C38.7495967,53.566606 38.2221799,53.0290894 38.2221799,52.3670455 C38.2221799,51.7034253 38.7495967,51.167485 39.399201,51.167485 C40.0488053,51.167485 40.5746754,51.7034253 40.5746754,52.3670455" id="Path"></path>
                                <path d="M53.3115598,52.3670455 C53.3115598,53.0290894 52.784143,53.566606 52.1345387,53.566606 C51.4849344,53.566606 50.9590642,53.0290894 50.9590642,52.3670455 C50.9590642,51.7034253 51.4849344,51.167485 52.1345387,51.167485 C52.784143,51.167485 53.3115598,51.7034253 53.3115598,52.3670455" id="Path"></path>
                                <path d="M66.0468975,52.3670455 C66.0468975,53.0290894 65.5210274,53.566606 64.8698764,53.566606 C64.2218188,53.566606 63.694402,53.0290894 63.694402,52.3670455 C63.694402,51.7034253 64.2218188,51.167485 64.8698764,51.167485 C65.5210274,51.167485 66.0468975,51.7034253 66.0468975,52.3670455" id="Path"></path>
                                <path d="M78.7822353,52.3670455 C78.7822353,53.0290894 78.2563651,53.566606 77.6067608,53.566606 C76.9571565,53.566606 76.4297397,53.0290894 76.4297397,52.3670455 C76.4297397,51.7034253 76.9571565,51.167485 77.6067608,51.167485 C78.2563651,51.167485 78.7822353,51.7034253 78.7822353,52.3670455" id="Path"></path>
                                <path d="M91.5191196,52.3670455 C91.5191196,53.0290894 90.9917028,53.566606 90.3420985,53.566606 C89.6924942,53.566606 89.1666241,53.0290894 89.1666241,52.3670455 C89.1666241,51.7034253 89.6924942,51.167485 90.3420985,51.167485 C90.9917028,51.167485 91.5191196,51.7034253 91.5191196,52.3670455" id="Path"></path>
                                <path d="M104.254457,52.3670455 C104.254457,53.0290894 103.728587,53.566606 103.077436,53.566606 C102.429379,53.566606 101.901962,53.0290894 101.901962,52.3670455 C101.901962,51.7034253 102.429379,51.167485 103.077436,51.167485 C103.728587,51.167485 104.254457,51.7034253 104.254457,52.3670455" id="Path"></path>
                                <path d="M116.989795,52.3670455 C116.989795,53.0290894 116.463925,53.566606 115.814321,53.566606 C115.164716,53.566606 114.637299,53.0290894 114.637299,52.3670455 C114.637299,51.7034253 115.164716,51.167485 115.814321,51.167485 C116.463925,51.167485 116.989795,51.7034253 116.989795,52.3670455" id="Path"></path>
                                <path d="M2.36866232,62.5231146 C2.36866232,63.1851585 1.84124549,63.7226751 1.19164119,63.7226751 C0.542036883,63.7226751 0.0146200556,63.1851585 0.0146200556,62.5231146 C0.0146200556,61.8610706 0.542036883,61.323554 1.19164119,61.323554 C1.84124549,61.323554 2.36866232,61.8610706 2.36866232,62.5231146" id="Path"></path>
                                <path d="M15.104,62.5231146 C15.104,63.1851585 14.5781299,63.7226751 13.9269789,63.7226751 C13.2773746,63.7226751 12.7499578,63.1851585 12.7499578,62.5231146 C12.7499578,61.8610706 13.2773746,61.323554 13.9269789,61.323554 C14.5781299,61.323554 15.104,61.8610706 15.104,62.5231146" id="Path"></path>
                                <path d="M27.8393377,62.5231146 C27.8393377,63.1851585 27.3134676,63.7226751 26.6623166,63.7226751 C26.014259,63.7226751 25.4868422,63.1851585 25.4868422,62.5231146 C25.4868422,61.8610706 26.014259,61.323554 26.6623166,61.323554 C27.3134676,61.323554 27.8393377,61.8610706 27.8393377,62.5231146" id="Path"></path>
                                <path d="M40.5746754,62.5231146 C40.5746754,63.1851585 40.0488053,63.7226751 39.399201,63.7226751 C38.7495967,63.7226751 38.2221799,63.1851585 38.2221799,62.5231146 C38.2221799,61.8610706 38.7495967,61.323554 39.399201,61.323554 C40.0488053,61.323554 40.5746754,61.8610706 40.5746754,62.5231146" id="Path"></path>
                                <path d="M53.3115598,62.5231146 C53.3115598,63.1851585 52.784143,63.7226751 52.1345387,63.7226751 C51.4849344,63.7226751 50.9590642,63.1851585 50.9590642,62.5231146 C50.9590642,61.8610706 51.4849344,61.323554 52.1345387,61.323554 C52.784143,61.323554 53.3115598,61.8610706 53.3115598,62.5231146" id="Path"></path>
                                <path d="M66.0468975,62.5231146 C66.0468975,63.1851585 65.5210274,63.7226751 64.8698764,63.7226751 C64.2218188,63.7226751 63.694402,63.1851585 63.694402,62.5231146 C63.694402,61.8610706 64.2218188,61.323554 64.8698764,61.323554 C65.5210274,61.323554 66.0468975,61.8610706 66.0468975,62.5231146" id="Path"></path>
                                <path d="M78.7822353,62.5231146 C78.7822353,63.1851585 78.2563651,63.7226751 77.6067608,63.7226751 C76.9571565,63.7226751 76.4297397,63.1851585 76.4297397,62.5231146 C76.4297397,61.8610706 76.9571565,61.323554 77.6067608,61.323554 C78.2563651,61.323554 78.7822353,61.8610706 78.7822353,62.5231146" id="Path"></path>
                                <path d="M91.5191196,62.5231146 C91.5191196,63.1851585 90.9917028,63.7226751 90.3420985,63.7226751 C89.6924942,63.7226751 89.1666241,63.1851585 89.1666241,62.5231146 C89.1666241,61.8610706 89.6924942,61.323554 90.3420985,61.323554 C90.9917028,61.323554 91.5191196,61.8610706 91.5191196,62.5231146" id="Path"></path>
                                <path d="M104.254457,62.5231146 C104.254457,63.1851585 103.728587,63.7226751 103.077436,63.7226751 C102.429379,63.7226751 101.901962,63.1851585 101.901962,62.5231146 C101.901962,61.8610706 102.429379,61.323554 103.077436,61.323554 C103.728587,61.323554 104.254457,61.8610706 104.254457,62.5231146" id="Path"></path>
                                <path d="M116.989795,62.5231146 C116.989795,63.1851585 116.463925,63.7226751 115.814321,63.7226751 C115.164716,63.7226751 114.637299,63.1851585 114.637299,62.5231146 C114.637299,61.8610706 115.164716,61.323554 115.814321,61.323554 C116.463925,61.323554 116.989795,61.8610706 116.989795,62.5231146" id="Path"></path>
                                <path d="M2.36866232,72.6791836 C2.36866232,73.3412275 1.84124549,73.8787442 1.19164119,73.8787442 C0.542036883,73.8787442 0.0146200556,73.3412275 0.0146200556,72.6791836 C0.0146200556,72.0171397 0.542036883,71.4796231 1.19164119,71.4796231 C1.84124549,71.4796231 2.36866232,72.0171397 2.36866232,72.6791836" id="Path"></path>
                                <path d="M15.104,72.6791836 C15.104,73.3412275 14.5781299,73.8787442 13.9269789,73.8787442 C13.2773746,73.8787442 12.7499578,73.3412275 12.7499578,72.6791836 C12.7499578,72.0171397 13.2773746,71.4796231 13.9269789,71.4796231 C14.5781299,71.4796231 15.104,72.0171397 15.104,72.6791836" id="Path"></path>
                                <path d="M27.8393377,72.6791836 C27.8393377,73.3412275 27.3134676,73.8787442 26.6623166,73.8787442 C26.014259,73.8787442 25.4868422,73.3412275 25.4868422,72.6791836 C25.4868422,72.0171397 26.014259,71.4796231 26.6623166,71.4796231 C27.3134676,71.4796231 27.8393377,72.0171397 27.8393377,72.6791836" id="Path"></path>
                                <path d="M40.5746754,72.6791836 C40.5746754,73.3412275 40.0488053,73.8787442 39.399201,73.8787442 C38.7495967,73.8787442 38.2221799,73.3412275 38.2221799,72.6791836 C38.2221799,72.0171397 38.7495967,71.4796231 39.399201,71.4796231 C40.0488053,71.4796231 40.5746754,72.0171397 40.5746754,72.6791836" id="Path"></path>
                                <path d="M53.3115598,72.6791836 C53.3115598,73.3412275 52.784143,73.8787442 52.1345387,73.8787442 C51.4849344,73.8787442 50.9590642,73.3412275 50.9590642,72.6791836 C50.9590642,72.0171397 51.4849344,71.4796231 52.1345387,71.4796231 C52.784143,71.4796231 53.3115598,72.0171397 53.3115598,72.6791836" id="Path"></path>
                                <path d="M66.0468975,72.6791836 C66.0468975,73.3412275 65.5210274,73.8787442 64.8698764,73.8787442 C64.2218188,73.8787442 63.694402,73.3412275 63.694402,72.6791836 C63.694402,72.0171397 64.2218188,71.4796231 64.8698764,71.4796231 C65.5210274,71.4796231 66.0468975,72.0171397 66.0468975,72.6791836" id="Path"></path>
                                <path d="M78.7822353,72.6791836 C78.7822353,73.3412275 78.2563651,73.8787442 77.6067608,73.8787442 C76.9571565,73.8787442 76.4297397,73.3412275 76.4297397,72.6791836 C76.4297397,72.0171397 76.9571565,71.4796231 77.6067608,71.4796231 C78.2563651,71.4796231 78.7822353,72.0171397 78.7822353,72.6791836" id="Path"></path>
                                <path d="M91.5191196,72.6791836 C91.5191196,73.3412275 90.9917028,73.8787442 90.3420985,73.8787442 C89.6924942,73.8787442 89.1666241,73.3412275 89.1666241,72.6791836 C89.1666241,72.0171397 89.6924942,71.4796231 90.3420985,71.4796231 C90.9917028,71.4796231 91.5191196,72.0171397 91.5191196,72.6791836" id="Path"></path>
                                <path d="M104.254457,72.6791836 C104.254457,73.3412275 103.728587,73.8787442 103.077436,73.8787442 C102.429379,73.8787442 101.901962,73.3412275 101.901962,72.6791836 C101.901962,72.0171397 102.429379,71.4796231 103.077436,71.4796231 C103.728587,71.4796231 104.254457,72.0171397 104.254457,72.6791836" id="Path"></path>
                                <path d="M116.989795,72.6791836 C116.989795,73.3412275 116.463925,73.8787442 115.814321,73.8787442 C115.164716,73.8787442 114.637299,73.3412275 114.637299,72.6791836 C114.637299,72.0171397 115.164716,71.4796231 115.814321,71.4796231 C116.463925,71.4796231 116.989795,72.0171397 116.989795,72.6791836" id="Path"></path>
                                <path d="M2.36866232,82.8352527 C2.36866232,83.4988729 1.84124549,84.0348132 1.19164119,84.0348132 C0.542036883,84.0348132 0.0146200556,83.4988729 0.0146200556,82.8352527 C0.0146200556,82.1732087 0.542036883,81.6356921 1.19164119,81.6356921 C1.84124549,81.6356921 2.36866232,82.1732087 2.36866232,82.8352527" id="Path"></path>
                                <path d="M15.104,82.8352527 C15.104,83.4988729 14.5781299,84.0348132 13.9269789,84.0348132 C13.2773746,84.0348132 12.7499578,83.4988729 12.7499578,82.8352527 C12.7499578,82.1732087 13.2773746,81.6356921 13.9269789,81.6356921 C14.5781299,81.6356921 15.104,82.1732087 15.104,82.8352527" id="Path"></path>
                                <path d="M27.8393377,82.8352527 C27.8393377,83.4988729 27.3134676,84.0348132 26.6623166,84.0348132 C26.014259,84.0348132 25.4868422,83.4988729 25.4868422,82.8352527 C25.4868422,82.1732087 26.014259,81.6356921 26.6623166,81.6356921 C27.3134676,81.6356921 27.8393377,82.1732087 27.8393377,82.8352527" id="Path"></path>
                                <path d="M40.5746754,82.8352527 C40.5746754,83.4988729 40.0488053,84.0348132 39.399201,84.0348132 C38.7495967,84.0348132 38.2221799,83.4988729 38.2221799,82.8352527 C38.2221799,82.1732087 38.7495967,81.6356921 39.399201,81.6356921 C40.0488053,81.6356921 40.5746754,82.1732087 40.5746754,82.8352527" id="Path"></path>
                                <path d="M53.3115598,82.8352527 C53.3115598,83.4988729 52.784143,84.0348132 52.1345387,84.0348132 C51.4849344,84.0348132 50.9590642,83.4988729 50.9590642,82.8352527 C50.9590642,82.1732087 51.4849344,81.6356921 52.1345387,81.6356921 C52.784143,81.6356921 53.3115598,82.1732087 53.3115598,82.8352527" id="Path"></path>
                                <path d="M66.0468975,82.8352527 C66.0468975,83.4988729 65.5210274,84.0348132 64.8698764,84.0348132 C64.2218188,84.0348132 63.694402,83.4988729 63.694402,82.8352527 C63.694402,82.1732087 64.2218188,81.6356921 64.8698764,81.6356921 C65.5210274,81.6356921 66.0468975,82.1732087 66.0468975,82.8352527" id="Path"></path>
                                <path d="M78.7822353,82.8352527 C78.7822353,83.4988729 78.2563651,84.0348132 77.6067608,84.0348132 C76.9571565,84.0348132 76.4297397,83.4988729 76.4297397,82.8352527 C76.4297397,82.1732087 76.9571565,81.6356921 77.6067608,81.6356921 C78.2563651,81.6356921 78.7822353,82.1732087 78.7822353,82.8352527" id="Path"></path>
                                <path d="M91.5191196,82.8352527 C91.5191196,83.4988729 90.9917028,84.0348132 90.3420985,84.0348132 C89.6924942,84.0348132 89.1666241,83.4988729 89.1666241,82.8352527 C89.1666241,82.1732087 89.6924942,81.6356921 90.3420985,81.6356921 C90.9917028,81.6356921 91.5191196,82.1732087 91.5191196,82.8352527" id="Path"></path>
                                <path d="M104.254457,82.8352527 C104.254457,83.4988729 103.728587,84.0348132 103.077436,84.0348132 C102.429379,84.0348132 101.901962,83.4988729 101.901962,82.8352527 C101.901962,82.1732087 102.429379,81.6356921 103.077436,81.6356921 C103.728587,81.6356921 104.254457,82.1732087 104.254457,82.8352527" id="Path"></path>
                                <path d="M116.989795,82.8352527 C116.989795,83.4988729 116.463925,84.0348132 115.814321,84.0348132 C115.164716,84.0348132 114.637299,83.4988729 114.637299,82.8352527 C114.637299,82.1732087 115.164716,81.6356921 115.814321,81.6356921 C116.463925,81.6356921 116.989795,82.1732087 116.989795,82.8352527" id="Path"></path>
                                <path d="M2.36866232,92.9913217 C2.36866232,93.654942 1.84124549,94.1908823 1.19164119,94.1908823 C0.542036883,94.1908823 0.0146200556,93.654942 0.0146200556,92.9913217 C0.0146200556,92.3308541 0.542036883,91.7933375 1.19164119,91.7933375 C1.84124549,91.7933375 2.36866232,92.3308541 2.36866232,92.9913217" id="Path"></path>
                                <path d="M15.104,92.9913217 C15.104,93.654942 14.5781299,94.1908823 13.9269789,94.1908823 C13.2773746,94.1908823 12.7499578,93.654942 12.7499578,92.9913217 C12.7499578,92.3308541 13.2773746,91.7933375 13.9269789,91.7933375 C14.5781299,91.7933375 15.104,92.3308541 15.104,92.9913217" id="Path"></path>
                                <path d="M27.8393377,92.9913217 C27.8393377,93.654942 27.3134676,94.1908823 26.6623166,94.1908823 C26.014259,94.1908823 25.4868422,93.654942 25.4868422,92.9913217 C25.4868422,92.3308541 26.014259,91.7933375 26.6623166,91.7933375 C27.3134676,91.7933375 27.8393377,92.3308541 27.8393377,92.9913217" id="Path"></path>
                                <path d="M40.5746754,92.9913217 C40.5746754,93.654942 40.0488053,94.1908823 39.399201,94.1908823 C38.7495967,94.1908823 38.2221799,93.654942 38.2221799,92.9913217 C38.2221799,92.3308541 38.7495967,91.7933375 39.399201,91.7933375 C40.0488053,91.7933375 40.5746754,92.3308541 40.5746754,92.9913217" id="Path"></path>
                                <path d="M53.3115598,92.9913217 C53.3115598,93.654942 52.784143,94.1908823 52.1345387,94.1908823 C51.4849344,94.1908823 50.9590642,93.654942 50.9590642,92.9913217 C50.9590642,92.3308541 51.4849344,91.7933375 52.1345387,91.7933375 C52.784143,91.7933375 53.3115598,92.3308541 53.3115598,92.9913217" id="Path"></path>
                                <path d="M66.0468975,92.9913217 C66.0468975,93.654942 65.5210274,94.1908823 64.8698764,94.1908823 C64.2218188,94.1908823 63.694402,93.654942 63.694402,92.9913217 C63.694402,92.3308541 64.2218188,91.7933375 64.8698764,91.7933375 C65.5210274,91.7933375 66.0468975,92.3308541 66.0468975,92.9913217" id="Path"></path>
                                <path d="M78.7822353,92.9913217 C78.7822353,93.654942 78.2563651,94.1908823 77.6067608,94.1908823 C76.9571565,94.1908823 76.4297397,93.654942 76.4297397,92.9913217 C76.4297397,92.3308541 76.9571565,91.7933375 77.6067608,91.7933375 C78.2563651,91.7933375 78.7822353,92.3308541 78.7822353,92.9913217" id="Path"></path>
                                <path d="M91.5191196,92.9913217 C91.5191196,93.654942 90.9917028,94.1908823 90.3420985,94.1908823 C89.6924942,94.1908823 89.1666241,93.654942 89.1666241,92.9913217 C89.1666241,92.3308541 89.6924942,91.7933375 90.3420985,91.7933375 C90.9917028,91.7933375 91.5191196,92.3308541 91.5191196,92.9913217" id="Path"></path>
                                <path d="M104.254457,92.9913217 C104.254457,93.654942 103.728587,94.1908823 103.077436,94.1908823 C102.429379,94.1908823 101.901962,93.654942 101.901962,92.9913217 C101.901962,92.3308541 102.429379,91.7933375 103.077436,91.7933375 C103.728587,91.7933375 104.254457,92.3308541 104.254457,92.9913217" id="Path"></path>
                                <path d="M116.989795,92.9913217 C116.989795,93.654942 116.463925,94.1908823 115.814321,94.1908823 C115.164716,94.1908823 114.637299,93.654942 114.637299,92.9913217 C114.637299,92.3308541 115.164716,91.7933375 115.814321,91.7933375 C116.463925,91.7933375 116.989795,92.3308541 116.989795,92.9913217" id="Path"></path>
                                <path d="M2.36866232,103.148967 C2.36866232,103.811011 1.84124549,104.348528 1.19164119,104.348528 C0.542036883,104.348528 0.0146200556,103.811011 0.0146200556,103.148967 C0.0146200556,102.486923 0.542036883,101.949407 1.19164119,101.949407 C1.84124549,101.949407 2.36866232,102.486923 2.36866232,103.148967" id="Path"></path>
                                <path d="M15.104,103.148967 C15.104,103.811011 14.5781299,104.348528 13.9269789,104.348528 C13.2773746,104.348528 12.7499578,103.811011 12.7499578,103.148967 C12.7499578,102.486923 13.2773746,101.949407 13.9269789,101.949407 C14.5781299,101.949407 15.104,102.486923 15.104,103.148967" id="Path"></path>
                                <path d="M27.8393377,103.148967 C27.8393377,103.811011 27.3134676,104.348528 26.6623166,104.348528 C26.014259,104.348528 25.4868422,103.811011 25.4868422,103.148967 C25.4868422,102.486923 26.014259,101.949407 26.6623166,101.949407 C27.3134676,101.949407 27.8393377,102.486923 27.8393377,103.148967" id="Path"></path>
                                <path d="M40.5746754,103.148967 C40.5746754,103.811011 40.0488053,104.348528 39.399201,104.348528 C38.7495967,104.348528 38.2221799,103.811011 38.2221799,103.148967 C38.2221799,102.486923 38.7495967,101.949407 39.399201,101.949407 C40.0488053,101.949407 40.5746754,102.486923 40.5746754,103.148967" id="Path"></path>
                                <path d="M53.3115598,103.148967 C53.3115598,103.811011 52.784143,104.348528 52.1345387,104.348528 C51.4849344,104.348528 50.9590642,103.811011 50.9590642,103.148967 C50.9590642,102.486923 51.4849344,101.949407 52.1345387,101.949407 C52.784143,101.949407 53.3115598,102.486923 53.3115598,103.148967" id="Path"></path>
                                <path d="M66.0468975,103.148967 C66.0468975,103.811011 65.5210274,104.348528 64.8698764,104.348528 C64.2218188,104.348528 63.694402,103.811011 63.694402,103.148967 C63.694402,102.486923 64.2218188,101.949407 64.8698764,101.949407 C65.5210274,101.949407 66.0468975,102.486923 66.0468975,103.148967" id="Path"></path>
                                <path d="M78.7822353,103.148967 C78.7822353,103.811011 78.2563651,104.348528 77.6067608,104.348528 C76.9571565,104.348528 76.4297397,103.811011 76.4297397,103.148967 C76.4297397,102.486923 76.9571565,101.949407 77.6067608,101.949407 C78.2563651,101.949407 78.7822353,102.486923 78.7822353,103.148967" id="Path"></path>
                                <path d="M91.5191196,103.148967 C91.5191196,103.811011 90.9917028,104.348528 90.3420985,104.348528 C89.6924942,104.348528 89.1666241,103.811011 89.1666241,103.148967 C89.1666241,102.486923 89.6924942,101.949407 90.3420985,101.949407 C90.9917028,101.949407 91.5191196,102.486923 91.5191196,103.148967" id="Path"></path>
                                <path d="M104.254457,103.148967 C104.254457,103.811011 103.728587,104.348528 103.077436,104.348528 C102.429379,104.348528 101.901962,103.811011 101.901962,103.148967 C101.901962,102.486923 102.429379,101.949407 103.077436,101.949407 C103.728587,101.949407 104.254457,102.486923 104.254457,103.148967" id="Path"></path>
                                <path d="M116.989795,103.148967 C116.989795,103.811011 116.463925,104.348528 115.814321,104.348528 C115.164716,104.348528 114.637299,103.811011 114.637299,103.148967 C114.637299,102.486923 115.164716,101.949407 115.814321,101.949407 C116.463925,101.949407 116.989795,102.486923 116.989795,103.148967" id="Path"></path>
                            </g>
                        </g>
                    </g>
                </g>
                <g id="Group-7" transform="translate(82.699998, 13.099998)">
                    <g id="Group-10" transform="translate(0.660004, 0.660001)"></g>
                    <g id="Group-3-Copy" transform="translate(0.660004, 6.072441)">
                        <g id="Path">
                            <use fill="black" fill-opacity="1" filter="url(#filter-2)" xlink:href="#path-1"></use>
                            <use fill="#FFFFFF" fill-rule="evenodd" xlink:href="#path-1"></use>
                        </g>
                    </g>
                    <path d="M7.77106411,0.660000958 L175.013754,0.660000958 C178.586297,0.660000958 181.482415,3.55611892 181.482415,7.12866146 L181.482415,16.4125631 L181.482415,16.4125631 L1.3024036,16.4125631 L1.3024036,7.12866146 C1.3024036,3.55611892 4.19852156,0.660000958 7.77106411,0.660000958 Z" id="Rectangle" fill="#283A5E"></path>
                    <g id="Group-4" transform="translate(7.678005, 6.556282)" fill="#D8D8D8">
                        <circle id="Oval" cx="20.1108617" cy="2.15622017" r="2.15622017"></circle>
                        <circle id="Oval-Copy" cx="11.1335409" cy="2.15622017" r="2.15622017"></circle>
                        <circle id="Oval-Copy-2" cx="2.15622017" cy="2.15622017" r="2.15622017"></circle>
                    </g>
                    <g id="Group-5" transform="translate(54.010007, 53.130004)">
                        <circle id="Oval" fill="#283A5E" cx="6.93000043" cy="6.93000043" r="6.93000043"></circle>
                        <circle id="Oval-Copy-3" fill="#283A5E" cx="68.3100042" cy="6.93000043" r="6.93000043"></circle>
                        <path d="M11.6325007,54.5856019 C20.2950012,45.5698308 28.9575018,41.0619452 37.6200023,41.0619452 C46.2825028,41.0619452 54.9450034,45.5698308 63.6075039,54.5856019" id="Path-4" stroke="#283A5E" stroke-width="2.07900013" stroke-linecap="round"></path>
                    </g>
                </g>
            </g>
        </g>
    </g>
</svg>