<svg width="24" height="24" viewBox="0 0 24 24" fill="none" xmlns="http://www.w3.org/2000/svg">
<path d="M11.4439 21.9357C10.5864 21.2638 2.62416 13.7044 2.53516 13.6217C2.1835 13.2784 1.96208 12.9223 1.9013 12.596C1.83835 12.2569 1.94472 11.9602 2.22691 11.6847C2.48957 11.4282 2.81084 11.2926 3.15599 11.2926C3.57711 11.2926 4.00909 11.4876 4.36943 11.8415L7.97938 15.2281C8.04233 15.2875 8.12482 15.3171 8.20513 15.3171C8.28979 15.3171 8.37228 15.2853 8.43523 15.2239C8.56114 15.101 8.56114 14.9017 8.4374 14.7788L2.67409 8.96775C2.09667 8.40402 1.82533 7.54147 2.51128 6.87178C2.77394 6.61534 3.09521 6.47971 3.44036 6.47971C3.86148 6.47971 4.29346 6.67468 4.6538 7.0286L10.5495 12.6405C10.6125 12.6998 10.695 12.7316 10.7775 12.7316C10.86 12.7316 10.9446 12.6998 11.0076 12.6384C11.1335 12.5154 11.1356 12.3162 11.0097 12.1912L3.92877 5.10429C3.60099 4.78428 3.40345 4.40069 3.36872 4.0277C3.33616 3.64834 3.47292 3.29654 3.76597 3.01044C4.02863 2.75401 4.3499 2.61837 4.69505 2.61837C5.11617 2.61837 5.54815 2.81335 5.90849 3.16515L13.1305 10.0401C13.1935 10.0994 13.276 10.1312 13.3585 10.1312C13.441 10.1312 13.5256 10.0994 13.5886 10.038C13.7145 9.91507 13.7166 9.71586 13.5907 9.59082L8.34623 4.32863C8.01628 4.0065 7.81874 3.62503 7.78618 3.25204C7.75362 2.87269 7.89038 2.52088 8.18343 2.23478C8.44609 1.97835 8.76736 1.84271 9.1125 1.84271C9.53363 1.84271 9.96561 2.03769 10.3259 2.39161C12.2492 4.23539 17.2702 9.05676 17.4395 9.23478C18.0842 9.66923 18.2144 9.01226 18.247 8.58628C18.2839 8.09037 17.7021 6.35891 18.0408 4.80124C18.6095 2.73069 20.2484 3.06978 20.2853 3.08673C21.184 3.49787 21.0125 4.11247 20.6934 5.34801L20.6608 5.59173C20.3266 7.20662 22.6232 11.992 22.7925 12.3501C23.6934 14.2744 24.731 18.176 21.2947 21.5309C17.5285 25.2078 12.8657 23.3238 11.4439 21.9357Z" fill="url(#paint0_radial_5023_591)"/>
<path d="M16.2762 24C13.9665 24 12.002 22.9213 11.2271 22.1732C10.5302 21.6179 6.13232 17.4726 2.5506 14.0796C2.40516 13.9419 2.3205 13.8635 2.31182 13.8529C1.90589 13.4566 1.65408 13.0433 1.58245 12.6533C1.49996 12.2104 1.64106 11.8099 1.99706 11.4602C2.32267 11.1423 2.72209 10.9749 3.15624 10.9749C3.66636 10.9749 4.17866 11.2038 4.59978 11.617L8.20538 14.9994L2.43989 9.18832C1.77565 8.53981 1.44135 7.46534 2.28143 6.64729C2.60704 6.3294 3.00646 6.16197 3.4406 6.16197C3.95073 6.16197 4.46302 6.39086 4.88415 6.80412L10.7755 12.4117L3.69675 5.32698C3.31904 4.95822 3.08677 4.50681 3.04553 4.05752C3.00429 3.57857 3.1736 3.13987 3.53612 2.78595C3.86173 2.46806 4.26114 2.30064 4.69529 2.30064C5.20325 2.30064 5.71554 2.5274 6.13884 2.94066L13.3587 9.8135L8.11421 4.55132C7.73433 4.18044 7.50206 3.72904 7.46299 3.27975C7.42174 2.80291 7.59106 2.36422 7.95358 2.0103C8.27919 1.6924 8.6786 1.52498 9.11275 1.52498C9.62288 1.52498 10.1352 1.75386 10.5563 2.16712L12.1214 3.66546C14.9108 6.33576 17.2422 8.5716 17.4918 8.82168C17.6134 8.91705 17.7718 8.95307 17.8391 8.92128C17.8825 8.90009 17.9303 8.80261 17.9216 8.59703C17.9086 8.23676 17.8565 7.78959 17.8022 7.31699C17.6937 6.36755 17.5808 5.3842 17.7219 4.7357C18.0302 3.61036 18.6358 3.13352 19.0873 2.92795C19.7081 2.6482 20.3094 2.74569 20.4245 2.79867C21.5533 3.31577 21.3297 4.18044 21.0214 5.37996L21.0149 5.40963L20.9802 5.65759C20.7544 6.74266 21.9136 9.74145 23.0728 12.185L23.0902 12.2189C23.8651 13.8719 25.2609 18.1126 21.5272 21.7578C19.8102 23.4299 17.952 24 16.2762 24ZM3.15624 11.6107C2.90009 11.6107 2.65697 11.7145 2.45726 11.9095C2.25104 12.1108 2.1794 12.3058 2.22282 12.5389C2.27057 12.7953 2.46377 13.1005 2.7655 13.3972C2.76767 13.3993 2.8545 13.482 3.00428 13.6219C8.08816 18.439 11.1576 21.3022 11.6482 21.6879L11.6742 21.7112C12.8725 22.881 17.3247 24.9579 21.0649 21.3064C24.5098 17.9431 23.2139 14.016 22.4954 12.4817L22.4802 12.4499C21.7334 10.8774 20.0359 7.06267 20.3377 5.54103L20.3876 5.22313C20.7219 3.92613 20.7414 3.65486 20.1748 3.38783C20.0077 3.35816 18.8095 3.21617 18.3514 4.88405C18.2364 5.41599 18.3471 6.38874 18.4448 7.24705C18.5012 7.73237 18.5533 8.19225 18.5663 8.57584C18.588 9.17984 18.295 9.41084 18.117 9.49561C17.7545 9.66727 17.3225 9.52104 17.0533 9.30064L17.0251 9.27521C16.8927 9.13533 13.7429 6.11959 11.659 4.12322L10.0918 2.62065C9.55775 2.09719 8.86963 2.0103 8.40726 2.4617C8.1815 2.68211 8.07948 2.94066 8.10336 3.22676C8.1294 3.52558 8.29438 3.83712 8.57007 4.10627L13.8254 9.36845C14.0729 9.61429 14.0729 10.017 13.8211 10.2628C13.5801 10.498 13.1547 10.5023 12.9072 10.2692L5.68081 3.39207C5.14681 2.87073 4.45651 2.78383 3.99631 3.23524C3.77056 3.45565 3.66853 3.7142 3.69241 4.0003C3.72063 4.29912 3.88561 4.61278 4.15912 4.87769L11.2422 11.9688C11.4919 12.2147 11.4897 12.6173 11.2379 12.8632C10.997 13.0984 10.5715 13.1026 10.324 12.8695L4.42612 7.25553C3.89212 6.72994 3.20182 6.64517 2.74163 7.09658C2.1794 7.64547 2.47897 8.32577 2.90443 8.74326L8.67209 14.5586C8.91955 14.8044 8.91738 15.205 8.66558 15.4487C8.42246 15.686 8.00133 15.6882 7.75387 15.4572L4.14392 12.0705C3.84002 11.7717 3.49053 11.6107 3.15624 11.6107Z" fill="#EDA600"/>
<path d="M16.9209 9.02925C15.7291 11.405 15.8832 14.7301 17.6719 17.3983C17.8738 17.7586 18.219 17.5827 18.0431 17.2118C15.8832 12.6999 18.1473 9.44887 18.1473 9.44887L16.9209 9.02925Z" fill="#EDA600"/>
<path d="M12.2344 0.119823C12.8899 -0.0476004 13.5889 -0.0327653 14.2684 0.121943C14.9435 0.280889 15.6186 0.615736 16.12 1.16251C16.6106 1.70505 16.9123 2.36415 17.0143 3.05503C17.1099 3.73956 17.0209 4.44528 16.6887 5.03021C16.6497 4.37323 16.5324 3.76923 16.3349 3.21186C16.2329 2.93423 16.1135 2.66932 15.9681 2.41925C15.8248 2.17129 15.6555 1.92545 15.4753 1.72412C15.1084 1.31086 14.6113 0.98873 14.0535 0.738655C13.4934 0.480102 12.8834 0.289366 12.2344 0.119823Z" fill="#B0BEC5"/>
<path d="M12.4146 2.12889C12.7771 1.90425 13.2308 1.85763 13.6584 1.9318C14.0904 2.00598 14.5028 2.21579 14.8284 2.50613C15.1519 2.80071 15.382 3.17158 15.5252 3.55729C15.5947 3.75015 15.6294 3.9536 15.662 4.15069C15.6728 4.35414 15.6728 4.5576 15.6403 4.76105C15.4905 4.60634 15.3733 4.45163 15.2626 4.30116C15.1345 4.15917 15.0346 4.0087 14.9196 3.87095C14.6938 3.59756 14.4746 3.3496 14.238 3.1292C13.9949 2.91515 13.7387 2.72653 13.4413 2.56335C13.1461 2.39592 12.814 2.25605 12.4146 2.12889Z" fill="#90A4AE"/>
<path d="M0.00414894 15.5567C0.310223 16.1417 0.629323 16.6842 1.00052 17.1632C1.36955 17.6421 1.79284 18.049 2.2856 18.3139C2.52438 18.4432 2.80875 18.5555 3.0866 18.6403C3.36663 18.7272 3.65751 18.7865 3.95707 18.8268C4.55619 18.8988 5.18571 18.8861 5.85213 18.7865C5.33549 19.2252 4.64519 19.4583 3.94187 19.5092C3.22987 19.5558 2.50701 19.4054 1.86013 19.0493C1.20891 18.6869 0.731347 18.1105 0.431785 17.498C0.132223 16.8813 -0.0284122 16.2179 0.00414894 15.5567Z" fill="#B0BEC5"/>
<path d="M2.05549 15.3086C2.26605 15.6646 2.47444 15.9508 2.70237 16.2008C2.92813 16.4509 3.17125 16.6565 3.43608 16.843C3.70525 17.0231 4.00047 17.1821 4.32174 17.341C4.48238 17.4215 4.65387 17.4851 4.82318 17.5784C4.99901 17.6525 5.17701 17.731 5.3637 17.8433C5.16616 17.9153 4.96428 17.9577 4.75806 17.9895C4.55401 17.998 4.34345 18.0086 4.13506 17.981C3.71828 17.9259 3.30149 17.7839 2.93681 17.536C2.57864 17.2838 2.28124 16.9341 2.11844 16.5378C1.95346 16.1436 1.90571 15.7028 2.05549 15.3086Z" fill="#90A4AE"/>
<defs>
<radialGradient id="paint0_radial_5023_591" cx="0" cy="0" r="1" gradientUnits="userSpaceOnUse" gradientTransform="translate(8.08275 7.21931) rotate(-44.3128) scale(19.5226 19.517)">
<stop offset="0.3533" stop-color="#FFCA28"/>
<stop offset="0.8723" stop-color="#FFB300"/>
</radialGradient>
</defs>
</svg>
