<?xml version="1.0" encoding="UTF-8"?>
<svg width="16px" height="16px" viewBox="0 0 16 16" version="1.1" xmlns="http://www.w3.org/2000/svg" xmlns:xlink="http://www.w3.org/1999/xlink">
    <!-- Generator: Sketch 49 (51002) - http://www.bohemiancoding.com/sketch -->
    <title>Artboard Copy</title>
    <desc>Created with Sketch.</desc>
    <defs>
        <filter x="-34.1%" y="-27.3%" width="170.5%" height="170.5%" filterUnits="objectBoundingBox" id="filter-1">
            <feOffset dx="0" dy="1" in="SourceAlpha" result="shadowOffsetOuter1"></feOffset>
            <feGaussianBlur stdDeviation="1.5" in="shadowOffsetOuter1" result="shadowBlurOuter1"></feGaussianBlur>
            <feColorMatrix values="0 0 0 0 0   0 0 0 0 0   0 0 0 0 0  0 0 0 0.08 0" type="matrix" in="shadowBlurOuter1" result="shadowMatrixOuter1"></feColorMatrix>
            <feMerge>
                <feMergeNode in="shadowMatrixOuter1"></feMergeNode>
                <feMergeNode in="SourceGraphic"></feMergeNode>
            </feMerge>
        </filter>
        <path d="M7.33333333,14.6666667 C3.28324517,14.6666667 0,11.3834215 0,7.33333333 C0,3.28324517 3.28324517,0 7.33333333,0 C11.3834215,0 14.6666667,3.28324517 14.6666667,7.33333333 C14.6666667,11.3834215 11.3834215,14.6666667 7.33333333,14.6666667 Z" id="path-2"></path>
    </defs>
    <g id="Artboard-Copy" stroke="none" stroke-width="1" fill="none" fill-rule="evenodd">
        <g id="Glyphs-/-0_Help">
            <g id="Glyphs-/-_Help" filter="url(#filter-1)" transform="translate(0.666667, 0.666667)">
                <g id="Mask" fill-rule="nonzero">
                    <use fill="#FFFFFF" fill-rule="evenodd" xlink:href="#path-2"></use>
                    <path stroke="#B3B3B3" stroke-width="0.5" d="M7.33333333,14.4166667 C11.2453503,14.4166667 14.4166667,11.2453503 14.4166667,7.33333333 C14.4166667,3.42131636 11.2453503,0.25 7.33333333,0.25 C3.42131636,0.25 0.25,3.42131636 0.25,7.33333333 C0.25,11.2453503 3.42131636,14.4166667 7.33333333,14.4166667 Z"></path>
                </g>
                <path d="M6.02222296,5.55456235 C5.90004155,5.9018885 5.51943046,6.08440438 5.17210431,5.96222296 C4.82477816,5.84004155 4.64226229,5.45943046 4.7644437,5.11210431 C5.19594315,3.88547715 6.44922915,3.14890993 7.73082265,3.36873729 C9.01241615,3.58856465 9.94860313,4.70068469 9.94666667,6 C9.94666667,6.85314994 9.44120782,7.52709507 8.64980013,8.0547002 C8.21718748,8.34310863 7.79217226,8.53200428 7.49081851,8.63245553 C7.14152297,8.74888738 6.76397632,8.56011406 6.64754447,8.21081851 C6.53111262,7.86152297 6.71988594,7.48397632 7.06918149,7.36754447 C7.11242699,7.3531293 7.20206746,7.31898055 7.32174102,7.2657923 C7.52380958,7.17598405 7.72562916,7.06834695 7.91019987,6.9452998 C8.36879218,6.63957159 8.61333333,6.31351673 8.61333407,5.9990068 C8.61430268,5.34885254 8.14620919,4.79279252 7.50541243,4.68287884 C6.86461568,4.57296516 6.23797268,4.94124877 6.02222296,5.55456235 Z" id="Shape" fill="#007AFF"></path>
                <circle id="Oval-2" fill="#007AFF" cx="7.33333333" cy="10.6666667" r="1"></circle>
            </g>
        </g>
    </g>
</svg>