<svg xmlns="http://www.w3.org/2000/svg" width="48" height="48" viewBox="0 0 48 48">
    <g fill="none" fill-rule="evenodd">
        <path fill="#D6E4FC" fill-rule="nonzero" d="M23.853 1.39L43.74 12.872a7.924 7.924 0 0 1 2.9 10.825L35.16 43.584a7.924 7.924 0 0 1-10.826 2.9L4.447 35.004a7.924 7.924 0 0 1-2.9-10.825L13.028 4.29a7.924 7.924 0 0 1 10.825-2.9z"/>
        <path d="M3 2h42.188v42.188H3z"/>
        <path fill="#FFF" fill-rule="nonzero" stroke="#0162FF" stroke-width=".796" d="M9.06 5.012a2.977 2.977 0 0 0-2.662 2.96V40.7a2.977 2.977 0 0 0 2.676 2.962l16.59 1.692 16.083-1.683a2.977 2.977 0 0 0 2.668-2.961V7.992c0-1.53-1.16-2.81-2.682-2.962L24.83 3.333 9.059 5.012z"/>
        <path fill="#CCDCF4" d="M31 5.938h9a3 3 0 0 1 3 3v8l-12-11z"/>
        <path fill="#0565FF" fill-rule="nonzero" d="M33.586 15H30a1 1 0 0 1 0-2h6a1 1 0 0 1 1 1v6a1 1 0 0 1-2 0v-3.586l-7.793 7.793a1 1 0 0 1-1.414 0L21.5 19.914l-6.793 6.793a1 1 0 0 1-1.414-1.414l7.5-7.5a1 1 0 0 1 1.414 0l4.293 4.293L33.586 15zM16.414 35H20a1 1 0 0 1 0 2h-6a1 1 0 0 1-1-1v-6a1 1 0 0 1 2 0v3.586l7.793-7.793a1 1 0 0 1 1.414 0l4.293 4.293 6.793-6.793a1 1 0 0 1 1.414 1.414l-7.5 7.5a1 1 0 0 1-1.414 0L23.5 27.914 16.414 35z"/>
        <g transform="translate(16 16)">
            <circle cx="9" cy="9" r="9" fill="#FFF"/>
            <path fill="#0565FF" fill-rule="nonzero" d="M9 17A8 8 0 1 1 9 1a8 8 0 0 1 0 16zm0-1.455a6.545 6.545 0 1 0 0-13.09 6.545 6.545 0 0 0 0 13.09zm2.696-4.877a.727.727 0 0 1-1.028 1.028L8.486 9.514A.727.727 0 0 1 8.273 9V4.636a.727.727 0 1 1 1.454 0V8.7l1.97 1.969z"/>
        </g>
    </g>
</svg>
