<svg xmlns="http://www.w3.org/2000/svg" width="95" height="105" viewBox="0 0 95 105">
    <g fill="none" fill-rule="evenodd">
        <path stroke="#3C4D6F" stroke-width=".5" d="M48.26 1.139l-.076 103.215"/>
        <g fill="#3C4D6F">
            <path d="M47.722 104.251V.23s8.424 10.192 46.623 14.018c0 0 6.628 70.982-46.623 90.004M47.722.23S39.317 10.42 1.118 14.246c0 0-6.49 70.905 46.604 90.004"/>
        </g>
        <g stroke-linecap="round" stroke-width="1.316">
            <path stroke="#FFF" d="M93.747 14.973L70.922 36.081"/>
            <path stroke="#F6F7F8" d="M25.885 74.78l-7.966 7.136"/>
        </g>
        <g>
            <path fill="#BEC3CE" fill-rule="nonzero" d="M62.672 71.04H32.803c-1.685 0-3.052-1.398-3.052-3.122V43.837c0-1.724 1.367-3.121 3.052-3.121h29.87c1.685 0 3.052 1.397 3.052 3.121v24.081c0 1.724-1.367 3.121-3.053 3.121"/>
            <path stroke="#BEC3CE" stroke-width="2.632" d="M36.785 32.48c1.637-4.563 5.923-7.818 10.953-7.818 6.441 0 11.664 5.34 11.664 11.929v5.908H36.074"/>
            <path fill="#3C4D6F" fill-rule="nonzero" d="M51.771 52.756c0 2.216-1.757 4.013-3.924 4.013-2.168 0-3.925-1.797-3.925-4.013s1.757-4.014 3.925-4.014c2.167 0 3.924 1.798 3.924 4.014"/>
            <path fill="#3C4D6F" fill-rule="nonzero" d="M47.628 63.236c-.722 0-1.308-.6-1.308-1.338v-6.69h2.617v6.69c0 .738-.586 1.338-1.309 1.338"/>
        </g>
    </g>
</svg>
