<svg width="32" height="32" viewBox="0 0 32 32" fill="none" xmlns="http://www.w3.org/2000/svg">
<path d="M16 32C24.8366 32 32 24.8366 32 16C32 7.16344 24.8366 0 16 0C7.16344 0 0 7.16344 0 16C0 24.8366 7.16344 32 16 32Z" fill="url(#paint0_linear_215_29591)"/>
<g filter="url(#filter0_d_215_29591)">
<path d="M16.2637 6.93332C11.1128 6.93332 6.93384 11.107 6.93384 16.2586C6.93384 21.4151 11.1128 25.5937 16.2637 25.5937C21.4177 25.5937 25.5932 21.4151 25.5932 16.2586C25.5932 11.107 21.4174 6.93332 16.2637 6.93332ZM16.2633 10.6223C16.7958 10.6223 17.2275 11.054 17.2275 11.5865C17.2275 12.1189 16.7958 12.5506 16.2633 12.5506C15.7305 12.5506 15.2999 12.1189 15.2999 11.5865C15.2996 11.0536 15.7305 10.6223 16.2633 10.6223ZM17.2282 20.5001C17.2282 21.0821 16.7965 21.5538 16.2641 21.5538C15.7316 21.5538 15.2999 21.0821 15.2999 20.5001V14.5965C15.2999 14.0146 15.7316 13.5428 16.2641 13.5428C16.7965 13.5428 17.2282 14.0146 17.2282 14.5965V20.5001Z" fill="url(#paint1_linear_215_29591)"/>
</g>
<defs>
<filter id="filter0_d_215_29591" x="-6.06616" y="-0.0666809" width="46.6594" height="46.6604" filterUnits="userSpaceOnUse" color-interpolation-filters="sRGB">
<feFlood flood-opacity="0" result="BackgroundImageFix"/>
<feColorMatrix in="SourceAlpha" type="matrix" values="0 0 0 0 0 0 0 0 0 0 0 0 0 0 0 0 0 0 127 0" result="hardAlpha"/>
<feOffset dx="1" dy="7"/>
<feGaussianBlur stdDeviation="7"/>
<feColorMatrix type="matrix" values="0 0 0 0 0 0 0 0 0 0 0 0 0 0 0 0 0 0 0.2 0"/>
<feBlend mode="normal" in2="BackgroundImageFix" result="effect1_dropShadow_215_29591"/>
<feBlend mode="normal" in="SourceGraphic" in2="effect1_dropShadow_215_29591" result="shape"/>
</filter>
<linearGradient id="paint0_linear_215_29591" x1="8.13333" y1="25.45" x2="24.925" y2="5.59792" gradientUnits="userSpaceOnUse">
<stop stop-color="#1A9AFF"/>
<stop offset="0.263492" stop-color="#14A6FD"/>
<stop offset="0.528858" stop-color="#0FB7FF"/>
<stop offset="0.765545" stop-color="#0BBEFF"/>
<stop offset="1" stop-color="#06CAFF"/>
</linearGradient>
<linearGradient id="paint1_linear_215_29591" x1="19.3867" y1="9.60603" x2="12.0388" y2="25.1741" gradientUnits="userSpaceOnUse">
<stop stop-color="white"/>
<stop offset="1" stop-color="#CAEDFF"/>
</linearGradient>
</defs>
</svg>
