<svg width="38" height="38" viewBox="0 0 38 38" fill="none" xmlns="http://www.w3.org/2000/svg">
<circle cx="18" cy="12" r="8" fill="url(#paint0_linear_4979_26875)"/>
<g filter="url(#filter0_d_4979_26875)">
<path fill-rule="evenodd" clip-rule="evenodd" d="M13.4667 12.1335C13.4667 9.56036 15.5602 7.4668 18.1333 7.4668C20.7064 7.4668 22.8 9.56036 22.8 12.1335C22.8 14.7066 20.7064 16.8001 18.1333 16.8001C15.5602 16.8001 13.4667 14.7066 13.4667 12.1335ZM17.7591 13.8645L20.7415 10.9054C20.9287 10.7183 20.9287 10.4259 20.7415 10.2387C20.5544 10.0516 20.262 10.0516 20.0749 10.2387L17.4082 12.9054L16.1567 11.7592C15.9696 11.5838 15.6772 11.5955 15.5018 11.7826C15.338 11.9697 15.3497 12.2621 15.5368 12.4376L17.1158 13.8762C17.3029 14.0516 17.5836 14.0399 17.7591 13.8645Z" fill="url(#paint1_linear_4979_26875)"/>
</g>
<defs>
<filter id="filter0_d_4979_26875" x="0.466675" y="0.466797" width="37.3334" height="37.3335" filterUnits="userSpaceOnUse" color-interpolation-filters="sRGB">
<feFlood flood-opacity="0" result="BackgroundImageFix"/>
<feColorMatrix in="SourceAlpha" type="matrix" values="0 0 0 0 0 0 0 0 0 0 0 0 0 0 0 0 0 0 127 0" result="hardAlpha"/>
<feOffset dx="1" dy="7"/>
<feGaussianBlur stdDeviation="7"/>
<feColorMatrix type="matrix" values="0 0 0 0 0 0 0 0 0 0 0 0 0 0 0 0 0 0 0.2 0"/>
<feBlend mode="normal" in2="BackgroundImageFix" result="effect1_dropShadow_4979_26875"/>
<feBlend mode="normal" in="SourceGraphic" in2="effect1_dropShadow_4979_26875" result="shape"/>
</filter>
<linearGradient id="paint0_linear_4979_26875" x1="17.4995" y1="2.60104" x2="9.10365" y2="12.5271" gradientUnits="userSpaceOnUse">
<stop stop-color="#BAE04B"/>
<stop offset="0.263492" stop-color="#A2DA55"/>
<stop offset="0.528858" stop-color="#78D967"/>
<stop offset="0.765545" stop-color="#6AD46B"/>
<stop offset="1" stop-color="#4FD478"/>
</linearGradient>
<linearGradient id="paint1_linear_4979_26875" x1="15.8022" y1="6.96607" x2="12.1271" y2="14.7529" gradientUnits="userSpaceOnUse">
<stop stop-color="white"/>
<stop offset="1" stop-color="#E1F9DB"/>
</linearGradient>
</defs>
</svg>
