<svg width="32" height="32" viewBox="0 0 32 32" fill="none" xmlns="http://www.w3.org/2000/svg">
<path d="M16 32C24.8366 32 32 24.8366 32 16C32 7.16344 24.8366 0 16 0C7.16344 0 0 7.16344 0 16C0 24.8366 7.16344 32 16 32Z" fill="url(#paint0_linear_214_29489)"/>
<g filter="url(#filter0_d_214_29489)">
<path d="M16 5.99997C10.4862 5.99997 6 10.4862 6 16C6 21.5138 10.4862 26 16 26C21.5138 26 26 21.5138 26 16C26 10.4862 21.5138 5.99997 16 5.99997ZM21.589 13.3684L15.198 19.7092C14.8221 20.0852 14.2206 20.1102 13.8195 19.7343L10.4361 16.6516C10.0351 16.2757 10.01 15.6491 10.3609 15.2481C10.7368 14.8471 11.3634 14.822 11.7644 15.198L14.4461 17.6541L20.1604 11.9398C20.5614 11.5388 21.188 11.5388 21.589 11.9398C21.99 12.3408 21.99 12.9674 21.589 13.3684Z" fill="url(#paint1_linear_214_29489)"/>
</g>
<defs>
<filter id="filter0_d_214_29489" x="-7" y="-1.00003" width="48" height="48" filterUnits="userSpaceOnUse" color-interpolation-filters="sRGB">
<feFlood flood-opacity="0" result="BackgroundImageFix"/>
<feColorMatrix in="SourceAlpha" type="matrix" values="0 0 0 0 0 0 0 0 0 0 0 0 0 0 0 0 0 0 127 0" result="hardAlpha"/>
<feOffset dx="1" dy="7"/>
<feGaussianBlur stdDeviation="7"/>
<feColorMatrix type="matrix" values="0 0 0 0 0 0 0 0 0 0 0 0 0 0 0 0 0 0 0.2 0"/>
<feBlend mode="normal" in2="BackgroundImageFix" result="effect1_dropShadow_214_29489"/>
<feBlend mode="normal" in="SourceGraphic" in2="effect1_dropShadow_214_29489" result="shape"/>
</filter>
<linearGradient id="paint0_linear_214_29489" x1="24.925" y1="5.59792" x2="8.13333" y2="25.45" gradientUnits="userSpaceOnUse">
<stop stop-color="#BAE04B"/>
<stop offset="0.263492" stop-color="#A2DA55"/>
<stop offset="0.528858" stop-color="#78D967"/>
<stop offset="0.765545" stop-color="#6AD46B"/>
<stop offset="1" stop-color="#4FD478"/>
</linearGradient>
<linearGradient id="paint1_linear_214_29489" x1="19.3477" y1="8.86455" x2="11.4725" y2="25.5505" gradientUnits="userSpaceOnUse">
<stop stop-color="white"/>
<stop offset="1" stop-color="#E1F9DB"/>
</linearGradient>
</defs>
</svg>
