<svg width="16" height="16" viewBox="0 0 16 16" fill="none" xmlns="http://www.w3.org/2000/svg">
<path d="M15.8583 13.7021L8.90736 1.20957C8.50445 0.485707 7.49555 0.485707 7.09264 1.20957L0.141684 13.7021C-0.261223 14.426 0.243229 15.3333 1.04904 15.3333H14.951C15.7568 15.3333 16.2612 14.426 15.8583 13.7021ZM8.00983 4.88664C8.45532 4.88664 8.81564 5.27066 8.80254 5.73284L8.67151 10.477C8.66168 10.8508 8.36687 11.1465 8.00655 11.1465C7.64623 11.1465 7.35142 10.8474 7.34159 10.477L7.21384 5.73284C7.20401 5.27066 7.56106 4.88664 8.00983 4.88664ZM8 13.9094C7.54468 13.9094 7.17453 13.5254 7.17453 13.053C7.17453 12.5806 7.54468 12.1966 8 12.1966C8.45532 12.1966 8.82547 12.5806 8.82547 13.053C8.82547 13.5254 8.45532 13.9094 8 13.9094Z" fill="url(#paint0_linear_260_7740)"/>
<defs>
<linearGradient id="paint0_linear_260_7740" x1="12.4625" y1="3.99388" x2="3.3745" y2="13.0191" gradientUnits="userSpaceOnUse">
<stop stop-color="#FFCA2D"/>
<stop offset="0.263492" stop-color="#F9AF2F"/>
<stop offset="0.528858" stop-color="#FEA930"/>
<stop offset="0.765545" stop-color="#FB9732"/>
<stop offset="1" stop-color="#FD8B32"/>
</linearGradient>
</defs>
</svg>
