<svg width="32" height="32" viewBox="0 0 32 32" fill="none" xmlns="http://www.w3.org/2000/svg">
<path d="M16 32C24.8366 32 32 24.8366 32 16C32 7.16344 24.8366 0 16 0C7.16344 0 0 7.16344 0 16C0 24.8366 7.16344 32 16 32Z" fill="url(#paint0_linear_215_29570)"/>
<g filter="url(#filter0_d_215_29570)">
<path d="M23.0743 8.92561C19.1737 5.02501 12.8266 5.02463 8.92559 8.92561C5.02461 12.8266 5.02499 19.1733 8.92559 23.0743C12.8262 26.9753 19.1733 26.9753 23.0743 23.0743C26.9749 19.1733 26.9749 12.8262 23.0743 8.92561ZM19.9452 19.9452C19.6446 20.2457 19.1575 20.2457 18.857 19.9452L15.9999 17.0881L13.007 20.081C12.7065 20.3815 12.2194 20.3815 11.9189 20.081C11.6183 19.7805 11.6183 19.2933 11.9189 18.9928L14.9117 15.9999L12.0547 13.1429C11.7542 12.8424 11.7542 12.3548 12.0547 12.0547C12.3552 11.7542 12.8424 11.7542 13.1429 12.0547L15.9999 14.9118L18.7208 12.1909C19.0213 11.8904 19.5084 11.8904 19.8089 12.1909C20.1095 12.4914 20.1095 12.9786 19.8089 13.2791L17.0881 15.9999L19.9452 18.857C20.2457 19.1575 20.2457 19.6447 19.9452 19.9452Z" fill="url(#paint1_linear_215_29570)"/>
</g>
<defs>
<filter id="filter0_d_215_29570" x="-7" y="-0.999985" width="47.9995" height="48" filterUnits="userSpaceOnUse" color-interpolation-filters="sRGB">
<feFlood flood-opacity="0" result="BackgroundImageFix"/>
<feColorMatrix in="SourceAlpha" type="matrix" values="0 0 0 0 0 0 0 0 0 0 0 0 0 0 0 0 0 0 127 0" result="hardAlpha"/>
<feOffset dx="1" dy="7"/>
<feGaussianBlur stdDeviation="7"/>
<feColorMatrix type="matrix" values="0 0 0 0 0 0 0 0 0 0 0 0 0 0 0 0 0 0 0.2 0"/>
<feBlend mode="normal" in2="BackgroundImageFix" result="effect1_dropShadow_215_29570"/>
<feBlend mode="normal" in="SourceGraphic" in2="effect1_dropShadow_215_29570" result="shape"/>
</filter>
<linearGradient id="paint0_linear_215_29570" x1="8.13333" y1="25.45" x2="24.925" y2="5.59792" gradientUnits="userSpaceOnUse">
<stop stop-color="#FE3E67"/>
<stop offset="0.263492" stop-color="#FE4B57"/>
<stop offset="0.528858" stop-color="#FE5A47"/>
<stop offset="0.765545" stop-color="#FF4F54"/>
<stop offset="1" stop-color="#FE633D"/>
</linearGradient>
<linearGradient id="paint1_linear_215_29570" x1="19.3475" y1="8.8646" x2="11.4723" y2="25.5505" gradientUnits="userSpaceOnUse">
<stop stop-color="white"/>
<stop offset="1" stop-color="#FFE7E7"/>
</linearGradient>
</defs>
</svg>
