<svg width="14" height="14" viewBox="0 0 14 14" fill="none" xmlns="http://www.w3.org/2000/svg">
<path fill-rule="evenodd" clip-rule="evenodd" d="M7 14C3.13401 14 0 10.866 0 7C0 3.13401 3.13401 0 7 0C10.866 0 14 3.13401 14 7C14 10.866 10.866 14 7 14ZM9.69171 4.03803L6.04352 9.01705L4.35607 7.44369C4.09371 7.19906 3.68273 7.21344 3.43811 7.4758C3.19349 7.73816 3.20786 8.14915 3.47022 8.39377L5.69239 10.4657C5.97693 10.731 6.42929 10.6884 6.65923 10.3745L10.7395 4.80578C10.9515 4.51644 10.8888 4.11 10.5995 3.89799C10.3102 3.68599 9.90372 3.74868 9.69171 4.03803Z" fill="#B3BBC5"/>
</svg>
