<svg width="24" height="24" viewBox="0 0 24 24" fill="none" xmlns="http://www.w3.org/2000/svg">
<path d="M24 12C24 18.6 18.6 24 11.9 24C7.1 24 2.8 21.1 0.9 16.7C0.3 15.2 0 13.7 0 12C0 5.4 5.4 0 12.1 0C18.7 0 24 5.4 24 12ZM12 4.8C11.3 4.8 10.7 5.4 10.7 6.1C10.7 6.8 11.3 7.4 12 7.4C12.7 7.4 13.3 6.8 13.3 6.1C13.3 5.4 12.7 4.8 12 4.8ZM10.7 11.2V18C10.7 18.7 11.3 19.3 12 19.3C12.7 19.3 13.3 18.7 13.3 18V11.1C13.3 10.4 12.7 9.8 12 9.8C11.3 9.8 10.7 10.4 10.7 11.2ZM12 2.7C6.8 2.7 2.6 6.9 2.6 12C2.6 13.3 2.9 14.5 3.3 15.6C4.7 19 8.1 21.3 11.9 21.3C15.7 21.3 19.1 19.1 20.5 15.6C21 14.5 21.2 13.3 21.2 12C21.2 10.7 20.9 9.5 20.5 8.4C19.2 4.9 15.8 2.7 12 2.7Z" fill="#D2D7DE"/>
</svg>
