<svg width="32" height="32" viewBox="0 0 32 32" fill="none" xmlns="http://www.w3.org/2000/svg">
<path d="M16 32C24.8366 32 32 24.8366 32 16C32 7.16344 24.8366 0 16 0C7.16344 0 0 7.16344 0 16C0 24.8366 7.16344 32 16 32Z" fill="url(#paint0_linear_215_29562)"/>
<g filter="url(#filter0_d_215_29562)">
<path d="M16.2638 6.93332C11.1126 6.93332 6.93359 11.107 6.93359 16.2586C6.93359 21.4151 11.1126 25.5937 16.2638 25.5937C21.4178 25.5937 25.5933 21.4151 25.5933 16.2586C25.5933 11.107 21.4178 6.93332 16.2638 6.93332ZM16.9287 21.4502C16.712 21.643 16.4609 21.74 16.1764 21.74C15.882 21.74 15.6253 21.6448 15.4061 21.454C15.1866 21.2637 15.0766 20.9971 15.0766 20.6546C15.0766 20.3508 15.1831 20.0951 15.3952 19.8879C15.6074 19.6806 15.8676 19.577 16.1764 19.577C16.4802 19.577 16.7359 19.6806 16.9435 19.8879C17.1507 20.0951 17.2547 20.3508 17.2547 20.6546C17.2543 20.9922 17.1457 21.2574 16.9287 21.4502ZM19.6307 14.7515C19.4642 15.0602 19.2665 15.3264 19.0372 15.5509C18.8085 15.7753 18.3972 16.1525 17.8036 16.6829C17.6399 16.8325 17.5082 16.9639 17.4095 17.077C17.3108 17.1904 17.2371 17.294 17.1889 17.3882C17.1405 17.4823 17.1033 17.5764 17.0769 17.6705C17.0505 17.7643 17.0109 17.9298 16.9571 18.1661C16.8658 18.6677 16.5789 18.9184 16.0966 18.9184C15.8458 18.9184 15.6351 18.8366 15.4633 18.6726C15.2922 18.5086 15.2069 18.2652 15.2069 17.942C15.2069 17.5371 15.2698 17.1862 15.3952 16.8894C15.5199 16.5926 15.6867 16.3323 15.8939 16.1079C16.1015 15.8835 16.3811 15.6172 16.7334 15.3085C17.0421 15.0384 17.2652 14.8347 17.4025 14.6973C17.5401 14.5596 17.6557 14.4065 17.7495 14.2379C17.844 14.069 17.8904 13.886 17.8904 13.6882C17.8904 13.3022 17.7474 12.977 17.4601 12.7118C17.1732 12.4466 16.8029 12.3139 16.3495 12.3139C15.8188 12.3139 15.4282 12.4477 15.1774 12.7153C14.9266 12.983 14.7149 13.377 14.541 13.8979C14.3766 14.4431 14.0654 14.7156 13.6077 14.7156C13.3376 14.7156 13.1097 14.6204 12.9239 14.43C12.7385 14.2396 12.6457 14.0335 12.6457 13.8115C12.6457 13.3535 12.7929 12.8892 13.0869 12.4189C13.3812 11.9486 13.8104 11.559 14.3749 11.2506C14.9389 10.9419 15.5975 10.7873 16.3495 10.7873C17.0488 10.7873 17.6659 10.9166 18.2012 11.1748C18.7365 11.4325 19.1502 11.7835 19.4421 12.2274C19.7337 12.671 19.8797 13.1533 19.8797 13.6741C19.8804 14.0834 19.7972 14.4427 19.6307 14.7515Z" fill="url(#paint1_linear_215_29562)"/>
</g>
<defs>
<filter id="filter0_d_215_29562" x="-6.06641" y="-0.0666809" width="46.6597" height="46.6604" filterUnits="userSpaceOnUse" color-interpolation-filters="sRGB">
<feFlood flood-opacity="0" result="BackgroundImageFix"/>
<feColorMatrix in="SourceAlpha" type="matrix" values="0 0 0 0 0 0 0 0 0 0 0 0 0 0 0 0 0 0 127 0" result="hardAlpha"/>
<feOffset dx="1" dy="7"/>
<feGaussianBlur stdDeviation="7"/>
<feColorMatrix type="matrix" values="0 0 0 0 0 0 0 0 0 0 0 0 0 0 0 0 0 0 0.2 0"/>
<feBlend mode="normal" in2="BackgroundImageFix" result="effect1_dropShadow_215_29562"/>
<feBlend mode="normal" in="SourceGraphic" in2="effect1_dropShadow_215_29562" result="shape"/>
</filter>
<linearGradient id="paint0_linear_215_29562" x1="6.65208" y1="27.7708" x2="26.8229" y2="5.3125" gradientUnits="userSpaceOnUse">
<stop stop-color="#7C4FFD"/>
<stop offset="0.320686" stop-color="#6773FD"/>
<stop offset="0.678154" stop-color="#578CFD"/>
<stop offset="1" stop-color="#4CA1FF"/>
</linearGradient>
<linearGradient id="paint1_linear_215_29562" x1="19.3867" y1="9.60603" x2="12.0389" y2="25.1742" gradientUnits="userSpaceOnUse">
<stop stop-color="white"/>
<stop offset="1" stop-color="#EBEBFE"/>
</linearGradient>
</defs>
</svg>
