<svg xmlns="http://www.w3.org/2000/svg" width="49" height="50" viewBox="0 0 49 50">
    <g fill="none" fill-rule="evenodd" transform="translate(-3 -2)">
        <path fill="#D6E4FC" fill-rule="nonzero" d="M27.59 4.05l20.328 11.736a8.1 8.1 0 0 1 2.965 11.065L39.147 47.178a8.1 8.1 0 0 1-11.065 2.965L7.754 38.407A8.1 8.1 0 0 1 4.79 27.342L16.526 7.015A8.1 8.1 0 0 1 27.59 4.05z"/>
        <g fill-rule="nonzero">
            <path fill="#FFF" stroke="#0162FF" stroke-width=".9" d="M15.34 6.45a3.15 3.15 0 0 0-3.15 3.15v33.8a3.15 3.15 0 0 0 3.15 3.15h24.507a3.15 3.15 0 0 0 3.15-3.15V17.266a3.15 3.15 0 0 0-1.11-2.4l-3.986-3.39-5-4.27a3.15 3.15 0 0 0-2.046-.756H15.34z"/>
            <path fill="#CCDCF4" d="M32.308 7.263a563.96 563.96 0 0 0 6.174 5.276c2.406 2.031 3.707 3.322 3.903 3.875-5.298 1.123-8.739 1.01-10.323-.341-1.585-1.351-1.503-4.288.246-8.81z"/>
            <path stroke="#0162FF" stroke-linecap="round" stroke-linejoin="round" stroke-width=".9" d="M42.385 16.886h-8.379a3.6 3.6 0 0 1-3.6-3.6v-2.83"/>
        </g>
        <rect width="13" height="1" x="20.739" y="36" fill="#0162FF" rx=".5"/>
        <rect width="13" height="1" x="20.739" y="39" fill="#0162FF" rx=".5"/>
        <path fill="#0162FF" fill-rule="nonzero" d="M32.24 26a.513.513 0 0 1 .353.143l.014.015.03.034-.044-.049a.493.493 0 0 1 .146.347v2.939c0 .27-.223.49-.5.49-.276 0-.5-.22-.5-.49v-1.757l-3.896 3.817a.507.507 0 0 1-.707 0l-2.147-2.102-3.396 3.327a.507.507 0 0 1-.707 0 .483.483 0 0 1 0-.693l3.75-3.673a.507.507 0 0 1 .707 0l2.146 2.102 3.543-3.471H29.24c-.276 0-.5-.219-.5-.49 0-.27.224-.489.5-.489h3z"/>
    </g>
</svg>
