<svg width="48" height="48" viewBox="0 0 48 48" fill="none" xmlns="http://www.w3.org/2000/svg">
<path fill-rule="evenodd" clip-rule="evenodd" d="M22.5696 9.03079C20.1255 9.25311 17.8208 10.3374 16.0805 12.0836C12.9471 15.2278 12.1138 20.0049 13.9978 24.0224C14.2509 24.5621 22.7176 38.5242 22.938 38.7655C23.226 39.0805 23.8063 39.0777 24.1176 38.7598C24.334 38.5389 32.5846 24.917 32.9547 24.1696C33.6831 22.6988 33.9987 21.3167 34 19.5924C34.0009 18.4505 33.9391 17.8981 33.7048 16.9521C32.7048 12.9152 29.3262 9.80108 25.2009 9.114C24.5586 9.00703 23.2765 8.96649 22.5696 9.03079ZM24.6747 14.4004C25.9872 14.7135 27.1175 15.5099 27.8879 16.6645C28.4701 17.5369 28.7245 18.3915 28.7331 19.5044C28.7492 21.5662 27.6455 23.3694 25.8248 24.2562C25.0146 24.6509 24.4115 24.7815 23.4175 24.7777C22.7003 24.775 22.534 24.7549 22.0762 24.6156C21.4299 24.419 20.6689 24.0253 20.1872 23.6385C19.4171 23.0201 18.7564 22.0111 18.4408 20.9713C18.2955 20.4929 18.2804 20.3577 18.2804 19.5338C18.2804 18.7107 18.2957 18.5744 18.4401 18.0991C19.0401 16.1242 20.6523 14.6791 22.6667 14.3104C23.0573 14.2388 24.2151 14.2908 24.6747 14.4004Z" fill="url(#paint0_linear_301_13512)"/>
<defs>
<linearGradient id="paint0_linear_301_13512" x1="13" y1="20.911" x2="39.6934" y2="20.911" gradientUnits="userSpaceOnUse">
<stop offset="0.411458" stop-color="#FF4545"/>
<stop offset="0.411558" stop-color="#DD3838"/>
</linearGradient>
</defs>
</svg>
