<svg width="48" height="48" viewBox="0 0 48 48" fill="none" xmlns="http://www.w3.org/2000/svg">
<path d="M16 9C16 8.73478 15.8946 8.48043 15.7071 8.29289C15.5196 8.10536 15.2652 8 15 8C14.7348 8 14.4804 8.10536 14.2929 8.29289C14.1054 8.48043 14 8.73478 14 9V10H12C10.9391 10 9.92172 10.4214 9.17157 11.1716C8.42143 11.9217 8 12.9391 8 14V16H40V14C40 12.9391 39.5786 11.9217 38.8284 11.1716C38.0783 10.4214 37.0609 10 36 10H34V9C34 8.73478 33.8946 8.48043 33.7071 8.29289C33.5196 8.10536 33.2652 8 33 8C32.7348 8 32.4804 8.10536 32.2929 8.29289C32.1054 8.48043 32 8.73478 32 9V10H16V9Z" fill="#0787FF"/>
<path fill-rule="evenodd" clip-rule="evenodd" d="M40 18V36C40 37.0609 39.5786 38.0783 38.8284 38.8284C38.0783 39.5786 37.0609 40 36 40H12C10.9391 40 9.92172 39.5786 9.17157 38.8284C8.42143 38.0783 8 37.0609 8 36V18H40ZM32.5381 28.6211V26.5293C32.5381 25.7266 32.4736 25.0234 32.3447 24.4199C32.2158 23.8105 32.0283 23.292 31.7822 22.8643C31.542 22.4307 31.249 22.0791 30.9033 21.8096C30.5635 21.54 30.1768 21.3438 29.7432 21.2207C29.3154 21.0918 28.8467 21.0273 28.3369 21.0273C27.7041 21.0273 27.1299 21.127 26.6143 21.3262C26.1045 21.5254 25.665 21.8447 25.2959 22.2842C24.9268 22.7178 24.6426 23.2832 24.4434 23.9805C24.2441 24.6719 24.1445 25.5215 24.1445 26.5293V28.6211C24.1445 29.4238 24.209 30.1299 24.3379 30.7393C24.4727 31.3486 24.6602 31.873 24.9004 32.3125C25.1465 32.7461 25.4424 33.1006 25.7881 33.376C26.1338 33.6514 26.5205 33.8535 26.9482 33.9824C27.3818 34.1113 27.8506 34.1758 28.3545 34.1758C28.9873 34.1758 29.5586 34.0732 30.0684 33.8682C30.584 33.6631 31.0264 33.3408 31.3955 32.9014C31.7646 32.4619 32.0459 31.8906 32.2393 31.1875C32.4385 30.4785 32.5381 29.623 32.5381 28.6211ZM30.4199 26.2129V28.9199C30.4199 29.5586 30.376 30.1064 30.2881 30.5635C30.2002 31.0205 30.0684 31.3926 29.8926 31.6797C29.7168 31.9609 29.5 32.166 29.2422 32.2949C28.9844 32.4238 28.6885 32.4883 28.3545 32.4883C28.0908 32.4883 27.8477 32.4473 27.625 32.3652C27.4082 32.2832 27.2148 32.1543 27.0449 31.9785C26.8809 31.7969 26.7402 31.5684 26.623 31.293C26.5059 31.0117 26.418 30.6748 26.3594 30.2822C26.3008 29.8896 26.2715 29.4355 26.2715 28.9199V26.2129C26.2715 25.5742 26.3154 25.0322 26.4033 24.5869C26.4971 24.1357 26.6318 23.7725 26.8076 23.4971C26.9834 23.2217 27.2002 23.0225 27.458 22.8994C27.7158 22.7705 28.0088 22.7061 28.3369 22.7061C28.6064 22.7061 28.8496 22.7471 29.0664 22.8291C29.2832 22.9053 29.4766 23.0312 29.6465 23.207C29.8164 23.377 29.957 23.5996 30.0684 23.875C30.1855 24.1445 30.2734 24.4756 30.332 24.8682C30.3906 25.2549 30.4199 25.7031 30.4199 26.2129ZM19.75 34V21.1592H19.4951L14.4941 22.9873V24.7363L17.6318 23.6729V34H19.75Z" fill="#0787FF"/>
</svg>
