<svg width="48" height="48" viewBox="0 0 48 48" fill="none" xmlns="http://www.w3.org/2000/svg">
<path d="M39.4 36.8C39.4 38.2359 38.2359 39.4 36.8 39.4L31.7111 39.4L31.7111 31.7111L39.4 31.7111L39.4 36.8Z" stroke="#1D91FF" stroke-width="1.2"/>
<path d="M31.4 39.4L23.7111 39.4L23.7111 31.7111L31.4 31.7111L31.4 39.4Z" stroke="#1D91FF" stroke-width="1.2"/>
<path d="M23.4 39.4L15.7111 39.4L15.7111 31.7111L23.4 31.7111L23.4 39.4Z" stroke="#1D91FF" stroke-width="1.2"/>
<path d="M15.4 39.4L11.2 39.4C9.76406 39.4 8.6 38.2359 8.6 36.8L8.6 31.7111L15.4 31.7111L15.4 39.4Z" stroke="#1D91FF" stroke-width="1.2"/>
<path d="M39.4 31.4L31.7111 31.4L31.7111 23.7111L39.4 23.7111L39.4 31.4Z" stroke="#1D91FF" stroke-width="1.2"/>
<path d="M39.4 23.4L31.7111 23.4L31.7111 15.7111L39.4 15.7111L39.4 23.4Z" stroke="#1D91FF" stroke-width="1.2"/>
<path d="M39.4 15.4L31.7111 15.4L31.7111 8.6L36.8 8.6C38.2359 8.6 39.4 9.76406 39.4 11.2L39.4 15.4Z" stroke="#1D91FF" stroke-width="1.2"/>
<path d="M31.4 31.4L23.7111 31.4L23.7111 23.7111L31.4 23.7111L31.4 31.4Z" stroke="#1D91FF" stroke-width="1.2"/>
<path d="M31.4 23.4L23.7111 23.4L23.7111 15.7111L31.4 15.7111L31.4 23.4Z" stroke="#1D91FF" stroke-width="1.2"/>
<path d="M31.4 15.4L23.7111 15.4L23.7111 8.6L31.4 8.6L31.4 15.4Z" stroke="#1D91FF" stroke-width="1.2"/>
<path d="M23.4 31.4L15.7111 31.4L15.7111 23.7111L23.4 23.7111L23.4 31.4Z" stroke="#1D91FF" stroke-width="1.2"/>
<path d="M23.4 23.4L15.7111 23.4L15.7111 15.7111L23.4 15.7111L23.4 23.4Z" stroke="#1D91FF" stroke-width="1.2"/>
<path d="M23.4 15.4L15.7111 15.4L15.7111 8.6L23.4 8.6L23.4 15.4Z" stroke="#1D91FF" stroke-width="1.2"/>
<path d="M15.4 31.4L8.6 31.4L8.6 23.7111L15.4 23.7111L15.4 31.4Z" stroke="#1D91FF" stroke-width="1.2"/>
<path d="M15.4 23.4L8.6 23.4L8.6 15.7111L15.4 15.7111L15.4 23.4Z" stroke="#1D91FF" stroke-width="1.2"/>
<path d="M15.4 15.4L8.6 15.4L8.6 11.2C8.6 9.76406 9.76406 8.6 11.2 8.6L15.4 8.6L15.4 15.4Z" stroke="#1D91FF" stroke-width="1.2"/>
</svg>
