<svg width="48" height="48" viewBox="0 0 48 48" fill="none" xmlns="http://www.w3.org/2000/svg">
<path d="M8 40L8 8.8C8 8.35817 8.38572 8 8.86153 8L13.2923 8C13.7681 8 14.1538 8.35817 14.1538 8.8L14.1538 40L8 40Z" fill="#FF8B8B"/>
<path d="M16.6152 40L16.6152 8.8C16.6152 8.35817 17.001 8 17.4768 8L21.9075 8C22.3833 8 22.769 8.35817 22.769 8.8L22.769 40L16.6152 40Z" fill="#C2E0FF"/>
<path d="M25.2305 40L25.2305 8.97391C25.2305 8.43604 25.6162 8 26.092 8L30.5227 8C30.9986 8 31.3843 8.43604 31.3843 8.97391L31.3843 40L25.2305 40Z" fill="#88D2CE"/>
<path d="M31.3848 40L31.3848 29.4572C31.3848 28.9661 30.999 28.568 30.5232 28.568L26.0925 28.568C25.6167 28.568 25.231 28.9661 25.231 29.4572L25.231 40L31.3848 40Z" fill="#00A89E"/>
<path d="M22.769 40L22.769 29.4572C22.769 28.9661 22.3833 28.568 21.9075 28.568L17.4768 28.568C17.001 28.568 16.6152 28.9661 16.6152 29.4572L16.6152 40L22.769 40Z" fill="#1D91FF"/>
<path d="M14.1538 40L14.1538 25.2444C14.1538 24.5572 13.7682 24 13.2926 24L8.86365 24C8.38803 24 8.00246 24.5572 8.00246 25.2444L8.00246 40L14.1538 40Z" fill="#F25858"/>
<path d="M33.8462 40L33.8462 8.8C33.8462 8.35817 34.2319 8 34.7077 8L39.1385 8C39.6143 8 40 8.35817 40 8.8L40 40L33.8462 40Z" fill="#FFD29E"/>
<path d="M40 40L40 34.7323C40 34.4869 39.6143 34.288 39.1385 34.288L34.7077 34.288C34.2319 34.288 33.8462 34.4869 33.8462 34.7323L33.8462 40L40 40Z" fill="#FF8900"/>
</svg>
