<svg width="50" height="49" viewBox="0 0 50 49" fill="none" xmlns="http://www.w3.org/2000/svg">
<path d="M37.2845 31.6015L35.512 30.9503C35.5045 30.9475 35.4976 30.9432 35.492 30.9374C35.4863 30.9317 35.482 30.9248 35.4793 30.9172L34.8345 29.1268C34.8072 29.0509 34.7574 28.9853 34.6919 28.9389C34.6263 28.8925 34.5483 28.8677 34.4683 28.8677C34.3883 28.8677 34.3102 28.8925 34.2447 28.9389C34.1792 28.9853 34.1294 29.0509 34.1021 29.1268L33.4573 30.9172C33.4546 30.9248 33.4503 30.9317 33.4446 30.9374C33.439 30.9432 33.4321 30.9475 33.4246 30.9503L31.6521 31.6015C31.5769 31.6292 31.5119 31.6795 31.466 31.7456C31.4202 31.8118 31.3955 31.8907 31.3955 31.9715C31.3955 32.0523 31.4202 32.1311 31.466 32.1973C31.5119 32.2635 31.5769 32.3138 31.6521 32.3414L33.4246 32.9927C33.4321 32.9954 33.439 32.9998 33.4446 33.0055C33.4503 33.0112 33.4546 33.0181 33.4573 33.0257L34.1021 34.8162C34.1294 34.8921 34.1792 34.9577 34.2447 35.0041C34.3102 35.0504 34.3883 35.0753 34.4683 35.0753C34.5483 35.0753 34.6263 35.0504 34.6919 35.0041C34.7574 34.9577 34.8072 34.8921 34.8345 34.8162L35.4793 33.0257C35.482 33.0181 35.4863 33.0112 35.492 33.0055C35.4976 32.9998 35.5045 32.9954 35.512 32.9927L37.2845 32.3414C37.3597 32.3138 37.4246 32.2635 37.4705 32.1973C37.5164 32.1311 37.541 32.0523 37.541 31.9715C37.541 31.8907 37.5164 31.8118 37.4705 31.7456C37.4246 31.6795 37.3597 31.6292 37.2845 31.6015ZM37.17 32.0248L35.3974 32.6758C35.3439 32.6955 35.2953 32.7269 35.255 32.7676C35.2147 32.8083 35.1837 32.8574 35.1642 32.9114L34.5197 34.7019C34.5154 34.7121 34.5082 34.7207 34.4991 34.7268C34.49 34.733 34.4792 34.7362 34.4683 34.7362C34.4573 34.7362 34.4466 34.733 34.4375 34.7268C34.4283 34.7207 34.4212 34.7121 34.4169 34.7019L33.7724 32.9114C33.7529 32.8574 33.7219 32.8083 33.6816 32.7676C33.6413 32.7269 33.5927 32.6955 33.5391 32.6758L31.7666 32.0234C31.7565 32.0191 31.7479 32.0118 31.7419 32.0026C31.7358 31.9934 31.7326 31.9825 31.7326 31.9715C31.7326 31.9604 31.7358 31.9496 31.7419 31.9404C31.7479 31.9311 31.7565 31.9239 31.7666 31.9196L33.5391 31.2686C33.5927 31.2488 33.6413 31.2175 33.6816 31.1768C33.7219 31.1361 33.7529 31.087 33.7724 31.0329L34.4169 29.2425C34.4212 29.2323 34.4283 29.2236 34.4375 29.2175C34.4466 29.2114 34.4573 29.2082 34.4683 29.2082C34.4792 29.2082 34.49 29.2114 34.4991 29.2175C34.5082 29.2236 34.5154 29.2323 34.5197 29.2425L35.1642 31.0329C35.1837 31.087 35.2147 31.1361 35.255 31.1768C35.2953 31.2175 35.3439 31.2488 35.3974 31.2686L37.17 31.9196C37.1801 31.9239 37.1887 31.9311 37.1947 31.9404C37.2007 31.9496 37.204 31.9604 37.204 31.9715C37.204 31.9825 37.2007 31.9934 37.1947 32.0026C37.1887 32.0118 37.1801 32.0191 37.17 32.0234V32.0248Z" fill="#F25858"/>
<path d="M37.17 32.0248L35.3974 32.6758C35.3439 32.6955 35.2953 32.7269 35.255 32.7676C35.2147 32.8083 35.1837 32.8574 35.1642 32.9114L34.5197 34.7019C34.5154 34.7121 34.5082 34.7207 34.4991 34.7268C34.49 34.733 34.4792 34.7362 34.4683 34.7362C34.4573 34.7362 34.4466 34.733 34.4375 34.7268C34.4283 34.7207 34.4212 34.7121 34.4169 34.7019L33.7724 32.9114C33.7529 32.8574 33.7219 32.8083 33.6816 32.7676C33.6413 32.7269 33.5927 32.6955 33.5391 32.6758L31.7666 32.0234C31.7565 32.0191 31.7479 32.0118 31.7419 32.0026C31.7358 31.9934 31.7326 31.9825 31.7326 31.9715C31.7326 31.9604 31.7358 31.9496 31.7419 31.9404C31.7479 31.9311 31.7565 31.9239 31.7666 31.9196L33.5391 31.2686C33.5927 31.2488 33.6413 31.2175 33.6816 31.1768C33.7219 31.1361 33.7529 31.087 33.7724 31.0329L34.4169 29.2425C34.4212 29.2323 34.4283 29.2236 34.4375 29.2175C34.4466 29.2114 34.4573 29.2082 34.4683 29.2082C34.4792 29.2082 34.49 29.2114 34.4991 29.2175C34.5082 29.2236 34.5154 29.2323 34.5197 29.2425L35.1642 31.0329C35.1837 31.087 35.2147 31.1361 35.255 31.1768C35.2953 31.2175 35.3439 31.2488 35.3974 31.2686L37.17 31.9196C37.1801 31.9239 37.1887 31.9311 37.1947 31.9404C37.2007 31.9496 37.204 31.9604 37.204 31.9715C37.204 31.9825 37.2007 31.9934 37.1947 32.0026C37.1887 32.0118 37.1801 32.0191 37.17 32.0234V32.0248Z" fill="#F25858"/>
<path d="M32.1269 34.8639L31.114 34.4917C31.1097 34.4902 31.1058 34.4877 31.1025 34.4844C31.0993 34.4811 31.0968 34.4772 31.0953 34.4729L30.7269 33.4497C30.7112 33.4064 30.6828 33.3689 30.6453 33.3424C30.6079 33.3159 30.5633 33.3017 30.5176 33.3017C30.4719 33.3017 30.4273 33.3159 30.3898 33.3424C30.3524 33.3689 30.3239 33.4064 30.3083 33.4497L29.9399 34.4729C29.9383 34.4772 29.9358 34.4811 29.9326 34.4844C29.9294 34.4877 29.9255 34.4902 29.9212 34.4917L28.9083 34.8639C28.8653 34.8797 28.8282 34.9084 28.802 34.9462C28.7758 34.9841 28.7617 35.0291 28.7617 35.0753C28.7617 35.1215 28.7758 35.1665 28.802 35.2043C28.8282 35.2421 28.8653 35.2709 28.9083 35.2867L29.9212 35.6588C29.9255 35.6604 29.9294 35.6629 29.9326 35.6662C29.9358 35.6694 29.9383 35.6734 29.9399 35.6777L30.3083 36.7008C30.3239 36.7442 30.3524 36.7817 30.3898 36.8082C30.4273 36.8347 30.4719 36.8489 30.5176 36.8489C30.5633 36.8489 30.6079 36.8347 30.6453 36.8082C30.6828 36.7817 30.7112 36.7442 30.7269 36.7008L31.0953 35.6777C31.0968 35.6734 31.0993 35.6694 31.1025 35.6662C31.1058 35.6629 31.1097 35.6604 31.114 35.6588L32.1269 35.2867C32.1698 35.2709 32.2069 35.2421 32.2331 35.2043C32.2594 35.1665 32.2734 35.1215 32.2734 35.0753C32.2734 35.0291 32.2594 34.9841 32.2331 34.9462C32.2069 34.9084 32.1698 34.8797 32.1269 34.8639ZM32.0614 35.1058L31.0485 35.4778C31.0179 35.489 30.9902 35.5069 30.9671 35.5302C30.9441 35.5534 30.9264 35.5815 30.9152 35.6124L30.547 36.6355C30.5445 36.6413 30.5404 36.6463 30.5352 36.6498C30.53 36.6533 30.5238 36.6551 30.5176 36.6551C30.5113 36.6551 30.5052 36.6533 30.5 36.6498C30.4948 36.6463 30.4907 36.6413 30.4882 36.6355L30.1199 35.6124C30.1088 35.5815 30.091 35.5534 30.068 35.5302C30.045 35.5069 30.0172 35.489 29.9866 35.4778L28.9738 35.105C28.968 35.1025 28.9631 35.0983 28.9596 35.0931C28.9562 35.0878 28.9543 35.0816 28.9543 35.0753C28.9543 35.069 28.9562 35.0628 28.9596 35.0575C28.9631 35.0522 28.968 35.0481 28.9738 35.0456L29.9866 34.6736C30.0172 34.6623 30.045 34.6444 30.068 34.6212C30.091 34.5979 30.1088 34.5699 30.1199 34.539L30.4882 33.5159C30.4907 33.51 30.4948 33.5051 30.5 33.5016C30.5052 33.4981 30.5113 33.4962 30.5176 33.4962C30.5238 33.4962 30.53 33.4981 30.5352 33.5016C30.5404 33.5051 30.5445 33.51 30.547 33.5159L30.9152 34.539C30.9264 34.5699 30.9441 34.5979 30.9671 34.6212C30.9902 34.6444 31.0179 34.6623 31.0485 34.6736L32.0614 35.0456C32.0672 35.0481 32.0721 35.0522 32.0755 35.0575C32.079 35.0628 32.0808 35.069 32.0808 35.0753C32.0808 35.0816 32.079 35.0878 32.0755 35.0931C32.0721 35.0983 32.0672 35.1033 32.0614 35.1058Z" fill="#F25858"/>
<path d="M32.0614 35.1058L31.0485 35.4778C31.0179 35.489 30.9902 35.5069 30.9671 35.5302C30.9441 35.5534 30.9264 35.5815 30.9152 35.6124L30.547 36.6355C30.5445 36.6413 30.5404 36.6463 30.5352 36.6498C30.53 36.6533 30.5238 36.6551 30.5176 36.6551C30.5113 36.6551 30.5052 36.6533 30.5 36.6498C30.4948 36.6463 30.4907 36.6413 30.4882 36.6355L30.1199 35.6124C30.1088 35.5815 30.091 35.5534 30.068 35.5302C30.045 35.5069 30.0172 35.489 29.9866 35.4778L28.9738 35.105C28.968 35.1025 28.9631 35.0983 28.9596 35.0931C28.9562 35.0878 28.9543 35.0816 28.9543 35.0753C28.9543 35.069 28.9562 35.0628 28.9596 35.0575C28.9631 35.0522 28.968 35.0481 28.9738 35.0456L29.9866 34.6736C30.0172 34.6623 30.045 34.6444 30.068 34.6212C30.091 34.5979 30.1088 34.5699 30.1199 34.539L30.4882 33.5159C30.4907 33.51 30.4948 33.5051 30.5 33.5016C30.5052 33.4981 30.5113 33.4962 30.5176 33.4962C30.5238 33.4962 30.53 33.4981 30.5352 33.5016C30.5404 33.5051 30.5445 33.51 30.547 33.5159L30.9152 34.539C30.9264 34.5699 30.9441 34.5979 30.9671 34.6212C30.9902 34.6444 31.0179 34.6623 31.0485 34.6736L32.0614 35.0456C32.0672 35.0481 32.0721 35.0522 32.0755 35.0575C32.079 35.0628 32.0808 35.069 32.0808 35.0753C32.0808 35.0816 32.079 35.0878 32.0755 35.0931C32.0721 35.0983 32.0672 35.1033 32.0614 35.1058Z" fill="#F25858"/>
<path d="M9.13892 35.5946L9.93704 32.0031C9.26275 30.0327 6.77802 26.598 8.73986 21.2285C10.7017 15.8589 17.48 13.0655 23.106 15.2426C25.8258 16.295 28.145 18.3051 29.3239 20.9043C30.5836 23.6819 30.5412 27.1322 28.2938 30.8059C23.9433 37.9175 15.3909 36.2597 12.3314 33.9984L9.13892 35.5946Z" fill="#0787FF"/>
<path d="M9.93704 32.0031L10.8543 32.2069L10.9116 31.9489L10.826 31.6989L9.93704 32.0031ZM9.13892 35.5946L8.22168 35.3908L7.79344 37.3179L9.55912 36.435L9.13892 35.5946ZM12.3314 33.9984L12.8899 33.2428L12.4265 32.9003L11.9112 33.158L12.3314 33.9984ZM28.2938 30.8059L27.4923 30.3156L27.4923 30.3156L28.2938 30.8059ZM23.106 15.2426L22.7669 16.1188L22.7669 16.1188L23.106 15.2426ZM38.3286 38.8427L37.5747 38.2818L37.3181 38.6268L37.4114 39.0465L38.3286 38.8427ZM39.1267 42.4342L38.7065 43.2746L40.4722 44.1575L40.0439 42.2304L39.1267 42.4342ZM35.9342 40.838L36.3544 39.9976L35.9398 39.7902L35.5229 39.9932L35.9342 40.838ZM19.1737 36.0493L19.9488 35.5182L18.3722 36.5396L19.1737 36.0493ZM29.3239 20.9043L28.4682 21.2924L29.3239 20.9043ZM9.01981 31.7993L8.22168 35.3908L10.0562 35.7985L10.8543 32.2069L9.01981 31.7993ZM9.55912 36.435L12.7516 34.8388L11.9112 33.158L8.71871 34.7542L9.55912 36.435ZM11.7729 34.754C13.4965 36.028 16.6227 37.0591 19.8872 36.8548C23.2042 36.6471 26.7343 35.1557 29.0953 31.2962L27.4923 30.3156C25.5028 33.5678 22.5815 34.8032 19.7698 34.9792C16.9055 35.1585 14.2258 34.2302 12.8899 33.2428L11.7729 34.754ZM23.4451 14.3663C17.383 12.0204 10.019 14.9894 7.85731 20.906L9.62241 21.5509C11.3844 16.7284 17.577 14.1105 22.7669 16.1188L23.4451 14.3663ZM7.85731 20.906C5.74735 26.681 8.45841 30.5843 9.04804 32.3073L10.826 31.6989C10.0671 29.4811 7.80869 26.5151 9.62241 21.5509L7.85731 20.906ZM37.4114 39.0465L38.2095 42.6381L40.0439 42.2304L39.2458 38.6389L37.4114 39.0465ZM39.5469 41.5938L36.3544 39.9976L35.514 41.6784L38.7065 43.2746L39.5469 41.5938ZM35.5229 39.9932C32.7342 41.3509 29.8528 41.8674 27.1998 41.2627C24.5683 40.6629 22.0392 38.9328 19.9752 35.5589L18.3722 36.5396C20.6587 40.2773 23.5841 42.366 26.7822 43.095C29.9589 43.819 33.2826 43.174 36.3455 41.6828L35.5229 39.9932ZM39.4325 27.5671C40.5395 30.888 40.3065 34.6101 37.5747 38.2818L39.0824 39.4035C42.2061 35.2051 42.5026 30.8349 41.2153 26.9728L39.4325 27.5671ZM29.3871 21.8418C35.1889 21.451 38.3761 24.3978 39.4325 27.5671L41.2153 26.9728C39.8774 22.959 35.8814 19.5208 29.2607 19.9669L29.3871 21.8418ZM29.0953 31.2962C31.4913 27.3797 31.5787 23.601 30.1796 20.5162L28.4682 21.2924C29.5886 23.7628 29.5911 26.8848 27.4923 30.3156L29.0953 31.2962ZM30.1796 20.5162C28.8855 17.663 26.3618 15.4949 23.4451 14.3663L22.7669 16.1188C25.2898 17.0951 27.4045 18.9472 28.4682 21.2924L30.1796 20.5162ZM35.5229 39.9932C32.7142 41.3607 29.9984 41.9107 27.4421 41.3324C24.899 40.7571 22.3541 39.0287 19.9488 35.5182L18.3986 36.5803C20.9938 40.3681 23.9034 42.4585 27.0275 43.1653C30.1384 43.869 33.3026 43.1643 36.3455 41.6828L35.5229 39.9932Z" fill="#0787FF"/>
<path d="M19.2963 20.5C19.9106 20.5 20.4513 20.5998 20.9185 20.7994C21.3857 20.999 21.7447 21.2768 21.9956 21.6326C22.2552 21.9884 22.385 22.3963 22.385 22.8563C22.385 23.5333 22.1211 24.1278 21.5933 24.6398C21.0742 25.1519 20.3821 25.5641 19.5169 25.8765L19.7635 27.2305H18.5176L18.1673 25.5771C19.4391 24.796 20.075 23.8848 20.075 22.8433C20.075 22.392 19.9668 22.0579 19.7505 21.8409C19.5342 21.6152 19.2487 21.5024 18.894 21.5024C18.6258 21.5024 18.3792 21.5632 18.1543 21.6847C17.9293 21.7975 17.752 21.9624 17.6222 22.1794C17.8644 22.2575 18.0678 22.392 18.2321 22.5829C18.4052 22.7652 18.4917 22.9865 18.4917 23.2469C18.4917 23.5593 18.3749 23.8197 18.1413 24.028C17.9164 24.2362 17.6482 24.3404 17.3367 24.3404C17.1204 24.3404 16.9084 24.284 16.7008 24.1712C16.4931 24.0583 16.3244 23.8934 16.1947 23.6765C16.0649 23.4595 16 23.2035 16 22.9084C16 22.4831 16.1341 22.0882 16.4023 21.7237C16.6792 21.3505 17.0642 21.0554 17.5573 20.8385C18.0591 20.6128 18.6388 20.5 19.2963 20.5ZM20.5162 29.5868C20.5162 29.9773 20.3951 30.2897 20.1528 30.5241C19.9192 30.7584 19.6034 30.8756 19.2055 30.8756C18.8161 30.8756 18.5003 30.7584 18.2581 30.5241C18.0245 30.2811 17.9077 29.9686 17.9077 29.5868C17.9077 29.1962 18.0245 28.8838 18.2581 28.6494C18.4917 28.4151 18.8075 28.2979 19.2055 28.2979C19.6034 28.2979 19.9192 28.4151 20.1528 28.6494C20.3951 28.8838 20.5162 29.1962 20.5162 29.5868Z" fill="white"/>
<path d="M1 12.75H0.75V12.5V4.5C0.75 2.15279 2.65279 0.25 5 0.25H45C47.3472 0.25 49.25 2.15279 49.25 4.5V12.5V12.75H49H1Z" fill="#2D3748" stroke="white" stroke-width="0.5"/>
<path d="M8.32516 7.51953V6.53125H9.75484C9.97099 6.53125 10.1455 6.49609 10.2783 6.42578C10.4137 6.35547 10.5127 6.25911 10.5752 6.13672C10.6377 6.01432 10.6689 5.8737 10.6689 5.71484C10.6689 5.55599 10.6377 5.40755 10.5752 5.26953C10.5127 5.12891 10.4137 5.01693 10.2783 4.93359C10.1455 4.84766 9.97099 4.80469 9.75484 4.80469H8.74703V9.5H7.51656V3.8125H9.75484C10.2054 3.8125 10.5921 3.89453 10.915 4.05859C11.2379 4.22266 11.4853 4.44792 11.6572 4.73438C11.8291 5.01823 11.915 5.34245 11.915 5.70703C11.915 6.07682 11.8291 6.39714 11.6572 6.66797C11.4853 6.9388 11.2379 7.14844 10.915 7.29688C10.5921 7.44531 10.2054 7.51953 9.75484 7.51953H8.32516ZM15.1608 3.8125C15.6009 3.8125 15.9785 3.87891 16.2936 4.01172C16.6113 4.14193 16.8548 4.33464 17.0241 4.58984C17.1933 4.84245 17.278 5.15625 17.278 5.53125C17.278 5.84375 17.2259 6.10938 17.1217 6.32812C17.0202 6.54688 16.8769 6.72786 16.692 6.87109C16.5071 7.01432 16.2897 7.13021 16.0397 7.21875L15.6491 7.44141H13.8248L13.817 6.44922H15.1569C15.3548 6.44922 15.5202 6.41667 15.653 6.35156C15.7858 6.28385 15.8847 6.1888 15.9498 6.06641C16.0149 5.94401 16.0475 5.79948 16.0475 5.63281C16.0475 5.3776 15.9746 5.17578 15.8288 5.02734C15.6855 4.87891 15.4629 4.80469 15.1608 4.80469H14.2467V9.5H13.0202V3.8125H15.1608ZM14.8873 6.97266L16.1842 6.96484L17.485 9.44141V9.5H16.1686L14.8873 6.97266ZM22.3011 9.5H19.2972V8.51172H22.3011V9.5ZM19.6917 9.5H18.4613V3.8125H19.6917V9.5ZM21.9105 7.05469H19.2972V6.09766H21.9105V7.05469ZM22.2972 4.80469H19.2972V3.8125H22.2972V4.80469ZM26.7891 3.8125H28.1523L26.1875 9.5H25.2852L25.4766 8.23828L26.7891 3.8125ZM25.6016 8.23828L25.8008 9.5H24.8984L22.9375 3.8125H24.3008L25.6016 8.23828ZM30.2809 9.5H29.0544V3.8125H30.2809V9.5ZM35.4955 9.5H32.4916V8.51172H35.4955V9.5ZM32.8861 9.5H31.6556V3.8125H32.8861V9.5ZM35.1048 7.05469H32.4916V6.09766H35.1048V7.05469ZM35.4916 4.80469H32.4916V3.8125H35.4916V4.80469ZM38.9678 3.8125H39.6241L39.7998 4.48047L38.6045 9.5H37.8936L37.8467 8.74609L38.9678 3.8125ZM38.2608 8.75781L38.1475 9.5H37.3623L36.1123 3.8125H37.335L38.2608 8.75781ZM41.6358 3.8125H42.8545L41.6084 9.5H40.8194L40.7217 8.73828L41.6358 3.8125ZM41.1358 8.76953L41.0772 9.5H40.3663L39.1631 4.47656L39.3545 3.8125H40.003L41.1358 8.76953Z" fill="white"/>
</svg>
