<svg width="48" height="48" viewBox="0 0 48 48" fill="none" xmlns="http://www.w3.org/2000/svg">
<path d="M7.47037 22C10.445 21.5 10.9407 26.9022 12.9238 26.3181C14.9069 25.734 14.9068 18.3593 16.8899 18C18.873 17.6407 18.873 25.1499 20.8561 25.1499C22.8392 25.1499 23.3349 31.7327 25.318 31.1486C27.3011 30.5645 27.7967 31.3823 29.7799 31.1486C31.763 30.915 32.7545 30.3251 35.2333 28.8648C37.7121 27.4046 37.2164 27.9198 37.2164 27.9198L38.7037 31.1486L43.6613 38H4C4 38 4.49577 22.5 7.47037 22Z" fill="#A2D2FF"/>
<path d="M6.97458 29.2928C9.94923 28.7123 10.9407 31.8728 12.9238 31.5503C14.9069 31.2278 14.1363 26.941 16.3942 26.3902C18.652 25.8394 19.3687 30.6796 21.3518 30.6796C23.3349 30.6796 24.3264 22.437 26.3095 22.1145C28.2926 21.792 30.2756 24.9981 32.2587 24.8691C34.2418 24.7401 34.2418 18.8665 36.7206 18.0602C39.1994 17.254 41.6783 23.5004 42.174 27.5004C42.6698 31.5004 43.1656 35.5004 43.1656 35.5004L43.6613 38.0004H4C4 38.0004 3.99994 29.8733 6.97458 29.2928Z" fill="#008625"/>
<path d="M6.97458 31.1579C9.94923 30.76 10.9407 32.9262 12.9238 32.7052C14.9069 32.4841 14.1363 26.3775 16.3942 26C18.652 25.6225 17.3857 19.5 19.8645 19.5C22.3434 19.5 22.8391 7.99998 26.3095 8C29.7799 8.00002 31.0028 24.1002 33.2502 24C35.4977 23.8998 35.729 25.1842 37.7121 24C39.6952 22.8158 41.1825 30.5 41.1825 30.5L42.174 34.1854L43.6613 38H4C4 38 3.99994 31.5558 6.97458 31.1579Z" fill="#45A6FF" fill-opacity="0.5"/>
<rect x="4" y="38" width="39.66" height="3" fill="#005EB7"/>
</svg>
