<svg xmlns="http://www.w3.org/2000/svg" xmlns:xlink="http://www.w3.org/1999/xlink" width="338" height="226" viewBox="0 0 338 226">
    <defs>
        <rect id="b" width="95.331" height="75.752" x="26.632" rx="4.735"/>
        <filter id="a" width="113.6%" height="117.2%" x="-5.8%" y="-7.3%" filterUnits="objectBoundingBox">
            <feOffset dx="1" dy="1" in="SourceAlpha" result="shadowOffsetOuter1"/>
            <feGaussianBlur in="shadowOffsetOuter1" result="shadowBlurOuter1" stdDeviation="2"/>
            <feColorMatrix in="shadowBlurOuter1" values="0 0 0 0 0 0 0 0 0 0 0 0 0 0 0 0 0 0 0.0969187063 0"/>
        </filter>
        <path id="d" d="M108.302 92.915h149.137a4.735 4.735 0 0 1 4.734 4.734v73.385a4.735 4.735 0 0 1-4.734 4.734H108.302a4.735 4.735 0 0 1-4.735-4.734V97.649a4.735 4.735 0 0 1 4.735-4.734z"/>
        <filter id="c" width="112%" height="122.9%" x="-5.4%" y="-10.3%" filterUnits="objectBoundingBox">
            <feOffset dx="1" dy="1" in="SourceAlpha" result="shadowOffsetOuter1"/>
            <feGaussianBlur in="shadowOffsetOuter1" result="shadowBlurOuter1" stdDeviation="3"/>
            <feColorMatrix in="shadowBlurOuter1" values="0 0 0 0 0 0 0 0 0 0 0 0 0 0 0 0 0 0 0.0969187063 0"/>
        </filter>
    </defs>
    <g fill="none" fill-rule="evenodd">
        <path fill-rule="nonzero" d="M-23-2h384v224H-23z"/>
        <g fill-rule="nonzero">
            <path fill="#E9EBEE" d="M262.33 98.833h-62.97c-17.363-.036-31.434-14.727-31.484-32.87v-32.87C167.831 14.873 181.923.059 199.361 0h125.937v33.093c-.019 36.318-28.204 65.748-62.962 65.74" opacity=".4"/>
            <g fill="#FB043D" opacity=".1" transform="matrix(-1 0 0 1 335.146 15.387)">
                <circle cx="103.589" cy="150.591" r="1"/>
                <circle cx="92.457" cy="150.591" r="1"/>
                <circle cx="81.325" cy="150.591" r="1"/>
                <circle cx="69.575" cy="150.591" r="1"/>
                <circle cx="58.443" cy="150.591" r="1"/>
                <circle cx="46.693" cy="150.591" r="1"/>
                <circle cx="35.561" cy="150.591" r="1"/>
                <circle cx="23.81" cy="150.591" r="1"/>
                <circle cx="12.678" cy="150.591" r="1"/>
                <circle cx=".928" cy="150.591" r="1"/>
                <circle cx="103.589" cy="142.551" r="1"/>
                <circle cx="92.457" cy="142.551" r="1"/>
                <circle cx="81.325" cy="142.551" r="1"/>
                <circle cx="69.575" cy="142.551" r="1"/>
                <circle cx="58.443" cy="142.551" r="1"/>
                <circle cx="46.693" cy="142.551" r="1"/>
                <circle cx="35.561" cy="142.551" r="1"/>
                <circle cx="23.81" cy="142.551" r="1"/>
                <circle cx="12.678" cy="142.551" r="1"/>
                <circle cx=".928" cy="142.551" r="1"/>
                <circle cx="103.589" cy="135.749" r="1"/>
                <circle cx="92.457" cy="135.749" r="1"/>
                <circle cx="81.325" cy="135.749" r="1"/>
                <circle cx="69.575" cy="135.749" r="1"/>
                <circle cx="58.443" cy="135.749" r="1"/>
                <circle cx="46.693" cy="135.749" r="1"/>
                <circle cx="35.561" cy="135.749" r="1"/>
                <circle cx="23.81" cy="135.749" r="1"/>
                <circle cx="12.678" cy="135.749" r="1"/>
                <circle cx=".928" cy="135.749" r="1"/>
                <circle cx="103.589" cy="128.946" r="1"/>
                <circle cx="92.457" cy="128.946" r="1"/>
                <circle cx="81.325" cy="128.946" r="1"/>
                <circle cx="69.575" cy="128.946" r="1"/>
                <circle cx="58.443" cy="128.946" r="1"/>
                <circle cx="46.693" cy="128.946" r="1"/>
                <circle cx="35.561" cy="128.946" r="1"/>
                <circle cx="23.81" cy="128.946" r="1"/>
                <circle cx="12.678" cy="128.946" r="1"/>
                <circle cx=".928" cy="128.946" r="1"/>
                <circle cx="103.589" cy="121.524" r="1"/>
                <circle cx="92.457" cy="121.524" r="1"/>
                <circle cx="81.325" cy="121.524" r="1"/>
                <circle cx="69.575" cy="121.524" r="1"/>
                <circle cx="58.443" cy="121.524" r="1"/>
                <circle cx="46.693" cy="121.524" r="1"/>
                <circle cx="35.561" cy="121.524" r="1"/>
                <circle cx="23.81" cy="121.524" r="1"/>
                <circle cx="12.678" cy="121.524" r="1"/>
                <circle cx=".928" cy="121.524" r="1"/>
                <circle cx="103.589" cy="114.103" r="1"/>
                <circle cx="92.457" cy="114.103" r="1"/>
                <circle cx="81.325" cy="114.103" r="1"/>
                <circle cx="69.575" cy="114.103" r="1"/>
                <circle cx="58.443" cy="114.103" r="1"/>
                <circle cx="46.693" cy="114.103" r="1"/>
                <circle cx="35.561" cy="114.103" r="1"/>
                <circle cx="23.81" cy="114.103" r="1"/>
                <circle cx="12.678" cy="114.103" r="1"/>
                <circle cx=".928" cy="114.103" r="1"/>
                <circle cx="103.589" cy="107.919" r="1"/>
                <circle cx="92.457" cy="107.919" r="1"/>
                <circle cx="81.325" cy="107.919" r="1"/>
                <circle cx="69.575" cy="107.919" r="1"/>
                <circle cx="58.443" cy="107.919" r="1"/>
                <circle cx="46.693" cy="107.919" r="1"/>
                <circle cx="35.561" cy="107.919" r="1"/>
                <circle cx="23.81" cy="107.919" r="1"/>
                <circle cx="12.678" cy="107.919" r="1"/>
                <circle cx=".928" cy="107.919" r="1"/>
                <circle cx="103.589" cy="101.116" r="1"/>
                <circle cx="92.457" cy="101.116" r="1"/>
                <circle cx="81.325" cy="101.116" r="1"/>
                <circle cx="69.575" cy="101.116" r="1"/>
                <circle cx="58.443" cy="101.116" r="1"/>
                <circle cx="46.693" cy="101.116" r="1"/>
                <circle cx="35.561" cy="101.116" r="1"/>
                <circle cx="23.81" cy="101.116" r="1"/>
                <circle cx="12.678" cy="101.116" r="1"/>
                <circle cx=".928" cy="101.116" r="1"/>
                <circle cx="103.589" cy="93.076" r="1"/>
                <circle cx="92.457" cy="93.076" r="1"/>
                <circle cx="81.325" cy="93.076" r="1"/>
                <circle cx="69.575" cy="93.076" r="1"/>
                <circle cx="58.443" cy="93.076" r="1"/>
                <circle cx="46.693" cy="93.076" r="1"/>
                <circle cx="35.561" cy="93.076" r="1"/>
                <circle cx="23.81" cy="93.076" r="1"/>
                <circle cx="12.678" cy="93.076" r="1"/>
                <circle cx=".928" cy="93.076" r="1"/>
                <circle cx="103.589" cy="86.273" r="1"/>
                <circle cx="92.457" cy="86.273" r="1"/>
                <circle cx="81.325" cy="86.273" r="1"/>
                <circle cx="69.575" cy="86.273" r="1"/>
                <circle cx="58.443" cy="86.273" r="1"/>
                <circle cx="46.693" cy="86.273" r="1"/>
                <circle cx="35.561" cy="86.273" r="1"/>
                <circle cx="23.81" cy="86.273" r="1"/>
                <circle cx="12.678" cy="86.273" r="1"/>
                <circle cx=".928" cy="86.273" r="1"/>
                <circle cx="103.589" cy="78.852" r="1"/>
                <circle cx="92.457" cy="78.852" r="1"/>
                <circle cx="81.325" cy="78.852" r="1"/>
                <circle cx="69.575" cy="78.852" r="1"/>
                <circle cx="58.443" cy="78.852" r="1"/>
                <circle cx="46.693" cy="78.852" r="1"/>
                <circle cx="35.561" cy="78.852" r="1"/>
                <circle cx="23.81" cy="78.852" r="1"/>
                <circle cx="12.678" cy="78.852" r="1"/>
                <circle cx=".928" cy="78.852" r="1"/>
                <circle cx="103.589" cy="72.667" r="1"/>
                <circle cx="92.457" cy="72.667" r="1"/>
                <circle cx="81.325" cy="72.667" r="1"/>
                <circle cx="69.575" cy="72.667" r="1"/>
                <circle cx="58.443" cy="72.667" r="1"/>
                <circle cx="46.693" cy="72.667" r="1"/>
                <circle cx="35.561" cy="72.667" r="1"/>
                <circle cx="23.81" cy="72.667" r="1"/>
                <circle cx="12.678" cy="72.667" r="1"/>
                <circle cx=".928" cy="72.667" r="1"/>
                <circle cx="103.589" cy="65.246" r="1"/>
                <circle cx="92.457" cy="65.246" r="1"/>
                <circle cx="81.325" cy="65.246" r="1"/>
                <circle cx="69.575" cy="65.246" r="1"/>
                <circle cx="58.443" cy="65.246" r="1"/>
                <circle cx="46.693" cy="65.246" r="1"/>
                <circle cx="35.561" cy="65.246" r="1"/>
                <circle cx="23.81" cy="65.246" r="1"/>
                <circle cx="12.678" cy="65.246" r="1"/>
                <circle cx=".928" cy="65.246" r="1"/>
                <circle cx="103.589" cy="57.825" r="1"/>
                <circle cx="92.457" cy="57.825" r="1"/>
                <circle cx="81.325" cy="57.825" r="1"/>
                <circle cx="69.575" cy="57.825" r="1"/>
                <circle cx="58.443" cy="57.825" r="1"/>
                <circle cx="46.693" cy="57.825" r="1"/>
                <circle cx="35.561" cy="57.825" r="1"/>
                <circle cx="23.81" cy="57.825" r="1"/>
                <circle cx="12.678" cy="57.825" r="1"/>
                <circle cx=".928" cy="57.825" r="1"/>
                <circle cx="103.589" cy="50.403" r="1"/>
                <circle cx="92.457" cy="50.403" r="1"/>
                <circle cx="81.325" cy="50.403" r="1"/>
                <circle cx="69.575" cy="50.403" r="1"/>
                <circle cx="58.443" cy="50.403" r="1"/>
                <circle cx="46.693" cy="50.403" r="1"/>
                <circle cx="35.561" cy="50.403" r="1"/>
                <circle cx="23.81" cy="50.403" r="1"/>
                <circle cx="12.678" cy="50.403" r="1"/>
                <circle cx=".928" cy="50.403" r="1"/>
                <circle cx="103.589" cy="43.6" r="1"/>
                <circle cx="92.457" cy="43.6" r="1"/>
                <circle cx="81.325" cy="43.6" r="1"/>
                <circle cx="69.575" cy="43.6" r="1"/>
                <circle cx="58.443" cy="43.6" r="1"/>
                <circle cx="46.693" cy="43.6" r="1"/>
                <circle cx="35.561" cy="43.6" r="1"/>
                <circle cx="23.81" cy="43.6" r="1"/>
                <circle cx="12.678" cy="43.6" r="1"/>
                <circle cx=".928" cy="43.6" r="1"/>
                <circle cx="103.589" cy="37.416" r="1"/>
                <circle cx="92.457" cy="37.416" r="1"/>
                <circle cx="81.325" cy="37.416" r="1"/>
                <circle cx="69.575" cy="37.416" r="1"/>
                <circle cx="58.443" cy="37.416" r="1"/>
                <circle cx="46.693" cy="37.416" r="1"/>
                <circle cx="35.561" cy="37.416" r="1"/>
                <circle cx="23.81" cy="37.416" r="1"/>
                <circle cx="12.678" cy="37.416" r="1"/>
                <circle cx=".928" cy="37.416" r="1"/>
                <circle cx="103.589" cy="29.376" r="1"/>
                <circle cx="92.457" cy="29.376" r="1"/>
                <circle cx="81.325" cy="29.376" r="1"/>
                <circle cx="69.575" cy="29.376" r="1"/>
                <circle cx="58.443" cy="29.376" r="1"/>
                <circle cx="46.693" cy="29.376" r="1"/>
                <circle cx="35.561" cy="29.376" r="1"/>
                <circle cx="23.81" cy="29.376" r="1"/>
                <circle cx="12.678" cy="29.376" r="1"/>
                <circle cx=".928" cy="29.376" r="1"/>
                <circle cx="103.589" cy="22.573" r="1"/>
                <circle cx="92.457" cy="22.573" r="1"/>
                <circle cx="81.325" cy="22.573" r="1"/>
                <circle cx="69.575" cy="22.573" r="1"/>
                <circle cx="58.443" cy="22.573" r="1"/>
                <circle cx="46.693" cy="22.573" r="1"/>
                <circle cx="35.561" cy="22.573" r="1"/>
                <circle cx="23.81" cy="22.573" r="1"/>
                <circle cx="12.678" cy="22.573" r="1"/>
                <circle cx=".928" cy="22.573" r="1"/>
                <circle cx="103.589" cy="15.152" r="1"/>
                <circle cx="92.457" cy="15.152" r="1"/>
                <circle cx="81.325" cy="15.152" r="1"/>
                <circle cx="69.575" cy="15.152" r="1"/>
                <circle cx="58.443" cy="15.152" r="1"/>
                <circle cx="46.693" cy="15.152" r="1"/>
                <circle cx="35.561" cy="15.152" r="1"/>
                <circle cx="23.81" cy="15.152" r="1"/>
                <circle cx="12.678" cy="15.152" r="1"/>
                <circle cx=".928" cy="15.152" r="1"/>
                <circle cx="103.589" cy="7.731" r="1"/>
                <circle cx="92.457" cy="7.731" r="1"/>
                <circle cx="81.325" cy="7.731" r="1"/>
                <circle cx="69.575" cy="7.731" r="1"/>
                <circle cx="58.443" cy="7.731" r="1"/>
                <circle cx="46.693" cy="7.731" r="1"/>
                <circle cx="35.561" cy="7.731" r="1"/>
                <circle cx="23.81" cy="7.731" r="1"/>
                <circle cx="12.678" cy="7.731" r="1"/>
                <circle cx=".928" cy="7.731" r="1"/>
                <circle cx="103.589" cy=".928" r="1"/>
                <circle cx="92.457" cy=".928" r="1"/>
                <circle cx="81.325" cy=".928" r="1"/>
                <circle cx="69.575" cy=".928" r="1"/>
                <circle cx="58.443" cy=".928" r="1"/>
                <circle cx="46.693" cy=".928" r="1"/>
                <circle cx="35.561" cy=".928" r="1"/>
                <circle cx="23.81" cy=".928" r="1"/>
                <circle cx="12.678" cy=".928" r="1"/>
                <circle cx=".928" cy=".928" r="1"/>
            </g>
        </g>
        <g fill="#FFC916" fill-rule="nonzero" opacity=".3" transform="translate(16.03 42.61)">
            <ellipse cx="1.237" cy=".824" rx="1" ry="1"/>
            <ellipse cx="9.484" cy=".824" rx="1" ry="1"/>
            <ellipse cx="17.731" cy=".824" rx="1" ry="1"/>
            <ellipse cx="25.979" cy=".824" rx="1" ry="1"/>
            <ellipse cx="34.226" cy=".824" rx="1" ry="1"/>
            <ellipse cx="42.473" cy=".824" rx="1" ry="1"/>
            <ellipse cx="50.72" cy=".824" rx="1" ry="1"/>
            <ellipse cx="58.967" cy=".824" rx="1" ry="1"/>
            <ellipse cx="67.215" cy=".824" rx="1" ry="1"/>
            <ellipse cx="75.462" cy=".824" rx="1" ry="1"/>
            <ellipse cx="1.237" cy="6.59" rx="1" ry="1"/>
            <ellipse cx="9.484" cy="6.59" rx="1" ry="1"/>
            <ellipse cx="17.731" cy="6.59" rx="1" ry="1"/>
            <ellipse cx="25.979" cy="6.59" rx="1" ry="1"/>
            <ellipse cx="34.226" cy="6.59" rx="1" ry="1"/>
            <ellipse cx="42.473" cy="6.59" rx="1" ry="1"/>
            <ellipse cx="50.72" cy="6.59" rx="1" ry="1"/>
            <ellipse cx="58.967" cy="6.59" rx="1" ry="1"/>
            <ellipse cx="67.215" cy="6.59" rx="1" ry="1"/>
            <ellipse cx="75.462" cy="6.59" rx="1" ry="1"/>
            <ellipse cx="1.237" cy="13.181" rx="1" ry="1"/>
            <ellipse cx="9.484" cy="13.181" rx="1" ry="1"/>
            <ellipse cx="17.731" cy="13.181" rx="1" ry="1"/>
            <ellipse cx="25.979" cy="13.181" rx="1" ry="1"/>
            <ellipse cx="34.226" cy="13.181" rx="1" ry="1"/>
            <ellipse cx="42.473" cy="13.181" rx="1" ry="1"/>
            <ellipse cx="50.72" cy="13.181" rx="1" ry="1"/>
            <ellipse cx="58.967" cy="13.181" rx="1" ry="1"/>
            <ellipse cx="67.215" cy="13.181" rx="1" ry="1"/>
            <ellipse cx="75.462" cy="13.181" rx="1" ry="1"/>
            <ellipse cx="1.237" cy="19.771" rx="1" ry="1"/>
            <ellipse cx="9.484" cy="19.771" rx="1" ry="1"/>
            <ellipse cx="17.731" cy="19.771" rx="1" ry="1"/>
            <ellipse cx="25.979" cy="19.771" rx="1" ry="1"/>
            <ellipse cx="34.226" cy="19.771" rx="1" ry="1"/>
            <ellipse cx="42.473" cy="19.771" rx="1" ry="1"/>
            <ellipse cx="50.72" cy="19.771" rx="1" ry="1"/>
            <ellipse cx="58.967" cy="19.771" rx="1" ry="1"/>
            <ellipse cx="67.215" cy="19.771" rx="1" ry="1"/>
            <ellipse cx="75.462" cy="19.771" rx="1" ry="1"/>
            <ellipse cx="1.237" cy="26.362" rx="1" ry="1"/>
            <ellipse cx="9.484" cy="26.362" rx="1" ry="1"/>
            <ellipse cx="17.731" cy="26.362" rx="1" ry="1"/>
            <ellipse cx="25.979" cy="26.362" rx="1" ry="1"/>
            <ellipse cx="34.226" cy="26.362" rx="1" ry="1"/>
            <ellipse cx="42.473" cy="26.362" rx="1" ry="1"/>
            <ellipse cx="50.72" cy="26.362" rx="1" ry="1"/>
            <ellipse cx="58.967" cy="26.362" rx="1" ry="1"/>
            <ellipse cx="67.215" cy="26.362" rx="1" ry="1"/>
            <ellipse cx="75.462" cy="26.362" rx="1" ry="1"/>
            <ellipse cx="1.237" cy="32.952" rx="1" ry="1"/>
            <ellipse cx="9.484" cy="32.952" rx="1" ry="1"/>
            <ellipse cx="17.731" cy="32.952" rx="1" ry="1"/>
            <ellipse cx="25.979" cy="32.952" rx="1" ry="1"/>
            <ellipse cx="34.226" cy="32.952" rx="1" ry="1"/>
            <ellipse cx="42.473" cy="32.952" rx="1" ry="1"/>
            <ellipse cx="50.72" cy="32.952" rx="1" ry="1"/>
            <ellipse cx="58.967" cy="32.952" rx="1" ry="1"/>
            <ellipse cx="67.215" cy="32.952" rx="1" ry="1"/>
            <ellipse cx="75.462" cy="32.952" rx="1" ry="1"/>
            <ellipse cx="1.237" cy="39.543" rx="1" ry="1"/>
            <ellipse cx="9.484" cy="39.543" rx="1" ry="1"/>
            <ellipse cx="17.731" cy="39.543" rx="1" ry="1"/>
            <ellipse cx="25.979" cy="39.543" rx="1" ry="1"/>
            <ellipse cx="34.226" cy="39.543" rx="1" ry="1"/>
            <ellipse cx="42.473" cy="39.543" rx="1" ry="1"/>
            <ellipse cx="50.72" cy="39.543" rx="1" ry="1"/>
            <ellipse cx="58.967" cy="39.543" rx="1" ry="1"/>
            <ellipse cx="67.215" cy="39.543" rx="1" ry="1"/>
            <ellipse cx="75.462" cy="39.543" rx="1" ry="1"/>
            <ellipse cx="1.237" cy="46.133" rx="1" ry="1"/>
            <ellipse cx="9.484" cy="46.133" rx="1" ry="1"/>
            <ellipse cx="17.731" cy="46.133" rx="1" ry="1"/>
            <ellipse cx="25.979" cy="46.133" rx="1" ry="1"/>
            <ellipse cx="34.226" cy="46.133" rx="1" ry="1"/>
            <ellipse cx="42.473" cy="46.133" rx="1" ry="1"/>
            <ellipse cx="50.72" cy="46.133" rx="1" ry="1"/>
            <ellipse cx="58.967" cy="46.133" rx="1" ry="1"/>
            <ellipse cx="67.215" cy="46.133" rx="1" ry="1"/>
            <ellipse cx="75.462" cy="46.133" rx="1" ry="1"/>
            <ellipse cx="1.237" cy="52.723" rx="1" ry="1"/>
            <ellipse cx="9.484" cy="52.723" rx="1" ry="1"/>
            <ellipse cx="17.731" cy="52.723" rx="1" ry="1"/>
            <ellipse cx="25.979" cy="52.723" rx="1" ry="1"/>
            <ellipse cx="34.226" cy="52.723" rx="1" ry="1"/>
            <ellipse cx="42.473" cy="52.723" rx="1" ry="1"/>
            <ellipse cx="50.72" cy="52.723" rx="1" ry="1"/>
            <ellipse cx="58.967" cy="52.723" rx="1" ry="1"/>
            <ellipse cx="67.215" cy="52.723" rx="1" ry="1"/>
            <ellipse cx="75.462" cy="52.723" rx="1" ry="1"/>
            <ellipse cx="1.237" cy="59.314" rx="1" ry="1"/>
            <ellipse cx="9.484" cy="59.314" rx="1" ry="1"/>
            <ellipse cx="17.731" cy="59.314" rx="1" ry="1"/>
            <ellipse cx="25.979" cy="59.314" rx="1" ry="1"/>
            <ellipse cx="34.226" cy="59.314" rx="1" ry="1"/>
            <ellipse cx="42.473" cy="59.314" rx="1" ry="1"/>
            <ellipse cx="50.72" cy="59.314" rx="1" ry="1"/>
            <ellipse cx="58.967" cy="59.314" rx="1" ry="1"/>
            <ellipse cx="67.215" cy="59.314" rx="1" ry="1"/>
            <ellipse cx="75.462" cy="59.314" rx="1" ry="1"/>
            <ellipse cx="1.237" cy="65.08" rx="1" ry="1"/>
            <ellipse cx="9.484" cy="65.08" rx="1" ry="1"/>
            <ellipse cx="17.731" cy="65.08" rx="1" ry="1"/>
            <ellipse cx="25.979" cy="65.08" rx="1" ry="1"/>
            <ellipse cx="34.226" cy="65.08" rx="1" ry="1"/>
            <ellipse cx="42.473" cy="65.08" rx="1" ry="1"/>
            <ellipse cx="50.72" cy="65.08" rx="1" ry="1"/>
            <ellipse cx="58.967" cy="65.08" rx="1" ry="1"/>
            <ellipse cx="67.215" cy="65.08" rx="1" ry="1"/>
            <ellipse cx="75.462" cy="65.08" rx="1" ry="1"/>
        </g>
        <g transform="translate(74.62 5.326)">
            <path fill="#F9F9F9" fill-rule="nonzero" stroke="#E9EBEE" stroke-width=".523" d="M5.73 32.633h196.335a5.227 5.227 0 0 1 5.226 5.227v136.865a5.227 5.227 0 0 1-5.226 5.227H5.73a5.227 5.227 0 0 1-5.227-5.227V37.86a5.227 5.227 0 0 1 5.227-5.227z"/>
            <path fill="#283A5E" fill-rule="nonzero" d="M6.442 32.348h194.841a5.969 5.969 0 0 1 5.974 5.964v6.561H.469v-6.56a5.969 5.969 0 0 1 5.973-5.965z"/>
            <path fill="#F6F7F7" fill-rule="nonzero" d="M42.88 44.873h1.792v2.982H42.88z"/>
            <g fill-rule="nonzero" transform="translate(28.407 91.14)">
                <ellipse cx="38.783" cy="3.271" fill="#D3D7DE" rx="2.091" ry="2.088"/>
                <ellipse cx="2.091" cy="3.271" fill="#D3D7DE" rx="2.091" ry="2.088"/>
                <ellipse cx="38.783" cy="15.26" fill="#E9EBEE" rx="2.091" ry="2.088"/>
                <ellipse cx="2.091" cy="15.26" fill="#E9EBEE" rx="2.091" ry="2.088"/>
                <path fill="#E9EBEE" d="M45.652 2.376h17.92v1.789h-17.92zM8.96 2.376h17.92v1.789H8.96zM45.652 14.365h17.92v1.789h-17.92zM8.96 14.365h17.92v1.789H8.96z"/>
                <ellipse cx="75.475" cy="2.088" fill="#E9EBEE" opacity=".7" rx="2.091" ry="2.088"/>
                <ellipse cx="75.475" cy="14.999" fill="#E9EBEE" opacity=".7" rx="2.091" ry="2.088"/>
                <path fill="#E9EBEE" d="M82.345 1.193h17.92v1.789h-17.92zM82.345 14.105h17.92v1.789h-17.92z"/>
            </g>
            <g fill-rule="nonzero">
                <path fill="#E9EBEE" d="M149.132 158.902c-1.148-1.46-2.716-2.66-4.564-3.494-5.925-2.742-15.185-1.979-20.943.872-2.914 1.295-6.22 1.861-9.517 1.63-1.759-.2-3.479-.586-5.12-1.148a13.38 13.38 0 0 1-3.357-1.72c-2.774-1.94-9.905-6.489-14.796-6.489-3.88-.29-7.778.356-11.223 1.859a9.065 9.065 0 0 1-3.774.728c-2.234-.08-5.383-.958-8.206-4.526a12.81 12.81 0 0 1-1.422-2.294 59.84 59.84 0 0 0-5.966-9.752c-2.282-3.018-5.341-7.039-10.537-8.404-9.17-2.415-12.673 8.255-14.748 11.553 0 0-18.812 29.979-25.666 32.658H162.77s-9.296-5.794-13.638-11.473z"/>
                <path fill="#FFF" d="M194.547 170.812s-11.498-6.415-16.698-15.353c0 0-10.987-19.033-19.812 1.466 0 0 3.46 10.574 8.34 11.765 0 0 5.277 3.25 8.868 3.024 0 0 18.168-1.924 19.302-.902zM137.078 164.172a85.77 85.77 0 0 1-7.746-4.671c-4.946-3.389-12.402-4.519-18.337-1.74-.981.47-1.914 1.017-2.788 1.633-1.704 1.174-5.709 3.84-7.64 4.326 0 0 7.06 6.58 15.02 5.083 0 0 13.732-3.044 14.69-1.497 0 .017 5.924-1.327 6.8-3.134zM86.37 162.737s-8.44-2.815-16.227.403c-.006 0 6.294 5.903 16.227-.403z"/>
                <path fill="#A3ACBD" d="M204.688 169.7H9.97s19.25-42.374 28.337-27.333c.34.563.505 1.118.816 1.656 1.198 2.05 4.347 6.996 7.822 8.885 1.05.52 2.31.668 3.495.41 3.066-.632 6.922-1.207 10.057-.484 1.581.337 2.894 1.24 3.579 2.46 1.204 2.276 4.886 7.66 13.068 8.173 0 0 5.205 1.315 11.455-2.624 4.568-2.88 12.459-.495 16.404.996 1.158.436 2.25.982 3.253 1.628 4.202 2.686 9.522 3.9 14.806 3.381a10.754 10.754 0 0 0 1.689-.296c1.965-.5 7.323-1.742 11.012-1.434 2.067.155 4.143-.192 5.973-.996 3.302-1.397 5.878-3.728 7.254-6.563 0 0 7.288-15.09 12.494-1.31 0 0 1.681 6.347 9.558 8.595a15.15 15.15 0 0 0 4.97.467l8.34-.53s13.567-1.314 20.336 4.919z"/>
            </g>
            <use fill="#000" filter="url(#a)" xlink:href="#b"/>
            <use fill="#FFF" xlink:href="#b"/>
            <g fill-rule="nonzero">
                <path fill="#A3ACBD" d="M74.801 19.556c8.599.467 15.466 7.325 15.934 15.912h7.725c-.484-12.846-10.8-23.148-23.664-23.632l.005 7.72z" opacity=".552"/>
                <path fill="#3C4D6F" d="M90.598 36.886c-.204 5.472-3.12 10.473-7.756 13.31l3.553 6.541c6.996-4.15 11.377-11.65 11.591-19.84l-7.388-.01z"/>
                <path fill="#FF4702" d="M81.086 50.805a16.575 16.575 0 0 1-18.252-2.53 16.529 16.529 0 0 1-4.612-17.82A16.558 16.558 0 0 1 72.96 19.409v-7.572a24.138 24.138 0 0 0-21.84 15.986 24.094 24.094 0 0 0 6.76 26.189 24.163 24.163 0 0 0 26.855 3.446l-3.649-6.652z"/>
            </g>
            <path fill="#FFF" fill-rule="nonzero" d="M9.29 36.6h2.374c.528 0 .719.056.912.159.193.103.344.255.447.447.104.193.158.385.158.912v2.367c0 .528-.054.72-.158.912a1.075 1.075 0 0 1-.447.447c-.193.104-.384.159-.912.159H9.29c-.528 0-.719-.055-.912-.159a1.075 1.075 0 0 1-.447-.447c-.103-.193-.158-.384-.158-.912v-2.367c0-.527.055-.719.158-.912.103-.192.254-.344.447-.447.193-.103.384-.158.912-.158zM19.272 36.6h2.374c.528 0 .719.056.912.159.193.103.344.255.447.447.103.193.158.385.158.912v2.367c0 .528-.055.72-.158.912a1.075 1.075 0 0 1-.447.447c-.193.104-.384.159-.912.159h-2.374c-.528 0-.72-.055-.912-.159a1.075 1.075 0 0 1-.448-.447c-.103-.193-.158-.384-.158-.912v-2.367c0-.527.055-.719.158-.912.104-.192.255-.344.448-.447.193-.103.384-.158.912-.158zM197.074 36.01h2.374c.528 0 .719.054.912.157.193.103.344.255.447.448.103.193.158.384.158.911v2.367c0 .528-.055.72-.158.912a1.075 1.075 0 0 1-.447.448c-.193.103-.384.158-.912.158h-2.374c-.528 0-.72-.055-.912-.158a1.075 1.075 0 0 1-.448-.448c-.103-.193-.158-.384-.158-.912v-2.367c0-.527.055-.718.158-.911.104-.193.255-.345.448-.448.193-.103.384-.158.912-.158z" opacity=".156"/>
            <g transform="rotate(90 182.87 134.342)">
                <use fill="#000" filter="url(#c)" xlink:href="#d"/>
                <use fill="#FFF" xlink:href="#d"/>
            </g>
            <g opacity=".346">
                <path fill="#E9EBEE" d="M182.072 130.199h33.052v2.022h-33.052zM182.072 140.309h33.052v2.022h-33.052zM182.072 150.419h33.052v2.022h-33.052zM182.072 160.529h33.052v2.022h-33.052zM182.072 170.64h33.052v2.022h-33.052zM182.072 180.75h33.052v2.022h-33.052zM182.072 190.86h33.052v2.022h-33.052zM182.072 200.97h33.052v2.022h-33.052z"/>
                <path fill="#3C4D6F" d="M152.392 130.199h22.26v2.022h-22.26zM152.392 140.309h22.26v2.022h-22.26zM152.392 150.419h22.26v2.022h-22.26zM152.392 160.529h22.26v2.022h-22.26zM152.392 170.64h22.26v2.022h-22.26zM152.392 180.75h22.26v2.022h-22.26zM152.392 190.86h22.26v2.022h-22.26zM152.392 200.97h22.26v2.022h-22.26z" opacity=".438"/>
            </g>
            <rect width="65.099" height="60.365" x="150.32" y="62.14" fill="#D8D8D8" stroke="#979797" stroke-width=".592" opacity=".084" rx="2.367"/>
            <g fill-rule="nonzero" transform="translate(164.524 72.793)">
                <path fill="#FF4702" d="M0 2.025h4.735v26.32H0z"/>
                <path fill="#3C4D6F" d="M10.822 11.473h4.735v16.872h-4.735z"/>
                <path fill="#FF4702" d="M20.967 0h4.735v28.345h-4.735z"/>
                <path fill="#3C4D6F" d="M31.789 4.049h4.735v24.97h-4.735z"/>
                <ellipse cx="2.029" cy="37.118" fill="#FF4702" rx="1.353" ry="1.35"/>
                <path fill="#E9EBEE" d="M4.058 36.443h12.174v1H4.058z"/>
                <ellipse cx="22.996" cy="37.118" fill="#3C4D6F" rx="1.353" ry="1.35"/>
                <path fill="#E9EBEE" d="M26.378 36.443H37.2v1H26.378z"/>
            </g>
        </g>
        <g transform="matrix(-1 0 0 1 216.063 27.223)">
            <rect width="75.16" height="109.485" x="140.26" y="46.753" fill="#283A5E" rx="2.959"/>
            <g fill-rule="nonzero" transform="translate(142.627 49.12)">
                <path fill="#A1ABBF" d="M69.242 21.305H1.184C.53 21.305 0 21.835 0 22.49v16.57c0 .654.53 1.184 1.184 1.184H69.242c.654 0 1.184-.53 1.184-1.183V22.489c0-.654-.53-1.184-1.184-1.184zM69.242 0H1.184C.53 0 0 .53 0 1.184v16.57c0 .654.53 1.184 1.184 1.184H69.242c.654 0 1.184-.53 1.184-1.184V1.184C70.426.53 69.896 0 69.242 0z"/>
                <path fill="#FFF" d="M46.161 27.815H19.53a2.96 2.96 0 1 0 0 5.918H47.043c1.147 0 2.077-.93 2.077-2.077v-.882a2.96 2.96 0 0 0-2.959-2.959zM46.161 6.51H19.53a2.96 2.96 0 1 0 0 5.918H47.043c1.147 0 2.077-.93 2.077-2.078V9.47a2.96 2.96 0 0 0-2.959-2.96z" opacity=".332"/>
                <rect width="4.735" height="4.735" x="58.589" y="27.815" fill="#FFF" rx="2.367" transform="matrix(-1 0 0 1 121.913 0)"/>
                <rect width="4.735" height="4.735" x="58.589" y="6.51" fill="#FFF" rx="2.367" transform="matrix(-1 0 0 1 121.913 0)"/>
                <rect width="1.184" height="7.694" x="4.735" y="26.632" fill="#FFF" rx=".592" transform="matrix(-1 0 0 1 10.653 0)"/>
                <rect width="1.184" height="7.694" x="4.735" y="5.326" fill="#FFF" rx=".592" transform="matrix(-1 0 0 1 10.653 0)"/>
                <rect width="1.184" height="7.694" x="7.694" y="26.632" fill="#FFF" rx=".592" transform="matrix(-1 0 0 1 16.57 0)"/>
                <rect width="1.184" height="7.694" x="7.694" y="5.326" fill="#FFF" rx=".592" transform="matrix(-1 0 0 1 16.57 0)"/>
                <rect width="1.184" height="7.694" x="10.653" y="26.632" fill="#FFF" rx=".592" transform="matrix(-1 0 0 1 22.489 0)"/>
                <rect width="1.184" height="7.694" x="10.653" y="5.326" fill="#FFF" rx=".592" transform="matrix(-1 0 0 1 22.489 0)"/>
                <path fill="#A1ABBF" d="M69.242 42.61H1.184C.53 42.61 0 43.14 0 43.795v16.57c0 .655.53 1.185 1.184 1.185H69.242c.654 0 1.184-.53 1.184-1.184v-16.57c0-.655-.53-1.184-1.184-1.184z"/>
                <path fill="#FFF" d="M46.161 49.12H19.53a2.96 2.96 0 1 0 0 5.919H47.043c1.147 0 2.077-.93 2.077-2.078v-.881a2.96 2.96 0 0 0-2.959-2.96z" opacity=".332"/>
                <rect width="4.735" height="4.735" x="58.589" y="49.12" fill="#FFF" rx="2.367" transform="matrix(-1 0 0 1 121.913 0)"/>
                <rect width="1.184" height="7.694" x="4.735" y="47.937" fill="#FFF" rx=".592" transform="matrix(-1 0 0 1 10.653 0)"/>
                <rect width="1.184" height="7.694" x="7.694" y="47.937" fill="#FFF" rx=".592" transform="matrix(-1 0 0 1 16.57 0)"/>
                <rect width="1.184" height="7.694" x="10.653" y="47.937" fill="#FFF" rx=".592" transform="matrix(-1 0 0 1 22.489 0)"/>
                <path fill="#A1ABBF" d="M69.242 63.916H1.184c-.654 0-1.184.53-1.184 1.183V81.67c0 .654.53 1.184 1.184 1.184H69.242c.654 0 1.184-.53 1.184-1.184V65.1c0-.654-.53-1.184-1.184-1.184z"/>
                <path fill="#FFF" d="M46.161 70.426H19.53a2.96 2.96 0 1 0 0 5.918H47.043c1.147 0 2.077-.93 2.077-2.078v-.881a2.96 2.96 0 0 0-2.959-2.96z" opacity=".332"/>
                <rect width="4.735" height="4.735" x="58.589" y="70.426" fill="#FFF" rx="2.367" transform="matrix(-1 0 0 1 121.913 0)"/>
                <rect width="1.184" height="7.694" x="4.735" y="69.242" fill="#FFF" rx=".592" transform="matrix(-1 0 0 1 10.653 0)"/>
                <rect width="1.184" height="7.694" x="7.694" y="69.242" fill="#FFF" rx=".592" transform="matrix(-1 0 0 1 16.57 0)"/>
                <rect width="1.184" height="7.694" x="10.653" y="69.242" fill="#FFF" rx=".592" transform="matrix(-1 0 0 1 22.489 0)"/>
                <path fill="#A1ABBF" d="M69.242 85.221H1.184c-.654 0-1.184.53-1.184 1.184v16.57c0 .654.53 1.184 1.184 1.184H69.242c.654 0 1.184-.53 1.184-1.184v-16.57c0-.654-.53-1.184-1.184-1.184z"/>
                <path fill="#FFF" d="M46.161 91.731H19.53a2.96 2.96 0 1 0 0 5.918H47.043c1.147 0 2.077-.93 2.077-2.078v-.88a2.96 2.96 0 0 0-2.959-2.96z" opacity=".332"/>
                <rect width="4.735" height="4.735" x="58.589" y="91.731" fill="#FFF" rx="2.367" transform="matrix(-1 0 0 1 121.913 0)"/>
                <rect width="1.184" height="7.694" x="4.735" y="90.547" fill="#FFF" rx=".592" transform="matrix(-1 0 0 1 10.653 0)"/>
                <rect width="1.184" height="7.694" x="7.694" y="90.547" fill="#FFF" rx=".592" transform="matrix(-1 0 0 1 16.57 0)"/>
                <rect width="1.184" height="7.694" x="10.653" y="90.547" fill="#FFF" rx=".592" transform="matrix(-1 0 0 1 22.489 0)"/>
            </g>
            <path stroke="#283A5E" stroke-dasharray="1.775438590356481,2.959064266137909" stroke-width=".592" d="M175.768 156.239v10.652a5.918 5.918 0 0 1-5.918 5.918H0M175.768 49.12V5.918A5.918 5.918 0 0 0 169.85 0h-55.63"/>
        </g>
        <g fill-rule="nonzero" transform="translate(312.992 196.482)">
            <ellipse cx="12.162" cy="19.24" fill="#F6F7F8" rx="12.162" ry="2.805"/>
            <path fill="#43B963" d="M18.31.006h2.131a7.73 7.73 0 0 1-7.729 7.729V5.61A5.604 5.604 0 0 1 18.311.006z"/>
            <path fill="#02AD46" d="M13.38 7.73h-3.118a4.61 4.61 0 0 1-4.61-4.611V0H7.77a5.604 5.604 0 0 1 5.61 5.604V7.73z"/>
            <path fill="#3B4D6F" d="M14.653 19.636H9.155a3.859 3.859 0 0 1-3.81-3.249L4.16 9.12a1.775 1.775 0 0 1 1.776-2.06h11.949a1.775 1.775 0 0 1 1.775 2.06l-1.184 7.267a3.859 3.859 0 0 1-3.823 3.25z"/>
        </g>
    </g>
</svg>
