<svg xmlns="http://www.w3.org/2000/svg" width="339" height="221" viewBox="0 0 339 221">
    <g fill="none" fill-rule="evenodd">
        <path fill-rule="nonzero" d="M-23-2h384v224H-23z"/>
        <g fill-rule="nonzero">
            <path fill="#E9EBEE" d="M263.33 118.833h-62.97c-17.363-.036-31.434-14.727-31.484-32.87v-32.87c-.045-18.22 14.047-33.034 31.485-33.093h125.937v33.093c-.019 36.318-28.204 65.748-62.962 65.74" opacity=".4"/>
            <g fill="#FB043D" opacity=".1" transform="matrix(-1 0 0 1 336.146 35.387)">
                <circle cx="103.589" cy="150.591" r="1"/>
                <circle cx="92.457" cy="150.591" r="1"/>
                <circle cx="81.325" cy="150.591" r="1"/>
                <circle cx="69.575" cy="150.591" r="1"/>
                <circle cx="58.443" cy="150.591" r="1"/>
                <circle cx="46.693" cy="150.591" r="1"/>
                <circle cx="35.561" cy="150.591" r="1"/>
                <circle cx="23.81" cy="150.591" r="1"/>
                <circle cx="12.678" cy="150.591" r="1"/>
                <circle cx=".928" cy="150.591" r="1"/>
                <circle cx="103.589" cy="142.551" r="1"/>
                <circle cx="92.457" cy="142.551" r="1"/>
                <circle cx="81.325" cy="142.551" r="1"/>
                <circle cx="69.575" cy="142.551" r="1"/>
                <circle cx="58.443" cy="142.551" r="1"/>
                <circle cx="46.693" cy="142.551" r="1"/>
                <circle cx="35.561" cy="142.551" r="1"/>
                <circle cx="23.81" cy="142.551" r="1"/>
                <circle cx="12.678" cy="142.551" r="1"/>
                <circle cx=".928" cy="142.551" r="1"/>
                <circle cx="103.589" cy="135.749" r="1"/>
                <circle cx="92.457" cy="135.749" r="1"/>
                <circle cx="81.325" cy="135.749" r="1"/>
                <circle cx="69.575" cy="135.749" r="1"/>
                <circle cx="58.443" cy="135.749" r="1"/>
                <circle cx="46.693" cy="135.749" r="1"/>
                <circle cx="35.561" cy="135.749" r="1"/>
                <circle cx="23.81" cy="135.749" r="1"/>
                <circle cx="12.678" cy="135.749" r="1"/>
                <circle cx=".928" cy="135.749" r="1"/>
                <circle cx="103.589" cy="128.946" r="1"/>
                <circle cx="92.457" cy="128.946" r="1"/>
                <circle cx="81.325" cy="128.946" r="1"/>
                <circle cx="69.575" cy="128.946" r="1"/>
                <circle cx="58.443" cy="128.946" r="1"/>
                <circle cx="46.693" cy="128.946" r="1"/>
                <circle cx="35.561" cy="128.946" r="1"/>
                <circle cx="23.81" cy="128.946" r="1"/>
                <circle cx="12.678" cy="128.946" r="1"/>
                <circle cx=".928" cy="128.946" r="1"/>
                <circle cx="103.589" cy="121.524" r="1"/>
                <circle cx="92.457" cy="121.524" r="1"/>
                <circle cx="81.325" cy="121.524" r="1"/>
                <circle cx="69.575" cy="121.524" r="1"/>
                <circle cx="58.443" cy="121.524" r="1"/>
                <circle cx="46.693" cy="121.524" r="1"/>
                <circle cx="35.561" cy="121.524" r="1"/>
                <circle cx="23.81" cy="121.524" r="1"/>
                <circle cx="12.678" cy="121.524" r="1"/>
                <circle cx=".928" cy="121.524" r="1"/>
                <circle cx="103.589" cy="114.103" r="1"/>
                <circle cx="92.457" cy="114.103" r="1"/>
                <circle cx="81.325" cy="114.103" r="1"/>
                <circle cx="69.575" cy="114.103" r="1"/>
                <circle cx="58.443" cy="114.103" r="1"/>
                <circle cx="46.693" cy="114.103" r="1"/>
                <circle cx="35.561" cy="114.103" r="1"/>
                <circle cx="23.81" cy="114.103" r="1"/>
                <circle cx="12.678" cy="114.103" r="1"/>
                <circle cx=".928" cy="114.103" r="1"/>
                <circle cx="103.589" cy="107.919" r="1"/>
                <circle cx="92.457" cy="107.919" r="1"/>
                <circle cx="81.325" cy="107.919" r="1"/>
                <circle cx="69.575" cy="107.919" r="1"/>
                <circle cx="58.443" cy="107.919" r="1"/>
                <circle cx="46.693" cy="107.919" r="1"/>
                <circle cx="35.561" cy="107.919" r="1"/>
                <circle cx="23.81" cy="107.919" r="1"/>
                <circle cx="12.678" cy="107.919" r="1"/>
                <circle cx=".928" cy="107.919" r="1"/>
                <circle cx="103.589" cy="101.116" r="1"/>
                <circle cx="92.457" cy="101.116" r="1"/>
                <circle cx="81.325" cy="101.116" r="1"/>
                <circle cx="69.575" cy="101.116" r="1"/>
                <circle cx="58.443" cy="101.116" r="1"/>
                <circle cx="46.693" cy="101.116" r="1"/>
                <circle cx="35.561" cy="101.116" r="1"/>
                <circle cx="23.81" cy="101.116" r="1"/>
                <circle cx="12.678" cy="101.116" r="1"/>
                <circle cx=".928" cy="101.116" r="1"/>
                <circle cx="103.589" cy="93.076" r="1"/>
                <circle cx="92.457" cy="93.076" r="1"/>
                <circle cx="81.325" cy="93.076" r="1"/>
                <circle cx="69.575" cy="93.076" r="1"/>
                <circle cx="58.443" cy="93.076" r="1"/>
                <circle cx="46.693" cy="93.076" r="1"/>
                <circle cx="35.561" cy="93.076" r="1"/>
                <circle cx="23.81" cy="93.076" r="1"/>
                <circle cx="12.678" cy="93.076" r="1"/>
                <circle cx=".928" cy="93.076" r="1"/>
                <circle cx="103.589" cy="86.273" r="1"/>
                <circle cx="92.457" cy="86.273" r="1"/>
                <circle cx="81.325" cy="86.273" r="1"/>
                <circle cx="69.575" cy="86.273" r="1"/>
                <circle cx="58.443" cy="86.273" r="1"/>
                <circle cx="46.693" cy="86.273" r="1"/>
                <circle cx="35.561" cy="86.273" r="1"/>
                <circle cx="23.81" cy="86.273" r="1"/>
                <circle cx="12.678" cy="86.273" r="1"/>
                <circle cx=".928" cy="86.273" r="1"/>
                <circle cx="103.589" cy="78.852" r="1"/>
                <circle cx="92.457" cy="78.852" r="1"/>
                <circle cx="81.325" cy="78.852" r="1"/>
                <circle cx="69.575" cy="78.852" r="1"/>
                <circle cx="58.443" cy="78.852" r="1"/>
                <circle cx="46.693" cy="78.852" r="1"/>
                <circle cx="35.561" cy="78.852" r="1"/>
                <circle cx="23.81" cy="78.852" r="1"/>
                <circle cx="12.678" cy="78.852" r="1"/>
                <circle cx=".928" cy="78.852" r="1"/>
                <circle cx="103.589" cy="72.667" r="1"/>
                <circle cx="92.457" cy="72.667" r="1"/>
                <circle cx="81.325" cy="72.667" r="1"/>
                <circle cx="69.575" cy="72.667" r="1"/>
                <circle cx="58.443" cy="72.667" r="1"/>
                <circle cx="46.693" cy="72.667" r="1"/>
                <circle cx="35.561" cy="72.667" r="1"/>
                <circle cx="23.81" cy="72.667" r="1"/>
                <circle cx="12.678" cy="72.667" r="1"/>
                <circle cx=".928" cy="72.667" r="1"/>
                <circle cx="103.589" cy="65.246" r="1"/>
                <circle cx="92.457" cy="65.246" r="1"/>
                <circle cx="81.325" cy="65.246" r="1"/>
                <circle cx="69.575" cy="65.246" r="1"/>
                <circle cx="58.443" cy="65.246" r="1"/>
                <circle cx="46.693" cy="65.246" r="1"/>
                <circle cx="35.561" cy="65.246" r="1"/>
                <circle cx="23.81" cy="65.246" r="1"/>
                <circle cx="12.678" cy="65.246" r="1"/>
                <circle cx=".928" cy="65.246" r="1"/>
                <circle cx="103.589" cy="57.825" r="1"/>
                <circle cx="92.457" cy="57.825" r="1"/>
                <circle cx="81.325" cy="57.825" r="1"/>
                <circle cx="69.575" cy="57.825" r="1"/>
                <circle cx="58.443" cy="57.825" r="1"/>
                <circle cx="46.693" cy="57.825" r="1"/>
                <circle cx="35.561" cy="57.825" r="1"/>
                <circle cx="23.81" cy="57.825" r="1"/>
                <circle cx="12.678" cy="57.825" r="1"/>
                <circle cx=".928" cy="57.825" r="1"/>
                <circle cx="103.589" cy="50.403" r="1"/>
                <circle cx="92.457" cy="50.403" r="1"/>
                <circle cx="81.325" cy="50.403" r="1"/>
                <circle cx="69.575" cy="50.403" r="1"/>
                <circle cx="58.443" cy="50.403" r="1"/>
                <circle cx="46.693" cy="50.403" r="1"/>
                <circle cx="35.561" cy="50.403" r="1"/>
                <circle cx="23.81" cy="50.403" r="1"/>
                <circle cx="12.678" cy="50.403" r="1"/>
                <circle cx=".928" cy="50.403" r="1"/>
                <circle cx="103.589" cy="43.6" r="1"/>
                <circle cx="92.457" cy="43.6" r="1"/>
                <circle cx="81.325" cy="43.6" r="1"/>
                <circle cx="69.575" cy="43.6" r="1"/>
                <circle cx="58.443" cy="43.6" r="1"/>
                <circle cx="46.693" cy="43.6" r="1"/>
                <circle cx="35.561" cy="43.6" r="1"/>
                <circle cx="23.81" cy="43.6" r="1"/>
                <circle cx="12.678" cy="43.6" r="1"/>
                <circle cx=".928" cy="43.6" r="1"/>
                <circle cx="103.589" cy="37.416" r="1"/>
                <circle cx="92.457" cy="37.416" r="1"/>
                <circle cx="81.325" cy="37.416" r="1"/>
                <circle cx="69.575" cy="37.416" r="1"/>
                <circle cx="58.443" cy="37.416" r="1"/>
                <circle cx="46.693" cy="37.416" r="1"/>
                <circle cx="35.561" cy="37.416" r="1"/>
                <circle cx="23.81" cy="37.416" r="1"/>
                <circle cx="12.678" cy="37.416" r="1"/>
                <circle cx=".928" cy="37.416" r="1"/>
                <circle cx="103.589" cy="29.376" r="1"/>
                <circle cx="92.457" cy="29.376" r="1"/>
                <circle cx="81.325" cy="29.376" r="1"/>
                <circle cx="69.575" cy="29.376" r="1"/>
                <circle cx="58.443" cy="29.376" r="1"/>
                <circle cx="46.693" cy="29.376" r="1"/>
                <circle cx="35.561" cy="29.376" r="1"/>
                <circle cx="23.81" cy="29.376" r="1"/>
                <circle cx="12.678" cy="29.376" r="1"/>
                <circle cx=".928" cy="29.376" r="1"/>
                <circle cx="103.589" cy="22.573" r="1"/>
                <circle cx="92.457" cy="22.573" r="1"/>
                <circle cx="81.325" cy="22.573" r="1"/>
                <circle cx="69.575" cy="22.573" r="1"/>
                <circle cx="58.443" cy="22.573" r="1"/>
                <circle cx="46.693" cy="22.573" r="1"/>
                <circle cx="35.561" cy="22.573" r="1"/>
                <circle cx="23.81" cy="22.573" r="1"/>
                <circle cx="12.678" cy="22.573" r="1"/>
                <circle cx=".928" cy="22.573" r="1"/>
                <circle cx="103.589" cy="15.152" r="1"/>
                <circle cx="92.457" cy="15.152" r="1"/>
                <circle cx="81.325" cy="15.152" r="1"/>
                <circle cx="69.575" cy="15.152" r="1"/>
                <circle cx="58.443" cy="15.152" r="1"/>
                <circle cx="46.693" cy="15.152" r="1"/>
                <circle cx="35.561" cy="15.152" r="1"/>
                <circle cx="23.81" cy="15.152" r="1"/>
                <circle cx="12.678" cy="15.152" r="1"/>
                <circle cx=".928" cy="15.152" r="1"/>
                <circle cx="103.589" cy="7.731" r="1"/>
                <circle cx="92.457" cy="7.731" r="1"/>
                <circle cx="81.325" cy="7.731" r="1"/>
                <circle cx="69.575" cy="7.731" r="1"/>
                <circle cx="58.443" cy="7.731" r="1"/>
                <circle cx="46.693" cy="7.731" r="1"/>
                <circle cx="35.561" cy="7.731" r="1"/>
                <circle cx="23.81" cy="7.731" r="1"/>
                <circle cx="12.678" cy="7.731" r="1"/>
                <circle cx=".928" cy="7.731" r="1"/>
                <circle cx="103.589" cy=".928" r="1"/>
                <circle cx="92.457" cy=".928" r="1"/>
                <circle cx="81.325" cy=".928" r="1"/>
                <circle cx="69.575" cy=".928" r="1"/>
                <circle cx="58.443" cy=".928" r="1"/>
                <circle cx="46.693" cy=".928" r="1"/>
                <circle cx="35.561" cy=".928" r="1"/>
                <circle cx="23.81" cy=".928" r="1"/>
                <circle cx="12.678" cy=".928" r="1"/>
                <circle cx=".928" cy=".928" r="1"/>
            </g>
            <g fill="#FFC916" opacity=".3" transform="translate(17.03 62.61)">
                <ellipse cx="1.237" cy=".824" rx="1" ry="1"/>
                <ellipse cx="9.484" cy=".824" rx="1" ry="1"/>
                <ellipse cx="17.731" cy=".824" rx="1" ry="1"/>
                <ellipse cx="25.979" cy=".824" rx="1" ry="1"/>
                <ellipse cx="34.226" cy=".824" rx="1" ry="1"/>
                <ellipse cx="42.473" cy=".824" rx="1" ry="1"/>
                <ellipse cx="50.72" cy=".824" rx="1" ry="1"/>
                <ellipse cx="58.967" cy=".824" rx="1" ry="1"/>
                <ellipse cx="67.215" cy=".824" rx="1" ry="1"/>
                <ellipse cx="75.462" cy=".824" rx="1" ry="1"/>
                <ellipse cx="1.237" cy="6.59" rx="1" ry="1"/>
                <ellipse cx="9.484" cy="6.59" rx="1" ry="1"/>
                <ellipse cx="17.731" cy="6.59" rx="1" ry="1"/>
                <ellipse cx="25.979" cy="6.59" rx="1" ry="1"/>
                <ellipse cx="34.226" cy="6.59" rx="1" ry="1"/>
                <ellipse cx="42.473" cy="6.59" rx="1" ry="1"/>
                <ellipse cx="50.72" cy="6.59" rx="1" ry="1"/>
                <ellipse cx="58.967" cy="6.59" rx="1" ry="1"/>
                <ellipse cx="67.215" cy="6.59" rx="1" ry="1"/>
                <ellipse cx="75.462" cy="6.59" rx="1" ry="1"/>
                <ellipse cx="1.237" cy="13.181" rx="1" ry="1"/>
                <ellipse cx="9.484" cy="13.181" rx="1" ry="1"/>
                <ellipse cx="17.731" cy="13.181" rx="1" ry="1"/>
                <ellipse cx="25.979" cy="13.181" rx="1" ry="1"/>
                <ellipse cx="34.226" cy="13.181" rx="1" ry="1"/>
                <ellipse cx="42.473" cy="13.181" rx="1" ry="1"/>
                <ellipse cx="50.72" cy="13.181" rx="1" ry="1"/>
                <ellipse cx="58.967" cy="13.181" rx="1" ry="1"/>
                <ellipse cx="67.215" cy="13.181" rx="1" ry="1"/>
                <ellipse cx="75.462" cy="13.181" rx="1" ry="1"/>
                <ellipse cx="1.237" cy="19.771" rx="1" ry="1"/>
                <ellipse cx="9.484" cy="19.771" rx="1" ry="1"/>
                <ellipse cx="17.731" cy="19.771" rx="1" ry="1"/>
                <ellipse cx="25.979" cy="19.771" rx="1" ry="1"/>
                <ellipse cx="34.226" cy="19.771" rx="1" ry="1"/>
                <ellipse cx="42.473" cy="19.771" rx="1" ry="1"/>
                <ellipse cx="50.72" cy="19.771" rx="1" ry="1"/>
                <ellipse cx="58.967" cy="19.771" rx="1" ry="1"/>
                <ellipse cx="67.215" cy="19.771" rx="1" ry="1"/>
                <ellipse cx="75.462" cy="19.771" rx="1" ry="1"/>
                <ellipse cx="1.237" cy="26.362" rx="1" ry="1"/>
                <ellipse cx="9.484" cy="26.362" rx="1" ry="1"/>
                <ellipse cx="17.731" cy="26.362" rx="1" ry="1"/>
                <ellipse cx="25.979" cy="26.362" rx="1" ry="1"/>
                <ellipse cx="34.226" cy="26.362" rx="1" ry="1"/>
                <ellipse cx="42.473" cy="26.362" rx="1" ry="1"/>
                <ellipse cx="50.72" cy="26.362" rx="1" ry="1"/>
                <ellipse cx="58.967" cy="26.362" rx="1" ry="1"/>
                <ellipse cx="67.215" cy="26.362" rx="1" ry="1"/>
                <ellipse cx="75.462" cy="26.362" rx="1" ry="1"/>
                <ellipse cx="1.237" cy="32.952" rx="1" ry="1"/>
                <ellipse cx="9.484" cy="32.952" rx="1" ry="1"/>
                <ellipse cx="17.731" cy="32.952" rx="1" ry="1"/>
                <ellipse cx="25.979" cy="32.952" rx="1" ry="1"/>
                <ellipse cx="34.226" cy="32.952" rx="1" ry="1"/>
                <ellipse cx="42.473" cy="32.952" rx="1" ry="1"/>
                <ellipse cx="50.72" cy="32.952" rx="1" ry="1"/>
                <ellipse cx="58.967" cy="32.952" rx="1" ry="1"/>
                <ellipse cx="67.215" cy="32.952" rx="1" ry="1"/>
                <ellipse cx="75.462" cy="32.952" rx="1" ry="1"/>
                <ellipse cx="1.237" cy="39.543" rx="1" ry="1"/>
                <ellipse cx="9.484" cy="39.543" rx="1" ry="1"/>
                <ellipse cx="17.731" cy="39.543" rx="1" ry="1"/>
                <ellipse cx="25.979" cy="39.543" rx="1" ry="1"/>
                <ellipse cx="34.226" cy="39.543" rx="1" ry="1"/>
                <ellipse cx="42.473" cy="39.543" rx="1" ry="1"/>
                <ellipse cx="50.72" cy="39.543" rx="1" ry="1"/>
                <ellipse cx="58.967" cy="39.543" rx="1" ry="1"/>
                <ellipse cx="67.215" cy="39.543" rx="1" ry="1"/>
                <ellipse cx="75.462" cy="39.543" rx="1" ry="1"/>
                <ellipse cx="1.237" cy="46.133" rx="1" ry="1"/>
                <ellipse cx="9.484" cy="46.133" rx="1" ry="1"/>
                <ellipse cx="17.731" cy="46.133" rx="1" ry="1"/>
                <ellipse cx="25.979" cy="46.133" rx="1" ry="1"/>
                <ellipse cx="34.226" cy="46.133" rx="1" ry="1"/>
                <ellipse cx="42.473" cy="46.133" rx="1" ry="1"/>
                <ellipse cx="50.72" cy="46.133" rx="1" ry="1"/>
                <ellipse cx="58.967" cy="46.133" rx="1" ry="1"/>
                <ellipse cx="67.215" cy="46.133" rx="1" ry="1"/>
                <ellipse cx="75.462" cy="46.133" rx="1" ry="1"/>
                <ellipse cx="1.237" cy="52.723" rx="1" ry="1"/>
                <ellipse cx="9.484" cy="52.723" rx="1" ry="1"/>
                <ellipse cx="17.731" cy="52.723" rx="1" ry="1"/>
                <ellipse cx="25.979" cy="52.723" rx="1" ry="1"/>
                <ellipse cx="34.226" cy="52.723" rx="1" ry="1"/>
                <ellipse cx="42.473" cy="52.723" rx="1" ry="1"/>
                <ellipse cx="50.72" cy="52.723" rx="1" ry="1"/>
                <ellipse cx="58.967" cy="52.723" rx="1" ry="1"/>
                <ellipse cx="67.215" cy="52.723" rx="1" ry="1"/>
                <ellipse cx="75.462" cy="52.723" rx="1" ry="1"/>
                <ellipse cx="1.237" cy="59.314" rx="1" ry="1"/>
                <ellipse cx="9.484" cy="59.314" rx="1" ry="1"/>
                <ellipse cx="17.731" cy="59.314" rx="1" ry="1"/>
                <ellipse cx="25.979" cy="59.314" rx="1" ry="1"/>
                <ellipse cx="34.226" cy="59.314" rx="1" ry="1"/>
                <ellipse cx="42.473" cy="59.314" rx="1" ry="1"/>
                <ellipse cx="50.72" cy="59.314" rx="1" ry="1"/>
                <ellipse cx="58.967" cy="59.314" rx="1" ry="1"/>
                <ellipse cx="67.215" cy="59.314" rx="1" ry="1"/>
                <ellipse cx="75.462" cy="59.314" rx="1" ry="1"/>
                <ellipse cx="1.237" cy="65.08" rx="1" ry="1"/>
                <ellipse cx="9.484" cy="65.08" rx="1" ry="1"/>
                <ellipse cx="17.731" cy="65.08" rx="1" ry="1"/>
                <ellipse cx="25.979" cy="65.08" rx="1" ry="1"/>
                <ellipse cx="34.226" cy="65.08" rx="1" ry="1"/>
                <ellipse cx="42.473" cy="65.08" rx="1" ry="1"/>
                <ellipse cx="50.72" cy="65.08" rx="1" ry="1"/>
                <ellipse cx="58.967" cy="65.08" rx="1" ry="1"/>
                <ellipse cx="67.215" cy="65.08" rx="1" ry="1"/>
                <ellipse cx="75.462" cy="65.08" rx="1" ry="1"/>
            </g>
            <path fill="#F9F9F9" stroke="#E9EBEE" stroke-width=".523" d="M81.35 57.96h196.334a5.227 5.227 0 0 1 5.227 5.226v136.865a5.227 5.227 0 0 1-5.227 5.227H81.351a5.227 5.227 0 0 1-5.227-5.227V63.186a5.227 5.227 0 0 1 5.227-5.227z"/>
            <path fill="#283A5E" d="M82.062 57.674h194.841a5.969 5.969 0 0 1 5.973 5.965v6.56H76.09v-6.56a5.969 5.969 0 0 1 5.973-5.965z"/>
            <path fill="#F6F7F7" d="M118.5 70.2h1.792v2.981H118.5z"/>
            <g transform="translate(104.027 116.465)">
                <ellipse cx="38.783" cy="3.271" fill="#D3D7DE" rx="2.091" ry="2.088"/>
                <ellipse cx="2.091" cy="3.271" fill="#D3D7DE" rx="2.091" ry="2.088"/>
                <ellipse cx="38.783" cy="15.26" fill="#E9EBEE" rx="2.091" ry="2.088"/>
                <ellipse cx="2.091" cy="15.26" fill="#E9EBEE" rx="2.091" ry="2.088"/>
                <path fill="#E9EBEE" d="M45.652 2.376h17.92v1.789h-17.92zM8.96 2.376h17.92v1.789H8.96zM45.652 14.365h17.92v1.789h-17.92zM8.96 14.365h17.92v1.789H8.96z"/>
                <ellipse cx="75.475" cy="2.088" fill="#E9EBEE" opacity=".7" rx="2.091" ry="2.088"/>
                <ellipse cx="75.475" cy="14.999" fill="#E9EBEE" opacity=".7" rx="2.091" ry="2.088"/>
                <path fill="#E9EBEE" d="M82.345 1.193h17.92v1.789h-17.92zM82.345 14.105h17.92v1.789h-17.92z"/>
            </g>
            <path fill="#E9EBEE" d="M224.752 184.228c-1.148-1.46-2.716-2.66-4.565-3.493-5.924-2.742-15.184-1.98-20.942.872-2.914 1.294-6.22 1.86-9.517 1.629-1.759-.2-3.48-.586-5.12-1.148a13.38 13.38 0 0 1-3.357-1.72c-2.774-1.94-9.905-6.488-14.796-6.488-3.88-.29-7.778.355-11.224 1.858a9.065 9.065 0 0 1-3.773.729c-2.234-.08-5.383-.958-8.206-4.526a12.81 12.81 0 0 1-1.422-2.295 59.84 59.84 0 0 0-5.966-9.752c-2.282-3.017-5.341-7.039-10.537-8.404-9.17-2.415-12.674 8.255-14.748 11.553 0 0-18.812 29.98-25.666 32.658H238.39s-9.295-5.794-13.637-11.473z"/>
            <path fill="#FFF" d="M270.167 196.138s-11.498-6.415-16.698-15.353c0 0-10.988-19.033-19.812 1.466 0 0 3.46 10.574 8.34 11.765 0 0 5.277 3.25 8.868 3.024 0 0 18.168-1.924 19.302-.902zM212.697 189.498a85.77 85.77 0 0 1-7.746-4.67c-4.945-3.39-12.4-4.52-18.336-1.74-.981.47-1.914 1.016-2.789 1.632-1.703 1.175-5.708 3.84-7.638 4.326 0 0 7.058 6.58 15.019 5.083 0 0 13.732-3.044 14.69-1.496 0 .017 5.924-1.328 6.8-3.135zM161.99 188.064s-8.44-2.816-16.227.402c-.006 0 6.294 5.904 16.226-.402z"/>
            <path fill="#A3ACBD" d="M280.308 195.026H85.59s19.251-42.373 28.337-27.333c.34.564.506 1.118.817 1.657 1.198 2.049 4.347 6.995 7.822 8.885 1.05.52 2.31.667 3.495.41 3.066-.632 6.922-1.207 10.057-.484 1.58.337 2.894 1.24 3.579 2.459 1.204 2.276 4.886 7.661 13.068 8.173 0 0 5.205 1.315 11.455-2.624 4.568-2.88 12.459-.495 16.404.996 1.158.436 2.25.983 3.253 1.628 4.202 2.686 9.522 3.901 14.806 3.381a10.754 10.754 0 0 0 1.688-.296c1.966-.5 7.324-1.741 11.013-1.434 2.066.155 4.143-.191 5.973-.996 3.302-1.396 5.878-3.727 7.254-6.563 0 0 7.288-15.09 12.493-1.31 0 0 1.682 6.347 9.56 8.596a15.15 15.15 0 0 0 4.969.466l8.34-.529s13.567-1.315 20.336 4.918z"/>
            <path fill="#FFF" d="M84.91 61.927h2.374c.528 0 .719.055.912.158.193.104.344.255.447.448.103.193.158.384.158.912v2.367c0 .527-.055.718-.158.911a1.075 1.075 0 0 1-.447.448c-.193.103-.384.158-.912.158H84.91c-.528 0-.72-.055-.912-.158a1.075 1.075 0 0 1-.447-.448c-.104-.193-.159-.384-.159-.911v-2.367c0-.528.055-.72.159-.912.103-.193.254-.344.447-.448.193-.103.384-.158.912-.158zM94.892 61.927h2.374c.527 0 .719.055.912.158.192.104.344.255.447.448.103.193.158.384.158.912v2.367c0 .527-.055.718-.158.911a1.075 1.075 0 0 1-.447.448c-.193.103-.385.158-.912.158h-2.374c-.528 0-.72-.055-.912-.158a1.075 1.075 0 0 1-.448-.448c-.103-.193-.158-.384-.158-.911v-2.367c0-.528.055-.72.158-.912.104-.193.255-.344.448-.448.193-.103.384-.158.912-.158zM272.694 61.335h2.374c.527 0 .719.055.912.159.193.103.344.254.447.447.103.193.158.384.158.912v2.367c0 .527-.055.719-.158.912a1.075 1.075 0 0 1-.447.447c-.193.103-.385.158-.912.158h-2.374c-.528 0-.72-.055-.912-.158a1.075 1.075 0 0 1-.448-.447c-.103-.193-.158-.385-.158-.912v-2.367c0-.528.055-.72.158-.912.104-.193.255-.344.448-.447.193-.104.384-.159.912-.159z" opacity=".156"/>
            <g transform="translate(313.992 198)">
                <ellipse cx="12.162" cy="19.24" fill="#F6F7F8" rx="12.162" ry="2.805"/>
                <path fill="#43B963" d="M18.31.006h2.131a7.73 7.73 0 0 1-7.729 7.729V5.61A5.604 5.604 0 0 1 18.311.006z"/>
                <path fill="#02AD46" d="M13.38 7.73h-3.118a4.61 4.61 0 0 1-4.61-4.611V0H7.77a5.604 5.604 0 0 1 5.61 5.604V7.73z"/>
                <path fill="#3B4D6F" d="M14.653 19.636H9.155a3.859 3.859 0 0 1-3.81-3.249L4.16 9.12a1.775 1.775 0 0 1 1.776-2.06h11.949a1.775 1.775 0 0 1 1.775 2.06l-1.184 7.267a3.859 3.859 0 0 1-3.823 3.25z"/>
            </g>
            <g>
                <path fill="#202E4B" d="M256.93 17l5.894.277s2.03 3.61 6.458.191l5.718.726L274.705 51H253s4.585-2.382 4.827-17.366c0-.898-.714-1.828-.727-2.804-.04-2.138.57-6.658.34-9.178a115.38 115.38 0 0 0-.51-4.652z"/>
                <path fill="#202E4B" d="M256.202 17L244 28.453l1.216 2.347 1.52.2L257 24.653c0-.517 0-1.855-.798-7.653z"/>
                <path fill="#202E4B" d="M245.763 30.958L264.583 34l.417-2.095L249.1 27l-4.1 2.52z"/>
                <path fill="#FFC9D5" d="M265 34.227c.588.666 3.837.773 3.837.773L270 31.947l-1.627-.42L269.425 30l-2.185.98-1.856 1.073-.384 2.174z"/>
                <path fill="#283A5E" d="M250 51h22s-7.56 7.619-9.849 8c0 0-11.512-7.359-12.151-8zM273.9 56.233L278.957 51l4.38.778s1.106 4.747.461 5.804C283.154 58.64 274.401 81 274.401 81L272 80.767s2.805-12.673 1.9-24.534z"/>
                <path fill="#F0939E" d="M272.562 81L272 83.506l1.824.494L275 81.199z"/>
                <path fill="#EA003D" d="M272.17 83L268 88l2.208.875 3.242.125.55-5.428z"/>
                <path fill="#3C4D6F" d="M243.477 50s-6.047 1.195-7.116 1.616L236 56.367s4.434 3.336 29.344 3.633l.656-1.65L243.477 50z"/>
                <path fill="#F0939E" d="M266.612 58l1.388.58-.25 1.42-1.75-.61z"/>
                <path fill="#EA003D" d="M268.265 59.053L272.278 58l1.722.27-1.152 4.73s-3.974-1.072-4.848-2.394l.265-1.553z"/>
                <path fill="#F0939E" d="M262 14.967l.5 2.443s2.183 3.457 6.5.177L267.425 13 262 14.967z"/>
                <path fill="#FFC9D5" d="M262.637 2s-8.434 8.412.386 12.365l1.697.524a2.383 2.383 0 0 0 1.824-.161l.706-.395a5.17 5.17 0 0 0 1.897-1.941c1.098-1.896 1.617-5.086-1.498-8.308-1.105-1.14-2.73-.7-5.012-2.084z"/>
                <path fill="#EA003D" d="M265 32s-9.767-2.142-15-3.46a25.563 25.563 0 0 0 7.646-6.54l-.033 3.226-5.032 2.99L265 32z" opacity=".3"/>
                <path fill="#EA003D" d="M269 17.29s-3.937 3.365-6.613-.182L260 17s4.876 6.552 9 .29z"/>
                <path fill="#283A5E" d="M250.037 50.434L244 50l11 4z"/>
                <path fill="#202E4B" d="M274.37 51s.558-11.91 1.63-16.394A106.247 106.247 0 0 0 274.709 18s-1.336 27.194-.34 33z"/>
                <path fill="#EA003D" d="M260 50.992s13.873.767 16-12.992c0 0-.716 6.701-.952 12.992H260z"/>
                <path fill="#3C4D6F" d="M279 50.515L274.31 50h-2.7L264 57.276l9.902.724-.107-2.005z"/>
                <path fill="#202E4B" d="M275 18s9.033 19.982 2.817 34a2.799 2.799 0 0 0-2.754 0s2.365-12.375-.063-34z"/>
                <path fill="#FB043D" d="M275.73 29c.632 14.756-.73 23-.73 23a2.595 2.595 0 0 1 2-.221s-.13-3.767-1.27-22.772V29z" opacity=".3"/>
                <path fill="#FFC9D5" d="M274.837 52.344l-.121 1.098L274 58l2.862-1.87L278 52.3s-1.174-.703-3.163.044z"/>
                <path fill="#EA003D" d="M265 31.695L264.59 34 248 31s9.228 1.88 14.108 1.794c1.674-.007 2.712-.539 2.892-1.099z"/>
                <path fill="#E86578" d="M261.204 13.898c.482-1.398.7-2.883.641-4.37a16.607 16.607 0 0 1 .609-4.743c.922 1.252 2.211 2.143 3.666 2.534 2.28.522 1.922 6.681 1.922 6.681s1.243-5.366.897-6.003c-.346-.637-2.973-2.873-2.973-2.873L262.499 2 259 8.573l2.204 5.325z"/>
                <path fill="#283A5E" d="M262.366 3.657c.764 1.78 2.363 3.036 4.239 3.329 3.363.716.81 11.014.81 11.014s4.607-2.62 5.456-7.739c.85-5.119-2.501-12.047-9.847-9.839 0 0-6.846-1.911-7.024 8.57 0 0-.112 5.361 3.66 8.988.44-.803.8-1.649 1.073-2.526.56-1.675.805-3.444.724-5.213-.257-4.282.909-6.584.909-6.584z"/>
                <path fill="#FFC9D5" d="M265 34.227c.588.666 3.837.773 3.837.773L270 31.947l-1.627-.42L269.425 30l-2.185.98-1.856 1.073-.384 2.174z"/>
                <path fill="#283A5E" d="M259 18l3-2.24-.17-.908a10.23 10.23 0 0 1-1.364-.852L259 18z"/>
            </g>
            <g>
                <path fill="#A3ACBD" d="M117.089 84.72c8.598.467 15.465 7.325 15.933 15.912h7.725c-.484-12.846-10.8-23.149-23.663-23.632l.005 7.72z" opacity=".552"/>
                <path fill="#3C4D6F" d="M132.886 102.05c-.205 5.472-3.12 10.473-7.757 13.31l3.554 6.541c6.996-4.15 11.377-11.65 11.591-19.841l-7.388-.01z"/>
                <path fill="#FF4702" d="M123.374 115.968a16.575 16.575 0 0 1-18.252-2.53 16.529 16.529 0 0 1-4.612-17.818 16.558 16.558 0 0 1 14.738-11.048V77a24.138 24.138 0 0 0-21.84 15.986 24.094 24.094 0 0 0 6.759 26.189 24.163 24.163 0 0 0 26.855 3.446l-3.648-6.653z"/>
            </g>
            <g transform="translate(0 86)">
                <ellipse cx="24.5" cy="130.5" fill="#F6F7F8" rx="24.5" ry="4.5"/>
                <path fill="#202E4B" d="M16.301 17l-8.776 1.188S-1.11 27.944 8.65 60l18.93-2.894L29 24.121l-5.576-3.982L16.3 17z"/>
                <path fill="#F0939E" d="M17.831 13s-.299 2.611-1.831 4.115c0 0 2.946 4.885 5.306 4.885.92-.82 1.52-1.95 1.694-3.185L17.831 13z"/>
                <path fill="#202E4B" d="M28.907 24l7.928 16 15.956-1.76L54 40.013 36.389 45a97.725 97.725 0 0 1-8.179-7.853L28 30.193 28.907 24z"/>
                <path fill="#3C4D6F" d="M8.417 59.857L7 68.79s.386 42.081 4.237 58.21h2.5s4.657-38.156 5.322-46.84l1.263-8.355L30 64.655S28.005 57.72 27.226 57l-18.81 2.857z"/>
                <path fill="#283A5E" d="M21.111 72.11L20 79.612s3.962 26.33 9.606 47.388l2.394-.945L30.356 65l-9.245 7.11z"/>
                <path fill="#001F3A" d="M12 127v4h9l-6.612-4zM29 127.02l.311 3.98H39l-7.505-5z"/>
                <path fill="#00B3CC" d="M28 37.47V31s2.758 9.691 8.255 12.042L54 40.095 36.095 45A99.194 99.194 0 0 1 28 37.47z" opacity=".3"/>
                <path fill="#FFC9D5" d="M53 38.469L56.281 38l1.3.027.984.507L59 40l-4.761-.097z"/>
                <path fill="#00B3CC" d="M23.214 20.249a4.87 4.87 0 0 1-1.438 2.087S19.52 22.628 16 17c0 0 .44 6.26 5.681 6.956 4.082.515 1.533-3.707 1.533-3.707z"/>
                <path fill="#FFC9D5" d="M30 3.835S27.931 19 24.569 19c-3.363 0-6.296-4.223-6.553-6.808C17.76 9.606 20.591 1 21.462 1S30 3.835 30 3.835z"/>
                <path fill="#283A5E" d="M30 4.002l-.58 3.363s-5.208-3.674-8.04-1.681c0 0 .266 1.737-3.38 4.316 0 0 1.4-7.592 3.256-9A43.506 43.506 0 0 1 30 4.002z"/>
                <path fill="#202E4B" d="M10.807 26l13.896 17.847L44 48.657V51l-21.051-1.94S12.607 41.457 9 37.013c.22-3.725.826-7.417 1.807-11.014z"/>
                <path fill="#FFC9D5" d="M44 48.37L46.02 47v1.37L50 50.405 47.175 52 44 50.753z"/>
                <path fill="#00B3CC" d="M7.068 18c2.622 9.775 10.527 19.204 17.461 25.296L44 48l-20.416-3.448L9.736 31.649S6.496 19.963 7.068 18z" opacity=".3"/>
                <path fill="#00B3CC" d="M44 51l-21.29-1.838S13.86 43.033 13 42l9.91 6.737s14.4 0 21.09.045V51z"/>
                <path fill="#E86578" d="M30 7.177s-6.643-2.59-7.834-1.368c-.563 2-2.134 3.58-4.166 4.191l2.1-3.931L22.714 4l5.65.901L30 7.177z"/>
                <path fill="#283A5E" d="M18.328 10s-1.015-6.759.527-8.768C20.398-.776 32.83-.54 31.956 3.522c-.873 4.064-1.76 3.71-1.76 3.71s-6.09-3.33-8.356-1.766c0 0 .121 1.989-3.512 4.534z"/>
                <path fill="#00B3CC" d="M5 41a100.354 100.354 0 0 0 4.148 19L22 58S8.675 59.1 5 41z"/>
            </g>
        </g>
        <g transform="translate(33 30)">
            <rect width="271" height="52" y="82" fill="#FFF" fill-rule="nonzero" stroke="#FF4702" stroke-width="1.454" rx="7.269"/>
            <path fill="#FF4702" d="M249 114.98h-21a11.636 11.636 0 0 0 1.702-6.051v-4.546c0-4.63 3.812-8.383 8.514-8.383 2.258 0 4.423.883 6.019 2.456a8.311 8.311 0 0 1 2.49 5.927v4.247A10.097 10.097 0 0 0 249 115v-.02z"/>
            <rect width="24" height="2" x="227" y="116" fill="#FF4702" fill-rule="nonzero" rx="1"/>
            <path fill="#FF4702" d="M242 118c-.082 1.678-1.625 3-3.5 3s-3.418-1.322-3.5-3h7z"/>
            <rect width="32" height="24" x="14" y="96" fill="#FF4702" fill-rule="nonzero" rx="5.089"/>
            <path stroke="#FFF" stroke-width="1.454" d="M11 98l19.33 10L49 98"/>
            <rect width="135" height="5" x="59" y="113" fill="#3C4D6F" fill-rule="nonzero" rx="2.5"/>
            <rect width="93" height="7" x="59" y="98" fill="#3C4D6F" fill-rule="nonzero" rx="3.5"/>
            <path stroke="#FF8E62" stroke-linecap="round" stroke-width=".727" d="M239 3.453s-3.398-6.743-5.946-1.384c-2.549 5.36-2.778 26.166-.391 40.42 2.387 14.253 7.31 26.178 5.742 53.511"/>
        </g>
    </g>
</svg>
