<?xml version="1.0" encoding="utf-8"?>
<!-- Generator: Adobe Illustrator 17.1.0, SVG Export Plug-In . SVG Version: 6.00 Build 0)  -->
<!DOCTYPE svg PUBLIC "-//W3C//DTD SVG 1.1//EN" "http://www.w3.org/Graphics/SVG/1.1/DTD/svg11.dtd">
<svg version="1.1" id="Layer_1" xmlns="http://www.w3.org/2000/svg" xmlns:xlink="http://www.w3.org/1999/xlink" x="0px" y="0px"
	 width="24px" height="24px" viewBox="0 0 24 24" enable-background="new 0 0 24 24" xml:space="preserve">
<path id="XMLID_7_" fill="#444444" d="M4.9,17.5c0.5,0,0.9,0.2,1.2,0.5c0.3,0.3,0.5,0.7,0.5,1.2c0,0.4-0.2,0.9-0.5,1.2
	c-0.3,0.3-0.7,0.5-1.2,0.5S4,20.6,3.7,20.3c-0.3-0.3-0.5-0.7-0.5-1.2c0-0.5,0.2-0.9,0.5-1.2C4,17.7,4.4,17.5,4.9,17.5L4.9,17.5z
	 M2.9,0.4L2.9,0.4h18.3c0.8,0,1.5,0.3,2,0.9h0c0.5,0.5,0.8,1.2,0.8,2v3.2c0,0.7-0.3,1.4-0.8,1.9c0.5,0.5,0.8,1.2,0.8,1.9v3.3
	c0,0.7-0.3,1.4-0.8,1.9c0.5,0.5,0.8,1.2,0.8,1.9v3.2c0,0.8-0.3,1.5-0.8,2h0c-0.5,0.5-1.2,0.9-2,0.9H2.9c-0.8,0-1.5-0.3-2-0.9h0
	c-0.5-0.5-0.8-1.2-0.8-2v-3.2c0-0.7,0.3-1.4,0.8-1.9C0.3,15.1,0,14.4,0,13.6v-3.3c0-0.7,0.3-1.4,0.8-1.9C0.3,7.9,0,7.2,0,6.5V3.2
	c0-0.8,0.3-1.5,0.8-2h0C1.4,0.7,2.1,0.4,2.9,0.4L2.9,0.4z M21.1,2.2L21.1,2.2H2.9c-0.3,0-0.5,0.1-0.7,0.3l0,0C2,2.7,1.9,3,1.9,3.2
	v3.2C1.9,6.8,2,7,2.1,7.2l0,0l0,0c0.2,0.2,0.4,0.3,0.7,0.3h0h18.3h0c0.3,0,0.5-0.1,0.7-0.3l0,0l0,0C22,7,22.2,6.8,22.2,6.5V3.2
	c0-0.3-0.1-0.5-0.3-0.7l0,0C21.7,2.3,21.4,2.2,21.1,2.2L21.1,2.2z M21.2,9.3L21.2,9.3L21.2,9.3H2.9h0c-0.3,0-0.5,0.1-0.7,0.3l0,0
	C2,9.8,1.9,10.1,1.9,10.4v3.3c0,0.3,0.1,0.5,0.3,0.7l0,0c0.2,0.2,0.4,0.3,0.7,0.3h0h18.3h0c0.3,0,0.5-0.1,0.7-0.3l0,0
	c0.2-0.2,0.3-0.5,0.3-0.7v-3.3c0-0.3-0.1-0.5-0.3-0.7l0,0C21.7,9.5,21.4,9.4,21.2,9.3L21.2,9.3z M21.2,16.5L21.2,16.5L21.2,16.5H2.9
	h0c-0.3,0-0.5,0.1-0.7,0.3l0,0C2,17,1.9,17.2,1.9,17.5v3.2c0,0.3,0.1,0.5,0.3,0.7l0,0c0.2,0.2,0.4,0.3,0.7,0.3h18.3
	c0.3,0,0.5-0.1,0.7-0.3l0,0c0.2-0.2,0.3-0.4,0.3-0.7v-3.2c0-0.3-0.1-0.5-0.3-0.7l0,0C21.7,16.6,21.4,16.5,21.2,16.5L21.2,16.5z
	 M4.9,3.2L4.9,3.2c0.5,0,0.9,0.2,1.2,0.5v0C6.4,4,6.5,4.4,6.5,4.9c0,0.5-0.2,0.9-0.5,1.2C5.8,6.3,5.3,6.5,4.9,6.5S4,6.3,3.7,6
	C3.4,5.7,3.2,5.3,3.2,4.9c0-0.5,0.2-0.9,0.5-1.2v0C4,3.4,4.4,3.2,4.9,3.2L4.9,3.2z M5.3,4.5L5.3,4.5C5.2,4.4,5,4.3,4.9,4.3
	c-0.2,0-0.3,0.1-0.4,0.2C4.4,4.6,4.3,4.7,4.3,4.9c0,0.2,0.1,0.3,0.2,0.4v0c0.1,0.1,0.2,0.2,0.4,0.2c0.2,0,0.3-0.1,0.4-0.2v0
	C5.4,5.2,5.4,5,5.4,4.9C5.4,4.7,5.4,4.6,5.3,4.5L5.3,4.5L5.3,4.5z M4.9,10.3L4.9,10.3c0.5,0,0.9,0.2,1.2,0.5
	c0.3,0.3,0.5,0.7,0.5,1.2c0,0.5-0.2,0.9-0.5,1.2c-0.3,0.3-0.7,0.5-1.2,0.5S4,13.5,3.7,13.2c-0.3-0.3-0.5-0.7-0.5-1.2
	c0-0.5,0.2-0.9,0.5-1.2C4,10.5,4.4,10.3,4.9,10.3L4.9,10.3z M5.3,11.6L5.3,11.6c-0.1-0.1-0.2-0.2-0.4-0.2c-0.2,0-0.3,0.1-0.4,0.2
	c-0.1,0.1-0.2,0.2-0.2,0.4c0,0.2,0.1,0.3,0.2,0.4c0.1,0.1,0.2,0.2,0.4,0.2c0.2,0,0.3-0.1,0.4-0.2l0,0c0.1-0.1,0.2-0.2,0.2-0.4
	C5.4,11.8,5.4,11.7,5.3,11.6L5.3,11.6L5.3,11.6z M5.3,18.7L5.3,18.7c-0.1-0.1-0.2-0.2-0.4-0.2c-0.2,0-0.3,0.1-0.4,0.2
	c-0.1,0.1-0.2,0.2-0.2,0.4c0,0.1,0.1,0.3,0.2,0.4c0.1,0.1,0.2,0.2,0.4,0.2c0.2,0,0.3-0.1,0.4-0.2l0,0c0.1-0.1,0.2-0.2,0.2-0.4
	C5.4,19,5.4,18.8,5.3,18.7L5.3,18.7L5.3,18.7z"/>
</svg>
