<?xml version="1.0" encoding="UTF-8"?>
<svg width="63px" height="63px" viewBox="0 0 63 63" version="1.1" xmlns="http://www.w3.org/2000/svg" xmlns:xlink="http://www.w3.org/1999/xlink">
    <!-- Generator: Sketch 53.2 (72643) - https://sketchapp.com -->
    <title>New dahboard</title>
    <desc>Created with Sketch.</desc>
    <defs>
        <path d="M10.8333333,9.16666667 L15.8333333,9.16666667 C16.2935706,9.16666667 16.6666667,9.53976271 16.6666667,10 C16.6666667,10.4602373 16.2935706,10.8333333 15.8333333,10.8333333 L10.8333333,10.8333333 L10.8333333,15.8333333 C10.8333333,16.2935706 10.4602373,16.6666667 10,16.6666667 C9.53976271,16.6666667 9.16666667,16.2935706 9.16666667,15.8333333 L9.16666667,10.8333333 L4.16666667,10.8333333 C3.70642938,10.8333333 3.33333333,10.4602373 3.33333333,10 C3.33333333,9.53976271 3.70642938,9.16666667 4.16666667,9.16666667 L9.16666667,9.16666667 L9.16666667,4.16666667 C9.16666667,3.70642938 9.53976271,3.33333333 10,3.33333333 C10.4602373,3.33333333 10.8333333,3.70642938 10.8333333,4.16666667 L10.8333333,9.16666667 Z" id="path-1"></path>
    </defs>
    <g id="Page-1" stroke="none" stroke-width="1" fill="none" fill-rule="evenodd">
        <g id="New-dahboard" transform="translate(-3.000000, -3.000000)">
            <path d="M19.5497323,9.24064134 L49.4233537,9.24064134 C55.1169074,9.24064134 59.7324446,13.8561786 59.7324446,19.5497323 L59.7324446,49.4233537 C59.7324446,55.1169074 55.1169074,59.7324446 49.4233537,59.7324446 L19.5497323,59.7324446 C13.8561786,59.7324446 9.24064134,55.1169074 9.24064134,49.4233537 L9.24064134,19.5497323 C9.24064134,13.8561786 13.8561786,9.24064134 19.5497323,9.24064134 Z" id="Rectangle-Copy-2" fill="#D6E4FC" fill-rule="nonzero" transform="translate(34.486543, 34.486543) rotate(-330.000000) translate(-34.486543, -34.486543) "></path>
            <g id="Group-38-Copy-2" transform="translate(13.770492, 6.885246)" fill-rule="nonzero">
                <path d="M4.58181818,0.572727273 C2.36765841,0.572727273 0.572727273,2.36765841 0.572727273,4.58181818 L0.572727273,48.2050671 C0.572727273,50.4192268 2.36765841,52.214158 4.58181818,52.214158 L36.3519768,52.214158 C38.5661366,52.214158 40.3610677,50.4192268 40.3610677,48.2050671 L40.3610677,14.4834842 C40.3610677,13.3056289 39.8431067,12.1873646 38.94472,11.4256267 L33.7799056,7.04640238 L27.3063017,1.53028847 C26.5809303,0.912204406 25.6591048,0.572727273 24.706114,0.572727273 L4.58181818,0.572727273 Z" id="Rectangle" stroke="#0450CC" stroke-width="1.14545455" fill="#0162FF"></path>
                <path d="M26.5531535,1.62558785 C28.5071045,3.67369706 31.1638835,5.93817539 34.5234905,8.41902285 C37.8830975,10.8998703 39.5884709,12.5775451 39.6396107,13.4520472 C32.7491398,14.8688657 28.2811486,14.7077207 26.2356371,12.9686121 C24.1901256,11.2295035 24.2959644,7.44849544 26.5531535,1.62558785 Z" id="Rectangle" fill="#ABCBFF"></path>
                <path d="M39.562901,14.0154784 L28.6801788,14.0154784 C26.1497105,14.0154784 24.0983607,11.9641286 24.0983607,9.43366027 L24.0983607,5.73770492" id="Path-6" stroke="#0450CC" stroke-width="1.14545455" stroke-linecap="round" stroke-linejoin="round"></path>
            </g>
            <g id="Glyphs-/-Plus" transform="translate(24.000000, 33.000000)">
                <mask id="mask-2" fill="white">
                    <use xlink:href="#path-1"></use>
                </mask>
                <use id="Mask" fill="#000000" fill-rule="nonzero" xlink:href="#path-1"></use>
                <g id="Colors-/-Glyphs-/-White" mask="url(#mask-2)" fill="#FFFFFF" fill-rule="evenodd">
                    <rect id="Base" x="0" y="0" width="19.6969697" height="19.6969697"></rect>
                </g>
            </g>
        </g>
    </g>
</svg>