<svg xmlns="http://www.w3.org/2000/svg" width="81" height="87" viewBox="0 0 81 87">
    <g fill="none" fill-rule="evenodd" transform="translate(-5)">
        <path fill="#FFE3D7" fill-rule="nonzero" d="M44.938 7.613L78.855 27.23c6.452 3.732 8.663 11.984 4.941 18.442L64.203 79.67c-3.726 6.465-11.988 8.686-18.453 4.96a13.45 13.45 0 0 1-.018-.01L11.815 65.001C5.363 61.27 3.152 53.018 6.874 46.56l19.594-33.998c3.726-6.465 11.987-8.686 18.452-4.96l.018.01z"/>
        <path d="M9.371 8.647h71.928v72.056H9.371z"/>
        <path fill="#FFF" fill-rule="nonzero" stroke="#FF4702" stroke-width="1.841" d="M47.176.92c-8.13 0-15.524 4.257-19.675 11.087l-.269.443h-7.79a4.834 4.834 0 0 0-4.834 4.833v54.784A4.834 4.834 0 0 0 19.44 76.9h54.665a4.834 4.834 0 0 0 4.834-4.833V17.283a4.834 4.834 0 0 0-4.834-4.833h-6.985l-.27-.443C62.702 5.177 55.307.921 47.177.921z"/>
        <path fill="#3C4D6F" fill-rule="nonzero" d="M53.287 28.642c4.218 0 7.638 3.548 7.638 7.924v3.17c0 .874-.684 1.584-1.527 1.584-.844 0-1.528-.71-1.528-1.585v-3.17c0-2.625-2.052-4.753-4.583-4.753H41.066c-2.531 0-4.583 2.128-4.583 4.754v3.17c0 .874-.684 1.584-1.528 1.584-.843 0-1.527-.71-1.527-1.585v-3.17c0-4.375 3.42-7.923 7.638-7.923h12.221zM47.864 10.33c4.176 0 7.562 3.469 7.562 7.747 0 4.28-3.386 7.748-7.562 7.748s-7.562-3.469-7.562-7.748c0-4.278 3.386-7.747 7.562-7.747zm0 2.817c-2.658 0-4.812 2.208-4.812 4.93 0 2.723 2.154 4.93 4.812 4.93 2.657 0 4.812-2.207 4.812-4.93 0-2.722-2.155-4.93-4.812-4.93z"/>
        <circle cx="48.631" cy="16.769" r="3.354" fill="#A9B0BE"/>
        <rect width="55.241" height="18.446" x="19.556" y="49.805" fill="#FFF" stroke="#3C4D6F" stroke-width=".921" rx="3.683"/>
        <path fill="#FF4702" fill-rule="nonzero" d="M30.604 58.713l.497-1.53 2.549 1.064-.171-2.908h1.629l-.171 2.967 2.484-1.04.488 1.546-2.622.74 1.726 2.21-1.319.956-1.49-2.435-1.474 2.352-1.328-.914 1.792-2.26-2.59-.748zm8 0l.496-1.53 2.55 1.064-.172-2.908h1.63l-.172 2.967 2.484-1.04.489 1.546-2.623.74 1.727 2.21-1.32.956-1.49-2.435-1.474 2.352-1.327-.914 1.791-2.26-2.59-.748zm7.999 0l.497-1.53 2.549 1.064-.171-2.908h1.628l-.17 2.967 2.483-1.04.489 1.546-2.622.74 1.726 2.21-1.32.956-1.49-2.435-1.474 2.352-1.327-.914 1.792-2.26-2.59-.748zm8 0l.496-1.53 2.549 1.064-.171-2.908h1.629l-.171 2.967 2.484-1.04.488 1.546-2.622.74 1.726 2.21-1.319.956-1.49-2.435-1.474 2.352-1.328-.914 1.792-2.26-2.59-.748z"/>
    </g>
</svg>
