<svg xmlns="http://www.w3.org/2000/svg" width="36" height="36" viewBox="0 0 36 36">
  <g fill="none" fill-rule="evenodd" transform="matrix(-1 0 0 1 36 1)">
    <path fill="#F8CD32" d="M18.8367728,33.7739389 L16.3969748,33.7739389 C7.38889959,33.7739389 0.086247798,26.3025038 0.086247798,17.0859084 L0.086247798,16.7487634 C0.086247798,7.53216794 7.38889959,0.0607328244 16.3969748,0.0607328244 L18.8367728,0.0607328244 C27.8448479,0.0607328244 35.1474997,7.53216794 35.1474997,16.7487634 L35.1474997,17.0859084 C35.1474997,26.3025038 27.8448479,33.7739389 18.8367728,33.7739389"/>
    <path fill="#FFFFFE" d="M2.30281621,13.0565191 C2.25208221,13.0565191 2.2005872,13.0492519 2.14934586,13.0341985 C1.86092308,12.9475115 1.69553024,12.6378779 1.78000235,12.3425191 C3.15895244,7.52593893 6.7445778,3.64630534 11.3707575,1.96421374 C11.6533459,1.8619542 11.9656136,2.01274809 12.0663206,2.30291603 C12.1670276,2.59282443 12.0188843,2.91180153 11.7355349,3.01458015 C7.43735056,4.5770229 4.10640986,8.1810229 2.82512272,12.6560458 C2.75561715,12.8987176 2.53847563,13.0565191 2.30281621,13.0565191"/>
    <path fill="#EEB530" d="M26.0085308,1.75891603 C29.9465038,4.80541985 32.4923359,9.63653435 32.4923359,15.0770534 L32.4923359,15.4141985 C32.4923359,24.6307939 25.1896841,32.102229 16.1818626,32.102229 L13.7418109,32.102229 C11.1680752,32.102229 8.73487258,31.490229 6.57005285,30.4040458 C9.30309336,32.5185344 12.70633,33.7739389 16.3969748,33.7739389 L18.8367728,33.7739389 C27.8448479,33.7739389 35.1474997,26.3025038 35.1474997,17.0859084 L35.1474997,16.7487634 C35.1474997,10.1654809 31.4203265,4.47450382 26.0085308,1.75891603"/>
    <path fill="#34311D" d="M11.1898908 10.5259847L11.1541233 10.5259847C10.1739425 10.5259847 9.37919436 11.3388702 9.37919436 12.3417405L9.37919436 13.7611756C9.37919436 14.7640458 10.1739425 15.5771908 11.1541233 15.5771908L11.1898908 15.5771908C12.1700716 15.5771908 12.9648197 14.7640458 12.9648197 13.7611756L12.9648197 12.3417405C12.9648197 11.3388702 12.1700716 10.5259847 11.1898908 10.5259847M24.0796242 10.5259847L24.0438567 10.5259847C23.0636759 10.5259847 22.2689278 11.3388702 22.2689278 12.3417405L22.2689278 13.7611756C22.2689278 14.7640458 23.0636759 15.5771908 24.0438567 15.5771908L24.0796242 15.5771908C25.059805 15.5771908 25.8545531 14.7640458 25.8545531 13.7611756L25.8545531 12.3417405C25.8545531 11.3388702 25.059805 10.5259847 24.0796242 10.5259847M25.5095619 22.6271298L9.72443922 22.6271298C9.27290664 22.6271298 8.90736817 22.2526107 8.90736817 21.791145 8.90736817 21.3296794 9.27290664 20.9551603 9.72443922 20.9551603L25.5095619 20.9551603C25.9608409 20.9551603 26.3263793 21.3296794 26.3263793 21.791145 26.3263793 22.2526107 25.9608409 22.6271298 25.5095619 22.6271298"/>
  </g>
</svg>
