<svg xmlns="http://www.w3.org/2000/svg" xmlns:xlink="http://www.w3.org/1999/xlink" width="50" height="50" viewBox="0 0 50 50">
    <defs>
        <path id="a" d="M2.333 4.667a.583.583 0 0 0-.583.583v6.417c0 .322.261.583.583.583h9.334a.583.583 0 0 0 .583-.583V5.25a.583.583 0 0 0-.583-.583H2.333zM5.592 3.5L3.67 1.58a.583.583 0 1 1 .825-.826L7 3.258 9.504.754a.583.583 0 1 1 .825.825L8.41 3.5h3.258c.966 0 1.75.784 1.75 1.75v6.417a1.75 1.75 0 0 1-1.75 1.75H2.333a1.75 1.75 0 0 1-1.75-1.75V5.25c0-.966.784-1.75 1.75-1.75h3.259z"/>
    </defs>
    <g fill="none" fill-rule="evenodd">
        <path fill="#D6E4FC" fill-rule="nonzero" d="M24.85 2.05l20.328 11.736a8.1 8.1 0 0 1 2.965 11.065L36.407 45.178a8.1 8.1 0 0 1-11.065 2.965L5.015 36.407A8.1 8.1 0 0 1 2.05 25.342L13.786 5.015A8.1 8.1 0 0 1 24.851 2.05z"/>
        <path fill="#FFF" fill-rule="nonzero" stroke="#0162FF" stroke-width=".9" d="M12.42 3.86a3.15 3.15 0 0 0-3.15 3.15v34.275a3.15 3.15 0 0 0 3.15 3.15h24.962a3.15 3.15 0 0 0 3.15-3.15V14.79a3.15 3.15 0 0 0-1.113-2.403l-4.058-3.44-5.086-4.335a3.15 3.15 0 0 0-2.043-.752H12.42z"/>
        <g transform="translate(18 21)">
            <mask id="b" fill="#fff">
                <use xlink:href="#a"/>
            </mask>
            <use fill="#000" fill-rule="nonzero" xlink:href="#a"/>
            <g fill="#0565FF" mask="url(#b)">
                <path d="M0 0h13.917v13.917H0z"/>
            </g>
        </g>
        <path fill="#CCDCF4" fill-rule="nonzero" d="M29.683 4.687a571.64 571.64 0 0 0 6.262 5.338c2.44 2.054 3.76 3.36 3.96 3.92-5.374 1.136-8.864 1.02-10.472-.346-1.607-1.366-1.524-4.337.25-8.912z"/>
        <path fill-rule="nonzero" stroke="#0162FF" stroke-linecap="round" stroke-linejoin="round" stroke-width=".9" d="M39.905 14.422h-8.55a3.6 3.6 0 0 1-3.6-3.6V7.918"/>
    </g>
</svg>
