<svg xmlns="http://www.w3.org/2000/svg" width="49" height="50" viewBox="0 0 49 50">
    <g fill="none" fill-rule="evenodd" transform="translate(-3 -2)">
        <path fill="#D6E4FC" fill-rule="nonzero" d="M27.59 4.05l20.328 11.736a8.1 8.1 0 0 1 2.965 11.065L39.147 47.178a8.1 8.1 0 0 1-11.065 2.965L7.754 38.407A8.1 8.1 0 0 1 4.79 27.342L16.526 7.015A8.1 8.1 0 0 1 27.59 4.05z"/>
        <path fill="#FFF" fill-rule="nonzero" stroke="#0162FF" stroke-width=".9" d="M15.34 5.45a3.15 3.15 0 0 0-3.15 3.15v34.275a3.15 3.15 0 0 0 3.15 3.15h24.962a3.15 3.15 0 0 0 3.15-3.15V16.38a3.15 3.15 0 0 0-1.113-2.403l-4.058-3.44-5.087-4.335a3.15 3.15 0 0 0-2.043-.752H15.34z"/>
        <rect width="13" height="1" x="20.739" y="36" fill="#0162FF" rx=".5"/>
        <rect width="13" height="1" x="20.739" y="39" fill="#0162FF" rx=".5"/>
        <path fill="#0162FF" fill-rule="nonzero" d="M32.24 26a.513.513 0 0 1 .353.143l.014.015.03.034-.044-.049a.493.493 0 0 1 .146.347v2.939c0 .27-.223.49-.5.49-.276 0-.5-.22-.5-.49v-1.757l-3.896 3.817a.507.507 0 0 1-.707 0l-2.147-2.102-3.396 3.327a.507.507 0 0 1-.707 0 .483.483 0 0 1 0-.693l3.75-3.673a.507.507 0 0 1 .707 0l2.146 2.102 3.543-3.471H29.24c-.276 0-.5-.219-.5-.49 0-.27.224-.489.5-.489h3z"/>
        <circle cx="35.739" cy="13" r="8.55" fill="#FFF" fill-rule="nonzero" stroke="#0162FF" stroke-width=".9"/>
        <path fill="#333" fill-rule="nonzero" d="M32.14 14a.4.4 0 0 0-.4.4v1.2a1.2 1.2 0 0 0 1.2 1.2h5.6a1.2 1.2 0 0 0 1.2-1.2v-1.2a.4.4 0 1 0-.8 0v1.2a.4.4 0 0 1-.4.4h-5.6a.4.4 0 0 1-.4-.4v-1.2a.4.4 0 0 0-.4-.4zm3.449-5.97a.415.415 0 0 0-.132.087l-1.6 1.6a.4.4 0 1 0 .565.566l.918-.919V14a.4.4 0 1 0 .8 0V9.366l.917.917a.4.4 0 1 0 .565-.566l-1.6-1.6a.4.4 0 0 0-.132-.088l-.07-.02a.399.399 0 0 0-.16-.001h-.001l-.07.021z"/>
    </g>
</svg>
