<svg xmlns="http://www.w3.org/2000/svg" width="49" height="50" viewBox="0 0 49 50">
    <g fill="none" fill-rule="evenodd" transform="translate(-3 -2)">
        <path fill="#D6E4FC" fill-rule="nonzero" d="M27.59 4.05l20.328 11.736a8.1 8.1 0 0 1 2.965 11.065L39.147 47.178a8.1 8.1 0 0 1-11.065 2.965L7.754 38.407A8.1 8.1 0 0 1 4.79 27.342L16.526 7.015A8.1 8.1 0 0 1 27.59 4.05z"/>
        <path fill="#FFF" fill-rule="nonzero" stroke="#0162FF" stroke-width=".9" d="M15.34 5.45a3.15 3.15 0 0 0-3.15 3.15v34.275a3.15 3.15 0 0 0 3.15 3.15h24.962a3.15 3.15 0 0 0 3.15-3.15V16.38a3.15 3.15 0 0 0-1.113-2.403l-4.058-3.44-5.087-4.335a3.15 3.15 0 0 0-2.043-.752H15.34z"/>
        <circle cx="35.739" cy="13" r="8.55" fill="#FFF" fill-rule="nonzero" stroke="#0162FF" stroke-width=".9"/>
        <path fill="#333" fill-rule="nonzero" d="M32.4 15a.4.4 0 0 0-.4.4v1.2a1.2 1.2 0 0 0 1.2 1.2h5.6a1.2 1.2 0 0 0 1.2-1.2v-1.2a.4.4 0 1 0-.8 0v1.2a.4.4 0 0 1-.4.4h-5.6a.4.4 0 0 1-.4-.4v-1.2a.4.4 0 0 0-.4-.4zm3.45-5.97a.415.415 0 0 0-.133.087l-1.6 1.6a.4.4 0 1 0 .566.566l.918-.919L35.6 15a.4.4 0 1 0 .8 0l.001-4.634.916.917a.4.4 0 1 0 .566-.566l-1.6-1.6a.4.4 0 0 0-.132-.088l-.07-.02a.399.399 0 0 0-.16-.001h-.002l-.07.021z"/>
        <path fill="#0162FF" d="M32.017 25.583c1.182 0 2.14.958 2.14 2.14v8.555a2.139 2.139 0 0 1-2.14 2.139h-8.555a2.139 2.139 0 0 1-2.14-2.14v-8.555c0-1.181.958-2.139 2.14-2.139h8.555zm1.069 6.708H22.392v3.987c0 .59.48 1.07 1.07 1.07h8.555c.59 0 1.07-.48 1.07-1.07l-.001-3.987zm-8.263 1.459a1.167 1.167 0 1 1 0 2.333 1.167 1.167 0 0 1 0-2.333zm7.194-7.097h-8.555c-.59 0-1.07.479-1.07 1.07v3.401h10.694v-3.402c0-.59-.478-1.07-1.069-1.07zm-7.194 1.264a1.167 1.167 0 1 1 0 2.333 1.167 1.167 0 0 1 0-2.333z"/>
    </g>
</svg>
