<svg xmlns="http://www.w3.org/2000/svg" width="75" height="64" viewBox="0 0 75 64">
    <defs>
        <linearGradient id="a" x1="95.644%" x2="0%" y1="0%" y2="103.996%">
            <stop offset="0%" stop-color="#0569FF"/>
            <stop offset="100%" stop-color="#0653C7"/>
        </linearGradient>
    </defs>
    <g fill="none" fill-rule="evenodd">
        <path d="M-4-10h90v90H-4z"/>
        <path fill="#D0D0D0" fill-rule="nonzero" d="M1.26 14.796a.901.901 0 0 1-.904-.898c0-.496.405-.898.905-.898h72.783c.5 0 .905.402.905.898a.901.901 0 0 1-.905.898H1.261zM1.26 29.163a.901.901 0 0 1-.904-.898c0-.496.405-.898.905-.898h5.256c.5 0 .905.402.905.898a.901.901 0 0 1-.905.898H1.261zM1.26 43.082a.901.901 0 0 1-.904-.898c0-.496.405-.898.905-.898h72.783c.5 0 .905.402.905.898a.901.901 0 0 1-.905.898H1.261z"/>
        <g fill-rule="nonzero" transform="rotate(-40 28.598 11.7)">
            <ellipse cx="23.511" cy="23.347" fill="#FFF" stroke="url(#a)" stroke-width="3.6" rx="21.711" ry="21.547"/>
            <path fill="#E6EFFC" d="M23.51 43.102c10.988 0-6.783.033-9.575-19.259C11.143 4.551 34.498 3.592 23.511 3.592c-10.987 0-19.894 8.844-19.894 19.755 0 10.91 8.907 19.755 19.894 19.755z"/>
            <path fill="#065DE0" d="M21.702 44.898c0-.992.81-1.796 1.809-1.796.998 0 1.808.804 1.808 1.796v28.286c0 .992-.81 1.796-1.808 1.796a1.802 1.802 0 0 1-1.809-1.796V44.898z"/>
        </g>
        <path fill="#0659D5" d="M64.26 32.306c-.576 0-.864-.218-.864-.656 0-.646.216-1.368.648-2.166.432-.798 1.041-1.587 1.828-2.366.96-.95 1.655-1.715 2.086-2.295.432-.58.648-1.183.648-1.81 0-1.977-1.209-2.965-3.627-2.965-.537 0-1.026.067-1.467.2-.442.133-.912.304-1.41.513-.385.171-.615.256-.692.256-.134 0-.321-.19-.56-.57-.24-.38-.36-.674-.36-.883 0-.456.537-.841 1.611-1.155a11.857 11.857 0 0 1 3.339-.47c1.228 0 2.288.214 3.18.641.893.428 1.57 1.007 2.03 1.74.46.73.69 1.534.69 2.408 0 .874-.23 1.663-.69 2.366-.46.703-1.142 1.51-2.044 2.423-.94.912-1.645 1.663-2.115 2.252a3.935 3.935 0 0 0-.85 1.967.658.658 0 0 1-.259.428c-.134.095-.364.142-.69.142h-.432zm-.843 5.388c-.746 0-1.12-.18-1.12-.539V35.54c0-.36.374-.539 1.12-.539h.475c.746 0 1.119.18 1.119.539v1.616c0 .36-.373.539-1.119.539h-.475z"/>
    </g>
</svg>
