<svg xmlns="http://www.w3.org/2000/svg" width="321" height="212" viewBox="0 0 321 212">
    <g fill="none" fill-rule="nonzero">
        <path fill="#EEE" d="M0 158h160.492C249.118 158 320.972 87.27 321 0H80.254c-21.294-.048-41.73 8.258-56.79 23.08C8.404 37.905-.04 58.025 0 78.993V158z"/>
        <g fill="#FFC916">
            <g transform="translate(140.63 124)">
                <ellipse cx="1.269" cy="1.269" rx="1.269" ry="1.269"/>
                <ellipse cx="12.059" cy="1.269" rx="1.269" ry="1.269"/>
                <ellipse cx="22.848" cy="1.269" rx="1.269" ry="1.269"/>
                <ellipse cx="33.638" cy="1.269" rx="1.269" ry="1.269"/>
                <ellipse cx="43.793" cy="1.269" rx="1.269" ry="1.269"/>
                <ellipse cx="54.582" cy="1.269" rx="1.269" ry="1.269"/>
                <ellipse cx="65.372" cy="1.269" rx="1.269" ry="1.269"/>
                <ellipse cx="76.162" cy="1.269" rx="1.269" ry="1.269"/>
                <ellipse cx="86.951" cy="1.269" rx="1.269" ry="1.269"/>
                <ellipse cx="97.741" cy="1.269" rx="1.269" ry="1.269"/>
                <ellipse cx="1.269" cy="10.151" rx="1.269" ry="1.269"/>
                <ellipse cx="12.059" cy="10.151" rx="1.269" ry="1.269"/>
                <ellipse cx="22.848" cy="10.151" rx="1.269" ry="1.269"/>
                <ellipse cx="33.638" cy="10.151" rx="1.269" ry="1.269"/>
                <ellipse cx="43.793" cy="10.151" rx="1.269" ry="1.269"/>
                <ellipse cx="54.582" cy="10.151" rx="1.269" ry="1.269"/>
                <ellipse cx="65.372" cy="10.151" rx="1.269" ry="1.269"/>
                <ellipse cx="76.162" cy="10.151" rx="1.269" ry="1.269"/>
                <ellipse cx="86.951" cy="10.151" rx="1.269" ry="1.269"/>
                <ellipse cx="97.741" cy="10.151" rx="1.269" ry="1.269"/>
                <ellipse cx="1.269" cy="18.399" rx="1.269" ry="1.269"/>
                <ellipse cx="12.059" cy="18.399" rx="1.269" ry="1.269"/>
                <ellipse cx="22.848" cy="18.399" rx="1.269" ry="1.269"/>
                <ellipse cx="33.638" cy="18.399" rx="1.269" ry="1.269"/>
                <ellipse cx="43.793" cy="18.399" rx="1.269" ry="1.269"/>
                <ellipse cx="54.582" cy="18.399" rx="1.269" ry="1.269"/>
                <ellipse cx="65.372" cy="18.399" rx="1.269" ry="1.269"/>
                <ellipse cx="76.162" cy="18.399" rx="1.269" ry="1.269"/>
                <ellipse cx="86.951" cy="18.399" rx="1.269" ry="1.269"/>
                <ellipse cx="97.741" cy="18.399" rx="1.269" ry="1.269"/>
                <ellipse cx="1.269" cy="26.647" rx="1.269" ry="1.269"/>
                <ellipse cx="12.059" cy="26.647" rx="1.269" ry="1.269"/>
                <ellipse cx="22.848" cy="26.647" rx="1.269" ry="1.269"/>
                <ellipse cx="33.638" cy="26.647" rx="1.269" ry="1.269"/>
                <ellipse cx="43.793" cy="26.647" rx="1.269" ry="1.269"/>
                <ellipse cx="54.582" cy="26.647" rx="1.269" ry="1.269"/>
                <ellipse cx="65.372" cy="26.647" rx="1.269" ry="1.269"/>
                <ellipse cx="76.162" cy="26.647" rx="1.269" ry="1.269"/>
                <ellipse cx="86.951" cy="26.647" rx="1.269" ry="1.269"/>
                <ellipse cx="97.741" cy="26.647" rx="1.269" ry="1.269"/>
                <ellipse cx="1.269" cy="34.894" rx="1.269" ry="1.269"/>
                <ellipse cx="12.059" cy="34.894" rx="1.269" ry="1.269"/>
                <ellipse cx="22.848" cy="34.894" rx="1.269" ry="1.269"/>
                <ellipse cx="33.638" cy="34.894" rx="1.269" ry="1.269"/>
                <ellipse cx="43.793" cy="34.894" rx="1.269" ry="1.269"/>
                <ellipse cx="54.582" cy="34.894" rx="1.269" ry="1.269"/>
                <ellipse cx="65.372" cy="34.894" rx="1.269" ry="1.269"/>
                <ellipse cx="76.162" cy="34.894" rx="1.269" ry="1.269"/>
                <ellipse cx="86.951" cy="34.894" rx="1.269" ry="1.269"/>
                <ellipse cx="97.741" cy="34.894" rx="1.269" ry="1.269"/>
                <ellipse cx="1.269" cy="43.777" rx="1.269" ry="1.269"/>
                <ellipse cx="12.059" cy="43.777" rx="1.269" ry="1.269"/>
                <ellipse cx="22.848" cy="43.777" rx="1.269" ry="1.269"/>
                <ellipse cx="33.638" cy="43.777" rx="1.269" ry="1.269"/>
                <ellipse cx="43.793" cy="43.777" rx="1.269" ry="1.269"/>
                <ellipse cx="54.582" cy="43.777" rx="1.269" ry="1.269"/>
                <ellipse cx="65.372" cy="43.777" rx="1.269" ry="1.269"/>
                <ellipse cx="76.162" cy="43.777" rx="1.269" ry="1.269"/>
                <ellipse cx="86.951" cy="43.777" rx="1.269" ry="1.269"/>
                <ellipse cx="97.741" cy="43.777" rx="1.269" ry="1.269"/>
                <ellipse cx="1.269" cy="52.659" rx="1.269" ry="1.269"/>
                <ellipse cx="12.059" cy="52.659" rx="1.269" ry="1.269"/>
                <ellipse cx="22.848" cy="52.659" rx="1.269" ry="1.269"/>
                <ellipse cx="33.638" cy="52.659" rx="1.269" ry="1.269"/>
                <ellipse cx="43.793" cy="52.659" rx="1.269" ry="1.269"/>
                <ellipse cx="54.582" cy="52.659" rx="1.269" ry="1.269"/>
                <ellipse cx="65.372" cy="52.659" rx="1.269" ry="1.269"/>
                <ellipse cx="76.162" cy="52.659" rx="1.269" ry="1.269"/>
                <ellipse cx="86.951" cy="52.659" rx="1.269" ry="1.269"/>
                <ellipse cx="97.741" cy="52.659" rx="1.269" ry="1.269"/>
                <ellipse cx="1.269" cy="60.906" rx="1.269" ry="1.269"/>
                <ellipse cx="12.059" cy="60.906" rx="1.269" ry="1.269"/>
                <ellipse cx="22.848" cy="60.906" rx="1.269" ry="1.269"/>
                <ellipse cx="33.638" cy="60.906" rx="1.269" ry="1.269"/>
                <ellipse cx="43.793" cy="60.906" rx="1.269" ry="1.269"/>
                <ellipse cx="54.582" cy="60.906" rx="1.269" ry="1.269"/>
                <ellipse cx="65.372" cy="60.906" rx="1.269" ry="1.269"/>
                <ellipse cx="76.162" cy="60.906" rx="1.269" ry="1.269"/>
                <ellipse cx="86.951" cy="60.906" rx="1.269" ry="1.269"/>
                <ellipse cx="97.741" cy="60.906" rx="1.269" ry="1.269"/>
                <ellipse cx="1.269" cy="69.789" rx="1.269" ry="1.269"/>
                <ellipse cx="12.059" cy="69.789" rx="1.269" ry="1.269"/>
                <ellipse cx="22.848" cy="69.789" rx="1.269" ry="1.269"/>
                <ellipse cx="33.638" cy="69.789" rx="1.269" ry="1.269"/>
                <ellipse cx="43.793" cy="69.789" rx="1.269" ry="1.269"/>
                <ellipse cx="54.582" cy="69.789" rx="1.269" ry="1.269"/>
                <ellipse cx="65.372" cy="69.789" rx="1.269" ry="1.269"/>
                <ellipse cx="76.162" cy="69.789" rx="1.269" ry="1.269"/>
                <ellipse cx="86.951" cy="69.789" rx="1.269" ry="1.269"/>
                <ellipse cx="97.741" cy="69.789" rx="1.269" ry="1.269"/>
                <ellipse cx="1.269" cy="78.036" rx="1.269" ry="1.269"/>
                <ellipse cx="12.059" cy="78.036" rx="1.269" ry="1.269"/>
                <ellipse cx="22.848" cy="78.036" rx="1.269" ry="1.269"/>
                <ellipse cx="33.638" cy="78.036" rx="1.269" ry="1.269"/>
                <ellipse cx="43.793" cy="78.036" rx="1.269" ry="1.269"/>
                <ellipse cx="54.582" cy="78.036" rx="1.269" ry="1.269"/>
                <ellipse cx="65.372" cy="78.036" rx="1.269" ry="1.269"/>
                <ellipse cx="76.162" cy="78.036" rx="1.269" ry="1.269"/>
                <ellipse cx="86.951" cy="78.036" rx="1.269" ry="1.269"/>
                <ellipse cx="97.741" cy="78.036" rx="1.269" ry="1.269"/>
                <ellipse cx="1.269" cy="86.284" rx="1.269" ry="1.269"/>
                <ellipse cx="12.059" cy="86.284" rx="1.269" ry="1.269"/>
                <ellipse cx="22.848" cy="86.284" rx="1.269" ry="1.269"/>
                <ellipse cx="33.638" cy="86.284" rx="1.269" ry="1.269"/>
                <ellipse cx="43.793" cy="86.284" rx="1.269" ry="1.269"/>
                <ellipse cx="54.582" cy="86.284" rx="1.269" ry="1.269"/>
                <ellipse cx="65.372" cy="86.284" rx="1.269" ry="1.269"/>
                <ellipse cx="76.162" cy="86.284" rx="1.269" ry="1.269"/>
                <ellipse cx="86.951" cy="86.284" rx="1.269" ry="1.269"/>
                <ellipse cx="97.741" cy="86.284" rx="1.269" ry="1.269"/>
            </g>
            <g transform="translate(33.368 124)">
                <ellipse cx="1.269" cy="1.269" rx="1.269" ry="1.269"/>
                <ellipse cx="12.059" cy="1.269" rx="1.269" ry="1.269"/>
                <ellipse cx="22.848" cy="1.269" rx="1.269" ry="1.269"/>
                <ellipse cx="33.638" cy="1.269" rx="1.269" ry="1.269"/>
                <ellipse cx="43.793" cy="1.269" rx="1.269" ry="1.269"/>
                <ellipse cx="54.582" cy="1.269" rx="1.269" ry="1.269"/>
                <ellipse cx="65.372" cy="1.269" rx="1.269" ry="1.269"/>
                <ellipse cx="76.162" cy="1.269" rx="1.269" ry="1.269"/>
                <ellipse cx="86.951" cy="1.269" rx="1.269" ry="1.269"/>
                <ellipse cx="97.741" cy="1.269" rx="1.269" ry="1.269"/>
                <ellipse cx="1.269" cy="10.151" rx="1.269" ry="1.269"/>
                <ellipse cx="12.059" cy="10.151" rx="1.269" ry="1.269"/>
                <ellipse cx="22.848" cy="10.151" rx="1.269" ry="1.269"/>
                <ellipse cx="33.638" cy="10.151" rx="1.269" ry="1.269"/>
                <ellipse cx="43.793" cy="10.151" rx="1.269" ry="1.269"/>
                <ellipse cx="54.582" cy="10.151" rx="1.269" ry="1.269"/>
                <ellipse cx="65.372" cy="10.151" rx="1.269" ry="1.269"/>
                <ellipse cx="76.162" cy="10.151" rx="1.269" ry="1.269"/>
                <ellipse cx="86.951" cy="10.151" rx="1.269" ry="1.269"/>
                <ellipse cx="97.741" cy="10.151" rx="1.269" ry="1.269"/>
                <ellipse cx="1.269" cy="18.399" rx="1.269" ry="1.269"/>
                <ellipse cx="12.059" cy="18.399" rx="1.269" ry="1.269"/>
                <ellipse cx="22.848" cy="18.399" rx="1.269" ry="1.269"/>
                <ellipse cx="33.638" cy="18.399" rx="1.269" ry="1.269"/>
                <ellipse cx="43.793" cy="18.399" rx="1.269" ry="1.269"/>
                <ellipse cx="54.582" cy="18.399" rx="1.269" ry="1.269"/>
                <ellipse cx="65.372" cy="18.399" rx="1.269" ry="1.269"/>
                <ellipse cx="76.162" cy="18.399" rx="1.269" ry="1.269"/>
                <ellipse cx="86.951" cy="18.399" rx="1.269" ry="1.269"/>
                <ellipse cx="97.741" cy="18.399" rx="1.269" ry="1.269"/>
                <ellipse cx="1.269" cy="26.647" rx="1.269" ry="1.269"/>
                <ellipse cx="12.059" cy="26.647" rx="1.269" ry="1.269"/>
                <ellipse cx="22.848" cy="26.647" rx="1.269" ry="1.269"/>
                <ellipse cx="33.638" cy="26.647" rx="1.269" ry="1.269"/>
                <ellipse cx="43.793" cy="26.647" rx="1.269" ry="1.269"/>
                <ellipse cx="54.582" cy="26.647" rx="1.269" ry="1.269"/>
                <ellipse cx="65.372" cy="26.647" rx="1.269" ry="1.269"/>
                <ellipse cx="76.162" cy="26.647" rx="1.269" ry="1.269"/>
                <ellipse cx="86.951" cy="26.647" rx="1.269" ry="1.269"/>
                <ellipse cx="97.741" cy="26.647" rx="1.269" ry="1.269"/>
                <ellipse cx="1.269" cy="34.894" rx="1.269" ry="1.269"/>
                <ellipse cx="12.059" cy="34.894" rx="1.269" ry="1.269"/>
                <ellipse cx="22.848" cy="34.894" rx="1.269" ry="1.269"/>
                <ellipse cx="33.638" cy="34.894" rx="1.269" ry="1.269"/>
                <ellipse cx="43.793" cy="34.894" rx="1.269" ry="1.269"/>
                <ellipse cx="54.582" cy="34.894" rx="1.269" ry="1.269"/>
                <ellipse cx="65.372" cy="34.894" rx="1.269" ry="1.269"/>
                <ellipse cx="76.162" cy="34.894" rx="1.269" ry="1.269"/>
                <ellipse cx="86.951" cy="34.894" rx="1.269" ry="1.269"/>
                <ellipse cx="97.741" cy="34.894" rx="1.269" ry="1.269"/>
                <ellipse cx="1.269" cy="43.777" rx="1.269" ry="1.269"/>
                <ellipse cx="12.059" cy="43.777" rx="1.269" ry="1.269"/>
                <ellipse cx="22.848" cy="43.777" rx="1.269" ry="1.269"/>
                <ellipse cx="33.638" cy="43.777" rx="1.269" ry="1.269"/>
                <ellipse cx="43.793" cy="43.777" rx="1.269" ry="1.269"/>
                <ellipse cx="54.582" cy="43.777" rx="1.269" ry="1.269"/>
                <ellipse cx="65.372" cy="43.777" rx="1.269" ry="1.269"/>
                <ellipse cx="76.162" cy="43.777" rx="1.269" ry="1.269"/>
                <ellipse cx="86.951" cy="43.777" rx="1.269" ry="1.269"/>
                <ellipse cx="97.741" cy="43.777" rx="1.269" ry="1.269"/>
                <ellipse cx="1.269" cy="52.659" rx="1.269" ry="1.269"/>
                <ellipse cx="12.059" cy="52.659" rx="1.269" ry="1.269"/>
                <ellipse cx="22.848" cy="52.659" rx="1.269" ry="1.269"/>
                <ellipse cx="33.638" cy="52.659" rx="1.269" ry="1.269"/>
                <ellipse cx="43.793" cy="52.659" rx="1.269" ry="1.269"/>
                <ellipse cx="54.582" cy="52.659" rx="1.269" ry="1.269"/>
                <ellipse cx="65.372" cy="52.659" rx="1.269" ry="1.269"/>
                <ellipse cx="76.162" cy="52.659" rx="1.269" ry="1.269"/>
                <ellipse cx="86.951" cy="52.659" rx="1.269" ry="1.269"/>
                <ellipse cx="97.741" cy="52.659" rx="1.269" ry="1.269"/>
                <ellipse cx="1.269" cy="60.906" rx="1.269" ry="1.269"/>
                <ellipse cx="12.059" cy="60.906" rx="1.269" ry="1.269"/>
                <ellipse cx="22.848" cy="60.906" rx="1.269" ry="1.269"/>
                <ellipse cx="33.638" cy="60.906" rx="1.269" ry="1.269"/>
                <ellipse cx="43.793" cy="60.906" rx="1.269" ry="1.269"/>
                <ellipse cx="54.582" cy="60.906" rx="1.269" ry="1.269"/>
                <ellipse cx="65.372" cy="60.906" rx="1.269" ry="1.269"/>
                <ellipse cx="76.162" cy="60.906" rx="1.269" ry="1.269"/>
                <ellipse cx="86.951" cy="60.906" rx="1.269" ry="1.269"/>
                <ellipse cx="97.741" cy="60.906" rx="1.269" ry="1.269"/>
                <ellipse cx="1.269" cy="69.789" rx="1.269" ry="1.269"/>
                <ellipse cx="12.059" cy="69.789" rx="1.269" ry="1.269"/>
                <ellipse cx="22.848" cy="69.789" rx="1.269" ry="1.269"/>
                <ellipse cx="33.638" cy="69.789" rx="1.269" ry="1.269"/>
                <ellipse cx="43.793" cy="69.789" rx="1.269" ry="1.269"/>
                <ellipse cx="54.582" cy="69.789" rx="1.269" ry="1.269"/>
                <ellipse cx="65.372" cy="69.789" rx="1.269" ry="1.269"/>
                <ellipse cx="76.162" cy="69.789" rx="1.269" ry="1.269"/>
                <ellipse cx="86.951" cy="69.789" rx="1.269" ry="1.269"/>
                <ellipse cx="97.741" cy="69.789" rx="1.269" ry="1.269"/>
                <ellipse cx="1.269" cy="78.036" rx="1.269" ry="1.269"/>
                <ellipse cx="12.059" cy="78.036" rx="1.269" ry="1.269"/>
                <ellipse cx="22.848" cy="78.036" rx="1.269" ry="1.269"/>
                <ellipse cx="33.638" cy="78.036" rx="1.269" ry="1.269"/>
                <ellipse cx="43.793" cy="78.036" rx="1.269" ry="1.269"/>
                <ellipse cx="54.582" cy="78.036" rx="1.269" ry="1.269"/>
                <ellipse cx="65.372" cy="78.036" rx="1.269" ry="1.269"/>
                <ellipse cx="76.162" cy="78.036" rx="1.269" ry="1.269"/>
                <ellipse cx="86.951" cy="78.036" rx="1.269" ry="1.269"/>
                <ellipse cx="97.741" cy="78.036" rx="1.269" ry="1.269"/>
                <ellipse cx="1.269" cy="86.284" rx="1.269" ry="1.269"/>
                <ellipse cx="12.059" cy="86.284" rx="1.269" ry="1.269"/>
                <ellipse cx="22.848" cy="86.284" rx="1.269" ry="1.269"/>
                <ellipse cx="33.638" cy="86.284" rx="1.269" ry="1.269"/>
                <ellipse cx="43.793" cy="86.284" rx="1.269" ry="1.269"/>
                <ellipse cx="54.582" cy="86.284" rx="1.269" ry="1.269"/>
                <ellipse cx="65.372" cy="86.284" rx="1.269" ry="1.269"/>
                <ellipse cx="76.162" cy="86.284" rx="1.269" ry="1.269"/>
                <ellipse cx="86.951" cy="86.284" rx="1.269" ry="1.269"/>
                <ellipse cx="97.741" cy="86.284" rx="1.269" ry="1.269"/>
            </g>
        </g>
        <g fill="#FFC916">
            <g transform="translate(140.63 30.175)">
                <ellipse cx="1.269" cy="1.269" rx="1.269" ry="1.269"/>
                <ellipse cx="12.059" cy="1.269" rx="1.269" ry="1.269"/>
                <ellipse cx="22.848" cy="1.269" rx="1.269" ry="1.269"/>
                <ellipse cx="33.638" cy="1.269" rx="1.269" ry="1.269"/>
                <ellipse cx="43.793" cy="1.269" rx="1.269" ry="1.269"/>
                <ellipse cx="54.582" cy="1.269" rx="1.269" ry="1.269"/>
                <ellipse cx="65.372" cy="1.269" rx="1.269" ry="1.269"/>
                <ellipse cx="76.162" cy="1.269" rx="1.269" ry="1.269"/>
                <ellipse cx="86.951" cy="1.269" rx="1.269" ry="1.269"/>
                <ellipse cx="97.741" cy="1.269" rx="1.269" ry="1.269"/>
                <ellipse cx="1.269" cy="10.151" rx="1.269" ry="1.269"/>
                <ellipse cx="12.059" cy="10.151" rx="1.269" ry="1.269"/>
                <ellipse cx="22.848" cy="10.151" rx="1.269" ry="1.269"/>
                <ellipse cx="33.638" cy="10.151" rx="1.269" ry="1.269"/>
                <ellipse cx="43.793" cy="10.151" rx="1.269" ry="1.269"/>
                <ellipse cx="54.582" cy="10.151" rx="1.269" ry="1.269"/>
                <ellipse cx="65.372" cy="10.151" rx="1.269" ry="1.269"/>
                <ellipse cx="76.162" cy="10.151" rx="1.269" ry="1.269"/>
                <ellipse cx="86.951" cy="10.151" rx="1.269" ry="1.269"/>
                <ellipse cx="97.741" cy="10.151" rx="1.269" ry="1.269"/>
                <ellipse cx="1.269" cy="18.399" rx="1.269" ry="1.269"/>
                <ellipse cx="12.059" cy="18.399" rx="1.269" ry="1.269"/>
                <ellipse cx="22.848" cy="18.399" rx="1.269" ry="1.269"/>
                <ellipse cx="33.638" cy="18.399" rx="1.269" ry="1.269"/>
                <ellipse cx="43.793" cy="18.399" rx="1.269" ry="1.269"/>
                <ellipse cx="54.582" cy="18.399" rx="1.269" ry="1.269"/>
                <ellipse cx="65.372" cy="18.399" rx="1.269" ry="1.269"/>
                <ellipse cx="76.162" cy="18.399" rx="1.269" ry="1.269"/>
                <ellipse cx="86.951" cy="18.399" rx="1.269" ry="1.269"/>
                <ellipse cx="97.741" cy="18.399" rx="1.269" ry="1.269"/>
                <ellipse cx="1.269" cy="26.647" rx="1.269" ry="1.269"/>
                <ellipse cx="12.059" cy="26.647" rx="1.269" ry="1.269"/>
                <ellipse cx="22.848" cy="26.647" rx="1.269" ry="1.269"/>
                <ellipse cx="33.638" cy="26.647" rx="1.269" ry="1.269"/>
                <ellipse cx="43.793" cy="26.647" rx="1.269" ry="1.269"/>
                <ellipse cx="54.582" cy="26.647" rx="1.269" ry="1.269"/>
                <ellipse cx="65.372" cy="26.647" rx="1.269" ry="1.269"/>
                <ellipse cx="76.162" cy="26.647" rx="1.269" ry="1.269"/>
                <ellipse cx="86.951" cy="26.647" rx="1.269" ry="1.269"/>
                <ellipse cx="97.741" cy="26.647" rx="1.269" ry="1.269"/>
                <ellipse cx="1.269" cy="34.894" rx="1.269" ry="1.269"/>
                <ellipse cx="12.059" cy="34.894" rx="1.269" ry="1.269"/>
                <ellipse cx="22.848" cy="34.894" rx="1.269" ry="1.269"/>
                <ellipse cx="33.638" cy="34.894" rx="1.269" ry="1.269"/>
                <ellipse cx="43.793" cy="34.894" rx="1.269" ry="1.269"/>
                <ellipse cx="54.582" cy="34.894" rx="1.269" ry="1.269"/>
                <ellipse cx="65.372" cy="34.894" rx="1.269" ry="1.269"/>
                <ellipse cx="76.162" cy="34.894" rx="1.269" ry="1.269"/>
                <ellipse cx="86.951" cy="34.894" rx="1.269" ry="1.269"/>
                <ellipse cx="97.741" cy="34.894" rx="1.269" ry="1.269"/>
                <ellipse cx="1.269" cy="43.777" rx="1.269" ry="1.269"/>
                <ellipse cx="12.059" cy="43.777" rx="1.269" ry="1.269"/>
                <ellipse cx="22.848" cy="43.777" rx="1.269" ry="1.269"/>
                <ellipse cx="33.638" cy="43.777" rx="1.269" ry="1.269"/>
                <ellipse cx="43.793" cy="43.777" rx="1.269" ry="1.269"/>
                <ellipse cx="54.582" cy="43.777" rx="1.269" ry="1.269"/>
                <ellipse cx="65.372" cy="43.777" rx="1.269" ry="1.269"/>
                <ellipse cx="76.162" cy="43.777" rx="1.269" ry="1.269"/>
                <ellipse cx="86.951" cy="43.777" rx="1.269" ry="1.269"/>
                <ellipse cx="97.741" cy="43.777" rx="1.269" ry="1.269"/>
                <ellipse cx="1.269" cy="52.659" rx="1.269" ry="1.269"/>
                <ellipse cx="12.059" cy="52.659" rx="1.269" ry="1.269"/>
                <ellipse cx="22.848" cy="52.659" rx="1.269" ry="1.269"/>
                <ellipse cx="33.638" cy="52.659" rx="1.269" ry="1.269"/>
                <ellipse cx="43.793" cy="52.659" rx="1.269" ry="1.269"/>
                <ellipse cx="54.582" cy="52.659" rx="1.269" ry="1.269"/>
                <ellipse cx="65.372" cy="52.659" rx="1.269" ry="1.269"/>
                <ellipse cx="76.162" cy="52.659" rx="1.269" ry="1.269"/>
                <ellipse cx="86.951" cy="52.659" rx="1.269" ry="1.269"/>
                <ellipse cx="97.741" cy="52.659" rx="1.269" ry="1.269"/>
                <ellipse cx="1.269" cy="60.906" rx="1.269" ry="1.269"/>
                <ellipse cx="12.059" cy="60.906" rx="1.269" ry="1.269"/>
                <ellipse cx="22.848" cy="60.906" rx="1.269" ry="1.269"/>
                <ellipse cx="33.638" cy="60.906" rx="1.269" ry="1.269"/>
                <ellipse cx="43.793" cy="60.906" rx="1.269" ry="1.269"/>
                <ellipse cx="54.582" cy="60.906" rx="1.269" ry="1.269"/>
                <ellipse cx="65.372" cy="60.906" rx="1.269" ry="1.269"/>
                <ellipse cx="76.162" cy="60.906" rx="1.269" ry="1.269"/>
                <ellipse cx="86.951" cy="60.906" rx="1.269" ry="1.269"/>
                <ellipse cx="97.741" cy="60.906" rx="1.269" ry="1.269"/>
                <ellipse cx="1.269" cy="69.789" rx="1.269" ry="1.269"/>
                <ellipse cx="12.059" cy="69.789" rx="1.269" ry="1.269"/>
                <ellipse cx="22.848" cy="69.789" rx="1.269" ry="1.269"/>
                <ellipse cx="33.638" cy="69.789" rx="1.269" ry="1.269"/>
                <ellipse cx="43.793" cy="69.789" rx="1.269" ry="1.269"/>
                <ellipse cx="54.582" cy="69.789" rx="1.269" ry="1.269"/>
                <ellipse cx="65.372" cy="69.789" rx="1.269" ry="1.269"/>
                <ellipse cx="76.162" cy="69.789" rx="1.269" ry="1.269"/>
                <ellipse cx="86.951" cy="69.789" rx="1.269" ry="1.269"/>
                <ellipse cx="97.741" cy="69.789" rx="1.269" ry="1.269"/>
                <ellipse cx="1.269" cy="78.036" rx="1.269" ry="1.269"/>
                <ellipse cx="12.059" cy="78.036" rx="1.269" ry="1.269"/>
                <ellipse cx="22.848" cy="78.036" rx="1.269" ry="1.269"/>
                <ellipse cx="33.638" cy="78.036" rx="1.269" ry="1.269"/>
                <ellipse cx="43.793" cy="78.036" rx="1.269" ry="1.269"/>
                <ellipse cx="54.582" cy="78.036" rx="1.269" ry="1.269"/>
                <ellipse cx="65.372" cy="78.036" rx="1.269" ry="1.269"/>
                <ellipse cx="76.162" cy="78.036" rx="1.269" ry="1.269"/>
                <ellipse cx="86.951" cy="78.036" rx="1.269" ry="1.269"/>
                <ellipse cx="97.741" cy="78.036" rx="1.269" ry="1.269"/>
                <ellipse cx="1.269" cy="86.284" rx="1.269" ry="1.269"/>
                <ellipse cx="12.059" cy="86.284" rx="1.269" ry="1.269"/>
                <ellipse cx="22.848" cy="86.284" rx="1.269" ry="1.269"/>
                <ellipse cx="33.638" cy="86.284" rx="1.269" ry="1.269"/>
                <ellipse cx="43.793" cy="86.284" rx="1.269" ry="1.269"/>
                <ellipse cx="54.582" cy="86.284" rx="1.269" ry="1.269"/>
                <ellipse cx="65.372" cy="86.284" rx="1.269" ry="1.269"/>
                <ellipse cx="76.162" cy="86.284" rx="1.269" ry="1.269"/>
                <ellipse cx="86.951" cy="86.284" rx="1.269" ry="1.269"/>
                <ellipse cx="97.741" cy="86.284" rx="1.269" ry="1.269"/>
            </g>
            <g transform="translate(33.368 30.175)">
                <ellipse cx="1.269" cy="1.269" rx="1.269" ry="1.269"/>
                <ellipse cx="12.059" cy="1.269" rx="1.269" ry="1.269"/>
                <ellipse cx="22.848" cy="1.269" rx="1.269" ry="1.269"/>
                <ellipse cx="33.638" cy="1.269" rx="1.269" ry="1.269"/>
                <ellipse cx="43.793" cy="1.269" rx="1.269" ry="1.269"/>
                <ellipse cx="54.582" cy="1.269" rx="1.269" ry="1.269"/>
                <ellipse cx="65.372" cy="1.269" rx="1.269" ry="1.269"/>
                <ellipse cx="76.162" cy="1.269" rx="1.269" ry="1.269"/>
                <ellipse cx="86.951" cy="1.269" rx="1.269" ry="1.269"/>
                <ellipse cx="97.741" cy="1.269" rx="1.269" ry="1.269"/>
                <ellipse cx="1.269" cy="10.151" rx="1.269" ry="1.269"/>
                <ellipse cx="12.059" cy="10.151" rx="1.269" ry="1.269"/>
                <ellipse cx="22.848" cy="10.151" rx="1.269" ry="1.269"/>
                <ellipse cx="33.638" cy="10.151" rx="1.269" ry="1.269"/>
                <ellipse cx="43.793" cy="10.151" rx="1.269" ry="1.269"/>
                <ellipse cx="54.582" cy="10.151" rx="1.269" ry="1.269"/>
                <ellipse cx="65.372" cy="10.151" rx="1.269" ry="1.269"/>
                <ellipse cx="76.162" cy="10.151" rx="1.269" ry="1.269"/>
                <ellipse cx="86.951" cy="10.151" rx="1.269" ry="1.269"/>
                <ellipse cx="97.741" cy="10.151" rx="1.269" ry="1.269"/>
                <ellipse cx="1.269" cy="18.399" rx="1.269" ry="1.269"/>
                <ellipse cx="12.059" cy="18.399" rx="1.269" ry="1.269"/>
                <ellipse cx="22.848" cy="18.399" rx="1.269" ry="1.269"/>
                <ellipse cx="33.638" cy="18.399" rx="1.269" ry="1.269"/>
                <ellipse cx="43.793" cy="18.399" rx="1.269" ry="1.269"/>
                <ellipse cx="54.582" cy="18.399" rx="1.269" ry="1.269"/>
                <ellipse cx="65.372" cy="18.399" rx="1.269" ry="1.269"/>
                <ellipse cx="76.162" cy="18.399" rx="1.269" ry="1.269"/>
                <ellipse cx="86.951" cy="18.399" rx="1.269" ry="1.269"/>
                <ellipse cx="97.741" cy="18.399" rx="1.269" ry="1.269"/>
                <ellipse cx="1.269" cy="26.647" rx="1.269" ry="1.269"/>
                <ellipse cx="12.059" cy="26.647" rx="1.269" ry="1.269"/>
                <ellipse cx="22.848" cy="26.647" rx="1.269" ry="1.269"/>
                <ellipse cx="33.638" cy="26.647" rx="1.269" ry="1.269"/>
                <ellipse cx="43.793" cy="26.647" rx="1.269" ry="1.269"/>
                <ellipse cx="54.582" cy="26.647" rx="1.269" ry="1.269"/>
                <ellipse cx="65.372" cy="26.647" rx="1.269" ry="1.269"/>
                <ellipse cx="76.162" cy="26.647" rx="1.269" ry="1.269"/>
                <ellipse cx="86.951" cy="26.647" rx="1.269" ry="1.269"/>
                <ellipse cx="97.741" cy="26.647" rx="1.269" ry="1.269"/>
                <ellipse cx="1.269" cy="34.894" rx="1.269" ry="1.269"/>
                <ellipse cx="12.059" cy="34.894" rx="1.269" ry="1.269"/>
                <ellipse cx="22.848" cy="34.894" rx="1.269" ry="1.269"/>
                <ellipse cx="33.638" cy="34.894" rx="1.269" ry="1.269"/>
                <ellipse cx="43.793" cy="34.894" rx="1.269" ry="1.269"/>
                <ellipse cx="54.582" cy="34.894" rx="1.269" ry="1.269"/>
                <ellipse cx="65.372" cy="34.894" rx="1.269" ry="1.269"/>
                <ellipse cx="76.162" cy="34.894" rx="1.269" ry="1.269"/>
                <ellipse cx="86.951" cy="34.894" rx="1.269" ry="1.269"/>
                <ellipse cx="97.741" cy="34.894" rx="1.269" ry="1.269"/>
                <ellipse cx="1.269" cy="43.777" rx="1.269" ry="1.269"/>
                <ellipse cx="12.059" cy="43.777" rx="1.269" ry="1.269"/>
                <ellipse cx="22.848" cy="43.777" rx="1.269" ry="1.269"/>
                <ellipse cx="33.638" cy="43.777" rx="1.269" ry="1.269"/>
                <ellipse cx="43.793" cy="43.777" rx="1.269" ry="1.269"/>
                <ellipse cx="54.582" cy="43.777" rx="1.269" ry="1.269"/>
                <ellipse cx="65.372" cy="43.777" rx="1.269" ry="1.269"/>
                <ellipse cx="76.162" cy="43.777" rx="1.269" ry="1.269"/>
                <ellipse cx="86.951" cy="43.777" rx="1.269" ry="1.269"/>
                <ellipse cx="97.741" cy="43.777" rx="1.269" ry="1.269"/>
                <ellipse cx="1.269" cy="52.659" rx="1.269" ry="1.269"/>
                <ellipse cx="12.059" cy="52.659" rx="1.269" ry="1.269"/>
                <ellipse cx="22.848" cy="52.659" rx="1.269" ry="1.269"/>
                <ellipse cx="33.638" cy="52.659" rx="1.269" ry="1.269"/>
                <ellipse cx="43.793" cy="52.659" rx="1.269" ry="1.269"/>
                <ellipse cx="54.582" cy="52.659" rx="1.269" ry="1.269"/>
                <ellipse cx="65.372" cy="52.659" rx="1.269" ry="1.269"/>
                <ellipse cx="76.162" cy="52.659" rx="1.269" ry="1.269"/>
                <ellipse cx="86.951" cy="52.659" rx="1.269" ry="1.269"/>
                <ellipse cx="97.741" cy="52.659" rx="1.269" ry="1.269"/>
                <ellipse cx="1.269" cy="60.906" rx="1.269" ry="1.269"/>
                <ellipse cx="12.059" cy="60.906" rx="1.269" ry="1.269"/>
                <ellipse cx="22.848" cy="60.906" rx="1.269" ry="1.269"/>
                <ellipse cx="33.638" cy="60.906" rx="1.269" ry="1.269"/>
                <ellipse cx="43.793" cy="60.906" rx="1.269" ry="1.269"/>
                <ellipse cx="54.582" cy="60.906" rx="1.269" ry="1.269"/>
                <ellipse cx="65.372" cy="60.906" rx="1.269" ry="1.269"/>
                <ellipse cx="76.162" cy="60.906" rx="1.269" ry="1.269"/>
                <ellipse cx="86.951" cy="60.906" rx="1.269" ry="1.269"/>
                <ellipse cx="97.741" cy="60.906" rx="1.269" ry="1.269"/>
                <ellipse cx="1.269" cy="69.789" rx="1.269" ry="1.269"/>
                <ellipse cx="12.059" cy="69.789" rx="1.269" ry="1.269"/>
                <ellipse cx="22.848" cy="69.789" rx="1.269" ry="1.269"/>
                <ellipse cx="33.638" cy="69.789" rx="1.269" ry="1.269"/>
                <ellipse cx="43.793" cy="69.789" rx="1.269" ry="1.269"/>
                <ellipse cx="54.582" cy="69.789" rx="1.269" ry="1.269"/>
                <ellipse cx="65.372" cy="69.789" rx="1.269" ry="1.269"/>
                <ellipse cx="76.162" cy="69.789" rx="1.269" ry="1.269"/>
                <ellipse cx="86.951" cy="69.789" rx="1.269" ry="1.269"/>
                <ellipse cx="97.741" cy="69.789" rx="1.269" ry="1.269"/>
                <ellipse cx="1.269" cy="78.036" rx="1.269" ry="1.269"/>
                <ellipse cx="12.059" cy="78.036" rx="1.269" ry="1.269"/>
                <ellipse cx="22.848" cy="78.036" rx="1.269" ry="1.269"/>
                <ellipse cx="33.638" cy="78.036" rx="1.269" ry="1.269"/>
                <ellipse cx="43.793" cy="78.036" rx="1.269" ry="1.269"/>
                <ellipse cx="54.582" cy="78.036" rx="1.269" ry="1.269"/>
                <ellipse cx="65.372" cy="78.036" rx="1.269" ry="1.269"/>
                <ellipse cx="76.162" cy="78.036" rx="1.269" ry="1.269"/>
                <ellipse cx="86.951" cy="78.036" rx="1.269" ry="1.269"/>
                <ellipse cx="97.741" cy="78.036" rx="1.269" ry="1.269"/>
                <ellipse cx="1.269" cy="86.284" rx="1.269" ry="1.269"/>
                <ellipse cx="12.059" cy="86.284" rx="1.269" ry="1.269"/>
                <ellipse cx="22.848" cy="86.284" rx="1.269" ry="1.269"/>
                <ellipse cx="33.638" cy="86.284" rx="1.269" ry="1.269"/>
                <ellipse cx="43.793" cy="86.284" rx="1.269" ry="1.269"/>
                <ellipse cx="54.582" cy="86.284" rx="1.269" ry="1.269"/>
                <ellipse cx="65.372" cy="86.284" rx="1.269" ry="1.269"/>
                <ellipse cx="76.162" cy="86.284" rx="1.269" ry="1.269"/>
                <ellipse cx="86.951" cy="86.284" rx="1.269" ry="1.269"/>
                <ellipse cx="97.741" cy="86.284" rx="1.269" ry="1.269"/>
            </g>
        </g>
    </g>
</svg>
