<svg xmlns="http://www.w3.org/2000/svg" width="276" height="237" viewBox="0 0 276 237">
    <g fill="none" fill-rule="nonzero">
        <path fill="#EEE" d="M0 182h137.993C214.195 182 275.976 120.67 276 45H69.004c-18.31-.042-35.88 7.16-48.83 20.013C7.225 77.866-.034 95.313 0 113.493V182z"/>
        <g fill="#FFC916">
            <g transform="translate(160.106 80.721)">
                <ellipse cx="1.086" cy="1.088" rx="1.086" ry="1.088"/>
                <ellipse cx="10.32" cy="1.088" rx="1.086" ry="1.088"/>
                <ellipse cx="19.553" cy="1.088" rx="1.086" ry="1.088"/>
                <ellipse cx="28.786" cy="1.088" rx="1.086" ry="1.088"/>
                <ellipse cx="37.477" cy="1.088" rx="1.086" ry="1.088"/>
                <ellipse cx="46.71" cy="1.088" rx="1.086" ry="1.088"/>
                <ellipse cx="55.943" cy="1.088" rx="1.086" ry="1.088"/>
                <ellipse cx="65.177" cy="1.088" rx="1.086" ry="1.088"/>
                <ellipse cx="74.41" cy="1.088" rx="1.086" ry="1.088"/>
                <ellipse cx="83.643" cy="1.088" rx="1.086" ry="1.088"/>
                <ellipse cx="1.086" cy="8.701" rx="1.086" ry="1.088"/>
                <ellipse cx="10.32" cy="8.701" rx="1.086" ry="1.088"/>
                <ellipse cx="19.553" cy="8.701" rx="1.086" ry="1.088"/>
                <ellipse cx="28.786" cy="8.701" rx="1.086" ry="1.088"/>
                <ellipse cx="37.477" cy="8.701" rx="1.086" ry="1.088"/>
                <ellipse cx="46.71" cy="8.701" rx="1.086" ry="1.088"/>
                <ellipse cx="55.943" cy="8.701" rx="1.086" ry="1.088"/>
                <ellipse cx="65.177" cy="8.701" rx="1.086" ry="1.088"/>
                <ellipse cx="74.41" cy="8.701" rx="1.086" ry="1.088"/>
                <ellipse cx="83.643" cy="8.701" rx="1.086" ry="1.088"/>
                <ellipse cx="1.086" cy="15.77" rx="1.086" ry="1.088"/>
                <ellipse cx="10.32" cy="15.77" rx="1.086" ry="1.088"/>
                <ellipse cx="19.553" cy="15.77" rx="1.086" ry="1.088"/>
                <ellipse cx="28.786" cy="15.77" rx="1.086" ry="1.088"/>
                <ellipse cx="37.477" cy="15.77" rx="1.086" ry="1.088"/>
                <ellipse cx="46.71" cy="15.77" rx="1.086" ry="1.088"/>
                <ellipse cx="55.943" cy="15.77" rx="1.086" ry="1.088"/>
                <ellipse cx="65.177" cy="15.77" rx="1.086" ry="1.088"/>
                <ellipse cx="74.41" cy="15.77" rx="1.086" ry="1.088"/>
                <ellipse cx="83.643" cy="15.77" rx="1.086" ry="1.088"/>
                <ellipse cx="1.086" cy="22.84" rx="1.086" ry="1.088"/>
                <ellipse cx="10.32" cy="22.84" rx="1.086" ry="1.088"/>
                <ellipse cx="19.553" cy="22.84" rx="1.086" ry="1.088"/>
                <ellipse cx="28.786" cy="22.84" rx="1.086" ry="1.088"/>
                <ellipse cx="37.477" cy="22.84" rx="1.086" ry="1.088"/>
                <ellipse cx="46.71" cy="22.84" rx="1.086" ry="1.088"/>
                <ellipse cx="55.943" cy="22.84" rx="1.086" ry="1.088"/>
                <ellipse cx="65.177" cy="22.84" rx="1.086" ry="1.088"/>
                <ellipse cx="74.41" cy="22.84" rx="1.086" ry="1.088"/>
                <ellipse cx="83.643" cy="22.84" rx="1.086" ry="1.088"/>
                <ellipse cx="1.086" cy="29.909" rx="1.086" ry="1.088"/>
                <ellipse cx="10.32" cy="29.909" rx="1.086" ry="1.088"/>
                <ellipse cx="19.553" cy="29.909" rx="1.086" ry="1.088"/>
                <ellipse cx="28.786" cy="29.909" rx="1.086" ry="1.088"/>
                <ellipse cx="37.477" cy="29.909" rx="1.086" ry="1.088"/>
                <ellipse cx="46.71" cy="29.909" rx="1.086" ry="1.088"/>
                <ellipse cx="55.943" cy="29.909" rx="1.086" ry="1.088"/>
                <ellipse cx="65.177" cy="29.909" rx="1.086" ry="1.088"/>
                <ellipse cx="74.41" cy="29.909" rx="1.086" ry="1.088"/>
                <ellipse cx="83.643" cy="29.909" rx="1.086" ry="1.088"/>
                <ellipse cx="1.086" cy="37.523" rx="1.086" ry="1.088"/>
                <ellipse cx="10.32" cy="37.523" rx="1.086" ry="1.088"/>
                <ellipse cx="19.553" cy="37.523" rx="1.086" ry="1.088"/>
                <ellipse cx="28.786" cy="37.523" rx="1.086" ry="1.088"/>
                <ellipse cx="37.477" cy="37.523" rx="1.086" ry="1.088"/>
                <ellipse cx="46.71" cy="37.523" rx="1.086" ry="1.088"/>
                <ellipse cx="55.943" cy="37.523" rx="1.086" ry="1.088"/>
                <ellipse cx="65.177" cy="37.523" rx="1.086" ry="1.088"/>
                <ellipse cx="74.41" cy="37.523" rx="1.086" ry="1.088"/>
                <ellipse cx="83.643" cy="37.523" rx="1.086" ry="1.088"/>
                <ellipse cx="1.086" cy="45.136" rx="1.086" ry="1.088"/>
                <ellipse cx="10.32" cy="45.136" rx="1.086" ry="1.088"/>
                <ellipse cx="19.553" cy="45.136" rx="1.086" ry="1.088"/>
                <ellipse cx="28.786" cy="45.136" rx="1.086" ry="1.088"/>
                <ellipse cx="37.477" cy="45.136" rx="1.086" ry="1.088"/>
                <ellipse cx="46.71" cy="45.136" rx="1.086" ry="1.088"/>
                <ellipse cx="55.943" cy="45.136" rx="1.086" ry="1.088"/>
                <ellipse cx="65.177" cy="45.136" rx="1.086" ry="1.088"/>
                <ellipse cx="74.41" cy="45.136" rx="1.086" ry="1.088"/>
                <ellipse cx="83.643" cy="45.136" rx="1.086" ry="1.088"/>
                <ellipse cx="1.086" cy="52.206" rx="1.086" ry="1.088"/>
                <ellipse cx="10.32" cy="52.206" rx="1.086" ry="1.088"/>
                <ellipse cx="19.553" cy="52.206" rx="1.086" ry="1.088"/>
                <ellipse cx="28.786" cy="52.206" rx="1.086" ry="1.088"/>
                <ellipse cx="37.477" cy="52.206" rx="1.086" ry="1.088"/>
                <ellipse cx="46.71" cy="52.206" rx="1.086" ry="1.088"/>
                <ellipse cx="55.943" cy="52.206" rx="1.086" ry="1.088"/>
                <ellipse cx="65.177" cy="52.206" rx="1.086" ry="1.088"/>
                <ellipse cx="74.41" cy="52.206" rx="1.086" ry="1.088"/>
                <ellipse cx="83.643" cy="52.206" rx="1.086" ry="1.088"/>
                <ellipse cx="1.086" cy="59.819" rx="1.086" ry="1.088"/>
                <ellipse cx="10.32" cy="59.819" rx="1.086" ry="1.088"/>
                <ellipse cx="19.553" cy="59.819" rx="1.086" ry="1.088"/>
                <ellipse cx="28.786" cy="59.819" rx="1.086" ry="1.088"/>
                <ellipse cx="37.477" cy="59.819" rx="1.086" ry="1.088"/>
                <ellipse cx="46.71" cy="59.819" rx="1.086" ry="1.088"/>
                <ellipse cx="55.943" cy="59.819" rx="1.086" ry="1.088"/>
                <ellipse cx="65.177" cy="59.819" rx="1.086" ry="1.088"/>
                <ellipse cx="74.41" cy="59.819" rx="1.086" ry="1.088"/>
                <ellipse cx="83.643" cy="59.819" rx="1.086" ry="1.088"/>
                <ellipse cx="1.086" cy="66.888" rx="1.086" ry="1.088"/>
                <ellipse cx="10.32" cy="66.888" rx="1.086" ry="1.088"/>
                <ellipse cx="19.553" cy="66.888" rx="1.086" ry="1.088"/>
                <ellipse cx="28.786" cy="66.888" rx="1.086" ry="1.088"/>
                <ellipse cx="37.477" cy="66.888" rx="1.086" ry="1.088"/>
                <ellipse cx="46.71" cy="66.888" rx="1.086" ry="1.088"/>
                <ellipse cx="55.943" cy="66.888" rx="1.086" ry="1.088"/>
                <ellipse cx="65.177" cy="66.888" rx="1.086" ry="1.088"/>
                <ellipse cx="74.41" cy="66.888" rx="1.086" ry="1.088"/>
                <ellipse cx="83.643" cy="66.888" rx="1.086" ry="1.088"/>
                <ellipse cx="1.086" cy="73.958" rx="1.086" ry="1.088"/>
                <ellipse cx="10.32" cy="73.958" rx="1.086" ry="1.088"/>
                <ellipse cx="19.553" cy="73.958" rx="1.086" ry="1.088"/>
                <ellipse cx="28.786" cy="73.958" rx="1.086" ry="1.088"/>
                <ellipse cx="37.477" cy="73.958" rx="1.086" ry="1.088"/>
                <ellipse cx="46.71" cy="73.958" rx="1.086" ry="1.088"/>
                <ellipse cx="55.943" cy="73.958" rx="1.086" ry="1.088"/>
                <ellipse cx="65.177" cy="73.958" rx="1.086" ry="1.088"/>
                <ellipse cx="74.41" cy="73.958" rx="1.086" ry="1.088"/>
                <ellipse cx="83.643" cy="73.958" rx="1.086" ry="1.088"/>
            </g>
            <g transform="translate(68.315 80.721)">
                <ellipse cx="1.086" cy="1.088" rx="1.086" ry="1.088"/>
                <ellipse cx="10.32" cy="1.088" rx="1.086" ry="1.088"/>
                <ellipse cx="19.553" cy="1.088" rx="1.086" ry="1.088"/>
                <ellipse cx="28.786" cy="1.088" rx="1.086" ry="1.088"/>
                <ellipse cx="37.477" cy="1.088" rx="1.086" ry="1.088"/>
                <ellipse cx="46.71" cy="1.088" rx="1.086" ry="1.088"/>
                <ellipse cx="55.943" cy="1.088" rx="1.086" ry="1.088"/>
                <ellipse cx="65.177" cy="1.088" rx="1.086" ry="1.088"/>
                <ellipse cx="74.41" cy="1.088" rx="1.086" ry="1.088"/>
                <ellipse cx="83.643" cy="1.088" rx="1.086" ry="1.088"/>
                <ellipse cx="1.086" cy="8.701" rx="1.086" ry="1.088"/>
                <ellipse cx="10.32" cy="8.701" rx="1.086" ry="1.088"/>
                <ellipse cx="19.553" cy="8.701" rx="1.086" ry="1.088"/>
                <ellipse cx="28.786" cy="8.701" rx="1.086" ry="1.088"/>
                <ellipse cx="37.477" cy="8.701" rx="1.086" ry="1.088"/>
                <ellipse cx="46.71" cy="8.701" rx="1.086" ry="1.088"/>
                <ellipse cx="55.943" cy="8.701" rx="1.086" ry="1.088"/>
                <ellipse cx="65.177" cy="8.701" rx="1.086" ry="1.088"/>
                <ellipse cx="74.41" cy="8.701" rx="1.086" ry="1.088"/>
                <ellipse cx="83.643" cy="8.701" rx="1.086" ry="1.088"/>
                <ellipse cx="1.086" cy="15.77" rx="1.086" ry="1.088"/>
                <ellipse cx="10.32" cy="15.77" rx="1.086" ry="1.088"/>
                <ellipse cx="19.553" cy="15.77" rx="1.086" ry="1.088"/>
                <ellipse cx="28.786" cy="15.77" rx="1.086" ry="1.088"/>
                <ellipse cx="37.477" cy="15.77" rx="1.086" ry="1.088"/>
                <ellipse cx="46.71" cy="15.77" rx="1.086" ry="1.088"/>
                <ellipse cx="55.943" cy="15.77" rx="1.086" ry="1.088"/>
                <ellipse cx="65.177" cy="15.77" rx="1.086" ry="1.088"/>
                <ellipse cx="74.41" cy="15.77" rx="1.086" ry="1.088"/>
                <ellipse cx="83.643" cy="15.77" rx="1.086" ry="1.088"/>
                <ellipse cx="1.086" cy="22.84" rx="1.086" ry="1.088"/>
                <ellipse cx="10.32" cy="22.84" rx="1.086" ry="1.088"/>
                <ellipse cx="19.553" cy="22.84" rx="1.086" ry="1.088"/>
                <ellipse cx="28.786" cy="22.84" rx="1.086" ry="1.088"/>
                <ellipse cx="37.477" cy="22.84" rx="1.086" ry="1.088"/>
                <ellipse cx="46.71" cy="22.84" rx="1.086" ry="1.088"/>
                <ellipse cx="55.943" cy="22.84" rx="1.086" ry="1.088"/>
                <ellipse cx="65.177" cy="22.84" rx="1.086" ry="1.088"/>
                <ellipse cx="74.41" cy="22.84" rx="1.086" ry="1.088"/>
                <ellipse cx="83.643" cy="22.84" rx="1.086" ry="1.088"/>
                <ellipse cx="1.086" cy="29.909" rx="1.086" ry="1.088"/>
                <ellipse cx="10.32" cy="29.909" rx="1.086" ry="1.088"/>
                <ellipse cx="19.553" cy="29.909" rx="1.086" ry="1.088"/>
                <ellipse cx="28.786" cy="29.909" rx="1.086" ry="1.088"/>
                <ellipse cx="37.477" cy="29.909" rx="1.086" ry="1.088"/>
                <ellipse cx="46.71" cy="29.909" rx="1.086" ry="1.088"/>
                <ellipse cx="55.943" cy="29.909" rx="1.086" ry="1.088"/>
                <ellipse cx="65.177" cy="29.909" rx="1.086" ry="1.088"/>
                <ellipse cx="74.41" cy="29.909" rx="1.086" ry="1.088"/>
                <ellipse cx="83.643" cy="29.909" rx="1.086" ry="1.088"/>
                <ellipse cx="1.086" cy="37.523" rx="1.086" ry="1.088"/>
                <ellipse cx="10.32" cy="37.523" rx="1.086" ry="1.088"/>
                <ellipse cx="19.553" cy="37.523" rx="1.086" ry="1.088"/>
                <ellipse cx="28.786" cy="37.523" rx="1.086" ry="1.088"/>
                <ellipse cx="37.477" cy="37.523" rx="1.086" ry="1.088"/>
                <ellipse cx="46.71" cy="37.523" rx="1.086" ry="1.088"/>
                <ellipse cx="55.943" cy="37.523" rx="1.086" ry="1.088"/>
                <ellipse cx="65.177" cy="37.523" rx="1.086" ry="1.088"/>
                <ellipse cx="74.41" cy="37.523" rx="1.086" ry="1.088"/>
                <ellipse cx="83.643" cy="37.523" rx="1.086" ry="1.088"/>
                <ellipse cx="1.086" cy="45.136" rx="1.086" ry="1.088"/>
                <ellipse cx="10.32" cy="45.136" rx="1.086" ry="1.088"/>
                <ellipse cx="19.553" cy="45.136" rx="1.086" ry="1.088"/>
                <ellipse cx="28.786" cy="45.136" rx="1.086" ry="1.088"/>
                <ellipse cx="37.477" cy="45.136" rx="1.086" ry="1.088"/>
                <ellipse cx="46.71" cy="45.136" rx="1.086" ry="1.088"/>
                <ellipse cx="55.943" cy="45.136" rx="1.086" ry="1.088"/>
                <ellipse cx="65.177" cy="45.136" rx="1.086" ry="1.088"/>
                <ellipse cx="74.41" cy="45.136" rx="1.086" ry="1.088"/>
                <ellipse cx="83.643" cy="45.136" rx="1.086" ry="1.088"/>
                <ellipse cx="1.086" cy="52.206" rx="1.086" ry="1.088"/>
                <ellipse cx="10.32" cy="52.206" rx="1.086" ry="1.088"/>
                <ellipse cx="19.553" cy="52.206" rx="1.086" ry="1.088"/>
                <ellipse cx="28.786" cy="52.206" rx="1.086" ry="1.088"/>
                <ellipse cx="37.477" cy="52.206" rx="1.086" ry="1.088"/>
                <ellipse cx="46.71" cy="52.206" rx="1.086" ry="1.088"/>
                <ellipse cx="55.943" cy="52.206" rx="1.086" ry="1.088"/>
                <ellipse cx="65.177" cy="52.206" rx="1.086" ry="1.088"/>
                <ellipse cx="74.41" cy="52.206" rx="1.086" ry="1.088"/>
                <ellipse cx="83.643" cy="52.206" rx="1.086" ry="1.088"/>
                <ellipse cx="1.086" cy="59.819" rx="1.086" ry="1.088"/>
                <ellipse cx="10.32" cy="59.819" rx="1.086" ry="1.088"/>
                <ellipse cx="19.553" cy="59.819" rx="1.086" ry="1.088"/>
                <ellipse cx="28.786" cy="59.819" rx="1.086" ry="1.088"/>
                <ellipse cx="37.477" cy="59.819" rx="1.086" ry="1.088"/>
                <ellipse cx="46.71" cy="59.819" rx="1.086" ry="1.088"/>
                <ellipse cx="55.943" cy="59.819" rx="1.086" ry="1.088"/>
                <ellipse cx="65.177" cy="59.819" rx="1.086" ry="1.088"/>
                <ellipse cx="74.41" cy="59.819" rx="1.086" ry="1.088"/>
                <ellipse cx="83.643" cy="59.819" rx="1.086" ry="1.088"/>
                <ellipse cx="1.086" cy="66.888" rx="1.086" ry="1.088"/>
                <ellipse cx="10.32" cy="66.888" rx="1.086" ry="1.088"/>
                <ellipse cx="19.553" cy="66.888" rx="1.086" ry="1.088"/>
                <ellipse cx="28.786" cy="66.888" rx="1.086" ry="1.088"/>
                <ellipse cx="37.477" cy="66.888" rx="1.086" ry="1.088"/>
                <ellipse cx="46.71" cy="66.888" rx="1.086" ry="1.088"/>
                <ellipse cx="55.943" cy="66.888" rx="1.086" ry="1.088"/>
                <ellipse cx="65.177" cy="66.888" rx="1.086" ry="1.088"/>
                <ellipse cx="74.41" cy="66.888" rx="1.086" ry="1.088"/>
                <ellipse cx="83.643" cy="66.888" rx="1.086" ry="1.088"/>
                <ellipse cx="1.086" cy="73.958" rx="1.086" ry="1.088"/>
                <ellipse cx="10.32" cy="73.958" rx="1.086" ry="1.088"/>
                <ellipse cx="19.553" cy="73.958" rx="1.086" ry="1.088"/>
                <ellipse cx="28.786" cy="73.958" rx="1.086" ry="1.088"/>
                <ellipse cx="37.477" cy="73.958" rx="1.086" ry="1.088"/>
                <ellipse cx="46.71" cy="73.958" rx="1.086" ry="1.088"/>
                <ellipse cx="55.943" cy="73.958" rx="1.086" ry="1.088"/>
                <ellipse cx="65.177" cy="73.958" rx="1.086" ry="1.088"/>
                <ellipse cx="74.41" cy="73.958" rx="1.086" ry="1.088"/>
                <ellipse cx="83.643" cy="73.958" rx="1.086" ry="1.088"/>
            </g>
            <g transform="translate(160.106 161)">
                <ellipse cx="1.086" cy="1.088" rx="1.086" ry="1.088"/>
                <ellipse cx="10.32" cy="1.088" rx="1.086" ry="1.088"/>
                <ellipse cx="19.553" cy="1.088" rx="1.086" ry="1.088"/>
                <ellipse cx="28.786" cy="1.088" rx="1.086" ry="1.088"/>
                <ellipse cx="37.477" cy="1.088" rx="1.086" ry="1.088"/>
                <ellipse cx="46.71" cy="1.088" rx="1.086" ry="1.088"/>
                <ellipse cx="55.943" cy="1.088" rx="1.086" ry="1.088"/>
                <ellipse cx="65.177" cy="1.088" rx="1.086" ry="1.088"/>
                <ellipse cx="74.41" cy="1.088" rx="1.086" ry="1.088"/>
                <ellipse cx="83.643" cy="1.088" rx="1.086" ry="1.088"/>
                <ellipse cx="1.086" cy="8.701" rx="1.086" ry="1.088"/>
                <ellipse cx="10.32" cy="8.701" rx="1.086" ry="1.088"/>
                <ellipse cx="19.553" cy="8.701" rx="1.086" ry="1.088"/>
                <ellipse cx="28.786" cy="8.701" rx="1.086" ry="1.088"/>
                <ellipse cx="37.477" cy="8.701" rx="1.086" ry="1.088"/>
                <ellipse cx="46.71" cy="8.701" rx="1.086" ry="1.088"/>
                <ellipse cx="55.943" cy="8.701" rx="1.086" ry="1.088"/>
                <ellipse cx="65.177" cy="8.701" rx="1.086" ry="1.088"/>
                <ellipse cx="74.41" cy="8.701" rx="1.086" ry="1.088"/>
                <ellipse cx="83.643" cy="8.701" rx="1.086" ry="1.088"/>
                <ellipse cx="1.086" cy="15.77" rx="1.086" ry="1.088"/>
                <ellipse cx="10.32" cy="15.77" rx="1.086" ry="1.088"/>
                <ellipse cx="19.553" cy="15.77" rx="1.086" ry="1.088"/>
                <ellipse cx="28.786" cy="15.77" rx="1.086" ry="1.088"/>
                <ellipse cx="37.477" cy="15.77" rx="1.086" ry="1.088"/>
                <ellipse cx="46.71" cy="15.77" rx="1.086" ry="1.088"/>
                <ellipse cx="55.943" cy="15.77" rx="1.086" ry="1.088"/>
                <ellipse cx="65.177" cy="15.77" rx="1.086" ry="1.088"/>
                <ellipse cx="74.41" cy="15.77" rx="1.086" ry="1.088"/>
                <ellipse cx="83.643" cy="15.77" rx="1.086" ry="1.088"/>
                <ellipse cx="1.086" cy="22.84" rx="1.086" ry="1.088"/>
                <ellipse cx="10.32" cy="22.84" rx="1.086" ry="1.088"/>
                <ellipse cx="19.553" cy="22.84" rx="1.086" ry="1.088"/>
                <ellipse cx="28.786" cy="22.84" rx="1.086" ry="1.088"/>
                <ellipse cx="37.477" cy="22.84" rx="1.086" ry="1.088"/>
                <ellipse cx="46.71" cy="22.84" rx="1.086" ry="1.088"/>
                <ellipse cx="55.943" cy="22.84" rx="1.086" ry="1.088"/>
                <ellipse cx="65.177" cy="22.84" rx="1.086" ry="1.088"/>
                <ellipse cx="74.41" cy="22.84" rx="1.086" ry="1.088"/>
                <ellipse cx="83.643" cy="22.84" rx="1.086" ry="1.088"/>
                <ellipse cx="1.086" cy="29.909" rx="1.086" ry="1.088"/>
                <ellipse cx="10.32" cy="29.909" rx="1.086" ry="1.088"/>
                <ellipse cx="19.553" cy="29.909" rx="1.086" ry="1.088"/>
                <ellipse cx="28.786" cy="29.909" rx="1.086" ry="1.088"/>
                <ellipse cx="37.477" cy="29.909" rx="1.086" ry="1.088"/>
                <ellipse cx="46.71" cy="29.909" rx="1.086" ry="1.088"/>
                <ellipse cx="55.943" cy="29.909" rx="1.086" ry="1.088"/>
                <ellipse cx="65.177" cy="29.909" rx="1.086" ry="1.088"/>
                <ellipse cx="74.41" cy="29.909" rx="1.086" ry="1.088"/>
                <ellipse cx="83.643" cy="29.909" rx="1.086" ry="1.088"/>
                <ellipse cx="1.086" cy="37.523" rx="1.086" ry="1.088"/>
                <ellipse cx="10.32" cy="37.523" rx="1.086" ry="1.088"/>
                <ellipse cx="19.553" cy="37.523" rx="1.086" ry="1.088"/>
                <ellipse cx="28.786" cy="37.523" rx="1.086" ry="1.088"/>
                <ellipse cx="37.477" cy="37.523" rx="1.086" ry="1.088"/>
                <ellipse cx="46.71" cy="37.523" rx="1.086" ry="1.088"/>
                <ellipse cx="55.943" cy="37.523" rx="1.086" ry="1.088"/>
                <ellipse cx="65.177" cy="37.523" rx="1.086" ry="1.088"/>
                <ellipse cx="74.41" cy="37.523" rx="1.086" ry="1.088"/>
                <ellipse cx="83.643" cy="37.523" rx="1.086" ry="1.088"/>
                <ellipse cx="1.086" cy="45.136" rx="1.086" ry="1.088"/>
                <ellipse cx="10.32" cy="45.136" rx="1.086" ry="1.088"/>
                <ellipse cx="19.553" cy="45.136" rx="1.086" ry="1.088"/>
                <ellipse cx="28.786" cy="45.136" rx="1.086" ry="1.088"/>
                <ellipse cx="37.477" cy="45.136" rx="1.086" ry="1.088"/>
                <ellipse cx="46.71" cy="45.136" rx="1.086" ry="1.088"/>
                <ellipse cx="55.943" cy="45.136" rx="1.086" ry="1.088"/>
                <ellipse cx="65.177" cy="45.136" rx="1.086" ry="1.088"/>
                <ellipse cx="74.41" cy="45.136" rx="1.086" ry="1.088"/>
                <ellipse cx="83.643" cy="45.136" rx="1.086" ry="1.088"/>
                <ellipse cx="1.086" cy="52.206" rx="1.086" ry="1.088"/>
                <ellipse cx="10.32" cy="52.206" rx="1.086" ry="1.088"/>
                <ellipse cx="19.553" cy="52.206" rx="1.086" ry="1.088"/>
                <ellipse cx="28.786" cy="52.206" rx="1.086" ry="1.088"/>
                <ellipse cx="37.477" cy="52.206" rx="1.086" ry="1.088"/>
                <ellipse cx="46.71" cy="52.206" rx="1.086" ry="1.088"/>
                <ellipse cx="55.943" cy="52.206" rx="1.086" ry="1.088"/>
                <ellipse cx="65.177" cy="52.206" rx="1.086" ry="1.088"/>
                <ellipse cx="74.41" cy="52.206" rx="1.086" ry="1.088"/>
                <ellipse cx="83.643" cy="52.206" rx="1.086" ry="1.088"/>
                <ellipse cx="1.086" cy="59.819" rx="1.086" ry="1.088"/>
                <ellipse cx="10.32" cy="59.819" rx="1.086" ry="1.088"/>
                <ellipse cx="19.553" cy="59.819" rx="1.086" ry="1.088"/>
                <ellipse cx="28.786" cy="59.819" rx="1.086" ry="1.088"/>
                <ellipse cx="37.477" cy="59.819" rx="1.086" ry="1.088"/>
                <ellipse cx="46.71" cy="59.819" rx="1.086" ry="1.088"/>
                <ellipse cx="55.943" cy="59.819" rx="1.086" ry="1.088"/>
                <ellipse cx="65.177" cy="59.819" rx="1.086" ry="1.088"/>
                <ellipse cx="74.41" cy="59.819" rx="1.086" ry="1.088"/>
                <ellipse cx="83.643" cy="59.819" rx="1.086" ry="1.088"/>
                <ellipse cx="1.086" cy="66.888" rx="1.086" ry="1.088"/>
                <ellipse cx="10.32" cy="66.888" rx="1.086" ry="1.088"/>
                <ellipse cx="19.553" cy="66.888" rx="1.086" ry="1.088"/>
                <ellipse cx="28.786" cy="66.888" rx="1.086" ry="1.088"/>
                <ellipse cx="37.477" cy="66.888" rx="1.086" ry="1.088"/>
                <ellipse cx="46.71" cy="66.888" rx="1.086" ry="1.088"/>
                <ellipse cx="55.943" cy="66.888" rx="1.086" ry="1.088"/>
                <ellipse cx="65.177" cy="66.888" rx="1.086" ry="1.088"/>
                <ellipse cx="74.41" cy="66.888" rx="1.086" ry="1.088"/>
                <ellipse cx="83.643" cy="66.888" rx="1.086" ry="1.088"/>
                <ellipse cx="1.086" cy="73.958" rx="1.086" ry="1.088"/>
                <ellipse cx="10.32" cy="73.958" rx="1.086" ry="1.088"/>
                <ellipse cx="19.553" cy="73.958" rx="1.086" ry="1.088"/>
                <ellipse cx="28.786" cy="73.958" rx="1.086" ry="1.088"/>
                <ellipse cx="37.477" cy="73.958" rx="1.086" ry="1.088"/>
                <ellipse cx="46.71" cy="73.958" rx="1.086" ry="1.088"/>
                <ellipse cx="55.943" cy="73.958" rx="1.086" ry="1.088"/>
                <ellipse cx="65.177" cy="73.958" rx="1.086" ry="1.088"/>
                <ellipse cx="74.41" cy="73.958" rx="1.086" ry="1.088"/>
                <ellipse cx="83.643" cy="73.958" rx="1.086" ry="1.088"/>
            </g>
            <g transform="translate(68.315 161)">
                <ellipse cx="1.086" cy="1.088" rx="1.086" ry="1.088"/>
                <ellipse cx="10.32" cy="1.088" rx="1.086" ry="1.088"/>
                <ellipse cx="19.553" cy="1.088" rx="1.086" ry="1.088"/>
                <ellipse cx="28.786" cy="1.088" rx="1.086" ry="1.088"/>
                <ellipse cx="37.477" cy="1.088" rx="1.086" ry="1.088"/>
                <ellipse cx="46.71" cy="1.088" rx="1.086" ry="1.088"/>
                <ellipse cx="55.943" cy="1.088" rx="1.086" ry="1.088"/>
                <ellipse cx="65.177" cy="1.088" rx="1.086" ry="1.088"/>
                <ellipse cx="74.41" cy="1.088" rx="1.086" ry="1.088"/>
                <ellipse cx="83.643" cy="1.088" rx="1.086" ry="1.088"/>
                <ellipse cx="1.086" cy="8.701" rx="1.086" ry="1.088"/>
                <ellipse cx="10.32" cy="8.701" rx="1.086" ry="1.088"/>
                <ellipse cx="19.553" cy="8.701" rx="1.086" ry="1.088"/>
                <ellipse cx="28.786" cy="8.701" rx="1.086" ry="1.088"/>
                <ellipse cx="37.477" cy="8.701" rx="1.086" ry="1.088"/>
                <ellipse cx="46.71" cy="8.701" rx="1.086" ry="1.088"/>
                <ellipse cx="55.943" cy="8.701" rx="1.086" ry="1.088"/>
                <ellipse cx="65.177" cy="8.701" rx="1.086" ry="1.088"/>
                <ellipse cx="74.41" cy="8.701" rx="1.086" ry="1.088"/>
                <ellipse cx="83.643" cy="8.701" rx="1.086" ry="1.088"/>
                <ellipse cx="1.086" cy="15.77" rx="1.086" ry="1.088"/>
                <ellipse cx="10.32" cy="15.77" rx="1.086" ry="1.088"/>
                <ellipse cx="19.553" cy="15.77" rx="1.086" ry="1.088"/>
                <ellipse cx="28.786" cy="15.77" rx="1.086" ry="1.088"/>
                <ellipse cx="37.477" cy="15.77" rx="1.086" ry="1.088"/>
                <ellipse cx="46.71" cy="15.77" rx="1.086" ry="1.088"/>
                <ellipse cx="55.943" cy="15.77" rx="1.086" ry="1.088"/>
                <ellipse cx="65.177" cy="15.77" rx="1.086" ry="1.088"/>
                <ellipse cx="74.41" cy="15.77" rx="1.086" ry="1.088"/>
                <ellipse cx="83.643" cy="15.77" rx="1.086" ry="1.088"/>
                <ellipse cx="1.086" cy="22.84" rx="1.086" ry="1.088"/>
                <ellipse cx="10.32" cy="22.84" rx="1.086" ry="1.088"/>
                <ellipse cx="19.553" cy="22.84" rx="1.086" ry="1.088"/>
                <ellipse cx="28.786" cy="22.84" rx="1.086" ry="1.088"/>
                <ellipse cx="37.477" cy="22.84" rx="1.086" ry="1.088"/>
                <ellipse cx="46.71" cy="22.84" rx="1.086" ry="1.088"/>
                <ellipse cx="55.943" cy="22.84" rx="1.086" ry="1.088"/>
                <ellipse cx="65.177" cy="22.84" rx="1.086" ry="1.088"/>
                <ellipse cx="74.41" cy="22.84" rx="1.086" ry="1.088"/>
                <ellipse cx="83.643" cy="22.84" rx="1.086" ry="1.088"/>
                <ellipse cx="1.086" cy="29.909" rx="1.086" ry="1.088"/>
                <ellipse cx="10.32" cy="29.909" rx="1.086" ry="1.088"/>
                <ellipse cx="19.553" cy="29.909" rx="1.086" ry="1.088"/>
                <ellipse cx="28.786" cy="29.909" rx="1.086" ry="1.088"/>
                <ellipse cx="37.477" cy="29.909" rx="1.086" ry="1.088"/>
                <ellipse cx="46.71" cy="29.909" rx="1.086" ry="1.088"/>
                <ellipse cx="55.943" cy="29.909" rx="1.086" ry="1.088"/>
                <ellipse cx="65.177" cy="29.909" rx="1.086" ry="1.088"/>
                <ellipse cx="74.41" cy="29.909" rx="1.086" ry="1.088"/>
                <ellipse cx="83.643" cy="29.909" rx="1.086" ry="1.088"/>
                <ellipse cx="1.086" cy="37.523" rx="1.086" ry="1.088"/>
                <ellipse cx="10.32" cy="37.523" rx="1.086" ry="1.088"/>
                <ellipse cx="19.553" cy="37.523" rx="1.086" ry="1.088"/>
                <ellipse cx="28.786" cy="37.523" rx="1.086" ry="1.088"/>
                <ellipse cx="37.477" cy="37.523" rx="1.086" ry="1.088"/>
                <ellipse cx="46.71" cy="37.523" rx="1.086" ry="1.088"/>
                <ellipse cx="55.943" cy="37.523" rx="1.086" ry="1.088"/>
                <ellipse cx="65.177" cy="37.523" rx="1.086" ry="1.088"/>
                <ellipse cx="74.41" cy="37.523" rx="1.086" ry="1.088"/>
                <ellipse cx="83.643" cy="37.523" rx="1.086" ry="1.088"/>
                <ellipse cx="1.086" cy="45.136" rx="1.086" ry="1.088"/>
                <ellipse cx="10.32" cy="45.136" rx="1.086" ry="1.088"/>
                <ellipse cx="19.553" cy="45.136" rx="1.086" ry="1.088"/>
                <ellipse cx="28.786" cy="45.136" rx="1.086" ry="1.088"/>
                <ellipse cx="37.477" cy="45.136" rx="1.086" ry="1.088"/>
                <ellipse cx="46.71" cy="45.136" rx="1.086" ry="1.088"/>
                <ellipse cx="55.943" cy="45.136" rx="1.086" ry="1.088"/>
                <ellipse cx="65.177" cy="45.136" rx="1.086" ry="1.088"/>
                <ellipse cx="74.41" cy="45.136" rx="1.086" ry="1.088"/>
                <ellipse cx="83.643" cy="45.136" rx="1.086" ry="1.088"/>
                <ellipse cx="1.086" cy="52.206" rx="1.086" ry="1.088"/>
                <ellipse cx="10.32" cy="52.206" rx="1.086" ry="1.088"/>
                <ellipse cx="19.553" cy="52.206" rx="1.086" ry="1.088"/>
                <ellipse cx="28.786" cy="52.206" rx="1.086" ry="1.088"/>
                <ellipse cx="37.477" cy="52.206" rx="1.086" ry="1.088"/>
                <ellipse cx="46.71" cy="52.206" rx="1.086" ry="1.088"/>
                <ellipse cx="55.943" cy="52.206" rx="1.086" ry="1.088"/>
                <ellipse cx="65.177" cy="52.206" rx="1.086" ry="1.088"/>
                <ellipse cx="74.41" cy="52.206" rx="1.086" ry="1.088"/>
                <ellipse cx="83.643" cy="52.206" rx="1.086" ry="1.088"/>
                <ellipse cx="1.086" cy="59.819" rx="1.086" ry="1.088"/>
                <ellipse cx="10.32" cy="59.819" rx="1.086" ry="1.088"/>
                <ellipse cx="19.553" cy="59.819" rx="1.086" ry="1.088"/>
                <ellipse cx="28.786" cy="59.819" rx="1.086" ry="1.088"/>
                <ellipse cx="37.477" cy="59.819" rx="1.086" ry="1.088"/>
                <ellipse cx="46.71" cy="59.819" rx="1.086" ry="1.088"/>
                <ellipse cx="55.943" cy="59.819" rx="1.086" ry="1.088"/>
                <ellipse cx="65.177" cy="59.819" rx="1.086" ry="1.088"/>
                <ellipse cx="74.41" cy="59.819" rx="1.086" ry="1.088"/>
                <ellipse cx="83.643" cy="59.819" rx="1.086" ry="1.088"/>
                <ellipse cx="1.086" cy="66.888" rx="1.086" ry="1.088"/>
                <ellipse cx="10.32" cy="66.888" rx="1.086" ry="1.088"/>
                <ellipse cx="19.553" cy="66.888" rx="1.086" ry="1.088"/>
                <ellipse cx="28.786" cy="66.888" rx="1.086" ry="1.088"/>
                <ellipse cx="37.477" cy="66.888" rx="1.086" ry="1.088"/>
                <ellipse cx="46.71" cy="66.888" rx="1.086" ry="1.088"/>
                <ellipse cx="55.943" cy="66.888" rx="1.086" ry="1.088"/>
                <ellipse cx="65.177" cy="66.888" rx="1.086" ry="1.088"/>
                <ellipse cx="74.41" cy="66.888" rx="1.086" ry="1.088"/>
                <ellipse cx="83.643" cy="66.888" rx="1.086" ry="1.088"/>
                <ellipse cx="1.086" cy="73.958" rx="1.086" ry="1.088"/>
                <ellipse cx="10.32" cy="73.958" rx="1.086" ry="1.088"/>
                <ellipse cx="19.553" cy="73.958" rx="1.086" ry="1.088"/>
                <ellipse cx="28.786" cy="73.958" rx="1.086" ry="1.088"/>
                <ellipse cx="37.477" cy="73.958" rx="1.086" ry="1.088"/>
                <ellipse cx="46.71" cy="73.958" rx="1.086" ry="1.088"/>
                <ellipse cx="55.943" cy="73.958" rx="1.086" ry="1.088"/>
                <ellipse cx="65.177" cy="73.958" rx="1.086" ry="1.088"/>
                <ellipse cx="74.41" cy="73.958" rx="1.086" ry="1.088"/>
                <ellipse cx="83.643" cy="73.958" rx="1.086" ry="1.088"/>
            </g>
            <g>
                <g transform="translate(160.106)">
                    <ellipse cx="1.086" cy="1.088" rx="1.086" ry="1.088"/>
                    <ellipse cx="10.32" cy="1.088" rx="1.086" ry="1.088"/>
                    <ellipse cx="19.553" cy="1.088" rx="1.086" ry="1.088"/>
                    <ellipse cx="28.786" cy="1.088" rx="1.086" ry="1.088"/>
                    <ellipse cx="37.477" cy="1.088" rx="1.086" ry="1.088"/>
                    <ellipse cx="46.71" cy="1.088" rx="1.086" ry="1.088"/>
                    <ellipse cx="55.943" cy="1.088" rx="1.086" ry="1.088"/>
                    <ellipse cx="65.177" cy="1.088" rx="1.086" ry="1.088"/>
                    <ellipse cx="74.41" cy="1.088" rx="1.086" ry="1.088"/>
                    <ellipse cx="83.643" cy="1.088" rx="1.086" ry="1.088"/>
                    <ellipse cx="1.086" cy="8.701" rx="1.086" ry="1.088"/>
                    <ellipse cx="10.32" cy="8.701" rx="1.086" ry="1.088"/>
                    <ellipse cx="19.553" cy="8.701" rx="1.086" ry="1.088"/>
                    <ellipse cx="28.786" cy="8.701" rx="1.086" ry="1.088"/>
                    <ellipse cx="37.477" cy="8.701" rx="1.086" ry="1.088"/>
                    <ellipse cx="46.71" cy="8.701" rx="1.086" ry="1.088"/>
                    <ellipse cx="55.943" cy="8.701" rx="1.086" ry="1.088"/>
                    <ellipse cx="65.177" cy="8.701" rx="1.086" ry="1.088"/>
                    <ellipse cx="74.41" cy="8.701" rx="1.086" ry="1.088"/>
                    <ellipse cx="83.643" cy="8.701" rx="1.086" ry="1.088"/>
                    <ellipse cx="1.086" cy="15.77" rx="1.086" ry="1.088"/>
                    <ellipse cx="10.32" cy="15.77" rx="1.086" ry="1.088"/>
                    <ellipse cx="19.553" cy="15.77" rx="1.086" ry="1.088"/>
                    <ellipse cx="28.786" cy="15.77" rx="1.086" ry="1.088"/>
                    <ellipse cx="37.477" cy="15.77" rx="1.086" ry="1.088"/>
                    <ellipse cx="46.71" cy="15.77" rx="1.086" ry="1.088"/>
                    <ellipse cx="55.943" cy="15.77" rx="1.086" ry="1.088"/>
                    <ellipse cx="65.177" cy="15.77" rx="1.086" ry="1.088"/>
                    <ellipse cx="74.41" cy="15.77" rx="1.086" ry="1.088"/>
                    <ellipse cx="83.643" cy="15.77" rx="1.086" ry="1.088"/>
                    <ellipse cx="1.086" cy="22.84" rx="1.086" ry="1.088"/>
                    <ellipse cx="10.32" cy="22.84" rx="1.086" ry="1.088"/>
                    <ellipse cx="19.553" cy="22.84" rx="1.086" ry="1.088"/>
                    <ellipse cx="28.786" cy="22.84" rx="1.086" ry="1.088"/>
                    <ellipse cx="37.477" cy="22.84" rx="1.086" ry="1.088"/>
                    <ellipse cx="46.71" cy="22.84" rx="1.086" ry="1.088"/>
                    <ellipse cx="55.943" cy="22.84" rx="1.086" ry="1.088"/>
                    <ellipse cx="65.177" cy="22.84" rx="1.086" ry="1.088"/>
                    <ellipse cx="74.41" cy="22.84" rx="1.086" ry="1.088"/>
                    <ellipse cx="83.643" cy="22.84" rx="1.086" ry="1.088"/>
                    <ellipse cx="1.086" cy="29.909" rx="1.086" ry="1.088"/>
                    <ellipse cx="10.32" cy="29.909" rx="1.086" ry="1.088"/>
                    <ellipse cx="19.553" cy="29.909" rx="1.086" ry="1.088"/>
                    <ellipse cx="28.786" cy="29.909" rx="1.086" ry="1.088"/>
                    <ellipse cx="37.477" cy="29.909" rx="1.086" ry="1.088"/>
                    <ellipse cx="46.71" cy="29.909" rx="1.086" ry="1.088"/>
                    <ellipse cx="55.943" cy="29.909" rx="1.086" ry="1.088"/>
                    <ellipse cx="65.177" cy="29.909" rx="1.086" ry="1.088"/>
                    <ellipse cx="74.41" cy="29.909" rx="1.086" ry="1.088"/>
                    <ellipse cx="83.643" cy="29.909" rx="1.086" ry="1.088"/>
                    <ellipse cx="1.086" cy="37.523" rx="1.086" ry="1.088"/>
                    <ellipse cx="10.32" cy="37.523" rx="1.086" ry="1.088"/>
                    <ellipse cx="19.553" cy="37.523" rx="1.086" ry="1.088"/>
                    <ellipse cx="28.786" cy="37.523" rx="1.086" ry="1.088"/>
                    <ellipse cx="37.477" cy="37.523" rx="1.086" ry="1.088"/>
                    <ellipse cx="46.71" cy="37.523" rx="1.086" ry="1.088"/>
                    <ellipse cx="55.943" cy="37.523" rx="1.086" ry="1.088"/>
                    <ellipse cx="65.177" cy="37.523" rx="1.086" ry="1.088"/>
                    <ellipse cx="74.41" cy="37.523" rx="1.086" ry="1.088"/>
                    <ellipse cx="83.643" cy="37.523" rx="1.086" ry="1.088"/>
                    <ellipse cx="1.086" cy="45.136" rx="1.086" ry="1.088"/>
                    <ellipse cx="10.32" cy="45.136" rx="1.086" ry="1.088"/>
                    <ellipse cx="19.553" cy="45.136" rx="1.086" ry="1.088"/>
                    <ellipse cx="28.786" cy="45.136" rx="1.086" ry="1.088"/>
                    <ellipse cx="37.477" cy="45.136" rx="1.086" ry="1.088"/>
                    <ellipse cx="46.71" cy="45.136" rx="1.086" ry="1.088"/>
                    <ellipse cx="55.943" cy="45.136" rx="1.086" ry="1.088"/>
                    <ellipse cx="65.177" cy="45.136" rx="1.086" ry="1.088"/>
                    <ellipse cx="74.41" cy="45.136" rx="1.086" ry="1.088"/>
                    <ellipse cx="83.643" cy="45.136" rx="1.086" ry="1.088"/>
                    <ellipse cx="1.086" cy="52.206" rx="1.086" ry="1.088"/>
                    <ellipse cx="10.32" cy="52.206" rx="1.086" ry="1.088"/>
                    <ellipse cx="19.553" cy="52.206" rx="1.086" ry="1.088"/>
                    <ellipse cx="28.786" cy="52.206" rx="1.086" ry="1.088"/>
                    <ellipse cx="37.477" cy="52.206" rx="1.086" ry="1.088"/>
                    <ellipse cx="46.71" cy="52.206" rx="1.086" ry="1.088"/>
                    <ellipse cx="55.943" cy="52.206" rx="1.086" ry="1.088"/>
                    <ellipse cx="65.177" cy="52.206" rx="1.086" ry="1.088"/>
                    <ellipse cx="74.41" cy="52.206" rx="1.086" ry="1.088"/>
                    <ellipse cx="83.643" cy="52.206" rx="1.086" ry="1.088"/>
                    <ellipse cx="1.086" cy="59.819" rx="1.086" ry="1.088"/>
                    <ellipse cx="10.32" cy="59.819" rx="1.086" ry="1.088"/>
                    <ellipse cx="19.553" cy="59.819" rx="1.086" ry="1.088"/>
                    <ellipse cx="28.786" cy="59.819" rx="1.086" ry="1.088"/>
                    <ellipse cx="37.477" cy="59.819" rx="1.086" ry="1.088"/>
                    <ellipse cx="46.71" cy="59.819" rx="1.086" ry="1.088"/>
                    <ellipse cx="55.943" cy="59.819" rx="1.086" ry="1.088"/>
                    <ellipse cx="65.177" cy="59.819" rx="1.086" ry="1.088"/>
                    <ellipse cx="74.41" cy="59.819" rx="1.086" ry="1.088"/>
                    <ellipse cx="83.643" cy="59.819" rx="1.086" ry="1.088"/>
                    <ellipse cx="1.086" cy="66.888" rx="1.086" ry="1.088"/>
                    <ellipse cx="10.32" cy="66.888" rx="1.086" ry="1.088"/>
                    <ellipse cx="19.553" cy="66.888" rx="1.086" ry="1.088"/>
                    <ellipse cx="28.786" cy="66.888" rx="1.086" ry="1.088"/>
                    <ellipse cx="37.477" cy="66.888" rx="1.086" ry="1.088"/>
                    <ellipse cx="46.71" cy="66.888" rx="1.086" ry="1.088"/>
                    <ellipse cx="55.943" cy="66.888" rx="1.086" ry="1.088"/>
                    <ellipse cx="65.177" cy="66.888" rx="1.086" ry="1.088"/>
                    <ellipse cx="74.41" cy="66.888" rx="1.086" ry="1.088"/>
                    <ellipse cx="83.643" cy="66.888" rx="1.086" ry="1.088"/>
                    <ellipse cx="1.086" cy="73.958" rx="1.086" ry="1.088"/>
                    <ellipse cx="10.32" cy="73.958" rx="1.086" ry="1.088"/>
                    <ellipse cx="19.553" cy="73.958" rx="1.086" ry="1.088"/>
                    <ellipse cx="28.786" cy="73.958" rx="1.086" ry="1.088"/>
                    <ellipse cx="37.477" cy="73.958" rx="1.086" ry="1.088"/>
                    <ellipse cx="46.71" cy="73.958" rx="1.086" ry="1.088"/>
                    <ellipse cx="55.943" cy="73.958" rx="1.086" ry="1.088"/>
                    <ellipse cx="65.177" cy="73.958" rx="1.086" ry="1.088"/>
                    <ellipse cx="74.41" cy="73.958" rx="1.086" ry="1.088"/>
                    <ellipse cx="83.643" cy="73.958" rx="1.086" ry="1.088"/>
                </g>
                <g transform="translate(68.315)">
                    <ellipse cx="1.086" cy="1.088" rx="1.086" ry="1.088"/>
                    <ellipse cx="10.32" cy="1.088" rx="1.086" ry="1.088"/>
                    <ellipse cx="19.553" cy="1.088" rx="1.086" ry="1.088"/>
                    <ellipse cx="28.786" cy="1.088" rx="1.086" ry="1.088"/>
                    <ellipse cx="37.477" cy="1.088" rx="1.086" ry="1.088"/>
                    <ellipse cx="46.71" cy="1.088" rx="1.086" ry="1.088"/>
                    <ellipse cx="55.943" cy="1.088" rx="1.086" ry="1.088"/>
                    <ellipse cx="65.177" cy="1.088" rx="1.086" ry="1.088"/>
                    <ellipse cx="74.41" cy="1.088" rx="1.086" ry="1.088"/>
                    <ellipse cx="83.643" cy="1.088" rx="1.086" ry="1.088"/>
                    <ellipse cx="1.086" cy="8.701" rx="1.086" ry="1.088"/>
                    <ellipse cx="10.32" cy="8.701" rx="1.086" ry="1.088"/>
                    <ellipse cx="19.553" cy="8.701" rx="1.086" ry="1.088"/>
                    <ellipse cx="28.786" cy="8.701" rx="1.086" ry="1.088"/>
                    <ellipse cx="37.477" cy="8.701" rx="1.086" ry="1.088"/>
                    <ellipse cx="46.71" cy="8.701" rx="1.086" ry="1.088"/>
                    <ellipse cx="55.943" cy="8.701" rx="1.086" ry="1.088"/>
                    <ellipse cx="65.177" cy="8.701" rx="1.086" ry="1.088"/>
                    <ellipse cx="74.41" cy="8.701" rx="1.086" ry="1.088"/>
                    <ellipse cx="83.643" cy="8.701" rx="1.086" ry="1.088"/>
                    <ellipse cx="1.086" cy="15.77" rx="1.086" ry="1.088"/>
                    <ellipse cx="10.32" cy="15.77" rx="1.086" ry="1.088"/>
                    <ellipse cx="19.553" cy="15.77" rx="1.086" ry="1.088"/>
                    <ellipse cx="28.786" cy="15.77" rx="1.086" ry="1.088"/>
                    <ellipse cx="37.477" cy="15.77" rx="1.086" ry="1.088"/>
                    <ellipse cx="46.71" cy="15.77" rx="1.086" ry="1.088"/>
                    <ellipse cx="55.943" cy="15.77" rx="1.086" ry="1.088"/>
                    <ellipse cx="65.177" cy="15.77" rx="1.086" ry="1.088"/>
                    <ellipse cx="74.41" cy="15.77" rx="1.086" ry="1.088"/>
                    <ellipse cx="83.643" cy="15.77" rx="1.086" ry="1.088"/>
                    <ellipse cx="1.086" cy="22.84" rx="1.086" ry="1.088"/>
                    <ellipse cx="10.32" cy="22.84" rx="1.086" ry="1.088"/>
                    <ellipse cx="19.553" cy="22.84" rx="1.086" ry="1.088"/>
                    <ellipse cx="28.786" cy="22.84" rx="1.086" ry="1.088"/>
                    <ellipse cx="37.477" cy="22.84" rx="1.086" ry="1.088"/>
                    <ellipse cx="46.71" cy="22.84" rx="1.086" ry="1.088"/>
                    <ellipse cx="55.943" cy="22.84" rx="1.086" ry="1.088"/>
                    <ellipse cx="65.177" cy="22.84" rx="1.086" ry="1.088"/>
                    <ellipse cx="74.41" cy="22.84" rx="1.086" ry="1.088"/>
                    <ellipse cx="83.643" cy="22.84" rx="1.086" ry="1.088"/>
                    <ellipse cx="1.086" cy="29.909" rx="1.086" ry="1.088"/>
                    <ellipse cx="10.32" cy="29.909" rx="1.086" ry="1.088"/>
                    <ellipse cx="19.553" cy="29.909" rx="1.086" ry="1.088"/>
                    <ellipse cx="28.786" cy="29.909" rx="1.086" ry="1.088"/>
                    <ellipse cx="37.477" cy="29.909" rx="1.086" ry="1.088"/>
                    <ellipse cx="46.71" cy="29.909" rx="1.086" ry="1.088"/>
                    <ellipse cx="55.943" cy="29.909" rx="1.086" ry="1.088"/>
                    <ellipse cx="65.177" cy="29.909" rx="1.086" ry="1.088"/>
                    <ellipse cx="74.41" cy="29.909" rx="1.086" ry="1.088"/>
                    <ellipse cx="83.643" cy="29.909" rx="1.086" ry="1.088"/>
                    <ellipse cx="1.086" cy="37.523" rx="1.086" ry="1.088"/>
                    <ellipse cx="10.32" cy="37.523" rx="1.086" ry="1.088"/>
                    <ellipse cx="19.553" cy="37.523" rx="1.086" ry="1.088"/>
                    <ellipse cx="28.786" cy="37.523" rx="1.086" ry="1.088"/>
                    <ellipse cx="37.477" cy="37.523" rx="1.086" ry="1.088"/>
                    <ellipse cx="46.71" cy="37.523" rx="1.086" ry="1.088"/>
                    <ellipse cx="55.943" cy="37.523" rx="1.086" ry="1.088"/>
                    <ellipse cx="65.177" cy="37.523" rx="1.086" ry="1.088"/>
                    <ellipse cx="74.41" cy="37.523" rx="1.086" ry="1.088"/>
                    <ellipse cx="83.643" cy="37.523" rx="1.086" ry="1.088"/>
                    <ellipse cx="1.086" cy="45.136" rx="1.086" ry="1.088"/>
                    <ellipse cx="10.32" cy="45.136" rx="1.086" ry="1.088"/>
                    <ellipse cx="19.553" cy="45.136" rx="1.086" ry="1.088"/>
                    <ellipse cx="28.786" cy="45.136" rx="1.086" ry="1.088"/>
                    <ellipse cx="37.477" cy="45.136" rx="1.086" ry="1.088"/>
                    <ellipse cx="46.71" cy="45.136" rx="1.086" ry="1.088"/>
                    <ellipse cx="55.943" cy="45.136" rx="1.086" ry="1.088"/>
                    <ellipse cx="65.177" cy="45.136" rx="1.086" ry="1.088"/>
                    <ellipse cx="74.41" cy="45.136" rx="1.086" ry="1.088"/>
                    <ellipse cx="83.643" cy="45.136" rx="1.086" ry="1.088"/>
                    <ellipse cx="1.086" cy="52.206" rx="1.086" ry="1.088"/>
                    <ellipse cx="10.32" cy="52.206" rx="1.086" ry="1.088"/>
                    <ellipse cx="19.553" cy="52.206" rx="1.086" ry="1.088"/>
                    <ellipse cx="28.786" cy="52.206" rx="1.086" ry="1.088"/>
                    <ellipse cx="37.477" cy="52.206" rx="1.086" ry="1.088"/>
                    <ellipse cx="46.71" cy="52.206" rx="1.086" ry="1.088"/>
                    <ellipse cx="55.943" cy="52.206" rx="1.086" ry="1.088"/>
                    <ellipse cx="65.177" cy="52.206" rx="1.086" ry="1.088"/>
                    <ellipse cx="74.41" cy="52.206" rx="1.086" ry="1.088"/>
                    <ellipse cx="83.643" cy="52.206" rx="1.086" ry="1.088"/>
                    <ellipse cx="1.086" cy="59.819" rx="1.086" ry="1.088"/>
                    <ellipse cx="10.32" cy="59.819" rx="1.086" ry="1.088"/>
                    <ellipse cx="19.553" cy="59.819" rx="1.086" ry="1.088"/>
                    <ellipse cx="28.786" cy="59.819" rx="1.086" ry="1.088"/>
                    <ellipse cx="37.477" cy="59.819" rx="1.086" ry="1.088"/>
                    <ellipse cx="46.71" cy="59.819" rx="1.086" ry="1.088"/>
                    <ellipse cx="55.943" cy="59.819" rx="1.086" ry="1.088"/>
                    <ellipse cx="65.177" cy="59.819" rx="1.086" ry="1.088"/>
                    <ellipse cx="74.41" cy="59.819" rx="1.086" ry="1.088"/>
                    <ellipse cx="83.643" cy="59.819" rx="1.086" ry="1.088"/>
                    <ellipse cx="1.086" cy="66.888" rx="1.086" ry="1.088"/>
                    <ellipse cx="10.32" cy="66.888" rx="1.086" ry="1.088"/>
                    <ellipse cx="19.553" cy="66.888" rx="1.086" ry="1.088"/>
                    <ellipse cx="28.786" cy="66.888" rx="1.086" ry="1.088"/>
                    <ellipse cx="37.477" cy="66.888" rx="1.086" ry="1.088"/>
                    <ellipse cx="46.71" cy="66.888" rx="1.086" ry="1.088"/>
                    <ellipse cx="55.943" cy="66.888" rx="1.086" ry="1.088"/>
                    <ellipse cx="65.177" cy="66.888" rx="1.086" ry="1.088"/>
                    <ellipse cx="74.41" cy="66.888" rx="1.086" ry="1.088"/>
                    <ellipse cx="83.643" cy="66.888" rx="1.086" ry="1.088"/>
                    <ellipse cx="1.086" cy="73.958" rx="1.086" ry="1.088"/>
                    <ellipse cx="10.32" cy="73.958" rx="1.086" ry="1.088"/>
                    <ellipse cx="19.553" cy="73.958" rx="1.086" ry="1.088"/>
                    <ellipse cx="28.786" cy="73.958" rx="1.086" ry="1.088"/>
                    <ellipse cx="37.477" cy="73.958" rx="1.086" ry="1.088"/>
                    <ellipse cx="46.71" cy="73.958" rx="1.086" ry="1.088"/>
                    <ellipse cx="55.943" cy="73.958" rx="1.086" ry="1.088"/>
                    <ellipse cx="65.177" cy="73.958" rx="1.086" ry="1.088"/>
                    <ellipse cx="74.41" cy="73.958" rx="1.086" ry="1.088"/>
                    <ellipse cx="83.643" cy="73.958" rx="1.086" ry="1.088"/>
                </g>
            </g>
        </g>
    </g>
</svg>
