<?xml version="1.0" encoding="UTF-8"?>
<svg width="40px" height="40px" viewBox="0 0 40 40" version="1.1" xmlns="http://www.w3.org/2000/svg" xmlns:xlink="http://www.w3.org/1999/xlink">
    <!-- Generator: Sketch 56.2 (81672) - https://sketch.com -->
    <title>Artboard</title>
    <desc>Created with Sketch.</desc>
    <g id="Artboard" stroke="none" stroke-width="1" fill="none" fill-rule="evenodd">
        <g id="Group-23" transform="translate(4.000000, 11.000000)">
            <g id="Group" transform="translate(0.000000, 0.856595)">
                <g id="Group-19-Copy-3" opacity="0.748465402" fill="#FFFFFF" fill-rule="nonzero">
                    <path d="M10.3753035,0.743057797 C10.1131129,1.26310328 9.90719868,1.81268941 9.76379437,2.3826692 C9.2740945,2.05241607 8.68256987,1.85932004 8.04522686,1.85932004 C6.35429872,1.85932004 4.98588088,3.21850073 4.98588088,4.89221409 C4.98588088,6.56592744 6.35429872,7.92510813 8.04522686,7.92510813 C8.81736086,7.92510813 9.52224698,7.64170004 10.0602998,7.17434938 C10.2733702,7.72734481 10.5448314,8.24704035 10.8660481,8.72767098 C10.0753525,9.30370857 9.10003798,9.64374822 8.04522686,9.64374822 C5.40771603,9.64374822 3.26724079,7.5177217 3.26724079,4.89221409 C3.26724079,2.26670648 5.40771603,0.140679955 8.04522686,0.140679955 C8.89111419,0.140679955 9.68587761,0.359358014 10.3753035,0.743057797 Z M11.0766285,10.5995983 C10.4565379,10.9598347 9.87468843,11.3816152 9.34188055,11.8589346 C8.92277939,11.7712021 8.48893346,11.7251463 8.04522686,11.7251463 C5.2835518,11.7251463 2.90387368,13.509326 2.08383716,16.0217461 L6.5536796,16.0217461 C6.48300052,16.2240216 6.41845633,16.429733 6.36030382,16.6387375 C6.25820069,17.0057038 6.1784326,17.3733663 6.12019707,17.7403862 L0.000741147297,17.7403862 L0.150368179,16.7523933 C0.73477502,12.8935329 4.0828301,10.0065062 8.04522686,10.0065062 C9.11451193,10.0065062 10.1390585,10.2167493 11.0766285,10.5995983 Z" id="Combined-Shape"></path>
                </g>
                <g id="Group-19" transform="translate(9.286630, 1.000000)" stroke="#FFFFFF" stroke-width="1.71864009">
                    <ellipse id="Oval" cx="7.04522686" cy="3.89221409" rx="3.91866603" ry="3.89221409"></ellipse>
                    <path d="M-2.26901831e-14,15.8810662 C0.515643285,12.4762542 3.47351423,9.86582621 7.04522686,9.86582621 C10.6169395,9.86582621 13.5748104,12.4762542 14.0904537,15.8810662 L-2.26485497e-14,15.8810662 Z" id="Combined-Shape"></path>
                </g>
            </g>
            <g id="Group" transform="translate(26.622726, 9.857473) scale(-1, 1) translate(-26.622726, -9.857473) translate(20.622726, 0.857473)" fill="#FFFFFF" fill-rule="nonzero" opacity="0.748465402">
                <g id="Group-19-Copy-3">
                    <path d="M10.3753035,0.743057797 C10.1131129,1.26310328 9.90719868,1.81268941 9.76379437,2.3826692 C9.2740945,2.05241607 8.68256987,1.85932004 8.04522686,1.85932004 C6.35429872,1.85932004 4.98588088,3.21850073 4.98588088,4.89221409 C4.98588088,6.56592744 6.35429872,7.92510813 8.04522686,7.92510813 C8.81736086,7.92510813 9.52224698,7.64170004 10.0602998,7.17434938 C10.2733702,7.72734481 10.5448314,8.24704035 10.8660481,8.72767098 C10.0753525,9.30370857 9.10003798,9.64374822 8.04522686,9.64374822 C5.40771603,9.64374822 3.26724079,7.5177217 3.26724079,4.89221409 C3.26724079,2.26670648 5.40771603,0.140679955 8.04522686,0.140679955 C8.89111419,0.140679955 9.68587761,0.359358014 10.3753035,0.743057797 Z M11.0766285,10.5995983 C10.4565379,10.9598347 9.87468843,11.3816152 9.34188055,11.8589346 C8.92277939,11.7712021 8.48893346,11.7251463 8.04522686,11.7251463 C5.2835518,11.7251463 2.90387368,13.509326 2.08383716,16.0217461 L6.5536796,16.0217461 C6.48300052,16.2240216 6.41845633,16.429733 6.36030382,16.6387375 C6.25820069,17.0057038 6.1784326,17.3733663 6.12019707,17.7403862 L0.000741147297,17.7403862 L0.150368179,16.7523933 C0.73477502,12.8935329 4.0828301,10.0065062 8.04522686,10.0065062 C9.11451193,10.0065062 10.1390585,10.2167493 11.0766285,10.5995983 Z" id="Combined-Shape"></path>
                </g>
            </g>
        </g>
    </g>
</svg>