<?xml version="1.0" encoding="UTF-8"?>
<svg width="344px" height="48px" viewBox="0 0 344 48" version="1.1" xmlns="http://www.w3.org/2000/svg" xmlns:xlink="http://www.w3.org/1999/xlink">
    <!-- Generator: Sketch 49.3 (51167) - http://www.bohemiancoding.com/sketch -->
    <title>End-to-end solution</title>
    <desc>Created with Sketch.</desc>
    <defs>
        <path d="M13.072,11.72 L13.072,13 L5.36,13 L5.36,1.64 L12.928,1.64 L12.928,2.92 L6.8,2.92 L6.8,6.6 L12.128,6.6 L12.128,7.8 L6.8,7.8 L6.8,11.72 L13.072,11.72 Z M22.3268572,13 L20.9188572,13 L20.9188572,8.328 C20.9188572,7.43199552 20.7828586,6.78133536 20.5108572,6.376 C20.2388559,5.97066464 19.8255267,5.768 19.2708572,5.768 C18.9828558,5.768 18.6948587,5.82399944 18.4068572,5.936 C18.1188558,6.04800056 17.8468585,6.19999904 17.5908572,6.392 C17.3348559,6.58400096 17.1108582,6.813332 16.9188572,7.08 C16.7268563,7.346668 16.5828577,7.6399984 16.4868572,7.96 L16.4868572,13 L15.0788572,13 L15.0788572,4.648 L16.3588572,4.648 L16.3588572,6.44 C16.6895255,5.8533304 17.1668541,5.38400176 17.7908572,5.032 C18.4148603,4.67999824 19.0948535,4.504 19.8308572,4.504 C20.3108596,4.504 20.7108556,4.59199912 21.0308572,4.768 C21.3508588,4.94400088 21.6068563,5.18933176 21.7988572,5.504 C21.9908582,5.81866824 22.1268568,6.1893312 22.2068572,6.616 C22.2868576,7.0426688 22.3268572,7.50666416 22.3268572,8.008 L22.3268572,13 Z M28.3017144,13.16 C27.7257115,13.16 27.1923835,13.0426678 26.7017144,12.808 C26.2110453,12.5733322 25.7897162,12.2586686 25.4377144,11.864 C25.0857127,11.4693314 24.8110487,11.0106693 24.6137144,10.488 C24.4163801,9.96533072 24.3177144,9.41600288 24.3177144,8.84 C24.3177144,8.2533304 24.4110468,7.69600264 24.5977144,7.168 C24.784382,6.63999736 25.0457127,6.17866864 25.3817144,5.784 C25.7177161,5.38933136 26.1177121,5.07733448 26.5817144,4.848 C27.0457167,4.61866552 27.555045,4.504 28.1097144,4.504 C28.7817178,4.504 29.3817118,4.67999824 29.9097144,5.032 C30.4377171,5.38400176 30.8563795,5.81066416 31.1657144,6.312 L31.1657144,1.32 L32.5737144,1.32 L32.5737144,11.272 C32.5737144,11.6026683 32.7230463,11.7733333 33.0217144,11.784 L33.0217144,13 C32.8723803,13.0213334 32.7523815,13.0373333 32.6617144,13.048 C32.5710473,13.0586667 32.4830482,13.064 32.3977144,13.064 C32.1203797,13.064 31.8777155,12.9706676 31.6697144,12.784 C31.4617134,12.5973324 31.3577144,12.3813346 31.3577144,12.136 L31.3577144,11.432 C31.0270461,11.9760027 30.5870505,12.3999985 30.0377144,12.704 C29.4883783,13.0080015 28.9097175,13.16 28.3017144,13.16 Z M28.6377144,11.944 C28.8937157,11.944 29.1577131,11.8960005 29.4297144,11.8 C29.7017158,11.7039995 29.9577132,11.5706675 30.1977144,11.4 C30.4377156,11.2293325 30.6457135,11.0293345 30.8217144,10.8 C30.9977153,10.5706655 31.1123808,10.3280013 31.1657144,10.072 L31.1657144,7.672 C31.0697139,7.405332 30.9257154,7.1520012 30.7337144,6.912 C30.5417135,6.6719988 30.3257156,6.46400088 30.0857144,6.288 C29.8457132,6.11199912 29.5897158,5.97333384 29.3177144,5.872 C29.0457131,5.77066616 28.7763824,5.72 28.5097144,5.72 C28.0937123,5.72 27.7177161,5.80799912 27.3817144,5.984 C27.0457127,6.16000088 26.7577156,6.3946652 26.5177144,6.688 C26.2777132,6.9813348 26.0937151,7.31733144 25.9657144,7.696 C25.8377138,8.07466856 25.7737144,8.46133136 25.7737144,8.856 C25.7737144,9.27200208 25.8483803,9.66933144 25.9977144,10.048 C26.1470485,10.4266686 26.3497131,10.7546653 26.6057144,11.032 C26.8617157,11.3093347 27.163046,11.5306658 27.5097144,11.696 C27.8563828,11.8613342 28.2323791,11.944 28.6377144,11.944 Z M35.1565716,9.272 L35.1565716,7.992 L39.8765716,7.992 L39.8765716,9.272 L35.1565716,9.272 Z M46.6994288,12.584 C46.6140951,12.6266669 46.5020962,12.677333 46.3634288,12.736 C46.2247615,12.794667 46.0674297,12.853333 45.8914288,12.912 C45.715428,12.970667 45.5234299,13.0186665 45.3154288,13.056 C45.1074278,13.0933335 44.89143,13.112 44.6674288,13.112 C44.1554263,13.112 43.712764,12.9706681 43.3394288,12.688 C42.9660936,12.4053319 42.7794288,11.9653363 42.7794288,11.368 L42.7794288,5.752 L41.6434288,5.752 L41.6434288,4.648 L42.7794288,4.648 L42.7794288,1.864 L44.1874288,1.864 L44.1874288,4.648 L46.0594288,4.648 L46.0594288,5.752 L44.1874288,5.752 L44.1874288,10.936 C44.2087623,11.2453349 44.3100946,11.4693326 44.4914288,11.608 C44.6727631,11.7466674 44.8860943,11.816 45.1314288,11.816 C45.4087636,11.816 45.6620944,11.7706671 45.8914288,11.68 C46.1207633,11.5893329 46.2780951,11.5173336 46.3634288,11.464 L46.6994288,12.584 Z M51.8902861,13.16 C51.2609496,13.16 50.687622,13.0426678 50.1702861,12.808 C49.6529501,12.5733322 49.2102879,12.2586686 48.8422861,11.864 C48.4742842,11.4693314 48.1889537,11.0106693 47.9862861,10.488 C47.7836184,9.96533072 47.6822861,9.41600288 47.6822861,8.84 C47.6822861,8.2533304 47.786285,7.69866928 47.9942861,7.176 C48.2022871,6.65333072 48.4902842,6.19466864 48.8582861,5.8 C49.2262879,5.40533136 49.6689501,5.09066784 50.1862861,4.856 C50.703622,4.62133216 51.2716163,4.504 51.8902861,4.504 C52.5089558,4.504 53.0796168,4.62133216 53.6022861,4.856 C54.1249553,5.09066784 54.5702842,5.40533136 54.9382861,5.8 C55.3062879,6.19466864 55.594285,6.65333072 55.8022861,7.176 C56.0102871,7.69866928 56.1142861,8.2533304 56.1142861,8.84 C56.1142861,9.41600288 56.0129537,9.96533072 55.8102861,10.488 C55.6076184,11.0106693 55.3196213,11.4693314 54.9462861,11.864 C54.5729509,12.2586686 54.127622,12.5733322 53.6102861,12.808 C53.0929501,13.0426678 52.5196225,13.16 51.8902861,13.16 Z M49.1222861,8.856 C49.1222861,9.29333552 49.1942853,9.6986648 49.3382861,10.072 C49.4822868,10.4453352 49.6796181,10.7706653 49.9302861,11.048 C50.180954,11.3253347 50.4742844,11.5439992 50.8102861,11.704 C51.1462877,11.8640008 51.5062841,11.944 51.8902861,11.944 C52.274288,11.944 52.6342844,11.8640008 52.9702861,11.704 C53.3062877,11.5439992 53.6022848,11.3226681 53.8582861,11.04 C54.1142873,10.7573319 54.3142853,10.4266686 54.4582861,10.048 C54.6022868,9.66933144 54.6742861,9.26133552 54.6742861,8.824 C54.6742861,8.3973312 54.6022868,7.99466856 54.4582861,7.616 C54.3142853,7.23733144 54.1142873,6.90666808 53.8582861,6.624 C53.6022848,6.34133192 53.3062877,6.1200008 52.9702861,5.96 C52.6342844,5.7999992 52.274288,5.72 51.8902861,5.72 C51.5062841,5.72 51.1462877,5.80266584 50.8102861,5.968 C50.4742844,6.13333416 50.180954,6.35733192 49.9302861,6.64 C49.6796181,6.92266808 49.4822868,7.25333144 49.3382861,7.632 C49.1942853,8.01066856 49.1222861,8.41866448 49.1222861,8.856 Z M58.0571433,9.272 L58.0571433,7.992 L62.7771433,7.992 L62.7771433,9.272 L58.0571433,9.272 Z M68.9760005,13.16 C68.346664,13.16 67.7706698,13.0453345 67.2480005,12.816 C66.7253312,12.5866655 66.2773357,12.2746686 65.9040005,11.88 C65.5306653,11.4853314 65.2400015,11.0240026 65.0320005,10.496 C64.8239994,9.96799736 64.7200005,9.4106696 64.7200005,8.824 C64.7200005,8.2373304 64.8239994,7.68266928 65.0320005,7.16 C65.2400015,6.63733072 65.5333319,6.17866864 65.9120005,5.784 C66.290669,5.38933136 66.7413312,5.07733448 67.2640005,4.848 C67.7866698,4.61866552 68.362664,4.504 68.9920005,4.504 C69.621337,4.504 70.1946646,4.62133216 70.7120005,4.856 C71.2293364,5.09066784 71.669332,5.40266472 72.0320005,5.792 C72.394669,6.18133528 72.6746662,6.63466408 72.8720005,7.152 C73.0693348,7.66933592 73.1680005,8.20533056 73.1680005,8.76 C73.1680005,8.87733392 73.1653338,8.98399952 73.1600005,9.08 C73.1546671,9.17600048 73.1466672,9.2506664 73.1360005,9.304 L66.2080005,9.304 C66.2400006,9.72000208 66.3359997,10.098665 66.4960005,10.44 C66.6560013,10.781335 66.8639992,11.0746654 67.1200005,11.32 C67.3760018,11.5653346 67.6666655,11.7573326 67.9920005,11.896 C68.3173354,12.0346674 68.661332,12.104 69.0240005,12.104 C69.2800018,12.104 69.5306659,12.0693337 69.7760005,12 C70.021335,11.9306663 70.2506661,11.8373339 70.4640005,11.72 C70.6773349,11.6026661 70.8666663,11.4586675 71.0320005,11.288 C71.1973346,11.1173325 71.3226667,10.9253344 71.4080005,10.712 L72.6240005,11.048 C72.4853331,11.3573349 72.2960017,11.6399987 72.0560005,11.896 C71.8159993,12.1520013 71.5386687,12.3733324 71.2240005,12.56 C70.9093322,12.7466676 70.5600024,12.8933328 70.1760005,13 C69.7919986,13.1066672 69.3920026,13.16 68.9760005,13.16 Z M71.8400005,8.264 C71.8080003,7.86933136 71.7093346,7.50400168 71.5440005,7.168 C71.3786663,6.83199832 71.1706684,6.54666784 70.9200005,6.312 C70.6693326,6.07733216 70.3786688,5.893334 70.0480005,5.76 C69.7173322,5.626666 69.3653357,5.56 68.9920005,5.56 C68.6186653,5.56 68.2666688,5.626666 67.9360005,5.76 C67.6053322,5.893334 67.3146684,6.0799988 67.0640005,6.32 C66.8133326,6.5600012 66.6106679,6.84533168 66.4560005,7.176 C66.301333,7.50666832 66.2080006,7.86933136 66.1760005,8.264 L71.8400005,8.264 Z M82.3268577,13 L80.9188577,13 L80.9188577,8.328 C80.9188577,7.43199552 80.7828591,6.78133536 80.5108577,6.376 C80.2388563,5.97066464 79.8255271,5.768 79.2708577,5.768 C78.9828563,5.768 78.6948591,5.82399944 78.4068577,5.936 C78.1188563,6.04800056 77.846859,6.19999904 77.5908577,6.392 C77.3348564,6.58400096 77.1108587,6.813332 76.9188577,7.08 C76.7268567,7.346668 76.5828582,7.6399984 76.4868577,7.96 L76.4868577,13 L75.0788577,13 L75.0788577,4.648 L76.3588577,4.648 L76.3588577,6.44 C76.689526,5.8533304 77.1668546,5.38400176 77.7908577,5.032 C78.4148608,4.67999824 79.094854,4.504 79.8308577,4.504 C80.3108601,4.504 80.7108561,4.59199912 81.0308577,4.768 C81.3508593,4.94400088 81.6068567,5.18933176 81.7988577,5.504 C81.9908587,5.81866824 82.1268573,6.1893312 82.2068577,6.616 C82.2868581,7.0426688 82.3268577,7.50666416 82.3268577,8.008 L82.3268577,13 Z M88.3017149,13.16 C87.725712,13.16 87.192384,13.0426678 86.7017149,12.808 C86.2110458,12.5733322 85.7897167,12.2586686 85.4377149,11.864 C85.0857131,11.4693314 84.8110492,11.0106693 84.6137149,10.488 C84.4163806,9.96533072 84.3177149,9.41600288 84.3177149,8.84 C84.3177149,8.2533304 84.4110473,7.69600264 84.5977149,7.168 C84.7843825,6.63999736 85.0457132,6.17866864 85.3817149,5.784 C85.7177166,5.38933136 86.1177126,5.07733448 86.5817149,4.848 C87.0457172,4.61866552 87.5550455,4.504 88.1097149,4.504 C88.7817183,4.504 89.3817123,4.67999824 89.9097149,5.032 C90.4377175,5.38400176 90.85638,5.81066416 91.1657149,6.312 L91.1657149,1.32 L92.5737149,1.32 L92.5737149,11.272 C92.5737149,11.6026683 92.7230467,11.7733333 93.0217149,11.784 L93.0217149,13 C92.8723808,13.0213334 92.752382,13.0373333 92.6617149,13.048 C92.5710478,13.0586667 92.4830487,13.064 92.3977149,13.064 C92.1203802,13.064 91.8777159,12.9706676 91.6697149,12.784 C91.4617139,12.5973324 91.3577149,12.3813346 91.3577149,12.136 L91.3577149,11.432 C91.0270466,11.9760027 90.587051,12.3999985 90.0377149,12.704 C89.4883788,13.0080015 88.9097179,13.16 88.3017149,13.16 Z M88.6377149,11.944 C88.8937162,11.944 89.1577135,11.8960005 89.4297149,11.8 C89.7017163,11.7039995 89.9577137,11.5706675 90.1977149,11.4 C90.4377161,11.2293325 90.645714,11.0293345 90.8217149,10.8 C90.9977158,10.5706655 91.1123813,10.3280013 91.1657149,10.072 L91.1657149,7.672 C91.0697144,7.405332 90.9257159,7.1520012 90.7337149,6.912 C90.5417139,6.6719988 90.3257161,6.46400088 90.0857149,6.288 C89.8457137,6.11199912 89.5897163,5.97333384 89.3177149,5.872 C89.0457135,5.77066616 88.7763829,5.72 88.5097149,5.72 C88.0937128,5.72 87.7177166,5.80799912 87.3817149,5.984 C87.0457132,6.16000088 86.7577161,6.3946652 86.5177149,6.688 C86.2777137,6.9813348 86.0937155,7.31733144 85.9657149,7.696 C85.8377143,8.07466856 85.7737149,8.46133136 85.7737149,8.856 C85.7737149,9.27200208 85.8483808,9.66933144 85.9977149,10.048 C86.147049,10.4266686 86.3497136,10.7546653 86.6057149,11.032 C86.8617162,11.3093347 87.1630465,11.5306658 87.5097149,11.696 C87.8563833,11.8613342 88.2323795,11.944 88.6377149,11.944 Z M102.587429,13.16 C101.915426,13.16 101.254099,13.056001 100.603429,12.848 C99.9527594,12.639999 99.392765,12.3386686 98.9234293,11.944 L99.5314293,11 C100.022098,11.3733352 100.51276,11.6533324 101.003429,11.84 C101.494098,12.0266676 102.011427,12.12 102.555429,12.12 C103.163432,12.12 103.646094,12.0000012 104.003429,11.76 C104.360764,11.5199988 104.539429,11.1813355 104.539429,10.744 C104.539429,10.5413323 104.49143,10.3680007 104.395429,10.224 C104.299429,10.0799993 104.15543,9.9546672 103.963429,9.848 C103.771428,9.7413328 103.526097,9.64533376 103.227429,9.56 C102.928761,9.47466624 102.582098,9.38400048 102.187429,9.288 C101.686093,9.15999936 101.254098,9.03733392 100.891429,8.92 C100.528761,8.80266608 100.230097,8.6640008 99.9954293,8.504 C99.7607615,8.3439992 99.5900965,8.15200112 99.4834293,7.928 C99.3767621,7.70399888 99.3234293,7.42666832 99.3234293,7.096 C99.3234293,6.67999792 99.4060952,6.30933496 99.5714293,5.984 C99.7367635,5.65866504 99.9634279,5.38666776 100.251429,5.168 C100.539431,4.94933224 100.878094,4.78400056 101.267429,4.672 C101.656765,4.55999944 102.075427,4.504 102.523429,4.504 C103.152766,4.504 103.739427,4.60533232 104.283429,4.808 C104.827432,5.01066768 105.286094,5.27733168 105.659429,5.608 L105.019429,6.456 C104.667428,6.14666512 104.272765,5.91466744 103.835429,5.76 C103.398094,5.60533256 102.950098,5.528 102.491429,5.528 C101.979427,5.528 101.544764,5.63733224 101.187429,5.856 C100.830094,6.07466776 100.651429,6.4239976 100.651429,6.904 C100.651429,7.09600096 100.686096,7.25599936 100.755429,7.384 C100.824763,7.51200064 100.939429,7.62399952 101.099429,7.72 C101.25943,7.81600048 101.464761,7.90133296 101.715429,7.976 C101.966097,8.05066704 102.267428,8.13066624 102.619429,8.216 C103.174099,8.34400064 103.656761,8.474666 104.067429,8.608 C104.478098,8.741334 104.819428,8.89866576 105.091429,9.08 C105.363431,9.26133424 105.566095,9.47466544 105.699429,9.72 C105.832763,9.96533456 105.899429,10.2639982 105.899429,10.616 C105.899429,11.3946706 105.600766,12.013331 105.003429,12.472 C104.406093,12.930669 103.600768,13.16 102.587429,13.16 Z M111.554287,13.16 C110.92495,13.16 110.351622,13.0426678 109.834287,12.808 C109.316951,12.5733322 108.874288,12.2586686 108.506287,11.864 C108.138285,11.4693314 107.852954,11.0106693 107.650287,10.488 C107.447619,9.96533072 107.346287,9.41600288 107.346287,8.84 C107.346287,8.2533304 107.450286,7.69866928 107.658287,7.176 C107.866288,6.65333072 108.154285,6.19466864 108.522287,5.8 C108.890288,5.40533136 109.332951,5.09066784 109.850287,4.856 C110.367622,4.62133216 110.935617,4.504 111.554287,4.504 C112.172956,4.504 112.743617,4.62133216 113.266287,4.856 C113.788956,5.09066784 114.234285,5.40533136 114.602287,5.8 C114.970288,6.19466864 115.258286,6.65333072 115.466287,7.176 C115.674288,7.69866928 115.778287,8.2533304 115.778287,8.84 C115.778287,9.41600288 115.676954,9.96533072 115.474287,10.488 C115.271619,11.0106693 114.983622,11.4693314 114.610287,11.864 C114.236951,12.2586686 113.791622,12.5733322 113.274287,12.808 C112.756951,13.0426678 112.183623,13.16 111.554287,13.16 Z M108.786287,8.856 C108.786287,9.29333552 108.858286,9.6986648 109.002287,10.072 C109.146287,10.4453352 109.343619,10.7706653 109.594287,11.048 C109.844954,11.3253347 110.138285,11.5439992 110.474287,11.704 C110.810288,11.8640008 111.170285,11.944 111.554287,11.944 C111.938288,11.944 112.298285,11.8640008 112.634287,11.704 C112.970288,11.5439992 113.266285,11.3226681 113.522287,11.04 C113.778288,10.7573319 113.978286,10.4266686 114.122287,10.048 C114.266287,9.66933144 114.338287,9.26133552 114.338287,8.824 C114.338287,8.3973312 114.266287,7.99466856 114.122287,7.616 C113.978286,7.23733144 113.778288,6.90666808 113.522287,6.624 C113.266285,6.34133192 112.970288,6.1200008 112.634287,5.96 C112.298285,5.7999992 111.938288,5.72 111.554287,5.72 C111.170285,5.72 110.810288,5.80266584 110.474287,5.968 C110.138285,6.13333416 109.844954,6.35733192 109.594287,6.64 C109.343619,6.92266808 109.146287,7.25333144 109.002287,7.632 C108.858286,8.01066856 108.786287,8.41866448 108.786287,8.856 Z M117.865144,1.32 L119.273144,1.32 L119.273144,10.84 C119.273144,11.1493349 119.35581,11.3919991 119.521144,11.568 C119.686478,11.7440009 119.918476,11.832 120.217144,11.832 C120.334478,11.832 120.473143,11.8133335 120.633144,11.776 C120.793145,11.7386665 120.942476,11.6933336 121.081144,11.64 L121.305144,12.776 C121.070476,12.8720005 120.793145,12.9519997 120.473144,13.016 C120.153142,13.0800003 119.870478,13.112 119.625144,13.112 C119.081141,13.112 118.651812,12.9573349 118.337144,12.648 C118.022476,12.3386651 117.865144,11.9066694 117.865144,11.352 L117.865144,1.32 Z M125.328001,13.16 C124.45333,13.16 123.792003,12.8666696 123.344001,12.28 C122.895999,11.6933304 122.672001,10.8186725 122.672001,9.656 L122.672001,4.648 L124.080001,4.648 L124.080001,9.384 C124.080001,11.0906752 124.671995,11.944 125.856001,11.944 C126.432004,11.944 126.973332,11.7600018 127.480001,11.392 C127.98667,11.0239982 128.362666,10.5200032 128.608001,9.88 L128.608001,4.648 L130.016001,4.648 L130.016001,11.272 C130.016001,11.6026683 130.165333,11.7733333 130.464001,11.784 L130.464001,13 C130.304,13.0213334 130.178668,13.0346666 130.088001,13.04 C129.997334,13.0453334 129.909335,13.048 129.824001,13.048 C129.546666,13.048 129.314669,12.9653342 129.128001,12.8 C128.941333,12.6346658 128.842668,12.4293346 128.832001,12.184 L128.800001,11.208 C128.426666,11.8373365 127.936004,12.3199983 127.328001,12.656 C126.719998,12.9920017 126.053338,13.16 125.328001,13.16 Z M137.030858,12.584 C136.945524,12.6266669 136.833526,12.677333 136.694858,12.736 C136.556191,12.794667 136.398859,12.853333 136.222858,12.912 C136.046857,12.970667 135.854859,13.0186665 135.646858,13.056 C135.438857,13.0933335 135.222859,13.112 134.998858,13.112 C134.486856,13.112 134.044193,12.9706681 133.670858,12.688 C133.297523,12.4053319 133.110858,11.9653363 133.110858,11.368 L133.110858,5.752 L131.974858,5.752 L131.974858,4.648 L133.110858,4.648 L133.110858,1.864 L134.518858,1.864 L134.518858,4.648 L136.390858,4.648 L136.390858,5.752 L134.518858,5.752 L134.518858,10.936 C134.540192,11.2453349 134.641524,11.4693326 134.822858,11.608 C135.004192,11.7466674 135.217524,11.816 135.462858,11.816 C135.740193,11.816 135.993524,11.7706671 136.222858,11.68 C136.452193,11.5893329 136.609524,11.5173336 136.694858,11.464 L137.030858,12.584 Z M138.685715,13 L138.685715,4.648 L140.093715,4.648 L140.093715,13 L138.685715,13 Z M138.685715,3.08 L138.685715,1.32 L140.093715,1.32 L140.093715,3.08 L138.685715,3.08 Z M146.356573,13.16 C145.727236,13.16 145.153909,13.0426678 144.636573,12.808 C144.119237,12.5733322 143.676574,12.2586686 143.308573,11.864 C142.940571,11.4693314 142.65524,11.0106693 142.452573,10.488 C142.249905,9.96533072 142.148573,9.41600288 142.148573,8.84 C142.148573,8.2533304 142.252572,7.69866928 142.460573,7.176 C142.668574,6.65333072 142.956571,6.19466864 143.324573,5.8 C143.692574,5.40533136 144.135237,5.09066784 144.652573,4.856 C145.169909,4.62133216 145.737903,4.504 146.356573,4.504 C146.975242,4.504 147.545903,4.62133216 148.068573,4.856 C148.591242,5.09066784 149.036571,5.40533136 149.404573,5.8 C149.772574,6.19466864 150.060572,6.65333072 150.268573,7.176 C150.476574,7.69866928 150.580573,8.2533304 150.580573,8.84 C150.580573,9.41600288 150.47924,9.96533072 150.276573,10.488 C150.073905,11.0106693 149.785908,11.4693314 149.412573,11.864 C149.039237,12.2586686 148.593909,12.5733322 148.076573,12.808 C147.559237,13.0426678 146.985909,13.16 146.356573,13.16 Z M143.588573,8.856 C143.588573,9.29333552 143.660572,9.6986648 143.804573,10.072 C143.948573,10.4453352 144.145905,10.7706653 144.396573,11.048 C144.647241,11.3253347 144.940571,11.5439992 145.276573,11.704 C145.612574,11.8640008 145.972571,11.944 146.356573,11.944 C146.740575,11.944 147.100571,11.8640008 147.436573,11.704 C147.772574,11.5439992 148.068571,11.3226681 148.324573,11.04 C148.580574,10.7573319 148.780572,10.4266686 148.924573,10.048 C149.068573,9.66933144 149.140573,9.26133552 149.140573,8.824 C149.140573,8.3973312 149.068573,7.99466856 148.924573,7.616 C148.780572,7.23733144 148.580574,6.90666808 148.324573,6.624 C148.068571,6.34133192 147.772574,6.1200008 147.436573,5.96 C147.100571,5.7999992 146.740575,5.72 146.356573,5.72 C145.972571,5.72 145.612574,5.80266584 145.276573,5.968 C144.940571,6.13333416 144.647241,6.35733192 144.396573,6.64 C144.145905,6.92266808 143.948573,7.25333144 143.804573,7.632 C143.660572,8.01066856 143.588573,8.41866448 143.588573,8.856 Z M159.88343,13 L158.47543,13 L158.47543,8.328 C158.47543,7.43199552 158.339431,6.78133536 158.06743,6.376 C157.795428,5.97066464 157.382099,5.768 156.82743,5.768 C156.539428,5.768 156.251431,5.82399944 155.96343,5.936 C155.675428,6.04800056 155.403431,6.19999904 155.14743,6.392 C154.891429,6.58400096 154.667431,6.813332 154.47543,7.08 C154.283429,7.346668 154.13943,7.6399984 154.04343,7.96 L154.04343,13 L152.63543,13 L152.63543,4.648 L153.91543,4.648 L153.91543,6.44 C154.246098,5.8533304 154.723427,5.38400176 155.34743,5.032 C155.971433,4.67999824 156.651426,4.504 157.38743,4.504 C157.867432,4.504 158.267428,4.59199912 158.58743,4.768 C158.907431,4.94400088 159.163429,5.18933176 159.35543,5.504 C159.547431,5.81866824 159.683429,6.1893312 159.76343,6.616 C159.84343,7.0426688 159.88343,7.50666416 159.88343,8.008 L159.88343,13 Z M167.257144,13 L167.257144,5.752 L166.121144,5.752 L166.121144,4.648 L167.257144,4.648 L167.257144,4.472 C167.257144,3.43732816 167.486475,2.6266696 167.945144,2.04 C168.403813,1.4533304 169.027807,1.16 169.817144,1.16 C170.147813,1.16 170.473143,1.20533288 170.793144,1.296 C171.113146,1.38666712 171.401143,1.5119992 171.657144,1.672 L171.305144,2.712 C171.15581,2.6053328 170.971812,2.52000032 170.753144,2.456 C170.534476,2.39199968 170.318479,2.36 170.105144,2.36 C169.635809,2.36 169.278479,2.53599824 169.033144,2.888 C168.78781,3.24000176 168.665144,3.75199664 168.665144,4.424 L168.665144,4.648 L170.889144,4.648 L170.889144,5.752 L168.665144,5.752 L168.665144,13 L167.257144,13 Z M176.096001,13.16 C175.466665,13.16 174.893337,13.0426678 174.376001,12.808 C173.858666,12.5733322 173.416003,12.2586686 173.048001,11.864 C172.68,11.4693314 172.394669,11.0106693 172.192001,10.488 C171.989334,9.96533072 171.888001,9.41600288 171.888001,8.84 C171.888001,8.2533304 171.992,7.69866928 172.200001,7.176 C172.408002,6.65333072 172.696,6.19466864 173.064001,5.8 C173.432003,5.40533136 173.874666,5.09066784 174.392001,4.856 C174.909337,4.62133216 175.477332,4.504 176.096001,4.504 C176.714671,4.504 177.285332,4.62133216 177.808001,4.856 C178.330671,5.09066784 178.776,5.40533136 179.144001,5.8 C179.512003,6.19466864 179.8,6.65333072 180.008001,7.176 C180.216002,7.69866928 180.320001,8.2533304 180.320001,8.84 C180.320001,9.41600288 180.218669,9.96533072 180.016001,10.488 C179.813334,11.0106693 179.525337,11.4693314 179.152001,11.864 C178.778666,12.2586686 178.333337,12.5733322 177.816001,12.808 C177.298666,13.0426678 176.725338,13.16 176.096001,13.16 Z M173.328001,8.856 C173.328001,9.29333552 173.400001,9.6986648 173.544001,10.072 C173.688002,10.4453352 173.885334,10.7706653 174.136001,11.048 C174.386669,11.3253347 174.68,11.5439992 175.016001,11.704 C175.352003,11.8640008 175.712,11.944 176.096001,11.944 C176.480003,11.944 176.84,11.8640008 177.176001,11.704 C177.512003,11.5439992 177.808,11.3226681 178.064001,11.04 C178.320003,10.7573319 178.520001,10.4266686 178.664001,10.048 C178.808002,9.66933144 178.880001,9.26133552 178.880001,8.824 C178.880001,8.3973312 178.808002,7.99466856 178.664001,7.616 C178.520001,7.23733144 178.320003,6.90666808 178.064001,6.624 C177.808,6.34133192 177.512003,6.1200008 177.176001,5.96 C176.84,5.7999992 176.480003,5.72 176.096001,5.72 C175.712,5.72 175.352003,5.80266584 175.016001,5.968 C174.68,6.13333416 174.386669,6.35733192 174.136001,6.64 C173.885334,6.92266808 173.688002,7.25333144 173.544001,7.632 C173.400001,8.01066856 173.328001,8.41866448 173.328001,8.856 Z M186.790859,5.88 C186.086855,5.90133344 185.465528,6.08266496 184.926859,6.424 C184.388189,6.76533504 184.00686,7.23999696 183.782859,7.848 L183.782859,13 L182.374859,13 L182.374859,4.648 L183.686859,4.648 L183.686859,6.584 C183.97486,6.00799712 184.353523,5.54133512 184.822859,5.184 C185.292194,4.82666488 185.793523,4.62666688 186.326859,4.584 L186.598859,4.584 C186.673526,4.584 186.737525,4.58933328 186.790859,4.6 L186.790859,5.88 Z M191.988573,8.808 C191.988573,8.2213304 192.089905,7.66666928 192.292573,7.144 C192.495241,6.62133072 192.783238,6.16533528 193.156573,5.776 C193.529908,5.38666472 193.975237,5.07733448 194.492573,4.848 C195.009909,4.61866552 195.58857,4.504 196.228573,4.504 C197.060577,4.504 197.777903,4.68799816 198.380573,5.056 C198.983243,5.42400184 199.439238,5.91733024 199.748573,6.536 L198.372573,6.968 C198.159239,6.57333136 197.860575,6.26666776 197.476573,6.048 C197.092571,5.82933224 196.665909,5.72 196.196573,5.72 C195.812571,5.72 195.449908,5.79733256 195.108573,5.952 C194.767238,6.10666744 194.473908,6.32266528 194.228573,6.6 C193.983239,6.87733472 193.788574,7.2026648 193.644573,7.576 C193.500572,7.9493352 193.428573,8.35999776 193.428573,8.808 C193.428573,9.24533552 193.503239,9.65599808 193.652573,10.04 C193.801907,10.4240019 194.001905,10.7573319 194.252573,11.04 C194.503241,11.3226681 194.796571,11.5439992 195.132573,11.704 C195.468575,11.8640008 195.828571,11.944 196.212573,11.944 C196.457908,11.944 196.700572,11.9093337 196.940573,11.84 C197.180574,11.7706663 197.399239,11.6773339 197.596573,11.56 C197.793907,11.4426661 197.967239,11.3066674 198.116573,11.152 C198.265907,10.9973326 198.372573,10.8293342 198.436573,10.648 L199.812573,11.064 C199.684572,11.3733349 199.505908,11.6559987 199.276573,11.912 C199.047239,12.1680013 198.777908,12.3866658 198.468573,12.568 C198.159238,12.7493342 197.815242,12.8933328 197.436573,13 C197.057905,13.1066672 196.660575,13.16 196.244573,13.16 C195.615237,13.16 195.039242,13.0426678 194.516573,12.808 C193.993904,12.5733322 193.545908,12.2586686 193.172573,11.864 C192.799238,11.4693314 192.508574,11.0080026 192.300573,10.48 C192.092572,9.95199736 191.988573,9.3946696 191.988573,8.808 Z M206.17143,5.88 C205.467427,5.90133344 204.8461,6.08266496 204.30743,6.424 C203.768761,6.76533504 203.387431,7.23999696 203.16343,7.848 L203.16343,13 L201.75543,13 L201.75543,4.648 L203.06743,4.648 L203.06743,6.584 C203.355432,6.00799712 203.734095,5.54133512 204.20343,5.184 C204.672766,4.82666488 205.174094,4.62666688 205.70743,4.584 L205.97943,4.584 C206.054097,4.584 206.118097,4.58933328 206.17143,4.6 L206.17143,5.88 Z M211.410288,13.16 C210.780951,13.16 210.204957,13.0453345 209.682288,12.816 C209.159618,12.5866655 208.711623,12.2746686 208.338288,11.88 C207.964952,11.4853314 207.674289,11.0240026 207.466288,10.496 C207.258286,9.96799736 207.154288,9.4106696 207.154288,8.824 C207.154288,8.2373304 207.258286,7.68266928 207.466288,7.16 C207.674289,6.63733072 207.967619,6.17866864 208.346288,5.784 C208.724956,5.38933136 209.175618,5.07733448 209.698288,4.848 C210.220957,4.61866552 210.796951,4.504 211.426288,4.504 C212.055624,4.504 212.628952,4.62133216 213.146288,4.856 C213.663623,5.09066784 214.103619,5.40266472 214.466288,5.792 C214.828956,6.18133528 215.108953,6.63466408 215.306288,7.152 C215.503622,7.66933592 215.602288,8.20533056 215.602288,8.76 C215.602288,8.87733392 215.599621,8.98399952 215.594288,9.08 C215.588954,9.17600048 215.580954,9.2506664 215.570288,9.304 L208.642288,9.304 C208.674288,9.72000208 208.770287,10.098665 208.930288,10.44 C209.090288,10.781335 209.298286,11.0746654 209.554288,11.32 C209.810289,11.5653346 210.100953,11.7573326 210.426288,11.896 C210.751622,12.0346674 211.095619,12.104 211.458288,12.104 C211.714289,12.104 211.964953,12.0693337 212.210288,12 C212.455622,11.9306663 212.684953,11.8373339 212.898288,11.72 C213.111622,11.6026661 213.300953,11.4586675 213.466288,11.288 C213.631622,11.1173325 213.756954,10.9253344 213.842288,10.712 L215.058288,11.048 C214.91962,11.3573349 214.730289,11.6399987 214.490288,11.896 C214.250286,12.1520013 213.972956,12.3733324 213.658288,12.56 C213.343619,12.7466676 212.994289,12.8933328 212.610288,13 C212.226286,13.1066672 211.82629,13.16 211.410288,13.16 Z M214.274288,8.264 C214.242287,7.86933136 214.143622,7.50400168 213.978288,7.168 C213.812953,6.83199832 213.604955,6.54666784 213.354288,6.312 C213.10362,6.07733216 212.812956,5.893334 212.482288,5.76 C212.151619,5.626666 211.799623,5.56 211.426288,5.56 C211.052952,5.56 210.700956,5.626666 210.370288,5.76 C210.039619,5.893334 209.748955,6.0799988 209.498288,6.32 C209.24762,6.5600012 209.044955,6.84533168 208.890288,7.176 C208.73562,7.50666832 208.642288,7.86933136 208.610288,8.264 L214.274288,8.264 Z M219.657145,13.16 C219.262476,13.16 218.89448,13.093334 218.553145,12.96 C218.21181,12.826666 217.915813,12.6426678 217.665145,12.408 C217.414477,12.1733322 217.217145,11.8986682 217.073145,11.584 C216.929144,11.2693318 216.857145,10.9253352 216.857145,10.552 C216.857145,10.1679981 216.942477,9.81866824 217.113145,9.504 C217.283812,9.18933176 217.526476,8.92000112 217.841145,8.696 C218.155813,8.47199888 218.529143,8.29600064 218.961145,8.168 C219.393147,8.03999936 219.865142,7.976 220.377145,7.976 C220.78248,7.976 221.193143,8.01333296 221.609145,8.088 C222.025147,8.16266704 222.393143,8.26399936 222.713145,8.392 L222.713145,7.72 C222.713145,7.03732992 222.521147,6.50133528 222.137145,6.112 C221.753143,5.72266472 221.209148,5.528 220.505145,5.528 C219.662474,5.528 218.777149,5.85333008 217.849145,6.504 L217.385145,5.592 C218.462483,4.86666304 219.545139,4.504 220.633145,4.504 C221.731817,4.504 222.587808,4.7973304 223.201145,5.384 C223.814481,5.9706696 224.121145,6.797328 224.121145,7.864 L224.121145,11.272 C224.121145,11.6026683 224.270477,11.7733333 224.569145,11.784 L224.569145,13 C224.419811,13.0213334 224.297145,13.0373333 224.201145,13.048 C224.105144,13.0586667 224.003812,13.064 223.897145,13.064 C223.61981,13.064 223.398479,12.9813342 223.233145,12.816 C223.067811,12.6506658 222.969145,12.4506678 222.937145,12.216 L222.905145,11.624 C222.53181,12.1253358 222.059814,12.5066654 221.489145,12.768 C220.918475,13.0293346 220.307815,13.16 219.657145,13.16 Z M220.025145,12.104 C220.526481,12.104 220.993143,12.0106676 221.425145,11.824 C221.857147,11.6373324 222.185144,11.3893349 222.409145,11.08 C222.611812,10.8773323 222.713145,10.6693344 222.713145,10.456 L222.713145,9.224 C222.030475,8.957332 221.321148,8.824 220.585145,8.824 C219.881141,8.824 219.307814,8.97333184 218.865145,9.272 C218.422476,9.57066816 218.201145,9.9599976 218.201145,10.44 C218.201145,10.6746678 218.246478,10.8933323 218.337145,11.096 C218.427812,11.2986677 218.555811,11.4746659 218.721145,11.624 C218.886479,11.7733341 219.081144,11.8906662 219.305145,11.976 C219.529146,12.0613338 219.769143,12.104 220.025145,12.104 Z M230.976002,12.584 C230.890668,12.6266669 230.778669,12.677333 230.640002,12.736 C230.501335,12.794667 230.344003,12.853333 230.168002,12.912 C229.992001,12.970667 229.800003,13.0186665 229.592002,13.056 C229.384001,13.0933335 229.168003,13.112 228.944002,13.112 C228.431999,13.112 227.989337,12.9706681 227.616002,12.688 C227.242667,12.4053319 227.056002,11.9653363 227.056002,11.368 L227.056002,5.752 L225.920002,5.752 L225.920002,4.648 L227.056002,4.648 L227.056002,1.864 L228.464002,1.864 L228.464002,4.648 L230.336002,4.648 L230.336002,5.752 L228.464002,5.752 L228.464002,10.936 C228.485335,11.2453349 228.586668,11.4693326 228.768002,11.608 C228.949336,11.7466674 229.162667,11.816 229.408002,11.816 C229.685337,11.816 229.938667,11.7706671 230.168002,11.68 C230.397336,11.5893329 230.554668,11.5173336 230.640002,11.464 L230.976002,12.584 Z M232.630859,13 L232.630859,4.648 L234.038859,4.648 L234.038859,13 L232.630859,13 Z M232.630859,3.08 L232.630859,1.32 L234.038859,1.32 L234.038859,3.08 L232.630859,3.08 Z M243.901716,13 L242.493716,13 L242.493716,8.328 C242.493716,7.43199552 242.357718,6.78133536 242.085716,6.376 C241.813715,5.97066464 241.400386,5.768 240.845716,5.768 C240.557715,5.768 240.269718,5.82399944 239.981716,5.936 C239.693715,6.04800056 239.421718,6.19999904 239.165716,6.392 C238.909715,6.58400096 238.685717,6.813332 238.493716,7.08 C238.301715,7.346668 238.157717,7.6399984 238.061716,7.96 L238.061716,13 L236.653716,13 L236.653716,4.648 L237.933716,4.648 L237.933716,6.44 C238.264385,5.8533304 238.741713,5.38400176 239.365716,5.032 C239.989719,4.67999824 240.669713,4.504 241.405716,4.504 C241.885719,4.504 242.285715,4.59199912 242.605716,4.768 C242.925718,4.94400088 243.181715,5.18933176 243.373716,5.504 C243.565717,5.81866824 243.701716,6.1893312 243.781716,6.616 C243.861717,7.0426688 243.901716,7.50666416 243.901716,8.008 L243.901716,13 Z M249.764574,13.096 C249.199237,13.096 248.679243,12.9786678 248.204574,12.744 C247.729905,12.5093322 247.321909,12.1946686 246.980574,11.8 C246.639239,11.4053314 246.375241,10.9520026 246.188574,10.44 C246.001906,9.92799744 245.908574,9.39466944 245.908574,8.84 C245.908574,8.2533304 246.001906,7.69600264 246.188574,7.168 C246.375241,6.63999736 246.639239,6.17866864 246.980574,5.784 C247.321909,5.38933136 247.729905,5.07733448 248.204574,4.848 C248.679243,4.61866552 249.204571,4.504 249.780574,4.504 C250.484577,4.504 251.092571,4.67466496 251.604574,5.016 C252.116576,5.35733504 252.548572,5.78933072 252.900574,6.312 L252.900574,4.648 L254.148574,4.648 L254.148574,12.904 C254.148574,13.5013363 254.036575,14.0266644 253.812574,14.48 C253.588572,14.9333356 253.284575,15.3146651 252.900574,15.624 C252.516572,15.9333349 252.065909,16.1679992 251.548574,16.328 C251.031238,16.4880008 250.479243,16.568 249.892574,16.568 C248.943235,16.568 248.172577,16.405335 247.580574,16.08 C246.988571,15.754665 246.495242,15.3040029 246.100574,14.728 L246.916574,14.008 C247.247242,14.4986691 247.673904,14.8666654 248.196574,15.112 C248.719243,15.3573346 249.284571,15.48 249.892574,15.48 C250.276575,15.48 250.641905,15.4266672 250.988574,15.32 C251.335242,15.2133328 251.636572,15.0533344 251.892574,14.84 C252.148575,14.6266656 252.353906,14.3600016 252.508574,14.04 C252.663241,13.7199984 252.740574,13.3413355 252.740574,12.904 L252.740574,11.432 C252.580573,11.6880013 252.391241,11.919999 252.172574,12.128 C251.953906,12.336001 251.716575,12.5119993 251.460574,12.656 C251.204572,12.8000007 250.932575,12.909333 250.644574,12.984 C250.356572,13.058667 250.063242,13.096 249.764574,13.096 Z M250.196574,11.944 C250.495242,11.944 250.783239,11.8906672 251.060574,11.784 C251.337908,11.6773328 251.593906,11.5360009 251.828574,11.36 C252.063241,11.1839991 252.260573,10.9840011 252.420574,10.76 C252.580574,10.5359989 252.68724,10.3066678 252.740574,10.072 L252.740574,7.672 C252.62324,7.38399856 252.471241,7.12266784 252.284574,6.888 C252.097906,6.65333216 251.887241,6.44800088 251.652574,6.272 C251.417906,6.09599912 251.164575,5.96000048 250.892574,5.864 C250.620572,5.76799952 250.345908,5.72 250.068574,5.72 C249.641905,5.72 249.260575,5.81066576 248.924574,5.992 C248.588572,6.17333424 248.303241,6.41333184 248.068574,6.712 C247.833906,7.01066816 247.652574,7.34933144 247.524574,7.728 C247.396573,8.10666856 247.332574,8.48799808 247.332574,8.872 C247.332574,9.28800208 247.407239,9.6826648 247.556574,10.056 C247.705908,10.4293352 247.908572,10.7546653 248.164574,11.032 C248.420575,11.3093347 248.721905,11.5306658 249.068574,11.696 C249.415242,11.8613342 249.791238,11.944 250.196574,11.944 Z M256.811431,14.296 L257.131431,12.872 L256.651431,12.872 L256.651431,11.208 L257.979431,11.208 L257.979431,12.872 L257.499431,14.296 L256.811431,14.296 Z M277.465145,13 L276.057145,13 L276.057145,8.328 C276.057145,7.45332896 275.915813,6.80800208 275.633145,6.392 C275.350477,5.97599792 274.931815,5.768 274.377145,5.768 C273.801142,5.768 273.286481,5.97333128 272.833145,6.384 C272.37981,6.79466872 272.057146,7.32533008 271.865145,7.976 L271.865145,13 L270.457145,13 L270.457145,8.328 C270.457145,7.43199552 270.31848,6.78133536 270.041145,6.376 C269.76381,5.97066464 269.347815,5.768 268.793145,5.768 C268.227809,5.768 267.715814,5.967998 267.257145,6.368 C266.798476,6.768002 266.473146,7.29866336 266.281145,7.96 L266.281145,13 L264.873145,13 L264.873145,4.648 L266.153145,4.648 L266.153145,6.44 C266.49448,5.82133024 266.937142,5.34400168 267.481145,5.008 C268.025148,4.67199832 268.638475,4.504 269.321145,4.504 C270.025149,4.504 270.582476,4.69333144 270.993145,5.072 C271.403814,5.45066856 271.657145,5.93866368 271.753145,6.536 C272.499816,5.18132656 273.561138,4.504 274.937145,4.504 C275.417148,4.504 275.81981,4.59199912 276.145145,4.768 C276.47048,4.94400088 276.729144,5.18933176 276.921145,5.504 C277.113146,5.81866824 277.251811,6.1893312 277.337145,6.616 C277.422479,7.0426688 277.465145,7.50666416 277.465145,8.008 L277.465145,13 Z M282.144002,13.16 C281.749334,13.16 281.381337,13.093334 281.040002,12.96 C280.698667,12.826666 280.40267,12.6426678 280.152002,12.408 C279.901334,12.1733322 279.704003,11.8986682 279.560002,11.584 C279.416002,11.2693318 279.344002,10.9253352 279.344002,10.552 C279.344002,10.1679981 279.429335,9.81866824 279.600002,9.504 C279.77067,9.18933176 280.013334,8.92000112 280.328002,8.696 C280.642671,8.47199888 281.016,8.29600064 281.448002,8.168 C281.880005,8.03999936 282.352,7.976 282.864002,7.976 C283.269338,7.976 283.68,8.01333296 284.096002,8.088 C284.512004,8.16266704 284.880001,8.26399936 285.200002,8.392 L285.200002,7.72 C285.200002,7.03732992 285.008004,6.50133528 284.624002,6.112 C284.24,5.72266472 283.696006,5.528 282.992002,5.528 C282.149332,5.528 281.264007,5.85333008 280.336002,6.504 L279.872002,5.592 C280.949341,4.86666304 282.031997,4.504 283.120002,4.504 C284.218675,4.504 285.074666,4.7973304 285.688002,5.384 C286.301339,5.9706696 286.608002,6.797328 286.608002,7.864 L286.608002,11.272 C286.608002,11.6026683 286.757334,11.7733333 287.056002,11.784 L287.056002,13 C286.906668,13.0213334 286.784003,13.0373333 286.688002,13.048 C286.592002,13.0586667 286.49067,13.064 286.384002,13.064 C286.106668,13.064 285.885337,12.9813342 285.720002,12.816 C285.554668,12.6506658 285.456003,12.4506678 285.424002,12.216 L285.392002,11.624 C285.018667,12.1253358 284.546672,12.5066654 283.976002,12.768 C283.405333,13.0293346 282.794672,13.16 282.144002,13.16 Z M282.512002,12.104 C283.013338,12.104 283.48,12.0106676 283.912002,11.824 C284.344005,11.6373324 284.672001,11.3893349 284.896002,11.08 C285.09867,10.8773323 285.200002,10.6693344 285.200002,10.456 L285.200002,9.224 C284.517332,8.957332 283.808006,8.824 283.072002,8.824 C282.367999,8.824 281.794671,8.97333184 281.352002,9.272 C280.909334,9.57066816 280.688002,9.9599976 280.688002,10.44 C280.688002,10.6746678 280.733335,10.8933323 280.824002,11.096 C280.91467,11.2986677 281.042668,11.4746659 281.208002,11.624 C281.373337,11.7733341 281.568001,11.8906662 281.792002,11.976 C282.016004,12.0613338 282.256001,12.104 282.512002,12.104 Z M296.45486,13 L295.04686,13 L295.04686,8.328 C295.04686,7.43199552 294.910861,6.78133536 294.63886,6.376 C294.366858,5.97066464 293.953529,5.768 293.39886,5.768 C293.110858,5.768 292.822861,5.82399944 292.53486,5.936 C292.246858,6.04800056 291.974861,6.19999904 291.71886,6.392 C291.462858,6.58400096 291.238861,6.813332 291.04686,7.08 C290.854859,7.346668 290.71086,7.6399984 290.61486,7.96 L290.61486,13 L289.20686,13 L289.20686,4.648 L290.48686,4.648 L290.48686,6.44 C290.817528,5.8533304 291.294857,5.38400176 291.91886,5.032 C292.542863,4.67999824 293.222856,4.504 293.95886,4.504 C294.438862,4.504 294.838858,4.59199912 295.15886,4.768 C295.478861,4.94400088 295.734859,5.18933176 295.92686,5.504 C296.118861,5.81866824 296.254859,6.1893312 296.33486,6.616 C296.41486,7.0426688 296.45486,7.50666416 296.45486,8.008 L296.45486,13 Z M301.133717,13.16 C300.739048,13.16 300.371052,13.093334 300.029717,12.96 C299.688382,12.826666 299.392385,12.6426678 299.141717,12.408 C298.891049,12.1733322 298.693718,11.8986682 298.549717,11.584 C298.405716,11.2693318 298.333717,10.9253352 298.333717,10.552 C298.333717,10.1679981 298.419049,9.81866824 298.589717,9.504 C298.760384,9.18933176 299.003049,8.92000112 299.317717,8.696 C299.632385,8.47199888 300.005715,8.29600064 300.437717,8.168 C300.869719,8.03999936 301.341714,7.976 301.853717,7.976 C302.259052,7.976 302.669715,8.01333296 303.085717,8.088 C303.501719,8.16266704 303.869715,8.26399936 304.189717,8.392 L304.189717,7.72 C304.189717,7.03732992 303.997719,6.50133528 303.613717,6.112 C303.229715,5.72266472 302.68572,5.528 301.981717,5.528 C301.139046,5.528 300.253721,5.85333008 299.325717,6.504 L298.861717,5.592 C299.939056,4.86666304 301.021711,4.504 302.109717,4.504 C303.208389,4.504 304.06438,4.7973304 304.677717,5.384 C305.291053,5.9706696 305.597717,6.797328 305.597717,7.864 L305.597717,11.272 C305.597717,11.6026683 305.747049,11.7733333 306.045717,11.784 L306.045717,13 C305.896383,13.0213334 305.773717,13.0373333 305.677717,13.048 C305.581716,13.0586667 305.480384,13.064 305.373717,13.064 C305.096382,13.064 304.875051,12.9813342 304.709717,12.816 C304.544383,12.6506658 304.445717,12.4506678 304.413717,12.216 L304.381717,11.624 C304.008382,12.1253358 303.536386,12.5066654 302.965717,12.768 C302.395047,13.0293346 301.784387,13.16 301.133717,13.16 Z M301.501717,12.104 C302.003053,12.104 302.469715,12.0106676 302.901717,11.824 C303.333719,11.6373324 303.661716,11.3893349 303.885717,11.08 C304.088385,10.8773323 304.189717,10.6693344 304.189717,10.456 L304.189717,9.224 C303.507047,8.957332 302.797721,8.824 302.061717,8.824 C301.357713,8.824 300.784386,8.97333184 300.341717,9.272 C299.899048,9.57066816 299.677717,9.9599976 299.677717,10.44 C299.677717,10.6746678 299.72305,10.8933323 299.813717,11.096 C299.904384,11.2986677 300.032383,11.4746659 300.197717,11.624 C300.363051,11.7733341 300.557716,11.8906662 300.781717,11.976 C301.005718,12.0613338 301.245716,12.104 301.501717,12.104 Z M311.524574,13.096 C310.959238,13.096 310.439243,12.9786678 309.964574,12.744 C309.489905,12.5093322 309.081909,12.1946686 308.740574,11.8 C308.399239,11.4053314 308.135242,10.9520026 307.948574,10.44 C307.761906,9.92799744 307.668574,9.39466944 307.668574,8.84 C307.668574,8.2533304 307.761906,7.69600264 307.948574,7.168 C308.135242,6.63999736 308.399239,6.17866864 308.740574,5.784 C309.081909,5.38933136 309.489905,5.07733448 309.964574,4.848 C310.439243,4.61866552 310.964571,4.504 311.540574,4.504 C312.244578,4.504 312.852571,4.67466496 313.364574,5.016 C313.876577,5.35733504 314.308572,5.78933072 314.660574,6.312 L314.660574,4.648 L315.908574,4.648 L315.908574,12.904 C315.908574,13.5013363 315.796575,14.0266644 315.572574,14.48 C315.348573,14.9333356 315.044576,15.3146651 314.660574,15.624 C314.276572,15.9333349 313.82591,16.1679992 313.308574,16.328 C312.791238,16.4880008 312.239244,16.568 311.652574,16.568 C310.703236,16.568 309.932577,16.405335 309.340574,16.08 C308.748571,15.754665 308.255243,15.3040029 307.860574,14.728 L308.676574,14.008 C309.007242,14.4986691 309.433905,14.8666654 309.956574,15.112 C310.479243,15.3573346 311.044571,15.48 311.652574,15.48 C312.036576,15.48 312.401906,15.4266672 312.748574,15.32 C313.095242,15.2133328 313.396573,15.0533344 313.652574,14.84 C313.908575,14.6266656 314.113907,14.3600016 314.268574,14.04 C314.423241,13.7199984 314.500574,13.3413355 314.500574,12.904 L314.500574,11.432 C314.340573,11.6880013 314.151242,11.919999 313.932574,12.128 C313.713906,12.336001 313.476575,12.5119993 313.220574,12.656 C312.964573,12.8000007 312.692575,12.909333 312.404574,12.984 C312.116573,13.058667 311.823242,13.096 311.524574,13.096 Z M311.956574,11.944 C312.255242,11.944 312.543239,11.8906672 312.820574,11.784 C313.097909,11.6773328 313.353906,11.5360009 313.588574,11.36 C313.823242,11.1839991 314.020573,10.9840011 314.180574,10.76 C314.340575,10.5359989 314.44724,10.3066678 314.500574,10.072 L314.500574,7.672 C314.38324,7.38399856 314.231242,7.12266784 314.044574,6.888 C313.857906,6.65333216 313.647242,6.44800088 313.412574,6.272 C313.177906,6.09599912 312.924575,5.96000048 312.652574,5.864 C312.380573,5.76799952 312.105909,5.72 311.828574,5.72 C311.401905,5.72 311.020576,5.81066576 310.684574,5.992 C310.348572,6.17333424 310.063242,6.41333184 309.828574,6.712 C309.593906,7.01066816 309.412575,7.34933144 309.284574,7.728 C309.156573,8.10666856 309.092574,8.48799808 309.092574,8.872 C309.092574,9.28800208 309.16724,9.6826648 309.316574,10.056 C309.465908,10.4293352 309.668573,10.7546653 309.924574,11.032 C310.180575,11.3093347 310.481906,11.5306658 310.828574,11.696 C311.175242,11.8613342 311.551239,11.944 311.956574,11.944 Z M318.523431,13 L318.523431,4.648 L319.931431,4.648 L319.931431,13 L318.523431,13 Z M318.523431,3.08 L318.523431,1.32 L319.931431,1.32 L319.931431,3.08 L318.523431,3.08 Z M329.794288,13 L328.386288,13 L328.386288,8.328 C328.386288,7.43199552 328.25029,6.78133536 327.978288,6.376 C327.706287,5.97066464 327.292958,5.768 326.738288,5.768 C326.450287,5.768 326.16229,5.82399944 325.874288,5.936 C325.586287,6.04800056 325.31429,6.19999904 325.058288,6.392 C324.802287,6.58400096 324.578289,6.813332 324.386288,7.08 C324.194288,7.346668 324.050289,7.6399984 323.954288,7.96 L323.954288,13 L322.546288,13 L322.546288,4.648 L323.826288,4.648 L323.826288,6.44 C324.156957,5.8533304 324.634285,5.38400176 325.258288,5.032 C325.882292,4.67999824 326.562285,4.504 327.298288,4.504 C327.778291,4.504 328.178287,4.59199912 328.498288,4.768 C328.81829,4.94400088 329.074288,5.18933176 329.266288,5.504 C329.458289,5.81866824 329.594288,6.1893312 329.674288,6.616 C329.754289,7.0426688 329.794288,7.50666416 329.794288,8.008 L329.794288,13 Z M335.657146,13.096 C335.09181,13.096 334.571815,12.9786678 334.097146,12.744 C333.622477,12.5093322 333.214481,12.1946686 332.873146,11.8 C332.531811,11.4053314 332.267813,10.9520026 332.081146,10.44 C331.894478,9.92799744 331.801146,9.39466944 331.801146,8.84 C331.801146,8.2533304 331.894478,7.69600264 332.081146,7.168 C332.267813,6.63999736 332.531811,6.17866864 332.873146,5.784 C333.214481,5.38933136 333.622477,5.07733448 334.097146,4.848 C334.571815,4.61866552 335.097143,4.504 335.673146,4.504 C336.377149,4.504 336.985143,4.67466496 337.497146,5.016 C338.009148,5.35733504 338.441144,5.78933072 338.793146,6.312 L338.793146,4.648 L340.041146,4.648 L340.041146,12.904 C340.041146,13.5013363 339.929147,14.0266644 339.705146,14.48 C339.481145,14.9333356 339.177148,15.3146651 338.793146,15.624 C338.409144,15.9333349 337.958482,16.1679992 337.441146,16.328 C336.92381,16.4880008 336.371815,16.568 335.785146,16.568 C334.835808,16.568 334.065149,16.405335 333.473146,16.08 C332.881143,15.754665 332.387814,15.3040029 331.993146,14.728 L332.809146,14.008 C333.139814,14.4986691 333.566476,14.8666654 334.089146,15.112 C334.611815,15.3573346 335.177143,15.48 335.785146,15.48 C336.169148,15.48 336.534477,15.4266672 336.881146,15.32 C337.227814,15.2133328 337.529144,15.0533344 337.785146,14.84 C338.041147,14.6266656 338.246478,14.3600016 338.401146,14.04 C338.555813,13.7199984 338.633146,13.3413355 338.633146,12.904 L338.633146,11.432 C338.473145,11.6880013 338.283813,11.919999 338.065146,12.128 C337.846478,12.336001 337.609147,12.5119993 337.353146,12.656 C337.097144,12.8000007 336.825147,12.909333 336.537146,12.984 C336.249144,13.058667 335.955814,13.096 335.657146,13.096 Z M336.089146,11.944 C336.387814,11.944 336.675811,11.8906672 336.953146,11.784 C337.23048,11.6773328 337.486478,11.5360009 337.721146,11.36 C337.955814,11.1839991 338.153145,10.9840011 338.313146,10.76 C338.473146,10.5359989 338.579812,10.3066678 338.633146,10.072 L338.633146,7.672 C338.515812,7.38399856 338.363813,7.12266784 338.177146,6.888 C337.990478,6.65333216 337.779814,6.44800088 337.545146,6.272 C337.310478,6.09599912 337.057147,5.96000048 336.785146,5.864 C336.513144,5.76799952 336.23848,5.72 335.961146,5.72 C335.534477,5.72 335.153147,5.81066576 334.817146,5.992 C334.481144,6.17333424 334.195814,6.41333184 333.961146,6.712 C333.726478,7.01066816 333.545146,7.34933144 333.417146,7.728 C333.289145,8.10666856 333.225146,8.48799808 333.225146,8.872 C333.225146,9.28800208 333.299812,9.6826648 333.449146,10.056 C333.59848,10.4293352 333.801144,10.7546653 334.057146,11.032 C334.313147,11.3093347 334.614477,11.5306658 334.961146,11.696 C335.307814,11.8613342 335.68381,11.944 336.089146,11.944 Z M342.704003,14.296 L343.024003,12.872 L342.544003,12.872 L342.544003,11.208 L343.872003,11.208 L343.872003,12.872 L343.392003,14.296 L342.704003,14.296 Z M7.28,41.16 C6.88533136,41.16 6.51733504,41.093334 6.176,40.96 C5.83466496,40.826666 5.53866792,40.6426678 5.288,40.408 C5.03733208,40.1733322 4.84000072,39.8986682 4.696,39.584 C4.55199928,39.2693318 4.48,38.9253352 4.48,38.552 C4.48,38.1679981 4.56533248,37.8186682 4.736,37.504 C4.90666752,37.1893318 5.14933176,36.9200011 5.464,36.696 C5.77866824,36.4719989 6.15199784,36.2960006 6.584,36.168 C7.01600216,36.0399994 7.48799744,35.976 8,35.976 C8.40533536,35.976 8.81599792,36.013333 9.232,36.088 C9.64800208,36.162667 10.0159984,36.2639994 10.336,36.392 L10.336,35.72 C10.336,35.0373299 10.1440019,34.5013353 9.76,34.112 C9.37599808,33.7226647 8.83200352,33.528 8.128,33.528 C7.28532912,33.528 6.40000464,33.8533301 5.472,34.504 L5.008,33.592 C6.08533872,32.866663 7.16799456,32.504 8.256,32.504 C9.35467216,32.504 10.2106636,32.7973304 10.824,33.384 C11.4373364,33.9706696 11.744,34.797328 11.744,35.864 L11.744,39.272 C11.744,39.6026683 11.8933318,39.7733333 12.192,39.784 L12.192,41 C12.0426659,41.0213334 11.9200005,41.0373333 11.824,41.048 C11.7279995,41.0586667 11.6266672,41.064 11.52,41.064 C11.2426653,41.064 11.0213342,40.9813342 10.856,40.816 C10.6906658,40.6506658 10.5920002,40.4506678 10.56,40.216 L10.528,39.624 C10.1546648,40.1253358 9.68266952,40.5066654 9.112,40.768 C8.54133048,41.0293346 7.93066992,41.16 7.28,41.16 Z M7.648,40.104 C8.14933584,40.104 8.61599784,40.0106676 9.048,39.824 C9.48000216,39.6373324 9.80799888,39.3893349 10.032,39.08 C10.2346677,38.8773323 10.336,38.6693344 10.336,38.456 L10.336,37.224 C9.65332992,36.957332 8.94400368,36.824 8.208,36.824 C7.50399648,36.824 6.93066888,36.9733318 6.488,37.272 C6.04533112,37.5706682 5.824,37.9599976 5.824,38.44 C5.824,38.6746678 5.86933288,38.8933323 5.96,39.096 C6.05066712,39.2986677 6.17866584,39.4746659 6.344,39.624 C6.50933416,39.7733341 6.70399888,39.8906662 6.928,39.976 C7.15200112,40.0613338 7.39199872,40.104 7.648,40.104 Z M21.5908572,41 L20.1828572,41 L20.1828572,36.328 C20.1828572,35.4319955 20.0468586,34.7813354 19.7748572,34.376 C19.5028559,33.9706646 19.0895267,33.768 18.5348572,33.768 C18.2468558,33.768 17.9588587,33.8239994 17.6708572,33.936 C17.3828558,34.0480006 17.1108585,34.199999 16.8548572,34.392 C16.5988559,34.584001 16.3748582,34.813332 16.1828572,35.08 C15.9908563,35.346668 15.8468577,35.6399984 15.7508572,35.96 L15.7508572,41 L14.3428572,41 L14.3428572,32.648 L15.6228572,32.648 L15.6228572,34.44 C15.9535255,33.8533304 16.4308541,33.3840018 17.0548572,33.032 C17.6788603,32.6799982 18.3588535,32.504 19.0948572,32.504 C19.5748596,32.504 19.9748556,32.5919991 20.2948572,32.768 C20.6148588,32.9440009 20.8708563,33.1893318 21.0628572,33.504 C21.2548582,33.8186682 21.3908568,34.1893312 21.4708572,34.616 C21.5508576,35.0426688 21.5908572,35.5066642 21.5908572,36.008 L21.5908572,41 Z M27.5657144,41.16 C26.9897115,41.16 26.4563835,41.0426678 25.9657144,40.808 C25.4750453,40.5733322 25.0537162,40.2586686 24.7017144,39.864 C24.3497127,39.4693314 24.0750487,39.0106693 23.8777144,38.488 C23.6803801,37.9653307 23.5817144,37.4160029 23.5817144,36.84 C23.5817144,36.2533304 23.6750468,35.6960026 23.8617144,35.168 C24.048382,34.6399974 24.3097127,34.1786686 24.6457144,33.784 C24.9817161,33.3893314 25.3817121,33.0773345 25.8457144,32.848 C26.3097167,32.6186655 26.819045,32.504 27.3737144,32.504 C28.0457178,32.504 28.6457118,32.6799982 29.1737144,33.032 C29.7017171,33.3840018 30.1203795,33.8106642 30.4297144,34.312 L30.4297144,29.32 L31.8377144,29.32 L31.8377144,39.272 C31.8377144,39.6026683 31.9870463,39.7733333 32.2857144,39.784 L32.2857144,41 C32.1363803,41.0213334 32.0163815,41.0373333 31.9257144,41.048 C31.8350473,41.0586667 31.7470482,41.064 31.6617144,41.064 C31.3843797,41.064 31.1417155,40.9706676 30.9337144,40.784 C30.7257134,40.5973324 30.6217144,40.3813346 30.6217144,40.136 L30.6217144,39.432 C30.2910461,39.9760027 29.8510505,40.3999985 29.3017144,40.704 C28.7523783,41.0080015 28.1737175,41.16 27.5657144,41.16 Z M27.9017144,39.944 C28.1577157,39.944 28.4217131,39.8960005 28.6937144,39.8 C28.9657158,39.7039995 29.2217132,39.5706675 29.4617144,39.4 C29.7017156,39.2293325 29.9097135,39.0293345 30.0857144,38.8 C30.2617153,38.5706655 30.3763808,38.3280013 30.4297144,38.072 L30.4297144,35.672 C30.3337139,35.405332 30.1897154,35.1520012 29.9977144,34.912 C29.8057135,34.6719988 29.5897156,34.4640009 29.3497144,34.288 C29.1097132,34.1119991 28.8537158,33.9733338 28.5817144,33.872 C28.3097131,33.7706662 28.0403824,33.72 27.7737144,33.72 C27.3577123,33.72 26.9817161,33.8079991 26.6457144,33.984 C26.3097127,34.1600009 26.0217156,34.3946652 25.7817144,34.688 C25.5417132,34.9813348 25.3577151,35.3173314 25.2297144,35.696 C25.1017138,36.0746686 25.0377144,36.4613314 25.0377144,36.856 C25.0377144,37.2720021 25.1123803,37.6693314 25.2617144,38.048 C25.4110485,38.4266686 25.6137131,38.7546653 25.8697144,39.032 C26.1257157,39.3093347 26.427046,39.5306658 26.7737144,39.696 C27.1203828,39.8613342 27.4963791,39.944 27.9017144,39.944 Z M41.8514288,41.16 C41.1794255,41.16 40.5180988,41.056001 39.8674288,40.848 C39.2167589,40.639999 38.6567645,40.3386686 38.1874288,39.944 L38.7954288,39 C39.286098,39.3733352 39.7767597,39.6533324 40.2674288,39.84 C40.758098,40.0266676 41.2754261,40.12 41.8194288,40.12 C42.4274319,40.12 42.9100937,40.0000012 43.2674288,39.76 C43.624764,39.5199988 43.8034288,39.1813355 43.8034288,38.744 C43.8034288,38.5413323 43.7554293,38.3680007 43.6594288,38.224 C43.5634284,38.0799993 43.4194298,37.9546672 43.2274288,37.848 C43.0354279,37.7413328 42.790097,37.6453338 42.4914288,37.56 C42.1927607,37.4746662 41.8460975,37.3840005 41.4514288,37.288 C40.950093,37.1599994 40.5180973,37.0373339 40.1554288,36.92 C39.7927604,36.8026661 39.4940967,36.6640008 39.2594288,36.504 C39.024761,36.3439992 38.854096,36.1520011 38.7474288,35.928 C38.6407616,35.7039989 38.5874288,35.4266683 38.5874288,35.096 C38.5874288,34.6799979 38.6700947,34.309335 38.8354288,33.984 C39.000763,33.658665 39.2274274,33.3866678 39.5154288,33.168 C39.8034303,32.9493322 40.1420936,32.7840006 40.5314288,32.672 C40.9207641,32.5599994 41.3394266,32.504 41.7874288,32.504 C42.4167653,32.504 43.0034261,32.6053323 43.5474288,32.808 C44.0914316,33.0106677 44.5500936,33.2773317 44.9234288,33.608 L44.2834288,34.456 C43.9314271,34.1466651 43.5367644,33.9146674 43.0994288,33.76 C42.6620933,33.6053326 42.2140978,33.528 41.7554288,33.528 C41.2434263,33.528 40.808764,33.6373322 40.4514288,33.856 C40.0940937,34.0746678 39.9154288,34.4239976 39.9154288,34.904 C39.9154288,35.096001 39.9500952,35.2559994 40.0194288,35.384 C40.0887625,35.5120006 40.203428,35.6239995 40.3634288,35.72 C40.5234296,35.8160005 40.7287609,35.901333 40.9794288,35.976 C41.2300968,36.050667 41.5314271,36.1306662 41.8834288,36.216 C42.4380983,36.3440006 42.9207601,36.474666 43.3314288,36.608 C43.7420976,36.741334 44.0834275,36.8986658 44.3554288,37.08 C44.6274302,37.2613342 44.8300948,37.4746654 44.9634288,37.72 C45.0967628,37.9653346 45.1634288,38.2639982 45.1634288,38.616 C45.1634288,39.3946706 44.8647652,40.013331 44.2674288,40.472 C43.6700925,40.930669 42.8647672,41.16 41.8514288,41.16 Z M54.4182861,41 L53.0102861,41 L53.0102861,36.328 C53.0102861,35.4639957 52.8609542,34.8213354 52.5622861,34.4 C52.2636179,33.9786646 51.8262889,33.768 51.2502861,33.768 C50.9729513,33.768 50.6956208,33.8239994 50.4182861,33.936 C50.1409513,34.0480006 49.8822873,34.199999 49.6422861,34.392 C49.4022849,34.584001 49.1889537,34.813332 49.0022861,35.08 C48.8156185,35.346668 48.6742865,35.6399984 48.5782861,35.96 L48.5782861,41 L47.1702861,41 L47.1702861,29.32 L48.5782861,29.32 L48.5782861,34.44 C48.9089544,33.831997 49.3569499,33.357335 49.9222861,33.016 C50.4876222,32.674665 51.1062827,32.504 51.7782861,32.504 C52.2689552,32.504 52.684951,32.5946658 53.0262861,32.776 C53.3676211,32.9573342 53.6396184,33.2026651 53.8422861,33.512 C54.0449537,33.8213349 54.1916189,34.1919978 54.2822861,34.624 C54.3729532,35.0560022 54.4182861,35.5173309 54.4182861,36.008 L54.4182861,41 Z M59.0971433,41.16 C58.7024746,41.16 58.3344783,41.093334 57.9931433,40.96 C57.6518082,40.826666 57.3558112,40.6426678 57.1051433,40.408 C56.8544754,40.1733322 56.657144,39.8986682 56.5131433,39.584 C56.3691426,39.2693318 56.2971433,38.9253352 56.2971433,38.552 C56.2971433,38.1679981 56.3824758,37.8186682 56.5531433,37.504 C56.7238108,37.1893318 56.966475,36.9200011 57.2811433,36.696 C57.5958115,36.4719989 57.9691411,36.2960006 58.4011433,36.168 C58.8331454,36.0399994 59.3051407,35.976 59.8171433,35.976 C60.2224786,35.976 60.6331412,36.013333 61.0491433,36.088 C61.4651454,36.162667 61.8331417,36.2639994 62.1531433,36.392 L62.1531433,35.72 C62.1531433,35.0373299 61.9611452,34.5013353 61.5771433,34.112 C61.1931414,33.7226647 60.6491468,33.528 59.9451433,33.528 C59.1024724,33.528 58.2171479,33.8533301 57.2891433,34.504 L56.8251433,33.592 C57.902482,32.866663 58.9851378,32.504 60.0731433,32.504 C61.1718154,32.504 62.0278069,32.7973304 62.6411433,33.384 C63.2544797,33.9706696 63.5611433,34.797328 63.5611433,35.864 L63.5611433,39.272 C63.5611433,39.6026683 63.7104751,39.7733333 64.0091433,39.784 L64.0091433,41 C63.8598092,41.0213334 63.7371438,41.0373333 63.6411433,41.048 C63.5451428,41.0586667 63.4438105,41.064 63.3371433,41.064 C63.0598086,41.064 62.8384774,40.9813342 62.6731433,40.816 C62.5078091,40.6506658 62.4091434,40.4506678 62.3771433,40.216 L62.3451433,39.624 C61.9718081,40.1253358 61.4998128,40.5066654 60.9291433,40.768 C60.3584738,41.0293346 59.7478132,41.16 59.0971433,41.16 Z M59.4651433,40.104 C59.9664791,40.104 60.4331411,40.0106676 60.8651433,39.824 C61.2971454,39.6373324 61.6251422,39.3893349 61.8491433,39.08 C62.051811,38.8773323 62.1531433,38.6693344 62.1531433,38.456 L62.1531433,37.224 C61.4704732,36.957332 60.761147,36.824 60.0251433,36.824 C59.3211398,36.824 58.7478122,36.9733318 58.3051433,37.272 C57.8624744,37.5706682 57.6411433,37.9599976 57.6411433,38.44 C57.6411433,38.6746678 57.6864762,38.8933323 57.7771433,39.096 C57.8678104,39.2986677 57.9958091,39.4746659 58.1611433,39.624 C58.3264774,39.7733341 58.5211422,39.8906662 58.7451433,39.976 C58.9691444,40.0613338 59.209142,40.104 59.4651433,40.104 Z M70.5760005,33.88 C69.871997,33.9013334 69.2506698,34.082665 68.7120005,34.424 C68.1733311,34.765335 67.7920016,35.239997 67.5680005,35.848 L67.5680005,41 L66.1600005,41 L66.1600005,32.648 L67.4720005,32.648 L67.4720005,34.584 C67.7600019,34.0079971 68.1386648,33.5413351 68.6080005,33.184 C69.0773362,32.8266649 69.5786645,32.6266669 70.1120005,32.584 L70.3840005,32.584 C70.4586675,32.584 70.5226669,32.5893333 70.5760005,32.6 L70.5760005,33.88 Z M72.3108577,41 L72.3108577,32.648 L73.7188577,32.648 L73.7188577,41 L72.3108577,41 Z M72.3108577,31.08 L72.3108577,29.32 L73.7188577,29.32 L73.7188577,31.08 L72.3108577,31.08 Z M83.5817149,41 L82.1737149,41 L82.1737149,36.328 C82.1737149,35.4319955 82.0377163,34.7813354 81.7657149,34.376 C81.4937135,33.9706646 81.0803843,33.768 80.5257149,33.768 C80.2377135,33.768 79.9497163,33.8239994 79.6617149,33.936 C79.3737135,34.0480006 79.1017162,34.199999 78.8457149,34.392 C78.5897136,34.584001 78.3657159,34.813332 78.1737149,35.08 C77.9817139,35.346668 77.8377154,35.6399984 77.7417149,35.96 L77.7417149,41 L76.3337149,41 L76.3337149,32.648 L77.6137149,32.648 L77.6137149,34.44 C77.9443832,33.8533304 78.4217118,33.3840018 79.0457149,33.032 C79.669718,32.6799982 80.3497112,32.504 81.0857149,32.504 C81.5657173,32.504 81.9657133,32.5919991 82.2857149,32.768 C82.6057165,32.9440009 82.8617139,33.1893318 83.0537149,33.504 C83.2457159,33.8186682 83.3817145,34.1893312 83.4617149,34.616 C83.5417153,35.0426688 83.5817149,35.5066642 83.5817149,36.008 L83.5817149,41 Z M89.4445721,41.096 C88.879236,41.096 88.3592412,40.9786678 87.8845721,40.744 C87.4099031,40.5093322 87.0019072,40.1946686 86.6605721,39.8 C86.3192371,39.4053314 86.0552397,38.9520026 85.8685721,38.44 C85.6819045,37.9279974 85.5885721,37.3946694 85.5885721,36.84 C85.5885721,36.2533304 85.6819045,35.6960026 85.8685721,35.168 C86.0552397,34.6399974 86.3192371,34.1786686 86.6605721,33.784 C87.0019072,33.3893314 87.4099031,33.0773345 87.8845721,32.848 C88.3592412,32.6186655 88.8845692,32.504 89.4605721,32.504 C90.1645756,32.504 90.7725696,32.674665 91.2845721,33.016 C91.7965747,33.357335 92.2285704,33.7893307 92.5805721,34.312 L92.5805721,32.648 L93.8285721,32.648 L93.8285721,40.904 C93.8285721,41.5013363 93.7165732,42.0266644 93.4925721,42.48 C93.268571,42.9333356 92.964574,43.3146651 92.5805721,43.624 C92.1965702,43.9333349 91.745908,44.1679992 91.2285721,44.328 C90.7112362,44.4880008 90.1592417,44.568 89.5725721,44.568 C88.623234,44.568 87.8525751,44.405335 87.2605721,44.08 C86.6685692,43.754665 86.1752408,43.3040029 85.7805721,42.728 L86.5965721,42.008 C86.9272404,42.4986691 87.3539028,42.8666654 87.8765721,43.112 C88.3992414,43.3573346 88.9645691,43.48 89.5725721,43.48 C89.956574,43.48 90.3219037,43.4266672 90.6685721,43.32 C91.0152405,43.2133328 91.3165708,43.0533344 91.5725721,42.84 C91.8285734,42.6266656 92.0339047,42.3600016 92.1885721,42.04 C92.3432396,41.7199984 92.4205721,41.3413355 92.4205721,40.904 L92.4205721,39.432 C92.2605713,39.6880013 92.0712399,39.919999 91.8525721,40.128 C91.6339044,40.336001 91.3965734,40.5119993 91.1405721,40.656 C90.8845708,40.8000007 90.6125736,40.909333 90.3245721,40.984 C90.0365707,41.058667 89.7432403,41.096 89.4445721,41.096 Z M89.8765721,39.944 C90.1752403,39.944 90.4632374,39.8906672 90.7405721,39.784 C91.0179068,39.6773328 91.2739043,39.5360009 91.5085721,39.36 C91.74324,39.1839991 91.9405713,38.9840011 92.1005721,38.76 C92.2605729,38.5359989 92.3672385,38.3066678 92.4205721,38.072 L92.4205721,35.672 C92.3032382,35.3839986 92.1512397,35.1226678 91.9645721,34.888 C91.7779045,34.6533322 91.56724,34.4480009 91.3325721,34.272 C91.0979043,34.0959991 90.8445735,33.9600005 90.5725721,33.864 C90.3005708,33.7679995 90.0259068,33.72 89.7485721,33.72 C89.3219033,33.72 88.9405738,33.8106658 88.6045721,33.992 C88.2685704,34.1733342 87.98324,34.4133318 87.7485721,34.712 C87.5139043,35.0106682 87.3325728,35.3493314 87.2045721,35.728 C87.0765715,36.1066686 87.0125721,36.4879981 87.0125721,36.872 C87.0125721,37.2880021 87.087238,37.6826648 87.2365721,38.056 C87.3859062,38.4293352 87.5885708,38.7546653 87.8445721,39.032 C88.1005734,39.3093347 88.4019037,39.5306658 88.7485721,39.696 C89.0952405,39.8613342 89.4712368,39.944 89.8765721,39.944 Z M100.834287,41 L100.834287,32.648 L102.242287,32.648 L102.242287,41 L100.834287,41 Z M100.834287,31.08 L100.834287,29.32 L102.242287,29.32 L102.242287,31.08 L100.834287,31.08 Z M112.105144,41 L110.697144,41 L110.697144,36.328 C110.697144,35.4319955 110.561145,34.7813354 110.289144,34.376 C110.017142,33.9706646 109.603813,33.768 109.049144,33.768 C108.761142,33.768 108.473145,33.8239994 108.185144,33.936 C107.897142,34.0480006 107.625145,34.199999 107.369144,34.392 C107.113142,34.584001 106.889145,34.813332 106.697144,35.08 C106.505143,35.346668 106.361144,35.6399984 106.265144,35.96 L106.265144,41 L104.857144,41 L104.857144,32.648 L106.137144,32.648 L106.137144,34.44 C106.467812,33.8533304 106.945141,33.3840018 107.569144,33.032 C108.193147,32.6799982 108.87314,32.504 109.609144,32.504 C110.089146,32.504 110.489142,32.5919991 110.809144,32.768 C111.129145,32.9440009 111.385143,33.1893318 111.577144,33.504 C111.769145,33.8186682 111.905143,34.1893312 111.985144,34.616 C112.065144,35.0426688 112.105144,35.5066642 112.105144,36.008 L112.105144,41 Z M118.880001,40.584 C118.794667,40.6266669 118.682668,40.677333 118.544001,40.736 C118.405334,40.794667 118.248002,40.853333 118.072001,40.912 C117.896,40.970667 117.704002,41.0186665 117.496001,41.056 C117.288,41.0933335 117.072002,41.112 116.848001,41.112 C116.335998,41.112 115.893336,40.9706681 115.520001,40.688 C115.146666,40.4053319 114.960001,39.9653363 114.960001,39.368 L114.960001,33.752 L113.824001,33.752 L113.824001,32.648 L114.960001,32.648 L114.960001,29.864 L116.368001,29.864 L116.368001,32.648 L118.240001,32.648 L118.240001,33.752 L116.368001,33.752 L116.368001,38.936 C116.389334,39.2453349 116.490667,39.4693326 116.672001,39.608 C116.853335,39.7466674 117.066666,39.816 117.312001,39.816 C117.589336,39.816 117.842666,39.7706671 118.072001,39.68 C118.301335,39.5893329 118.458667,39.5173336 118.544001,39.464 L118.880001,40.584 Z M124.118858,41.16 C123.489522,41.16 122.913527,41.0453345 122.390858,40.816 C121.868189,40.5866655 121.420193,40.2746686 121.046858,39.88 C120.673523,39.4853314 120.382859,39.0240026 120.174858,38.496 C119.966857,37.9679974 119.862858,37.4106696 119.862858,36.824 C119.862858,36.2373304 119.966857,35.6826693 120.174858,35.16 C120.382859,34.6373307 120.67619,34.1786686 121.054858,33.784 C121.433527,33.3893314 121.884189,33.0773345 122.406858,32.848 C122.929527,32.6186655 123.505522,32.504 124.134858,32.504 C124.764195,32.504 125.337522,32.6213322 125.854858,32.856 C126.372194,33.0906678 126.81219,33.4026647 127.174858,33.792 C127.537527,34.1813353 127.817524,34.6346641 128.014858,35.152 C128.212192,35.6693359 128.310858,36.2053306 128.310858,36.76 C128.310858,36.8773339 128.308192,36.9839995 128.302858,37.08 C128.297525,37.1760005 128.289525,37.2506664 128.278858,37.304 L121.350858,37.304 C121.382858,37.7200021 121.478857,38.098665 121.638858,38.44 C121.798859,38.781335 122.006857,39.0746654 122.262858,39.32 C122.518859,39.5653346 122.809523,39.7573326 123.134858,39.896 C123.460193,40.0346674 123.80419,40.104 124.166858,40.104 C124.422859,40.104 124.673524,40.0693337 124.918858,40 C125.164193,39.9306663 125.393524,39.8373339 125.606858,39.72 C125.820193,39.6026661 126.009524,39.4586675 126.174858,39.288 C126.340192,39.1173325 126.465524,38.9253344 126.550858,38.712 L127.766858,39.048 C127.628191,39.3573349 127.438859,39.6399987 127.198858,39.896 C126.958857,40.1520013 126.681526,40.3733324 126.366858,40.56 C126.05219,40.7466676 125.70286,40.8933328 125.318858,41 C124.934856,41.1066672 124.53486,41.16 124.118858,41.16 Z M126.982858,36.264 C126.950858,35.8693314 126.852192,35.5040017 126.686858,35.168 C126.521524,34.8319983 126.313526,34.5466678 126.062858,34.312 C125.81219,34.0773322 125.521526,33.893334 125.190858,33.76 C124.86019,33.626666 124.508193,33.56 124.134858,33.56 C123.761523,33.56 123.409526,33.626666 123.078858,33.76 C122.74819,33.893334 122.457526,34.0799988 122.206858,34.32 C121.95619,34.5600012 121.753526,34.8453317 121.598858,35.176 C121.444191,35.5066683 121.350858,35.8693314 121.318858,36.264 L126.982858,36.264 Z M134.637715,33.88 C133.933712,33.9013334 133.312385,34.082665 132.773715,34.424 C132.235046,34.765335 131.853717,35.239997 131.629715,35.848 L131.629715,41 L130.221715,41 L130.221715,32.648 L131.533715,32.648 L131.533715,34.584 C131.821717,34.0079971 132.20038,33.5413351 132.669715,33.184 C133.139051,32.8266649 133.640379,32.6266669 134.173715,32.584 L134.445715,32.584 C134.520382,32.584 134.584382,32.5893333 134.637715,32.6 L134.637715,33.88 Z M138.516573,41.16 C138.121904,41.16 137.753908,41.093334 137.412573,40.96 C137.071238,40.826666 136.775241,40.6426678 136.524573,40.408 C136.273905,40.1733322 136.076573,39.8986682 135.932573,39.584 C135.788572,39.2693318 135.716573,38.9253352 135.716573,38.552 C135.716573,38.1679981 135.801905,37.8186682 135.972573,37.504 C136.14324,37.1893318 136.385904,36.9200011 136.700573,36.696 C137.015241,36.4719989 137.38857,36.2960006 137.820573,36.168 C138.252575,36.0399994 138.72457,35.976 139.236573,35.976 C139.641908,35.976 140.052571,36.013333 140.468573,36.088 C140.884575,36.162667 141.252571,36.2639994 141.572573,36.392 L141.572573,35.72 C141.572573,35.0373299 141.380575,34.5013353 140.996573,34.112 C140.612571,33.7226647 140.068576,33.528 139.364573,33.528 C138.521902,33.528 137.636577,33.8533301 136.708573,34.504 L136.244573,33.592 C137.321911,32.866663 138.404567,32.504 139.492573,32.504 C140.591245,32.504 141.447236,32.7973304 142.060573,33.384 C142.673909,33.9706696 142.980573,34.797328 142.980573,35.864 L142.980573,39.272 C142.980573,39.6026683 143.129904,39.7733333 143.428573,39.784 L143.428573,41 C143.279239,41.0213334 143.156573,41.0373333 143.060573,41.048 C142.964572,41.0586667 142.86324,41.064 142.756573,41.064 C142.479238,41.064 142.257907,40.9813342 142.092573,40.816 C141.927238,40.6506658 141.828573,40.4506678 141.796573,40.216 L141.764573,39.624 C141.391237,40.1253358 140.919242,40.5066654 140.348573,40.768 C139.777903,41.0293346 139.167243,41.16 138.516573,41.16 Z M138.884573,40.104 C139.385908,40.104 139.85257,40.0106676 140.284573,39.824 C140.716575,39.6373324 141.044571,39.3893349 141.268573,39.08 C141.47124,38.8773323 141.572573,38.6693344 141.572573,38.456 L141.572573,37.224 C140.889903,36.957332 140.180576,36.824 139.444573,36.824 C138.740569,36.824 138.167241,36.9733318 137.724573,37.272 C137.281904,37.5706682 137.060573,37.9599976 137.060573,38.44 C137.060573,38.6746678 137.105905,38.8933323 137.196573,39.096 C137.28724,39.2986677 137.415238,39.4746659 137.580573,39.624 C137.745907,39.7733341 137.940571,39.8906662 138.164573,39.976 C138.388574,40.0613338 138.628571,40.104 138.884573,40.104 Z M145.01943,36.808 C145.01943,36.2213304 145.120762,35.6666693 145.32343,35.144 C145.526097,34.6213307 145.814095,34.1653353 146.18743,33.776 C146.560765,33.3866647 147.006094,33.0773345 147.52343,32.848 C148.040766,32.6186655 148.619427,32.504 149.25943,32.504 C150.091434,32.504 150.80876,32.6879982 151.41143,33.056 C152.014099,33.4240018 152.470095,33.9173302 152.77943,34.536 L151.40343,34.968 C151.190095,34.5733314 150.891432,34.2666678 150.50743,34.048 C150.123428,33.8293322 149.696765,33.72 149.22743,33.72 C148.843428,33.72 148.480765,33.7973326 148.13943,33.952 C147.798095,34.1066674 147.504764,34.3226653 147.25943,34.6 C147.014095,34.8773347 146.819431,35.2026648 146.67543,35.576 C146.531429,35.9493352 146.45943,36.3599978 146.45943,36.808 C146.45943,37.2453355 146.534096,37.6559981 146.68343,38.04 C146.832764,38.4240019 147.032762,38.7573319 147.28343,39.04 C147.534098,39.3226681 147.827428,39.5439992 148.16343,39.704 C148.499431,39.8640008 148.859428,39.944 149.24343,39.944 C149.488764,39.944 149.731429,39.9093337 149.97143,39.84 C150.211431,39.7706663 150.430095,39.6773339 150.62743,39.56 C150.824764,39.4426661 150.998096,39.3066674 151.14743,39.152 C151.296764,38.9973326 151.403429,38.8293342 151.46743,38.648 L152.84343,39.064 C152.715429,39.3733349 152.536764,39.6559987 152.30743,39.912 C152.078095,40.1680013 151.808765,40.3866658 151.49943,40.568 C151.190095,40.7493342 150.846098,40.8933328 150.46743,41 C150.088761,41.1066672 149.691432,41.16 149.27543,41.16 C148.646093,41.16 148.070099,41.0426678 147.54743,40.808 C147.024761,40.5733322 146.576765,40.2586686 146.20343,39.864 C145.830095,39.4693314 145.539431,39.0080026 145.33143,38.48 C145.123429,37.9519974 145.01943,37.3946696 145.01943,36.808 Z M159.106287,40.584 C159.020953,40.6266669 158.908954,40.677333 158.770287,40.736 C158.63162,40.794667 158.474288,40.853333 158.298287,40.912 C158.122286,40.970667 157.930288,41.0186665 157.722287,41.056 C157.514286,41.0933335 157.298288,41.112 157.074287,41.112 C156.562284,41.112 156.119622,40.9706681 155.746287,40.688 C155.372952,40.4053319 155.186287,39.9653363 155.186287,39.368 L155.186287,33.752 L154.050287,33.752 L154.050287,32.648 L155.186287,32.648 L155.186287,29.864 L156.594287,29.864 L156.594287,32.648 L158.466287,32.648 L158.466287,33.752 L156.594287,33.752 L156.594287,38.936 C156.61562,39.2453349 156.716953,39.4693326 156.898287,39.608 C157.079621,39.7466674 157.292952,39.816 157.538287,39.816 C157.815622,39.816 158.068953,39.7706671 158.298287,39.68 C158.527622,39.5893329 158.684953,39.5173336 158.770287,39.464 L159.106287,40.584 Z M160.761144,41 L160.761144,32.648 L162.169144,32.648 L162.169144,41 L160.761144,41 Z M160.761144,31.08 L160.761144,29.32 L162.169144,29.32 L162.169144,31.08 L160.761144,31.08 Z M167.200001,41 L163.904001,32.648 L165.360001,32.648 L168.000001,39.768 L170.656001,32.648 L172.000001,32.648 L168.704001,41 L167.200001,41 Z M177.142859,41.16 C176.513522,41.16 175.937528,41.0453345 175.414859,40.816 C174.892189,40.5866655 174.444194,40.2746686 174.070859,39.88 C173.697523,39.4853314 173.40686,39.0240026 173.198859,38.496 C172.990858,37.9679974 172.886859,37.4106696 172.886859,36.824 C172.886859,36.2373304 172.990858,35.6826693 173.198859,35.16 C173.40686,34.6373307 173.70019,34.1786686 174.078859,33.784 C174.457527,33.3893314 174.908189,33.0773345 175.430859,32.848 C175.953528,32.6186655 176.529522,32.504 177.158859,32.504 C177.788195,32.504 178.361523,32.6213322 178.878859,32.856 C179.396195,33.0906678 179.83619,33.4026647 180.198859,33.792 C180.561527,34.1813353 180.841524,34.6346641 181.038859,35.152 C181.236193,35.6693359 181.334859,36.2053306 181.334859,36.76 C181.334859,36.8773339 181.332192,36.9839995 181.326859,37.08 C181.321525,37.1760005 181.313525,37.2506664 181.302859,37.304 L174.374859,37.304 C174.406859,37.7200021 174.502858,38.098665 174.662859,38.44 C174.822859,38.781335 175.030857,39.0746654 175.286859,39.32 C175.54286,39.5653346 175.833524,39.7573326 176.158859,39.896 C176.484194,40.0346674 176.82819,40.104 177.190859,40.104 C177.44686,40.104 177.697524,40.0693337 177.942859,40 C178.188193,39.9306663 178.417524,39.8373339 178.630859,39.72 C178.844193,39.6026661 179.033525,39.4586675 179.198859,39.288 C179.364193,39.1173325 179.489525,38.9253344 179.574859,38.712 L180.790859,39.048 C180.652191,39.3573349 180.46286,39.6399987 180.222859,39.896 C179.982857,40.1520013 179.705527,40.3733324 179.390859,40.56 C179.07619,40.7466676 178.726861,40.8933328 178.342859,41 C177.958857,41.1066672 177.558861,41.16 177.142859,41.16 Z M180.006859,36.264 C179.974859,35.8693314 179.876193,35.5040017 179.710859,35.168 C179.545525,34.8319983 179.337527,34.5466678 179.086859,34.312 C178.836191,34.0773322 178.545527,33.893334 178.214859,33.76 C177.88419,33.626666 177.532194,33.56 177.158859,33.56 C176.785523,33.56 176.433527,33.626666 176.102859,33.76 C175.77219,33.893334 175.481527,34.0799988 175.230859,34.32 C174.980191,34.5600012 174.777526,34.8453317 174.622859,35.176 C174.468191,35.5066683 174.374859,35.8693314 174.342859,36.264 L180.006859,36.264 Z M191.076573,41.16 C190.50057,41.16 189.967242,41.0426678 189.476573,40.808 C188.985904,40.5733322 188.564575,40.2586686 188.212573,39.864 C187.860571,39.4693314 187.585907,39.0106693 187.388573,38.488 C187.191239,37.9653307 187.092573,37.4160029 187.092573,36.84 C187.092573,36.2533304 187.185905,35.6960026 187.372573,35.168 C187.559241,34.6399974 187.820571,34.1786686 188.156573,33.784 C188.492575,33.3893314 188.892571,33.0773345 189.356573,32.848 C189.820575,32.6186655 190.329904,32.504 190.884573,32.504 C191.556576,32.504 192.15657,32.6799982 192.684573,33.032 C193.212576,33.3840018 193.631238,33.8106642 193.940573,34.312 L193.940573,29.32 L195.348573,29.32 L195.348573,39.272 C195.348573,39.6026683 195.497905,39.7733333 195.796573,39.784 L195.796573,41 C195.647239,41.0213334 195.52724,41.0373333 195.436573,41.048 C195.345906,41.0586667 195.257907,41.064 195.172573,41.064 C194.895238,41.064 194.652574,40.9706676 194.444573,40.784 C194.236572,40.5973324 194.132573,40.3813346 194.132573,40.136 L194.132573,39.432 C193.801905,39.9760027 193.361909,40.3999985 192.812573,40.704 C192.263237,41.0080015 191.684576,41.16 191.076573,41.16 Z M191.412573,39.944 C191.668574,39.944 191.932572,39.8960005 192.204573,39.8 C192.476574,39.7039995 192.732572,39.5706675 192.972573,39.4 C193.212574,39.2293325 193.420572,39.0293345 193.596573,38.8 C193.772574,38.5706655 193.887239,38.3280013 193.940573,38.072 L193.940573,35.672 C193.844573,35.405332 193.700574,35.1520012 193.508573,34.912 C193.316572,34.6719988 193.100574,34.4640009 192.860573,34.288 C192.620572,34.1119991 192.364574,33.9733338 192.092573,33.872 C191.820572,33.7706662 191.551241,33.72 191.284573,33.72 C190.868571,33.72 190.492575,33.8079991 190.156573,33.984 C189.820571,34.1600009 189.532574,34.3946652 189.292573,34.688 C189.052572,34.9813348 188.868574,35.3173314 188.740573,35.696 C188.612572,36.0746686 188.548573,36.4613314 188.548573,36.856 C188.548573,37.2720021 188.623239,37.6693314 188.772573,38.048 C188.921907,38.4266686 189.124572,38.7546653 189.380573,39.032 C189.636574,39.3093347 189.937905,39.5306658 190.284573,39.696 C190.631241,39.8613342 191.007238,39.944 191.412573,39.944 Z M200.18743,41.16 C199.792762,41.16 199.424765,41.093334 199.08343,40.96 C198.742095,40.826666 198.446098,40.6426678 198.19543,40.408 C197.944762,40.1733322 197.747431,39.8986682 197.60343,39.584 C197.45943,39.2693318 197.38743,38.9253352 197.38743,38.552 C197.38743,38.1679981 197.472763,37.8186682 197.64343,37.504 C197.814098,37.1893318 198.056762,36.9200011 198.37143,36.696 C198.686099,36.4719989 199.059428,36.2960006 199.49143,36.168 C199.923432,36.0399994 200.395428,35.976 200.90743,35.976 C201.312766,35.976 201.723428,36.013333 202.13943,36.088 C202.555432,36.162667 202.923429,36.2639994 203.24343,36.392 L203.24343,35.72 C203.24343,35.0373299 203.051432,34.5013353 202.66743,34.112 C202.283428,33.7226647 201.739434,33.528 201.03543,33.528 C200.192759,33.528 199.307435,33.8533301 198.37943,34.504 L197.91543,33.592 C198.992769,32.866663 200.075425,32.504 201.16343,32.504 C202.262102,32.504 203.118094,32.7973304 203.73143,33.384 C204.344767,33.9706696 204.65143,34.797328 204.65143,35.864 L204.65143,39.272 C204.65143,39.6026683 204.800762,39.7733333 205.09943,39.784 L205.09943,41 C204.950096,41.0213334 204.827431,41.0373333 204.73143,41.048 C204.63543,41.0586667 204.534097,41.064 204.42743,41.064 C204.150096,41.064 203.928764,40.9813342 203.76343,40.816 C203.598096,40.6506658 203.49943,40.4506678 203.46743,40.216 L203.43543,39.624 C203.062095,40.1253358 202.5901,40.5066654 202.01943,40.768 C201.448761,41.0293346 200.8381,41.16 200.18743,41.16 Z M200.55543,40.104 C201.056766,40.104 201.523428,40.0106676 201.95543,39.824 C202.387432,39.6373324 202.715429,39.3893349 202.93943,39.08 C203.142098,38.8773323 203.24343,38.6693344 203.24343,38.456 L203.24343,37.224 C202.56076,36.957332 201.851434,36.824 201.11543,36.824 C200.411427,36.824 199.838099,36.9733318 199.39543,37.272 C198.952761,37.5706682 198.73143,37.9599976 198.73143,38.44 C198.73143,38.6746678 198.776763,38.8933323 198.86743,39.096 C198.958097,39.2986677 199.086096,39.4746659 199.25143,39.624 C199.416764,39.7733341 199.611429,39.8906662 199.83543,39.976 C200.059431,40.0613338 200.299429,40.104 200.55543,40.104 Z M210.178288,41.16 C209.506284,41.16 208.844957,41.056001 208.194288,40.848 C207.543618,40.639999 206.983623,40.3386686 206.514288,39.944 L207.122288,39 C207.612957,39.3733352 208.103618,39.6533324 208.594288,39.84 C209.084957,40.0266676 209.602285,40.12 210.146288,40.12 C210.754291,40.12 211.236952,40.0000012 211.594288,39.76 C211.951623,39.5199988 212.130288,39.1813355 212.130288,38.744 C212.130288,38.5413323 212.082288,38.3680007 211.986288,38.224 C211.890287,38.0799993 211.746288,37.9546672 211.554288,37.848 C211.362287,37.7413328 211.116956,37.6453338 210.818288,37.56 C210.519619,37.4746662 210.172956,37.3840005 209.778288,37.288 C209.276952,37.1599994 208.844956,37.0373339 208.482288,36.92 C208.119619,36.8026661 207.820955,36.6640008 207.586288,36.504 C207.35162,36.3439992 207.180955,36.1520011 207.074288,35.928 C206.96762,35.7039989 206.914288,35.4266683 206.914288,35.096 C206.914288,34.6799979 206.996953,34.309335 207.162288,33.984 C207.327622,33.658665 207.554286,33.3866678 207.842288,33.168 C208.130289,32.9493322 208.468952,32.7840006 208.858288,32.672 C209.247623,32.5599994 209.666285,32.504 210.114288,32.504 C210.743624,32.504 211.330285,32.6053323 211.874288,32.808 C212.41829,33.0106677 212.876952,33.2773317 213.250288,33.608 L212.610288,34.456 C212.258286,34.1466651 211.863623,33.9146674 211.426288,33.76 C210.988952,33.6053326 210.540956,33.528 210.082288,33.528 C209.570285,33.528 209.135623,33.6373322 208.778288,33.856 C208.420952,34.0746678 208.242288,34.4239976 208.242288,34.904 C208.242288,35.096001 208.276954,35.2559994 208.346288,35.384 C208.415621,35.5120006 208.530287,35.6239995 208.690288,35.72 C208.850288,35.8160005 209.05562,35.901333 209.306288,35.976 C209.556955,36.050667 209.858286,36.1306662 210.210288,36.216 C210.764957,36.3440006 211.247619,36.474666 211.658288,36.608 C212.068956,36.741334 212.410286,36.8986658 212.682288,37.08 C212.954289,37.2613342 213.156954,37.4746654 213.290288,37.72 C213.423622,37.9653346 213.490288,38.2639982 213.490288,38.616 C213.490288,39.3946706 213.191624,40.013331 212.594288,40.472 C211.996951,40.930669 211.191626,41.16 210.178288,41.16 Z M222.745145,41 L221.337145,41 L221.337145,36.328 C221.337145,35.4639957 221.187813,34.8213354 220.889145,34.4 C220.590477,33.9786646 220.153148,33.768 219.577145,33.768 C219.29981,33.768 219.022479,33.8239994 218.745145,33.936 C218.46781,34.0480006 218.209146,34.199999 217.969145,34.392 C217.729144,34.584001 217.515812,34.813332 217.329145,35.08 C217.142477,35.346668 217.001145,35.6399984 216.905145,35.96 L216.905145,41 L215.497145,41 L215.497145,29.32 L216.905145,29.32 L216.905145,34.44 C217.235813,33.831997 217.683809,33.357335 218.249145,33.016 C218.814481,32.674665 219.433141,32.504 220.105145,32.504 C220.595814,32.504 221.01181,32.5946658 221.353145,32.776 C221.69448,32.9573342 221.966477,33.2026651 222.169145,33.512 C222.371812,33.8213349 222.518478,34.1919978 222.609145,34.624 C222.699812,35.0560022 222.745145,35.5173309 222.745145,36.008 L222.745145,41 Z M229.568002,41.16 C228.917332,41.16 228.325338,41.0000016 227.792002,40.68 C227.258666,40.3599984 226.837337,39.9440026 226.528002,39.432 L226.528002,41 L225.280002,41 L225.280002,29.32 L226.688002,29.32 L226.688002,34.312 C227.040004,33.7679973 227.471999,33.3306683 227.984002,33 C228.496004,32.6693317 229.093332,32.504 229.776002,32.504 C230.352005,32.504 230.869333,32.6266654 231.328002,32.872 C231.786671,33.1173346 232.178667,33.439998 232.504002,33.84 C232.829337,34.240002 233.080001,34.7039974 233.256002,35.232 C233.432003,35.7600026 233.520002,36.3013306 233.520002,36.856 C233.520002,37.4426696 233.41867,37.9973307 233.216002,38.52 C233.013334,39.0426693 232.736004,39.4986647 232.384002,39.888 C232.032,40.2773353 231.613338,40.5866655 231.128002,40.816 C230.642666,41.0453345 230.122671,41.16 229.568002,41.16 Z M229.216002,39.944 C229.632004,39.944 230.016,39.8586675 230.368002,39.688 C230.720004,39.5173325 231.024001,39.2880014 231.280002,39 C231.536003,38.7119986 231.733335,38.3840018 231.872002,38.016 C232.010669,37.6479982 232.080002,37.2613354 232.080002,36.856 C232.080002,36.4506646 232.013336,36.0586686 231.880002,35.68 C231.746668,35.3013314 231.560003,34.9680014 231.320002,34.68 C231.080001,34.3919986 230.792004,34.1600009 230.456002,33.984 C230.12,33.8079991 229.749337,33.72 229.344002,33.72 C229.045334,33.72 228.76267,33.7733328 228.496002,33.88 C228.229334,33.9866672 227.981336,34.1279991 227.752002,34.304 C227.522667,34.4800009 227.320003,34.6853322 227.144002,34.92 C226.968001,35.1546678 226.816003,35.405332 226.688002,35.672 L226.688002,38.088 C226.741336,38.354668 226.856001,38.5999989 227.032002,38.824 C227.208003,39.0480011 227.416001,39.2426658 227.656002,39.408 C227.896003,39.5733342 228.152001,39.7039995 228.424002,39.8 C228.696003,39.8960005 228.960001,39.944 229.216002,39.944 Z M239.238859,41.16 C238.609523,41.16 238.036195,41.0426678 237.518859,40.808 C237.001523,40.5733322 236.558861,40.2586686 236.190859,39.864 C235.822857,39.4693314 235.537527,39.0106693 235.334859,38.488 C235.132191,37.9653307 235.030859,37.4160029 235.030859,36.84 C235.030859,36.2533304 235.134858,35.6986693 235.342859,35.176 C235.55086,34.6533307 235.838857,34.1946686 236.206859,33.8 C236.574861,33.4053314 237.017523,33.0906678 237.534859,32.856 C238.052195,32.6213322 238.620189,32.504 239.238859,32.504 C239.857529,32.504 240.42819,32.6213322 240.950859,32.856 C241.473528,33.0906678 241.918857,33.4053314 242.286859,33.8 C242.654861,34.1946686 242.942858,34.6533307 243.150859,35.176 C243.35886,35.6986693 243.462859,36.2533304 243.462859,36.84 C243.462859,37.4160029 243.361527,37.9653307 243.158859,38.488 C242.956191,39.0106693 242.668194,39.4693314 242.294859,39.864 C241.921524,40.2586686 241.476195,40.5733322 240.958859,40.808 C240.441523,41.0426678 239.868196,41.16 239.238859,41.16 Z M236.470859,36.856 C236.470859,37.2933355 236.542858,37.6986648 236.686859,38.072 C236.83086,38.4453352 237.028191,38.7706653 237.278859,39.048 C237.529527,39.3253347 237.822857,39.5439992 238.158859,39.704 C238.494861,39.8640008 238.854857,39.944 239.238859,39.944 C239.622861,39.944 239.982857,39.8640008 240.318859,39.704 C240.654861,39.5439992 240.950858,39.3226681 241.206859,39.04 C241.46286,38.7573319 241.662858,38.4266686 241.806859,38.048 C241.95086,37.6693314 242.022859,37.2613355 242.022859,36.824 C242.022859,36.3973312 241.95086,35.9946686 241.806859,35.616 C241.662858,35.2373314 241.46286,34.9066681 241.206859,34.624 C240.950858,34.3413319 240.654861,34.1200008 240.318859,33.96 C239.982857,33.7999992 239.622861,33.72 239.238859,33.72 C238.854857,33.72 238.494861,33.8026658 238.158859,33.968 C237.822857,34.1333342 237.529527,34.3573319 237.278859,34.64 C237.028191,34.9226681 236.83086,35.2533314 236.686859,35.632 C236.542858,36.0106686 236.470859,36.4186645 236.470859,36.856 Z M247.661716,41.16 C247.267048,41.16 246.899051,41.093334 246.557716,40.96 C246.216381,40.826666 245.920384,40.6426678 245.669716,40.408 C245.419048,40.1733322 245.221717,39.8986682 245.077716,39.584 C244.933716,39.2693318 244.861716,38.9253352 244.861716,38.552 C244.861716,38.1679981 244.947049,37.8186682 245.117716,37.504 C245.288384,37.1893318 245.531048,36.9200011 245.845716,36.696 C246.160385,36.4719989 246.533714,36.2960006 246.965716,36.168 C247.397719,36.0399994 247.869714,35.976 248.381716,35.976 C248.787052,35.976 249.197714,36.013333 249.613716,36.088 C250.029718,36.162667 250.397715,36.2639994 250.717716,36.392 L250.717716,35.72 C250.717716,35.0373299 250.525718,34.5013353 250.141716,34.112 C249.757714,33.7226647 249.21372,33.528 248.509716,33.528 C247.667045,33.528 246.781721,33.8533301 245.853716,34.504 L245.389716,33.592 C246.467055,32.866663 247.549711,32.504 248.637716,32.504 C249.736389,32.504 250.59238,32.7973304 251.205716,33.384 C251.819053,33.9706696 252.125716,34.797328 252.125716,35.864 L252.125716,39.272 C252.125716,39.6026683 252.275048,39.7733333 252.573716,39.784 L252.573716,41 C252.424382,41.0213334 252.301717,41.0373333 252.205716,41.048 C252.109716,41.0586667 252.008384,41.064 251.901716,41.064 C251.624382,41.064 251.403051,40.9813342 251.237716,40.816 C251.072382,40.6506658 250.973717,40.4506678 250.941716,40.216 L250.909716,39.624 C250.536381,40.1253358 250.064386,40.5066654 249.493716,40.768 C248.923047,41.0293346 248.312386,41.16 247.661716,41.16 Z M248.029716,40.104 C248.531052,40.104 248.997714,40.0106676 249.429716,39.824 C249.861719,39.6373324 250.189715,39.3893349 250.413716,39.08 C250.616384,38.8773323 250.717716,38.6693344 250.717716,38.456 L250.717716,37.224 C250.035046,36.957332 249.32572,36.824 248.589716,36.824 C247.885713,36.824 247.312385,36.9733318 246.869716,37.272 C246.427047,37.5706682 246.205716,37.9599976 246.205716,38.44 C246.205716,38.6746678 246.251049,38.8933323 246.341716,39.096 C246.432383,39.2986677 246.560382,39.4746659 246.725716,39.624 C246.891051,39.7733341 247.085715,39.8906662 247.309716,39.976 C247.533717,40.0613338 247.773715,40.104 248.029716,40.104 Z M259.140574,33.88 C258.43657,33.9013334 257.815243,34.082665 257.276574,34.424 C256.737904,34.765335 256.356575,35.239997 256.132574,35.848 L256.132574,41 L254.724574,41 L254.724574,32.648 L256.036574,32.648 L256.036574,34.584 C256.324575,34.0079971 256.703238,33.5413351 257.172574,33.184 C257.641909,32.8266649 258.143238,32.6266669 258.676574,32.584 L258.948574,32.584 C259.023241,32.584 259.08724,32.5893333 259.140574,32.6 L259.140574,33.88 Z M264.171431,41.16 C263.595428,41.16 263.0621,41.0426678 262.571431,40.808 C262.080762,40.5733322 261.659433,40.2586686 261.307431,39.864 C260.955429,39.4693314 260.680765,39.0106693 260.483431,38.488 C260.286096,37.9653307 260.187431,37.4160029 260.187431,36.84 C260.187431,36.2533304 260.280763,35.6960026 260.467431,35.168 C260.654098,34.6399974 260.915429,34.1786686 261.251431,33.784 C261.587432,33.3893314 261.987428,33.0773345 262.451431,32.848 C262.915433,32.6186655 263.424761,32.504 263.979431,32.504 C264.651434,32.504 265.251428,32.6799982 265.779431,33.032 C266.307433,33.3840018 266.726096,33.8106642 267.035431,34.312 L267.035431,29.32 L268.443431,29.32 L268.443431,39.272 C268.443431,39.6026683 268.592763,39.7733333 268.891431,39.784 L268.891431,41 C268.742097,41.0213334 268.622098,41.0373333 268.531431,41.048 C268.440764,41.0586667 268.352765,41.064 268.267431,41.064 C267.990096,41.064 267.747432,40.9706676 267.539431,40.784 C267.33143,40.5973324 267.227431,40.3813346 267.227431,40.136 L267.227431,39.432 C266.896762,39.9760027 266.456767,40.3999985 265.907431,40.704 C265.358095,41.0080015 264.779434,41.16 264.171431,41.16 Z M264.507431,39.944 C264.763432,39.944 265.027429,39.8960005 265.299431,39.8 C265.571432,39.7039995 265.82743,39.5706675 266.067431,39.4 C266.307432,39.2293325 266.51543,39.0293345 266.691431,38.8 C266.867432,38.5706655 266.982097,38.3280013 267.035431,38.072 L267.035431,35.672 C266.93943,35.405332 266.795432,35.1520012 266.603431,34.912 C266.41143,34.6719988 266.195432,34.4640009 265.955431,34.288 C265.71543,34.1119991 265.459432,33.9733338 265.187431,33.872 C264.915429,33.7706662 264.646099,33.72 264.379431,33.72 C263.963429,33.72 263.587432,33.8079991 263.251431,33.984 C262.915429,34.1600009 262.627432,34.3946652 262.387431,34.688 C262.14743,34.9813348 261.963431,35.3173314 261.835431,35.696 C261.70743,36.0746686 261.643431,36.4613314 261.643431,36.856 C261.643431,37.2720021 261.718097,37.6693314 261.867431,38.048 C262.016765,38.4266686 262.219429,38.7546653 262.475431,39.032 C262.731432,39.3093347 263.032762,39.5306658 263.379431,39.696 C263.726099,39.8613342 264.102095,39.944 264.507431,39.944 Z M274.066288,41.16 C273.394285,41.16 272.732958,41.056001 272.082288,40.848 C271.431618,40.639999 270.871624,40.3386686 270.402288,39.944 L271.010288,39 C271.500957,39.3733352 271.991619,39.6533324 272.482288,39.84 C272.972957,40.0266676 273.490285,40.12 274.034288,40.12 C274.642291,40.12 275.124953,40.0000012 275.482288,39.76 C275.839623,39.5199988 276.018288,39.1813355 276.018288,38.744 C276.018288,38.5413323 275.970288,38.3680007 275.874288,38.224 C275.778288,38.0799993 275.634289,37.9546672 275.442288,37.848 C275.250287,37.7413328 275.004956,37.6453338 274.706288,37.56 C274.40762,37.4746662 274.060957,37.3840005 273.666288,37.288 C273.164952,37.1599994 272.732956,37.0373339 272.370288,36.92 C272.00762,36.8026661 271.708956,36.6640008 271.474288,36.504 C271.23962,36.3439992 271.068955,36.1520011 270.962288,35.928 C270.855621,35.7039989 270.802288,35.4266683 270.802288,35.096 C270.802288,34.6799979 270.884954,34.309335 271.050288,33.984 C271.215622,33.658665 271.442287,33.3866678 271.730288,33.168 C272.018289,32.9493322 272.356953,32.7840006 272.746288,32.672 C273.135623,32.5599994 273.554286,32.504 274.002288,32.504 C274.631624,32.504 275.218285,32.6053323 275.762288,32.808 C276.306291,33.0106677 276.764953,33.2773317 277.138288,33.608 L276.498288,34.456 C276.146286,34.1466651 275.751624,33.9146674 275.314288,33.76 C274.876952,33.6053326 274.428957,33.528 273.970288,33.528 C273.458285,33.528 273.023623,33.6373322 272.666288,33.856 C272.308953,34.0746678 272.130288,34.4239976 272.130288,34.904 C272.130288,35.096001 272.164954,35.2559994 272.234288,35.384 C272.303622,35.5120006 272.418287,35.6239995 272.578288,35.72 C272.738289,35.8160005 272.94362,35.901333 273.194288,35.976 C273.444956,36.050667 273.746286,36.1306662 274.098288,36.216 C274.652957,36.3440006 275.135619,36.474666 275.546288,36.608 C275.956957,36.741334 276.298287,36.8986658 276.570288,37.08 C276.842289,37.2613342 277.044954,37.4746654 277.178288,37.72 C277.311622,37.9653346 277.378288,38.2639982 277.378288,38.616 C277.378288,39.3946706 277.079624,40.013331 276.482288,40.472 C275.884952,40.930669 275.079626,41.16 274.066288,41.16 Z M279.273145,41 L279.273145,39.208 L280.457145,39.208 L280.457145,41 L279.273145,41 Z" id="path-1"></path>
        <filter x="-1.8%" y="-6.9%" width="102.4%" height="118.4%" filterUnits="objectBoundingBox" id="filter-2">
            <feOffset dx="-2" dy="1" in="SourceAlpha" result="shadowOffsetOuter1"></feOffset>
            <feGaussianBlur stdDeviation="1" in="shadowOffsetOuter1" result="shadowBlurOuter1"></feGaussianBlur>
            <feColorMatrix values="0 0 0 0 0.745098039   0 0 0 0 0.215686275   0 0 0 0 0.203921569  0 0 0 0.7 0" type="matrix" in="shadowBlurOuter1"></feColorMatrix>
        </filter>
    </defs>
    <g id="Registration" stroke="none" stroke-width="1" fill="none" fill-rule="evenodd">
        <g id="End-to-end-solution">
            <use fill="black" fill-opacity="1" filter="url(#filter-2)" xlink:href="#path-1"></use>
            <use fill="#FFFFFF" fill-rule="evenodd" xlink:href="#path-1"></use>
        </g>
    </g>
</svg>