<?xml version="1.0" encoding="UTF-8"?>
<svg width="40px" height="40px" viewBox="0 0 40 40" version="1.1" xmlns="http://www.w3.org/2000/svg" xmlns:xlink="http://www.w3.org/1999/xlink">
    <!-- Generator: Sketch 56.3 (81716) - https://sketch.com -->
    <title>App logo-brand</title>
    <desc>Created with Sketch.</desc>
    <g id="App-logo-brand" stroke="none" stroke-width="1" fill="none" fill-rule="evenodd">
        <g id="Bold-Reports-logo" transform="translate(1.000000, 6.000000)" fill="#FF4800" fill-rule="nonzero">
            <path d="M24.7099102,0.00463253123 L15.8523151,0.251725879 C14.8299369,0.278200166 13.8618443,0.648840188 13.1018463,1.30187261 C10.251854,3.73750704 3.0409211,10.2943055 0.380928273,18.783727 C-1.37430509,24.3874511 3.16758742,30 9.25661861,30 L30.3194189,30 C30.8260842,30 31.0522741,29.3999162 30.6722751,29.0822247 C28.2384721,27.0613541 25.3522895,23.4520263 33.7032193,15.2714715 C43.4474787,5.73190334 34.960835,-0.189512242 24.7099102,0.00463253123 Z M21.1089676,19.7809251 C21.0637296,19.9132966 20.9280157,19.9927194 20.7832542,19.9927194 L9.41947531,19.9927194 C8.66852496,19.9927194 8.14376447,19.2779137 8.39709712,18.598407 C8.69566774,17.8130031 9.16614266,16.8246297 9.84471226,15.8715554 L23.2351523,15.8715554 C22.2037265,17.1070221 21.5794425,18.5366336 21.1089676,19.7809251 Z M28.3560909,9.36770546 C27.9760919,10.0383874 27.4332362,10.7355436 26.8722854,11.3797513 L12.7942281,11.3797513 C13.6356544,10.0825112 14.9113653,8.64407494 15.9970766,7.67335108 C16.2956472,7.4086082 16.6756462,7.25858724 17.082788,7.25858724 L25.5694317,7.25858724 C28.1932342,7.25858724 28.889899,8.41463112 28.3560909,9.36770546 Z" id="Shape"></path>
        </g>
    </g>
</svg>