<svg width="16" height="16" viewBox="0 0 16 16" fill="none" xmlns="http://www.w3.org/2000/svg">
<path fill-rule="evenodd" clip-rule="evenodd" d="M8 16C3.58172 16 0 12.4183 0 8C0 3.58172 3.58172 0 8 0C12.4183 0 16 3.58172 16 8C16 12.4183 12.4183 16 8 16ZM11.7815 4.81687L6.44444 10.0953L4.2185 7.89379C4.01601 7.69352 3.6877 7.69352 3.4852 7.89379C3.28271 8.09406 3.28271 8.41876 3.4852 8.61903L6.0778 11.1831C6.28029 11.3834 6.6086 11.3834 6.81109 11.1831L12.5148 5.54211C12.7173 5.34184 12.7173 5.01714 12.5148 4.81687C12.3123 4.6166 11.984 4.6166 11.7815 4.81687Z" fill="#22C55E"/>
</svg>
