<svg width="32" height="32" viewBox="0 0 32 32" fill="none" xmlns="http://www.w3.org/2000/svg">
<path d="M16 32C24.8366 32 32 24.8366 32 16C32 7.16344 24.8366 0 16 0C7.16344 0 0 7.16344 0 16C0 24.8366 7.16344 32 16 32Z" fill="url(#paint0_linear_215_29581)"/>
<g filter="url(#filter0_d_215_29581)">
<path d="M25.4347 21.0945L17.3253 7.01198C16.8552 6.196 15.6782 6.196 15.2081 7.01198L7.09865 21.0945C6.62859 21.9105 7.21712 22.9333 8.15723 22.9333H24.3761C25.3162 22.9333 25.9048 21.9105 25.4347 21.0945ZM16.2781 11.1571C16.7979 11.1571 17.2183 11.5899 17.203 12.111L17.0501 17.4589C17.0386 17.8803 16.6947 18.2136 16.2743 18.2136C15.8539 18.2136 15.51 17.8765 15.4985 17.4589L15.3495 12.111C15.338 11.5899 15.7546 11.1571 16.2781 11.1571ZM16.2667 21.3282C15.7355 21.3282 15.3036 20.8953 15.3036 20.3628C15.3036 19.8303 15.7355 19.3974 16.2667 19.3974C16.7979 19.3974 17.2297 19.8303 17.2297 20.3628C17.2297 20.8953 16.7979 21.3282 16.2667 21.3282Z" fill="url(#paint1_linear_215_29581)"/>
</g>
<defs>
<filter id="filter0_d_215_29581" x="-6.06665" y="-0.600006" width="46.6667" height="44.5333" filterUnits="userSpaceOnUse" color-interpolation-filters="sRGB">
<feFlood flood-opacity="0" result="BackgroundImageFix"/>
<feColorMatrix in="SourceAlpha" type="matrix" values="0 0 0 0 0 0 0 0 0 0 0 0 0 0 0 0 0 0 127 0" result="hardAlpha"/>
<feOffset dx="1" dy="7"/>
<feGaussianBlur stdDeviation="7"/>
<feColorMatrix type="matrix" values="0 0 0 0 0 0 0 0 0 0 0 0 0 0 0 0 0 0 0.2 0"/>
<feBlend mode="normal" in2="BackgroundImageFix" result="effect1_dropShadow_215_29581"/>
<feBlend mode="normal" in="SourceGraphic" in2="effect1_dropShadow_215_29581" result="shape"/>
</filter>
<linearGradient id="paint0_linear_215_29581" x1="24.925" y1="5.59791" x2="5.18333" y2="26.9854" gradientUnits="userSpaceOnUse">
<stop stop-color="#FFCA2D"/>
<stop offset="0.263492" stop-color="#F9AF2F"/>
<stop offset="0.528858" stop-color="#FEA930"/>
<stop offset="0.765545" stop-color="#FB9732"/>
<stop offset="1" stop-color="#FD8B32"/>
</linearGradient>
<linearGradient id="paint1_linear_215_29581" x1="19.3912" y1="8.76805" x2="13.2278" y2="23.5122" gradientUnits="userSpaceOnUse">
<stop stop-color="#FCFEFA"/>
<stop offset="1" stop-color="#FEE6CF"/>
</linearGradient>
</defs>
</svg>
