<svg width="16" height="16" viewBox="0 0 16 16" fill="none" xmlns="http://www.w3.org/2000/svg">
<g clip-path="url(#clip0_3707_53816)">
<path fill-rule="evenodd" clip-rule="evenodd" d="M15.8583 13.262L8.90733 1.19131C8.50447 0.491893 7.49553 0.491893 7.09267 1.19131L0.141684 13.262C-0.261223 13.9614 0.24323 14.8381 1.04904 14.8381H14.9509C15.7568 14.8381 16.2612 13.9614 15.8583 13.262ZM8.00973 4.74419C8.45527 4.74419 8.8156 5.11524 8.80247 5.56182L8.67147 10.1458C8.6616 10.507 8.3668 10.7927 8.00647 10.7927C7.64613 10.7927 7.35133 10.5037 7.34153 10.1458L7.2138 5.56182C7.20393 5.11524 7.561 4.74419 8.00973 4.74419ZM7.17453 12.6349C7.17453 13.0913 7.54467 13.4623 8 13.4623C8.45527 13.4623 8.82547 13.0913 8.82547 12.6349C8.82547 12.1784 8.45527 11.8073 8 11.8073C7.54467 11.8073 7.17453 12.1784 7.17453 12.6349Z" fill="url(#paint0_linear_3707_53816)"/>
</g>
<defs>
<linearGradient id="paint0_linear_3707_53816" x1="7.1156" y1="-1.22555" x2="-1.48017" y2="9.28848" gradientUnits="userSpaceOnUse">
<stop stop-color="#FFCA2D"/>
<stop offset="0.263492" stop-color="#F9AF2F"/>
<stop offset="0.528858" stop-color="#FEA930"/>
<stop offset="0.765545" stop-color="#FB9732"/>
<stop offset="1" stop-color="#FD8B32"/>
</linearGradient>
<clipPath id="clip0_3707_53816">
<rect width="16" height="16" fill="white"/>
</clipPath>
</defs>
</svg>
