<svg width="239" height="159" viewBox="0 0 239 159" fill="none" xmlns="http://www.w3.org/2000/svg">
<g clip-path="url(#clip0_586_43380)">
<path opacity="0.4" d="M206.293 83.3769H173.835C164.871 83.3769 157.606 75.8809 157.606 66.7699V50.1649C157.606 40.9389 164.871 33.4429 173.835 33.4429H238.75V50.1649C238.75 68.4999 224.218 83.3779 206.293 83.3779M92.067 124.729V102.102H46.034C20.619 102.102 0 122.363 0 147.356H69.051C81.838 147.356 92.067 137.227 92.067 124.729" fill="#DBEEFE"/>
<g opacity="0.7">
<path d="M153.26 18.4239C153.26 18.8429 152.913 19.1839 152.485 19.1839C152.384 19.1848 152.284 19.1659 152.191 19.1282C152.097 19.0905 152.012 19.0347 151.941 18.9642C151.869 18.8936 151.811 18.8096 151.772 18.7169C151.733 18.6241 151.712 18.5246 151.711 18.4239C151.711 18.0029 152.058 17.6619 152.485 17.6619C152.913 17.6619 153.26 18.0029 153.26 18.4239ZM161.642 18.4239C161.642 18.8429 161.295 19.1839 160.868 19.1839C160.664 19.1857 160.468 19.1067 160.323 18.9642C160.178 18.8217 160.095 18.6274 160.093 18.4239C160.093 18.0029 160.44 17.6619 160.868 17.6619C161.295 17.6619 161.642 18.0029 161.642 18.4239ZM170.024 18.4239C170.024 18.8429 169.678 19.1839 169.25 19.1839C169.046 19.1857 168.85 19.1067 168.705 18.9642C168.56 18.8217 168.477 18.6274 168.475 18.4239C168.475 18.0029 168.822 17.6619 169.25 17.6619C169.678 17.6619 170.024 18.0029 170.024 18.4239ZM178.407 18.4239C178.407 18.8429 178.059 19.1839 177.632 19.1839C177.531 19.1848 177.431 19.1659 177.338 19.1282C177.244 19.0905 177.159 19.0347 177.088 18.9642C177.016 18.8936 176.958 18.8096 176.919 18.7169C176.88 18.6241 176.859 18.5246 176.858 18.4239C176.858 18.0029 177.204 17.6619 177.632 17.6619C178.059 17.6619 178.407 18.0029 178.407 18.4239ZM186.789 18.4239C186.789 18.8429 186.442 19.1839 186.014 19.1839C185.913 19.1848 185.813 19.1659 185.72 19.1282C185.626 19.0905 185.541 19.0347 185.47 18.9642C185.398 18.8936 185.34 18.8096 185.301 18.7169C185.262 18.6241 185.241 18.5246 185.24 18.4239C185.24 18.0029 185.587 17.6619 186.014 17.6619C186.442 17.6619 186.789 18.0029 186.789 18.4239ZM195.171 18.4239C195.171 18.8429 194.824 19.1839 194.397 19.1839C194.193 19.1857 193.997 19.1067 193.852 18.9642C193.707 18.8217 193.624 18.6274 193.622 18.4239C193.622 18.0029 193.969 17.6619 194.397 17.6619C194.824 17.6619 195.171 18.0029 195.171 18.4239ZM203.553 18.4239C203.553 18.8429 203.206 19.1839 202.779 19.1839C202.575 19.1857 202.379 19.1067 202.234 18.9642C202.089 18.8217 202.006 18.6274 202.004 18.4239C202.004 18.0029 202.351 17.6619 202.779 17.6619C203.206 17.6619 203.553 18.0029 203.553 18.4239ZM211.935 18.4239C211.935 18.8429 211.589 19.1839 211.161 19.1839C210.958 19.1855 210.762 19.1064 210.617 18.9639C210.472 18.8214 210.389 18.6272 210.387 18.4239C210.387 18.0029 210.734 17.6619 211.161 17.6619C211.589 17.6619 211.935 18.0029 211.935 18.4239ZM220.318 18.4239C220.318 18.8429 219.971 19.1839 219.543 19.1839C219.34 19.1855 219.144 19.1063 218.999 18.9638C218.854 18.8213 218.772 18.6271 218.77 18.4239C218.77 18.0029 219.115 17.6619 219.543 17.6619C219.971 17.6619 220.318 18.0029 220.318 18.4239ZM228.7 18.4239C228.7 18.8429 228.353 19.1839 227.925 19.1839C227.722 19.1855 227.526 19.1063 227.381 18.9638C227.236 18.8213 227.154 18.6271 227.152 18.4239C227.152 18.0029 227.498 17.6619 227.925 17.6619C228.353 17.6619 228.7 18.0029 228.7 18.4239ZM153.26 24.8649C153.26 25.2859 152.913 25.6269 152.485 25.6269C152.281 25.6285 152.086 25.5492 151.94 25.4065C151.795 25.2638 151.713 25.0694 151.711 24.8659C151.711 24.4459 152.058 24.1059 152.485 24.1059C152.913 24.1059 153.26 24.4459 153.26 24.8659M161.642 24.8649C161.642 25.2859 161.295 25.6269 160.868 25.6269C160.767 25.6278 160.667 25.6088 160.574 25.5711C160.48 25.5333 160.395 25.4775 160.323 25.4069C160.251 25.3362 160.194 25.2521 160.154 25.1592C160.115 25.0664 160.094 24.9667 160.093 24.8659C160.093 24.4459 160.44 24.1059 160.868 24.1059C161.295 24.1059 161.642 24.4459 161.642 24.8659M170.024 24.8649C170.024 25.2859 169.678 25.6269 169.25 25.6269C169.149 25.6278 169.049 25.6088 168.956 25.5711C168.862 25.5333 168.777 25.4775 168.705 25.4069C168.633 25.3362 168.576 25.2521 168.536 25.1592C168.497 25.0664 168.476 24.9667 168.475 24.8659C168.475 24.4459 168.822 24.1059 169.25 24.1059C169.678 24.1059 170.024 24.4459 170.024 24.8659M178.407 24.8649C178.407 25.2859 178.059 25.6269 177.632 25.6269C177.531 25.6278 177.431 25.6088 177.338 25.5711C177.244 25.5333 177.159 25.4775 177.087 25.4068C177.015 25.3361 176.958 25.252 176.919 25.1592C176.879 25.0663 176.859 24.9667 176.858 24.8659C176.858 24.4459 177.204 24.1059 177.632 24.1059C178.059 24.1059 178.407 24.4459 178.407 24.8659M186.789 24.8649C186.789 25.2859 186.442 25.6269 186.014 25.6269C185.81 25.6285 185.615 25.5492 185.469 25.4065C185.324 25.2638 185.242 25.0694 185.24 24.8659C185.24 24.4459 185.587 24.1059 186.014 24.1059C186.442 24.1059 186.789 24.4459 186.789 24.8659M195.171 24.8649C195.171 25.2859 194.824 25.6269 194.397 25.6269C194.296 25.6278 194.196 25.6088 194.102 25.5711C194.009 25.5333 193.924 25.4775 193.852 25.4069C193.78 25.3362 193.723 25.2521 193.683 25.1592C193.644 25.0664 193.623 24.9667 193.622 24.8659C193.622 24.4459 193.969 24.1059 194.397 24.1059C194.824 24.1059 195.171 24.4459 195.171 24.8659M203.553 24.8649C203.553 25.2859 203.206 25.6269 202.779 25.6269C202.678 25.6278 202.578 25.6088 202.484 25.5711C202.391 25.5333 202.306 25.4775 202.234 25.4069C202.162 25.3362 202.105 25.2521 202.065 25.1592C202.026 25.0664 202.005 24.9667 202.004 24.8659C202.004 24.4459 202.351 24.1059 202.779 24.1059C203.206 24.1059 203.553 24.4459 203.553 24.8659M211.935 24.8649C211.935 25.2859 211.589 25.6269 211.161 25.6269C210.957 25.6282 210.762 25.5489 210.617 25.4062C210.472 25.2636 210.389 25.0693 210.387 24.8659C210.387 24.4459 210.734 24.1059 211.161 24.1059C211.589 24.1059 211.935 24.4459 211.935 24.8659M220.318 24.8649C220.318 25.2859 219.971 25.6269 219.543 25.6269C219.442 25.6277 219.342 25.6086 219.249 25.5708C219.156 25.533 219.071 25.4771 218.999 25.4065C218.927 25.3358 218.87 25.2517 218.831 25.1589C218.791 25.0662 218.771 24.9666 218.77 24.8659C218.77 24.4459 219.115 24.1059 219.543 24.1059C219.971 24.1059 220.318 24.4459 220.318 24.8659M228.7 24.8649C228.7 25.2859 228.353 25.6269 227.925 25.6269C227.722 25.6282 227.526 25.5488 227.381 25.4062C227.236 25.2635 227.154 25.0692 227.152 24.8659C227.152 24.4459 227.498 24.1059 227.925 24.1059C228.353 24.1059 228.7 24.4459 228.7 24.8659M153.26 31.3089C153.26 31.7289 152.913 32.0699 152.485 32.0699C152.282 32.0715 152.086 31.9924 151.941 31.8499C151.796 31.7074 151.713 31.5132 151.711 31.3099C151.711 30.8899 152.058 30.5499 152.485 30.5499C152.913 30.5499 153.26 30.8899 153.26 31.3099M161.642 31.3089C161.642 31.7289 161.295 32.0699 160.868 32.0699C160.664 32.0717 160.468 31.9927 160.323 31.8502C160.178 31.7077 160.095 31.5134 160.093 31.3099C160.093 30.8899 160.44 30.5499 160.868 30.5499C161.295 30.5499 161.642 30.8899 161.642 31.3099M170.024 31.3089C170.024 31.7289 169.678 32.0699 169.25 32.0699C169.046 32.0717 168.85 31.9927 168.705 31.8502C168.56 31.7077 168.477 31.5134 168.475 31.3099C168.475 30.8899 168.822 30.5499 169.25 30.5499C169.678 30.5499 170.024 30.8899 170.024 31.3099M178.407 31.3089C178.407 31.7289 178.059 32.0699 177.632 32.0699C177.531 32.0708 177.431 32.0519 177.338 32.0142C177.244 31.9765 177.159 31.9207 177.088 31.8502C177.016 31.7796 176.958 31.6956 176.919 31.6029C176.88 31.5101 176.859 31.4106 176.858 31.3099C176.858 30.8899 177.204 30.5499 177.632 30.5499C178.059 30.5499 178.407 30.8899 178.407 31.3099M186.789 31.3089C186.789 31.7289 186.442 32.0699 186.014 32.0699C185.811 32.0715 185.615 31.9924 185.47 31.8499C185.325 31.7074 185.242 31.5132 185.24 31.3099C185.24 30.8899 185.587 30.5499 186.014 30.5499C186.442 30.5499 186.789 30.8899 186.789 31.3099M195.171 31.3089C195.171 31.7289 194.824 32.0699 194.397 32.0699C194.193 32.0717 193.997 31.9927 193.852 31.8502C193.707 31.7077 193.624 31.5134 193.622 31.3099C193.622 30.8899 193.969 30.5499 194.397 30.5499C194.824 30.5499 195.171 30.8899 195.171 31.3099M203.553 31.3089C203.553 31.7289 203.206 32.0699 202.779 32.0699C202.575 32.0717 202.379 31.9927 202.234 31.8502C202.089 31.7077 202.006 31.5134 202.004 31.3099C202.004 30.8899 202.351 30.5499 202.779 30.5499C203.206 30.5499 203.553 30.8899 203.553 31.3099M211.935 31.3089C211.935 31.7289 211.589 32.0699 211.161 32.0699C210.958 32.0712 210.762 31.992 210.617 31.8496C210.472 31.7072 210.389 31.5131 210.387 31.3099C210.387 30.8899 210.734 30.5499 211.161 30.5499C211.589 30.5499 211.935 30.8899 211.935 31.3099M220.318 31.3089C220.318 31.7289 219.971 32.0699 219.543 32.0699C219.34 32.0715 219.144 31.9923 218.999 31.8498C218.854 31.7073 218.772 31.5131 218.77 31.3099C218.77 30.8899 219.115 30.5499 219.543 30.5499C219.971 30.5499 220.318 30.8899 220.318 31.3099M228.7 31.3089C228.7 31.7289 228.353 32.0699 227.925 32.0699C227.722 32.0712 227.526 31.992 227.381 31.8495C227.237 31.7071 227.154 31.513 227.152 31.3099C227.152 30.8899 227.498 30.5499 227.925 30.5499C228.353 30.5499 228.7 30.8899 228.7 31.3099M153.26 37.7529C153.26 38.1729 152.913 38.5129 152.485 38.5129C152.282 38.5145 152.086 38.4354 151.941 38.2929C151.796 38.1504 151.713 37.9562 151.711 37.7529C151.711 37.3329 152.058 36.9929 152.485 36.9929C152.913 36.9929 153.26 37.3329 153.26 37.7529ZM161.642 37.7529C161.642 38.1729 161.295 38.5129 160.868 38.5129C160.664 38.5145 160.469 38.4354 160.323 38.2929C160.178 38.1505 160.095 37.9563 160.093 37.7529C160.093 37.3329 160.44 36.9929 160.868 36.9929C161.295 36.9929 161.642 37.3329 161.642 37.7529ZM170.024 37.7529C170.024 38.1729 169.678 38.5129 169.25 38.5129C169.047 38.5145 168.851 38.4354 168.705 38.2929C168.56 38.1505 168.477 37.9563 168.475 37.7529C168.475 37.3329 168.822 36.9929 169.25 36.9929C169.678 36.9929 170.024 37.3329 170.024 37.7529ZM178.407 37.7529C178.404 37.9562 178.321 38.1503 178.176 38.2926C178.031 38.435 177.835 38.5142 177.632 38.5129C177.429 38.5145 177.233 38.4354 177.088 38.2929C176.943 38.1504 176.86 37.9562 176.858 37.7529C176.858 37.3329 177.204 36.9929 177.632 36.9929C178.059 36.9929 178.407 37.3329 178.407 37.7529ZM186.789 37.7529C186.789 38.1729 186.442 38.5129 186.014 38.5129C185.811 38.5145 185.615 38.4354 185.47 38.2929C185.325 38.1504 185.242 37.9562 185.24 37.7529C185.24 37.3329 185.587 36.9929 186.014 36.9929C186.442 36.9929 186.789 37.3329 186.789 37.7529ZM195.171 37.7529C195.171 38.1729 194.824 38.5129 194.397 38.5129C194.194 38.5145 193.998 38.4354 193.852 38.2929C193.707 38.1505 193.624 37.9563 193.622 37.7529C193.622 37.3329 193.969 36.9929 194.397 36.9929C194.824 36.9929 195.171 37.3329 195.171 37.7529ZM203.553 37.7529C203.553 38.1729 203.206 38.5129 202.779 38.5129C202.576 38.5145 202.38 38.4354 202.234 38.2929C202.089 38.1505 202.006 37.9563 202.004 37.7529C202.004 37.3329 202.351 36.9929 202.779 36.9929C203.206 36.9929 203.553 37.3329 203.553 37.7529ZM211.935 37.7529C211.935 38.1729 211.589 38.5129 211.161 38.5129C210.958 38.5139 210.762 38.4347 210.617 38.2923C210.472 38.1499 210.39 37.956 210.387 37.7529C210.387 37.3329 210.734 36.9929 211.161 36.9929C211.589 36.9929 211.935 37.3329 211.935 37.7529ZM220.318 37.7529C220.318 38.1729 219.971 38.5129 219.543 38.5129C219.34 38.5142 219.144 38.435 218.999 38.2925C218.855 38.1501 218.772 37.956 218.77 37.7529C218.77 37.3329 219.115 36.9929 219.543 36.9929C219.971 36.9929 220.318 37.3329 220.318 37.7529ZM228.7 37.7529C228.7 38.1729 228.353 38.5129 227.925 38.5129C227.722 38.5142 227.526 38.435 227.381 38.2925C227.237 38.1501 227.154 37.956 227.152 37.7529C227.152 37.3329 227.498 36.9929 227.925 36.9929C228.353 36.9929 228.7 37.3329 228.7 37.7529ZM153.26 44.1959C153.26 44.6159 152.913 44.9559 152.485 44.9559C152.384 44.9568 152.284 44.9379 152.191 44.9002C152.097 44.8625 152.012 44.8067 151.941 44.7362C151.869 44.6656 151.811 44.5816 151.772 44.4889C151.733 44.3961 151.712 44.2966 151.711 44.1959C151.711 43.7759 152.058 43.4349 152.485 43.4349C152.913 43.4349 153.26 43.7749 153.26 44.1959ZM161.642 44.1959C161.642 44.6159 161.295 44.9559 160.868 44.9559C160.664 44.9577 160.468 44.8787 160.323 44.7362C160.178 44.5937 160.095 44.3994 160.093 44.1959C160.093 43.7759 160.44 43.4349 160.868 43.4349C161.295 43.4349 161.642 43.7749 161.642 44.1959ZM170.024 44.1959C170.024 44.6159 169.678 44.9559 169.25 44.9559C169.046 44.9577 168.85 44.8787 168.705 44.7362C168.56 44.5937 168.477 44.3994 168.475 44.1959C168.475 43.7759 168.822 43.4349 169.25 43.4349C169.678 43.4349 170.024 43.7749 170.024 44.1959ZM178.407 44.1959C178.407 44.6159 178.059 44.9559 177.632 44.9559C177.531 44.9568 177.431 44.9379 177.338 44.9002C177.244 44.8625 177.159 44.8067 177.088 44.7362C177.016 44.6656 176.958 44.5816 176.919 44.4889C176.88 44.3961 176.859 44.2966 176.858 44.1959C176.858 43.7759 177.204 43.4349 177.632 43.4349C178.059 43.4349 178.407 43.7749 178.407 44.1959ZM186.789 44.1959C186.789 44.6159 186.442 44.9559 186.014 44.9559C185.913 44.9568 185.813 44.9379 185.72 44.9002C185.626 44.8625 185.541 44.8067 185.47 44.7362C185.398 44.6656 185.34 44.5816 185.301 44.4889C185.262 44.3961 185.241 44.2966 185.24 44.1959C185.24 43.7759 185.587 43.4349 186.014 43.4349C186.442 43.4349 186.789 43.7749 186.789 44.1959ZM195.171 44.1959C195.171 44.6159 194.824 44.9559 194.397 44.9559C194.193 44.9577 193.997 44.8787 193.852 44.7362C193.707 44.5937 193.624 44.3994 193.622 44.1959C193.622 43.7759 193.969 43.4349 194.397 43.4349C194.824 43.4349 195.171 43.7749 195.171 44.1959ZM203.553 44.1959C203.553 44.6159 203.206 44.9559 202.779 44.9559C202.575 44.9577 202.379 44.8787 202.234 44.7362C202.089 44.5937 202.006 44.3994 202.004 44.1959C202.004 43.7759 202.351 43.4349 202.779 43.4349C203.206 43.4349 203.553 43.7749 203.553 44.1959ZM211.935 44.1959C211.935 44.6159 211.589 44.9559 211.161 44.9559C210.958 44.9575 210.762 44.8784 210.617 44.7359C210.472 44.5934 210.389 44.3992 210.387 44.1959C210.387 43.7759 210.734 43.4349 211.161 43.4349C211.589 43.4349 211.935 43.7749 211.935 44.1959ZM220.318 44.1959C220.318 44.6159 219.971 44.9559 219.543 44.9559C219.34 44.9575 219.144 44.8783 218.999 44.7358C218.854 44.5933 218.772 44.3991 218.77 44.1959C218.77 43.7759 219.115 43.4349 219.543 43.4349C219.971 43.4349 220.318 43.7749 220.318 44.1959ZM228.7 44.1959C228.7 44.6159 228.353 44.9559 227.925 44.9559C227.722 44.9575 227.526 44.8783 227.381 44.7358C227.236 44.5933 227.154 44.3991 227.152 44.1959C227.152 43.7759 227.498 43.4349 227.925 43.4349C228.353 43.4349 228.7 43.7749 228.7 44.1959ZM153.26 50.1549C153.26 50.5749 152.913 50.9159 152.485 50.9159C152.282 50.9175 152.086 50.8384 151.941 50.6959C151.796 50.5534 151.713 50.3592 151.711 50.1559C151.711 49.7359 152.058 49.3959 152.485 49.3959C152.913 49.3959 153.26 49.7359 153.26 50.1559M161.642 50.1549C161.642 50.5749 161.295 50.9159 160.868 50.9159C160.664 50.9177 160.468 50.8387 160.323 50.6962C160.178 50.5537 160.095 50.3594 160.093 50.1559C160.093 49.7359 160.44 49.3959 160.868 49.3959C161.295 49.3959 161.642 49.7359 161.642 50.1559M170.024 50.1549C170.024 50.5749 169.678 50.9159 169.25 50.9159C169.046 50.9177 168.85 50.8387 168.705 50.6962C168.56 50.5537 168.477 50.3594 168.475 50.1559C168.475 49.7359 168.822 49.3959 169.25 49.3959C169.678 49.3959 170.024 49.7359 170.024 50.1559M178.407 50.1549C178.407 50.5749 178.059 50.9159 177.632 50.9159C177.531 50.9168 177.431 50.8979 177.338 50.8602C177.244 50.8225 177.159 50.7667 177.088 50.6962C177.016 50.6256 176.958 50.5416 176.919 50.4489C176.88 50.3561 176.859 50.2566 176.858 50.1559C176.858 49.7359 177.204 49.3959 177.632 49.3959C178.059 49.3959 178.407 49.7359 178.407 50.1559M186.789 50.1549C186.789 50.5749 186.442 50.9159 186.014 50.9159C185.811 50.9175 185.615 50.8384 185.47 50.6959C185.325 50.5534 185.242 50.3592 185.24 50.1559C185.24 49.7359 185.587 49.3959 186.014 49.3959C186.442 49.3959 186.789 49.7359 186.789 50.1559M195.171 50.1549C195.171 50.5749 194.824 50.9159 194.397 50.9159C194.193 50.9177 193.997 50.8387 193.852 50.6962C193.707 50.5537 193.624 50.3594 193.622 50.1559C193.622 49.7359 193.969 49.3959 194.397 49.3959C194.824 49.3959 195.171 49.7359 195.171 50.1559M203.553 50.1549C203.553 50.5749 203.206 50.9159 202.779 50.9159C202.575 50.9177 202.379 50.8387 202.234 50.6962C202.089 50.5537 202.006 50.3594 202.004 50.1559C202.004 49.7359 202.351 49.3959 202.779 49.3959C203.206 49.3959 203.553 49.7359 203.553 50.1559M211.935 50.1549C211.935 50.5749 211.589 50.9159 211.161 50.9159C210.958 50.9172 210.762 50.838 210.617 50.6956C210.472 50.5532 210.389 50.3591 210.387 50.1559C210.387 49.7359 210.734 49.3959 211.161 49.3959C211.589 49.3959 211.935 49.7359 211.935 50.1559M220.318 50.1549C220.318 50.5749 219.971 50.9159 219.543 50.9159C219.34 50.9175 219.144 50.8383 218.999 50.6958C218.854 50.5533 218.772 50.3591 218.77 50.1559C218.77 49.7359 219.115 49.3959 219.543 49.3959C219.971 49.3959 220.318 49.7359 220.318 50.1559M228.7 50.1549C228.7 50.5749 228.353 50.9159 227.925 50.9159C227.722 50.9172 227.526 50.838 227.381 50.6955C227.237 50.5531 227.154 50.359 227.152 50.1559C227.152 49.7359 227.498 49.3959 227.925 49.3959C228.353 49.3959 228.7 49.7359 228.7 50.1559M153.26 56.5989C153.26 57.0179 152.913 57.3589 152.485 57.3589C152.282 57.3605 152.086 57.2814 151.941 57.1389C151.796 56.9964 151.713 56.8022 151.711 56.5989C151.711 56.1789 152.058 55.8389 152.485 55.8389C152.913 55.8389 153.26 56.1789 153.26 56.5989ZM161.642 56.5989C161.642 57.0179 161.295 57.3589 160.868 57.3589C160.664 57.3605 160.469 57.2814 160.323 57.1389C160.178 56.9965 160.095 56.8023 160.093 56.5989C160.093 56.1789 160.44 55.8389 160.868 55.8389C161.295 55.8389 161.642 56.1789 161.642 56.5989ZM170.024 56.5989C170.024 57.0179 169.678 57.3589 169.25 57.3589C169.047 57.3605 168.851 57.2814 168.705 57.1389C168.56 56.9965 168.477 56.8023 168.475 56.5989C168.475 56.1789 168.822 55.8389 169.25 55.8389C169.678 55.8389 170.024 56.1789 170.024 56.5989ZM178.407 56.5989C178.404 56.8022 178.321 56.9963 178.176 57.1386C178.031 57.281 177.835 57.3602 177.632 57.3589C177.429 57.3605 177.233 57.2814 177.088 57.1389C176.943 56.9964 176.86 56.8022 176.858 56.5989C176.858 56.1789 177.204 55.8389 177.632 55.8389C178.059 55.8389 178.407 56.1789 178.407 56.5989ZM186.789 56.5989C186.789 57.0179 186.442 57.3589 186.014 57.3589C185.811 57.3605 185.615 57.2814 185.47 57.1389C185.325 56.9964 185.242 56.8022 185.24 56.5989C185.24 56.1789 185.587 55.8389 186.014 55.8389C186.442 55.8389 186.789 56.1789 186.789 56.5989ZM195.171 56.5989C195.171 57.0179 194.824 57.3589 194.397 57.3589C194.194 57.3605 193.998 57.2814 193.852 57.1389C193.707 56.9965 193.624 56.8023 193.622 56.5989C193.622 56.1789 193.969 55.8389 194.397 55.8389C194.824 55.8389 195.171 56.1789 195.171 56.5989ZM203.553 56.5989C203.553 57.0179 203.206 57.3589 202.779 57.3589C202.576 57.3605 202.38 57.2814 202.234 57.1389C202.089 56.9965 202.006 56.8023 202.004 56.5989C202.004 56.1789 202.351 55.8389 202.779 55.8389C203.206 55.8389 203.553 56.1789 203.553 56.5989ZM211.935 56.5989C211.935 57.0179 211.589 57.3589 211.161 57.3589C210.958 57.3599 210.762 57.2807 210.617 57.1383C210.472 56.9959 210.39 56.802 210.387 56.5989C210.387 56.1789 210.734 55.8389 211.161 55.8389C211.589 55.8389 211.935 56.1789 211.935 56.5989ZM220.318 56.5989C220.318 57.0179 219.971 57.3589 219.543 57.3589C219.34 57.3602 219.144 57.281 218.999 57.1385C218.855 56.9961 218.772 56.802 218.77 56.5989C218.77 56.1789 219.115 55.8389 219.543 55.8389C219.971 55.8389 220.318 56.1789 220.318 56.5989ZM228.7 56.5989C228.7 57.0179 228.353 57.3589 227.925 57.3589C227.722 57.3602 227.526 57.281 227.381 57.1385C227.237 56.9961 227.154 56.802 227.152 56.5989C227.152 56.1789 227.498 55.8389 227.925 55.8389C228.353 55.8389 228.7 56.1789 228.7 56.5989ZM153.26 63.0409C153.26 63.4609 152.913 63.8019 152.485 63.8019C152.281 63.8035 152.086 63.7242 151.94 63.5815C151.795 63.4388 151.713 63.2444 151.711 63.0409C151.711 62.6209 152.058 62.2809 152.485 62.2809C152.913 62.2809 153.26 62.6209 153.26 63.0409ZM161.642 63.0409C161.642 63.4609 161.295 63.8019 160.868 63.8019C160.767 63.8028 160.667 63.7838 160.574 63.7461C160.48 63.7083 160.395 63.6525 160.323 63.5819C160.251 63.5112 160.194 63.4271 160.154 63.3342C160.115 63.2414 160.094 63.1417 160.093 63.0409C160.093 62.6209 160.44 62.2809 160.868 62.2809C161.295 62.2809 161.642 62.6209 161.642 63.0409ZM170.024 63.0409C170.024 63.4609 169.678 63.8019 169.25 63.8019C169.149 63.8028 169.049 63.7838 168.956 63.7461C168.862 63.7083 168.777 63.6525 168.705 63.5819C168.633 63.5112 168.576 63.4271 168.536 63.3342C168.497 63.2414 168.476 63.1417 168.475 63.0409C168.475 62.6209 168.822 62.2809 169.25 62.2809C169.678 62.2809 170.024 62.6209 170.024 63.0409ZM178.407 63.0409C178.407 63.4609 178.059 63.8019 177.632 63.8019C177.531 63.8028 177.431 63.7838 177.338 63.7461C177.244 63.7083 177.159 63.6525 177.087 63.5818C177.015 63.5111 176.958 63.427 176.919 63.3342C176.879 63.2413 176.859 63.1417 176.858 63.0409C176.858 62.6209 177.204 62.2809 177.632 62.2809C178.059 62.2809 178.407 62.6209 178.407 63.0409ZM186.789 63.0409C186.789 63.4609 186.442 63.8019 186.014 63.8019C185.81 63.8035 185.615 63.7242 185.469 63.5815C185.324 63.4388 185.242 63.2444 185.24 63.0409C185.24 62.6209 185.587 62.2809 186.014 62.2809C186.442 62.2809 186.789 62.6209 186.789 63.0409ZM195.171 63.0409C195.171 63.4609 194.824 63.8019 194.397 63.8019C194.296 63.8028 194.196 63.7838 194.102 63.7461C194.009 63.7083 193.924 63.6525 193.852 63.5819C193.78 63.5112 193.723 63.4271 193.683 63.3342C193.644 63.2414 193.623 63.1417 193.622 63.0409C193.622 62.6209 193.969 62.2809 194.397 62.2809C194.824 62.2809 195.171 62.6209 195.171 63.0409ZM203.553 63.0409C203.553 63.4609 203.206 63.8019 202.779 63.8019C202.678 63.8028 202.578 63.7838 202.484 63.7461C202.391 63.7083 202.306 63.6525 202.234 63.5819C202.162 63.5112 202.105 63.4271 202.065 63.3342C202.026 63.2414 202.005 63.1417 202.004 63.0409C202.004 62.6209 202.351 62.2809 202.779 62.2809C203.206 62.2809 203.553 62.6209 203.553 63.0409ZM211.935 63.0409C211.935 63.4609 211.589 63.8019 211.161 63.8019C210.957 63.8032 210.762 63.7239 210.617 63.5812C210.472 63.4386 210.389 63.2443 210.387 63.0409C210.387 62.6209 210.734 62.2809 211.161 62.2809C211.589 62.2809 211.935 62.6209 211.935 63.0409ZM220.318 63.0409C220.318 63.4609 219.971 63.8019 219.543 63.8019C219.442 63.8027 219.342 63.7836 219.249 63.7458C219.156 63.708 219.071 63.6521 218.999 63.5815C218.927 63.5108 218.87 63.4267 218.831 63.3339C218.791 63.2412 218.771 63.1416 218.77 63.0409C218.77 62.6209 219.115 62.2809 219.543 62.2809C219.971 62.2809 220.318 62.6209 220.318 63.0409ZM228.7 63.0409C228.7 63.4609 228.353 63.8019 227.925 63.8019C227.722 63.8032 227.526 63.7238 227.381 63.5812C227.236 63.4385 227.154 63.2442 227.152 63.0409C227.152 62.6209 227.498 62.2809 227.925 62.2809C228.353 62.2809 228.7 62.6209 228.7 63.0409ZM153.26 69.4849C153.26 69.9049 152.913 70.2449 152.485 70.2449C152.282 70.2465 152.086 70.1674 151.941 70.0249C151.796 69.8824 151.713 69.6882 151.711 69.4849C151.711 69.0649 152.058 68.7249 152.485 68.7249C152.913 68.7249 153.26 69.0649 153.26 69.4849ZM161.642 69.4849C161.642 69.9049 161.295 70.2449 160.868 70.2449C160.664 70.2467 160.468 70.1677 160.323 70.0252C160.178 69.8827 160.095 69.6884 160.093 69.4849C160.093 69.0649 160.44 68.7249 160.868 68.7249C161.295 68.7249 161.642 69.0649 161.642 69.4849ZM170.024 69.4849C170.024 69.9049 169.678 70.2449 169.25 70.2449C169.046 70.2467 168.85 70.1677 168.705 70.0252C168.56 69.8827 168.477 69.6884 168.475 69.4849C168.475 69.0649 168.822 68.7249 169.25 68.7249C169.678 68.7249 170.024 69.0649 170.024 69.4849ZM178.407 69.4849C178.407 69.9049 178.059 70.2449 177.632 70.2449C177.531 70.2458 177.431 70.2269 177.338 70.1892C177.244 70.1515 177.159 70.0957 177.088 70.0252C177.016 69.9546 176.958 69.8706 176.919 69.7779C176.88 69.6852 176.859 69.5856 176.858 69.4849C176.858 69.0649 177.204 68.7249 177.632 68.7249C178.059 68.7249 178.407 69.0649 178.407 69.4849ZM186.789 69.4849C186.789 69.9049 186.442 70.2449 186.014 70.2449C185.811 70.2465 185.615 70.1674 185.47 70.0249C185.325 69.8824 185.242 69.6882 185.24 69.4849C185.24 69.0649 185.587 68.7249 186.014 68.7249C186.442 68.7249 186.789 69.0649 186.789 69.4849ZM195.171 69.4849C195.171 69.9049 194.824 70.2449 194.397 70.2449C194.193 70.2467 193.997 70.1677 193.852 70.0252C193.707 69.8827 193.624 69.6884 193.622 69.4849C193.622 69.0649 193.969 68.7249 194.397 68.7249C194.824 68.7249 195.171 69.0649 195.171 69.4849ZM203.553 69.4849C203.553 69.9049 203.206 70.2449 202.779 70.2449C202.575 70.2467 202.379 70.1677 202.234 70.0252C202.089 69.8827 202.006 69.6884 202.004 69.4849C202.004 69.0649 202.351 68.7249 202.779 68.7249C203.206 68.7249 203.553 69.0649 203.553 69.4849ZM211.935 69.4849C211.935 69.9049 211.589 70.2449 211.161 70.2449C210.958 70.2462 210.762 70.167 210.617 70.0246C210.472 69.8822 210.389 69.6881 210.387 69.4849C210.387 69.0649 210.734 68.7249 211.161 68.7249C211.589 68.7249 211.935 69.0649 211.935 69.4849ZM220.318 69.4849C220.318 69.9049 219.971 70.2449 219.543 70.2449C219.34 70.2465 219.144 70.1673 218.999 70.0248C218.854 69.8823 218.772 69.6881 218.77 69.4849C218.77 69.0649 219.115 68.7249 219.543 68.7249C219.971 68.7249 220.318 69.0649 220.318 69.4849ZM228.7 69.4849C228.7 69.9049 228.353 70.2449 227.925 70.2449C227.722 70.2462 227.526 70.167 227.381 70.0245C227.237 69.8821 227.154 69.688 227.152 69.4849C227.152 69.0649 227.498 68.7249 227.925 68.7249C228.353 68.7249 228.7 69.0649 228.7 69.4849ZM153.26 75.9279C153.26 76.3479 152.913 76.6879 152.485 76.6879C152.282 76.6895 152.086 76.6103 151.941 76.4679C151.796 76.3254 151.713 76.1312 151.711 75.9279C151.711 75.5079 152.058 75.1679 152.485 75.1679C152.913 75.1679 153.26 75.5079 153.26 75.9279ZM161.642 75.9279C161.642 76.3479 161.295 76.6879 160.868 76.6879C160.664 76.6897 160.468 76.6107 160.323 76.4682C160.178 76.3257 160.095 76.1314 160.093 75.9279C160.093 75.5079 160.44 75.1679 160.868 75.1679C161.295 75.1679 161.642 75.5079 161.642 75.9279ZM170.024 75.9279C170.024 76.3479 169.678 76.6879 169.25 76.6879C169.046 76.6897 168.85 76.6107 168.705 76.4682C168.56 76.3257 168.477 76.1314 168.475 75.9279C168.475 75.5079 168.822 75.1679 169.25 75.1679C169.678 75.1679 170.024 75.5079 170.024 75.9279ZM178.407 75.9279C178.407 76.3479 178.059 76.6879 177.632 76.6879C177.531 76.6888 177.431 76.6699 177.338 76.6322C177.244 76.5945 177.159 76.5387 177.088 76.4682C177.016 76.3976 176.958 76.3136 176.919 76.2209C176.88 76.1281 176.859 76.0286 176.858 75.9279C176.858 75.5079 177.204 75.1679 177.632 75.1679C178.059 75.1679 178.407 75.5079 178.407 75.9279ZM186.789 75.9279C186.789 76.3479 186.442 76.6879 186.014 76.6879C185.811 76.6895 185.615 76.6103 185.47 76.4679C185.325 76.3254 185.242 76.1312 185.24 75.9279C185.24 75.5079 185.587 75.1679 186.014 75.1679C186.442 75.1679 186.789 75.5079 186.789 75.9279ZM195.171 75.9279C195.171 76.3479 194.824 76.6879 194.397 76.6879C194.193 76.6897 193.997 76.6107 193.852 76.4682C193.707 76.3257 193.624 76.1314 193.622 75.9279C193.622 75.5079 193.969 75.1679 194.397 75.1679C194.824 75.1679 195.171 75.5079 195.171 75.9279ZM203.553 75.9279C203.553 76.3479 203.206 76.6879 202.779 76.6879C202.575 76.6897 202.379 76.6107 202.234 76.4682C202.089 76.3257 202.006 76.1314 202.004 75.9279C202.004 75.5079 202.351 75.1679 202.779 75.1679C203.206 75.1679 203.553 75.5079 203.553 75.9279ZM211.935 75.9279C211.935 76.3479 211.589 76.6879 211.161 76.6879C210.958 76.6892 210.762 76.61 210.617 76.4676C210.472 76.3252 210.389 76.1311 210.387 75.9279C210.387 75.5079 210.734 75.1679 211.161 75.1679C211.589 75.1679 211.935 75.5079 211.935 75.9279ZM220.318 75.9279C220.318 76.3479 219.971 76.6879 219.543 76.6879C219.34 76.6895 219.144 76.6103 218.999 76.4678C218.854 76.3253 218.772 76.1311 218.77 75.9279C218.77 75.5079 219.115 75.1679 219.543 75.1679C219.971 75.1679 220.318 75.5079 220.318 75.9279ZM228.7 75.9279C228.7 76.3479 228.353 76.6879 227.925 76.6879C227.722 76.6892 227.526 76.61 227.381 76.4675C227.237 76.3251 227.154 76.131 227.152 75.9279C227.152 75.5079 227.498 75.1679 227.925 75.1679C228.353 75.1679 228.7 75.5079 228.7 75.9279ZM153.26 82.3709C153.26 82.7909 152.913 83.1309 152.485 83.1309C152.384 83.1318 152.284 83.1129 152.191 83.0752C152.097 83.0375 152.012 82.9818 151.941 82.9112C151.869 82.8406 151.811 82.7566 151.772 82.6638C151.733 82.5711 151.712 82.4716 151.711 82.3709C151.711 81.9509 152.058 81.6099 152.485 81.6099C152.913 81.6099 153.26 81.9499 153.26 82.3709ZM161.642 82.3709C161.642 82.7909 161.295 83.1309 160.868 83.1309C160.664 83.1327 160.468 83.0537 160.323 82.9112C160.178 82.7687 160.095 82.5744 160.093 82.3709C160.093 81.9509 160.44 81.6099 160.868 81.6099C161.295 81.6099 161.642 81.9499 161.642 82.3709ZM170.024 82.3709C170.024 82.7909 169.678 83.1309 169.25 83.1309C169.046 83.1327 168.85 83.0537 168.705 82.9112C168.56 82.7687 168.477 82.5744 168.475 82.3709C168.475 81.9509 168.822 81.6099 169.25 81.6099C169.678 81.6099 170.024 81.9499 170.024 82.3709ZM178.407 82.3709C178.407 82.7909 178.059 83.1309 177.632 83.1309C177.531 83.1318 177.431 83.1129 177.338 83.0752C177.244 83.0375 177.159 82.9818 177.088 82.9112C177.016 82.8406 176.958 82.7566 176.919 82.6638C176.88 82.5711 176.859 82.4716 176.858 82.3709C176.858 81.9509 177.204 81.6099 177.632 81.6099C178.059 81.6099 178.407 81.9499 178.407 82.3709ZM186.789 82.3709C186.789 82.7909 186.442 83.1309 186.014 83.1309C185.913 83.1318 185.813 83.1129 185.72 83.0752C185.626 83.0375 185.541 82.9818 185.47 82.9112C185.398 82.8406 185.34 82.7566 185.301 82.6638C185.262 82.5711 185.241 82.4716 185.24 82.3709C185.24 81.9509 185.587 81.6099 186.014 81.6099C186.442 81.6099 186.789 81.9499 186.789 82.3709ZM195.171 82.3709C195.171 82.7909 194.824 83.1309 194.397 83.1309C194.193 83.1327 193.997 83.0537 193.852 82.9112C193.707 82.7687 193.624 82.5744 193.622 82.3709C193.622 81.9509 193.969 81.6099 194.397 81.6099C194.824 81.6099 195.171 81.9499 195.171 82.3709ZM203.553 82.3709C203.553 82.7909 203.206 83.1309 202.779 83.1309C202.575 83.1327 202.379 83.0537 202.234 82.9112C202.089 82.7687 202.006 82.5744 202.004 82.3709C202.004 81.9509 202.351 81.6099 202.779 81.6099C203.206 81.6099 203.553 81.9499 203.553 82.3709ZM211.935 82.3709C211.935 82.7909 211.589 83.1309 211.161 83.1309C210.958 83.1325 210.762 83.0533 210.617 82.9109C210.472 82.7684 210.389 82.5742 210.387 82.3709C210.387 81.9509 210.734 81.6099 211.161 81.6099C211.589 81.6099 211.935 81.9499 211.935 82.3709ZM220.318 82.3709C220.318 82.7909 219.971 83.1309 219.543 83.1309C219.34 83.1325 219.144 83.0533 218.999 82.9108C218.854 82.7683 218.772 82.5741 218.77 82.3709C218.77 81.9509 219.115 81.6099 219.543 81.6099C219.971 81.6099 220.318 81.9499 220.318 82.3709ZM228.7 82.3709C228.7 82.7909 228.353 83.1309 227.925 83.1309C227.722 83.1325 227.526 83.0533 227.381 82.9108C227.236 82.7683 227.154 82.5741 227.152 82.3709C227.152 81.9509 227.498 81.6099 227.925 81.6099C228.353 81.6099 228.7 81.9499 228.7 82.3709ZM153.26 88.8129C153.26 89.2329 152.913 89.5749 152.485 89.5749C152.384 89.5757 152.284 89.5566 152.191 89.5187C152.097 89.4808 152.012 89.4249 151.94 89.3542C151.868 89.2834 151.811 89.1992 151.772 89.1063C151.732 89.0134 151.712 88.9137 151.711 88.8129C151.711 88.3939 152.058 88.0529 152.485 88.0529C152.913 88.0529 153.26 88.3939 153.26 88.8129ZM161.642 88.8129C161.642 89.2329 161.295 89.5749 160.868 89.5749C160.767 89.5758 160.667 89.5568 160.573 89.519C160.48 89.4812 160.394 89.4253 160.322 89.3545C160.25 89.2838 160.193 89.1995 160.154 89.1066C160.114 89.0136 160.094 88.9138 160.093 88.8129C160.093 88.3939 160.44 88.0529 160.868 88.0529C161.295 88.0529 161.642 88.3939 161.642 88.8129ZM170.024 88.8129C170.024 89.2329 169.678 89.5749 169.25 89.5749C169.149 89.5758 169.049 89.5568 168.955 89.519C168.862 89.4812 168.776 89.4253 168.704 89.3545C168.632 89.2838 168.575 89.1995 168.536 89.1066C168.496 89.0136 168.476 88.9138 168.475 88.8129C168.475 88.3939 168.822 88.0529 169.25 88.0529C169.678 88.0529 170.024 88.3939 170.024 88.8129ZM178.407 88.8129C178.407 89.2329 178.059 89.5749 177.632 89.5749C177.531 89.5758 177.431 89.5568 177.337 89.519C177.244 89.4812 177.159 89.4252 177.087 89.3545C177.015 89.2837 176.958 89.1994 176.918 89.1065C176.879 89.0135 176.859 88.9138 176.858 88.8129C176.858 88.3939 177.204 88.0529 177.632 88.0529C178.059 88.0529 178.407 88.3939 178.407 88.8129ZM186.789 88.8129C186.789 89.2329 186.442 89.5749 186.014 89.5749C185.913 89.5757 185.813 89.5566 185.72 89.5187C185.626 89.4808 185.541 89.4249 185.469 89.3542C185.397 89.2834 185.34 89.1992 185.301 89.1063C185.261 89.0134 185.241 88.9137 185.24 88.8129C185.24 88.3939 185.587 88.0529 186.014 88.0529C186.442 88.0529 186.789 88.3939 186.789 88.8129ZM195.171 88.8129C195.171 89.2329 194.824 89.5749 194.397 89.5749C194.296 89.5758 194.196 89.5568 194.102 89.519C194.009 89.4812 193.923 89.4253 193.851 89.3545C193.779 89.2838 193.722 89.1995 193.683 89.1066C193.643 89.0136 193.623 88.9138 193.622 88.8129C193.622 88.3939 193.969 88.0529 194.397 88.0529C194.824 88.0529 195.171 88.3939 195.171 88.8129ZM203.553 88.8129C203.553 89.2329 203.206 89.5749 202.779 89.5749C202.678 89.5758 202.578 89.5568 202.484 89.519C202.391 89.4812 202.305 89.4253 202.233 89.3545C202.161 89.2838 202.104 89.1995 202.065 89.1066C202.025 89.0136 202.005 88.9138 202.004 88.8129C202.004 88.3939 202.351 88.0529 202.779 88.0529C203.206 88.0529 203.553 88.3939 203.553 88.8129ZM211.935 88.8129C211.935 89.2329 211.589 89.5749 211.161 89.5749C210.957 89.5762 210.762 89.4967 210.616 89.3539C210.471 89.211 210.389 89.0165 210.387 88.8129C210.387 88.3939 210.734 88.0529 211.161 88.0529C211.589 88.0529 211.935 88.3939 211.935 88.8129ZM220.318 88.8129C220.318 89.2329 219.971 89.5749 219.543 89.5749C219.442 89.5757 219.342 89.5566 219.249 89.5187C219.155 89.4808 219.07 89.4249 218.998 89.3541C218.927 89.2833 218.87 89.1991 218.83 89.1062C218.791 89.0134 218.771 88.9137 218.77 88.8129C218.77 88.3939 219.115 88.0529 219.543 88.0529C219.971 88.0529 220.318 88.3939 220.318 88.8129ZM228.7 88.8129C228.7 89.2329 228.353 89.5749 227.925 89.5749C227.721 89.5762 227.526 89.4967 227.381 89.3538C227.236 89.2109 227.154 89.0164 227.152 88.8129C227.152 88.3939 227.498 88.0529 227.925 88.0529C228.353 88.0529 228.7 88.3939 228.7 88.8129ZM153.26 95.2569C153.26 95.6769 152.913 96.0179 152.485 96.0179C152.281 96.0195 152.086 95.9402 151.94 95.7975C151.795 95.6548 151.713 95.4604 151.711 95.2569C151.711 94.8369 152.058 94.4969 152.485 94.4969C152.913 94.4969 153.26 94.8369 153.26 95.2569ZM161.642 95.2569C161.642 95.6769 161.295 96.0179 160.868 96.0179C160.767 96.0188 160.667 95.9998 160.574 95.9621C160.48 95.9244 160.395 95.8685 160.323 95.7979C160.251 95.7272 160.194 95.6431 160.154 95.5502C160.115 95.4574 160.094 95.3577 160.093 95.2569C160.093 94.8369 160.44 94.4969 160.868 94.4969C161.295 94.4969 161.642 94.8369 161.642 95.2569ZM170.024 95.2569C170.024 95.6769 169.678 96.0179 169.25 96.0179C169.149 96.0188 169.049 95.9998 168.956 95.9621C168.862 95.9244 168.777 95.8685 168.705 95.7979C168.633 95.7272 168.576 95.6431 168.536 95.5502C168.497 95.4574 168.476 95.3577 168.475 95.2569C168.475 94.8369 168.822 94.4969 169.25 94.4969C169.678 94.4969 170.024 94.8369 170.024 95.2569ZM178.407 95.2569C178.407 95.6769 178.059 96.0179 177.632 96.0179C177.531 96.0188 177.431 95.9998 177.338 95.9621C177.244 95.9243 177.159 95.8685 177.087 95.7978C177.015 95.7271 176.958 95.643 176.919 95.5502C176.879 95.4573 176.859 95.3577 176.858 95.2569C176.858 94.8369 177.204 94.4969 177.632 94.4969C178.059 94.4969 178.407 94.8369 178.407 95.2569ZM186.789 95.2569C186.789 95.6769 186.442 96.0179 186.014 96.0179C185.81 96.0195 185.615 95.9402 185.469 95.7975C185.324 95.6548 185.242 95.4604 185.24 95.2569C185.24 94.8369 185.587 94.4969 186.014 94.4969C186.442 94.4969 186.789 94.8369 186.789 95.2569ZM195.171 95.2569C195.171 95.6769 194.824 96.0179 194.397 96.0179C194.296 96.0188 194.196 95.9998 194.102 95.9621C194.009 95.9244 193.924 95.8685 193.852 95.7979C193.78 95.7272 193.723 95.6431 193.683 95.5502C193.644 95.4574 193.623 95.3577 193.622 95.2569C193.622 94.8369 193.969 94.4969 194.397 94.4969C194.824 94.4969 195.171 94.8369 195.171 95.2569ZM203.553 95.2569C203.553 95.6769 203.206 96.0179 202.779 96.0179C202.678 96.0188 202.578 95.9998 202.484 95.9621C202.391 95.9244 202.306 95.8685 202.234 95.7979C202.162 95.7272 202.105 95.6431 202.065 95.5502C202.026 95.4574 202.005 95.3577 202.004 95.2569C202.004 94.8369 202.351 94.4969 202.779 94.4969C203.206 94.4969 203.553 94.8369 203.553 95.2569ZM211.935 95.2569C211.935 95.6769 211.589 96.0179 211.161 96.0179C210.957 96.0192 210.762 95.9399 210.617 95.7972C210.472 95.6546 210.389 95.4603 210.387 95.2569C210.387 94.8369 210.734 94.4969 211.161 94.4969C211.589 94.4969 211.935 94.8369 211.935 95.2569ZM220.318 95.2569C220.318 95.6769 219.971 96.0179 219.543 96.0179C219.442 96.0187 219.342 95.9996 219.249 95.9618C219.156 95.924 219.071 95.8681 218.999 95.7975C218.927 95.7268 218.87 95.6427 218.831 95.5499C218.791 95.4572 218.771 95.3576 218.77 95.2569C218.77 94.8369 219.115 94.4969 219.543 94.4969C219.971 94.4969 220.318 94.8369 220.318 95.2569ZM228.7 95.2569C228.7 95.6769 228.353 96.0179 227.925 96.0179C227.722 96.0192 227.526 95.9398 227.381 95.7972C227.236 95.6545 227.154 95.4602 227.152 95.2569C227.152 94.8369 227.498 94.4969 227.925 94.4969C228.353 94.4969 228.7 94.8369 228.7 95.2569ZM153.26 101.7C153.26 102.12 152.913 102.461 152.485 102.461C152.282 102.462 152.086 102.383 151.941 102.241C151.796 102.098 151.713 101.904 151.711 101.701C151.711 101.28 152.058 100.941 152.485 100.941C152.913 100.941 153.26 101.28 153.26 101.701M161.642 101.7C161.642 102.12 161.295 102.461 160.868 102.461C160.664 102.462 160.469 102.383 160.323 102.241C160.178 102.098 160.095 101.904 160.093 101.701C160.093 101.28 160.44 100.941 160.868 100.941C161.295 100.941 161.642 101.28 161.642 101.701M170.024 101.7C170.024 102.12 169.678 102.461 169.25 102.461C169.047 102.462 168.851 102.383 168.705 102.241C168.56 102.098 168.477 101.904 168.475 101.701C168.475 101.28 168.822 100.941 169.25 100.941C169.678 100.941 170.024 101.28 170.024 101.701M178.407 101.7C178.405 101.903 178.322 102.098 178.176 102.24C178.031 102.383 177.835 102.462 177.632 102.461C177.429 102.462 177.233 102.383 177.088 102.241C176.943 102.098 176.86 101.904 176.858 101.701C176.858 101.28 177.204 100.941 177.632 100.941C178.059 100.941 178.407 101.28 178.407 101.701M186.789 101.7C186.789 102.12 186.442 102.461 186.014 102.461C185.811 102.462 185.615 102.383 185.47 102.241C185.325 102.098 185.242 101.904 185.24 101.701C185.24 101.28 185.587 100.941 186.014 100.941C186.442 100.941 186.789 101.28 186.789 101.701M195.171 101.7C195.171 102.12 194.824 102.461 194.397 102.461C194.194 102.462 193.998 102.383 193.852 102.241C193.707 102.098 193.624 101.904 193.622 101.701C193.622 101.28 193.969 100.941 194.397 100.941C194.824 100.941 195.171 101.28 195.171 101.701M203.553 101.7C203.553 102.12 203.206 102.461 202.779 102.461C202.576 102.462 202.38 102.383 202.234 102.241C202.089 102.098 202.006 101.904 202.004 101.701C202.004 101.28 202.351 100.941 202.779 100.941C203.206 100.941 203.553 101.28 203.553 101.701M211.935 101.7C211.935 102.12 211.589 102.461 211.161 102.461C210.958 102.462 210.762 102.383 210.617 102.24C210.472 102.098 210.39 101.904 210.387 101.701C210.387 101.28 210.734 100.941 211.161 100.941C211.589 100.941 211.935 101.28 211.935 101.701M220.318 101.7C220.318 102.12 219.971 102.461 219.543 102.461C219.34 102.462 219.144 102.383 218.999 102.241C218.855 102.098 218.772 101.904 218.77 101.701C218.77 101.28 219.115 100.941 219.543 100.941C219.971 100.941 220.318 101.28 220.318 101.701M228.7 101.7C228.7 102.12 228.353 102.461 227.925 102.461C227.722 102.462 227.526 102.383 227.381 102.241C227.237 102.098 227.154 101.904 227.152 101.701C227.152 101.28 227.498 100.941 227.925 100.941C228.353 100.941 228.7 101.28 228.7 101.701M153.26 108.143C153.26 108.563 152.913 108.903 152.485 108.903C152.282 108.904 152.086 108.825 151.941 108.683C151.796 108.54 151.713 108.346 151.711 108.143C151.711 107.723 152.058 107.383 152.485 107.383C152.913 107.383 153.26 107.723 153.26 108.143ZM161.642 108.143C161.642 108.563 161.295 108.903 160.868 108.903C160.664 108.905 160.468 108.826 160.323 108.683C160.178 108.541 160.095 108.346 160.093 108.143C160.093 107.723 160.44 107.383 160.868 107.383C161.295 107.383 161.642 107.723 161.642 108.143ZM170.024 108.143C170.024 108.563 169.678 108.903 169.25 108.903C169.046 108.905 168.85 108.826 168.705 108.683C168.56 108.541 168.477 108.346 168.475 108.143C168.475 107.723 168.822 107.383 169.25 107.383C169.678 107.383 170.024 107.723 170.024 108.143ZM178.407 108.143C178.407 108.563 178.059 108.903 177.632 108.903C177.531 108.904 177.431 108.885 177.338 108.847C177.244 108.809 177.159 108.754 177.088 108.683C177.016 108.613 176.958 108.529 176.919 108.436C176.88 108.343 176.859 108.244 176.858 108.143C176.858 107.723 177.204 107.383 177.632 107.383C178.059 107.383 178.407 107.723 178.407 108.143ZM186.789 108.143C186.789 108.563 186.442 108.903 186.014 108.903C185.811 108.904 185.615 108.825 185.47 108.683C185.325 108.54 185.242 108.346 185.24 108.143C185.24 107.723 185.587 107.383 186.014 107.383C186.442 107.383 186.789 107.723 186.789 108.143ZM195.171 108.143C195.171 108.563 194.824 108.903 194.397 108.903C194.193 108.905 193.997 108.826 193.852 108.683C193.707 108.541 193.624 108.346 193.622 108.143C193.622 107.723 193.969 107.383 194.397 107.383C194.824 107.383 195.171 107.723 195.171 108.143ZM203.553 108.143C203.553 108.563 203.206 108.903 202.779 108.903C202.575 108.905 202.379 108.826 202.234 108.683C202.089 108.541 202.006 108.346 202.004 108.143C202.004 107.723 202.351 107.383 202.779 107.383C203.206 107.383 203.553 107.723 203.553 108.143ZM211.935 108.143C211.935 108.563 211.589 108.903 211.161 108.903C210.958 108.904 210.762 108.825 210.617 108.683C210.472 108.54 210.389 108.346 210.387 108.143C210.387 107.723 210.734 107.383 211.161 107.383C211.589 107.383 211.935 107.723 211.935 108.143ZM220.318 108.143C220.318 108.563 219.971 108.903 219.543 108.903C219.34 108.904 219.144 108.825 218.999 108.683C218.854 108.54 218.772 108.346 218.77 108.143C218.77 107.723 219.115 107.383 219.543 107.383C219.971 107.383 220.318 107.723 220.318 108.143ZM228.7 108.143C228.7 108.563 228.353 108.903 227.925 108.903C227.722 108.904 227.526 108.825 227.381 108.683C227.237 108.54 227.154 108.346 227.152 108.143C227.152 107.723 227.498 107.383 227.925 107.383C228.353 107.383 228.7 107.723 228.7 108.143ZM153.26 114.586C153.26 115.006 152.913 115.347 152.485 115.347C152.281 115.348 152.086 115.269 151.94 115.127C151.795 114.984 151.713 114.789 151.711 114.586C151.711 114.166 152.058 113.826 152.485 113.826C152.913 113.826 153.26 114.166 153.26 114.586ZM161.642 114.586C161.642 115.006 161.295 115.347 160.868 115.347C160.767 115.348 160.667 115.329 160.574 115.291C160.48 115.253 160.395 115.198 160.323 115.127C160.251 115.056 160.194 114.972 160.154 114.879C160.115 114.786 160.094 114.687 160.093 114.586C160.093 114.166 160.44 113.826 160.868 113.826C161.295 113.826 161.642 114.166 161.642 114.586ZM170.024 114.586C170.024 115.006 169.678 115.347 169.25 115.347C169.149 115.348 169.049 115.329 168.956 115.291C168.862 115.253 168.777 115.198 168.705 115.127C168.633 115.056 168.576 114.972 168.536 114.879C168.497 114.786 168.476 114.687 168.475 114.586C168.475 114.166 168.822 113.826 169.25 113.826C169.678 113.826 170.024 114.166 170.024 114.586ZM178.407 114.586C178.407 115.006 178.059 115.347 177.632 115.347C177.531 115.348 177.431 115.329 177.338 115.291C177.244 115.253 177.159 115.197 177.087 115.127C177.015 115.056 176.958 114.972 176.919 114.879C176.879 114.786 176.859 114.687 176.858 114.586C176.858 114.166 177.204 113.826 177.632 113.826C178.059 113.826 178.407 114.166 178.407 114.586ZM186.789 114.586C186.789 115.006 186.442 115.347 186.014 115.347C185.81 115.348 185.615 115.269 185.469 115.127C185.324 114.984 185.242 114.789 185.24 114.586C185.24 114.166 185.587 113.826 186.014 113.826C186.442 113.826 186.789 114.166 186.789 114.586ZM195.171 114.586C195.171 115.006 194.824 115.347 194.397 115.347C194.296 115.348 194.196 115.329 194.102 115.291C194.009 115.253 193.924 115.198 193.852 115.127C193.78 115.056 193.723 114.972 193.683 114.879C193.644 114.786 193.623 114.687 193.622 114.586C193.622 114.166 193.969 113.826 194.397 113.826C194.824 113.826 195.171 114.166 195.171 114.586ZM203.553 114.586C203.553 115.006 203.206 115.347 202.779 115.347C202.678 115.348 202.578 115.329 202.484 115.291C202.391 115.253 202.306 115.198 202.234 115.127C202.162 115.056 202.105 114.972 202.065 114.879C202.026 114.786 202.005 114.687 202.004 114.586C202.004 114.166 202.351 113.826 202.779 113.826C203.206 113.826 203.553 114.166 203.553 114.586ZM211.935 114.586C211.935 115.006 211.589 115.347 211.161 115.347C210.957 115.348 210.762 115.269 210.617 115.126C210.472 114.984 210.389 114.789 210.387 114.586C210.387 114.166 210.734 113.826 211.161 113.826C211.589 113.826 211.935 114.166 211.935 114.586ZM220.318 114.586C220.318 115.006 219.971 115.347 219.543 115.347C219.442 115.348 219.342 115.329 219.249 115.291C219.156 115.253 219.071 115.197 218.999 115.126C218.927 115.056 218.87 114.972 218.831 114.879C218.791 114.786 218.771 114.687 218.77 114.586C218.77 114.166 219.115 113.826 219.543 113.826C219.971 113.826 220.318 114.166 220.318 114.586ZM228.7 114.586C228.7 115.006 228.353 115.347 227.925 115.347C227.722 115.348 227.526 115.269 227.381 115.126C227.236 114.984 227.154 114.789 227.152 114.586C227.152 114.166 227.498 113.826 227.925 113.826C228.353 113.826 228.7 114.166 228.7 114.586Z" fill="#969DA6"/>
</g>
<g opacity="0.7">
<path d="M22.6248 86.7319C22.6248 87.1919 22.2588 87.5649 21.8078 87.5649C21.589 87.5625 21.3802 87.4735 21.227 87.3173C21.0739 87.1612 20.9889 86.9506 20.9908 86.7319C20.9908 86.2719 21.3568 85.8999 21.8078 85.8999C22.2588 85.8999 22.6248 86.2719 22.6248 86.7319ZM31.4698 86.7319C31.4698 87.1919 31.1038 87.5649 30.6518 87.5649C30.433 87.5625 30.2242 87.4735 30.071 87.3173C29.9179 87.1612 29.8329 86.9506 29.8348 86.7319C29.8348 86.2719 30.2008 85.8999 30.6518 85.8999C31.1038 85.8999 31.4688 86.2719 31.4688 86.7319M40.3128 86.7319C40.3128 87.1919 39.9478 87.5649 39.4958 87.5649C39.2772 87.5623 39.0686 87.4731 38.9157 87.317C38.7627 87.1608 38.6779 86.9505 38.6798 86.7319C38.6798 86.2719 39.0458 85.8999 39.4958 85.8999C39.9478 85.8999 40.3128 86.2719 40.3128 86.7319ZM49.1568 86.7319C49.1568 87.1919 48.7918 87.5649 48.3408 87.5649C48.122 87.5625 47.9132 87.4735 47.76 87.3173C47.6069 87.1612 47.5219 86.9506 47.5238 86.7319C47.5238 86.2719 47.8898 85.8999 48.3408 85.8999C48.7918 85.8999 49.1568 86.2719 49.1568 86.7319ZM58.0018 86.7319C58.0018 87.1919 57.6358 87.5649 57.1848 87.5649C56.9661 87.5625 56.7574 87.4735 56.6044 87.3173C56.4514 87.1611 56.3666 86.9505 56.3688 86.7319C56.3688 86.2719 56.7338 85.8999 57.1848 85.8999C57.6358 85.8999 58.0018 86.2719 58.0018 86.7319ZM66.8458 86.7319C66.8458 87.1919 66.4808 87.5649 66.0288 87.5649C65.8102 87.5623 65.6016 87.4731 65.4487 87.317C65.2957 87.1608 65.2109 86.9505 65.2128 86.7319C65.2128 86.2719 65.5788 85.8999 66.0288 85.8999C66.4808 85.8999 66.8458 86.2719 66.8458 86.7319ZM75.6898 86.7319C75.6898 87.1919 75.3248 87.5649 74.8738 87.5649C74.655 87.5625 74.4462 87.4735 74.293 87.3173C74.1399 87.1612 74.0549 86.9506 74.0568 86.7319C74.0568 86.2719 74.4228 85.8999 74.8738 85.8999C75.3248 85.8999 75.6898 86.2719 75.6898 86.7319ZM84.5348 86.7319C84.5348 87.1919 84.1688 87.5649 83.7178 87.5649C83.4991 87.5625 83.2904 87.4735 83.1374 87.3173C82.9844 87.1611 82.8996 86.9505 82.9018 86.7319C82.9018 86.2719 83.2668 85.8999 83.7178 85.8999C84.1688 85.8999 84.5348 86.2719 84.5348 86.7319ZM93.3798 86.7319C93.3798 87.1919 93.0138 87.5649 92.5618 87.5649C92.3432 87.5623 92.1346 87.4731 91.9817 87.317C91.8287 87.1608 91.7439 86.9505 91.7458 86.7319C91.7458 86.2719 92.1118 85.8999 92.5618 85.8999C93.0138 85.8999 93.3788 86.2719 93.3788 86.7319M102.223 86.7319C102.223 87.1919 101.858 87.5649 101.407 87.5649C101.188 87.5625 100.979 87.4735 100.826 87.3173C100.673 87.1612 100.588 86.9506 100.59 86.7319C100.59 86.2719 100.956 85.8999 101.407 85.8999C101.858 85.8999 102.223 86.2719 102.223 86.7319ZM22.6248 93.7849C22.6266 94.0035 22.5416 94.214 22.3884 94.37C22.2352 94.526 22.0264 94.6148 21.8078 94.6169C21.5891 94.6148 21.3803 94.526 21.2271 94.37C21.0739 94.214 20.9889 94.0035 20.9908 93.7849C20.9908 93.3249 21.3568 92.9519 21.8078 92.9519C22.2588 92.9519 22.6248 93.3259 22.6248 93.7849ZM31.4698 93.7849C31.4707 93.8932 31.4503 94.0007 31.4096 94.1012C31.369 94.2016 31.309 94.2931 31.2331 94.3703C31.1571 94.4476 31.0667 94.5091 30.9669 94.5514C30.8672 94.5937 30.7601 94.616 30.6518 94.6169C30.4331 94.6148 30.2243 94.526 30.0711 94.37C29.9179 94.214 29.8329 94.0035 29.8348 93.7849C29.8348 93.3249 30.2008 92.9519 30.6518 92.9519C31.1038 92.9519 31.4688 93.3259 31.4688 93.7849M40.3128 93.7849C40.3146 94.0035 40.2296 94.214 40.0764 94.37C39.9232 94.526 39.7144 94.6148 39.4958 94.6169C39.2773 94.6145 39.0687 94.5256 38.9157 94.3696C38.7628 94.2136 38.6779 94.0034 38.6798 93.7849C38.6798 93.3249 39.0458 92.9519 39.4958 92.9519C39.9478 92.9519 40.3128 93.3259 40.3128 93.7849ZM49.1568 93.7849C49.1586 94.0034 49.0738 94.2136 48.9208 94.3696C48.7678 94.5256 48.5592 94.6145 48.3408 94.6169C48.1221 94.6148 47.9133 94.526 47.7601 94.37C47.6069 94.214 47.5219 94.0035 47.5238 93.7849C47.5238 93.3249 47.8898 92.9519 48.3408 92.9519C48.7918 92.9519 49.1568 93.3259 49.1568 93.7849ZM58.0018 93.7849C58.0036 94.0035 57.9186 94.214 57.7654 94.37C57.6122 94.526 57.4034 94.6148 57.1848 94.6169C56.9663 94.6145 56.7577 94.5256 56.6047 94.3696C56.4518 94.2136 56.3669 94.0034 56.3688 93.7849C56.3688 93.3249 56.7338 92.9519 57.1848 92.9519C57.6358 92.9519 58.0018 93.3259 58.0018 93.7849ZM66.8458 93.7849C66.8476 94.0035 66.7626 94.214 66.6094 94.37C66.4562 94.526 66.2474 94.6148 66.0288 94.6169C65.8103 94.6145 65.6017 94.5256 65.4487 94.3696C65.2958 94.2136 65.2109 94.0034 65.2128 93.7849C65.2128 93.3249 65.5788 92.9519 66.0288 92.9519C66.4808 92.9519 66.8458 93.3259 66.8458 93.7849ZM75.6898 93.7849C75.6916 94.0034 75.6068 94.2136 75.4538 94.3696C75.3008 94.5256 75.0922 94.6145 74.8738 94.6169C74.6551 94.6148 74.4463 94.526 74.2931 94.37C74.1399 94.214 74.0549 94.0035 74.0568 93.7849C74.0568 93.3249 74.4228 92.9519 74.8738 92.9519C75.3248 92.9519 75.6898 93.3259 75.6898 93.7849ZM84.5348 93.7849C84.5366 94.0035 84.4516 94.214 84.2984 94.37C84.1452 94.526 83.9364 94.6148 83.7178 94.6169C83.4993 94.6145 83.2907 94.5256 83.1377 94.3696C82.9848 94.2136 82.8999 94.0034 82.9018 93.7849C82.9018 93.3249 83.2668 92.9519 83.7178 92.9519C84.1688 92.9519 84.5348 93.3259 84.5348 93.7849ZM93.3798 93.7849C93.3807 93.8932 93.3603 94.0007 93.3196 94.1012C93.279 94.2016 93.219 94.2931 93.1431 94.3703C93.0671 94.4476 92.9767 94.5091 92.8769 94.5514C92.7772 94.5937 92.6701 94.616 92.5618 94.6169C92.3433 94.6145 92.1347 94.5256 91.9817 94.3696C91.8288 94.2136 91.7439 94.0034 91.7458 93.7849C91.7458 93.3249 92.1118 92.9519 92.5618 92.9519C93.0138 92.9519 93.3788 93.3259 93.3788 93.7849M102.223 93.7849C102.225 94.0034 102.14 94.2136 101.987 94.3696C101.834 94.5256 101.625 94.6145 101.407 94.6169C101.188 94.6148 100.979 94.526 100.826 94.37C100.673 94.214 100.588 94.0035 100.59 93.7849C100.59 93.3249 100.956 92.9519 101.407 92.9519C101.858 92.9519 102.223 93.3259 102.223 93.7849ZM22.6248 100.838C22.6248 101.298 22.2588 101.67 21.8078 101.67C21.5891 101.668 21.3803 101.579 21.2271 101.423C21.0739 101.267 20.9889 101.057 20.9908 100.838C20.9908 100.378 21.3568 100.005 21.8078 100.005C22.2588 100.005 22.6248 100.379 22.6248 100.838ZM31.4698 100.838C31.4698 101.298 31.1038 101.67 30.6518 101.67C30.4331 101.668 30.2243 101.579 30.0711 101.423C29.9179 101.267 29.8329 101.057 29.8348 100.838C29.8348 100.378 30.2008 100.005 30.6518 100.005C31.1038 100.005 31.4688 100.379 31.4688 100.838M40.3128 100.838C40.3128 101.298 39.9478 101.67 39.4958 101.67C39.2773 101.668 39.0687 101.579 38.9157 101.423C38.7628 101.267 38.6779 101.056 38.6798 100.838C38.6798 100.378 39.0458 100.005 39.4958 100.005C39.9478 100.005 40.3128 100.379 40.3128 100.838ZM49.1568 100.838C49.1568 101.298 48.7918 101.67 48.3408 101.67C48.1221 101.668 47.9133 101.579 47.7601 101.423C47.6069 101.267 47.5219 101.057 47.5238 100.838C47.5238 100.378 47.8898 100.005 48.3408 100.005C48.7918 100.005 49.1568 100.379 49.1568 100.838ZM58.0018 100.838C58.0018 101.298 57.6358 101.67 57.1848 101.67C57.0766 101.669 56.9696 101.647 56.87 101.604C56.7705 101.562 56.6802 101.5 56.6044 101.423C56.5287 101.346 56.4689 101.254 56.4284 101.154C56.388 101.053 56.3677 100.946 56.3688 100.838C56.3688 100.378 56.7338 100.005 57.1848 100.005C57.6358 100.005 58.0018 100.379 58.0018 100.838ZM66.8458 100.838C66.8458 101.298 66.4808 101.67 66.0288 101.67C65.8103 101.668 65.6017 101.579 65.4487 101.423C65.2958 101.267 65.2109 101.056 65.2128 100.838C65.2128 100.378 65.5788 100.005 66.0288 100.005C66.4808 100.005 66.8458 100.379 66.8458 100.838ZM75.6898 100.838C75.6898 101.298 75.3248 101.67 74.8738 101.67C74.6551 101.668 74.4463 101.579 74.2931 101.423C74.1399 101.267 74.0549 101.057 74.0568 100.838C74.0568 100.378 74.4228 100.005 74.8738 100.005C75.3248 100.005 75.6898 100.379 75.6898 100.838ZM84.5348 100.838C84.5348 101.298 84.1688 101.67 83.7178 101.67C83.6096 101.669 83.5026 101.647 83.403 101.604C83.3035 101.562 83.2132 101.5 83.1374 101.423C83.0617 101.346 83.0019 101.254 82.9614 101.154C82.921 101.053 82.9007 100.946 82.9018 100.838C82.9018 100.378 83.2668 100.005 83.7178 100.005C84.1688 100.005 84.5348 100.379 84.5348 100.838ZM93.3798 100.838C93.3798 101.298 93.0138 101.67 92.5618 101.67C92.3433 101.668 92.1347 101.579 91.9817 101.423C91.8288 101.267 91.7439 101.056 91.7458 100.838C91.7458 100.378 92.1118 100.005 92.5618 100.005C93.0138 100.005 93.3788 100.379 93.3788 100.838M102.223 100.838C102.223 101.298 101.858 101.67 101.407 101.67C101.188 101.668 100.979 101.579 100.826 101.423C100.673 101.267 100.588 101.057 100.59 100.838C100.59 100.378 100.956 100.005 101.407 100.005C101.858 100.005 102.223 100.379 102.223 100.838ZM22.6248 107.891C22.6248 108.351 22.2588 108.724 21.8078 108.724C21.589 108.722 21.3802 108.632 21.227 108.476C21.0739 108.32 20.9889 108.11 20.9908 107.891C20.9908 107.431 21.3568 107.058 21.8078 107.058C22.2588 107.058 22.6248 107.431 22.6248 107.891ZM31.4698 107.891C31.4698 108.351 31.1038 108.724 30.6518 108.724C30.433 108.722 30.2242 108.632 30.071 108.476C29.9179 108.32 29.8329 108.11 29.8348 107.891C29.8348 107.431 30.2008 107.058 30.6518 107.058C31.1038 107.058 31.4688 107.431 31.4688 107.891M40.3128 107.891C40.3128 108.351 39.9478 108.724 39.4958 108.724C39.2772 108.721 39.0686 108.632 38.9157 108.476C38.7627 108.32 38.6779 108.109 38.6798 107.891C38.6798 107.431 39.0458 107.058 39.4958 107.058C39.9478 107.058 40.3128 107.431 40.3128 107.891ZM49.1568 107.891C49.1568 108.351 48.7918 108.724 48.3408 108.724C48.122 108.722 47.9132 108.632 47.76 108.476C47.6069 108.32 47.5219 108.11 47.5238 107.891C47.5238 107.431 47.8898 107.058 48.3408 107.058C48.7918 107.058 49.1568 107.431 49.1568 107.891ZM58.0018 107.891C58.0018 108.351 57.6358 108.724 57.1848 108.724C56.9661 108.722 56.7574 108.632 56.6044 108.476C56.4514 108.32 56.3666 108.11 56.3688 107.891C56.3688 107.431 56.7338 107.058 57.1848 107.058C57.6358 107.058 58.0018 107.431 58.0018 107.891ZM66.8458 107.891C66.8458 108.351 66.4808 108.724 66.0288 108.724C65.8102 108.721 65.6016 108.632 65.4487 108.476C65.2957 108.32 65.2109 108.109 65.2128 107.891C65.2128 107.431 65.5788 107.058 66.0288 107.058C66.4808 107.058 66.8458 107.431 66.8458 107.891ZM75.6898 107.891C75.6898 108.351 75.3248 108.724 74.8738 108.724C74.655 108.722 74.4462 108.632 74.293 108.476C74.1399 108.32 74.0549 108.11 74.0568 107.891C74.0568 107.431 74.4228 107.058 74.8738 107.058C75.3248 107.058 75.6898 107.431 75.6898 107.891ZM84.5348 107.891C84.5348 108.351 84.1688 108.724 83.7178 108.724C83.4991 108.722 83.2904 108.632 83.1374 108.476C82.9844 108.32 82.8996 108.11 82.9018 107.891C82.9018 107.431 83.2668 107.058 83.7178 107.058C84.1688 107.058 84.5348 107.431 84.5348 107.891ZM93.3798 107.891C93.3798 108.351 93.0138 108.724 92.5618 108.724C92.3432 108.721 92.1346 108.632 91.9817 108.476C91.8287 108.32 91.7439 108.109 91.7458 107.891C91.7458 107.431 92.1118 107.058 92.5618 107.058C93.0138 107.058 93.3788 107.431 93.3788 107.891M102.223 107.891C102.223 108.351 101.858 108.724 101.407 108.724C101.188 108.722 100.979 108.632 100.826 108.476C100.673 108.32 100.588 108.11 100.59 107.891C100.59 107.431 100.956 107.058 101.407 107.058C101.858 107.058 102.223 107.431 102.223 107.891ZM22.6248 114.945C22.6266 115.164 22.5416 115.374 22.3884 115.53C22.2352 115.686 22.0264 115.775 21.8078 115.777C21.5891 115.775 21.3803 115.686 21.2271 115.53C21.0739 115.374 20.9889 115.164 20.9908 114.945C20.9908 114.485 21.3568 114.111 21.8078 114.111C22.2588 114.111 22.6248 114.484 22.6248 114.945ZM31.4698 114.945C31.4707 115.053 31.4503 115.161 31.4096 115.261C31.369 115.362 31.309 115.453 31.2331 115.53C31.1571 115.608 31.0667 115.669 30.9669 115.711C30.8672 115.754 30.7601 115.776 30.6518 115.777C30.4331 115.775 30.2243 115.686 30.0711 115.53C29.9179 115.374 29.8329 115.164 29.8348 114.945C29.8348 114.485 30.2008 114.111 30.6518 114.111C31.1038 114.111 31.4688 114.484 31.4688 114.945M40.3128 114.945C40.3146 115.164 40.2296 115.374 40.0764 115.53C39.9232 115.686 39.7144 115.775 39.4958 115.777C39.2773 115.775 39.0687 115.686 38.9157 115.53C38.7628 115.374 38.6779 115.163 38.6798 114.945C38.6798 114.485 39.0458 114.111 39.4958 114.111C39.9478 114.111 40.3128 114.484 40.3128 114.945ZM49.1568 114.945C49.1586 115.163 49.0738 115.374 48.9208 115.53C48.7678 115.686 48.5592 115.775 48.3408 115.777C48.1221 115.775 47.9133 115.686 47.7601 115.53C47.6069 115.374 47.5219 115.164 47.5238 114.945C47.5238 114.485 47.8898 114.111 48.3408 114.111C48.7918 114.111 49.1568 114.484 49.1568 114.945ZM58.0018 114.945C58.0036 115.164 57.9186 115.374 57.7654 115.53C57.6122 115.686 57.4034 115.775 57.1848 115.777C56.9663 115.775 56.7577 115.686 56.6047 115.53C56.4518 115.374 56.3669 115.163 56.3688 114.945C56.3688 114.485 56.7338 114.111 57.1848 114.111C57.6358 114.111 58.0018 114.484 58.0018 114.945ZM66.8458 114.945C66.8476 115.164 66.7626 115.374 66.6094 115.53C66.4562 115.686 66.2474 115.775 66.0288 115.777C65.8103 115.775 65.6017 115.686 65.4487 115.53C65.2958 115.374 65.2109 115.163 65.2128 114.945C65.2128 114.485 65.5788 114.111 66.0288 114.111C66.4808 114.111 66.8458 114.484 66.8458 114.945ZM75.6898 114.945C75.6916 115.163 75.6068 115.374 75.4538 115.53C75.3008 115.686 75.0922 115.775 74.8738 115.777C74.6551 115.775 74.4463 115.686 74.2931 115.53C74.1399 115.374 74.0549 115.164 74.0568 114.945C74.0568 114.485 74.4228 114.111 74.8738 114.111C75.3248 114.111 75.6898 114.484 75.6898 114.945ZM84.5348 114.945C84.5366 115.164 84.4516 115.374 84.2984 115.53C84.1452 115.686 83.9364 115.775 83.7178 115.777C83.4993 115.775 83.2907 115.686 83.1377 115.53C82.9848 115.374 82.8999 115.163 82.9018 114.945C82.9018 114.485 83.2668 114.111 83.7178 114.111C84.1688 114.111 84.5348 114.484 84.5348 114.945ZM93.3798 114.945C93.3807 115.053 93.3603 115.161 93.3196 115.261C93.279 115.362 93.219 115.453 93.1431 115.53C93.0671 115.608 92.9767 115.669 92.8769 115.711C92.7772 115.754 92.6701 115.776 92.5618 115.777C92.3433 115.775 92.1347 115.686 91.9817 115.53C91.8288 115.374 91.7439 115.163 91.7458 114.945C91.7458 114.485 92.1118 114.111 92.5618 114.111C93.0138 114.111 93.3788 114.484 93.3788 114.945M102.223 114.945C102.225 115.163 102.14 115.374 101.987 115.53C101.834 115.686 101.625 115.775 101.407 115.777C101.188 115.775 100.979 115.686 100.826 115.53C100.673 115.374 100.588 115.164 100.59 114.945C100.59 114.485 100.956 114.111 101.407 114.111C101.858 114.111 102.223 114.484 102.223 114.945ZM22.6248 121.998C22.6248 122.458 22.2588 122.831 21.8078 122.831C21.589 122.829 21.3802 122.739 21.227 122.583C21.0739 122.427 20.9889 122.217 20.9908 121.998C20.9908 121.537 21.3568 121.165 21.8078 121.165C22.2588 121.165 22.6248 121.537 22.6248 121.998ZM31.4698 121.998C31.4698 122.458 31.1038 122.831 30.6518 122.831C30.433 122.829 30.2242 122.739 30.071 122.583C29.9179 122.427 29.8329 122.217 29.8348 121.998C29.8348 121.537 30.2008 121.165 30.6518 121.165C31.1038 121.165 31.4688 121.537 31.4688 121.998M40.3128 121.998C40.3128 122.458 39.9478 122.831 39.4958 122.831C39.2772 122.828 39.0686 122.739 38.9157 122.583C38.7627 122.427 38.6779 122.216 38.6798 121.998C38.6798 121.537 39.0458 121.165 39.4958 121.165C39.9478 121.165 40.3128 121.537 40.3128 121.998ZM49.1568 121.998C49.1568 122.458 48.7918 122.831 48.3408 122.831C48.122 122.829 47.9132 122.739 47.76 122.583C47.6069 122.427 47.5219 122.217 47.5238 121.998C47.5238 121.537 47.8898 121.165 48.3408 121.165C48.7918 121.165 49.1568 121.537 49.1568 121.998ZM58.0018 121.998C58.0018 122.458 57.6358 122.831 57.1848 122.831C56.9661 122.829 56.7574 122.739 56.6044 122.583C56.4514 122.427 56.3666 122.217 56.3688 121.998C56.3688 121.537 56.7338 121.165 57.1848 121.165C57.6358 121.165 58.0018 121.537 58.0018 121.998ZM66.8458 121.998C66.8458 122.458 66.4808 122.831 66.0288 122.831C65.8102 122.828 65.6016 122.739 65.4487 122.583C65.2957 122.427 65.2109 122.216 65.2128 121.998C65.2128 121.537 65.5788 121.165 66.0288 121.165C66.4808 121.165 66.8458 121.537 66.8458 121.998ZM75.6898 121.998C75.6898 122.458 75.3248 122.831 74.8738 122.831C74.655 122.829 74.4462 122.739 74.293 122.583C74.1399 122.427 74.0549 122.217 74.0568 121.998C74.0568 121.537 74.4228 121.165 74.8738 121.165C75.3248 121.165 75.6898 121.537 75.6898 121.998ZM84.5348 121.998C84.5348 122.458 84.1688 122.831 83.7178 122.831C83.4991 122.829 83.2904 122.739 83.1374 122.583C82.9844 122.427 82.8996 122.217 82.9018 121.998C82.9018 121.537 83.2668 121.165 83.7178 121.165C84.1688 121.165 84.5348 121.537 84.5348 121.998ZM93.3798 121.998C93.3798 122.458 93.0138 122.831 92.5618 122.831C92.3432 122.828 92.1346 122.739 91.9817 122.583C91.8287 122.427 91.7439 122.216 91.7458 121.998C91.7458 121.537 92.1118 121.165 92.5618 121.165C93.0138 121.165 93.3788 121.537 93.3788 121.998M102.223 121.998C102.223 122.458 101.858 122.831 101.407 122.831C101.188 122.829 100.979 122.739 100.826 122.583C100.673 122.427 100.588 122.217 100.59 121.998C100.59 121.537 100.956 121.165 101.407 121.165C101.858 121.165 102.223 121.537 102.223 121.998ZM22.6248 129.051C22.6248 129.511 22.2588 129.884 21.8078 129.884C21.589 129.882 21.3802 129.792 21.227 129.636C21.0739 129.48 20.9889 129.27 20.9908 129.051C20.9908 128.591 21.3568 128.218 21.8078 128.218C22.2588 128.218 22.6248 128.591 22.6248 129.051ZM31.4698 129.051C31.4698 129.511 31.1038 129.884 30.6518 129.884C30.433 129.882 30.2242 129.792 30.071 129.636C29.9179 129.48 29.8329 129.27 29.8348 129.051C29.8348 128.591 30.2008 128.218 30.6518 128.218C31.1038 128.218 31.4688 128.591 31.4688 129.051M40.3128 129.051C40.3128 129.511 39.9478 129.884 39.4958 129.884C39.2772 129.881 39.0686 129.792 38.9157 129.636C38.7627 129.48 38.6779 129.269 38.6798 129.051C38.6798 128.591 39.0458 128.218 39.4958 128.218C39.9478 128.218 40.3128 128.591 40.3128 129.051ZM49.1568 129.051C49.1568 129.511 48.7918 129.884 48.3408 129.884C48.122 129.882 47.9132 129.792 47.76 129.636C47.6069 129.48 47.5219 129.27 47.5238 129.051C47.5238 128.591 47.8898 128.218 48.3408 128.218C48.7918 128.218 49.1568 128.591 49.1568 129.051ZM58.0018 129.051C58.0018 129.511 57.6358 129.884 57.1848 129.884C56.9661 129.882 56.7574 129.792 56.6044 129.636C56.4514 129.48 56.3666 129.27 56.3688 129.051C56.3688 128.591 56.7338 128.218 57.1848 128.218C57.6358 128.218 58.0018 128.591 58.0018 129.051ZM66.8458 129.051C66.8458 129.511 66.4808 129.884 66.0288 129.884C65.8102 129.881 65.6016 129.792 65.4487 129.636C65.2957 129.48 65.2109 129.269 65.2128 129.051C65.2128 128.591 65.5788 128.218 66.0288 128.218C66.4808 128.218 66.8458 128.591 66.8458 129.051ZM75.6898 129.051C75.6898 129.511 75.3248 129.884 74.8738 129.884C74.655 129.882 74.4462 129.792 74.293 129.636C74.1399 129.48 74.0549 129.27 74.0568 129.051C74.0568 128.591 74.4228 128.218 74.8738 128.218C75.3248 128.218 75.6898 128.591 75.6898 129.051ZM84.5348 129.051C84.5348 129.511 84.1688 129.884 83.7178 129.884C83.4991 129.882 83.2904 129.792 83.1374 129.636C82.9844 129.48 82.8996 129.27 82.9018 129.051C82.9018 128.591 83.2668 128.218 83.7178 128.218C84.1688 128.218 84.5348 128.591 84.5348 129.051ZM93.3798 129.051C93.3798 129.511 93.0138 129.884 92.5618 129.884C92.3432 129.881 92.1346 129.792 91.9817 129.636C91.8287 129.48 91.7439 129.269 91.7458 129.051C91.7458 128.591 92.1118 128.218 92.5618 128.218C93.0138 128.218 93.3788 128.591 93.3788 129.051M102.223 129.051C102.223 129.511 101.858 129.884 101.407 129.884C101.188 129.882 100.979 129.792 100.826 129.636C100.673 129.48 100.588 129.27 100.59 129.051C100.59 128.591 100.956 128.218 101.407 128.218C101.858 128.218 102.223 128.591 102.223 129.051ZM22.6248 136.104C22.6248 136.564 22.2588 136.937 21.8078 136.937C21.589 136.935 21.3802 136.845 21.227 136.689C21.0739 136.533 20.9889 136.323 20.9908 136.104C20.9908 135.644 21.3568 135.27 21.8078 135.27C22.2588 135.27 22.6248 135.644 22.6248 136.104ZM31.4698 136.104C31.4698 136.564 31.1038 136.937 30.6518 136.937C30.433 136.935 30.2242 136.845 30.071 136.689C29.9179 136.533 29.8329 136.323 29.8348 136.104C29.8348 135.644 30.2008 135.27 30.6518 135.27C31.1038 135.27 31.4688 135.644 31.4688 136.104M40.3128 136.104C40.3128 136.564 39.9478 136.937 39.4958 136.937C39.2772 136.934 39.0686 136.845 38.9157 136.689C38.7627 136.533 38.6779 136.322 38.6798 136.104C38.6798 135.644 39.0458 135.27 39.4958 135.27C39.9478 135.27 40.3128 135.644 40.3128 136.104ZM49.1568 136.104C49.1568 136.564 48.7918 136.937 48.3408 136.937C48.122 136.935 47.9132 136.845 47.76 136.689C47.6069 136.533 47.5219 136.323 47.5238 136.104C47.5238 135.644 47.8898 135.27 48.3408 135.27C48.7918 135.27 49.1568 135.644 49.1568 136.104ZM58.0018 136.104C58.0018 136.564 57.6358 136.937 57.1848 136.937C56.9661 136.935 56.7574 136.845 56.6044 136.689C56.4514 136.533 56.3666 136.323 56.3688 136.104C56.3688 135.644 56.7338 135.27 57.1848 135.27C57.6358 135.27 58.0018 135.644 58.0018 136.104ZM66.8458 136.104C66.8458 136.564 66.4808 136.937 66.0288 136.937C65.8102 136.934 65.6016 136.845 65.4487 136.689C65.2957 136.533 65.2109 136.322 65.2128 136.104C65.2128 135.644 65.5788 135.27 66.0288 135.27C66.4808 135.27 66.8458 135.644 66.8458 136.104ZM75.6898 136.104C75.6898 136.564 75.3248 136.937 74.8738 136.937C74.655 136.935 74.4462 136.845 74.293 136.689C74.1399 136.533 74.0549 136.323 74.0568 136.104C74.0568 135.644 74.4228 135.27 74.8738 135.27C75.3248 135.27 75.6898 135.644 75.6898 136.104ZM84.5348 136.104C84.5348 136.564 84.1688 136.937 83.7178 136.937C83.4991 136.935 83.2904 136.845 83.1374 136.689C82.9844 136.533 82.8996 136.323 82.9018 136.104C82.9018 135.644 83.2668 135.27 83.7178 135.27C84.1688 135.27 84.5348 135.644 84.5348 136.104ZM93.3798 136.104C93.3798 136.564 93.0138 136.937 92.5618 136.937C92.3432 136.934 92.1346 136.845 91.9817 136.689C91.8287 136.533 91.7439 136.322 91.7458 136.104C91.7458 135.644 92.1118 135.27 92.5618 135.27C93.0138 135.27 93.3788 135.644 93.3788 136.104M102.223 136.104C102.223 136.564 101.858 136.937 101.407 136.937C101.188 136.935 100.979 136.845 100.826 136.689C100.673 136.533 100.588 136.323 100.59 136.104C100.59 135.644 100.956 135.27 101.407 135.27C101.858 135.27 102.223 135.644 102.223 136.104ZM22.6248 143.156C22.6248 143.617 22.2588 143.989 21.8078 143.989C21.6994 143.988 21.5923 143.965 21.4927 143.923C21.393 143.881 21.3026 143.819 21.2267 143.742C21.1509 143.664 21.091 143.573 21.0505 143.472C21.01 143.372 20.9897 143.264 20.9908 143.156C20.9908 142.696 21.3568 142.323 21.8078 142.323C22.2588 142.323 22.6248 142.697 22.6248 143.156ZM31.4698 143.156C31.4698 143.617 31.1038 143.989 30.6518 143.989C30.5434 143.988 30.4363 143.965 30.3367 143.923C30.237 143.881 30.1466 143.819 30.0707 143.742C29.9949 143.664 29.935 143.573 29.8945 143.472C29.854 143.372 29.8337 143.264 29.8348 143.156C29.8348 142.696 30.2008 142.323 30.6518 142.323C31.1038 142.323 31.4688 142.697 31.4688 143.156M40.3128 143.156C40.3128 143.617 39.9478 143.989 39.4958 143.989C39.2771 143.987 39.0684 143.897 38.9154 143.741C38.7624 143.585 38.6776 143.375 38.6798 143.156C38.6798 142.696 39.0458 142.323 39.4958 142.323C39.9478 142.323 40.3128 142.697 40.3128 143.156ZM49.1568 143.156C49.1568 143.617 48.7918 143.989 48.3408 143.989C48.2324 143.988 48.1253 143.965 48.0257 143.923C47.926 143.881 47.8356 143.819 47.7597 143.742C47.6839 143.664 47.624 143.573 47.5835 143.472C47.543 143.372 47.5227 143.264 47.5238 143.156C47.5238 142.696 47.8898 142.323 48.3408 142.323C48.7918 142.323 49.1568 142.697 49.1568 143.156ZM58.0018 143.156C58.0018 143.617 57.6358 143.989 57.1848 143.989C57.0765 143.988 56.9694 143.965 56.8698 143.923C56.7702 143.881 56.6799 143.819 56.6041 143.742C56.5283 143.664 56.4685 143.573 56.4281 143.472C56.3877 143.372 56.3676 143.264 56.3688 143.156C56.3688 142.696 56.7338 142.323 57.1848 142.323C57.6358 142.323 58.0018 142.697 58.0018 143.156ZM66.8458 143.156C66.8458 143.617 66.4808 143.989 66.0288 143.989C65.8101 143.987 65.6014 143.897 65.4484 143.741C65.2954 143.585 65.2106 143.375 65.2128 143.156C65.2128 142.696 65.5788 142.323 66.0288 142.323C66.4808 142.323 66.8458 142.697 66.8458 143.156ZM75.6898 143.156C75.6898 143.617 75.3248 143.989 74.8738 143.989C74.7654 143.988 74.6583 143.965 74.5587 143.923C74.459 143.881 74.3686 143.819 74.2927 143.742C74.2169 143.664 74.157 143.573 74.1165 143.472C74.076 143.372 74.0557 143.264 74.0568 143.156C74.0568 142.696 74.4228 142.323 74.8738 142.323C75.3248 142.323 75.6898 142.697 75.6898 143.156ZM84.5348 143.156C84.5348 143.617 84.1688 143.989 83.7178 143.989C83.6095 143.988 83.5024 143.965 83.4028 143.923C83.3032 143.881 83.2129 143.819 83.1371 143.742C83.0613 143.664 83.0015 143.573 82.9611 143.472C82.9208 143.372 82.9006 143.264 82.9018 143.156C82.9018 142.696 83.2668 142.323 83.7178 142.323C84.1688 142.323 84.5348 142.697 84.5348 143.156ZM93.3798 143.156C93.3798 143.617 93.0138 143.989 92.5618 143.989C92.3431 143.987 92.1344 143.897 91.9814 143.741C91.8284 143.585 91.7436 143.375 91.7458 143.156C91.7458 142.696 92.1118 142.323 92.5618 142.323C93.0138 142.323 93.3788 142.697 93.3788 143.156M102.223 143.156C102.223 143.617 101.858 143.989 101.407 143.989C101.298 143.988 101.191 143.965 101.092 143.923C100.992 143.881 100.902 143.819 100.826 143.742C100.75 143.664 100.69 143.573 100.649 143.472C100.609 143.372 100.589 143.264 100.59 143.156C100.59 142.696 100.956 142.323 101.407 142.323C101.858 142.323 102.223 142.697 102.223 143.156ZM22.6248 150.209C22.6248 150.67 22.2588 151.042 21.8078 151.042C21.6994 151.041 21.5923 151.018 21.4927 150.976C21.393 150.934 21.3026 150.872 21.2267 150.795C21.1509 150.717 21.091 150.626 21.0505 150.525C21.01 150.425 20.9897 150.317 20.9908 150.209C20.9908 149.751 21.3568 149.377 21.8078 149.377C22.2588 149.377 22.6248 149.751 22.6248 150.209ZM31.4698 150.209C31.4698 150.67 31.1038 151.042 30.6518 151.042C30.5434 151.041 30.4363 151.018 30.3367 150.976C30.237 150.934 30.1466 150.872 30.0707 150.795C29.9949 150.717 29.935 150.626 29.8945 150.525C29.854 150.425 29.8337 150.317 29.8348 150.209C29.8348 149.751 30.2008 149.377 30.6518 149.377C31.1038 149.377 31.4688 149.751 31.4688 150.209M40.3128 150.209C40.3128 150.67 39.9478 151.042 39.4958 151.042C39.2771 151.04 39.0684 150.95 38.9154 150.794C38.7624 150.638 38.6776 150.428 38.6798 150.209C38.6798 149.751 39.0458 149.377 39.4958 149.377C39.9478 149.377 40.3128 149.751 40.3128 150.209ZM49.1568 150.209C49.1568 150.67 48.7918 151.042 48.3408 151.042C48.2324 151.041 48.1253 151.018 48.0257 150.976C47.926 150.934 47.8356 150.872 47.7597 150.795C47.6839 150.717 47.624 150.626 47.5835 150.525C47.543 150.425 47.5227 150.317 47.5238 150.209C47.5238 149.751 47.8898 149.377 48.3408 149.377C48.7918 149.377 49.1568 149.751 49.1568 150.209ZM58.0018 150.209C58.0018 150.67 57.6358 151.042 57.1848 151.042C57.0765 151.041 56.9694 151.018 56.8698 150.976C56.7702 150.934 56.6799 150.872 56.6041 150.795C56.5283 150.717 56.4685 150.626 56.4281 150.525C56.3877 150.425 56.3676 150.317 56.3688 150.209C56.3688 149.751 56.7338 149.377 57.1848 149.377C57.6358 149.377 58.0018 149.751 58.0018 150.209ZM66.8458 150.209C66.8458 150.67 66.4808 151.042 66.0288 151.042C65.8101 151.04 65.6014 150.95 65.4484 150.794C65.2954 150.638 65.2106 150.428 65.2128 150.209C65.2128 149.751 65.5788 149.377 66.0288 149.377C66.4808 149.377 66.8458 149.751 66.8458 150.209ZM75.6898 150.209C75.6898 150.67 75.3248 151.042 74.8738 151.042C74.7654 151.041 74.6583 151.018 74.5587 150.976C74.459 150.934 74.3686 150.872 74.2927 150.795C74.2169 150.717 74.157 150.626 74.1165 150.525C74.076 150.425 74.0557 150.317 74.0568 150.209C74.0568 149.751 74.4228 149.377 74.8738 149.377C75.3248 149.377 75.6898 149.751 75.6898 150.209ZM84.5348 150.209C84.5348 150.67 84.1688 151.042 83.7178 151.042C83.6095 151.041 83.5024 151.018 83.4028 150.976C83.3032 150.934 83.2129 150.872 83.1371 150.795C83.0613 150.717 83.0015 150.626 82.9611 150.525C82.9208 150.425 82.9006 150.317 82.9018 150.209C82.9018 149.751 83.2668 149.377 83.7178 149.377C84.1688 149.377 84.5348 149.751 84.5348 150.209ZM93.3798 150.209C93.3798 150.67 93.0138 151.042 92.5618 151.042C92.3431 151.04 92.1344 150.95 91.9814 150.794C91.8284 150.638 91.7436 150.428 91.7458 150.209C91.7458 149.751 92.1118 149.377 92.5618 149.377C93.0138 149.377 93.3788 149.751 93.3788 150.209M102.223 150.209C102.223 150.67 101.858 151.042 101.407 151.042C101.298 151.041 101.191 151.018 101.092 150.976C100.992 150.934 100.902 150.872 100.826 150.795C100.75 150.717 100.69 150.626 100.649 150.525C100.609 150.425 100.589 150.317 100.59 150.209C100.59 149.751 100.956 149.377 101.407 149.377C101.858 149.377 102.223 149.751 102.223 150.209ZM22.6248 157.263C22.6248 157.723 22.2588 158.096 21.8078 158.096C21.589 158.094 21.3802 158.004 21.227 157.848C21.0739 157.692 20.9889 157.482 20.9908 157.263C20.9908 156.803 21.3568 156.43 21.8078 156.43C22.2588 156.43 22.6248 156.803 22.6248 157.263ZM31.4698 157.263C31.4698 157.723 31.1038 158.096 30.6518 158.096C30.433 158.094 30.2242 158.004 30.071 157.848C29.9179 157.692 29.8329 157.482 29.8348 157.263C29.8348 156.803 30.2008 156.43 30.6518 156.43C31.1038 156.43 31.4688 156.803 31.4688 157.263M40.3128 157.263C40.3128 157.723 39.9478 158.096 39.4958 158.096C39.2772 158.093 39.0686 158.004 38.9157 157.848C38.7627 157.692 38.6779 157.481 38.6798 157.263C38.6798 156.803 39.0458 156.43 39.4958 156.43C39.9478 156.43 40.3128 156.803 40.3128 157.263ZM49.1568 157.263C49.1568 157.723 48.7918 158.096 48.3408 158.096C48.122 158.094 47.9132 158.004 47.76 157.848C47.6069 157.692 47.5219 157.482 47.5238 157.263C47.5238 156.803 47.8898 156.43 48.3408 156.43C48.7918 156.43 49.1568 156.803 49.1568 157.263ZM58.0018 157.263C58.0018 157.723 57.6358 158.096 57.1848 158.096C56.9661 158.094 56.7574 158.004 56.6044 157.848C56.4514 157.692 56.3666 157.482 56.3688 157.263C56.3688 156.803 56.7338 156.43 57.1848 156.43C57.6358 156.43 58.0018 156.803 58.0018 157.263ZM66.8458 157.263C66.8458 157.723 66.4808 158.096 66.0288 158.096C65.8102 158.093 65.6016 158.004 65.4487 157.848C65.2957 157.692 65.2109 157.481 65.2128 157.263C65.2128 156.803 65.5788 156.43 66.0288 156.43C66.4808 156.43 66.8458 156.803 66.8458 157.263ZM75.6898 157.263C75.6898 157.723 75.3248 158.096 74.8738 158.096C74.655 158.094 74.4462 158.004 74.293 157.848C74.1399 157.692 74.0549 157.482 74.0568 157.263C74.0568 156.803 74.4228 156.43 74.8738 156.43C75.3248 156.43 75.6898 156.803 75.6898 157.263ZM84.5348 157.263C84.5348 157.723 84.1688 158.096 83.7178 158.096C83.4991 158.094 83.2904 158.004 83.1374 157.848C82.9844 157.692 82.8996 157.482 82.9018 157.263C82.9018 156.803 83.2668 156.43 83.7178 156.43C84.1688 156.43 84.5348 156.803 84.5348 157.263ZM93.3798 157.263C93.3798 157.723 93.0138 158.096 92.5618 158.096C92.3432 158.093 92.1346 158.004 91.9817 157.848C91.8287 157.692 91.7439 157.481 91.7458 157.263C91.7458 156.803 92.1118 156.43 92.5618 156.43C93.0138 156.43 93.3788 156.803 93.3788 157.263M102.223 157.263C102.223 157.723 101.858 158.096 101.407 158.096C101.188 158.094 100.979 158.004 100.826 157.848C100.673 157.692 100.588 157.482 100.59 157.263C100.59 156.803 100.956 156.43 101.407 156.43C101.858 156.43 102.223 156.803 102.223 157.263Z" fill="#969DA6"/>
</g>
<path d="M121.716 1.45288C99.7388 1.45288 81.9238 19.2679 81.9238 41.2449V68.5529H161.507V41.2449C161.507 19.2679 143.692 1.45288 121.716 1.45288V1.45288ZM122.141 15.5009C136.165 15.7279 147.463 27.1669 147.463 41.2449V54.5079H95.9678V41.2449C95.9678 27.0249 107.496 15.4969 121.716 15.4969L122.141 15.5009V15.5009Z" fill="#E6EAEE"/>
<path d="M160.577 50.6069H82.8541C75.015 50.6069 68.6602 56.9617 68.6602 64.8009V120.678C68.6602 128.517 75.015 134.872 82.8541 134.872H160.577C168.416 134.872 174.771 128.517 174.771 120.678V64.8009C174.771 56.9617 168.416 50.6069 160.577 50.6069Z" fill="#E6EAEE"/>
<path d="M122.496 95.8609C128.098 95.8609 132.639 91.3197 132.639 85.7179C132.639 80.1161 128.098 75.5749 122.496 75.5749C116.894 75.5749 112.353 80.1161 112.353 85.7179C112.353 91.3197 116.894 95.8609 122.496 95.8609Z" fill="#283A5E"/>
<path d="M118.595 91.1789H126.397V109.385C126.397 111.395 124.65 113.025 122.496 113.025C120.341 113.025 118.595 111.395 118.595 109.385V91.1789Z" fill="#283A5E"/>
<path d="M174.612 140.797C186.59 140.797 196.3 131.087 196.3 119.109C196.3 107.131 186.59 97.4209 174.612 97.4209C162.634 97.4209 152.924 107.131 152.924 119.109C152.924 131.087 162.634 140.797 174.612 140.797Z" fill="#FF4702"/>
<path d="M185.114 129.26C184.93 129.444 184.711 129.59 184.471 129.69C184.23 129.79 183.972 129.841 183.712 129.841C183.451 129.841 183.193 129.79 182.953 129.69C182.712 129.59 182.493 129.444 182.309 129.26L174.946 121.897L167.233 129.61C167.049 129.794 166.83 129.94 166.59 130.04C166.349 130.139 166.091 130.191 165.831 130.19C165.57 130.19 165.313 130.139 165.072 130.039C164.831 129.94 164.613 129.794 164.429 129.609C164.245 129.425 164.099 129.207 163.999 128.966C163.899 128.725 163.848 128.467 163.848 128.207C163.848 127.947 163.9 127.689 163.999 127.448C164.099 127.208 164.245 126.989 164.429 126.805L172.142 119.092L164.779 111.73C164.407 111.358 164.198 110.854 164.198 110.328C164.198 109.802 164.407 109.297 164.779 108.925C165.151 108.553 165.655 108.344 166.181 108.344C166.707 108.344 167.211 108.553 167.583 108.925L174.946 116.288L181.958 109.276C182.142 109.092 182.361 108.946 182.602 108.846C182.842 108.746 183.1 108.695 183.361 108.695C183.621 108.695 183.879 108.746 184.12 108.846C184.36 108.946 184.579 109.092 184.763 109.276C184.947 109.46 185.093 109.679 185.193 109.919C185.293 110.16 185.344 110.418 185.344 110.678C185.344 110.939 185.293 111.197 185.193 111.437C185.093 111.678 184.947 111.897 184.763 112.081L177.751 119.092L185.114 126.455C185.888 127.23 185.888 128.485 185.114 129.26Z" fill="url(#paint0_linear_586_43380)"/>
</g>
<defs>
<linearGradient id="paint0_linear_586_43380" x1="178.428" y1="111.473" x2="169.826" y2="129.7" gradientUnits="userSpaceOnUse">
<stop stop-color="white"/>
<stop offset="1" stop-color="#FFE7E7"/>
</linearGradient>
<clipPath id="clip0_586_43380">
<rect width="239" height="158" fill="white" transform="translate(0 0.474854)"/>
</clipPath>
</defs>
</svg>
