<svg xmlns="http://www.w3.org/2000/svg" width="362" height="204" viewBox="0 0 362 204">
    <g fill="none" fill-rule="evenodd">
        <path fill="#F9F9F9" d="M-502-180H864v768H-502z"/>
        <path fill-rule="nonzero" d="M-11-10h384v224H-11z"/>
        <g>
            <ellipse cx="179.5" cy="192" fill="#E9EBEE" fill-rule="nonzero" opacity=".4" rx="28.5" ry="8"/>
            <path stroke="#E9EBEE" stroke-linecap="round" stroke-linejoin="round" stroke-width="3.86" d="M180.5 144v51M180 168l18 22M180 168l-19 22"/>
            <path fill="#E9EBEE" fill-rule="nonzero" d="M300.801 92h-61.198c-16.879-.03-30.559-13.707-30.603-30.598v-30.59C208.952 13.848 222.651.055 239.603 0H362v30.812c-.018 33.806-27.416 61.2-61.199 61.188M128 106v32H64c-35.36-.022-64.011-28.673-64-64h96.003a31.965 31.965 0 0 1 22.651 9.36A31.904 31.904 0 0 1 128 106" opacity=".4"/>
            <g fill="#FB043D" fill-rule="nonzero" opacity=".1" transform="translate(248 7)">
                <ellipse cx="1.439" cy="1.299" rx="1" ry="1"/>
                <ellipse cx="10.815" cy="1.299" rx="1" ry="1"/>
                <ellipse cx="20.191" cy="1.299" rx="1" ry="1"/>
                <ellipse cx="29.56" cy="1.299" rx="1" ry="1"/>
                <ellipse cx="38.936" cy="1.299" rx="1" ry="1"/>
                <ellipse cx="48.312" cy="1.299" rx="1" ry="1"/>
                <ellipse cx="57.688" cy="1.299" rx="1" ry="1"/>
                <ellipse cx="67.064" cy="1.299" rx="1" ry="1"/>
                <ellipse cx="76.44" cy="1.299" rx="1" ry="1"/>
                <ellipse cx="85.815" cy="1.299" rx="1" ry="1"/>
                <ellipse cx="1.439" cy="8.637" rx="1" ry="1"/>
                <ellipse cx="10.815" cy="8.637" rx="1" ry="1"/>
                <ellipse cx="20.191" cy="8.637" rx="1" ry="1"/>
                <ellipse cx="29.56" cy="8.637" rx="1" ry="1"/>
                <ellipse cx="38.936" cy="8.637" rx="1" ry="1"/>
                <ellipse cx="48.312" cy="8.637" rx="1" ry="1"/>
                <ellipse cx="57.688" cy="8.637" rx="1" ry="1"/>
                <ellipse cx="67.064" cy="8.637" rx="1" ry="1"/>
                <ellipse cx="76.44" cy="8.637" rx="1" ry="1"/>
                <ellipse cx="85.815" cy="8.637" rx="1" ry="1"/>
                <ellipse cx="1.439" cy="15.975" rx="1" ry="1"/>
                <ellipse cx="10.815" cy="15.975" rx="1" ry="1"/>
                <ellipse cx="20.191" cy="15.975" rx="1" ry="1"/>
                <ellipse cx="29.56" cy="15.975" rx="1" ry="1"/>
                <ellipse cx="38.936" cy="15.975" rx="1" ry="1"/>
                <ellipse cx="48.312" cy="15.975" rx="1" ry="1"/>
                <ellipse cx="57.688" cy="15.975" rx="1" ry="1"/>
                <ellipse cx="67.064" cy="15.975" rx="1" ry="1"/>
                <ellipse cx="76.44" cy="15.975" rx="1" ry="1"/>
                <ellipse cx="85.815" cy="15.975" rx="1" ry="1"/>
                <ellipse cx="1.439" cy="23.313" rx="1" ry="1"/>
                <ellipse cx="10.815" cy="23.313" rx="1" ry="1"/>
                <ellipse cx="20.191" cy="23.313" rx="1" ry="1"/>
                <ellipse cx="29.56" cy="23.313" rx="1" ry="1"/>
                <ellipse cx="38.936" cy="23.313" rx="1" ry="1"/>
                <ellipse cx="48.312" cy="23.313" rx="1" ry="1"/>
                <ellipse cx="57.688" cy="23.313" rx="1" ry="1"/>
                <ellipse cx="67.064" cy="23.313" rx="1" ry="1"/>
                <ellipse cx="76.44" cy="23.313" rx="1" ry="1"/>
                <ellipse cx="85.815" cy="23.313" rx="1" ry="1"/>
                <ellipse cx="1.439" cy="30.651" rx="1" ry="1"/>
                <ellipse cx="10.815" cy="30.651" rx="1" ry="1"/>
                <ellipse cx="20.191" cy="30.651" rx="1" ry="1"/>
                <ellipse cx="29.56" cy="30.651" rx="1" ry="1"/>
                <ellipse cx="38.936" cy="30.651" rx="1" ry="1"/>
                <ellipse cx="48.312" cy="30.651" rx="1" ry="1"/>
                <ellipse cx="57.688" cy="30.651" rx="1" ry="1"/>
                <ellipse cx="67.064" cy="30.651" rx="1" ry="1"/>
                <ellipse cx="76.44" cy="30.651" rx="1" ry="1"/>
                <ellipse cx="85.815" cy="30.651" rx="1" ry="1"/>
                <ellipse cx="1.439" cy="37.989" rx="1" ry="1"/>
                <ellipse cx="10.815" cy="37.989" rx="1" ry="1"/>
                <ellipse cx="20.191" cy="37.989" rx="1" ry="1"/>
                <ellipse cx="29.56" cy="37.989" rx="1" ry="1"/>
                <ellipse cx="38.936" cy="37.989" rx="1" ry="1"/>
                <ellipse cx="48.312" cy="37.989" rx="1" ry="1"/>
                <ellipse cx="57.688" cy="37.989" rx="1" ry="1"/>
                <ellipse cx="67.064" cy="37.989" rx="1" ry="1"/>
                <ellipse cx="76.44" cy="37.989" rx="1" ry="1"/>
                <ellipse cx="85.815" cy="37.989" rx="1" ry="1"/>
                <ellipse cx="1.439" cy="45.334" rx="1" ry="1"/>
                <ellipse cx="10.815" cy="45.334" rx="1" ry="1"/>
                <ellipse cx="20.191" cy="45.334" rx="1" ry="1"/>
                <ellipse cx="29.56" cy="45.334" rx="1" ry="1"/>
                <ellipse cx="38.936" cy="45.334" rx="1" ry="1"/>
                <ellipse cx="48.312" cy="45.334" rx="1" ry="1"/>
                <ellipse cx="57.688" cy="45.334" rx="1" ry="1"/>
                <ellipse cx="67.064" cy="45.334" rx="1" ry="1"/>
                <ellipse cx="76.44" cy="45.334" rx="1" ry="1"/>
                <ellipse cx="85.815" cy="45.334" rx="1" ry="1"/>
                <ellipse cx="1.439" cy="52.672" rx="1" ry="1"/>
                <ellipse cx="10.815" cy="52.672" rx="1" ry="1"/>
                <ellipse cx="20.191" cy="52.672" rx="1" ry="1"/>
                <ellipse cx="29.56" cy="52.672" rx="1" ry="1"/>
                <ellipse cx="38.936" cy="52.672" rx="1" ry="1"/>
                <ellipse cx="48.312" cy="52.672" rx="1" ry="1"/>
                <ellipse cx="57.688" cy="52.672" rx="1" ry="1"/>
                <ellipse cx="67.064" cy="52.672" rx="1" ry="1"/>
                <ellipse cx="76.44" cy="52.672" rx="1" ry="1"/>
                <ellipse cx="85.815" cy="52.672" rx="1" ry="1"/>
                <ellipse cx="1.439" cy="60.01" rx="1" ry="1"/>
                <ellipse cx="10.815" cy="60.01" rx="1" ry="1"/>
                <ellipse cx="20.191" cy="60.01" rx="1" ry="1"/>
                <ellipse cx="29.56" cy="60.01" rx="1" ry="1"/>
                <ellipse cx="38.936" cy="60.01" rx="1" ry="1"/>
                <ellipse cx="48.312" cy="60.01" rx="1" ry="1"/>
                <ellipse cx="57.688" cy="60.01" rx="1" ry="1"/>
                <ellipse cx="67.064" cy="60.01" rx="1" ry="1"/>
                <ellipse cx="76.44" cy="60.01" rx="1" ry="1"/>
                <ellipse cx="85.815" cy="60.01" rx="1" ry="1"/>
                <ellipse cx="1.439" cy="67.348" rx="1" ry="1"/>
                <ellipse cx="10.815" cy="67.348" rx="1" ry="1"/>
                <ellipse cx="20.191" cy="67.348" rx="1" ry="1"/>
                <ellipse cx="29.56" cy="67.348" rx="1" ry="1"/>
                <ellipse cx="38.936" cy="67.348" rx="1" ry="1"/>
                <ellipse cx="48.312" cy="67.348" rx="1" ry="1"/>
                <ellipse cx="57.688" cy="67.348" rx="1" ry="1"/>
                <ellipse cx="67.064" cy="67.348" rx="1" ry="1"/>
                <ellipse cx="76.44" cy="67.348" rx="1" ry="1"/>
                <ellipse cx="85.815" cy="67.348" rx="1" ry="1"/>
                <ellipse cx="1.439" cy="74.686" rx="1" ry="1"/>
                <ellipse cx="10.815" cy="74.686" rx="1" ry="1"/>
                <ellipse cx="20.191" cy="74.686" rx="1" ry="1"/>
                <ellipse cx="29.56" cy="74.686" rx="1" ry="1"/>
                <ellipse cx="38.936" cy="74.686" rx="1" ry="1"/>
                <ellipse cx="48.312" cy="74.686" rx="1" ry="1"/>
                <ellipse cx="57.688" cy="74.686" rx="1" ry="1"/>
                <ellipse cx="67.064" cy="74.686" rx="1" ry="1"/>
                <ellipse cx="76.44" cy="74.686" rx="1" ry="1"/>
                <ellipse cx="85.815" cy="74.686" rx="1" ry="1"/>
                <ellipse cx="1.439" cy="81.475" rx="1" ry="1"/>
                <ellipse cx="10.815" cy="81.475" rx="1" ry="1"/>
                <ellipse cx="20.191" cy="81.475" rx="1" ry="1"/>
                <ellipse cx="29.56" cy="81.475" rx="1" ry="1"/>
                <ellipse cx="38.936" cy="81.475" rx="1" ry="1"/>
                <ellipse cx="48.312" cy="81.475" rx="1" ry="1"/>
                <ellipse cx="57.688" cy="81.475" rx="1" ry="1"/>
                <ellipse cx="67.064" cy="81.475" rx="1" ry="1"/>
                <ellipse cx="76.44" cy="81.475" rx="1" ry="1"/>
                <ellipse cx="85.815" cy="81.475" rx="1" ry="1"/>
                <ellipse cx="1.439" cy="88.813" rx="1" ry="1"/>
                <ellipse cx="10.815" cy="88.813" rx="1" ry="1"/>
                <ellipse cx="20.191" cy="88.813" rx="1" ry="1"/>
                <ellipse cx="29.56" cy="88.813" rx="1" ry="1"/>
                <ellipse cx="38.936" cy="88.813" rx="1" ry="1"/>
                <ellipse cx="48.312" cy="88.813" rx="1" ry="1"/>
                <ellipse cx="57.688" cy="88.813" rx="1" ry="1"/>
                <ellipse cx="67.064" cy="88.813" rx="1" ry="1"/>
                <ellipse cx="76.44" cy="88.813" rx="1" ry="1"/>
                <ellipse cx="85.815" cy="88.813" rx="1" ry="1"/>
                <ellipse cx="1.439" cy="96.158" rx="1" ry="1"/>
                <ellipse cx="10.815" cy="96.158" rx="1" ry="1"/>
                <ellipse cx="20.191" cy="96.158" rx="1" ry="1"/>
                <ellipse cx="29.56" cy="96.158" rx="1" ry="1"/>
                <ellipse cx="38.936" cy="96.158" rx="1" ry="1"/>
                <ellipse cx="48.312" cy="96.158" rx="1" ry="1"/>
                <ellipse cx="57.688" cy="96.158" rx="1" ry="1"/>
                <ellipse cx="67.064" cy="96.158" rx="1" ry="1"/>
                <ellipse cx="76.44" cy="96.158" rx="1" ry="1"/>
                <ellipse cx="85.815" cy="96.158" rx="1" ry="1"/>
                <ellipse cx="1.439" cy="103.496" rx="1" ry="1"/>
                <ellipse cx="10.815" cy="103.496" rx="1" ry="1"/>
                <ellipse cx="20.191" cy="103.496" rx="1" ry="1"/>
                <ellipse cx="29.56" cy="103.496" rx="1" ry="1"/>
                <ellipse cx="38.936" cy="103.496" rx="1" ry="1"/>
                <ellipse cx="48.312" cy="103.496" rx="1" ry="1"/>
                <ellipse cx="57.688" cy="103.496" rx="1" ry="1"/>
                <ellipse cx="67.064" cy="103.496" rx="1" ry="1"/>
                <ellipse cx="76.44" cy="103.496" rx="1" ry="1"/>
                <ellipse cx="85.815" cy="103.496" rx="1" ry="1"/>
                <ellipse cx="1.439" cy="110.834" rx="1" ry="1"/>
                <ellipse cx="10.815" cy="110.834" rx="1" ry="1"/>
                <ellipse cx="20.191" cy="110.834" rx="1" ry="1"/>
                <ellipse cx="29.56" cy="110.834" rx="1" ry="1"/>
                <ellipse cx="38.936" cy="110.834" rx="1" ry="1"/>
                <ellipse cx="48.312" cy="110.834" rx="1" ry="1"/>
                <ellipse cx="57.688" cy="110.834" rx="1" ry="1"/>
                <ellipse cx="67.064" cy="110.834" rx="1" ry="1"/>
                <ellipse cx="76.44" cy="110.834" rx="1" ry="1"/>
                <ellipse cx="85.815" cy="110.834" rx="1" ry="1"/>
                <ellipse cx="1.439" cy="118.172" rx="1" ry="1"/>
                <ellipse cx="10.815" cy="118.172" rx="1" ry="1"/>
                <ellipse cx="20.191" cy="118.172" rx="1" ry="1"/>
                <ellipse cx="29.56" cy="118.172" rx="1" ry="1"/>
                <ellipse cx="38.936" cy="118.172" rx="1" ry="1"/>
                <ellipse cx="48.312" cy="118.172" rx="1" ry="1"/>
                <ellipse cx="57.688" cy="118.172" rx="1" ry="1"/>
                <ellipse cx="67.064" cy="118.172" rx="1" ry="1"/>
                <ellipse cx="76.44" cy="118.172" rx="1" ry="1"/>
                <ellipse cx="85.815" cy="118.172" rx="1" ry="1"/>
                <ellipse cx="1.439" cy="125.51" rx="1" ry="1"/>
                <ellipse cx="10.815" cy="125.51" rx="1" ry="1"/>
                <ellipse cx="20.191" cy="125.51" rx="1" ry="1"/>
                <ellipse cx="29.56" cy="125.51" rx="1" ry="1"/>
                <ellipse cx="38.936" cy="125.51" rx="1" ry="1"/>
                <ellipse cx="48.312" cy="125.51" rx="1" ry="1"/>
                <ellipse cx="57.688" cy="125.51" rx="1" ry="1"/>
                <ellipse cx="67.064" cy="125.51" rx="1" ry="1"/>
                <ellipse cx="76.44" cy="125.51" rx="1" ry="1"/>
                <ellipse cx="85.815" cy="125.51" rx="1" ry="1"/>
                <ellipse cx="1.439" cy="132.848" rx="1" ry="1"/>
                <ellipse cx="10.815" cy="132.848" rx="1" ry="1"/>
                <ellipse cx="20.191" cy="132.848" rx="1" ry="1"/>
                <ellipse cx="29.56" cy="132.848" rx="1" ry="1"/>
                <ellipse cx="38.936" cy="132.848" rx="1" ry="1"/>
                <ellipse cx="48.312" cy="132.848" rx="1" ry="1"/>
                <ellipse cx="57.688" cy="132.848" rx="1" ry="1"/>
                <ellipse cx="67.064" cy="132.848" rx="1" ry="1"/>
                <ellipse cx="76.44" cy="132.848" rx="1" ry="1"/>
                <ellipse cx="85.815" cy="132.848" rx="1" ry="1"/>
                <ellipse cx="1.439" cy="140.186" rx="1" ry="1"/>
                <ellipse cx="10.815" cy="140.186" rx="1" ry="1"/>
                <ellipse cx="20.191" cy="140.186" rx="1" ry="1"/>
                <ellipse cx="29.56" cy="140.186" rx="1" ry="1"/>
                <ellipse cx="38.936" cy="140.186" rx="1" ry="1"/>
                <ellipse cx="48.312" cy="140.186" rx="1" ry="1"/>
                <ellipse cx="57.688" cy="140.186" rx="1" ry="1"/>
                <ellipse cx="67.064" cy="140.186" rx="1" ry="1"/>
                <ellipse cx="76.44" cy="140.186" rx="1" ry="1"/>
                <ellipse cx="85.815" cy="140.186" rx="1" ry="1"/>
                <ellipse cx="1.439" cy="147.53" rx="1" ry="1"/>
                <ellipse cx="10.815" cy="147.53" rx="1" ry="1"/>
                <ellipse cx="20.191" cy="147.53" rx="1" ry="1"/>
                <ellipse cx="29.56" cy="147.53" rx="1" ry="1"/>
                <ellipse cx="38.936" cy="147.53" rx="1" ry="1"/>
                <ellipse cx="48.312" cy="147.53" rx="1" ry="1"/>
                <ellipse cx="57.688" cy="147.53" rx="1" ry="1"/>
                <ellipse cx="67.064" cy="147.53" rx="1" ry="1"/>
                <ellipse cx="76.44" cy="147.53" rx="1" ry="1"/>
                <ellipse cx="85.815" cy="147.53" rx="1" ry="1"/>
                <ellipse cx="1.439" cy="154.868" rx="1" ry="1"/>
                <ellipse cx="10.815" cy="154.868" rx="1" ry="1"/>
                <ellipse cx="20.191" cy="154.868" rx="1" ry="1"/>
                <ellipse cx="29.56" cy="154.868" rx="1" ry="1"/>
                <ellipse cx="38.936" cy="154.868" rx="1" ry="1"/>
                <ellipse cx="48.312" cy="154.868" rx="1" ry="1"/>
                <ellipse cx="57.688" cy="154.868" rx="1" ry="1"/>
                <ellipse cx="67.064" cy="154.868" rx="1" ry="1"/>
                <ellipse cx="76.44" cy="154.868" rx="1" ry="1"/>
                <ellipse cx="85.815" cy="154.868" rx="1" ry="1"/>
            </g>
            <g fill="#FFC916" fill-rule="nonzero" opacity=".3" transform="translate(12 41)">
                <ellipse cx=".973" cy="1.137" rx="1" ry="1"/>
                <ellipse cx="10.313" cy="1.137" rx="1" ry="1"/>
                <ellipse cx="19.653" cy="1.137" rx="1" ry="1"/>
                <ellipse cx="28.993" cy="1.137" rx="1" ry="1"/>
                <ellipse cx="38.333" cy="1.137" rx="1" ry="1"/>
                <ellipse cx="47.667" cy="1.137" rx="1" ry="1"/>
                <ellipse cx="57.007" cy="1.137" rx="1" ry="1"/>
                <ellipse cx="66.347" cy="1.137" rx="1" ry="1"/>
                <ellipse cx="75.687" cy="1.137" rx="1" ry="1"/>
                <ellipse cx="85.027" cy="1.137" rx="1" ry="1"/>
                <ellipse cx=".973" cy="8.508" rx="1" ry="1"/>
                <ellipse cx="10.313" cy="8.508" rx="1" ry="1"/>
                <ellipse cx="19.653" cy="8.508" rx="1" ry="1"/>
                <ellipse cx="28.993" cy="8.508" rx="1" ry="1"/>
                <ellipse cx="38.333" cy="8.508" rx="1" ry="1"/>
                <ellipse cx="47.667" cy="8.508" rx="1" ry="1"/>
                <ellipse cx="57.007" cy="8.508" rx="1" ry="1"/>
                <ellipse cx="66.347" cy="8.508" rx="1" ry="1"/>
                <ellipse cx="75.687" cy="8.508" rx="1" ry="1"/>
                <ellipse cx="85.027" cy="8.508" rx="1" ry="1"/>
                <ellipse cx=".973" cy="15.886" rx="1" ry="1"/>
                <ellipse cx="10.313" cy="15.886" rx="1" ry="1"/>
                <ellipse cx="19.653" cy="15.886" rx="1" ry="1"/>
                <ellipse cx="28.993" cy="15.886" rx="1" ry="1"/>
                <ellipse cx="38.333" cy="15.886" rx="1" ry="1"/>
                <ellipse cx="47.667" cy="15.886" rx="1" ry="1"/>
                <ellipse cx="57.007" cy="15.886" rx="1" ry="1"/>
                <ellipse cx="66.347" cy="15.886" rx="1" ry="1"/>
                <ellipse cx="75.687" cy="15.886" rx="1" ry="1"/>
                <ellipse cx="85.027" cy="15.886" rx="1" ry="1"/>
                <ellipse cx=".973" cy="23.257" rx="1" ry="1"/>
                <ellipse cx="10.313" cy="23.257" rx="1" ry="1"/>
                <ellipse cx="19.653" cy="23.257" rx="1" ry="1"/>
                <ellipse cx="28.993" cy="23.257" rx="1" ry="1"/>
                <ellipse cx="38.333" cy="23.257" rx="1" ry="1"/>
                <ellipse cx="47.667" cy="23.257" rx="1" ry="1"/>
                <ellipse cx="57.007" cy="23.257" rx="1" ry="1"/>
                <ellipse cx="66.347" cy="23.257" rx="1" ry="1"/>
                <ellipse cx="75.687" cy="23.257" rx="1" ry="1"/>
                <ellipse cx="85.027" cy="23.257" rx="1" ry="1"/>
                <ellipse cx=".973" cy="30.629" rx="1" ry="1"/>
                <ellipse cx="10.313" cy="30.629" rx="1" ry="1"/>
                <ellipse cx="19.653" cy="30.629" rx="1" ry="1"/>
                <ellipse cx="28.993" cy="30.629" rx="1" ry="1"/>
                <ellipse cx="38.333" cy="30.629" rx="1" ry="1"/>
                <ellipse cx="47.667" cy="30.629" rx="1" ry="1"/>
                <ellipse cx="57.007" cy="30.629" rx="1" ry="1"/>
                <ellipse cx="66.347" cy="30.629" rx="1" ry="1"/>
                <ellipse cx="75.687" cy="30.629" rx="1" ry="1"/>
                <ellipse cx="85.027" cy="30.629" rx="1" ry="1"/>
                <ellipse cx=".973" cy="38" rx="1" ry="1"/>
                <ellipse cx="10.313" cy="38" rx="1" ry="1"/>
                <ellipse cx="19.653" cy="38" rx="1" ry="1"/>
                <ellipse cx="28.993" cy="38" rx="1" ry="1"/>
                <ellipse cx="38.333" cy="38" rx="1" ry="1"/>
                <ellipse cx="47.667" cy="38" rx="1" ry="1"/>
                <ellipse cx="57.007" cy="38" rx="1" ry="1"/>
                <ellipse cx="66.347" cy="38" rx="1" ry="1"/>
                <ellipse cx="75.687" cy="38" rx="1" ry="1"/>
                <ellipse cx="85.027" cy="38" rx="1" ry="1"/>
                <ellipse cx=".973" cy="45.371" rx="1" ry="1"/>
                <ellipse cx="10.313" cy="45.371" rx="1" ry="1"/>
                <ellipse cx="19.653" cy="45.371" rx="1" ry="1"/>
                <ellipse cx="28.993" cy="45.371" rx="1" ry="1"/>
                <ellipse cx="38.333" cy="45.371" rx="1" ry="1"/>
                <ellipse cx="47.667" cy="45.371" rx="1" ry="1"/>
                <ellipse cx="57.007" cy="45.371" rx="1" ry="1"/>
                <ellipse cx="66.347" cy="45.371" rx="1" ry="1"/>
                <ellipse cx="75.687" cy="45.371" rx="1" ry="1"/>
                <ellipse cx="85.027" cy="45.371" rx="1" ry="1"/>
                <ellipse cx=".973" cy="52.743" rx="1" ry="1"/>
                <ellipse cx="10.313" cy="52.743" rx="1" ry="1"/>
                <ellipse cx="19.653" cy="52.743" rx="1" ry="1"/>
                <ellipse cx="28.993" cy="52.743" rx="1" ry="1"/>
                <ellipse cx="38.333" cy="52.743" rx="1" ry="1"/>
                <ellipse cx="47.667" cy="52.743" rx="1" ry="1"/>
                <ellipse cx="57.007" cy="52.743" rx="1" ry="1"/>
                <ellipse cx="66.347" cy="52.743" rx="1" ry="1"/>
                <ellipse cx="75.687" cy="52.743" rx="1" ry="1"/>
                <ellipse cx="85.027" cy="52.743" rx="1" ry="1"/>
                <ellipse cx=".973" cy="60.114" rx="1" ry="1"/>
                <ellipse cx="10.313" cy="60.114" rx="1" ry="1"/>
                <ellipse cx="19.653" cy="60.114" rx="1" ry="1"/>
                <ellipse cx="28.993" cy="60.114" rx="1" ry="1"/>
                <ellipse cx="38.333" cy="60.114" rx="1" ry="1"/>
                <ellipse cx="47.667" cy="60.114" rx="1" ry="1"/>
                <ellipse cx="57.007" cy="60.114" rx="1" ry="1"/>
                <ellipse cx="66.347" cy="60.114" rx="1" ry="1"/>
                <ellipse cx="75.687" cy="60.114" rx="1" ry="1"/>
                <ellipse cx="85.027" cy="60.114" rx="1" ry="1"/>
                <ellipse cx=".973" cy="67.492" rx="1" ry="1"/>
                <ellipse cx="10.313" cy="67.492" rx="1" ry="1"/>
                <ellipse cx="19.653" cy="67.492" rx="1" ry="1"/>
                <ellipse cx="28.993" cy="67.492" rx="1" ry="1"/>
                <ellipse cx="38.333" cy="67.492" rx="1" ry="1"/>
                <ellipse cx="47.667" cy="67.492" rx="1" ry="1"/>
                <ellipse cx="57.007" cy="67.492" rx="1" ry="1"/>
                <ellipse cx="66.347" cy="67.492" rx="1" ry="1"/>
                <ellipse cx="75.687" cy="67.492" rx="1" ry="1"/>
                <ellipse cx="85.027" cy="67.492" rx="1" ry="1"/>
                <ellipse cx=".973" cy="74.863" rx="1" ry="1"/>
                <ellipse cx="10.313" cy="74.863" rx="1" ry="1"/>
                <ellipse cx="19.653" cy="74.863" rx="1" ry="1"/>
                <ellipse cx="28.993" cy="74.863" rx="1" ry="1"/>
                <ellipse cx="38.333" cy="74.863" rx="1" ry="1"/>
                <ellipse cx="47.667" cy="74.863" rx="1" ry="1"/>
                <ellipse cx="57.007" cy="74.863" rx="1" ry="1"/>
                <ellipse cx="66.347" cy="74.863" rx="1" ry="1"/>
                <ellipse cx="75.687" cy="74.863" rx="1" ry="1"/>
                <ellipse cx="85.027" cy="74.863" rx="1" ry="1"/>
            </g>
            <path fill="#FFF" fill-rule="nonzero" stroke="#E9EBEE" stroke-width=".643" d="M80 19h198v130H80z"/>
            <g stroke="#E9EBEE" stroke-width=".643" opacity=".5">
                <path d="M94.314 38.747h98.191M94.314 47.413h98.191M94.314 56.073h98.191M94.314 64.74h98.191M192.505 73.407H99.733"/>
            </g>
            <rect width="6" height="26" x="212" y="102" fill="#FF4702" fill-rule="nonzero" rx="1.094"/>
            <rect width="6" height="18" x="236" y="110" fill="#FF4702" fill-rule="nonzero" rx="1.094"/>
            <rect width="6" height="35" x="224" y="93" fill="#3C4D6F" fill-rule="nonzero" rx="1.094"/>
            <rect width="6" height="30" x="248" y="98" fill="#3C4D6F" fill-rule="nonzero" rx="1.094"/>
            <g stroke="#E9EBEE" stroke-width=".643" opacity=".5">
                <path d="M94.314 92.927h98.191M94.314 101.593h98.191M94.314 110.26h98.191M94.314 118.92h98.191M192.505 127.587h-98.19"/>
            </g>
            <path stroke="#FF4702" stroke-width=".643" d="M96 127s7.318-27.147 25.807-8.751c4.848 4.825 11.81 8.798 18 3.96 4.23-3.31 6.613-8.393 8.311-13.381 2.196-6.423 4.7-14.816 12.186-16.603 5.995-1.428 10.44 4.217 13.078 8.799 2.76 4.819 6.458 17.076 13.756 16.798 3.794-.148 6.244-4.433 7.546-7.546.108-.264.215-.528.316-.799"/>
            <circle cx="108" cy="112" r="2" fill="#FF4702" fill-rule="nonzero" stroke="#FFF" stroke-width=".643"/>
            <circle cx="133" cy="125" r="2" fill="#FF4702" fill-rule="nonzero" stroke="#FFF" stroke-width=".643"/>
            <circle cx="162" cy="92" r="2" fill="#FF4702" fill-rule="nonzero" stroke="#FFF" stroke-width=".643"/>
            <circle cx="187" cy="118" r="2" fill="#FF4702" fill-rule="nonzero" stroke="#FFF" stroke-width=".643"/>
            <path stroke="#3C4D6F" stroke-width=".643" d="M186 126.438s-9.827-19.725-20.794-7.891c-10.967 11.833-14.308 6.328-27.207-8.454C124.725 94.873 112 127 112 127"/>
            <circle cx="172" cy="114" r="2" fill="#3C4D6F" fill-rule="nonzero" stroke="#FFF" stroke-width=".643"/>
            <circle cx="144" cy="117" r="2" fill="#3C4D6F" fill-rule="nonzero" stroke="#FFF" stroke-width=".643"/>
            <circle cx="130" cy="106" r="2" fill="#3C4D6F" fill-rule="nonzero" stroke="#FFF" stroke-width=".643"/>
            <circle cx="224" cy="46" r="8" stroke="#E9EBEE" stroke-width="1.93"/>
            <circle cx="224" cy="66" r="8" stroke="#E9EBEE" stroke-width="1.93"/>
            <path stroke="#FF4702" stroke-width="1.93" d="M232 45a8 8 0 1 1-8-8"/>
            <path stroke="#3C4D6F" stroke-width="1.93" d="M224 75a8 8 0 1 1 8-8"/>
            <path fill="#E9EBEE" fill-rule="nonzero" d="M240 39h24v2h-24zM240 43h19v2h-19zM239 48h23v2h-23zM240 61h24v2h-24zM240 66h19v2h-19zM239 70h23v2h-23z"/>
            <path fill="#FF4702" fill-rule="nonzero" d="M97 72.993s12.419-28.827 26.151-16.95c13.338 11.54 20.52 18.389 29.665 8.22C167.616 47.808 166.724 14.928 188 73l-91-.007z"/>
            <path fill="#3C4D6F" fill-rule="nonzero" d="M108 73s5.93-14.926 13.295-9.374c11.181 8.393 15.755-6.907 24.39-2.963 7.272 3.325 9.658 12.337 15.754 7.895C167.535 64.117 175 73 175 73h-67z"/>
            <ellipse cx="45.5" cy="201" fill="#E9EBEE" fill-rule="nonzero" opacity=".4" rx="21.5" ry="3"/>
            <ellipse cx="305" cy="201" fill="#E9EBEE" fill-rule="nonzero" opacity=".4" rx="22" ry="3"/>
            <path fill="#232E4A" fill-rule="nonzero" d="M299.114 81.268l-15.091 4.29-4.142-20.234L278 65l.46 25.765c6.179.729 16.12-.445 20.978-.715l.562-3.527-.886-5.255z"/>
            <path fill="#FAC7D4" fill-rule="nonzero" d="M278.083 64.672L280 65l-.02-2.186L278.082 60l-.083.963.228 2.261z"/>
            <path fill="#E9EBEE" fill-rule="nonzero" d="M75 146h211v5H75zM77 17h204v8H77z"/>
            <path fill="#DCE2EA" fill-rule="nonzero" d="M75 16h6v11h-6zM279 16h6v11h-6z"/>
            <circle cx="278" cy="91" r="13" fill="#68758E" fill-rule="nonzero"/>
            <path fill="#FFF" fill-rule="nonzero" d="M276.033 88L281 90.987 276 94z"/>
            <path fill="#202E4B" fill-rule="nonzero" d="M49.796 84l11.375 11.527 17.49-6.723L80 90.764 60.696 101C54.99 98.673 50.874 95.54 49 94.544l.114-5.712.682-4.832z"/>
            <path fill="#00B3CC" fill-rule="nonzero" d="M49.293 93.942L49 90s6.893 6.065 11.977 7.961L80 90.323 60.804 100s-7.499-3.284-11.511-6.058z" opacity=".3"/>
            <path fill="#FFC9D5" fill-rule="nonzero" d="M79 88.103l3.31-1.712L83.7 86l1.254.37L86 88.223 80.669 90z"/>
            <path fill="#202E4B" fill-rule="nonzero" d="M36.287 76l-9.48 1.294S17.48 87.957 28.023 123l20.445-3.161L50 83.75l-6.047-4.374L36.287 76z"/>
            <path fill="#F0939E" fill-rule="nonzero" d="M39.09 71s-.345 2.892-2.09 4.59c0 0 3.365 5.41 6.056 5.41A5.803 5.803 0 0 0 45 77.44L39.09 71z"/>
            <path fill="#3C4D6F" fill-rule="nonzero" d="M28.545 122.142L27 131.968s.423 46.288 4.608 64.032h2.727s5.037-41.967 5.77-51.519l1.37-9.217L52 127.42s-2.17-7.623-3.016-8.42l-20.44 3.142z"/>
            <path fill="#283A5E" fill-rule="nonzero" d="M41.273 135.78L40 144.012S44.625 172.899 51.206 196L54 194.957 52.059 128l-10.786 7.78z"/>
            <path fill="#001F3A" fill-rule="nonzero" d="M32 196v4h10l-7.344-4zM51 196.02l.345 3.98H62l-8.26-5z"/>
            <path fill="#00B3CC" fill-rule="nonzero" d="M44.217 79.254a4.944 4.944 0 0 1-1.443 2.105S40.517 81.65 37 76c0 0 .441 6.307 5.673 6.957 4.09.513 1.544-3.703 1.544-3.703z"/>
            <path fill="#FFC9D5" fill-rule="nonzero" d="M52 61.158S49.756 78 46.111 78c-3.644 0-6.823-4.685-7.094-7.559C38.746 67.567 41.816 58 42.75 58S52 61.158 52 61.158z"/>
            <path fill="#283A5E" fill-rule="nonzero" d="M52 61.342l-.654 3.727s-5.633-4.074-8.695-1.863c0 0 .294 1.928-3.651 4.794 0 0 1.511-8.432 3.54-10A45.908 45.908 0 0 1 52 61.342z"/>
            <path fill="#E86578" fill-rule="nonzero" d="M51 64.43s-7.083-2.816-8.35-1.486c0 0-1.058 5.503-4.65 7.056l2.447-6.752L43.233 61l6.025.972L51 64.43z"/>
            <path fill="#283A5E" fill-rule="nonzero" d="M38.613 70S36 66.834 36 63.986c0-2.65 2.025-6.795 3.847-7.557 2.482-1.046 14.01-.357 13.102 4.067-.908 4.424-1.829 4.04-1.829 4.04s-6.329-3.623-8.68-1.92A10.104 10.104 0 0 1 38.613 70z"/>
            <path fill="#00B3CC" fill-rule="nonzero" d="M24 102a114.883 114.883 0 0 0 4.397 21L42 120.816S27.891 122.035 24 102z"/>
            <circle cx="80.5" cy="91.5" r="13.5" fill="#C8CED6" fill-rule="nonzero"/>
            <path fill="#FFF" fill-rule="nonzero" d="M81.969 95L77 91.514 82 88z"/>
            <path fill="#202E4B" fill-rule="nonzero" d="M30.963 86l17.749 15.51L67 100.024v2.474L46.803 107S32.918 102.269 29 97.622c.24-3.93.897-7.826 1.963-11.622z"/>
            <path fill="#FFC9D5" fill-rule="nonzero" d="M67 100.368L68.474 98l.586 1.412 4.94.214-2.208 2.982L67 103z"/>
            <path fill="#00B3CC" fill-rule="nonzero" d="M27.052 77c2.836 10.758 14.085 17.871 21.562 24.608L67 100.082 47.605 103 31.486 91.059S26.436 79.165 27.052 77z" opacity=".3"/>
            <path fill="#00B3CC" fill-rule="nonzero" d="M67 102.482L46.962 107S34.898 102.108 34 100.952l13.2 5.569S59.199 102.482 67 100v2.482z"/>
            <path fill="#171C2E" fill-rule="nonzero" d="M314.715 64.831s-.079 4.702 8.847 9.31c1.145.592 2.199 1.15 3.174 1.696 8.625 4.801 6.125 18.247-3.671 19.125a5.579 5.579 0 0 1-1.76-.073c-3.05-.699.065-6.95-2.108-10.886-4.437-8.04-12.04-12.635-5.89-20.003"/>
            <path fill="#232E4A" fill-rule="nonzero" d="M313.08 75l8.197 2.055s3.477 1.32.553 19.342c-.683 4.103-1.298 9.632-.205 18.603l-18.328-3.111-3.805-16.747-.185-5.133-.307-8.588 2.87-.713 3.278-2.3L313.08 75z"/>
            <path fill="#3F4E6F" fill-rule="nonzero" d="M321.337 114.208c2.124 4.274 2.723 5.703 3.663 8.938 0 0-2.505 54.843-6.808 72.854H315.4s-5.174-42.604-5.93-52.3l-1.416-12.75L300 119.542s2.233-7.737 3.098-8.542l18.24 3.208z"/>
            <path fill="#ED1941" fill-rule="nonzero" d="M302 102l2.034 9.617L317 114s-9.749-2.248-15-12"/>
            <path fill="#2B3A5D" fill-rule="nonzero" d="M308.74 131.362L310 143.09s-4.658 29.372-11.218 52.91L296 194.939 300.685 120l8.056 11.362z"/>
            <path fill="#ED1941" fill-rule="nonzero" d="M318 196v4h-10l7.346-4zM299 196.013l-.34 3.987H288l8.257-5z"/>
            <path fill="#232E4A" fill-rule="nonzero" d="M320.005 80l-11.418 17.976L288 102.7v2.3l21.688-2.247s8.335-6.154 12.312-10.892A56.487 56.487 0 0 0 319.998 80"/>
            <path fill="#ED1941" fill-rule="nonzero" d="M288.007 105l21.853-2.373S319.045 95.231 320 94l-10.369 8.113c0-.265-15.633 2.442-21.631 1.391l.007 1.496zM304.88 78.254c.341-.224.73-.38 1.14-.455.532-.038.84 1.16.483 2.563 0 0 2.546.288 6.497-5.362 0 0-.497 6.303-6.392 6.957-4.587.512-1.727-3.703-1.727-3.703"/>
            <path fill="#F2939E" fill-rule="nonzero" d="M310.91 70s.345 2.908 2.09 4.554c0 0-3.359 5.446-6.047 5.446A2.829 2.829 0 0 0 305 76.422L310.91 70z"/>
            <path fill="#FAC7D4" fill-rule="nonzero" d="M306.468 57.211c-5.143 1.52-8.502 6.135-7.179 11.466 1.048 4.233 2.523 8.323 4.34 8.323 3.774 0 7.06-4.901 7.35-7.907.29-3.006-2.588-12.093-3.556-12.093a4.604 4.604 0 0 0-.955.211"/>
            <path fill="#171C2E" fill-rule="nonzero" d="M299.066 66.906s1.803-4.258 6.39-3.969c0 0 1.156 3.053 5.696 7.063 0 0 3.275-2.384 3.78-5.719.504-3.335-1.763-7.62-7.264-8.213-9.994-1.068-8.602 10.838-8.602 10.838"/>
            <path fill="#E86577" fill-rule="nonzero" d="M299 66.945s2.798-3.511 5.683-3.11c0 0 1.335 3.64 6.317 6.165 0 0-3.92-3.273-5.656-6.974 0 0-4.114-.592-6.344 3.919"/>
            <path fill="#FFC9D5" fill-rule="nonzero" d="M288 102.645l-.693-2.645-1.609 1.518-4.698.344 2.208 2.376L288 105z"/>
            <path fill="#ED1941" fill-rule="nonzero" d="M288 103l20.854-4.812L317 87l-7.463 12.47z" opacity=".3"/>
        </g>
    </g>
</svg>
