<?xml version="1.0" encoding="utf-8"?>
<!-- Generator: Adobe Illustrator 19.2.1, SVG Export Plug-In . SVG Version: 6.00 Build 0)  -->
<svg version="1.1" id="Layer_1" xmlns="http://www.w3.org/2000/svg" xmlns:xlink="http://www.w3.org/1999/xlink" x="0px" y="0px"
	 viewBox="0 0 24 24" enable-background="new 0 0 24 24" xml:space="preserve">
<path fill="#444444" d="M24,12c0,6.6-5.4,12-12.1,12c-4.8,0-9.1-2.9-11-7.3C0.3,15.2,0,13.7,0,12C0,5.4,5.4,0,12.1,0
	C18.7,0,24,5.4,24,12L24,12z M12,4.8L12,4.8c-0.7,0-1.3,0.6-1.3,1.3c0,0.7,0.6,1.3,1.3,1.3c0.7,0,1.3-0.6,1.3-1.3
	C13.3,5.4,12.7,4.8,12,4.8L12,4.8z M10.7,11.2L10.7,11.2V18c0,0.7,0.6,1.3,1.3,1.3c0.7,0,1.3-0.6,1.3-1.3v-6.9
	c0-0.7-0.6-1.3-1.3-1.3C11.3,9.8,10.7,10.4,10.7,11.2L10.7,11.2z M12,2.7L12,2.7c-5.2,0-9.4,4.2-9.4,9.3c0,1.3,0.3,2.5,0.7,3.6
	c1.4,3.4,4.8,5.7,8.6,5.7c3.8,0,7.2-2.2,8.6-5.7c0.5-1.1,0.7-2.3,0.7-3.6c0-1.3-0.3-2.5-0.7-3.6C19.2,4.9,15.8,2.7,12,2.7L12,2.7z"
	/>
</svg>
