<?xml version="1.0" encoding="UTF-8"?>
<svg width="22px" height="22px" viewBox="0 0 22 22" version="1.1" xmlns="http://www.w3.org/2000/svg" xmlns:xlink="http://www.w3.org/1999/xlink">
    <!-- Generator: Sketch 63.1 (92452) - https://sketch.com -->
    <title>Group 31 Copy</title>
    <desc>Created with Sketch.</desc>
    <g id="Page-1" stroke="none" stroke-width="1" fill="none" fill-rule="evenodd">
        <g id="BOLD-ID-Login" transform="translate(-521.000000, -448.000000)">
            <g id="Microsoft-ADFS" transform="translate(495.000000, 437.000000)">
                <g id="Group-46" transform="translate(24.500000, 10.000000)">
                    <g id="Group-7" transform="translate(0.500000, 0.000000)">
                        <g id="Group-31-Copy">
                            <rect id="Rectangle" x="0" y="0" width="24" height="24"></rect>
                            <g id="microsoft-(1)" transform="translate(1.000000, 1.000000)" fill-rule="nonzero">
                                <path d="M11.2291667,10.3125 L21.5416667,10.3125 L21.5416667,0.6875 C21.5416667,0.308 21.2336667,0 20.8541667,0 L11.2291667,0 L11.2291667,10.3125 Z" id="Path" fill="#4CAF50"></path>
                                <path d="M10.3125,10.3125 L10.3125,0 L0.6875,0 C0.308,0 0,0.308 0,0.6875 L0,10.3125 L10.3125,10.3125 Z" id="Path" fill="#F44336"></path>
                                <path d="M10.3125,11.2291667 L0,11.2291667 L0,20.8541667 C0,21.2336667 0.308,21.5416667 0.6875,21.5416667 L10.3125,21.5416667 L10.3125,11.2291667 Z" id="Path" fill="#2196F3"></path>
                                <path d="M11.2291667,11.2291667 L11.2291667,21.5416667 L20.8541667,21.5416667 C21.2336667,21.5416667 21.5416667,21.2336667 21.5416667,20.8541667 L21.5416667,11.2291667 L11.2291667,11.2291667 Z" id="Path" fill="#FFC107"></path>
                            </g>
                        </g>
                    </g>
                </g>
            </g>
        </g>
    </g>
</svg>