<?xml version="1.0" encoding="UTF-8"?>
<svg width="25px" height="25px" viewBox="0 0 25 25" version="1.1" xmlns="http://www.w3.org/2000/svg" xmlns:xlink="http://www.w3.org/1999/xlink">
    <!-- Generator: Sketch 61.2 (89653) - https://sketch.com -->
    <title>Google</title>
    <desc>Created with Sketch.</desc>
    <g id="Design" stroke="none" stroke-width="1" fill="none" fill-rule="evenodd">
        <g id="Group-29" transform="translate(-629.000000, -556.000000)" fill-rule="nonzero">
            <g id="Google" transform="translate(629.000000, 556.000000)">
                <path d="M24.4734432,12.7930403 C24.4734432,11.9459707 24.4047619,11.0943223 24.2582418,10.260989 L12.5045788,10.260989 L12.5045788,15.0595238 L19.235348,15.0595238 C18.956044,16.6071429 18.0586081,17.9761905 16.7445055,18.8461538 L16.7445055,21.959707 L20.7600733,21.959707 C23.1181319,19.7893773 24.4734432,16.5842491 24.4734432,12.7930403 Z" id="Path" fill="#4285F4"></path>
                <path d="M12.5045788,24.9679487 C15.8653846,24.9679487 18.6996337,23.8644689 20.764652,21.959707 L16.7490842,18.8461538 C15.6318681,19.6062271 14.1895604,20.03663 12.5091575,20.03663 C9.25824176,20.03663 6.5018315,17.8434066 5.51282051,14.8946886 L1.36904762,14.8946886 L1.36904762,18.1043956 C3.48443223,22.3122711 7.79304029,24.9679487 12.5045788,24.9679487 Z" id="Path" fill="#34A853"></path>
                <path d="M5.50824176,14.8946886 C4.98626374,13.3470696 4.98626374,11.6712454 5.50824176,10.1236264 L5.50824176,6.91391941 L1.36904762,6.91391941 C-0.398351648,10.4349817 -0.398351648,14.5833333 1.36904762,18.1043956 L5.50824176,14.8946886 Z" id="Path" fill="#FBBC04"></path>
                <path d="M12.5045788,4.97710623 C14.2811355,4.9496337 15.9981685,5.61813187 17.2847985,6.8452381 L17.2847985,6.8452381 L20.8424908,3.28754579 C18.5897436,1.17216117 15.5998168,0.00915750916 12.5045788,0.0457875458 C7.79304029,0.0457875458 3.48443223,2.7014652 1.36904762,6.91391941 L5.50824176,10.1236264 C6.49267399,7.17032967 9.253663,4.97710623 12.5045788,4.97710623 Z" id="Path" fill="#EA4335"></path>
            </g>
        </g>
    </g>
</svg>