<?xml version="1.0" encoding="UTF-8"?>
<svg width="25px" height="26px" viewBox="0 0 25 26" version="1.1" xmlns="http://www.w3.org/2000/svg" xmlns:xlink="http://www.w3.org/1999/xlink">
    <!-- Generator: Sketch 61.2 (89653) - https://sketch.com -->
    <title>linkedin </title>
    <desc>Created with Sketch.</desc>
    <g id="Design" stroke="none" stroke-width="1" fill="none" fill-rule="evenodd">
        <g id="Group-29" transform="translate(-769.000000, -557.000000)" fill-rule="nonzero">
            <g id="linkedin-" transform="translate(769.000000, 557.500000)">
                <path d="M0.0301905386,1.81883455 C0.0301905386,0.831498624 0.851496843,0.0301682703 1.86404832,0.0301682703 L23.0084285,0.0301682703 C24.0213074,0.0301682703 24.8422863,0.831498624 24.8422863,1.81883455 L24.8422863,23.211113 C24.8422863,24.1987764 24.0213074,24.9994518 23.0084285,24.9994518 L1.86404832,24.9994518 C0.851496843,24.9994518 0.0301905386,24.1987764 0.0301905386,23.2114405 L0.0301905386,1.81850708 L0.0301905386,1.81883455 Z" id="Path" fill="#006699"></path>
                <path d="M7.55162722,20.9318898 L7.55162722,9.65693918 L3.80400786,9.65693918 L3.80400786,20.9318898 L7.5519547,20.9318898 L7.55162722,20.9318898 Z M5.67847249,8.11780854 C6.98509616,8.11780854 7.79854307,7.25196569 7.79854307,6.1699896 C7.77398248,5.06345292 6.98509616,4.22184319 5.70336056,4.22184319 C4.42064254,4.22184319 3.58296251,5.06345292 3.58296251,6.1699896 C3.58296251,7.25196569 4.39608195,8.11780854 5.6539119,8.11780854 L5.67814502,8.11780854 L5.67847249,8.11780854 Z M9.62585136,20.9318898 L13.3731432,20.9318898 L13.3731432,14.6361905 C13.3731432,14.2995466 13.3977038,13.9622478 13.4966012,13.7218814 C13.7674227,13.0482662 14.3840573,12.3510727 15.419532,12.3510727 C16.7752769,12.3510727 17.3179023,13.3849101 17.3179023,14.90079 L17.3179023,20.9318898 L21.0651942,20.9318898 L21.0651942,14.4672136 C21.0651942,11.0041697 19.2166001,9.39266717 16.7510438,9.39266717 C14.729543,9.39266717 13.8417594,10.5224546 13.3485826,11.2920199 L13.3734707,11.2920199 L13.3734707,9.65726665 L9.62617883,9.65726665 C9.67497255,10.7150096 9.62585136,20.9322172 9.62585136,20.9322172 L9.62585136,20.9318898 Z" id="Shape" fill="#FFFFFF"></path>
            </g>
        </g>
    </g>
</svg>