<?xml version="1.0" encoding="UTF-8"?>
<svg width="27px" height="22px" viewBox="0 0 27 22" version="1.1" xmlns="http://www.w3.org/2000/svg" xmlns:xlink="http://www.w3.org/1999/xlink">
    <!-- Generator: Sketch 61.2 (89653) - https://sketch.com -->
    <title>twitter</title>
    <desc>Created with Sketch.</desc>
    <g id="Design" stroke="none" stroke-width="1" fill="none" fill-rule="evenodd">
        <g id="Group-29" transform="translate(-722.000000, -559.000000)" fill="#55ACEE" fill-rule="nonzero">
            <g id="twitter" transform="translate(722.000000, 559.000000)">
                <path d="M24.246,6.20395312 C24.246,5.95982812 24.237,5.72245312 24.22575,5.48845312 C25.32375,4.70882812 26.247375,3.73570313 27,2.61520312 L27,2.61407812 C25.995375,3.05395312 24.926625,3.34645312 23.810625,3.48820312 C24.958125,2.80307812 25.8345,1.72645312 26.24625,0.429328125 C25.176375,1.06720312 23.995125,1.51720312 22.73625,1.76920312 C21.720375,0.686953125 20.2725,0.017578125 18.693,0.017578125 C15.6285,0.017578125 13.161375,2.50495312 13.161375,5.55370312 C13.161375,5.99245312 13.1985,6.41432812 13.289625,6.81595312 C8.688375,6.59095312 4.615875,4.38595312 1.879875,1.02557812 C1.402875,1.85470312 1.121625,2.80307812 1.121625,3.82345312 C1.121625,5.74045312 2.10825,7.43920312 3.580875,8.42357812 C2.691,8.40670312 1.819125,8.14795313 1.08,7.74182812 L1.08,7.80257812 C1.08,10.4924531 2.998125,12.7267031 5.51475,13.2419531 C4.66875,13.4737031 3.627,13.4647031 3.016125,13.3297031 C3.73275,15.5212031 5.769,17.1333281 8.18775,17.1862031 C6.3045,18.6588281 3.91275,19.5464531 1.324125,19.5464531 C0.87075,19.5464531 0.435375,19.5262031 -2.49800181e-15,19.4710781 C2.4525,21.0517031 5.35725,21.9550781 8.4915,21.9550781 C18.67725,21.9550781 24.246,13.5175781 24.246,6.20395312 Z" id="Path"></path>
            </g>
        </g>
    </g>
</svg>