<?xml version="1.0" encoding="UTF-8"?>
<svg width="32px" height="32px" viewBox="0 0 32 32" version="1.1" xmlns="http://www.w3.org/2000/svg" xmlns:xlink="http://www.w3.org/1999/xlink">
    <!-- Generator: Sketch 49.2 (51160) - http://www.bohemiancoding.com/sketch -->
    <title>error</title>
    <desc>Created with Sketch.</desc>
    <defs>
        <linearGradient x1="25.4166667%" y1="79.53125%" x2="77.890625%" y2="17.4934896%" id="linearGradient-1">
            <stop stop-color="#FE3E67" offset="0%"></stop>
            <stop stop-color="#FE4B57" offset="26.3492506%"></stop>
            <stop stop-color="#FE5A47" offset="52.8858418%"></stop>
            <stop stop-color="#FF4F54" offset="76.5545281%"></stop>
            <stop stop-color="#FE633D" offset="100%"></stop>
        </linearGradient>
        <filter x="-125.9%" y="-93.8%" width="364.3%" height="364.3%" filterUnits="objectBoundingBox" id="filter-2">
            <feOffset dx="1" dy="7" in="SourceAlpha" result="shadowOffsetOuter1"></feOffset>
            <feGaussianBlur stdDeviation="7" in="shadowOffsetOuter1" result="shadowBlurOuter1"></feGaussianBlur>
            <feColorMatrix values="0 0 0 0 0   0 0 0 0 0   0 0 0 0 0  0 0 0 0.2 0" type="matrix" in="shadowBlurOuter1" result="shadowMatrixOuter1"></feColorMatrix>
            <feMerge>
                <feMergeNode in="shadowMatrixOuter1"></feMergeNode>
                <feMergeNode in="SourceGraphic"></feMergeNode>
            </feMerge>
        </filter>
        <linearGradient x1="66.7382812%" y1="14.3229167%" x2="27.3626309%" y2="97.752889%" id="linearGradient-3">
            <stop stop-color="#FFFFFF" offset="0%"></stop>
            <stop stop-color="#FFE7E7" offset="100%"></stop>
        </linearGradient>
    </defs>
    <g id="error" stroke="none" stroke-width="1" fill="none" fill-rule="evenodd">
        <g id="Components-/-Z-Symbols-/-Icons-/-Large-/-Error">
            <circle id="BG" fill="url(#linearGradient-1)" cx="16" cy="16" r="16"></circle>
            <g id="error" filter="url(#filter-2)" stroke-width="1" transform="translate(6.933333, 6.933333)" fill="url(#linearGradient-3)">
                <path d="M15.9288141,2.72932692 C12.289891,-0.909596152 6.36860898,-0.909955127 2.72932692,2.72932692 C-0.909955127,6.36860898 -0.909596152,12.2895321 2.72932692,15.9288141 C6.36825,19.5680962 12.2895321,19.5680962 15.9288141,15.9288141 C19.5677372,12.2895321 19.5677372,6.36825 15.9288141,2.72932692 Z M13.0096346,13.0096346 C12.7292756,13.2899936 12.2748141,13.2899936 11.9944551,13.0096346 L9.32907051,10.34425 L6.53696795,13.1363526 C6.25660898,13.4167115 5.80214744,13.4167115 5.52178846,13.1363526 C5.24142949,12.8559936 5.24142949,12.4015321 5.52178846,12.1211731 L8.31389103,9.32907051 L5.64850641,6.6636859 C5.36814744,6.38332692 5.36814744,5.92850641 5.64850641,5.64850641 C5.92886539,5.36814744 6.38332692,5.36814744 6.6636859,5.64850641 L9.32907051,8.31389103 L11.8673782,5.77558333 C12.1477372,5.49522436 12.6021987,5.49522436 12.8825577,5.77558333 C13.1629167,6.05594231 13.1629167,6.51040385 12.8825577,6.79076282 L10.34425,9.32907051 L13.0096346,11.9944551 C13.2899936,12.2748141 13.2899936,12.7292756 13.0096346,13.0096346 Z" id="Shape" fill-rule="nonzero"></path>
            </g>
        </g>
    </g>
</svg>