<?xml version="1.0" encoding="UTF-8"?>
<svg width="32px" height="32px" viewBox="0 0 32 32" version="1.1" xmlns="http://www.w3.org/2000/svg" xmlns:xlink="http://www.w3.org/1999/xlink">
    <!-- Generator: Sketch 49.2 (51160) - http://www.bohemiancoding.com/sketch -->
    <title>information</title>
    <desc>Created with Sketch.</desc>
    <defs>
        <linearGradient x1="25.4166667%" y1="79.53125%" x2="77.890625%" y2="17.4934896%" id="linearGradient-1">
            <stop stop-color="#1A9AFF" offset="0%"></stop>
            <stop stop-color="#14A6FD" offset="26.3492506%"></stop>
            <stop stop-color="#0FB7FF" offset="52.8858418%"></stop>
            <stop stop-color="#0BBEFF" offset="76.5545281%"></stop>
            <stop stop-color="#06CAFF" offset="100%"></stop>
        </linearGradient>
        <filter x="-125.9%" y="-93.8%" width="364.3%" height="364.3%" filterUnits="objectBoundingBox" id="filter-2">
            <feOffset dx="1" dy="7" in="SourceAlpha" result="shadowOffsetOuter1"></feOffset>
            <feGaussianBlur stdDeviation="7" in="shadowOffsetOuter1" result="shadowBlurOuter1"></feGaussianBlur>
            <feColorMatrix values="0 0 0 0 0   0 0 0 0 0   0 0 0 0 0  0 0 0 0.2 0" type="matrix" in="shadowBlurOuter1" result="shadowMatrixOuter1"></feColorMatrix>
            <feMerge>
                <feMergeNode in="shadowMatrixOuter1"></feMergeNode>
                <feMergeNode in="SourceGraphic"></feMergeNode>
            </feMerge>
        </filter>
        <linearGradient x1="66.7382812%" y1="14.3229167%" x2="27.3626309%" y2="97.752889%" id="linearGradient-3">
            <stop stop-color="#FFFFFF" offset="0%"></stop>
            <stop stop-color="#CAEDFF" offset="100%"></stop>
        </linearGradient>
    </defs>
    <g id="information" stroke="none" stroke-width="1" fill="none" fill-rule="evenodd">
        <g id="Components-/-Z-Symbols-/-Icons-/-Large-/-Information">
            <circle id="BG" fill="url(#linearGradient-1)" cx="16" cy="16" r="16"></circle>
            <g id="information-point" filter="url(#filter-2)" stroke-width="1" transform="translate(6.933333, 6.933333)" fill="url(#linearGradient-3)">
                <path d="M9.33039506,0 C4.17951852,0 0.000518518519,4.1737284 0.000518518519,9.3252963 C0.000518518519,14.4817901 4.17951852,18.6604012 9.33035185,18.6604012 C14.4843827,18.6604012 18.6598395,14.4817469 18.6598395,9.3252963 C18.6598827,4.1737284 14.484037,0 9.33039506,0 Z M9.33000617,3.689 C9.86248148,3.689 10.2941481,4.12066667 10.2941481,4.65314198 C10.2941481,5.18561728 9.86248148,5.61728395 9.33000617,5.61728395 C8.79718519,5.61728395 8.36655556,5.18561728 8.36655556,4.65314198 C8.36625309,4.12032099 8.79718519,3.689 9.33000617,3.689 Z M10.2948827,13.5667778 C10.2948827,14.1487716 9.86321605,14.6204938 9.33074074,14.6204938 C8.79826543,14.6204938 8.36659877,14.1487716 8.36659877,13.5667778 L8.36659877,7.6632284 C8.36659877,7.08123457 8.79826543,6.60951235 9.33074074,6.60951235 C9.86321605,6.60951235 10.2948827,7.08123457 10.2948827,7.6632284 L10.2948827,13.5667778 Z" id="Shape" fill-rule="nonzero"></path>
            </g>
        </g>
    </g>
</svg>