<?xml version="1.0" encoding="UTF-8"?>
<svg width="32px" height="32px" viewBox="0 0 32 32" version="1.1" xmlns="http://www.w3.org/2000/svg" xmlns:xlink="http://www.w3.org/1999/xlink">
    <!-- Generator: Sketch 49.2 (51160) - http://www.bohemiancoding.com/sketch -->
    <title>question</title>
    <desc>Created with Sketch.</desc>
    <defs>
        <linearGradient x1="20.7877604%" y1="86.7838542%" x2="83.8216146%" y2="16.6015625%" id="linearGradient-1">
            <stop stop-color="#7C4FFD" offset="0%"></stop>
            <stop stop-color="#6773FD" offset="32.0686456%"></stop>
            <stop stop-color="#578CFD" offset="67.8153989%"></stop>
            <stop stop-color="#4CA1FF" offset="100%"></stop>
        </linearGradient>
        <filter x="-125.9%" y="-93.8%" width="364.3%" height="364.3%" filterUnits="objectBoundingBox" id="filter-2">
            <feOffset dx="1" dy="7" in="SourceAlpha" result="shadowOffsetOuter1"></feOffset>
            <feGaussianBlur stdDeviation="7" in="shadowOffsetOuter1" result="shadowBlurOuter1"></feGaussianBlur>
            <feColorMatrix values="0 0 0 0 0   0 0 0 0 0   0 0 0 0 0  0 0 0 0.2 0" type="matrix" in="shadowBlurOuter1" result="shadowMatrixOuter1"></feColorMatrix>
            <feMerge>
                <feMergeNode in="shadowMatrixOuter1"></feMergeNode>
                <feMergeNode in="SourceGraphic"></feMergeNode>
            </feMerge>
        </filter>
        <linearGradient x1="66.7382812%" y1="14.3229167%" x2="27.3626309%" y2="97.752889%" id="linearGradient-3">
            <stop stop-color="#FFFFFF" offset="0%"></stop>
            <stop stop-color="#EBEBFE" offset="100%"></stop>
        </linearGradient>
    </defs>
    <g id="question" stroke="none" stroke-width="1" fill="none" fill-rule="evenodd">
        <g id="Components-/-Z-Symbols-/-Icons-/-Large-/-Question">
            <circle id="BG" fill="url(#linearGradient-1)" cx="16" cy="16" r="16"></circle>
            <g id="help-web" filter="url(#filter-2)" stroke-width="1" transform="translate(6.933333, 6.933333)" fill="url(#linearGradient-3)">
                <path d="M9.3305679,0 C4.17934568,0 0.000345679012,4.1737284 0.000345679012,9.3252963 C0.000345679012,14.4817901 4.17934568,18.6604012 9.33052469,18.6604012 C14.4845556,18.6604012 18.6600123,14.4817469 18.6600123,9.3252963 C18.6600556,4.1737284 14.4845556,0 9.3305679,0 Z M9.99543827,14.5168765 C9.77874074,14.7097222 9.52760494,14.806642 9.24311111,14.806642 C8.94876543,14.806642 8.69201235,14.7114506 8.47285185,14.5207222 C8.25334568,14.3303395 8.14337654,14.0637778 8.14337654,13.7212963 C8.14337654,13.4174877 8.24980247,13.1617716 8.46196296,12.954537 C8.67412346,12.7473025 8.93437654,12.6436852 9.24311111,12.6436852 C9.54691975,12.6436852 9.8026358,12.7473025 10.010216,12.954537 C10.2174506,13.1617716 10.3214136,13.4174444 10.3214136,13.7212963 C10.3210247,14.0588519 10.2124815,14.3240741 9.99543827,14.5168765 Z M12.6974815,7.8181358 C12.5309938,8.12687037 12.3332654,8.39308642 12.1039074,8.61756173 C11.8752407,8.84199383 11.4639691,9.21921605 10.8703519,9.74957407 C10.7066728,9.89920988 10.5749691,10.0305679 10.4762778,10.1436481 C10.3775864,10.2571173 10.3038272,10.3606914 10.2556914,10.4548457 C10.2072099,10.5489568 10.1700062,10.6431111 10.1436481,10.7372222 C10.1172901,10.8309877 10.0776235,10.9964383 10.0238704,11.2327963 C9.9325679,11.7343765 9.64561111,11.9851235 9.16334568,11.9851235 C8.91255556,11.9851235 8.70182099,11.903284 8.53006173,11.7392593 C8.35899383,11.5752346 8.27365432,11.3318333 8.27365432,11.0087099 C8.27365432,10.6037469 8.33652469,10.2528395 8.46191975,9.95607407 C8.58662346,9.65926543 8.75345679,9.39901235 8.96069136,9.17458025 C9.1682716,8.95014815 9.44783951,8.68388889 9.80012963,8.37515432 C10.1088642,8.10504938 10.3319136,7.90135802 10.4692346,7.76399383 C10.6069012,7.62632716 10.7224877,7.47319136 10.8162531,7.30458642 C10.9107531,7.1356358 10.9571173,6.95264198 10.9571173,6.75491358 C10.9571173,6.36891975 10.814179,6.04367901 10.5268765,5.7785 C10.2399198,5.51332099 9.86969753,5.38053704 9.41625309,5.38053704 C8.88554938,5.38053704 8.49497531,5.51435802 8.24418519,5.782 C7.99339506,6.04964198 7.78162346,6.44371605 7.60774691,6.96461111 C7.44337654,7.50974691 7.13217901,7.7822716 6.6745,7.7822716 C6.40439506,7.7822716 6.17646296,7.68708025 5.99066049,7.49669753 C5.8052037,7.30631481 5.71247531,7.10016049 5.71247531,6.87819136 C5.71247531,6.42016667 5.85964815,5.95583333 6.15364815,5.48553704 C6.44799383,5.01524074 6.87719753,4.6257037 7.44160494,4.31731481 C8.00566667,4.00858025 8.6642716,3.85401852 9.41625309,3.85401852 C10.1155617,3.85401852 10.7326852,3.98325926 11.2679691,4.24143827 C11.8032531,4.4992284 12.2169877,4.8501358 12.5088704,5.29407407 C12.8004074,5.73766667 12.9465,6.2199321 12.9465,6.74082716 C12.9471914,7.1500679 12.8639691,7.50940123 12.6974815,7.8181358 Z" id="Shape" fill-rule="nonzero"></path>
            </g>
        </g>
    </g>
</svg>