<?xml version="1.0" encoding="UTF-8"?>
<svg width="16px" height="16px" viewBox="0 0 24 22" version="1.1" xmlns="http://www.w3.org/2000/svg" xmlns:xlink="http://www.w3.org/1999/xlink">
    <!-- Generator: Sketch 53.2 (72643) - https://sketchapp.com -->
    <title>Warning</title>
    <desc>Created with Sketch.</desc>
    <defs>
        <linearGradient x1="77.890625%" y1="22.6855017%" x2="16.1979167%" y2="78.8462547%" id="linearGradient-1">
            <stop stop-color="#FFCA2D" offset="0%"></stop>
            <stop stop-color="#F9AF2F" offset="26.3492506%"></stop>
            <stop stop-color="#FEA930" offset="52.8858418%"></stop>
            <stop stop-color="#FB9732" offset="76.5545281%"></stop>
            <stop stop-color="#FD8B32" offset="100%"></stop>
        </linearGradient>
    </defs>
    <g id="Page-1" stroke="none" stroke-width="1" fill="none" fill-rule="evenodd">
        <path d="M23.7874746,19.5531484 L13.3610381,0.814342814 C12.7566782,-0.271447605 11.2433218,-0.271447605 10.6389619,0.814342814 L0.212525379,19.5531484 C-0.391834512,20.6389388 0.364843726,22 1.57356351,22 L22.4264365,22 C23.6351563,22 24.3918345,20.6389388 23.7874746,19.5531484 Z M12.0147405,6.32995424 C12.6829758,6.32995424 13.2234603,6.9059839 13.2038063,7.59925853 L13.0072665,14.7155187 C12.992526,15.2762556 12.5503114,15.7197474 12.009827,15.7197474 C11.4693425,15.7197474 11.027128,15.271158 11.0123875,14.7155187 L10.8207612,7.59925853 C10.8060207,6.9059839 11.3415917,6.32995424 12.0147405,6.32995424 Z M12,19.8641024 C11.3170242,19.8641024 10.7617992,19.2880728 10.7617992,18.5795053 C10.7617992,17.8709378 11.3170242,17.2949082 12,17.2949082 C12.6829758,17.2949082 13.2382008,17.8709378 13.2382008,18.5795053 C13.2382008,19.2880728 12.6829758,19.8641024 12,19.8641024 Z" id="Warning" fill="url(#linearGradient-1)" fill-rule="nonzero"></path>
    </g>
</svg>