<svg xmlns="http://www.w3.org/2000/svg" width="35" height="38" viewBox="0 0 35 38">
    <defs>
        <linearGradient id="a" x1="100%" x2="-1.731%" y1="47.932%" y2="65.694%">
            <stop offset="0%" stop-color="#E96C01"/>
            <stop offset="55.4%" stop-color="#FDD230"/>
            <stop offset="100%" stop-color="#E8500A"/>
        </linearGradient>
        <linearGradient id="b" x1="100%" x2="-1.731%" y1="42.793%" y2="104.684%">
            <stop offset="0%" stop-color="#E96C01"/>
            <stop offset="55.4%" stop-color="#FDD230"/>
            <stop offset="100%" stop-color="#E8500A"/>
        </linearGradient>
        <linearGradient id="c" x1="100%" x2="-1.731%" y1="46.934%" y2="73.259%">
            <stop offset="0%" stop-color="#E96C01"/>
            <stop offset="55.4%" stop-color="#FDD230"/>
            <stop offset="100%" stop-color="#E8500A"/>
        </linearGradient>
        <linearGradient id="d" x1="100%" x2="-1.731%" y1="29.979%" y2="201.899%">
            <stop offset="0%" stop-color="#E96C01"/>
            <stop offset="55.4%" stop-color="#FDD230"/>
            <stop offset="100%" stop-color="#E8500A"/>
        </linearGradient>
    </defs>
    <g fill="none" fill-rule="nonzero">
        <path fill="url(#a)" d="M12.667 15.667h36c.736 0 1.333.597 1.333 1.333v4c0 .736-.597 1.333-1.333 1.333h-36v-6.666z" transform="rotate(-90 31.333 19)"/>
        <path fill="url(#b)" d="M12 24.333h18.667c.736 0 1.333.597 1.333 1.334v4c0 .736-.597 1.333-1.333 1.333H12v-6.667z" transform="rotate(-90 22 27.667)"/>
        <path fill="url(#c)" d="M-2.667 19h29.334c.736 0 1.333.597 1.333 1.333v4c0 .737-.597 1.334-1.333 1.334H-2.667V19z" transform="rotate(-90 12.667 22.333)"/>
        <path fill="url(#d)" d="M-2.667 28.333H8c.736 0 1.333.597 1.333 1.334v4C9.333 34.403 8.736 35 8 35H-2.667v-6.667z" transform="rotate(-90 3.333 31.667)"/>
        <path fill="#E95A07" d="M34.667 37.667V20.333c0-.736-.597-1.333-1.334-1.333h-4c-.736 0-1.333.597-1.333 1.333v17.334h6.667zM25.333 37.667v-12c0-.737-.597-1.334-1.333-1.334h-4c-.736 0-1.333.597-1.333 1.334v12h6.666zM16 37.667v-12c0-.737-.597-1.334-1.333-1.334h-4c-.737 0-1.334.597-1.334 1.334v12H16zM6.667 37.667v-4c0-.737-.597-1.334-1.334-1.334h-4C.597 32.333 0 32.93 0 33.667v4h6.667z"/>
    </g>
</svg>