<svg xmlns="http://www.w3.org/2000/svg" width="239" height="158" viewBox="0 0 239 158">
    <defs>
        <linearGradient id="a" x1="66.738%" x2="27.363%" y1="14.323%" y2="97.753%">
            <stop offset="0%" stop-color="#FFF"/>
            <stop offset="100%" stop-color="#FFE7E7"/>
        </linearGradient>
    </defs>
    <g fill="none" fill-rule="evenodd">
        <path d="M-30-7h300v173.438H-30z"/>
        <g fill-rule="nonzero">
            <path fill="#E9EBEE" d="M206.293 82.902h-32.458c-8.964 0-16.229-7.496-16.229-16.607V49.69c0-9.226 7.265-16.722 16.229-16.722h64.915V49.69c0 18.335-14.532 33.213-32.457 33.213M92.067 124.254v-22.627H46.034C20.619 101.627 0 121.888 0 146.881h69.051c12.787 0 23.016-10.129 23.016-22.627" opacity=".4"/>
            <g fill="#FB043D" opacity=".1">
                <path d="M153.26 17.949c0 .419-.347.76-.775.76a.767.767 0 0 1-.774-.76c0-.421.347-.762.774-.762.428 0 .775.341.775.762M161.642 17.949c0 .419-.347.76-.774.76a.768.768 0 0 1-.775-.76c0-.421.347-.762.775-.762.427 0 .774.341.774.762M170.024 17.949c0 .419-.346.76-.774.76a.768.768 0 0 1-.775-.76c0-.421.347-.762.775-.762.428 0 .774.341.774.762M178.407 17.949c0 .419-.348.76-.775.76a.767.767 0 0 1-.774-.76c0-.421.346-.762.774-.762.427 0 .775.341.775.762M186.789 17.949c0 .419-.347.76-.775.76a.767.767 0 0 1-.774-.76c0-.421.347-.762.774-.762.428 0 .775.341.775.762M195.171 17.949c0 .419-.347.76-.774.76a.768.768 0 0 1-.775-.76c0-.421.347-.762.775-.762.427 0 .774.341.774.762M203.553 17.949c0 .419-.347.76-.774.76a.768.768 0 0 1-.775-.76c0-.421.347-.762.775-.762.427 0 .774.341.774.762M211.935 17.949c0 .419-.346.76-.774.76a.768.768 0 0 1-.774-.76c0-.421.347-.762.774-.762.428 0 .774.341.774.762M220.318 17.949c0 .419-.347.76-.775.76a.767.767 0 0 1-.773-.76c0-.421.345-.762.773-.762.428 0 .775.341.775.762M228.7 17.949c0 .419-.347.76-.775.76a.767.767 0 0 1-.773-.76c0-.421.346-.762.773-.762.428 0 .775.341.775.762M153.26 24.39c0 .421-.347.762-.775.762a.768.768 0 0 1-.774-.761c0-.42.347-.76.774-.76.428 0 .775.34.775.76M161.642 24.39c0 .421-.347.762-.774.762a.768.768 0 0 1-.775-.761c0-.42.347-.76.775-.76.427 0 .774.34.774.76M170.024 24.39c0 .421-.346.762-.774.762a.768.768 0 0 1-.775-.761c0-.42.347-.76.775-.76.428 0 .774.34.774.76M178.407 24.39c0 .421-.348.762-.775.762a.767.767 0 0 1-.774-.761c0-.42.346-.76.774-.76.427 0 .775.34.775.76M186.789 24.39c0 .421-.347.762-.775.762a.768.768 0 0 1-.774-.761c0-.42.347-.76.774-.76.428 0 .775.34.775.76M195.171 24.39c0 .421-.347.762-.774.762a.768.768 0 0 1-.775-.761c0-.42.347-.76.775-.76.427 0 .774.34.774.76M203.553 24.39c0 .421-.347.762-.774.762a.768.768 0 0 1-.775-.761c0-.42.347-.76.775-.76.427 0 .774.34.774.76M211.935 24.39c0 .421-.346.762-.774.762a.769.769 0 0 1-.774-.761c0-.42.347-.76.774-.76.428 0 .774.34.774.76M220.318 24.39c0 .421-.347.762-.775.762a.767.767 0 0 1-.773-.761c0-.42.345-.76.773-.76.428 0 .775.34.775.76M228.7 24.39c0 .421-.347.762-.775.762a.768.768 0 0 1-.773-.761c0-.42.346-.76.773-.76.428 0 .775.34.775.76M153.26 30.834c0 .42-.347.761-.775.761a.768.768 0 0 1-.774-.76c0-.42.347-.76.774-.76.428 0 .775.34.775.76M161.642 30.834c0 .42-.347.761-.774.761a.768.768 0 0 1-.775-.76c0-.42.347-.76.775-.76.427 0 .774.34.774.76M170.024 30.834c0 .42-.346.761-.774.761a.768.768 0 0 1-.775-.76c0-.42.347-.76.775-.76.428 0 .774.34.774.76M178.407 30.834c0 .42-.348.761-.775.761a.767.767 0 0 1-.774-.76c0-.42.346-.76.774-.76.427 0 .775.34.775.76M186.789 30.834c0 .42-.347.761-.775.761a.768.768 0 0 1-.774-.76c0-.42.347-.76.774-.76.428 0 .775.34.775.76M195.171 30.834c0 .42-.347.761-.774.761a.768.768 0 0 1-.775-.76c0-.42.347-.76.775-.76.427 0 .774.34.774.76M203.553 30.834c0 .42-.347.761-.774.761a.768.768 0 0 1-.775-.76c0-.42.347-.76.775-.76.427 0 .774.34.774.76M211.935 30.834c0 .42-.346.761-.774.761a.769.769 0 0 1-.774-.76c0-.42.347-.76.774-.76.428 0 .774.34.774.76M220.318 30.834c0 .42-.347.761-.775.761a.767.767 0 0 1-.773-.76c0-.42.345-.76.773-.76.428 0 .775.34.775.76M228.7 30.834c0 .42-.347.761-.775.761a.768.768 0 0 1-.773-.76c0-.42.346-.76.773-.76.428 0 .775.34.775.76M153.26 37.278c0 .42-.347.76-.775.76a.768.768 0 0 1-.774-.76c0-.42.347-.76.774-.76.428 0 .775.34.775.76M161.642 37.278c0 .42-.347.76-.774.76a.769.769 0 0 1-.775-.76c0-.42.347-.76.775-.76.427 0 .774.34.774.76M170.024 37.278c0 .42-.346.76-.774.76a.769.769 0 0 1-.775-.76c0-.42.347-.76.775-.76.428 0 .774.34.774.76M178.407 37.278a.77.77 0 0 1-.775.76.768.768 0 0 1-.774-.76c0-.42.346-.76.774-.76.427 0 .775.34.775.76M186.789 37.278c0 .42-.347.76-.775.76a.768.768 0 0 1-.774-.76c0-.42.347-.76.774-.76.428 0 .775.34.775.76M195.171 37.278c0 .42-.347.76-.774.76a.769.769 0 0 1-.775-.76c0-.42.347-.76.775-.76.427 0 .774.34.774.76M203.553 37.278c0 .42-.347.76-.774.76a.769.769 0 0 1-.775-.76c0-.42.347-.76.775-.76.427 0 .774.34.774.76M211.935 37.278c0 .42-.346.76-.774.76a.77.77 0 0 1-.774-.76c0-.42.347-.76.774-.76.428 0 .774.34.774.76M220.318 37.278c0 .42-.347.76-.775.76a.768.768 0 0 1-.773-.76c0-.42.345-.76.773-.76.428 0 .775.34.775.76M228.7 37.278c0 .42-.347.76-.775.76a.768.768 0 0 1-.773-.76c0-.42.346-.76.773-.76.428 0 .775.34.775.76M153.26 43.721c0 .42-.347.76-.775.76a.767.767 0 0 1-.774-.76c0-.42.347-.761.774-.761.428 0 .775.34.775.761M161.642 43.721c0 .42-.347.76-.774.76a.768.768 0 0 1-.775-.76c0-.42.347-.761.775-.761.427 0 .774.34.774.761M170.024 43.721c0 .42-.346.76-.774.76a.768.768 0 0 1-.775-.76c0-.42.347-.761.775-.761.428 0 .774.34.774.761M178.407 43.721c0 .42-.348.76-.775.76a.767.767 0 0 1-.774-.76c0-.42.346-.761.774-.761.427 0 .775.34.775.761M186.789 43.721c0 .42-.347.76-.775.76a.767.767 0 0 1-.774-.76c0-.42.347-.761.774-.761.428 0 .775.34.775.761M195.171 43.721c0 .42-.347.76-.774.76a.768.768 0 0 1-.775-.76c0-.42.347-.761.775-.761.427 0 .774.34.774.761M203.553 43.721c0 .42-.347.76-.774.76a.768.768 0 0 1-.775-.76c0-.42.347-.761.775-.761.427 0 .774.34.774.761M211.935 43.721c0 .42-.346.76-.774.76a.768.768 0 0 1-.774-.76c0-.42.347-.761.774-.761.428 0 .774.34.774.761M220.318 43.721c0 .42-.347.76-.775.76a.767.767 0 0 1-.773-.76c0-.42.345-.761.773-.761.428 0 .775.34.775.761M228.7 43.721c0 .42-.347.76-.775.76a.767.767 0 0 1-.773-.76c0-.42.346-.761.773-.761.428 0 .775.34.775.761M153.26 49.68c0 .42-.347.761-.775.761a.768.768 0 0 1-.774-.76c0-.42.347-.76.774-.76.428 0 .775.34.775.76M161.642 49.68c0 .42-.347.761-.774.761a.768.768 0 0 1-.775-.76c0-.42.347-.76.775-.76.427 0 .774.34.774.76M170.024 49.68c0 .42-.346.761-.774.761a.768.768 0 0 1-.775-.76c0-.42.347-.76.775-.76.428 0 .774.34.774.76M178.407 49.68c0 .42-.348.761-.775.761a.767.767 0 0 1-.774-.76c0-.42.346-.76.774-.76.427 0 .775.34.775.76M186.789 49.68c0 .42-.347.761-.775.761a.768.768 0 0 1-.774-.76c0-.42.347-.76.774-.76.428 0 .775.34.775.76M195.171 49.68c0 .42-.347.761-.774.761a.768.768 0 0 1-.775-.76c0-.42.347-.76.775-.76.427 0 .774.34.774.76M203.553 49.68c0 .42-.347.761-.774.761a.768.768 0 0 1-.775-.76c0-.42.347-.76.775-.76.427 0 .774.34.774.76M211.935 49.68c0 .42-.346.761-.774.761a.769.769 0 0 1-.774-.76c0-.42.347-.76.774-.76.428 0 .774.34.774.76M220.318 49.68c0 .42-.347.761-.775.761a.767.767 0 0 1-.773-.76c0-.42.345-.76.773-.76.428 0 .775.34.775.76M228.7 49.68c0 .42-.347.761-.775.761a.768.768 0 0 1-.773-.76c0-.42.346-.76.773-.76.428 0 .775.34.775.76M153.26 56.124c0 .419-.347.76-.775.76a.768.768 0 0 1-.774-.76c0-.42.347-.76.774-.76.428 0 .775.34.775.76M161.642 56.124c0 .419-.347.76-.774.76a.769.769 0 0 1-.775-.76c0-.42.347-.76.775-.76.427 0 .774.34.774.76M170.024 56.124c0 .419-.346.76-.774.76a.769.769 0 0 1-.775-.76c0-.42.347-.76.775-.76.428 0 .774.34.774.76M178.407 56.124a.77.77 0 0 1-.775.76.768.768 0 0 1-.774-.76c0-.42.346-.76.774-.76.427 0 .775.34.775.76M186.789 56.124c0 .419-.347.76-.775.76a.768.768 0 0 1-.774-.76c0-.42.347-.76.774-.76.428 0 .775.34.775.76M195.171 56.124c0 .419-.347.76-.774.76a.769.769 0 0 1-.775-.76c0-.42.347-.76.775-.76.427 0 .774.34.774.76M203.553 56.124c0 .419-.347.76-.774.76a.769.769 0 0 1-.775-.76c0-.42.347-.76.775-.76.427 0 .774.34.774.76M211.935 56.124c0 .419-.346.76-.774.76a.77.77 0 0 1-.774-.76c0-.42.347-.76.774-.76.428 0 .774.34.774.76M220.318 56.124c0 .419-.347.76-.775.76a.768.768 0 0 1-.773-.76c0-.42.345-.76.773-.76.428 0 .775.34.775.76M228.7 56.124c0 .419-.347.76-.775.76a.768.768 0 0 1-.773-.76c0-.42.346-.76.773-.76.428 0 .775.34.775.76M153.26 62.566c0 .42-.347.761-.775.761a.768.768 0 0 1-.774-.761c0-.42.347-.76.774-.76.428 0 .775.34.775.76M161.642 62.566c0 .42-.347.761-.774.761a.768.768 0 0 1-.775-.761c0-.42.347-.76.775-.76.427 0 .774.34.774.76M170.024 62.566c0 .42-.346.761-.774.761a.768.768 0 0 1-.775-.761c0-.42.347-.76.775-.76.428 0 .774.34.774.76M178.407 62.566c0 .42-.348.761-.775.761a.767.767 0 0 1-.774-.761c0-.42.346-.76.774-.76.427 0 .775.34.775.76M186.789 62.566c0 .42-.347.761-.775.761a.768.768 0 0 1-.774-.761c0-.42.347-.76.774-.76.428 0 .775.34.775.76M195.171 62.566c0 .42-.347.761-.774.761a.768.768 0 0 1-.775-.761c0-.42.347-.76.775-.76.427 0 .774.34.774.76M203.553 62.566c0 .42-.347.761-.774.761a.768.768 0 0 1-.775-.761c0-.42.347-.76.775-.76.427 0 .774.34.774.76M211.935 62.566c0 .42-.346.761-.774.761a.769.769 0 0 1-.774-.761c0-.42.347-.76.774-.76.428 0 .774.34.774.76M220.318 62.566c0 .42-.347.761-.775.761a.767.767 0 0 1-.773-.761c0-.42.345-.76.773-.76.428 0 .775.34.775.76M228.7 62.566c0 .42-.347.761-.775.761a.768.768 0 0 1-.773-.761c0-.42.346-.76.773-.76.428 0 .775.34.775.76M153.26 69.01c0 .42-.347.76-.775.76a.768.768 0 0 1-.774-.76c0-.42.347-.76.774-.76.428 0 .775.34.775.76M161.642 69.01c0 .42-.347.76-.774.76a.768.768 0 0 1-.775-.76c0-.42.347-.76.775-.76.427 0 .774.34.774.76M170.024 69.01c0 .42-.346.76-.774.76a.768.768 0 0 1-.775-.76c0-.42.347-.76.775-.76.428 0 .774.34.774.76M178.407 69.01c0 .42-.348.76-.775.76a.767.767 0 0 1-.774-.76c0-.42.346-.76.774-.76.427 0 .775.34.775.76M186.789 69.01c0 .42-.347.76-.775.76a.768.768 0 0 1-.774-.76c0-.42.347-.76.774-.76.428 0 .775.34.775.76M195.171 69.01c0 .42-.347.76-.774.76a.768.768 0 0 1-.775-.76c0-.42.347-.76.775-.76.427 0 .774.34.774.76M203.553 69.01c0 .42-.347.76-.774.76a.768.768 0 0 1-.775-.76c0-.42.347-.76.775-.76.427 0 .774.34.774.76M211.935 69.01c0 .42-.346.76-.774.76a.769.769 0 0 1-.774-.76c0-.42.347-.76.774-.76.428 0 .774.34.774.76M220.318 69.01c0 .42-.347.76-.775.76a.767.767 0 0 1-.773-.76c0-.42.345-.76.773-.76.428 0 .775.34.775.76M228.7 69.01c0 .42-.347.76-.775.76a.768.768 0 0 1-.773-.76c0-.42.346-.76.773-.76.428 0 .775.34.775.76M153.26 75.453c0 .42-.347.76-.775.76a.768.768 0 0 1-.774-.76c0-.42.347-.76.774-.76.428 0 .775.34.775.76M161.642 75.453c0 .42-.347.76-.774.76a.768.768 0 0 1-.775-.76c0-.42.347-.76.775-.76.427 0 .774.34.774.76M170.024 75.453c0 .42-.346.76-.774.76a.768.768 0 0 1-.775-.76c0-.42.347-.76.775-.76.428 0 .774.34.774.76M178.407 75.453c0 .42-.348.76-.775.76a.767.767 0 0 1-.774-.76c0-.42.346-.76.774-.76.427 0 .775.34.775.76M186.789 75.453c0 .42-.347.76-.775.76a.768.768 0 0 1-.774-.76c0-.42.347-.76.774-.76.428 0 .775.34.775.76M195.171 75.453c0 .42-.347.76-.774.76a.768.768 0 0 1-.775-.76c0-.42.347-.76.775-.76.427 0 .774.34.774.76M203.553 75.453c0 .42-.347.76-.774.76a.768.768 0 0 1-.775-.76c0-.42.347-.76.775-.76.427 0 .774.34.774.76M211.935 75.453c0 .42-.346.76-.774.76a.769.769 0 0 1-.774-.76c0-.42.347-.76.774-.76.428 0 .774.34.774.76M220.318 75.453c0 .42-.347.76-.775.76a.767.767 0 0 1-.773-.76c0-.42.345-.76.773-.76.428 0 .775.34.775.76M228.7 75.453c0 .42-.347.76-.775.76a.768.768 0 0 1-.773-.76c0-.42.346-.76.773-.76.428 0 .775.34.775.76M153.26 81.896c0 .42-.347.76-.775.76a.767.767 0 0 1-.774-.76c0-.42.347-.761.774-.761.428 0 .775.34.775.761M161.642 81.896c0 .42-.347.76-.774.76a.768.768 0 0 1-.775-.76c0-.42.347-.761.775-.761.427 0 .774.34.774.761M170.024 81.896c0 .42-.346.76-.774.76a.768.768 0 0 1-.775-.76c0-.42.347-.761.775-.761.428 0 .774.34.774.761M178.407 81.896c0 .42-.348.76-.775.76a.767.767 0 0 1-.774-.76c0-.42.346-.761.774-.761.427 0 .775.34.775.761M186.789 81.896c0 .42-.347.76-.775.76a.767.767 0 0 1-.774-.76c0-.42.347-.761.774-.761.428 0 .775.34.775.761M195.171 81.896c0 .42-.347.76-.774.76a.768.768 0 0 1-.775-.76c0-.42.347-.761.775-.761.427 0 .774.34.774.761M203.553 81.896c0 .42-.347.76-.774.76a.768.768 0 0 1-.775-.76c0-.42.347-.761.775-.761.427 0 .774.34.774.761M211.935 81.896c0 .42-.346.76-.774.76a.768.768 0 0 1-.774-.76c0-.42.347-.761.774-.761.428 0 .774.34.774.761M220.318 81.896c0 .42-.347.76-.775.76a.767.767 0 0 1-.773-.76c0-.42.345-.761.773-.761.428 0 .775.34.775.761M228.7 81.896c0 .42-.347.76-.775.76a.767.767 0 0 1-.773-.76c0-.42.346-.761.773-.761.428 0 .775.34.775.761M153.26 88.338c0 .42-.347.762-.775.762a.768.768 0 0 1-.774-.762c0-.419.347-.76.774-.76.428 0 .775.341.775.76M161.642 88.338c0 .42-.347.762-.774.762a.768.768 0 0 1-.775-.762c0-.419.347-.76.775-.76.427 0 .774.341.774.76M170.024 88.338c0 .42-.346.762-.774.762a.768.768 0 0 1-.775-.762c0-.419.347-.76.775-.76.428 0 .774.341.774.76M178.407 88.338c0 .42-.348.762-.775.762a.767.767 0 0 1-.774-.762c0-.419.346-.76.774-.76.427 0 .775.341.775.76M186.789 88.338c0 .42-.347.762-.775.762a.768.768 0 0 1-.774-.762c0-.419.347-.76.774-.76.428 0 .775.341.775.76M195.171 88.338c0 .42-.347.762-.774.762a.768.768 0 0 1-.775-.762c0-.419.347-.76.775-.76.427 0 .774.341.774.76M203.553 88.338c0 .42-.347.762-.774.762a.768.768 0 0 1-.775-.762c0-.419.347-.76.775-.76.427 0 .774.341.774.76M211.935 88.338c0 .42-.346.762-.774.762a.769.769 0 0 1-.774-.762c0-.419.347-.76.774-.76.428 0 .774.341.774.76M220.318 88.338c0 .42-.347.762-.775.762a.767.767 0 0 1-.773-.762c0-.419.345-.76.773-.76.428 0 .775.341.775.76M228.7 88.338c0 .42-.347.762-.775.762a.768.768 0 0 1-.773-.762c0-.419.346-.76.773-.76.428 0 .775.341.775.76M153.26 94.782c0 .42-.347.761-.775.761a.768.768 0 0 1-.774-.761c0-.42.347-.76.774-.76.428 0 .775.34.775.76M161.642 94.782c0 .42-.347.761-.774.761a.768.768 0 0 1-.775-.761c0-.42.347-.76.775-.76.427 0 .774.34.774.76M170.024 94.782c0 .42-.346.761-.774.761a.768.768 0 0 1-.775-.761c0-.42.347-.76.775-.76.428 0 .774.34.774.76M178.407 94.782c0 .42-.348.761-.775.761a.767.767 0 0 1-.774-.761c0-.42.346-.76.774-.76.427 0 .775.34.775.76M186.789 94.782c0 .42-.347.761-.775.761a.768.768 0 0 1-.774-.761c0-.42.347-.76.774-.76.428 0 .775.34.775.76M195.171 94.782c0 .42-.347.761-.774.761a.768.768 0 0 1-.775-.761c0-.42.347-.76.775-.76.427 0 .774.34.774.76M203.553 94.782c0 .42-.347.761-.774.761a.768.768 0 0 1-.775-.761c0-.42.347-.76.775-.76.427 0 .774.34.774.76M211.935 94.782c0 .42-.346.761-.774.761a.769.769 0 0 1-.774-.761c0-.42.347-.76.774-.76.428 0 .774.34.774.76M220.318 94.782c0 .42-.347.761-.775.761a.767.767 0 0 1-.773-.761c0-.42.345-.76.773-.76.428 0 .775.34.775.76M228.7 94.782c0 .42-.347.761-.775.761a.768.768 0 0 1-.773-.761c0-.42.346-.76.773-.76.428 0 .775.34.775.76M153.26 101.225c0 .42-.347.761-.775.761a.768.768 0 0 1-.774-.76c0-.421.347-.76.774-.76.428 0 .775.339.775.76M161.642 101.225c0 .42-.347.761-.774.761a.769.769 0 0 1-.775-.76c0-.421.347-.76.775-.76.427 0 .774.339.774.76M170.024 101.225c0 .42-.346.761-.774.761a.769.769 0 0 1-.775-.76c0-.421.347-.76.775-.76.428 0 .774.339.774.76M178.407 101.225a.77.77 0 0 1-.775.761.768.768 0 0 1-.774-.76c0-.421.346-.76.774-.76.427 0 .775.339.775.76M186.789 101.225c0 .42-.347.761-.775.761a.768.768 0 0 1-.774-.76c0-.421.347-.76.774-.76.428 0 .775.339.775.76M195.171 101.225c0 .42-.347.761-.774.761a.769.769 0 0 1-.775-.76c0-.421.347-.76.775-.76.427 0 .774.339.774.76M203.553 101.225c0 .42-.347.761-.774.761a.769.769 0 0 1-.775-.76c0-.421.347-.76.775-.76.427 0 .774.339.774.76M211.935 101.225c0 .42-.346.761-.774.761a.77.77 0 0 1-.774-.76c0-.421.347-.76.774-.76.428 0 .774.339.774.76M220.318 101.225c0 .42-.347.761-.775.761a.768.768 0 0 1-.773-.76c0-.421.345-.76.773-.76.428 0 .775.339.775.76M228.7 101.225c0 .42-.347.761-.775.761a.768.768 0 0 1-.773-.76c0-.421.346-.76.773-.76.428 0 .775.339.775.76M153.26 107.668c0 .42-.347.76-.775.76a.768.768 0 0 1-.774-.76c0-.42.347-.76.774-.76.428 0 .775.34.775.76M161.642 107.668c0 .42-.347.76-.774.76a.768.768 0 0 1-.775-.76c0-.42.347-.76.775-.76.427 0 .774.34.774.76M170.024 107.668c0 .42-.346.76-.774.76a.768.768 0 0 1-.775-.76c0-.42.347-.76.775-.76.428 0 .774.34.774.76M178.407 107.668c0 .42-.348.76-.775.76a.767.767 0 0 1-.774-.76c0-.42.346-.76.774-.76.427 0 .775.34.775.76M186.789 107.668c0 .42-.347.76-.775.76a.768.768 0 0 1-.774-.76c0-.42.347-.76.774-.76.428 0 .775.34.775.76M195.171 107.668c0 .42-.347.76-.774.76a.768.768 0 0 1-.775-.76c0-.42.347-.76.775-.76.427 0 .774.34.774.76M203.553 107.668c0 .42-.347.76-.774.76a.768.768 0 0 1-.775-.76c0-.42.347-.76.775-.76.427 0 .774.34.774.76M211.935 107.668c0 .42-.346.76-.774.76a.769.769 0 0 1-.774-.76c0-.42.347-.76.774-.76.428 0 .774.34.774.76M220.318 107.668c0 .42-.347.76-.775.76a.767.767 0 0 1-.773-.76c0-.42.345-.76.773-.76.428 0 .775.34.775.76M228.7 107.668c0 .42-.347.76-.775.76a.768.768 0 0 1-.773-.76c0-.42.346-.76.773-.76.428 0 .775.34.775.76M153.26 114.111c0 .42-.347.761-.775.761a.768.768 0 0 1-.774-.761c0-.42.347-.76.774-.76.428 0 .775.34.775.76M161.642 114.111c0 .42-.347.761-.774.761a.768.768 0 0 1-.775-.761c0-.42.347-.76.775-.76.427 0 .774.34.774.76M170.024 114.111c0 .42-.346.761-.774.761a.768.768 0 0 1-.775-.761c0-.42.347-.76.775-.76.428 0 .774.34.774.76M178.407 114.111c0 .42-.348.761-.775.761a.767.767 0 0 1-.774-.761c0-.42.346-.76.774-.76.427 0 .775.34.775.76M186.789 114.111c0 .42-.347.761-.775.761a.768.768 0 0 1-.774-.761c0-.42.347-.76.774-.76.428 0 .775.34.775.76M195.171 114.111c0 .42-.347.761-.774.761a.768.768 0 0 1-.775-.761c0-.42.347-.76.775-.76.427 0 .774.34.774.76M203.553 114.111c0 .42-.347.761-.774.761a.768.768 0 0 1-.775-.761c0-.42.347-.76.775-.76.427 0 .774.34.774.76M211.935 114.111c0 .42-.346.761-.774.761a.769.769 0 0 1-.774-.761c0-.42.347-.76.774-.76.428 0 .774.34.774.76M220.318 114.111c0 .42-.347.761-.775.761a.767.767 0 0 1-.773-.761c0-.42.345-.76.773-.76.428 0 .775.34.775.76M228.7 114.111c0 .42-.347.761-.775.761a.768.768 0 0 1-.773-.761c0-.42.346-.76.773-.76.428 0 .775.34.775.76"/>
            </g>
            <g fill="#FFC916" opacity=".3">
                <path d="M22.625 86.257c0 .46-.366.833-.817.833a.826.826 0 0 1-.817-.833c0-.46.366-.832.817-.832.451 0 .817.372.817.832M31.47 86.257c0 .46-.366.833-.818.833a.826.826 0 0 1-.817-.833c0-.46.366-.832.817-.832.452 0 .817.372.817.832M40.313 86.257c0 .46-.365.833-.817.833a.826.826 0 0 1-.816-.833c0-.46.366-.832.816-.832.452 0 .817.372.817.832M49.157 86.257c0 .46-.365.833-.816.833a.826.826 0 0 1-.817-.833c0-.46.366-.832.817-.832.451 0 .816.372.816.832M58.002 86.257c0 .46-.366.833-.817.833a.825.825 0 0 1-.816-.833c0-.46.365-.832.816-.832.451 0 .817.372.817.832M66.846 86.257c0 .46-.365.833-.817.833a.826.826 0 0 1-.816-.833c0-.46.366-.832.816-.832.452 0 .817.372.817.832M75.69 86.257c0 .46-.365.833-.816.833a.826.826 0 0 1-.817-.833c0-.46.366-.832.817-.832.451 0 .816.372.816.832M84.535 86.257c0 .46-.366.833-.817.833a.825.825 0 0 1-.816-.833c0-.46.365-.832.816-.832.451 0 .817.372.817.832M93.38 86.257c0 .46-.366.833-.818.833a.826.826 0 0 1-.816-.833c0-.46.366-.832.816-.832.452 0 .817.372.817.832M102.223 86.257c0 .46-.365.833-.816.833a.826.826 0 0 1-.817-.833c0-.46.366-.832.817-.832.451 0 .816.372.816.832M22.625 93.31a.825.825 0 0 1-.817.832.825.825 0 0 1-.817-.832c0-.46.366-.833.817-.833.451 0 .817.374.817.833M31.47 93.31a.825.825 0 0 1-.818.832.825.825 0 0 1-.817-.832c0-.46.366-.833.817-.833.452 0 .817.374.817.833M40.313 93.31a.825.825 0 0 1-.817.832.825.825 0 0 1-.816-.832c0-.46.366-.833.816-.833.452 0 .817.374.817.833M49.157 93.31a.825.825 0 0 1-.816.832.825.825 0 0 1-.817-.832c0-.46.366-.833.817-.833.451 0 .816.374.816.833M58.002 93.31a.825.825 0 0 1-.817.832.825.825 0 0 1-.816-.832c0-.46.365-.833.816-.833.451 0 .817.374.817.833M66.846 93.31a.825.825 0 0 1-.817.832.825.825 0 0 1-.816-.832c0-.46.366-.833.816-.833.452 0 .817.374.817.833M75.69 93.31a.825.825 0 0 1-.816.832.825.825 0 0 1-.817-.832c0-.46.366-.833.817-.833.451 0 .816.374.816.833M84.535 93.31a.825.825 0 0 1-.817.832.825.825 0 0 1-.816-.832c0-.46.365-.833.816-.833.451 0 .817.374.817.833M93.38 93.31a.825.825 0 0 1-.818.832.825.825 0 0 1-.816-.832c0-.46.366-.833.816-.833.452 0 .817.374.817.833M102.223 93.31a.825.825 0 0 1-.816.832.825.825 0 0 1-.817-.832c0-.46.366-.833.817-.833.451 0 .816.374.816.833M22.625 100.363c0 .46-.366.832-.817.832a.825.825 0 0 1-.817-.832c0-.46.366-.833.817-.833.451 0 .817.374.817.833M31.47 100.363c0 .46-.366.832-.818.832a.825.825 0 0 1-.817-.832c0-.46.366-.833.817-.833.452 0 .817.374.817.833M40.313 100.363c0 .46-.365.832-.817.832a.825.825 0 0 1-.816-.832c0-.46.366-.833.816-.833.452 0 .817.374.817.833M49.157 100.363c0 .46-.365.832-.816.832a.825.825 0 0 1-.817-.832c0-.46.366-.833.817-.833.451 0 .816.374.816.833M58.002 100.363c0 .46-.366.832-.817.832a.824.824 0 0 1-.816-.832c0-.46.365-.833.816-.833.451 0 .817.374.817.833M66.846 100.363c0 .46-.365.832-.817.832a.825.825 0 0 1-.816-.832c0-.46.366-.833.816-.833.452 0 .817.374.817.833M75.69 100.363c0 .46-.365.832-.816.832a.825.825 0 0 1-.817-.832c0-.46.366-.833.817-.833.451 0 .816.374.816.833M84.535 100.363c0 .46-.366.832-.817.832a.824.824 0 0 1-.816-.832c0-.46.365-.833.816-.833.451 0 .817.374.817.833M93.38 100.363c0 .46-.366.832-.818.832a.825.825 0 0 1-.816-.832c0-.46.366-.833.816-.833.452 0 .817.374.817.833M102.223 100.363c0 .46-.365.832-.816.832a.825.825 0 0 1-.817-.832c0-.46.366-.833.817-.833.451 0 .816.374.816.833M22.625 107.416c0 .46-.366.833-.817.833a.826.826 0 0 1-.817-.833c0-.46.366-.833.817-.833.451 0 .817.373.817.833M31.47 107.416c0 .46-.366.833-.818.833a.826.826 0 0 1-.817-.833c0-.46.366-.833.817-.833.452 0 .817.373.817.833M40.313 107.416c0 .46-.365.833-.817.833a.826.826 0 0 1-.816-.833c0-.46.366-.833.816-.833.452 0 .817.373.817.833M49.157 107.416c0 .46-.365.833-.816.833a.826.826 0 0 1-.817-.833c0-.46.366-.833.817-.833.451 0 .816.373.816.833M58.002 107.416c0 .46-.366.833-.817.833a.825.825 0 0 1-.816-.833c0-.46.365-.833.816-.833.451 0 .817.373.817.833M66.846 107.416c0 .46-.365.833-.817.833a.826.826 0 0 1-.816-.833c0-.46.366-.833.816-.833.452 0 .817.373.817.833M75.69 107.416c0 .46-.365.833-.816.833a.826.826 0 0 1-.817-.833c0-.46.366-.833.817-.833.451 0 .816.373.816.833M84.535 107.416c0 .46-.366.833-.817.833a.825.825 0 0 1-.816-.833c0-.46.365-.833.816-.833.451 0 .817.373.817.833M93.38 107.416c0 .46-.366.833-.818.833a.826.826 0 0 1-.816-.833c0-.46.366-.833.816-.833.452 0 .817.373.817.833M102.223 107.416c0 .46-.365.833-.816.833a.826.826 0 0 1-.817-.833c0-.46.366-.833.817-.833.451 0 .816.373.816.833M22.625 114.47a.825.825 0 0 1-.817.832.825.825 0 0 1-.817-.832c0-.46.366-.834.817-.834.451 0 .817.373.817.834M31.47 114.47a.825.825 0 0 1-.818.832.825.825 0 0 1-.817-.832c0-.46.366-.834.817-.834.452 0 .817.373.817.834M40.313 114.47a.825.825 0 0 1-.817.832.825.825 0 0 1-.816-.832c0-.46.366-.834.816-.834.452 0 .817.373.817.834M49.157 114.47a.825.825 0 0 1-.816.832.825.825 0 0 1-.817-.832c0-.46.366-.834.817-.834.451 0 .816.373.816.834M58.002 114.47a.825.825 0 0 1-.817.832.825.825 0 0 1-.816-.832c0-.46.365-.834.816-.834.451 0 .817.373.817.834M66.846 114.47a.825.825 0 0 1-.817.832.825.825 0 0 1-.816-.832c0-.46.366-.834.816-.834.452 0 .817.373.817.834M75.69 114.47a.825.825 0 0 1-.816.832.825.825 0 0 1-.817-.832c0-.46.366-.834.817-.834.451 0 .816.373.816.834M84.535 114.47a.825.825 0 0 1-.817.832.825.825 0 0 1-.816-.832c0-.46.365-.834.816-.834.451 0 .817.373.817.834M93.38 114.47a.825.825 0 0 1-.818.832.825.825 0 0 1-.816-.832c0-.46.366-.834.816-.834.452 0 .817.373.817.834M102.223 114.47a.825.825 0 0 1-.816.832.825.825 0 0 1-.817-.832c0-.46.366-.834.817-.834.451 0 .816.373.816.834M22.625 121.523c0 .46-.366.833-.817.833a.826.826 0 0 1-.817-.833c0-.461.366-.833.817-.833.451 0 .817.372.817.833M31.47 121.523c0 .46-.366.833-.818.833a.826.826 0 0 1-.817-.833c0-.461.366-.833.817-.833.452 0 .817.372.817.833M40.313 121.523c0 .46-.365.833-.817.833a.826.826 0 0 1-.816-.833c0-.461.366-.833.816-.833.452 0 .817.372.817.833M49.157 121.523c0 .46-.365.833-.816.833a.826.826 0 0 1-.817-.833c0-.461.366-.833.817-.833.451 0 .816.372.816.833M58.002 121.523c0 .46-.366.833-.817.833a.825.825 0 0 1-.816-.833c0-.461.365-.833.816-.833.451 0 .817.372.817.833M66.846 121.523c0 .46-.365.833-.817.833a.826.826 0 0 1-.816-.833c0-.461.366-.833.816-.833.452 0 .817.372.817.833M75.69 121.523c0 .46-.365.833-.816.833a.826.826 0 0 1-.817-.833c0-.461.366-.833.817-.833.451 0 .816.372.816.833M84.535 121.523c0 .46-.366.833-.817.833a.825.825 0 0 1-.816-.833c0-.461.365-.833.816-.833.451 0 .817.372.817.833M93.38 121.523c0 .46-.366.833-.818.833a.826.826 0 0 1-.816-.833c0-.461.366-.833.816-.833.452 0 .817.372.817.833M102.223 121.523c0 .46-.365.833-.816.833a.826.826 0 0 1-.817-.833c0-.461.366-.833.817-.833.451 0 .816.372.816.833M22.625 128.576c0 .46-.366.833-.817.833a.826.826 0 0 1-.817-.833c0-.46.366-.833.817-.833.451 0 .817.373.817.833M31.47 128.576c0 .46-.366.833-.818.833a.826.826 0 0 1-.817-.833c0-.46.366-.833.817-.833.452 0 .817.373.817.833M40.313 128.576c0 .46-.365.833-.817.833a.826.826 0 0 1-.816-.833c0-.46.366-.833.816-.833.452 0 .817.373.817.833M49.157 128.576c0 .46-.365.833-.816.833a.826.826 0 0 1-.817-.833c0-.46.366-.833.817-.833.451 0 .816.373.816.833M58.002 128.576c0 .46-.366.833-.817.833a.825.825 0 0 1-.816-.833c0-.46.365-.833.816-.833.451 0 .817.373.817.833M66.846 128.576c0 .46-.365.833-.817.833a.826.826 0 0 1-.816-.833c0-.46.366-.833.816-.833.452 0 .817.373.817.833M75.69 128.576c0 .46-.365.833-.816.833a.826.826 0 0 1-.817-.833c0-.46.366-.833.817-.833.451 0 .816.373.816.833M84.535 128.576c0 .46-.366.833-.817.833a.825.825 0 0 1-.816-.833c0-.46.365-.833.816-.833.451 0 .817.373.817.833M93.38 128.576c0 .46-.366.833-.818.833a.826.826 0 0 1-.816-.833c0-.46.366-.833.816-.833.452 0 .817.373.817.833M102.223 128.576c0 .46-.365.833-.816.833a.826.826 0 0 1-.817-.833c0-.46.366-.833.817-.833.451 0 .816.373.816.833M22.625 135.629c0 .46-.366.833-.817.833a.826.826 0 0 1-.817-.833c0-.46.366-.834.817-.834.451 0 .817.374.817.834M31.47 135.629c0 .46-.366.833-.818.833a.826.826 0 0 1-.817-.833c0-.46.366-.834.817-.834.452 0 .817.374.817.834M40.313 135.629c0 .46-.365.833-.817.833a.826.826 0 0 1-.816-.833c0-.46.366-.834.816-.834.452 0 .817.374.817.834M49.157 135.629c0 .46-.365.833-.816.833a.826.826 0 0 1-.817-.833c0-.46.366-.834.817-.834.451 0 .816.374.816.834M58.002 135.629c0 .46-.366.833-.817.833a.825.825 0 0 1-.816-.833c0-.46.365-.834.816-.834.451 0 .817.374.817.834M66.846 135.629c0 .46-.365.833-.817.833a.826.826 0 0 1-.816-.833c0-.46.366-.834.816-.834.452 0 .817.374.817.834M75.69 135.629c0 .46-.365.833-.816.833a.826.826 0 0 1-.817-.833c0-.46.366-.834.817-.834.451 0 .816.374.816.834M84.535 135.629c0 .46-.366.833-.817.833a.825.825 0 0 1-.816-.833c0-.46.365-.834.816-.834.451 0 .817.374.817.834M93.38 135.629c0 .46-.366.833-.818.833a.826.826 0 0 1-.816-.833c0-.46.366-.834.816-.834.452 0 .817.374.817.834M102.223 135.629c0 .46-.365.833-.816.833a.826.826 0 0 1-.817-.833c0-.46.366-.834.817-.834.451 0 .816.374.816.834M22.625 142.681c0 .461-.366.833-.817.833a.825.825 0 0 1-.817-.833c0-.46.366-.833.817-.833.451 0 .817.374.817.833M31.47 142.681c0 .461-.366.833-.818.833a.825.825 0 0 1-.817-.833c0-.46.366-.833.817-.833.452 0 .817.374.817.833M40.313 142.681c0 .461-.365.833-.817.833a.825.825 0 0 1-.816-.833c0-.46.366-.833.816-.833.452 0 .817.374.817.833M49.157 142.681c0 .461-.365.833-.816.833a.825.825 0 0 1-.817-.833c0-.46.366-.833.817-.833.451 0 .816.374.816.833M58.002 142.681c0 .461-.366.833-.817.833a.824.824 0 0 1-.816-.833c0-.46.365-.833.816-.833.451 0 .817.374.817.833M66.846 142.681c0 .461-.365.833-.817.833a.825.825 0 0 1-.816-.833c0-.46.366-.833.816-.833.452 0 .817.374.817.833M75.69 142.681c0 .461-.365.833-.816.833a.825.825 0 0 1-.817-.833c0-.46.366-.833.817-.833.451 0 .816.374.816.833M84.535 142.681c0 .461-.366.833-.817.833a.824.824 0 0 1-.816-.833c0-.46.365-.833.816-.833.451 0 .817.374.817.833M93.38 142.681c0 .461-.366.833-.818.833a.825.825 0 0 1-.816-.833c0-.46.366-.833.816-.833.452 0 .817.374.817.833M102.223 142.681c0 .461-.365.833-.816.833a.825.825 0 0 1-.817-.833c0-.46.366-.833.817-.833.451 0 .816.374.816.833M22.625 149.734c0 .461-.366.833-.817.833a.825.825 0 0 1-.817-.833c0-.458.366-.832.817-.832.451 0 .817.374.817.832M31.47 149.734c0 .461-.366.833-.818.833a.825.825 0 0 1-.817-.833c0-.458.366-.832.817-.832.452 0 .817.374.817.832M40.313 149.734c0 .461-.365.833-.817.833a.825.825 0 0 1-.816-.833c0-.458.366-.832.816-.832.452 0 .817.374.817.832M49.157 149.734c0 .461-.365.833-.816.833a.825.825 0 0 1-.817-.833c0-.458.366-.832.817-.832.451 0 .816.374.816.832M58.002 149.734c0 .461-.366.833-.817.833a.824.824 0 0 1-.816-.833c0-.458.365-.832.816-.832.451 0 .817.374.817.832M66.846 149.734c0 .461-.365.833-.817.833a.825.825 0 0 1-.816-.833c0-.458.366-.832.816-.832.452 0 .817.374.817.832M75.69 149.734c0 .461-.365.833-.816.833a.825.825 0 0 1-.817-.833c0-.458.366-.832.817-.832.451 0 .816.374.816.832M84.535 149.734c0 .461-.366.833-.817.833a.824.824 0 0 1-.816-.833c0-.458.365-.832.816-.832.451 0 .817.374.817.832M93.38 149.734c0 .461-.366.833-.818.833a.825.825 0 0 1-.816-.833c0-.458.366-.832.816-.832.452 0 .817.374.817.832M102.223 149.734c0 .461-.365.833-.816.833a.825.825 0 0 1-.817-.833c0-.458.366-.832.817-.832.451 0 .816.374.816.832M22.625 156.788c0 .46-.366.833-.817.833a.826.826 0 0 1-.817-.833c0-.46.366-.833.817-.833.451 0 .817.373.817.833M31.47 156.788c0 .46-.366.833-.818.833a.826.826 0 0 1-.817-.833c0-.46.366-.833.817-.833.452 0 .817.373.817.833M40.313 156.788c0 .46-.365.833-.817.833a.826.826 0 0 1-.816-.833c0-.46.366-.833.816-.833.452 0 .817.373.817.833M49.157 156.788c0 .46-.365.833-.816.833a.826.826 0 0 1-.817-.833c0-.46.366-.833.817-.833.451 0 .816.373.816.833M58.002 156.788c0 .46-.366.833-.817.833a.825.825 0 0 1-.816-.833c0-.46.365-.833.816-.833.451 0 .817.373.817.833M66.846 156.788c0 .46-.365.833-.817.833a.826.826 0 0 1-.816-.833c0-.46.366-.833.816-.833.452 0 .817.373.817.833M75.69 156.788c0 .46-.365.833-.816.833a.826.826 0 0 1-.817-.833c0-.46.366-.833.817-.833.451 0 .816.373.816.833M84.535 156.788c0 .46-.366.833-.817.833a.825.825 0 0 1-.816-.833c0-.46.365-.833.816-.833.451 0 .817.373.817.833M93.38 156.788c0 .46-.366.833-.818.833a.826.826 0 0 1-.816-.833c0-.46.366-.833.816-.833.452 0 .817.373.817.833M102.223 156.788c0 .46-.365.833-.816.833a.826.826 0 0 1-.817-.833c0-.46.366-.833.817-.833.451 0 .816.373.816.833"/>
            </g>
            <path fill="#D6DAE3" d="M121.716.978c-21.977 0-39.792 17.815-39.792 39.792v27.308h79.583V40.77c0-21.977-17.815-39.792-39.791-39.792zm.425 14.048c14.024.227 25.322 11.666 25.322 25.744v13.263H95.968V40.77c0-14.22 11.528-25.748 25.748-25.748l.425.004z"/>
            <rect width="106.111" height="84.265" x="68.66" y="50.132" fill="#D6DAE3" rx="14.194"/>
            <circle cx="122.496" cy="85.243" r="10.143" fill="#3C4D6F"/>
            <path fill="#3C4D6F" d="M118.595 90.704h7.802v18.206c0 2.01-1.747 3.64-3.901 3.64-2.155 0-3.901-1.63-3.901-3.64V90.704z"/>
            <circle cx="174.612" cy="118.634" r="21.688" fill="#FF4702"/>
            <path fill="url(#a)" d="M185.114 128.785a1.983 1.983 0 0 1-2.805 0l-7.363-7.363-7.713 7.713a1.983 1.983 0 1 1-2.804-2.805l7.713-7.713-7.363-7.362a1.983 1.983 0 1 1 2.804-2.805l7.363 7.363 7.012-7.012a1.983 1.983 0 1 1 2.805 2.805l-7.012 7.011 7.363 7.363c.774.775.774 2.03 0 2.805z"/>
        </g>
    </g>
</svg>
