<svg width="412" height="232" viewBox="0 0 412 232" fill="none" xmlns="http://www.w3.org/2000/svg">
<ellipse opacity="0.4" cx="204.137" cy="218.353" rx="32.4118" ry="9.09804" fill="#E9EBEE"/>
<path d="M205.275 163.764V221.764" stroke="#E9EBEE" stroke-width="3.85952" stroke-linecap="round" stroke-linejoin="round"/>
<path d="M204.706 191.059L225.177 216.078" stroke="#E9EBEE" stroke-width="3.85952" stroke-linecap="round" stroke-linejoin="round"/>
<path d="M204.706 191.059L183.098 216.078" stroke="#E9EBEE" stroke-width="3.85952" stroke-linecap="round" stroke-linejoin="round"/>
<path opacity="0.4" d="M342.088 104.627H272.49C253.294 104.594 237.737 89.0393 237.687 69.8303V35.0407C237.632 15.7487 253.211 0.062927 272.49 0H411.687V35.0407C411.666 73.4875 380.508 104.64 342.088 104.627Z" fill="#E9EBEE"/>
<path opacity="0.4" d="M145.569 120.549V156.941H72.7843C32.5703 156.916 -0.0126409 124.333 3.67903e-06 84.157H109.18C118.842 84.1428 128.112 87.9736 134.94 94.8027C141.768 101.632 145.593 110.897 145.569 120.549Z" fill="#E9EBEE"/>
<g opacity="0.1">
<ellipse cx="283.676" cy="9.43817" rx="0.981801" ry="0.982237" fill="#FB043D"/>
<ellipse cx="294.339" cy="9.43817" rx="0.981801" ry="0.982237" fill="#FB043D"/>
<ellipse cx="305.001" cy="9.43817" rx="0.981801" ry="0.982237" fill="#FB043D"/>
<ellipse cx="315.657" cy="9.43817" rx="0.981801" ry="0.982237" fill="#FB043D"/>
<ellipse cx="326.32" cy="9.43817" rx="0.981801" ry="0.982237" fill="#FB043D"/>
<ellipse cx="336.982" cy="9.43817" rx="0.981801" ry="0.982237" fill="#FB043D"/>
<ellipse cx="347.645" cy="9.43817" rx="0.981801" ry="0.982237" fill="#FB043D"/>
<ellipse cx="358.307" cy="9.43817" rx="0.981801" ry="0.982237" fill="#FB043D"/>
<ellipse cx="368.971" cy="9.43817" rx="0.981801" ry="0.982237" fill="#FB043D"/>
<ellipse cx="379.633" cy="9.43817" rx="0.981801" ry="0.982237" fill="#FB043D"/>
<ellipse cx="283.676" cy="17.7822" rx="0.981801" ry="0.982237" fill="#FB043D"/>
<ellipse cx="294.339" cy="17.7822" rx="0.981801" ry="0.982237" fill="#FB043D"/>
<ellipse cx="305.001" cy="17.7822" rx="0.981801" ry="0.982237" fill="#FB043D"/>
<ellipse cx="315.657" cy="17.7822" rx="0.981801" ry="0.982237" fill="#FB043D"/>
<ellipse cx="326.32" cy="17.7822" rx="0.981801" ry="0.982237" fill="#FB043D"/>
<ellipse cx="336.982" cy="17.7822" rx="0.981801" ry="0.982237" fill="#FB043D"/>
<ellipse cx="347.645" cy="17.7822" rx="0.981801" ry="0.982237" fill="#FB043D"/>
<ellipse cx="358.307" cy="17.7822" rx="0.981801" ry="0.982237" fill="#FB043D"/>
<ellipse cx="368.971" cy="17.7822" rx="0.981801" ry="0.982237" fill="#FB043D"/>
<ellipse cx="379.633" cy="17.7822" rx="0.981801" ry="0.982237" fill="#FB043D"/>
<ellipse cx="283.676" cy="26.1291" rx="0.981801" ry="0.982237" fill="#FB043D"/>
<ellipse cx="294.339" cy="26.1291" rx="0.981801" ry="0.982237" fill="#FB043D"/>
<ellipse cx="305.001" cy="26.1291" rx="0.981801" ry="0.982237" fill="#FB043D"/>
<ellipse cx="315.657" cy="26.1291" rx="0.981801" ry="0.982237" fill="#FB043D"/>
<ellipse cx="326.32" cy="26.1291" rx="0.981801" ry="0.982237" fill="#FB043D"/>
<ellipse cx="336.982" cy="26.1291" rx="0.981801" ry="0.982237" fill="#FB043D"/>
<ellipse cx="347.645" cy="26.1291" rx="0.981801" ry="0.982237" fill="#FB043D"/>
<ellipse cx="358.307" cy="26.1291" rx="0.981801" ry="0.982237" fill="#FB043D"/>
<ellipse cx="368.971" cy="26.1291" rx="0.981801" ry="0.982237" fill="#FB043D"/>
<ellipse cx="379.633" cy="26.1291" rx="0.981801" ry="0.982237" fill="#FB043D"/>
<ellipse cx="283.676" cy="34.4731" rx="0.981801" ry="0.982237" fill="#FB043D"/>
<ellipse cx="294.339" cy="34.4731" rx="0.981801" ry="0.982237" fill="#FB043D"/>
<ellipse cx="305.001" cy="34.4731" rx="0.981801" ry="0.982237" fill="#FB043D"/>
<ellipse cx="315.657" cy="34.4731" rx="0.981801" ry="0.982237" fill="#FB043D"/>
<ellipse cx="326.32" cy="34.4731" rx="0.981801" ry="0.982237" fill="#FB043D"/>
<ellipse cx="336.982" cy="34.4731" rx="0.981801" ry="0.982237" fill="#FB043D"/>
<ellipse cx="347.645" cy="34.4731" rx="0.981801" ry="0.982237" fill="#FB043D"/>
<ellipse cx="358.307" cy="34.4731" rx="0.981801" ry="0.982237" fill="#FB043D"/>
<ellipse cx="368.971" cy="34.4731" rx="0.981801" ry="0.982237" fill="#FB043D"/>
<ellipse cx="379.633" cy="34.4731" rx="0.981801" ry="0.982237" fill="#FB043D"/>
<ellipse cx="283.676" cy="42.82" rx="0.981801" ry="0.982237" fill="#FB043D"/>
<ellipse cx="294.339" cy="42.82" rx="0.981801" ry="0.982237" fill="#FB043D"/>
<ellipse cx="305.001" cy="42.82" rx="0.981801" ry="0.982237" fill="#FB043D"/>
<ellipse cx="315.657" cy="42.82" rx="0.981801" ry="0.982237" fill="#FB043D"/>
<ellipse cx="326.32" cy="42.82" rx="0.981801" ry="0.982237" fill="#FB043D"/>
<ellipse cx="336.982" cy="42.82" rx="0.981801" ry="0.982237" fill="#FB043D"/>
<ellipse cx="347.645" cy="42.82" rx="0.981801" ry="0.982237" fill="#FB043D"/>
<ellipse cx="358.307" cy="42.82" rx="0.981801" ry="0.982237" fill="#FB043D"/>
<ellipse cx="368.971" cy="42.82" rx="0.981801" ry="0.982237" fill="#FB043D"/>
<ellipse cx="379.633" cy="42.82" rx="0.981801" ry="0.982237" fill="#FB043D"/>
<ellipse cx="283.676" cy="51.164" rx="0.981801" ry="0.982237" fill="#FB043D"/>
<ellipse cx="294.339" cy="51.164" rx="0.981801" ry="0.982237" fill="#FB043D"/>
<ellipse cx="305.001" cy="51.164" rx="0.981801" ry="0.982237" fill="#FB043D"/>
<ellipse cx="315.657" cy="51.164" rx="0.981801" ry="0.982237" fill="#FB043D"/>
<ellipse cx="326.32" cy="51.164" rx="0.981801" ry="0.982237" fill="#FB043D"/>
<ellipse cx="336.982" cy="51.164" rx="0.981801" ry="0.982237" fill="#FB043D"/>
<ellipse cx="347.645" cy="51.164" rx="0.981801" ry="0.982237" fill="#FB043D"/>
<ellipse cx="358.307" cy="51.164" rx="0.981801" ry="0.982237" fill="#FB043D"/>
<ellipse cx="368.971" cy="51.164" rx="0.981801" ry="0.982237" fill="#FB043D"/>
<ellipse cx="379.633" cy="51.164" rx="0.981801" ry="0.982237" fill="#FB043D"/>
<ellipse cx="283.676" cy="59.5178" rx="0.981801" ry="0.982237" fill="#FB043D"/>
<ellipse cx="294.339" cy="59.5178" rx="0.981801" ry="0.982237" fill="#FB043D"/>
<ellipse cx="305.001" cy="59.5178" rx="0.981801" ry="0.982237" fill="#FB043D"/>
<ellipse cx="315.657" cy="59.5178" rx="0.981801" ry="0.982237" fill="#FB043D"/>
<ellipse cx="326.32" cy="59.5178" rx="0.981801" ry="0.982237" fill="#FB043D"/>
<ellipse cx="336.982" cy="59.5178" rx="0.981801" ry="0.982237" fill="#FB043D"/>
<ellipse cx="347.645" cy="59.5178" rx="0.981801" ry="0.982237" fill="#FB043D"/>
<ellipse cx="358.307" cy="59.5178" rx="0.981801" ry="0.982237" fill="#FB043D"/>
<ellipse cx="368.971" cy="59.5178" rx="0.981801" ry="0.982237" fill="#FB043D"/>
<ellipse cx="379.633" cy="59.5178" rx="0.981801" ry="0.982237" fill="#FB043D"/>
<ellipse cx="283.676" cy="67.8627" rx="0.981801" ry="0.982237" fill="#FB043D"/>
<ellipse cx="294.339" cy="67.8627" rx="0.981801" ry="0.982237" fill="#FB043D"/>
<ellipse cx="305.001" cy="67.8627" rx="0.981801" ry="0.982237" fill="#FB043D"/>
<ellipse cx="315.657" cy="67.8627" rx="0.981801" ry="0.982237" fill="#FB043D"/>
<ellipse cx="326.32" cy="67.8627" rx="0.981801" ry="0.982237" fill="#FB043D"/>
<ellipse cx="336.982" cy="67.8627" rx="0.981801" ry="0.982237" fill="#FB043D"/>
<ellipse cx="347.645" cy="67.8627" rx="0.981801" ry="0.982237" fill="#FB043D"/>
<ellipse cx="358.307" cy="67.8627" rx="0.981801" ry="0.982237" fill="#FB043D"/>
<ellipse cx="368.971" cy="67.8627" rx="0.981801" ry="0.982237" fill="#FB043D"/>
<ellipse cx="379.633" cy="67.8627" rx="0.981801" ry="0.982237" fill="#FB043D"/>
<ellipse cx="283.676" cy="76.2077" rx="0.981801" ry="0.982237" fill="#FB043D"/>
<ellipse cx="294.339" cy="76.2077" rx="0.981801" ry="0.982237" fill="#FB043D"/>
<ellipse cx="305.001" cy="76.2077" rx="0.981801" ry="0.982237" fill="#FB043D"/>
<ellipse cx="315.657" cy="76.2077" rx="0.981801" ry="0.982237" fill="#FB043D"/>
<ellipse cx="326.32" cy="76.2077" rx="0.981801" ry="0.982237" fill="#FB043D"/>
<ellipse cx="336.982" cy="76.2077" rx="0.981801" ry="0.982237" fill="#FB043D"/>
<ellipse cx="347.645" cy="76.2077" rx="0.981801" ry="0.982237" fill="#FB043D"/>
<ellipse cx="358.307" cy="76.2077" rx="0.981801" ry="0.982237" fill="#FB043D"/>
<ellipse cx="368.971" cy="76.2077" rx="0.981801" ry="0.982237" fill="#FB043D"/>
<ellipse cx="379.633" cy="76.2077" rx="0.981801" ry="0.982237" fill="#FB043D"/>
<ellipse cx="283.676" cy="84.5527" rx="0.981801" ry="0.982237" fill="#FB043D"/>
<ellipse cx="294.339" cy="84.5527" rx="0.981801" ry="0.982237" fill="#FB043D"/>
<ellipse cx="305.001" cy="84.5527" rx="0.981801" ry="0.982237" fill="#FB043D"/>
<ellipse cx="315.657" cy="84.5527" rx="0.981801" ry="0.982237" fill="#FB043D"/>
<ellipse cx="326.32" cy="84.5527" rx="0.981801" ry="0.982237" fill="#FB043D"/>
<ellipse cx="336.982" cy="84.5527" rx="0.981801" ry="0.982237" fill="#FB043D"/>
<ellipse cx="347.645" cy="84.5527" rx="0.981801" ry="0.982237" fill="#FB043D"/>
<ellipse cx="358.307" cy="84.5527" rx="0.981801" ry="0.982237" fill="#FB043D"/>
<ellipse cx="368.971" cy="84.5527" rx="0.981801" ry="0.982237" fill="#FB043D"/>
<ellipse cx="379.633" cy="84.5527" rx="0.981801" ry="0.982237" fill="#FB043D"/>
<ellipse cx="283.676" cy="92.8976" rx="0.981801" ry="0.982237" fill="#FB043D"/>
<ellipse cx="294.339" cy="92.8976" rx="0.981801" ry="0.982237" fill="#FB043D"/>
<ellipse cx="305.001" cy="92.8976" rx="0.981801" ry="0.982237" fill="#FB043D"/>
<ellipse cx="315.657" cy="92.8976" rx="0.981801" ry="0.982237" fill="#FB043D"/>
<ellipse cx="326.32" cy="92.8976" rx="0.981801" ry="0.982237" fill="#FB043D"/>
<ellipse cx="336.982" cy="92.8976" rx="0.981801" ry="0.982237" fill="#FB043D"/>
<ellipse cx="347.645" cy="92.8976" rx="0.981801" ry="0.982237" fill="#FB043D"/>
<ellipse cx="358.307" cy="92.8976" rx="0.981801" ry="0.982237" fill="#FB043D"/>
<ellipse cx="368.971" cy="92.8976" rx="0.981801" ry="0.982237" fill="#FB043D"/>
<ellipse cx="379.633" cy="92.8976" rx="0.981801" ry="0.982237" fill="#FB043D"/>
<ellipse cx="283.676" cy="100.619" rx="0.981801" ry="0.982237" fill="#FB043D"/>
<ellipse cx="294.339" cy="100.619" rx="0.981801" ry="0.982237" fill="#FB043D"/>
<ellipse cx="305.001" cy="100.619" rx="0.981801" ry="0.982237" fill="#FB043D"/>
<ellipse cx="315.657" cy="100.619" rx="0.981801" ry="0.982237" fill="#FB043D"/>
<ellipse cx="326.32" cy="100.619" rx="0.981801" ry="0.982237" fill="#FB043D"/>
<ellipse cx="336.982" cy="100.619" rx="0.981801" ry="0.982237" fill="#FB043D"/>
<ellipse cx="347.645" cy="100.619" rx="0.981801" ry="0.982237" fill="#FB043D"/>
<ellipse cx="358.307" cy="100.619" rx="0.981801" ry="0.982237" fill="#FB043D"/>
<ellipse cx="368.971" cy="100.619" rx="0.981801" ry="0.982237" fill="#FB043D"/>
<ellipse cx="379.633" cy="100.619" rx="0.981801" ry="0.982237" fill="#FB043D"/>
<ellipse cx="283.676" cy="108.964" rx="0.981801" ry="0.982237" fill="#FB043D"/>
<ellipse cx="294.339" cy="108.964" rx="0.981801" ry="0.982237" fill="#FB043D"/>
<ellipse cx="305.001" cy="108.964" rx="0.981801" ry="0.982237" fill="#FB043D"/>
<ellipse cx="315.657" cy="108.964" rx="0.981801" ry="0.982237" fill="#FB043D"/>
<ellipse cx="326.32" cy="108.964" rx="0.981801" ry="0.982237" fill="#FB043D"/>
<ellipse cx="336.982" cy="108.964" rx="0.981801" ry="0.982237" fill="#FB043D"/>
<ellipse cx="347.645" cy="108.964" rx="0.981801" ry="0.982237" fill="#FB043D"/>
<ellipse cx="358.307" cy="108.964" rx="0.981801" ry="0.982237" fill="#FB043D"/>
<ellipse cx="368.971" cy="108.964" rx="0.981801" ry="0.982237" fill="#FB043D"/>
<ellipse cx="379.633" cy="108.964" rx="0.981801" ry="0.982237" fill="#FB043D"/>
<ellipse cx="283.676" cy="117.315" rx="0.981801" ry="0.982237" fill="#FB043D"/>
<ellipse cx="294.339" cy="117.315" rx="0.981801" ry="0.982237" fill="#FB043D"/>
<ellipse cx="305.001" cy="117.315" rx="0.981801" ry="0.982237" fill="#FB043D"/>
<ellipse cx="315.657" cy="117.315" rx="0.981801" ry="0.982237" fill="#FB043D"/>
<ellipse cx="326.32" cy="117.315" rx="0.981801" ry="0.982237" fill="#FB043D"/>
<ellipse cx="336.982" cy="117.315" rx="0.981801" ry="0.982237" fill="#FB043D"/>
<ellipse cx="347.645" cy="117.315" rx="0.981801" ry="0.982237" fill="#FB043D"/>
<ellipse cx="358.307" cy="117.315" rx="0.981801" ry="0.982237" fill="#FB043D"/>
<ellipse cx="368.971" cy="117.315" rx="0.981801" ry="0.982237" fill="#FB043D"/>
<ellipse cx="379.633" cy="117.315" rx="0.981801" ry="0.982237" fill="#FB043D"/>
<ellipse cx="283.676" cy="125.662" rx="0.981801" ry="0.982237" fill="#FB043D"/>
<ellipse cx="294.339" cy="125.662" rx="0.981801" ry="0.982237" fill="#FB043D"/>
<ellipse cx="305.001" cy="125.662" rx="0.981801" ry="0.982237" fill="#FB043D"/>
<ellipse cx="315.657" cy="125.662" rx="0.981801" ry="0.982237" fill="#FB043D"/>
<ellipse cx="326.32" cy="125.662" rx="0.981801" ry="0.982237" fill="#FB043D"/>
<ellipse cx="336.982" cy="125.662" rx="0.981801" ry="0.982237" fill="#FB043D"/>
<ellipse cx="347.645" cy="125.662" rx="0.981801" ry="0.982237" fill="#FB043D"/>
<ellipse cx="358.307" cy="125.662" rx="0.981801" ry="0.982237" fill="#FB043D"/>
<ellipse cx="368.971" cy="125.662" rx="0.981801" ry="0.982237" fill="#FB043D"/>
<ellipse cx="379.633" cy="125.662" rx="0.981801" ry="0.982237" fill="#FB043D"/>
<ellipse cx="283.676" cy="134.007" rx="0.981801" ry="0.982237" fill="#FB043D"/>
<ellipse cx="294.339" cy="134.007" rx="0.981801" ry="0.982237" fill="#FB043D"/>
<ellipse cx="305.001" cy="134.007" rx="0.981801" ry="0.982237" fill="#FB043D"/>
<ellipse cx="315.657" cy="134.007" rx="0.981801" ry="0.982237" fill="#FB043D"/>
<ellipse cx="326.32" cy="134.007" rx="0.981801" ry="0.982237" fill="#FB043D"/>
<ellipse cx="336.982" cy="134.007" rx="0.981801" ry="0.982237" fill="#FB043D"/>
<ellipse cx="347.645" cy="134.007" rx="0.981801" ry="0.982237" fill="#FB043D"/>
<ellipse cx="358.307" cy="134.007" rx="0.981801" ry="0.982237" fill="#FB043D"/>
<ellipse cx="368.971" cy="134.007" rx="0.981801" ry="0.982237" fill="#FB043D"/>
<ellipse cx="379.633" cy="134.007" rx="0.981801" ry="0.982237" fill="#FB043D"/>
<ellipse cx="283.676" cy="142.353" rx="0.981801" ry="0.982237" fill="#FB043D"/>
<ellipse cx="294.339" cy="142.353" rx="0.981801" ry="0.982237" fill="#FB043D"/>
<ellipse cx="305.001" cy="142.353" rx="0.981801" ry="0.982237" fill="#FB043D"/>
<ellipse cx="315.657" cy="142.353" rx="0.981801" ry="0.982237" fill="#FB043D"/>
<ellipse cx="326.32" cy="142.353" rx="0.981801" ry="0.982237" fill="#FB043D"/>
<ellipse cx="336.982" cy="142.353" rx="0.981801" ry="0.982237" fill="#FB043D"/>
<ellipse cx="347.645" cy="142.353" rx="0.981801" ry="0.982237" fill="#FB043D"/>
<ellipse cx="358.307" cy="142.353" rx="0.981801" ry="0.982237" fill="#FB043D"/>
<ellipse cx="368.971" cy="142.353" rx="0.981801" ry="0.982237" fill="#FB043D"/>
<ellipse cx="379.633" cy="142.353" rx="0.981801" ry="0.982237" fill="#FB043D"/>
<ellipse cx="283.676" cy="150.697" rx="0.981801" ry="0.982237" fill="#FB043D"/>
<ellipse cx="294.339" cy="150.697" rx="0.981801" ry="0.982237" fill="#FB043D"/>
<ellipse cx="305.001" cy="150.697" rx="0.981801" ry="0.982237" fill="#FB043D"/>
<ellipse cx="315.657" cy="150.697" rx="0.981801" ry="0.982237" fill="#FB043D"/>
<ellipse cx="326.32" cy="150.697" rx="0.981801" ry="0.982237" fill="#FB043D"/>
<ellipse cx="336.982" cy="150.697" rx="0.981801" ry="0.982237" fill="#FB043D"/>
<ellipse cx="347.645" cy="150.697" rx="0.981801" ry="0.982237" fill="#FB043D"/>
<ellipse cx="358.307" cy="150.697" rx="0.981801" ry="0.982237" fill="#FB043D"/>
<ellipse cx="368.971" cy="150.697" rx="0.981801" ry="0.982237" fill="#FB043D"/>
<ellipse cx="379.633" cy="150.697" rx="0.981801" ry="0.982237" fill="#FB043D"/>
<ellipse cx="283.676" cy="159.043" rx="0.981801" ry="0.982237" fill="#FB043D"/>
<ellipse cx="294.339" cy="159.043" rx="0.981801" ry="0.982237" fill="#FB043D"/>
<ellipse cx="305.001" cy="159.043" rx="0.981801" ry="0.982237" fill="#FB043D"/>
<ellipse cx="315.657" cy="159.043" rx="0.981801" ry="0.982237" fill="#FB043D"/>
<ellipse cx="326.32" cy="159.043" rx="0.981801" ry="0.982237" fill="#FB043D"/>
<ellipse cx="336.982" cy="159.043" rx="0.981801" ry="0.982237" fill="#FB043D"/>
<ellipse cx="347.645" cy="159.043" rx="0.981801" ry="0.982237" fill="#FB043D"/>
<ellipse cx="358.307" cy="159.043" rx="0.981801" ry="0.982237" fill="#FB043D"/>
<ellipse cx="368.971" cy="159.043" rx="0.981801" ry="0.982237" fill="#FB043D"/>
<ellipse cx="379.633" cy="159.043" rx="0.981801" ry="0.982237" fill="#FB043D"/>
<ellipse cx="283.676" cy="167.388" rx="0.981801" ry="0.982237" fill="#FB043D"/>
<ellipse cx="294.339" cy="167.388" rx="0.981801" ry="0.982237" fill="#FB043D"/>
<ellipse cx="305.001" cy="167.388" rx="0.981801" ry="0.982237" fill="#FB043D"/>
<ellipse cx="315.657" cy="167.388" rx="0.981801" ry="0.982237" fill="#FB043D"/>
<ellipse cx="326.32" cy="167.388" rx="0.981801" ry="0.982237" fill="#FB043D"/>
<ellipse cx="336.982" cy="167.388" rx="0.981801" ry="0.982237" fill="#FB043D"/>
<ellipse cx="347.645" cy="167.388" rx="0.981801" ry="0.982237" fill="#FB043D"/>
<ellipse cx="358.307" cy="167.388" rx="0.981801" ry="0.982237" fill="#FB043D"/>
<ellipse cx="368.971" cy="167.388" rx="0.981801" ry="0.982237" fill="#FB043D"/>
<ellipse cx="379.633" cy="167.388" rx="0.981801" ry="0.982237" fill="#FB043D"/>
<ellipse cx="283.676" cy="175.741" rx="0.981801" ry="0.982237" fill="#FB043D"/>
<ellipse cx="294.339" cy="175.741" rx="0.981801" ry="0.982237" fill="#FB043D"/>
<ellipse cx="305.001" cy="175.741" rx="0.981801" ry="0.982237" fill="#FB043D"/>
<ellipse cx="315.657" cy="175.741" rx="0.981801" ry="0.982237" fill="#FB043D"/>
<ellipse cx="326.32" cy="175.741" rx="0.981801" ry="0.982237" fill="#FB043D"/>
<ellipse cx="336.982" cy="175.741" rx="0.981801" ry="0.982237" fill="#FB043D"/>
<ellipse cx="347.645" cy="175.741" rx="0.981801" ry="0.982237" fill="#FB043D"/>
<ellipse cx="358.307" cy="175.741" rx="0.981801" ry="0.982237" fill="#FB043D"/>
<ellipse cx="368.971" cy="175.741" rx="0.981801" ry="0.982237" fill="#FB043D"/>
<ellipse cx="379.633" cy="175.741" rx="0.981801" ry="0.982237" fill="#FB043D"/>
<ellipse cx="283.676" cy="184.086" rx="0.981801" ry="0.982237" fill="#FB043D"/>
<ellipse cx="294.339" cy="184.086" rx="0.981801" ry="0.982237" fill="#FB043D"/>
<ellipse cx="305.001" cy="184.086" rx="0.981801" ry="0.982237" fill="#FB043D"/>
<ellipse cx="315.657" cy="184.086" rx="0.981801" ry="0.982237" fill="#FB043D"/>
<ellipse cx="326.32" cy="184.086" rx="0.981801" ry="0.982237" fill="#FB043D"/>
<ellipse cx="336.982" cy="184.086" rx="0.981801" ry="0.982237" fill="#FB043D"/>
<ellipse cx="347.645" cy="184.086" rx="0.981801" ry="0.982237" fill="#FB043D"/>
<ellipse cx="358.307" cy="184.086" rx="0.981801" ry="0.982237" fill="#FB043D"/>
<ellipse cx="368.971" cy="184.086" rx="0.981801" ry="0.982237" fill="#FB043D"/>
<ellipse cx="379.633" cy="184.086" rx="0.981801" ry="0.982237" fill="#FB043D"/>
</g>
<g opacity="0.3">
<ellipse cx="14.7534" cy="47.9214" rx="0.97804" ry="0.986695" fill="#FFC916"/>
<ellipse cx="25.3755" cy="47.9215" rx="0.97804" ry="0.986695" fill="#FFC916"/>
<ellipse cx="35.9976" cy="47.9215" rx="0.97804" ry="0.986695" fill="#FFC916"/>
<ellipse cx="46.6196" cy="47.9215" rx="0.97804" ry="0.986695" fill="#FFC916"/>
<ellipse cx="57.2417" cy="47.9215" rx="0.97804" ry="0.986695" fill="#FFC916"/>
<ellipse cx="67.856" cy="47.9215" rx="0.97804" ry="0.986695" fill="#FFC916"/>
<ellipse cx="78.478" cy="47.9215" rx="0.97804" ry="0.986695" fill="#FFC916"/>
<ellipse cx="89.0991" cy="47.9215" rx="0.97804" ry="0.986695" fill="#FFC916"/>
<ellipse cx="99.7212" cy="47.9215" rx="0.97804" ry="0.986695" fill="#FFC916"/>
<ellipse cx="110.343" cy="47.9215" rx="0.97804" ry="0.986695" fill="#FFC916"/>
<ellipse cx="14.7534" cy="56.3047" rx="0.97804" ry="0.986695" fill="#FFC916"/>
<ellipse cx="25.3755" cy="56.3047" rx="0.97804" ry="0.986695" fill="#FFC916"/>
<ellipse cx="35.9976" cy="56.3047" rx="0.97804" ry="0.986695" fill="#FFC916"/>
<ellipse cx="46.6196" cy="56.3047" rx="0.97804" ry="0.986695" fill="#FFC916"/>
<ellipse cx="57.2417" cy="56.3047" rx="0.97804" ry="0.986695" fill="#FFC916"/>
<ellipse cx="67.856" cy="56.3047" rx="0.97804" ry="0.986695" fill="#FFC916"/>
<ellipse cx="78.478" cy="56.3047" rx="0.97804" ry="0.986695" fill="#FFC916"/>
<ellipse cx="89.0991" cy="56.3047" rx="0.97804" ry="0.986695" fill="#FFC916"/>
<ellipse cx="99.7212" cy="56.3047" rx="0.97804" ry="0.986695" fill="#FFC916"/>
<ellipse cx="110.343" cy="56.3047" rx="0.97804" ry="0.986695" fill="#FFC916"/>
<ellipse cx="14.7534" cy="64.6946" rx="0.97804" ry="0.986695" fill="#FFC916"/>
<ellipse cx="25.3755" cy="64.6946" rx="0.97804" ry="0.986695" fill="#FFC916"/>
<ellipse cx="35.9976" cy="64.6946" rx="0.97804" ry="0.986695" fill="#FFC916"/>
<ellipse cx="46.6196" cy="64.6946" rx="0.97804" ry="0.986695" fill="#FFC916"/>
<ellipse cx="57.2417" cy="64.6946" rx="0.97804" ry="0.986695" fill="#FFC916"/>
<ellipse cx="67.856" cy="64.6946" rx="0.97804" ry="0.986695" fill="#FFC916"/>
<ellipse cx="78.478" cy="64.6946" rx="0.97804" ry="0.986695" fill="#FFC916"/>
<ellipse cx="89.0991" cy="64.6946" rx="0.97804" ry="0.986695" fill="#FFC916"/>
<ellipse cx="99.7212" cy="64.6946" rx="0.97804" ry="0.986695" fill="#FFC916"/>
<ellipse cx="110.343" cy="64.6946" rx="0.97804" ry="0.986695" fill="#FFC916"/>
<ellipse cx="14.7534" cy="73.0787" rx="0.97804" ry="0.986695" fill="#FFC916"/>
<ellipse cx="25.3755" cy="73.0787" rx="0.97804" ry="0.986695" fill="#FFC916"/>
<ellipse cx="35.9976" cy="73.0787" rx="0.97804" ry="0.986695" fill="#FFC916"/>
<ellipse cx="46.6196" cy="73.0787" rx="0.97804" ry="0.986695" fill="#FFC916"/>
<ellipse cx="57.2417" cy="73.0787" rx="0.97804" ry="0.986695" fill="#FFC916"/>
<ellipse cx="67.856" cy="73.0787" rx="0.97804" ry="0.986695" fill="#FFC916"/>
<ellipse cx="78.478" cy="73.0787" rx="0.97804" ry="0.986695" fill="#FFC916"/>
<ellipse cx="89.0991" cy="73.0787" rx="0.97804" ry="0.986695" fill="#FFC916"/>
<ellipse cx="99.7212" cy="73.0787" rx="0.97804" ry="0.986695" fill="#FFC916"/>
<ellipse cx="110.343" cy="73.0787" rx="0.97804" ry="0.986695" fill="#FFC916"/>
<ellipse cx="14.7534" cy="81.4618" rx="0.97804" ry="0.986695" fill="#FFC916"/>
<ellipse cx="25.3755" cy="81.4618" rx="0.97804" ry="0.986695" fill="#FFC916"/>
<ellipse cx="35.9976" cy="81.4618" rx="0.97804" ry="0.986695" fill="#FFC916"/>
<ellipse cx="46.6196" cy="81.4618" rx="0.97804" ry="0.986695" fill="#FFC916"/>
<ellipse cx="57.2417" cy="81.4618" rx="0.97804" ry="0.986695" fill="#FFC916"/>
<ellipse cx="67.856" cy="81.4618" rx="0.97804" ry="0.986695" fill="#FFC916"/>
<ellipse cx="78.478" cy="81.4618" rx="0.97804" ry="0.986695" fill="#FFC916"/>
<ellipse cx="89.0991" cy="81.4618" rx="0.97804" ry="0.986695" fill="#FFC916"/>
<ellipse cx="99.7212" cy="81.4618" rx="0.97804" ry="0.986695" fill="#FFC916"/>
<ellipse cx="110.343" cy="81.4618" rx="0.97804" ry="0.986695" fill="#FFC916"/>
<ellipse cx="14.7534" cy="89.845" rx="0.97804" ry="0.986695" fill="#FFC916"/>
<ellipse cx="25.3755" cy="89.845" rx="0.97804" ry="0.986695" fill="#FFC916"/>
<ellipse cx="35.9976" cy="89.845" rx="0.97804" ry="0.986695" fill="#FFC916"/>
<ellipse cx="46.6196" cy="89.845" rx="0.97804" ry="0.986695" fill="#FFC916"/>
<ellipse cx="57.2417" cy="89.845" rx="0.97804" ry="0.986695" fill="#FFC916"/>
<ellipse cx="67.856" cy="89.845" rx="0.97804" ry="0.986695" fill="#FFC916"/>
<ellipse cx="78.478" cy="89.845" rx="0.97804" ry="0.986695" fill="#FFC916"/>
<ellipse cx="89.0991" cy="89.845" rx="0.97804" ry="0.986695" fill="#FFC916"/>
<ellipse cx="99.7212" cy="89.845" rx="0.97804" ry="0.986695" fill="#FFC916"/>
<ellipse cx="110.343" cy="89.845" rx="0.97804" ry="0.986695" fill="#FFC916"/>
<ellipse cx="14.7534" cy="98.2271" rx="0.97804" ry="0.986695" fill="#FFC916"/>
<ellipse cx="25.3755" cy="98.2271" rx="0.97804" ry="0.986695" fill="#FFC916"/>
<ellipse cx="35.9976" cy="98.2271" rx="0.97804" ry="0.986695" fill="#FFC916"/>
<ellipse cx="46.6196" cy="98.2271" rx="0.97804" ry="0.986695" fill="#FFC916"/>
<ellipse cx="57.2417" cy="98.2271" rx="0.97804" ry="0.986695" fill="#FFC916"/>
<ellipse cx="67.856" cy="98.2271" rx="0.97804" ry="0.986695" fill="#FFC916"/>
<ellipse cx="78.478" cy="98.2271" rx="0.97804" ry="0.986695" fill="#FFC916"/>
<ellipse cx="89.0991" cy="98.2271" rx="0.97804" ry="0.986695" fill="#FFC916"/>
<ellipse cx="99.7212" cy="98.2271" rx="0.97804" ry="0.986695" fill="#FFC916"/>
<ellipse cx="110.343" cy="98.2271" rx="0.97804" ry="0.986695" fill="#FFC916"/>
<ellipse cx="14.7534" cy="106.611" rx="0.97804" ry="0.986695" fill="#FFC916"/>
<ellipse cx="25.3755" cy="106.611" rx="0.97804" ry="0.986695" fill="#FFC916"/>
<ellipse cx="35.9976" cy="106.611" rx="0.97804" ry="0.986695" fill="#FFC916"/>
<ellipse cx="46.6196" cy="106.611" rx="0.97804" ry="0.986695" fill="#FFC916"/>
<ellipse cx="57.2417" cy="106.611" rx="0.97804" ry="0.986695" fill="#FFC916"/>
<ellipse cx="67.856" cy="106.611" rx="0.97804" ry="0.986695" fill="#FFC916"/>
<ellipse cx="78.478" cy="106.611" rx="0.97804" ry="0.986695" fill="#FFC916"/>
<ellipse cx="89.0991" cy="106.611" rx="0.97804" ry="0.986695" fill="#FFC916"/>
<ellipse cx="99.7212" cy="106.611" rx="0.97804" ry="0.986695" fill="#FFC916"/>
<ellipse cx="110.343" cy="106.611" rx="0.97804" ry="0.986695" fill="#FFC916"/>
<ellipse cx="14.7534" cy="114.994" rx="0.97804" ry="0.986695" fill="#FFC916"/>
<ellipse cx="25.3755" cy="114.994" rx="0.97804" ry="0.986695" fill="#FFC916"/>
<ellipse cx="35.9976" cy="114.994" rx="0.97804" ry="0.986695" fill="#FFC916"/>
<ellipse cx="46.6196" cy="114.994" rx="0.97804" ry="0.986695" fill="#FFC916"/>
<ellipse cx="57.2417" cy="114.994" rx="0.97804" ry="0.986695" fill="#FFC916"/>
<ellipse cx="67.856" cy="114.994" rx="0.97804" ry="0.986695" fill="#FFC916"/>
<ellipse cx="78.478" cy="114.994" rx="0.97804" ry="0.986695" fill="#FFC916"/>
<ellipse cx="89.0991" cy="114.994" rx="0.97804" ry="0.986695" fill="#FFC916"/>
<ellipse cx="99.7212" cy="114.994" rx="0.97804" ry="0.986695" fill="#FFC916"/>
<ellipse cx="110.343" cy="114.994" rx="0.97804" ry="0.986695" fill="#FFC916"/>
<ellipse cx="14.7534" cy="123.384" rx="0.97804" ry="0.986695" fill="#FFC916"/>
<ellipse cx="25.3755" cy="123.384" rx="0.97804" ry="0.986695" fill="#FFC916"/>
<ellipse cx="35.9976" cy="123.384" rx="0.97804" ry="0.986695" fill="#FFC916"/>
<ellipse cx="46.6196" cy="123.384" rx="0.97804" ry="0.986695" fill="#FFC916"/>
<ellipse cx="57.2417" cy="123.384" rx="0.97804" ry="0.986695" fill="#FFC916"/>
<ellipse cx="67.856" cy="123.384" rx="0.97804" ry="0.986695" fill="#FFC916"/>
<ellipse cx="78.478" cy="123.384" rx="0.97804" ry="0.986695" fill="#FFC916"/>
<ellipse cx="89.0991" cy="123.384" rx="0.97804" ry="0.986695" fill="#FFC916"/>
<ellipse cx="99.7212" cy="123.384" rx="0.97804" ry="0.986695" fill="#FFC916"/>
<ellipse cx="110.343" cy="123.384" rx="0.97804" ry="0.986695" fill="#FFC916"/>
<ellipse cx="14.7534" cy="131.767" rx="0.97804" ry="0.986695" fill="#FFC916"/>
<ellipse cx="25.3755" cy="131.767" rx="0.97804" ry="0.986695" fill="#FFC916"/>
<ellipse cx="35.9976" cy="131.767" rx="0.97804" ry="0.986695" fill="#FFC916"/>
<ellipse cx="46.6196" cy="131.767" rx="0.97804" ry="0.986695" fill="#FFC916"/>
<ellipse cx="57.2417" cy="131.767" rx="0.97804" ry="0.986695" fill="#FFC916"/>
<ellipse cx="67.856" cy="131.767" rx="0.97804" ry="0.986695" fill="#FFC916"/>
<ellipse cx="78.478" cy="131.767" rx="0.97804" ry="0.986695" fill="#FFC916"/>
<ellipse cx="89.0991" cy="131.767" rx="0.97804" ry="0.986695" fill="#FFC916"/>
<ellipse cx="99.7212" cy="131.767" rx="0.97804" ry="0.986695" fill="#FFC916"/>
<ellipse cx="110.343" cy="131.767" rx="0.97804" ry="0.986695" fill="#FFC916"/>
</g>
<rect x="90.9805" y="21.6073" width="225.177" height="147.843" fill="white" stroke="#E9EBEE" stroke-width="0.643253"/>
<g opacity="0.5">
<path d="M107.26 44.0649H218.928" stroke="#E9EBEE" stroke-width="0.643253"/>
<path d="M107.26 53.9222H218.928" stroke="#E9EBEE" stroke-width="0.643253"/>
<path d="M107.26 63.7696H218.928" stroke="#E9EBEE" stroke-width="0.643253"/>
<path d="M107.26 73.6249H218.928" stroke="#E9EBEE" stroke-width="0.643253"/>
<path d="M218.928 83.4831H113.422" stroke="#E9EBEE" stroke-width="0.643253"/>
</g>
<rect x="241.098" y="116" width="6.82353" height="29.5686" rx="1.09353" fill="#FF4702"/>
<rect x="268.392" y="125.097" width="6.82353" height="20.4706" rx="1.09353" fill="#FF4702"/>
<rect x="254.745" y="105.764" width="6.82353" height="39.8039" rx="1.09353" fill="#3C4D6F"/>
<rect x="282.039" y="111.45" width="6.82353" height="34.1177" rx="1.09353" fill="#3C4D6F"/>
<g opacity="0.5">
<path d="M107.26 105.683H218.928" stroke="#E9EBEE" stroke-width="0.643253"/>
<path d="M107.26 115.54H218.928" stroke="#E9EBEE" stroke-width="0.643253"/>
<path d="M107.26 125.394H218.928" stroke="#E9EBEE" stroke-width="0.643253"/>
<path d="M107.26 135.242H218.928" stroke="#E9EBEE" stroke-width="0.643253"/>
<path d="M218.928 145.101H107.26" stroke="#E9EBEE" stroke-width="0.643253"/>
</g>
<path d="M109.177 144.431C109.177 144.431 117.499 113.559 138.526 134.479C144.039 139.967 151.957 144.485 158.996 138.982C163.806 135.218 166.517 129.438 168.449 123.765C170.945 116.46 173.793 106.916 182.306 104.884C189.125 103.26 194.179 109.679 197.18 114.89C200.318 120.37 204.525 134.31 212.824 133.994C217.138 133.825 219.925 128.953 221.406 125.412C221.528 125.112 221.65 124.812 221.765 124.504" stroke="#FF4702" stroke-width="0.643253"/>
<circle cx="122.823" cy="127.372" r="2.27451" fill="#FF4702" stroke="white" stroke-width="0.643253"/>
<circle cx="151.255" cy="142.156" r="2.27451" fill="#FF4702" stroke="white" stroke-width="0.643253"/>
<circle cx="184.235" cy="104.628" r="2.27451" fill="#FF4702" stroke="white" stroke-width="0.643253"/>
<circle cx="212.667" cy="134.197" r="2.27451" fill="#FF4702" stroke="white" stroke-width="0.643253"/>
<path d="M211.53 143.792C211.53 143.792 200.354 121.36 187.882 134.817C175.409 148.275 171.61 142.015 156.941 125.204C141.844 107.894 127.373 144.431 127.373 144.431" stroke="#3C4D6F" stroke-width="0.643253"/>
<circle cx="195.608" cy="129.647" r="2.27451" fill="#3C4D6F" stroke="white" stroke-width="0.643253"/>
<circle cx="163.765" cy="133.059" r="2.27451" fill="#3C4D6F" stroke="white" stroke-width="0.643253"/>
<circle cx="147.843" cy="120.549" r="2.27451" fill="#3C4D6F" stroke="white" stroke-width="0.643253"/>
<circle cx="254.745" cy="52.3126" r="9.09804" stroke="#E9EBEE" stroke-width="1.92976"/>
<circle cx="254.745" cy="75.0586" r="9.09804" stroke="#E9EBEE" stroke-width="1.92976"/>
<path d="M263.843 51.176C263.843 56.2008 259.77 60.2741 254.745 60.2741C249.72 60.2741 245.647 56.2008 245.647 51.176C245.647 46.1513 249.72 42.078 254.745 42.078" stroke="#FF4702" stroke-width="1.92976"/>
<path d="M254.745 85.2934C249.72 85.2934 245.647 81.22 245.647 76.1953C245.647 71.1706 249.72 67.0973 254.745 67.0973C259.77 67.0973 263.843 71.1706 263.843 76.1953" stroke="#3C4D6F" stroke-width="1.92976"/>
<rect x="272.941" y="44.3533" width="27.2941" height="2.27451" fill="#E9EBEE"/>
<rect x="272.941" y="48.9028" width="21.6078" height="2.27451" fill="#E9EBEE"/>
<rect x="271.804" y="54.5891" width="26.1569" height="2.27451" fill="#E9EBEE"/>
<rect x="272.941" y="69.3726" width="27.2941" height="2.27451" fill="#E9EBEE"/>
<rect x="272.941" y="75.0587" width="21.6078" height="2.27451" fill="#E9EBEE"/>
<rect x="271.804" y="79.6074" width="26.1569" height="2.27451" fill="#E9EBEE"/>
<path d="M110.313 83.0116C110.313 83.0116 124.437 50.2276 140.054 63.7341C155.222 76.8584 163.389 84.6474 173.791 73.0824C190.621 54.3705 189.607 16.9773 213.804 83.0193L110.313 83.0116Z" fill="#FF4702"/>
<path d="M122.823 83.0202C122.823 83.0202 129.567 66.0458 137.943 72.3598C150.659 81.9042 155.86 64.504 165.68 68.9898C173.951 72.7709 176.665 83.0202 183.597 77.969C190.53 72.9177 199.019 83.0202 199.019 83.0202H122.823Z" fill="#3C4D6F"/>
<ellipse opacity="0.4" cx="51.7449" cy="228.588" rx="24.451" ry="3.41177" fill="#E9EBEE"/>
<ellipse opacity="0.4" cx="346.863" cy="228.588" rx="25.0196" ry="3.41177" fill="#E9EBEE"/>
<path d="M340.168 92.4235L323.006 97.3019L318.296 74.2903L316.157 73.9221L316.68 103.224C323.706 104.052 335.012 102.717 340.538 102.411L341.176 98.3988L340.168 92.4235Z" fill="#232E4A"/>
<path d="M316.251 73.5492L318.431 73.9221L318.408 71.4363L316.251 68.2358L316.157 69.3311L316.416 71.9024L316.251 73.5492Z" fill="#FAC7D4"/>
<rect x="85.2939" y="166.04" width="239.961" height="5.68628" fill="#E9EBEE"/>
<rect x="87.5684" y="19.333" width="232" height="9.09804" fill="#E9EBEE"/>
<rect x="85.2939" y="18.1964" width="6.82353" height="12.5098" fill="#DCE2EA"/>
<rect x="317.294" y="18.1964" width="6.82353" height="12.5098" fill="#DCE2EA"/>
<circle cx="316.157" cy="103.491" r="14.7843" fill="#68758E"/>
<path d="M313.92 100.078L319.569 103.475L313.882 106.902L313.92 100.078Z" fill="white"/>
<path d="M56.6311 95.5294L69.5673 108.638L89.4586 100.993L90.9805 103.221L69.027 114.863C62.5361 112.216 57.8563 108.654 55.7256 107.521L55.8549 101.024L56.6311 95.5294Z" fill="#202E4B"/>
<path opacity="0.3" d="M56.0585 106.836L55.7256 102.353C55.7256 102.353 63.5651 109.25 69.3463 111.407L90.9805 102.72L69.1495 113.726C69.1495 113.726 60.6215 109.991 56.0585 106.836Z" fill="#00B3CC"/>
<path d="M89.8428 100.195L93.6066 98.2481L95.1893 97.8037L96.6146 98.2239L97.8036 100.333L91.7404 102.353L89.8428 100.195Z" fill="#FFC9D5"/>
<path d="M41.2678 86.4313L30.4863 87.903C30.4863 87.903 19.8806 100.03 31.8694 139.882L55.121 136.287L56.8631 95.2465L49.9862 90.2717L41.2678 86.4313Z" fill="#202E4B"/>
<path d="M44.4541 80.745C44.4541 80.745 44.0632 84.0337 42.0781 85.9652C42.0781 85.9652 45.9053 92.1175 48.9656 92.1175C50.1677 91.0739 50.9521 89.637 51.1762 88.0682L44.4541 80.745Z" fill="#F0939E"/>
<path d="M32.463 138.906L30.7061 150.082C30.7061 150.082 31.1873 202.722 35.9462 222.902H39.0476C39.0476 222.902 44.7766 175.175 45.6092 164.312L47.1675 153.83L59.1374 144.909C59.1374 144.909 56.6701 136.24 55.7076 135.333L32.463 138.906Z" fill="#3C4D6F"/>
<path d="M46.9384 154.417L45.4902 163.778C45.4902 163.778 50.7505 196.631 58.2338 222.902L61.4118 221.716L59.2044 145.569L46.9384 154.417Z" fill="#283A5E"/>
<path d="M36.3926 222.903V227.452H47.7651L39.4128 222.903H36.3926Z" fill="#001F3A"/>
<path d="M58 222.924L58.3924 227.451H70.5098L61.1159 221.764L58 222.924Z" fill="#001F3A"/>
<path d="M50.2856 90.1322C49.9534 91.0655 49.387 91.8914 48.6441 92.5256C48.6441 92.5256 46.0779 92.858 42.0781 86.4313C42.0781 86.4313 42.5799 93.6041 48.5294 94.3428C53.1815 94.9264 50.2856 90.1322 50.2856 90.1322Z" fill="#00B3CC"/>
<path d="M59.1369 69.5523C59.1369 69.5523 56.5843 88.7057 52.4401 88.7057C48.2959 88.7057 44.6798 83.3782 44.3717 80.1096C44.0636 76.841 47.5551 65.9606 48.6186 65.9606C49.6822 65.9606 59.1369 69.5523 59.1369 69.5523Z" fill="#FFC9D5"/>
<path d="M59.1369 69.7612L58.3928 74.0003C58.3928 74.0003 51.9865 69.3665 48.5044 71.8807C48.5044 71.8807 48.8392 74.0734 44.3525 77.3331C44.3525 77.3331 46.0713 67.7439 48.3779 65.9606C52.0964 66.832 55.7049 68.1067 59.1369 69.7612Z" fill="#283A5E"/>
<path d="M58.0001 73.2732C58.0001 73.2732 49.9451 70.0713 48.5036 71.5839C48.5036 71.5839 47.3012 77.8418 43.2158 79.6079L45.9985 71.9295L49.1665 69.3726L56.0191 70.4782L58.0001 73.2732Z" fill="#E86578"/>
<path d="M43.9126 79.6079C43.9126 79.6079 40.9414 76.0075 40.9414 72.7686C40.9414 69.7557 43.2441 65.0406 45.3165 64.1744C48.1391 62.9843 61.2495 63.7676 60.217 68.7992C59.1845 73.8307 58.1371 73.3938 58.1371 73.3938C58.1371 73.3938 50.9394 69.2737 48.2654 71.2095C48.0814 74.5158 46.4937 77.5791 43.9126 79.6079Z" fill="#283A5E"/>
<path d="M27.2939 116C28.2145 124.111 29.8891 132.11 32.2941 139.882L47.7645 137.398C47.7645 137.398 31.7194 138.785 27.2939 116Z" fill="#00B3CC"/>
<circle cx="91.5492" cy="104.059" r="15.3529" fill="#C8CED6"/>
<path d="M93.2192 108.039L87.5684 104.075L93.2546 100.078L93.2192 108.039Z" fill="white"/>
<path d="M35.2124 97.8037L55.3979 115.442L76.1962 113.753V116.566L53.2265 121.686C53.2265 121.686 37.4367 116.305 32.9805 111.021C33.2526 106.551 34.0007 102.121 35.2124 97.8037Z" fill="#202E4B"/>
<path d="M76.1963 114.144L77.8726 111.45L78.5386 113.057L84.1571 113.3L81.6464 116.691L76.1963 117.137V114.144Z" fill="#FFC9D5"/>
<path opacity="0.3" d="M30.7652 87.5688C33.9902 99.8031 46.7836 107.893 55.2872 115.555L76.1963 113.819L54.1386 117.137L35.808 103.557C35.808 103.557 30.0654 90.031 30.7652 87.5688Z" fill="#00B3CC"/>
<path d="M76.1964 116.549L53.4085 121.687C53.4085 121.687 39.6878 116.123 38.667 114.809L53.6788 121.141C53.6788 121.141 67.3245 116.549 76.1964 113.726V116.549Z" fill="#00B3CC"/>
<path d="M357.911 73.7307C357.911 73.7307 357.822 79.0775 367.973 84.3184C369.275 84.9914 370.473 85.6267 371.582 86.2468C381.391 91.707 378.548 106.999 367.407 107.997C366.74 108.075 366.064 108.047 365.405 107.914C361.937 107.12 365.48 100.011 363.009 95.5337C357.963 86.3905 349.315 81.1648 356.311 72.7854" fill="#171C2E"/>
<path d="M356.051 85.2936L365.373 87.6301C365.373 87.6301 369.328 89.1326 366.003 109.628C365.226 114.293 364.526 120.581 365.77 130.784L344.926 127.245L340.598 108.2L340.389 102.363L340.039 92.5961L343.302 91.7847L347.031 89.1702L356.051 85.2936Z" fill="#232E4A"/>
<path d="M365.443 129.884C367.858 134.745 368.54 136.37 369.608 140.049C369.608 140.049 366.759 202.42 361.865 222.903H358.691C358.691 222.903 352.806 174.451 351.947 163.424L350.336 148.924L341.177 135.951C341.177 135.951 343.716 127.152 344.7 126.236L365.443 129.884Z" fill="#3F4E6F"/>
<path d="M343.451 116L345.765 126.938L360.51 129.647C360.51 129.647 349.423 127.091 343.451 116Z" fill="#ED1941"/>
<path d="M351.117 149.392L352.55 162.73C352.55 162.73 347.253 196.134 339.792 222.902L336.628 221.695L341.956 136.471L351.117 149.392Z" fill="#2B3A5D"/>
<path d="M361.647 222.903V227.452H350.274L358.629 222.903H361.647Z" fill="#ED1941"/>
<path d="M340.04 222.916L339.652 227.451H327.53L336.92 221.764L340.04 222.916Z" fill="#ED1941"/>
<path d="M363.927 90.9808L350.942 111.424L327.53 116.797V119.412L352.194 116.857C352.194 116.857 361.673 109.858 366.196 104.47C365.92 99.9068 365.157 95.3855 363.92 90.9808" fill="#232E4A"/>
<path d="M327.537 119.413L352.39 116.714C352.39 116.714 362.836 108.303 363.922 106.903L352.13 116.129C352.13 115.828 334.351 118.906 327.53 117.711L327.537 119.413Z" fill="#ED1941"/>
<path d="M346.727 88.9944C347.114 88.7394 347.556 88.5631 348.024 88.4772C348.628 88.4335 348.978 89.7958 348.572 91.3912C348.572 91.3912 351.467 91.7191 355.961 85.2936C355.961 85.2936 355.396 92.4621 348.692 93.2052C343.475 93.788 346.727 88.9944 346.727 88.9944Z" fill="#ED1941"/>
<path d="M353.585 79.6074C353.585 79.6074 353.977 82.9149 355.961 84.7869C355.961 84.7869 352.141 90.98 349.084 90.98C349.346 90.1459 349.258 89.241 348.839 88.4734C348.42 87.7057 347.706 87.1415 346.863 86.9104L353.585 79.6074Z" fill="#F2939E"/>
<path d="M348.532 65.0643C342.683 66.793 338.863 72.0413 340.368 78.1036C341.559 82.9177 343.237 87.5691 345.304 87.5691C349.596 87.5691 353.333 81.9952 353.663 78.5765C353.992 75.1577 350.719 64.824 349.618 64.824C349.249 64.8652 348.885 64.9457 348.532 65.0643Z" fill="#FAC7D4"/>
<path d="M340.114 76.0895C340.114 76.0895 342.164 71.2468 347.38 71.5759C347.38 71.5759 348.696 75.0473 353.859 79.6079C353.859 79.6079 357.584 76.8966 358.157 73.1039C358.731 69.3113 356.153 64.4373 349.897 63.7634C338.531 62.5488 340.114 76.0895 340.114 76.0895Z" fill="#171C2E"/>
<path d="M340.039 76.1332C340.039 76.1332 343.221 72.1402 346.502 72.5968C346.502 72.5968 348.021 76.7368 353.686 79.6076C353.686 79.6076 349.228 75.8855 347.254 71.6759C347.254 71.6759 342.576 71.0027 340.039 76.1332" fill="#E86577"/>
<path d="M327.53 116.734L326.741 113.726L324.912 115.452L319.569 115.844L322.08 118.545L327.53 119.412V116.734Z" fill="#FFC9D5"/>
<path opacity="0.3" d="M327.53 117.137L351.246 111.665L360.51 98.9414L352.023 113.123L327.53 117.137Z" fill="#ED1941"/>
</svg>
