<?xml version="1.0" encoding="UTF-8"?>
<svg width="32px" height="32px" viewBox="0 0 32 32" version="1.1" xmlns="http://www.w3.org/2000/svg" xmlns:xlink="http://www.w3.org/1999/xlink">
    <!-- Generator: Sketch 49.2 (51160) - http://www.bohemiancoding.com/sketch -->
    <title>success</title>
    <desc>Created with Sketch.</desc>
    <defs>
        <linearGradient x1="77.890625%" y1="17.4934896%" x2="25.4166667%" y2="79.53125%" id="linearGradient-1">
            <stop stop-color="#BAE04B" offset="0%"></stop>
            <stop stop-color="#A2DA55" offset="26.3492506%"></stop>
            <stop stop-color="#78D967" offset="52.8858418%"></stop>
            <stop stop-color="#6AD46B" offset="76.5545281%"></stop>
            <stop stop-color="#4FD478" offset="100%"></stop>
        </linearGradient>
        <filter x="-125.9%" y="-93.8%" width="364.3%" height="364.3%" filterUnits="objectBoundingBox" id="filter-2">
            <feOffset dx="1" dy="7" in="SourceAlpha" result="shadowOffsetOuter1"></feOffset>
            <feGaussianBlur stdDeviation="7" in="shadowOffsetOuter1" result="shadowBlurOuter1"></feGaussianBlur>
            <feColorMatrix values="0 0 0 0 0   0 0 0 0 0   0 0 0 0 0  0 0 0 0.2 0" type="matrix" in="shadowBlurOuter1" result="shadowMatrixOuter1"></feColorMatrix>
            <feMerge>
                <feMergeNode in="shadowMatrixOuter1"></feMergeNode>
                <feMergeNode in="SourceGraphic"></feMergeNode>
            </feMerge>
        </filter>
        <linearGradient x1="66.7382812%" y1="14.3229167%" x2="27.3626309%" y2="97.752889%" id="linearGradient-3">
            <stop stop-color="#FFFFFF" offset="0%"></stop>
            <stop stop-color="#E1F9DB" offset="100%"></stop>
        </linearGradient>
    </defs>
    <g id="success" stroke="none" stroke-width="1" fill="none" fill-rule="evenodd">
        <g id="Components-/-Z-Symbols-/-Icons-/-Large-/-Success">
            <circle id="BG" fill="url(#linearGradient-1)" cx="16" cy="16" r="16"></circle>
            <g id="checked" filter="url(#filter-2)" stroke-width="1" transform="translate(6.933333, 6.933333)" fill="url(#linearGradient-3)">
                <path d="M9.33333333,0 C4.1871345,0 0,4.1871345 0,9.33333333 C0,14.4795322 4.1871345,18.6666667 9.33333333,18.6666667 C14.4795322,18.6666667 18.6666667,14.4795322 18.6666667,9.33333333 C18.6666667,4.1871345 14.4795322,0 9.33333333,0 Z M14.5497076,6.87719298 L8.58479532,12.7953216 C8.23391813,13.1461988 7.67251462,13.1695906 7.29824561,12.8187135 L4.14035088,9.94152047 C3.76608187,9.59064327 3.74269006,9.00584795 4.07017544,8.63157895 C4.42105263,8.25730994 5.00584795,8.23391813 5.38011696,8.58479532 L7.88304094,10.877193 L13.2163743,5.54385965 C13.5906433,5.16959064 14.1754386,5.16959064 14.5497076,5.54385965 C14.9239766,5.91812865 14.9239766,6.50292398 14.5497076,6.87719298 Z" id="Shape" fill-rule="nonzero"></path>
            </g>
        </g>
    </g>
</svg>