<svg width="48" height="48" viewBox="0 0 48 48" fill="none" xmlns="http://www.w3.org/2000/svg">
<rect opacity="0.01" width="48" height="48" fill="white" fill-opacity="0.01"/>
<path d="M44.6154 29.2308C44.6154 30.7602 43.3756 32 41.8462 32L6.76923 32C5.23983 32 4 30.7602 4 29.2308L4 18.7692C4 17.2398 5.23983 16 6.76923 16L41.8462 16C43.3756 16 44.6154 17.2398 44.6154 18.7692V29.2308Z" fill="#0787FF"/>
<path d="M11.3846 24.5698C11.3846 23.9152 11.9152 23.3846 12.5698 23.3846H36.0456C36.7001 23.3846 37.2308 23.9152 37.2308 24.5698C37.2308 25.2244 36.7001 25.755 36.0456 25.755H12.5698C11.9152 25.755 11.3846 25.2244 11.3846 24.5698Z" fill="#CDE0FF"/>
</svg>
