<svg width="48" height="48" viewBox="0 0 48 48" fill="none" xmlns="http://www.w3.org/2000/svg">
<path d="M14 40L14 9C14 8.44772 13.5523 8 13 8L9 8C8.44771 8 8 8.44772 8 9L8 40L14 40Z" fill="#F25858"/>
<path d="M16.7388 40L16.7388 23.6571C16.7388 23.2153 17.1245 22.8571 17.6003 22.8571L22.0311 22.8571C22.5069 22.8571 22.8926 23.2153 22.8926 23.6571L22.8926 40L16.7388 40Z" fill="#1D91FF"/>
<path d="M25.4775 40L25.4775 14.3692C25.4775 14.0062 25.8633 13.712 26.3391 13.712L30.7698 13.712C31.2457 13.712 31.6314 14.0062 31.6314 14.3692L31.6314 40L25.4775 40Z" fill="#00A89E"/>
<path d="M40 40L40 35C40 34.4477 39.5523 34 39 34L35 34C34.4477 34 34 34.4477 34 35L34 40L40 40Z" fill="#FF8900"/>
</svg>
