<svg width="48" height="48" viewBox="0 0 48 48" fill="none" xmlns="http://www.w3.org/2000/svg">
<path d="M31.9998 34.6C31.9998 35.4837 31.2835 36.2 30.3998 36.2L10.3998 36.2C9.51615 36.2 8.7998 35.4837 8.7998 34.6L8.79981 19.1125L31.9998 19.1125L31.9998 34.6Z" stroke="#0787FF" stroke-width="1.6"/>
<path d="M39.2 12.6C39.2 12.1582 38.8418 11.8 38.4 11.8L9.6 11.8C9.15818 11.8 8.8 12.1582 8.8 12.6L8.8 18.325L38.4 18.325C38.8418 18.325 39.2 17.9668 39.2 17.525L39.2 12.6Z" stroke="#0787FF" stroke-width="1.6"/>
<path d="M39.6 12.6C39.6 11.9373 39.0627 11.4 38.4 11.4L32.4 11.4L32.4 18.725L38.4 18.725C39.0627 18.725 39.6 18.1877 39.6 17.525L39.6 12.6Z" fill="#0787FF" stroke="#0787FF" stroke-width="0.8"/>
<path d="M36.1671 16.4328C36.0881 16.5531 35.9117 16.5531 35.8327 16.4328L34.6032 14.5597C34.5159 14.4267 34.6113 14.25 34.7704 14.25H37.2294C37.3885 14.25 37.4839 14.4267 37.3966 14.5597L36.1671 16.4328Z" fill="#222733"/>
<rect x="13" y="22.3755" width="15" height="1.625" rx="0.8125" fill="#0787FF"/>
<rect x="13" y="26.438" width="15" height="1.625" rx="0.8125" fill="#0787FF"/>
<rect x="13" y="30.5005" width="15" height="1.625" rx="0.8125" fill="#0787FF"/>
</svg>
