<svg width="48" height="48" viewBox="0 0 48 48" fill="none" xmlns="http://www.w3.org/2000/svg">
<path d="M20.6235 40.9999L20.6235 8.93354C20.6235 8.46151 20.9151 8.07886 21.2747 8.07886H26.7254C27.085 8.07886 27.3766 8.46151 27.3766 8.93354V40.9999H20.6235Z" fill="#F25858"/>
<path d="M7.96143 40.9999L7.96143 15.673C7.96143 15.2085 8.21653 14.8319 8.53121 14.8319H13.3005C13.6152 14.8319 13.8703 15.2085 13.8703 15.673L13.8703 40.9999H7.96143Z" fill="#0787FF"/>
<path d="M33.2852 40.9999V19.0631C33.2852 18.5911 33.5767 18.2084 33.9363 18.2084H39.387C39.7466 18.2084 40.0382 18.5911 40.0382 19.0631V40.9999H33.2852Z" fill="#00A198"/>
<line x1="12.8804" y1="27.305" x2="22.1658" y2="18.8637" stroke="#222733" stroke-width="1.68826"/>
<line x1="25.5692" y1="18.1804" x2="36.5427" y2="22.4015" stroke="#222733" stroke-width="1.68826"/>
<circle cx="11.1693" cy="28.3718" r="2.95445" fill="#222733"/>
<circle cx="36.9149" cy="22.4629" r="2.95445" fill="#222733"/>
<circle cx="24.2533" cy="17.9554" r="2.95445" fill="#222733"/>
<line x1="13.1715" y1="26.9726" x2="23.1261" y2="18.3257" stroke="white" stroke-width="0.844129"/>
<line x1="25.4143" y1="18.2492" x2="37.1641" y2="22.6558" stroke="white" stroke-width="0.844129"/>
<circle cx="11.1691" cy="28.2675" r="2.53239" fill="white"/>
<circle cx="11.1692" cy="28.2675" r="1.68826" fill="#222733"/>
<circle cx="24.1686" cy="17.969" r="2.53239" fill="white"/>
<circle cx="11.1692" cy="28.2675" r="1.68826" fill="#222733"/>
<circle cx="24.2532" cy="17.9689" r="1.68826" fill="#222733"/>
<circle cx="36.9152" cy="22.6117" r="2.53239" fill="white"/>
<circle cx="36.8308" cy="22.6117" r="1.68826" fill="#222733"/>
</svg>
