<svg width="48" height="48" viewBox="0 0 48 48" fill="none" xmlns="http://www.w3.org/2000/svg">
<rect x="9" y="11" width="30" height="28" rx="3" stroke="#0787FF" stroke-width="2"/>
<path d="M9 14C9 12.3431 10.3431 11 12 11H36C37.6569 11 39 12.3431 39 14V17H9V14Z" fill="#0787FF" stroke="#0787FF" stroke-width="2"/>
<line x1="14.3335" y1="9" x2="14.3335" y2="14.0068" stroke="#0787FF" stroke-width="2" stroke-linecap="round"/>
<line x1="33.3335" y1="9" x2="33.3335" y2="14.0068" stroke="#0787FF" stroke-width="2" stroke-linecap="round"/>
<line x1="24" y1="21.5" x2="24" y2="35.5147" stroke="#0787FF" stroke-linecap="round"/>
<rect x="12" y="22" width="3" height="3" rx="1" fill="#0787FF"/>
<rect x="12" y="27" width="3" height="3" rx="1" fill="#0787FF"/>
<rect x="12" y="32" width="3" height="3" rx="1" fill="#0787FF"/>
<rect x="17" y="22" width="3" height="3" rx="1" fill="#0787FF"/>
<rect x="17" y="27" width="3" height="3" rx="1" fill="#0787FF"/>
<rect x="17" y="32" width="3" height="3" rx="1" fill="#0787FF"/>
<rect x="27" y="22" width="3" height="3" rx="1" fill="#F25858"/>
<rect x="27" y="27" width="3" height="3" rx="1" fill="#F25858"/>
<rect x="27" y="32" width="3" height="3" rx="1" fill="#F25858"/>
<rect x="32" y="22" width="3" height="3" rx="1" fill="#F25858"/>
<rect x="32" y="27" width="3" height="3" rx="1" fill="#F25858"/>
<rect x="32" y="32" width="3" height="3" rx="1" fill="#F25858"/>
</svg>
