<svg width="50" height="49" viewBox="0 0 50 49" fill="none" xmlns="http://www.w3.org/2000/svg">
<path d="M37.2845 32.1015L35.512 31.4503C35.5045 31.4475 35.4976 31.4432 35.492 31.4374C35.4863 31.4317 35.482 31.4248 35.4793 31.4172L34.8345 29.6268C34.8072 29.5509 34.7574 29.4853 34.6919 29.4389C34.6263 29.3925 34.5483 29.3677 34.4683 29.3677C34.3883 29.3677 34.3102 29.3925 34.2447 29.4389C34.1792 29.4853 34.1294 29.5509 34.1021 29.6268L33.4573 31.4172C33.4546 31.4248 33.4503 31.4317 33.4446 31.4374C33.439 31.4432 33.4321 31.4475 33.4246 31.4503L31.6521 32.1015C31.5769 32.1292 31.5119 32.1795 31.466 32.2456C31.4202 32.3118 31.3955 32.3907 31.3955 32.4715C31.3955 32.5523 31.4202 32.6311 31.466 32.6973C31.5119 32.7635 31.5769 32.8138 31.6521 32.8414L33.4246 33.4927C33.4321 33.4954 33.439 33.4998 33.4446 33.5055C33.4503 33.5112 33.4546 33.5181 33.4573 33.5257L34.1021 35.3162C34.1294 35.3921 34.1792 35.4577 34.2447 35.5041C34.3102 35.5504 34.3883 35.5753 34.4683 35.5753C34.5483 35.5753 34.6263 35.5504 34.6919 35.5041C34.7574 35.4577 34.8072 35.3921 34.8345 35.3162L35.4793 33.5257C35.482 33.5181 35.4863 33.5112 35.492 33.5055C35.4976 33.4998 35.5045 33.4954 35.512 33.4927L37.2845 32.8414C37.3597 32.8138 37.4246 32.7635 37.4705 32.6973C37.5164 32.6311 37.541 32.5523 37.541 32.4715C37.541 32.3907 37.5164 32.3118 37.4705 32.2456C37.4246 32.1795 37.3597 32.1292 37.2845 32.1015ZM37.17 32.5248L35.3974 33.1758C35.3439 33.1955 35.2953 33.2269 35.255 33.2676C35.2147 33.3083 35.1837 33.3574 35.1642 33.4114L34.5197 35.2019C34.5154 35.2121 34.5082 35.2207 34.4991 35.2268C34.49 35.233 34.4792 35.2362 34.4683 35.2362C34.4573 35.2362 34.4466 35.233 34.4375 35.2268C34.4283 35.2207 34.4212 35.2121 34.4169 35.2019L33.7724 33.4114C33.7529 33.3574 33.7219 33.3083 33.6816 33.2676C33.6413 33.2269 33.5927 33.1955 33.5391 33.1758L31.7666 32.5234C31.7565 32.5191 31.7479 32.5118 31.7419 32.5026C31.7358 32.4934 31.7326 32.4825 31.7326 32.4715C31.7326 32.4604 31.7358 32.4496 31.7419 32.4404C31.7479 32.4311 31.7565 32.4239 31.7666 32.4196L33.5391 31.7686C33.5927 31.7488 33.6413 31.7175 33.6816 31.6768C33.7219 31.6361 33.7529 31.587 33.7724 31.5329L34.4169 29.7425C34.4212 29.7323 34.4283 29.7236 34.4375 29.7175C34.4466 29.7114 34.4573 29.7082 34.4683 29.7082C34.4792 29.7082 34.49 29.7114 34.4991 29.7175C34.5082 29.7236 34.5154 29.7323 34.5197 29.7425L35.1642 31.5329C35.1837 31.587 35.2147 31.6361 35.255 31.6768C35.2953 31.7175 35.3439 31.7488 35.3974 31.7686L37.17 32.4196C37.1801 32.4239 37.1887 32.4311 37.1947 32.4404C37.2007 32.4496 37.204 32.4604 37.204 32.4715C37.204 32.4825 37.2007 32.4934 37.1947 32.5026C37.1887 32.5118 37.1801 32.5191 37.17 32.5234V32.5248Z" fill="#F25858"/>
<path d="M37.17 32.5248L35.3974 33.1758C35.3439 33.1955 35.2953 33.2269 35.255 33.2676C35.2147 33.3083 35.1837 33.3574 35.1642 33.4114L34.5197 35.2019C34.5154 35.2121 34.5082 35.2207 34.4991 35.2268C34.49 35.233 34.4792 35.2362 34.4683 35.2362C34.4573 35.2362 34.4466 35.233 34.4375 35.2268C34.4283 35.2207 34.4212 35.2121 34.4169 35.2019L33.7724 33.4114C33.7529 33.3574 33.7219 33.3083 33.6816 33.2676C33.6413 33.2269 33.5927 33.1955 33.5391 33.1758L31.7666 32.5234C31.7565 32.5191 31.7479 32.5118 31.7419 32.5026C31.7358 32.4934 31.7326 32.4825 31.7326 32.4715C31.7326 32.4604 31.7358 32.4496 31.7419 32.4404C31.7479 32.4311 31.7565 32.4239 31.7666 32.4196L33.5391 31.7686C33.5927 31.7488 33.6413 31.7175 33.6816 31.6768C33.7219 31.6361 33.7529 31.587 33.7724 31.5329L34.4169 29.7425C34.4212 29.7323 34.4283 29.7236 34.4375 29.7175C34.4466 29.7114 34.4573 29.7082 34.4683 29.7082C34.4792 29.7082 34.49 29.7114 34.4991 29.7175C34.5082 29.7236 34.5154 29.7323 34.5197 29.7425L35.1642 31.5329C35.1837 31.587 35.2147 31.6361 35.255 31.6768C35.2953 31.7175 35.3439 31.7488 35.3974 31.7686L37.17 32.4196C37.1801 32.4239 37.1887 32.4311 37.1947 32.4404C37.2007 32.4496 37.204 32.4604 37.204 32.4715C37.204 32.4825 37.2007 32.4934 37.1947 32.5026C37.1887 32.5118 37.1801 32.5191 37.17 32.5234V32.5248Z" fill="#F25858"/>
<path d="M32.1269 35.3639L31.114 34.9917C31.1097 34.9902 31.1058 34.9877 31.1025 34.9844C31.0993 34.9811 31.0968 34.9772 31.0953 34.9729L30.7269 33.9497C30.7112 33.9064 30.6828 33.8689 30.6453 33.8424C30.6079 33.8159 30.5633 33.8017 30.5176 33.8017C30.4719 33.8017 30.4273 33.8159 30.3898 33.8424C30.3524 33.8689 30.3239 33.9064 30.3083 33.9497L29.9399 34.9729C29.9383 34.9772 29.9358 34.9811 29.9326 34.9844C29.9294 34.9877 29.9255 34.9902 29.9212 34.9917L28.9083 35.3639C28.8653 35.3797 28.8282 35.4084 28.802 35.4462C28.7758 35.4841 28.7617 35.5291 28.7617 35.5753C28.7617 35.6215 28.7758 35.6665 28.802 35.7043C28.8282 35.7421 28.8653 35.7709 28.9083 35.7867L29.9212 36.1588C29.9255 36.1604 29.9294 36.1629 29.9326 36.1662C29.9358 36.1694 29.9383 36.1734 29.9399 36.1777L30.3083 37.2008C30.3239 37.2442 30.3524 37.2817 30.3898 37.3082C30.4273 37.3347 30.4719 37.3489 30.5176 37.3489C30.5633 37.3489 30.6079 37.3347 30.6453 37.3082C30.6828 37.2817 30.7112 37.2442 30.7269 37.2008L31.0953 36.1777C31.0968 36.1734 31.0993 36.1694 31.1025 36.1662C31.1058 36.1629 31.1097 36.1604 31.114 36.1588L32.1269 35.7867C32.1698 35.7709 32.2069 35.7421 32.2331 35.7043C32.2594 35.6665 32.2734 35.6215 32.2734 35.5753C32.2734 35.5291 32.2594 35.4841 32.2331 35.4462C32.2069 35.4084 32.1698 35.3797 32.1269 35.3639ZM32.0614 35.6058L31.0485 35.9778C31.0179 35.989 30.9902 36.0069 30.9671 36.0302C30.9441 36.0534 30.9264 36.0815 30.9152 36.1124L30.547 37.1355C30.5445 37.1413 30.5404 37.1463 30.5352 37.1498C30.53 37.1533 30.5238 37.1551 30.5176 37.1551C30.5113 37.1551 30.5052 37.1533 30.5 37.1498C30.4948 37.1463 30.4907 37.1413 30.4882 37.1355L30.1199 36.1124C30.1088 36.0815 30.091 36.0534 30.068 36.0302C30.045 36.0069 30.0172 35.989 29.9866 35.9778L28.9738 35.605C28.968 35.6025 28.9631 35.5983 28.9596 35.5931C28.9562 35.5878 28.9543 35.5816 28.9543 35.5753C28.9543 35.569 28.9562 35.5628 28.9596 35.5575C28.9631 35.5522 28.968 35.5481 28.9738 35.5456L29.9866 35.1736C30.0172 35.1623 30.045 35.1444 30.068 35.1212C30.091 35.0979 30.1088 35.0699 30.1199 35.039L30.4882 34.0159C30.4907 34.01 30.4948 34.0051 30.5 34.0016C30.5052 33.9981 30.5113 33.9962 30.5176 33.9962C30.5238 33.9962 30.53 33.9981 30.5352 34.0016C30.5404 34.0051 30.5445 34.01 30.547 34.0159L30.9152 35.039C30.9264 35.0699 30.9441 35.0979 30.9671 35.1212C30.9902 35.1444 31.0179 35.1623 31.0485 35.1736L32.0614 35.5456C32.0672 35.5481 32.0721 35.5522 32.0755 35.5575C32.079 35.5628 32.0808 35.569 32.0808 35.5753C32.0808 35.5816 32.079 35.5878 32.0755 35.5931C32.0721 35.5983 32.0672 35.6033 32.0614 35.6058Z" fill="#F25858"/>
<path d="M32.0614 35.6058L31.0485 35.9778C31.0179 35.989 30.9902 36.0069 30.9671 36.0302C30.9441 36.0534 30.9264 36.0815 30.9152 36.1124L30.547 37.1355C30.5445 37.1413 30.5404 37.1463 30.5352 37.1498C30.53 37.1533 30.5238 37.1551 30.5176 37.1551C30.5113 37.1551 30.5052 37.1533 30.5 37.1498C30.4948 37.1463 30.4907 37.1413 30.4882 37.1355L30.1199 36.1124C30.1088 36.0815 30.091 36.0534 30.068 36.0302C30.045 36.0069 30.0172 35.989 29.9866 35.9778L28.9738 35.605C28.968 35.6025 28.9631 35.5983 28.9596 35.5931C28.9562 35.5878 28.9543 35.5816 28.9543 35.5753C28.9543 35.569 28.9562 35.5628 28.9596 35.5575C28.9631 35.5522 28.968 35.5481 28.9738 35.5456L29.9866 35.1736C30.0172 35.1623 30.045 35.1444 30.068 35.1212C30.091 35.0979 30.1088 35.0699 30.1199 35.039L30.4882 34.0159C30.4907 34.01 30.4948 34.0051 30.5 34.0016C30.5052 33.9981 30.5113 33.9962 30.5176 33.9962C30.5238 33.9962 30.53 33.9981 30.5352 34.0016C30.5404 34.0051 30.5445 34.01 30.547 34.0159L30.9152 35.039C30.9264 35.0699 30.9441 35.0979 30.9671 35.1212C30.9902 35.1444 31.0179 35.1623 31.0485 35.1736L32.0614 35.5456C32.0672 35.5481 32.0721 35.5522 32.0755 35.5575C32.079 35.5628 32.0808 35.569 32.0808 35.5753C32.0808 35.5816 32.079 35.5878 32.0755 35.5931C32.0721 35.5983 32.0672 35.6033 32.0614 35.6058Z" fill="#F25858"/>
<path d="M9.13892 36.0946L9.93704 32.5031C9.26275 30.5327 6.77802 27.098 8.73986 21.7285C10.7017 16.3589 17.48 13.5655 23.106 15.7426C25.8258 16.795 28.145 18.8051 29.3239 21.4043C30.5836 24.1819 30.5412 27.6322 28.2938 31.3059C23.9433 38.4175 15.3909 36.7597 12.3314 34.4984L9.13892 36.0946Z" fill="#0787FF"/>
<path d="M9.93704 32.5031L10.8543 32.7069L10.9116 32.4489L10.826 32.1989L9.93704 32.5031ZM9.13892 36.0946L8.22168 35.8908L7.79344 37.8179L9.55912 36.935L9.13892 36.0946ZM12.3314 34.4984L12.8899 33.7428L12.4265 33.4003L11.9112 33.658L12.3314 34.4984ZM28.2938 31.3059L27.4923 30.8156L27.4923 30.8156L28.2938 31.3059ZM23.106 15.7426L22.7669 16.6188L22.7669 16.6188L23.106 15.7426ZM38.3286 39.3427L37.5747 38.7818L37.3181 39.1268L37.4114 39.5465L38.3286 39.3427ZM39.1267 42.9342L38.7065 43.7746L40.4722 44.6575L40.0439 42.7304L39.1267 42.9342ZM35.9342 41.338L36.3544 40.4976L35.9398 40.2902L35.5229 40.4932L35.9342 41.338ZM19.1737 36.5493L19.9488 36.0182L18.3722 37.0396L19.1737 36.5493ZM29.3239 21.4043L28.4682 21.7924L29.3239 21.4043ZM9.01981 32.2993L8.22168 35.8908L10.0562 36.2985L10.8543 32.7069L9.01981 32.2993ZM9.55912 36.935L12.7516 35.3388L11.9112 33.658L8.71871 35.2542L9.55912 36.935ZM11.7729 35.254C13.4965 36.528 16.6227 37.5591 19.8872 37.3548C23.2042 37.1471 26.7343 35.6557 29.0953 31.7962L27.4923 30.8156C25.5028 34.0678 22.5815 35.3032 19.7698 35.4792C16.9055 35.6585 14.2258 34.7302 12.8899 33.7428L11.7729 35.254ZM23.4451 14.8663C17.383 12.5204 10.019 15.4894 7.85731 21.406L9.62241 22.0509C11.3844 17.2284 17.577 14.6105 22.7669 16.6188L23.4451 14.8663ZM7.85731 21.406C5.74735 27.181 8.45841 31.0843 9.04804 32.8073L10.826 32.1989C10.0671 29.9811 7.80869 27.0151 9.62241 22.0509L7.85731 21.406ZM37.4114 39.5465L38.2095 43.1381L40.0439 42.7304L39.2458 39.1389L37.4114 39.5465ZM39.5469 42.0938L36.3544 40.4976L35.514 42.1784L38.7065 43.7746L39.5469 42.0938ZM35.5229 40.4932C32.7342 41.8509 29.8528 42.3674 27.1998 41.7627C24.5683 41.1629 22.0392 39.4328 19.9752 36.0589L18.3722 37.0396C20.6587 40.7773 23.5841 42.866 26.7822 43.595C29.9589 44.319 33.2826 43.674 36.3455 42.1828L35.5229 40.4932ZM39.4325 28.0671C40.5395 31.388 40.3065 35.1101 37.5747 38.7818L39.0824 39.9035C42.2061 35.7051 42.5026 31.3349 41.2153 27.4728L39.4325 28.0671ZM29.3871 22.3418C35.1889 21.951 38.3761 24.8978 39.4325 28.0671L41.2153 27.4728C39.8774 23.459 35.8814 20.0208 29.2607 20.4669L29.3871 22.3418ZM29.0953 31.7962C31.4913 27.8797 31.5787 24.101 30.1796 21.0162L28.4682 21.7924C29.5886 24.2628 29.5911 27.3848 27.4923 30.8156L29.0953 31.7962ZM30.1796 21.0162C28.8855 18.163 26.3618 15.9949 23.4451 14.8663L22.7669 16.6188C25.2898 17.5951 27.4045 19.4472 28.4682 21.7924L30.1796 21.0162ZM35.5229 40.4932C32.7142 41.8607 29.9984 42.4107 27.4421 41.8324C24.899 41.2571 22.3541 39.5287 19.9488 36.0182L18.3986 37.0803C20.9938 40.8681 23.9034 42.9585 27.0275 43.6653C30.1384 44.369 33.3026 43.6643 36.3455 42.1828L35.5229 40.4932Z" fill="#0787FF"/>
<path d="M19.2963 21C19.9106 21 20.4513 21.0998 20.9185 21.2994C21.3857 21.499 21.7447 21.7768 21.9956 22.1326C22.2552 22.4884 22.385 22.8963 22.385 23.3563C22.385 24.0333 22.1211 24.6278 21.5933 25.1398C21.0742 25.6519 20.3821 26.0641 19.5169 26.3765L19.7635 27.7305H18.5176L18.1673 26.0771C19.4391 25.296 20.075 24.3848 20.075 23.3433C20.075 22.892 19.9668 22.5579 19.7505 22.3409C19.5342 22.1152 19.2487 22.0024 18.894 22.0024C18.6258 22.0024 18.3792 22.0632 18.1543 22.1847C17.9293 22.2975 17.752 22.4624 17.6222 22.6794C17.8644 22.7575 18.0678 22.892 18.2321 23.0829C18.4052 23.2652 18.4917 23.4865 18.4917 23.7469C18.4917 24.0593 18.3749 24.3197 18.1413 24.528C17.9164 24.7362 17.6482 24.8404 17.3367 24.8404C17.1204 24.8404 16.9084 24.784 16.7008 24.6712C16.4931 24.5583 16.3244 24.3934 16.1947 24.1765C16.0649 23.9595 16 23.7035 16 23.4084C16 22.9831 16.1341 22.5882 16.4023 22.2237C16.6792 21.8505 17.0642 21.5554 17.5573 21.3385C18.0591 21.1128 18.6388 21 19.2963 21ZM20.5162 30.0868C20.5162 30.4773 20.3951 30.7897 20.1528 31.0241C19.9192 31.2584 19.6034 31.3756 19.2055 31.3756C18.8161 31.3756 18.5003 31.2584 18.2581 31.0241C18.0245 30.7811 17.9077 30.4686 17.9077 30.0868C17.9077 29.6962 18.0245 29.3838 18.2581 29.1494C18.4917 28.9151 18.8075 28.7979 19.2055 28.7979C19.6034 28.7979 19.9192 28.9151 20.1528 29.1494C20.3951 29.3838 20.5162 29.6962 20.5162 30.0868Z" fill="white"/>
<path d="M1 13.25H0.75V13V5C0.75 2.65279 2.65279 0.75 5 0.75H45C47.3472 0.75 49.25 2.65279 49.25 5V13V13.25H49H1Z" fill="#2D3748" stroke="white" stroke-width="0.5"/>
<path d="M8.32516 8.01953V7.03125H9.75484C9.97099 7.03125 10.1455 6.99609 10.2783 6.92578C10.4137 6.85547 10.5127 6.75911 10.5752 6.63672C10.6377 6.51432 10.6689 6.3737 10.6689 6.21484C10.6689 6.05599 10.6377 5.90755 10.5752 5.76953C10.5127 5.62891 10.4137 5.51693 10.2783 5.43359C10.1455 5.34766 9.97099 5.30469 9.75484 5.30469H8.74703V10H7.51656V4.3125H9.75484C10.2054 4.3125 10.5921 4.39453 10.915 4.55859C11.2379 4.72266 11.4853 4.94792 11.6572 5.23438C11.8291 5.51823 11.915 5.84245 11.915 6.20703C11.915 6.57682 11.8291 6.89714 11.6572 7.16797C11.4853 7.4388 11.2379 7.64844 10.915 7.79688C10.5921 7.94531 10.2054 8.01953 9.75484 8.01953H8.32516ZM15.1608 4.3125C15.6009 4.3125 15.9785 4.37891 16.2936 4.51172C16.6113 4.64193 16.8548 4.83464 17.0241 5.08984C17.1933 5.34245 17.278 5.65625 17.278 6.03125C17.278 6.34375 17.2259 6.60938 17.1217 6.82812C17.0202 7.04688 16.8769 7.22786 16.692 7.37109C16.5071 7.51432 16.2897 7.63021 16.0397 7.71875L15.6491 7.94141H13.8248L13.817 6.94922H15.1569C15.3548 6.94922 15.5202 6.91667 15.653 6.85156C15.7858 6.78385 15.8847 6.6888 15.9498 6.56641C16.0149 6.44401 16.0475 6.29948 16.0475 6.13281C16.0475 5.8776 15.9746 5.67578 15.8288 5.52734C15.6855 5.37891 15.4629 5.30469 15.1608 5.30469H14.2467V10H13.0202V4.3125H15.1608ZM14.8873 7.47266L16.1842 7.46484L17.485 9.94141V10H16.1686L14.8873 7.47266ZM22.3011 10H19.2972V9.01172H22.3011V10ZM19.6917 10H18.4613V4.3125H19.6917V10ZM21.9105 7.55469H19.2972V6.59766H21.9105V7.55469ZM22.2972 5.30469H19.2972V4.3125H22.2972V5.30469ZM26.7891 4.3125H28.1523L26.1875 10H25.2852L25.4766 8.73828L26.7891 4.3125ZM25.6016 8.73828L25.8008 10H24.8984L22.9375 4.3125H24.3008L25.6016 8.73828ZM30.2809 10H29.0544V4.3125H30.2809V10ZM35.4955 10H32.4916V9.01172H35.4955V10ZM32.8861 10H31.6556V4.3125H32.8861V10ZM35.1048 7.55469H32.4916V6.59766H35.1048V7.55469ZM35.4916 5.30469H32.4916V4.3125H35.4916V5.30469ZM38.9678 4.3125H39.6241L39.7998 4.98047L38.6045 10H37.8936L37.8467 9.24609L38.9678 4.3125ZM38.2608 9.25781L38.1475 10H37.3623L36.1123 4.3125H37.335L38.2608 9.25781ZM41.6358 4.3125H42.8545L41.6084 10H40.8194L40.7217 9.23828L41.6358 4.3125ZM41.1358 9.26953L41.0772 10H40.3663L39.1631 4.97656L39.3545 4.3125H40.003L41.1358 9.26953Z" fill="white"/>
</svg>
