<svg xmlns="http://www.w3.org/2000/svg" xmlns:xlink="http://www.w3.org/1999/xlink" width="50" height="50" viewBox="0 0 50 50">
    <defs>
        <path id="a" d="M10.5 5.185V2.917a.583.583 0 0 0-.583-.584H2.333a.583.583 0 0 0-.583.584V10.5c0 .322.261.583.583.583h1.183v1.167H1.75a1.167 1.167 0 0 1-1.167-1.167v-8.75c0-.644.523-1.166 1.167-1.166h8.75c.644 0 1.167.522 1.167 1.166v2.852H10.5zM7.56.583a.583.583 0 1 1 1.167 0v2.334a.583.583 0 0 1-1.167 0V.583zm-4.06 0a.583.583 0 1 1 1.167 0v2.334a.583.583 0 0 1-1.167 0V.583zm1.264 10.5c.268 0 .486.262.486.584 0 .322-.218.583-.486.583H2.819c-.268 0-.486-.261-.486-.583 0-.322.218-.584.486-.584h1.945zm-4.18-7h11.083V5.25H.583V4.083zm9.624 8.75a2.625 2.625 0 1 0 0-5.25 2.625 2.625 0 0 0 0 5.25zm0 1.167a3.792 3.792 0 1 1 0-7.583 3.792 3.792 0 0 1 0 7.583zm.704-2.962c.202.184.23.512.06.733a.45.45 0 0 1-.671.067l-.796-.723a.54.54 0 0 1-.172-.4V9.27c0-.287.214-.52.478-.52.263 0 .477.233.477.52v1.202l.624.566z"/>
    </defs>
    <g fill="none" fill-rule="evenodd">
        <path fill="#D6E4FC" fill-rule="nonzero" d="M24.85 2.05l20.328 11.736a8.1 8.1 0 0 1 2.965 11.065L36.407 45.178a8.1 8.1 0 0 1-11.065 2.965L5.015 36.407A8.1 8.1 0 0 1 2.05 25.342L13.786 5.015A8.1 8.1 0 0 1 24.851 2.05z"/>
        <path fill="#FFF" fill-rule="nonzero" stroke="#0162FF" stroke-width=".9" d="M12.42 3.86a3.15 3.15 0 0 0-3.15 3.15v34.275a3.15 3.15 0 0 0 3.15 3.15h24.962a3.15 3.15 0 0 0 3.15-3.15V14.79a3.15 3.15 0 0 0-1.113-2.403l-4.058-3.44-5.086-4.335a3.15 3.15 0 0 0-2.043-.752H12.42z"/>
        <g transform="translate(18 23)">
            <mask id="b" fill="#fff">
                <use xlink:href="#a"/>
            </mask>
            <use fill="#000" fill-rule="nonzero" xlink:href="#a"/>
            <g fill="#0565FF" mask="url(#b)">
                <path d="M0 0h13.917v13.917H0z"/>
            </g>
        </g>
        <path fill="#CCDCF4" fill-rule="nonzero" d="M29.683 4.687a571.64 571.64 0 0 0 6.262 5.338c2.44 2.054 3.76 3.36 3.96 3.92-5.374 1.136-8.864 1.02-10.472-.346-1.607-1.366-1.524-4.337.25-8.912z"/>
        <path stroke="#0162FF" stroke-linecap="round" stroke-linejoin="round" stroke-width=".9" d="M39.905 14.422h-8.55a3.6 3.6 0 0 1-3.6-3.6V7.918"/>
    </g>
</svg>
