<svg xmlns="http://www.w3.org/2000/svg" xmlns:xlink="http://www.w3.org/1999/xlink" width="50" height="50" viewBox="0 0 50 50">
    <defs>
        <path id="a" d="M4.203 12.533a5.902 5.902 0 0 0 3.699 1.296c1.4 0 2.685-.485 3.7-1.296l-1.884-1.884a3.277 3.277 0 0 1-1.816.546c-.671 0-1.295-.201-1.816-.546l-1.883 1.884zm-.931-.932l1.883-1.883a3.277 3.277 0 0 1-.545-1.816c0-.671.2-1.295.545-1.816L3.272 4.203a5.902 5.902 0 0 0-1.296 3.699c0 1.4.484 2.685 1.296 3.7zm7.377-5.515c.345.52.546 1.145.546 1.816s-.201 1.295-.546 1.816l1.884 1.883a5.902 5.902 0 0 0 1.296-3.699c0-1.4-.485-2.685-1.296-3.7l-1.884 1.884zm-.931-.931L11.6 3.272a5.902 5.902 0 0 0-3.699-1.296c-1.4 0-2.685.484-3.7 1.296l1.884 1.883a3.277 3.277 0 0 1 1.816-.545c.671 0 1.295.2 1.816.545zm-1.816 9.99a7.244 7.244 0 1 1 0-14.486 7.244 7.244 0 0 1 0 14.487zm0-5.267a1.976 1.976 0 1 0 0-3.951 1.976 1.976 0 0 0 0 3.95z"/>
    </defs>
    <g fill="none" fill-rule="evenodd">
        <path fill="#D6E4FC" fill-rule="nonzero" d="M24.85 2.05l20.328 11.736a8.1 8.1 0 0 1 2.965 11.065L36.407 45.178a8.1 8.1 0 0 1-11.065 2.965L5.015 36.407A8.1 8.1 0 0 1 2.05 25.342L13.786 5.015A8.1 8.1 0 0 1 24.851 2.05z"/>
        <path fill="#FFF" fill-rule="nonzero" stroke="#0162FF" stroke-width=".943" d="M10.53 5.193a1.624 1.624 0 0 0-2.059 1.564v28.068c0 .534.263 1.035.704 1.338l14.96 10.294a1.624 1.624 0 0 0 1.841 0l14.96-10.294c.441-.303.704-.804.704-1.338V6.757a1.624 1.624 0 0 0-2.059-1.564L25.743 9.039c-.45.125-.925.125-1.375 0L10.53 5.193z"/>
        <path fill="#CCDCF4" fill-rule="nonzero" d="M33.939 7.897l5.396-1.528a1 1 0 0 1 1.272.987l-.149 6.12a1 1 0 0 1-1.45.868l-5.425-2.737a2 2 0 0 1 .356-3.71z"/>
        <g transform="translate(17 18)">
            <mask id="b" fill="#fff">
                <use xlink:href="#a"/>
            </mask>
            <use fill="#000" fill-rule="nonzero" xlink:href="#a"/>
            <g fill="#0565FF" mask="url(#b)">
                <path d="M0 0h15.509v15.509H0z"/>
            </g>
        </g>
    </g>
</svg>
