<?xml version="1.0" encoding="UTF-8"?>
<svg width="191px" height="113px" viewBox="0 0 191 113" version="1.1" xmlns="http://www.w3.org/2000/svg" xmlns:xlink="http://www.w3.org/1999/xlink">
    <!-- Generator: Sketch 61.2 (89653) - https://sketch.com -->
    <title>Browser not supported</title>
    <desc>Created with Sketch.</desc>
    <defs>
        <path d="M0.879999704,0.925650035 L0.879999704,71.7011783 C0.879999704,72.9032721 1.59902673,73.8777616 2.48599152,73.8777616 L90.2740079,73.8777616 C91.1609727,73.8777616 91.8799997,72.9032721 91.8799997,71.7011783 L91.8799997,0.925650035 L0.879999704,0.925650035 Z" id="path-1"></path>
        <filter x="-5.5%" y="-9.6%" width="115.4%" height="119.2%" filterUnits="objectBoundingBox" id="filter-2">
            <feOffset dx="2" dy="0" in="SourceAlpha" result="shadowOffsetOuter1"></feOffset>
            <feGaussianBlur stdDeviation="2" in="shadowOffsetOuter1" result="shadowBlurOuter1"></feGaussianBlur>
            <feColorMatrix values="0 0 0 0 0   0 0 0 0 0   0 0 0 0 0  0 0 0 0.12 0" type="matrix" in="shadowBlurOuter1"></feColorMatrix>
        </filter>
        <linearGradient x1="66.7382812%" y1="14.3229167%" x2="27.3626309%" y2="97.752889%" id="linearGradient-3">
            <stop stop-color="#FFFFFF" offset="0%"></stop>
            <stop stop-color="#FFE7E7" offset="100%"></stop>
        </linearGradient>
    </defs>
    <g id="Page-1" stroke="none" stroke-width="1" fill="none" fill-rule="evenodd">
        <g id="Browser-not-supported" transform="translate(-71.000000, -23.000000)">
            <g transform="translate(71.000000, 23.000000)">
                <g id="Group-3" fill-rule="nonzero">
                    <g id="Group-8" transform="translate(0.000000, 0.241830)">
                        <g id="Group-2">
                            <g id="Group" opacity="0.399994" transform="translate(126.084967, 12.732026)" fill="#E9EBEE">
                                <path d="M38.9495865,39.9477124 L12.9830065,39.9477124 C5.81205113,39.9477124 0,33.9507988 0,26.6623665 L0,13.3770207 C0,5.996337 5.81205113,0 12.9830065,0 L64.9150327,0 L64.9150327,13.3770207 C64.9150327,28.04556 53.2897966,39.9477124 38.9495865,39.9477124" id="Path"></path>
                            </g>
                            <g id="Group" opacity="0.399994" transform="translate(37.000000, 85.362745) scale(1, -1) translate(-37.000000, -85.362745) translate(0.000000, 66.862745)" fill="#E9EBEE">
                                <path d="M73.6535948,18.101005 L73.6535948,36.2026144 L36.827105,36.2026144 C16.4953139,36.2026144 0,19.9937784 0,0 L55.2409652,0 C65.4705457,0 73.6535948,8.10290716 73.6535948,18.101005" id="Path"></path>
                            </g>
                            <g id="Group" opacity="0.100006" transform="translate(121.091503, 0.000000)" fill="#FB043D">
                                <path d="M1.51624455,0.716977454 C1.51624455,1.05250727 1.23882988,1.3250188 0.896396151,1.3250188 C0.554829339,1.3250188 0.27741467,1.05250727 0.27741467,0.716977454 C0.27741467,0.380596038 0.554829339,0.108084511 0.896396151,0.108084511 C1.23882988,0.108084511 1.51624455,0.380596038 1.51624455,0.716977454" id="Path"></path>
                                <path d="M8.22187727,0.716977454 C8.22187727,1.05250727 7.9444626,1.3250188 7.60289579,1.3250188 C7.26046206,1.3250188 6.98304739,1.05250727 6.98304739,0.716977454 C6.98304739,0.380596038 7.26046206,0.108084511 7.60289579,0.108084511 C7.9444626,0.108084511 8.22187727,0.380596038 8.22187727,0.716977454" id="Path"></path>
                                <path d="M14.92751,0.716977454 C14.92751,1.05250727 14.6509622,1.3250188 14.3085285,1.3250188 C13.9660948,1.3250188 13.6886801,1.05250727 13.6886801,0.716977454 C13.6886801,0.380596038 13.9660948,0.108084511 14.3085285,0.108084511 C14.6509622,0.108084511 14.92751,0.380596038 14.92751,0.716977454" id="Path"></path>
                                <path d="M21.6340096,0.716977454 C21.6340096,1.05250727 21.355728,1.3250188 21.0141612,1.3250188 C20.6717275,1.3250188 20.3951797,1.05250727 20.3951797,0.716977454 C20.3951797,0.380596038 20.6717275,0.108084511 21.0141612,0.108084511 C21.355728,0.108084511 21.6340096,0.380596038 21.6340096,0.716977454" id="Path"></path>
                                <path d="M28.3396423,0.716977454 C28.3396423,1.05250727 28.0622277,1.3250188 27.7197939,1.3250188 C27.3782271,1.3250188 27.1008125,1.05250727 27.1008125,0.716977454 C27.1008125,0.380596038 27.3782271,0.108084511 27.7197939,0.108084511 C28.0622277,0.108084511 28.3396423,0.380596038 28.3396423,0.716977454" id="Path"></path>
                                <path d="M35.0452751,0.716977454 C35.0452751,1.05250727 34.7678604,1.3250188 34.4262936,1.3250188 C34.0838598,1.3250188 33.8064452,1.05250727 33.8064452,0.716977454 C33.8064452,0.380596038 34.0838598,0.108084511 34.4262936,0.108084511 C34.7678604,0.108084511 35.0452751,0.380596038 35.0452751,0.716977454" id="Path"></path>
                                <path d="M41.7509078,0.716977454 C41.7509078,1.05250727 41.4734931,1.3250188 41.1319263,1.3250188 C40.7894926,1.3250188 40.5120779,1.05250727 40.5120779,0.716977454 C40.5120779,0.380596038 40.7894926,0.108084511 41.1319263,0.108084511 C41.4734931,0.108084511 41.7509078,0.380596038 41.7509078,0.716977454" id="Path"></path>
                                <path d="M48.4565405,0.716977454 C48.4565405,1.05250727 48.1799927,1.3250188 47.837559,1.3250188 C47.4959922,1.3250188 47.2177106,1.05250727 47.2177106,0.716977454 C47.2177106,0.380596038 47.4959922,0.108084511 47.837559,0.108084511 C48.1799927,0.108084511 48.4565405,0.380596038 48.4565405,0.716977454" id="Path"></path>
                                <path d="M55.1630401,0.716977454 C55.1630401,1.05250727 54.8856255,1.3250188 54.5431917,1.3250188 C54.200758,1.3250188 53.9242102,1.05250727 53.9242102,0.716977454 C53.9242102,0.380596038 54.200758,0.108084511 54.5431917,0.108084511 C54.8856255,0.108084511 55.1630401,0.380596038 55.1630401,0.716977454" id="Path"></path>
                                <path d="M61.8686728,0.716977454 C61.8686728,1.05250727 61.5912582,1.3250188 61.2488244,1.3250188 C60.9072576,1.3250188 60.629843,1.05250727 60.629843,0.716977454 C60.629843,0.380596038 60.9072576,0.108084511 61.2488244,0.108084511 C61.5912582,0.108084511 61.8686728,0.380596038 61.8686728,0.716977454" id="Path"></path>
                                <path d="M1.51624455,5.8708517 C1.51624455,6.20723312 1.23882988,6.47974464 0.896396151,6.47974464 C0.554829339,6.47974464 0.27741467,6.20723312 0.27741467,5.8708517 C0.27741467,5.53532188 0.554829339,5.26281036 0.896396151,5.26281036 C1.23882988,5.26281036 1.51624455,5.53532188 1.51624455,5.8708517" id="Path"></path>
                                <path d="M8.22187727,5.8708517 C8.22187727,6.20723312 7.9444626,6.47974464 7.60289579,6.47974464 C7.26046206,6.47974464 6.98304739,6.20723312 6.98304739,5.8708517 C6.98304739,5.53532188 7.26046206,5.26281036 7.60289579,5.26281036 C7.9444626,5.26281036 8.22187727,5.53532188 8.22187727,5.8708517" id="Path"></path>
                                <path d="M14.92751,5.8708517 C14.92751,6.20723312 14.6509622,6.47974464 14.3085285,6.47974464 C13.9660948,6.47974464 13.6886801,6.20723312 13.6886801,5.8708517 C13.6886801,5.53532188 13.9660948,5.26281036 14.3085285,5.26281036 C14.6509622,5.26281036 14.92751,5.53532188 14.92751,5.8708517" id="Path"></path>
                                <path d="M21.6340096,5.8708517 C21.6340096,6.20723312 21.355728,6.47974464 21.0141612,6.47974464 C20.6717275,6.47974464 20.3951797,6.20723312 20.3951797,5.8708517 C20.3951797,5.53532188 20.6717275,5.26281036 21.0141612,5.26281036 C21.355728,5.26281036 21.6340096,5.53532188 21.6340096,5.8708517" id="Path"></path>
                                <path d="M28.3396423,5.8708517 C28.3396423,6.20723312 28.0622277,6.47974464 27.7197939,6.47974464 C27.3782271,6.47974464 27.1008125,6.20723312 27.1008125,5.8708517 C27.1008125,5.53532188 27.3782271,5.26281036 27.7197939,5.26281036 C28.0622277,5.26281036 28.3396423,5.53532188 28.3396423,5.8708517" id="Path"></path>
                                <path d="M35.0452751,5.8708517 C35.0452751,6.20723312 34.7678604,6.47974464 34.4262936,6.47974464 C34.0838598,6.47974464 33.8064452,6.20723312 33.8064452,5.8708517 C33.8064452,5.53532188 34.0838598,5.26281036 34.4262936,5.26281036 C34.7678604,5.26281036 35.0452751,5.53532188 35.0452751,5.8708517" id="Path"></path>
                                <path d="M41.7509078,5.8708517 C41.7509078,6.20723312 41.4734931,6.47974464 41.1319263,6.47974464 C40.7894926,6.47974464 40.5120779,6.20723312 40.5120779,5.8708517 C40.5120779,5.53532188 40.7894926,5.26281036 41.1319263,5.26281036 C41.4734931,5.26281036 41.7509078,5.53532188 41.7509078,5.8708517" id="Path"></path>
                                <path d="M48.4565405,5.8708517 C48.4565405,6.20723312 48.1799927,6.47974464 47.837559,6.47974464 C47.4959922,6.47974464 47.2177106,6.20723312 47.2177106,5.8708517 C47.2177106,5.53532188 47.4959922,5.26281036 47.837559,5.26281036 C48.1799927,5.26281036 48.4565405,5.53532188 48.4565405,5.8708517" id="Path"></path>
                                <path d="M55.1630401,5.8708517 C55.1630401,6.20723312 54.8856255,6.47974464 54.5431917,6.47974464 C54.200758,6.47974464 53.9242102,6.20723312 53.9242102,5.8708517 C53.9242102,5.53532188 54.200758,5.26281036 54.5431917,5.26281036 C54.8856255,5.26281036 55.1630401,5.53532188 55.1630401,5.8708517" id="Path"></path>
                                <path d="M61.8686728,5.8708517 C61.8686728,6.20723312 61.5912582,6.47974464 61.2488244,6.47974464 C60.9072576,6.47974464 60.629843,6.20723312 60.629843,5.8708517 C60.629843,5.53532188 60.9072576,5.26281036 61.2488244,5.26281036 C61.5912582,5.26281036 61.8686728,5.53532188 61.8686728,5.8708517" id="Path"></path>
                                <path d="M1.51624455,11.0255775 C1.51624455,11.361959 1.23882988,11.6344705 0.896396151,11.6344705 C0.554829339,11.6344705 0.27741467,11.361959 0.27741467,11.0255775 C0.27741467,10.6900477 0.554829339,10.4175362 0.896396151,10.4175362 C1.23882988,10.4175362 1.51624455,10.6900477 1.51624455,11.0255775" id="Path"></path>
                                <path d="M8.22187727,11.0255775 C8.22187727,11.361959 7.9444626,11.6344705 7.60289579,11.6344705 C7.26046206,11.6344705 6.98304739,11.361959 6.98304739,11.0255775 C6.98304739,10.6900477 7.26046206,10.4175362 7.60289579,10.4175362 C7.9444626,10.4175362 8.22187727,10.6900477 8.22187727,11.0255775" id="Path"></path>
                                <path d="M14.92751,11.0255775 C14.92751,11.361959 14.6509622,11.6344705 14.3085285,11.6344705 C13.9660948,11.6344705 13.6886801,11.361959 13.6886801,11.0255775 C13.6886801,10.6900477 13.9660948,10.4175362 14.3085285,10.4175362 C14.6509622,10.4175362 14.92751,10.6900477 14.92751,11.0255775" id="Path"></path>
                                <path d="M21.6340096,11.0255775 C21.6340096,11.361959 21.355728,11.6344705 21.0141612,11.6344705 C20.6717275,11.6344705 20.3951797,11.361959 20.3951797,11.0255775 C20.3951797,10.6900477 20.6717275,10.4175362 21.0141612,10.4175362 C21.355728,10.4175362 21.6340096,10.6900477 21.6340096,11.0255775" id="Path"></path>
                                <path d="M28.3396423,11.0255775 C28.3396423,11.361959 28.0622277,11.6344705 27.7197939,11.6344705 C27.3782271,11.6344705 27.1008125,11.361959 27.1008125,11.0255775 C27.1008125,10.6900477 27.3782271,10.4175362 27.7197939,10.4175362 C28.0622277,10.4175362 28.3396423,10.6900477 28.3396423,11.0255775" id="Path"></path>
                                <path d="M35.0452751,11.0255775 C35.0452751,11.361959 34.7678604,11.6344705 34.4262936,11.6344705 C34.0838598,11.6344705 33.8064452,11.361959 33.8064452,11.0255775 C33.8064452,10.6900477 34.0838598,10.4175362 34.4262936,10.4175362 C34.7678604,10.4175362 35.0452751,10.6900477 35.0452751,11.0255775" id="Path"></path>
                                <path d="M41.7509078,11.0255775 C41.7509078,11.361959 41.4734931,11.6344705 41.1319263,11.6344705 C40.7894926,11.6344705 40.5120779,11.361959 40.5120779,11.0255775 C40.5120779,10.6900477 40.7894926,10.4175362 41.1319263,10.4175362 C41.4734931,10.4175362 41.7509078,10.6900477 41.7509078,11.0255775" id="Path"></path>
                                <path d="M48.4565405,11.0255775 C48.4565405,11.361959 48.1799927,11.6344705 47.837559,11.6344705 C47.4959922,11.6344705 47.2177106,11.361959 47.2177106,11.0255775 C47.2177106,10.6900477 47.4959922,10.4175362 47.837559,10.4175362 C48.1799927,10.4175362 48.4565405,10.6900477 48.4565405,11.0255775" id="Path"></path>
                                <path d="M55.1630401,11.0255775 C55.1630401,11.361959 54.8856255,11.6344705 54.5431917,11.6344705 C54.200758,11.6344705 53.9242102,11.361959 53.9242102,11.0255775 C53.9242102,10.6900477 54.200758,10.4175362 54.5431917,10.4175362 C54.8856255,10.4175362 55.1630401,10.6900477 55.1630401,11.0255775" id="Path"></path>
                                <path d="M61.8686728,11.0255775 C61.8686728,11.361959 61.5912582,11.6344705 61.2488244,11.6344705 C60.9072576,11.6344705 60.629843,11.361959 60.629843,11.0255775 C60.629843,10.6900477 60.9072576,10.4175362 61.2488244,10.4175362 C61.5912582,10.4175362 61.8686728,10.6900477 61.8686728,11.0255775" id="Path"></path>
                                <path d="M1.51624455,16.1803034 C1.51624455,16.5158332 1.23882988,16.7891963 0.896396151,16.7891963 C0.554829339,16.7891963 0.27741467,16.5158332 0.27741467,16.1803034 C0.27741467,15.843922 0.554829339,15.572262 0.896396151,15.572262 C1.23882988,15.572262 1.51624455,15.843922 1.51624455,16.1803034" id="Path"></path>
                                <path d="M8.22187727,16.1803034 C8.22187727,16.5158332 7.9444626,16.7891963 7.60289579,16.7891963 C7.26046206,16.7891963 6.98304739,16.5158332 6.98304739,16.1803034 C6.98304739,15.843922 7.26046206,15.572262 7.60289579,15.572262 C7.9444626,15.572262 8.22187727,15.843922 8.22187727,16.1803034" id="Path"></path>
                                <path d="M14.92751,16.1803034 C14.92751,16.5158332 14.6509622,16.7891963 14.3085285,16.7891963 C13.9660948,16.7891963 13.6886801,16.5158332 13.6886801,16.1803034 C13.6886801,15.843922 13.9660948,15.572262 14.3085285,15.572262 C14.6509622,15.572262 14.92751,15.843922 14.92751,16.1803034" id="Path"></path>
                                <path d="M21.6340096,16.1803034 C21.6340096,16.5158332 21.355728,16.7891963 21.0141612,16.7891963 C20.6717275,16.7891963 20.3951797,16.5158332 20.3951797,16.1803034 C20.3951797,15.843922 20.6717275,15.572262 21.0141612,15.572262 C21.355728,15.572262 21.6340096,15.843922 21.6340096,16.1803034" id="Path"></path>
                                <path d="M28.3396423,16.1803034 C28.3396423,16.5158332 28.0622277,16.7891963 27.7197939,16.7891963 C27.3782271,16.7891963 27.1008125,16.5158332 27.1008125,16.1803034 C27.1008125,15.843922 27.3782271,15.572262 27.7197939,15.572262 C28.0622277,15.572262 28.3396423,15.843922 28.3396423,16.1803034" id="Path"></path>
                                <path d="M35.0452751,16.1803034 C35.0452751,16.5158332 34.7678604,16.7891963 34.4262936,16.7891963 C34.0838598,16.7891963 33.8064452,16.5158332 33.8064452,16.1803034 C33.8064452,15.843922 34.0838598,15.572262 34.4262936,15.572262 C34.7678604,15.572262 35.0452751,15.843922 35.0452751,16.1803034" id="Path"></path>
                                <path d="M41.7509078,16.1803034 C41.7509078,16.5158332 41.4734931,16.7891963 41.1319263,16.7891963 C40.7894926,16.7891963 40.5120779,16.5158332 40.5120779,16.1803034 C40.5120779,15.843922 40.7894926,15.572262 41.1319263,15.572262 C41.4734931,15.572262 41.7509078,15.843922 41.7509078,16.1803034" id="Path"></path>
                                <path d="M48.4565405,16.1803034 C48.4565405,16.5158332 48.1799927,16.7891963 47.837559,16.7891963 C47.4959922,16.7891963 47.2177106,16.5158332 47.2177106,16.1803034 C47.2177106,15.843922 47.4959922,15.572262 47.837559,15.572262 C48.1799927,15.572262 48.4565405,15.843922 48.4565405,16.1803034" id="Path"></path>
                                <path d="M55.1630401,16.1803034 C55.1630401,16.5158332 54.8856255,16.7891963 54.5431917,16.7891963 C54.200758,16.7891963 53.9242102,16.5158332 53.9242102,16.1803034 C53.9242102,15.843922 54.200758,15.572262 54.5431917,15.572262 C54.8856255,15.572262 55.1630401,15.843922 55.1630401,16.1803034" id="Path"></path>
                                <path d="M61.8686728,16.1803034 C61.8686728,16.5158332 61.5912582,16.7891963 61.2488244,16.7891963 C60.9072576,16.7891963 60.629843,16.5158332 60.629843,16.1803034 C60.629843,15.843922 60.9072576,15.572262 61.2488244,15.572262 C61.5912582,15.572262 61.8686728,15.843922 61.8686728,16.1803034" id="Path"></path>
                                <path d="M1.51624455,21.3350292 C1.51624455,21.6705591 1.23882988,21.9430706 0.896396151,21.9430706 C0.554829339,21.9430706 0.27741467,21.6705591 0.27741467,21.3350292 C0.27741467,20.9986478 0.554829339,20.7261363 0.896396151,20.7261363 C1.23882988,20.7261363 1.51624455,20.9986478 1.51624455,21.3350292" id="Path"></path>
                                <path d="M8.22187727,21.3350292 C8.22187727,21.6705591 7.9444626,21.9430706 7.60289579,21.9430706 C7.26046206,21.9430706 6.98304739,21.6705591 6.98304739,21.3350292 C6.98304739,20.9986478 7.26046206,20.7261363 7.60289579,20.7261363 C7.9444626,20.7261363 8.22187727,20.9986478 8.22187727,21.3350292" id="Path"></path>
                                <path d="M14.92751,21.3350292 C14.92751,21.6705591 14.6509622,21.9430706 14.3085285,21.9430706 C13.9660948,21.9430706 13.6886801,21.6705591 13.6886801,21.3350292 C13.6886801,20.9986478 13.9660948,20.7261363 14.3085285,20.7261363 C14.6509622,20.7261363 14.92751,20.9986478 14.92751,21.3350292" id="Path"></path>
                                <path d="M21.6340096,21.3350292 C21.6340096,21.6705591 21.355728,21.9430706 21.0141612,21.9430706 C20.6717275,21.9430706 20.3951797,21.6705591 20.3951797,21.3350292 C20.3951797,20.9986478 20.6717275,20.7261363 21.0141612,20.7261363 C21.355728,20.7261363 21.6340096,20.9986478 21.6340096,21.3350292" id="Path"></path>
                                <path d="M28.3396423,21.3350292 C28.3396423,21.6705591 28.0622277,21.9430706 27.7197939,21.9430706 C27.3782271,21.9430706 27.1008125,21.6705591 27.1008125,21.3350292 C27.1008125,20.9986478 27.3782271,20.7261363 27.7197939,20.7261363 C28.0622277,20.7261363 28.3396423,20.9986478 28.3396423,21.3350292" id="Path"></path>
                                <path d="M35.0452751,21.3350292 C35.0452751,21.6705591 34.7678604,21.9430706 34.4262936,21.9430706 C34.0838598,21.9430706 33.8064452,21.6705591 33.8064452,21.3350292 C33.8064452,20.9986478 34.0838598,20.7261363 34.4262936,20.7261363 C34.7678604,20.7261363 35.0452751,20.9986478 35.0452751,21.3350292" id="Path"></path>
                                <path d="M41.7509078,21.3350292 C41.7509078,21.6705591 41.4734931,21.9430706 41.1319263,21.9430706 C40.7894926,21.9430706 40.5120779,21.6705591 40.5120779,21.3350292 C40.5120779,20.9986478 40.7894926,20.7261363 41.1319263,20.7261363 C41.4734931,20.7261363 41.7509078,20.9986478 41.7509078,21.3350292" id="Path"></path>
                                <path d="M48.4565405,21.3350292 C48.4565405,21.6705591 48.1799927,21.9430706 47.837559,21.9430706 C47.4959922,21.9430706 47.2177106,21.6705591 47.2177106,21.3350292 C47.2177106,20.9986478 47.4959922,20.7261363 47.837559,20.7261363 C48.1799927,20.7261363 48.4565405,20.9986478 48.4565405,21.3350292" id="Path"></path>
                                <path d="M55.1630401,21.3350292 C55.1630401,21.6705591 54.8856255,21.9430706 54.5431917,21.9430706 C54.200758,21.9430706 53.9242102,21.6705591 53.9242102,21.3350292 C53.9242102,20.9986478 54.200758,20.7261363 54.5431917,20.7261363 C54.8856255,20.7261363 55.1630401,20.9986478 55.1630401,21.3350292" id="Path"></path>
                                <path d="M61.8686728,21.3350292 C61.8686728,21.6705591 61.5912582,21.9430706 61.2488244,21.9430706 C60.9072576,21.9430706 60.629843,21.6705591 60.629843,21.3350292 C60.629843,20.9986478 60.9072576,20.7261363 61.2488244,20.7261363 C61.5912582,20.7261363 61.8686728,20.9986478 61.8686728,21.3350292" id="Path"></path>
                                <path d="M1.51624455,26.1022778 C1.51624455,26.4386592 1.23882988,26.7111707 0.896396151,26.7111707 C0.554829339,26.7111707 0.27741467,26.4386592 0.27741467,26.1022778 C0.27741467,25.7667479 0.554829339,25.4942364 0.896396151,25.4942364 C1.23882988,25.4942364 1.51624455,25.7667479 1.51624455,26.1022778" id="Path"></path>
                                <path d="M8.22187727,26.1022778 C8.22187727,26.4386592 7.9444626,26.7111707 7.60289579,26.7111707 C7.26046206,26.7111707 6.98304739,26.4386592 6.98304739,26.1022778 C6.98304739,25.7667479 7.26046206,25.4942364 7.60289579,25.4942364 C7.9444626,25.4942364 8.22187727,25.7667479 8.22187727,26.1022778" id="Path"></path>
                                <path d="M14.92751,26.1022778 C14.92751,26.4386592 14.6509622,26.7111707 14.3085285,26.7111707 C13.9660948,26.7111707 13.6886801,26.4386592 13.6886801,26.1022778 C13.6886801,25.7667479 13.9660948,25.4942364 14.3085285,25.4942364 C14.6509622,25.4942364 14.92751,25.7667479 14.92751,26.1022778" id="Path"></path>
                                <path d="M21.6340096,26.1022778 C21.6340096,26.4386592 21.355728,26.7111707 21.0141612,26.7111707 C20.6717275,26.7111707 20.3951797,26.4386592 20.3951797,26.1022778 C20.3951797,25.7667479 20.6717275,25.4942364 21.0141612,25.4942364 C21.355728,25.4942364 21.6340096,25.7667479 21.6340096,26.1022778" id="Path"></path>
                                <path d="M28.3396423,26.1022778 C28.3396423,26.4386592 28.0622277,26.7111707 27.7197939,26.7111707 C27.3782271,26.7111707 27.1008125,26.4386592 27.1008125,26.1022778 C27.1008125,25.7667479 27.3782271,25.4942364 27.7197939,25.4942364 C28.0622277,25.4942364 28.3396423,25.7667479 28.3396423,26.1022778" id="Path"></path>
                                <path d="M35.0452751,26.1022778 C35.0452751,26.4386592 34.7678604,26.7111707 34.4262936,26.7111707 C34.0838598,26.7111707 33.8064452,26.4386592 33.8064452,26.1022778 C33.8064452,25.7667479 34.0838598,25.4942364 34.4262936,25.4942364 C34.7678604,25.4942364 35.0452751,25.7667479 35.0452751,26.1022778" id="Path"></path>
                                <path d="M41.7509078,26.1022778 C41.7509078,26.4386592 41.4734931,26.7111707 41.1319263,26.7111707 C40.7894926,26.7111707 40.5120779,26.4386592 40.5120779,26.1022778 C40.5120779,25.7667479 40.7894926,25.4942364 41.1319263,25.4942364 C41.4734931,25.4942364 41.7509078,25.7667479 41.7509078,26.1022778" id="Path"></path>
                                <path d="M48.4565405,26.1022778 C48.4565405,26.4386592 48.1799927,26.7111707 47.837559,26.7111707 C47.4959922,26.7111707 47.2177106,26.4386592 47.2177106,26.1022778 C47.2177106,25.7667479 47.4959922,25.4942364 47.837559,25.4942364 C48.1799927,25.4942364 48.4565405,25.7667479 48.4565405,26.1022778" id="Path"></path>
                                <path d="M55.1630401,26.1022778 C55.1630401,26.4386592 54.8856255,26.7111707 54.5431917,26.7111707 C54.200758,26.7111707 53.9242102,26.4386592 53.9242102,26.1022778 C53.9242102,25.7667479 54.200758,25.4942364 54.5431917,25.4942364 C54.8856255,25.4942364 55.1630401,25.7667479 55.1630401,26.1022778" id="Path"></path>
                                <path d="M61.8686728,26.1022778 C61.8686728,26.4386592 61.5912582,26.7111707 61.2488244,26.7111707 C60.9072576,26.7111707 60.629843,26.4386592 60.629843,26.1022778 C60.629843,25.7667479 60.9072576,25.4942364 61.2488244,25.4942364 C61.5912582,25.4942364 61.8686728,25.7667479 61.8686728,26.1022778" id="Path"></path>
                                <path d="M1.51624455,31.2570036 C1.51624455,31.5925334 1.23882988,31.8658965 0.896396151,31.8658965 C0.554829339,31.8658965 0.27741467,31.5925334 0.27741467,31.2570036 C0.27741467,30.9206222 0.554829339,30.6489623 0.896396151,30.6489623 C1.23882988,30.6489623 1.51624455,30.9206222 1.51624455,31.2570036" id="Path"></path>
                                <path d="M8.22187727,31.2570036 C8.22187727,31.5925334 7.9444626,31.8658965 7.60289579,31.8658965 C7.26046206,31.8658965 6.98304739,31.5925334 6.98304739,31.2570036 C6.98304739,30.9206222 7.26046206,30.6489623 7.60289579,30.6489623 C7.9444626,30.6489623 8.22187727,30.9206222 8.22187727,31.2570036" id="Path"></path>
                                <path d="M14.92751,31.2570036 C14.92751,31.5925334 14.6509622,31.8658965 14.3085285,31.8658965 C13.9660948,31.8658965 13.6886801,31.5925334 13.6886801,31.2570036 C13.6886801,30.9206222 13.9660948,30.6489623 14.3085285,30.6489623 C14.6509622,30.6489623 14.92751,30.9206222 14.92751,31.2570036" id="Path"></path>
                                <path d="M21.6340096,31.2570036 C21.6340096,31.5925334 21.355728,31.8658965 21.0141612,31.8658965 C20.6717275,31.8658965 20.3951797,31.5925334 20.3951797,31.2570036 C20.3951797,30.9206222 20.6717275,30.6489623 21.0141612,30.6489623 C21.355728,30.6489623 21.6340096,30.9206222 21.6340096,31.2570036" id="Path"></path>
                                <path d="M28.3396423,31.2570036 C28.3396423,31.5925334 28.0622277,31.8658965 27.7197939,31.8658965 C27.3782271,31.8658965 27.1008125,31.5925334 27.1008125,31.2570036 C27.1008125,30.9206222 27.3782271,30.6489623 27.7197939,30.6489623 C28.0622277,30.6489623 28.3396423,30.9206222 28.3396423,31.2570036" id="Path"></path>
                                <path d="M35.0452751,31.2570036 C35.0452751,31.5925334 34.7678604,31.8658965 34.4262936,31.8658965 C34.0838598,31.8658965 33.8064452,31.5925334 33.8064452,31.2570036 C33.8064452,30.9206222 34.0838598,30.6489623 34.4262936,30.6489623 C34.7678604,30.6489623 35.0452751,30.9206222 35.0452751,31.2570036" id="Path"></path>
                                <path d="M41.7509078,31.2570036 C41.7509078,31.5925334 41.4734931,31.8658965 41.1319263,31.8658965 C40.7894926,31.8658965 40.5120779,31.5925334 40.5120779,31.2570036 C40.5120779,30.9206222 40.7894926,30.6489623 41.1319263,30.6489623 C41.4734931,30.6489623 41.7509078,30.9206222 41.7509078,31.2570036" id="Path"></path>
                                <path d="M48.4565405,31.2570036 C48.4565405,31.5925334 48.1799927,31.8658965 47.837559,31.8658965 C47.4959922,31.8658965 47.2177106,31.5925334 47.2177106,31.2570036 C47.2177106,30.9206222 47.4959922,30.6489623 47.837559,30.6489623 C48.1799927,30.6489623 48.4565405,30.9206222 48.4565405,31.2570036" id="Path"></path>
                                <path d="M55.1630401,31.2570036 C55.1630401,31.5925334 54.8856255,31.8658965 54.5431917,31.8658965 C54.200758,31.8658965 53.9242102,31.5925334 53.9242102,31.2570036 C53.9242102,30.9206222 54.200758,30.6489623 54.5431917,30.6489623 C54.8856255,30.6489623 55.1630401,30.9206222 55.1630401,31.2570036" id="Path"></path>
                                <path d="M61.8686728,31.2570036 C61.8686728,31.5925334 61.5912582,31.8658965 61.2488244,31.8658965 C60.9072576,31.8658965 60.629843,31.5925334 60.629843,31.2570036 C60.629843,30.9206222 60.9072576,30.6489623 61.2488244,30.6489623 C61.5912582,30.6489623 61.8686728,30.9206222 61.8686728,31.2570036" id="Path"></path>
                                <path d="M1.51624455,36.4108778 C1.51624455,36.7472593 1.23882988,37.0197708 0.896396151,37.0197708 C0.554829339,37.0197708 0.27741467,36.7472593 0.27741467,36.4108778 C0.27741467,36.075348 0.554829339,35.8028365 0.896396151,35.8028365 C1.23882988,35.8028365 1.51624455,36.075348 1.51624455,36.4108778" id="Path"></path>
                                <path d="M8.22187727,36.4108778 C8.22187727,36.7472593 7.9444626,37.0197708 7.60289579,37.0197708 C7.26046206,37.0197708 6.98304739,36.7472593 6.98304739,36.4108778 C6.98304739,36.075348 7.26046206,35.8028365 7.60289579,35.8028365 C7.9444626,35.8028365 8.22187727,36.075348 8.22187727,36.4108778" id="Path"></path>
                                <path d="M14.92751,36.4108778 C14.92751,36.7472593 14.6509622,37.0197708 14.3085285,37.0197708 C13.9660948,37.0197708 13.6886801,36.7472593 13.6886801,36.4108778 C13.6886801,36.075348 13.9660948,35.8028365 14.3085285,35.8028365 C14.6509622,35.8028365 14.92751,36.075348 14.92751,36.4108778" id="Path"></path>
                                <path d="M21.6340096,36.4108778 C21.6340096,36.7472593 21.355728,37.0197708 21.0141612,37.0197708 C20.6717275,37.0197708 20.3951797,36.7472593 20.3951797,36.4108778 C20.3951797,36.075348 20.6717275,35.8028365 21.0141612,35.8028365 C21.355728,35.8028365 21.6340096,36.075348 21.6340096,36.4108778" id="Path"></path>
                                <path d="M28.3396423,36.4108778 C28.3396423,36.7472593 28.0622277,37.0197708 27.7197939,37.0197708 C27.3782271,37.0197708 27.1008125,36.7472593 27.1008125,36.4108778 C27.1008125,36.075348 27.3782271,35.8028365 27.7197939,35.8028365 C28.0622277,35.8028365 28.3396423,36.075348 28.3396423,36.4108778" id="Path"></path>
                                <path d="M35.0452751,36.4108778 C35.0452751,36.7472593 34.7678604,37.0197708 34.4262936,37.0197708 C34.0838598,37.0197708 33.8064452,36.7472593 33.8064452,36.4108778 C33.8064452,36.075348 34.0838598,35.8028365 34.4262936,35.8028365 C34.7678604,35.8028365 35.0452751,36.075348 35.0452751,36.4108778" id="Path"></path>
                                <path d="M41.7509078,36.4108778 C41.7509078,36.7472593 41.4734931,37.0197708 41.1319263,37.0197708 C40.7894926,37.0197708 40.5120779,36.7472593 40.5120779,36.4108778 C40.5120779,36.075348 40.7894926,35.8028365 41.1319263,35.8028365 C41.4734931,35.8028365 41.7509078,36.075348 41.7509078,36.4108778" id="Path"></path>
                                <path d="M48.4565405,36.4108778 C48.4565405,36.7472593 48.1799927,37.0197708 47.837559,37.0197708 C47.4959922,37.0197708 47.2177106,36.7472593 47.2177106,36.4108778 C47.2177106,36.075348 47.4959922,35.8028365 47.837559,35.8028365 C48.1799927,35.8028365 48.4565405,36.075348 48.4565405,36.4108778" id="Path"></path>
                                <path d="M55.1630401,36.4108778 C55.1630401,36.7472593 54.8856255,37.0197708 54.5431917,37.0197708 C54.200758,37.0197708 53.9242102,36.7472593 53.9242102,36.4108778 C53.9242102,36.075348 54.200758,35.8028365 54.5431917,35.8028365 C54.8856255,35.8028365 55.1630401,36.075348 55.1630401,36.4108778" id="Path"></path>
                                <path d="M61.8686728,36.4108778 C61.8686728,36.7472593 61.5912582,37.0197708 61.2488244,37.0197708 C60.9072576,37.0197708 60.629843,36.7472593 60.629843,36.4108778 C60.629843,36.075348 60.9072576,35.8028365 61.2488244,35.8028365 C61.5912582,35.8028365 61.8686728,36.075348 61.8686728,36.4108778" id="Path"></path>
                                <path d="M1.51624455,41.5656037 C1.51624455,41.9019851 1.23882988,42.1744966 0.896396151,42.1744966 C0.554829339,42.1744966 0.27741467,41.9019851 0.27741467,41.5656037 C0.27741467,41.2300739 0.554829339,40.9575623 0.896396151,40.9575623 C1.23882988,40.9575623 1.51624455,41.2300739 1.51624455,41.5656037" id="Path"></path>
                                <path d="M8.22187727,41.5656037 C8.22187727,41.9019851 7.9444626,42.1744966 7.60289579,42.1744966 C7.26046206,42.1744966 6.98304739,41.9019851 6.98304739,41.5656037 C6.98304739,41.2300739 7.26046206,40.9575623 7.60289579,40.9575623 C7.9444626,40.9575623 8.22187727,41.2300739 8.22187727,41.5656037" id="Path"></path>
                                <path d="M14.92751,41.5656037 C14.92751,41.9019851 14.6509622,42.1744966 14.3085285,42.1744966 C13.9660948,42.1744966 13.6886801,41.9019851 13.6886801,41.5656037 C13.6886801,41.2300739 13.9660948,40.9575623 14.3085285,40.9575623 C14.6509622,40.9575623 14.92751,41.2300739 14.92751,41.5656037" id="Path"></path>
                                <path d="M21.6340096,41.5656037 C21.6340096,41.9019851 21.355728,42.1744966 21.0141612,42.1744966 C20.6717275,42.1744966 20.3951797,41.9019851 20.3951797,41.5656037 C20.3951797,41.2300739 20.6717275,40.9575623 21.0141612,40.9575623 C21.355728,40.9575623 21.6340096,41.2300739 21.6340096,41.5656037" id="Path"></path>
                                <path d="M28.3396423,41.5656037 C28.3396423,41.9019851 28.0622277,42.1744966 27.7197939,42.1744966 C27.3782271,42.1744966 27.1008125,41.9019851 27.1008125,41.5656037 C27.1008125,41.2300739 27.3782271,40.9575623 27.7197939,40.9575623 C28.0622277,40.9575623 28.3396423,41.2300739 28.3396423,41.5656037" id="Path"></path>
                                <path d="M35.0452751,41.5656037 C35.0452751,41.9019851 34.7678604,42.1744966 34.4262936,42.1744966 C34.0838598,42.1744966 33.8064452,41.9019851 33.8064452,41.5656037 C33.8064452,41.2300739 34.0838598,40.9575623 34.4262936,40.9575623 C34.7678604,40.9575623 35.0452751,41.2300739 35.0452751,41.5656037" id="Path"></path>
                                <path d="M41.7509078,41.5656037 C41.7509078,41.9019851 41.4734931,42.1744966 41.1319263,42.1744966 C40.7894926,42.1744966 40.5120779,41.9019851 40.5120779,41.5656037 C40.5120779,41.2300739 40.7894926,40.9575623 41.1319263,40.9575623 C41.4734931,40.9575623 41.7509078,41.2300739 41.7509078,41.5656037" id="Path"></path>
                                <path d="M48.4565405,41.5656037 C48.4565405,41.9019851 48.1799927,42.1744966 47.837559,42.1744966 C47.4959922,42.1744966 47.2177106,41.9019851 47.2177106,41.5656037 C47.2177106,41.2300739 47.4959922,40.9575623 47.837559,40.9575623 C48.1799927,40.9575623 48.4565405,41.2300739 48.4565405,41.5656037" id="Path"></path>
                                <path d="M55.1630401,41.5656037 C55.1630401,41.9019851 54.8856255,42.1744966 54.5431917,42.1744966 C54.200758,42.1744966 53.9242102,41.9019851 53.9242102,41.5656037 C53.9242102,41.2300739 54.200758,40.9575623 54.5431917,40.9575623 C54.8856255,40.9575623 55.1630401,41.2300739 55.1630401,41.5656037" id="Path"></path>
                                <path d="M61.8686728,41.5656037 C61.8686728,41.9019851 61.5912582,42.1744966 61.2488244,42.1744966 C60.9072576,42.1744966 60.629843,41.9019851 60.629843,41.5656037 C60.629843,41.2300739 60.9072576,40.9575623 61.2488244,40.9575623 C61.5912582,40.9575623 61.8686728,41.2300739 61.8686728,41.5656037" id="Path"></path>
                                <path d="M1.51624455,46.7203295 C1.51624455,47.0567109 1.23882988,47.3292225 0.896396151,47.3292225 C0.554829339,47.3292225 0.27741467,47.0567109 0.27741467,46.7203295 C0.27741467,46.3839481 0.554829339,46.1122882 0.896396151,46.1122882 C1.23882988,46.1122882 1.51624455,46.3839481 1.51624455,46.7203295" id="Path"></path>
                                <path d="M8.22187727,46.7203295 C8.22187727,47.0567109 7.9444626,47.3292225 7.60289579,47.3292225 C7.26046206,47.3292225 6.98304739,47.0567109 6.98304739,46.7203295 C6.98304739,46.3839481 7.26046206,46.1122882 7.60289579,46.1122882 C7.9444626,46.1122882 8.22187727,46.3839481 8.22187727,46.7203295" id="Path"></path>
                                <path d="M14.92751,46.7203295 C14.92751,47.0567109 14.6509622,47.3292225 14.3085285,47.3292225 C13.9660948,47.3292225 13.6886801,47.0567109 13.6886801,46.7203295 C13.6886801,46.3839481 13.9660948,46.1122882 14.3085285,46.1122882 C14.6509622,46.1122882 14.92751,46.3839481 14.92751,46.7203295" id="Path"></path>
                                <path d="M21.6340096,46.7203295 C21.6340096,47.0567109 21.355728,47.3292225 21.0141612,47.3292225 C20.6717275,47.3292225 20.3951797,47.0567109 20.3951797,46.7203295 C20.3951797,46.3839481 20.6717275,46.1122882 21.0141612,46.1122882 C21.355728,46.1122882 21.6340096,46.3839481 21.6340096,46.7203295" id="Path"></path>
                                <path d="M28.3396423,46.7203295 C28.3396423,47.0567109 28.0622277,47.3292225 27.7197939,47.3292225 C27.3782271,47.3292225 27.1008125,47.0567109 27.1008125,46.7203295 C27.1008125,46.3839481 27.3782271,46.1122882 27.7197939,46.1122882 C28.0622277,46.1122882 28.3396423,46.3839481 28.3396423,46.7203295" id="Path"></path>
                                <path d="M35.0452751,46.7203295 C35.0452751,47.0567109 34.7678604,47.3292225 34.4262936,47.3292225 C34.0838598,47.3292225 33.8064452,47.0567109 33.8064452,46.7203295 C33.8064452,46.3839481 34.0838598,46.1122882 34.4262936,46.1122882 C34.7678604,46.1122882 35.0452751,46.3839481 35.0452751,46.7203295" id="Path"></path>
                                <path d="M41.7509078,46.7203295 C41.7509078,47.0567109 41.4734931,47.3292225 41.1319263,47.3292225 C40.7894926,47.3292225 40.5120779,47.0567109 40.5120779,46.7203295 C40.5120779,46.3839481 40.7894926,46.1122882 41.1319263,46.1122882 C41.4734931,46.1122882 41.7509078,46.3839481 41.7509078,46.7203295" id="Path"></path>
                                <path d="M48.4565405,46.7203295 C48.4565405,47.0567109 48.1799927,47.3292225 47.837559,47.3292225 C47.4959922,47.3292225 47.2177106,47.0567109 47.2177106,46.7203295 C47.2177106,46.3839481 47.4959922,46.1122882 47.837559,46.1122882 C48.1799927,46.1122882 48.4565405,46.3839481 48.4565405,46.7203295" id="Path"></path>
                                <path d="M55.1630401,46.7203295 C55.1630401,47.0567109 54.8856255,47.3292225 54.5431917,47.3292225 C54.200758,47.3292225 53.9242102,47.0567109 53.9242102,46.7203295 C53.9242102,46.3839481 54.200758,46.1122882 54.5431917,46.1122882 C54.8856255,46.1122882 55.1630401,46.3839481 55.1630401,46.7203295" id="Path"></path>
                                <path d="M61.8686728,46.7203295 C61.8686728,47.0567109 61.5912582,47.3292225 61.2488244,47.3292225 C60.9072576,47.3292225 60.629843,47.0567109 60.629843,46.7203295 C60.629843,46.3839481 60.9072576,46.1122882 61.2488244,46.1122882 C61.5912582,46.1122882 61.8686728,46.3839481 61.8686728,46.7203295" id="Path"></path>
                                <path d="M1.51624455,51.8750554 C1.51624455,52.2105852 1.23882988,52.4830967 0.896396151,52.4830967 C0.554829339,52.4830967 0.27741467,52.2105852 0.27741467,51.8750554 C0.27741467,51.538674 0.554829339,51.2661624 0.896396151,51.2661624 C1.23882988,51.2661624 1.51624455,51.538674 1.51624455,51.8750554" id="Path"></path>
                                <path d="M8.22187727,51.8750554 C8.22187727,52.2105852 7.9444626,52.4830967 7.60289579,52.4830967 C7.26046206,52.4830967 6.98304739,52.2105852 6.98304739,51.8750554 C6.98304739,51.538674 7.26046206,51.2661624 7.60289579,51.2661624 C7.9444626,51.2661624 8.22187727,51.538674 8.22187727,51.8750554" id="Path"></path>
                                <path d="M14.92751,51.8750554 C14.92751,52.2105852 14.6509622,52.4830967 14.3085285,52.4830967 C13.9660948,52.4830967 13.6886801,52.2105852 13.6886801,51.8750554 C13.6886801,51.538674 13.9660948,51.2661624 14.3085285,51.2661624 C14.6509622,51.2661624 14.92751,51.538674 14.92751,51.8750554" id="Path"></path>
                                <path d="M21.6340096,51.8750554 C21.6340096,52.2105852 21.355728,52.4830967 21.0141612,52.4830967 C20.6717275,52.4830967 20.3951797,52.2105852 20.3951797,51.8750554 C20.3951797,51.538674 20.6717275,51.2661624 21.0141612,51.2661624 C21.355728,51.2661624 21.6340096,51.538674 21.6340096,51.8750554" id="Path"></path>
                                <path d="M28.3396423,51.8750554 C28.3396423,52.2105852 28.0622277,52.4830967 27.7197939,52.4830967 C27.3782271,52.4830967 27.1008125,52.2105852 27.1008125,51.8750554 C27.1008125,51.538674 27.3782271,51.2661624 27.7197939,51.2661624 C28.0622277,51.2661624 28.3396423,51.538674 28.3396423,51.8750554" id="Path"></path>
                                <path d="M35.0452751,51.8750554 C35.0452751,52.2105852 34.7678604,52.4830967 34.4262936,52.4830967 C34.0838598,52.4830967 33.8064452,52.2105852 33.8064452,51.8750554 C33.8064452,51.538674 34.0838598,51.2661624 34.4262936,51.2661624 C34.7678604,51.2661624 35.0452751,51.538674 35.0452751,51.8750554" id="Path"></path>
                                <path d="M41.7509078,51.8750554 C41.7509078,52.2105852 41.4734931,52.4830967 41.1319263,52.4830967 C40.7894926,52.4830967 40.5120779,52.2105852 40.5120779,51.8750554 C40.5120779,51.538674 40.7894926,51.2661624 41.1319263,51.2661624 C41.4734931,51.2661624 41.7509078,51.538674 41.7509078,51.8750554" id="Path"></path>
                                <path d="M48.4565405,51.8750554 C48.4565405,52.2105852 48.1799927,52.4830967 47.837559,52.4830967 C47.4959922,52.4830967 47.2177106,52.2105852 47.2177106,51.8750554 C47.2177106,51.538674 47.4959922,51.2661624 47.837559,51.2661624 C48.1799927,51.2661624 48.4565405,51.538674 48.4565405,51.8750554" id="Path"></path>
                                <path d="M55.1630401,51.8750554 C55.1630401,52.2105852 54.8856255,52.4830967 54.5431917,52.4830967 C54.200758,52.4830967 53.9242102,52.2105852 53.9242102,51.8750554 C53.9242102,51.538674 54.200758,51.2661624 54.5431917,51.2661624 C54.8856255,51.2661624 55.1630401,51.538674 55.1630401,51.8750554" id="Path"></path>
                                <path d="M61.8686728,51.8750554 C61.8686728,52.2105852 61.5912582,52.4830967 61.2488244,52.4830967 C60.9072576,52.4830967 60.629843,52.2105852 60.629843,51.8750554 C60.629843,51.538674 60.9072576,51.2661624 61.2488244,51.2661624 C61.5912582,51.2661624 61.8686728,51.538674 61.8686728,51.8750554" id="Path"></path>
                                <path d="M1.51624455,57.0289296 C1.51624455,57.365311 1.23882988,57.6378226 0.896396151,57.6378226 C0.554829339,57.6378226 0.27741467,57.365311 0.27741467,57.0289296 C0.27741467,56.6933998 0.554829339,56.4208883 0.896396151,56.4208883 C1.23882988,56.4208883 1.51624455,56.6933998 1.51624455,57.0289296" id="Path"></path>
                                <path d="M8.22187727,57.0289296 C8.22187727,57.365311 7.9444626,57.6378226 7.60289579,57.6378226 C7.26046206,57.6378226 6.98304739,57.365311 6.98304739,57.0289296 C6.98304739,56.6933998 7.26046206,56.4208883 7.60289579,56.4208883 C7.9444626,56.4208883 8.22187727,56.6933998 8.22187727,57.0289296" id="Path"></path>
                                <path d="M14.92751,57.0289296 C14.92751,57.365311 14.6509622,57.6378226 14.3085285,57.6378226 C13.9660948,57.6378226 13.6886801,57.365311 13.6886801,57.0289296 C13.6886801,56.6933998 13.9660948,56.4208883 14.3085285,56.4208883 C14.6509622,56.4208883 14.92751,56.6933998 14.92751,57.0289296" id="Path"></path>
                                <path d="M21.6340096,57.0289296 C21.6340096,57.365311 21.355728,57.6378226 21.0141612,57.6378226 C20.6717275,57.6378226 20.3951797,57.365311 20.3951797,57.0289296 C20.3951797,56.6933998 20.6717275,56.4208883 21.0141612,56.4208883 C21.355728,56.4208883 21.6340096,56.6933998 21.6340096,57.0289296" id="Path"></path>
                                <path d="M28.3396423,57.0289296 C28.3396423,57.365311 28.0622277,57.6378226 27.7197939,57.6378226 C27.3782271,57.6378226 27.1008125,57.365311 27.1008125,57.0289296 C27.1008125,56.6933998 27.3782271,56.4208883 27.7197939,56.4208883 C28.0622277,56.4208883 28.3396423,56.6933998 28.3396423,57.0289296" id="Path"></path>
                                <path d="M35.0452751,57.0289296 C35.0452751,57.365311 34.7678604,57.6378226 34.4262936,57.6378226 C34.0838598,57.6378226 33.8064452,57.365311 33.8064452,57.0289296 C33.8064452,56.6933998 34.0838598,56.4208883 34.4262936,56.4208883 C34.7678604,56.4208883 35.0452751,56.6933998 35.0452751,57.0289296" id="Path"></path>
                                <path d="M41.7509078,57.0289296 C41.7509078,57.365311 41.4734931,57.6378226 41.1319263,57.6378226 C40.7894926,57.6378226 40.5120779,57.365311 40.5120779,57.0289296 C40.5120779,56.6933998 40.7894926,56.4208883 41.1319263,56.4208883 C41.4734931,56.4208883 41.7509078,56.6933998 41.7509078,57.0289296" id="Path"></path>
                                <path d="M48.4565405,57.0289296 C48.4565405,57.365311 48.1799927,57.6378226 47.837559,57.6378226 C47.4959922,57.6378226 47.2177106,57.365311 47.2177106,57.0289296 C47.2177106,56.6933998 47.4959922,56.4208883 47.837559,56.4208883 C48.1799927,56.4208883 48.4565405,56.6933998 48.4565405,57.0289296" id="Path"></path>
                                <path d="M55.1630401,57.0289296 C55.1630401,57.365311 54.8856255,57.6378226 54.5431917,57.6378226 C54.200758,57.6378226 53.9242102,57.365311 53.9242102,57.0289296 C53.9242102,56.6933998 54.200758,56.4208883 54.5431917,56.4208883 C54.8856255,56.4208883 55.1630401,56.6933998 55.1630401,57.0289296" id="Path"></path>
                                <path d="M61.8686728,57.0289296 C61.8686728,57.365311 61.5912582,57.6378226 61.2488244,57.6378226 C60.9072576,57.6378226 60.629843,57.365311 60.629843,57.0289296 C60.629843,56.6933998 60.9072576,56.4208883 61.2488244,56.4208883 C61.5912582,56.4208883 61.8686728,56.6933998 61.8686728,57.0289296" id="Path"></path>
                                <path d="M1.51624455,62.1836555 C1.51624455,62.5200369 1.23882988,62.7925484 0.896396151,62.7925484 C0.554829339,62.7925484 0.27741467,62.5200369 0.27741467,62.1836555 C0.27741467,61.8472741 0.554829339,61.5756141 0.896396151,61.5756141 C1.23882988,61.5756141 1.51624455,61.8472741 1.51624455,62.1836555" id="Path"></path>
                                <path d="M8.22187727,62.1836555 C8.22187727,62.5200369 7.9444626,62.7925484 7.60289579,62.7925484 C7.26046206,62.7925484 6.98304739,62.5200369 6.98304739,62.1836555 C6.98304739,61.8472741 7.26046206,61.5756141 7.60289579,61.5756141 C7.9444626,61.5756141 8.22187727,61.8472741 8.22187727,62.1836555" id="Path"></path>
                                <path d="M14.92751,62.1836555 C14.92751,62.5200369 14.6509622,62.7925484 14.3085285,62.7925484 C13.9660948,62.7925484 13.6886801,62.5200369 13.6886801,62.1836555 C13.6886801,61.8472741 13.9660948,61.5756141 14.3085285,61.5756141 C14.6509622,61.5756141 14.92751,61.8472741 14.92751,62.1836555" id="Path"></path>
                                <path d="M21.6340096,62.1836555 C21.6340096,62.5200369 21.355728,62.7925484 21.0141612,62.7925484 C20.6717275,62.7925484 20.3951797,62.5200369 20.3951797,62.1836555 C20.3951797,61.8472741 20.6717275,61.5756141 21.0141612,61.5756141 C21.355728,61.5756141 21.6340096,61.8472741 21.6340096,62.1836555" id="Path"></path>
                                <path d="M28.3396423,62.1836555 C28.3396423,62.5200369 28.0622277,62.7925484 27.7197939,62.7925484 C27.3782271,62.7925484 27.1008125,62.5200369 27.1008125,62.1836555 C27.1008125,61.8472741 27.3782271,61.5756141 27.7197939,61.5756141 C28.0622277,61.5756141 28.3396423,61.8472741 28.3396423,62.1836555" id="Path"></path>
                                <path d="M35.0452751,62.1836555 C35.0452751,62.5200369 34.7678604,62.7925484 34.4262936,62.7925484 C34.0838598,62.7925484 33.8064452,62.5200369 33.8064452,62.1836555 C33.8064452,61.8472741 34.0838598,61.5756141 34.4262936,61.5756141 C34.7678604,61.5756141 35.0452751,61.8472741 35.0452751,62.1836555" id="Path"></path>
                                <path d="M41.7509078,62.1836555 C41.7509078,62.5200369 41.4734931,62.7925484 41.1319263,62.7925484 C40.7894926,62.7925484 40.5120779,62.5200369 40.5120779,62.1836555 C40.5120779,61.8472741 40.7894926,61.5756141 41.1319263,61.5756141 C41.4734931,61.5756141 41.7509078,61.8472741 41.7509078,62.1836555" id="Path"></path>
                                <path d="M48.4565405,62.1836555 C48.4565405,62.5200369 48.1799927,62.7925484 47.837559,62.7925484 C47.4959922,62.7925484 47.2177106,62.5200369 47.2177106,62.1836555 C47.2177106,61.8472741 47.4959922,61.5756141 47.837559,61.5756141 C48.1799927,61.5756141 48.4565405,61.8472741 48.4565405,62.1836555" id="Path"></path>
                                <path d="M55.1630401,62.1836555 C55.1630401,62.5200369 54.8856255,62.7925484 54.5431917,62.7925484 C54.200758,62.7925484 53.9242102,62.5200369 53.9242102,62.1836555 C53.9242102,61.8472741 54.200758,61.5756141 54.5431917,61.5756141 C54.8856255,61.5756141 55.1630401,61.8472741 55.1630401,62.1836555" id="Path"></path>
                                <path d="M61.8686728,62.1836555 C61.8686728,62.5200369 61.5912582,62.7925484 61.2488244,62.7925484 C60.9072576,62.7925484 60.629843,62.5200369 60.629843,62.1836555 C60.629843,61.8472741 60.9072576,61.5756141 61.2488244,61.5756141 C61.5912582,61.5756141 61.8686728,61.8472741 61.8686728,62.1836555" id="Path"></path>
                                <path d="M1.51624455,67.3383813 C1.51624455,67.6739111 1.23882988,67.9472743 0.896396151,67.9472743 C0.554829339,67.9472743 0.27741467,67.6739111 0.27741467,67.3383813 C0.27741467,67.0019999 0.554829339,66.73034 0.896396151,66.73034 C1.23882988,66.73034 1.51624455,67.0019999 1.51624455,67.3383813" id="Path"></path>
                                <path d="M8.22187727,67.3383813 C8.22187727,67.6739111 7.9444626,67.9472743 7.60289579,67.9472743 C7.26046206,67.9472743 6.98304739,67.6739111 6.98304739,67.3383813 C6.98304739,67.0019999 7.26046206,66.73034 7.60289579,66.73034 C7.9444626,66.73034 8.22187727,67.0019999 8.22187727,67.3383813" id="Path"></path>
                                <path d="M14.92751,67.3383813 C14.92751,67.6739111 14.6509622,67.9472743 14.3085285,67.9472743 C13.9660948,67.9472743 13.6886801,67.6739111 13.6886801,67.3383813 C13.6886801,67.0019999 13.9660948,66.73034 14.3085285,66.73034 C14.6509622,66.73034 14.92751,67.0019999 14.92751,67.3383813" id="Path"></path>
                                <path d="M21.6340096,67.3383813 C21.6340096,67.6739111 21.355728,67.9472743 21.0141612,67.9472743 C20.6717275,67.9472743 20.3951797,67.6739111 20.3951797,67.3383813 C20.3951797,67.0019999 20.6717275,66.73034 21.0141612,66.73034 C21.355728,66.73034 21.6340096,67.0019999 21.6340096,67.3383813" id="Path"></path>
                                <path d="M28.3396423,67.3383813 C28.3396423,67.6739111 28.0622277,67.9472743 27.7197939,67.9472743 C27.3782271,67.9472743 27.1008125,67.6739111 27.1008125,67.3383813 C27.1008125,67.0019999 27.3782271,66.73034 27.7197939,66.73034 C28.0622277,66.73034 28.3396423,67.0019999 28.3396423,67.3383813" id="Path"></path>
                                <path d="M35.0452751,67.3383813 C35.0452751,67.6739111 34.7678604,67.9472743 34.4262936,67.9472743 C34.0838598,67.9472743 33.8064452,67.6739111 33.8064452,67.3383813 C33.8064452,67.0019999 34.0838598,66.73034 34.4262936,66.73034 C34.7678604,66.73034 35.0452751,67.0019999 35.0452751,67.3383813" id="Path"></path>
                                <path d="M41.7509078,67.3383813 C41.7509078,67.6739111 41.4734931,67.9472743 41.1319263,67.9472743 C40.7894926,67.9472743 40.5120779,67.6739111 40.5120779,67.3383813 C40.5120779,67.0019999 40.7894926,66.73034 41.1319263,66.73034 C41.4734931,66.73034 41.7509078,67.0019999 41.7509078,67.3383813" id="Path"></path>
                                <path d="M48.4565405,67.3383813 C48.4565405,67.6739111 48.1799927,67.9472743 47.837559,67.9472743 C47.4959922,67.9472743 47.2177106,67.6739111 47.2177106,67.3383813 C47.2177106,67.0019999 47.4959922,66.73034 47.837559,66.73034 C48.1799927,66.73034 48.4565405,67.0019999 48.4565405,67.3383813" id="Path"></path>
                                <path d="M55.1630401,67.3383813 C55.1630401,67.6739111 54.8856255,67.9472743 54.5431917,67.9472743 C54.200758,67.9472743 53.9242102,67.6739111 53.9242102,67.3383813 C53.9242102,67.0019999 54.200758,66.73034 54.5431917,66.73034 C54.8856255,66.73034 55.1630401,67.0019999 55.1630401,67.3383813" id="Path"></path>
                                <path d="M61.8686728,67.3383813 C61.8686728,67.6739111 61.5912582,67.9472743 61.2488244,67.9472743 C60.9072576,67.9472743 60.629843,67.6739111 60.629843,67.3383813 C60.629843,67.0019999 60.9072576,66.73034 61.2488244,66.73034 C61.5912582,66.73034 61.8686728,67.0019999 61.8686728,67.3383813" id="Path"></path>
                                <path d="M1.51624455,72.4922556 C1.51624455,72.828637 1.23882988,73.1011485 0.896396151,73.1011485 C0.554829339,73.1011485 0.27741467,72.828637 0.27741467,72.4922556 C0.27741467,72.1567257 0.554829339,71.8842142 0.896396151,71.8842142 C1.23882988,71.8842142 1.51624455,72.1567257 1.51624455,72.4922556" id="Path"></path>
                                <path d="M8.22187727,72.4922556 C8.22187727,72.828637 7.9444626,73.1011485 7.60289579,73.1011485 C7.26046206,73.1011485 6.98304739,72.828637 6.98304739,72.4922556 C6.98304739,72.1567257 7.26046206,71.8842142 7.60289579,71.8842142 C7.9444626,71.8842142 8.22187727,72.1567257 8.22187727,72.4922556" id="Path"></path>
                                <path d="M14.92751,72.4922556 C14.92751,72.828637 14.6509622,73.1011485 14.3085285,73.1011485 C13.9660948,73.1011485 13.6886801,72.828637 13.6886801,72.4922556 C13.6886801,72.1567257 13.9660948,71.8842142 14.3085285,71.8842142 C14.6509622,71.8842142 14.92751,72.1567257 14.92751,72.4922556" id="Path"></path>
                                <path d="M21.6340096,72.4922556 C21.6340096,72.828637 21.355728,73.1011485 21.0141612,73.1011485 C20.6717275,73.1011485 20.3951797,72.828637 20.3951797,72.4922556 C20.3951797,72.1567257 20.6717275,71.8842142 21.0141612,71.8842142 C21.355728,71.8842142 21.6340096,72.1567257 21.6340096,72.4922556" id="Path"></path>
                                <path d="M28.3396423,72.4922556 C28.3396423,72.828637 28.0622277,73.1011485 27.7197939,73.1011485 C27.3782271,73.1011485 27.1008125,72.828637 27.1008125,72.4922556 C27.1008125,72.1567257 27.3782271,71.8842142 27.7197939,71.8842142 C28.0622277,71.8842142 28.3396423,72.1567257 28.3396423,72.4922556" id="Path"></path>
                                <path d="M35.0452751,72.4922556 C35.0452751,72.828637 34.7678604,73.1011485 34.4262936,73.1011485 C34.0838598,73.1011485 33.8064452,72.828637 33.8064452,72.4922556 C33.8064452,72.1567257 34.0838598,71.8842142 34.4262936,71.8842142 C34.7678604,71.8842142 35.0452751,72.1567257 35.0452751,72.4922556" id="Path"></path>
                                <path d="M41.7509078,72.4922556 C41.7509078,72.828637 41.4734931,73.1011485 41.1319263,73.1011485 C40.7894926,73.1011485 40.5120779,72.828637 40.5120779,72.4922556 C40.5120779,72.1567257 40.7894926,71.8842142 41.1319263,71.8842142 C41.4734931,71.8842142 41.7509078,72.1567257 41.7509078,72.4922556" id="Path"></path>
                                <path d="M48.4565405,72.4922556 C48.4565405,72.828637 48.1799927,73.1011485 47.837559,73.1011485 C47.4959922,73.1011485 47.2177106,72.828637 47.2177106,72.4922556 C47.2177106,72.1567257 47.4959922,71.8842142 47.837559,71.8842142 C48.1799927,71.8842142 48.4565405,72.1567257 48.4565405,72.4922556" id="Path"></path>
                                <path d="M55.1630401,72.4922556 C55.1630401,72.828637 54.8856255,73.1011485 54.5431917,73.1011485 C54.200758,73.1011485 53.9242102,72.828637 53.9242102,72.4922556 C53.9242102,72.1567257 54.200758,71.8842142 54.5431917,71.8842142 C54.8856255,71.8842142 55.1630401,72.1567257 55.1630401,72.4922556" id="Path"></path>
                                <path d="M61.8686728,72.4922556 C61.8686728,72.828637 61.5912582,73.1011485 61.2488244,73.1011485 C60.9072576,73.1011485 60.629843,72.828637 60.629843,72.4922556 C60.629843,72.1567257 60.9072576,71.8842142 61.2488244,71.8842142 C61.5912582,71.8842142 61.8686728,72.1567257 61.8686728,72.4922556" id="Path"></path>
                                <path d="M1.51624455,77.6469814 C1.51624455,77.9833628 1.23882988,78.2558743 0.896396151,78.2558743 C0.554829339,78.2558743 0.27741467,77.9833628 0.27741467,77.6469814 C0.27741467,77.3106 0.554829339,77.0389401 0.896396151,77.0389401 C1.23882988,77.0389401 1.51624455,77.3106 1.51624455,77.6469814" id="Path"></path>
                                <path d="M8.22187727,77.6469814 C8.22187727,77.9833628 7.9444626,78.2558743 7.60289579,78.2558743 C7.26046206,78.2558743 6.98304739,77.9833628 6.98304739,77.6469814 C6.98304739,77.3106 7.26046206,77.0389401 7.60289579,77.0389401 C7.9444626,77.0389401 8.22187727,77.3106 8.22187727,77.6469814" id="Path"></path>
                                <path d="M14.92751,77.6469814 C14.92751,77.9833628 14.6509622,78.2558743 14.3085285,78.2558743 C13.9660948,78.2558743 13.6886801,77.9833628 13.6886801,77.6469814 C13.6886801,77.3106 13.9660948,77.0389401 14.3085285,77.0389401 C14.6509622,77.0389401 14.92751,77.3106 14.92751,77.6469814" id="Path"></path>
                                <path d="M21.6340096,77.6469814 C21.6340096,77.9833628 21.355728,78.2558743 21.0141612,78.2558743 C20.6717275,78.2558743 20.3951797,77.9833628 20.3951797,77.6469814 C20.3951797,77.3106 20.6717275,77.0389401 21.0141612,77.0389401 C21.355728,77.0389401 21.6340096,77.3106 21.6340096,77.6469814" id="Path"></path>
                                <path d="M28.3396423,77.6469814 C28.3396423,77.9833628 28.0622277,78.2558743 27.7197939,78.2558743 C27.3782271,78.2558743 27.1008125,77.9833628 27.1008125,77.6469814 C27.1008125,77.3106 27.3782271,77.0389401 27.7197939,77.0389401 C28.0622277,77.0389401 28.3396423,77.3106 28.3396423,77.6469814" id="Path"></path>
                                <path d="M35.0452751,77.6469814 C35.0452751,77.9833628 34.7678604,78.2558743 34.4262936,78.2558743 C34.0838598,78.2558743 33.8064452,77.9833628 33.8064452,77.6469814 C33.8064452,77.3106 34.0838598,77.0389401 34.4262936,77.0389401 C34.7678604,77.0389401 35.0452751,77.3106 35.0452751,77.6469814" id="Path"></path>
                                <path d="M41.7509078,77.6469814 C41.7509078,77.9833628 41.4734931,78.2558743 41.1319263,78.2558743 C40.7894926,78.2558743 40.5120779,77.9833628 40.5120779,77.6469814 C40.5120779,77.3106 40.7894926,77.0389401 41.1319263,77.0389401 C41.4734931,77.0389401 41.7509078,77.3106 41.7509078,77.6469814" id="Path"></path>
                                <path d="M48.4565405,77.6469814 C48.4565405,77.9833628 48.1799927,78.2558743 47.837559,78.2558743 C47.4959922,78.2558743 47.2177106,77.9833628 47.2177106,77.6469814 C47.2177106,77.3106 47.4959922,77.0389401 47.837559,77.0389401 C48.1799927,77.0389401 48.4565405,77.3106 48.4565405,77.6469814" id="Path"></path>
                                <path d="M55.1630401,77.6469814 C55.1630401,77.9833628 54.8856255,78.2558743 54.5431917,78.2558743 C54.200758,78.2558743 53.9242102,77.9833628 53.9242102,77.6469814 C53.9242102,77.3106 54.200758,77.0389401 54.5431917,77.0389401 C54.8856255,77.0389401 55.1630401,77.3106 55.1630401,77.6469814" id="Path"></path>
                                <path d="M61.8686728,77.6469814 C61.8686728,77.9833628 61.5912582,78.2558743 61.2488244,78.2558743 C60.9072576,78.2558743 60.629843,77.9833628 60.629843,77.6469814 C60.629843,77.3106 60.9072576,77.0389401 61.2488244,77.0389401 C61.5912582,77.0389401 61.8686728,77.3106 61.8686728,77.6469814" id="Path"></path>
                            </g>
                            <g id="Group" opacity="0.300003" transform="translate(16.228758, 53.928105)" fill="#FFC916">
                                <path d="M1.87147899,1.43530417 C1.87147899,1.80310633 1.57846965,2.10172666 1.21757839,2.10172666 C0.856687123,2.10172666 0.563677786,1.80310633 0.563677786,1.43530417 C0.563677786,1.067502 0.856687123,0.76975739 1.21757839,0.76975739 C1.57846965,0.76975739 1.87147899,1.067502 1.87147899,1.43530417" id="Path"></path>
                                <path d="M8.94666633,1.43530417 C8.94666633,1.80310633 8.65451625,2.10172666 8.29276572,2.10172666 C7.93187446,2.10172666 7.63886512,1.80310633 7.63886512,1.43530417 C7.63886512,1.067502 7.93187446,0.76975739 8.29276572,0.76975739 C8.65451625,0.76975739 8.94666633,1.067502 8.94666633,1.43530417" id="Path"></path>
                                <path d="M16.0218537,1.43530417 C16.0218537,1.80310633 15.7297036,2.10172666 15.3679531,2.10172666 C15.0079211,2.10172666 14.7149117,1.80310633 14.7149117,1.43530417 C14.7149117,1.067502 15.0079211,0.76975739 15.3679531,0.76975739 C15.7297036,0.76975739 16.0218537,1.067502 16.0218537,1.43530417" id="Path"></path>
                                <path d="M23.097041,1.43530417 C23.097041,1.80310633 22.8048909,2.10172666 22.4439997,2.10172666 C22.0831084,2.10172666 21.7900991,1.80310633 21.7900991,1.43530417 C21.7900991,1.067502 22.0831084,0.76975739 22.4439997,0.76975739 C22.8048909,0.76975739 23.097041,1.067502 23.097041,1.43530417" id="Path"></path>
                                <path d="M30.1730876,1.43530417 C30.1730876,1.80310633 29.8800783,2.10172666 29.519187,2.10172666 C29.1582957,2.10172666 28.8661457,1.80310633 28.8661457,1.43530417 C28.8661457,1.067502 29.1582957,0.76975739 29.519187,0.76975739 C29.8800783,0.76975739 30.1730876,1.067502 30.1730876,1.43530417" id="Path"></path>
                                <path d="M37.2482749,1.43530417 C37.2482749,1.80310633 36.9561249,2.10172666 36.5943743,2.10172666 C36.2343423,2.10172666 35.941333,1.80310633 35.941333,1.43530417 C35.941333,1.067502 36.2343423,0.76975739 36.5943743,0.76975739 C36.9561249,0.76975739 37.2482749,1.067502 37.2482749,1.43530417" id="Path"></path>
                                <path d="M44.3234623,1.43530417 C44.3234623,1.80310633 44.0313122,2.10172666 43.6704209,2.10172666 C43.3095297,2.10172666 43.0165203,1.80310633 43.0165203,1.43530417 C43.0165203,1.067502 43.3095297,0.76975739 43.6704209,0.76975739 C44.0313122,0.76975739 44.3234623,1.067502 44.3234623,1.43530417" id="Path"></path>
                                <path d="M51.3995089,1.43530417 C51.3995089,1.80310633 51.1064995,2.10172666 50.7456083,2.10172666 C50.384717,2.10172666 50.0925669,1.80310633 50.0925669,1.43530417 C50.0925669,1.067502 50.384717,0.76975739 50.7456083,0.76975739 C51.1064995,0.76975739 51.3995089,1.067502 51.3995089,1.43530417" id="Path"></path>
                                <path d="M58.4746962,1.43530417 C58.4746962,1.80310633 58.1825461,2.10172666 57.8207956,2.10172666 C57.4607636,2.10172666 57.1677543,1.80310633 57.1677543,1.43530417 C57.1677543,1.067502 57.4607636,0.76975739 57.8207956,0.76975739 C58.1825461,0.76975739 58.4746962,1.067502 58.4746962,1.43530417" id="Path"></path>
                                <path d="M65.5498835,1.43530417 C65.5498835,1.80310633 65.2577335,2.10172666 64.8968422,2.10172666 C64.5359509,2.10172666 64.2429416,1.80310633 64.2429416,1.43530417 C64.2429416,1.067502 64.5359509,0.76975739 64.8968422,0.76975739 C65.2577335,0.76975739 65.5498835,1.067502 65.5498835,1.43530417" id="Path"></path>
                                <path d="M1.87147899,7.07844025 C1.87147899,7.4453667 1.57846965,7.74398703 1.21757839,7.74398703 C0.856687123,7.74398703 0.563677786,7.4453667 0.563677786,7.07844025 C0.563677786,6.71063808 0.856687123,6.41201775 1.21757839,6.41201775 C1.57846965,6.41201775 1.87147899,6.71063808 1.87147899,7.07844025" id="Path"></path>
                                <path d="M8.94666633,7.07844025 C8.94666633,7.4453667 8.65451625,7.74398703 8.29276572,7.74398703 C7.93187446,7.74398703 7.63886512,7.4453667 7.63886512,7.07844025 C7.63886512,6.71063808 7.93187446,6.41201775 8.29276572,6.41201775 C8.65451625,6.41201775 8.94666633,6.71063808 8.94666633,7.07844025" id="Path"></path>
                                <path d="M16.0218537,7.07844025 C16.0218537,7.4453667 15.7297036,7.74398703 15.3679531,7.74398703 C15.0079211,7.74398703 14.7149117,7.4453667 14.7149117,7.07844025 C14.7149117,6.71063808 15.0079211,6.41201775 15.3679531,6.41201775 C15.7297036,6.41201775 16.0218537,6.71063808 16.0218537,7.07844025" id="Path"></path>
                                <path d="M23.097041,7.07844025 C23.097041,7.4453667 22.8048909,7.74398703 22.4439997,7.74398703 C22.0831084,7.74398703 21.7900991,7.4453667 21.7900991,7.07844025 C21.7900991,6.71063808 22.0831084,6.41201775 22.4439997,6.41201775 C22.8048909,6.41201775 23.097041,6.71063808 23.097041,7.07844025" id="Path"></path>
                                <path d="M30.1730876,7.07844025 C30.1730876,7.4453667 29.8800783,7.74398703 29.519187,7.74398703 C29.1582957,7.74398703 28.8661457,7.4453667 28.8661457,7.07844025 C28.8661457,6.71063808 29.1582957,6.41201775 29.519187,6.41201775 C29.8800783,6.41201775 30.1730876,6.71063808 30.1730876,7.07844025" id="Path"></path>
                                <path d="M37.2482749,7.07844025 C37.2482749,7.4453667 36.9561249,7.74398703 36.5943743,7.74398703 C36.2343423,7.74398703 35.941333,7.4453667 35.941333,7.07844025 C35.941333,6.71063808 36.2343423,6.41201775 36.5943743,6.41201775 C36.9561249,6.41201775 37.2482749,6.71063808 37.2482749,7.07844025" id="Path"></path>
                                <path d="M44.3234623,7.07844025 C44.3234623,7.4453667 44.0313122,7.74398703 43.6704209,7.74398703 C43.3095297,7.74398703 43.0165203,7.4453667 43.0165203,7.07844025 C43.0165203,6.71063808 43.3095297,6.41201775 43.6704209,6.41201775 C44.0313122,6.41201775 44.3234623,6.71063808 44.3234623,7.07844025" id="Path"></path>
                                <path d="M51.3995089,7.07844025 C51.3995089,7.4453667 51.1064995,7.74398703 50.7456083,7.74398703 C50.384717,7.74398703 50.0925669,7.4453667 50.0925669,7.07844025 C50.0925669,6.71063808 50.384717,6.41201775 50.7456083,6.41201775 C51.1064995,6.41201775 51.3995089,6.71063808 51.3995089,7.07844025" id="Path"></path>
                                <path d="M58.4746962,7.07844025 C58.4746962,7.4453667 58.1825461,7.74398703 57.8207956,7.74398703 C57.4607636,7.74398703 57.1677543,7.4453667 57.1677543,7.07844025 C57.1677543,6.71063808 57.4607636,6.41201775 57.8207956,6.41201775 C58.1825461,6.41201775 58.4746962,6.71063808 58.4746962,7.07844025" id="Path"></path>
                                <path d="M65.5498835,7.07844025 C65.5498835,7.4453667 65.2577335,7.74398703 64.8968422,7.74398703 C64.5359509,7.74398703 64.2429416,7.4453667 64.2429416,7.07844025 C64.2429416,6.71063808 64.5359509,6.41201775 64.8968422,6.41201775 C65.2577335,6.41201775 65.5498835,6.71063808 65.5498835,7.07844025" id="Path"></path>
                                <path d="M1.87147899,12.7207006 C1.87147899,13.0885028 1.57846965,13.3862474 1.21757839,13.3862474 C0.856687123,13.3862474 0.563677786,13.0885028 0.563677786,12.7207006 C0.563677786,12.3528984 0.856687123,12.0542781 1.21757839,12.0542781 C1.57846965,12.0542781 1.87147899,12.3528984 1.87147899,12.7207006" id="Path"></path>
                                <path d="M8.94666633,12.7207006 C8.94666633,13.0885028 8.65451625,13.3862474 8.29276572,13.3862474 C7.93187446,13.3862474 7.63886512,13.0885028 7.63886512,12.7207006 C7.63886512,12.3528984 7.93187446,12.0542781 8.29276572,12.0542781 C8.65451625,12.0542781 8.94666633,12.3528984 8.94666633,12.7207006" id="Path"></path>
                                <path d="M16.0218537,12.7207006 C16.0218537,13.0885028 15.7297036,13.3862474 15.3679531,13.3862474 C15.0079211,13.3862474 14.7149117,13.0885028 14.7149117,12.7207006 C14.7149117,12.3528984 15.0079211,12.0542781 15.3679531,12.0542781 C15.7297036,12.0542781 16.0218537,12.3528984 16.0218537,12.7207006" id="Path"></path>
                                <path d="M23.097041,12.7207006 C23.097041,13.0885028 22.8048909,13.3862474 22.4439997,13.3862474 C22.0831084,13.3862474 21.7900991,13.0885028 21.7900991,12.7207006 C21.7900991,12.3528984 22.0831084,12.0542781 22.4439997,12.0542781 C22.8048909,12.0542781 23.097041,12.3528984 23.097041,12.7207006" id="Path"></path>
                                <path d="M30.1730876,12.7207006 C30.1730876,13.0885028 29.8800783,13.3862474 29.519187,13.3862474 C29.1582957,13.3862474 28.8661457,13.0885028 28.8661457,12.7207006 C28.8661457,12.3528984 29.1582957,12.0542781 29.519187,12.0542781 C29.8800783,12.0542781 30.1730876,12.3528984 30.1730876,12.7207006" id="Path"></path>
                                <path d="M37.2482749,12.7207006 C37.2482749,13.0885028 36.9561249,13.3862474 36.5943743,13.3862474 C36.2343423,13.3862474 35.941333,13.0885028 35.941333,12.7207006 C35.941333,12.3528984 36.2343423,12.0542781 36.5943743,12.0542781 C36.9561249,12.0542781 37.2482749,12.3528984 37.2482749,12.7207006" id="Path"></path>
                                <path d="M44.3234623,12.7207006 C44.3234623,13.0885028 44.0313122,13.3862474 43.6704209,13.3862474 C43.3095297,13.3862474 43.0165203,13.0885028 43.0165203,12.7207006 C43.0165203,12.3528984 43.3095297,12.0542781 43.6704209,12.0542781 C44.0313122,12.0542781 44.3234623,12.3528984 44.3234623,12.7207006" id="Path"></path>
                                <path d="M51.3995089,12.7207006 C51.3995089,13.0885028 51.1064995,13.3862474 50.7456083,13.3862474 C50.384717,13.3862474 50.0925669,13.0885028 50.0925669,12.7207006 C50.0925669,12.3528984 50.384717,12.0542781 50.7456083,12.0542781 C51.1064995,12.0542781 51.3995089,12.3528984 51.3995089,12.7207006" id="Path"></path>
                                <path d="M58.4746962,12.7207006 C58.4746962,13.0885028 58.1825461,13.3862474 57.8207956,13.3862474 C57.4607636,13.3862474 57.1677543,13.0885028 57.1677543,12.7207006 C57.1677543,12.3528984 57.4607636,12.0542781 57.8207956,12.0542781 C58.1825461,12.0542781 58.4746962,12.3528984 58.4746962,12.7207006" id="Path"></path>
                                <path d="M65.5498835,12.7207006 C65.5498835,13.0885028 65.2577335,13.3862474 64.8968422,13.3862474 C64.5359509,13.3862474 64.2429416,13.0885028 64.2429416,12.7207006 C64.2429416,12.3528984 64.5359509,12.0542781 64.8968422,12.0542781 C65.2577335,12.0542781 65.5498835,12.3528984 65.5498835,12.7207006" id="Path"></path>
                                <path d="M1.87147899,18.362961 C1.87147899,18.7307631 1.57846965,19.0293835 1.21757839,19.0293835 C0.856687123,19.0293835 0.563677786,18.7307631 0.563677786,18.362961 C0.563677786,17.9951588 0.856687123,17.6965385 1.21757839,17.6965385 C1.57846965,17.6965385 1.87147899,17.9951588 1.87147899,18.362961" id="Path"></path>
                                <path d="M8.94666633,18.362961 C8.94666633,18.7307631 8.65451625,19.0293835 8.29276572,19.0293835 C7.93187446,19.0293835 7.63886512,18.7307631 7.63886512,18.362961 C7.63886512,17.9951588 7.93187446,17.6965385 8.29276572,17.6965385 C8.65451625,17.6965385 8.94666633,17.9951588 8.94666633,18.362961" id="Path"></path>
                                <path d="M16.0218537,18.362961 C16.0218537,18.7307631 15.7297036,19.0293835 15.3679531,19.0293835 C15.0079211,19.0293835 14.7149117,18.7307631 14.7149117,18.362961 C14.7149117,17.9951588 15.0079211,17.6965385 15.3679531,17.6965385 C15.7297036,17.6965385 16.0218537,17.9951588 16.0218537,18.362961" id="Path"></path>
                                <path d="M23.097041,18.362961 C23.097041,18.7307631 22.8048909,19.0293835 22.4439997,19.0293835 C22.0831084,19.0293835 21.7900991,18.7307631 21.7900991,18.362961 C21.7900991,17.9951588 22.0831084,17.6965385 22.4439997,17.6965385 C22.8048909,17.6965385 23.097041,17.9951588 23.097041,18.362961" id="Path"></path>
                                <path d="M30.1730876,18.362961 C30.1730876,18.7307631 29.8800783,19.0293835 29.519187,19.0293835 C29.1582957,19.0293835 28.8661457,18.7307631 28.8661457,18.362961 C28.8661457,17.9951588 29.1582957,17.6965385 29.519187,17.6965385 C29.8800783,17.6965385 30.1730876,17.9951588 30.1730876,18.362961" id="Path"></path>
                                <path d="M37.2482749,18.362961 C37.2482749,18.7307631 36.9561249,19.0293835 36.5943743,19.0293835 C36.2343423,19.0293835 35.941333,18.7307631 35.941333,18.362961 C35.941333,17.9951588 36.2343423,17.6965385 36.5943743,17.6965385 C36.9561249,17.6965385 37.2482749,17.9951588 37.2482749,18.362961" id="Path"></path>
                                <path d="M44.3234623,18.362961 C44.3234623,18.7307631 44.0313122,19.0293835 43.6704209,19.0293835 C43.3095297,19.0293835 43.0165203,18.7307631 43.0165203,18.362961 C43.0165203,17.9951588 43.3095297,17.6965385 43.6704209,17.6965385 C44.0313122,17.6965385 44.3234623,17.9951588 44.3234623,18.362961" id="Path"></path>
                                <path d="M51.3995089,18.362961 C51.3995089,18.7307631 51.1064995,19.0293835 50.7456083,19.0293835 C50.384717,19.0293835 50.0925669,18.7307631 50.0925669,18.362961 C50.0925669,17.9951588 50.384717,17.6965385 50.7456083,17.6965385 C51.1064995,17.6965385 51.3995089,17.9951588 51.3995089,18.362961" id="Path"></path>
                                <path d="M58.4746962,18.362961 C58.4746962,18.7307631 58.1825461,19.0293835 57.8207956,19.0293835 C57.4607636,19.0293835 57.1677543,18.7307631 57.1677543,18.362961 C57.1677543,17.9951588 57.4607636,17.6965385 57.8207956,17.6965385 C58.1825461,17.6965385 58.4746962,17.9951588 58.4746962,18.362961" id="Path"></path>
                                <path d="M65.5498835,18.362961 C65.5498835,18.7307631 65.2577335,19.0293835 64.8968422,19.0293835 C64.5359509,19.0293835 64.2429416,18.7307631 64.2429416,18.362961 C64.2429416,17.9951588 64.5359509,17.6965385 64.8968422,17.6965385 C65.2577335,17.6965385 65.5498835,17.9951588 65.5498835,18.362961" id="Path"></path>
                                <path d="M1.87147899,24.0060971 C1.87147899,24.3730235 1.57846965,24.6716438 1.21757839,24.6716438 C0.856687123,24.6716438 0.563677786,24.3730235 0.563677786,24.0060971 C0.563677786,23.6374192 0.856687123,23.3387988 1.21757839,23.3387988 C1.57846965,23.3387988 1.87147899,23.6374192 1.87147899,24.0060971" id="Path"></path>
                                <path d="M8.94666633,24.0060971 C8.94666633,24.3730235 8.65451625,24.6716438 8.29276572,24.6716438 C7.93187446,24.6716438 7.63886512,24.3730235 7.63886512,24.0060971 C7.63886512,23.6374192 7.93187446,23.3387988 8.29276572,23.3387988 C8.65451625,23.3387988 8.94666633,23.6374192 8.94666633,24.0060971" id="Path"></path>
                                <path d="M16.0218537,24.0060971 C16.0218537,24.3730235 15.7297036,24.6716438 15.3679531,24.6716438 C15.0079211,24.6716438 14.7149117,24.3730235 14.7149117,24.0060971 C14.7149117,23.6374192 15.0079211,23.3387988 15.3679531,23.3387988 C15.7297036,23.3387988 16.0218537,23.6374192 16.0218537,24.0060971" id="Path"></path>
                                <path d="M23.097041,24.0060971 C23.097041,24.3730235 22.8048909,24.6716438 22.4439997,24.6716438 C22.0831084,24.6716438 21.7900991,24.3730235 21.7900991,24.0060971 C21.7900991,23.6374192 22.0831084,23.3387988 22.4439997,23.3387988 C22.8048909,23.3387988 23.097041,23.6374192 23.097041,24.0060971" id="Path"></path>
                                <path d="M30.1730876,24.0060971 C30.1730876,24.3730235 29.8800783,24.6716438 29.519187,24.6716438 C29.1582957,24.6716438 28.8661457,24.3730235 28.8661457,24.0060971 C28.8661457,23.6374192 29.1582957,23.3387988 29.519187,23.3387988 C29.8800783,23.3387988 30.1730876,23.6374192 30.1730876,24.0060971" id="Path"></path>
                                <path d="M37.2482749,24.0060971 C37.2482749,24.3730235 36.9561249,24.6716438 36.5943743,24.6716438 C36.2343423,24.6716438 35.941333,24.3730235 35.941333,24.0060971 C35.941333,23.6374192 36.2343423,23.3387988 36.5943743,23.3387988 C36.9561249,23.3387988 37.2482749,23.6374192 37.2482749,24.0060971" id="Path"></path>
                                <path d="M44.3234623,24.0060971 C44.3234623,24.3730235 44.0313122,24.6716438 43.6704209,24.6716438 C43.3095297,24.6716438 43.0165203,24.3730235 43.0165203,24.0060971 C43.0165203,23.6374192 43.3095297,23.3387988 43.6704209,23.3387988 C44.0313122,23.3387988 44.3234623,23.6374192 44.3234623,24.0060971" id="Path"></path>
                                <path d="M51.3995089,24.0060971 C51.3995089,24.3730235 51.1064995,24.6716438 50.7456083,24.6716438 C50.384717,24.6716438 50.0925669,24.3730235 50.0925669,24.0060971 C50.0925669,23.6374192 50.384717,23.3387988 50.7456083,23.3387988 C51.1064995,23.3387988 51.3995089,23.6374192 51.3995089,24.0060971" id="Path"></path>
                                <path d="M58.4746962,24.0060971 C58.4746962,24.3730235 58.1825461,24.6716438 57.8207956,24.6716438 C57.4607636,24.6716438 57.1677543,24.3730235 57.1677543,24.0060971 C57.1677543,23.6374192 57.4607636,23.3387988 57.8207956,23.3387988 C58.1825461,23.3387988 58.4746962,23.6374192 58.4746962,24.0060971" id="Path"></path>
                                <path d="M65.5498835,24.0060971 C65.5498835,24.3730235 65.2577335,24.6716438 64.8968422,24.6716438 C64.5359509,24.6716438 64.2429416,24.3730235 64.2429416,24.0060971 C64.2429416,23.6374192 64.5359509,23.3387988 64.8968422,23.3387988 C65.2577335,23.3387988 65.5498835,23.6374192 65.5498835,24.0060971" id="Path"></path>
                                <path d="M1.87147899,29.6483574 C1.87147899,30.0161596 1.57846965,30.3147799 1.21757839,30.3147799 C0.856687123,30.3147799 0.563677786,30.0161596 0.563677786,29.6483574 C0.563677786,29.2796795 0.856687123,28.9819349 1.21757839,28.9819349 C1.57846965,28.9819349 1.87147899,29.2796795 1.87147899,29.6483574" id="Path"></path>
                                <path d="M8.94666633,29.6483574 C8.94666633,30.0161596 8.65451625,30.3147799 8.29276572,30.3147799 C7.93187446,30.3147799 7.63886512,30.0161596 7.63886512,29.6483574 C7.63886512,29.2796795 7.93187446,28.9819349 8.29276572,28.9819349 C8.65451625,28.9819349 8.94666633,29.2796795 8.94666633,29.6483574" id="Path"></path>
                                <path d="M16.0218537,29.6483574 C16.0218537,30.0161596 15.7297036,30.3147799 15.3679531,30.3147799 C15.0079211,30.3147799 14.7149117,30.0161596 14.7149117,29.6483574 C14.7149117,29.2796795 15.0079211,28.9819349 15.3679531,28.9819349 C15.7297036,28.9819349 16.0218537,29.2796795 16.0218537,29.6483574" id="Path"></path>
                                <path d="M23.097041,29.6483574 C23.097041,30.0161596 22.8048909,30.3147799 22.4439997,30.3147799 C22.0831084,30.3147799 21.7900991,30.0161596 21.7900991,29.6483574 C21.7900991,29.2796795 22.0831084,28.9819349 22.4439997,28.9819349 C22.8048909,28.9819349 23.097041,29.2796795 23.097041,29.6483574" id="Path"></path>
                                <path d="M30.1730876,29.6483574 C30.1730876,30.0161596 29.8800783,30.3147799 29.519187,30.3147799 C29.1582957,30.3147799 28.8661457,30.0161596 28.8661457,29.6483574 C28.8661457,29.2796795 29.1582957,28.9819349 29.519187,28.9819349 C29.8800783,28.9819349 30.1730876,29.2796795 30.1730876,29.6483574" id="Path"></path>
                                <path d="M37.2482749,29.6483574 C37.2482749,30.0161596 36.9561249,30.3147799 36.5943743,30.3147799 C36.2343423,30.3147799 35.941333,30.0161596 35.941333,29.6483574 C35.941333,29.2796795 36.2343423,28.9819349 36.5943743,28.9819349 C36.9561249,28.9819349 37.2482749,29.2796795 37.2482749,29.6483574" id="Path"></path>
                                <path d="M44.3234623,29.6483574 C44.3234623,30.0161596 44.0313122,30.3147799 43.6704209,30.3147799 C43.3095297,30.3147799 43.0165203,30.0161596 43.0165203,29.6483574 C43.0165203,29.2796795 43.3095297,28.9819349 43.6704209,28.9819349 C44.0313122,28.9819349 44.3234623,29.2796795 44.3234623,29.6483574" id="Path"></path>
                                <path d="M51.3995089,29.6483574 C51.3995089,30.0161596 51.1064995,30.3147799 50.7456083,30.3147799 C50.384717,30.3147799 50.0925669,30.0161596 50.0925669,29.6483574 C50.0925669,29.2796795 50.384717,28.9819349 50.7456083,28.9819349 C51.1064995,28.9819349 51.3995089,29.2796795 51.3995089,29.6483574" id="Path"></path>
                                <path d="M58.4746962,29.6483574 C58.4746962,30.0161596 58.1825461,30.3147799 57.8207956,30.3147799 C57.4607636,30.3147799 57.1677543,30.0161596 57.1677543,29.6483574 C57.1677543,29.2796795 57.4607636,28.9819349 57.8207956,28.9819349 C58.1825461,28.9819349 58.4746962,29.2796795 58.4746962,29.6483574" id="Path"></path>
                                <path d="M65.5498835,29.6483574 C65.5498835,30.0161596 65.2577335,30.3147799 64.8968422,30.3147799 C64.5359509,30.3147799 64.2429416,30.0161596 64.2429416,29.6483574 C64.2429416,29.2796795 64.5359509,28.9819349 64.8968422,28.9819349 C65.2577335,28.9819349 65.5498835,29.2796795 65.5498835,29.6483574" id="Path"></path>
                                <path d="M1.87147899,35.2906178 C1.87147899,35.65842 1.57846965,35.9570403 1.21757839,35.9570403 C0.856687123,35.9570403 0.563677786,35.65842 0.563677786,35.2906178 C0.563677786,34.9228156 0.856687123,34.6241953 1.21757839,34.6241953 C1.57846965,34.6241953 1.87147899,34.9228156 1.87147899,35.2906178" id="Path"></path>
                                <path d="M8.94666633,35.2906178 C8.94666633,35.65842 8.65451625,35.9570403 8.29276572,35.9570403 C7.93187446,35.9570403 7.63886512,35.65842 7.63886512,35.2906178 C7.63886512,34.9228156 7.93187446,34.6241953 8.29276572,34.6241953 C8.65451625,34.6241953 8.94666633,34.9228156 8.94666633,35.2906178" id="Path"></path>
                                <path d="M16.0218537,35.2906178 C16.0218537,35.65842 15.7297036,35.9570403 15.3679531,35.9570403 C15.0079211,35.9570403 14.7149117,35.65842 14.7149117,35.2906178 C14.7149117,34.9228156 15.0079211,34.6241953 15.3679531,34.6241953 C15.7297036,34.6241953 16.0218537,34.9228156 16.0218537,35.2906178" id="Path"></path>
                                <path d="M23.097041,35.2906178 C23.097041,35.65842 22.8048909,35.9570403 22.4439997,35.9570403 C22.0831084,35.9570403 21.7900991,35.65842 21.7900991,35.2906178 C21.7900991,34.9228156 22.0831084,34.6241953 22.4439997,34.6241953 C22.8048909,34.6241953 23.097041,34.9228156 23.097041,35.2906178" id="Path"></path>
                                <path d="M30.1730876,35.2906178 C30.1730876,35.65842 29.8800783,35.9570403 29.519187,35.9570403 C29.1582957,35.9570403 28.8661457,35.65842 28.8661457,35.2906178 C28.8661457,34.9228156 29.1582957,34.6241953 29.519187,34.6241953 C29.8800783,34.6241953 30.1730876,34.9228156 30.1730876,35.2906178" id="Path"></path>
                                <path d="M37.2482749,35.2906178 C37.2482749,35.65842 36.9561249,35.9570403 36.5943743,35.9570403 C36.2343423,35.9570403 35.941333,35.65842 35.941333,35.2906178 C35.941333,34.9228156 36.2343423,34.6241953 36.5943743,34.6241953 C36.9561249,34.6241953 37.2482749,34.9228156 37.2482749,35.2906178" id="Path"></path>
                                <path d="M44.3234623,35.2906178 C44.3234623,35.65842 44.0313122,35.9570403 43.6704209,35.9570403 C43.3095297,35.9570403 43.0165203,35.65842 43.0165203,35.2906178 C43.0165203,34.9228156 43.3095297,34.6241953 43.6704209,34.6241953 C44.0313122,34.6241953 44.3234623,34.9228156 44.3234623,35.2906178" id="Path"></path>
                                <path d="M51.3995089,35.2906178 C51.3995089,35.65842 51.1064995,35.9570403 50.7456083,35.9570403 C50.384717,35.9570403 50.0925669,35.65842 50.0925669,35.2906178 C50.0925669,34.9228156 50.384717,34.6241953 50.7456083,34.6241953 C51.1064995,34.6241953 51.3995089,34.9228156 51.3995089,35.2906178" id="Path"></path>
                                <path d="M58.4746962,35.2906178 C58.4746962,35.65842 58.1825461,35.9570403 57.8207956,35.9570403 C57.4607636,35.9570403 57.1677543,35.65842 57.1677543,35.2906178 C57.1677543,34.9228156 57.4607636,34.6241953 57.8207956,34.6241953 C58.1825461,34.6241953 58.4746962,34.9228156 58.4746962,35.2906178" id="Path"></path>
                                <path d="M65.5498835,35.2906178 C65.5498835,35.65842 65.2577335,35.9570403 64.8968422,35.9570403 C64.5359509,35.9570403 64.2429416,35.65842 64.2429416,35.2906178 C64.2429416,34.9228156 64.5359509,34.6241953 64.8968422,34.6241953 C65.2577335,34.6241953 65.5498835,34.9228156 65.5498835,35.2906178" id="Path"></path>
                                <path d="M1.87147899,40.9328782 C1.87147899,41.3006803 1.57846965,41.5993007 1.21757839,41.5993007 C0.856687123,41.5993007 0.563677786,41.3006803 0.563677786,40.9328782 C0.563677786,40.565076 0.856687123,40.2664557 1.21757839,40.2664557 C1.57846965,40.2664557 1.87147899,40.565076 1.87147899,40.9328782" id="Path"></path>
                                <path d="M8.94666633,40.9328782 C8.94666633,41.3006803 8.65451625,41.5993007 8.29276572,41.5993007 C7.93187446,41.5993007 7.63886512,41.3006803 7.63886512,40.9328782 C7.63886512,40.565076 7.93187446,40.2664557 8.29276572,40.2664557 C8.65451625,40.2664557 8.94666633,40.565076 8.94666633,40.9328782" id="Path"></path>
                                <path d="M16.0218537,40.9328782 C16.0218537,41.3006803 15.7297036,41.5993007 15.3679531,41.5993007 C15.0079211,41.5993007 14.7149117,41.3006803 14.7149117,40.9328782 C14.7149117,40.565076 15.0079211,40.2664557 15.3679531,40.2664557 C15.7297036,40.2664557 16.0218537,40.565076 16.0218537,40.9328782" id="Path"></path>
                                <path d="M23.097041,40.9328782 C23.097041,41.3006803 22.8048909,41.5993007 22.4439997,41.5993007 C22.0831084,41.5993007 21.7900991,41.3006803 21.7900991,40.9328782 C21.7900991,40.565076 22.0831084,40.2664557 22.4439997,40.2664557 C22.8048909,40.2664557 23.097041,40.565076 23.097041,40.9328782" id="Path"></path>
                                <path d="M30.1730876,40.9328782 C30.1730876,41.3006803 29.8800783,41.5993007 29.519187,41.5993007 C29.1582957,41.5993007 28.8661457,41.3006803 28.8661457,40.9328782 C28.8661457,40.565076 29.1582957,40.2664557 29.519187,40.2664557 C29.8800783,40.2664557 30.1730876,40.565076 30.1730876,40.9328782" id="Path"></path>
                                <path d="M37.2482749,40.9328782 C37.2482749,41.3006803 36.9561249,41.5993007 36.5943743,41.5993007 C36.2343423,41.5993007 35.941333,41.3006803 35.941333,40.9328782 C35.941333,40.565076 36.2343423,40.2664557 36.5943743,40.2664557 C36.9561249,40.2664557 37.2482749,40.565076 37.2482749,40.9328782" id="Path"></path>
                                <path d="M44.3234623,40.9328782 C44.3234623,41.3006803 44.0313122,41.5993007 43.6704209,41.5993007 C43.3095297,41.5993007 43.0165203,41.3006803 43.0165203,40.9328782 C43.0165203,40.565076 43.3095297,40.2664557 43.6704209,40.2664557 C44.0313122,40.2664557 44.3234623,40.565076 44.3234623,40.9328782" id="Path"></path>
                                <path d="M51.3995089,40.9328782 C51.3995089,41.3006803 51.1064995,41.5993007 50.7456083,41.5993007 C50.384717,41.5993007 50.0925669,41.3006803 50.0925669,40.9328782 C50.0925669,40.565076 50.384717,40.2664557 50.7456083,40.2664557 C51.1064995,40.2664557 51.3995089,40.565076 51.3995089,40.9328782" id="Path"></path>
                                <path d="M58.4746962,40.9328782 C58.4746962,41.3006803 58.1825461,41.5993007 57.8207956,41.5993007 C57.4607636,41.5993007 57.1677543,41.3006803 57.1677543,40.9328782 C57.1677543,40.565076 57.4607636,40.2664557 57.8207956,40.2664557 C58.1825461,40.2664557 58.4746962,40.565076 58.4746962,40.9328782" id="Path"></path>
                                <path d="M65.5498835,40.9328782 C65.5498835,41.3006803 65.2577335,41.5993007 64.8968422,41.5993007 C64.5359509,41.5993007 64.2429416,41.3006803 64.2429416,40.9328782 C64.2429416,40.565076 64.5359509,40.2664557 64.8968422,40.2664557 C65.2577335,40.2664557 65.5498835,40.565076 65.5498835,40.9328782" id="Path"></path>
                                <path d="M1.87147899,46.5751385 C1.87147899,46.9438164 1.57846965,47.241561 1.21757839,47.241561 C0.856687123,47.241561 0.563677786,46.9438164 0.563677786,46.5751385 C0.563677786,46.2073364 0.856687123,45.908716 1.21757839,45.908716 C1.57846965,45.908716 1.87147899,46.2073364 1.87147899,46.5751385" id="Path"></path>
                                <path d="M8.94666633,46.5751385 C8.94666633,46.9438164 8.65451625,47.241561 8.29276572,47.241561 C7.93187446,47.241561 7.63886512,46.9438164 7.63886512,46.5751385 C7.63886512,46.2073364 7.93187446,45.908716 8.29276572,45.908716 C8.65451625,45.908716 8.94666633,46.2073364 8.94666633,46.5751385" id="Path"></path>
                                <path d="M16.0218537,46.5751385 C16.0218537,46.9438164 15.7297036,47.241561 15.3679531,47.241561 C15.0079211,47.241561 14.7149117,46.9438164 14.7149117,46.5751385 C14.7149117,46.2073364 15.0079211,45.908716 15.3679531,45.908716 C15.7297036,45.908716 16.0218537,46.2073364 16.0218537,46.5751385" id="Path"></path>
                                <path d="M23.097041,46.5751385 C23.097041,46.9438164 22.8048909,47.241561 22.4439997,47.241561 C22.0831084,47.241561 21.7900991,46.9438164 21.7900991,46.5751385 C21.7900991,46.2073364 22.0831084,45.908716 22.4439997,45.908716 C22.8048909,45.908716 23.097041,46.2073364 23.097041,46.5751385" id="Path"></path>
                                <path d="M30.1730876,46.5751385 C30.1730876,46.9438164 29.8800783,47.241561 29.519187,47.241561 C29.1582957,47.241561 28.8661457,46.9438164 28.8661457,46.5751385 C28.8661457,46.2073364 29.1582957,45.908716 29.519187,45.908716 C29.8800783,45.908716 30.1730876,46.2073364 30.1730876,46.5751385" id="Path"></path>
                                <path d="M37.2482749,46.5751385 C37.2482749,46.9438164 36.9561249,47.241561 36.5943743,47.241561 C36.2343423,47.241561 35.941333,46.9438164 35.941333,46.5751385 C35.941333,46.2073364 36.2343423,45.908716 36.5943743,45.908716 C36.9561249,45.908716 37.2482749,46.2073364 37.2482749,46.5751385" id="Path"></path>
                                <path d="M44.3234623,46.5751385 C44.3234623,46.9438164 44.0313122,47.241561 43.6704209,47.241561 C43.3095297,47.241561 43.0165203,46.9438164 43.0165203,46.5751385 C43.0165203,46.2073364 43.3095297,45.908716 43.6704209,45.908716 C44.0313122,45.908716 44.3234623,46.2073364 44.3234623,46.5751385" id="Path"></path>
                                <path d="M51.3995089,46.5751385 C51.3995089,46.9438164 51.1064995,47.241561 50.7456083,47.241561 C50.384717,47.241561 50.0925669,46.9438164 50.0925669,46.5751385 C50.0925669,46.2073364 50.384717,45.908716 50.7456083,45.908716 C51.1064995,45.908716 51.3995089,46.2073364 51.3995089,46.5751385" id="Path"></path>
                                <path d="M58.4746962,46.5751385 C58.4746962,46.9438164 58.1825461,47.241561 57.8207956,47.241561 C57.4607636,47.241561 57.1677543,46.9438164 57.1677543,46.5751385 C57.1677543,46.2073364 57.4607636,45.908716 57.8207956,45.908716 C58.1825461,45.908716 58.4746962,46.2073364 58.4746962,46.5751385" id="Path"></path>
                                <path d="M65.5498835,46.5751385 C65.5498835,46.9438164 65.2577335,47.241561 64.8968422,47.241561 C64.5359509,47.241561 64.2429416,46.9438164 64.2429416,46.5751385 C64.2429416,46.2073364 64.5359509,45.908716 64.8968422,45.908716 C65.2577335,45.908716 65.5498835,46.2073364 65.5498835,46.5751385" id="Path"></path>
                                <path d="M1.87147899,52.2173989 C1.87147899,52.5860768 1.57846965,52.8838214 1.21757839,52.8838214 C0.856687123,52.8838214 0.563677786,52.5860768 0.563677786,52.2173989 C0.563677786,51.8504724 0.856687123,51.5518521 1.21757839,51.5518521 C1.57846965,51.5518521 1.87147899,51.8504724 1.87147899,52.2173989" id="Path"></path>
                                <path d="M8.94666633,52.2173989 C8.94666633,52.5860768 8.65451625,52.8838214 8.29276572,52.8838214 C7.93187446,52.8838214 7.63886512,52.5860768 7.63886512,52.2173989 C7.63886512,51.8504724 7.93187446,51.5518521 8.29276572,51.5518521 C8.65451625,51.5518521 8.94666633,51.8504724 8.94666633,52.2173989" id="Path"></path>
                                <path d="M16.0218537,52.2173989 C16.0218537,52.5860768 15.7297036,52.8838214 15.3679531,52.8838214 C15.0079211,52.8838214 14.7149117,52.5860768 14.7149117,52.2173989 C14.7149117,51.8504724 15.0079211,51.5518521 15.3679531,51.5518521 C15.7297036,51.5518521 16.0218537,51.8504724 16.0218537,52.2173989" id="Path"></path>
                                <path d="M23.097041,52.2173989 C23.097041,52.5860768 22.8048909,52.8838214 22.4439997,52.8838214 C22.0831084,52.8838214 21.7900991,52.5860768 21.7900991,52.2173989 C21.7900991,51.8504724 22.0831084,51.5518521 22.4439997,51.5518521 C22.8048909,51.5518521 23.097041,51.8504724 23.097041,52.2173989" id="Path"></path>
                                <path d="M30.1730876,52.2173989 C30.1730876,52.5860768 29.8800783,52.8838214 29.519187,52.8838214 C29.1582957,52.8838214 28.8661457,52.5860768 28.8661457,52.2173989 C28.8661457,51.8504724 29.1582957,51.5518521 29.519187,51.5518521 C29.8800783,51.5518521 30.1730876,51.8504724 30.1730876,52.2173989" id="Path"></path>
                                <path d="M37.2482749,52.2173989 C37.2482749,52.5860768 36.9561249,52.8838214 36.5943743,52.8838214 C36.2343423,52.8838214 35.941333,52.5860768 35.941333,52.2173989 C35.941333,51.8504724 36.2343423,51.5518521 36.5943743,51.5518521 C36.9561249,51.5518521 37.2482749,51.8504724 37.2482749,52.2173989" id="Path"></path>
                                <path d="M44.3234623,52.2173989 C44.3234623,52.5860768 44.0313122,52.8838214 43.6704209,52.8838214 C43.3095297,52.8838214 43.0165203,52.5860768 43.0165203,52.2173989 C43.0165203,51.8504724 43.3095297,51.5518521 43.6704209,51.5518521 C44.0313122,51.5518521 44.3234623,51.8504724 44.3234623,52.2173989" id="Path"></path>
                                <path d="M51.3995089,52.2173989 C51.3995089,52.5860768 51.1064995,52.8838214 50.7456083,52.8838214 C50.384717,52.8838214 50.0925669,52.5860768 50.0925669,52.2173989 C50.0925669,51.8504724 50.384717,51.5518521 50.7456083,51.5518521 C51.1064995,51.5518521 51.3995089,51.8504724 51.3995089,52.2173989" id="Path"></path>
                                <path d="M58.4746962,52.2173989 C58.4746962,52.5860768 58.1825461,52.8838214 57.8207956,52.8838214 C57.4607636,52.8838214 57.1677543,52.5860768 57.1677543,52.2173989 C57.1677543,51.8504724 57.4607636,51.5518521 57.8207956,51.5518521 C58.1825461,51.5518521 58.4746962,51.8504724 58.4746962,52.2173989" id="Path"></path>
                                <path d="M65.5498835,52.2173989 C65.5498835,52.5860768 65.2577335,52.8838214 64.8968422,52.8838214 C64.5359509,52.8838214 64.2429416,52.5860768 64.2429416,52.2173989 C64.2429416,51.8504724 64.5359509,51.5518521 64.8968422,51.5518521 C65.2577335,51.5518521 65.5498835,51.8504724 65.5498835,52.2173989" id="Path"></path>
                                <path d="M1.87147899,57.860535 C1.87147899,58.2283371 1.57846965,58.5269575 1.21757839,58.5269575 C0.856687123,58.5269575 0.563677786,58.2283371 0.563677786,57.860535 C0.563677786,57.4927328 0.856687123,57.1941125 1.21757839,57.1941125 C1.57846965,57.1941125 1.87147899,57.4927328 1.87147899,57.860535" id="Path"></path>
                                <path d="M8.94666633,57.860535 C8.94666633,58.2283371 8.65451625,58.5269575 8.29276572,58.5269575 C7.93187446,58.5269575 7.63886512,58.2283371 7.63886512,57.860535 C7.63886512,57.4927328 7.93187446,57.1941125 8.29276572,57.1941125 C8.65451625,57.1941125 8.94666633,57.4927328 8.94666633,57.860535" id="Path"></path>
                                <path d="M16.0218537,57.860535 C16.0218537,58.2283371 15.7297036,58.5269575 15.3679531,58.5269575 C15.0079211,58.5269575 14.7149117,58.2283371 14.7149117,57.860535 C14.7149117,57.4927328 15.0079211,57.1941125 15.3679531,57.1941125 C15.7297036,57.1941125 16.0218537,57.4927328 16.0218537,57.860535" id="Path"></path>
                                <path d="M23.097041,57.860535 C23.097041,58.2283371 22.8048909,58.5269575 22.4439997,58.5269575 C22.0831084,58.5269575 21.7900991,58.2283371 21.7900991,57.860535 C21.7900991,57.4927328 22.0831084,57.1941125 22.4439997,57.1941125 C22.8048909,57.1941125 23.097041,57.4927328 23.097041,57.860535" id="Path"></path>
                                <path d="M30.1730876,57.860535 C30.1730876,58.2283371 29.8800783,58.5269575 29.519187,58.5269575 C29.1582957,58.5269575 28.8661457,58.2283371 28.8661457,57.860535 C28.8661457,57.4927328 29.1582957,57.1941125 29.519187,57.1941125 C29.8800783,57.1941125 30.1730876,57.4927328 30.1730876,57.860535" id="Path"></path>
                                <path d="M37.2482749,57.860535 C37.2482749,58.2283371 36.9561249,58.5269575 36.5943743,58.5269575 C36.2343423,58.5269575 35.941333,58.2283371 35.941333,57.860535 C35.941333,57.4927328 36.2343423,57.1941125 36.5943743,57.1941125 C36.9561249,57.1941125 37.2482749,57.4927328 37.2482749,57.860535" id="Path"></path>
                                <path d="M44.3234623,57.860535 C44.3234623,58.2283371 44.0313122,58.5269575 43.6704209,58.5269575 C43.3095297,58.5269575 43.0165203,58.2283371 43.0165203,57.860535 C43.0165203,57.4927328 43.3095297,57.1941125 43.6704209,57.1941125 C44.0313122,57.1941125 44.3234623,57.4927328 44.3234623,57.860535" id="Path"></path>
                                <path d="M51.3995089,57.860535 C51.3995089,58.2283371 51.1064995,58.5269575 50.7456083,58.5269575 C50.384717,58.5269575 50.0925669,58.2283371 50.0925669,57.860535 C50.0925669,57.4927328 50.384717,57.1941125 50.7456083,57.1941125 C51.1064995,57.1941125 51.3995089,57.4927328 51.3995089,57.860535" id="Path"></path>
                                <path d="M58.4746962,57.860535 C58.4746962,58.2283371 58.1825461,58.5269575 57.8207956,58.5269575 C57.4607636,58.5269575 57.1677543,58.2283371 57.1677543,57.860535 C57.1677543,57.4927328 57.4607636,57.1941125 57.8207956,57.1941125 C58.1825461,57.1941125 58.4746962,57.4927328 58.4746962,57.860535" id="Path"></path>
                                <path d="M65.5498835,57.860535 C65.5498835,58.2283371 65.2577335,58.5269575 64.8968422,58.5269575 C64.5359509,58.5269575 64.2429416,58.2283371 64.2429416,57.860535 C64.2429416,57.4927328 64.5359509,57.1941125 64.8968422,57.1941125 C65.2577335,57.1941125 65.5498835,57.4927328 65.5498835,57.860535" id="Path"></path>
                            </g>
                        </g>
                    </g>
                </g>
                <g id="Group-10" transform="translate(52.000000, 12.000000)">
                    <g id="Group-3-Copy" transform="translate(0.000000, 2.178000)">
                        <g id="Path">
                            <use fill="black" fill-opacity="1" filter="url(#filter-2)" xlink:href="#path-1"></use>
                            <use fill="#FFFFFF" fill-rule="evenodd" xlink:href="#path-1"></use>
                        </g>
                    </g>
                    <path d="M4.14699976,0 L88.6129996,0 C90.417314,-7.75536371e-16 91.8799997,1.46268575 91.8799997,3.26700006 L91.8799997,7.955839 L91.8799997,7.955839 L0.879999704,7.955839 L0.879999704,3.26700006 C0.879999704,1.46268575 2.34268545,-1.12642049e-16 4.14699976,0 Z" id="Rectangle" fill="#283A5E"></path>
                    <g id="Group-4" transform="translate(4.100000, 2.977920)" fill="#D8D8D8">
                        <circle id="Oval" cx="10.1570002" cy="1.08900002" r="1.08900002"></circle>
                        <circle id="Oval-Copy" cx="5.62300013" cy="1.08900002" r="1.08900002"></circle>
                        <circle id="Oval-Copy-2" cx="1.08900002" cy="1.08900002" r="1.08900002"></circle>
                    </g>
                </g>
                <g id="Group-5" transform="translate(79.500000, 38.500000)">
                    <circle id="Oval" fill="#283A5E" cx="3.5" cy="3.5" r="3.5"></circle>
                    <circle id="Oval-Copy-3" fill="#283A5E" cx="34.5" cy="3.5" r="3.5"></circle>
                    <path d="M5.875,27.5684841 C10.25,23.0150646 14.625,20.7383549 19,20.7383549 C23.375,20.7383549 27.75,23.0150646 32.125,27.5684841" id="Path-4" stroke="#283A5E" stroke-width="1.05" stroke-linecap="round"></path>
                </g>
                <g id="Group-13-Copy" transform="translate(124.500000, 61.000000)">
                    <circle id="BG" fill="#FF4702" cx="17.3500183" cy="17.3500183" r="17.3500183"></circle>
                    <path d="M25.7510021,25.4709619 C25.1314231,26.0905408 24.1270864,26.0905408 23.5075075,25.4709619 L17.6171443,19.5805987 L11.4467409,25.7510021 C10.8271619,26.370581 9.82282525,26.370581 9.2032463,25.7510021 C8.58366735,25.1314231 8.58366735,24.1270864 9.2032463,23.5075075 L15.3736497,17.3371041 L9.48328647,11.4467409 C8.86370752,10.8271619 8.86370752,9.82203193 9.48328647,9.2032463 C10.1028654,8.58366735 11.1072021,8.58366735 11.726781,9.2032463 L17.6171443,15.0936095 L23.226674,9.48407978 C23.846253,8.86450083 24.8505896,8.86450083 25.4701686,9.48407978 C26.0897475,10.1036587 26.0897475,11.1079954 25.4701686,11.7275744 L19.8606388,17.3371041 L25.7510021,23.2274673 C26.370581,23.8470463 26.370581,24.851383 25.7510021,25.4709619 Z" id="Path" fill="url(#linearGradient-3)" fill-rule="nonzero"></path>
                </g>
            </g>
        </g>
    </g>
</svg>