<?xml version="1.0" encoding="UTF-8"?>
<svg width="24px" height="24px" viewBox="0 0 24 24" version="1.1" xmlns="http://www.w3.org/2000/svg" xmlns:xlink="http://www.w3.org/1999/xlink">
    <!-- Generator: Sketch 49 (51002) - http://www.bohemiancoding.com/sketch -->
    <title>Query Icon</title>
    <desc>Created with Sketch.</desc>
    <defs>
        <path d="M20.0017291,9.49876492 C20.0053688,10.975676 19.6602057,12.4325809 18.9962337,13.7470906 C17.3878939,16.9651628 14.0997186,18.9986397 10.5043364,19.0000284 C9.16926521,19.0035093 7.85051152,18.7219644 6.63567774,18.1761415 L1.31795687,19.9487151 C0.536198839,20.2093011 -0.207540205,19.4655621 0.0530458055,18.6838041 L1.82561905,13.3660843 C1.27979641,12.1512694 0.998251292,10.8327093 1.00172918,9.49964488 C1.00312127,5.90204237 3.03659813,2.61386703 6.25087574,1.0074338 C7.56957773,0.341354335 9.02696643,-0.00381667222 10.5017291,3.1831692e-05 L11.0568145,0.0015501861 C15.8815637,0.267727671 19.7340333,4.1201972 20.0017291,9.00003183 L20.0017291,9.49876492 Z M2.58286793,17.418893 L6.38550134,16.1513485 C6.6384472,16.0670332 6.91459052,16.0872235 7.15258246,16.2074338 C8.19011132,16.7314921 9.33675615,17.0030658 10.5013422,17.0000319 C13.3415547,16.9989329 15.9374826,15.3935564 17.2091311,12.8491785 C17.7331893,11.8116496 18.0047631,10.6650048 18.0017325,9.50263909 L18.0032475,9.05511725 C17.7932256,5.24824762 14.7535133,2.20853537 11.0017291,2.00003183 L10.4991218,2.00002843 C9.33675615,1.99699783 8.19011132,2.26857161 7.14878785,2.79453643 C4.60820452,4.06427837 3.00282805,6.66020627 3.0017257,9.50263909 C2.9986951,10.6650048 3.27026888,11.8116496 3.79432714,12.8491785 C3.91453742,13.0871704 3.93472769,13.3633137 3.8504124,13.6162596 L2.58286793,17.418893 Z M14.1,9 C14.5970563,9 15,9.44771525 15,10 C15,10.5522847 14.5970563,11 14.1,11 L6.9,11 C6.40294373,11 6,10.5522847 6,10 C6,9.44771525 6.40294373,9 6.9,9 L14.1,9 Z" id="path-1"></path>
    </defs>
    <g id="Query-Icon" stroke="none" stroke-width="1" fill="none" fill-rule="evenodd">
        <g id="Chat" transform="translate(2.000000, 2.000000)">
            <mask id="mask-2" fill="white">
                <use xlink:href="#path-1"></use>
            </mask>
            <use id="Mask" fill="#FFFFFF" fill-rule="nonzero" xlink:href="#path-1"></use>
        </g>
    </g>
</svg>