<?xml version="1.0" encoding="UTF-8"?>
<svg width="296px" height="296px" viewBox="0 0 296 296" version="1.1" xmlns="http://www.w3.org/2000/svg" xmlns:xlink="http://www.w3.org/1999/xlink">
    <!-- Generator: Sketch 48.2 (47327) - http://www.bohemiancoding.com/sketch -->
    <title>Artboard</title>
    <desc>Created with Sketch.</desc>
    <defs>
        <linearGradient x1="50%" y1="0%" x2="50%" y2="100%" id="linearGradient-1">
            <stop stop-color="#FFFFFF" stop-opacity="0.5" offset="0%"></stop>
            <stop stop-color="#000000" stop-opacity="0.5" offset="100%"></stop>
        </linearGradient>
    </defs>
    <g id="App-Name" stroke="none" stroke-width="1" fill="none" fill-rule="evenodd">
        <rect id="Rectangle-11" stroke="#FF0000" stroke-width="4" x="-127" y="-2420" width="2168" height="2796"></rect>
        <g id="Artboard">
            <g id="Group-5" transform="translate(-0.500000, -0.500000)">
                <rect id="Image-base" x="0.484375" y="0.453125" width="296" height="296"></rect>
                <g id="Image" transform="translate(61.484375, 44.453125)">
                    <g id="Group-2" transform="translate(16.000000, 122.000000)">
                        <rect id="Rectangle-3-Copy-2" fill="#E6A657" x="24.9729388" y="61.4247871" width="6.51467968" height="27.0991708" rx="3.25733984"></rect>
                        <rect id="Rectangle-2-Copy-2" fill="#E6A657" x="20.9917456" y="54.1983416" width="12.6674327" height="5.78115643" rx="2.89057822"></rect>
                        <rect id="Rectangle-3-Copy" stroke="#102D5C" stroke-width="3" x="23.9394522" y="60.7568535" width="4.96238627" height="25.5444599" rx="2.48119314"></rect>
                        <rect id="Rectangle-2-Copy" stroke="#102D5C" stroke-width="3" x="19.9582591" y="53.5304079" width="12.9247725" height="4.22644554" rx="2.11322277"></rect>
                        <rect id="Rectangle-3-Copy-4" fill="#E6A657" x="134.636713" y="61.4247871" width="6.51467968" height="27.0991708" rx="3.25733984"></rect>
                        <rect id="Rectangle-2-Copy-4" fill="#E6A657" x="131.7413" y="54.1983416" width="12.6674327" height="5.78115643" rx="2.89057822"></rect>
                        <rect id="Rectangle-3-Copy-3" stroke="#102D5C" stroke-width="3" x="133.965153" y="60.7568535" width="4.96238627" height="25.5444599" rx="2.48119314"></rect>
                        <rect id="Rectangle-2-Copy-3" stroke="#102D5C" stroke-width="3" x="129.98396" y="53.5304079" width="12.9247725" height="4.22644554" rx="2.11322277"></rect>
                        <rect id="Rectangle" fill="#E6A657" x="2.53348654" y="43.7199955" width="160.333505" height="9.39437921" rx="4"></rect>
                        <rect id="Rectangle-Copy" stroke="#102D5C" stroke-width="3" x="1.5" y="43.0520619" width="157.333505" height="7.83966831" rx="3.91983416"></rect>
                        <g id="Group" transform="translate(81.795423, 0.000000)">
                            <rect id="Rectangle-4-Copy-2" fill="#90A7C1" x="2.03509575" y="2.04995088" width="53.3396815" height="32.1503087" rx="4"></rect>
                            <rect id="Rectangle-4" stroke="#102D5C" stroke-width="3" x="1.5" y="1.5" width="50.3396815" height="29.1503087" rx="4"></rect>
                            <rect id="Rectangle-4-Copy" fill="#90A7C1" x="2.75894904" y="36.9728551" width="53.3396815" height="2.41127316" rx="1.20563658"></rect>
                            <rect id="Rectangle-4-Copy-3" stroke="#102D5C" stroke-width="2" x="1.91964968" y="37.1690973" width="51.3396815" height="1" rx="0.5"></rect>
                            <rect id="Rectangle-2" fill="#FFFFFF" x="5.51789809" y="4.01878859" width="42.3038853" height="24.1127316" rx="4"></rect>
                        </g>
                        <ellipse id="Oval-5" fill="#EE2D29" cx="114.549784" cy="23.8472703" rx="1.26674327" ry="1.08396683"></ellipse>
                        <rect id="Rectangle-3" fill="#CACACC" x="116.178454" y="22.7633035" width="10.4958728" height="2.16793366"></rect>
                        <ellipse id="Oval-5-Copy" fill="#5A9EB8" cx="114.549784" cy="19.511403" rx="1.26674327" ry="1.08396683"></ellipse>
                        <rect id="Rectangle-3-Copy-5" fill="#CACACC" x="116.178454" y="18.4274361" width="10.4958728" height="2.16793366"></rect>
                        <rect id="Rectangle-5-Copy" fill="#D8D8D8" x="89.7578089" y="19.1500807" width="18.4582591" height="2.16793366"></rect>
                        <rect id="Rectangle-5" fill="#8C8C8C" x="89.7578089" y="19.1500807" width="9.77201952" height="2.16793366"></rect>
                        <rect id="Rectangle-5-Copy-3" fill="#D8D8D8" x="89.7578089" y="22.7633035" width="18.4582591" height="2.16793366"></rect>
                        <rect id="Rectangle-6" fill="#DD413B" x="93.0151487" y="7.22644554" width="17.0105525" height="2.16793366"></rect>
                        <rect id="Rectangle-8" stroke="#6CCEF9" stroke-width="3" x="94.5151487" y="13.0623129" width="21.2490855" height="1.33586733"></rect>
                    </g>
                    <path d="M78.0504731,132.666667 L98,132.666667" id="Path-2" stroke="#102D5C" stroke-width="3"></path>
                    <path d="M80,143.5 L98,143.5" id="Path-2-Copy" stroke="#102D5C" stroke-width="3"></path>
                    <path d="M60.6959967,130.433973 C62.5478549,127.184221 65.9931465,125 69.9375,125 C75.3959867,125 79.8987168,129.183016 80.5453164,134.58422 C84.119958,134.643079 87,137.623564 87,141.291667 C87,144.802883 84.3610506,147.684043 81,147.975702 L81,148 L58.875,148 L58.875,147.967129 C54.4627266,147.578618 51,143.794343 51,139.183333 C51,134.314023 54.861544,130.366667 59.625,130.366667 C59.9876621,130.366667 60.3450964,130.389547 60.6959967,130.433973 Z" id="Combined-Shape" fill="#86D3F4"></path>
                    <path d="M58.2922569,145 L79.6766833,145 L79.9135489,144.979446 C82.774424,144.73119 85,142.266994 85,139.291667 C85,136.16915 82.5572279,133.633949 79.528853,133.584085 L78.6561537,133.569715 L78.552406,132.703086 C77.9599181,127.753889 73.8397508,124 68.9375,124 C65.4541209,124 62.2914275,125.899141 60.5648315,128.929075 L60.2337705,129.510041 L59.5703937,129.426054 C59.2586578,129.386586 58.943161,129.366667 58.625,129.366667 C54.4188079,129.366667 51,132.861448 51,137.183333 C51,141.252174 54.0434415,144.625882 57.9627129,144.970983 L58.2922569,145 Z" id="Combined-Shape-Copy" stroke="#102D5C" stroke-width="2"></path>
                    <path d="M63,135.5 L74,135.5" id="Path-3" stroke="#314A73" stroke-width="3" fill="url(#linearGradient-1)" stroke-linecap="round" stroke-linejoin="round"></path>
                    <path d="M63,138.5 L74,138.5" id="Path-3-Copy" stroke="#314A73" stroke-width="3" fill="url(#linearGradient-1)" stroke-linecap="round" stroke-linejoin="round"></path>
                    <polyline id="Path-4" stroke="#102D5C" stroke-width="3" points="70 123 70 89 125 89"></polyline>
                    <ellipse id="Oval-2-Copy-4" stroke="#102D5C" stroke-width="3" fill="#FFFFFF" cx="122" cy="17.5" rx="18" ry="17.5"></ellipse>
                    <ellipse id="Oval-2-Copy-3" stroke="#102D5C" stroke-width="3" fill="#FFFFFF" cx="22" cy="62.5" rx="18" ry="17.5"></ellipse>
                    <ellipse id="Oval-2-Copy-2" stroke="#102D5C" stroke-width="3" fill="#FFFFFF" cx="18" cy="137.5" rx="18" ry="17.5"></ellipse>
                    <circle id="Oval-3" fill="#EE2D29" cx="69.5" cy="89.5" r="1.5"></circle>
                    <path d="M51,139.5 L36,139.5" id="Path-5" stroke="#102D5C" stroke-width="3"></path>
                    <polyline id="Path-6" stroke="#102D5C" stroke-width="3" points="53 132 53 64 40 64"></polyline>
                    <polyline id="Path-7" stroke="#102D5C" stroke-width="3" points="60 129 60 19 105 19"></polyline>
                    <circle id="Oval-3-Copy" fill="#EE2D29" cx="60.5" cy="18.5" r="1.5"></circle>
                    <circle id="Oval-3-Copy-2" fill="#EE2D29" cx="52.5" cy="64.5" r="1.5"></circle>
                    <circle id="Oval-3-Copy-3" fill="#EE2D29" cx="49.5" cy="138.5" r="1.5"></circle>
                    <g id="Group-3" transform="translate(125.000000, 69.000000)">
                        <circle id="Oval-2" stroke="#102D5C" stroke-width="3" cx="17.7984058" cy="17.7984058" r="17.7984058"></circle>
                        <circle id="Oval-2-Copy" stroke="#102D5C" stroke-width="2" fill="#FFFFFF" cx="17.7984058" cy="17.7984058" r="17.7984058"></circle>
                        <g id="Group-9" transform="translate(7.991121, 7.264655)">
                            <rect id="Rectangle-9-Copy-7" fill="#88CAC9" x="1.08969832" y="7.94043733" width="3.3789095" height="13.515638"></rect>
                            <rect id="Rectangle-9-Copy-6" fill="#88CAC9" x="6.15806257" y="1.18261833" width="3.3789095" height="20.273457"></rect>
                            <rect id="Rectangle-9-Copy-5" fill="#88CAC9" x="11.2264268" y="6.25098258" width="3.3789095" height="15.2050928"></rect>
                            <rect id="Rectangle-9-Copy-4" fill="#88CAC9" x="16.2947911" y="11.3193468" width="3.3789095" height="10.1367285"></rect>
                            <rect id="Rectangle-9" stroke="#102D5C" stroke-width="2" x="1" y="7.85073902" width="1.3789095" height="11.515638"></rect>
                            <rect id="Rectangle-9-Copy" stroke="#102D5C" stroke-width="2" x="6.06836426" y="1.09292001" width="1.3789095" height="18.273457"></rect>
                            <rect id="Rectangle-9-Copy-2" stroke="#102D5C" stroke-width="2" x="11.1367285" y="6.16128427" width="1.3789095" height="13.2050928"></rect>
                            <rect id="Rectangle-9-Copy-3" stroke="#102D5C" stroke-width="2" x="16.2050928" y="11.2296485" width="1.3789095" height="8.13672851"></rect>
                        </g>
                    </g>
                    <g id="Group-4" transform="translate(16.000000, 55.000000)">
                        <polygon id="Path-10" fill="#102D5C" fill-rule="nonzero" points="8.7804878 2.30021469 8.7804878 1.39130435 13.1707317 1.39130435 13.1707317 8.34782609 8.83245389 8.34782609 8.83245389 7.43891575 12.2531595 7.43891575 12.2531595 2.30021469"></polygon>
                        <path d="M4.3902439,3.59883608 C4.3902439,3.34014518 4.6359413,3.13043478 4.93902439,3.13043478 C5.24210748,3.13043478 5.48780488,3.34014518 5.48780488,3.59883608 L5.48780488,6.14029436 C5.48780488,6.39898525 5.24210748,6.60869565 4.93902439,6.60869565 C4.6359413,6.60869565 4.3902439,6.39898525 4.3902439,6.14029436 L4.3902439,3.59883608 Z" id="Path-9" fill="#102D5C" fill-rule="nonzero"></path>
                        <rect id="Rectangle-10-Copy-5" fill="#5D60E7" x="0.731707317" y="0.695652174" width="9.51219512" height="3.47826087"></rect>
                        <rect id="Rectangle-10-Copy-3" fill="#5D60E7" x="0.731707317" y="12.5217391" width="9.51219512" height="3.47826087"></rect>
                        <rect id="Rectangle-10" stroke="#102D5C" x="0.5" y="0.5" width="8.51219512" height="2.47826087"></rect>
                        <path d="M4.3902439,9.16405347 C4.3902439,8.90536258 4.6359413,8.69565217 4.93902439,8.69565217 C5.24210748,8.69565217 5.48780488,8.90536258 5.48780488,9.16405347 L5.48780488,11.7055117 C5.48780488,11.9642026 5.24210748,12.173913 4.93902439,12.173913 C4.6359413,12.173913 4.3902439,11.9642026 4.3902439,11.7055117 L4.3902439,9.16405347 Z" id="Path-9-Copy" fill="#102D5C" fill-rule="nonzero"></path>
                        <rect id="Rectangle-10-Copy-4" fill="#5D60E7" x="0.731707317" y="6.60869565" width="9.51219512" height="3.47826087"></rect>
                        <rect id="Rectangle-10-Copy" stroke="#102D5C" x="0.5" y="6.41304348" width="8.51219512" height="2.47826087"></rect>
                        <rect id="Rectangle-10-Copy-2" stroke="#102D5C" x="0.5" y="12.326087" width="8.51219512" height="2.47826087"></rect>
                        <ellipse id="Oval-6" fill="#88CAC9" cx="13.1707317" cy="4.52173913" rx="1.82926829" ry="1.73913043"></ellipse>
                    </g>
                    <circle id="Oval-7-Copy-2" fill="#DF7E54" cx="13.5" cy="129.5" r="2.5"></circle>
                    <circle id="Oval-7" stroke="#102D5C" cx="12.5" cy="128.5" r="2.5"></circle>
                    <path d="M13,141.5 L20,141.5" id="Path-12-Copy-2" stroke="#102D5C" stroke-width="2" stroke-linecap="round" stroke-linejoin="round"></path>
                    <path d="M13,147.5 L20,147.5" id="Path-12-Copy-3" stroke="#102D5C" stroke-width="2" stroke-linecap="round" stroke-linejoin="round"></path>
                    <path d="M12.5,132 L12.5,148" id="Path-11" stroke="#102D5C" stroke-width="2" stroke-linecap="round"></path>
                    <path d="M13,135.5 L20,135.5" id="Path-12" stroke="#102D5C" stroke-width="2" stroke-linecap="round" stroke-linejoin="round"></path>
                    <circle id="Oval-7-Copy-3" fill="#E7855D" cx="23.5" cy="135.5" r="2.5"></circle>
                    <circle id="Oval-7-Copy" stroke="#102D5C" cx="23.5" cy="134.5" r="2.5"></circle>
                    <circle id="Oval-7-Copy-5" fill="#E7855D" cx="23.5" cy="141.5" r="2.5"></circle>
                    <circle id="Oval-7-Copy-4" stroke="#102D5C" cx="23.5" cy="141.5" r="2.5"></circle>
                    <circle id="Oval-7-Copy-7" fill="#E7855D" cx="23.5" cy="147.5" r="2.5"></circle>
                    <circle id="Oval-7-Copy-6" stroke="#102D5C" cx="23.5" cy="147.5" r="2.5"></circle>
                    <g id="Group-6" transform="translate(111.000000, 8.000000)">
                        <path d="M8.86752385,10.0354629 L2.05305576,17.0526497 L1.05202973,16.0218449 L7.80163172,9.07145385 C7.11006297,8.2260927 6.69335868,7.13445044 6.69335868,5.94258638 C6.69335868,3.25889087 8.80607409,1.08332581 11.4122406,1.08332581 C14.0184071,1.08332581 16.1311225,3.25889087 16.1311225,5.94258638 C16.1311225,8.62628189 14.0184071,10.801847 11.4122406,10.801847 C10.4751019,10.801847 9.60176716,10.5205432 8.86752385,10.0354629 Z" id="Combined-Shape-Copy-2" fill="#E28FBA"></path>
                        <path d="M10.7108875,9.71852114 C8.10472093,9.71852114 5.99200553,7.54295608 5.99200553,4.85926057 C5.99200553,2.17556506 8.10472093,0 10.7108875,0 C13.317054,0 15.4297694,2.17556506 15.4297694,4.85926057 C15.4297694,7.54295608 13.317054,9.71852114 10.7108875,9.71852114 Z M6.9133323,8.18063563 L7.91435833,9.21144046 L1.00102602,16.3304325 L0,15.2996277 L6.9133323,8.18063563 Z" id="Combined-Shape" stroke="#102D5C" stroke-width="2"></path>
                        <polyline id="Path-13" stroke="#102D5C" stroke-width="3" stroke-linecap="round" points="4.5587955 16.9876187 8.68263581 16.9876187 10.043434 19.8609732 12.5072587 19.8609732 14.0618199 10.8332581 16.0436042 10.8332581 17.4546213 13.4891001 22.509929 13.4891001"></polyline>
                    </g>
                </g>
            </g>
        </g>
    </g>
</svg>